<svg id="b18794f2-ddb6-4e28-a52e-760509eb0aa3" data-name="Layer 1" xmlns="http://www.w3.org/2000/svg" xmlns:xlink="http://www.w3.org/1999/xlink" width="900.05" height="767.69" viewBox="0 0 900.05 767.69">
  <defs>
    <style>
      .fb9d698f-5d00-4add-b7d3-2a01e8d89fa5 {
        fill: none;
      }

      .b85ea53c-0c4c-4c4d-a213-2b9e9712633c {
        clip-path: url(#fda3e9be-a70c-4276-aaff-f8544159613a);
      }

      .efe5ee58-c67a-44dd-9443-a44b23f0b031 {
        fill: #31783b;
      }

      .a37404bd-fa04-4137-a26f-3213dbf3700c {
        fill: #674a1d;
      }

      .aafa257b-be02-4e88-b814-b610996a0f20 {
        fill: #88632a;
      }
    </style>
    <clipPath id="fda3e9be-a70c-4276-aaff-f8544159613a">
      <rect class="fb9d698f-5d00-4add-b7d3-2a01e8d89fa5" x="8.03" y="6.85" width="884" height="754"/>
    </clipPath>
  </defs>
  <g class="b85ea53c-0c4c-4c4d-a213-2b9e9712633c">
    <g>
      <path class="efe5ee58-c67a-44dd-9443-a44b23f0b031" d="M822.82,171.14s26.95-35-8.89-49.33c0,0,6.43-17.82-6.44-19.68,0,0,37.91-52.13-24.08-47.92,0,0,7.74-36.44-29.24-24.48,0,0,7.32-40.19-32.87-34.87,0,0,12.58-30.28-11.29-40.24,0,0,6.15-41.19-26.87-45.82,0,0,17.65-36.63-24.6-52.57,1.24-2.6,2.48-5.16,3.62-7.77-.7-.11-1.39-.23-2.1-.29,1.3-2.16.92-4.76-3.79-7.53h0c.22-.27,35.09-44.4-11.17-55.26.1-.3.2-.57.28-.82a8.46,8.46,0,0,0-1,.64,100.57,100.57,0,0,0-17.74-2.1,16.21,16.21,0,0,1,2.45-2.72A19.22,19.22,0,0,1,625.3-217q-3.63-.1-7.63,0a9.36,9.36,0,0,1-2.58-3.2,7.71,7.71,0,0,1-.38-.85,35.21,35.21,0,0,0-3.84,5.54,11.24,11.24,0,0,0-1.09-5.61c-2.93,4-4.93,9.3-8.23,13.51-4.57,5.84-8.55,2.22-7.47-3.77.39-2.18.85-4.38,1.34-6.58l-.24.06c-2.37,1-5.1,5-7.41,10.29-.89-3.69-2.7-5.3-5.14-3.86s-5,5.65-6.9,11a5.6,5.6,0,0,0-2.45-3.09,63.35,63.35,0,0,1-2.13,11.41c-1.88,6.9-8.59,11.3-10.62,8.1-1.44-2.27-2.32-5.49-3.2-8.7-.12.1-.23.16-.35.27-2.46,2.19-4.44,6.69-5.52,11.89a6.06,6.06,0,0,0-1.35-1c-2.36,3.73-6,6-7.89,5l-.21-.14a28,28,0,0,0-2.33,8.54,5.16,5.16,0,0,0-5.55,0,118.67,118.67,0,0,1-6.06,15.64c-3.22,6.61-8.76,8.89-10.24,4.32a39.92,39.92,0,0,1-1.38-9.82c-1.3,1.3-2.63,2.57-4.1,3.79-5.79,4.83-7.65-2.65-4.48-9.8.88-2,1.84-3.92,2.86-5.82-.83-.94-1.35-2.59-1.34-5.25,0-.3,0-.61,0-.92-2.81,4.06-5.69,8-8.77,11.65-3.73,4.41-7.85,3.38-7.75-1.39.15-6.42,2.3-12.6,5.39-18.69-1.16-.58-1.87-2-1.78-4A35.16,35.16,0,0,1,500-201.12c-1.38-.16-3.62,1.48-6.17,4.3,1.2-4.27,1.3-7.35-.13-7.91s-4,1.53-6.92,5.15c.8-3.74.7-6.37-.52-7a20.72,20.72,0,0,1-1.95,3.38,74.87,74.87,0,0,1-15.94,22.32c-6.94,6.83-10.58-.85-4.07-10.23a52.64,52.64,0,0,0,3.81-6.41c-2.81,2.92-5.85,3.53-7,1.5a11.92,11.92,0,0,1-4.17.61c-1.86,2.34-3.83,3.5-5.4,3.55a23.84,23.84,0,0,1-3.82,5.16c-.39,1.85-.72,3.54-1.05,4.91-2.56,11-14,15.79-11.9,5.22.25-1.28.49-2.51.72-3.73-2.72,2.09-5.36,2.36-5.75-.58-1.16-.81-2.57-.67-4.09.64a14,14,0,0,0-3.26,4.71c-1.09,3.36-2.14,6.71-3.24,10.08-2.74,8.5-9.78,10.5-11.34,6.76-.28-.69-.52-1.43-.77-2.15a5.41,5.41,0,0,0-1.27.64c-1.15,5.45-2.45,11.12-6.14,16.24-3.24,4.5-5.55,5.83-7.57,6.09a16.85,16.85,0,0,1-4.5,9.66,41.93,41.93,0,0,1-6.94,6.07c-2.91,11.45-12.14,24.58-20.7,27.47-3.13,1.06-4.56-1.23-4.4-4.5a30.35,30.35,0,0,0-2.56,4.38c-.25,1.38-.54,2.78-.89,4.23-1.77,7.2-8,13.71-11.12,10.14-.61-.67-10.64,9-13.17,8.78-3.75-.36-4.59-4-4.52-8.64-2,1.71-4.11,2.2-5.52.6l-.18-.23a30.27,30.27,0,0,0,2.36-8.38,28.83,28.83,0,0,0,9-.18c12.05-2.12,20.56-11,19-19.9a14,14,0,0,0-7-9.46,14,14,0,0,0,3-11.43,13.62,13.62,0,0,0-14-11.46c-3.08-6.17-8.19-10-13.2-9.08-6.82,1.2-10.87,10.57-9.05,20.93a29,29,0,0,0,1.13,4.34,11.09,11.09,0,0,0-8.4-2,11,11,0,0,0-6.86,4.25,23.62,23.62,0,0,0-4.33.34c-14,2.47-23.19,17.2-20.43,32.9.08.45.17.91.27,1.36-.16.28-.33.57-.49.87a28.44,28.44,0,0,0-2.87.35A26.57,26.57,0,0,0,250-77.53l-.43,0a13.67,13.67,0,0,1,1.75-7.37,5.37,5.37,0,0,0-.93.42c-2,1.19-4.16,4.07-6,7.81a25.25,25.25,0,0,0-2.81,1c-1.29-1.22-2.94-1.31-4.8,0a13.9,13.9,0,0,0-3.52,4.14c-14.29,1.83-26,11.83-28.12,25.41a28,28,0,0,0-.22,6.7,16.28,16.28,0,0,0-6,5.72c-.28-.42-.55-.83-.84-1.22l-.35.6a18.27,18.27,0,0,1-4.18,5.1,21.52,21.52,0,0,0-12-1.34c-13.24,2.33-21.79,16.67-19.08,32a31.49,31.49,0,0,0,5.26,12.8,18.74,18.74,0,0,0-9.9,1.51,13,13,0,0,0-12.29-5c-7.23,1.27-11.92,8.94-10.48,17.13a16.68,16.68,0,0,0,2.85,6.82c-6.62,2.92-10.56,11-9,19.67a20.5,20.5,0,0,0,.54,2.25,13.93,13.93,0,0,0-8-.9c-6.82,1.2-11.52,6.88-10.5,12.68A8.53,8.53,0,0,0,111.3,70C98.14,75.3,89.78,83.29,91.07,90.62a9.14,9.14,0,0,0,1.66,3.8,52.73,52.73,0,0,0-11.94.73c-24.18,4.25-40.92,24-37.38,44.13a32.67,32.67,0,0,0,11.23,19.19c-5.12,4.71-8.68,11.72-10,19.8-2.94-3.93-7.11-6.12-11.27-5.39-6.69,1.17-10.82,9.47-9.23,18.52,1,5.84,4.19,10.56,8.1,12.86a46,46,0,0,0-16.9,40.49,36.2,36.2,0,0,0-.67,15.87C16.41,270.74,22,279,29.05,283.25c-8.62,6.9-13.32,15.94-11.75,24.87,1.28,7.26,6.48,13.17,14,17a45.9,45.9,0,0,0-4.93,29.49c5,28.53,37.1,46.73,71.65,40.66a74.46,74.46,0,0,0,27-10.38,43.66,43.66,0,0,0,6.51,1.56s-10.43,27.59,26,16.2c0,0,3.71,14.68,18.37,12.11,1.79,1.79,4.27,1.75,7.49-2a5,5,0,0,1,1.27-1.07h0s1.82,5.73,6.76,2.1c0,0-2.93,17.29,8.64,18a3.7,3.7,0,0,0,1,0,21.13,21.13,0,0,0,6.73-1.43s-2.16,16.6,17.3,6c0,0,1.15,3.27,4.61.74,0,0,3.63,11.22,14.33,1.06,0,0,6.6,2.89,9.37-.68,0,0,42.2-2.39,29.61-17.43h0a37.28,37.28,0,0,0-8.47-6.9s11.45-3.94,9-13c0,0,7-3.76,5.63-8.68,0,0,33.83-5.5,12.37-24,0,0,3-3.85,2.67-7.68,8.62,5.07,22.21,8.66,34.53-7,0,0,4.36,1.56,5.16-4.93,0,0,20.84-2.95,13.2-20.44,0,0,6.47-2.46,2.12-7.16,0,0,6-.44,4.7-4.35,0,0,40.95,12,51.84-17.8,0,0,11.07,14.25,29.51,5.9,0,0,14.54,7,23.73-4.72,0,0,15.24,2.91,16.23-11.2,0,0,12,6.15,21.22-1.53,0,0-4.6,23.39,45.69,11.74,0,0,15.75,9.89,20.58-6.5,0,0,3.22,16.81,28.8,9.95,0,0-1.17,17.41,18.94,15.31,0,0,1.1,12.32,21,10.88,0,0,2.72,23.86,28.79,9.95,0,0,13.35,1,11.44-9.88,0,0,24.68,10.27,42-14,0,0,22.64-7.06,7.7-25.83,0,0,12.15-4.68,5.44-14.23,0,0,12,11,19.87-4,0,0,19.61,9.18,23.3-9.13,0,0,14,2.37,15.17-10.43C795.32,250.29,861,227.27,822.82,171.14ZM156.45,41.53a19.78,19.78,0,0,0-1.3-1.81,15.49,15.49,0,0,0,2.14,1Q156.87,41.16,156.45,41.53Z"/>
      <g>
        <path class="a37404bd-fa04-4137-a26f-3213dbf3700c" d="M223.18,698.57s9.3,34.68,58.22,36.49,64.78.21,64.78.21-74.33,28.18-145.91,2.31c-30.84-1.46-39,8.55-78.33,18.45s-114.19,1.5-114.19,1.5,107.41-3.2,126.46-27.64S223.18,698.57,223.18,698.57Z"/>
        <g>
          <path class="a37404bd-fa04-4137-a26f-3213dbf3700c" d="M520.32-167.44c-14.07,3.37-17,5.29-15.59,2.72,1.93-3.48,11.6-11.58,17.62-20.37,6.29-9.19,11.65-17.43,14.18-21.78,3.51-6,.16-11.9,11.49-19.25,12.32-8,38.55-16.81,38.55-16.81a115.4,115.4,0,0,0-25.65,6.27c-10.91,4.23-22,4.36-24.44,16-.46,2.18-10.15,21.28-20.38,34.53-6.52,8.43-15.36,14.89-18.06,15.43-5.36,1.07-7.46-11.82-12.5-24.89-4.16-10.79-26.3-19-26.3-19s14.13,8,19.1,19.59c5.53,12.88,10,23.42,10,30-.1,17.26-16,31.31-18.35,34.8-5.5,8.05-17.86,15.46-23.63,24-11.14,16.41-15.9,34.3-26.82,50.36-.86,1.28-7.46,12.66-12.68,10.73-8.18-3-15.73-21.21-13.67-28,3.72-12.26,2.8-39,2.8-39s-8.2,31.92-9.08,41.4c-1,10.52,7.52,19.33,12.61,29.25,6.67,13-2.32,20.86-.54,27.64,3.93,15-17.83,25.9-22.08,28.92-5.81,4.13-31.14,21.51-34.68,23.52S332.9,41,332.9,41s-15.27,17.47-20.79,21.4c-2.85,2-16.61,15.29-20-1.22-1.17-5.75-7-16.84-6.18-34.18.67-14.1,12.56-53,21.3-63.54C311-41,322.12-58.67,333.62-61.08c8.33-1.75,29-10.25,29-10.25s-21.83,4.49-30.55,4.54c-7,0-21.53,16.49-22.25,11.88-1.92-12.18,11.79-38.51,21.11-51.64,12.84-18.1,35.44-24.52,49.05-33.2,10.4-6.63,29.49-31.07,29.49-31.07s-10.77,11.26-33.36,25.39c-16.09,10.06-40.84,24.77-39.5,15.52,3.69-25.49,9.72-28.94,13.63-38.17s6.33-37.75,10.22-47.13c8.21-19.83,24.3-37,24.3-37s-16.38,15.78-22.93,24.14c-7.55,9.64-12.41,40.74-18.17,57.45-5.4,15.62-9.24,16.8-14.47,30.45-1.6,4.19-3.38,4.69-3.38,4.69s3.29,8.65.3,17.63C320.16-100,303.27-66.1,302.52-55.22c-.74,10.63-7.1-1.24-11.46,1.17-2.54,1.41-11.5-8.76-18.84-16.5-8.86-9.34-5.83-28.77-5.83-28.77s-5.17,8.89-2.33,23.92c2.75,14.5,29.58,28.92,31,31.69,2.79,5.58-4.59,10.3-4.31,13.06,1.4,13.54-12,48.32-12.47,60.93-.86,25.6,5.59,35.91,2.33,50.16-5.4,23.65-16.45,28.06-19.41,31.21a255.91,255.91,0,0,1-18.79,18.47c-33.34,28.73-49.88,73.13-51.61,80.72-5.69,24.92-7.68,64.62-11.51,66-2.84,1-16.43-9.72-27.77-31.94-5.86-11.49-8.72-31-14.22-43.14-1.5-3.31,7.5-45.5,30.17-76.27,16.51-22.41,38.46-41.66,53.12-55.39,10-9.38,13.47-27.62,13.47-27.62s-6.74,15.36-17.1,23.62c-11.3,9-31.14,24.3-36.74,30.33-3.59,3.86-7.32-.06-6.12-14.38.85-10.26,3.18-37.38,4.81-44.19C182.27,23.66,205-9.38,205-9.38s-34.36,39.66-33.46,48.84c1.18,12-8.25,31.64-9.09,42.59-1.5,19.6,2.07,32.38-.6,36-21.74,29.13-27.25,68.88-31.76,67.38C117,181,108,155.37,100.71,143.24c-4.65-7.75-9.5-31.83-9.84-38.82C90.31,93,101.19,72.16,101.19,72.16s-15.44,21.37-14.6,34.48c.64,10-.3,27.84,7.57,38S106.32,175.81,115,187c13.53,17.35,12.32,39.8,14.78,47.87,2.67,8.77,10.91,27.13,5.53,39.64,15.12,27.76,17.55,19.91,30.23,61.52,4.48,14.69,2.05,36.38-1.32,57.21A41.57,41.57,0,0,1,165,404a532.81,532.81,0,0,0,.32,61c8.94-3.74,17.62-8.76,25.55-12.71a38.92,38.92,0,0,1,18.41-3.61c-4.29-30.68-3.68-45-.22-82.88,1.84-20.21,12.09-45.66,28.57-71.1,11.55-17.84,35.79-38.52,35.79-38.52s22.36-16.41,48.63-27.45c8.52-3.59,20.63-12.65,30.45-17.1,11.91-5.41,25.65-4,44.48-7,17.79-2.81,36.64-3,54.72-11.1,5.28-2.37,15.32-11.12,22-19.59,7.37-9.36,28.72-10.77,35.19-19.39,3.3-4.4,17.65,2.4,31.58,9.43a41.54,41.54,0,0,0,26.13,3.67c9.52-1.68,19.81-6.65,19.81-6.65s-26.82,5.81-40.76-4.34c-9.76-7.1-16.55-16.49-14.39-19.31,7.19-9.38,21.82-19.14,32.48-25.49,16.26-9.7,38.92-17.44,38.92-17.44s-15.2-1-27.73,4.59c-10.83,4.8-22.09,13.66-29.47,17.77-10.53,5.86-16.68,5.62-16.68,5.62s-28.58,28-40.52,33.67c-9,4.25-2-12.45,0-23.62,2.12-11.7,15.95-31.7,15.95-31.7a81.42,81.42,0,0,0-17,19.69c-6.6,11-10.35,25.78-15.86,34.42-10.07,15.78-26.9,29.48-34.28,32.71-21.66,9.49-27.48-2.86-42.31,2.43-26.13,9.31-30.56,3.25-29,1.76,9.33-8.79,27.68-27,27.68-27s1-33.57,33.24-66.16a208.19,208.19,0,0,1,28.62-24.46c4.7-3.29,16-13.11,28-17.41,13.75-4.9,38.89,19.54,38.89,19.54s-2.51-11.5-9.83-17.28c-8.28-6.55-17.63-11-14.2-13.06C516.1,35.44,518.43,25.07,533,20.4c7.86-2.52,17.36-23.76,20.74-31.89A54.3,54.3,0,0,1,539.81,6.75c-9.76,8.33-23.27,18.23-32.62,23.53-20.25,11.5-25,9.37-25,9.37S446.76,71.41,428.92,83c-3.54,2.3,2.3-14.45,1.21-23.51-.95-7.86,7.25-28,7.25-28S423,47.13,424.22,62.89c.31,3.85-3.06,14.46-7.56,21.7-9.83,15.83-13.52,25.24-16.57,30.06-13.37,21.17-22.46,44-31.16,52.27-15.61,14.88-46.24,48-71.1,58.59-14.19,6.06-17.75.83-17.75.83s-55.74,54.3-63,55.5c-8.13,1.35-10.67-8.58-16.67-19.18-7-12.38,7.81-52.27,7.81-52.27s14.83-8.46,31.58-19.14c3-1.92,7.7-4.29,22.18-1.63,6.21,1.14,12.51,8.18,19.18,12.77,7,4.84,30.68-1.93,30.68-1.93s-21.17,1-29.52-4.53c-6.93-4.63-27.06-13.74-15.17-20.57C272.68,172.18,284.6,171,299,163c7.93-4.43,17.64-15.24,25-19.53,14.26-8.32,33.68-6.48,33.68-6.48s-16.3-7.7-29.77.09c-7.32,4.23-29.49,22.44-32.82,20.95-2.44-1.08,10.9-14.09,15-27.53,3.51-11.42,29-26.88,29-26.88s-22.33,4.08-25.42,10.62c-5.2,11-16.24,33-24.78,37.26-5.78,2.9-24.93,16-35.38,21.42-16,8.24-23.5,8.66-24.08,7.32-1.65-3.81-15-1,24.17-43.18,13.62-14.67,47.15-46.38,66.07-66.31,7.5-7.91,26.12-19.67,48.26-33.14,16.93-10.29,25.62-24,39.66-31.19C426-3,428.05-11.84,441.63-10.72c7.65.63,23.61-10.42,40.45-15.25,12.55-3.59,28-1.27,28-1.27S487.37-34,479.73-32.51c-6.61,1.29-25.76,18.62-42.44,15.77-3.88-.66-20,7-23.09,6.24-3.85-.95,2.82-22.7,23.32-54.65,6.62-10.33,7.82-24.34,17.34-36.4,8.26-10.47,29.7-30.5,35.05-39.93,2.51-4.42,3.44-12.73,29.51-19.12,6.08-1.49,23-10,34.35-14,10.79-3.8,14.26-12.13,14.26-12.13s-15.6,8.74-26.85,11.46C531.38-172.89,527.47-169.16,520.32-167.44Z"/>
          <path class="a37404bd-fa04-4137-a26f-3213dbf3700c" d="M231.47,703.08c-72.07-141.71-26.54-254,11.14-319.25,9.51-19.55,55.52-58.65,79.89-77.62,8.66-6.75-70.83,31.58-72.25,24.72-5.23,3.94-10.76,8.11-16.81,12.69-116.19,88-101.86,399.08-101.86,399.08l104.13-5S245.88,727.16,231.47,703.08Z"/>
          <path class="a37404bd-fa04-4137-a26f-3213dbf3700c" d="M145.66,377.86q2.61-34.74,1.16-34.91t-6.53,31.84l-25-14.56c6.11,4.17,41.57,29.2,47.61,75.28,3.6,27.43-5,49.15-9.52,58.83,24.31-10.17,16.89-31.53,16.89-31.53S188.39,431.33,145.66,377.86Z"/>
          <path class="aafa257b-be02-4e88-b814-b610996a0f20" d="M214.8,381.3S104.4,581.69,193.12,690.68C174.47,634.36,129.28,584.77,214.8,381.3Z"/>
          <path class="aafa257b-be02-4e88-b814-b610996a0f20" d="M138,746s12.29.83,10.21-76.55S147,580.13,147,580.13s14.48,100,6.52,124S152.55,737.86,138,746Z"/>
          <path class="aafa257b-be02-4e88-b814-b610996a0f20" d="M268.7,744.27s-39.08,9.45-63.72-53.74-16.27-56.34-16.27-56.34S215.82,741.21,268.7,744.27Z"/>
        </g>
      </g>
    </g>
  </g>
</svg>
