<svg id="afb84486-8996-451d-be3d-6530ffc216e1" data-name="Layer 1" xmlns="http://www.w3.org/2000/svg" width="46.82" height="32.62" viewBox="0 0 46.82 32.62">
  <defs>
    <style>
      .fa45b3eb-5081-4948-9b05-4ac5ad8f4a58 {
        fill: #0e300d;
      }
    </style>
  </defs>
  <path class="fa45b3eb-5081-4948-9b05-4ac5ad8f4a58" d="M17.11,10a37.93,37.93,0,0,1,4.05.14,8.76,8.76,0,0,1,3.94,1.77,9.75,9.75,0,0,1,2.24,2.37,20,20,0,0,1,2,4.22c.51,1.62,1.1,4,1.1,4a18.72,18.72,0,0,1-2.4.06,28.87,28.87,0,0,1-3.53-.26,14.15,14.15,0,0,1-3.81-.75,6.9,6.9,0,0,1-2.93-2,6.74,6.74,0,0,1-1.35-3.46,41.75,41.75,0,0,1,.08-6s.49,1.92.8,2.75.65,1.78.93,2.34a10.25,10.25,0,0,0,1.39,1.89,4.59,4.59,0,0,0,.05,2,5.68,5.68,0,0,0,1.05,1.68s-.19-.69-.53-1.63a1.93,1.93,0,0,1,0-1.57,18.18,18.18,0,0,0,1.69,1.57,13.57,13.57,0,0,0,2.23,1.19c.82.33,3.46,1,3.46,1s-1.61-.88-2.42-1.25a12.18,12.18,0,0,1-1.48-.71c-.92-.51-1.56-.94-1.56-.94s.08-.28.81-.72a10.33,10.33,0,0,1,1.84-.6,8,8,0,0,0-2.23.2,2,2,0,0,0-.88.8s-1-1-1.5-1.48a5.09,5.09,0,0,1-.77-1.05,3.58,3.58,0,0,1,1-.55c.51-.15,2.08-.69,2.08-.69a13.11,13.11,0,0,0-2.15.06,3.35,3.35,0,0,0-1.27.57s-.16-.42-.44-1a11.24,11.24,0,0,1-.73-1.67C17.66,11.72,17.11,10,17.11,10Z"/>
</svg>
