<svg id="f3137169-f833-4dfe-8900-9c180d7fe491" data-name="Layer 1" xmlns="http://www.w3.org/2000/svg" width="46.82" height="32.62" viewBox="0 0 46.82 32.62">
  <defs>
    <style>
      .a48b46b9-a5f4-4071-8926-5950d5343dab {
        fill: #2c632b;
      }
    </style>
  </defs>
  <path class="a48b46b9-a5f4-4071-8926-5950d5343dab" d="M35.57,3.74S30.39,1.38,29,1.2A9.13,9.13,0,0,0,22.13,3a15.85,15.85,0,0,0-4.32,4.56,53.12,53.12,0,0,0-4.5,9.57c-1.3,3.86-3,9.69-3,9.69a24,24,0,0,0,3.86,1.88A32.7,32.7,0,0,0,20,30.57c2.46.6,4.17,1.21,6.38.79a8.3,8.3,0,0,0,5.3-3.05c1.75-2.07,2.36-4.78,3.18-8.08S36.46,4.59,36.46,4.59s-1.35,4.66-2.09,6.61c-.82,2.17-1.56,4.18-2.18,5.43a20.53,20.53,0,0,1-2.8,3.93,18.85,18.85,0,0,1-.66,5.2,12.35,12.35,0,0,1-2.18,3.62s.51-1.67,1.33-3.85a8,8,0,0,0,.51-4.09,27.33,27.33,0,0,1-3.19,2.88,14.24,14.24,0,0,1-3.95,1.51,52.28,52.28,0,0,1-5.89.19s2.87-1.14,4.28-1.51a14.8,14.8,0,0,0,2.59-.78A26.72,26.72,0,0,0,25,22.38a6.15,6.15,0,0,0-1.09-2.48A21.08,21.08,0,0,0,21.13,17s2.81,1.1,3.55,2.11a7.42,7.42,0,0,1,1.18,2.71s2-1.87,2.86-2.78a10.5,10.5,0,0,0,1.54-2.18,9.75,9.75,0,0,0-1.51-2.17c-.76-.77-3.16-3.29-3.16-3.29a16.65,16.65,0,0,1,3.46,1.68,8.31,8.31,0,0,1,1.88,2.42s.4-1,1-2.25a31,31,0,0,0,1.65-3.85C34.2,7.81,35.57,3.74,35.57,3.74Z"/>
</svg>
