<svg id="b8910a51-f3e9-45c8-b8eb-f0628fbf749d" data-name="Layer 1" xmlns="http://www.w3.org/2000/svg" width="46.82" height="32.62" viewBox="0 0 46.82 32.62">
  <defs>
    <style>
      .a6652f41-a31a-47dd-952a-12248484c04d {
        fill: #30752e;
      }
    </style>
  </defs>
  <path class="a6652f41-a31a-47dd-952a-12248484c04d" d="M16.48,12.89a31.65,31.65,0,0,1,3.23-1.09,7.4,7.4,0,0,1,3.64.22,8.27,8.27,0,0,1,2.48,1.21A17,17,0,0,1,28.69,16c.88,1.13,2.06,2.85,2.06,2.85a16.09,16.09,0,0,1-1.87.76,27.16,27.16,0,0,1-2.86.85,12.33,12.33,0,0,1-3.24.54,5.79,5.79,0,0,1-2.9-.69,5.71,5.71,0,0,1-2.1-2.33,35.47,35.47,0,0,1-1.71-4.74s1,1.37,1.45,1.93,1,1.22,1.43,1.58a9.2,9.2,0,0,0,1.66,1.07,3.91,3.91,0,0,0,.63,1.56,5,5,0,0,0,1.33,1s-.35-.49-.9-1.12A1.66,1.66,0,0,1,21.18,18a14.63,14.63,0,0,0,1.8.74A11.24,11.24,0,0,0,25.1,19c.74,0,3-.22,3-.22s-1.53-.21-2.28-.26a10.17,10.17,0,0,1-1.37-.12c-.89-.13-1.52-.28-1.52-.28s0-.25.42-.81a9,9,0,0,1,1.28-1,7.12,7.12,0,0,0-1.71.82,1.81,1.81,0,0,0-.45.89s-1.12-.48-1.63-.72a4.28,4.28,0,0,1-.91-.59,2.91,2.91,0,0,1,.65-.74l1.44-1.17a11.37,11.37,0,0,0-1.69.69,2.73,2.73,0,0,0-.82.83s-.26-.29-.65-.65a8.77,8.77,0,0,1-1.07-1.1C17.42,14.07,16.48,12.89,16.48,12.89Z"/>
</svg>
