<svg id="ef523aef-2337-4b1f-9cba-dc5a40ec089d" data-name="Layer 1" xmlns="http://www.w3.org/2000/svg" width="652.01" height="756.02" viewBox="0 0 652.01 756.02">
  <defs>
    <style>
      .ab04eb35-34b1-476c-b723-cfbb25beab83 {
        fill: #1b5f25;
      }

      .a979781e-1c62-4f54-866a-d112b284cc43 {
        fill: #674a1d;
      }

      .a2881a86-4676-47c5-8daf-272ffb42171b {
        fill: #88632a;
      }
    </style>
  </defs>
  <ellipse class="ab04eb35-34b1-476c-b723-cfbb25beab83" cx="98.29" cy="250.64" rx="12.5" ry="23"/>
  <ellipse class="ab04eb35-34b1-476c-b723-cfbb25beab83" cx="307.79" cy="106.14" rx="13" ry="16.5"/>
  <circle class="ab04eb35-34b1-476c-b723-cfbb25beab83" cx="289.79" cy="109.64" r="8"/>
  <g>
    <path class="ab04eb35-34b1-476c-b723-cfbb25beab83" d="M611.08,297.78s6-12.64-2.72-15.17c0,0,30.82-35.25-12.42-37.67,0,0,8.56-26.32-18.06-20.76,0,0,8.6-29.15-19.66-28.79,0,0,11.38-21.33-4.25-30.84,0,0,7.89-30-14.54-36.38,0,0,15.44-25.57-12.37-41.16,1.09-1.82,2.17-3.6,3.19-5.44-.47-.14-.94-.29-1.43-.4,1.09-1.48,1.06-3.45-2-5.92h0c.17-.18,28.18-29.78-2.85-42l.27-.58a5.58,5.58,0,0,0-.77.39,63.85,63.85,0,0,0-10.81-2.92,15.16,15.16,0,0,0,.08-1.52v0c.19-.16.38-.34.59-.49q-.3.23-.6.42a17,17,0,0,0-32.93-5.78,8.74,8.74,0,0,0-5.56-2.13c-4.81,0-8.92,4.37-10.64,10.56a10.85,10.85,0,0,0-7.86-3.56,11.08,11.08,0,0,0-8.61,4.42C442.3,22.27,433,15.64,422.29,15.64c-8.88,0-16.82,4.57-22,11.72-1.3-5.07-4.81-8.72-9-8.72-5.15,0-9.33,5.61-9.49,12.6a7.34,7.34,0,0,0-6-3.6c-3.55,0-6.55,3-7.6,7.22a8,8,0,0,0-5.4-2.22c-3.85,0-7.12,3-8.41,7.1a6.59,6.59,0,0,0-1.09-.1c-4,0-7.38,3.45-8.27,8.08a14.37,14.37,0,0,0-8.73-3.08c-9.07,0-16.52,9.06-17.41,20.66a16.18,16.18,0,0,0-7.09-1.66c-9.39,0-17,8.06-17,18,0,9.38,6.77,17.07,15.42,17.92-2,5-6.6,8.9-8.4,6.07-.37-.56-8.15,5.74-9.89,5.33a1.28,1.28,0,0,1-.27-.11,14.49,14.49,0,0,0,6.14-12.21c0-7.73-5.37-14-12-14a11.34,11.34,0,0,0-9.06,4.84,16,16,0,0,0-31.93,1.65,11,11,0,0,0-16.11.08c-2.36-7.34-8.36-12.57-15.4-12.57-9.11,0-16.5,8.73-16.5,19.5a23.23,23.23,0,0,0,.73,5.78c-7.82,1.3-13.73,7.17-13.73,14.22a13,13,0,0,0,3.28,8.54,11,11,0,0,0-9.5,15,6.83,6.83,0,0,0-.78-.06c-5,0-9,5.38-9,12,0,.29,0,.58,0,.86a8,8,0,0,0-3.53-.86c-5.8,0-10.5,6.5-10.5,14.5a18.63,18.63,0,0,0,1.65,7.79,8.48,8.48,0,0,0-8.37,14,7.38,7.38,0,0,0-.83,1,12.26,12.26,0,0,0-21,8.62,11.93,11.93,0,0,0,.27,2.55,16.6,16.6,0,0,0-1.74-.1c-8.4,0-15.21,5.93-15.21,13.25a11.88,11.88,0,0,0,2,6.58c-5,1-8.89,6-8.89,12.06A12.42,12.42,0,0,0,108.07,245a9.31,9.31,0,0,1-5,1.42,13.78,13.78,0,0,1-1.67-.26,70.36,70.36,0,0,0-5,11.06,37.43,37.43,0,0,1-.56,7.8,10.55,10.55,0,0,1-4.16,6.39,19.21,19.21,0,0,0,2.17-9.13c0-7.85-4.17-14.22-9.32-14.22s-9.32,6.37-9.32,14.22a20.38,20.38,0,0,0,1,6.51c-5,.82-8.89,5.93-8.89,12.14a14.07,14.07,0,0,0,1.18,5.68.27.27,0,0,0-.07.08,8.33,8.33,0,0,0-10.26,13.05c-7.13,2.51-12.43,12-12.43,23.37,0,10.95,4.93,20.19,11.68,23.09a9.57,9.57,0,0,0-1.25,2.15c-6.41,4.22-10.43,10.25-10.43,16.95,0,11.61,12.05,21.21,27.72,22.82a21.76,21.76,0,0,0-6.14,15c0,13,12.08,23.54,27,23.54a30.34,30.34,0,0,0,10.55-1.86c1,2.79,3.77,6,10.9,8.27,0,0-9.65,19.52,16.57,14.33,0,0,1.27,11.22,11.63,10.63,1.08,1.48,2.8,1.67,5.36-.84a3.42,3.42,0,0,1,1-.68h0s.76,4.41,4.49,2.16c0,0-3.55,12.55,4.39,14.12a2.25,2.25,0,0,0,.72.11,13.68,13.68,0,0,0,4.78-.46s-3,12.12,11.44,6c0,0,.51,2.53,3.12,1,0,0,1.52,8.64,9.82,2.07,0,0,4.31,2.73,6.54.33,0,0,29.39,2,22-10.28h0a26.79,26.79,0,0,0-5.25-5.88s8.27-1.9,7.4-8.86c0,0,5.16-2.16,4.66-5.93,0,0,23.88-1.06,10.67-16.67,0,0,2.42-2.59,2.53-5.46,5.51,4.53,14.59,8.41,24.49-2.13,0,0,2.88,1.55,4-3.2,0,0,14.67-.32,10.93-14,0,0,4.7-1.25,2.1-5.12,0,0,4.18.21,3.64-2.81,0,0,27.25,12.59,37.42-8.56,0,0,6.39,11.56,19.89,7,0,0,9.44,6.47,16.82-1.38,0,0,10.29,3.52,12.22-6.85,0,0,7.77,5.63,14.8.76,0,0-5.24,16.93,30.57,12.78,0,0,10,8.74,14.81-3,0,0,.74,12.75,19,9.95,0,0-2.34,12.81,11.75,13.05,0,0-.33,9.22,13.59,9.94,0,0-.22,17.93,19,9.95,0,0,9.14,1.92,8.78-6.3,0,0,16.16,9.82,30.27-6.66,0,0,16.28-3.21,7.61-18.46,0,0,8.81-2.38,5-10.06,0,0,7.35,9.25,14.09-1.19,0,0,12.75,8.55,16.92-4.7,0,0,9.45,3,11.41-6.38,0,0,47.45-11.2,26-56.21C612.87,335.15,634.6,311.61,611.08,297.78ZM185.08,149c-.08-.25-.18-.49-.27-.74a7.27,7.27,0,0,0,.77.2C185.42,148.61,185.25,148.79,185.08,149Zm198.79-109q-.17.48-.36.93c.09-.45.16-.9.21-1.37l.18.35Z"/>
    <g>
      <path class="a979781e-1c62-4f54-866a-d112b284cc43" d="M190.89,684.44s6.94,25.9,43.47,27.25,48.38.16,48.38.16-55.51,21-109,1.72c-23-1.09-29.11,6.39-58.5,13.78S30,728.47,30,728.47s80.22-2.39,94.44-20.64S190.89,684.44,190.89,684.44Z"/>
      <g>
        <path class="a979781e-1c62-4f54-866a-d112b284cc43" d="M479.22,119.64c-10.78.72-13.2,1.76-11.83,0,1.87-2.32,10-7.07,15.53-12.79,5.78-6,10.76-11.38,13.17-14.26,3.33-4,1.6-8.74,10.86-12.74,10.08-4.35,30.49-7.55,30.49-7.55a86.26,86.26,0,0,0-19.67,1.41c-8.56,1.74-16.72.46-20,8.74-.61,1.56-10.13,14.41-19.33,22.88-5.85,5.39-13.17,9.05-15.23,9.11-4.08.11-4-9.65-6.08-19.9-1.72-8.46-17-17.29-17-17.29s9.4,7.65,11.62,16.81c2.46,10.18,4.42,18.5,3.57,23.36-2.23,12.7-15.68,21.06-17.86,23.32-5.06,5.25-15.09,9.16-20.41,14.7-10.25,10.69-16,23.26-26,33.73-.8.82-7.08,8.38-10.68,6.31-5.64-3.25-8.93-17.59-6.56-22.33,4.27-8.56,6.93-28.35,6.93-28.35s-10,22.48-11.86,29.35c-2,7.62,3.12,15.17,5.62,23.11,3.29,10.43-4.31,15.07-3.85,20.29,1,11.5-16.37,16.83-19.87,18.52-4.8,2.32-25.63,11.95-28.48,13s-7.12.53-7.12.53-13.43,11-18,13.16c-2.35,1.13-14.15,9.18-14.57-3.4-.15-4.38-3.06-13.28-.28-25.94,2.26-10.3,15.88-37.47,23.64-44.12,3.3-2.83,13.72-14.41,22.49-14.75,6.35-.24,22.64-3.91,22.64-3.91s-16.64.57-23.06-.49c-5.17-.85-17.92,9.45-17.87,6,.11-9.21,13.5-26.88,22-35.38,11.72-11.72,29.16-13.62,40.27-18.31,8.49-3.58,25.6-19.18,25.6-19.18s-9.33,6.93-27.74,14.51c-13.1,5.4-33.17,13.13-31,6.49,5.9-18.3,10.77-20.1,14.81-26.4s9.38-27,13.42-33.42C376,50.9,390,40.24,390,40.24s-14,9.56-19.89,14.9c-6.77,6.15-14.24,28.44-20.58,40-5.92,10.82-8.9,11.21-14.45,20.61-1.71,2.88-3.08,3-3.08,3a21.66,21.66,0,0,1-2,13c-6.63,12.43-23.3,35.28-25.22,43.2-1.87,7.73-5.07-1.8-8.58-.57-2.05.72-7.37-7.89-11.81-14.51-5.36-8-.69-21.91-.69-21.91s-4.92,5.89-4.71,17.32c.21,11,18.16,25,18.83,27.21,1.35,4.45-4.67,7-4.81,9.07-.67,10.15-14.92,34.07-16.8,43.31-3.84,18.73-.38,27.13-4.56,37.22-6.94,16.74-15.63,18.6-18.2,20.55A193.68,193.68,0,0,1,237.33,304c-28.14,17-45.87,47.6-48.1,53-7.3,17.64-13.74,46.62-16.73,47.15-2.21.39-10.88-9.21-16.45-27-2.87-9.19-2.54-23.9-5.07-33.54-.69-2.63,11.22-32.57,31.75-52.39,15-14.43,33.54-25.86,46.05-34.13,8.55-5.66,13.37-18.65,13.37-18.65s-6.88,10.46-15.54,15.25c-9.46,5.22-26,14-30.85,17.73-3.12,2.4-5.38-.95-2.71-11.35,1.91-7.44,7-27.12,9.08-31.93,4.28-10,25.17-31.51,25.17-31.51S197,221.48,196.55,228.34c-.64,9-10,22.27-12,30.23-3.56,14.24-2.53,24.1-4.95,26.4-19.65,18.73-28.68,47.3-31.81,45.64-9.15-4.88-12.54-24.88-16.38-34.71-2.45-6.29-3-24.63-2.39-29.82,1-8.49,11.64-22.46,11.64-22.46s-14,13.8-15.07,23.56c-.78,7.44-3.7,20.46.82,28.92s5,24.48,10.06,33.78c7.8,14.46,4.09,30.84,4.9,37.09.87,6.8,4.64,21.35-.89,29.88,7.66,22.33,10.43,16.85,14.56,49.08,1.46,11.38-3,27-8.13,42a30.88,30.88,0,0,1-.77,8.06,398.34,398.34,0,0,0-7.4,45c7.05-1.64,14.07-4.25,20.4-6.17a29.05,29.05,0,0,1,14-.35c.68-23.13,2.93-33.61,10.21-61,3.88-14.65,14.61-32.11,29.93-48.78,10.74-11.69,31.17-23.88,31.17-23.88a201.71,201.71,0,0,1,39.25-14.13c6.71-1.57,16.77-6.73,24.55-8.78,9.45-2.5,19.39.27,33.63.44,13.44.15,27.35,2.37,41.67-1.33,4.19-1.08,12.68-6.27,18.65-11.67,6.6-6,22.49-4.33,28.34-9.87,3-2.83,12.69,4,22.07,10.89a31,31,0,0,0,18.78,6,66.87,66.87,0,0,0,15.42-2.41s-20.48.92-29.47-8.3c-6.3-6.45-10.12-14.21-8.18-16,6.47-6,18.46-11.36,27.1-14.71,13.19-5.1,30.84-8,30.84-8s-11.07-2.62-21-.1c-8.57,2.19-18,7.3-23.92,9.4-8.49,3-13,2.05-13,2.05s-24.55,17.08-34,19.73c-7.17,2,.1-9.42,3-17.39,3-8.35,15.71-21.35,15.71-21.35a61,61,0,0,0-15,12.38c-6.22,7.25-10.84,17.68-16,23.36-9.38,10.36-23.49,18.33-29.33,19.79-17.14,4.28-19.87-5.54-31.46-3.51-20.4,3.59-22.9-1.42-21.55-2.33,8-5.3,23.75-16.41,23.75-16.41s5-24.59,32.76-44.55a155.08,155.08,0,0,1,24.13-14.43c3.87-1.83,13.42-7.65,22.82-9.31,10.73-1.89,26.18,19.26,26.18,19.26s-.4-8.79-5.07-14c-5.28-5.85-11.6-10.32-8.82-11.39,14.43-5.55,17.44-12.9,28.76-14.52,6.1-.87,15.75-15.32,19.26-20.88a40.45,40.45,0,0,1-12.55,11.68c-8.23,4.92-19.41,10.52-27,13.25-16.35,5.94-19.55,3.77-19.55,3.77s-30.09,18.95-44.68,25.27c-2.89,1.25,3.51-10.35,3.84-17.16.28-5.9,8.83-19.71,8.83-19.71s-12.57,9.69-13.61,21.46c-.25,2.87-4.07,10.26-8.28,15-9.22,10.43-13.12,16.9-16,20.06-12.5,13.91-22,29.57-29.49,34.59-13.35,9-40,29.54-59.67,34.24-11.21,2.69-13.18-1.61-13.18-1.61s-47.84,33-53.33,33c-6.16,0-6.78-7.65-9.87-16.21-3.61-10,12.28-37.52,12.28-37.52s12-4.37,25.65-10.13c2.46-1,6.21-2.2,16.54,1.57,4.43,1.62,8.19,7.59,12.52,11.81,4.57,4.44,22.83,2.41,22.83,2.41s-15.71-1.87-21.16-7c-4.53-4.27-18.21-13.5-8.6-17,4.47-1.65,13.39-1,25-5.14,6.39-2.27,14.89-9,20.85-11.25,11.54-4.34,25.61-.56,25.61-.56s-11-7.7-21.93-3.66c-5.92,2.2-24.52,12.84-26.79,11.32-1.66-1.1,9.79-9,14.51-18.39,4-8,24.69-16.17,24.69-16.17s-16.95.21-20.05,4.64c-5.19,7.44-16.08,22.26-22.91,24.34-4.61,1.41-20.36,8.69-28.72,11.34-12.83,4.07-18.39,3.44-18.65,2.38-.74-3-10.92-2.63,23.2-28.77,11.87-9.1,40.52-28.25,57-40.56,6.51-4.88,21.69-11.22,39.67-18.36,13.76-5.46,21.87-14.46,33.11-18,14.73-4.65,17.35-10.87,27.21-8.34,5.55,1.42,18.69-4.72,31.69-6.17,9.69-1.08,20.75,2.57,20.75,2.57s-15.85-7.82-21.66-7.68c-5,.12-21.3,10.49-33.22,6.3-2.77-1-15.59,2.65-17.78,1.71-2.72-1.18,4.91-16.36,24-37.32,6.17-6.78,8.81-16.94,17.33-24.64,7.39-6.67,25.68-18.74,30.8-25C456,132,457.7,126,477.7,124.57c4.66-.34,18.19-4.49,27-6,8.42-1.44,12-7.14,12-7.14s-12.58,4.48-21.21,5.07C488,117,484.7,119.27,479.22,119.64Z"/>
        <path class="a979781e-1c62-4f54-866a-d112b284cc43" d="M197.08,687.81C143.25,582,177.25,498.12,205.4,449.38c7.1-14.61,41.46-43.81,59.66-58,6.47-5-52.9,23.59-54,18.47-3.91,2.94-8,6.05-12.56,9.48-86.77,65.73-76.07,298-76.07,298l77.77-3.71S207.84,705.79,197.08,687.81Z"/>
        <path class="a979781e-1c62-4f54-866a-d112b284cc43" d="M133,444.91q1.94-25.93.87-26.07T129,442.62l-18.67-10.87c4.56,3.11,31,21.81,35.56,56.22a79.5,79.5,0,0,1-7.11,43.94c18.15-7.6,12.61-23.55,12.61-23.55S164.9,484.85,133,444.91Z"/>
        <path class="a2881a86-4676-47c5-8daf-272ffb42171b" d="M184.63,447.48s-82.46,149.66-16.2,231.07C154.5,636.48,120.76,599.45,184.63,447.48Z"/>
        <path class="a2881a86-4676-47c5-8daf-272ffb42171b" d="M127.26,719.85s9.18.62,7.63-57.17S134,596,134,596s10.82,74.72,4.87,92.59S138.13,713.78,127.26,719.85Z"/>
        <path class="a2881a86-4676-47c5-8daf-272ffb42171b" d="M224.88,718.57s-29.18,7-47.59-40.14-12.15-42.08-12.15-42.08S185.39,716.29,224.88,718.57Z"/>
      </g>
    </g>
  </g>
</svg>
