<svg id="b8a28153-123b-43c4-b43c-37d0439b4840" data-name="Layer 1" xmlns="http://www.w3.org/2000/svg" width="2324.62" height="154.6" viewBox="0 0 2324.62 154.6">
  <defs>
    <style>
      .e478ae45-9b5a-483c-aa93-02ca2cee0242 {
        opacity: 0.6;
      }

      .fbf30e56-689d-4cbc-b571-c13dab7e64a0 {
        fill: #fff;
      }
    </style>
  </defs>
  <g class="e478ae45-9b5a-483c-aa93-02ca2cee0242">
    <path class="fbf30e56-689d-4cbc-b571-c13dab7e64a0" d="M1751.81,35.2c115.39,42,271.66,80.53,392,45a239.82,239.82,0,0,0,38.55-15.43c2.29-1,5.09-2.72,7.3-3.93a72.37,72.37,0,0,1,15.75-6.51,102.42,102.42,0,0,1,37.69-3.21,130.65,130.65,0,0,1,28.69,6.11c-21.32-6-44.41-7.41-65.66-.55a71.71,71.71,0,0,0-15,6.62c-2.2,1.36-5.1,3-7.35,4.19-22.29,12-46.66,20-71.47,24.86-114.21,21.82-254.6-12.77-360.52-57.12Z"/>
  </g>
</svg>
