<svg id="ea1b7246-b9eb-4351-a2ac-bb2fd9252bf8" data-name="Layer 1" xmlns="http://www.w3.org/2000/svg" width="46.82" height="32.62" viewBox="0 0 46.82 32.62">
  <defs>
    <style>
      .e729b4b8-4330-4a97-9dfe-742e68791240 {
        fill: #0d8e09;
      }
    </style>
  </defs>
  <path class="e729b4b8-4330-4a97-9dfe-742e68791240" d="M26,28.85a57.33,57.33,0,0,0,3.79-4.53,11.78,11.78,0,0,0,1.76-5.86,12.7,12.7,0,0,0-.6-4.53A27.19,27.19,0,0,0,28,8c-1.42-2-3.66-4.73-3.66-4.73a26.45,26.45,0,0,0-2.42,2.56,40.07,40.07,0,0,0-3.14,4.08,18.89,18.89,0,0,0-2.85,4.82,9,9,0,0,0-.54,4.93c.35,1.89,1.46,3,2.77,4.51s7.12,5.16,7.12,5.16-1.78-2.22-2.46-3.29A34.09,34.09,0,0,1,21,23a13.46,13.46,0,0,1-.87-3.17A6.84,6.84,0,0,1,17.78,18a7.41,7.41,0,0,1-1-2.61s.63.81,1.39,2A3,3,0,0,0,20,18.8a24,24,0,0,1-.19-3.23,17.09,17.09,0,0,1,.78-3.48C21,10.92,22.8,7.42,22.8,7.42s-.54,2.53-.9,3.73a16.88,16.88,0,0,0-.61,2.23c-.3,1.47-.41,2.53-.41,2.53s.41.17,1.64-.24A16.09,16.09,0,0,0,25,14.19a12.08,12.08,0,0,1-2.41,2.26,3.52,3.52,0,0,1-1.8.25s.17,2,.27,2.94a6.67,6.67,0,0,0,.49,1.76,5.84,5.84,0,0,0,1.65-.65c.68-.41,2.85-1.66,2.85-1.66a20.14,20.14,0,0,1-2.17,2.3,5.27,5.27,0,0,1-1.91.87s.33.56.72,1.36A14,14,0,0,0,24,25.87C24.55,26.75,26,28.85,26,28.85Z"/>
</svg>
