<svg id="b675756a-7888-4ac1-83c1-78b616a5f326" data-name="Layer 1" xmlns="http://www.w3.org/2000/svg" xmlns:xlink="http://www.w3.org/1999/xlink" width="900.05" height="767.69" viewBox="0 0 900.05 767.69">
  <defs>
    <style>
      .f4641aa0-909f-47d2-8759-3cab946252ad {
        fill: none;
      }

      .b044b5c7-278d-4157-b9ee-2a2b9908d4a6 {
        clip-path: url(#b1c9ec17-9d8f-49b3-b059-34633467f99a);
      }

      .a6120e34-30b2-48d8-bb83-736d27df4c02 {
        fill: #31783b;
      }

      .b3da81c8-05f1-46ad-a165-68aa7229409c {
        fill: #674a1d;
      }

      .b29f4e98-6bc8-4ca1-9cc3-37f9fca2f4b3 {
        fill: #88632a;
      }

      .a39926ee-47ec-47dc-b165-8035e79efcfa {
        clip-path: url(#a686444e-e11c-4b82-bb15-f080de8b09e6);
      }
    </style>
    <clipPath id="b1c9ec17-9d8f-49b3-b059-34633467f99a">
      <rect class="f4641aa0-909f-47d2-8759-3cab946252ad" x="8.03" y="6.85" width="884" height="754"/>
    </clipPath>
    <clipPath id="a686444e-e11c-4b82-bb15-f080de8b09e6">
      <rect class="f4641aa0-909f-47d2-8759-3cab946252ad" x="-1980" width="1600" height="900"/>
    </clipPath>
  </defs>
  <g class="b044b5c7-278d-4157-b9ee-2a2b9908d4a6">
    <g>
      <path class="a6120e34-30b2-48d8-bb83-736d27df4c02" d="M786.05,180s8.05-16.92-3.64-20.31c0,0,41.26-47.2-16.64-50.44,0,0,11.47-35.24-24.18-27.8,0,0,11.53-39-26.31-38.54,0,0,15.23-28.56-5.71-41.29,0,0,10.57-40.16-19.46-48.71,0,0,20.67-34.24-16.56-55.12,1.46-2.43,2.91-4.82,4.27-7.28-.64-.19-1.26-.39-1.92-.54,1.47-2,1.42-4.61-2.61-7.92h0c.23-.25,37.74-39.89-3.81-56.2.13-.28.25-.54.35-.78a8.22,8.22,0,0,0-1,.52,87.55,87.55,0,0,0-16.17-4.21,15.15,15.15,0,0,1,2.59-2.41,18.38,18.38,0,0,1-3.81,2.2q-3.34-.54-7.06-1a9.47,9.47,0,0,1-2-3.49c-.11-.31-.18-.59-.26-.89a37.19,37.19,0,0,0-4.2,5,12.06,12.06,0,0,0-.35-5.7,61.08,61.08,0,0,0-4.63,6.39c-3.14-8.74-12.69-15.1-24-15.1a28,28,0,0,0-14.59,4A14.79,14.79,0,0,0,584-194c-9.37,0-17,9.55-17,21.33,0,.18,0,.35,0,.53a17.22,17.22,0,0,0-9-2.53,17.31,17.31,0,0,0-7.55,1.75,42.75,42.75,0,0,0-32.31-14.47,42.89,42.89,0,0,0-30.66,12.68s0,0-.06,0l-.18.24a42.7,42.7,0,0,0-3.16,3.69c-.27.26-.54.51-.81.73l-.21.68a40.32,40.32,0,0,0-2.85,4.77,13.46,13.46,0,0,0-11.45-10.73c-2-6.62-6.34-11.23-11.43-11.23-6.93,0-12.54,8.53-12.54,19.05a28.07,28.07,0,0,0,.36,4.46,11.1,11.1,0,0,0-7.92-3.42,11,11,0,0,0-7.5,3,23.59,23.59,0,0,0-4.31-.41c-14.27,0-25.83,12.92-25.83,28.86,0,.76,0,1.5.09,2.24a28.08,28.08,0,0,0-3.58-.23c-9.53,0-17.82,4.79-22.07,11.84-.75-.31-1.51-.6-2.29-.86-15.1-5-31,0-38.83,11.35a23.74,23.74,0,0,0-22.52,10.52A16.38,16.38,0,0,0,299.94-104,16.21,16.21,0,0,0,284.5-93a22.09,22.09,0,0,0-14.4-5.48c-13.44,0-24.34,12.65-24.34,28.26a31.75,31.75,0,0,0,3,13.52,18.72,18.72,0,0,0-5.41-.8c-9,0-16.23,6.17-16.23,13.8a11.17,11.17,0,0,0,.08,1.29,7.27,7.27,0,0,0-1.4-.08c-.67,1.43-1.29,2.85-1.88,4.27-5.79,1.62-10.08,7.53-10.08,14.59,0,.37,0,.72,0,1.08a13.49,13.49,0,0,0-5.21-1.08c-8.56,0-15.5,8.15-15.5,18.2a21.85,21.85,0,0,0,.14,2.3,14,14,0,0,0-7.71-2.26C178.65-5.37,173-.6,173,5.29a9.19,9.19,0,0,0,.15,1.58c-13.88,3-23.49,9.39-23.49,16.83a8.81,8.81,0,0,0,.64,3.27C129,29.65,112.56,45,112.56,63.54a31.61,31.61,0,0,0,3.6,14.58c-9.28,2.17-17,10.16-20.82,21-2.22-4.38-5.94-7.26-10.16-7.26-6.8,0-12.31,7.45-12.31,16.64,0,5.93,2.3,11.13,5.76,14.07A46.07,46.07,0,0,0,55,159.48,36.3,36.3,0,0,0,51.56,175a35.76,35.76,0,0,0,4.21,17.09c0,.4,0,.82-.08,1.25-23.85,1.61-42.4,13.86-42.4,28.74,0,7.37,4.57,14.1,12.07,19.21-7,8.14-11.09,17.81-11.09,28.18,0,29,31.65,52.46,70.68,52.46a89.3,89.3,0,0,0,37-7.78,2.85,2.85,0,0,0,1.94.41c1.19-.21,2.19-1.26,3-2.87.82-.45,1.62-.92,2.41-1.39l.15.19a5,5,0,0,0-.21,1,5.54,5.54,0,0,0,.14,1.77,6.19,6.19,0,0,1,5.87,3l-26.81,26.13s-5.78,12.38,14.43,18.72c0,0-12.91,26.14,22.19,19.19,0,0,1.7,15,15.58,14.22,1.45,2,3.75,2.25,7.17-1.12a4.59,4.59,0,0,1,1.31-.92h0s1,5.91,6,2.9c0,0-4.76,16.81,5.87,18.91a3.22,3.22,0,0,0,1,.15,18.59,18.59,0,0,0,6.4-.62s-4,16.22,15.32,8c0,0,.68,3.38,4.18,1.28,0,0,2,11.57,13.14,2.77,0,0,5.77,3.66,8.76.45,0,0,39.36,2.67,29.48-13.77h0a35.73,35.73,0,0,0-7-7.86s11.07-2.55,9.9-11.87c0,0,6.92-2.9,6.24-7.94,0,0,32-1.41,14.3-22.32,0,0,3.24-3.47,3.38-7.31,7.38,6.06,19.53,11.26,32.8-2.85,0,0,3.85,2.07,5.36-4.29,0,0,19.65-.43,14.64-18.7,0,0,6.28-1.67,2.81-6.86,0,0,5.59.29,4.86-3.75,0,0,36.5,16.85,50.11-11.47,0,0,8.57,15.47,26.63,9.39,0,0,12.64,8.66,22.53-1.85,0,0,13.77,4.71,16.35-9.17,0,0,10.41,7.54,19.83,1,0,0-7,22.67,40.92,17.12,0,0,13.42,11.7,19.83-4,0,0,1,17.07,25.49,13.32,0,0-3.14,17.14,15.73,17.47,0,0-.44,12.35,18.2,13.31,0,0-.29,24,25.49,13.32,0,0,12.24,2.57,11.76-8.44,0,0,21.64,13.15,40.53-8.91,0,0,21.8-4.3,10.18-24.71,0,0,11.81-3.2,6.73-13.47,0,0,9.84,12.38,18.87-1.61,0,0,17.07,11.46,22.65-6.28,0,0,12.66,4,15.28-8.54,0,0,63.53-15,34.83-75.27C788.45,230,817.53,198.49,786.05,180ZM593.79-155.24l.54.34a7.94,7.94,0,0,1-4.46,2.24A16,16,0,0,0,593.79-155.24Zm-34.55,16.89.66,0c-.54,1.19-1.1,2.38-1.67,3.57C558.62-136,559-137.15,559.24-138.35Zm18.37-14.4a14.68,14.68,0,0,1-3.07,3,18.35,18.35,0,0,0,1.1-4.39A15.6,15.6,0,0,0,579-152.3c-.07.23-.16.46-.23.69A5.59,5.59,0,0,0,577.61-152.75Z"/>
      <g>
        <path class="b3da81c8-05f1-46ad-a165-68aa7229409c" d="M223.43,697.7s9.29,34.68,58.21,36.48,64.78.21,64.78.21-74.33,28.19-145.91,2.31c-30.84-1.46-39,8.56-78.33,18.45S8,756.65,8,756.65s107.4-3.2,126.45-27.64S223.43,697.7,223.43,697.7Z"/>
        <g>
          <path class="b3da81c8-05f1-46ad-a165-68aa7229409c" d="M609.49-58.54c-14.44,1-17.67,2.35-15.83.06,2.49-3.1,13.38-9.46,20.79-17.12,7.74-8,14.4-15.24,17.62-19.1,4.47-5.35,2.16-11.7,14.56-17.06,13.49-5.82,40.81-10.11,40.81-10.11A115.36,115.36,0,0,0,661.11-120c-11.47,2.34-22.39.61-26.78,11.71-.82,2.08-13.57,19.29-25.88,30.63-7.83,7.22-17.63,12.11-20.39,12.19-5.46.16-5.37-12.91-8.15-26.64-2.29-11.32-22.74-23.15-22.74-23.15S569.76-105,572.72-92.73C576-79.11,578.65-68,577.51-61.46c-3,17-21,28.2-23.92,31.24-6.78,7-20.21,12.25-27.32,19.67C512.54,3.77,504.85,20.6,491.4,34.61c-1.07,1.11-9.49,11.23-14.31,8.46-7.55-4.36-11.95-23.56-8.78-29.9,5.72-11.47,9.29-38,9.29-38S464.17,5.3,461.72,14.5c-2.72,10.21,4.17,20.31,7.52,31,4.4,14-5.78,20.18-5.16,27.16,1.37,15.41-21.92,22.54-26.61,24.81-6.42,3.1-34.31,16-38.13,17.38s-9.53.72-9.53.72-18,14.67-24.09,17.61c-3.15,1.52-18.94,12.3-19.51-4.55-.19-5.86-4.09-17.77-.37-34.73,3-13.79,21.26-50.16,31.65-59.07C381.91,31,395.87,15.48,407.61,15c8.5-.33,30.31-5.24,30.31-5.24s-22.28.77-30.88-.65c-6.92-1.14-24,12.66-23.93,8,.15-12.33,18.08-36,29.46-47.38,15.69-15.69,39.05-18.22,53.92-24.51,11.36-4.8,34.28-25.69,34.28-25.69s-12.5,9.3-37.14,19.44c-17.54,7.23-44.41,17.58-41.54,8.69,7.9-24.51,14.43-26.91,19.83-35.35s12.57-36.15,18-44.75c11.42-18.17,30.16-32.45,30.16-32.45s-18.79,12.81-26.64,20c-9.06,8.24-19.06,38.08-27.55,53.6-7.93,14.49-11.92,15-19.36,27.59-2.28,3.86-4.12,4.06-4.12,4.06s1.79,9.08-2.65,17.43C400.86-25.59,378.53,5,376,15.6c-2.51,10.35-6.8-2.41-11.5-.76-2.74,1-9.86-10.57-15.81-19.43-7.17-10.69-.92-29.34-.92-29.34s-6.59,7.9-6.31,23.2C341.71,4,365.74,22.73,366.64,25.7c1.82,6-6.25,9.38-6.43,12.15-.9,13.58-20,45.61-22.51,58-5.13,25.09-.5,36.34-6.1,49.84-9.29,22.41-20.92,24.91-24.36,27.51a260.38,260.38,0,0,1-21.63,15.07C247.93,211,224.19,252,221.21,259.18c-9.78,23.61-18.4,62.42-22.4,63.13-3,.52-14.57-12.33-22-36.14-3.86-12.31-3.41-32-6.8-44.91-.92-3.52,15-43.6,42.52-70.15,20-19.32,44.9-34.62,61.65-45.7,11.45-7.57,17.91-25,17.91-25s-9.22,14-20.82,20.42c-12.65,7-34.77,18.74-41.3,23.74-4.18,3.21-7.2-1.28-3.63-15.2,2.56-10,9.41-36.32,12.16-42.76,5.73-13.42,33.7-42.18,33.7-42.18S231.66,77.81,231,87c-.86,12.07-13.44,29.82-16.1,40.47-4.76,19.07-3.38,32.28-6.62,35.36-26.31,25.07-38.4,63.33-42.6,61.1-12.24-6.53-16.78-33.31-21.93-46.48-3.28-8.42-4-33-3.2-39.92,1.36-11.37,15.58-30.07,15.58-30.07S137.34,125.94,136,139c-1,10-4.95,27.39,1.1,38.72s6.77,32.78,13.47,45.23c10.44,19.37,5.48,41.3,6.55,49.67,1.17,9.1,6.22,28.58-1.18,40,10.26,29.91,14,22.57,19.5,65.72,2,15.24-4.07,36.21-10.89,56.18a41.52,41.52,0,0,1-1,10.8,534.85,534.85,0,0,0-9.9,60.2c9.44-2.19,18.83-5.68,27.32-8.25a38.73,38.73,0,0,1,18.75-.47c.91-31,3.92-45,13.67-81.75,5.2-19.61,19.57-43,40.08-65.31,14.37-15.66,41.74-32,41.74-32s24.79-12.43,52.54-18.92c9-2.1,22.46-9,32.88-11.75,12.64-3.34,26,.36,45,.58,18,.22,36.62,3.19,55.81-1.77,5.6-1.45,17-8.4,25-15.63,8.84-8,30.12-5.8,37.94-13.21,4-3.79,17,5.32,29.56,14.58a41.57,41.57,0,0,0,25.14,8c9.67-.06,20.65-3.24,20.65-3.24s-27.42,1.23-39.46-11.1c-8.43-8.65-13.55-19-10.95-21.46,8.66-8,24.72-15.21,36.29-19.69,17.66-6.84,41.3-10.67,41.3-10.67s-14.83-3.5-28.11-.12c-11.49,2.92-24.07,9.77-32,12.58-11.37,4-17.39,2.75-17.39,2.75s-32.87,22.86-45.58,26.41c-9.61,2.68.12-12.61,4-23.28,4-11.19,21-28.59,21-28.59a81.44,81.44,0,0,0-20,16.58c-8.34,9.71-14.52,23.68-21.4,31.27C494.72,265,475.83,275.63,468,277.59c-22.95,5.72-26.61-7.43-42.12-4.7-27.32,4.81-30.67-1.91-28.86-3.12,10.67-7.1,31.8-22,31.8-22s6.64-32.93,43.86-59.65A206.81,206.81,0,0,1,505,168.83c5.19-2.46,18-10.25,30.55-12.47,14.38-2.53,35.07,25.78,35.07,25.78s-.55-11.76-6.8-18.69c-7.06-7.84-15.53-13.82-11.81-15.25,19.32-7.43,23.36-17.27,38.51-19.44,8.17-1.16,21.09-20.51,25.79-28a54.21,54.21,0,0,1-16.8,15.65c-11,6.58-26,14.07-36.1,17.74-21.89,7.94-26.18,5-26.18,5S497,164.6,477.42,173.06c-3.88,1.68,4.69-13.85,5.13-23,.38-7.91,11.84-26.4,11.84-26.4s-16.84,13-18.23,28.74c-.34,3.85-5.44,13.75-11.09,20.13-12.34,14-17.56,22.62-21.37,26.86C427,218.05,414.18,239,404.22,245.73c-17.88,12-53.62,39.55-79.9,45.85-15,3.59-17.65-2.15-17.65-2.15s-64.05,44.19-71.4,44.16c-8.25,0-9.08-10.25-13.22-21.71-4.83-13.38,16.45-50.22,16.45-50.22s16-5.86,34.34-13.58c3.29-1.38,8.31-2.94,22.14,2.11,5.93,2.17,11,10.16,16.77,15.81,6.12,5.94,30.57,3.23,30.57,3.23s-21-2.51-28.34-9.41c-6.06-5.72-24.38-18.08-11.51-22.82,6-2.21,17.93-1.36,33.48-6.88,8.55-3,19.94-12.07,27.91-15.07,15.45-5.81,34.29-.75,34.29-.75s-14.78-10.31-29.37-4.89c-7.92,2.94-32.83,17.18-35.86,15.16-2.22-1.48,13.11-12.07,19.42-24.63,5.38-10.68,33.06-21.65,33.06-21.65s-22.69.28-26.84,6.22c-7,10-21.53,29.79-30.67,32.58-6.18,1.88-27.27,11.63-38.47,15.18-17.17,5.45-24.61,4.61-25,3.19-1-4-14.62-3.52,31.06-38.52,15.89-12.18,54.26-37.83,76.25-54.31,8.72-6.53,29-15,53.12-24.58,18.42-7.31,29.28-19.36,44.33-24.11,19.73-6.22,23.23-14.55,36.44-11.16,7.43,1.9,25-6.32,42.43-8.26,13-1.44,27.79,3.44,27.79,3.44s-21.23-10.47-29-10.28c-6.73.16-28.52,14-44.48,8.44-3.71-1.3-20.88,3.55-23.81,2.27-3.64-1.57,6.58-21.89,32.14-50,8.25-9.07,11.79-22.68,23.2-33,9.89-8.93,34.39-25.09,41.24-33.49,3.22-3.93,5.52-12,32.3-13.9,6.23-.45,24.35-6,36.21-8,11.26-1.94,16.09-9.57,16.09-9.57s-16.85,6-28.4,6.8C621.3-62.07,616.82-59,609.49-58.54Z"/>
          <path class="b3da81c8-05f1-46ad-a165-68aa7229409c" d="M231.71,702.2c-72.07-141.71-26.54-254,11.14-319.25,9.51-19.55,55.52-58.65,79.89-77.62,8.67-6.75-70.83,31.58-72.25,24.73-5.23,3.93-10.76,8.1-16.81,12.69-116.19,88-101.86,399.08-101.86,399.08l104.13-5S246.13,726.28,231.71,702.2Z"/>
          <path class="b3da81c8-05f1-46ad-a165-68aa7229409c" d="M145.91,377q2.59-34.74,1.15-34.91t-6.52,31.84l-25-14.55c6.11,4.16,41.57,29.2,47.62,75.27,3.59,27.43-5,49.15-9.52,58.83,24.3-10.17,16.88-31.53,16.88-31.53S188.63,430.45,145.91,377Z"/>
          <path class="b29f4e98-6bc8-4ca1-9cc3-37f9fca2f4b3" d="M215.05,380.42S104.64,580.81,193.36,689.8C174.71,633.48,129.52,583.9,215.05,380.42Z"/>
          <path class="b29f4e98-6bc8-4ca1-9cc3-37f9fca2f4b3" d="M138.24,745.11s12.28.83,10.2-76.55-1.17-89.3-1.17-89.3,14.48,100,6.52,124S152.79,737,138.24,745.11Z"/>
          <path class="b29f4e98-6bc8-4ca1-9cc3-37f9fca2f4b3" d="M268.94,743.4s-39.08,9.44-63.72-53.75S189,633.31,189,633.31,216.06,740.34,268.94,743.4Z"/>
        </g>
      </g>
    </g>
  </g>
</svg>
