<svg id="a5714c14-44cc-4dbc-978f-142d64fed7b9" data-name="Layer 1" xmlns="http://www.w3.org/2000/svg" width="46.82" height="32.62" viewBox="0 0 46.82 32.62">
  <defs>
    <style>
      .fb04cc34-38cb-4905-b371-a11a25c19f84 {
        fill: #196017;
      }
    </style>
  </defs>
  <path class="fb04cc34-38cb-4905-b371-a11a25c19f84" d="M34.42,22.54a39.74,39.74,0,0,0-.9-5.07,10.42,10.42,0,0,0-3.47-4.64,14.69,14.69,0,0,0-4.11-2.38,36.83,36.83,0,0,0-7-1.76c-2.65-.33-6.52-.62-6.52-.62a18.71,18.71,0,0,0,.3,3,29.79,29.79,0,0,0,1,4.41,14.87,14.87,0,0,0,1.82,4.67,9.19,9.19,0,0,0,3.62,3.32c1.78.93,3.53.95,5.69,1s9.41-1.24,9.41-1.24-3.11-.25-4.47-.49c-1.53-.25-2.92-.47-3.85-.72a17.25,17.25,0,0,1-3.21-1.4,9.1,9.1,0,0,1-3.18.32,9.85,9.85,0,0,1-2.82-1s1.12.1,2.65.36a3.81,3.81,0,0,0,2.49-.27,26.31,26.31,0,0,1-2.76-1.83,17.06,17.06,0,0,1-2.26-2.59c-.65-1-2.2-4.17-2.2-4.17S16.3,13.38,17,14.34a15.14,15.14,0,0,0,1.36,1.72c1,1.08,1.75,1.8,1.75,1.8s.44-.16,1-1.16a11.1,11.1,0,0,0,.63-2.44,8.15,8.15,0,0,1,.07,2.86,3,3,0,0,1-1.12,1.26s1.76,1.11,2.59,1.61a8.39,8.39,0,0,0,1.78.77,4.18,4.18,0,0,0,.69-1.41c.16-.66.74-2.76.74-2.76a13.44,13.44,0,0,1,.28,2.73A4,4,0,0,1,26.1,21s.7.13,1.63.38a22.62,22.62,0,0,0,2.76.59C31.63,22.18,34.42,22.54,34.42,22.54Z"/>
</svg>
