<svg id="a8375d1e-30ff-43d9-b13e-5c18b022745b" data-name="Layer 1" xmlns="http://www.w3.org/2000/svg" xmlns:xlink="http://www.w3.org/1999/xlink" width="900.05" height="767.69" viewBox="0 0 900.05 767.69">
  <defs>
    <style>
      .a3e11eb2-a5d8-4cba-8843-526d1a69a54c {
        fill: none;
      }

      .e3237076-b872-484d-9970-5a3ca4b79e9d {
        clip-path: url(#b958f1d9-b296-4b48-9bc7-6bf67c213edd);
      }

      .a0b7671b-33e7-4951-9278-8693a75b3562 {
        fill: #31783b;
      }

      .b2473855-158a-47fe-a8a4-9db9ddb9edaa {
        fill: #674a1d;
      }

      .fa66e0fd-7008-4c5b-b6af-5c11e58e14da {
        fill: #88632a;
      }
    </style>
    <clipPath id="b958f1d9-b296-4b48-9bc7-6bf67c213edd">
      <rect class="a3e11eb2-a5d8-4cba-8843-526d1a69a54c" x="8.03" y="6.85" width="884" height="754"/>
    </clipPath>
  </defs>
  <g class="e3237076-b872-484d-9970-5a3ca4b79e9d">
    <g>
      <path class="a0b7671b-33e7-4951-9278-8693a75b3562" d="M779.86,237.49s9.87-15.83-1-20.57c0,0,45.63-42-9.77-52,0,0,15.44-33.62-19.84-30.43,0,0,16-37.36-20.58-41.34,0,0,18.23-26.54-.36-41.64,0,0,15.17-38.6-12.7-50.62,0,0,24.18-31.54-9.11-56.64,1.7-2.24,3.4-4.44,5-6.72-.59-.27-1.17-.53-1.78-.76,1.66-1.8,1.94-4.41-1.53-8.17h0c.25-.21,41.33-35.12,3.31-56.2.16-.26.31-.51.44-.74a8.22,8.22,0,0,0-1.05.4A82.4,82.4,0,0,0,695.87-134a15.28,15.28,0,0,1,2.79-2.09,17,17,0,0,1-3.94,1.73q-3.15-.93-6.69-1.78a9.48,9.48,0,0,1-1.5-3.7c-.07-.32-.1-.61-.14-.91a35.49,35.49,0,0,0-4.67,4.51,12.47,12.47,0,0,0,.37-5.7c-3.51,3.19-6.53,7.91-10.43,11.25-5.4,4.63-8,.2-5.66-5.37.86-2,1.78-4.05,2.74-6.08a1.85,1.85,0,0,0-.23,0c-2.32.45-5.66,3.66-8.94,8.3.09-3.79-1.11-5.76-3.6-4.92s-5.69,4.36-8.66,9.11a5.67,5.67,0,0,0-1.42-3.56,69.92,69.92,0,0,1-4.58,10.6c-3.29,6.26-10.22,9-11.24,5.44-.72-2.53-.73-5.86-.74-9.17-.13.06-.25.1-.37.17-2.69,1.58-5.49,5.49-7.67,10.29a5.84,5.84,0,0,0-.95-1.27c-3,3.09-6.69,4.51-8.11,3.06-.06-.06-.1-.13-.15-.19a29.8,29.8,0,0,0-4.07,7.76,4.31,4.31,0,0,0-4.87-1.26,124.69,124.69,0,0,1-9,13.81c-4.39,5.69-9.79,6.63-10,1.87a44.37,44.37,0,0,1,1.12-9.85c-1.45,1-2.92,1.89-4.5,2.74-6.22,3.37-6.08-4.31-1.6-10.54,1.25-1.73,2.55-3.38,3.89-5-.51-1.11-.57-2.83.07-5.41.07-.29.17-.58.25-.88-3.43,3.3-6.89,6.48-10.46,9.32-4.32,3.42-7.69,1.48-6.47-3.12a41.87,41.87,0,0,1,6.09-12.76,13.86,13.86,0,0,0,5.35,1.09,14.64,14.64,0,0,0,9.75-3.9,28,28,0,0,0,15.13,4.32c13.86,0,25.09-9.55,25.09-21.33s-11.23-21.33-25.09-21.33a28,28,0,0,0-14.59,4,14.81,14.81,0,0,0-10.29-4.41c-9.38,0-17,9.55-17,21.33,0,.18,0,.35,0,.53a17.25,17.25,0,0,0-9-2.53c-.34,0-.66,0-1,.05.42-.5.83-1,1.22-1.48-3.15,2.19-6,2.09-6.51-.14a9.86,9.86,0,0,1-3.79-.36l-.61.47A43,43,0,0,0,512-162.58a42.23,42.23,0,0,0-37.92,22.8,13.48,13.48,0,0,0-11.46-10.74c-2-6.62-6.33-11.23-11.42-11.23-6.93,0-12.54,8.53-12.54,19.05a28.29,28.29,0,0,0,.36,4.47,11.08,11.08,0,0,0-7.92-3.43,11,11,0,0,0-7.5,3,22.84,22.84,0,0,0-4.32-.41c-14.26,0-25.82,12.92-25.82,28.85,0,.76,0,1.51.09,2.25a28.2,28.2,0,0,0-3.58-.24c-9.54,0-17.82,4.79-22.07,11.84-.75-.3-1.51-.6-2.29-.86-15.11-5-31,0-38.83,11.35a23.86,23.86,0,0,0-4-.11,3.7,3.7,0,0,0-2.59.28,23.77,23.77,0,0,0-13,6.66,6.27,6.27,0,0,0-1.55.62A12.26,12.26,0,0,0,303-76.3a16.3,16.3,0,0,0-9.3-2.89,16.21,16.21,0,0,0-15.44,11,22,22,0,0,0-14.4-5.48c-13.45,0-24.35,12.65-24.35,28.25a31.75,31.75,0,0,0,3,13.52,18.77,18.77,0,0,0-5.41-.8c-9,0-16.23,6.18-16.23,13.8A11.85,11.85,0,0,0,222-13.79c-.38,0-.76-.06-1.15-.06-7.34,0-13.28,6.74-13.28,15.05,0,.37,0,.73.05,1.08a13.58,13.58,0,0,0-5.22-1.08c-8.55,0-15.49,8.15-15.49,18.2a21.68,21.68,0,0,0,.14,2.3,14,14,0,0,0-7.71-2.26c-6.93,0-12.54,4.77-12.54,10.66a9.19,9.19,0,0,0,.15,1.58c-13.88,3-23.5,9.39-23.5,16.83a9,9,0,0,0,.64,3.27c-21.37,2.69-37.76,18-37.76,36.57a31.49,31.49,0,0,0,3.6,14.58c-9.28,2.17-17,10.16-20.82,21-2.22-4.39-5.94-7.27-10.17-7.27-6.79,0-12.3,7.45-12.3,16.64,0,5.94,2.3,11.13,5.75,14.07a46,46,0,0,0-23.66,36.95,36.19,36.19,0,0,0-3.4,15.52,35.42,35.42,0,0,0,4.89,18.29C26,219.5,7.09,231.85,7.09,246.89c0,7.37,4.56,14.1,12.06,19.21-7,8.14-11.08,17.81-11.08,28.19,0,29,31.64,52.45,70.68,52.45a89,89,0,0,0,38.14-8.3c.42.21.85.43,1.31.64,0,0-15.7,24.41,19,21.65,0,0-.23,15.1,13.24,15.95,1.15,2.14,3.34,2.67,7.06-.27a4.5,4.5,0,0,1,1.37-.75h0s.24,6,5.43,3.58c0,0-6.68,16.12,3.31,19.46a3.23,3.23,0,0,0,.92.26,17.32,17.32,0,0,0,6.24.13s-5.83,15.64,13.77,9.74c0,0,.23,3.44,3.87,1.77,0,0,.52,11.72,12.33,4.29,0,0,5.1,4.32,8.37,1.48,0,0,37.6,7.29,30.13-10.18h0a34.9,34.9,0,0,0-5.8-8.63s11-1.23,11-10.61c0,0,7-2.06,7-7.14,0,0,31,2.36,16.55-20.47,0,0,3.55-3.05,4.16-6.85,6.36,6.89,17.43,13.47,32,1,0,0,3.45,2.51,5.7-3.61,0,0,19,1.88,16.43-16.84,0,0,6.27-.92,3.57-6.47,0,0,5.35.94,5.15-3.16,0,0,33.08,21,49.72-5.47,0,0,6.33,16.36,24.5,12.46,0,0,11.1,10.07,21.94.81,0,0,12.69,6.3,16.9-7.17,0,0,9.09,8.71,19,3.34,0,0-9.59,21.67,37.31,21.8,0,0,11.47,13.2,19.6-1.62,0,0-1.16,17.06,22.91,16.22,0,0-5.16,16.64,13,19.19,0,0-2,12.2,15.89,15.34,0,0-3.27,23.8,22.91,16.22,0,0,11.47,4,12.38-7,0,0,19.22,15.6,40.17-4.07,0,0,21.54-1.7,12.89-23.32,0,0,11.77-1.78,8.15-12.57,0,0,8,13.45,18.39.63,0,0,15,13.38,22.61-3.56,0,0,11.7,5.48,15.79-6.68,0,0,63.09-7.39,42.92-70.58C776,287.42,807.9,259.57,779.86,237.49Zm-309.74-363c-.2-.2-.41-.39-.63-.58.26-.21.5-.45.74-.68C470.19-126.35,470.15-125.93,470.12-125.51ZM432.77-76.07c-3,.32-3.71-2.23-2.8-5.38a31.66,31.66,0,0,0-3.28,3.68c-.54,1.28-1.13,2.57-1.79,3.9-3.25,6.59-10.25,11.49-12.16,7.32-.38-.8-11.48,6.34-13.64,5.52a3.78,3.78,0,0,1-2.46-2.81c9.3-2.3,16.44-9.29,18.08-18a23.2,23.2,0,0,0,4.59.46c11.25,0,20.82-8,24.35-19.26a29.08,29.08,0,0,0,8.91,1.37,28.39,28.39,0,0,0,11.1-2.19A36.45,36.45,0,0,1,457.45-98C452.19-87.58,441-76.93,432.77-76.07Z"/>
      <g>
        <path class="b2473855-158a-47fe-a8a4-9db9ddb9edaa" d="M223,698.24s9.29,34.67,58.21,36.48,64.78.21,64.78.21-74.33,28.18-145.91,2.31c-30.84-1.46-39,8.56-78.33,18.45s-114.18,1.5-114.18,1.5S114.94,754,134,729.55,223,698.24,223,698.24Z"/>
        <g>
          <path class="b2473855-158a-47fe-a8a4-9db9ddb9edaa" d="M643.21-43.87c-14.47.17-17.77,1.38-15.81-.8,2.66-3,13.88-8.72,21.7-16,8.16-7.57,15.21-14.43,18.64-18.11,4.75-5.1,2.79-11.56,15.47-16.23,13.79-5.08,41.31-7.86,41.31-7.86a115,115,0,0,0-26.4.44c-11.58,1.71-22.39-.61-27.38,10.23-.94,2-14.61,18.51-27.52,29.16-8.22,6.78-18.27,11.13-21,11.06-5.46-.14-4.66-13.19-6.68-27-1.67-11.43-21.43-24.36-21.43-24.36s12,10.92,14.29,23.33c2.54,13.78,4.56,25,3.06,31.49-3.92,16.81-22.5,27-25.59,29.87C578.69-12,565-7.53,557.48-.51,543,13,534.39,29.42,520.19,42.67c-1.13,1-10.08,10.7-14.75,7.66-7.3-4.76-10.64-24.17-7.13-30.33,6.34-11.14,11.35-37.4,11.35-37.4S494.6,11.92,491.65,21c-3.27,10.05,3.06,20.52,5.82,31.32,3.63,14.18-6.87,19.84-6.64,26.84.53,15.45-23.12,21.3-27.92,23.31-6.59,2.75-35.14,14.09-39,15.27s-9.56.19-9.56.19-18.76,13.66-25,16.27c-3.22,1.34-19.58,11.24-19.22-5.62.12-5.86-3.12-18,1.53-34.7,3.78-13.6,24-48.91,34.83-57.24,4.62-3.54,19.41-18.27,31.16-18.07,8.51.14,30.55-3.58,30.55-3.58s-22.29-.45-30.8-2.33c-6.84-1.52-24.64,11.32-24.33,6.66.83-12.3,20-34.94,32-45.69,16.53-14.81,40-16.06,55.19-21.52,11.61-4.17,35.63-23.77,35.63-23.77s-13,8.59-38.15,17.38c-17.91,6.25-45.3,15.11-41.95,6.39C465-72,471.63-74,477.49-82.14s14.52-35.4,20.39-43.69c12.4-17.52,31.89-30.75,31.89-30.75s-19.45,11.76-27.69,18.47c-9.5,7.73-21.12,37-30.44,52-8.72,14-12.73,14.34-20.84,26.5-2.5,3.73-4.34,3.82-4.34,3.82s1.29,9.17-3.61,17.26C433.09-22.4,409.11,6.93,406,17.36c-3.07,10.21-6.65-2.77-11.43-1.39-2.79.81-9.27-11.09-14.73-20.26-6.57-11.06.69-29.34.69-29.34s-7,7.52-7.57,22.81c-.53,14.74,22.45,34.75,23.18,37.76,1.49,6.05-6.75,9-7.09,11.77-1.64,13.52-22.44,44.46-25.65,56.67-6.5,24.77-2.49,36.25-8.82,49.43-10.5,21.87-22.26,23.72-25.83,26.14A261.24,261.24,0,0,1,306.3,184.8c-38.87,20.64-64.83,60.28-68.2,67.3-11.06,23-21.78,61.32-25.82,61.8-3,.36-13.88-13.11-20-37.29-3.18-12.5-1.65-32.14-4.33-45.21-.73-3.57,17.39-42.72,46.3-67.71,21.06-18.2,46.73-32.12,64.06-42.26,11.85-6.93,19.25-24,19.25-24s-10,13.48-21.9,19.25c-13,6.29-35.74,16.8-42.54,21.44-4.35,3-7.12-1.67-2.79-15.37,3.1-9.82,11.38-35.75,14.48-42,6.45-13.09,36-40.27,36-40.27s-42.29,31.07-43.44,40.22c-1.51,12-15,29-18.29,39.52-5.8,18.78-5.14,32-8.54,34.94-27.65,23.59-41.82,61.14-45.89,58.68-11.87-7.19-14.94-34.18-19.35-47.61-2.82-8.59-2.22-33.15-1-40,2-11.27,17.21-29.17,17.21-29.17s-19.79,17.42-21.87,30.39c-1.59,9.89-6.45,27.08-1,38.72s5,33.11,11,45.9c9.36,19.91,3.2,41.54,3.82,49.95.66,9.15,4.64,28.88-3.38,39.88,8.6,30.43,12.71,23.3,15.87,66.69,1.12,15.32-6.05,35.93-14,55.5a41.84,41.84,0,0,1-1.62,10.72,531,531,0,0,0-13.19,59.58c9.54-1.67,19.11-4.65,27.73-6.75a38.89,38.89,0,0,1,18.75.56c2.6-30.87,6.38-44.72,18.13-80.87,6.26-19.3,21.89-41.86,43.59-63,15.21-14.85,43.43-29.64,43.43-29.64s25.44-11.06,53.5-16c9.1-1.61,22.92-7.76,33.48-9.94,12.8-2.63,25.9,1.79,44.92,3.06,18,1.2,36.39,5.18,55.82,1.29,5.67-1.14,17.4-7.46,25.78-14.24,9.26-7.49,30.39-4.14,38.61-11.12,4.19-3.56,16.68,6.24,28.71,16.18a41.54,41.54,0,0,0,24.67,9.37c9.65.47,20.79-2.11,20.79-2.11s-27.44-.27-38.79-13.25c-7.94-9.09-12.49-19.74-9.76-22,9.09-7.56,25.52-13.84,37.31-17.68,18-5.86,41.82-8.39,41.82-8.39s-14.61-4.31-28.05-1.66c-11.63,2.29-24.57,8.44-32.68,10.81-11.56,3.38-17.51,1.78-17.51,1.78s-34.08,21-47,23.88c-9.74,2.15.82-12.59,5.26-23,4.65-10.94,22.56-27.39,22.56-27.39a81.41,81.41,0,0,0-20.91,15.45c-8.86,9.25-15.79,22.85-23.08,30.06-13.31,13.16-32.76,22.79-40.67,24.31-23.22,4.46-26.16-8.87-41.8-7-27.54,3.3-30.52-3.59-28.64-4.69,11-6.51,33-20.2,33-20.2s8.43-32.51,47.06-57.16a207.69,207.69,0,0,1,33.32-17.52c5.31-2.17,18.5-9.25,31.19-10.77,14.49-1.74,33.6,27.66,33.6,27.66s.1-11.77-5.76-19c-6.63-8.22-14.75-14.65-11-15.88,19.7-6.36,24.27-16,39.51-17.29,8.23-.72,22.19-19.33,27.29-26.51a54.19,54.19,0,0,1-17.63,14.7c-11.37,6-26.73,12.63-37,15.73-22.3,6.74-26.42,3.61-26.42,3.61s-41.61,23.12-61.58,30.5c-4,1.46,5.44-13.58,6.38-22.66.82-7.87,13.26-25.71,13.26-25.71s-17.52,12.05-19.77,27.7c-.55,3.82-6.19,13.43-12.18,19.49-13.09,13.26-18.77,21.63-22.8,25.65-17.73,17.68-31.65,37.91-42,44.07-18.52,11.06-55.71,36.56-82.3,41.41-15.18,2.77-17.5-3.12-17.5-3.12s-66.37,40.62-73.71,40.19c-8.24-.49-8.51-10.73-12-22.4-4.09-13.62,19.18-49.25,19.18-49.25s16.34-5,35-11.67c3.37-1.21,8.46-2.48,22,3.32,5.8,2.48,10.39,10.74,15.88,16.7,5.78,6.27,30.34,4.9,30.34,4.9s-20.87-3.66-27.78-10.95c-5.73-6-23.35-19.39-10.24-23.42,6.09-1.87,18-.37,33.8-5,8.71-2.57,20.57-11,28.69-13.51,15.75-5,34.29,1.13,34.29,1.13s-14.2-11.11-29.06-6.5c-8.07,2.51-33.72,15.36-36.64,13.17-2.13-1.6,13.75-11.33,20.75-23.52,5.95-10.37,34.19-19.81,34.19-19.81s-22.67-1-27.14,4.73c-7.49,9.56-23.14,28.58-32.41,30.85-6.28,1.55-27.86,10.13-39.24,13.06-17.45,4.5-24.83,3.25-25.1,1.81-.77-4.08-14.41-4.32,33.12-36.76C332.24,182.73,372,159.23,394.82,144c9.07-6,29.83-13.4,54.4-21.63,18.78-6.29,30.29-17.73,45.57-21.64,20.05-5.14,24-13.25,37-9.15,7.32,2.31,25.33-4.94,42.82-5.92,13-.73,27.56,5,27.56,5S581.54,79,573.77,78.73c-6.73-.21-29.25,12.46-44.88,6-3.64-1.51-21,2.4-23.9,1-3.55-1.77,7.77-21.51,34.83-48.14,8.74-8.6,13-22,25-31.66,10.37-8.37,35.71-23.17,43-31.18,3.42-3.75,6.17-11.65,33-12.11,6.25-.11,24.65-4.66,36.59-6.05C688.77-44.76,694-52.12,694-52.12S676.86-47,665.28-46.88C655.2-46.74,650.56-44,643.21-43.87Z"/>
          <path class="b2473855-158a-47fe-a8a4-9db9ddb9edaa" d="M231.25,702.74c-72.07-141.71-26.54-254,11.14-319.25,9.51-19.55,55.52-58.65,79.89-77.62,8.67-6.75-70.83,31.58-72.25,24.73-5.23,3.93-10.76,8.1-16.81,12.68C117,431.3,131.36,742.36,131.36,742.36l104.13-5S245.67,726.82,231.25,702.74Z"/>
          <path class="b2473855-158a-47fe-a8a4-9db9ddb9edaa" d="M145.45,377.52q2.6-34.74,1.15-34.91t-6.52,31.84l-25-14.55c6.11,4.16,41.57,29.19,47.61,75.27,3.6,27.43-5,49.15-9.51,58.83,24.3-10.17,16.88-31.53,16.88-31.53S188.17,431,145.45,377.52Z"/>
          <path class="fa66e0fd-7008-4c5b-b6af-5c11e58e14da" d="M214.59,381S104.18,581.35,192.9,690.34C174.25,634,129.06,584.44,214.59,381Z"/>
          <path class="fa66e0fd-7008-4c5b-b6af-5c11e58e14da" d="M137.78,745.65s12.28.83,10.2-76.55-1.17-89.3-1.17-89.3,14.48,100,6.52,124S152.33,737.52,137.78,745.65Z"/>
          <path class="fa66e0fd-7008-4c5b-b6af-5c11e58e14da" d="M268.48,743.93s-39.08,9.45-63.72-53.74-16.27-56.34-16.27-56.34S215.6,740.88,268.48,743.93Z"/>
        </g>
      </g>
    </g>
  </g>
</svg>
