<svg id="ba7e03bd-2302-4e6b-84cf-3ba49c2c7149" data-name="Layer 1" xmlns="http://www.w3.org/2000/svg" width="46.82" height="32.62" viewBox="0 0 46.82 32.62">
  <defs>
    <style>
      .b01a148c-5805-4a37-b5d2-5b5f6073d38b {
        fill: #1a6318;
      }
    </style>
  </defs>
  <path class="b01a148c-5805-4a37-b5d2-5b5f6073d38b" d="M9.84,1.39S8.73,8.18,8.87,10A16.43,16.43,0,0,0,12,18.71,21.08,21.08,0,0,0,17.09,24a51.08,51.08,0,0,0,9.8,5.23c3.84,1.44,9.58,3.22,9.58,3.22a36.22,36.22,0,0,0,.93-5.06,52.68,52.68,0,0,0,.52-7.53c0-3.2.24-5.44-.61-8.25A13.5,13.5,0,0,0,33.38,5c-2.27-2.12-4.92-2.76-8.14-3.62S10.44.19,10.44.19,15,1.65,17,2.49c2.19.93,4.21,1.76,5.49,2.49a24.08,24.08,0,0,1,4.22,3.36,13.35,13.35,0,0,1,4.95.54,13.5,13.5,0,0,1,3.8,2.59S33.8,10.92,31.61,10a5.66,5.66,0,0,0-3.9-.41A37.38,37.38,0,0,1,31,13.5a24.78,24.78,0,0,1,2.22,5c.55,1.79,1.41,7.55,1.41,7.55s-1.65-3.61-2.29-5.4a25.85,25.85,0,0,0-1.26-3.29c-1-2.07-1.83-3.51-1.83-3.51s-.74.1-2.07,1.55a21.76,21.76,0,0,0-2.06,3.76s.43-3.67,1.21-4.68a5.35,5.35,0,0,1,2.27-1.68s-2.15-2.42-3.18-3.51a12,12,0,0,0-2.34-1.85A7.87,7.87,0,0,0,21.43,9.5c-.55,1-2.39,4.26-2.39,4.26a25,25,0,0,1,.84-4.55,7.38,7.38,0,0,1,1.84-2.55s-1-.46-2.29-1.17a27.67,27.67,0,0,0-3.91-1.9C13.89,2.92,9.84,1.39,9.84,1.39Z"/>
</svg>
