<svg id="a3c9d8ca-f158-4936-934c-d5c7ba530853" data-name="Layer 1" xmlns="http://www.w3.org/2000/svg" width="652.01" height="756.02" viewBox="0 0 652.01 756.02">
  <defs>
    <style>
      .e6646ede-46f2-4743-9982-c431fe4ac024 {
        fill: #1b5f25;
      }

      .a23d5527-50b4-491b-a051-1b265fefb224 {
        fill: #674a1d;
      }

      .f8b32f23-7e07-4c0b-af0b-6575b43ad122 {
        fill: #88632a;
      }
    </style>
  </defs>
  <g>
    <path class="e6646ede-46f2-4743-9982-c431fe4ac024" d="M620.66,293s17.3-27-8.26-36.49c0,0,3.73-13.49-5.31-14.47,0,0,24.22-40.07-18.79-34.93,0,0,3.86-27.42-21.39-17.31,0,0,3.41-30.2-24.36-24.93,0,0,7.5-23-9.55-29.63,0,0,2.55-30.91-20.64-33.3,0,0,10.76-27.87-19.34-38.38.75-2,1.51-3.93,2.19-5.92-.49,0-1-.12-1.47-.14.81-1.65.44-3.58-3-5.49h0c.12-.19,19.53-29.63-4-39.06a18.36,18.36,0,0,0-29-13.5,10.17,10.17,0,0,0-7.54-3.77c-6.86,0-12.42,8.15-12.42,18.21,0,.15,0,.3,0,.45a11.35,11.35,0,0,0-6.57-2.16,11.21,11.21,0,0,0-5.52,1.49C420.11,6.1,411.62,1.3,402.11,1.3c-12.23,0-22.79,7.94-27.75,19.45-.88-4.86-4.23-8.59-8.38-9.16C364.54,5.94,361.34,2,357.62,2c-5.07,0-9.18,7.28-9.18,16.26a27.81,27.81,0,0,0,.27,3.82,7.63,7.63,0,0,0-5.8-2.93,7.49,7.49,0,0,0-5.48,2.56,14.53,14.53,0,0,0-3.17-.35c-10.43,0-18.89,11-18.89,24.63,0,.65,0,1.3.07,1.94a17.5,17.5,0,0,0-2.63-.22c-10.13,0-18.35,8.63-18.35,19.28,0,.57,0,1.13.08,1.69A27.81,27.81,0,0,0,290.6,67c-13.09-4.42-26.94,1.61-31,13.48a21.46,21.46,0,0,0,1.24,16.46,17,17,0,0,0-8.39,15.21l-.33-.34-.27-.57c0,.08-.07.16-.1.23a12,12,0,0,0-11.47-2.52c-2.39-8.23-9-14.16-16.86-14.16-8.83,0-16.14,7.54-17.55,17.44-.21.26-.41.53-.61.8a11.88,11.88,0,0,0-16.24,11,11.61,11.61,0,0,0,.84,4.34,7.91,7.91,0,0,0-.84-.06c-5.37,0-9.72,5.76-9.72,12.86,0,.31,0,.61,0,.92a8.6,8.6,0,0,0-3.82-.92c-6.26,0-11.33,6.95-11.33,15.53,0,.67,0,1.32.1,2a9.18,9.18,0,0,0-14.82,7.17,10,10,0,0,0,.11,1.34c-10.16,2.54-17.19,8-17.19,14.37a8.51,8.51,0,0,0,.47,2.79c-15.65,2.3-27.63,15.4-27.63,31.22A30.69,30.69,0,0,0,107.91,228c-6.79,1.85-12.44,8.67-15.24,17.89-1.62-3.74-4.34-6.2-7.43-6.2-5,0-9,6.36-9,14.21,0,5.06,1.69,9.5,4.21,12-9.67,6.19-16.44,17.9-17.31,31.54a35.22,35.22,0,0,0-2.49,13.25,34.23,34.23,0,0,0,3.58,15.61C46.5,327.46,32.64,338,32.64,350.84c0,6.29,3.34,12,8.83,16.4a40.3,40.3,0,0,0-8.11,24.06c0,24.73,23.15,44.78,51.71,44.78a58.77,58.77,0,0,0,16.85-2.45c.27,1,.55,2,.85,3a6.92,6.92,0,0,0,1.87-1.55,7.94,7.94,0,0,0,1.52,4.53,5.25,5.25,0,0,1,3.78-1.19,4.64,4.64,0,0,1,.73.2,8.44,8.44,0,0,0,.54-.72c.07.37.17.69.26,1a17.8,17.8,0,0,1,3,2.11,13.28,13.28,0,0,1,1.36,1.35,6.39,6.39,0,0,0,2.2-2.66c.75,2.48,1.95,4.16,3.35,4.32a2.14,2.14,0,0,0,1.31-.33c.33-.91.6-2.11,1-3.48,1.05-3.19,4.59-4,6.7-1.57a14.6,14.6,0,0,1,1.3,1.86l.09-.3c1.22,2.21,2.71,3.48,4.08,3.21s2.31-2,2.69-4.55c1.42,2,3,3.07,4.34,2.59s2.05-2.4,2.18-5a9,9,0,0,0,1.36,1.29,2.91,2.91,0,0,0,0,.78,4,4,0,0,0,.32,1.28,4.62,4.62,0,0,1,4.71,1.43l-16.33,22.7s-2.64,9.85,13.05,11.89c0,0-6.11,20.9,18.81,11.23,0,0,3.2,10.83,13.3,8.44,1.32,1.27,3.05,1.16,5.13-1.76a3.72,3.72,0,0,1,.84-.84h0s1.51,4.21,4.8,1.35c0,0-1.32,13,6.78,13.15a2.55,2.55,0,0,0,.73,0,13.79,13.79,0,0,0,4.62-1.29s-.8,12.45,12.31,3.89c0,0,.94,2.4,3.24.41,0,0,3,8.24,10,.32,0,0,4.71,1.95,6.49-.8,0,0,29.3-3.15,19.9-13.95h0a26.89,26.89,0,0,0-6.19-4.87s7.81-3.31,5.74-10c0,0,4.71-3,3.56-6.65,0,0,23.34-5.2,7.62-18.28,0,0,1.93-3,1.53-5.81,6.22,3.5,15.83,5.74,23.76-6.36,0,0,3.1,1,3.38-3.84,0,0,14.4-2.87,8.34-15.66,0,0,4.41-2.05,1.18-5.41,0,0,4.15-.52,3.09-3.39,0,0,29,7.65,35.36-14.94,0,0,8.31,10.26,20.81,3.44,0,0,10.42,4.73,16.32-4.28,0,0,10.75,1.68,10.84-8.87,0,0,8.63,4.19,14.72-1.83,0,0-2.22,17.59,32.32,7.28,0,0,11.39,6.86,14.06-5.51,0,0,3,12.42,20.48,6.49,0,0-.09,13,13.84,10.8,0,0,1.28,9.14,15.11,7.42,0,0,2.9,17.71,20.48,6.49,0,0,9.33.31,7.55-7.73,0,0,17.62,6.86,28.65-11.81,0,0,15.47-6,4.28-19.5,0,0,8.27-3.89,3.2-10.78,0,0,8.85,7.83,13.67-3.63,0,0,14,6.21,15.84-7.56,0,0,9.84,1.31,10.13-8.27C604.82,352.86,649.6,333.58,620.66,293Zm-489.42-44.7c-.16-.67-.34-1.32-.53-2l.34.08C131.13,247.08,131.19,247.72,131.24,248.28Zm66.49-113,.48.13-.18.7C197.94,135.84,197.83,135.57,197.73,135.3Z"/>
    <g>
      <path class="a23d5527-50b4-491b-a051-1b265fefb224" d="M188.8,690.6s6.94,25.9,43.48,27.25,48.38.16,48.38.16-55.51,21-109,1.72c-23-1.09-29.11,6.39-58.49,13.78s-85.28,1.12-85.28,1.12,80.21-2.39,94.44-20.65S188.8,690.6,188.8,690.6Z"/>
      <g>
        <path class="a23d5527-50b4-491b-a051-1b265fefb224" d="M405.41,67.08c-10.51,2.47-12.73,3.89-11.65,2,1.45-2.59,8.71-8.61,13.23-15.15,4.73-6.85,8.75-13,10.66-16.22,2.64-4.49.16-8.89,8.64-14.34,9.24-5.94,28.85-12.43,28.85-12.43A85.82,85.82,0,0,0,436,15.52c-8.16,3.12-16.42,3.18-18.3,11.89C417.31,29,410,43.28,402.32,53.14c-4.89,6.27-11.51,11.07-13.54,11.46-4,.79-5.53-8.85-9.25-18.63C376.46,37.9,360,31.68,360,31.68s10.53,6,14.2,14.69c4.09,9.64,7.39,17.53,7.34,22.46-.13,12.9-12,23.34-13.82,25.93-4.13,6-13.39,11.49-17.73,17.83-8.37,12.22-12,25.56-20.19,37.52-.65.95-5.62,9.43-9.51,8-6.1-2.28-11.67-15.89-10.11-21C313,128,312.34,108,312.34,108s-6.23,23.82-6.91,30.89c-.76,7.86,5.55,14.46,9.32,21.89,4.94,9.75-1.8,15.57-.5,20.64,2.89,11.18-13.4,19.28-16.58,21.52-4.35,3.07-23.33,16-26,17.46s-6.94,1.69-6.94,1.69-11.46,13-15.6,15.91c-2.13,1.51-12.45,11.37-14.92-1-.86-4.29-5.19-12.59-4.51-25.54.55-10.53,9.55-39.55,16.12-47.38,2.79-3.33,11.19-16.46,19.79-18.22,6.22-1.28,21.69-7.56,21.69-7.56s-16.32,3.28-22.83,3.29c-5.23,0-16.13,12.24-16.66,8.8-1.39-9.1,8.93-28.72,15.93-38.5,9.65-13.48,26.56-18.19,36.75-24.63,7.79-4.92,22.12-23.11,22.12-23.11s-8.07,8.37-25,18.85c-12.05,7.46-30.58,18.37-29.55,11.46,2.84-19,7.35-21.58,10.3-28.46s4.86-28.17,7.79-35.16c6.2-14.78,18.27-27.59,18.27-27.59s-12.28,11.73-17.2,18c-5.67,7.17-9.4,30.38-13.77,42.84-4.08,11.65-7,12.52-10.9,22.7-1.21,3.12-2.54,3.49-2.54,3.49a21.65,21.65,0,0,1,.17,13.16c-4.51,13.35-17.23,38.61-17.83,46.73-.59,7.94-5.3-.94-8.56.84-1.91,1-8.56-6.58-14-12.39-6.59-7-4.26-21.5-4.26-21.5s-3.89,6.62-1.81,17.86c2,10.83,22,21.69,23,23.77,2.06,4.17-3.46,7.67-3.26,9.73,1,10.12-9.16,36.05-9.52,45.47-.72,19.11,4.06,26.84,1.58,37.47-4.11,17.64-12.38,20.9-14.6,23.24a194.27,194.27,0,0,1-14.1,13.74c-25,21.34-37.49,54.45-38.81,60.11-4.33,18.59-5.95,48.23-8.81,49.24-2.12.75-12.24-7.31-20.63-23.94-4.34-8.6-6.41-23.17-10.48-32.26-1.11-2.49,5.75-34,22.78-56.87,12.41-16.68,28.87-31,39.86-41.19,7.51-7,10.15-20.58,10.15-20.58s-5.08,11.44-12.85,17.58c-8.47,6.69-23.34,18.05-27.54,22.53-2.69,2.87-5.46-.07-4.52-10.76.67-7.66,2.5-27.9,3.74-33,2.59-10.59,19.69-35.18,19.69-35.18s-25.79,29.5-25.15,36.36c.84,9-6.27,23.6-6.93,31.78-1.19,14.63,1.44,24.19-.57,26.86-16.33,21.68-20.58,51.34-23.94,50.21C103,326,96.4,306.81,91,297.73c-3.45-5.81-7-23.81-7.23-29-.38-8.54,7.82-24.06,7.82-24.06s-11.61,15.91-11,25.7c.45,7.47-.31,20.79,5.53,28.4s9,23.33,15.44,31.69c10,13,9.07,29.76,10.88,35.79,2,6.57,8.06,20.31,4,29.63,11.2,20.78,13,14.92,22.37,46,3.3,11,1.42,27.17-1.18,42.71a30.75,30.75,0,0,1,.56,8.09,398.13,398.13,0,0,0,0,45.57c6.69-2.77,13.18-6.49,19.12-9.42a29.14,29.14,0,0,1,13.77-2.63c-3.11-22.92-2.6-33.64.1-61.9,1.45-15.08,9.18-34.06,21.57-53,8.69-13.29,26.86-28.65,26.86-28.65a202,202,0,0,1,36.41-20.35c6.38-2.64,15.45-9.37,22.8-12.67,8.91-4,19.17-2.89,33.24-5,13.29-2,27.38-2.12,40.91-8.11,3.95-1.75,11.48-8.25,16.49-14.55C375,315,391,314,395.83,307.57c2.48-3.27,13.18,1.85,23.56,7.14a31,31,0,0,0,19.5,2.84,67.14,67.14,0,0,0,14.82-4.91s-20,4.25-30.43-3.37C416,303.93,411,296.9,412.6,294.8c5.4-7,16.36-14.22,24.34-18.93,12.18-7.19,29.13-12.9,29.13-12.9s-11.36-.77-20.73,3.34c-8.1,3.55-16.54,10.13-22.07,13.17-7.88,4.34-12.47,4.14-12.47,4.14s-21.44,20.85-30.37,25c-6.75,3.15-1.45-9.31.1-17.64,1.62-8.73,12-23.63,12-23.63A60.61,60.61,0,0,0,379.8,282c-5,8.17-7.81,19.21-12,25.65-7.57,11.75-20.19,21.92-25.7,24.31-16.21,7-20.52-2.22-31.61,1.68-19.55,6.87-22.84,2.33-21.65,1.22,7-6.54,20.76-20.07,20.76-20.07s.88-25.07,25-49.3a155,155,0,0,1,21.46-18.17c3.52-2.45,12-9.74,21-12.91,10.29-3.62,29,14.72,29,14.72s-1.84-8.6-7.29-12.94c-6.16-4.91-13.12-8.29-10.56-9.8,13.34-7.83,15.11-15.57,26-19,5.88-1.86,13-17.69,15.6-23.75a40.62,40.62,0,0,1-10.48,13.58c-7.31,6.19-17.43,13.54-24.43,17.47-15.17,8.52-18.68,6.91-18.68,6.91s-26.59,23.6-40,32.21c-2.65,1.71,1.77-10.78,1-17.55-.69-5.87,5.5-20.89,5.5-20.89S332,227,332.88,238.78c.22,2.88-2.34,10.79-5.72,16.19-7.39,11.79-10.18,18.8-12.47,22.39-10.06,15.77-16.92,32.77-23.45,38.93C279.53,327.35,256.55,352,238,359.82c-10.62,4.48-13.26.56-13.26.56s-41.81,40.37-47.23,41.24c-6.08,1-7.94-6.44-12.39-14.38-5.19-9.27,6-39,6-39S182.18,342,194.72,334c2.26-1.42,5.77-3.18,16.58-1.14,4.63.87,9.31,6.15,14.28,9.6,5.23,3.63,22.91-1.34,22.91-1.34s-15.8.71-22-3.48c-5.16-3.48-20.17-10.36-11.26-15.42,4.13-2.35,13-3.18,23.82-9.15,5.94-3.28,13.23-11.32,18.73-14.5,10.68-6.16,25.18-4.73,25.18-4.73s-12.15-5.8-22.23,0c-5.49,3.14-22.1,16.67-24.59,15.54-1.81-.82,8.2-10.49,11.32-20.51,2.66-8.52,21.72-20,21.72-20s-16.69,3-19,7.85c-3.92,8.18-12.24,24.58-18.63,27.74-4.33,2.15-18.67,11.9-26.49,15.88-12,6.11-17.58,6.39-18,5.39-1.22-2.85-11.2-.81,18.19-32.17,10.23-10.91,35.37-34.48,49.57-49.31,5.63-5.87,19.57-14.6,36.15-24.58,12.67-7.63,19.21-17.84,29.72-23.17,13.78-7,15.35-13.55,25.49-12.66,5.71.49,17.67-7.71,30.26-11.26,9.38-2.64,20.89-.85,20.89-.85s-16.92-5.13-22.63-4c-4.94.94-19.3,13.82-31.74,11.64-2.9-.51-15,5.15-17.27,4.58-2.87-.72,2.18-16.94,17.59-40.74,5-7.69,5.93-18.15,13.08-27.13,6.2-7.79,22.28-22.68,26.31-29.7,1.89-3.3,2.61-9.5,22.1-14.19,4.54-1.09,17.22-7.39,25.7-10.33,8.07-2.8,10.69-9,10.69-9S429.43,59.31,421,61.31C413.69,63.05,410.76,65.82,405.41,67.08Z"/>
        <path class="a23d5527-50b4-491b-a051-1b265fefb224" d="M195,694c-53.83-105.84-19.83-189.68,8.32-238.43,7.1-14.6,41.46-43.8,59.66-58,6.48-5-52.9,23.59-54,18.47-3.91,2.93-8.05,6.05-12.56,9.47-86.78,65.74-76.07,298.06-76.07,298.06l77.76-3.71S205.75,711.94,195,694Z"/>
        <path class="a23d5527-50b4-491b-a051-1b265fefb224" d="M130.9,451.07q1.95-25.95.87-26.07t-4.88,23.78l-18.67-10.87c4.56,3.11,31,21.81,35.56,56.22a79.37,79.37,0,0,1-7.11,43.93c18.15-7.59,12.61-23.54,12.61-23.54S162.81,491,130.9,451.07Z"/>
        <path class="f8b32f23-7e07-4c0b-af0b-6575b43ad122" d="M182.54,453.64S100.09,603.3,166.34,684.7C152.41,642.64,118.67,605.61,182.54,453.64Z"/>
        <path class="f8b32f23-7e07-4c0b-af0b-6575b43ad122" d="M125.18,726s9.17.62,7.62-57.17-.88-66.7-.88-66.7,10.82,74.72,4.87,92.59S136.05,719.94,125.18,726Z"/>
        <path class="f8b32f23-7e07-4c0b-af0b-6575b43ad122" d="M222.8,724.73s-29.19,7-47.6-40.14-12.15-42.08-12.15-42.08S183.3,722.44,222.8,724.73Z"/>
      </g>
    </g>
  </g>
</svg>
