<svg id="ac13fc53-5b2d-4337-8f08-c62418dbdca2" data-name="Layer 1" xmlns="http://www.w3.org/2000/svg" width="2324.62" height="154.6" viewBox="0 0 2324.62 154.6">
  <defs>
    <style>
      .bebbf86a-b2fc-47ad-88db-9b0a5d92e7d4 {
        opacity: 0.6;
      }

      .e47921be-5cf6-41b2-a5af-2f07ec5af82f {
        fill: #fff;
      }
    </style>
  </defs>
  <g class="bebbf86a-b2fc-47ad-88db-9b0a5d92e7d4">
    <path class="e47921be-5cf6-41b2-a5af-2f07ec5af82f" d="M52.81,122.2c10.3,5.48,21.34,9.42,32.46,12.89,84.36,24.93,175.52,8.81,254.86-25.68l15.9-7.16c5.26-2.41,10.12-5.58,15.21-8.34,60.35-32.49,128.7-54,197.76-50.8,7.15.3,14.76,1.21,21.81,2.09l-8.73-.68C515,40.55,448.52,60.32,389,90c-5.17,2.63-10.32,5.32-15.38,8.15s-10.11,6.06-15.47,8.54c-15.4,7.2-32.79,14.58-48.75,20.19-4.71,1.72-11.9,3.94-16.71,5.56a411.84,411.84,0,0,1-77.42,16.36,347.45,347.45,0,0,1-57.15,1.45c-35.82-2.36-73.81-10.29-105.28-28Z"/>
  </g>
</svg>
