<svg id="f86e66b3-a8cb-422c-8607-3c3ea0f07d3a" data-name="Layer 1" xmlns="http://www.w3.org/2000/svg" width="652.01" height="756.02" viewBox="0 0 652.01 756.02">
  <defs>
    <style>
      .b1c12740-acca-4eec-a1d3-6be272aff016 {
        fill: #1b5f25;
      }

      .b0cd6ebf-72a8-4e08-96bd-d8e24a0cebe9 {
        fill: #674a1d;
      }

      .ada753bc-0b56-4f13-8e45-52732b48f7ea {
        fill: #88632a;
      }
    </style>
  </defs>
  <g>
    <path class="b1c12740-acca-4eec-a1d3-6be272aff016" d="M603.46,335.13s7.82-11.61-.44-15.4c0,0,35.7-30.31-6.71-39.1,0,0,12.37-24.76-14.79-23.21,0,0,12.83-27.55-15.17-31.38,0,0,14.41-19.41.35-31.13,0,0,12.25-28.49-9-38.12,0,0,19.06-23-6.14-42.55,1.35-1.63,2.69-3.24,4-4.91-.45-.21-.9-.42-1.36-.61,1.3-1.3,1.55-3.24-1-6.14h0c.2-.16,32.28-25.29,3.4-41.93l.34-.54a7,7,0,0,0-.81.27,65.63,65.63,0,0,0-11.48-4.9A12,12,0,0,1,546.76,54a13.36,13.36,0,0,1-3,1.2l-.66-.2a17.93,17.93,0,0,0,2.26-8.74,18.36,18.36,0,0,0-29-14.8,10.2,10.2,0,0,0-7.55-3.77c-6.85,0-12.41,8.15-12.41,18.21,0,.15,0,.3,0,.45a11.35,11.35,0,0,0-6.57-2.16,10.36,10.36,0,0,0-1.12.07c-3-15.4-15.32-26.93-30-26.93-13.22,0-24.49,9.3-28.84,22.34a1.72,1.72,0,0,1-.34-.69,7.54,7.54,0,0,1-2.91-.36l-.05,0a18.69,18.69,0,0,0-6.37-1.11A18.29,18.29,0,0,0,413,39c-.55-5.52-4.17-9.79-8.56-9.79-4.61,0-8.37,4.72-8.61,10.65a8.6,8.6,0,0,0-3.32-1.22C391,33,387.83,29,384.11,29s-6.76,3.75-8.25,9.18a15.76,15.76,0,0,0-10.1-3.82c-10.44,0-18.9,11-18.9,24.63,0,.65,0,1.3.07,1.94a17.47,17.47,0,0,0-2.62-.22c-9.31,0-17,7.28-18.17,16.7-9.38-2.42-18.88.37-24.64,6.68A17.08,17.08,0,0,0,293.27,69a17.35,17.35,0,0,0-23.75,5.67A16.88,16.88,0,0,0,267,84.17a12,12,0,0,0-2.31-1.89A13.18,13.18,0,0,1,266.81,79a2.74,2.74,0,0,0-.71.13,9.17,9.17,0,0,0-3.39,2.18,11.86,11.86,0,0,0-13.11,3C247,76.4,240.57,70.8,233,70.8c-9.84,0-17.82,9.35-17.82,20.89a24,24,0,0,0,.8,6.18,18.58,18.58,0,0,0-12.14,7.18,12,12,0,0,0-4.37-.83A11.83,11.83,0,0,0,187.56,116a11.61,11.61,0,0,0,.84,4.34,7.91,7.91,0,0,0-.84-.06c-5.37,0-9.72,5.76-9.72,12.86,0,.31,0,.61,0,.92a8.53,8.53,0,0,0-3.81-.92c-6.27,0-11.34,7-11.34,15.53a20.21,20.21,0,0,0,1.35,7.36,53,53,0,0,0-12.23-1.39c-16.52,0-29.92,7.11-29.92,15.88a9.72,9.72,0,0,0,2,5.73,18.47,18.47,0,0,0-3.6-.36c-9.07,0-16.42,6.35-16.42,14.19a12.68,12.68,0,0,0,2.18,7,12.14,12.14,0,0,0-8.92,8.57,16,16,0,0,0-6.57-1.41,15.47,15.47,0,0,0-15.7,15.23,15,15,0,0,0,1.27,6c-4.7,1.28-8.27,7.49-8.27,15,0,.44,0,.87,0,1.3-7.61,1.47-13.43,9.26-13.43,18.67a22.39,22.39,0,0,0,.53,4.76,9,9,0,0,0-8.33,8.9,8.86,8.86,0,0,0,2.83,6.49c-7.69,2.7-13.42,12.88-13.42,25,0,12.59,6.14,23.06,14.24,25.3-8.63,4.49-14.24,11.73-14.24,19.89,0,6.29,3.34,12,8.83,16.4a40.3,40.3,0,0,0-8.11,24.06c0,24.73,23.15,44.78,51.71,44.78A56.08,56.08,0,0,0,123.86,424a2.94,2.94,0,0,1,.43-.17h0s.1,4.47,4.12,2.8c0,0-5.37,11.89,2.25,14.62a2.48,2.48,0,0,0,.7.22,13.86,13.86,0,0,0,4.8.24s-4.72,11.55,10.43,7.61c0,0,.12,2.57,2.94,1.41,0,0,.22,8.77,9.41,3.49,0,0,3.85,3.35,6.41,1.3,0,0,28.78,6.33,23.3-6.9h0a26.66,26.66,0,0,0-4.32-6.59s8.46-.65,8.63-7.67c0,0,5.43-1.37,5.49-5.17,0,0,23.77,2.49,13-14.91,0,0,2.78-2.2,3.3-5,4.78,5.29,13.19,10.47,24.55,1.52,0,0,2.61,1.95,4.43-2.57,0,0,14.56,1.85,12.88-12.2,0,0,4.83-.54,2.84-4.76,0,0,4.1.83,4-2.23,0,0,25.09,16.48,38.27-2.93,0,0,4.62,12.38,18.64,9.88,0,0,8.37,7.79,16.84,1.13,0,0,9.65,5,13.09-5,0,0,6.85,6.72,14.54,2.94,0,0-7.7,16,28.33,17.17,0,0,8.62,10.13,15.09-.76,0,0-1.16,12.72,17.35,12.66,0,0-4.22,12.32,9.69,14.64,0,0-1.69,9.08,12,11.85,0,0-2.87,17.7,17.35,12.65,0,0,8.76,3.26,9.62-4.93,0,0,14.53,12.11,30.92-2.1,0,0,16.58-.76,10.26-17.13,0,0,9.07-1,6.45-9.2,0,0,5.9,10.24,14.12.9,0,0,11.34,10.35,17.42-2.13,0,0,8.91,4.37,12.24-4.62,0,0,48.58-4.05,34-51.75C599.7,372.35,624.67,352.29,603.46,335.13ZM196.22,127.33a11.4,11.4,0,0,0,1.95.38c-.42.61-.85,1.21-1.29,1.81A15.44,15.44,0,0,0,196.22,127.33ZM119,205.27c-.13-.37-.28-.73-.44-1.09a14.13,14.13,0,0,0,1.46.07Q119.54,204.79,119,205.27ZM458.62,85.87a27.15,27.15,0,0,0,4.44-.36C461.19,86.73,459.47,86.87,458.62,85.87Zm43.85-23.11c.06-.34.1-.7.14-1l.3.25-.42.77S502.48,62.75,502.47,62.76Z"/>
    <g>
      <path class="b0cd6ebf-72a8-4e08-96bd-d8e24a0cebe9" d="M192.63,682.42s6.94,25.9,43.48,27.25,48.38.16,48.38.16-55.52,21-109,1.72c-23-1.09-29.11,6.39-58.5,13.78s-85.28,1.12-85.28,1.12,80.22-2.39,94.45-20.65S192.63,682.42,192.63,682.42Z"/>
      <g>
        <path class="b0cd6ebf-72a8-4e08-96bd-d8e24a0cebe9" d="M541.14,123.42c-10.79-.64-13.32.09-11.74-1.43,2.14-2.07,10.81-5.76,17-10.74,6.49-5.21,12.1-9.94,14.85-12.5,3.81-3.55,2.69-8.47,12.38-11.27,10.55-3.06,31.19-3.67,31.19-3.67a85.68,85.68,0,0,0-19.68-1.07c-8.72.66-16.65-1.64-20.95,6.17-.8,1.46-11.86,13-22,20.27-6.48,4.61-14.2,7.32-16.25,7.12-4.07-.4-2.77-10.07-3.54-20.5-.64-8.61-14.68-19.29-14.68-19.29s8.36,8.77,9.41,18.14c1.16,10.4,2.07,18.9.61,23.62-3.81,12.32-18.19,18.92-20.65,20.9-5.68,4.56-16.12,7.18-22.08,12-11.52,9.33-18.79,21.08-30.07,30.2-.9.72-8.08,7.43-11.4,4.92-5.18-3.93-6.64-18.57-3.7-23,5.31-8,10.44-27.26,10.44-27.26s-12.77,21-15.45,27.62c-3,7.32,1.19,15.45,2.67,23.64,1.95,10.76-6.17,14.41-6.36,19.64-.43,11.55-18.36,14.65-22,15.89-5.06,1.7-26.93,8.64-29.89,9.3s-7.13-.36-7.13-.36-14.7,9.19-19.5,10.8c-2.47.83-15.18,7.33-14-5.21.4-4.36-1.38-13.55,3-25.77,3.54-9.93,20.46-35.17,29-40.8,3.63-2.39,15.43-12.57,24.17-11.8,6.33.55,22.95-1.05,22.95-1.05s-16.58-1.52-22.82-3.37c-5-1.49-19,7.13-18.48,3.67,1.27-9.12,16.77-25,26.27-32.34,13.1-10.15,30.64-9.84,42.25-13.1,8.87-2.5,27.8-15.83,27.8-15.83s-10.13,5.72-29.34,10.93c-13.67,3.71-34.55,8.86-31.59,2.54,8.16-17.42,13.21-18.59,18-24.34s12.7-25.6,17.51-31.47c10.16-12.39,25.38-21.21,25.38-21.21S447.49,41.18,441,45.74C433.51,51,423.3,72.17,415.56,82.87c-7.24,10-10.24,10-16.93,18.63-2.05,2.65-3.43,2.62-3.43,2.62a21.72,21.72,0,0,1-3.6,12.66c-8.13,11.5-27.55,32.08-30.44,39.69-2.83,7.44-4.81-2.42-8.44-1.64-2.13.45-6.32-8.76-9.9-15.88-4.31-8.59,2.07-21.82,2.07-21.82s-5.63,5.23-6.85,16.59c-1.18,11,14.88,27.08,15.27,29.36.78,4.59-5.51,6.37-5.91,8.4-1.94,10-19.08,31.92-22.11,40.85-6.15,18.11-3.78,26.88-9.19,36.36-9,15.73-17.84,16.49-20.63,18.1A195.75,195.75,0,0,1,278,275.93c-30,13.31-51.48,41.47-54.37,46.51C214.2,339,204.18,367,201.15,367.12c-2.25.11-9.64-10.5-12.93-28.84-1.7-9.49.47-24-.83-33.92-.35-2.69,15.22-30.89,38.08-48,16.66-12.45,36.52-21.45,50-28.09,9.19-4.53,15.6-16.82,15.6-16.82s-8.14,9.52-17.33,13.18c-10,4-27.52,10.62-32.83,13.72-3.4,2-5.22-1.63-1.26-11.6,2.83-7.15,10.37-26,13-30.55,5.5-9.41,28.92-28.09,28.92-28.09S248.4,189,247.06,195.79c-1.76,8.86-12.75,20.83-15.72,28.47-5.32,13.69-5.53,23.6-8.22,25.58-21.84,16.11-34.39,43.33-37.29,41.28-8.46-6-9.31-26.25-11.89-36.49-1.65-6.55.1-24.81,1.37-29.88,2.07-8.29,14.36-20.82,14.36-20.82s-15.66,11.93-17.9,21.48c-1.7,7.28-6.24,19.83-2.81,28.79s1.94,24.92,5.74,34.78c5.91,15.32.19,31.11.2,37.41,0,6.85,1.92,21.76-4.63,29.53,4.8,23.12,8.23,18,8.29,50.53,0,11.46-6.41,26.44-13.34,40.6a30.91,30.91,0,0,1-1.78,7.9,399.5,399.5,0,0,0-13,43.68c7.2-.73,14.49-2.44,21-3.55a28.94,28.94,0,0,1,13.94,1.41c3.57-22.86,7.12-33,17.79-59.29,5.69-14.05,18.52-30,35.81-44.64C251.14,382.31,273,372.78,273,372.78a201.61,201.61,0,0,1,40.7-9.09c6.87-.72,17.49-4.57,25.47-5.63,9.68-1.29,19.2,2.7,33.3,4.65,13.32,1.85,26.84,5.8,41.52,3.92,4.28-.55,13.35-4.63,20-9.24,7.3-5.09,22.86-1.47,29.35-6.24,3.31-2.43,12.1,5.54,20.53,13.58A31,31,0,0,0,501.66,373a66.52,66.52,0,0,0,15.6-.46s-20.43-1.66-28.19-11.93c-5.44-7.19-8.26-15.37-6.11-16.92,7.18-5.14,19.75-8.95,28.74-11.19,13.72-3.41,31.6-4,31.6-4s-10.66-4-20.82-2.73c-8.78,1.09-18.75,5-24.91,6.32-8.8,1.91-13.14.41-13.14.41s-26.5,13.86-36.25,15.29c-7.37,1.09,1.27-9.33,5.13-16.87,4.05-7.91,18.27-19.21,18.27-19.21a60.79,60.79,0,0,0-16.4,10.4c-7.09,6.42-13,16.19-18.79,21.17-10.61,9.1-25.61,15.24-31.58,16-17.54,2.09-19-8-30.77-7.43-20.69,1-22.55-4.29-21.09-5,8.57-4.26,25.62-13.3,25.62-13.3s8-23.77,38.09-40.08a154.1,154.1,0,0,1,25.75-11.29c4.08-1.34,14.27-5.91,23.81-6.37,10.89-.53,23.56,22.38,23.56,22.38s.7-8.76-3.28-14.48c-4.5-6.47-10.21-11.7-7.32-12.41,15-3.69,18.92-10.61,30.35-10.79,6.17-.1,17.55-13.22,21.73-18.3a40.49,40.49,0,0,1-13.91,10c-8.78,3.84-20.58,8-28.41,9.76-17,3.83-19.88,1.28-19.88,1.28s-32.22,15-47.49,19.46c-3,.88,4.78-9.82,6-16.54,1-5.82,11.24-18.45,11.24-18.45s-13.69,8-16.2,19.59c-.61,2.81-5.32,9.67-10.1,13.87-10.46,9.19-15.13,15.12-18.35,17.9-14.14,12.23-25.58,26.57-33.59,30.61-14.39,7.25-43.44,24.28-63.51,26.49-11.46,1.25-12.87-3.25-12.87-3.25s-51.6,26.74-57,26c-6.11-.8-5.77-8.45-7.76-17.33-2.33-10.36,16.89-35.67,16.89-35.67s12.44-2.83,26.72-6.84c2.57-.72,6.43-1.4,16.21,3.64,4.19,2.16,7.17,8.55,10.94,13.28,4,5,22.34,5.26,22.34,5.26s-15.35-3.83-20.11-9.62c-3.95-4.81-16.37-15.69-6.39-18,4.64-1.08,13.42.67,25.45-2,6.62-1.45,15.91-7.08,22.09-8.55,12-2.86,25.49,2.66,25.49,2.66s-10-9-21.31-6.38c-6.15,1.44-25.94,9.65-28,7.87-1.51-1.3,10.84-7.71,16.7-16.43,5-7.4,26.52-12.94,26.52-12.94S336.06,276,332.43,280c-6.09,6.72-18.75,20.06-25.78,21.27-4.76.81-21.29,6.06-29.92,7.64-13.24,2.43-18.67,1.1-18.8,0-.35-3.08-10.5-4,26.63-25.63,12.91-7.53,43.74-22.94,61.59-33.09,7.07-4,22.92-8.4,41.66-13.23,14.33-3.69,23.51-11.6,35.1-13.71,15.21-2.76,18.58-8.6,28-4.86,5.33,2.11,19.13-2.33,32.21-2.14,9.75.15,20.27,5.15,20.27,5.15s-14.75-9.74-20.53-10.33c-5-.52-22.45,7.73-33.75,2.08-2.63-1.31-15.8.67-17.86-.54-2.54-1.51,6.93-15.61,28.5-34,7-5.94,10.87-15.69,20.28-22.26,8.17-5.69,27.83-15.37,33.7-21,2.75-2.61,5.21-8.35,25.24-7.27,4.66.25,18.6-2.17,27.58-2.57,8.53-.37,12.81-5.58,12.81-5.58s-13,2.87-21.67,2.38C550.22,121.92,546.62,123.74,541.14,123.42Z"/>
        <path class="b0cd6ebf-72a8-4e08-96bd-d8e24a0cebe9" d="M198.82,685.78C145,580,179,496.1,207.14,447.35c7.1-14.6,41.46-43.8,59.66-58,6.47-5-52.9,23.59-54,18.47-3.9,2.93-8,6-12.56,9.47-86.77,65.74-76.07,298.06-76.07,298.06L202,711.67S209.58,703.76,198.82,685.78Z"/>
        <path class="b0cd6ebf-72a8-4e08-96bd-d8e24a0cebe9" d="M134.73,442.89q2-26,.87-26.07t-4.88,23.78l-18.67-10.87c4.56,3.11,31,21.81,35.56,56.22a79.52,79.52,0,0,1-7.11,43.94c18.15-7.6,12.61-23.55,12.61-23.55S166.64,482.82,134.73,442.89Z"/>
        <path class="ada753bc-0b56-4f13-8e45-52732b48f7ea" d="M186.37,445.46s-82.45,149.66-16.2,231.06C156.24,634.46,122.5,597.43,186.37,445.46Z"/>
        <path class="ada753bc-0b56-4f13-8e45-52732b48f7ea" d="M129,717.83s9.18.62,7.63-57.17-.88-66.7-.88-66.7,10.82,74.72,4.87,92.59S139.87,711.76,129,717.83Z"/>
        <path class="ada753bc-0b56-4f13-8e45-52732b48f7ea" d="M226.62,716.55S197.44,723.6,179,676.41s-12.15-42.08-12.15-42.08S187.13,714.26,226.62,716.55Z"/>
      </g>
    </g>
  </g>
</svg>
