<svg id="a621bfa8-45d4-4284-ae88-7ff2d090b24a" data-name="Layer 1" xmlns="http://www.w3.org/2000/svg" width="652.01" height="756.02" viewBox="0 0 652.01 756.02">
  <defs>
    <style>
      .b9b143fa-d2f9-4206-bc5c-93f525d9642a {
        fill: #1b5f25;
      }

      .b414be13-a555-4dd5-9a96-cca8a1e55a5e {
        fill: #674a1d;
      }

      .a83f39d1-3337-4fde-b4ea-c19c17529438 {
        fill: #88632a;
      }
    </style>
  </defs>
  <g>
    <path class="b9b143fa-d2f9-4206-bc5c-93f525d9642a" d="M608.46,311.77s6.67-12.31-1.92-15.29c0,0,32.61-33.6-10.44-38.27,0,0,9.92-25.84-17-21.68,0,0,10.11-28.65-18.13-29.77,0,0,12.47-20.7-2.64-31,0,0,9.44-29.54-12.62-37.09,0,0,16.75-24.73-10.2-41.75,1.18-1.76,2.35-3.49,3.47-5.27-.47-.16-.93-.34-1.41-.47,1.17-1.42,1.23-3.39-1.64-6h0c.18-.17,29.7-28.27-.65-42.06l.29-.57a6.51,6.51,0,0,0-.78.35c-1.16-.51-2.41-1-3.74-1.47A18.18,18.18,0,0,0,519.42,9.13a18.33,18.33,0,0,0-10.66,3.42,10.16,10.16,0,0,0-7.55-3.78c-6.85,0-12.41,8.16-12.41,18.21,0,.16,0,.3,0,.46a11.29,11.29,0,0,0-6.57-2.17c-4.84,0-9.06,3.19-11.28,7.91-5.47-9.48-15-15.76-25.89-15.76a29.16,29.16,0,0,0-21.65,9.93,16.89,16.89,0,0,0-13.86-6.72c-7.15,0-13.21,4-15.36,9.51a6.64,6.64,0,0,0-4.25-.8c-1.37-4.5-4.93-7.71-9.11-7.71s-7.71,3.18-9.09,7.64a5.67,5.67,0,0,0-1.17-.14c-3.63,0-6.76,3.75-8.25,9.17a15.81,15.81,0,0,0-10.1-3.82c-9.79,0-17.83,9.7-18.8,22.13a17.48,17.48,0,0,0-7.65-1.78c-10.14,0-18.36,8.63-18.36,19.28a20.58,20.58,0,0,0,.19,2.62A24.34,24.34,0,0,0,288,84.22a17.05,17.05,0,0,0-8.23-15.08A17.34,17.34,0,0,0,256,74.8a16.94,16.94,0,0,0-2.53,9.47,11.9,11.9,0,0,0-17.39.09c-2.56-7.86-9-13.46-16.63-13.46-9.84,0-17.82,9.35-17.82,20.89a24,24,0,0,0,.8,6.18c-8.45,1.39-14.83,7.68-14.83,15.24a13.92,13.92,0,0,0,3.54,9.14,11.74,11.74,0,0,0-10.26,16.08,7.58,7.58,0,0,0-.84-.05c-5.37,0-9.72,5.75-9.72,12.85,0,.31,0,.62,0,.92a8.66,8.66,0,0,0-3.81-.92c-6.27,0-11.34,7-11.34,15.53A19.83,19.83,0,0,0,157,175.1a9.34,9.34,0,0,0-2.32-.3,9.15,9.15,0,0,0-9.14,8.33,2.42,2.42,0,0,0-1.84.37,5.74,5.74,0,0,0-.66.5c-.26,1.32-.48,2.72-.66,4.1a13.22,13.22,0,0,0-18,12.26,12.9,12.9,0,0,0,.29,2.73c-.62-.06-1.24-.1-1.88-.1-9.07,0-16.42,6.35-16.42,14.19a12.6,12.6,0,0,0,2.19,7,12.17,12.17,0,0,0-8.93,8.57,16,16,0,0,0-6.57-1.41,15.47,15.47,0,0,0-15.7,15.24,14.72,14.72,0,0,0,1.28,6c-4.71,1.28-8.28,7.5-8.28,15,0,.44,0,.87,0,1.29C62.81,270.39,57,278.17,57,287.59a22.54,22.54,0,0,0,.53,4.76,9,9,0,0,0-8.33,8.9A8.86,8.86,0,0,0,52,307.73c-7.69,2.7-13.42,12.88-13.42,25,0,12.59,6.14,23.06,14.24,25.3C44.21,362.57,38.6,369.8,38.6,378c0,6.3,3.34,12,8.83,16.4a40.3,40.3,0,0,0-8.11,24.06c0,24.73,23.15,44.78,51.71,44.78,16,0,30.25-6.27,39.74-16.12a12.75,12.75,0,0,0,2.88.32c1,1.53,2.71,1.82,5.4-.56a3.48,3.48,0,0,1,1-.63h0s.52,4.44,4.37,2.39c0,0-4.21,12.35,3.64,14.34a2.5,2.5,0,0,0,.72.15,13.88,13.88,0,0,0,4.79-.22s-3.58,11.95,11.12,6.56c0,0,.37,2.55,3.06,1.12,0,0,1.07,8.71,9.7,2.58,0,0,4.16,3,6.51.68,0,0,29.25,3.52,22.53-9.12h0a26.7,26.7,0,0,0-4.94-6.14s8.36-1.46,7.85-8.46c0,0,5.28-1.89,5-5.68,0,0,23.9.19,11.53-16.09,0,0,2.55-2.46,2.8-5.32,5.27,4.81,14.14,9.16,24.58-.85,0,0,2.79,1.69,4.17-3,0,0,14.67.45,11.64-13.38,0,0,4.75-1,2.37-5,0,0,4.16.43,3.77-2.61,0,0,26.56,14,37.82-6.6,0,0,5.78,11.87,19.5,8,0,0,9.09,6.95,16.87-.5,0,0,10.09,4,12.55-6.21,0,0,7.47,6,14.75,1.53,0,0-6.12,16.64,29.86,14.37,0,0,9.55,9.25,14.94-2.21,0,0,.08,12.78,18.49,10.93,0,0-3,12.67,11.05,13.64,0,0-.81,9.2,13.06,10.64,0,0-1.16,17.9,18.49,10.93,0,0,9,2.4,9.1-5.84,0,0,15.63,10.66,30.57-5.06,0,0,16.43-2.36,8.56-18,0,0,8.93-1.92,5.54-9.78,0,0,6.86,9.62,14.14-.46,0,0,12.29,9.21,17.14-3.8,0,0,9.29,3.49,11.73-5.78,0,0,48-8.71,28.91-54.78C608.3,349.18,631.22,326.8,608.46,311.77ZM475.75,54.23a12.28,12.28,0,0,0,1.75,1,5.81,5.81,0,0,1-1.91.74C475.66,55.41,475.71,54.82,475.75,54.23ZM330.46,92.73l.18,0-.15.1Z"/>
    <g>
      <path class="b414be13-a555-4dd5-9a96-cca8a1e55a5e" d="M190.89,684.44s6.94,25.9,43.47,27.25,48.38.16,48.38.16-55.51,21-109,1.72c-23-1.09-29.11,6.39-58.5,13.78S30,728.47,30,728.47s80.22-2.39,94.44-20.64S190.89,684.44,190.89,684.44Z"/>
      <g>
        <path class="b414be13-a555-4dd5-9a96-cca8a1e55a5e" d="M504.46,128.1c-10.8.11-13.28,1-11.81-.61,2-2.21,10.37-6.5,16.22-11.91,6.1-5.65,11.37-10.76,13.93-13.51,3.56-3.8,2.1-8.63,11.56-12.11,10.31-3.78,30.86-5.84,30.86-5.84a86.15,86.15,0,0,0-19.71.31c-8.65,1.27-16.72-.47-20.46,7.62-.7,1.51-10.92,13.82-20.57,21.76-6.14,5.06-13.65,8.3-15.71,8.25-4.08-.11-3.47-9.85-5-20.21-1.24-8.54-16-18.21-16-18.21s9,8.17,10.66,17.44c1.89,10.29,3.39,18.71,2.27,23.51-2.94,12.56-16.82,20.16-19.14,22.3-5.34,5-15.57,8.3-21.18,13.53-10.84,10.11-17.27,22.34-27.89,32.23-.84.78-7.53,8-11,5.71-5.46-3.56-7.93-18.06-5.31-22.66,4.74-8.31,8.5-27.92,8.5-27.92s-11.26,21.88-13.47,28.64c-2.45,7.5,2.26,15.32,4.32,23.39,2.7,10.59-5.15,14.81-5,20,.38,11.54-17.29,15.9-20.88,17.39-4.92,2-26.25,10.5-29.16,11.38s-7.14.14-7.14.14-14,10.19-18.69,12.13c-2.41,1-14.63,8.38-14.36-4.21.1-4.38-2.31-13.42,1.17-25.91,2.83-10.16,17.94-36.52,26.06-42.73,3.45-2.64,14.5-13.63,23.28-13.48,6.35.11,22.82-2.65,22.82-2.65s-16.65-.35-23-1.76c-5.11-1.14-18.41,8.44-18.18,5,.63-9.19,15-26.09,23.94-34.1,12.35-11,29.88-12,41.23-16,8.67-3.1,26.63-17.73,26.63-17.73s-9.71,6.41-28.51,13c-13.38,4.66-33.84,11.26-31.33,4.75,6.91-17.94,11.87-19.46,16.26-25.53S391.59,73,396,66.79c9.27-13.08,23.83-22.94,23.83-22.94s-14.53,8.77-20.69,13.77c-7.1,5.77-15.8,27.6-22.77,38.82-6.52,10.48-9.52,10.7-15.58,19.77-1.87,2.79-3.25,2.86-3.25,2.86a21.67,21.67,0,0,1-2.7,12.88c-7.3,12-25.23,33.93-27.58,41.72-2.3,7.62-5-2.07-8.54-1-2.09.6-6.92-8.29-11-15.15-4.91-8.26.53-21.91.53-21.91s-5.25,5.61-5.67,17c-.4,11,16.74,26,17.29,28.21,1.1,4.53-5.05,6.74-5.3,8.8-1.24,10.09-16.8,33.18-19.2,42.3-4.87,18.49-1.89,27.07-6.62,36.91-7.86,16.32-16.64,17.7-19.31,19.5a193.42,193.42,0,0,1-16.76,10.34c-29,15.39-48.45,45-51,50.21-8.28,17.2-16.31,45.78-19.33,46.14-2.23.27-10.35-9.8-14.92-27.86-2.36-9.34-1.21-24-3.2-33.77-.54-2.67,13-31.89,34.62-50.54,15.75-13.58,34.93-23.95,47.88-31.52,8.85-5.17,14.39-17.87,14.39-17.87s-7.45,10.06-16.37,14.36c-9.73,4.69-26.71,12.53-31.79,16-3.25,2.21-5.32-1.26-2.07-11.49,2.32-7.33,8.52-26.69,10.84-31.38,4.83-9.77,26.88-30.05,26.88-30.05s-31.6,23.18-32.46,30c-1.14,9-11.27,21.67-13.69,29.5-4.35,14-3.87,23.93-6.41,26.1-20.66,17.59-31.27,45.62-34.3,43.79-8.86-5.38-11.14-25.54-14.43-35.57-2.1-6.42-1.63-24.76-.72-29.91C148.12,246.39,159.5,233,159.5,233s-14.79,13-16.35,22.68c-1.19,7.39-4.84,20.22-.8,28.92s3.69,24.73,8.17,34.29c7,14.87,2.37,31,2.82,37.3.49,6.84,3.45,21.58-2.55,29.79,6.41,22.72,9.48,17.41,11.81,49.82.82,11.44-4.54,26.82-10.46,41.43a30.7,30.7,0,0,1-1.22,8A400,400,0,0,0,141,529.76c7.13-1.24,14.28-3.46,20.72-5a29,29,0,0,1,14,.44c2-23.06,4.79-33.4,13.59-60.39,4.7-14.41,16.38-31.25,32.6-47,11.38-11.08,32.46-22.11,32.46-22.11a201.74,201.74,0,0,1,40-11.92c6.79-1.2,17.12-5.79,25-7.4,9.56-2,19.34,1.35,33.54,2.31,13.42.91,27.18,3.9,41.69,1,4.23-.85,13-5.56,19.26-10.62,6.93-5.59,22.71-3.07,28.85-8.28,3.13-2.65,12.45,4.68,21.43,12.11a31,31,0,0,0,18.42,7,66.67,66.67,0,0,0,15.53-1.56s-20.5-.22-29-9.92c-5.93-6.79-9.32-14.76-7.28-16.45,6.8-5.64,19.07-10.32,27.88-13.18,13.45-4.36,31.24-6.23,31.24-6.23s-10.91-3.23-21-1.26c-8.69,1.7-18.36,6.28-24.41,8.05-8.64,2.52-13.08,1.32-13.08,1.32s-25.47,15.68-35.09,17.8c-7.28,1.6.62-9.4,3.94-17.2,3.48-8.17,16.87-20.44,16.87-20.44a61,61,0,0,0-15.63,11.53c-6.62,6.9-11.81,17.05-17.26,22.43-9.94,9.82-24.48,17-30.38,18.13-17.35,3.32-19.54-6.64-31.22-5.25-20.57,2.45-22.79-2.7-21.39-3.53C340.63,359.23,357,349,357,349s6.32-24.27,35.19-42.66a155.3,155.3,0,0,1,24.89-13.06c4-1.62,13.83-6.9,23.3-8C451.22,284,465.47,306,465.47,306s.08-8.8-4.29-14.22c-4.94-6.14-11-10.95-8.17-11.87,14.71-4.74,18.13-11.91,29.52-12.89,6.14-.53,16.58-14.42,20.4-19.78a40.38,40.38,0,0,1-13.18,11c-8.49,4.45-20,9.42-27.66,11.73-16.66,5-19.73,2.67-19.73,2.67s-31.1,17.24-46,22.74c-3,1.09,4.08-10.14,4.79-16.92.61-5.88,9.92-19.19,9.92-19.19s-13.09,9-14.79,20.67c-.41,2.86-4.63,10-9.11,14.55-9.78,9.9-14,16.14-17,19.14-13.25,13.2-23.65,28.3-31.36,32.89-13.84,8.24-41.63,27.27-61.49,30.87-11.35,2.06-13.07-2.34-13.07-2.34s-49.6,30.29-55.08,30c-6.15-.37-6.35-8-9-16.73-3-10.18,14.36-36.77,14.36-36.77s12.2-3.7,26.17-8.69c2.51-.9,6.32-1.85,16.42,2.49,4.33,1.86,7.76,8,11.85,12.48,4.32,4.69,22.66,3.68,22.66,3.68s-15.59-2.74-20.74-8.19c-4.28-4.52-17.43-14.5-7.63-17.5,4.55-1.39,13.42-.26,25.25-3.74,6.5-1.91,15.37-8.17,21.43-10.07,11.77-3.69,25.61.87,25.61.87s-10.6-8.31-21.7-4.87c-6,1.86-25.2,11.44-27.37,9.81-1.59-1.2,10.28-8.46,15.51-17.56,4.45-7.74,25.55-14.77,25.55-14.77s-16.94-.73-20.27,3.52c-5.61,7.13-17.3,21.33-24.23,23-4.69,1.15-20.82,7.54-29.32,9.73-13,3.34-18.54,2.4-18.74,1.33-.58-3.05-10.76-3.23,24.76-27.43,12.35-8.42,42-25.95,59.12-37.33,6.77-4.51,22.28-10,40.63-16.12,14-4.68,22.64-13.22,34.06-16.13,15-3.82,17.93-9.88,27.63-6.81,5.47,1.73,18.93-3.67,32-4.39,9.73-.54,20.58,3.72,20.58,3.72s-15.4-8.69-21.21-8.87c-5-.17-21.85,9.28-33.52,4.44-2.71-1.13-15.71,1.78-17.85.71-2.64-1.33,5.82-16.06,26.05-35.93,6.53-6.42,9.74-16.42,18.67-23.63C453.61,159,472.55,147.93,478,142c2.56-2.8,4.61-8.7,24.66-9,4.67-.08,18.41-3.47,27.33-4.49,8.49-1,12.4-6.47,12.4-6.47s-12.81,3.78-21.46,3.89C513.41,126,510,128,504.46,128.1Z"/>
        <path class="b414be13-a555-4dd5-9a96-cca8a1e55a5e" d="M197.08,687.81C143.25,582,177.25,498.12,205.4,449.38c7.1-14.61,41.46-43.81,59.66-58,6.47-5-52.9,23.59-54,18.47-3.91,2.94-8,6.05-12.56,9.48-86.77,65.73-76.07,298-76.07,298l77.77-3.71S207.84,705.79,197.08,687.81Z"/>
        <path class="b414be13-a555-4dd5-9a96-cca8a1e55a5e" d="M133,444.91q1.94-25.93.87-26.07T129,442.62l-18.67-10.87c4.56,3.11,31,21.81,35.56,56.22a79.5,79.5,0,0,1-7.11,43.94c18.15-7.6,12.61-23.55,12.61-23.55S164.9,484.85,133,444.91Z"/>
        <path class="a83f39d1-3337-4fde-b4ea-c19c17529438" d="M184.63,447.48s-82.46,149.66-16.2,231.07C154.5,636.48,120.76,599.45,184.63,447.48Z"/>
        <path class="a83f39d1-3337-4fde-b4ea-c19c17529438" d="M127.26,719.85s9.18.62,7.63-57.17S134,596,134,596s10.82,74.72,4.87,92.59S138.13,713.78,127.26,719.85Z"/>
        <path class="a83f39d1-3337-4fde-b4ea-c19c17529438" d="M224.88,718.57s-29.18,7-47.59-40.14-12.15-42.08-12.15-42.08S185.39,716.29,224.88,718.57Z"/>
      </g>
    </g>
  </g>
</svg>
