<svg id="a56a7c04-600f-4b26-bb39-8d14ed109db1" data-name="Layer 1" xmlns="http://www.w3.org/2000/svg" width="46.82" height="32.62" viewBox="0 0 46.82 32.62">
  <defs>
    <style>
      .fb7a3a4e-e4ea-4710-86e7-38347ed8bff3 {
        fill: #014900;
      }
    </style>
  </defs>
  <path class="fb7a3a4e-e4ea-4710-86e7-38347ed8bff3" d="M46.22,1.6S46.05,8.28,45.4,10a19,19,0,0,1-6.62,8.61,38.34,38.34,0,0,1-8.56,5.19A109.75,109.75,0,0,1,15.07,29C9.28,30.43.74,32.2.74,32.2a22.44,22.44,0,0,1,0-5,36.71,36.71,0,0,1,1.19-7.41c.77-3.14,1-5.35,3-8.11a19.61,19.61,0,0,1,7.25-6.54c3.74-2.09,7.63-2.72,12.39-3.58S45.68.42,45.68.42,38.84,1.87,35.87,2.7c-3.33.92-6.38,1.74-8.38,2.46a48.68,48.68,0,0,0-6.81,3.31A27.71,27.71,0,0,0,13.57,9a27.84,27.84,0,0,0-6,2.55S10,11,13.33,10.11a11.43,11.43,0,0,1,5.59-.41,68.13,68.13,0,0,0-5.69,3.86,32.79,32.79,0,0,0-4.42,4.92C7.59,20.25,4.9,25.92,4.9,25.92s3.25-3.56,4.62-5.33a29.12,29.12,0,0,1,2.62-3.23c1.92-2,3.47-3.46,3.47-3.46a5,5,0,0,1,2.52,1.51,14.7,14.7,0,0,1,1.95,3.71s.33-3.62-.51-4.61a6,6,0,0,0-2.77-1.64s3.65-2.39,5.37-3.46a24.13,24.13,0,0,1,3.77-1.83,6.49,6.49,0,0,1,1.86,2c.51,1,2.29,4.17,2.29,4.17a16.17,16.17,0,0,0,0-4.46,5.65,5.65,0,0,0-1.94-2.51s1.51-.45,3.53-1.16a62.64,62.64,0,0,1,6-1.87C40.13,3.1,46.22,1.6,46.22,1.6Z"/>
</svg>
