<svg id="bd1ba7ba-cde8-4970-b46f-b4ee6e981d27" data-name="Layer 1" xmlns="http://www.w3.org/2000/svg" width="2324.62" height="154.6" viewBox="0 0 2324.62 154.6">
  <defs>
    <style>
      .b5a8324a-deea-4afa-9ffe-8cd7742a649f {
        opacity: 0.6;
      }

      .a3bc409a-13f0-47f5-9a0c-59bb8e4f8a47 {
        fill: #fff;
      }
    </style>
  </defs>
  <g class="b5a8324a-deea-4afa-9ffe-8cd7742a649f">
    <path class="a3bc409a-13f0-47f5-9a0c-59bb8e4f8a47" d="M1132.81,120.2a1004.28,1004.28,0,0,1,160.93-80.84c14.61-5.63,32.51-12.15,47.43-16.43a488,488,0,0,1,218.93-13c36.12,6.41,71.76,15.38,108.12,20.43,19.75,2.93,39.65,5.41,59.63,5.64a160.39,160.39,0,0,0,20-.81c-26.53,3.57-53.47.6-79.92-2.4-33.12-4-65.88-10.81-98.63-17A510,510,0,0,0,1509.91,9a503.4,503.4,0,0,0-177,21.24c-69.59,22.55-136.53,53.94-200.1,90Z"/>
  </g>
</svg>
