<svg id="a0081ccd-d4cf-40f9-9f9b-8a8fc92bff6b" data-name="Layer 1" xmlns="http://www.w3.org/2000/svg" width="2324.62" height="154.6" viewBox="0 0 2324.62 154.6">
  <defs>
    <style>
      .e3f29b06-61c1-4310-a690-68c5fecaa9ce {
        opacity: 0.6;
      }

      .bc5511eb-3aee-4315-ad09-c3d4cf2ca93c {
        fill: #fff;
      }
    </style>
  </defs>
  <g class="e3f29b06-61c1-4310-a690-68c5fecaa9ce">
    <path class="bc5511eb-3aee-4315-ad09-c3d4cf2ca93c" d="M1129.81,122.2c-31.44,17.74-69.48,25.67-105.28,28a347.45,347.45,0,0,1-57.15-1.45A412,412,0,0,1,890,132.42c-4.84-1.63-12-3.83-16.7-5.56-15.94-5.6-33.39-13-48.76-20.19-5.36-2.48-10.3-5.72-15.46-8.54S798.83,92.61,793.65,90C734.1,60.32,667.59,40.55,600.54,44.52l-8.73.68c7.06-.88,14.82-1.8,21.81-2.09,72-3.18,143.3,19.94,205.41,55.16,4.81,3,18.13,8.67,23.46,11.14C921.83,143.9,1013,160,1097.36,135.09c11.11-3.47,22.15-7.41,32.45-12.89Z"/>
  </g>
</svg>
