<svg id="e87662ef-00ba-492c-bc22-eaec8c6759ee" data-name="Layer 1" xmlns="http://www.w3.org/2000/svg" width="46.82" height="32.62" viewBox="0 0 46.82 32.62">
  <defs>
    <style>
      .b3b41e2f-900a-4f1e-a836-e2b95a44438c {
        fill: #179113;
      }
    </style>
  </defs>
  <path class="b3b41e2f-900a-4f1e-a836-e2b95a44438c" d="M36.31,24.09a53.23,53.23,0,0,0-1.09-6.26,13,13,0,0,0-4.07-5.73,17.78,17.78,0,0,0-4.82-2.95,41.05,41.05,0,0,0-8.19-2.21c-3.09-.44-7.62-.82-7.62-.82a23.76,23.76,0,0,0,.37,3.75,38.55,38.55,0,0,0,1.2,5.42c.64,2.28.95,3.91,2.16,5.77a11.07,11.07,0,0,0,4.24,4.11c2.09,1.16,4.13,1.2,6.65,1.32s11-1.46,11-1.46-3.63-.33-5.23-.63c-1.78-.32-3.41-.6-4.5-.92a20.19,20.19,0,0,1-3.76-1.74,10,10,0,0,1-3.7.37,11.05,11.05,0,0,1-3.3-1.25s1.31.14,3.09.46A4.23,4.23,0,0,0,21.63,21a31.79,31.79,0,0,1-3.23-2.27,20.86,20.86,0,0,1-2.66-3.21c-.76-1.19-2.59-5.15-2.59-5.15s1.95,2.31,2.79,3.49A19.7,19.7,0,0,0,17.54,16c1.15,1.33,2.06,2.22,2.06,2.22s.51-.18,1.18-1.41a15,15,0,0,0,.71-3s.45,2.67.09,3.51a3.57,3.57,0,0,1-1.29,1.54s2.06,1.38,3,2a9.62,9.62,0,0,0,2.09,1,5.3,5.3,0,0,0,.8-1.73c.18-.81.84-3.39.84-3.39a17.49,17.49,0,0,1,.34,3.36,4.82,4.82,0,0,1-.81,2.1s.82.17,1.91.48a24.08,24.08,0,0,0,3.23.74C33.05,23.62,36.31,24.09,36.31,24.09Z"/>
</svg>
