<svg id="ad9daf1c-ffe9-4251-b7ba-e9ca87502a1a" data-name="Layer 1" xmlns="http://www.w3.org/2000/svg" xmlns:xlink="http://www.w3.org/1999/xlink" width="900.05" height="767.69" viewBox="0 0 900.05 767.69">
  <defs>
    <style>
      .abf4ff65-e07e-4790-ba99-8978521a26e4 {
        fill: none;
      }

      .bf30db49-7907-430d-be09-695686eba6a4 {
        clip-path: url(#a6be4081-12b9-4c55-b5cb-d6455a1b6537);
      }

      .abbb618b-46ad-4f10-9c35-c7cd5299a154 {
        fill: #31783b;
      }

      .f201dfda-fa27-43b5-91fb-12cc554ba4f9 {
        fill: #674a1d;
      }

      .a3418bbf-37d4-4ddf-b261-301cb2687281 {
        fill: #88632a;
      }
    </style>
    <clipPath id="a6be4081-12b9-4c55-b5cb-d6455a1b6537">
      <rect class="abf4ff65-e07e-4790-ba99-8978521a26e4" x="8.03" y="6.85" width="884" height="754"/>
    </clipPath>
  </defs>
  <g class="bf30db49-7907-430d-be09-695686eba6a4">
    <g>
      <path class="abbb618b-46ad-4f10-9c35-c7cd5299a154" d="M793.11,235.75s20-31.52-16.48-33.14c0,0,21-35.19-15.85-44.15,0,0,21.94-24.06,4.83-41.69,0,0,20.33-36.54-6.66-52.35,0,0,28.65-28.25-2.23-57.88,2-2,4-4,6-6-.56-.34-1.12-.69-1.72-1,1.92-1.57,2.53-4.14-.55-8.38h0c.28-.18,46.62-29.5,10.41-55.76l.53-.67a9.48,9.48,0,0,0-1.12.24,87.87,87.87,0,0,0-14.63-8.13,15.47,15.47,0,0,1,3.12-1.7,17.82,17.82,0,0,1-4.25,1.19q-3.11-1.35-6.61-2.69a9.62,9.62,0,0,1-1.08-3.9c0-.33,0-.63,0-.93a35.6,35.6,0,0,0-5.34,3.87A12.06,12.06,0,0,0,742.53-83c-4,2.71-7.66,7-12.06,9.83-6.1,3.89-8.23-.89-5.12-6.14,1.14-1.91,2.34-3.81,3.57-5.71l-.23,0c-2.44.14-6.25,2.89-10.18,7.09.57-3.78-.42-5.92-3.06-5.42s-6.36,3.59-10,7.94a5.71,5.71,0,0,0-1-3.76,68.48,68.48,0,0,1-6,10c-4.14,5.81-11.57,7.62-12.17,3.91-.42-2.63,0-6,.39-9.27a3.57,3.57,0,0,0-.4.12c-2.94,1.21-6.29,4.74-9.12,9.25a5.72,5.72,0,0,0-.81-1.4c-3.41,2.68-7.4,3.59-8.67,2a2.25,2.25,0,0,1-.12-.21,29.23,29.23,0,0,0-5.13,7.2,4.55,4.55,0,0,0-4.83-1.91,124.82,124.82,0,0,1-11,12.57c-5.2,5.09-10.84,5.3-10.47.51a44,44,0,0,1,2.38-9.7c-1.6.77-3.22,1.49-4.94,2.13-6.78,2.52-5.67-5.14-.32-10.75,1.49-1.57,3-3,4.6-4.47-.38-1.18-.23-2.9.74-5.4.11-.28.25-.56.38-.84-3.92,2.83-7.85,5.53-11.86,7.89-4.84,2.84-8,.44-6.22-4,2.46-6,6.58-11,11.48-15.67-.8-1-.88-2.57-.1-4.36a37.17,37.17,0,0,1,7.61-10.68c-1.14-.63-3.68.13-6.92,1.89,2.6-3.59,3.8-6.44,2.76-7.46s-4,0-7.88,2.42c2.06-3.23,2.93-5.73,2.09-6.72a22.41,22.41,0,0,1-2.92,2.5,74.78,74.78,0,0,1-22,15.41c-8.52,4-8.88-4.46.18-11a54.53,54.53,0,0,0,5.64-4.69c-3.5,1.76-6.36,1.28-6.63-1a10.13,10.13,0,0,1-3.84-.87c-2.47,1.55-4.6,2-6,1.46a23.22,23.22,0,0,1-5.2,3.51c-1,1.61-1.91,3.07-2.69,4.25-6.22,9.42-17.87,10-12.23.76q1-1.65,2-3.24c-3.12,1-5.51.35-4.78-2.55-.71-1.16-2-1.52-3.79-.82a14.24,14.24,0,0,0-4.54,3.3l-.1.12a27.3,27.3,0,0,0-18.14-6.6,28.1,28.1,0,0,0-14.59,4,14.82,14.82,0,0,0-10.3-4.4c-9.37,0-17,9.55-17,21.33,0,.18,0,.35,0,.53a17.23,17.23,0,0,0-9-2.54,17.27,17.27,0,0,0-10.29,3.41,42.28,42.28,0,0,0-37.57-22.12,43.35,43.35,0,0,0-18.51,4.1,28.74,28.74,0,0,0-8.95-1.39,27.61,27.61,0,0,0-13.34,3.28A24.82,24.82,0,0,0,385.57-116c-14.26,0-25.82,12.92-25.82,28.86,0,.75,0,1.5.08,2.24a28.08,28.08,0,0,0-3.58-.23c-9.53,0-17.82,4.79-22.06,11.83-.75-.3-1.51-.59-2.29-.85-15.11-5.06-31,0-38.84,11.34a23.75,23.75,0,0,0-22.52,10.53A16.33,16.33,0,0,0,260-56.17a16.2,16.2,0,0,0-15.43,11,22.13,22.13,0,0,0-14.41-5.48c-13.44,0-24.34,12.65-24.34,28.25a31.71,31.71,0,0,0,3,13.52,18.72,18.72,0,0,0-5.41-.8c-6.7,0-12.45,3.46-14.93,8.39a14.29,14.29,0,0,0-2.8-.28c-6.93,0-12.55,4.78-12.55,10.67a9.08,9.08,0,0,0,.16,1.57c-13.89,3-23.5,9.39-23.5,16.84a9,9,0,0,0,.64,3.26c-21.38,2.69-37.76,18-37.76,36.57A31.67,31.67,0,0,0,116.21,82c-9.28,2.17-17,10.16-20.82,21-2.22-4.38-5.94-7.26-10.16-7.26-6.8,0-12.31,7.45-12.31,16.64,0,5.93,2.3,11.12,5.76,14.07A46,46,0,0,0,55,163.32a36.13,36.13,0,0,0-3.41,15.52,35.39,35.39,0,0,0,4.9,18.28c-24.22,1.41-43.16,13.76-43.16,28.79,0,7.38,4.56,14.1,12.06,19.21-7,8.15-11.08,17.81-11.08,28.19,0,29,31.64,52.45,70.67,52.45a94.23,94.23,0,0,0,19.5-2c-3.75,5.83-10,20.25,18.47,21.81,0,0-2.12,15.07,11.54,17.75.91,2.29,3.08,3.12,7.24.69a4.93,4.93,0,0,1,1.5-.57h0s-.51,6,5.1,4.33c0,0-8.83,15.2,1,19.91a3.38,3.38,0,0,0,.9.38,18.58,18.58,0,0,0,6.37,1s-7.91,14.84,12.85,11.61c0,0-.19,3.47,3.73,2.3,0,0-.93,11.79,12.06,6,0,0,4.67,5,8.38,2.62,0,0,37.51,12.4,32-6.09h0a35.94,35.94,0,0,0-4.85-9.43s11.37.28,12.58-9.1c0,0,7.44-1.11,8-6.19,0,0,31.38,6.58,19.47-18.22,0,0,4-2.57,5.11-6.28,5.64,7.75,16.13,15.84,32.54,5.38,0,0,3.21,3,6.27-2.84,0,0,19.17,4.47,18.89-14.6,0,0,6.52-.06,4.45-6,0,0,5.36,1.68,5.67-2.45,0,0,31.16,25.53,51.48,1.3,0,0,4.42,17.22,23.48,15.79,0,0,10.09,11.59,22.31,3.8,0,0,12.18,8,18.17-4.87,0,0,8.2,9.95,19,5.93,0,0-12.5,20.36,35.4,26.88,0,0,10.08,14.76,20.24,1,0,0-3.32,16.9,21.37,19.34,0,0-7.34,15.94,10.88,21,0,0-3.53,11.93,14.32,17.51,0,0-6.32,23.35,21.38,19.34,0,0,11.23,5.56,13.52-5.3,0,0,17.69,18.22,41.55,1.4,0,0,22.23,1.24,16.09-21.57,0,0,12.25-.17,9.9-11.46,0,0,6.44,14.53,18.71,3.14,0,0,13.68,15.42,23.55-.49,0,0,11.27,7.08,17-4.52,0,0,65.39,1.19,52.68-64.75,0,0,36.13-23.49,10.23-49.4,0,0,12.06-14.49,1.57-20.71C796.59,289.08,848.46,253.32,793.11,235.75ZM512.85-71.56,511.5-71c.08-.44.14-.88.19-1.33C512.07-72,512.46-71.79,512.85-71.56Zm-26.76,13.1a17.28,17.28,0,0,0,7.89,2,32.43,32.43,0,0,1-11.26,5.11A38.91,38.91,0,0,0,486.09-58.46Zm-230.56,62c.37.23.74.44,1.13.64A15.15,15.15,0,0,1,255,5.31,13.51,13.51,0,0,0,255.53,3.55Zm22.06-21.08a20.32,20.32,0,0,0-1.27-3.69c.57.41,1.15.8,1.76,1.17.43.26.88.5,1.33.74C278.82-18.71,278.21-18.12,277.59-17.53Z"/>
      <g>
        <path class="f201dfda-fa27-43b5-91fb-12cc554ba4f9" d="M223.68,698.57s9.3,34.68,58.22,36.49,64.78.21,64.78.21-74.33,28.18-145.91,2.31c-30.84-1.47-39,8.55-78.33,18.44s-114.19,1.5-114.19,1.5,107.41-3.19,126.46-27.63S223.68,698.57,223.68,698.57Z"/>
        <g>
          <path class="f201dfda-fa27-43b5-91fb-12cc554ba4f9" d="M671.17-26.08c-14.45-.6-17.82.44-15.74-1.64,2.81-2.82,14.33-8,22.52-14.78,8.56-7.13,16-13.6,19.58-17.09,5-4.84,3.4-11.4,16.31-15.38,14-4.34,41.67-5.65,41.67-5.65a115.61,115.61,0,0,0-26.38-1c-11.66,1.09-22.33-1.8-27.89,8.75-1,2-15.58,17.71-29,27.66-8.57,6.33-18.83,10.14-21.58,9.92-5.45-.43-4-13.41-5.23-27.36-1.06-11.51-20.11-25.47-20.11-25.47s11.41,11.54,13,24c1.8,13.9,3.22,25.26,1.38,31.61C634.88-15.85,615.78-6.66,612.54-4c-7.49,6.25-21.41,10-29.28,16.61-15.2,12.75-24.66,28.66-39.55,41.13-1.18,1-10.63,10.14-15.13,6.86-7-5.14-9.33-24.7-5.5-30.66C530,19.19,536.41-6.77,536.41-6.77s-16.6,28.48-20,37.36c-3.81,9.85,2,20.64,4.14,31.57,2.86,14.36-7.92,19.45-8.06,26.45-.3,15.46-24.23,20-29.13,21.79-6.72,2.39-35.84,12.2-39.79,13.17s-9.56-.32-9.56-.32-19.46,12.64-25.84,14.91c-3.29,1.17-20.16,10.18-18.9-6.63.44-5.85-2.16-18.11,3.38-34.57,4.5-13.38,26.55-47.57,37.83-55.31,4.81-3.29,20.36-17.2,32.08-16.38,8.49.6,30.7-1.94,30.7-1.94s-22.23-1.64-30.63-4c-6.75-1.88-25.21,10-24.65,5.35,1.48-12.24,21.85-33.82,34.4-43.92,17.29-13.9,40.79-13.9,56.25-18.54,11.82-3.55,36.85-21.84,36.85-21.84s-13.42,7.89-39,15.32c-18.22,5.28-46,12.68-42.24,4.15,10.51-23.52,17.25-25.2,23.54-33s16.39-34.58,22.69-42.54c13.31-16.84,33.49-29,33.49-29s-20.06,10.7-28.64,17c-9.9,7.21-23.06,35.8-33.17,50.31-9.46,13.55-13.48,13.64-22.23,25.34-2.68,3.59-4.53,3.59-4.53,3.59s.8,9.22-4.52,17C460.21-15.84,434.7,12.17,431,22.42c-3.61,10-6.5-3.12-11.34-2C416.84,21.08,411,8.85,406-.6c-6-11.39,2.25-29.26,2.25-29.26s-7.4,7.13-8.77,22.38c-1.32,14.69,20.56,35.89,21.13,38.93,1.16,6.13-7.22,8.66-7.7,11.39C410.59,56.25,388.16,86,384.31,98.05c-7.81,24.39-4.42,36.07-11.44,48.89-11.66,21.28-23.49,22.51-27.19,24.73a259.38,259.38,0,0,1-23.13,12.64c-39.91,18.54-67.94,56.74-71.68,63.56-12.28,22.42-25,60.07-29.09,60.34-3,.2-13.15-13.83-18-38.3-2.5-12.66.06-32.19-1.91-45.38-.54-3.6,19.64-41.73,49.85-65.15,22-17,48.37-29.58,66.22-38.78,12.2-6.29,20.49-22.89,20.49-22.89s-10.67,12.93-22.89,18.05c-13.34,5.59-36.59,14.88-43.63,19.15-4.5,2.74-7-2-2-15.5,3.62-9.64,13.27-35.09,16.7-41.2,7.14-12.73,38-38.3,38-38.3s-43.88,28.78-45.52,37.85C277,89.67,262.61,106,258.82,116.25,252,134.7,252,148,248.43,150.69c-28.87,22.08-45,58.82-49,56.15C188,199,186.39,171.91,182.69,158.26c-2.36-8.72-.45-33.22,1.13-40C186.4,107.08,202.56,90,202.56,90s-20.69,16.35-23.46,29.18c-2.11,9.8-7.88,26.7-3.09,38.62s3.19,33.32,8.51,46.42c8.29,20.38,1,41.65,1.15,50.08.18,9.17,3.1,29.09-5.49,39.65,7,30.83,11.45,23.94,12.29,67.44.29,15.35-8,35.55-16.89,54.67a41.63,41.63,0,0,1-2.19,10.62A532.39,532.39,0,0,0,157,485.48c9.62-1.16,19.34-3.62,28.05-5.26a38.82,38.82,0,0,1,18.7,1.56c4.24-30.69,8.75-44.32,22.41-79.8,7.29-18.93,24.09-40.62,46.89-60.6,16-14,45-27.28,45-27.28s26-9.69,54.28-13.14c9.17-1.12,23.29-6.54,34-8.14C419.2,290.87,432,296,451,298.26c17.87,2.16,36.06,7.12,55.67,4.26,5.72-.83,17.77-6.51,26.5-12.84,9.66-7,30.57-2.51,39.15-9,4.38-3.34,16.33,7.12,27.81,17.68A41.47,41.47,0,0,0,624.23,309c9.62,1,20.88-1,20.88-1s-27.39-1.73-38-15.3c-7.45-9.5-11.42-20.38-8.57-22.5,9.48-7.06,26.22-12.46,38.2-15.67,18.3-4.89,42.21-6.14,42.21-6.14s-14.36-5.09-27.93-3.16c-11.73,1.67-25,7.11-33.2,9.05-11.73,2.76-17.59.85-17.59.85S565.05,274.31,552,276.47c-9.83,1.63,1.49-12.52,6.48-22.72,5.23-10.68,24-26.14,24-26.14a81.53,81.53,0,0,0-21.71,14.31c-9.34,8.76-17,22-24.65,28.79-14,12.43-33.92,21-41.9,22.1-23.43,3.22-25.66-10.25-41.37-9.21-27.68,1.83-30.29-5.21-28.36-6.22,11.38-5.91,34-18.41,34-18.41s10.15-32,50-54.57a208.32,208.32,0,0,1,34.21-15.72c5.42-1.88,19-8.25,31.72-9.09,14.57-1,32.08,29.41,32.08,29.41s.72-11.75-4.74-19.31c-6.18-8.56-14-15.42-10.09-16.44,20-5.3,25.08-14.65,40.38-15.16,8.25-.28,23.18-18.12,28.65-25a53.87,53.87,0,0,1-18.39,13.74c-11.66,5.36-27.36,11.19-37.8,13.74C582,166.08,578,162.74,578,162.74s-42.78,20.87-63.11,27.18c-4,1.25,6.16-13.27,7.58-22.29,1.23-7.82,14.61-25,14.61-25s-18.14,11.09-21.22,26.6c-.75,3.78-6.9,13.08-13.2,18.81-13.78,12.55-19.9,20.6-24.14,24.4-18.65,16.71-33.62,36.17-44.25,41.77-19.08,10.05-57.58,33.54-84.39,37-15.31,2-17.3-4-17.3-4s-68.45,37-75.76,36.2c-8.19-.93-7.92-11.17-10.8-23-3.36-13.82,21.78-48.16,21.78-48.16s16.58-4.08,35.6-9.78c3.43-1,8.58-2,21.79,4.48,5.66,2.79,9.8,11.28,15,17.52,5.44,6.58,30,6.52,30,6.52s-20.64-4.77-27.16-12.41c-5.4-6.35-22.28-20.62-9-23.94,6.18-1.54,18,.59,34-3.22,8.83-2.1,21.13-9.85,29.37-12,16-4.11,34.18,3,34.18,3s-13.59-11.85-28.67-8c-8.2,2.08-34.5,13.54-37.29,11.2-2.05-1.71,14.34-10.58,22-22.38,6.49-10,35.2-18,35.2-18s-22.59-2.17-27.35,3.28c-8,9.15-24.63,27.3-34,29.08-6.36,1.21-28.37,8.63-39.89,11-17.66,3.56-25,1.92-25.15.47-.56-4.12-14.16-5.08,35-34.94,17.11-10.39,58-31.75,81.67-45.76,9.37-5.56,30.49-11.8,55.47-18.7,19.09-5.29,31.19-16.09,46.66-19.19,20.29-4.06,24.67-12,37.43-7.16,7.19,2.69,25.56-3.58,43.08-3.63C608.82,99.54,623,106,623,106s-20-12.69-27.73-13.35c-6.71-.56-29.87,10.89-45.13,3.59-3.55-1.69-21.13,1.28-23.92-.3-3.44-2,8.91-21.06,37.35-46.21,9.19-8.13,14.18-21.27,26.63-30.28C601,11.62,627.11-1.8,634.83-9.41c3.62-3.57,6.78-11.31,33.61-10.34,6.25.23,24.87-3.34,36.87-4.08,11.41-.71,17-7.78,17-7.78s-17.4,4.15-29,3.7C683.3-28.31,678.52-25.78,671.17-26.08Z"/>
          <path class="f201dfda-fa27-43b5-91fb-12cc554ba4f9" d="M232,703.08c-72.07-141.72-26.54-254,11.14-319.25,9.51-19.56,55.52-58.65,79.89-77.63,8.66-6.75-70.83,31.59-72.25,24.73-5.23,3.94-10.76,8.11-16.81,12.69-116.19,88-101.86,399.08-101.86,399.08l104.13-5S246.38,727.15,232,703.08Z"/>
          <path class="f201dfda-fa27-43b5-91fb-12cc554ba4f9" d="M146.16,377.86q2.61-34.75,1.16-34.91t-6.53,31.84l-25-14.56c6.11,4.17,41.57,29.2,47.61,75.28,3.6,27.43-5,49.14-9.52,58.83,24.31-10.17,16.89-31.54,16.89-31.54S188.89,431.32,146.16,377.86Z"/>
          <path class="a3418bbf-37d4-4ddf-b261-301cb2687281" d="M215.3,381.3S104.9,581.68,193.62,690.68C175,634.36,129.78,584.77,215.3,381.3Z"/>
          <path class="a3418bbf-37d4-4ddf-b261-301cb2687281" d="M138.49,746s12.29.83,10.21-76.55-1.17-89.31-1.17-89.31,14.48,100,6.52,124S153.05,737.86,138.49,746Z"/>
          <path class="a3418bbf-37d4-4ddf-b261-301cb2687281" d="M269.2,744.27s-39.08,9.44-63.72-53.75-16.27-56.33-16.27-56.33S216.32,741.21,269.2,744.27Z"/>
        </g>
      </g>
    </g>
  </g>
</svg>
