<svg id="b5a4c0f1-acd6-4a3e-8a04-29aceef9e0c2" data-name="Layer 1" xmlns="http://www.w3.org/2000/svg" xmlns:xlink="http://www.w3.org/1999/xlink" width="900.05" height="767.69" viewBox="0 0 900.05 767.69">
  <defs>
    <style>
      .b047b547-62e6-4c14-912e-05849192ba67 {
        fill: none;
      }

      .abb4a676-d250-4e8e-a6af-17d33b1bccc6 {
        clip-path: url(#f43b3e17-409b-4ffe-8132-a6270cb7cbeb);
      }

      .a0e16eaf-f5ef-4ca0-9ae7-353bf3e0869f {
        fill: #31783b;
      }

      .e1f84c26-71dd-417d-81b8-b46d6396d410 {
        fill: #674a1d;
      }

      .bf5e243e-40c2-4bd9-b300-9812faa19c4d {
        fill: #88632a;
      }
    </style>
    <clipPath id="f43b3e17-409b-4ffe-8132-a6270cb7cbeb">
      <rect class="b047b547-62e6-4c14-912e-05849192ba67" x="8.03" y="6.85" width="884" height="754"/>
    </clipPath>
  </defs>
  <g class="abb4a676-d250-4e8e-a6af-17d33b1bccc6">
    <g>
      <path class="a0e16eaf-f5ef-4ca0-9ae7-353bf3e0869f" d="M826.65,118.71S850.29,81.4,813.3,70.39c0,0,4.78-18.33-8.21-19,0,0,33-55.36-28.35-45.52,0,0,4.39-37-31.34-21.72,0,0,3.62-40.69-35.92-31.73,0,0,9.77-31.3-14.91-39,0,0,2.37-41.59-30.94-43.19,0,0,14.25-38.08-29.28-50.1,1-2.71,2-5.37,2.9-8.08-.71,0-1.41-.09-2.13-.1,1.11-2.26.49-4.81-4.45-7.14h0c.19-.29,30.9-47.42-16.16-54l.2-.84a9.4,9.4,0,0,0-1,.73,99.91,99.91,0,0,0-17.85-.48,16.33,16.33,0,0,1,2.19-2.93,19.67,19.67,0,0,1-3.51,3c-2.41.15-5,.36-7.6.65a9.33,9.33,0,0,1-2.87-3c-.18-.28-.31-.54-.46-.81a36.61,36.61,0,0,0-3.31,5.86,11.14,11.14,0,0,0-1.6-5.48c-2.55,4.21-4.06,9.71-7,14.2-4,6.24-8.31,3-7.79-3.07q.3-3.31.74-6.68a1.36,1.36,0,0,0-.23.09c-2.27,1.23-4.63,5.41-6.44,10.92-1.23-3.59-3.17-5-5.47-3.38s-4.43,6.08-5.87,11.59A5.63,5.63,0,0,0,544-231.7a63.72,63.72,0,0,1-1,11.11c-5.24-6.31-14.54-9.66-24.33-7.94A28,28,0,0,0,505-222.09a14.83,14.83,0,0,0-10.92-2.55c-9.23,1.63-15.06,12.35-13,23.95,0,.17.07.34.1.52a17.17,17.17,0,0,0-9.27-.94,16,16,0,0,0-2.72.73c.54-1.82,1.17-3.65,1.9-5.47-1.21-.47-2.05-1.86-2.14-3.8a35.26,35.26,0,0,1,2.29-12.93c-1.38,0-3.47,1.8-5.75,4.85.81-4.37.62-7.44-.85-7.86s-3.87,1.88-6.42,5.75c.45-3.8.12-6.41-1.15-6.9a21.14,21.14,0,0,1-1.64,3.55,69.56,69.56,0,0,1-8.54,16.69,43.66,43.66,0,0,0-11.3-.82q.44-1,1-2A53.72,53.72,0,0,0,439.8-216c-2.53,3.15-5.5,4-6.85,2.12a11.73,11.73,0,0,1-4.09,1c-1.65,2.5-3.5,3.83-5.06,4a24,24,0,0,1-3,5,42.9,42.9,0,0,0-13.63,9.22c-1.9,1.1-3.58.91-4.09-1.33-1.22-.7-2.62-.44-4,1a14.31,14.31,0,0,0-2.81,5q-.92,4.06-1.81,8.14a13.23,13.23,0,0,0-10.57-4.46c-3.08-6.17-8.18-9.95-13.2-9.07-6.82,1.2-10.87,10.57-9.05,20.93a29.34,29.34,0,0,0,1.13,4.34,11.1,11.1,0,0,0-8.4-2,11,11,0,0,0-6.86,4.25,22.62,22.62,0,0,0-4.32.35c-14.05,2.47-23.2,17.19-20.44,32.89.13.74.3,1.47.48,2.19a29.28,29.28,0,0,0-3.57.39c-9.39,1.66-16.72,7.81-19.68,15.48-.79-.17-1.59-.32-2.41-.44-15.75-2.36-30.5,5.35-36.28,17.9a23.75,23.75,0,0,0-20.36,14.26,16.31,16.31,0,0,0-11-2,16.2,16.2,0,0,0-13.29,13.54,22.08,22.08,0,0,0-15.14-2.91c-13.24,2.33-21.78,16.68-19.08,32.05a31.75,31.75,0,0,0,5.26,12.8,18.69,18.69,0,0,0-5.47.15c-8.83,1.55-14.91,8.89-13.59,16.4a12.08,12.08,0,0,0,2,4.81c-.38,0-.76.07-1.14.13C162.2-8.56,157.52-.89,159,7.3a16.53,16.53,0,0,0,2.85,6.83c-6.63,2.91-10.57,11-9.05,19.67A22.87,22.87,0,0,0,153.3,36a13.92,13.92,0,0,0-8-.89c-6.82,1.2-11.52,6.87-10.5,12.67a8.63,8.63,0,0,0,.42,1.53C122.07,54.68,113.71,62.67,115,70a9,9,0,0,0,1.2,3.1c-20.59,6.35-34.07,24.31-30.86,42.56a31.48,31.48,0,0,0,4.51,11.5l-.18.07a12.76,12.76,0,0,0,.71,2.64c-8.22,4-14,12.93-15.85,23.79-2.94-3.94-7.11-6.13-11.26-5.4-6.7,1.18-10.83,9.47-9.24,18.52,1,5.84,4.19,10.56,8.1,12.86a46,46,0,0,0-16.9,40.49A37,37,0,0,0,51,251.2a7.71,7.71,0,0,1-1.1,2.65C27.7,259.93,12.53,274.76,15,289c1.28,7.26,6.94,13.1,15.21,16.83-5.49,9.23-7.83,19.46-6,29.68,5,28.53,40.25,46.18,78.7,39.42,22-3.86,40.21-14.86,50.9-28.9a1.46,1.46,0,0,0,0,.29,5,5,0,0,0,.52,1.69,6.82,6.82,0,0,1,6.79,1.59L138.7,381.13s-3.36,13.39,19.18,15c0,0-7.87,28.42,27.4,13.75,0,0,5,14.29,19.39,10.39,2,1.61,4.42,1.35,7.28-2.7a4.87,4.87,0,0,1,1.16-1.19h0s2.34,5.54,6.92,1.48c0,0-1.34,17.48,10.25,17.15a3.67,3.67,0,0,0,1.05-.08,21,21,0,0,0,6.57-2s-.63,16.73,17.78,4.37c0,0,1.44,3.15,4.65.32,0,0,4.64,10.84,14.37-.26,0,0,6.84,2.29,9.27-1.52,0,0,41.8-6.23,27.9-20.06h0a37,37,0,0,0-9.07-6.1s11-5,7.8-13.81c0,0,6.62-4.38,4.82-9.15,0,0,33.19-8.57,10.14-25,0,0,2.64-4.11,2-7.9,9,4.27,22.9,6.61,33.74-10.15,0,0,4.48,1.16,4.69-5.38,0,0,20.48-4.84,11.28-21.56,0,0,6.22-3,1.46-7.32,0,0,5.92-1,4.28-4.76,0,0,41.88,8.26,50-22.45,0,0,12.33,13.19,29.93,3.19,0,0,15.12,5.61,23.2-6.87,0,0,15.45,1.51,15.14-12.63,0,0,12.53,5,21-3.46,0,0-2.45,23.72,46.57,7.53,0,0,16.59,8.41,19.91-8.35,0,0,4.74,16.45,29.58,7.28,0,0,.43,17.45,20.26,13.53,0,0,2.22,12.16,22,8.91,0,0,4.89,23.51,29.58,7.28,0,0,13.38-.23,10.49-10.88,0,0,25.52,8,40.52-17.8,0,0,21.91-9.09,5.32-26.42,0,0,11.67-5.77,4.13-14.66,0,0,13,9.88,19.42-5.8,0,0,20.36,7.35,22.37-11.22,0,0,14.13,1.09,14.15-11.78C806.47,200,869.77,171.13,826.65,118.71Zm-478.08-229h.75c-.26.32-.52.62-.78.92C348.56-109.72,348.56-110,348.57-110.34ZM326.89-87.25c0-.07,0-.14,0-.22l.59-.09.16,0A4.4,4.4,0,0,1,326.89-87.25Zm166.93-84.28a29.42,29.42,0,0,1-1.76-6.49,18.65,18.65,0,0,0,.66-5.9,14.31,14.31,0,0,0,8.75,1.3,13.76,13.76,0,0,0,4.62-1.72c-.71,2.51-1.51,5-2.47,7.57C501-169.89,495.71-167.12,493.82-171.53Z"/>
      <g>
        <path class="e1f84c26-71dd-417d-81b8-b46d6396d410" d="M223.16,682.8s9.29,34.68,58.21,36.49,64.78.21,64.78.21-74.33,28.18-145.91,2.31c-30.84-1.47-39,8.55-78.33,18.44s-114.18,1.5-114.18,1.5,107.4-3.19,126.45-27.63S223.16,682.8,223.16,682.8Z"/>
        <g>
          <path class="e1f84c26-71dd-417d-81b8-b46d6396d410" d="M576.93-108c-14.35,1.84-17.49,3.43-15.8,1,2.3-3.25,12.78-10.27,19.71-18.36,7.23-8.47,13.44-16.09,16.42-20.14,4.13-5.62,1.43-11.82,13.48-17.92,13.11-6.64,40.13-12.59,40.13-12.59a115.67,115.67,0,0,0-26.17,3.49c-11.31,3-22.32,2-26,13.33-.69,2.13-12.36,20.08-24,32.16-7.37,7.68-16.85,13.17-19.6,13.41-5.45.5-6.15-12.55-9.77-26.09-3-11.16-24.11-21.71-24.11-21.71s13.19,9.45,16.9,21.51c4.12,13.4,7.43,24.36,6.69,30.92-2,17.16-19.23,29.43-22,32.64-6.33,7.42-19.42,13.47-26.06,21.31C484-39.93,477.32-22.66,464.75-7.85,463.75-6.68,456,3.94,451,1.46c-7.8-3.88-13.36-22.78-10.59-29.3,5-11.8,7-38.46,7-38.46S435.78-35.44,433.9-26.11c-2.09,10.36,5.4,20,9.4,30.43,5.24,13.67-4.53,20.5-3.49,27.43,2.31,15.29-20.5,23.84-25,26.38-6.22,3.49-33.27,18.07-37,19.69s-9.47,1.3-9.47,1.3-17.05,15.74-23,19c-3,1.71-18.15,13.43-19.74-3.35-.56-5.84-5.18-17.49-2.5-34.65,2.18-13.94,18.16-51.36,28-60.89,4.18-4,17.16-20.39,28.85-21.55,8.47-.85,29.94-7.09,29.94-7.09S387.67-27.23,379-28.11c-7-.72-23.17,14.09-23.4,9.43-.61-12.31,15.84-37,26.51-49.09,14.7-16.62,37.86-20.58,52.32-27.76,11.05-5.48,32.64-27.74,32.64-27.74s-11.9,10-35.88,21.68c-17.07,8.28-43.25,20.26-40.93,11.21,6.39-25,12.75-27.74,17.63-36.5s10.33-36.85,15.2-45.76c10.29-18.84,28.12-34.23,28.12-34.23s-18,13.93-25.37,21.55c-8.54,8.77-16.7,39.17-24.22,55.17-7,15-11,15.72-17.63,28.73-2.05,4-3.87,4.31-3.87,4.31s2.35,9-1.58,17.55c-7.83,17.15-28.25,49.06-30.16,59.79-1.87,10.49-6.93-2-11.52-.06-2.68,1.13-10.5-9.94-17-18.42-7.81-10.23-2.72-29.23-2.72-29.23s-6.1,8.29-4.87,23.54C313.47-29.23,338.61-12,339.69-9.12,341.86-3.28,334,.63,334,3.4,334,17,316.86,50.15,315.09,62.65c-3.59,25.36,1.72,36.3-3,50.12-7.9,22.94-19.36,26.14-22.64,29a259.07,259.07,0,0,1-20.66,16.36c-36.22,25-57.41,67.38-59.94,74.73-8.33,24.18-14.55,63.43-18.51,64.39-2.92.7-15.29-11.42-24.18-34.73-4.61-12.05-5.37-31.73-9.53-44.41-1.14-3.46,12.32-44.44,38.15-72.61,18.81-20.52,42.7-37.31,58.74-49.39,11-8.26,16.34-26,16.34-26S261.48,84.59,250.3,91.7c-12.21,7.75-33.56,20.83-39.78,26.22-4,3.46-7.26-.84-4.55-15,1.95-10.11,7.17-36.82,9.52-43.42,4.9-13.75,31.06-44.16,31.06-44.16s-38.41,35.76-38.49,45c-.12,12.1-11.6,30.58-13.6,41.38-3.59,19.32-1.4,32.42-4.44,35.69C165.29,164.07,155.56,203,151.24,201c-12.62-5.77-18.8-32.22-24.74-45.05-3.79-8.2-6-32.67-5.63-39.65.66-11.43,13.71-31,13.71-31s-17.64,19.59-18.2,32.71c-.43,10-3.27,27.65,3.46,38.59S128.6,189,136.05,201c11.6,18.69,8,40.89,9.58,49.17,1.72,9,8,28.15,1.27,40,12.06,29.23,15.31,21.68,23.47,64.41,2.88,15.08-1.85,36.38-7.43,56.73a41.63,41.63,0,0,1-.37,10.84,533.21,533.21,0,0,0-6.21,60.71c9.3-2.77,18.45-6.83,26.77-9.92a38.89,38.89,0,0,1,18.69-1.61c-1-31,1.15-45.16,8.64-82.43,4-19.89,16.9-44.1,36-67.64,13.39-16.51,39.71-34.47,39.71-34.47s24-13.93,51.28-22.1c8.85-2.65,21.87-10.36,32.11-13.74,12.41-4.11,25.93-1.22,45-2.17,18-.89,36.74.94,55.59-5.18,5.5-1.79,16.42-9.42,24-17.12,8.34-8.52,29.71-7.64,37.06-15.52,3.76-4,17.3,4.27,30.4,12.75a41.53,41.53,0,0,0,25.58,6.45c9.64-.65,20.41-4.5,20.41-4.5s-27.29,2.91-40.06-8.67c-8.94-8.11-14.69-18.17-12.24-20.74,8.15-8.56,23.74-16.7,35-21.88,17.21-7.9,40.57-13.17,40.57-13.17s-15-2.59-28.06,1.6c-11.29,3.62-23.43,11.22-31.2,14.52-11.1,4.7-17.19,3.8-17.19,3.8S523,205.93,510.48,210.25c-9.42,3.26-.64-12.6,2.56-23.48,3.35-11.41,19.25-29.82,19.25-29.82a81.48,81.48,0,0,0-19,17.77c-7.73,10.2-13,24.52-19.45,32.52-11.69,14.62-29.89,26.43-37.57,28.86-22.55,7.12-27-5.78-42.33-2.11-27,6.46-30.73,0-29-1.35,10.22-7.75,30.4-23.88,30.4-23.88s4.61-33.27,40.13-62.22a207.29,207.29,0,0,1,31.07-21.26c5-2.77,17.3-11.33,29.73-14.31,14.2-3.41,36.58,23.59,36.58,23.59s-1.27-11.71-7.93-18.24c-7.53-7.39-16.34-12.85-12.72-14.5,18.83-8.6,22.26-18.67,37.25-21.76,8.08-1.66,19.8-21.76,24-29.49a54.14,54.14,0,0,1-15.81,16.65c-10.6,7.24-25.08,15.64-34.95,19.91-21.37,9.27-25.82,6.64-25.82,6.64s-38.66,27.79-57.64,37.43c-3.77,1.91,3.84-14.12,3.72-23.25-.1-7.91,10.2-27.07,10.2-27.07s-16,14-16.44,29.8c-.1,3.86-4.59,14-9.84,20.77-11.47,14.68-16.14,23.65-19.68,28.12-15.57,19.61-27,41.32-36.58,48.63-17.11,13.12-51.1,42.76-76.95,50.65-14.76,4.51-17.74-1.07-17.74-1.07s-61.23,48-68.57,48.45c-8.24.47-9.69-9.67-14.52-20.86-5.64-13.06,13.34-51.14,13.34-51.14s15.66-6.82,33.45-15.64c3.2-1.59,8.11-3.45,22.23.75,6.05,1.79,11.57,9.46,17.71,14.74,6.47,5.57,30.7,1.36,30.7,1.36s-21.15-1.21-28.86-7.65c-6.4-5.35-25.44-16.57-12.88-22.08,5.83-2.57,17.81-2.45,33-8.92,8.35-3.55,19.16-13.26,26.94-16.74,15.07-6.74,34.18-2.84,34.18-2.84s-15.39-9.39-29.61-3.09c-7.73,3.42-31.72,19.16-34.88,17.32-2.3-1.34,12.36-12.85,17.89-25.77,4.71-11,31.67-23.63,31.67-23.63s-22.63,1.67-26.4,7.84c-6.34,10.37-19.68,31.06-28.63,34.4-6.06,2.26-26.5,13.28-37.47,17.51-16.8,6.49-24.28,6.1-24.71,4.71-1.24-4-14.82-2.63,28.64-40.35C294.28,153,331,125.07,352,107.28c8.3-7,28.07-16.76,51.52-27.78,17.93-8.43,28-21.12,42.76-26.78,19.32-7.42,22.31-15.94,35.69-13.37,7.54,1.45,24.59-7.84,41.85-10.83,12.86-2.24,28,1.73,28,1.73s-21.83-9.15-29.59-8.49c-6.71.57-27.6,15.76-43.88,11.14-3.78-1.07-20.62,4.82-23.62,3.73-3.73-1.34,5.23-22.26,29-51.84,7.69-9.56,10.39-23.35,21.14-34.34,9.33-9.51,32.79-27.15,39.12-35.95,3-4.12,4.78-12.29,31.39-15.85,6.19-.83,23.94-7.48,35.64-10.24,11.13-2.62,15.48-10.53,15.48-10.53s-16.45,7-27.93,8.52C588.5-112.29,584.22-109,576.93-108Z"/>
          <path class="e1f84c26-71dd-417d-81b8-b46d6396d410" d="M231.44,687.31c-72.07-141.72-26.54-254,11.14-319.25,9.51-19.56,55.52-58.65,79.89-77.63,8.67-6.75-70.83,31.59-72.25,24.73-5.23,3.94-10.76,8.11-16.81,12.69-116.19,88-101.86,399.08-101.86,399.08l104.13-5S245.86,711.38,231.44,687.31Z"/>
          <path class="e1f84c26-71dd-417d-81b8-b46d6396d410" d="M145.64,362.09q2.6-34.75,1.16-34.91T140.27,359l-25-14.56c6.11,4.17,41.57,29.2,47.62,75.28,3.59,27.43-5,49.14-9.52,58.83C177.66,468.4,170.24,447,170.24,447S188.36,415.55,145.64,362.09Z"/>
          <path class="bf5e243e-40c2-4bd9-b300-9812faa19c4d" d="M214.78,365.53s-110.4,200.38-21.69,309.38C174.44,618.59,129.25,569,214.78,365.53Z"/>
          <path class="bf5e243e-40c2-4bd9-b300-9812faa19c4d" d="M138,730.22s12.28.83,10.2-76.55S147,564.36,147,564.36s14.48,100,6.52,124S152.52,722.09,138,730.22Z"/>
          <path class="bf5e243e-40c2-4bd9-b300-9812faa19c4d" d="M268.68,728.5S229.6,737.94,205,674.75s-16.27-56.33-16.27-56.33S215.8,725.44,268.68,728.5Z"/>
        </g>
      </g>
    </g>
  </g>
</svg>
