<svg id="e2885294-8629-4326-a70f-113a3d934ca7" data-name="Layer 1" xmlns="http://www.w3.org/2000/svg" width="652.01" height="756.02" viewBox="0 0 652.01 756.02">
  <defs>
    <style>
      .aee57bc9-78fd-4605-a6a9-0951e5eeff9e {
        fill: #1b5f25;
      }

      .a50b24f4-bd3a-4d0d-9dca-e979322201af {
        fill: #674a1d;
      }

      .b70e5f9e-6db5-460a-822b-fa650cc27efa {
        fill: #88632a;
      }
    </style>
  </defs>
  <g>
    <path class="aee57bc9-78fd-4605-a6a9-0951e5eeff9e" d="M618.7,312s19.66-25.29-4.94-37.08c0,0,4.93-13.1-4-14.88,0,0,27.73-37.73-15.56-36.49,0,0,6.31-26.95-19.75-19.16,0,0,6.11-29.77-22-27,0,0,9.54-22.21-6.84-30.37,0,0,5.33-30.55-17.56-35,0,0,13.23-26.78-15.8-40,.93-1.9,1.86-3.78,2.72-5.69-.49-.1-1-.21-1.46-.28,1-1.57.76-3.52-2.45-5.73h0c.15-.2,25.57-32.06-6.38-41.58.07-.22.15-.42.21-.6a6,6,0,0,0-.73.45h0a18.4,18.4,0,0,0-26.1-5,10.2,10.2,0,0,0-7.55-3.77c-5.23,0-9.69,4.75-11.52,11.46a26.3,26.3,0,0,0-3,5.88,4.21,4.21,0,0,0-1.63-2.39c-.07.61-.15,1.23-.25,1.86a11.13,11.13,0,0,0-2.59-.31,10.36,10.36,0,0,0-1.12.07C447.39,11,435.09-.56,420.36-.56c-13.4,0-24.79,9.54-29,22.86-.26-.16-.53-.32-.8-.46a9.32,9.32,0,0,0-6.32-4.11c-1.44-5.65-4.64-9.59-8.36-9.59-2.36,0-4.5,1.59-6.12,4.17a7,7,0,0,0-3.59-1,7.49,7.49,0,0,0-5.48,2.56,14.5,14.5,0,0,0-3.16-.35c-10.44,0-18.9,11-18.9,24.63,0,.65,0,1.3.07,1.94a17.47,17.47,0,0,0-2.62-.22c-9.31,0-17,7.28-18.17,16.7-12.49-3.22-25.19,2.78-29,14.06a21.46,21.46,0,0,0,1.24,16.46,17.08,17.08,0,0,0-8.39,15.21,11.9,11.9,0,0,0-13.29-2.79c-.22-.58-.44-1.16-.65-1.73-.37.69-.73,1.39-1.15,2.1-.2.35-.42.7-.66,1s-.51.4-.76.62a23.94,23.94,0,0,0,.3-3.72c0-11.53-8-20.89-17.81-20.89s-17.82,9.36-17.82,20.89a24.14,24.14,0,0,0,.8,6.19,20.28,20.28,0,0,0-4.46,1.26,16.44,16.44,0,0,1,.79-1.8,3.7,3.7,0,0,0-.66.29,9.11,9.11,0,0,0-2.72,2.8,17.54,17.54,0,0,0-3.93,3.19,2.35,2.35,0,0,0-3,.16,6,6,0,0,0-.71.59,11.55,11.55,0,0,0-1.78-.15,11.83,11.83,0,0,0-11.88,11.78,12,12,0,0,0,.42,3.07c-.07.27-.15.53-.22.8a3.35,3.35,0,0,0-2.75-1.07,3.75,3.75,0,0,1,.65,1.73c-4.46,1.18-7.82,6.37-7.82,12.61,0,.31,0,.61,0,.92a8.53,8.53,0,0,0-3.81-.92h-.08s-.05-.1-.08-.14l-.1.16c-6.14.18-11.08,7-11.08,15.51a20.67,20.67,0,0,0,.74,5.48,10.9,10.9,0,0,1-1.75,2.58,9.13,9.13,0,0,0-8.71,9.08,10,10,0,0,0,.11,1.34c-10.16,2.54-17.19,8-17.19,14.37a9.72,9.72,0,0,0,2,5.73,18.47,18.47,0,0,0-3.6-.36c-9.07,0-16.42,6.36-16.42,14.19a12.61,12.61,0,0,0,2.19,7.05,12.15,12.15,0,0,0-8.93,8.57,16,16,0,0,0-6.57-1.41,15.47,15.47,0,0,0-15.7,15.23,15,15,0,0,0,1.27,6c-4.7,1.28-8.27,7.49-8.27,15,0,.44,0,.87,0,1.3-7.61,1.47-13.43,9.26-13.43,18.67a22.39,22.39,0,0,0,.53,4.76,9,9,0,0,0-7.9,6.2A13,13,0,0,0,68.37,286c-9.65,0-17.48,11.53-17.48,25.75,0,12.59,6.14,23.06,14.24,25.3-8.63,4.5-14.24,11.73-14.24,19.89,0,6.29,3.34,12,8.83,16.4a40.3,40.3,0,0,0-8.11,24.06c0,24.73,23.15,44.78,51.71,44.78A58.94,58.94,0,0,0,119.44,440c-.28,2.83.57,8.92,12.23,11.52,0,0-8,20.27,17.72,12.88,0,0,2.21,11.07,12.49,9.6,1.2,1.39,2.94,1.44,5.27-1.29a3.84,3.84,0,0,1,.91-.76h0s1.13,4.34,4.66,1.78c0,0-2.48,12.81,5.56,13.7a2.27,2.27,0,0,0,.73.05,13.74,13.74,0,0,0,4.73-.87s-1.93,12.33,11.9,5c0,0,.72,2.48,3.19.69,0,0,2.24,8.48,10,1.23,0,0,4.52,2.37,6.54-.21,0,0,29.46-.5,21.07-12.11h0a26.7,26.7,0,0,0-5.73-5.41s8.07-2.59,6.62-9.46c0,0,5-2.59,4.14-6.3,0,0,23.71-3.07,9.23-17.51,0,0,2.19-2.79,2.06-5.65,5.87,4,15.25,7.14,24.23-4.2,0,0,3,1.3,3.72-3.52,0,0,14.59-1.56,9.71-14.84,0,0,4.57-1.65,1.66-5.29,0,0,4.18-.14,3.38-3.1,0,0,28.22,10.25,36.57-11.69,0,0,7.35,11,20.41,5.31,0,0,10,5.64,16.65-2.8,0,0,10.55,2.64,11.59-7.86,0,0,8.22,5,14.82-.49,0,0-3.8,17.31,31.53,10.16,0,0,10.73,7.86,14.51-4.22,0,0,1.82,12.64,19.8,8.3,0,0-1.25,13,12.81,12,0,0,.46,9.22,14.39,8.76,0,0,1.29,17.89,19.8,8.3,0,0,9.28,1.15,8.22-7,0,0,16.94,8.43,29.6-9.18,0,0,16-4.58,6-19,0,0,8.59-3.12,4.16-10.45,0,0,8.11,8.6,13.94-2.38,0,0,13.43,7.45,16.46-6.1,0,0,9.68,2.2,10.84-7.32C597.54,370.2,643.87,355,618.7,312ZM285.42,112.33l-.74.59a10.85,10.85,0,0,0,.21-1.27C285.06,111.88,285.25,112.1,285.42,112.33Z"/>
    <g>
      <path class="a50b24f4-bd3a-4d0d-9dca-e979322201af" d="M190.89,684.44s6.94,25.9,43.47,27.25,48.38.16,48.38.16-55.51,21-109,1.72c-23-1.09-29.11,6.39-58.5,13.78S30,728.47,30,728.47s80.22-2.39,94.44-20.64S190.89,684.44,190.89,684.44Z"/>
      <g>
        <path class="a50b24f4-bd3a-4d0d-9dca-e979322201af" d="M442.93,108.27c-10.68,1.59-13,2.82-11.78,1,1.67-2.46,9.39-7.86,14.44-14,5.28-6.43,9.8-12.22,12-15.29,3-4.25.9-8.84,9.8-13.57,9.69-5.16,29.77-10,29.77-10a86.08,86.08,0,0,0-19.48,3c-8.4,2.44-16.63,1.82-19.23,10.35-.48,1.59-8.93,15.18-17.41,24.37-5.39,5.84-12.39,10.08-14.44,10.31-4.05.45-4.78-9.29-7.68-19.34-2.39-8.29-18.33-15.85-18.33-15.85s10,6.86,12.94,15.81c3.28,9.94,5.92,18.07,5.46,23-1.2,12.84-13.92,22.26-15.91,24.7-4.62,5.63-14.3,10.34-19.15,16.3-9.35,11.49-14.05,24.49-23.22,35.73-.73.89-6.38,8.93-10.13,7.16-5.89-2.78-10.32-16.81-8.35-21.72,3.56-8.88,4.61-28.83,4.61-28.83s-8.17,23.22-9.44,30.22c-1.4,7.76,4.34,14.87,7.48,22.58,4.12,10.13-3.08,15.37-2.2,20.53,2,11.39-14.95,18.11-18.3,20.08-4.59,2.7-24.57,14-27.33,15.25s-7.06,1.11-7.06,1.11-12.49,12-16.86,14.57c-2.25,1.33-13.35,10.3-14.79-2.2-.51-4.35-4.13-13-2.39-25.84,1.42-10.44,12.79-38.62,20-45.88,3.06-3.09,12.51-15.48,21.22-16.53,6.32-.76,22.25-5.74,22.25-5.74s-16.54,1.93-23,1.39c-5.22-.43-17.09,10.88-17.34,7.4-.63-9.19,11.28-27.89,19.06-37,10.73-12.63,28-15.94,38.66-21.52,8.16-4.26,24-21.2,24-21.2s-8.74,7.68-26.47,16.73c-12.62,6.44-32,15.77-30.4,9,4.4-18.72,9.11-20.91,12.62-27.52s7.16-27.67,10.66-34.4c7.4-14.22,20.49-26,20.49-26S334.37,47,329,52.83c-6.25,6.68-11.88,29.51-17.26,41.57-5,11.27-8,11.9-12.74,21.71-1.46,3-2.82,3.27-2.82,3.27a21.65,21.65,0,0,1-.92,13.14c-5.59,12.92-20.36,37-21.62,45.09-1.24,7.86-5.21-1.38-8.61.13-2,.88-8-7.27-13-13.5-6-7.52-2.46-21.78-2.46-21.78s-4.43,6.27-3.29,17.65c1.1,11,20.13,23.43,21,25.58,1.71,4.33-4.08,7.37-4,9.44.15,10.16-12.11,35.17-13.24,44.53-2.3,19,1.82,27.07-1.53,37.47-5.55,17.24-14.06,19.81-16.46,21.95a194.61,194.61,0,0,1-15.19,12.53c-26.67,19.21-41.86,51.17-43.64,56.7-5.85,18.17-9.91,47.58-12.85,48.35-2.17.57-11.59-8.3-18.58-25.57-3.62-8.93-4.48-23.61-7.78-33-.9-2.56,8.53-33.36,27.4-54.79,13.74-15.6,31.32-28.5,43.12-37.76,8.06-6.32,11.81-19.67,11.81-19.67s-6,11-14.25,16.46c-9,6-24.75,16.06-29.31,20.18-2.92,2.64-5.44-.52-3.62-11.09,1.3-7.58,4.8-27.61,6.46-32.57,3.45-10.34,22.53-33.44,22.53-33.44S169.94,232.67,170,239.55c.09,9-8.2,23-9.53,31.1-2.39,14.48-.56,24.23-2.78,26.72-18.07,20.26-24.76,49.47-28,48.06-9.51-4.11-14.52-23.77-19.15-33.26-3-6.07-5-24.31-4.8-29.53.33-8.54,9.78-23.33,9.78-23.33s-12.88,14.9-13.1,24.7c-.17,7.49-2,20.7,3.16,28.77s7,24,12.77,32.84c8.94,13.79,6.58,30.42,7.89,36.58,1.42,6.7,6.36,20.9,1.54,29.85,9.45,21.64,11.76,15.95,18.5,47.74,2.37,11.22-.84,27.2-4.71,42.48a30.69,30.69,0,0,1-.11,8.1,398.2,398.2,0,0,0-3.72,45.42c6.89-2.21,13.67-5.38,19.83-7.81a29,29,0,0,1,13.94-1.48c-1.2-23.11.18-33.74,5.21-61.68,2.69-14.92,12-33.19,25.88-51.05,9.75-12.52,29.13-26.33,29.13-26.33a201.79,201.79,0,0,1,38-17.27c6.57-2.11,16.17-8.07,23.76-10.74,9.21-3.25,19.35-1.31,33.55-2.3,13.41-.93,27.45.16,41.43-4.7,4.08-1.42,12.12-7.28,17.64-13.14,6.09-6.49,22.07-6.15,27.44-12.14,2.74-3.06,13,2.93,22.89,9.06a31,31,0,0,0,19.2,4.43A67,67,0,0,0,470.79,357s-20.33,2.58-30.05-5.87c-6.79-5.93-11.24-13.35-9.45-15.31,6-6.51,17.48-12.82,25.82-16.86,12.73-6.16,30.1-10.44,30.1-10.44s-11.25-1.71-20.93,1.61C457.9,313,449,318.84,443.2,321.42c-8.22,3.67-12.78,3.09-12.78,3.09s-23.09,19-32.33,22.43c-7,2.58-.67-9.4,1.55-17.57,2.34-8.57,13.93-22.56,13.93-22.56a60.84,60.84,0,0,0-13.91,13.56c-5.62,7.73-9.37,18.5-14,24.57C377.11,356,363.7,365.13,358,367.05c-16.74,5.66-20.26-3.91-31.64-.94-20.05,5.23-22.95.44-21.67-.57C312.2,359.6,327,347.25,327,347.25s2.94-24.91,29-47.06a155.18,155.18,0,0,1,22.88-16.34c3.71-2.14,12.75-8.72,22-11.13,10.55-2.75,27.66,17.07,27.66,17.07s-1.12-8.73-6.19-13.51c-5.73-5.4-12.4-9.34-9.71-10.63,13.93-6.71,16.33-14.28,27.48-16.8,6-1.37,14.46-16.55,17.51-22.38a40.52,40.52,0,0,1-11.56,12.66,181.48,181.48,0,0,1-25.8,15.4c-15.81,7.24-19.18,5.34-19.18,5.34s-28.45,21.33-42.48,28.81c-2.78,1.48,2.65-10.6,2.43-17.42-.2-5.9,7.21-20.36,7.21-20.36s-11.75,10.68-11.83,22.49c0,2.89-3.22,10.57-7,15.66-8.34,11.14-11.69,17.9-14.27,21.29-11.33,14.88-19.57,31.26-26.58,36.86-12.59,10.06-37.52,32.7-56.71,39-11,3.58-13.26-.53-13.26-.53s-45,36.77-50.47,37.2c-6.15.47-7.39-7.08-11.16-15.36-4.41-9.67,9.2-38.38,9.2-38.38s11.59-5.33,24.74-12.19c2.37-1.23,6-2.69,16.61.23,4.54,1.25,8.78,6.9,13.44,10.75,4.92,4.05,23,.55,23,.55s-15.81-.59-21.67-5.28c-4.85-3.9-19.24-12-9.94-16.3,4.31-2,13.26-2.09,24.5-7.15,6.18-2.78,14.11-10.19,19.86-12.9,11.15-5.26,25.49-2.64,25.49-2.64s-11.64-6.78-22.16-1.86c-5.73,2.67-23.4,14.78-25.79,13.46-1.73-1,9-9.78,13-19.51,3.36-8.28,23.3-18.12,23.3-18.12s-16.88,1.58-19.6,6.25c-4.58,7.83-14.23,23.49-20.86,26.11-4.49,1.78-19.59,10.31-27.71,13.64-12.46,5.09-18.05,4.91-18.39,3.88-1-2.94-11.1-1.73,20.78-30.56,11.09-10,38.1-31.44,53.47-45,6.09-5.39,20.71-12.94,38.06-21.52,13.26-6.56,20.62-16.19,31.53-20.63,14.31-5.83,16.41-12.24,26.45-10.52,5.65,1,18.24-6.22,31.08-8.72,9.57-1.86,20.9.88,20.9.88S409.75,205.41,404,206c-5,.53-20.38,12.18-32.6,9-2.84-.74-15.32,3.91-17.59,3.14-2.8-.95,3.58-16.7,20.9-39.15,5.6-7.25,7.41-17.59,15.27-26,6.82-7.25,24.08-20.77,28.67-27.44,2.16-3.12,3.39-9.24,23.2-12.3,4.62-.71,17.77-6,26.47-8.18A18.18,18.18,0,0,0,479.68,97s-12.17,5.49-20.72,6.78C451.51,104.93,448.36,107.45,442.93,108.27Z"/>
        <path class="a50b24f4-bd3a-4d0d-9dca-e979322201af" d="M197.08,687.81C143.25,582,177.25,498.12,205.4,449.38c7.1-14.61,41.46-43.81,59.66-58,6.47-5-52.9,23.59-54,18.47-3.91,2.94-8,6.05-12.56,9.48-86.77,65.73-76.07,298-76.07,298l77.77-3.71S207.84,705.79,197.08,687.81Z"/>
        <path class="a50b24f4-bd3a-4d0d-9dca-e979322201af" d="M133,444.91q1.94-25.93.87-26.07T129,442.62l-18.67-10.87c4.56,3.11,31,21.81,35.56,56.22a79.5,79.5,0,0,1-7.11,43.94c18.15-7.6,12.61-23.55,12.61-23.55S164.9,484.85,133,444.91Z"/>
        <path class="b70e5f9e-6db5-460a-822b-fa650cc27efa" d="M184.63,447.48s-82.46,149.66-16.2,231.07C154.5,636.48,120.76,599.45,184.63,447.48Z"/>
        <path class="b70e5f9e-6db5-460a-822b-fa650cc27efa" d="M127.26,719.85s9.18.62,7.63-57.17S134,596,134,596s10.82,74.72,4.87,92.59S138.13,713.78,127.26,719.85Z"/>
        <path class="b70e5f9e-6db5-460a-822b-fa650cc27efa" d="M224.88,718.57s-29.18,7-47.59-40.14-12.15-42.08-12.15-42.08S185.39,716.29,224.88,718.57Z"/>
      </g>
    </g>
  </g>
</svg>
