<svg id="a5b75f1d-0683-4f32-90c2-bfa827abcda1" data-name="Layer 1" xmlns="http://www.w3.org/2000/svg" width="2174.4" height="261.48" viewBox="0 0 2174.4 261.48">
  <defs>
    <style>
      .a6407237-028c-4567-be67-59996d52f134 {
        opacity: 0.6;
      }

      .bb8c8f9e-b5e3-4610-805e-7198e91d2107 {
        fill: #fff;
      }
    </style>
  </defs>
  <g class="a6407237-028c-4567-be67-59996d52f134">
    <path class="bb8c8f9e-b5e3-4610-805e-7198e91d2107" d="M10.7,175.63c10,5.46,20.65,9.41,31.43,12.87,81.87,25,170.72,8.73,247.42-25.7,5.23-2.52,17.92-8,22.67-11.1,58.74-34.35,126.39-57.34,195-55.33a244.31,244.31,0,0,1,25.47,2.26,275.83,275.83,0,0,0-34-1.1c-65.08,2.5-128.27,25.42-184,58.33-4.85,3.19-17.75,8.86-23.15,11.46-5.86,2.59-11.8,5.06-17.7,7.57-4.54,1.74-11.45,4.35-16,6.08-5.47,1.82-12.76,4.44-18.28,6.1-6.33,1.89-14.21,4.28-20.61,5.81-41.41,10.61-84.95,14.45-127.41,8.68C63.5,197.5,35.3,190,10.7,175.63Z"/>
  </g>
</svg>
