<svg id="fce011a3-6f5c-469d-afa7-92a9238066d0" data-name="Layer 1" xmlns="http://www.w3.org/2000/svg" width="170.53" height="212.58" viewBox="0 0 170.53 212.58">
  <defs>
    <style>
      .aa324765-4f61-4331-9d44-c6caaa13a879 {
        fill: #7f5a41;
      }

      .a0290039-328f-43f5-8545-80014413410a, .a3cd9b6a-ea2f-4366-9142-ec16af58b1ab, .aa324765-4f61-4331-9d44-c6caaa13a879, .aca9c8be-8109-4a05-b9ef-6d8bbfa2329a, .af7e6266-a211-46fc-95ed-aebdae37d5ae, .b03d888a-d5ae-4ccf-afe7-5f426877c53c {
        fill-rule: evenodd;
      }

      .b03d888a-d5ae-4ccf-afe7-5f426877c53c {
        fill: #122d1a;
      }

      .a0290039-328f-43f5-8545-80014413410a {
        fill: #1d4f27;
      }

      .a3cd9b6a-ea2f-4366-9142-ec16af58b1ab {
        fill: #1c783c;
      }

      .af7e6266-a211-46fc-95ed-aebdae37d5ae {
        fill: #01362c;
      }

      .aca9c8be-8109-4a05-b9ef-6d8bbfa2329a {
        fill: #248e44;
      }
    </style>
  </defs>
  <g>
    <path class="aa324765-4f61-4331-9d44-c6caaa13a879" d="M52.77,87s-35.68,97-7.43,116.27L67.23,202S25.3,189.2,62.5,90.86C52.88,87.21,52.77,87,52.77,87Z"/>
    <g>
      <path class="b03d888a-d5ae-4ccf-afe7-5f426877c53c" d="M58,83.61s1.35-10,4.91-13.51S91.23,44.93,94.79,42.28,120.58,29.83,124.94,34s18.47,7.62,18.47,7.62l-22.84.87-5.24,2.88,5.37,4.51-25.79.7,10,3s-18.76,2.9-26.4,6.8-10.55,7.54-10.55,7.54L58.74,84.77,58,83.61Z"/>
      <path class="a0290039-328f-43f5-8545-80014413410a" d="M55.11,83.66s-7.07,2-9.52,0S27.91,67.67,26,65.5s-5.12-18.17-3.48-23.67c3.55-11.89,11.53-29.66,11.53-29.66L29.56,35.68l-1.3,11.65,5-17.45-1.42,33L34,53.57s2,14.84,4.73,20.06,5.29,6.53,5.29,6.53l11.87,2.52-.82,1Z"/>
      <path class="a3cd9b6a-ea2f-4366-9142-ec16af58b1ab" d="M79,80.39s-10.92-4.15-13.17-7S55.3,56.94,56.21,54.07s-.66-11.8,6.94-14.88c2.67-1.09,9.71-7.68,13.37-8.09,2-.21,14.6-6,16.51-6.08L73.82,40.29l9.94-.93c2.26-.06,4.14,1.1,4.82.29C97.55,29,113.06,42,113.06,42L99.81,44.21C119.59,46,120.14,39,132.39,59.12L94.94,52.21l-9.76-.57-5.43-.17L94.27,56l-15,1.24,5.89,2.62L74.84,61.34l19.34,3.94L79,80.39Z"/>
      <path class="af7e6266-a211-46fc-95ed-aebdae37d5ae" d="M52,88.47s5.64-8.16,6.91-8.67l8.69-3.48L75,76.05,89.24,87.82l9.81,3.23,9.4,5,9.29,7.11-5.85-.5,10.29,9.57-18.08-8.75-14-9.72,9.82,9.84L77,86.33,81,93.61,71.83,87l-.44,3.61-4.62-1.81s-2.85,1.62-3.29,1.91S52,91.54,52,91.54V88.47Z"/>
      <path class="a3cd9b6a-ea2f-4366-9142-ec16af58b1ab" d="M56.18,84.52a25.08,25.08,0,0,0-7.75-2.12c-4.12-.36-12.87-.1-12.87-.1l-24.4,5.76a13.45,13.45,0,0,0-7.43,10C2.42,105.59,8,118.21,8,118.21l2-12.07,5.85-10.07,1.49,9.47S20.87,88.11,25.44,87s-2.13,12-2.13,12l8.54-2.75,2.7-11.58,2.78,8.47s1.33-8.79,1.52-8.93a73.29,73.29,0,0,1,17.33.35Z"/>
      <path class="a0290039-328f-43f5-8545-80014413410a" d="M54.47,90.54c-1.12.14-9.68.25-10.41-1s5.55-6.9,8.16-8l28.29-12.2-4.64,7.1c16.9-2.31,28.74-4.09,44.75,3.07l-17.85-.85-.3,3.76L88.38,85,72.65,81.59,53.58,86.34l.89,4.2Z"/>
      <path class="a0290039-328f-43f5-8545-80014413410a" d="M51.19,87.56c-11.78-6-1.31-14.67.93-16.24s8.14-7.56,18.42-9.87c2.33-.53,9.82-2.67,12.74-3.41,10-2.53,25.46-6.26,26.84-5.95,18,3.14,30.38.63,55.76,12.53L139.51,66c22.2,3.37,22.71,3.18,29.48,15.07L149.06,74l-.22,4.42-17-9,8,8.62L113.18,66.68l4.68,5.37,11.31,5.83L102.88,77s-7.77-3.47-9-3.13-14.94.38-17.08,1.7-25.56,12-25.56,12Z"/>
      <path class="aca9c8be-8109-4a05-b9ef-6d8bbfa2329a" d="M59.41,78.09c-1.06.19-8.94,18.37-10.18,16.33S38,72.58,38.25,65.52s-4.94-13.27,1-20.3,14-20.77,35-20.24l18.59-3.73L67.24,37.34,77.65,36,53.85,49l5.79,2.68,5.53-1-13,6.53s13-2.18,13-1.28-3.6,7.15-8.75,5.86,3,16.26,3,16.26Z"/>
    </g>
  </g>
</svg>
