<svg id="b549a92c-a7a6-4c1f-901a-dd828ccac1ae" data-name="Layer 1" xmlns="http://www.w3.org/2000/svg" width="471.56" height="495.39" viewBox="0 0 471.56 495.39">
  <defs>
    <style>
      .fd6889cb-91c5-40de-99c7-393beafac03c {
        fill: #7f5a41;
      }

      .b4cb4bdc-51c2-4016-bcba-6ec16d0cf714, .fd6889cb-91c5-40de-99c7-393beafac03c {
        fill-rule: evenodd;
      }

      .b4cb4bdc-51c2-4016-bcba-6ec16d0cf714 {
        fill: #2b8040;
      }
    </style>
  </defs>
  <g>
    <path class="fd6889cb-91c5-40de-99c7-393beafac03c" d="M189.8,199.69S100.64,442,171.22,490.28L225.94,487s-104.79-31.87-11.82-277.65C190.08,200.18,189.8,199.69,189.8,199.69Z"/>
    <g>
      <path class="b4cb4bdc-51c2-4016-bcba-6ec16d0cf714" d="M221.86,180s23.58-9.09,35.5-5.45,89.18,31.9,99.27,36.51,58.23,41.62,54.4,56.14,5.47,49.62,5.47,49.62l-29.33-49-12.6-8L371.13,277l-32.48-55.72L344,246.77S315.1,209.12,297.38,197,268.18,183,268.18,183l-48,.12,1.66-3Z"/>
      <path class="b4cb4bdc-51c2-4016-bcba-6ec16d0cf714" d="M183.87,191.78s-9.93-15.41-7.17-22.69,25.08-54.11,28.86-60.18S245.09,83.16,259.44,83c31-.38,79.37,5.44,79.37,5.44l-59.47,6.69-28.76,5.56,45.39-1-79.76,21.14L240,119.12s-33.94,15.8-44.35,26.2S184,162.81,184,162.81l2.84,30.2-3-1.23Z"/>
      <path class="b4cb4bdc-51c2-4016-bcba-6ec16d0cf714" d="M275.06,212.4s-10.76-27.12-9.32-36.07,12.59-47.2,19.41-50.37,20.66-21.11,39.17-12.3c6.51,3.09,30.55,5,37.46,11,3.74,3.28,35.64,16.84,39.06,20.2l-60.55-9.69L358.76,152c3.94,4.08,5,9.51,7.59,9.4,34.76-1.41,37,49.07,37,49.07l-26.49-20.67C407,229.17,420.75,218.48,404.34,275l-50.43-80.72-15.4-19L329.65,165l16.24,34.32-27.53-25.5,5.12,15.29-20.31-16.53,25.34,42.32-53.45-2.5Z"/>
      <path class="b4cb4bdc-51c2-4016-bcba-6ec16d0cf714" d="M201.06,212.18s24.76-.88,27.68.92l19.93,12.21,11.62,14.47L258,285.85l8.14,24.49L270,336.71,269.66,366l-7.74-12.48-3.83,34.93-9.45-49.31-1.5-42.68-5,34.38.62-71.62L234,278l-.38-28.26-7.9,4.5-3.27-12s-7.49-3.29-8.73-3.74-18.88-21.78-18.88-21.78l6.2-4.56Z"/>
      <path class="b4cb4bdc-51c2-4016-bcba-6ec16d0cf714" d="M199.39,197.46A62.44,62.44,0,0,0,180,192.14c-10.3-.91-32.17-.28-32.17-.28l-61,14.31a33.61,33.61,0,0,0-18.59,25C65,250,78.94,281.51,78.94,281.51L84,251.36l14.65-25.15,3.68,23.68s8.77-43.57,20.2-46.36-5.34,29.92-5.34,29.92l21.35-6.85,6.78-28.93,6.91,21.18s3.35-22,3.83-22.32,25.86-2.23,43.31.93Z"/>
      <path class="b4cb4bdc-51c2-4016-bcba-6ec16d0cf714" d="M196.88,221.88c-2.28-1.67-18.07-16.12-17.2-19.71s21.93-3,28.62-.63l72.38,26.21-20.59,5c34.73,24.73,59.34,41.78,76.23,82.21l-31-32.1-7,6.33-30.16-19.33L245.3,236.7l-42.86-24-5.56,9.16Z"/>
      <path class="b4cb4bdc-51c2-4016-bcba-6ec16d0cf714" d="M204.37,204.79c-7.08-32.33,26.2-25.84,32.79-24s27.54,3.7,48.32,19.87c4.71,3.65,20.74,14.71,26.8,19.17C333,235,364.82,259,366.39,262.16c22.55,39.72,47.05,59.62,64.4,127.49L386.24,341C415,389.18,416.15,389.85,404,421.81L386.07,372l-8.88,6.6-9.49-47.11-3.86,29.21-20.71-69.5-3,17.56,6.72,31.09-40.07-52.14s-5.63-20.5-8.31-22.43S274,237.09,268.1,235.06s-63.73-30.27-63.73-30.27Z"/>
      <path class="b4cb4bdc-51c2-4016-bcba-6ec16d0cf714" d="M226.4,195c-2.12-1.67-49.18,13.79-47.44,8.09s22.19-57.25,35.79-68.49,16.6-31.25,39.58-31.82,62-8.42,96,31.84l37.84,28.55L315.53,142l19.84,17.2-63.92-22.79L276,151.7l11,8.69-33.84-13.52s25.67,20.67,24,22.21-19.34,5.14-25.48-6.61S226.4,195,226.4,195Z"/>
    </g>
  </g>
</svg>
