<svg id="e7d51ef6-1a0f-4071-800c-2ae813aad57e" data-name="Layer 1" xmlns="http://www.w3.org/2000/svg" width="2174.4" height="261.48" viewBox="0 0 2174.4 261.48">
  <defs>
    <style>
      .aece3f42-ecac-4870-9bf7-03be4f3d201a {
        opacity: 0.6;
      }

      .aa73d283-b0ac-4e46-8baf-829f99845f48 {
        fill: #fff;
      }
    </style>
  </defs>
  <g class="aece3f42-ecac-4870-9bf7-03be4f3d201a">
    <path class="aa73d283-b0ac-4e46-8baf-829f99845f48" d="M1534.25,172c42.12-45.66,101.26-75.07,162.86-82.7a276.56,276.56,0,0,1,87.24,3.82c32.53,6.66,63.89,18.46,93.22,33.81,5.21,3.23,10.77,6.24,16.32,9.08s11.23,5.53,17,8c62.5,27.73,135.93,38.47,201.07,13.55a223.67,223.67,0,0,0,49.73-26.78c-51,40-117.09,51.84-180.06,39.94a333.67,333.67,0,0,1-89.9-30.42c-5.68-2.89-11.24-5.87-16.76-9.27a412.39,412.39,0,0,0-41.88-18.68c-71.51-28-154.29-28.23-223.62,6.42-27.65,13.49-53.67,31.06-75.18,53.19Z"/>
  </g>
</svg>
