<svg id="b2abf69d-6d1b-44ee-8443-321f678dfa6d" data-name="Layer 1" xmlns="http://www.w3.org/2000/svg" width="126.67" height="185.51" viewBox="0 0 126.67 185.51">
  <defs>
    <style>
      .bc59c1e4-987b-49ca-9011-ad66778534da {
        fill: #806041;
      }

      .a75c0093-2236-4db7-ab2a-a6fa98f935ef {
        fill: #b17b56;
      }

      .ae8ca622-a162-426b-986e-5aea4b6cfd91 {
        fill: #513a29;
      }

      .e6747408-b9e4-427f-b600-70134851f0ef {
        fill: #286432;
      }

      .a5e18323-20ee-4d0c-89d2-c08f5b1a2f43 {
        fill: #378741;
      }

      .f3eda89b-02a9-4cb2-9fce-fb5f04cd8940 {
        fill: #137d3e;
      }
    </style>
  </defs>
  <g>
    <g>
      <path class="bc59c1e4-987b-49ca-9011-ad66778534da" d="M50.73,170c-12.44-26.86-10.14-46.56-.81-57.72,1.73-3.66,11-12.47,13.39-16.4.7-1.16-13.38,6-13.61,4.72-.94.72-1.93,1.5-3,2.34-20.79,16.29-19,74.89-19,74.89l27.92-1A28.85,28.85,0,0,1,50.73,170Z"/>
      <path class="a75c0093-2236-4db7-ab2a-a6fa98f935ef" d="M41.84,88.3l-1.46,1.37c2.51,3.15,7.69,12.26,1.53,17.44,4.6-1.85,4.35-2.75,4.35-2.75S49.75,98.47,41.84,88.3Z"/>
      <path class="a75c0093-2236-4db7-ab2a-a6fa98f935ef" d="M73.51,92.26a48.07,48.07,0,0,0-21.64,13.61c-10.08,10.86-15.16,26.86-17.13,38.83s-1.65,16.27.86,23.35c0,0-3.1,3.73-6.41-13.58-2.88-15,7.27-34.38,8.26-39,1.67-7.91,10.82-17,29.11-24.35,16-5,17.52-4.48,17.52-4.48Z"/>
      <path class="ae8ca622-a162-426b-986e-5aea4b6cfd91" d="M43.43,175.93a31.47,31.47,0,0,1-3.71-7.72c-1.24-3.81-1-13.2-.69-18.87.13,3.53,1.32,6.47,3.43,17.46,1,5.31,2.15,8.13,3.19,9.56l-.09.1C44.86,176.26,44.15,176.09,43.43,175.93Z"/>
      <path class="ae8ca622-a162-426b-986e-5aea4b6cfd91" d="M50,109.73s-13.48,17.54-12.11,31.52C37.84,141.25,37.76,128.48,50,109.73Z"/>
    </g>
    <path class="e6747408-b9e4-427f-b600-70134851f0ef" d="M19.14,68.3c-8.73,1.53-22.52-8.93-6-15.56-1.63-.59-2.65-2.33-3-4.35,7.83,1.32,16.65-1.57,21.27-7.92a15.52,15.52,0,0,0,2.45-5,12.36,12.36,0,0,0,4.86-.65c8.15-2.7,16.2-7.44,24.84-8.17,7.54-.64,15,.9,22.24,2.93l1.37.54c1.06.47,2.13.9,3.18,1.4s2.22,1.09,3.3,1.68c.37.2,3.23,2.06,3,1.83.22.16.43.33.64.5-3.36,5.59-1.1,14.73,5.17,17.12,3.86,1.47,6.77,3.61,10.07,6a14.73,14.73,0,0,0,7.8,2.9c2.71,10.34-3.12,23.09-14.71,23.84,2.89,10.5-10.57,22.82-19.92,9.88-2.42,10.82-19.41,9-24.17-.42-9.41,4.76-14.5-3-14.5-3S40.83,97.24,40,85.29c-1,4.83-12.37,10.86-13.86-2.07C20.56,89.63,5.08,87.22,19.14,68.3Z"/>
    <path class="a5e18323-20ee-4d0c-89d2-c08f5b1a2f43" d="M50.54,84.74s4.87,7.46,14,2.83c4.54,9,20.93,10.66,23.33.26,8.94,12.36,22,.46,19.29-9.61,16.38-1.15,21-26.91,5.18-33.84,8.5-12.2-8.43-22.42-15.65-19C102.13,15.14,94.7,12,90,15.1c-4.47-13-8.92-7.46-10.2-5.3-6.43-7.77-8.71-1-10.33,2.76-9.2-9.94-16.21,0-17.22,4.6-7.09-4.67-11.66-4.1-14.39-1.72S34.2,22,34.42,24.63c-14.7-7.33-12.37,8.26-10.54,11.05-9.6-4.37-11.07,9.89-5.8,11.77-16,6.46-2.75,16.42,5.69,14.89C10.08,80.59,25,82.81,30.41,76.62c1.36,12.41,12.36,6.55,13.37,1.9C44.54,90,50.54,84.74,50.54,84.74Z"/>
    <path class="f3eda89b-02a9-4cb2-9fce-fb5f04cd8940" d="M92.8,86.86s3.41-6.54-1.88-4.53-3,6.53-3,6.53,5.17,4.35,8.23-.38S92.8,86.86,92.8,86.86Z"/>
    <path class="f3eda89b-02a9-4cb2-9fce-fb5f04cd8940" d="M59.91,39s2.71-6.86-2.34-4.3-2.27,6.8-2.27,6.8,5.6,3.78,8.15-1.24S59.91,39,59.91,39Z"/>
    <path class="e6747408-b9e4-427f-b600-70134851f0ef" d="M91.15,30s2.46-.93,2,.63c1.6.71,1.22,2.72-.49,2.42-.2,1.82-1,2.21-2.26,1.13-2.91,1.73-6,.88-3.81-.74-1.48-1.75-.56-2.54,1.16-2.53C86.15,28.85,91.68,27.94,91.15,30Z"/>
    <path class="e6747408-b9e4-427f-b600-70134851f0ef" d="M51,62.72s3.2-1.2,2.6.82c2.08.92,1.58,3.54-.63,3.15-.26,2.36-1.29,2.87-2.94,1.46-3.78,2.25-7.78,1.15-4.94-1-1.93-2.28-.74-3.3,1.5-3.29C44.51,61.22,51.69,60,51,62.72Z"/>
    <path class="e6747408-b9e4-427f-b600-70134851f0ef" d="M91.93,55.55s8.32-2.66,3.86,2.59c0,0,2.14,6.08-3.08,3.87s-.56-1.09-5.22-2.2S84.56,56.47,91.93,55.55Z"/>
  </g>
</svg>
