<svg id="afbc6eca-2adb-448c-99f0-6640c0a325f5" data-name="Layer 1" xmlns="http://www.w3.org/2000/svg" width="471.56" height="495.39" viewBox="0 0 471.56 495.39">
  <defs>
    <style>
      .aea10c3c-fa09-44e4-b14e-3274205a0831 {
        fill: #7f5a41;
      }

      .aea10c3c-fa09-44e4-b14e-3274205a0831, .b9e029ee-a879-4e51-89c9-ce7b02287e5b {
        fill-rule: evenodd;
      }

      .b9e029ee-a879-4e51-89c9-ce7b02287e5b {
        fill: #2b8040;
      }
    </style>
  </defs>
  <g>
    <path class="aea10c3c-fa09-44e4-b14e-3274205a0831" d="M171.67,175s-89.16,263-18.58,315.3l54.72-3.6S103,452.1,196,185.41C172,175.51,171.67,175,171.67,175Z"/>
    <g>
      <path class="b9e029ee-a879-4e51-89c9-ce7b02287e5b" d="M182.59,172.92s-1-25.25,6.25-35.37,58.86-74.2,66.47-82.27S313.43,13.5,326,21.79s48.74,10.76,48.74,10.76l-55.84,12L307.2,53.93l15.17,8.78-63.2,12.86L285,78.73S240.09,94,223,106.86,200.24,130,200.24,130l-15.31,45.47-2.34-2.54Z"/>
      <path class="b9e029ee-a879-4e51-89c9-ce7b02287e5b" d="M182.46,183.29s-11.88,14-19.64,13.43-59.06-8.34-65.95-10.21-36.1-30.38-40.42-44.07C47.1,112.88,38.68,64.9,38.68,64.9l23.62,55,13.64,25.93-14-43.18,43.32,70.23L96.67,150.6s25,27.91,37.91,34.87,20.12,6.09,20.12,6.09l28.08-11.46-.32,3.19Z"/>
      <path class="b9e029ee-a879-4e51-89c9-ce7b02287e5b" d="M226,179.43s-29.18-.25-36.93-4.94-39-29.44-39.36-37S137.91,110.45,153,96.62c5.31-4.86,16.1-26.43,24.32-30.55,4.44-2.23,29-26.69,33.42-28.58L179,89.94l22.49-10.81c5.26-2.11,10.67-1,11.56-3.49,11.78-32.73,59.39-15.82,59.39-15.82L243.32,76.58c47.87-13.1,43.13-29.84,89.31,6.64L238.87,99.55l-23.38,7.13L202.61,111l37.91-2.13-34,15.91,16.09,1-23,12.59,48.75-7.55L226,179.43Z"/>
      <path class="b9e029ee-a879-4e51-89c9-ce7b02287e5b" d="M149.7,199.25s7.7-23.55,10.39-25.68l18.33-14.5L196,153.14l42.45,18.05,25.8.78,26.11,5.4,27.34,10.41-14.38,3,31.47,15.61-49.55-8.1L244.66,185l30.53,16.56-67-25.23L222.82,191l-26.67-9.37,1.5,9-12.34-1.05s-5.67,5.9-6.52,6.91-26.94,10.23-26.94,10.23l-2.15-7.39Z"/>
      <path class="b9e029ee-a879-4e51-89c9-ce7b02287e5b" d="M163.41,187.13a62.26,62.26,0,0,0-20,2c-9.94,2.85-30.13,11.3-30.13,11.3L61.52,235.7a33.59,33.59,0,0,0-8.37,30c3.69,18.72,28.06,43.15,28.06,43.15l-6.1-30,4.64-28.74,11.94,20.77s-7.47-43.8,2.19-50.52,5.77,29.85,5.77,29.85l17.46-14.07L113,206.75,127.1,224s-4.77-21.72-4.44-22.21,23.33-11.37,40.75-14.69Z"/>
      <path class="b9e029ee-a879-4e51-89c9-ce7b02287e5b" d="M165.67,215.85c-2.64,1-23.36,6.37-25.9,3.68s9.4-20,15.08-24.33l61.43-46.4-7.06,20c39.67-15.63,67.37-27,110.48-19.09l-43.83,8.53,1.48,9.32-32.64,14.75-40.22,1.05L161,206.2l4.65,9.65Z"/>
      <path class="b9e029ee-a879-4e51-89c9-ce7b02287e5b" d="M156.9,201c-32-8.36-11.12-35.07-6.5-40.11s15.79-22.86,39.63-34c5.39-2.54,22.53-11.8,29.25-15.18,22.94-11.55,58.76-29,62.28-29,45.63-2.06,74.49-14.87,142.84.49l-63.59,17.61c56-3.76,57.12-4.48,80.07,20.87L388.41,115l1.84,10.91L344,113l24.28,16.69-71.33-13.08,14.3,10.61L342,135.28l-64.65,12s-20.82-4.28-23.75-2.77-36.27,9-40.77,13.37S156.91,201,156.9,201Z"/>
      <path class="b9e029ee-a879-4e51-89c9-ce7b02287e5b" d="M170.05,163.06c-2.56.89-15,48.84-18.83,44.29s-36.19-49.6-38.3-67.11-17.32-30.86-5.39-50.51,26.4-56.7,78.64-63.54L230.63,9.77l-57,49.65L198.78,52,145.06,93.49l15.34,4.39,13.27-4.61L144,114.44s31.25-10.43,31.67-8.22-6.12,19-19.32,17.86,13.68,39,13.68,39Z"/>
    </g>
  </g>
</svg>
