<svg id="b43120a3-bb8f-41f5-b590-22bb405ec5ae" data-name="Layer 1" xmlns="http://www.w3.org/2000/svg" width="2174.4" height="261.48" viewBox="0 0 2174.4 261.48">
  <defs>
    <style>
      .a7e48ac5-cfaa-496a-9fe2-3e00daf2e1b2 {
        opacity: 0.6;
      }

      .e90092da-b620-4b21-b261-0b1bbf58e124 {
        fill: #fff;
      }
    </style>
  </defs>
  <g class="a7e48ac5-cfaa-496a-9fe2-3e00daf2e1b2">
    <path class="e90092da-b620-4b21-b261-0b1bbf58e124" d="M12.75,195.44c71.15-4.26,142.13-28.22,199-71.62,3.33-2.69,6.94-5.48,10.19-8.2C235.2,104.12,247,90.86,261,80.1,318.37,34,390.77,5.61,464.66,4.66c5.15-.19,12.49.09,17.63.15,8.4.42,18,1.1,26.35,2.1,5.47.53,12,1.81,17.42,2.54-5.44-.52-12.19-1.47-17.5-1.79a333.27,333.27,0,0,0-35.07-1.12c-4.78,0-12.66.53-17.52.77-81.41,5.85-160,42.57-217.85,100a240.51,240.51,0,0,1-23.51,20.3c-57.68,43.3-129.94,66.61-201.86,67.83Z"/>
  </g>
</svg>
