<svg id="fab80cbd-3373-4b51-b65b-115b7f336240" data-name="Layer 1" xmlns="http://www.w3.org/2000/svg" width="126.67" height="185.51" viewBox="0 0 126.67 185.51">
  <defs>
    <style>
      .e06e6c60-bb2c-43ae-a2e4-af43a52e3866 {
        fill: #806041;
      }

      .a0b90faf-5bbc-4da5-a32f-13596f1a0148 {
        fill: #b17b56;
      }

      .fbc7bfbd-879b-4833-af3b-8f29b4262af1 {
        fill: #513a29;
      }

      .ad67b0da-55c0-4879-b555-2b1dfb4fa8e6 {
        fill: #286432;
      }

      .e9b5c938-7e88-4915-a6e9-69f1c750ca4a {
        fill: #378741;
      }

      .e14641d9-9212-4c51-aa3b-a46ec4a7cc3c {
        fill: #137d3e;
      }
    </style>
  </defs>
  <g>
    <g>
      <path class="e06e6c60-bb2c-43ae-a2e4-af43a52e3866" d="M50.73,170c-12.44-26.86-10.14-46.56-.81-57.72,1.73-3.66,11-12.47,13.39-16.4.7-1.16-13.38,6-13.61,4.72-.94.72-1.93,1.5-3,2.34-20.79,16.29-19,74.89-19,74.89l27.92-1A28.85,28.85,0,0,1,50.73,170Z"/>
      <path class="a0b90faf-5bbc-4da5-a32f-13596f1a0148" d="M41.84,88.3l-1.46,1.37c2.51,3.15,7.69,12.26,1.53,17.44,4.6-1.85,4.35-2.75,4.35-2.75S49.75,98.47,41.84,88.3Z"/>
      <path class="a0b90faf-5bbc-4da5-a32f-13596f1a0148" d="M73.51,92.26a48.07,48.07,0,0,0-21.64,13.61c-10.08,10.86-15.16,26.86-17.13,38.83s-1.65,16.27.86,23.35c0,0-3.1,3.73-6.41-13.58-2.88-15,7.27-34.38,8.26-39,1.67-7.91,10.82-17,29.11-24.35,16-5,17.52-4.48,17.52-4.48Z"/>
      <path class="fbc7bfbd-879b-4833-af3b-8f29b4262af1" d="M43.43,175.93a31.47,31.47,0,0,1-3.71-7.72c-1.24-3.81-1-13.2-.69-18.87.13,3.53,1.32,6.47,3.43,17.46,1,5.31,2.15,8.13,3.19,9.56l-.09.1C44.86,176.26,44.15,176.09,43.43,175.93Z"/>
      <path class="fbc7bfbd-879b-4833-af3b-8f29b4262af1" d="M50,109.73s-13.48,17.54-12.11,31.52C37.84,141.25,37.76,128.48,50,109.73Z"/>
    </g>
    <path class="ad67b0da-55c0-4879-b555-2b1dfb4fa8e6" d="M18.07,63.6c-8.84.61-21.46-11.24-4.33-16.1-1.56-.76-2.38-2.6-2.53-4.64,7.65,2.13,16.72.18,22-5.65a15.41,15.41,0,0,0,3-4.75,12.43,12.43,0,0,0,4.91-.13c8.38-1.84,16.89-5.7,25.56-5.53,7.57.16,14.84,2.47,21.81,5.25.43.22.87.44,1.3.68,1,.58,2,1.12,3,1.73s2.09,1.31,3.11,2c.34.23,3,2.38,2.78,2.12l.58.57c-3.93,5.2-2.63,14.54,3.35,17.56,3.68,1.87,6.35,4.31,9.38,7.06a14.83,14.83,0,0,0,7.45,3.71c1.62,10.56-5.52,22.63-17.13,22.16,1.78,10.75-12.9,21.58-20.84,7.73-3.54,10.52-20.25,6.91-24-2.94-9.86,3.74-14.11-4.55-14.11-4.55S36.61,94.66,37,82.67c-1.51,4.71-13.44,9.51-13.57-3.5C17.25,85,2.1,80.94,18.07,63.6Z"/>
    <path class="e9b5c938-7e88-4915-a6e9-69f1c750ca4a" d="M47.58,83.24s4.06,7.93,13.61,4.28c3.56,9.43,19.69,12.8,23.17,2.7C92,103.45,106.2,93,104.55,82.69c16.41.57,23.73-24.56,8.7-33.12C123,38.33,107.21,26.4,99.68,29c6.5-9.58-.57-13.47-5.59-10.89C91,4.69,86,9.76,84.5,11.78c-5.58-8.4-8.57-1.87-10.56,1.66-8.1-10.86-16.12-1.75-17.61,2.77C49.77,10.82,45.17,10.91,42.2,13s-4.3,6.17-4.35,8.78C24,12.94,24.68,28.69,26.21,31.66c-9.09-5.35-12,8.67-7,11.09-16.59,4.75-4.46,16,4.1,15.41-15.53,16.72-.92,20.48,5.1,14.9.05,12.48,11.61,7.8,13.1,3.29C41.06,87.84,47.58,83.24,47.58,83.24Z"/>
    <path class="e14641d9-9212-4c51-aa3b-a46ec4a7cc3c" d="M92.8,86.86s3.41-6.54-1.88-4.53-3,6.53-3,6.53,5.17,4.35,8.23-.38S92.8,86.86,92.8,86.86Z"/>
    <path class="e14641d9-9212-4c51-aa3b-a46ec4a7cc3c" d="M61.69,38.7s3.41-6.54-1.88-4.53-3,6.53-3,6.53,5.17,4.35,8.23-.39S61.69,38.7,61.69,38.7Z"/>
    <path class="ad67b0da-55c0-4879-b555-2b1dfb4fa8e6" d="M93.7,33.06s2.55-.66,1.92.84c1.52.87.93,2.84-.73,2.36-.4,1.79-1.22,2.1-2.38.88-3.07,1.42-6,.25-3.7-1.12-1.29-1.91-.3-2.59,1.41-2.41C88.85,31.39,94.44,31.07,93.7,33.06Z"/>
    <path class="ad67b0da-55c0-4879-b555-2b1dfb4fa8e6" d="M50.34,61.39s3.31-.86,2.5,1.09c2,1.13,1.21,3.68-1,3.06-.5,2.33-1.58,2.73-3.08,1.15-4,1.84-7.85.33-4.81-1.46-1.68-2.48-.38-3.37,1.84-3.12C44,59.21,51.31,58.8,50.34,61.39Z"/>
    <path class="ad67b0da-55c0-4879-b555-2b1dfb4fa8e6" d="M91.8,58.55s8.55-1.78,3.56,3c0,0,1.5,6.27-3.46,3.53s-.44-1.15-5-2.74S84.37,58.69,91.8,58.55Z"/>
  </g>
</svg>
