<svg id="ecf65af2-a202-4440-9b6c-47923ba80caa" data-name="Layer 1" xmlns="http://www.w3.org/2000/svg" width="203.11" height="261.33" viewBox="0 0 203.11 261.33">
  <defs>
    <style>
      .b719e572-4013-40c0-8b77-511df4faa76e {
        fill: #5d833a;
      }

      .b88e3c20-29d2-43c5-a84c-d59042ed1003 {
        fill: #286432;
      }

      .bf404223-fdd5-4f14-bf51-fe5608452fc6 {
        fill: #378741;
      }

      .e30e6dab-87bc-43c3-8b40-3f5fb5f8c78b {
        fill: #806041;
      }

      .a8e72728-0b79-4487-bf96-7bb0e1beb9e6 {
        fill: #513a29;
      }

      .a4fcadbb-16f9-4e4a-b7d4-52a9f8e3dc34 {
        fill: #1d4f27;
      }
    </style>
  </defs>
  <g>
    <path class="b719e572-4013-40c0-8b77-511df4faa76e" d="M40.5,83.22A60.56,60.56,0,0,1,33,88.89q-.36.23-.75.42l-.47.2-.17.06-1.23-.78c.88-5,5.55-9.5,15.55-9.7A67.86,67.86,0,0,0,40.5,83.22Z"/>
    <path class="b88e3c20-29d2-43c5-a84c-d59042ed1003" d="M33.18,56.39a14.12,14.12,0,0,1-5.41-6.58c.37.42.7.85,1.09,1.25a4.59,4.59,0,0,0,5.49.5l.91.76a4.64,4.64,0,0,0,5.64.4,3.08,3.08,0,0,0-.09-4.81c-1.87-1.52-3.64-3.13-5.51-4.64-1.13-.91-2.3-1.79-3.53-2.6,3.94-1.76,10.37-1.49,18.78,2.7a12.81,12.81,0,0,1-3.11-5.84,4.41,4.41,0,0,0,2.63-.21,34.85,34.85,0,0,0,10.14-1.54,105.25,105.25,0,0,1,10.43-2.6A12.81,12.81,0,0,1,75,32.91c.14,0,.69.11.8.12l.62.16a1.6,1.6,0,0,1,.29.11,10.05,10.05,0,0,1,1.06.61,4.22,4.22,0,0,0,5.43-.85,2.7,2.7,0,0,0,.31-2.54c2,0,3.82-1.39,3.62-3.16a4.9,4.9,0,0,1,.11-1.65,13.41,13.41,0,0,0,1.87.28c3.34.19,5.24-3.4,2.66-5.62-1-.88-1.92-1.86-3-2.74l-.22-.16c.23-.62.44-1.25.63-1.88,6.37-1.5,14.76.48,22.86,9.41,14.5-1.57,38.56.17,36.15,26.21,13-2.5,35.75,3.72,23.36,22,4.79,1.9,9.07,3.75,11.87,5.93-1.81.14-3.57,1.47-3.31,3.15,0,.21.06.42.09.64a2.15,2.15,0,0,0-.82,1.34,49.38,49.38,0,0,0-.51,7.08c-2.74-1-6.13.67-5.09,3.67a34.38,34.38,0,0,0,3,6.26,4.44,4.44,0,0,0-4.61,1c-1.32-1.63-2.71-3.22-4.13-4.78,3.72.5,5.23-4.25,1.86-6.28C151.49,80.11,135.6,65.57,115.34,57c-4.69-2-8.3,2.79-3.89,5.61,5.94,3.8,11.87,7.61,17.69,11.57,17.23,11.7,34.33,25.34,44,42.28-.38,0-.76-.07-1.16-.13,11,12.72-6.37,31-26.6,16.28-3.17,10.75-9.53,16.17-29.46,3-9.26,11.87-20.53-6-20.53-6s-17.3,5.12-16.58-9.26c-9.22,7.5-15.75-6.1-15.75-6.1-8,9.32-33.84,1.72-25.11-22-7.21,6.64-29.1,1-11.29-18.67C11.41,74.13-.92,43.66,33.18,56.39Z"/>
    <path class="bf404223-fdd5-4f14-bf51-fe5608452fc6" d="M99.6,115.16s11.26,17.91,20.52,6c19.94,13.17,26.3,7.74,29.46-3,20.24,14.71,37.65-3.56,26.6-16.28C195,104.58,190.8,86.32,180,84c19.77-14.39,10-19.56-4.12-25.18,12.39-18.25-10.34-24.48-23.36-22,2.4-26-21.65-27.78-36.15-26.21-19.87-21.91-41.52-2-30.58,8.51C55-1.61,45.46,18.94,54.78,29c-21.41-10.69-30,4.07-17.36,13C3.32,29.27,15.65,59.74,30.87,59.14,13.06,78.76,34.94,84.45,42.16,77.81c-8.73,23.71,17.1,31.31,25.11,22,0,0,6.52,13.6,15.75,6.1C82.3,120.28,99.6,115.16,99.6,115.16Z"/>
    <path class="e30e6dab-87bc-43c3-8b40-3f5fb5f8c78b" d="M99.62,121.51l-9.54,29.26s9.79-11.41,25.28-13.29c0,0-21.47,9-24.85,18.18S81,222.51,87.16,237c-14.72,3.18-10.42,1.86-10.42,1.86l-6.13.55-1.11-.12-6.55.8-7.53,2.07S79,211.91,75.75,175.65c2-29.7.11-35.48-4.39-50.38l8.42-7.46s6.54,22.93,3.58,31.74l13.34-33.4Z"/>
    <polygon class="a8e72728-0b79-4487-bf96-7bb0e1beb9e6" points="83.45 158.09 80.81 210.21 79.09 149.93 83.45 158.09"/>
    <path class="a4fcadbb-16f9-4e4a-b7d4-52a9f8e3dc34" d="M57.43,75s6.95,18.71,1,10.78S57.43,75,57.43,75Z"/>
    <path class="b88e3c20-29d2-43c5-a84c-d59042ed1003" d="M136.05,111.2s3.82,1.51,1.68,2.64c1.14,2.33-1.37,4-3,2-2.1,1.67-3.41,1.28-3.78-1.11-5.16-1.14-7.87-5.09-3.67-4.56.07-3.29,2-3.17,3.94-1.44C131.43,105,138.79,109.61,136.05,111.2Z"/>
    <path class="b88e3c20-29d2-43c5-a84c-d59042ed1003" d="M98.88,89.53s4.11,0,2.53,1.84c1.91,1.76.19,4.24-2.1,3-1.35,2.32-2.71,2.44-3.93.35-5.22.83-9.19-1.85-5.09-2.89-1.13-3.09.65-3.67,3.14-2.79C92.31,85.45,100.84,87.05,98.88,89.53Z"/>
    <path class="b88e3c20-29d2-43c5-a84c-d59042ed1003" d="M98,44.13s4.11,0,2.54,1.85c1.9,1.75.19,4.24-2.11,3-1.34,2.31-2.71,2.44-3.93.35-5.21.83-9.19-1.86-5.09-2.9-1.13-3.09.66-3.67,3.15-2.79C91.42,40.06,100,41.65,98,44.13Z"/>
    <path class="b88e3c20-29d2-43c5-a84c-d59042ed1003" d="M71.07,119.2s5.34,0,3.29,2.4c2.48,2.27.25,5.5-2.73,3.87-1.75,3-3.52,3.16-5.11.45-6.77,1.08-11.93-2.41-6.6-3.76-1.48-4,.84-4.77,4.08-3.63C62.54,113.91,73.62,116,71.07,119.2Z"/>
    <path class="b88e3c20-29d2-43c5-a84c-d59042ed1003" d="M152.12,55.34s5.25.94,2.83,2.93c2.05,2.67-.7,5.47-3.36,3.35-2.24,2.66-4,2.51-5.11-.43-6.85-.1-11.34-4.42-5.86-4.84-.77-4.2,1.65-4.55,4.64-2.87C144.62,48.67,155.18,52.61,152.12,55.34Z"/>
    <path class="b88e3c20-29d2-43c5-a84c-d59042ed1003" d="M124.37,135.09s13.28,3,3.1,6c0,0-2,9-7.21,2.39s.12-1.74-5.24-6.56S113.75,130.69,124.37,135.09Z"/>
  </g>
</svg>
