<svg id="a175fc7b-f1aa-4208-96f8-644660915f8e" data-name="Layer 1" xmlns="http://www.w3.org/2000/svg" width="2174.4" height="261.48" viewBox="0 0 2174.4 261.48">
  <defs>
    <style>
      .a96e2c49-7847-4e32-8111-d778601eaaf4 {
        opacity: 0.6;
      }

      .f3277515-b825-446a-91f2-f102adc123ed {
        fill: #fff;
      }
    </style>
  </defs>
  <g class="a96e2c49-7847-4e32-8111-d778601eaaf4">
    <path class="f3277515-b825-446a-91f2-f102adc123ed" d="M1026.25,224c55.07-71,154.3-101,240.3-77,4.58,1.24,11.39,3.38,16,4.92,59.85,20.33,123.14,31.7,186.46,29.55,4.83,0,11.7-.61,16.51-.9,6.45-.32,14.15-1.38,20.58-2.05,1.37-.15,2.74-.3,4.1-.53l16.38-2.52c-6.15,1.2-18.55,3.88-24.46,4.54-7.67,1.25-17,2.28-24.72,3l-4.13.41-4.15.24c-63.7,4.15-127.84-6.71-188.16-27-88.88-31.42-193.32-4.66-254.69,67.37Z"/>
  </g>
</svg>
