<svg id="aec0bb6b-a6c0-4ae3-adc5-85a84f65e6c5" data-name="Layer 1" xmlns="http://www.w3.org/2000/svg" width="2174.4" height="261.48" viewBox="0 0 2174.4 261.48">
  <defs>
    <style>
      .e87bc55b-d379-40df-96bc-5d2b482f747b {
        opacity: 0.6;
      }

      .e5b7e180-33de-4c57-afbc-560d22d11390 {
        fill: #fff;
      }
    </style>
  </defs>
  <g class="e87bc55b-d379-40df-96bc-5d2b482f747b">
    <path class="e5b7e180-33de-4c57-afbc-560d22d11390" d="M1058.58,173.63A949.52,949.52,0,0,1,1232.26,86c4.41-1.58,11.84-4.19,16.13-5.72,4.26-1.34,12.09-3.81,16.33-5.13A467.79,467.79,0,0,1,1501.6,69c41.09,8.94,82.51,17.57,124.56,20.11a182.82,182.82,0,0,0,29.13-.52c-25.8,3.58-52,.59-77.72-2.42-35.48-4.25-70.24-12.63-105.4-18.65a477.22,477.22,0,0,0-201.48,10.8c-2.31.58-7,1.91-9.31,2.65-2.88.93-11,3.26-13.87,4.31-65.76,22.71-128.93,53.16-188.93,88.31Z"/>
  </g>
</svg>
