<svg id="b633029b-3c6b-4844-8068-a2e803b08013" data-name="Layer 1" xmlns="http://www.w3.org/2000/svg" width="203.11" height="261.33" viewBox="0 0 203.11 261.33">
  <defs>
    <style>
      .a792eccd-a9b2-431e-b099-8169d19326b7 {
        fill: #5d833a;
      }

      .a84d3661-1f2c-4927-8fc9-205b03d4fe70 {
        fill: #286432;
      }

      .f0602d66-f6d6-4390-ab4f-1e6f20b26411 {
        fill: #378741;
      }

      .bafef421-46d4-49ab-be64-b04c852a5edc {
        fill: #806041;
      }

      .acb1bfd5-9374-43c6-a9f3-b8fc40993442 {
        fill: #513a29;
      }

      .bc57416a-a1e5-485c-ab62-caa0c4376d28 {
        fill: #1d4f27;
      }
    </style>
  </defs>
  <g>
    <path class="a792eccd-a9b2-431e-b099-8169d19326b7" d="M40.82,92.45a61.64,61.64,0,0,1-7.51,5.68l-.75.41-.47.2-.18.06L30.68,98c.88-5,5.55-9.49,15.56-9.7A66.1,66.1,0,0,0,40.82,92.45Z"/>
    <path class="a84d3661-1f2c-4927-8fc9-205b03d4fe70" d="M32.88,68.34A14,14,0,0,1,27.22,62c.38.4.72.82,1.13,1.2a4.56,4.56,0,0,0,5.5.28l.95.73a4.65,4.65,0,0,0,5.65.18,3.09,3.09,0,0,0-.29-4.81c-1.93-1.45-3.75-3-5.69-4.42a41.89,41.89,0,0,0-3.63-2.45c3.88-1.92,10.3-1.91,18.87,2a12.79,12.79,0,0,1-3.33-5.72A4.38,4.38,0,0,0,49,48.61a35.27,35.27,0,0,0,10.06-1.93c3.41-1.07,6.77-2.28,10.33-3a12.87,12.87,0,0,1,4.35-.44c.15,0,.69.08.81.08l.63.14.29.09a11.21,11.21,0,0,1,1.08.58A4.23,4.23,0,0,0,81.94,43a2.7,2.7,0,0,0,.21-2.56c2-.07,3.76-1.53,3.5-3.3a4.31,4.31,0,0,1,0-1.65,12,12,0,0,0,1.87.21c3.35.06,5.11-3.61,2.44-5.72-1.07-.84-2-1.78-3.06-2.62a1.82,1.82,0,0,0-.23-.15c.21-.63.39-1.27.56-1.91,6.3-1.75,14.77-.1,23.22,8.5,14.43-2.14,38.53-1.36,37.16,24.75,12.91-3,35.87,2.3,24.22,21,4.86,1.71,9.21,3.4,12.1,5.46-1.81.22-3.52,1.62-3.19,3.28l.12.63a2.13,2.13,0,0,0-.77,1.38,48,48,0,0,0-.23,7.09c-2.77-.85-6.09.91-4.94,3.87a35,35,0,0,0,3.22,6.14,4.45,4.45,0,0,0-4.58,1.19c-1.38-1.58-2.82-3.11-4.3-4.62,3.73.36,5-4.45,1.6-6.34C152,87.34,135.58,73.44,115,65.67c-4.76-1.8-8.18,3.11-3.66,5.76,6.09,3.56,12.17,7.13,18.14,10.85,17.67,11,35.31,24,45.61,40.5-.38,0-.76,0-1.17-.08C185.46,135,168.78,153.92,148,140c-2.73,10.87-8.87,16.54-29.31,4.17C109.88,156.42,97.91,139,97.91,139S80.83,144.78,81,130.38c-8.92,7.86-16-5.47-16-5.47-7.63,9.63-33.74,3.06-26-21-6.95,6.92-29,2.1-12-18.21C11.83,86.93-1.7,57,32.88,68.34Z"/>
    <path class="f0602d66-f6d6-4390-ab4f-1e6f20b26411" d="M101.58,124.42s12,17.46,20.75,5.23c20.44,12.36,26.58,6.69,29.31-4.18,20.81,13.9,37.48-5,25.94-17.32,18.86,1.91,14-16.17,3.06-18.08,19.19-15.16,9.24-19.95-5.11-25,11.66-18.73-11.3-24-24.21-21,1.36-26.11-22.74-26.89-37.17-24.75C93.43-1.81,72.59,18.94,83.94,29,52.39,9.52,43.66,30.43,53.38,40.09c-21.83-9.82-29.84,5.26-16.84,13.7C2,42.42,15.49,72.38,30.67,71.17c-17,20.32,5.09,25.13,12,18.22-7.78,24,18.33,30.6,26,21,0,0,7,13.33,16,5.47C84.49,130.23,101.58,124.42,101.58,124.42Z"/>
    <path class="bafef421-46d4-49ab-be64-b04c852a5edc" d="M99.94,130.74,90.4,160s9.79-11.4,25.28-13.28c0,0-21.47,9-24.85,18.17s-9.49,66.85-3.36,81.3c-14.71,3.18-10.42,1.86-10.42,1.86l-6.12.55-1.11-.11-6.55.79-7.53,2.07s23.55-30.21,20.33-66.47c2-29.7.11-35.48-4.39-50.38L80.1,127s6.54,22.93,3.57,31.74L97,125.38Z"/>
    <polygon class="acb1bfd5-9374-43c6-a9f3-b8fc40993442" points="83.77 167.32 81.13 219.44 79.41 159.16 83.77 167.32"/>
    <path class="bc57416a-a1e5-485c-ab62-caa0c4376d28" d="M57.84,86s7.7,18.42,1.39,10.73S57.84,86,57.84,86Z"/>
    <path class="a84d3661-1f2c-4927-8fc9-205b03d4fe70" d="M136.37,120.43s3.82,1.52,1.68,2.65c1.13,2.32-1.38,4-3.05,2-2.1,1.66-3.42,1.27-3.79-1.12-5.15-1.14-7.86-5.09-3.67-4.56.08-3.29,2-3.17,4-1.44C131.75,114.23,139.1,118.84,136.37,120.43Z"/>
    <path class="a84d3661-1f2c-4927-8fc9-205b03d4fe70" d="M99.84,98.84s4.11-.15,2.61,1.74c2,1.68.36,4.23-2,3.06-1.25,2.37-2.61,2.55-3.91.51-5.18,1-9.25-1.49-5.2-2.69-1.26-3,.51-3.69,3-2.91C93.12,95,101.71,96.29,99.84,98.84Z"/>
    <path class="a84d3661-1f2c-4927-8fc9-205b03d4fe70" d="M97.15,53.51s4.11-.14,2.61,1.75c2,1.68.36,4.23-2,3.06-1.25,2.37-2.61,2.55-3.91.51-5.18,1-9.26-1.49-5.2-2.7-1.26-3,.51-3.69,3-2.91C90.43,49.71,99,51,97.15,53.51Z"/>
    <path class="a84d3661-1f2c-4927-8fc9-205b03d4fe70" d="M73.23,129.59s5.34-.19,3.39,2.27c2.57,2.17.46,5.49-2.58,4-1.63,3.08-3.39,3.31-5.09.66-6.72,1.34-12-1.93-6.74-3.5-1.64-4,.65-4.79,3.93-3.78C64.5,124.64,75.65,126.27,73.23,129.59Z"/>
    <path class="a84d3661-1f2c-4927-8fc9-205b03d4fe70" d="M151.68,62.57s5.29.72,2.95,2.81c2.15,2.59-.49,5.5-3.23,3.48-2.13,2.75-3.91,2.67-5.12-.23-6.85.18-11.51-4-6.05-4.6-.93-4.17,1.47-4.61,4.53-3.05C143.92,56.2,154.63,59.72,151.68,62.57Z"/>
    <path class="a84d3661-1f2c-4927-8fc9-205b03d4fe70" d="M127.12,143.35s13.39,2.46,3.34,5.88c0,0-1.62,9-7.11,2.69s.05-1.75-5.5-6.36S116.34,139.38,127.12,143.35Z"/>
  </g>
</svg>
