<svg id="b7ad1cd6-7480-4734-a0a2-34dfaf6bd548" data-name="Layer 1" xmlns="http://www.w3.org/2000/svg" width="203.11" height="261.33" viewBox="0 0 203.11 261.33">
  <defs>
    <style>
      .b557721b-f0ef-4686-b5ca-88f6d75ff029 {
        fill: #5d833a;
      }

      .a728b0dc-4a6f-4fa5-9019-35b58760b80c {
        fill: #286432;
      }

      .b1261b06-d65b-41fe-9c32-b879657db3a2 {
        fill: #806041;
      }

      .a55233a6-7868-4e7a-b77d-7f2997c694b6 {
        fill: #513a29;
      }

      .b02eb8cb-ccbe-441e-9e7a-c3ef3cb4a650 {
        fill: #378741;
      }

      .f2d93d6a-e79a-4b7c-ac19-a65f88f2b0ea {
        fill: #1d4f27;
      }
    </style>
  </defs>
  <g>
    <path class="b557721b-f0ef-4686-b5ca-88f6d75ff029" d="M40.37,92.51a59.18,59.18,0,0,1-7.51,5.68l-.74.41-.48.2-.17.06-1.23-.78c.88-5,5.55-9.49,15.55-9.7C43.82,89.69,42,91.18,40.37,92.51Z"/>
    <path class="a728b0dc-4a6f-4fa5-9019-35b58760b80c" d="M36.36,55.74A14.12,14.12,0,0,1,32,48.43c.3.47.57.94.9,1.4a4.58,4.58,0,0,0,5.35,1.3c.26.3.52.6.79.89a4.63,4.63,0,0,0,5.51,1.24,3.09,3.09,0,0,0,.63-4.78C43.54,46.7,42,44.85,40.4,43.07A43,43,0,0,0,37.3,40c4.16-1.15,10.48.06,18.17,5.46a12.87,12.87,0,0,1-2.21-6.24,4.38,4.38,0,0,0,2.64.18,34.85,34.85,0,0,0,10.25,0c3.54-.41,7.07-1,10.7-1a13,13,0,0,1,4.36.38c.15,0,.67.21.78.24l.59.25.27.15a11.87,11.87,0,0,1,1,.76,4.23,4.23,0,0,0,5.49,0A2.72,2.72,0,0,0,90,37.61c1.94.3,4-.8,4.06-2.58a4.53,4.53,0,0,1,.35-1.62,11.7,11.7,0,0,0,1.8.56c3.28.68,5.69-2.59,3.46-5.16-.88-1-1.62-2.13-2.51-3.15L97,25.47c.32-.59.62-1.18.91-1.77,6.51-.54,14.52,2.66,21.21,12.7,14.57.6,38.1,5.88,31.86,31.28,13.25-.55,34.81,9,19.85,25.19,4.45,2.59,8.41,5.06,10.86,7.62-1.82-.12-3.76.93-3.74,2.63,0,.21,0,.43,0,.64a2.17,2.17,0,0,0-1,1.21,46.89,46.89,0,0,0-1.55,6.93c-2.57-1.36-6.16-.25-5.59,2.87a35.18,35.18,0,0,0,2,6.64,4.45,4.45,0,0,0-4.72.3c-1.06-1.8-2.19-3.58-3.36-5.34,3.6,1,5.79-3.42,2.76-5.93-16.6-13.7-30.15-30.44-48.92-41.93-4.34-2.66-8.61,1.53-4.67,5,5.31,4.64,10.61,9.29,15.78,14.06,15.3,14.13,30.19,30.15,37.21,48.34l-1.13-.3c9,14.21-10.89,29.7-28.72,12.15-4.72,10.16-11.81,14.58-29.58-1.4-10.92,10.37-19.4-9-19.4-9s-17.87,2.5-15-11.62c-10.24,6.05-14.67-8.36-14.67-8.36-9.31,8-33.73-3.32-21.57-25.47-8.12,5.49-28.93-3.38-8.41-20.15C12.21,70.06,4.53,38.09,36.36,55.74Z"/>
    <path class="b1261b06-d65b-41fe-9c32-b879657db3a2" d="M99.49,130.8,90,160.06s9.79-11.4,25.29-13.28c0,0-21.47,9-24.85,18.17s-9.5,66.85-3.36,81.3c-14.71,3.18-10.42,1.86-10.42,1.86l-6.13.55-1.11-.11-6.54.79-7.54,2.08s23.56-30.21,20.33-66.48c2-29.7.12-35.48-4.39-50.38l8.42-7.45s6.54,22.92,3.58,31.74l13.35-33.41Z"/>
    <polygon class="a55233a6-7868-4e7a-b77d-7f2997c694b6" points="83.33 167.39 80.68 219.5 78.96 159.23 83.33 167.39"/>
    <path class="a728b0dc-4a6f-4fa5-9019-35b58760b80c" d="M78.52,128.47s5.28.81,2.9,2.86c2.12,2.62-.57,5.48-3.27,3.42-2.18,2.72-4,2.61-5.12-.31-6.86.07-11.44-4.15-6-4.7-.87-4.18,1.54-4.58,4.57-3C70.87,122,81.52,125.67,78.52,128.47Z"/>
    <g>
      <path class="b02eb8cb-ccbe-441e-9e7a-c3ef3cb4a650" d="M93.33,123.71s8.49,19.38,19.41,9c17.76,16,24.85,11.55,29.58,1.4,17.82,17.55,37.75,2.06,28.72-12.16,18.16,5.41,16.77-13.26,6.4-17.19,21.69-11.3,12.81-17.86-.34-25.52,15-16.2-6.6-25.73-19.84-25.19C163.49,28.68,140,23.39,125.39,22.8,109-1.81,84.63,14.66,93.89,26.68c-27.33-25.06-39.83-6.16-32.1,5.15-19.59-13.74-30.29-.42-19.1,10.3-31.84-17.64-24.16,14.32-9,16-20.52,16.76.28,25.64,8.4,20.15-12.15,22.14,12.27,33.5,21.57,25.47,0,0,4.44,14.41,14.67,8.36C75.46,126.21,93.33,123.71,93.33,123.71Z"/>
      <path class="f2d93d6a-e79a-4b7c-ac19-a65f88f2b0ea" d="M57.58,77.76s4.1,19.53-.65,10.8S57.58,77.76,57.58,77.76Z"/>
      <path class="a728b0dc-4a6f-4fa5-9019-35b58760b80c" d="M130,125.19s3.55,2.07,1.27,2.87c.78,2.47-2,3.77-3.31,1.53-2.32,1.33-3.57.75-3.58-1.67-4.93-1.89-7-6.2-2.95-5,.56-3.24,2.39-2.85,4.11-.84C126.32,118.38,132.91,124,130,125.19Z"/>
      <path class="a728b0dc-4a6f-4fa5-9019-35b58760b80c" d="M96.42,98.25s4.07.62,2.24,2.2c1.62,2-.44,4.22-2.53,2.64-1.67,2.09-3,2-3.94-.24-5.28.05-8.81-3.2-4.6-3.62-.66-3.22,1.19-3.53,3.52-2.29C90.53,93.25,98.73,96.09,96.42,98.25Z"/>
      <path class="a728b0dc-4a6f-4fa5-9019-35b58760b80c" d="M102.28,53.23s4.06.62,2.23,2.2c1.63,2-.44,4.22-2.52,2.63-1.68,2.09-3,2-3.95-.23-5.27,0-8.8-3.2-4.59-3.62-.67-3.23,1.18-3.53,3.52-2.3C96.39,48.22,104.59,51.07,102.28,53.23Z"/>
      <path class="a728b0dc-4a6f-4fa5-9019-35b58760b80c" d="M154.14,72.34s5.06,1.7,2.37,3.32c1.63,2.94-1.51,5.3-3.82,2.81-2.61,2.3-4.34,1.89-5-1.18-6.76-1.12-10.56-6.05-5.08-5.66-.13-4.27,2.31-4.25,5-2.15C147.72,64.63,157.58,70.09,154.14,72.34Z"/>
      <path class="a728b0dc-4a6f-4fa5-9019-35b58760b80c" d="M114.88,147.09s12.69,4.92,2.18,6.4c0,0-3.29,8.57-7.5,1.3s.38-1.7-4.21-7.27S105,141.17,114.88,147.09Z"/>
    </g>
  </g>
</svg>
