<svg id="bdbde93a-48a2-4e3c-94a3-a215b1dde119" data-name="Layer 1" xmlns="http://www.w3.org/2000/svg" width="170.53" height="212.58" viewBox="0 0 170.53 212.58">
  <defs>
    <style>
      .ec306f4c-327e-4fde-9ebc-ec315c22c494 {
        fill: #7f5a41;
      }

      .a0d1ea9d-33b4-4b0c-a840-1cd9eb7c6209, .a195f927-baec-408c-acf8-bd99a48cf79f, .aadaee5f-e90c-4f12-b532-f14aa85256b5, .ba403af3-9060-492b-9ba3-3bde1d1ee523, .e1171109-9053-43cd-8677-29127dd83af3, .ec306f4c-327e-4fde-9ebc-ec315c22c494, .ed5fbd83-b5f0-4b33-9566-e02d615bdc6f {
        fill-rule: evenodd;
      }

      .ba403af3-9060-492b-9ba3-3bde1d1ee523 {
        fill: #122d1a;
      }

      .ed5fbd83-b5f0-4b33-9566-e02d615bdc6f {
        fill: #1d4f27;
      }

      .a195f927-baec-408c-acf8-bd99a48cf79f {
        fill: #1c783c;
      }

      .aadaee5f-e90c-4f12-b532-f14aa85256b5 {
        fill: #01362c;
      }

      .a0d1ea9d-33b4-4b0c-a840-1cd9eb7c6209 {
        fill: #2b8040;
      }

      .e1171109-9053-43cd-8677-29127dd83af3 {
        fill: #248e44;
      }
    </style>
  </defs>
  <g>
    <path class="ec306f4c-327e-4fde-9ebc-ec315c22c494" d="M63.29,87s-35.67,97-7.43,116.27L77.75,202S35.82,189.2,73,90.86C63.41,87.21,63.29,87,63.29,87Z"/>
    <g>
      <path class="ba403af3-9060-492b-9ba3-3bde1d1ee523" d="M78.09,80.82s9.44-3.64,14.21-2.18S128,91.4,132,93.25s23.3,16.65,21.77,22.46S156,135.56,156,135.56L144.24,116l-5.05-3.21-1.37,6.87-13-22.29,2.12,10.2s-11.54-15.07-18.63-19.9S96.63,82,96.63,82l-19.2,0,.66-1.21Z"/>
      <path class="ed5fbd83-b5f0-4b33-9566-e02d615bdc6f" d="M62.89,85.51s-4-6.16-2.87-9.07,10-21.65,11.55-24.08S87.39,42.05,93.13,42c12.4-.15,31.76,2.18,31.76,2.18l-23.8,2.68L89.58,49.06l18.16-.38L75.83,57.14l9.52-.7S71.77,62.77,67.6,66.92s-4.66,7-4.66,7L64.08,86l-1.19-.5Z"/>
      <path class="a195f927-baec-408c-acf8-bd99a48cf79f" d="M99.38,93.77s-4.31-10.86-3.73-14.44,5-18.88,7.76-20.15,8.27-8.44,15.68-4.92c2.6,1.23,12.22,2,15,4.41,1.49,1.31,14.26,6.74,15.62,8.09l-24.22-3.88,7.39,6.7c1.57,1.63,2,3.81,3,3.76C149.81,72.78,150.71,93,150.71,93l-10.6-8.27c12.07,15.77,17.56,11.49,11,34.1l-20.17-32.3-6.16-7.59-3.55-4.12,6.5,13.73-11-10.2,2,6.12-8.13-6.62,10.15,16.94-21.39-1Z"/>
      <path class="aadaee5f-e90c-4f12-b532-f14aa85256b5" d="M69.77,93.68s9.9-.35,11.08.36l8,4.89,4.65,5.79-.94,18.43,3.26,9.8,1.57,10.55-.14,11.71-3.1-5-1.53,14-3.78-19.73-.6-17.08-2,13.76.25-28.66L83,120l-.16-11.31-3.16,1.8-1.3-4.78s-3-1.32-3.5-1.5-7.55-8.71-7.55-8.71l2.48-1.82Z"/>
      <path class="a0d1ea9d-33b4-4b0c-a840-1cd9eb7c6209" d="M69.1,87.79a24.82,24.82,0,0,0-7.74-2.13c-4.12-.37-12.88-.11-12.88-.11l-24.4,5.72a13.45,13.45,0,0,0-7.44,10c-1.32,7.51,4.27,20.14,4.27,20.14l2-12.06L28.8,99.29l1.47,9.47s3.52-17.43,8.09-18.54-2.14,12-2.14,12l8.54-2.74,2.71-11.58,2.77,8.48s1.34-8.8,1.53-8.93a73.16,73.16,0,0,1,17.33.37Z"/>
      <path class="ed5fbd83-b5f0-4b33-9566-e02d615bdc6f" d="M68.1,97.56c-.91-.67-7.23-6.45-6.88-7.89s8.77-1.22,11.45-.25l29,10.49-8.24,2c13.89,9.9,23.74,16.72,30.5,32.89L111.47,122l-2.8,2.53L96.6,116.75l-9.13-13.26-17.15-9.6L68.1,97.56Z"/>
      <path class="ed5fbd83-b5f0-4b33-9566-e02d615bdc6f" d="M71.09,90.72c-2.83-12.94,10.49-10.34,13.12-9.6s11,1.47,19.34,7.94c1.88,1.47,8.29,5.89,10.72,7.67,8.29,6.09,21,15.68,21.65,16.94,9,15.9,18.83,23.86,25.77,51l-17.83-19.48c11.51,19.29,12,19.56,7.1,32.34l-7.17-19.91-3.55,2.64-3.8-18.85-1.54,11.69-8.29-27.81-1.18,7,2.69,12.43-16-20.86s-2.26-8.2-3.33-9S99,103.65,96.59,102.83s-25.5-12.11-25.5-12.11Z"/>
      <path class="e1171109-9053-43cd-8677-29127dd83af3" d="M79.91,86.82c-.85-.67-19.68,5.52-19,3.23s8.87-22.9,14.32-27.4,6.64-12.5,15.83-12.73,24.8-3.37,38.4,12.74l15.14,11.42-29.05-8.47,7.94,6.88L97.93,63.37l1.84,6.11L104.19,73,90.65,67.55s10.27,8.26,9.62,8.88-7.74,2.06-10.19-2.64-10.17,13-10.17,13Z"/>
    </g>
  </g>
</svg>
