<svg id="fbf02564-041e-410a-8fbe-636a30ed27db" data-name="Layer 1" xmlns="http://www.w3.org/2000/svg" width="2174.4" height="261.48" viewBox="0 0 2174.4 261.48">
  <defs>
    <style>
      .b6d996c9-e47e-48bd-bf39-3d8c14f094e8 {
        opacity: 0.6;
      }

      .a0fb655e-34d0-4180-9a6f-caf70b018dce {
        fill: #fff;
      }
    </style>
  </defs>
  <g class="b6d996c9-e47e-48bd-bf39-3d8c14f094e8">
    <path class="a0fb655e-34d0-4180-9a6f-caf70b018dce" d="M1659.17,88.63c111.62,41.94,263.68,80.61,380.46,44.94a229.6,229.6,0,0,0,37.29-15.4c2.21-1,4.92-2.71,7-3.91a68.65,68.65,0,0,1,15.26-6.5,96.4,96.4,0,0,1,36.63-3.23,123.88,123.88,0,0,1,27.85,6.1c-15.6-4.54-32-6.39-48.1-4.2A80.87,80.87,0,0,0,2082,118.86c-117.66,67.75-305,20.79-422.79-30.23Z"/>
  </g>
</svg>
