<svg id="f3e54157-5bc4-4b63-8f04-ecaa84c4192c" data-name="Layer 1" xmlns="http://www.w3.org/2000/svg" width="126.67" height="185.51" viewBox="0 0 126.67 185.51">
  <defs>
    <style>
      .b2f4a9d7-49e0-4aaa-875b-4b713cd690eb {
        fill: #806041;
      }

      .b37d17ff-8c36-4c10-9681-a48badf24314 {
        fill: #b17b56;
      }

      .fd271786-81be-4804-aa2e-7fee65f3179c {
        fill: #513a29;
      }

      .e6ce390b-178b-46f8-9c94-cfdbe8f189a4 {
        fill: #286432;
      }

      .bb7e5457-d122-4241-8293-5681bb8b1943 {
        fill: #378741;
      }

      .fbbf9fa8-e087-4b8b-985d-26884a68dd15 {
        fill: #137d3e;
      }
    </style>
  </defs>
  <g>
    <g>
      <g>
        <path class="b2f4a9d7-49e0-4aaa-875b-4b713cd690eb" d="M51,169.49c-12.44-26.86-10.14-46.56-.81-57.72,1.73-3.66,11-12.47,13.39-16.39.7-1.17-13.38,6-13.61,4.71l-3,2.35c-20.79,16.28-19,74.88-19,74.88l27.93-1A28.85,28.85,0,0,1,51,169.49Z"/>
        <path class="b37d17ff-8c36-4c10-9681-a48badf24314" d="M42.12,87.79l-1.46,1.37c2.51,3.15,7.69,12.27,1.53,17.44,4.6-1.85,4.35-2.75,4.35-2.75S50,98,42.12,87.79Z"/>
        <path class="b37d17ff-8c36-4c10-9681-a48badf24314" d="M73.79,91.76a48,48,0,0,0-21.64,13.61C42.06,116.22,37,132.22,35,144.19s-1.65,16.28.85,23.35c0,0-3.09,3.73-6.4-13.57-2.88-15,7.27-34.38,8.26-39.06,1.67-7.91,10.82-17,29.11-24.35,16-5,17.52-4.47,17.52-4.47Z"/>
        <path class="fd271786-81be-4804-aa2e-7fee65f3179c" d="M43.71,175.43A31.78,31.78,0,0,1,40,167.7c-1.24-3.81-1-13.2-.69-18.86.13,3.53,1.32,6.46,3.43,17.46,1,5.3,2.15,8.12,3.19,9.56l-.09.1C45.14,175.76,44.43,175.58,43.71,175.43Z"/>
        <path class="fd271786-81be-4804-aa2e-7fee65f3179c" d="M50.23,109.22s-13.48,17.54-12.11,31.53C38.12,140.75,38,128,50.23,109.22Z"/>
      </g>
      <path class="e6ce390b-178b-46f8-9c94-cfdbe8f189a4" d="M17.85,59.17C9,59-2.57,46.13,14.92,42.76c-1.49-.89-2.15-2.79-2.12-4.85,7.43,2.78,16.64,1.62,22.38-3.74a15.36,15.36,0,0,0,3.36-4.47,12.27,12.27,0,0,0,4.9.29c8.51-1.1,17.32-4.22,25.94-3.3,7.53.8,14.57,3.73,21.28,7.1l1.24.79c.95.66,1.92,1.29,2.85,2s2,1.49,2.93,2.28c.32.26,2.77,2.63,2.59,2.35l.53.62c-4.37,4.85-3.88,14.26,1.82,17.79,3.51,2.17,6,4.83,8.74,7.83a14.83,14.83,0,0,0,7.11,4.34c.7,10.66-7.45,22.07-19,20.6.84,10.86-14.72,20.4-21.44,5.92-4.42,10.17-20.76,5.14-23.64-5-10.15,2.88-13.67-5.74-13.67-5.74s-7.1,4.16-5.67-7.75c-1.92,4.56-14.21,8.32-13.23-4.66C15.19,80.38.45,75.08,17.85,59.17Z"/>
      <path class="bb7e5457-d122-4241-8293-5681bb8b1943" d="M45.56,81.28s3.36,8.24,13.19,5.43c2.74,9.7,18.52,14.45,22.85,4.68C88,105.23,103.12,96,102.36,85.63c16.31,2,25.76-22.43,11.52-32.25,10.66-10.36-4-23.6-11.75-21.65,7.29-9,.59-13.47-4.63-11.33-1.92-13.65-7.34-9-9-7.15-4.84-8.84-8.38-2.59-10.67.75C70.68,2.49,61.92,10.88,60,15.25,54,9.31,49.38,9,46.24,10.83s-4.82,5.77-5.09,8.37c-13-10-13.71,5.75-12.45,8.85-8.59-6.12-12.74,7.6-7.92,10.44C3.84,41.8,15,54.1,23.53,54.2c-16.91,15.32-2.67,20.33,3.8,15.28-1,12.44,10.9,8.78,12.77,4.41C38.66,85.29,45.56,81.28,45.56,81.28Z"/>
      <path class="fbbf9fa8-e087-4b8b-985d-26884a68dd15" d="M90.3,88.77s4-6.22-1.48-4.67-3.52,6.25-3.52,6.25,4.78,4.78,8.24.32S90.3,88.77,90.3,88.77Z"/>
    </g>
    <path class="fbbf9fa8-e087-4b8b-985d-26884a68dd15" d="M62,38.19s3.41-6.54-1.88-4.53-3,6.53-3,6.53,5.17,4.35,8.23-.38S62,38.19,62,38.19Z"/>
    <path class="e6ce390b-178b-46f8-9c94-cfdbe8f189a4" d="M94,32.56s2.55-.67,1.92.83c1.52.87.93,2.84-.74,2.36-.39,1.79-1.21,2.1-2.37.88-3.07,1.42-6,.26-3.7-1.12-1.3-1.91-.3-2.59,1.41-2.4C89.13,30.88,94.72,30.56,94,32.56Z"/>
    <path class="e6ce390b-178b-46f8-9c94-cfdbe8f189a4" d="M50.62,60.89S53.93,60,53.12,62c2,1.13,1.2,3.69-1,3.07-.5,2.32-1.58,2.72-3.08,1.14-4,1.84-7.85.33-4.81-1.46-1.68-2.47-.38-3.36,1.84-3.12C44.32,58.71,51.59,58.29,50.62,60.89Z"/>
    <path class="e6ce390b-178b-46f8-9c94-cfdbe8f189a4" d="M91.74,60.48s8.67-1,3.29,3.27c0,0,1,6.38-3.76,3.22s-.34-1.18-4.7-3.15S84.32,60,91.74,60.48Z"/>
  </g>
</svg>
