<svg id="be33bca1-7a77-4878-8d54-5778ba803b84" data-name="Layer 1" xmlns="http://www.w3.org/2000/svg" width="126.67" height="185.51" viewBox="0 0 126.67 185.51">
  <defs>
    <style>
      .a6da86f3-b0fe-44f5-9fd0-4c875f54ef09 {
        fill: #806041;
      }

      .f94f8f6b-e7e7-428c-995a-de66cf6e9f3d {
        fill: #b17b56;
      }

      .bfe8ad77-dacd-4a48-823e-d1dc8d240355 {
        fill: #513a29;
      }

      .beea8a1d-cb78-43fe-90f4-6a71adfb5e2d {
        fill: #286432;
      }

      .baca42ac-61b0-4b8f-9407-fd4f87b78161 {
        fill: #378741;
      }

      .b153c35a-9159-42d3-a1bb-3991b2bd083b {
        fill: #137d3e;
      }
    </style>
  </defs>
  <g>
    <g>
      <path class="a6da86f3-b0fe-44f5-9fd0-4c875f54ef09" d="M50.31,170.71C37.87,143.85,40.18,124.16,49.5,113c1.73-3.66,11-12.47,13.4-16.4.7-1.17-13.38,6-13.62,4.71l-3,2.35c-20.79,16.29-19,74.89-19,74.89l27.92-1A29.08,29.08,0,0,1,50.31,170.71Z"/>
      <path class="f94f8f6b-e7e7-428c-995a-de66cf6e9f3d" d="M41.43,89,40,90.39c2.52,3.15,7.69,12.26,1.54,17.44,4.6-1.85,4.35-2.76,4.35-2.76S49.34,99.19,41.43,89Z"/>
      <path class="f94f8f6b-e7e7-428c-995a-de66cf6e9f3d" d="M73.1,93a48.07,48.07,0,0,0-21.64,13.61c-10.09,10.86-15.16,26.86-17.14,38.83s-1.65,16.27.86,23.34c0,0-3.09,3.74-6.41-13.57-2.88-15,7.28-34.38,8.26-39,1.67-7.92,10.82-17,29.11-24.35,16-5,17.52-4.48,17.52-4.48Z"/>
      <path class="bfe8ad77-dacd-4a48-823e-d1dc8d240355" d="M43,176.65a31.11,31.11,0,0,1-3.71-7.72c-1.24-3.81-1-13.2-.69-18.87.13,3.53,1.31,6.47,3.42,17.46,1,5.31,2.15,8.13,3.19,9.56l-.08.1C44.44,177,43.73,176.8,43,176.65Z"/>
      <path class="bfe8ad77-dacd-4a48-823e-d1dc8d240355" d="M49.54,110.45S36.05,128,37.43,142C37.43,142,37.34,129.19,49.54,110.45Z"/>
    </g>
    <path class="beea8a1d-cb78-43fe-90f4-6a71adfb5e2d" d="M19.9,72.36c-8.59,2.19-23.13-7.2-7.15-15.06-1.67-.47-2.82-2.12-3.33-4.11,7.91.72,16.48-2.83,20.6-9.51a15.61,15.61,0,0,0,2.07-5.21,12.41,12.41,0,0,0,4.8-1c7.92-3.32,15.59-8.65,24.15-10,7.47-1.21,15-.24,22.39,1.24l1.41.43c1.09.39,2.19.74,3.28,1.16s2.29.92,3.42,1.43c.38.17,3.37,1.81,3.12,1.59l.67.45c-2.93,5.83,0,14.77,6.46,16.68,3.95,1.17,7,3.09,10.49,5.25a14.82,14.82,0,0,0,8,2.31c3.49,10.1-1.36,23.25-12.86,24.88C111.09,93.1,98.6,106.4,88.3,94.21c-1.59,11-18.67,10.43-24.13,1.41-9,5.46-14.69-1.93-14.69-1.93s-5.76,5.88-7.52-6c-.64,4.89-11.51,11.77-14-1C22.93,93.52,7.31,92.29,19.9,72.36Z"/>
    <path class="baca42ac-61b0-4b8f-9407-fd4f87b78161" d="M52.46,86.37s5.42,7.07,14.16,1.77c5.2,8.63,21.67,9,23.27-1.52,9.86,11.66,22-1.21,18.51-11,16.25-2.39,18.93-28.43,2.6-34.14,7.55-12.81-10.1-21.71-17-17.78,4.67-10.6-3-13.15-7.45-9.71C81.05,1.29,77,7.18,75.92,9.44c-7-7.26-8.76-.3-10.09,3.53C55.91,3.75,49.67,14.15,49,18.86c-7.42-4.12-11.93-3.21-14.48-.62s-3.12,6.84-2.7,9.42c-15.22-6.2-11.71,9.17-9.67,11.82-9.9-3.63-10.29,10.69-4.89,12.16-15.46,7.66-1.5,16.59,6.8,14.43C11.8,85.3,26.86,86.38,31.77,79.8c2.3,12.27,12.82,5.59,13.48.88C46.87,92.07,52.46,86.37,52.46,86.37Z"/>
    <path class="b153c35a-9159-42d3-a1bb-3991b2bd083b" d="M94.76,85.28s2.9-6.78-2.22-4.37-2.46,6.74-2.46,6.74,5.49,3.94,8.18-1S94.76,85.28,94.76,85.28Z"/>
    <path class="b153c35a-9159-42d3-a1bb-3991b2bd083b" d="M58.33,40S60.51,33,55.67,35.9s-1.74,7-1.74,7S59.79,46.2,62,41,58.33,40,58.33,40Z"/>
    <path class="beea8a1d-cb78-43fe-90f4-6a71adfb5e2d" d="M88.8,28.72s2.39-1.11,2,.48c1.65.58,1.43,2.62-.3,2.45-.06,1.83-.82,2.28-2.17,1.29-2.77,2-5.9,1.34-3.85-.44-1.61-1.64-.75-2.49,1-2.62C83.73,27.94,89.17,26.62,88.8,28.72Z"/>
    <path class="beea8a1d-cb78-43fe-90f4-6a71adfb5e2d" d="M51.25,64.39s3.1-1.45,2.65.61c2.14.76,1.85,3.41-.39,3.19-.08,2.38-1.06,3-2.82,1.68-3.6,2.53-7.67,1.74-5-.57-2.1-2.13-1-3.24,1.25-3.4C44.66,63.37,51.73,61.66,51.25,64.39Z"/>
    <path class="beea8a1d-cb78-43fe-90f4-6a71adfb5e2d" d="M91.52,54.13s8.09-3.29,4,2.29c0,0,2.6,5.9-2.78,4.1s-.64-1.05-5.37-1.8S84.23,55.61,91.52,54.13Z"/>
  </g>
</svg>
