<svg id="e2de580e-df17-4f98-b061-6822fd0b34e8" data-name="Layer 1" xmlns="http://www.w3.org/2000/svg" width="471.56" height="495.39" viewBox="0 0 471.56 495.39">
  <defs>
    <style>
      .ea16291a-c632-40b0-8afa-a468ec55496f {
        fill: #7f5a41;
      }

      .a25fd545-bfc7-4847-a759-a648bd2e26bf, .ea16291a-c632-40b0-8afa-a468ec55496f {
        fill-rule: evenodd;
      }

      .a25fd545-bfc7-4847-a759-a648bd2e26bf {
        fill: #2b8040;
      }
    </style>
  </defs>
  <g>
    <path class="ea16291a-c632-40b0-8afa-a468ec55496f" d="M171.24,194s-89.17,247.1-18.58,296.3l54.71-3.38s-104.79-32.5-11.81-283.12C171.52,194.48,171.24,194,171.24,194Z"/>
    <g>
      <path class="a25fd545-bfc7-4847-a759-a648bd2e26bf" d="M196.25,190.16S199,165,207.67,156.1s69.19-64.67,77.91-71.53,63.67-32.71,74.82-22.66S407,79.77,407,79.77L350,83.4l-12.9,7.52,13.7,10.93-64.41,3.37,25.09,7s-46.68,8.41-65.54,18.64-25.89,19.5-25.89,19.5L198.19,193l-1.94-2.86Z"/>
      <path class="a25fd545-bfc7-4847-a759-a648bd2e26bf" d="M178.37,177s-15.56,9.68-22.79,6.82S101.85,158,95.84,154.07,70.69,114.16,70.72,99.81c.09-31,6.64-79.28,6.64-79.28l5.79,59.56,5.13,28.85L88,63.54,108,143.61l-1.39-23.81s15.29,34.18,25.53,44.74,17.32,11.91,17.32,11.91l30.23-2.38-1.27,3Z"/>
      <path class="a25fd545-bfc7-4847-a759-a648bd2e26bf" d="M203.52,173.12s-26.18-12.89-31.12-20.48S150.06,109.2,153,102.26s1.16-29.51,20.79-35.4c6.9-2.07,26-16.82,35.18-17,5-.07,37.72-11.43,42.51-11.23l-51.4,33.45,25,0c5.65.38,10,3.72,11.93,1.87,24.83-24.36,60.37,11.55,60.37,11.55L263.8,88c48.81,9,51.82-8.15,77.57,44.77l-91.55-26L225.67,103l-13.48-1.69,35.07,14.55-37.53-.44,14.05,7.91-26.14,1.37,47.19,14.37-41.31,34Z"/>
      <path class="a25fd545-bfc7-4847-a759-a648bd2e26bf" d="M151.91,210.36s8.09-23.42,10.82-25.5l18.56-14.21L199,165l42.15,18.75L266.89,185l26,5.83,27.16,10.85-14.43,2.74,31.21,16.13-49.41-8.92-40.36-13.94,30.26,17.06-66.6-26.33,14.41,14.87-26.51-9.8,1.36,9-12.33-1.25s-5.77,5.81-6.63,6.81-27.1,9.78-27.1,9.78l-2-7.42Z"/>
      <path class="a25fd545-bfc7-4847-a759-a648bd2e26bf" d="M160.41,181.33a62.61,62.61,0,0,0-20-1.9c-10.3.88-31.74,5.28-31.74,5.28L51.06,209.34a33.6,33.6,0,0,0-14,27.83c0,19.08,19.21,47.74,19.21,47.74l-.21-30.57L66.16,227l7.71,22.68S75,205.3,85.77,200.57s-.1,30.4-.1,30.4l19.84-10.44,1.69-29.66,10.46,19.67s-.49-22.23-.07-22.65,25.08-6.66,42.82-6.56Z"/>
      <path class="a25fd545-bfc7-4847-a759-a648bd2e26bf" d="M163.27,201.6c-2.8.38-24.19,1-26.06-2.22S150.85,182,157.35,179l70.26-31.46-11.36,17.89c42.17-6.35,71.71-11.2,112,6.14l-44.62-1.51-.64,9.41-35.13,7.07-39.43-8L160.9,191.15l2.37,10.45Z"/>
      <path class="a25fd545-bfc7-4847-a759-a648bd2e26bf" d="M151.4,205.8c-30.88-11.91-7.12-36.1-2-40.59s18.26-20.94,43.21-29.37c5.64-1.92,23.71-9.19,30.76-11.8,24.1-8.9,61.66-22.25,65.16-21.82,45.56,3.08,75.68-6.4,141.87,16.54l-65.16,10.35c56.06,2.56,57.26,2,77.22,29.74l-51.4-12.48.61,11-44.53-18,22.24,19.31-69.41-21,13,12.15,29.65,11.52L277.09,166s-20.21-6.59-23.29-5.42-37.05,4.86-42,8.7-60.39,36.5-60.39,36.49Z"/>
      <path class="a25fd545-bfc7-4847-a759-a648bd2e26bf" d="M170.91,156.4c-2.67.45-23,45.59-26.07,40.46s-27.25-55-26.36-72.63-11.84-33.35,3.25-50.69S157.36,22.13,210,24.25l46.61-8.64L192,54.86l26.08-3-60,31.77,14.37,6.93,13.87-2.29L153.5,104.08s32.57-5,32.61-2.74-9.26,17.74-22.07,14.33,6.87,40.74,6.87,40.73Z"/>
    </g>
  </g>
</svg>
