<svg id="e95f1986-538a-424f-aae2-56fd475e6c10" data-name="Layer 1" xmlns="http://www.w3.org/2000/svg" width="170.53" height="212.58" viewBox="0 0 170.53 212.58">
  <defs>
    <style>
      .e8fdcf26-8660-49dc-a7f8-b5137d82afc0 {
        fill: #122d1a;
      }

      .abc2b77e-8371-42c5-abe7-256aea967d0c, .adefd7ac-42d2-47fb-ba55-fa763af76713, .b9dd307a-7109-498f-8cbf-3cbba9d4ba56, .e8fdcf26-8660-49dc-a7f8-b5137d82afc0, .faa96a20-e5e7-4e4a-97d7-f7d3b5816470, .febb1b33-1404-44fc-a9c4-bc6709d23f69 {
        fill-rule: evenodd;
      }

      .febb1b33-1404-44fc-a9c4-bc6709d23f69 {
        fill: #1d4f27;
      }

      .faa96a20-e5e7-4e4a-97d7-f7d3b5816470 {
        fill: #1c783c;
      }

      .b9dd307a-7109-498f-8cbf-3cbba9d4ba56 {
        fill: #01362c;
      }

      .abc2b77e-8371-42c5-abe7-256aea967d0c {
        fill: #248e44;
      }

      .adefd7ac-42d2-47fb-ba55-fa763af76713 {
        fill: #7f5a41;
      }
    </style>
  </defs>
  <g>
    <g>
      <path class="e8fdcf26-8660-49dc-a7f8-b5137d82afc0" d="M70.35,81.19S75.41,72.43,80,70.56,115.81,58.08,120.11,57s28.59-1.68,31.05,3.8,14.18,14.07,14.18,14.07L143.88,67l-5.93.67,3.25,6.22-24.12-9.18,8.06,6.6s-18.45-4.46-27-3.77-12.63,3-12.63,3L70.6,82.55l-.25-1.36Z"/>
      <path class="febb1b33-1404-44fc-a9c4-bc6709d23f69" d="M54.9,85.25s-7.32-.34-9-2.92S34,61.6,32.91,59s.77-18.86,4-23.58C44,25.18,57.13,10.76,57.13,10.76L45.52,31.7,40.66,42.37l10.22-15L39.28,58.26l4.94-8.16s-2.71,14.73-1.74,20.54,3,7.85,3,7.85L56,84.57l-1.09.68Z"/>
      <path class="faa96a20-e5e7-4e4a-97d7-f7d3b5816470" d="M82.06,74.82S74.88,65.61,74.43,62,74,42.47,76.22,40.49s5.56-10.43,13.66-9.13c2.84.46,12.29-1.53,15.62,0,1.81.84,15.58,2.46,17.27,3.36L98.43,37.84l9,4.36c2,1.12,3,3.09,4,2.76,13.19-4.45,19.73,14.68,19.73,14.68l-12.5-5c16,11.74,20.08,6.09,20.13,29.64L110.3,59l-8-5.55-4.56-3,10.09,11.35-13.44-6.7L98,60.43l-9.65-4.06,14.49,13.4-20.81,5Z"/>
      <path class="b9dd307a-7109-498f-8cbf-3cbba9d4ba56" d="M54.33,87.72s7.07-7,8.42-7.22l9.17-1.79,7.34,1.12L91,94.05l9,5,8.29,6.71,7.8,8.73-5.66-1.59,8.32,11.33-16.12-12-12-12.18,7.82,11.5L79.33,90.31l2.52,7.89L74.09,90,73,93.43l-4.2-2.64s-3.1,1.06-3.58,1.26-11.46-1.31-11.46-1.31l.59-3Z"/>
      <path class="faa96a20-e5e7-4e4a-97d7-f7d3b5816470" d="M57.47,86.66a25,25,0,0,0-6.88-4.13C46.72,81.07,38.22,79,38.22,79l-25-1a13.46,13.46,0,0,0-9.86,7.63C0,92.43,2,106.09,2,106.09L7.21,95l8.36-8.12-1.13,9.52S22.5,80.58,27.21,80.73s-5.28,11-5.28,11l9-.35,5.73-10.41.38,8.9s3.66-8.11,3.88-8.19a73.28,73.28,0,0,1,16.59,5Z"/>
      <path class="febb1b33-1404-44fc-a9c4-bc6709d23f69" d="M56,90.86c-1.11-.17-9.38-2.41-9.73-3.85s7.23-5.11,10.06-5.48l30.54-4-6.41,5.56c16.89,2.41,28.77,4,42.2,15.22l-16.93-5.71-1.33,3.53L90.13,94.83l-14.19-7.6L56.3,86.58,56,90.86Z"/>
      <path class="febb1b33-1404-44fc-a9c4-bc6709d23f69" d="M52.16,83.87c-10.31-8.31,1.71-14.62,4.22-15.7s9.52-5.74,20.05-5.9c2.39,0,10.16-.6,13.17-.73,10.27-.44,26.21-.93,27.49-.34,17,6.75,29.61,6.82,52,23.66l-26.09-4c21,7.83,21.57,7.75,25.77,20.78l-18-11-1.12,4.28L134.87,82.52,141,92.6,117.11,76.1l3.47,6.22,9.89,8L104.91,84.1s-6.89-5-8.21-4.91S82,76.51,79.63,77.36s-27.47,6.51-27.47,6.51Z"/>
      <path class="abc2b77e-8371-42c5-abe7-256aea967d0c" d="M62.83,77.19c-1-.32-16.39,12.2-16.56,9.82s.08-24.56,3.55-30.71,1.73-14,10.23-17.56,22-12,40.41-1.86l18.22,5.24L88.53,44.61l9.88,3.58-27.15.65,3.91,5,5.37,1.66L66,55.35s12.55,4,12.16,4.85-6.49,4.69-10.46,1.18-4.83,15.81-4.83,15.81Z"/>
    </g>
    <path class="adefd7ac-42d2-47fb-ba55-fa763af76713" d="M46.27,87S10.6,184,38.84,203.28L60.73,202S18.8,189.2,56,90.86C46.39,87.21,46.27,87,46.27,87Z"/>
  </g>
</svg>
