<svg id="e8221946-9394-4ec6-afb2-0c9cf566928e" data-name="Layer 1" xmlns="http://www.w3.org/2000/svg" width="2174.4" height="261.48" viewBox="0 0 2174.4 261.48">
  <defs>
    <style>
      .e30da8ff-14be-4525-990f-cf9e7b3437ee {
        opacity: 0.6;
      }

      .aa626cfc-41fb-4129-84f8-c2424f4f060d {
        fill: #fff;
      }
    </style>
  </defs>
  <g class="e30da8ff-14be-4525-990f-cf9e7b3437ee">
    <path class="aa626cfc-41fb-4129-84f8-c2424f4f060d" d="M1055.67,175.63c-24.6,14.41-52.81,21.87-80.86,25.93-42.47,5.77-86,1.93-127.41-8.68-6.39-1.52-14.29-3.92-20.61-5.81-5.52-1.65-12.82-4.29-18.28-6.09-4.58-1.75-11.47-4.35-16-6.09-5.9-2.51-11.84-5-17.7-7.57-5.44-2.66-18.24-8.21-23.16-11.46C695.93,123,632.73,100,567.66,97.53a275.52,275.52,0,0,0-34,1.1,245.76,245.76,0,0,1,25.47-2.26c68.61-2,136.27,21,195,55.33,4.67,3.05,17.48,8.62,22.67,11.1,76.69,34.43,165.56,50.72,247.42,25.7,10.78-3.46,21.47-7.41,31.43-12.87Z"/>
  </g>
</svg>
