<svg id="bb2bc4a5-c7f1-4289-9938-bdc55c7290ae" data-name="Layer 1" xmlns="http://www.w3.org/2000/svg" width="170.53" height="212.58" viewBox="0 0 170.53 212.58">
  <defs>
    <style>
      .f757d784-ba39-44c8-8159-1adc3ede306c {
        fill: #7f5a41;
      }

      .a398be63-b7c7-438e-b573-1f6b6298595d, .a682dd44-65bc-4fcc-96c8-eeda69e004da, .aeb76f9b-c8b6-4c1c-907c-ba2ff3fcde07, .af58d7c6-18fd-4a6e-afa0-ad367148e141, .e64141d6-0da0-4dc2-92d3-7f3eb32aa6c2, .f757d784-ba39-44c8-8159-1adc3ede306c {
        fill-rule: evenodd;
      }

      .a398be63-b7c7-438e-b573-1f6b6298595d {
        fill: #122d1a;
      }

      .aeb76f9b-c8b6-4c1c-907c-ba2ff3fcde07 {
        fill: #1d4f27;
      }

      .a682dd44-65bc-4fcc-96c8-eeda69e004da {
        fill: #1c783c;
      }

      .af58d7c6-18fd-4a6e-afa0-ad367148e141 {
        fill: #01362c;
      }

      .e64141d6-0da0-4dc2-92d3-7f3eb32aa6c2 {
        fill: #248e44;
      }
    </style>
  </defs>
  <g>
    <path class="f757d784-ba39-44c8-8159-1adc3ede306c" d="M56.24,73.19S20.57,181.68,48.81,203.28l21.89-1.49S28.77,187.53,66,77.49C56.36,73.41,56.24,73.19,56.24,73.19Z"/>
    <g>
      <path class="a398be63-b7c7-438e-b573-1f6b6298595d" d="M54.49,73.49s-.31-10.69,2.64-14.94S81,27.38,84,24,107.44,6.54,112.41,10.1s19.47,4.75,19.47,4.75l-22.39,4.86-4.7,3.92,6,3.77L85.5,32.6,95.82,34s-18,6.26-24.93,11.66-9.18,9.69-9.18,9.69L55.42,74.58l-.93-1.09Z"/>
      <path class="aeb76f9b-c8b6-4c1c-907c-ba2ff3fcde07" d="M58.3,77.22s-6.22,4.11-9.11,2.9S27.68,69.18,25.28,67.54s-10.08-16.89-10.07-23C15.23,31.46,17.84,11,17.84,11l2.34,25.21,2.05,12.21-.11-19.22,8,33.88L29.56,53S35.68,67.49,39.78,72s6.93,5,6.93,5l12.1-1-.51,1.24Z"/>
      <path class="a682dd44-65bc-4fcc-96c8-eeda69e004da" d="M73.52,69S62,66.81,59.29,64.29s-13.38-15.06-13-18.23-2.81-12.14,4.09-16.82c2.43-1.65,8.14-9.88,11.66-11,1.9-.61,13.25-9,15.11-9.53L61.05,28.31l9.6-2.9c2.22-.5,4.28.34,4.8-.63C82.31,12,99.94,22.43,99.94,22.43L87.32,27.34c19.76-2,19-9.36,34.77,9.17L84,36.6l-9.7,1.3-5.37.89L84,40.61l-14.48,4.2,6.28,1.58L65.92,50l19.73.34L73.52,69Z"/>
      <path class="af58d7c6-18fd-4a6e-afa0-ad367148e141" d="M47.5,87.77s.84-10.45,1.69-11.59L55,68.43l6.31-4.15L79.5,67.6l10.11-2.19,10.67-.31,11.6,1.64-5.33,2.62,13.69,3.38-20,1.47-17-1.53,13.41,3.86L68.17,72.65l7,4.6L64,76l1.41,3.55-4.9.76s-1.67,3-1.91,3.49S49,90.6,49,90.6L47.5,87.77Z"/>
      <path class="a682dd44-65bc-4fcc-96c8-eeda69e004da" d="M55.31,77.52a23.54,23.54,0,0,0-8,.44C43.26,79,35,82.13,35,82.13L13.67,96a14.66,14.66,0,0,0-3.92,12.52c1.11,8,10.39,18.8,10.39,18.8l-1.87-12.79,2.4-12,4.38,9S22.9,92.83,26.89,90.19s1.74,12.73,1.74,12.73l7.24-5.59L34.81,84.8l5.29,7.59s-1.5-9.28-1.36-9.48,9.55-4.33,16.57-5.39Z"/>
      <path class="aeb76f9b-c8b6-4c1c-907c-ba2ff3fcde07" d="M56.28,82.34c-1.07.41-9.38,2.56-10.38,1.41s3.86-8.43,6.16-10.21L76.89,54.25,74,62.67c16-6.39,27.1-11,44.31-7.45l-17.59,3.36.55,4L88.08,68.59,72,68.8,54.47,78.23l1.81,4.11Z"/>
      <path class="aeb76f9b-c8b6-4c1c-907c-ba2ff3fcde07" d="M54.1,84.54c-13.19-1.26-6.7-13.86-5.21-16.29s4.72-10.64,13.39-17c2-1.44,8.12-6.5,10.54-8.38,8.3-6.42,21.28-16.22,22.67-16.45,17.87-4,28.42-11.4,56.4-9.76L128,28.48c21.85-5.48,22.25-5.86,33,3.13l-21.15.89,1.45,4.42-19.12-2.17L132.8,40l-29-.49L110.13,43l12.68,1.25L98.09,53.75s-8.5-.33-9.56.5-13.72,6.28-15.21,8.42S54.1,84.54,54.1,84.54Z"/>
      <path class="e64141d6-0da0-4dc2-92d3-7f3eb32aa6c2" d="M57.52,65.65c-1.05.29-7.47,20.12-8.87,18.07S35.73,61.62,35.43,54.16s-6-13.59-.6-21.49S47.11,9.6,68.16,8.42L86.4,2.93,62.12,22l10.27-2.3L49.69,35.47l6,2.36,5.44-1.52-12.48,8s12.79-3.38,12.89-2.44-3,7.84-8.26,6.91,4.26,16.9,4.26,16.9Z"/>
    </g>
  </g>
</svg>
