<svg id="a92917ab-8066-4714-97e6-0e5deef2dce9" data-name="Layer 1" xmlns="http://www.w3.org/2000/svg" width="126.67" height="185.51" viewBox="0 0 126.67 185.51">
  <defs>
    <style>
      .e4e79e4d-b74d-4b48-b969-20d0c6c4003e {
        fill: #806041;
      }

      .a6c2dbfb-475d-49be-bb2f-bef205196cff {
        fill: #b17b56;
      }

      .e38119d0-d345-4360-a689-196eaac2475b {
        fill: #513a29;
      }

      .bfc0b6f2-d667-47d5-a535-915a94ed9b56 {
        fill: #286432;
      }

      .fe92bda1-93e6-4ffd-aadd-02b88ba75ce0 {
        fill: #378741;
      }

      .a2bf2cdf-73f1-4a2d-9317-d1cc060e4996 {
        fill: #137d3e;
      }
    </style>
  </defs>
  <g>
    <g>
      <g>
        <path class="e4e79e4d-b74d-4b48-b969-20d0c6c4003e" d="M50.73,170c-12.44-26.86-10.14-46.56-.81-57.72,1.73-3.66,11-12.47,13.39-16.4.7-1.16-13.38,6-13.61,4.72-.94.72-1.93,1.5-3,2.34-20.79,16.29-19,74.89-19,74.89l27.92-1A28.85,28.85,0,0,1,50.73,170Z"/>
        <path class="a6c2dbfb-475d-49be-bb2f-bef205196cff" d="M41.84,88.3l-1.46,1.37c2.51,3.15,7.69,12.26,1.53,17.44,4.6-1.85,4.35-2.75,4.35-2.75S49.75,98.47,41.84,88.3Z"/>
        <path class="a6c2dbfb-475d-49be-bb2f-bef205196cff" d="M73.51,92.26a48.07,48.07,0,0,0-21.64,13.61c-10.08,10.86-15.16,26.86-17.13,38.83s-1.65,16.27.86,23.35c0,0-3.1,3.73-6.41-13.58-2.88-15,7.27-34.38,8.26-39,1.67-7.91,10.82-17,29.11-24.35,16-5,17.52-4.48,17.52-4.48Z"/>
        <path class="e38119d0-d345-4360-a689-196eaac2475b" d="M43.43,175.93a31.47,31.47,0,0,1-3.71-7.72c-1.24-3.81-1-13.2-.69-18.87.13,3.53,1.32,6.47,3.43,17.46,1,5.31,2.15,8.13,3.19,9.56l-.09.1C44.86,176.26,44.15,176.09,43.43,175.93Z"/>
        <path class="e38119d0-d345-4360-a689-196eaac2475b" d="M50,109.73s-13.48,17.54-12.11,31.52C37.84,141.25,37.76,128.48,50,109.73Z"/>
      </g>
      <path class="bfc0b6f2-d667-47d5-a535-915a94ed9b56" d="M17.57,59.68c-8.87-.16-20.42-13-2.93-16.41-1.49-.9-2.15-2.8-2.12-4.85C20,41.2,29.16,40,34.9,34.68a15.19,15.19,0,0,0,3.36-4.47,12.27,12.27,0,0,0,4.9.29c8.51-1.11,17.32-4.23,25.94-3.31,7.53.81,14.57,3.74,21.28,7.11.41.26.83.51,1.24.78.95.67,1.92,1.3,2.85,2s2,1.48,2.93,2.27c.32.27,2.77,2.64,2.59,2.36l.53.61c-4.37,4.85-3.88,14.26,1.82,17.8,3.51,2.17,6,4.83,8.75,7.83a14.73,14.73,0,0,0,7.1,4.33c.7,10.67-7.45,22.08-19,20.61.84,10.86-14.72,20.4-21.44,5.91-4.42,10.18-20.76,5.15-23.64-5C44,96.68,40.47,88.05,40.47,88.05s-7.1,4.16-5.67-7.74c-1.92,4.55-14.21,8.32-13.22-4.66C14.91,80.88.17,75.58,17.57,59.68Z"/>
      <path class="fe92bda1-93e6-4ffd-aadd-02b88ba75ce0" d="M45.28,81.78S48.64,90,58.47,87.22c2.74,9.7,18.52,14.44,22.85,4.68,6.43,13.84,21.53,4.63,20.76-5.77,16.31,2,25.76-22.42,11.52-32.24,10.66-10.36-4-23.61-11.75-21.65,7.3-9,.59-13.47-4.63-11.34-1.92-13.64-7.34-9-9-7.14-4.83-8.85-8.38-2.59-10.67.75C70.4,3,61.64,11.38,59.77,15.76,53.69,9.82,49.1,9.51,46,11.33s-4.82,5.78-5.09,8.37c-13-10-13.71,5.76-12.45,8.85C19.83,22.44,15.68,36.16,20.5,39c-16.94,3.31-5.82,15.6,2.75,15.71C6.35,70,20.58,75,27.05,70c-1,12.44,10.9,8.77,12.77,4.4C38.38,85.8,45.28,81.78,45.28,81.78Z"/>
      <path class="a2bf2cdf-73f1-4a2d-9317-d1cc060e4996" d="M90,89.28s4-6.22-1.48-4.68S85,90.86,85,90.86s4.78,4.77,8.24.32S90,89.28,90,89.28Z"/>
    </g>
    <path class="a2bf2cdf-73f1-4a2d-9317-d1cc060e4996" d="M61.69,38.7s3.41-6.54-1.88-4.53-3,6.53-3,6.53,5.17,4.35,8.23-.39S61.69,38.7,61.69,38.7Z"/>
    <path class="bfc0b6f2-d667-47d5-a535-915a94ed9b56" d="M93.7,33.06s2.55-.66,1.92.84c1.52.87.93,2.84-.73,2.36-.4,1.79-1.22,2.1-2.38.88-3.07,1.42-6,.25-3.7-1.12-1.29-1.91-.3-2.59,1.41-2.41C88.85,31.39,94.44,31.07,93.7,33.06Z"/>
    <path class="bfc0b6f2-d667-47d5-a535-915a94ed9b56" d="M50.34,61.39s3.31-.86,2.5,1.09c2,1.13,1.21,3.68-1,3.06-.5,2.33-1.58,2.73-3.08,1.15-4,1.84-7.85.33-4.81-1.46-1.68-2.48-.38-3.37,1.84-3.12C44,59.21,51.31,58.8,50.34,61.39Z"/>
    <path class="bfc0b6f2-d667-47d5-a535-915a94ed9b56" d="M91.46,61s8.67-1,3.29,3.27c0,0,1,6.38-3.76,3.22s-.34-1.18-4.7-3.15S84,60.49,91.46,61Z"/>
  </g>
</svg>
