<svg id="efdc5cf9-f0b0-419a-b2d9-d222c03a4aae" data-name="Layer 1" xmlns="http://www.w3.org/2000/svg" width="203.11" height="261.33" viewBox="0 0 203.11 261.33">
  <defs>
    <style>
      .fdb16c79-aa16-4da1-b308-41732255a176 {
        fill: #5d833a;
      }

      .ba589df2-76b3-432d-9b94-6a172f1e897c {
        fill: #286432;
      }

      .f437134b-ea2e-4647-994f-02498f8e614e {
        fill: #806041;
      }

      .a667a70c-97d1-421c-a9cb-7904cc326ad5 {
        fill: #513a29;
      }

      .a942a1b9-b3cb-4bfb-8251-3c54b12a919f {
        fill: #378741;
      }

      .a3d735cd-cfa5-463d-b4ab-6b70c877d440 {
        fill: #1d4f27;
      }
    </style>
  </defs>
  <g>
    <path class="fdb16c79-aa16-4da1-b308-41732255a176" d="M40.82,92.45a61.64,61.64,0,0,1-7.51,5.68l-.75.41-.47.2-.18.06L30.68,98c.88-5,5.55-9.49,15.56-9.7A66.1,66.1,0,0,0,40.82,92.45Z"/>
    <path class="ba589df2-76b3-432d-9b94-6a172f1e897c" d="M34.49,62.05a14,14,0,0,1-5.05-6.86c.34.44.65.89,1,1.31a4.56,4.56,0,0,0,5.45.78l.87.81a4.62,4.62,0,0,0,5.61.7A3.08,3.08,0,0,0,42.55,54c-1.78-1.62-3.46-3.32-5.26-4.93-1.07-1-2.19-1.91-3.38-2.78,4-1.54,10.43-.94,18.61,3.69a12.76,12.76,0,0,1-2.8-6,4.39,4.39,0,0,0,2.64-.06,35.35,35.35,0,0,0,10.2-1,105.32,105.32,0,0,1,10.56-2,12.91,12.91,0,0,1,4.38,0c.14,0,.68.15.79.17l.62.19a2.36,2.36,0,0,1,.28.12,10,10,0,0,1,1,.67,4.24,4.24,0,0,0,5.47-.56,2.71,2.71,0,0,0,.44-2.53c2,.1,3.89-1.18,3.79-3a4.52,4.52,0,0,1,.19-1.64,13.82,13.82,0,0,0,1.85.38c3.33.36,5.42-3.12,3-5.47-1-.94-1.83-2-2.81-2.9a1.66,1.66,0,0,0-.21-.16c.26-.62.51-1.24.74-1.85,6.43-1.16,14.71,1.26,22.33,10.6,14.56-.8,38.49,2.21,34.71,28.08,13.14-1.81,35.51,5.61,22.17,23.18,4.68,2.15,8.85,4.23,11.54,6.55-1.82,0-3.65,1.28-3.47,3,0,.21,0,.43.05.64a2.19,2.19,0,0,0-.89,1.3,47.87,47.87,0,0,0-.88,7c-2.69-1.1-6.16.35-5.28,3.4a34.65,34.65,0,0,0,2.64,6.41,4.46,4.46,0,0,0-4.67.76q-1.84-2.55-3.86-5c3.69.7,5.44-4,2.19-6.17C151.37,92,136.27,76.62,116.5,67c-4.58-2.23-8.44,2.35-4.18,5.4,5.73,4.11,11.45,8.23,17.05,12.48C146,97.46,162.32,112,171.05,129.41c-.38-.06-.76-.11-1.16-.19,10.36,13.28-8,30.61-27.42,14.85-3.73,10.56-10.37,15.65-29.58,1.44-9.87,11.37-20.18-7.12-20.18-7.12s-17.55,4.2-16.06-10.12c-9.61,7-15.41-6.92-15.41-6.92-8.49,8.88-33.88-.08-23.91-23.29C29.77,104.3,8.22,97.46,27,78.81,11.81,78.61,1.11,47.53,34.49,62.05Z"/>
    <path class="f437134b-ea2e-4647-994f-02498f8e614e" d="M99.94,130.74,90.4,160s9.79-11.4,25.28-13.28c0,0-21.47,9-24.85,18.17s-9.49,66.85-3.36,81.3c-14.71,3.18-10.42,1.86-10.42,1.86l-6.12.55-1.11-.11-6.55.79-7.53,2.07s23.55-30.21,20.33-66.47c2-29.7.11-35.48-4.39-50.38L80.1,127s6.54,22.93,3.57,31.74L97,125.38Z"/>
    <polygon class="a667a70c-97d1-421c-a9cb-7904cc326ad5" points="83.77 167.32 81.13 219.44 79.41 159.16 83.77 167.32"/>
    <path class="ba589df2-76b3-432d-9b94-6a172f1e897c" d="M77,127.77s5.32.3,3.16,2.57c2.35,2.4,0,5.51-2.94,3.72-1.9,2.91-3.69,3-5.12.18-6.82.72-11.79-3-6.4-4.1-1.26-4.09,1.1-4.72,4.27-3.41C68.77,122,79.72,124.69,77,127.77Z"/>
    <g>
      <path class="a942a1b9-b3cb-4bfb-8251-3c54b12a919f" d="M97.7,124.24s10.31,18.49,20.18,7.13c19.22,14.2,25.85,9.12,29.58-1.45,19.43,15.77,37.78-1.56,27.42-14.85,18.61,3.65,15.43-14.81,4.73-17.72,20.51-13.32,11-19-2.78-25.37,13.34-17.57-9-25-22.17-23.17,3.78-25.88-20.15-28.88-34.71-28.08-18.68-22.93-41.36-4.2-31,6.88C59.36,5.29,48.73,25.3,57.51,35.82,36.69,24,27.31,38.3,39.48,47.9,6.1,33.38,16.8,64.47,32,64.67,13.21,83.32,34.77,90.16,42.32,83.92c-10,23.2,15.43,32.16,23.91,23.28,0,0,5.8,13.93,15.41,6.92C80.16,128.45,97.7,124.24,97.7,124.24Z"/>
      <path class="a3d735cd-cfa5-463d-b4ab-6b70c877d440" d="M57.71,81.94s6,19,.39,10.8S57.71,81.94,57.71,81.94Z"/>
      <path class="ba589df2-76b3-432d-9b94-6a172f1e897c" d="M134.32,122.21s3.73,1.72,1.54,2.74c1,2.38-1.59,3.93-3.15,1.83-2.19,1.55-3.48,1.1-3.73-1.31-5.08-1.41-7.58-5.5-3.42-4.74.25-3.29,2.11-3.07,4-1.24C130,115.78,137.13,120.78,134.32,122.21Z"/>
      <path class="ba589df2-76b3-432d-9b94-6a172f1e897c" d="M98.34,98.61s4.11.23,2.44,2c1.81,1.85,0,4.24-2.26,2.86-1.47,2.25-2.84,2.29-4,.14-5.25.56-9.07-2.33-4.92-3.16-1-3.14.84-3.62,3.28-2.62C92,94.2,100.43,96.24,98.34,98.61Z"/>
      <path class="ba589df2-76b3-432d-9b94-6a172f1e897c" d="M99.86,53.23s4.1.23,2.43,2c1.81,1.85,0,4.24-2.26,2.86-1.47,2.25-2.84,2.3-4,.15-5.25.55-9.07-2.34-4.92-3.17-1-3.14.84-3.62,3.28-2.62C93.51,48.82,102,50.86,99.86,53.23Z"/>
      <path class="ba589df2-76b3-432d-9b94-6a172f1e897c" d="M153.31,67.29s5.2,1.21,2.68,3.07c1.9,2.78-1,5.43-3.53,3.17-2.38,2.54-4.15,2.3-5.08-.7-6.84-.46-11.09-5-5.6-5.14-.54-4.24,1.89-4.46,4.79-2.62C146.18,60.23,156.52,64.72,153.31,67.29Z"/>
      <path class="ba589df2-76b3-432d-9b94-6a172f1e897c" d="M121.39,145.45s13.1,3.69,2.78,6.17c0,0-2.45,8.85-7.33,2s.21-1.73-4.89-6.83S111,140.51,121.39,145.45Z"/>
    </g>
  </g>
</svg>
