<svg id="b01806bb-eee0-42a2-a81d-8849111ca969" data-name="Layer 1" xmlns="http://www.w3.org/2000/svg" width="203.11" height="261.33" viewBox="0 0 203.11 261.33">
  <defs>
    <style>
      .be35c469-0521-4053-9fda-31a5811af63f {
        fill: #5d833a;
      }

      .aa6cfc65-08b1-4659-892a-e5bec19cc448 {
        fill: #286432;
      }

      .e01bc25a-57ea-47bf-84f1-ae13a21af7db {
        fill: #378741;
      }

      .fe4de23f-6675-4be1-93e2-9acc9b5c4533 {
        fill: #806041;
      }

      .a3be01cd-8b57-4a2a-b805-b149b09dfaaf {
        fill: #513a29;
      }

      .b00a1566-ec9e-4fa2-8a82-a6d0a1f6510c {
        fill: #1d4f27;
      }
    </style>
  </defs>
  <g>
    <path class="be35c469-0521-4053-9fda-31a5811af63f" d="M41.15,92.35A59.66,59.66,0,0,1,33.64,98l-.74.41-.48.2-.17.06L31,97.92c.88-5,5.55-9.49,15.55-9.7A67.86,67.86,0,0,0,41.15,92.35Z"/>
    <path class="aa6cfc65-08b1-4659-892a-e5bec19cc448" d="M32.65,71.37a14.12,14.12,0,0,1-5.94-6.09c.4.38.76.78,1.19,1.15a4.59,4.59,0,0,0,5.51,0c.32.23.64.46,1,.68A4.63,4.63,0,0,0,40,67.06a3.08,3.08,0,0,0-.5-4.79c-2-1.36-3.89-2.81-5.89-4.16-1.19-.8-2.43-1.59-3.73-2.29,3.78-2.08,10.2-2.37,18.94,1.1a13,13,0,0,1-3.6-5.56,4.34,4.34,0,0,0,2.61-.43,35.4,35.4,0,0,0,10-2.39A105,105,0,0,1,68,45.05a13,13,0,0,1,4.33-.64l.81.05.63.11.3.08a11.21,11.21,0,0,1,1.11.52,4.22,4.22,0,0,0,5.33-1.3,2.73,2.73,0,0,0,.1-2.57c2-.17,3.69-1.71,3.34-3.46a4.39,4.39,0,0,1,0-1.65,12,12,0,0,0,1.88.12c3.35-.09,4.93-3.83,2.17-5.82C86.87,29.7,85.9,28.8,84.8,28c-.08-.06-.16-.09-.24-.14.18-.64.33-1.29.48-1.93,6.21-2,14.74-.78,23.58,7.43,14.31-2.8,38.42-3.12,38.25,23,12.76-3.6,35.93.66,25.14,19.9,4.93,1.49,9.36,3,12.34,4.9-1.8.3-3.44,1.78-3,3.42.06.21.1.42.15.63a2.21,2.21,0,0,0-.71,1.41,48.09,48.09,0,0,0,.1,7.1c-2.81-.73-6,1.18-4.76,4.09a34.83,34.83,0,0,0,3.5,6,4.46,4.46,0,0,0-4.52,1.4c-1.45-1.52-3-3-4.51-4.42,3.74.19,4.84-4.67,1.31-6.41C152.55,84.93,135.48,71.79,114.56,65c-4.84-1.58-8,3.49-3.4,5.92,6.25,3.28,12.49,6.57,18.62,10,18.16,10.19,36.36,22.32,47.41,38.38l-1.17,0c12.09,11.73-3.7,31.42-25.12,18.49-2.23,11-8.11,16.92-29.09,5.5-8.22,12.61-21-4.28-21-4.28s-16.8,6.58-17.3-7.81c-8.56,8.26-16.22-4.73-16.22-4.73-7.18,10-33.57,4.59-26.89-19.77-6.62,7.22-28.92,3.42-12.84-17.65C12.48,90.9-2.41,61.59,32.65,71.37Z"/>
    <path class="e01bc25a-57ea-47bf-84f1-ae13a21af7db" d="M103.83,124.27s12.76,16.89,21,4.27c21,11.42,26.86,5.47,29.1-5.5,21.41,12.93,37.2-6.76,25.12-18.49,18.92,1,13.23-16.79,2.23-18.21,18.48-16,8.32-20.34-6.24-24.74,10.79-19.23-12.39-23.5-25.15-19.9.18-26.14-23.94-25.83-38.25-23C90-1.46,70.07,20.21,81.87,29.76c-32.4-18-40.17,3.24-30,12.46C29.59,33.4,22.28,48.83,35.65,56.67.59,46.89,15.47,76.2,30.58,74.3,14.51,95.37,36.8,99.17,43.43,92c-6.69,24.36,19.7,29.74,26.89,19.77,0,0,7.66,13,16.21,4.73C87,130.84,103.83,124.27,103.83,124.27Z"/>
    <path class="fe4de23f-6675-4be1-93e2-9acc9b5c4533" d="M100.27,130.65,90.73,159.9s9.79-11.4,25.28-13.28c0,0-21.47,9-24.84,18.17s-9.5,66.85-3.36,81.3C73.1,249.27,77.39,248,77.39,248l-6.13.55-1.11-.11-6.55.79-7.53,2.08s23.56-30.21,20.33-66.48c2-29.7.11-35.48-4.39-50.38L80.43,127S87,149.88,84,158.69l13.35-33.41Z"/>
    <polygon class="a3be01cd-8b57-4a2a-b805-b149b09dfaaf" points="84.11 167.23 81.46 219.35 79.74 159.07 84.11 167.23"/>
    <path class="b00a1566-ec9e-4fa2-8a82-a6d0a1f6510c" d="M58.4,87.87s8.52,18,1.87,10.65S58.4,87.87,58.4,87.87Z"/>
    <path class="aa6cfc65-08b1-4659-892a-e5bec19cc448" d="M139.41,118.64s3.88,1.35,1.8,2.57c1.24,2.28-1.19,4.08-3,2.14-2,1.76-3.35,1.43-3.83-.94-5.2-.9-8.09-4.73-3.87-4.39-.08-3.29,1.8-3.26,3.87-1.62C134.51,112.67,142.07,116.94,139.41,118.64Z"/>
    <path class="aa6cfc65-08b1-4659-892a-e5bec19cc448" d="M101.94,98.74s4.09-.33,2.68,1.63c2,1.58.55,4.2-1.84,3.14-1.15,2.43-2.5,2.67-3.89.69-5.13,1.27-9.31-1.07-5.32-2.46-1.39-3,.34-3.7,2.9-3C95.05,95.24,103.68,96.11,101.94,98.74Z"/>
    <path class="aa6cfc65-08b1-4659-892a-e5bec19cc448" d="M96.19,53.63s4.09-.33,2.68,1.63c2,1.58.55,4.21-1.85,3.15-1.14,2.42-2.49,2.66-3.88.68C88,60.36,83.83,58,87.82,56.64c-1.39-3,.34-3.71,2.9-3C89.3,50.13,97.93,51,96.19,53.63Z"/>
    <path class="aa6cfc65-08b1-4659-892a-e5bec19cc448" d="M75.76,130.72s5.32-.44,3.48,2.11c2.67,2.06.72,5.46-2.39,4.09-1.49,3.14-3.24,3.45-5,.88-6.66,1.65-12.09-1.38-6.9-3.18-1.81-3.87.43-4.82,3.75-4C66.81,126.17,78,127.3,75.76,130.72Z"/>
    <path class="aa6cfc65-08b1-4659-892a-e5bec19cc448" d="M151.07,60.2s5.31.48,3.07,2.67c2.27,2.48-.23,5.51-3.06,3.62-2,2.85-3.79,2.85-5.13,0-6.83.48-11.67-3.44-6.25-4.32-1.12-4.13,1.26-4.67,4.38-3.26C143,54.19,153.89,57.21,151.07,60.2Z"/>
    <path class="aa6cfc65-08b1-4659-892a-e5bec19cc448" d="M130.22,142s13.48,1.84,3.6,5.73c0,0-1.2,9.09-7,3s0-1.75-5.79-6.1S119.26,138.54,130.22,142Z"/>
  </g>
</svg>
