<svg id="e024d307-f99b-408f-b5ca-a5b186266e93" data-name="Layer 1" xmlns="http://www.w3.org/2000/svg" width="471.56" height="495.39" viewBox="0 0 471.56 495.39">
  <defs>
    <style>
      .b8c7aad0-0ad9-4f61-a412-16cb69ab5a3c {
        fill: #7f5a41;
      }

      .b8c7aad0-0ad9-4f61-a412-16cb69ab5a3c, .f0b87cad-b983-4f7d-82c9-74caae7a2b7d {
        fill-rule: evenodd;
      }

      .f0b87cad-b983-4f7d-82c9-74caae7a2b7d {
        fill: #2b8040;
      }
    </style>
  </defs>
  <g>
    <path class="b8c7aad0-0ad9-4f61-a412-16cb69ab5a3c" d="M149.85,199.69S60.69,442,131.27,490.28L186,487S81.2,455.09,174.18,209.31C150.14,200.18,149.85,199.69,149.85,199.69Z"/>
    <g>
      <path class="f0b87cad-b983-4f7d-82c9-74caae7a2b7d" d="M207.46,173.27s18-17.74,30.38-19.16,94.5-6.34,105.59-6.14,70,14.92,72.29,29.76,24.81,43.32,24.81,43.32L394.08,187.8l-14.75-2.32,3.7,17.13-52-38.12,15,21.25s-41.49-23-62.55-27-32.4-1.26-32.4-1.26l-43.95,19.26.31-3.45Z"/>
      <path class="f0b87cad-b983-4f7d-82c9-74caae7a2b7d" d="M145.82,184.83s-15.75-9.37-16.53-17.11-1.68-59.62-1-66.74S152.19,60.3,165,53.75c27.58-14.17,73.47-30.52,73.47-30.52l-50.25,32.5-23.27,17.8,40.21-21.08-62,54.48,20.51-12.16S140.32,124,135.64,138,133,158.84,133,158.84l16,25.77-3.2.22Z"/>
      <path class="f0b87cad-b983-4f7d-82c9-74caae7a2b7d" d="M230.66,170.27s-10.88-27.07-9.49-36S233.55,87,240.36,83.79s20.56-21.2,39.11-12.48C286,74.37,310,76.14,317,82.17c3.75,3.27,35.72,16.68,39.15,20l-60.6-9.42,18.56,16.68c4,4.06,5,9.48,7.63,9.36,34.75-1.56,37.23,48.9,37.23,48.9l-26.59-20.55c30.34,39.28,44,28.53,27.85,85.12L309.42,151.8l-15.48-18.91L285,122.63l16.4,34.25L273.78,131.5,279,146.76l-20.38-16.43,25.53,42.2-53.46-2.26Z"/>
      <path class="f0b87cad-b983-4f7d-82c9-74caae7a2b7d" d="M168.36,198s22.78-9.74,26.15-9.12l23,4.21,16.06,9.31L248,246.17l16.42,19.91,13.16,23.19,10.19,27.42L276,307.84l9,34L258.47,299.2l-16.78-39.26,7.69,33.87-25.23-67-1.34,20.67-10.54-26.23-5.75,7-7.35-10s-8.18-.37-9.5-.34-25.45-13.51-25.45-13.51l4.14-6.49Z"/>
      <path class="f0b87cad-b983-4f7d-82c9-74caae7a2b7d" d="M171.19,189.44a62.26,62.26,0,0,0-17.92-9.06c-9.91-2.94-31.48-6.66-31.48-6.66l-62.63,1.93A33.57,33.57,0,0,0,36,196.46c-6.95,17.76.48,51.46.48,51.46l10.95-28.55,19.35-21.74-1.09,23.93s17.25-40.95,29-41.42S83.5,208.41,83.5,208.41l22.28-2.49,12.38-27L120.73,201s7.65-20.87,8.2-21.11,25.78,2.95,42.26,9.51Z"/>
      <path class="f0b87cad-b983-4f7d-82c9-74caae7a2b7d" d="M166.32,209.22c-2.61-1.06-21.46-11.22-21.48-14.91s20.51-8.31,27.59-7.59L249,194.47l-18.76,9.85c39.72,15.51,67.74,26,94,61.13l-37.94-23.56-5.24,7.85-34-11.39-30.21-26.57L169.48,199l-3.16,10.24Z"/>
      <path class="f0b87cad-b983-4f7d-82c9-74caae7a2b7d" d="M161.07,192.16c-20.91-25.66,11.72-34.89,18.42-36.22s26.24-9.14,52.09-4.09c5.85,1.13,25.15,3.77,32.57,5,25.34,4.21,64.57,11.24,67.39,13.35,38,25.27,68.9,32,115,84.7l-61.73-23.32c47.42,30,48.76,30.1,52.32,64.12L398.7,259.38l-4.94,9.89L364,231.52l9.74,27.81-49.86-52.67,5.29,17,20,24.7-59.29-28.43s-14.28-15.75-17.54-16.26-34.58-14.15-40.8-13.28-70.53,1.76-70.53,1.76Z"/>
      <path class="f0b87cad-b983-4f7d-82c9-74caae7a2b7d" d="M189.3,176.12c-2.45-1.14-44.77,24.59-44.37,18.64s8.61-60.79,19.3-74.82,9.08-34.2,31.33-40S254,57.7,296.24,89.2l43.33,19.21-75.5-4.15,23.22,12.24-67.42-7.68,7.93,13.83,12.73,5.95-36-5.49s29.69,14.3,28.45,16.18-17.67,9.4-26.31-.65-17.36,37.49-17.35,37.48Z"/>
    </g>
  </g>
</svg>
