<svg id="bee78751-7780-450d-b55f-332943e6de01" data-name="Layer 1" xmlns="http://www.w3.org/2000/svg" width="2174.4" height="261.48" viewBox="0 0 2174.4 261.48">
  <defs>
    <style>
      .f321a01a-4133-47de-8bdd-95aab7f50593 {
        opacity: 0.6;
      }

      .bec51059-8cb8-445a-bee4-a885108afe11 {
        fill: #fff;
      }
    </style>
  </defs>
  <g class="f321a01a-4133-47de-8bdd-95aab7f50593">
    <path class="bec51059-8cb8-445a-bee4-a885108afe11" d="M797.12,256c-34.21-6.81-82-26.21-81.86-67.37.34-16.73,7.87-32.79,19.15-44.93,15-15.88,32.63-29.54,53-37.94,71.74-29.52,123.38,32.51,152.43,90.63,1.59,3.25,4.59,9.41,6.37,12.51a55.3,55.3,0,0,0,11.43,13.44c16.09,14.16,41.1,16.47,59.65,5.66a51.85,51.85,0,0,1-31,7.9c-17.18-.93-33.43-10.87-42.56-25.47-7.55-13.58-14.4-27.24-23.18-40.15-29.85-45.66-74.41-83.37-131.29-60-19.58,8-36.94,21.23-51.61,36.4C723.52,161.52,714.48,183.74,721,204c10.11,29.49,48,45,76.1,52Z"/>
  </g>
</svg>
