<svg id="b5eb6107-52b3-44d1-8f42-e9faa6d78b64" data-name="Layer 1" xmlns="http://www.w3.org/2000/svg" width="392" height="117" viewBox="0 0 392 117">
  <defs>
    <style>
      .e30283ca-c46a-42e9-8694-ba9e6fd2a0ca {
        fill: #9934ce;
        stroke: #fff;
        stroke-miterlimit: 10;
        stroke-width: 4px;
      }

      .a125eba9-eeb9-44c8-99d0-e9111c075683 {
        fill: #360d42;
      }

      .e3c92a6c-fe0b-4cad-9908-4b8d439ba8aa {
        fill: #fff5b8;
      }
    </style>
  </defs>
  <g>
    <rect id="b1bba5ed-e379-470d-b6b7-68fe63951e81" data-name="shadow" class="e30283ca-c46a-42e9-8694-ba9e6fd2a0ca" x="3.01" y="3.16" width="385.73" height="109" rx="54.5"/>
    <g>
      <g>
        <path class="a125eba9-eeb9-44c8-99d0-e9111c075683" d="M70,54.89a20.88,20.88,0,0,1-1.22,7.29,15.32,15.32,0,0,1-8.91,9.16,18.73,18.73,0,0,1-7.06,1.27,36,36,0,0,1-7-.73,33,33,0,0,1-6.61-2V24.34h9.36v20.9a11,11,0,0,1,4-2.7,13.92,13.92,0,0,1,5.11-.9,13.2,13.2,0,0,1,5,.94,10.81,10.81,0,0,1,3.91,2.67,12.48,12.48,0,0,1,2.5,4.18A16,16,0,0,1,70,54.89Zm-9.36,1.69a6.15,6.15,0,0,0-1.42-4.3,5.11,5.11,0,0,0-4-1.56,6.43,6.43,0,0,0-5,2.14,6.48,6.48,0,0,0-1.35,2.26,8,8,0,0,0-.45,2.67v5.36a9,9,0,0,0,2.21.83,14.47,14.47,0,0,0,2.56.19,7.28,7.28,0,0,0,5.44-2A7.64,7.64,0,0,0,60.62,56.58Z"/>
        <path class="a125eba9-eeb9-44c8-99d0-e9111c075683" d="M95.68,71.77a11.48,11.48,0,0,1-.6-1.62q-.18-.63-.39-1.83a13.8,13.8,0,0,1-9.93,4.29,10.24,10.24,0,0,1-7.56-3.22A10,10,0,0,1,75,65.76,13.6,13.6,0,0,1,74.2,61c0-1.92,0-3.7.14-5.34s.17-3.22.22-4.73,0-3,0-4.52-.17-3.11-.36-4.8h9.37c.14,1.54.22,3,.24,4.45s0,2.83,0,4.24-.07,2.83-.14,4.27-.1,3-.1,4.62A7.51,7.51,0,0,0,84,62.1a3.18,3.18,0,0,0,2.56,2.11,10.87,10.87,0,0,0,1.25.1,7.2,7.2,0,0,0,1.5-.27,4.88,4.88,0,0,0,2.13-1.29,8.68,8.68,0,0,0,1.87-3,14.2,14.2,0,0,0,.81-5.29V41.64h9.36V62.11a35.32,35.32,0,0,0,.42,5.35A17.29,17.29,0,0,0,105,71.77Z"/>
        <path class="a125eba9-eeb9-44c8-99d0-e9111c075683" d="M132.07,50.3c-.66-.14-1.17-.24-1.55-.28a9.55,9.55,0,0,0-1.26-.07,7.13,7.13,0,0,0-6.09,2.75q-2.08,2.74-2.08,8.17V72.61h-9.36V52.28c0-1.15,0-2.14,0-3s-.08-1.64-.17-2.37-.23-1.46-.39-2.17-.39-1.53-.67-2.45h8.89c.14.58.28,1.07.4,1.48a8.11,8.11,0,0,1,.25,1.16c0,.36.1.74.15,1.15s.07.91.07,1.48a16,16,0,0,1,4-4.58,7.61,7.61,0,0,1,4.47-1.34,6.52,6.52,0,0,1,1.66.18,15.8,15.8,0,0,1,1.86.69Z"/>
        <path class="a125eba9-eeb9-44c8-99d0-e9111c075683" d="M154,72.61V55a7.23,7.23,0,0,0-.46-2.85,4.13,4.13,0,0,0-1.09-1.53,2.76,2.76,0,0,0-1.34-.61,8.26,8.26,0,0,0-1.2-.1,7.18,7.18,0,0,0-1.48.27,5,5,0,0,0-2.14,1.29,8.84,8.84,0,0,0-1.94,3,13.79,13.79,0,0,0-.84,5.3V72.61h-9.37V52.14a35.19,35.19,0,0,0-.42-5.34,17.26,17.26,0,0,0-1.13-4.32h9.37a14.71,14.71,0,0,1,.6,1.62c.11.43.24,1,.38,1.83a14.58,14.58,0,0,1,4.83-3.23A13.85,13.85,0,0,1,153,41.64a10.23,10.23,0,0,1,4.11.82,9.84,9.84,0,0,1,3.27,2.3,10.56,10.56,0,0,1,2.18,3.63,14.14,14.14,0,0,1,.79,4.83V72.61Z"/>
        <path class="a125eba9-eeb9-44c8-99d0-e9111c075683" d="M181.42,33.14a3.86,3.86,0,0,1-1.62,3.13,6.5,6.5,0,0,1-7.81,0A4.19,4.19,0,0,1,170.3,33a3.81,3.81,0,0,1,1.55-3.22,6.7,6.7,0,0,1,6.16-1,5.59,5.59,0,0,1,1.76,1A4.93,4.93,0,0,1,181,31.31,3.82,3.82,0,0,1,181.42,33.14ZM170.86,72.61v-31h9.36v31Z"/>
        <path class="a125eba9-eeb9-44c8-99d0-e9111c075683" d="M206.69,72.61V55a7.25,7.25,0,0,0-.45-2.85,4.13,4.13,0,0,0-1.09-1.53,2.8,2.8,0,0,0-1.34-.61,8.26,8.26,0,0,0-1.2-.1,7.18,7.18,0,0,0-1.48.27A5.11,5.11,0,0,0,199,51.51a8.83,8.83,0,0,0-1.93,3,13.77,13.77,0,0,0-.85,5.3V72.61h-9.36V52.14a35.19,35.19,0,0,0-.42-5.34,17.26,17.26,0,0,0-1.13-4.32h9.37a12.59,12.59,0,0,1,.59,1.62q.18.65.39,1.83a14.58,14.58,0,0,1,4.83-3.23,13.82,13.82,0,0,1,5.24-1.06,10.14,10.14,0,0,1,4.1.82,9.78,9.78,0,0,1,3.28,2.3,10.54,10.54,0,0,1,2.17,3.63,13.9,13.9,0,0,1,.8,4.83V72.61Z"/>
        <path class="a125eba9-eeb9-44c8-99d0-e9111c075683" d="M252.8,73.6a32.82,32.82,0,0,1-1.18,9.54,16.67,16.67,0,0,1-3.23,6.16,11.81,11.81,0,0,1-4.85,3.34,17.77,17.77,0,0,1-6.11,1,53.83,53.83,0,0,1-6.28-.38,22.64,22.64,0,0,1-5.93-1.52V84.65a38.19,38.19,0,0,0,5.39,1.52,23.65,23.65,0,0,0,4.54.53,7.9,7.9,0,0,0,3.36-.71,6.68,6.68,0,0,0,2.63-2.25,11.77,11.77,0,0,0,1.7-4.08,27,27,0,0,0,.6-6.13v-3.1a10.67,10.67,0,0,1-4,2.36,16.45,16.45,0,0,1-4.37.53,13.71,13.71,0,0,1-5.49-1.06,12,12,0,0,1-4.19-3,13.34,13.34,0,0,1-2.67-4.61,19.4,19.4,0,0,1,.51-13.38,15.82,15.82,0,0,1,4.18-5.6A18.56,18.56,0,0,1,234,42.17a28.58,28.58,0,0,1,8.71-1.24c1,0,1.88,0,2.64,0a20.89,20.89,0,0,1,2.25.18c.74.09,1.52.22,2.35.38s1.8.39,2.89.67Zm-9.36-23.51c-.82-.14-1.44-.24-1.85-.28a14.21,14.21,0,0,0-1.63-.07A8.92,8.92,0,0,0,233.48,52a8.39,8.39,0,0,0-2.36,6.3,6,6,0,0,0,1.56,4.44,5.29,5.29,0,0,0,3.88,1.55,11.75,11.75,0,0,0,2.53-.28,4.49,4.49,0,0,0,2.21-1.27,6.87,6.87,0,0,0,1.56-2.85,17.46,17.46,0,0,0,.58-5Z"/>
        <path class="a125eba9-eeb9-44c8-99d0-e9111c075683" d="M278.85,72.61V48.33h-6.19V41.64h6.19V33.82h9.22v7.82h8v6.69h-8V72.61Z"/>
        <path class="a125eba9-eeb9-44c8-99d0-e9111c075683" d="M319.19,72.61a11.8,11.8,0,0,0-.08-1.19c-.05-.38-.09-.82-.11-1.34s-.06-1.06-.11-1.62a11,11,0,0,1-4.59,3.63,14.83,14.83,0,0,1-6,1.23q-5.79,0-9-3.8T296.1,58.68q0-8.52,5.17-13.13T316,40.93c1.05,0,2,0,2.86.08s1.71.13,2.57.24,1.73.27,2.64.46,1.9.45,3,.77v20c0,1.08,0,2.22.08,3.41s.11,2.29.21,3.28c.09,1.17.18,2.32.28,3.44Zm-1.48-23a15.77,15.77,0,0,0-2.22-.35c-.67,0-1.29-.07-1.86-.07a7.53,7.53,0,0,0-6,2.5,10.33,10.33,0,0,0-2.15,6.94,6.86,6.86,0,0,0,1.29,4.5,4.5,4.5,0,0,0,3.65,1.55,6.48,6.48,0,0,0,2.83-.63,7.1,7.1,0,0,0,2.33-1.8,8.6,8.6,0,0,0,1.58-2.74,10.47,10.47,0,0,0,.57-3.56Z"/>
        <path class="a125eba9-eeb9-44c8-99d0-e9111c075683" d="M354.46,50.3c-.66-.14-1.17-.24-1.55-.28a9.81,9.81,0,0,0-1.27-.07,7.15,7.15,0,0,0-6.09,2.75q-2.07,2.74-2.07,8.17V72.61h-9.37V52.28c0-1.15,0-2.14,0-3a21.37,21.37,0,0,0-.18-2.37,21.84,21.84,0,0,0-.38-2.17c-.17-.72-.39-1.53-.67-2.45h8.88c.15.58.28,1.07.4,1.48a7,7,0,0,1,.26,1.16c.05.36.1.74.14,1.15a12.44,12.44,0,0,1,.08,1.48,15.8,15.8,0,0,1,4-4.58,7.61,7.61,0,0,1,4.47-1.34,6.39,6.39,0,0,1,1.65.18,15.19,15.19,0,0,1,1.87.69Z"/>
      </g>
      <g>
        <path class="e3c92a6c-fe0b-4cad-9908-4b8d439ba8aa" d="M68,53.89a20.88,20.88,0,0,1-1.22,7.29,15.32,15.32,0,0,1-8.91,9.16,18.73,18.73,0,0,1-7.06,1.27,36,36,0,0,1-7-.73,33,33,0,0,1-6.61-2V23.34h9.36v20.9a11,11,0,0,1,4-2.7,13.92,13.92,0,0,1,5.11-.9,13.2,13.2,0,0,1,5,.94,10.81,10.81,0,0,1,3.91,2.67,12.48,12.48,0,0,1,2.5,4.18A16,16,0,0,1,68,53.89Zm-9.36,1.69a6.15,6.15,0,0,0-1.42-4.3,5.11,5.11,0,0,0-4-1.56,6.43,6.43,0,0,0-5,2.14,6.48,6.48,0,0,0-1.35,2.26,8,8,0,0,0-.45,2.67v5.36a9,9,0,0,0,2.21.83,14.47,14.47,0,0,0,2.56.19,7.28,7.28,0,0,0,5.44-2A7.64,7.64,0,0,0,58.62,55.58Z"/>
        <path class="e3c92a6c-fe0b-4cad-9908-4b8d439ba8aa" d="M93.68,70.77a11.48,11.48,0,0,1-.6-1.62q-.18-.63-.39-1.83a13.8,13.8,0,0,1-9.93,4.29,10.24,10.24,0,0,1-7.56-3.22A10,10,0,0,1,73,64.76,13.6,13.6,0,0,1,72.2,60c0-1.92,0-3.7.14-5.34s.17-3.22.22-4.73,0-3,0-4.52-.17-3.11-.36-4.8h9.37c.14,1.54.22,3,.24,4.45s0,2.83,0,4.24-.07,2.83-.14,4.27-.1,3-.1,4.62A7.51,7.51,0,0,0,82,61.1a3.18,3.18,0,0,0,2.56,2.11,10.87,10.87,0,0,0,1.25.1,7.2,7.2,0,0,0,1.5-.27,4.88,4.88,0,0,0,2.13-1.29,8.68,8.68,0,0,0,1.87-3,14.2,14.2,0,0,0,.81-5.29V40.64h9.36V61.11a35.32,35.32,0,0,0,.42,5.35A17.29,17.29,0,0,0,103,70.77Z"/>
        <path class="e3c92a6c-fe0b-4cad-9908-4b8d439ba8aa" d="M130.07,49.3c-.66-.14-1.17-.24-1.55-.28a9.55,9.55,0,0,0-1.26-.07,7.13,7.13,0,0,0-6.09,2.75q-2.08,2.74-2.08,8.17V71.61h-9.36V51.28c0-1.15,0-2.14,0-3s-.08-1.64-.17-2.37-.23-1.46-.39-2.17-.39-1.53-.67-2.45h8.89c.14.58.28,1.07.4,1.48a8.11,8.11,0,0,1,.25,1.16c0,.36.1.74.15,1.15s.07.91.07,1.48a16,16,0,0,1,4-4.58,7.61,7.61,0,0,1,4.47-1.34,6.52,6.52,0,0,1,1.66.18,15.8,15.8,0,0,1,1.86.69Z"/>
        <path class="e3c92a6c-fe0b-4cad-9908-4b8d439ba8aa" d="M152,71.61V54a7.23,7.23,0,0,0-.46-2.85,4.13,4.13,0,0,0-1.09-1.53,2.76,2.76,0,0,0-1.34-.61,8.26,8.26,0,0,0-1.2-.1,7.18,7.18,0,0,0-1.48.27,5,5,0,0,0-2.14,1.29,8.84,8.84,0,0,0-1.94,3,13.79,13.79,0,0,0-.84,5.3V71.61h-9.37V51.14a35.19,35.19,0,0,0-.42-5.34,17.26,17.26,0,0,0-1.13-4.32h9.37a14.71,14.71,0,0,1,.6,1.62c.11.43.24,1,.38,1.83a14.58,14.58,0,0,1,4.83-3.23A13.85,13.85,0,0,1,151,40.64a10.23,10.23,0,0,1,4.11.82,9.84,9.84,0,0,1,3.27,2.3,10.56,10.56,0,0,1,2.18,3.63,14.14,14.14,0,0,1,.79,4.83V71.61Z"/>
        <path class="e3c92a6c-fe0b-4cad-9908-4b8d439ba8aa" d="M179.42,32.14a3.86,3.86,0,0,1-1.62,3.13,6.5,6.5,0,0,1-7.81,0A4.19,4.19,0,0,1,168.3,32a3.81,3.81,0,0,1,1.55-3.22,6.7,6.7,0,0,1,6.16-1,5.59,5.59,0,0,1,1.76,1A4.93,4.93,0,0,1,179,30.31,3.82,3.82,0,0,1,179.42,32.14ZM168.86,71.61v-31h9.36v31Z"/>
        <path class="e3c92a6c-fe0b-4cad-9908-4b8d439ba8aa" d="M204.69,71.61V54a7.25,7.25,0,0,0-.45-2.85,4.13,4.13,0,0,0-1.09-1.53,2.8,2.8,0,0,0-1.34-.61,8.26,8.26,0,0,0-1.2-.1,7.18,7.18,0,0,0-1.48.27A5.11,5.11,0,0,0,197,50.51a8.83,8.83,0,0,0-1.93,3,13.77,13.77,0,0,0-.85,5.3V71.61h-9.36V51.14a35.19,35.19,0,0,0-.42-5.34,17.26,17.26,0,0,0-1.13-4.32h9.37a12.59,12.59,0,0,1,.59,1.62q.18.65.39,1.83a14.58,14.58,0,0,1,4.83-3.23,13.82,13.82,0,0,1,5.24-1.06,10.14,10.14,0,0,1,4.1.82,9.78,9.78,0,0,1,3.28,2.3,10.54,10.54,0,0,1,2.17,3.63,13.9,13.9,0,0,1,.8,4.83V71.61Z"/>
        <path class="e3c92a6c-fe0b-4cad-9908-4b8d439ba8aa" d="M250.8,72.6a32.82,32.82,0,0,1-1.18,9.54,16.67,16.67,0,0,1-3.23,6.16,11.81,11.81,0,0,1-4.85,3.34,17.77,17.77,0,0,1-6.11,1,53.83,53.83,0,0,1-6.28-.38,22.64,22.64,0,0,1-5.93-1.52V83.65a38.19,38.19,0,0,0,5.39,1.52,23.65,23.65,0,0,0,4.54.53,7.9,7.9,0,0,0,3.36-.71,6.68,6.68,0,0,0,2.63-2.25,11.77,11.77,0,0,0,1.7-4.08,27,27,0,0,0,.6-6.13v-3.1a10.67,10.67,0,0,1-4,2.36,16.45,16.45,0,0,1-4.37.53,13.71,13.71,0,0,1-5.49-1.06,12,12,0,0,1-4.19-3,13.34,13.34,0,0,1-2.67-4.61,19.4,19.4,0,0,1,.51-13.38,15.82,15.82,0,0,1,4.18-5.6A18.56,18.56,0,0,1,232,41.17a28.58,28.58,0,0,1,8.71-1.24c1,0,1.88,0,2.64,0a20.89,20.89,0,0,1,2.25.18c.74.09,1.52.22,2.35.38s1.8.39,2.89.67Zm-9.36-23.51c-.82-.14-1.44-.24-1.85-.28a14.21,14.21,0,0,0-1.63-.07A8.92,8.92,0,0,0,231.48,51a8.39,8.39,0,0,0-2.36,6.3,6,6,0,0,0,1.56,4.44,5.29,5.29,0,0,0,3.88,1.55,11.75,11.75,0,0,0,2.53-.28,4.49,4.49,0,0,0,2.21-1.27,6.87,6.87,0,0,0,1.56-2.85,17.46,17.46,0,0,0,.58-5Z"/>
        <path class="e3c92a6c-fe0b-4cad-9908-4b8d439ba8aa" d="M276.85,71.61V47.33h-6.19V40.64h6.19V32.82h9.22v7.82h8v6.69h-8V71.61Z"/>
        <path class="e3c92a6c-fe0b-4cad-9908-4b8d439ba8aa" d="M317.19,71.61a11.8,11.8,0,0,0-.08-1.19c-.05-.38-.09-.82-.11-1.34s-.06-1.06-.11-1.62a11,11,0,0,1-4.59,3.63,14.83,14.83,0,0,1-6,1.23q-5.79,0-9-3.8T294.1,57.68q0-8.52,5.17-13.13T314,39.93c1.05,0,2,0,2.86.08s1.71.13,2.57.24,1.73.27,2.64.46,1.9.45,3,.77v20c0,1.08,0,2.22.08,3.41s.11,2.29.21,3.28c.09,1.17.18,2.32.28,3.44Zm-1.48-23a15.77,15.77,0,0,0-2.22-.35c-.67,0-1.29-.07-1.86-.07a7.53,7.53,0,0,0-6,2.5,10.33,10.33,0,0,0-2.15,6.94,6.86,6.86,0,0,0,1.29,4.5,4.5,4.5,0,0,0,3.65,1.55,6.48,6.48,0,0,0,2.83-.63,7.1,7.1,0,0,0,2.33-1.8,8.6,8.6,0,0,0,1.58-2.74,10.47,10.47,0,0,0,.57-3.56Z"/>
        <path class="e3c92a6c-fe0b-4cad-9908-4b8d439ba8aa" d="M352.46,49.3c-.66-.14-1.17-.24-1.55-.28a9.81,9.81,0,0,0-1.27-.07,7.15,7.15,0,0,0-6.09,2.75q-2.07,2.74-2.07,8.17V71.61h-9.37V51.28c0-1.15,0-2.14,0-3a21.37,21.37,0,0,0-.18-2.37,21.84,21.84,0,0,0-.38-2.17c-.17-.72-.39-1.53-.67-2.45h8.88c.15.58.28,1.07.4,1.48a7,7,0,0,1,.26,1.16c.05.36.1.74.14,1.15a12.44,12.44,0,0,1,.08,1.48,15.8,15.8,0,0,1,4-4.58,7.61,7.61,0,0,1,4.47-1.34,6.39,6.39,0,0,1,1.65.18,15.19,15.19,0,0,1,1.87.69Z"/>
      </g>
    </g>
  </g>
</svg>
