<svg id="e7f39e52-1c36-4879-b18a-e2064478a94d" data-name="Layer 1" xmlns="http://www.w3.org/2000/svg" width="943" height="114.1" viewBox="0 0 943 114.1">
  <defs>
    <style>
      .bcaf22a0-f8d1-4826-a73c-e758c353af99 {
        fill: #9934ce;
      }

      .bfbe41cc-3476-4d08-9703-5897a24c8467 {
        fill: #fff;
      }

      .a1e4069e-c753-4d63-bc8e-8e1defcf7480 {
        fill: #370244;
      }

      .bad7a3dc-dd4e-4e17-b6ac-9264b82a4660 {
        fill: #fff5b8;
      }
    </style>
  </defs>
  <g>
    <rect id="e61562e4-11f5-4933-9086-a9edd6cfea91" data-name="shadow" class="bcaf22a0-f8d1-4826-a73c-e758c353af99" x="6.4" y="2.5" width="930.1" height="109" rx="54.5"/>
    <path class="bfbe41cc-3476-4d08-9703-5897a24c8467" d="M882.1,113.5H60.9a56.5,56.5,0,0,1,0-113H882.1a56.5,56.5,0,0,1,0,113ZM60.9,4.5a52.5,52.5,0,0,0,0,105H882.1a52.5,52.5,0,0,0,0-105Z"/>
  </g>
  <g>
    <g>
      <path class="a1e4069e-c753-4d63-bc8e-8e1defcf7480" d="M105,58.7a21.5,21.5,0,0,1-1.2,7.3,16.1,16.1,0,0,1-3.5,5.6,15.3,15.3,0,0,1-5.4,3.5,18,18,0,0,1-7.1,1.3,35.9,35.9,0,0,1-13.6-2.7V28.1h9.3V49a11.8,11.8,0,0,1,4-2.7,14.6,14.6,0,0,1,5.2-.9,11.8,11.8,0,0,1,5,1,11.6,11.6,0,0,1,3.9,2.6,12.7,12.7,0,0,1,2.5,4.2A15.9,15.9,0,0,1,105,58.7Zm-9.4,1.7a5.7,5.7,0,0,0-1.4-4.3,4.8,4.8,0,0,0-4-1.6,6.4,6.4,0,0,0-2.8.6,8,8,0,0,0-2.1,1.5,7.9,7.9,0,0,0-1.4,2.3,8,8,0,0,0-.4,2.7v5.3a7.9,7.9,0,0,0,2.2.9l2.5.2a7.2,7.2,0,0,0,5.5-2.1A7.4,7.4,0,0,0,95.6,60.4Z"/>
      <path class="a1e4069e-c753-4d63-bc8e-8e1defcf7480" d="M130.7,75.6a8.8,8.8,0,0,1-.6-1.7c-.1-.4-.2-1-.4-1.8a13.6,13.6,0,0,1-9.9,4.3,9.9,9.9,0,0,1-4.2-.9,9.8,9.8,0,0,1-3.4-2.3,10.9,10.9,0,0,1-2.2-3.6,14.6,14.6,0,0,1-.8-4.8c0-1.9.1-3.7.2-5.3s.1-3.2.2-4.8V50.2c-.1-1.5-.2-3.1-.4-4.8h9.4c.1,1.6.2,3,.2,4.5a29.4,29.4,0,0,1,0,4.2c0,1.4,0,2.8-.1,4.3s-.1,3-.1,4.6a7.8,7.8,0,0,0,.4,2.9,3.1,3.1,0,0,0,1.2,1.5,3.5,3.5,0,0,0,1.4.6h1.2l1.5-.3a4.6,4.6,0,0,0,2.2-1.3,7,7,0,0,0,1.8-3,12.5,12.5,0,0,0,.9-5.2V45.4h9.3V65.9a49.1,49.1,0,0,0,.4,5.3,17,17,0,0,0,1.2,4.4Z"/>
      <path class="a1e4069e-c753-4d63-bc8e-8e1defcf7480" d="M167.1,54.1l-1.6-.3h-1.2a7.3,7.3,0,0,0-6.1,2.8c-1.4,1.8-2.1,4.5-2.1,8.2V76.4h-9.3V56.1c0-1.2-.1-2.2-.1-3a16.6,16.6,0,0,0-.2-2.4l-.3-2.2c-.2-.7-.4-1.5-.7-2.4h8.9c.1.6.3,1,.4,1.5a5.2,5.2,0,0,1,.2,1.1c.1.4.1.8.2,1.2v1.4a18.5,18.5,0,0,1,4-4.5,7.7,7.7,0,0,1,4.5-1.4l1.7.2,1.8.7Z"/>
      <path class="a1e4069e-c753-4d63-bc8e-8e1defcf7480" d="M189,76.4V58.8a7,7,0,0,0-.5-2.8,3.8,3.8,0,0,0-1.1-1.6,3.1,3.1,0,0,0-1.3-.6h-1.2l-1.5.3a4.8,4.8,0,0,0-2.1,1.3,10.4,10.4,0,0,0-2,3,15.2,15.2,0,0,0-.8,5.3V76.4h-9.4V55.9a32.3,32.3,0,0,0-.4-5.3,16.6,16.6,0,0,0-1.1-4.3H177a13.8,13.8,0,0,0,.6,1.6,16.4,16.4,0,0,1,.3,1.8,15.4,15.4,0,0,1,4.9-3.2,13.9,13.9,0,0,1,5.2-1.1,11.1,11.1,0,0,1,4.1.8,11.4,11.4,0,0,1,3.3,2.3,12.1,12.1,0,0,1,2.2,3.7,14.2,14.2,0,0,1,.8,4.8V76.4Z"/>
      <path class="a1e4069e-c753-4d63-bc8e-8e1defcf7480" d="M216.4,36.9a3.9,3.9,0,0,1-1.6,3.2,6.2,6.2,0,0,1-3.8,1.2,6,6,0,0,1-4-1.3,4.1,4.1,0,0,1-1.7-3.2,3.9,3.9,0,0,1,1.6-3.2,6.1,6.1,0,0,1,4.1-1.3,6.4,6.4,0,0,1,2,.3,7.7,7.7,0,0,1,1.8,1,4.4,4.4,0,0,1,1.2,1.5A3.9,3.9,0,0,1,216.4,36.9ZM205.9,76.4v-31h9.4v31Z"/>
      <path class="a1e4069e-c753-4d63-bc8e-8e1defcf7480" d="M241.7,76.4V58.8a7.2,7.2,0,0,0-.4-2.8,5,5,0,0,0-1.1-1.6,4.2,4.2,0,0,0-1.4-.6h-1.2l-1.4.3a5.1,5.1,0,0,0-2.2,1.3,8.6,8.6,0,0,0-1.9,3,13,13,0,0,0-.9,5.3V76.4h-9.3V55.9a32.7,32.7,0,0,0-.5-5.3,13.3,13.3,0,0,0-1.1-4.3h9.4a8.2,8.2,0,0,1,.6,1.6c.1.4.2,1,.4,1.8a14.7,14.7,0,0,1,10-4.3,10.7,10.7,0,0,1,4.1.8,11.4,11.4,0,0,1,3.3,2.3,10.4,10.4,0,0,1,2.2,3.7,14.2,14.2,0,0,1,.8,4.8V76.4Z"/>
      <path class="a1e4069e-c753-4d63-bc8e-8e1defcf7480" d="M287.8,77.4a31.9,31.9,0,0,1-1.2,9.5,15.2,15.2,0,0,1-3.2,6.2,11.9,11.9,0,0,1-4.8,3.3,17.4,17.4,0,0,1-6.1,1.1c-2.1,0-4.2-.2-6.3-.4a27.7,27.7,0,0,1-6-1.5V88.4a45.8,45.8,0,0,0,5.4,1.6,29.1,29.1,0,0,0,4.6.5,8.8,8.8,0,0,0,3.3-.7,6.6,6.6,0,0,0,2.7-2.3,12.1,12.1,0,0,0,1.7-4.1,26.2,26.2,0,0,0,.6-6.1V74.2a12.4,12.4,0,0,1-4,2.4,19.7,19.7,0,0,1-4.4.5,13.8,13.8,0,0,1-5.5-1,14,14,0,0,1-4.2-3,16,16,0,0,1-2.7-4.6,18.9,18.9,0,0,1-.9-6,19.1,19.1,0,0,1,1.4-7.4,16.5,16.5,0,0,1,4.2-5.6A18.9,18.9,0,0,1,269,46a26.5,26.5,0,0,1,8.7-1.3h4.9l2.3.4,2.9.7Zm-9.3-23.5-1.9-.3H275a9,9,0,0,0-6.5,2.3,8.2,8.2,0,0,0-2.4,6.3,6.1,6.1,0,0,0,1.6,4.4,5,5,0,0,0,3.9,1.6,10.1,10.1,0,0,0,2.5-.3,4.2,4.2,0,0,0,2.2-1.3,6.3,6.3,0,0,0,1.6-2.8,16.6,16.6,0,0,0,.6-5Z"/>
      <path class="a1e4069e-c753-4d63-bc8e-8e1defcf7480" d="M333.9,67.8a9,9,0,0,1-3,7.1c-2,1.7-4.8,2.6-8.4,2.6a39.7,39.7,0,0,1-7.1-.7,22.3,22.3,0,0,1-5.7-1.9l1.2-7.2c4.1,2.1,7.7,3.1,10.7,3.1a3,3,0,0,0,2.2-.6,2.1,2.1,0,0,0,.7-1.5,3.5,3.5,0,0,0-.5-1.8,8.4,8.4,0,0,0-2.6-1.6,45.8,45.8,0,0,1-5-2.6,15.2,15.2,0,0,1-3.3-2.6,8.5,8.5,0,0,1-1.9-2.9,9.5,9.5,0,0,1-.6-3.5,7.9,7.9,0,0,1,3.4-6.9c2.2-1.6,5.2-2.4,8.9-2.4a27.5,27.5,0,0,1,5.2.4,23.7,23.7,0,0,1,5.3,1.8l-1.2,7.1a18.3,18.3,0,0,0-9.4-2.4,3.3,3.3,0,0,0-2.3.6,2.1,2.1,0,0,0-.6,1.6,2.4,2.4,0,0,0,1,1.9,19.6,19.6,0,0,0,3.7,1.9c1.7.9,3.1,1.7,4.3,2.5a11.8,11.8,0,0,1,2.9,2.3,8.4,8.4,0,0,1,1.6,2.7A9.4,9.4,0,0,1,333.9,67.8Z"/>
      <path class="a1e4069e-c753-4d63-bc8e-8e1defcf7480" d="M341,76.4V52.1h-6.2V45.4H341V37.6h9.2v7.8h8v6.7h-8V76.4Z"/>
      <path class="a1e4069e-c753-4d63-bc8e-8e1defcf7480" d="M380.7,75.6a8.8,8.8,0,0,1-.6-1.7,12.7,12.7,0,0,1-.4-1.8,13.6,13.6,0,0,1-9.9,4.3,9.9,9.9,0,0,1-4.2-.9,9.8,9.8,0,0,1-3.4-2.3,9.5,9.5,0,0,1-2.2-3.6,14.6,14.6,0,0,1-.8-4.8c0-1.9.1-3.7.2-5.3s.1-3.2.2-4.8V50.2c-.1-1.5-.2-3.1-.4-4.8h9.4c.1,1.6.2,3,.2,4.5v4.2c0,1.4,0,2.8-.1,4.3s-.1,3-.1,4.6a7.8,7.8,0,0,0,.4,2.9,3.1,3.1,0,0,0,1.2,1.5,3.5,3.5,0,0,0,1.4.6h1.2l1.5-.3a5.1,5.1,0,0,0,2.2-1.3,7,7,0,0,0,1.8-3,12.6,12.6,0,0,0,.8-5.2V45.4h9.4V65.9a32.3,32.3,0,0,0,.4,5.3,23.3,23.3,0,0,0,1.1,4.4Z"/>
      <path class="a1e4069e-c753-4d63-bc8e-8e1defcf7480" d="M427,58.7a21.5,21.5,0,0,1-1.2,7.3,16.1,16.1,0,0,1-3.5,5.6,15.3,15.3,0,0,1-5.4,3.5,18,18,0,0,1-7.1,1.3,35.9,35.9,0,0,1-13.6-2.7V28.1h9.3V49a11.8,11.8,0,0,1,4-2.7,14.6,14.6,0,0,1,5.2-.9,11.8,11.8,0,0,1,5,1,11.6,11.6,0,0,1,3.9,2.6,12.7,12.7,0,0,1,2.5,4.2A15.9,15.9,0,0,1,427,58.7Zm-9.4,1.7a5.7,5.7,0,0,0-1.4-4.3,4.8,4.8,0,0,0-4-1.6,6.4,6.4,0,0,0-2.8.6,8,8,0,0,0-2.1,1.5,7.9,7.9,0,0,0-1.4,2.3,8,8,0,0,0-.4,2.7v5.3a7.9,7.9,0,0,0,2.2.9l2.5.2a7.2,7.2,0,0,0,5.5-2.1A7.4,7.4,0,0,0,417.6,60.4Z"/>
      <path class="a1e4069e-c753-4d63-bc8e-8e1defcf7480" d="M462.8,58.7a21.5,21.5,0,0,1-1.2,7.3,17.7,17.7,0,0,1-3.5,5.6,14.8,14.8,0,0,1-5.5,3.5,17.5,17.5,0,0,1-7,1.3,35.6,35.6,0,0,1-7.1-.7,39.4,39.4,0,0,1-6.6-2V28.1h9.4V49a10.9,10.9,0,0,1,4-2.7,13.6,13.6,0,0,1,5.1-.9,12.2,12.2,0,0,1,5.1,1,11.6,11.6,0,0,1,3.9,2.6,14.6,14.6,0,0,1,2.5,4.2A15.9,15.9,0,0,1,462.8,58.7Zm-9.4,1.7a6.2,6.2,0,0,0-1.4-4.3,5.1,5.1,0,0,0-4-1.6,6.1,6.1,0,0,0-2.8.6,7.1,7.1,0,0,0-2.2,1.5,7.6,7.6,0,0,0-1.3,2.3,8.1,8.1,0,0,0-.5,2.7v5.3a11.3,11.3,0,0,0,2.2.9l2.6.2a7,7,0,0,0,5.4-2.1A7.4,7.4,0,0,0,453.4,60.4Z"/>
      <path class="a1e4069e-c753-4d63-bc8e-8e1defcf7480" d="M467.5,76.4V27.3h9.3V76.4Z"/>
      <path class="a1e4069e-c753-4d63-bc8e-8e1defcf7480" d="M510.5,53.9a7.6,7.6,0,0,1-1.3,4.4,11.4,11.4,0,0,1-3.5,3.4,18.6,18.6,0,0,1-5.5,2.1,30.8,30.8,0,0,1-7.1.8h-2a6.1,6.1,0,0,0,2.1,4.2,6.6,6.6,0,0,0,4.5,1.5A19.9,19.9,0,0,0,508.1,67v7.4a16.1,16.1,0,0,1-5.1,2.2,19.3,19.3,0,0,1-5.5.7,18.3,18.3,0,0,1-6.4-1,13.3,13.3,0,0,1-4.8-3.1,13.1,13.1,0,0,1-3-4.8,17.3,17.3,0,0,1-1.1-6.3,20.3,20.3,0,0,1,1.2-7.1,18.4,18.4,0,0,1,3.5-5.5,16.6,16.6,0,0,1,5.3-3.6,18.7,18.7,0,0,1,6.8-1.2c3.5,0,6.3.8,8.4,2.5A8.1,8.1,0,0,1,510.5,53.9Zm-9.4.7a2.6,2.6,0,0,0-.9-1.9,4.1,4.1,0,0,0-2.5-.8,5.8,5.8,0,0,0-4,1.7,7.9,7.9,0,0,0-2.1,4.5h2.1C498.7,58.2,501.1,57,501.1,54.6Z"/>
      <path class="a1e4069e-c753-4d63-bc8e-8e1defcf7480" d="M542.7,36.9a4.2,4.2,0,0,1-1.6,3.2,6.5,6.5,0,0,1-3.9,1.2,6,6,0,0,1-4-1.3,4.4,4.4,0,0,1-1.7-3.2,3.9,3.9,0,0,1,1.6-3.2,6.1,6.1,0,0,1,4.1-1.3,7.6,7.6,0,0,1,2.1.3,9.5,9.5,0,0,1,1.7,1,4.4,4.4,0,0,1,1.2,1.5A4.1,4.1,0,0,1,542.7,36.9ZM532.1,76.4v-31h9.4v31Z"/>
      <path class="a1e4069e-c753-4d63-bc8e-8e1defcf7480" d="M567.9,76.4V58.8a7.2,7.2,0,0,0-.4-2.8,5,5,0,0,0-1.1-1.6,3.8,3.8,0,0,0-1.3-.6h-1.2l-1.5.3a5.7,5.7,0,0,0-2.2,1.3,10.3,10.3,0,0,0-1.9,3,13.1,13.1,0,0,0-.8,5.3V76.4h-9.4V55.9a32.3,32.3,0,0,0-.4-5.3,16.1,16.1,0,0,0-1.2-4.3h9.4a8.2,8.2,0,0,1,.6,1.6,12.7,12.7,0,0,1,.4,1.8,16.1,16.1,0,0,1,4.8-3.2,14.4,14.4,0,0,1,5.3-1.1,11.5,11.5,0,0,1,4.1.8,12.4,12.4,0,0,1,3.2,2.3,9.1,9.1,0,0,1,2.2,3.7,14.2,14.2,0,0,1,.8,4.8V76.4Z"/>
      <path class="a1e4069e-c753-4d63-bc8e-8e1defcf7480" d="M624.3,36a14.9,14.9,0,0,0-2.6-1l-2.3-.2a6.2,6.2,0,0,0-2.9.6,3.3,3.3,0,0,0-1.7,1.8,7.1,7.1,0,0,0-.9,3.2,36.3,36.3,0,0,0-.3,5h7.5v6.9h-7.4V76.4h-9.4V52.1h-5.8V45.4h5.7a43,43,0,0,1,.8-8.7,14.7,14.7,0,0,1,2.3-5.5,9,9,0,0,1,4-3,14.9,14.9,0,0,1,5.4-.9,25.5,25.5,0,0,1,8.4,1.4Z"/>
      <path class="a1e4069e-c753-4d63-bc8e-8e1defcf7480" d="M644.1,76.4a5.7,5.7,0,0,0-.1-1.2c0-.4-.1-.8-.1-1.3a10.3,10.3,0,0,0-.1-1.7,11.1,11.1,0,0,1-4.6,3.7,15.3,15.3,0,0,1-6,1.2,11.4,11.4,0,0,1-9-3.8c-2.1-2.5-3.2-6.1-3.2-10.8s1.7-10.1,5.2-13.2,8.4-4.6,14.7-4.6h2.9l2.6.2,2.6.5a22.6,22.6,0,0,1,3,.8v20c0,1,0,2.2.1,3.4a32.5,32.5,0,0,0,.2,3.3l.3,3.4Zm-1.5-22.9a9.3,9.3,0,0,0-2.2-.4h-1.8a8,8,0,0,0-6.1,2.5,10.6,10.6,0,0,0-2.1,7,6.9,6.9,0,0,0,1.3,4.5,4.5,4.5,0,0,0,3.6,1.5,7.2,7.2,0,0,0,2.9-.6,7.6,7.6,0,0,0,2.3-1.8,8.5,8.5,0,0,0,1.6-2.8,12.3,12.3,0,0,0,.5-3.5Z"/>
      <path class="a1e4069e-c753-4d63-bc8e-8e1defcf7480" d="M679.4,54.1l-1.6-.3h-1.2a7.3,7.3,0,0,0-6.1,2.8c-1.4,1.8-2.1,4.5-2.1,8.2V76.4H659V53.1a16.6,16.6,0,0,0-.2-2.4,17,17,0,0,0-.4-2.2,14,14,0,0,0-.6-2.4h8.9a6.6,6.6,0,0,0,.4,1.5,5.2,5.2,0,0,1,.2,1.1c.1.4.1.8.2,1.2v1.4a16.6,16.6,0,0,1,4-4.5,7.7,7.7,0,0,1,4.5-1.4l1.7.2,1.8.7Z"/>
      <path class="a1e4069e-c753-4d63-bc8e-8e1defcf7480" d="M721.5,76.4V61.1c0-2.8-.4-4.7-1.2-5.8a4,4,0,0,0-3.2-1.6,5.4,5.4,0,0,0-2.1.5,5.1,5.1,0,0,0-1.9,1.7,7.4,7.4,0,0,0-1.4,3.1,15.6,15.6,0,0,0-.6,4.8V76.4h-9.3V61.1a11.2,11.2,0,0,0-1.1-5.6,3.9,3.9,0,0,0-3.6-1.8,5.2,5.2,0,0,0-4.2,2.4c-1.2,1.6-1.8,4.1-1.8,7.7V76.4h-9.3V57c0-1.2,0-2.2-.1-3.2a21.1,21.1,0,0,0-.2-2.6c-.2-.8-.3-1.6-.5-2.4l-.8-2.4h9.4l.5,1.6a12.3,12.3,0,0,1,.4,1.6,22.2,22.2,0,0,1,4.9-3,15.2,15.2,0,0,1,6.4-1.2,12.1,12.1,0,0,1,4.8,1,7.5,7.5,0,0,1,3.2,2.9,10.5,10.5,0,0,1,4.7-2.9,21.1,21.1,0,0,1,6.1-1,10.4,10.4,0,0,1,7.6,2.8c1.8,1.9,2.6,4.6,2.6,8.2v20Z"/>
      <path class="a1e4069e-c753-4d63-bc8e-8e1defcf7480" d="M737.9,76.4V27.3h9.3V76.4Z"/>
      <path class="a1e4069e-c753-4d63-bc8e-8e1defcf7480" d="M775.7,76.4a5.7,5.7,0,0,0-.1-1.2c0-.4-.1-.8-.1-1.3s-.1-1.1-.1-1.7a11.1,11.1,0,0,1-4.6,3.7,15.3,15.3,0,0,1-6,1.2c-3.9,0-6.9-1.3-9-3.8s-3.2-6.1-3.2-10.8,1.7-10.1,5.2-13.2,8.3-4.6,14.7-4.6h2.9l2.5.2,2.7.5a22.6,22.6,0,0,1,3,.8V69.7q.1,1.8.3,3.3c0,1.1.1,2.3.2,3.4Zm-1.5-22.9a9.3,9.3,0,0,0-2.2-.4h-1.9a7.6,7.6,0,0,0-6,2.5,10.6,10.6,0,0,0-2.1,7,6.9,6.9,0,0,0,1.3,4.5,4.3,4.3,0,0,0,3.6,1.5,6.7,6.7,0,0,0,2.8-.6,6.9,6.9,0,0,0,2.4-1.8,8.4,8.4,0,0,0,1.5-2.8,9.5,9.5,0,0,0,.6-3.5Z"/>
      <path class="a1e4069e-c753-4d63-bc8e-8e1defcf7480" d="M809.8,76.4V58.8a7,7,0,0,0-.5-2.8,5,5,0,0,0-1.1-1.6,3.8,3.8,0,0,0-1.3-.6h-1.2l-1.5.3a4.8,4.8,0,0,0-2.1,1.3,8.7,8.7,0,0,0-2,3,15.2,15.2,0,0,0-.8,5.3V76.4h-9.4V55.9a32.3,32.3,0,0,0-.4-5.3,21.9,21.9,0,0,0-1.1-4.3h9.3a8.2,8.2,0,0,1,.6,1.6,12.7,12.7,0,0,1,.4,1.8,16.1,16.1,0,0,1,4.8-3.2,14.4,14.4,0,0,1,5.3-1.1,11.1,11.1,0,0,1,4.1.8,15,15,0,0,1,3.3,2.3,10.2,10.2,0,0,1,2.1,3.7,12.1,12.1,0,0,1,.8,4.8V76.4Z"/>
      <path class="a1e4069e-c753-4d63-bc8e-8e1defcf7480" d="M849.2,76.4c-.1-.3-.1-.6-.2-1s-.1-.7-.1-1.1a7.1,7.1,0,0,1-.1-1.6,13.4,13.4,0,0,1-4.7,3.5,16.2,16.2,0,0,1-11.2,0,12.7,12.7,0,0,1-7-7.8,16.6,16.6,0,0,1-1-6.1,20.3,20.3,0,0,1,1.2-7.1,16.4,16.4,0,0,1,3.2-5.6,12.8,12.8,0,0,1,5-3.6,14.5,14.5,0,0,1,6.3-1.3,15.6,15.6,0,0,1,3.1.2,13.3,13.3,0,0,1,3.4.9V27.3h9.4V65.7c0,.8,0,1.8.1,3s.2,2.4.3,3.5l.3,4.2Zm-2.1-22.6a8.4,8.4,0,0,0-2.6-.7H842a7.2,7.2,0,0,0-5.7,2.4,10.2,10.2,0,0,0-2,6.6,7.3,7.3,0,0,0,1.4,4.9,5.2,5.2,0,0,0,4.1,1.7,8.7,8.7,0,0,0,2.8-.5,5.6,5.6,0,0,0,2.4-1.7,10,10,0,0,0,1.6-3.1,21.4,21.4,0,0,0,.5-4.8Z"/>
      <path class="a1e4069e-c753-4d63-bc8e-8e1defcf7480" d="M885.1,67.8a9,9,0,0,1-3,7.1c-2,1.7-4.8,2.6-8.4,2.6a39.7,39.7,0,0,1-7.1-.7,22.3,22.3,0,0,1-5.7-1.9l1.2-7.2c4.1,2.1,7.7,3.1,10.7,3.1a3.5,3.5,0,0,0,2.3-.6,2.4,2.4,0,0,0,.6-1.5,3.5,3.5,0,0,0-.5-1.8,8.4,8.4,0,0,0-2.6-1.6,36.3,36.3,0,0,1-4.9-2.6,16,16,0,0,1-3.4-2.6,8.5,8.5,0,0,1-1.9-2.9,9.5,9.5,0,0,1-.6-3.5,7.9,7.9,0,0,1,3.4-6.9,15.1,15.1,0,0,1,8.9-2.4,27.5,27.5,0,0,1,5.2.4,23.7,23.7,0,0,1,5.3,1.8l-1.1,7.1a21.5,21.5,0,0,0-4.9-1.9,18.5,18.5,0,0,0-4.6-.5,3,3,0,0,0-2.2.6,2.2,2.2,0,0,0-.7,1.6,2.4,2.4,0,0,0,1,1.9,21.5,21.5,0,0,0,3.8,1.9,46.7,46.7,0,0,1,4.2,2.5,11.8,11.8,0,0,1,2.9,2.3,6.9,6.9,0,0,1,1.6,2.7A9.4,9.4,0,0,1,885.1,67.8Z"/>
    </g>
    <g>
      <path class="bad7a3dc-dd4e-4e17-b6ac-9264b82a4660" d="M102,58.7a21.5,21.5,0,0,1-1.2,7.3,15.7,15.7,0,0,1-3.5,5.5,14.2,14.2,0,0,1-5.4,3.6,18,18,0,0,1-7.1,1.3,44.8,44.8,0,0,1-7-.7,34.4,34.4,0,0,1-6.6-2V28.1h9.4V49a10.1,10.1,0,0,1,4-2.7,13.6,13.6,0,0,1,5.1-.9,11.8,11.8,0,0,1,5,1A9.9,9.9,0,0,1,98.6,49a12.7,12.7,0,0,1,2.5,4.2A15.9,15.9,0,0,1,102,58.7Zm-9.3,1.7a5.8,5.8,0,0,0-1.5-4.3,4.7,4.7,0,0,0-3.9-1.6,6.8,6.8,0,0,0-2.9.6,8,8,0,0,0-2.1,1.5,6.8,6.8,0,0,0-1.4,2.3,7.7,7.7,0,0,0-.4,2.7v5.3l2.2.9h2.6a6.9,6.9,0,0,0,5.4-2A7.6,7.6,0,0,0,92.7,60.4Z"/>
      <path class="bad7a3dc-dd4e-4e17-b6ac-9264b82a4660" d="M127.7,75.5a6.4,6.4,0,0,1-.6-1.6c-.1-.4-.2-1-.4-1.8a13.6,13.6,0,0,1-9.9,4.3,9.9,9.9,0,0,1-4.2-.9,9.8,9.8,0,0,1-3.4-2.3,10.4,10.4,0,0,1-2.2-3.7,14.1,14.1,0,0,1-.7-4.7c0-1.9,0-3.7.1-5.3s.2-3.3.2-4.8a33.8,33.8,0,0,0,0-4.5c0-1.5-.2-3.1-.3-4.8h9.3c.2,1.6.2,3,.3,4.5v4.2c-.1,1.4-.1,2.8-.2,4.3s-.1,3-.1,4.6a7.6,7.6,0,0,0,.5,2.9,2.5,2.5,0,0,0,1.1,1.5,4.2,4.2,0,0,0,1.4.6h1.3l1.5-.3a4.8,4.8,0,0,0,2.1-1.3,9.1,9.1,0,0,0,1.9-3,14.8,14.8,0,0,0,.8-5.3V45.4h9.3V65.9a32.7,32.7,0,0,0,.5,5.3,12.7,12.7,0,0,0,1.1,4.3Z"/>
      <path class="bad7a3dc-dd4e-4e17-b6ac-9264b82a4660" d="M164.1,54.1l-1.5-.3h-1.3a7,7,0,0,0-6.1,2.8c-1.4,1.8-2.1,4.5-2.1,8.2V76.4h-9.3V56.1a26.3,26.3,0,0,0-.1-3,17.7,17.7,0,0,0-.1-2.4c-.1-.8-.3-1.5-.4-2.2s-.4-1.5-.7-2.4h8.9c.1.5.3,1,.4,1.4a6,6,0,0,1,.2,1.2c.1.4.1.7.2,1.2s.1.9.1,1.4a14,14,0,0,1,4-4.5,7.7,7.7,0,0,1,4.4-1.4l1.7.2a9.3,9.3,0,0,1,1.9.7Z"/>
      <path class="bad7a3dc-dd4e-4e17-b6ac-9264b82a4660" d="M186,76.4V58.8a6.9,6.9,0,0,0-.4-2.8,5,5,0,0,0-1.1-1.6,4.2,4.2,0,0,0-1.4-.6h-1.2l-1.4.3a4.6,4.6,0,0,0-2.2,1.3,8.6,8.6,0,0,0-1.9,3,12.6,12.6,0,0,0-.9,5.3V76.4h-9.3V55.9a32.7,32.7,0,0,0-.5-5.3,12.7,12.7,0,0,0-1.1-4.3H174a8.2,8.2,0,0,1,.6,1.6l.4,1.8a14.7,14.7,0,0,1,10-4.3,10.7,10.7,0,0,1,4.1.8,11.4,11.4,0,0,1,3.3,2.3,10.4,10.4,0,0,1,2.2,3.7,14.2,14.2,0,0,1,.8,4.8V76.4Z"/>
      <path class="bad7a3dc-dd4e-4e17-b6ac-9264b82a4660" d="M213.5,36.9a4,4,0,0,1-1.6,3.1,5.9,5.9,0,0,1-3.9,1.3,6,6,0,0,1-4-1.3,4.6,4.6,0,0,1-1.7-3.2,3.8,3.8,0,0,1,1.6-3.2,6.1,6.1,0,0,1,4.1-1.3,7.6,7.6,0,0,1,2.1.3,9.5,9.5,0,0,1,1.7,1,4.4,4.4,0,0,1,1.2,1.5A4.1,4.1,0,0,1,213.5,36.9ZM202.9,76.4v-31h9.4v31Z"/>
      <path class="bad7a3dc-dd4e-4e17-b6ac-9264b82a4660" d="M238.7,76.4V58.8a6.9,6.9,0,0,0-.4-2.8,5,5,0,0,0-1.1-1.6,3.8,3.8,0,0,0-1.3-.6h-1.2l-1.5.3a5.7,5.7,0,0,0-2.2,1.3,10.3,10.3,0,0,0-1.9,3,12.8,12.8,0,0,0-.8,5.3V76.4h-9.4V55.9a49.1,49.1,0,0,0-.4-5.3,15.1,15.1,0,0,0-1.2-4.3h9.4a8.2,8.2,0,0,1,.6,1.6c.1.4.2,1,.4,1.8a16.1,16.1,0,0,1,4.8-3.2,14.4,14.4,0,0,1,5.3-1.1,11.5,11.5,0,0,1,4.1.8,12.4,12.4,0,0,1,3.2,2.3,9.1,9.1,0,0,1,2.2,3.7,14.2,14.2,0,0,1,.8,4.8V76.4Z"/>
      <path class="bad7a3dc-dd4e-4e17-b6ac-9264b82a4660" d="M284.9,77.4a31.9,31.9,0,0,1-1.2,9.5,16.6,16.6,0,0,1-3.3,6.2,11.5,11.5,0,0,1-4.8,3.3,17.4,17.4,0,0,1-6.1,1q-3.2,0-6.3-.3a22.3,22.3,0,0,1-5.9-1.6V88.4a27.2,27.2,0,0,0,5.4,1.5,19.9,19.9,0,0,0,4.5.6,9.8,9.8,0,0,0,3.4-.7,7.1,7.1,0,0,0,2.6-2.3,12.1,12.1,0,0,0,1.7-4.1,26.8,26.8,0,0,0,.6-6.1V74.2a12.4,12.4,0,0,1-4,2.4,19,19,0,0,1-4.4.5,14.2,14.2,0,0,1-5.5-1.1,12.2,12.2,0,0,1-4.2-2.9,13.8,13.8,0,0,1-2.6-4.6,16.4,16.4,0,0,1-1-6,17.5,17.5,0,0,1,1.5-7.4,14.3,14.3,0,0,1,4.1-5.6,22,22,0,0,1,6.6-3.6,29.5,29.5,0,0,1,8.7-1.2h2.7l2.2.2,2.4.4,2.9.7Zm-9.4-23.5-1.9-.3H272a9.2,9.2,0,0,0-6.5,2.3,8.5,8.5,0,0,0-2.3,6.3,6,6,0,0,0,1.5,4.4,5.3,5.3,0,0,0,3.9,1.6,10.1,10.1,0,0,0,2.5-.3,4.5,4.5,0,0,0,2.3-1.3,7.3,7.3,0,0,0,1.5-2.8,17,17,0,0,0,.6-5Z"/>
      <path class="bad7a3dc-dd4e-4e17-b6ac-9264b82a4660" d="M330.9,67.8a8.7,8.7,0,0,1-3,7c-2,1.8-4.8,2.6-8.4,2.6a32.3,32.3,0,0,1-7.1-.7,19,19,0,0,1-5.7-1.9l1.2-7.1c4.1,2.1,7.7,3.1,10.7,3.1a3.5,3.5,0,0,0,2.3-.6,2.7,2.7,0,0,0,.1-3.3,7.2,7.2,0,0,0-2.6-1.6,43.7,43.7,0,0,1-4.9-2.6,16,16,0,0,1-3.4-2.6,8.5,8.5,0,0,1-1.9-2.9,9.9,9.9,0,0,1-.6-3.5,7.9,7.9,0,0,1,3.4-6.9,15.1,15.1,0,0,1,8.9-2.4,27.5,27.5,0,0,1,5.2.4,23.7,23.7,0,0,1,5.3,1.8l-1.1,7.1a16.5,16.5,0,0,0-4.9-1.9,18.5,18.5,0,0,0-4.6-.5,3,3,0,0,0-2.2.6,2,2,0,0,0-.6,1.5,2.5,2.5,0,0,0,.9,2,21.5,21.5,0,0,0,3.8,1.9l4.2,2.4a14.8,14.8,0,0,1,2.9,2.4,7.3,7.3,0,0,1,1.6,2.6A10.6,10.6,0,0,1,330.9,67.8Z"/>
      <path class="bad7a3dc-dd4e-4e17-b6ac-9264b82a4660" d="M338,76.4V52.1h-6.2V45.4H338V37.6h9.2v7.8h8v6.7h-8V76.4Z"/>
      <path class="bad7a3dc-dd4e-4e17-b6ac-9264b82a4660" d="M377.7,75.5a6.4,6.4,0,0,1-.6-1.6l-.4-1.8a13.6,13.6,0,0,1-9.9,4.3,9.9,9.9,0,0,1-4.2-.9,9.8,9.8,0,0,1-3.4-2.3,10.4,10.4,0,0,1-2.2-3.7,14,14,0,0,1-.8-4.7c0-1.9.1-3.7.2-5.3s.1-3.3.2-4.8V50.2c-.1-1.5-.2-3.1-.4-4.8h9.4c.1,1.6.2,3,.2,4.5a29.4,29.4,0,0,1,0,4.2c0,1.4,0,2.8-.1,4.3s-.1,3-.1,4.6a7.8,7.8,0,0,0,.4,2.9,3.1,3.1,0,0,0,1.2,1.5,3.5,3.5,0,0,0,1.4.6h1.3l1.5-.3a4.8,4.8,0,0,0,2.1-1.3,9.1,9.1,0,0,0,1.9-3,14.8,14.8,0,0,0,.8-5.3V45.4h9.3V65.9a49.1,49.1,0,0,0,.4,5.3,15.1,15.1,0,0,0,1.2,4.3Z"/>
      <path class="bad7a3dc-dd4e-4e17-b6ac-9264b82a4660" d="M424,58.7a21.5,21.5,0,0,1-1.2,7.3,15.7,15.7,0,0,1-3.5,5.5,14.2,14.2,0,0,1-5.4,3.6,18,18,0,0,1-7.1,1.3,44.8,44.8,0,0,1-7-.7,34.4,34.4,0,0,1-6.6-2V28.1h9.4V49a10.1,10.1,0,0,1,4-2.7,13.6,13.6,0,0,1,5.1-.9,11.8,11.8,0,0,1,5,1,9.9,9.9,0,0,1,3.9,2.6,12.7,12.7,0,0,1,2.5,4.2A15.9,15.9,0,0,1,424,58.7Zm-9.3,1.7a5.8,5.8,0,0,0-1.5-4.3,4.7,4.7,0,0,0-3.9-1.6,6.8,6.8,0,0,0-2.9.6,8,8,0,0,0-2.1,1.5,6.8,6.8,0,0,0-1.4,2.3,7.7,7.7,0,0,0-.4,2.7v5.3l2.2.9h2.6a6.9,6.9,0,0,0,5.4-2A7.6,7.6,0,0,0,414.7,60.4Z"/>
      <path class="bad7a3dc-dd4e-4e17-b6ac-9264b82a4660" d="M459.8,58.7a21.5,21.5,0,0,1-1.2,7.3,15.7,15.7,0,0,1-3.5,5.5,14.2,14.2,0,0,1-5.4,3.6,18,18,0,0,1-7.1,1.3,43.7,43.7,0,0,1-7-.7,34.4,34.4,0,0,1-6.6-2V28.1h9.3V49a11.8,11.8,0,0,1,4-2.7,14.4,14.4,0,0,1,5.1-.9,11.9,11.9,0,0,1,5.1,1,11.6,11.6,0,0,1,3.9,2.6,12.7,12.7,0,0,1,2.5,4.2A15.9,15.9,0,0,1,459.8,58.7Zm-9.4,1.7a5.7,5.7,0,0,0-1.4-4.3,4.9,4.9,0,0,0-4-1.6,6.4,6.4,0,0,0-2.8.6,8.6,8.6,0,0,0-2.2,1.5,6.5,6.5,0,0,0-1.3,2.3,7.7,7.7,0,0,0-.4,2.7v5.3l2.2.9H443a7.3,7.3,0,0,0,5.5-2A7.5,7.5,0,0,0,450.4,60.4Z"/>
      <path class="bad7a3dc-dd4e-4e17-b6ac-9264b82a4660" d="M464.5,76.4V27.3h9.4V76.4Z"/>
      <path class="bad7a3dc-dd4e-4e17-b6ac-9264b82a4660" d="M507.5,53.9a8.3,8.3,0,0,1-1.2,4.4,10.5,10.5,0,0,1-3.6,3.3,16.5,16.5,0,0,1-5.4,2.2,32.4,32.4,0,0,1-7.2.8h-2a6.1,6.1,0,0,0,2.1,4.2,6.9,6.9,0,0,0,4.6,1.5A20.8,20.8,0,0,0,505.1,67v7.4a16.1,16.1,0,0,1-5.1,2.2,21.4,21.4,0,0,1-11.9-.3,14.7,14.7,0,0,1-4.8-3.1,13.1,13.1,0,0,1-3-4.8,18.1,18.1,0,0,1-1.1-6.3,18.3,18.3,0,0,1,1.3-7.1,15.5,15.5,0,0,1,3.4-5.5,17.7,17.7,0,0,1,5.3-3.6,19.1,19.1,0,0,1,6.8-1.3,13,13,0,0,1,8.4,2.6A8.1,8.1,0,0,1,507.5,53.9Zm-9.3.7a2.6,2.6,0,0,0-1-1.9,4.1,4.1,0,0,0-2.4-.8,5.7,5.7,0,0,0-4.1,1.6,8.5,8.5,0,0,0-2.1,4.6h2.1Q498.2,58.2,498.2,54.6Z"/>
      <path class="bad7a3dc-dd4e-4e17-b6ac-9264b82a4660" d="M539.7,36.9a3.7,3.7,0,0,1-1.6,3.1,5.9,5.9,0,0,1-3.9,1.3,5.8,5.8,0,0,1-3.9-1.3,4,4,0,0,1-1.7-3.2,3.4,3.4,0,0,1,1.5-3.2,6.3,6.3,0,0,1,4.1-1.3,7.6,7.6,0,0,1,2.1.3,6.9,6.9,0,0,1,1.7,1,4.4,4.4,0,0,1,1.2,1.5A4.1,4.1,0,0,1,539.7,36.9ZM529.1,76.4v-31h9.4v31Z"/>
      <path class="bad7a3dc-dd4e-4e17-b6ac-9264b82a4660" d="M565,76.4V58.8a6.7,6.7,0,0,0-.5-2.8,5,5,0,0,0-1.1-1.6,3.8,3.8,0,0,0-1.3-.6h-1.2l-1.5.3a4.8,4.8,0,0,0-2.1,1.3,8.7,8.7,0,0,0-2,3,14.8,14.8,0,0,0-.8,5.3V76.4h-9.4V55.9a32.3,32.3,0,0,0-.4-5.3,20.2,20.2,0,0,0-1.1-4.3h9.3a8.2,8.2,0,0,1,.6,1.6,12.7,12.7,0,0,1,.4,1.8,16.1,16.1,0,0,1,4.8-3.2,14.4,14.4,0,0,1,5.3-1.1,11.1,11.1,0,0,1,4.1.8,13,13,0,0,1,3.3,2.3,10.2,10.2,0,0,1,2.1,3.7,12.1,12.1,0,0,1,.8,4.8V76.4Z"/>
      <path class="bad7a3dc-dd4e-4e17-b6ac-9264b82a4660" d="M621.3,36a14.3,14.3,0,0,0-2.5-1l-2.4-.2a8.4,8.4,0,0,0-2.9.5,4.2,4.2,0,0,0-1.7,1.8,13.1,13.1,0,0,0-.9,3.3,37,37,0,0,0-.2,5h7.4v6.8h-7.4V76.4h-9.3V52.1h-5.9V45.4h5.7a41.6,41.6,0,0,1,.8-8.7,12.7,12.7,0,0,1,2.4-5.5,8.3,8.3,0,0,1,3.9-3,15.5,15.5,0,0,1,5.5-.9,24.9,24.9,0,0,1,8.3,1.4Z"/>
      <path class="bad7a3dc-dd4e-4e17-b6ac-9264b82a4660" d="M641.1,76.4V75.2c-.1-.4-.1-.8-.2-1.3a9.7,9.7,0,0,0-.1-1.7,11.7,11.7,0,0,1-4.5,3.7,15.3,15.3,0,0,1-6,1.2c-3.9,0-6.9-1.3-9-3.8S618,67.1,618,62.5s1.8-10.1,5.2-13.2,8.4-4.6,14.8-4.6h2.8l2.6.2,2.6.5a22.6,22.6,0,0,1,3,.8v20c0,1,0,2.2.1,3.4a28.8,28.8,0,0,0,.2,3.2l.3,3.5Zm-1.4-23-2.3-.3h-1.8a7.6,7.6,0,0,0-6,2.5c-1.5,1.7-2.2,4-2.2,7a6.9,6.9,0,0,0,1.3,4.5,4.7,4.7,0,0,0,3.7,1.5,6.7,6.7,0,0,0,2.8-.6,6.6,6.6,0,0,0,2.3-1.8,8.5,8.5,0,0,0,1.6-2.8,9.5,9.5,0,0,0,.6-3.5Z"/>
      <path class="bad7a3dc-dd4e-4e17-b6ac-9264b82a4660" d="M676.4,54.1l-1.5-.3h-1.3a7,7,0,0,0-6.1,2.8c-1.4,1.8-2.1,4.5-2.1,8.2V76.4h-9.3V56.1c0-1.2-.1-2.2-.1-3a16.6,16.6,0,0,0-.2-2.4,14.6,14.6,0,0,0-.3-2.2c-.2-.7-.4-1.5-.7-2.4h8.9c.1.5.3,1,.4,1.4a6,6,0,0,1,.2,1.2c.1.4.1.7.2,1.2s.1.9.1,1.4a14,14,0,0,1,4-4.5,7.2,7.2,0,0,1,4.4-1.4l1.7.2,1.8.7Z"/>
      <path class="bad7a3dc-dd4e-4e17-b6ac-9264b82a4660" d="M718.5,76.4V61.1c0-2.8-.4-4.7-1.2-5.8a3.9,3.9,0,0,0-3.2-1.6,5.4,5.4,0,0,0-2.1.5,6,6,0,0,0-1.9,1.7,7,7,0,0,0-1.4,3,17.2,17.2,0,0,0-.5,4.9V76.4h-9.4V61.1a11.2,11.2,0,0,0-1.1-5.6,3.8,3.8,0,0,0-3.6-1.8,5.2,5.2,0,0,0-4.2,2.4c-1.2,1.6-1.7,4.1-1.7,7.7V76.4h-9.4V56.9c0-1.1,0-2.1-.1-3.1a21.1,21.1,0,0,0-.2-2.6,20.5,20.5,0,0,0-.5-2.4c-.2-.8-.5-1.6-.7-2.4h9.3l.5,1.6a5.3,5.3,0,0,1,.4,1.6,24.8,24.8,0,0,1,4.9-3,15.2,15.2,0,0,1,6.4-1.2,12.1,12.1,0,0,1,4.8,1,7.5,7.5,0,0,1,3.2,2.9,10.5,10.5,0,0,1,4.7-2.9,18.6,18.6,0,0,1,6.1-1,10.3,10.3,0,0,1,7.6,2.8c1.8,1.9,2.7,4.6,2.7,8.2v20Z"/>
      <path class="bad7a3dc-dd4e-4e17-b6ac-9264b82a4660" d="M734.9,76.4V27.3h9.4V76.4Z"/>
      <path class="bad7a3dc-dd4e-4e17-b6ac-9264b82a4660" d="M772.7,76.4a5.7,5.7,0,0,0-.1-1.2c0-.4-.1-.8-.1-1.3a9.7,9.7,0,0,0-.1-1.7,12,12,0,0,1-4.6,3.7,15.3,15.3,0,0,1-6,1.2,11.4,11.4,0,0,1-9-3.8c-2.1-2.5-3.2-6.2-3.2-10.8s1.7-10.1,5.2-13.2,8.4-4.6,14.7-4.6h2.9l2.6.2,2.6.5a22.6,22.6,0,0,1,3,.8v20c0,1,0,2.2.1,3.4a28.8,28.8,0,0,0,.2,3.2l.3,3.5Zm-1.5-23-2.2-.3h-1.8a8,8,0,0,0-6.1,2.5,10.6,10.6,0,0,0-2.1,7,6.9,6.9,0,0,0,1.3,4.5,4.5,4.5,0,0,0,3.6,1.5,7.2,7.2,0,0,0,2.9-.6,7.6,7.6,0,0,0,2.3-1.8,8.5,8.5,0,0,0,1.6-2.8,12.3,12.3,0,0,0,.5-3.5Z"/>
      <path class="bad7a3dc-dd4e-4e17-b6ac-9264b82a4660" d="M806.8,76.4V58.8a6.7,6.7,0,0,0-.5-2.8,3.8,3.8,0,0,0-1.1-1.6,3.1,3.1,0,0,0-1.3-.6h-1.2l-1.5.3a4.8,4.8,0,0,0-2.1,1.3,8.7,8.7,0,0,0-2,3,14.8,14.8,0,0,0-.8,5.3V76.4h-9.4V55.9a32.3,32.3,0,0,0-.4-5.3,15.5,15.5,0,0,0-1.1-4.3h9.3a8.2,8.2,0,0,1,.6,1.6,6,6,0,0,1,.4,1.8,15.4,15.4,0,0,1,4.9-3.2,13.9,13.9,0,0,1,5.2-1.1,11.1,11.1,0,0,1,4.1.8,11.4,11.4,0,0,1,3.3,2.3,12.1,12.1,0,0,1,2.2,3.7,14.3,14.3,0,0,1,.7,4.8V76.4Z"/>
      <path class="bad7a3dc-dd4e-4e17-b6ac-9264b82a4660" d="M846.2,76.4c0-.3-.1-.6-.1-1s-.1-.7-.2-1.1-.1-1-.1-1.6a12.6,12.6,0,0,1-4.7,3.5,14,14,0,0,1-5.6,1,13,13,0,0,1-5.6-1.1,11.5,11.5,0,0,1-4.2-3,13.7,13.7,0,0,1-2.8-4.7,16.6,16.6,0,0,1-1-6.1,20.3,20.3,0,0,1,1.2-7.1,17.1,17.1,0,0,1,3.2-5.6,15.2,15.2,0,0,1,5-3.7,16.1,16.1,0,0,1,6.3-1.3,15.5,15.5,0,0,1,3.1.3,13.9,13.9,0,0,1,3.5.9V27.3h9.3V65.7c0,.8.1,1.8.1,3l.3,3.5.3,4.2Zm-2-22.6a10.2,10.2,0,0,0-2.6-.7l-2.6-.2a7.2,7.2,0,0,0-5.6,2.5,9.7,9.7,0,0,0-2.1,6.6,7.9,7.9,0,0,0,1.4,4.9,5.3,5.3,0,0,0,4.1,1.7,9.3,9.3,0,0,0,2.9-.5,5.3,5.3,0,0,0,2.3-1.7,8.2,8.2,0,0,0,1.6-3.1,16.8,16.8,0,0,0,.6-4.9Z"/>
      <path class="bad7a3dc-dd4e-4e17-b6ac-9264b82a4660" d="M882.1,67.8a8.7,8.7,0,0,1-3,7c-2,1.8-4.8,2.6-8.4,2.6a32.9,32.9,0,0,1-7.1-.7,18.3,18.3,0,0,1-5.6-1.9l1.2-7.1a23.5,23.5,0,0,0,10.7,3.1,3.4,3.4,0,0,0,2.2-.6,2.7,2.7,0,0,0,.1-3.3,7.5,7.5,0,0,0-2.5-1.6,38.1,38.1,0,0,1-5-2.6,16,16,0,0,1-3.4-2.6,8.5,8.5,0,0,1-1.9-2.9,9.9,9.9,0,0,1-.6-3.5,7.9,7.9,0,0,1,3.4-6.9,15.1,15.1,0,0,1,8.9-2.4,27.5,27.5,0,0,1,5.2.4,22.1,22.1,0,0,1,5.3,1.8l-1.1,7.1a15.6,15.6,0,0,0-4.9-1.9,18.5,18.5,0,0,0-4.6-.5,3,3,0,0,0-2.2.6,2,2,0,0,0-.6,1.5,2.5,2.5,0,0,0,.9,2,21.5,21.5,0,0,0,3.8,1.9l4.3,2.4a17.4,17.4,0,0,1,2.8,2.4,7.3,7.3,0,0,1,1.6,2.6A8.1,8.1,0,0,1,882.1,67.8Z"/>
    </g>
  </g>
</svg>
