<svg id="a1415941-e9af-48cb-883a-08f1abbdc56d" data-name="Layer 1" xmlns="http://www.w3.org/2000/svg" width="576" height="117" viewBox="0 0 576 117">
  <defs>
    <style>
      .bfbca5e3-ecab-4640-9199-c8702c095771 {
        fill: #9934ce;
        stroke: #fff;
        stroke-miterlimit: 10;
        stroke-width: 4px;
      }

      .be3ad150-96bb-41fd-a532-109ce7fa40d3 {
        fill: #370244;
      }

      .eabe7ba2-9f94-426a-82aa-7bcd9e4c139a {
        fill: #fff5b8;
      }
    </style>
  </defs>
  <g>
    <rect id="f5bc0761-5a45-474b-9477-8952a98c8089" data-name="shadow" class="bfbca5e3-ecab-4640-9199-c8702c095771" x="4.55" y="4" width="566.89" height="109" rx="54.5"/>
    <g>
      <g>
        <path class="be3ad150-96bb-41fd-a532-109ce7fa40d3" d="M91.69,60.21a20.57,20.57,0,0,1-1.22,7.29,15.32,15.32,0,0,1-8.9,9.17,18.82,18.82,0,0,1-7.07,1.27,36,36,0,0,1-7-.73,33,33,0,0,1-6.61-2V29.66h9.36V50.57a11,11,0,0,1,4-2.7A13.75,13.75,0,0,1,79.34,47a13.39,13.39,0,0,1,5,.94,11,11,0,0,1,3.91,2.68,12.22,12.22,0,0,1,2.5,4.18A15.93,15.93,0,0,1,91.69,60.21Zm-9.36,1.7a6.13,6.13,0,0,0-1.42-4.3,5.11,5.11,0,0,0-4-1.56,6.76,6.76,0,0,0-2.84.57,6.61,6.61,0,0,0-3.49,3.82,8,8,0,0,0-.45,2.68v5.35a8.65,8.65,0,0,0,2.21.83,13.62,13.62,0,0,0,2.57.19,7.31,7.31,0,0,0,5.43-2A7.64,7.64,0,0,0,82.33,61.91Z"/>
        <path class="be3ad150-96bb-41fd-a532-109ce7fa40d3" d="M117.39,77.1a14.71,14.71,0,0,1-.6-1.62q-.18-.65-.39-1.83a13.79,13.79,0,0,1-9.92,4.29,10.07,10.07,0,0,1-4.19-.86,10.56,10.56,0,0,1-3.38-2.36,10.44,10.44,0,0,1-2.22-3.63,13.65,13.65,0,0,1-.77-4.73c0-1.92,0-3.7.14-5.35s.16-3.22.21-4.72,0-3,0-4.53-.17-3.1-.35-4.8h9.36c.14,1.54.22,3,.25,4.45s0,2.84,0,4.24-.07,2.83-.15,4.28-.1,3-.1,4.61a7.56,7.56,0,0,0,.44,2.89A3.23,3.23,0,0,0,106.86,69a3.31,3.31,0,0,0,1.43.58,8.76,8.76,0,0,0,1.24.1,7.15,7.15,0,0,0,1.51-.27,4.91,4.91,0,0,0,2.12-1.29,8.63,8.63,0,0,0,1.87-3,14.25,14.25,0,0,0,.81-5.3V47h9.36V67.44a35.09,35.09,0,0,0,.42,5.34,17.71,17.71,0,0,0,1.13,4.32Z"/>
        <path class="be3ad150-96bb-41fd-a532-109ce7fa40d3" d="M153.78,55.62c-.65-.14-1.17-.23-1.54-.28a12,12,0,0,0-1.27-.07A7.16,7.16,0,0,0,144.88,58q-2.08,2.74-2.08,8.18V77.94h-9.36V57.61c0-1.15,0-2.15,0-3s-.08-1.64-.17-2.38-.23-1.46-.39-2.17-.39-1.53-.67-2.45h8.89c.14.58.28,1.08.4,1.48a8.11,8.11,0,0,1,.25,1.16c0,.36.1.75.15,1.16a12.54,12.54,0,0,1,.07,1.48,15.88,15.88,0,0,1,4-4.59A7.68,7.68,0,0,1,150.4,47a7,7,0,0,1,1.66.18,19.51,19.51,0,0,1,1.86.69Z"/>
        <path class="be3ad150-96bb-41fd-a532-109ce7fa40d3" d="M175.68,77.94V60.36a7.23,7.23,0,0,0-.46-2.85A4.13,4.13,0,0,0,174.13,56a2.85,2.85,0,0,0-1.34-.61,10,10,0,0,0-1.2-.1,7,7,0,0,0-1.47.27A5.16,5.16,0,0,0,168,56.83a8.89,8.89,0,0,0-1.94,3,13.74,13.74,0,0,0-.84,5.29V77.94h-9.36V57.46a35.33,35.33,0,0,0-.43-5.34,17.34,17.34,0,0,0-1.12-4.31h9.36a14.71,14.71,0,0,1,.6,1.62c.11.42.24,1,.38,1.83A14.67,14.67,0,0,1,169.45,48,14.06,14.06,0,0,1,174.7,47a10.18,10.18,0,0,1,4.1.83,9.71,9.71,0,0,1,3.28,2.29,10.73,10.73,0,0,1,2.17,3.63,13.92,13.92,0,0,1,.79,4.84V77.94Z"/>
        <path class="be3ad150-96bb-41fd-a532-109ce7fa40d3" d="M203.13,38.46a3.89,3.89,0,0,1-1.62,3.14,6.54,6.54,0,0,1-7.81,0A4.24,4.24,0,0,1,192,38.34a3.82,3.82,0,0,1,1.55-3.23,6.3,6.3,0,0,1,4.08-1.31,6.19,6.19,0,0,1,2.08.36,5.65,5.65,0,0,1,1.76,1,5,5,0,0,1,1.19,1.5A3.79,3.79,0,0,1,203.13,38.46ZM192.57,77.94V47h9.37v31Z"/>
        <path class="be3ad150-96bb-41fd-a532-109ce7fa40d3" d="M228.41,77.94V60.36a7.23,7.23,0,0,0-.46-2.85A4.13,4.13,0,0,0,226.86,56a2.9,2.9,0,0,0-1.34-.61,10,10,0,0,0-1.2-.1,7.18,7.18,0,0,0-1.48.27,5.13,5.13,0,0,0-2.14,1.29,8.74,8.74,0,0,0-1.94,3,13.74,13.74,0,0,0-.84,5.29V77.94h-9.37V57.46a35.29,35.29,0,0,0-.42-5.34A17.29,17.29,0,0,0,207,47.81h9.37a14.71,14.71,0,0,1,.6,1.62c.11.42.24,1,.38,1.83A14.46,14.46,0,0,1,222.18,48,14,14,0,0,1,227.42,47a10.23,10.23,0,0,1,4.11.83,9.67,9.67,0,0,1,3.27,2.29A10.75,10.75,0,0,1,237,53.71a14.16,14.16,0,0,1,.79,4.84V77.94Z"/>
        <path class="be3ad150-96bb-41fd-a532-109ce7fa40d3" d="M274.52,78.93a32.67,32.67,0,0,1-1.19,9.53,16.59,16.59,0,0,1-3.23,6.16A11.77,11.77,0,0,1,265.25,98a17.77,17.77,0,0,1-6.11,1,51.76,51.76,0,0,1-6.28-.39,22.73,22.73,0,0,1-5.93-1.51V90a38.12,38.12,0,0,0,5.39,1.51,23.65,23.65,0,0,0,4.54.53,7.94,7.94,0,0,0,3.37-.7,6.6,6.6,0,0,0,2.62-2.26,11.69,11.69,0,0,0,1.7-4.08,26.94,26.94,0,0,0,.6-6.12v-3.1a10.73,10.73,0,0,1-4,2.36,16.44,16.44,0,0,1-4.36.52,13.94,13.94,0,0,1-5.5-1,12,12,0,0,1-4.18-3A13.27,13.27,0,0,1,244.42,70a18.19,18.19,0,0,1-.95-6,18,18,0,0,1,1.46-7.36,15.78,15.78,0,0,1,4.18-5.59,18.66,18.66,0,0,1,6.56-3.56,28.63,28.63,0,0,1,8.71-1.23c1,0,1.88,0,2.64,0s1.51.08,2.25.17,1.52.23,2.36.39,1.79.39,2.89.67Zm-9.37-23.52c-.82-.14-1.43-.23-1.85-.28a14.21,14.21,0,0,0-1.63-.07,8.89,8.89,0,0,0-6.48,2.29,8.36,8.36,0,0,0-2.36,6.3,6,6,0,0,0,1.56,4.43,5.25,5.25,0,0,0,3.88,1.55,11.15,11.15,0,0,0,2.53-.28A4.41,4.41,0,0,0,263,68.08a6.64,6.64,0,0,0,1.56-2.85,17.38,17.38,0,0,0,.58-5Z"/>
        <path class="be3ad150-96bb-41fd-a532-109ce7fa40d3" d="M327.81,78.93a32.67,32.67,0,0,1-1.19,9.53,16.59,16.59,0,0,1-3.23,6.16A11.77,11.77,0,0,1,318.54,98a17.72,17.72,0,0,1-6.11,1,51.89,51.89,0,0,1-6.28-.39,22.73,22.73,0,0,1-5.93-1.51V90a38.49,38.49,0,0,0,5.39,1.51,23.65,23.65,0,0,0,4.54.53,7.94,7.94,0,0,0,3.37-.7,6.6,6.6,0,0,0,2.62-2.26,11.69,11.69,0,0,0,1.7-4.08,26.89,26.89,0,0,0,.61-6.12v-3.1a10.84,10.84,0,0,1-4,2.36,16.39,16.39,0,0,1-4.36.52,13.85,13.85,0,0,1-5.49-1,11.9,11.9,0,0,1-4.19-3A13.43,13.43,0,0,1,297.71,70a18.19,18.19,0,0,1-.95-6,18,18,0,0,1,1.46-7.36,15.78,15.78,0,0,1,4.18-5.59A18.71,18.71,0,0,1,309,47.49a28.57,28.57,0,0,1,8.7-1.23c1,0,1.88,0,2.64,0s1.51.08,2.25.17,1.52.23,2.36.39,1.79.39,2.89.67Zm-9.36-23.52c-.83-.14-1.44-.23-1.85-.28a14.33,14.33,0,0,0-1.63-.07,8.9,8.9,0,0,0-6.49,2.29,8.36,8.36,0,0,0-2.36,6.3,6,6,0,0,0,1.56,4.43,5.25,5.25,0,0,0,3.88,1.55,11.3,11.3,0,0,0,2.54-.28,4.46,4.46,0,0,0,2.21-1.27,6.86,6.86,0,0,0,1.56-2.85,17.74,17.74,0,0,0,.58-5Z"/>
        <path class="be3ad150-96bb-41fd-a532-109ce7fa40d3" d="M355.47,77.94a11.45,11.45,0,0,0-.07-1.2c0-.37-.09-.82-.11-1.33s-.07-1.06-.11-1.62a11.17,11.17,0,0,1-4.59,3.62,14.84,14.84,0,0,1-6,1.23c-3.86,0-6.85-1.26-9-3.8S332.38,68.7,332.38,64q0-8.52,5.18-13.13t14.74-4.61c1,0,2,0,2.85.07s1.71.13,2.57.25,1.74.27,2.64.46,1.9.44,3,.77v20c0,1.08,0,2.22.07,3.42s.12,2.28.21,3.27c.09,1.17.19,2.32.28,3.45ZM354,55a14.82,14.82,0,0,0-2.22-.35c-.67,0-1.29-.07-1.87-.07a7.48,7.48,0,0,0-6,2.5A10.23,10.23,0,0,0,341.75,64,6.91,6.91,0,0,0,343,68.51a4.48,4.48,0,0,0,3.65,1.55,6.55,6.55,0,0,0,2.83-.64,7.17,7.17,0,0,0,2.33-1.79,8.62,8.62,0,0,0,1.57-2.75,10.41,10.41,0,0,0,.58-3.55Z"/>
        <path class="be3ad150-96bb-41fd-a532-109ce7fa40d3" d="M390.74,55.62c-.65-.14-1.17-.23-1.54-.28a12,12,0,0,0-1.27-.07A7.16,7.16,0,0,0,381.84,58q-2.08,2.74-2.08,8.18V77.94H370.4V57.61c0-1.15,0-2.15,0-3s-.08-1.64-.17-2.38-.23-1.46-.39-2.17-.39-1.53-.67-2.45H378c.15.58.28,1.08.4,1.48a8.11,8.11,0,0,1,.25,1.16c.05.36.1.75.15,1.16a12.54,12.54,0,0,1,.07,1.48,15.88,15.88,0,0,1,4-4.59A7.71,7.71,0,0,1,387.37,47a7,7,0,0,1,1.65.18,19.51,19.51,0,0,1,1.86.69Z"/>
        <path class="be3ad150-96bb-41fd-a532-109ce7fa40d3" d="M423.76,60.21a20.8,20.8,0,0,1-1.22,7.29,15.3,15.3,0,0,1-8.91,9.17,18.73,18.73,0,0,1-7.06,1.27,36,36,0,0,1-7-.73,33,33,0,0,1-6.61-2V29.66h9.36V50.57a11,11,0,0,1,4-2.7,13.71,13.71,0,0,1,5.11-.91,13.39,13.39,0,0,1,5,.94,11,11,0,0,1,3.91,2.68,12.22,12.22,0,0,1,2.5,4.18A15.93,15.93,0,0,1,423.76,60.21Zm-9.36,1.7a6.18,6.18,0,0,0-1.42-4.3,5.11,5.11,0,0,0-4-1.56,6.76,6.76,0,0,0-2.84.57,6.61,6.61,0,0,0-3.49,3.82,8,8,0,0,0-.45,2.68v5.35a8.65,8.65,0,0,0,2.21.83,13.57,13.57,0,0,0,2.56.19,7.32,7.32,0,0,0,5.44-2A7.64,7.64,0,0,0,414.4,61.91Z"/>
        <path class="be3ad150-96bb-41fd-a532-109ce7fa40d3" d="M450.09,77.94a11.8,11.8,0,0,0-.08-1.2c-.05-.37-.09-.82-.11-1.33s-.06-1.06-.11-1.62a11.17,11.17,0,0,1-4.59,3.62,14.83,14.83,0,0,1-6,1.23q-5.79,0-9-3.8T427,64q0-8.52,5.17-13.13t14.74-4.61c1,0,2,0,2.86.07s1.71.13,2.57.25,1.73.27,2.64.46,1.9.44,3,.77v20c0,1.08,0,2.22.07,3.42s.12,2.28.22,3.27c.09,1.17.18,2.32.28,3.45ZM448.61,55a14.43,14.43,0,0,0-2.22-.35c-.67,0-1.29-.07-1.86-.07a7.5,7.5,0,0,0-6,2.5A10.28,10.28,0,0,0,436.36,64a6.91,6.91,0,0,0,1.29,4.51,4.5,4.5,0,0,0,3.65,1.55,6.48,6.48,0,0,0,2.83-.64,7.07,7.07,0,0,0,2.33-1.79A8.65,8.65,0,0,0,448,64.88a10.41,10.41,0,0,0,.57-3.55Z"/>
        <path class="be3ad150-96bb-41fd-a532-109ce7fa40d3" d="M493.74,78.93a32.67,32.67,0,0,1-1.19,9.53,16.59,16.59,0,0,1-3.23,6.16A11.77,11.77,0,0,1,484.47,98a17.72,17.72,0,0,1-6.11,1,51.76,51.76,0,0,1-6.28-.39,22.73,22.73,0,0,1-5.93-1.51V90a38.12,38.12,0,0,0,5.39,1.51,23.65,23.65,0,0,0,4.54.53,7.94,7.94,0,0,0,3.37-.7,6.6,6.6,0,0,0,2.62-2.26,11.69,11.69,0,0,0,1.7-4.08,26.94,26.94,0,0,0,.6-6.12v-3.1a10.73,10.73,0,0,1-4,2.36,16.44,16.44,0,0,1-4.36.52,13.94,13.94,0,0,1-5.5-1,12,12,0,0,1-4.18-3A13.27,13.27,0,0,1,463.64,70a18.19,18.19,0,0,1-.95-6,18,18,0,0,1,1.46-7.36,15.78,15.78,0,0,1,4.18-5.59,18.75,18.75,0,0,1,6.56-3.56,28.63,28.63,0,0,1,8.71-1.23c1,0,1.88,0,2.64,0s1.51.08,2.25.17,1.52.23,2.36.39,1.79.39,2.89.67Zm-9.37-23.52c-.82-.14-1.43-.23-1.84-.28a14.44,14.44,0,0,0-1.63-.07,8.9,8.9,0,0,0-6.49,2.29,8.36,8.36,0,0,0-2.36,6.3,6,6,0,0,0,1.56,4.43,5.25,5.25,0,0,0,3.88,1.55,11.3,11.3,0,0,0,2.54-.28,4.46,4.46,0,0,0,2.21-1.27,6.74,6.74,0,0,0,1.55-2.85,17.38,17.38,0,0,0,.58-5Z"/>
        <path class="be3ad150-96bb-41fd-a532-109ce7fa40d3" d="M526.61,55.48a8,8,0,0,1-1.25,4.37,10.42,10.42,0,0,1-3.53,3.34,19.46,19.46,0,0,1-5.48,2.15,30.46,30.46,0,0,1-7.18.77l-.85,0c-.32,0-.7,0-1.14,0a6.51,6.51,0,0,0,2.11,4.19,6.7,6.7,0,0,0,4.56,1.52,20.85,20.85,0,0,0,10.37-3.17V76a20.69,20.69,0,0,1-5.1,2.22,21.65,21.65,0,0,1-5.53.67,18.3,18.3,0,0,1-6.37-1.06,12.84,12.84,0,0,1-4.82-3.06,13.59,13.59,0,0,1-3-4.79,17.49,17.49,0,0,1-1.06-6.3,19.64,19.64,0,0,1,1.23-7.08A16.77,16.77,0,0,1,503,51.05a15.12,15.12,0,0,1,5.32-3.59,17.75,17.75,0,0,1,6.83-1.27,12.92,12.92,0,0,1,8.34,2.53A8.26,8.26,0,0,1,526.61,55.48Zm-9.36.71a2.45,2.45,0,0,0-1-1.94,3.64,3.64,0,0,0-2.43-.81,5.53,5.53,0,0,0-4,1.66,7.74,7.74,0,0,0-2.16,4.54,6.15,6.15,0,0,0,1.12.14h1Q517.25,59.78,517.25,56.19Z"/>
      </g>
      <g>
        <path class="eabe7ba2-9f94-426a-82aa-7bcd9e4c139a" d="M89,60.05a20.8,20.8,0,0,1-1.22,7.29,15.3,15.3,0,0,1-8.91,9.17,18.78,18.78,0,0,1-7.07,1.27,36,36,0,0,1-7-.73,33,33,0,0,1-6.61-2V29.5h9.36V50.41a11.08,11.08,0,0,1,4-2.71,13.88,13.88,0,0,1,5.11-.9,13.3,13.3,0,0,1,5,.94,11,11,0,0,1,3.91,2.68,12.22,12.22,0,0,1,2.5,4.18A15.66,15.66,0,0,1,89,60.05Zm-9.37,1.7a6.13,6.13,0,0,0-1.42-4.3,5.1,5.1,0,0,0-4-1.57,6.72,6.72,0,0,0-2.83.58,6.58,6.58,0,0,0-3.5,3.82A8,8,0,0,0,67.4,63v5.35a8.57,8.57,0,0,0,2.22.83,13.5,13.5,0,0,0,2.56.19,7.28,7.28,0,0,0,5.43-2A7.6,7.6,0,0,0,79.58,61.75Z"/>
        <path class="eabe7ba2-9f94-426a-82aa-7bcd9e4c139a" d="M114.64,76.93a14,14,0,0,1-.6-1.61c-.12-.43-.24-1-.38-1.83a13.81,13.81,0,0,1-9.93,4.29,10.26,10.26,0,0,1-4.19-.86,10.56,10.56,0,0,1-3.38-2.36,10.44,10.44,0,0,1-2.22-3.63,13.93,13.93,0,0,1-.77-4.73c0-1.92,0-3.7.14-5.35s.16-3.22.21-4.73,0-3,0-4.52-.16-3.11-.35-4.8h9.36c.14,1.54.22,3,.25,4.45s0,2.84,0,4.24-.07,2.83-.14,4.28-.11,3-.11,4.61a7.8,7.8,0,0,0,.44,2.89,3.23,3.23,0,0,0,1.14,1.52,3.31,3.31,0,0,0,1.43.58,8.89,8.89,0,0,0,1.25.1,7.2,7.2,0,0,0,1.5-.27,4.8,4.8,0,0,0,2.12-1.29,8.44,8.44,0,0,0,1.87-3,14.16,14.16,0,0,0,.81-5.29V46.8h9.37V67.28a35.29,35.29,0,0,0,.42,5.34A17.22,17.22,0,0,0,124,76.93Z"/>
        <path class="eabe7ba2-9f94-426a-82aa-7bcd9e4c139a" d="M151,55.46c-.66-.14-1.18-.23-1.55-.28a9.81,9.81,0,0,0-1.27-.07,7.17,7.17,0,0,0-6.09,2.75c-1.38,1.83-2.08,4.56-2.08,8.18V77.78h-9.36V57.45q0-1.73,0-3c0-.85-.09-1.64-.18-2.38a19.71,19.71,0,0,0-.39-2.17c-.16-.71-.38-1.53-.67-2.45h8.89c.15.58.28,1.07.4,1.48a6.94,6.94,0,0,1,.25,1.16c0,.36.1.75.15,1.16a12.54,12.54,0,0,1,.07,1.48,15.89,15.89,0,0,1,4-4.59,7.68,7.68,0,0,1,4.47-1.34,6.44,6.44,0,0,1,1.65.18,15.19,15.19,0,0,1,1.87.69Z"/>
        <path class="eabe7ba2-9f94-426a-82aa-7bcd9e4c139a" d="M172.93,77.78V60.2a7,7,0,0,0-.46-2.85,4,4,0,0,0-1.09-1.53,2.76,2.76,0,0,0-1.34-.61,8.24,8.24,0,0,0-1.19-.1,7.07,7.07,0,0,0-1.48.27,5.11,5.11,0,0,0-2.15,1.29,8.73,8.73,0,0,0-1.93,3,13.49,13.49,0,0,0-.85,5.29V77.78h-9.36V57.3a35.29,35.29,0,0,0-.42-5.34,17.74,17.74,0,0,0-1.13-4.31h9.36a14,14,0,0,1,.6,1.62q.18.63.39,1.83a14.46,14.46,0,0,1,4.83-3.24A14,14,0,0,1,172,46.8a10.15,10.15,0,0,1,4.1.83,9.61,9.61,0,0,1,3.28,2.29,10.63,10.63,0,0,1,2.17,3.63,13.9,13.9,0,0,1,.79,4.83v19.4Z"/>
        <path class="eabe7ba2-9f94-426a-82aa-7bcd9e4c139a" d="M200.39,38.3a3.89,3.89,0,0,1-1.62,3.14,6.55,6.55,0,0,1-7.82,0,4.25,4.25,0,0,1-1.69-3.23A3.82,3.82,0,0,1,190.81,35a6.3,6.3,0,0,1,4.08-1.31A6.19,6.19,0,0,1,197,34a5.46,5.46,0,0,1,1.76,1,5.16,5.16,0,0,1,1.2,1.5A3.87,3.87,0,0,1,200.39,38.3ZM189.83,77.78v-31h9.36v31Z"/>
        <path class="eabe7ba2-9f94-426a-82aa-7bcd9e4c139a" d="M225.66,77.78V60.2a7,7,0,0,0-.46-2.85,4.13,4.13,0,0,0-1.09-1.53,2.76,2.76,0,0,0-1.34-.61,8.24,8.24,0,0,0-1.19-.1,7,7,0,0,0-1.48.27A5.05,5.05,0,0,0,218,56.67a8.89,8.89,0,0,0-1.94,3,13.7,13.7,0,0,0-.84,5.29V77.78h-9.36V57.3a34.08,34.08,0,0,0-.43-5.34,17.34,17.34,0,0,0-1.12-4.31h9.36a14,14,0,0,1,.6,1.62q.17.63.39,1.83a14.53,14.53,0,0,1,4.82-3.24,14.06,14.06,0,0,1,5.25-1.06,10.18,10.18,0,0,1,4.1.83,9.71,9.71,0,0,1,3.28,2.29,10.63,10.63,0,0,1,2.17,3.63,13.9,13.9,0,0,1,.79,4.83v19.4Z"/>
        <path class="eabe7ba2-9f94-426a-82aa-7bcd9e4c139a" d="M271.77,78.76a32.69,32.69,0,0,1-1.19,9.54,16.44,16.44,0,0,1-3.23,6.16,11.7,11.7,0,0,1-4.85,3.35,17.71,17.71,0,0,1-6.1,1,51.92,51.92,0,0,1-6.29-.39,22.73,22.73,0,0,1-5.93-1.51V89.82a39.9,39.9,0,0,0,5.39,1.51,23.65,23.65,0,0,0,4.54.53,8.1,8.1,0,0,0,3.37-.7,6.68,6.68,0,0,0,2.62-2.26,11.69,11.69,0,0,0,1.7-4.08,26.36,26.36,0,0,0,.61-6.13V75.6a10.84,10.84,0,0,1-4,2.36,16.39,16.39,0,0,1-4.36.52,13.85,13.85,0,0,1-5.49-1,11.9,11.9,0,0,1-4.19-3,13.43,13.43,0,0,1-2.68-4.61,18.19,18.19,0,0,1-.95-6,17.81,17.81,0,0,1,1.47-7.36,15.64,15.64,0,0,1,4.17-5.59,18.71,18.71,0,0,1,6.57-3.56,28.57,28.57,0,0,1,8.7-1.23c1,0,1.88,0,2.65,0s1.51.09,2.24.18,1.53.22,2.36.39,1.79.38,2.89.67Zm-9.36-23.51c-.83-.14-1.44-.23-1.85-.28a14.33,14.33,0,0,0-1.63-.07,8.9,8.9,0,0,0-6.49,2.29,8.36,8.36,0,0,0-2.35,6.3,6,6,0,0,0,1.55,4.43,5.25,5.25,0,0,0,3.88,1.55,11.24,11.24,0,0,0,2.54-.28,4.49,4.49,0,0,0,2.21-1.27,6.86,6.86,0,0,0,1.56-2.85,17.74,17.74,0,0,0,.58-5Z"/>
        <path class="eabe7ba2-9f94-426a-82aa-7bcd9e4c139a" d="M325.06,78.76a32.73,32.73,0,0,1-1.18,9.54,16.6,16.6,0,0,1-3.24,6.16,11.7,11.7,0,0,1-4.85,3.35,17.67,17.67,0,0,1-6.1,1,51.92,51.92,0,0,1-6.29-.39,22.56,22.56,0,0,1-5.92-1.51V89.82a39.78,39.78,0,0,0,5.38,1.51,23.74,23.74,0,0,0,4.54.53,8.1,8.1,0,0,0,3.37-.7,6.61,6.61,0,0,0,2.62-2.26,11.5,11.5,0,0,0,1.7-4.08,26.36,26.36,0,0,0,.61-6.13V75.6a10.84,10.84,0,0,1-4,2.36,16.39,16.39,0,0,1-4.36.52,13.85,13.85,0,0,1-5.49-1,12,12,0,0,1-4.19-3A13.43,13.43,0,0,1,295,69.86a18.19,18.19,0,0,1-.95-6,17.81,17.81,0,0,1,1.47-7.36,15.64,15.64,0,0,1,4.17-5.59,18.71,18.71,0,0,1,6.57-3.56,28.59,28.59,0,0,1,8.71-1.23q1.5,0,2.64,0t2.25.18c.73.1,1.52.22,2.35.39s1.8.38,2.89.67ZM315.7,55.25c-.82-.14-1.44-.23-1.85-.28a14.33,14.33,0,0,0-1.63-.07,8.9,8.9,0,0,0-6.49,2.29,8.36,8.36,0,0,0-2.35,6.3,6,6,0,0,0,1.56,4.43,5.23,5.23,0,0,0,3.87,1.55,11.24,11.24,0,0,0,2.54-.28,4.49,4.49,0,0,0,2.21-1.27,6.86,6.86,0,0,0,1.56-2.85,17.74,17.74,0,0,0,.58-5Z"/>
        <path class="eabe7ba2-9f94-426a-82aa-7bcd9e4c139a" d="M352.72,77.78a11.45,11.45,0,0,0-.07-1.2c0-.37-.09-.82-.11-1.33s-.06-1.06-.11-1.62a11.17,11.17,0,0,1-4.59,3.62,14.84,14.84,0,0,1-6,1.23q-5.77,0-9-3.8t-3.21-10.84q0-8.52,5.17-13.13t14.74-4.61c1.05,0,2,0,2.85.07s1.72.13,2.57.25,1.74.27,2.65.45,1.9.45,3,.78v20c0,1.08,0,2.22.07,3.42s.12,2.28.21,3.27c.1,1.17.19,2.32.29,3.45Zm-1.47-23a13.31,13.31,0,0,0-2.22-.35c-.67,0-1.29-.07-1.86-.07a7.5,7.5,0,0,0-6,2.5A10.28,10.28,0,0,0,339,63.84a6.91,6.91,0,0,0,1.29,4.51,4.49,4.49,0,0,0,3.65,1.54,6.48,6.48,0,0,0,2.83-.63,7.07,7.07,0,0,0,2.33-1.79,8.84,8.84,0,0,0,1.58-2.75,10.45,10.45,0,0,0,.57-3.55Z"/>
        <path class="eabe7ba2-9f94-426a-82aa-7bcd9e4c139a" d="M388,55.46c-.66-.14-1.18-.23-1.55-.28a9.81,9.81,0,0,0-1.27-.07,7.18,7.18,0,0,0-6.09,2.75C377.71,59.69,377,62.42,377,66V77.78h-9.36V57.45q0-1.73,0-3c0-.85-.09-1.64-.18-2.38a19.71,19.71,0,0,0-.39-2.17c-.16-.71-.38-1.53-.67-2.45h8.89c.15.58.28,1.07.4,1.48a8.21,8.21,0,0,1,.26,1.16c0,.36.09.75.14,1.16a12.54,12.54,0,0,1,.07,1.48,15.89,15.89,0,0,1,4-4.59,7.68,7.68,0,0,1,4.47-1.34,6.44,6.44,0,0,1,1.65.18,15.19,15.19,0,0,1,1.87.69Z"/>
        <path class="eabe7ba2-9f94-426a-82aa-7bcd9e4c139a" d="M421,60.05a20.57,20.57,0,0,1-1.22,7.29,15.25,15.25,0,0,1-8.9,9.17,18.82,18.82,0,0,1-7.07,1.27,36,36,0,0,1-7-.73,33,33,0,0,1-6.61-2V29.5h9.36V50.41a11.13,11.13,0,0,1,4-2.71,14,14,0,0,1,5.12-.9,13.3,13.3,0,0,1,5,.94,11,11,0,0,1,3.91,2.68,12.22,12.22,0,0,1,2.5,4.18A15.66,15.66,0,0,1,421,60.05Zm-9.36,1.7a6.13,6.13,0,0,0-1.42-4.3,5.1,5.1,0,0,0-4-1.57,6.72,6.72,0,0,0-2.83.58A6.47,6.47,0,0,0,401.27,58a6.57,6.57,0,0,0-1.35,2.26,8,8,0,0,0-.45,2.68v5.35a8.57,8.57,0,0,0,2.22.83,13.5,13.5,0,0,0,2.56.19,7.28,7.28,0,0,0,5.43-2A7.6,7.6,0,0,0,411.65,61.75Z"/>
        <path class="eabe7ba2-9f94-426a-82aa-7bcd9e4c139a" d="M447.34,77.78a11.8,11.8,0,0,0-.08-1.2c-.05-.37-.08-.82-.11-1.33s-.06-1.06-.11-1.62a11.07,11.07,0,0,1-4.58,3.62,14.88,14.88,0,0,1-6,1.23q-5.79,0-9-3.8t-3.21-10.84q0-8.52,5.18-13.13t14.74-4.61c1,0,2,0,2.85.07s1.71.13,2.57.25,1.74.27,2.64.45,1.9.45,3,.78v20c0,1.08,0,2.22.07,3.42s.11,2.28.21,3.27c.09,1.17.19,2.32.28,3.45Zm-1.48-23a13.31,13.31,0,0,0-2.22-.35c-.67,0-1.29-.07-1.86-.07a7.51,7.51,0,0,0-6,2.5,10.28,10.28,0,0,0-2.14,6.93,6.91,6.91,0,0,0,1.28,4.51,4.5,4.5,0,0,0,3.66,1.54,6.54,6.54,0,0,0,2.83-.63,7,7,0,0,0,2.32-1.79,8.65,8.65,0,0,0,1.58-2.75,10.45,10.45,0,0,0,.57-3.55Z"/>
        <path class="eabe7ba2-9f94-426a-82aa-7bcd9e4c139a" d="M491,78.76a32.69,32.69,0,0,1-1.19,9.54,16.44,16.44,0,0,1-3.23,6.16,11.7,11.7,0,0,1-4.85,3.35,17.71,17.71,0,0,1-6.1,1,51.92,51.92,0,0,1-6.29-.39,22.73,22.73,0,0,1-5.93-1.51V89.82a39.9,39.9,0,0,0,5.39,1.51,23.65,23.65,0,0,0,4.54.53,8.1,8.1,0,0,0,3.37-.7,6.68,6.68,0,0,0,2.62-2.26,11.69,11.69,0,0,0,1.7-4.08,26.92,26.92,0,0,0,.61-6.13V75.6a10.84,10.84,0,0,1-4,2.36,16.39,16.39,0,0,1-4.36.52,13.85,13.85,0,0,1-5.49-1,11.9,11.9,0,0,1-4.19-3,13.43,13.43,0,0,1-2.68-4.61,18.19,18.19,0,0,1-.95-6,17.81,17.81,0,0,1,1.47-7.36,15.64,15.64,0,0,1,4.17-5.59,18.71,18.71,0,0,1,6.57-3.56,28.59,28.59,0,0,1,8.71-1.23q1.49,0,2.64,0c.76,0,1.51.09,2.24.18s1.53.22,2.36.39,1.8.38,2.89.67Zm-9.36-23.51c-.83-.14-1.44-.23-1.85-.28a14.33,14.33,0,0,0-1.63-.07,8.9,8.9,0,0,0-6.49,2.29,8.36,8.36,0,0,0-2.35,6.3,6,6,0,0,0,1.55,4.43,5.27,5.27,0,0,0,3.88,1.55,11.24,11.24,0,0,0,2.54-.28,4.49,4.49,0,0,0,2.21-1.27,6.86,6.86,0,0,0,1.56-2.85,17.74,17.74,0,0,0,.58-5Z"/>
        <path class="eabe7ba2-9f94-426a-82aa-7bcd9e4c139a" d="M523.87,55.32a8,8,0,0,1-1.26,4.37A10.42,10.42,0,0,1,519.08,63a19.46,19.46,0,0,1-5.48,2.15,31,31,0,0,1-7.18.77l-.84,0c-.32,0-.7,0-1.14,0a6.46,6.46,0,0,0,2.11,4.19,6.68,6.68,0,0,0,4.55,1.51,20.83,20.83,0,0,0,10.37-3.16v7.39a20.53,20.53,0,0,1-5.1,2.22,21.67,21.67,0,0,1-5.53.66,18.34,18.34,0,0,1-6.37-1,13.09,13.09,0,0,1-4.82-3.06,13.73,13.73,0,0,1-3-4.79,17.71,17.71,0,0,1-1.05-6.3,19.64,19.64,0,0,1,1.23-7.08,16.45,16.45,0,0,1,3.45-5.52,15.17,15.17,0,0,1,5.31-3.59A17.79,17.79,0,0,1,512.39,46a12.87,12.87,0,0,1,8.34,2.53A8.27,8.27,0,0,1,523.87,55.32ZM514.5,56a2.47,2.47,0,0,0-1-1.94,3.67,3.67,0,0,0-2.43-.81,5.57,5.57,0,0,0-4,1.65,7.92,7.92,0,0,0-2.16,4.55,6.15,6.15,0,0,0,1.12.14h1Q514.5,59.62,514.5,56Z"/>
      </g>
    </g>
  </g>
</svg>
