<svg id="a95042f6-1d81-4df7-ba5c-d1fa85e48da4" data-name="Layer 1" xmlns="http://www.w3.org/2000/svg" width="704" height="117" viewBox="0 0 704 117">
  <defs>
    <style>
      .a044f7af-d015-43ac-a679-5b474e765cb0 {
        fill: #9934ce;
        stroke: #fff;
        stroke-miterlimit: 10;
        stroke-width: 4px;
      }

      .a8195e0a-dce8-4771-9d70-a362c768562b {
        fill: #370244;
      }

      .ec73ed2f-d1f9-4826-ac43-915deff16c6b {
        fill: #fff5b8;
      }
    </style>
  </defs>
  <g>
    <rect id="f3087192-b7be-49a6-b532-dacc04f94125" data-name="shadow" class="a044f7af-d015-43ac-a679-5b474e765cb0" x="10.28" y="4" width="683.44" height="109" rx="54.5"/>
    <g>
      <g>
        <path class="a8195e0a-dce8-4771-9d70-a362c768562b" d="M93.46,69.36a8.85,8.85,0,0,1-3,7Q87.49,79,82.09,79A35,35,0,0,1,75,78.3a21,21,0,0,1-5.64-1.9l1.2-7.18q6.12,3.16,10.7,3.17a3.06,3.06,0,0,0,2.22-.67,2.12,2.12,0,0,0,.67-1.51,2.72,2.72,0,0,0-.53-1.73A8,8,0,0,0,81,66.83a41.16,41.16,0,0,1-5-2.54,16,16,0,0,1-3.38-2.64,8.73,8.73,0,0,1-1.9-2.92,9.66,9.66,0,0,1-.6-3.52,7.92,7.92,0,0,1,3.4-6.86,15,15,0,0,1,8.89-2.43,26.92,26.92,0,0,1,5.25.46A24.06,24.06,0,0,1,93,48.17l-1.13,7.11A16.6,16.6,0,0,0,87,53.35a21.14,21.14,0,0,0-4.62-.53,3.18,3.18,0,0,0-2.24.6A2.09,2.09,0,0,0,79.52,55a2.33,2.33,0,0,0,1,1.94,20,20,0,0,0,3.75,1.93,46.35,46.35,0,0,1,4.27,2.43,15,15,0,0,1,2.88,2.39A7.62,7.62,0,0,1,93,66.3,9.49,9.49,0,0,1,93.46,69.36Z"/>
        <path class="a8195e0a-dce8-4771-9d70-a362c768562b" d="M138.44,78V62.64c0-2.77-.39-4.68-1.18-5.75A3.82,3.82,0,0,0,134,55.28a4.9,4.9,0,0,0-2.1.5A5.41,5.41,0,0,0,130,57.42a8.92,8.92,0,0,0-1.4,3.08,18.75,18.75,0,0,0-.52,4.81V78h-9.37V62.64a11,11,0,0,0-1.09-5.59A3.92,3.92,0,0,0,114,55.28a5.1,5.1,0,0,0-4.16,2.38Q108.1,60,108.1,65.31V78H98.74V58.5c0-1.14,0-2.17-.07-3.1s-.13-1.81-.25-2.63a18.39,18.39,0,0,0-.49-2.39c-.21-.77-.46-1.59-.74-2.46h9.36c.24.73.41,1.28.53,1.64a15.46,15.46,0,0,1,.39,1.57,21.7,21.7,0,0,1,4.87-3A15.73,15.73,0,0,1,118.77,47a10.91,10.91,0,0,1,4.8,1,7.15,7.15,0,0,1,3.18,2.85A10.42,10.42,0,0,1,131.47,48a19.4,19.4,0,0,1,6.06-1c3.28,0,5.82.93,7.6,2.8s2.68,4.58,2.68,8.14V78Z"/>
        <path class="a8195e0a-dce8-4771-9d70-a362c768562b" d="M185.54,62.36A17.82,17.82,0,0,1,184.39,69a13.35,13.35,0,0,1-3.3,4.87,14,14,0,0,1-5.12,3,21.79,21.79,0,0,1-13.24,0,14,14,0,0,1-5.12-3A13.54,13.54,0,0,1,154.28,69a17.41,17.41,0,0,1-1.19-6.67,17.2,17.2,0,0,1,1.15-6.5A13.34,13.34,0,0,1,162.62,48,22.67,22.67,0,0,1,176,48a14,14,0,0,1,5.12,3,13.15,13.15,0,0,1,3.3,4.84A17.7,17.7,0,0,1,185.54,62.36Zm-9.36,0a7,7,0,0,0-1.89-5.22,6.89,6.89,0,0,0-5.08-1.87,6.53,6.53,0,0,0-5,1.87,7.35,7.35,0,0,0-1.74,5.22,7.77,7.77,0,0,0,1.71,5.38,6.45,6.45,0,0,0,5.05,1.89,6.87,6.87,0,0,0,5.15-1.86A7.45,7.45,0,0,0,176.18,62.37Z"/>
        <path class="a8195e0a-dce8-4771-9d70-a362c768562b" d="M208.91,59.65l15,18.3H211.52L199.83,62.67V78h-9.36V28.88h9.36v28.3L211.24,47h13.44Z"/>
        <path class="a8195e0a-dce8-4771-9d70-a362c768562b" d="M254.67,55.49a8,8,0,0,1-1.25,4.37,10.42,10.42,0,0,1-3.53,3.34,19.46,19.46,0,0,1-5.48,2.15,30.46,30.46,0,0,1-7.18.77l-.85,0c-.31,0-.7,0-1.14,0a6.51,6.51,0,0,0,2.11,4.19,6.71,6.71,0,0,0,4.56,1.52,20.85,20.85,0,0,0,10.37-3.17V76a20.69,20.69,0,0,1-5.1,2.22,21.65,21.65,0,0,1-5.53.67,18.3,18.3,0,0,1-6.37-1.06,12.84,12.84,0,0,1-4.82-3.06,13.59,13.59,0,0,1-3-4.79,17.7,17.7,0,0,1-1.06-6.3,19.42,19.42,0,0,1,1.24-7.08,16.58,16.58,0,0,1,3.44-5.52,15.12,15.12,0,0,1,5.32-3.59,17.75,17.75,0,0,1,6.83-1.27,12.92,12.92,0,0,1,8.34,2.53A8.26,8.26,0,0,1,254.67,55.49Zm-9.36.71a2.47,2.47,0,0,0-1-1.94,3.68,3.68,0,0,0-2.44-.81,5.53,5.53,0,0,0-4,1.66,7.8,7.8,0,0,0-2.16,4.54,6.15,6.15,0,0,0,1.12.14h1Q245.31,59.79,245.31,56.2Z"/>
        <path class="a8195e0a-dce8-4771-9d70-a362c768562b" d="M298,37.54a13.3,13.3,0,0,0-2.54-.95,10.38,10.38,0,0,0-2.32-.25,6.36,6.36,0,0,0-2.88.57,3.93,3.93,0,0,0-1.77,1.79,10.05,10.05,0,0,0-.88,3.28,43.73,43.73,0,0,0-.24,5h7.46V53.8h-7.39V78h-9.36V53.66H272.2V47h5.71a40.74,40.74,0,0,1,.77-8.7A14.14,14.14,0,0,1,281,32.72a8.68,8.68,0,0,1,3.94-3,15.71,15.71,0,0,1,5.46-.88,24.27,24.27,0,0,1,8.37,1.41Z"/>
        <path class="a8195e0a-dce8-4771-9d70-a362c768562b" d="M317.33,55.63c-.66-.14-1.18-.23-1.55-.28a12,12,0,0,0-1.27-.07A7.18,7.18,0,0,0,308.42,58q-2.07,2.74-2.07,8.18V78H297V57.62q0-1.73,0-3c0-.85-.08-1.64-.18-2.38a19.71,19.71,0,0,0-.39-2.17c-.16-.71-.38-1.53-.66-2.45h8.88c.15.58.28,1.08.4,1.48a8.21,8.21,0,0,1,.26,1.16c.05.36.09.75.14,1.16a12.31,12.31,0,0,1,.08,1.48,15.73,15.73,0,0,1,4-4.59A7.67,7.67,0,0,1,314,47a6.91,6.91,0,0,1,1.65.17,19.49,19.49,0,0,1,1.87.69Z"/>
        <path class="a8195e0a-dce8-4771-9d70-a362c768562b" d="M350,62.36A17.82,17.82,0,0,1,348.84,69a13.23,13.23,0,0,1-3.3,4.87,14,14,0,0,1-5.12,3,21.79,21.79,0,0,1-13.24,0,14.1,14.1,0,0,1-5.12-3A13.54,13.54,0,0,1,318.73,69a17.41,17.41,0,0,1-1.19-6.67,17,17,0,0,1,1.16-6.5A13.63,13.63,0,0,1,322,51a13.91,13.91,0,0,1,5.12-3,22.67,22.67,0,0,1,13.35,0,14,14,0,0,1,5.12,3,13,13,0,0,1,3.3,4.84A17.7,17.7,0,0,1,350,62.36Zm-9.36,0a7,7,0,0,0-1.89-5.22,6.89,6.89,0,0,0-5.08-1.87,6.5,6.5,0,0,0-5,1.87,7.31,7.31,0,0,0-1.75,5.22,7.77,7.77,0,0,0,1.71,5.38,6.46,6.46,0,0,0,5.05,1.89,6.87,6.87,0,0,0,5.15-1.86A7.45,7.45,0,0,0,340.63,62.37Z"/>
        <path class="a8195e0a-dce8-4771-9d70-a362c768562b" d="M395.05,78V62.64c0-2.77-.4-4.68-1.19-5.75a3.79,3.79,0,0,0-3.22-1.61,4.93,4.93,0,0,0-2.1.5,5.58,5.58,0,0,0-1.92,1.64,8.92,8.92,0,0,0-1.4,3.08,19.2,19.2,0,0,0-.52,4.81V78h-9.36V62.64a11.12,11.12,0,0,0-1.09-5.59,3.93,3.93,0,0,0-3.63-1.77,5.07,5.07,0,0,0-4.15,2.38c-1.18,1.58-1.76,4.13-1.76,7.65V78h-9.37V58.5c0-1.14,0-2.17-.07-3.1s-.13-1.81-.24-2.63a20.23,20.23,0,0,0-.5-2.39c-.21-.77-.45-1.59-.74-2.46h9.37c.23.73.41,1.28.53,1.64s.24.89.38,1.57a21.7,21.7,0,0,1,4.87-3A15.76,15.76,0,0,1,375.37,47a10.91,10.91,0,0,1,4.8,1,7,7,0,0,1,3.18,2.85A10.42,10.42,0,0,1,388.07,48a19.4,19.4,0,0,1,6.06-1c3.29,0,5.82.93,7.61,2.8s2.67,4.58,2.67,8.14V78Z"/>
        <path class="a8195e0a-dce8-4771-9d70-a362c768562b" d="M447.35,73.36c-.37.82-.72,1.53-1.05,2.12a5.13,5.13,0,0,1-1.13,1.44,3.76,3.76,0,0,1-1.44.79,7.18,7.18,0,0,1-2,.24,5.48,5.48,0,0,1-3.27-.89,7.51,7.51,0,0,1-2.22-3.36L425.18,47h9.71l5.21,14.25q.57,1.5,1,2.88a21.89,21.89,0,0,1,.67,2.33c.24-.64.54-1.43.92-2.37s.75-1.86,1.12-2.77L449.4,47H459Z"/>
        <path class="a8195e0a-dce8-4771-9d70-a362c768562b" d="M488.54,55.49a8,8,0,0,1-1.25,4.37,10.46,10.46,0,0,1-3.54,3.34,19.34,19.34,0,0,1-5.48,2.15,30.31,30.31,0,0,1-7.17.77l-.85,0c-.32,0-.7,0-1.14,0a6.46,6.46,0,0,0,2.11,4.19,6.7,6.7,0,0,0,4.56,1.52,20.85,20.85,0,0,0,10.36-3.17V76A20.37,20.37,0,0,1,481,78.2a21.6,21.6,0,0,1-5.53.67,18.34,18.34,0,0,1-6.37-1.06,12.84,12.84,0,0,1-4.82-3.06,13.88,13.88,0,0,1-3-4.79,17.71,17.71,0,0,1-1.05-6.3,19.64,19.64,0,0,1,1.23-7.08,16.45,16.45,0,0,1,3.45-5.52,15.17,15.17,0,0,1,5.31-3.59,17.82,17.82,0,0,1,6.83-1.27,12.93,12.93,0,0,1,8.35,2.53A8.29,8.29,0,0,1,488.54,55.49Zm-9.36.71a2.48,2.48,0,0,0-1-1.94,3.64,3.64,0,0,0-2.43-.81,5.55,5.55,0,0,0-4,1.66,7.86,7.86,0,0,0-2.16,4.54,6.25,6.25,0,0,0,1.12.14h1C476.7,59.79,479.18,58.59,479.18,56.2Z"/>
        <path class="a8195e0a-dce8-4771-9d70-a362c768562b" d="M511.77,78V60.44a9.37,9.37,0,0,0-.32-2.71,3.65,3.65,0,0,0-.9-1.56,2.85,2.85,0,0,0-1.3-.72,6.63,6.63,0,0,0-1.5-.17,4.3,4.3,0,0,0-2.34.71,7.42,7.42,0,0,0-2,1.94,10.72,10.72,0,0,0-1.4,2.88,11.29,11.29,0,0,0-.54,3.5V78h-9.36V29.73h9.29V50.49a10.83,10.83,0,0,1,3.89-2.71A13.16,13.16,0,0,1,510,47a15.34,15.34,0,0,1,4.06.54,10.3,10.3,0,0,1,3.54,1.75,8.81,8.81,0,0,1,2.53,3.19,10.94,10.94,0,0,1,1,4.86V78Z"/>
        <path class="a8195e0a-dce8-4771-9d70-a362c768562b" d="M539.23,38.47a3.89,3.89,0,0,1-1.62,3.14,6.55,6.55,0,0,1-7.82,0,4.24,4.24,0,0,1-1.69-3.23,3.82,3.82,0,0,1,1.55-3.23,6.3,6.3,0,0,1,4.08-1.31,6.19,6.19,0,0,1,2.08.36,5.65,5.65,0,0,1,1.76,1,5.16,5.16,0,0,1,1.2,1.5A3.9,3.9,0,0,1,539.23,38.47ZM528.67,78V47H538V78Z"/>
        <path class="a8195e0a-dce8-4771-9d70-a362c768562b" d="M563.62,77.38a21.44,21.44,0,0,1-5,.57,16.75,16.75,0,0,1-6.19-1.11,15.12,15.12,0,0,1-4.89-3.06,13,13,0,0,1-3.21-4.7A16,16,0,0,1,543.17,63a19.65,19.65,0,0,1,1-6.45,13.24,13.24,0,0,1,3.1-5.08,14.25,14.25,0,0,1,5.13-3.29A20,20,0,0,1,559.57,47a16.5,16.5,0,0,1,5.39.73,19.74,19.74,0,0,1,3.48,1.59l-1.62,8.09c-.7-.32-1.3-.62-1.79-.88s-1-.46-1.41-.63a7.13,7.13,0,0,0-1.48-.35,15.31,15.31,0,0,0-1.94-.11,7.3,7.3,0,0,0-5.42,1.92,7.08,7.08,0,0,0-1.9,5.19,6.91,6.91,0,0,0,2,5.23,8,8,0,0,0,5.71,1.88,15.28,15.28,0,0,0,3.66-.43A20.15,20.15,0,0,0,568,67.87l.63,7.66A24.54,24.54,0,0,1,563.62,77.38Z"/>
        <path class="a8195e0a-dce8-4771-9d70-a362c768562b" d="M572,78V28.88h9.36V78Z"/>
        <path class="a8195e0a-dce8-4771-9d70-a362c768562b" d="M615,55.49a8,8,0,0,1-1.25,4.37,10.42,10.42,0,0,1-3.53,3.34,19.46,19.46,0,0,1-5.48,2.15,30.46,30.46,0,0,1-7.18.77l-.85,0c-.32,0-.7,0-1.14,0a6.51,6.51,0,0,0,2.11,4.19,6.7,6.7,0,0,0,4.56,1.52,20.85,20.85,0,0,0,10.37-3.17V76a20.69,20.69,0,0,1-5.1,2.22,21.65,21.65,0,0,1-5.53.67,18.3,18.3,0,0,1-6.37-1.06,12.84,12.84,0,0,1-4.82-3.06,13.59,13.59,0,0,1-3-4.79,17.49,17.49,0,0,1-1.06-6.3A19.64,19.64,0,0,1,588,56.58a16.61,16.61,0,0,1,3.45-5.52,15.12,15.12,0,0,1,5.32-3.59,17.75,17.75,0,0,1,6.83-1.27,12.92,12.92,0,0,1,8.34,2.53A8.26,8.26,0,0,1,615,55.49Zm-9.36.71a2.45,2.45,0,0,0-1-1.94,3.64,3.64,0,0,0-2.43-.81,5.53,5.53,0,0,0-4,1.66,7.74,7.74,0,0,0-2.16,4.54,6.15,6.15,0,0,0,1.12.14h1Q605.68,59.79,605.68,56.2Z"/>
        <path class="a8195e0a-dce8-4771-9d70-a362c768562b" d="M640.88,69.36a8.85,8.85,0,0,1-3,7q-3,2.61-8.39,2.61a35,35,0,0,1-7.14-.71,21,21,0,0,1-5.64-1.9l1.2-7.18q6.12,3.16,10.7,3.17a3.06,3.06,0,0,0,2.22-.67,2.12,2.12,0,0,0,.67-1.51,2.72,2.72,0,0,0-.53-1.73,8,8,0,0,0-2.57-1.65,41.16,41.16,0,0,1-5-2.54,16,16,0,0,1-3.38-2.64,8.73,8.73,0,0,1-1.9-2.92,9.66,9.66,0,0,1-.6-3.52,7.92,7.92,0,0,1,3.4-6.86,15,15,0,0,1,8.89-2.43,26.92,26.92,0,0,1,5.25.46,24.06,24.06,0,0,1,5.26,1.79l-1.13,7.11a16.6,16.6,0,0,0-4.84-1.93,21.14,21.14,0,0,0-4.62-.53,3.18,3.18,0,0,0-2.24.6,2.09,2.09,0,0,0-.61,1.58,2.33,2.33,0,0,0,1,1.94,20,20,0,0,0,3.75,1.93,46.35,46.35,0,0,1,4.27,2.43,15,15,0,0,1,2.88,2.39,7.62,7.62,0,0,1,1.6,2.61A9.49,9.49,0,0,1,640.88,69.36Z"/>
      </g>
      <g>
        <path class="ec73ed2f-d1f9-4826-ac43-915deff16c6b" d="M90.9,69.18a8.9,8.9,0,0,1-3,7c-2,1.74-4.79,2.6-8.39,2.6a35.18,35.18,0,0,1-7.15-.7,21,21,0,0,1-5.63-1.9L68,69q6.12,3.17,10.7,3.17a3.1,3.1,0,0,0,2.22-.67A2.11,2.11,0,0,0,81.53,70,2.71,2.71,0,0,0,81,68.3a8,8,0,0,0-2.57-1.65,42.13,42.13,0,0,1-5-2.54,16.27,16.27,0,0,1-3.38-2.64,9,9,0,0,1-1.9-2.92,9.69,9.69,0,0,1-.6-3.52A7.92,7.92,0,0,1,71,48.17a15,15,0,0,1,8.89-2.43,27.85,27.85,0,0,1,5.25.45A24.69,24.69,0,0,1,90.4,48L89.27,55.1a16.92,16.92,0,0,0-4.84-1.94,21.83,21.83,0,0,0-4.63-.52,3.25,3.25,0,0,0-2.24.59,2.15,2.15,0,0,0-.6,1.59,2.31,2.31,0,0,0,1,1.93,20,20,0,0,0,3.75,1.94A45.34,45.34,0,0,1,86,61.12a15.23,15.23,0,0,1,2.88,2.39,7.65,7.65,0,0,1,1.59,2.61A9.18,9.18,0,0,1,90.9,69.18Z"/>
        <path class="ec73ed2f-d1f9-4826-ac43-915deff16c6b" d="M135.88,77.77V62.46c0-2.77-.4-4.68-1.19-5.75a3.79,3.79,0,0,0-3.21-1.61,4.9,4.9,0,0,0-2.1.5,5.41,5.41,0,0,0-1.92,1.64,8.65,8.65,0,0,0-1.4,3.08,18.7,18.7,0,0,0-.53,4.81V77.77h-9.36V62.46a11,11,0,0,0-1.09-5.59,3.93,3.93,0,0,0-3.63-1.77,5.1,5.1,0,0,0-4.15,2.37q-1.76,2.39-1.76,7.66V77.77H96.18V58.32c0-1.14,0-2.17-.07-3.11s-.13-1.81-.25-2.62a20.22,20.22,0,0,0-.49-2.39c-.21-.78-.46-1.6-.74-2.46H104c.23.73.41,1.28.53,1.64s.24.89.39,1.57a21.88,21.88,0,0,1,4.87-3,15.85,15.85,0,0,1,6.42-1.16,11,11,0,0,1,4.81,1,7.19,7.19,0,0,1,3.18,2.84,10.4,10.4,0,0,1,4.71-2.87,19.41,19.41,0,0,1,6.06-1c3.29,0,5.82.94,7.61,2.81s2.67,4.58,2.67,8.13v20Z"/>
        <path class="ec73ed2f-d1f9-4826-ac43-915deff16c6b" d="M183,62.18a17.85,17.85,0,0,1-1.16,6.67,13.33,13.33,0,0,1-3.29,4.87,14.1,14.1,0,0,1-5.12,3,21.82,21.82,0,0,1-13.25,0,14.06,14.06,0,0,1-5.11-3,13.54,13.54,0,0,1-3.33-4.87,17.26,17.26,0,0,1-1.2-6.67,17.2,17.2,0,0,1,1.16-6.5,13.65,13.65,0,0,1,3.26-4.84,13.83,13.83,0,0,1,5.12-3,22.46,22.46,0,0,1,13.35,0,14.1,14.1,0,0,1,5.12,3,13,13,0,0,1,3.29,4.84A17.7,17.7,0,0,1,183,62.18Zm-9.36,0A7,7,0,0,0,171.73,57a6.91,6.91,0,0,0-5.09-1.87,6.5,6.5,0,0,0-5,1.87,7.35,7.35,0,0,0-1.74,5.22,7.82,7.82,0,0,0,1.7,5.38,6.46,6.46,0,0,0,5,1.89,6.88,6.88,0,0,0,5.16-1.86A7.47,7.47,0,0,0,173.62,62.19Z"/>
        <path class="ec73ed2f-d1f9-4826-ac43-915deff16c6b" d="M206.35,59.47l15,18.3H209L197.27,62.49V77.77h-9.36V28.7h9.36V57l11.4-10.21h13.45Z"/>
        <path class="ec73ed2f-d1f9-4826-ac43-915deff16c6b" d="M252.11,55.31a8,8,0,0,1-1.25,4.37A10.62,10.62,0,0,1,247.33,63a19.41,19.41,0,0,1-5.49,2.15,30.84,30.84,0,0,1-7.17.77l-.85,0c-.32,0-.7,0-1.14,0a6.51,6.51,0,0,0,2.11,4.19,6.69,6.69,0,0,0,4.56,1.51,20.86,20.86,0,0,0,10.37-3.16V75.8A20.59,20.59,0,0,1,244.61,78a21.59,21.59,0,0,1-5.52.66,18.3,18.3,0,0,1-6.37-1.05,13.13,13.13,0,0,1-4.83-3.06,13.71,13.71,0,0,1-3-4.79,17.49,17.49,0,0,1-1.06-6.3A19.64,19.64,0,0,1,225,56.4a16.45,16.45,0,0,1,3.45-5.52,15.12,15.12,0,0,1,5.32-3.59A17.75,17.75,0,0,1,240.64,46,12.87,12.87,0,0,1,249,48.55,8.26,8.26,0,0,1,252.11,55.31Zm-9.36.71a2.45,2.45,0,0,0-1-1.94,3.64,3.64,0,0,0-2.43-.81,5.6,5.6,0,0,0-4,1.65,7.92,7.92,0,0,0-2.16,4.55,6.36,6.36,0,0,0,1.12.14h1Q242.76,59.61,242.75,56Z"/>
        <path class="ec73ed2f-d1f9-4826-ac43-915deff16c6b" d="M295.41,37.36a12.65,12.65,0,0,0-2.54-1,10.44,10.44,0,0,0-2.32-.25,6.38,6.38,0,0,0-2.89.57,3.91,3.91,0,0,0-1.76,1.79,10,10,0,0,0-.88,3.27,44,44,0,0,0-.24,5h7.46v6.83h-7.39V77.77h-9.37V53.48h-5.84V46.79h5.7a40.63,40.63,0,0,1,.78-8.69,14.14,14.14,0,0,1,2.35-5.56,8.71,8.71,0,0,1,3.95-3,15.46,15.46,0,0,1,5.45-.88,24.29,24.29,0,0,1,8.38,1.41Z"/>
        <path class="ec73ed2f-d1f9-4826-ac43-915deff16c6b" d="M314.77,55.45c-.66-.14-1.18-.23-1.55-.28A9.81,9.81,0,0,0,312,55.1a7.16,7.16,0,0,0-6.09,2.75q-2.08,2.74-2.08,8.18V77.77h-9.36V57.44c0-1.15,0-2.15,0-3s-.08-1.64-.17-2.38-.23-1.46-.39-2.17-.39-1.53-.67-2.45H302c.15.58.28,1.07.4,1.48a6.94,6.94,0,0,1,.25,1.16c.05.36.1.75.15,1.16a12.54,12.54,0,0,1,.07,1.48,15.74,15.74,0,0,1,4-4.59,7.68,7.68,0,0,1,4.47-1.34A6.49,6.49,0,0,1,313,47a15.19,15.19,0,0,1,1.87.69Z"/>
        <path class="ec73ed2f-d1f9-4826-ac43-915deff16c6b" d="M347.43,62.18a17.85,17.85,0,0,1-1.16,6.67A13.33,13.33,0,0,1,343,73.72a14.1,14.1,0,0,1-5.12,3,21.82,21.82,0,0,1-13.25,0,14.06,14.06,0,0,1-5.11-3,13.54,13.54,0,0,1-3.33-4.87A17.26,17.26,0,0,1,315,62.18a17.2,17.2,0,0,1,1.15-6.5,13.65,13.65,0,0,1,3.26-4.84,13.83,13.83,0,0,1,5.12-3,22.46,22.46,0,0,1,13.35,0,14.1,14.1,0,0,1,5.12,3,13,13,0,0,1,3.29,4.84A17.7,17.7,0,0,1,347.43,62.18Zm-9.36,0A7,7,0,0,0,336.18,57a6.91,6.91,0,0,0-5.09-1.87,6.51,6.51,0,0,0-5,1.87,7.35,7.35,0,0,0-1.74,5.22,7.82,7.82,0,0,0,1.7,5.38,6.47,6.47,0,0,0,5,1.89,6.88,6.88,0,0,0,5.16-1.86A7.47,7.47,0,0,0,338.07,62.19Z"/>
        <path class="ec73ed2f-d1f9-4826-ac43-915deff16c6b" d="M392.49,77.77V62.46c0-2.77-.4-4.68-1.19-5.75a3.82,3.82,0,0,0-3.22-1.61,4.9,4.9,0,0,0-2.1.5,5.41,5.41,0,0,0-1.92,1.64,8.83,8.83,0,0,0-1.4,3.08,18.75,18.75,0,0,0-.52,4.81V77.77h-9.37V62.46a11,11,0,0,0-1.09-5.59,3.92,3.92,0,0,0-3.62-1.77,5.11,5.11,0,0,0-4.16,2.37q-1.75,2.39-1.76,7.66V77.77h-9.36V58.32c0-1.14,0-2.17-.07-3.11s-.13-1.81-.25-2.62A20.22,20.22,0,0,0,352,50.2c-.21-.78-.46-1.6-.74-2.46h9.36c.24.73.41,1.28.53,1.64a14.8,14.8,0,0,1,.39,1.57,21.88,21.88,0,0,1,4.87-3,15.9,15.9,0,0,1,6.43-1.16,10.91,10.91,0,0,1,4.8,1,7.19,7.19,0,0,1,3.18,2.84,10.49,10.49,0,0,1,4.72-2.87,19.41,19.41,0,0,1,6.06-1c3.28,0,5.82.94,7.6,2.81s2.68,4.58,2.68,8.13v20Z"/>
        <path class="ec73ed2f-d1f9-4826-ac43-915deff16c6b" d="M444.79,73.18c-.37.82-.73,1.53-1.05,2.12a5.13,5.13,0,0,1-1.13,1.44,3.76,3.76,0,0,1-1.44.79,7.18,7.18,0,0,1-2,.24,5.48,5.48,0,0,1-3.27-.89,7.48,7.48,0,0,1-2.22-3.36L422.62,46.79h9.71l5.21,14.26c.38,1,.71,2,1,2.88a21.89,21.89,0,0,1,.67,2.33c.23-.64.54-1.43.92-2.37s.75-1.86,1.12-2.77l5.56-14.33h9.65Z"/>
        <path class="ec73ed2f-d1f9-4826-ac43-915deff16c6b" d="M486,55.31a8,8,0,0,1-1.25,4.37A10.52,10.52,0,0,1,481.19,63a19.46,19.46,0,0,1-5.48,2.15,31,31,0,0,1-7.18.77l-.84,0c-.32,0-.7,0-1.15,0a6.52,6.52,0,0,0,2.12,4.19,6.67,6.67,0,0,0,4.55,1.51,20.83,20.83,0,0,0,10.37-3.16V75.8a20.69,20.69,0,0,1-5.1,2.22,21.67,21.67,0,0,1-5.53.66,18.3,18.3,0,0,1-6.37-1.05,13.09,13.09,0,0,1-4.82-3.06,13.59,13.59,0,0,1-3-4.79,17.7,17.7,0,0,1-1.06-6.3,19.42,19.42,0,0,1,1.24-7.08,16.45,16.45,0,0,1,3.45-5.52,15.08,15.08,0,0,1,5.31-3.59A17.79,17.79,0,0,1,474.5,46a12.87,12.87,0,0,1,8.34,2.53A8.26,8.26,0,0,1,486,55.31Zm-9.36.71a2.47,2.47,0,0,0-1-1.94,3.68,3.68,0,0,0-2.44-.81,5.56,5.56,0,0,0-4,1.65A7.92,7.92,0,0,0,467,59.47a6.15,6.15,0,0,0,1.12.14h1Q476.61,59.61,476.61,56Z"/>
        <path class="ec73ed2f-d1f9-4826-ac43-915deff16c6b" d="M509.21,77.77V60.26a9.11,9.11,0,0,0-.33-2.72A3.58,3.58,0,0,0,508,56a2.75,2.75,0,0,0-1.29-.71,6.72,6.72,0,0,0-1.51-.17,4.29,4.29,0,0,0-2.33.71,7,7,0,0,0-2,1.94,10.43,10.43,0,0,0-1.4,2.88,11.29,11.29,0,0,0-.54,3.5V77.77h-9.36V29.55h9.29V50.31a10.83,10.83,0,0,1,3.89-2.71,12.9,12.9,0,0,1,4.72-.81,15.41,15.41,0,0,1,4.06.55,10.34,10.34,0,0,1,3.53,1.75,8.73,8.73,0,0,1,2.54,3.19,10.94,10.94,0,0,1,1,4.86V77.77Z"/>
        <path class="ec73ed2f-d1f9-4826-ac43-915deff16c6b" d="M536.66,38.29A3.89,3.89,0,0,1,535,41.43a6.54,6.54,0,0,1-7.81,0,4.22,4.22,0,0,1-1.69-3.23,3.82,3.82,0,0,1,1.55-3.23,6.3,6.3,0,0,1,4.08-1.31,6.19,6.19,0,0,1,2.08.36A5.57,5.57,0,0,1,535,35a5,5,0,0,1,1.19,1.5A3.76,3.76,0,0,1,536.66,38.29ZM526.1,77.77v-31h9.36v31Z"/>
        <path class="ec73ed2f-d1f9-4826-ac43-915deff16c6b" d="M561.05,77.2a21.35,21.35,0,0,1-5,.57,16.71,16.71,0,0,1-6.19-1.11,15.28,15.28,0,0,1-4.9-3.06,13.22,13.22,0,0,1-3.2-4.7,16.07,16.07,0,0,1-1.13-6.12,19.73,19.73,0,0,1,1-6.45,13.4,13.4,0,0,1,3.1-5.07A14.25,14.25,0,0,1,549.86,48,20,20,0,0,1,557,46.79a16.4,16.4,0,0,1,5.38.74,18.85,18.85,0,0,1,3.49,1.59l-1.62,8.09c-.71-.33-1.3-.62-1.8-.88a10.6,10.6,0,0,0-1.41-.63,6.33,6.33,0,0,0-1.47-.35,15.31,15.31,0,0,0-1.94-.11,7.29,7.29,0,0,0-5.42,1.92,7,7,0,0,0-1.9,5.19,6.87,6.87,0,0,0,2,5.22,7.91,7.91,0,0,0,5.7,1.89,15.16,15.16,0,0,0,3.66-.43,19.65,19.65,0,0,0,3.73-1.34l.64,7.66A24.4,24.4,0,0,1,561.05,77.2Z"/>
        <path class="ec73ed2f-d1f9-4826-ac43-915deff16c6b" d="M569.47,77.77V28.7h9.36V77.77Z"/>
        <path class="ec73ed2f-d1f9-4826-ac43-915deff16c6b" d="M612.48,55.31a8,8,0,0,1-1.25,4.37A10.62,10.62,0,0,1,607.7,63a19.53,19.53,0,0,1-5.49,2.15,30.84,30.84,0,0,1-7.17.77l-.85,0c-.32,0-.7,0-1.14,0a6.51,6.51,0,0,0,2.11,4.19,6.69,6.69,0,0,0,4.56,1.51,20.89,20.89,0,0,0,10.37-3.16V75.8A20.59,20.59,0,0,1,605,78a21.59,21.59,0,0,1-5.52.66,18.4,18.4,0,0,1-6.38-1.05,13.17,13.17,0,0,1-4.82-3.06,13.71,13.71,0,0,1-3-4.79,17.49,17.49,0,0,1-1.06-6.3,19.64,19.64,0,0,1,1.23-7.08,16.45,16.45,0,0,1,3.45-5.52,15.12,15.12,0,0,1,5.32-3.59A17.74,17.74,0,0,1,601,46a12.88,12.88,0,0,1,8.35,2.53A8.26,8.26,0,0,1,612.48,55.31Zm-9.36.71a2.48,2.48,0,0,0-1-1.94,3.64,3.64,0,0,0-2.43-.81,5.58,5.58,0,0,0-4,1.65,7.92,7.92,0,0,0-2.16,4.55,6.36,6.36,0,0,0,1.12.14h1Q603.13,59.61,603.12,56Z"/>
        <path class="ec73ed2f-d1f9-4826-ac43-915deff16c6b" d="M638.32,69.18a8.87,8.87,0,0,1-3,7c-2,1.74-4.78,2.6-8.38,2.6a35.18,35.18,0,0,1-7.15-.7,21,21,0,0,1-5.63-1.9l1.2-7.18q6.12,3.17,10.7,3.17a3.1,3.1,0,0,0,2.22-.67A2.11,2.11,0,0,0,629,70a2.71,2.71,0,0,0-.52-1.72,8,8,0,0,0-2.57-1.65,42.13,42.13,0,0,1-5-2.54,16.27,16.27,0,0,1-3.38-2.64,8.88,8.88,0,0,1-1.9-2.92A9.69,9.69,0,0,1,615,55a7.92,7.92,0,0,1,3.41-6.86,15,15,0,0,1,8.89-2.43,27.74,27.74,0,0,1,5.24.45,24.57,24.57,0,0,1,5.27,1.8l-1.13,7.11a16.92,16.92,0,0,0-4.84-1.94,21.83,21.83,0,0,0-4.63-.52,3.24,3.24,0,0,0-2.24.59,2.15,2.15,0,0,0-.6,1.59,2.31,2.31,0,0,0,1,1.93,20,20,0,0,0,3.75,1.94,45.34,45.34,0,0,1,4.28,2.43,15.23,15.23,0,0,1,2.88,2.39,7.65,7.65,0,0,1,1.59,2.61A9.18,9.18,0,0,1,638.32,69.18Z"/>
      </g>
    </g>
  </g>
</svg>
