<svg id="a478072f-35ff-4f70-9346-75123901ce59" data-name="Layer 1" xmlns="http://www.w3.org/2000/svg" width="812" height="117" viewBox="0 0 812 117">
  <defs>
    <style>
      .bcf8ac5e-3dcd-4ba0-9ccc-2972a95dbd34 {
        fill: #9934ce;
        stroke: #fff;
        stroke-miterlimit: 10;
        stroke-width: 4px;
      }

      .a86314e4-45b3-486a-a692-f3f51f454f39 {
        fill: #360d42;
      }

      .a3f7d441-8d2a-4387-afcc-1e59fb032372 {
        fill: #fff5b8;
      }
    </style>
  </defs>
  <g>
    <rect id="b994b9b1-ab3b-4ccb-b810-ae7329ee2d51" data-name="shadow" class="bcf8ac5e-3dcd-4ba0-9ccc-2972a95dbd34" x="2.63" y="4" width="806.73" height="109" rx="54.5"/>
    <g>
      <g>
        <path class="a86314e4-45b3-486a-a692-f3f51f454f39" d="M96.93,69.3a8.85,8.85,0,0,1-3,7C92,78.08,89.17,79,85.56,79a35.14,35.14,0,0,1-7.14-.71,20.91,20.91,0,0,1-5.63-1.9L74,69.16q6.13,3.16,10.7,3.17a3,3,0,0,0,2.22-.67,2.08,2.08,0,0,0,.67-1.52A2.71,2.71,0,0,0,87,68.42a7.86,7.86,0,0,0-2.57-1.65,41.92,41.92,0,0,1-5-2.54,16,16,0,0,1-3.38-2.64,8.88,8.88,0,0,1-1.9-2.92,9.69,9.69,0,0,1-.6-3.52A7.91,7.91,0,0,1,77,48.29a15,15,0,0,1,8.9-2.43,27.74,27.74,0,0,1,5.24.45,24.51,24.51,0,0,1,5.26,1.8L95.3,55.22a16.49,16.49,0,0,0-4.84-1.93,21.14,21.14,0,0,0-4.62-.53,3.18,3.18,0,0,0-2.24.6A2.12,2.12,0,0,0,83,54.94a2.32,2.32,0,0,0,1,1.93,19.31,19.31,0,0,0,3.75,1.94A43,43,0,0,1,92,61.24a15,15,0,0,1,2.89,2.39,7.65,7.65,0,0,1,1.59,2.61A9.45,9.45,0,0,1,96.93,69.3Z"/>
        <path class="a86314e4-45b3-486a-a692-f3f51f454f39" d="M141.92,77.89V62.58c0-2.77-.4-4.68-1.19-5.75a3.8,3.8,0,0,0-3.22-1.61,4.9,4.9,0,0,0-2.1.5,5.41,5.41,0,0,0-1.92,1.64,8.83,8.83,0,0,0-1.4,3.08,18.75,18.75,0,0,0-.52,4.81V77.89h-9.36V62.58a11,11,0,0,0-1.1-5.59,3.91,3.91,0,0,0-3.62-1.77,5.11,5.11,0,0,0-4.16,2.37q-1.76,2.38-1.75,7.66V77.89h-9.37V58.44c0-1.14,0-2.17-.07-3.11s-.13-1.8-.24-2.63a20.49,20.49,0,0,0-.5-2.38c-.21-.78-.45-1.6-.74-2.46H110c.23.73.41,1.28.52,1.64a15.46,15.46,0,0,1,.39,1.57,22.11,22.11,0,0,1,4.87-3,15.93,15.93,0,0,1,6.43-1.16,10.91,10.91,0,0,1,4.8,1,7,7,0,0,1,3.18,2.85,10.42,10.42,0,0,1,4.72-2.88,19.41,19.41,0,0,1,6.06-1q4.94,0,7.6,2.81t2.68,8.13v20Z"/>
        <path class="a86314e4-45b3-486a-a692-f3f51f454f39" d="M189,62.3A17.89,17.89,0,0,1,187.86,69a13.23,13.23,0,0,1-3.3,4.87,14.06,14.06,0,0,1-5.11,3,21.82,21.82,0,0,1-13.25,0,14.1,14.1,0,0,1-5.12-3A13.8,13.8,0,0,1,157.75,69a17.49,17.49,0,0,1-1.19-6.67,17.2,17.2,0,0,1,1.16-6.5,13.36,13.36,0,0,1,8.37-7.86,22.49,22.49,0,0,1,13.36,0,13.92,13.92,0,0,1,5.11,3,13,13,0,0,1,3.3,4.84A17.7,17.7,0,0,1,189,62.3Zm-9.37,0a7,7,0,0,0-1.89-5.22,6.89,6.89,0,0,0-5.08-1.87,6.5,6.5,0,0,0-5,1.87,7.31,7.31,0,0,0-1.75,5.22,7.77,7.77,0,0,0,1.71,5.38,6.46,6.46,0,0,0,5.05,1.89,6.9,6.9,0,0,0,5.16-1.86A7.46,7.46,0,0,0,179.65,62.31Z"/>
        <path class="a86314e4-45b3-486a-a692-f3f51f454f39" d="M212.39,59.59l15,18.3H215L203.31,62.61V77.89h-9.37V28.82h9.37v28.3l11.4-10.21h13.45Z"/>
        <path class="a86314e4-45b3-486a-a692-f3f51f454f39" d="M258.15,55.43a8,8,0,0,1-1.26,4.37,10.52,10.52,0,0,1-3.53,3.34,19.77,19.77,0,0,1-5.48,2.15,30.93,30.93,0,0,1-7.18.77l-.84,0c-.32,0-.7,0-1.14,0a6.46,6.46,0,0,0,2.11,4.19,6.68,6.68,0,0,0,4.55,1.51,20.83,20.83,0,0,0,10.37-3.16v7.39a20.12,20.12,0,0,1-5.1,2.21,21.22,21.22,0,0,1-5.53.67,18.34,18.34,0,0,1-6.37-1,13.09,13.09,0,0,1-4.82-3.06,13.73,13.73,0,0,1-3-4.79,17.75,17.75,0,0,1-1.05-6.3,19.64,19.64,0,0,1,1.23-7.08A16.35,16.35,0,0,1,234.53,51a15.17,15.17,0,0,1,5.31-3.59,17.79,17.79,0,0,1,6.83-1.27A12.87,12.87,0,0,1,255,48.67,8.27,8.27,0,0,1,258.15,55.43Zm-9.37.7a2.45,2.45,0,0,0-1-1.93,3.67,3.67,0,0,0-2.43-.81,5.57,5.57,0,0,0-4,1.65,7.92,7.92,0,0,0-2.16,4.55,6.15,6.15,0,0,0,1.12.14h1Q248.78,59.73,248.78,56.13Z"/>
        <path class="a86314e4-45b3-486a-a692-f3f51f454f39" d="M301.44,37.48a12.6,12.6,0,0,0-2.53-.95,10.54,10.54,0,0,0-2.33-.25,6.36,6.36,0,0,0-2.88.57,3.91,3.91,0,0,0-1.76,1.79,9.74,9.74,0,0,0-.88,3.27,41.53,41.53,0,0,0-.25,5h7.46v6.83h-7.39V77.89h-9.36V53.6h-5.84V46.91h5.7a40.71,40.71,0,0,1,.77-8.69,14.14,14.14,0,0,1,2.36-5.56,8.73,8.73,0,0,1,3.94-3,15.48,15.48,0,0,1,5.46-.88,24.33,24.33,0,0,1,8.38,1.41Z"/>
        <path class="a86314e4-45b3-486a-a692-f3f51f454f39" d="M320.8,55.57c-.66-.14-1.17-.23-1.55-.28a9.65,9.65,0,0,0-1.26-.07A7.16,7.16,0,0,0,311.9,58q-2.08,2.74-2.08,8.18V77.89h-9.36V57.56c0-1.15,0-2.15,0-3a21.56,21.56,0,0,0-.18-2.38c-.09-.73-.22-1.46-.38-2.17s-.39-1.53-.67-2.45h8.89c.14.58.27,1.07.4,1.48a8.11,8.11,0,0,1,.25,1.16c0,.36.1.75.15,1.16s.07.9.07,1.48a15.88,15.88,0,0,1,4-4.59,7.68,7.68,0,0,1,4.47-1.34,6.52,6.52,0,0,1,1.66.18,15.8,15.8,0,0,1,1.86.69Z"/>
        <path class="a86314e4-45b3-486a-a692-f3f51f454f39" d="M353.47,62.3A17.89,17.89,0,0,1,352.31,69a13.23,13.23,0,0,1-3.3,4.87,14.06,14.06,0,0,1-5.11,3,21.82,21.82,0,0,1-13.25,0,14.1,14.1,0,0,1-5.12-3A13.8,13.8,0,0,1,322.2,69,17.49,17.49,0,0,1,321,62.3a17.2,17.2,0,0,1,1.16-6.5A13.65,13.65,0,0,1,325.43,51a13.87,13.87,0,0,1,5.11-3,22.49,22.49,0,0,1,13.36,0,13.92,13.92,0,0,1,5.11,3,13,13,0,0,1,3.3,4.84A17.7,17.7,0,0,1,353.47,62.3Zm-9.37,0a7,7,0,0,0-1.89-5.22,6.87,6.87,0,0,0-5.08-1.87,6.5,6.5,0,0,0-5,1.87,7.35,7.35,0,0,0-1.74,5.22,7.77,7.77,0,0,0,1.7,5.38,6.46,6.46,0,0,0,5.05,1.89,6.88,6.88,0,0,0,5.16-1.86A7.46,7.46,0,0,0,344.1,62.31Z"/>
        <path class="a86314e4-45b3-486a-a692-f3f51f454f39" d="M398.52,77.89V62.58c0-2.77-.4-4.68-1.19-5.75a3.79,3.79,0,0,0-3.21-1.61,4.9,4.9,0,0,0-2.1.5,5.41,5.41,0,0,0-1.92,1.64,8.65,8.65,0,0,0-1.4,3.08,18.7,18.7,0,0,0-.53,4.81V77.89h-9.36V62.58A11,11,0,0,0,377.72,57a3.93,3.93,0,0,0-3.63-1.77,5.1,5.1,0,0,0-4.15,2.37q-1.76,2.38-1.76,7.66V77.89h-9.36V58.44c0-1.14,0-2.17-.07-3.11s-.13-1.8-.25-2.63a20.47,20.47,0,0,0-.49-2.38c-.22-.78-.46-1.6-.74-2.46h9.36c.23.73.41,1.28.53,1.64s.24.89.38,1.57a22,22,0,0,1,4.88-3,15.85,15.85,0,0,1,6.42-1.16,11,11,0,0,1,4.81,1,7.15,7.15,0,0,1,3.18,2.85,10.33,10.33,0,0,1,4.71-2.88,19.41,19.41,0,0,1,6.06-1c3.29,0,5.82.94,7.61,2.81s2.67,4.58,2.67,8.13v20Z"/>
        <path class="a86314e4-45b3-486a-a692-f3f51f454f39" d="M460.61,40.22A21.79,21.79,0,0,0,456,37.3a11.09,11.09,0,0,0-4.37-.81,13.4,13.4,0,0,0-2.95.32,4.87,4.87,0,0,0-2.47,1.41,7.75,7.75,0,0,0-1.69,3.17,20.76,20.76,0,0,0-.7,5.52h7.25V53.6h-7.25V77.89H434.5V53.6h-5.85V46.91h5.7a31.56,31.56,0,0,1,1.1-9.15,12.83,12.83,0,0,1,3.09-5.49,10.29,10.29,0,0,1,4.86-2.67,27.2,27.2,0,0,1,6.51-.71,20.36,20.36,0,0,1,6.13.88,23,23,0,0,1,5.77,2.85Zm-6.26,37.67v-31h9.36v31Z"/>
        <path class="a86314e4-45b3-486a-a692-f3f51f454f39" d="M492.15,55.57c-.66-.14-1.17-.23-1.55-.28a9.71,9.71,0,0,0-1.27-.07A7.15,7.15,0,0,0,483.25,58q-2.08,2.74-2.08,8.18V77.89h-9.36V57.56c0-1.15,0-2.15,0-3a21.56,21.56,0,0,0-.18-2.38c-.09-.73-.22-1.46-.38-2.17s-.39-1.53-.67-2.45h8.89c.14.58.28,1.07.4,1.48a8.11,8.11,0,0,1,.25,1.16c.05.36.1.75.15,1.16s.07.9.07,1.48a15.88,15.88,0,0,1,4-4.59,7.68,7.68,0,0,1,4.47-1.34,6.52,6.52,0,0,1,1.66.18,15.8,15.8,0,0,1,1.86.69Z"/>
        <path class="a86314e4-45b3-486a-a692-f3f51f454f39" d="M520.94,55.43a8,8,0,0,1-1.25,4.37,10.52,10.52,0,0,1-3.53,3.34,19.77,19.77,0,0,1-5.48,2.15,31,31,0,0,1-7.18.77l-.85,0c-.31,0-.69,0-1.14,0a6.51,6.51,0,0,0,2.11,4.19,6.71,6.71,0,0,0,4.56,1.51,20.83,20.83,0,0,0,10.37-3.16v7.39a20.27,20.27,0,0,1-5.1,2.21,21.22,21.22,0,0,1-5.53.67,18.3,18.3,0,0,1-6.37-1,13.09,13.09,0,0,1-4.82-3.06,13.59,13.59,0,0,1-3-4.79,17.74,17.74,0,0,1-1.06-6.3,19.42,19.42,0,0,1,1.24-7.08A16.35,16.35,0,0,1,497.33,51a15,15,0,0,1,5.31-3.59,17.79,17.79,0,0,1,6.83-1.27,12.87,12.87,0,0,1,8.34,2.53A8.26,8.26,0,0,1,520.94,55.43Zm-9.36.7a2.45,2.45,0,0,0-1-1.93,3.68,3.68,0,0,0-2.44-.81,5.56,5.56,0,0,0-4,1.65A7.86,7.86,0,0,0,502,59.59a6.15,6.15,0,0,0,1.12.14h1Q511.58,59.73,511.58,56.13Z"/>
        <path class="a86314e4-45b3-486a-a692-f3f51f454f39" d="M543.58,77.32a21.44,21.44,0,0,1-5,.57,16.75,16.75,0,0,1-6.19-1.11,15.12,15.12,0,0,1-4.89-3.06,13.12,13.12,0,0,1-3.21-4.7,16.07,16.07,0,0,1-1.12-6.12,19.73,19.73,0,0,1,1-6.45,13.28,13.28,0,0,1,3.1-5.07,14.12,14.12,0,0,1,5.13-3.29,20,20,0,0,1,7.15-1.18,16.47,16.47,0,0,1,5.39.74,19,19,0,0,1,3.48,1.59l-1.62,8.09c-.7-.33-1.3-.62-1.79-.88a13.76,13.76,0,0,0-1.41-.63,6.55,6.55,0,0,0-1.48-.35,15.31,15.31,0,0,0-1.94-.11,7.3,7.3,0,0,0-5.42,1.92,7.08,7.08,0,0,0-1.9,5.19,6.91,6.91,0,0,0,2,5.23,8,8,0,0,0,5.71,1.88,15.28,15.28,0,0,0,3.66-.43,20.15,20.15,0,0,0,3.73-1.34l.63,7.66A24.54,24.54,0,0,1,543.58,77.32Z"/>
        <path class="a86314e4-45b3-486a-a692-f3f51f454f39" d="M573.11,55.57c-.66-.14-1.17-.23-1.55-.28a9.81,9.81,0,0,0-1.27-.07A7.18,7.18,0,0,0,564.2,58q-2.07,2.74-2.07,8.18V77.89h-9.37V57.56q0-1.73,0-3a21.56,21.56,0,0,0-.18-2.38c-.09-.73-.22-1.46-.38-2.17s-.39-1.53-.67-2.45h8.88c.15.58.28,1.07.4,1.48A7,7,0,0,1,561,50.2c.05.36.1.75.14,1.16a12.31,12.31,0,0,1,.08,1.48,15.73,15.73,0,0,1,4-4.59,7.68,7.68,0,0,1,4.47-1.34,6.39,6.39,0,0,1,1.65.18,15.19,15.19,0,0,1,1.87.69Z"/>
        <path class="a86314e4-45b3-486a-a692-f3f51f454f39" d="M596.69,77.89c0-.33,0-.73-.07-1.2s-.09-.82-.12-1.33-.06-1.06-.11-1.62a11.07,11.07,0,0,1-4.58,3.62,14.88,14.88,0,0,1-6,1.23q-5.79,0-9-3.8T573.6,64q0-8.52,5.18-13.13t14.74-4.61c1,0,2,0,2.85.07s1.71.13,2.57.25,1.74.27,2.64.45,1.9.45,3,.78v20c0,1.08,0,2.22.07,3.42s.12,2.28.21,3.27c.09,1.17.19,2.32.28,3.45Zm-1.48-23a13.31,13.31,0,0,0-2.22-.35c-.66-.05-1.29-.07-1.86-.07a7.51,7.51,0,0,0-6,2.5A10.28,10.28,0,0,0,583,64a6.86,6.86,0,0,0,1.28,4.5A4.48,4.48,0,0,0,587.91,70a6.54,6.54,0,0,0,2.83-.63,7.17,7.17,0,0,0,2.33-1.79,8.82,8.82,0,0,0,1.57-2.75,10.45,10.45,0,0,0,.57-3.55Z"/>
        <path class="a86314e4-45b3-486a-a692-f3f51f454f39" d="M629.89,77.32a21.44,21.44,0,0,1-5,.57,16.71,16.71,0,0,1-6.19-1.11,15.28,15.28,0,0,1-4.9-3.06,13.22,13.22,0,0,1-3.2-4.7,16.07,16.07,0,0,1-1.13-6.12,19.47,19.47,0,0,1,1-6.45,13.38,13.38,0,0,1,3.09-5.07,14.25,14.25,0,0,1,5.14-3.29,20,20,0,0,1,7.15-1.18,16.4,16.4,0,0,1,5.38.74,18.85,18.85,0,0,1,3.49,1.59l-1.62,8.09c-.71-.33-1.3-.62-1.8-.88a12.75,12.75,0,0,0-1.4-.63,6.55,6.55,0,0,0-1.48-.35,15.31,15.31,0,0,0-1.94-.11,7.29,7.29,0,0,0-5.42,1.92,7,7,0,0,0-1.9,5.19,6.91,6.91,0,0,0,2,5.23,8,8,0,0,0,5.7,1.88,15.16,15.16,0,0,0,3.66-.43,20,20,0,0,0,3.74-1.34l.63,7.66A24.54,24.54,0,0,1,629.89,77.32Z"/>
        <path class="a86314e4-45b3-486a-a692-f3f51f454f39" d="M656.74,59.59l15,18.3H659.35L647.66,62.61V77.89H638.3V28.82h9.36v28.3l11.41-10.21h13.44Z"/>
        <path class="a86314e4-45b3-486a-a692-f3f51f454f39" d="M702.5,55.43a8,8,0,0,1-1.25,4.37,10.52,10.52,0,0,1-3.53,3.34,19.77,19.77,0,0,1-5.48,2.15,31,31,0,0,1-7.18.77l-.85,0c-.32,0-.7,0-1.14,0a6.51,6.51,0,0,0,2.11,4.19,6.69,6.69,0,0,0,4.56,1.51,20.83,20.83,0,0,0,10.37-3.16v7.39A20.18,20.18,0,0,1,695,78.13a21.09,21.09,0,0,1-5.52.67,18.3,18.3,0,0,1-6.37-1,13.09,13.09,0,0,1-4.82-3.06,13.59,13.59,0,0,1-3-4.79,17.52,17.52,0,0,1-1.06-6.3,19.64,19.64,0,0,1,1.23-7.08A16.51,16.51,0,0,1,678.88,51a15.12,15.12,0,0,1,5.32-3.59A17.75,17.75,0,0,1,691,46.14a12.87,12.87,0,0,1,8.34,2.53A8.26,8.26,0,0,1,702.5,55.43Zm-9.36.7a2.43,2.43,0,0,0-1-1.93,3.64,3.64,0,0,0-2.43-.81,5.56,5.56,0,0,0-4,1.65,7.87,7.87,0,0,0-2.17,4.55,6.36,6.36,0,0,0,1.12.14h1.05Q693.14,59.73,693.14,56.13Z"/>
        <path class="a86314e4-45b3-486a-a692-f3f51f454f39" d="M727.21,55.57c-.66-.14-1.17-.23-1.55-.28a9.55,9.55,0,0,0-1.26-.07A7.16,7.16,0,0,0,718.31,58q-2.09,2.74-2.08,8.18V77.89h-9.36V57.56c0-1.15,0-2.15,0-3s-.08-1.64-.17-2.38-.23-1.46-.39-2.17-.39-1.53-.67-2.45h8.89c.14.58.28,1.07.4,1.48a8.11,8.11,0,0,1,.25,1.16c.05.36.1.75.15,1.16s.07.9.07,1.48a15.88,15.88,0,0,1,4-4.59,7.68,7.68,0,0,1,4.47-1.34,6.52,6.52,0,0,1,1.66.18,15.8,15.8,0,0,1,1.86.69Z"/>
        <path class="a86314e4-45b3-486a-a692-f3f51f454f39" d="M751.43,69.3a8.85,8.85,0,0,1-3,7q-3,2.61-8.39,2.61a35,35,0,0,1-7.14-.71,21,21,0,0,1-5.64-1.9l1.2-7.18q6.12,3.16,10.7,3.17a3.06,3.06,0,0,0,2.22-.67,2.12,2.12,0,0,0,.67-1.52,2.71,2.71,0,0,0-.53-1.72A7.86,7.86,0,0,0,739,66.77a41.16,41.16,0,0,1-5-2.54,15.76,15.76,0,0,1-3.38-2.64,8.73,8.73,0,0,1-1.9-2.92,9.69,9.69,0,0,1-.6-3.52,7.91,7.91,0,0,1,3.4-6.86,15,15,0,0,1,8.89-2.43,27.77,27.77,0,0,1,5.25.45,24.69,24.69,0,0,1,5.26,1.8l-1.13,7.11A16.6,16.6,0,0,0,745,53.29a21.14,21.14,0,0,0-4.62-.53,3.18,3.18,0,0,0-2.24.6,2.08,2.08,0,0,0-.61,1.58,2.3,2.3,0,0,0,1,1.93,19.31,19.31,0,0,0,3.75,1.94,44.14,44.14,0,0,1,4.27,2.43,14.92,14.92,0,0,1,2.88,2.39A7.35,7.35,0,0,1,751,66.24,9.18,9.18,0,0,1,751.43,69.3Z"/>
      </g>
      <g>
        <path class="a3f7d441-8d2a-4387-afcc-1e59fb032372" d="M94.46,69.24a8.88,8.88,0,0,1-3,7q-3,2.61-8.39,2.61A35,35,0,0,1,76,78.18a21,21,0,0,1-5.64-1.9l1.2-7.18q6.12,3.16,10.7,3.17a3.06,3.06,0,0,0,2.22-.67,2.12,2.12,0,0,0,.67-1.51,2.72,2.72,0,0,0-.53-1.73A8,8,0,0,0,82,66.71a41.16,41.16,0,0,1-5-2.54,15.76,15.76,0,0,1-3.38-2.64,8.73,8.73,0,0,1-1.9-2.92,9.66,9.66,0,0,1-.6-3.52,7.92,7.92,0,0,1,3.4-6.86,15,15,0,0,1,8.89-2.43,26.92,26.92,0,0,1,5.25.46A24.06,24.06,0,0,1,94,48.05l-1.13,7.11A16.6,16.6,0,0,0,88,53.23a21.14,21.14,0,0,0-4.62-.53,3.23,3.23,0,0,0-2.25.6,2.13,2.13,0,0,0-.6,1.58,2.33,2.33,0,0,0,1,1.94,20,20,0,0,0,3.75,1.93,46.35,46.35,0,0,1,4.27,2.43,14.92,14.92,0,0,1,2.88,2.39A7.44,7.44,0,0,1,94,66.18,9.22,9.22,0,0,1,94.46,69.24Z"/>
        <path class="a3f7d441-8d2a-4387-afcc-1e59fb032372" d="M139.44,77.83V62.52c0-2.77-.39-4.68-1.19-5.75A3.79,3.79,0,0,0,135,55.16a4.9,4.9,0,0,0-2.1.5A5.41,5.41,0,0,0,131,57.3a8.65,8.65,0,0,0-1.4,3.08,18.75,18.75,0,0,0-.52,4.81V77.83h-9.37V62.52a11,11,0,0,0-1.09-5.59A3.92,3.92,0,0,0,115,55.16a5.09,5.09,0,0,0-4.16,2.38q-1.76,2.37-1.76,7.65V77.83H99.74V58.38c0-1.14,0-2.17-.07-3.11s-.13-1.8-.25-2.62a20.22,20.22,0,0,0-.49-2.39c-.21-.77-.46-1.59-.74-2.46h9.36c.24.73.41,1.28.53,1.64a15.46,15.46,0,0,1,.39,1.57,21.48,21.48,0,0,1,4.87-3,15.69,15.69,0,0,1,6.43-1.17,10.91,10.91,0,0,1,4.8,1,7.15,7.15,0,0,1,3.18,2.85,10.36,10.36,0,0,1,4.72-2.88,19.35,19.35,0,0,1,6.05-1q4.93,0,7.61,2.81t2.68,8.13v20Z"/>
        <path class="a3f7d441-8d2a-4387-afcc-1e59fb032372" d="M186.54,62.24a17.65,17.65,0,0,1-1.16,6.67,13.2,13.2,0,0,1-3.29,4.87,14.1,14.1,0,0,1-5.12,3,21.79,21.79,0,0,1-13.24,0,14,14,0,0,1-5.12-3,13.54,13.54,0,0,1-3.33-4.87,17.26,17.26,0,0,1-1.19-6.67,17.2,17.2,0,0,1,1.15-6.5,13.65,13.65,0,0,1,3.26-4.84,13.83,13.83,0,0,1,5.12-3,22.46,22.46,0,0,1,13.35,0,14.1,14.1,0,0,1,5.12,2.95,13,13,0,0,1,3.29,4.84A17.5,17.5,0,0,1,186.54,62.24Zm-9.36,0A7,7,0,0,0,175.29,57a6.9,6.9,0,0,0-5.08-1.87,6.53,6.53,0,0,0-5,1.87,7.35,7.35,0,0,0-1.74,5.22,7.77,7.77,0,0,0,1.71,5.38,6.45,6.45,0,0,0,5.05,1.89,6.87,6.87,0,0,0,5.15-1.86A7.47,7.47,0,0,0,177.18,62.25Z"/>
        <path class="a3f7d441-8d2a-4387-afcc-1e59fb032372" d="M209.91,59.53l15,18.3H212.52L200.83,62.55V77.83h-9.36V28.76h9.36v28.3l11.41-10.21h13.44Z"/>
        <path class="a3f7d441-8d2a-4387-afcc-1e59fb032372" d="M255.67,55.37a8,8,0,0,1-1.25,4.37,10.42,10.42,0,0,1-3.53,3.34,19.46,19.46,0,0,1-5.48,2.15,30.46,30.46,0,0,1-7.18.77l-.85,0c-.32,0-.7,0-1.14,0a6.51,6.51,0,0,0,2.11,4.19,6.69,6.69,0,0,0,4.56,1.51,20.86,20.86,0,0,0,10.37-3.16v7.39a20.69,20.69,0,0,1-5.1,2.22,21.65,21.65,0,0,1-5.53.67,18.3,18.3,0,0,1-6.37-1.06,13,13,0,0,1-4.82-3.06,13.59,13.59,0,0,1-3-4.79,17.49,17.49,0,0,1-1.06-6.3,19.64,19.64,0,0,1,1.23-7.08,16.61,16.61,0,0,1,3.45-5.52,15.12,15.12,0,0,1,5.32-3.59,17.75,17.75,0,0,1,6.83-1.27,12.87,12.87,0,0,1,8.34,2.53A8.26,8.26,0,0,1,255.67,55.37Zm-9.36.71a2.45,2.45,0,0,0-1-1.94,3.64,3.64,0,0,0-2.43-.81,5.53,5.53,0,0,0-4,1.66,7.74,7.74,0,0,0-2.16,4.54,6.15,6.15,0,0,0,1.12.14h1Q246.31,59.67,246.31,56.08Z"/>
        <path class="a3f7d441-8d2a-4387-afcc-1e59fb032372" d="M299,37.42a12.65,12.65,0,0,0-2.54-1,10.38,10.38,0,0,0-2.32-.25,6.41,6.41,0,0,0-2.89.57,4,4,0,0,0-1.76,1.79,10.05,10.05,0,0,0-.88,3.28,43.67,43.67,0,0,0-.24,5h7.46v6.83h-7.39V77.83H279V53.54H273.2V46.85h5.7a40.63,40.63,0,0,1,.78-8.69A14,14,0,0,1,282,32.6a8.68,8.68,0,0,1,3.94-3,15.48,15.48,0,0,1,5.46-.88,24.27,24.27,0,0,1,8.37,1.41Z"/>
        <path class="a3f7d441-8d2a-4387-afcc-1e59fb032372" d="M318.33,55.51c-.66-.14-1.18-.23-1.55-.28a12,12,0,0,0-1.27-.07,7.18,7.18,0,0,0-6.09,2.75c-1.38,1.83-2.08,4.56-2.08,8.18V77.83H298V57.5q0-1.72,0-3c0-.85-.09-1.64-.18-2.38a19.71,19.71,0,0,0-.39-2.17c-.16-.71-.38-1.53-.67-2.45h8.89c.15.58.28,1.08.4,1.48a8.21,8.21,0,0,1,.26,1.16c0,.36.09.75.14,1.16a12.54,12.54,0,0,1,.07,1.48,15.89,15.89,0,0,1,4-4.59A7.68,7.68,0,0,1,315,46.85a6.39,6.39,0,0,1,1.65.18,17.08,17.08,0,0,1,1.87.69Z"/>
        <path class="a3f7d441-8d2a-4387-afcc-1e59fb032372" d="M351,62.24a17.65,17.65,0,0,1-1.16,6.67,13.2,13.2,0,0,1-3.29,4.87,14,14,0,0,1-5.12,3,21.79,21.79,0,0,1-13.24,0,14,14,0,0,1-5.12-3,13.54,13.54,0,0,1-3.33-4.87,17.45,17.45,0,0,1-1.19-6.67,17.2,17.2,0,0,1,1.15-6.5,13.34,13.34,0,0,1,8.38-7.86,22.46,22.46,0,0,1,13.35,0,14,14,0,0,1,5.12,2.95,13,13,0,0,1,3.29,4.84A17.5,17.5,0,0,1,351,62.24Zm-9.36,0A7,7,0,0,0,339.74,57a6.89,6.89,0,0,0-5.08-1.87,6.53,6.53,0,0,0-5,1.87,7.35,7.35,0,0,0-1.74,5.22,7.77,7.77,0,0,0,1.71,5.38,6.46,6.46,0,0,0,5.05,1.89,6.87,6.87,0,0,0,5.15-1.86A7.47,7.47,0,0,0,341.63,62.25Z"/>
        <path class="a3f7d441-8d2a-4387-afcc-1e59fb032372" d="M396.05,77.83V62.52c0-2.77-.4-4.68-1.19-5.75a3.8,3.8,0,0,0-3.22-1.61,4.9,4.9,0,0,0-2.1.5,5.49,5.49,0,0,0-1.92,1.64,8.83,8.83,0,0,0-1.4,3.08,18.75,18.75,0,0,0-.52,4.81V77.83h-9.36V62.52a11,11,0,0,0-1.1-5.59,3.91,3.91,0,0,0-3.62-1.77,5.1,5.1,0,0,0-4.16,2.38q-1.75,2.37-1.75,7.65V77.83h-9.37V58.38c0-1.14,0-2.17-.07-3.11s-.13-1.8-.24-2.62a20.23,20.23,0,0,0-.5-2.39c-.21-.77-.45-1.59-.74-2.46h9.37c.23.73.41,1.28.52,1.64a15.46,15.46,0,0,1,.39,1.57,21.7,21.7,0,0,1,4.87-3,15.75,15.75,0,0,1,6.43-1.17,10.91,10.91,0,0,1,4.8,1,7,7,0,0,1,3.18,2.85,10.42,10.42,0,0,1,4.72-2.88,19.41,19.41,0,0,1,6.06-1q4.94,0,7.6,2.81t2.68,8.13v20Z"/>
        <path class="a3f7d441-8d2a-4387-afcc-1e59fb032372" d="M458.14,40.17a21.27,21.27,0,0,0-4.58-2.93,11,11,0,0,0-4.36-.81,13.56,13.56,0,0,0-3,.32,4.8,4.8,0,0,0-2.46,1.41,7.64,7.64,0,0,0-1.69,3.17,21.12,21.12,0,0,0-.71,5.52h7.26v6.69h-7.26V77.83H432V53.54h-5.84V46.85h5.7A31.6,31.6,0,0,1,433,37.7a13,13,0,0,1,3.1-5.49,10.38,10.38,0,0,1,4.86-2.67,27.2,27.2,0,0,1,6.51-.71,20.3,20.3,0,0,1,6.12.88,22.91,22.91,0,0,1,5.78,2.85Zm-6.27,37.66v-31h9.37v31Z"/>
        <path class="a3f7d441-8d2a-4387-afcc-1e59fb032372" d="M489.68,55.51c-.66-.14-1.18-.23-1.55-.28a12,12,0,0,0-1.27-.07,7.18,7.18,0,0,0-6.09,2.75q-2.07,2.75-2.07,8.18V77.83h-9.37V57.5q0-1.72,0-3c0-.85-.09-1.64-.18-2.38a19.71,19.71,0,0,0-.39-2.17c-.16-.71-.38-1.53-.66-2.45H477c.15.58.28,1.08.4,1.48a8.21,8.21,0,0,1,.26,1.16c0,.36.09.75.14,1.16a12.54,12.54,0,0,1,.07,1.48,15.89,15.89,0,0,1,4-4.59,7.68,7.68,0,0,1,4.47-1.34A6.39,6.39,0,0,1,488,47a17.08,17.08,0,0,1,1.87.69Z"/>
        <path class="a3f7d441-8d2a-4387-afcc-1e59fb032372" d="M518.47,55.37a8,8,0,0,1-1.25,4.37,10.52,10.52,0,0,1-3.53,3.34,19.41,19.41,0,0,1-5.49,2.15A30.31,30.31,0,0,1,501,66l-.85,0c-.32,0-.7,0-1.14,0a6.51,6.51,0,0,0,2.11,4.19,6.69,6.69,0,0,0,4.56,1.51,20.86,20.86,0,0,0,10.37-3.16v7.39A20.59,20.59,0,0,1,511,78.08a21.57,21.57,0,0,1-5.52.67,18.3,18.3,0,0,1-6.37-1.06,13,13,0,0,1-4.83-3.06,13.71,13.71,0,0,1-3-4.79,17.49,17.49,0,0,1-1.06-6.3,19.64,19.64,0,0,1,1.23-7.08,16.45,16.45,0,0,1,3.45-5.52,15.12,15.12,0,0,1,5.32-3.59A17.75,17.75,0,0,1,507,46.08a12.87,12.87,0,0,1,8.34,2.53A8.26,8.26,0,0,1,518.47,55.37Zm-9.36.71a2.45,2.45,0,0,0-1-1.94,3.64,3.64,0,0,0-2.43-.81,5.57,5.57,0,0,0-4,1.66,7.86,7.86,0,0,0-2.16,4.54,6.36,6.36,0,0,0,1.12.14h1Q509.12,59.67,509.11,56.08Z"/>
        <path class="a3f7d441-8d2a-4387-afcc-1e59fb032372" d="M541.1,77.26a21.35,21.35,0,0,1-5,.57,16.71,16.71,0,0,1-6.19-1.11,15.28,15.28,0,0,1-4.9-3.06,13.13,13.13,0,0,1-3.2-4.7,16,16,0,0,1-1.13-6.11,19.65,19.65,0,0,1,1-6.45,13.36,13.36,0,0,1,3.1-5.08A14.25,14.25,0,0,1,529.91,48a20,20,0,0,1,7.15-1.18,16.4,16.4,0,0,1,5.38.74,19.53,19.53,0,0,1,3.49,1.59l-1.62,8.09c-.71-.32-1.31-.62-1.8-.88a12.07,12.07,0,0,0-1.41-.63,6.89,6.89,0,0,0-1.47-.35,15.31,15.31,0,0,0-1.94-.11,7.29,7.29,0,0,0-5.42,1.92,7,7,0,0,0-1.9,5.19,6.91,6.91,0,0,0,2,5.23,8,8,0,0,0,5.7,1.88,15.16,15.16,0,0,0,3.66-.43,19.65,19.65,0,0,0,3.73-1.34l.64,7.66A24.4,24.4,0,0,1,541.1,77.26Z"/>
        <path class="a3f7d441-8d2a-4387-afcc-1e59fb032372" d="M570.64,55.51c-.66-.14-1.18-.23-1.55-.28a12,12,0,0,0-1.27-.07,7.17,7.17,0,0,0-6.09,2.75c-1.38,1.83-2.08,4.56-2.08,8.18V77.83h-9.36V57.5q0-1.72,0-3c0-.85-.09-1.64-.18-2.38s-.22-1.46-.39-2.17-.39-1.53-.67-2.45h8.89c.15.58.28,1.08.4,1.48a6.94,6.94,0,0,1,.25,1.16c.05.36.1.75.15,1.16a12.54,12.54,0,0,1,.07,1.48,15.89,15.89,0,0,1,4-4.59,7.68,7.68,0,0,1,4.47-1.34,6.49,6.49,0,0,1,1.65.18,17.08,17.08,0,0,1,1.87.69Z"/>
        <path class="a3f7d441-8d2a-4387-afcc-1e59fb032372" d="M594.21,77.83a11.45,11.45,0,0,0-.07-1.2c0-.37-.09-.82-.11-1.33s-.06-1.06-.11-1.62a11.17,11.17,0,0,1-4.59,3.62,14.83,14.83,0,0,1-6,1.23q-5.79,0-9-3.8t-3.21-10.84q0-8.52,5.17-13.13T591,46.15c1.05,0,2,0,2.86.07s1.71.13,2.57.25,1.73.27,2.64.45,1.9.45,3,.78v20c0,1.08,0,2.22.07,3.42s.12,2.28.22,3.27c.09,1.17.18,2.32.28,3.45Zm-1.47-22.95a14.43,14.43,0,0,0-2.22-.35c-.67-.05-1.29-.07-1.86-.07a7.5,7.5,0,0,0-6,2.5,10.28,10.28,0,0,0-2.15,6.93,6.91,6.91,0,0,0,1.29,4.51A4.5,4.5,0,0,0,585.43,70a6.48,6.48,0,0,0,2.83-.64,7.07,7.07,0,0,0,2.33-1.79,8.65,8.65,0,0,0,1.58-2.75,10.45,10.45,0,0,0,.57-3.55Z"/>
        <path class="a3f7d441-8d2a-4387-afcc-1e59fb032372" d="M627.41,77.26a21.35,21.35,0,0,1-5,.57,16.8,16.8,0,0,1-6.2-1.11,15.23,15.23,0,0,1-4.89-3.06,13.13,13.13,0,0,1-3.2-4.7A16,16,0,0,1,607,62.85a19.65,19.65,0,0,1,1-6.45,13.24,13.24,0,0,1,3.1-5.08A14.16,14.16,0,0,1,616.22,48a19.93,19.93,0,0,1,7.14-1.18,16.43,16.43,0,0,1,5.39.74,19.74,19.74,0,0,1,3.48,1.59l-1.61,8.09c-.71-.32-1.31-.62-1.8-.88a12.07,12.07,0,0,0-1.41-.63,7,7,0,0,0-1.48-.35A15.14,15.14,0,0,0,624,55.3a7.27,7.27,0,0,0-5.42,1.92,7,7,0,0,0-1.9,5.19,6.88,6.88,0,0,0,2,5.23,8,8,0,0,0,5.7,1.88,15.16,15.16,0,0,0,3.66-.43,19.9,19.9,0,0,0,3.73-1.34l.64,7.66A24.61,24.61,0,0,1,627.41,77.26Z"/>
        <path class="a3f7d441-8d2a-4387-afcc-1e59fb032372" d="M654.27,59.53l15,18.3H656.87L645.19,62.55V77.83h-9.37V28.76h9.37v28.3l11.4-10.21H670Z"/>
        <path class="a3f7d441-8d2a-4387-afcc-1e59fb032372" d="M700,55.37a8,8,0,0,1-1.25,4.37,10.61,10.61,0,0,1-3.53,3.34,19.53,19.53,0,0,1-5.49,2.15,30.37,30.37,0,0,1-7.17.77l-.85,0c-.32,0-.7,0-1.14,0a6.46,6.46,0,0,0,2.11,4.19,6.69,6.69,0,0,0,4.56,1.51,20.83,20.83,0,0,0,10.36-3.16v7.39a20.37,20.37,0,0,1-5.1,2.22,21.65,21.65,0,0,1-5.53.67,18.34,18.34,0,0,1-6.37-1.06,13,13,0,0,1-4.82-3.06,13.88,13.88,0,0,1-3-4.79,17.71,17.71,0,0,1-1-6.3A19.64,19.64,0,0,1,673,56.46a16.45,16.45,0,0,1,3.45-5.52,15.17,15.17,0,0,1,5.31-3.59,17.82,17.82,0,0,1,6.83-1.27,12.88,12.88,0,0,1,8.35,2.53A8.29,8.29,0,0,1,700,55.37Zm-9.36.71a2.48,2.48,0,0,0-1-1.94,3.64,3.64,0,0,0-2.43-.81,5.55,5.55,0,0,0-4,1.66,7.86,7.86,0,0,0-2.16,4.54,6.25,6.25,0,0,0,1.12.14h1C688.19,59.67,690.67,58.47,690.67,56.08Z"/>
        <path class="a3f7d441-8d2a-4387-afcc-1e59fb032372" d="M724.74,55.51c-.66-.14-1.17-.23-1.55-.28a12,12,0,0,0-1.27-.07,7.18,7.18,0,0,0-6.09,2.75q-2.07,2.75-2.07,8.18V77.83h-9.37V57.5q0-1.72,0-3c0-.85-.08-1.64-.18-2.38a19.71,19.71,0,0,0-.39-2.17c-.16-.71-.38-1.53-.66-2.45H712c.15.58.28,1.08.4,1.48a8.21,8.21,0,0,1,.26,1.16c.05.36.09.75.14,1.16a12.31,12.31,0,0,1,.08,1.48,15.73,15.73,0,0,1,4-4.59,7.68,7.68,0,0,1,4.47-1.34A6.39,6.39,0,0,1,723,47a17.08,17.08,0,0,1,1.87.69Z"/>
        <path class="a3f7d441-8d2a-4387-afcc-1e59fb032372" d="M749,69.24a8.86,8.86,0,0,1-3,7q-3,2.61-8.39,2.61a35.14,35.14,0,0,1-7.14-.71,21,21,0,0,1-5.63-1.9L726,69.1q6.12,3.16,10.7,3.17a3,3,0,0,0,2.21-.67,2.08,2.08,0,0,0,.67-1.51,2.67,2.67,0,0,0-.53-1.73,8,8,0,0,0-2.56-1.65,42.13,42.13,0,0,1-5-2.54,16.27,16.27,0,0,1-3.38-2.64,8.88,8.88,0,0,1-1.9-2.92,9.66,9.66,0,0,1-.6-3.52,7.93,7.93,0,0,1,3.41-6.86A15,15,0,0,1,738,45.8a26.89,26.89,0,0,1,5.24.46,23.72,23.72,0,0,1,5.26,1.79l-1.12,7.11a16.71,16.71,0,0,0-4.84-1.93,21.23,21.23,0,0,0-4.63-.53,3.18,3.18,0,0,0-2.24.6,2.13,2.13,0,0,0-.6,1.58,2.34,2.34,0,0,0,1,1.94,20.73,20.73,0,0,0,3.75,1.93A45.34,45.34,0,0,1,744,61.18a15.23,15.23,0,0,1,2.88,2.39,7.74,7.74,0,0,1,1.59,2.61A9.22,9.22,0,0,1,749,69.24Z"/>
      </g>
    </g>
  </g>
</svg>
