<svg id="ef9d5d53-da1b-4565-a543-9e3770d735de" data-name="Layer 1" xmlns="http://www.w3.org/2000/svg" width="704" height="117" viewBox="0 0 704 117">
  <defs>
    <style>
      .a850f247-ef00-41c4-8d02-6d4185d6d8e3 {
        fill: #9934ce;
        stroke: #fff;
        stroke-miterlimit: 10;
        stroke-width: 4px;
      }

      .a8620d46-3084-4fcf-8724-81c9be7e2935 {
        fill: #370244;
      }

      .fc4cf1c1-c0ee-4add-bdd4-01b39d577862 {
        fill: #fff5b8;
      }
    </style>
  </defs>
  <g>
    <rect id="bed07f88-aea6-44bd-b4a1-f191a6d8c360" data-name="shadow" class="a850f247-ef00-41c4-8d02-6d4185d6d8e3" x="4" y="4" width="696.38" height="109" rx="54.5"/>
    <g>
      <g>
        <path class="a8620d46-3084-4fcf-8724-81c9be7e2935" d="M78.28,69.4a8.86,8.86,0,0,1-3,7c-2,1.74-4.78,2.61-8.38,2.61a35.17,35.17,0,0,1-7.15-.71,20.69,20.69,0,0,1-5.63-1.9l1.2-7.18q6.12,3.18,10.7,3.17a3,3,0,0,0,2.21-.67,2.06,2.06,0,0,0,.67-1.51,2.72,2.72,0,0,0-.52-1.73,8.34,8.34,0,0,0-2.57-1.65,42.13,42.13,0,0,1-5-2.54,16.27,16.27,0,0,1-3.38-2.64,8.78,8.78,0,0,1-1.9-2.92,9.66,9.66,0,0,1-.6-3.52,7.94,7.94,0,0,1,3.41-6.86A15,15,0,0,1,67.27,46a26.89,26.89,0,0,1,5.24.46,23.72,23.72,0,0,1,5.26,1.79l-1.12,7.11a16.71,16.71,0,0,0-4.84-1.93,21.86,21.86,0,0,0-4.63-.53,3.18,3.18,0,0,0-2.24.6,2.13,2.13,0,0,0-.6,1.58,2.33,2.33,0,0,0,1,1.94,20.09,20.09,0,0,0,3.75,1.93,45.34,45.34,0,0,1,4.28,2.43,15.64,15.64,0,0,1,2.88,2.4,7.71,7.71,0,0,1,1.59,2.6A9.27,9.27,0,0,1,78.28,69.4Z"/>
        <path class="a8620d46-3084-4fcf-8724-81c9be7e2935" d="M123.26,78V62.68q0-4.14-1.19-5.75a3.79,3.79,0,0,0-3.21-1.61,4.77,4.77,0,0,0-2.1.51,5.49,5.49,0,0,0-1.93,1.63,8.92,8.92,0,0,0-1.39,3.08,18.7,18.7,0,0,0-.53,4.81V78h-9.36V62.68a11.05,11.05,0,0,0-1.09-5.58,3.92,3.92,0,0,0-3.63-1.78,5.11,5.11,0,0,0-4.15,2.38c-1.18,1.58-1.76,4.13-1.76,7.65V78H83.56V58.54c0-1.14,0-2.17-.08-3.1s-.13-1.81-.24-2.63a20.22,20.22,0,0,0-.49-2.39c-.22-.77-.46-1.59-.74-2.46h9.36c.23.73.41,1.28.53,1.64s.24.89.39,1.57a21.26,21.26,0,0,1,4.87-3A15.68,15.68,0,0,1,103.58,47a11,11,0,0,1,4.81,1,7,7,0,0,1,3.17,2.84A10.59,10.59,0,0,1,116.28,48a19.4,19.4,0,0,1,6.06-1c3.29,0,5.82.93,7.61,2.8s2.67,4.58,2.67,8.14V78Z"/>
        <path class="a8620d46-3084-4fcf-8724-81c9be7e2935" d="M170.36,62.41a17.8,17.8,0,0,1-1.16,6.66A13.37,13.37,0,0,1,165.91,74a14.22,14.22,0,0,1-5.12,3,21.82,21.82,0,0,1-13.25,0,14.31,14.31,0,0,1-5.12-3,13.68,13.68,0,0,1-3.32-4.88,19,19,0,0,1,0-13.17,13.65,13.65,0,0,1,3.26-4.84,14,14,0,0,1,5.12-3,22.67,22.67,0,0,1,13.35,0,14.1,14.1,0,0,1,5.12,3,13.08,13.08,0,0,1,3.29,4.85A17.62,17.62,0,0,1,170.36,62.41Zm-9.36,0a7,7,0,0,0-1.89-5.22A7,7,0,0,0,154,55.32a6.53,6.53,0,0,0-5,1.87,7.35,7.35,0,0,0-1.74,5.22,7.82,7.82,0,0,0,1.7,5.38A6.46,6.46,0,0,0,154,69.68a6.88,6.88,0,0,0,5.16-1.86A7.45,7.45,0,0,0,161,62.41Z"/>
        <path class="a8620d46-3084-4fcf-8724-81c9be7e2935" d="M193.73,59.69l15,18.3h-12.4L184.65,62.72V78h-9.36V28.92h9.36v28.3L196.05,47H209.5Z"/>
        <path class="a8620d46-3084-4fcf-8724-81c9be7e2935" d="M239.49,55.53a8,8,0,0,1-1.25,4.37,10.52,10.52,0,0,1-3.53,3.34,19.24,19.24,0,0,1-5.49,2.15,30.29,30.29,0,0,1-7.17.78c-.25,0-.53,0-.85,0s-.7,0-1.14,0a6.51,6.51,0,0,0,2.11,4.19,6.7,6.7,0,0,0,4.56,1.52,20.91,20.91,0,0,0,10.37-3.17V76A20.59,20.59,0,0,1,232,78.24a21.57,21.57,0,0,1-5.52.67,18.17,18.17,0,0,1-6.38-1.06,12.92,12.92,0,0,1-4.82-3.06,13.62,13.62,0,0,1-3-4.79,17.49,17.49,0,0,1-1.06-6.3,19.54,19.54,0,0,1,1.23-7.07,16.39,16.39,0,0,1,3.45-5.53,15.12,15.12,0,0,1,5.32-3.59A17.74,17.74,0,0,1,228,46.24a12.88,12.88,0,0,1,8.35,2.54A8.27,8.27,0,0,1,239.49,55.53Zm-9.36.71a2.48,2.48,0,0,0-1-1.94,3.64,3.64,0,0,0-2.43-.81,5.55,5.55,0,0,0-4,1.66,7.86,7.86,0,0,0-2.16,4.54,6.36,6.36,0,0,0,1.12.14h1C227.65,59.83,230.13,58.63,230.13,56.24Z"/>
        <path class="a8620d46-3084-4fcf-8724-81c9be7e2935" d="M282.79,37.58a13.55,13.55,0,0,0-2.54-.95,10.46,10.46,0,0,0-2.32-.24A6.39,6.39,0,0,0,275,37a4,4,0,0,0-1.76,1.79A9.88,9.88,0,0,0,272.4,42a43.46,43.46,0,0,0-.25,5h7.47v6.82h-7.39V78h-9.37V53.7H257V47h5.7a40.73,40.73,0,0,1,.78-8.7,14.2,14.2,0,0,1,2.35-5.56,8.78,8.78,0,0,1,3.95-3,15.69,15.69,0,0,1,5.45-.88,24.33,24.33,0,0,1,8.38,1.41Z"/>
        <path class="a8620d46-3084-4fcf-8724-81c9be7e2935" d="M302.14,55.68c-.65-.15-1.17-.24-1.54-.29a12,12,0,0,0-1.27-.07,7.16,7.16,0,0,0-6.09,2.75c-1.39,1.84-2.08,4.56-2.08,8.18V78H281.8V57.66c0-1.15,0-2.15,0-3s-.08-1.64-.17-2.38-.23-1.45-.39-2.17-.39-1.52-.67-2.44h8.89c.14.58.28,1.07.4,1.48a8,8,0,0,1,.25,1.15c.05.37.1.75.15,1.16a12.54,12.54,0,0,1,.07,1.48,15.88,15.88,0,0,1,4-4.59A7.71,7.71,0,0,1,298.77,47a6.49,6.49,0,0,1,1.65.18,16.6,16.6,0,0,1,1.87.68Z"/>
        <path class="a8620d46-3084-4fcf-8724-81c9be7e2935" d="M334.81,62.41a17.8,17.8,0,0,1-1.16,6.66A13.37,13.37,0,0,1,330.36,74a14.22,14.22,0,0,1-5.12,3A21.82,21.82,0,0,1,312,77a14.18,14.18,0,0,1-5.11-3,13.58,13.58,0,0,1-3.33-4.88,19,19,0,0,1,0-13.17,13.65,13.65,0,0,1,3.26-4.84,14,14,0,0,1,5.12-3,22.67,22.67,0,0,1,13.35,0,14.1,14.1,0,0,1,5.12,3,13.08,13.08,0,0,1,3.29,4.85A17.62,17.62,0,0,1,334.81,62.41Zm-9.36,0a6.5,6.5,0,0,0-7-7.09,6.53,6.53,0,0,0-5,1.87,7.35,7.35,0,0,0-1.74,5.22,7.82,7.82,0,0,0,1.7,5.38,6.46,6.46,0,0,0,5.05,1.89,6.88,6.88,0,0,0,5.16-1.86A7.45,7.45,0,0,0,325.45,62.41Z"/>
        <path class="a8620d46-3084-4fcf-8724-81c9be7e2935" d="M379.86,78V62.68q0-4.14-1.18-5.75a3.82,3.82,0,0,0-3.22-1.61,4.77,4.77,0,0,0-2.1.51,5.37,5.37,0,0,0-1.92,1.63,8.92,8.92,0,0,0-1.4,3.08,18.75,18.75,0,0,0-.52,4.81V78h-9.37V62.68a10.94,10.94,0,0,0-1.09-5.58,3.91,3.91,0,0,0-3.62-1.78,5.11,5.11,0,0,0-4.16,2.38q-1.75,2.37-1.76,7.65V78h-9.36V58.54c0-1.14,0-2.17-.07-3.1s-.13-1.81-.25-2.63a20.22,20.22,0,0,0-.49-2.39c-.21-.77-.46-1.59-.74-2.46H348c.24.73.41,1.28.53,1.64a15.46,15.46,0,0,1,.39,1.57,21.48,21.48,0,0,1,4.87-3A15.7,15.7,0,0,1,360.19,47a10.91,10.91,0,0,1,4.8,1,7.07,7.07,0,0,1,3.18,2.84A10.53,10.53,0,0,1,372.89,48a19.38,19.38,0,0,1,6.05-1q4.94,0,7.61,2.8T389.23,58V78Z"/>
        <path class="a8620d46-3084-4fcf-8724-81c9be7e2935" d="M436,37.58a13.24,13.24,0,0,0-2.53-.95,10.56,10.56,0,0,0-2.33-.24,6.37,6.37,0,0,0-2.88.56,4,4,0,0,0-1.76,1.79,9.88,9.88,0,0,0-.88,3.28,41.3,41.3,0,0,0-.25,5h7.46v6.82h-7.39V78h-9.36V53.7h-5.84V47h5.7a41.47,41.47,0,0,1,.77-8.7A14.36,14.36,0,0,1,419,32.76a8.81,8.81,0,0,1,3.94-3,15.75,15.75,0,0,1,5.46-.88,24.33,24.33,0,0,1,8.38,1.41Z"/>
        <path class="a8620d46-3084-4fcf-8724-81c9be7e2935" d="M455.82,78c0-.33,0-.73-.07-1.2s-.09-.82-.11-1.33-.07-1.06-.11-1.62a11.17,11.17,0,0,1-4.59,3.62,14.69,14.69,0,0,1-6,1.24q-5.79,0-9-3.81t-3.21-10.84q0-8.5,5.18-13.13t14.74-4.61c1,0,2,0,2.85.07s1.71.13,2.57.25,1.74.27,2.64.46,1.9.44,3,.77v20c0,1.08,0,2.22.07,3.42s.12,2.29.21,3.27c.09,1.18.19,2.33.28,3.45ZM454.35,55a14.82,14.82,0,0,0-2.22-.35c-.67,0-1.3-.07-1.87-.07a7.48,7.48,0,0,0-6,2.5,10.27,10.27,0,0,0-2.15,6.93,6.89,6.89,0,0,0,1.29,4.51A4.48,4.48,0,0,0,447,70.11a6.41,6.41,0,0,0,2.83-.64,7.17,7.17,0,0,0,2.33-1.79,8.62,8.62,0,0,0,1.57-2.75,10.41,10.41,0,0,0,.58-3.55Z"/>
        <path class="a8620d46-3084-4fcf-8724-81c9be7e2935" d="M489,77.42a21.44,21.44,0,0,1-5,.57,16.75,16.75,0,0,1-6.19-1.11,15.1,15.1,0,0,1-4.89-3,13.16,13.16,0,0,1-3.21-4.71A16,16,0,0,1,468.57,63a19.65,19.65,0,0,1,1-6.45,13.5,13.5,0,0,1,3.09-5.08,14.38,14.38,0,0,1,5.14-3.29A20,20,0,0,1,485,47a16.14,16.14,0,0,1,5.38.74,19.56,19.56,0,0,1,3.49,1.58l-1.62,8.1c-.7-.33-1.3-.63-1.79-.88a14,14,0,0,0-1.41-.64,7.13,7.13,0,0,0-1.48-.35,15.31,15.31,0,0,0-1.94-.11,7.3,7.3,0,0,0-5.42,1.92,7.08,7.08,0,0,0-1.9,5.19,6.91,6.91,0,0,0,2,5.23A7.94,7.94,0,0,0,486,69.68a15.28,15.28,0,0,0,3.66-.43,20.15,20.15,0,0,0,3.73-1.34l.63,7.66A24.54,24.54,0,0,1,489,77.42Z"/>
        <path class="a8620d46-3084-4fcf-8724-81c9be7e2935" d="M499.68,78V53.7h-6.19V47h6.19V39.2h9.22V47h8V53.7h-8V78Z"/>
        <path class="a8620d46-3084-4fcf-8724-81c9be7e2935" d="M549.1,62.41A17.8,17.8,0,0,1,548,69.07a13.39,13.39,0,0,1-3.3,4.88,14.14,14.14,0,0,1-5.12,3,21.79,21.79,0,0,1-13.24,0,14.14,14.14,0,0,1-5.12-3,13.58,13.58,0,0,1-3.33-4.88,17.21,17.21,0,0,1-1.19-6.66,17.26,17.26,0,0,1,1.15-6.51,13.78,13.78,0,0,1,3.26-4.84,14,14,0,0,1,5.12-3,22.67,22.67,0,0,1,13.35,0,14,14,0,0,1,5.12,3,13.11,13.11,0,0,1,3.3,4.85A17.63,17.63,0,0,1,549.1,62.41Zm-9.36,0a6.5,6.5,0,0,0-7-7.09,6.57,6.57,0,0,0-5,1.87A7.35,7.35,0,0,0,526,62.41a7.77,7.77,0,0,0,1.71,5.38,6.45,6.45,0,0,0,5,1.89,6.87,6.87,0,0,0,5.15-1.86A7.45,7.45,0,0,0,539.74,62.41Z"/>
        <path class="a8620d46-3084-4fcf-8724-81c9be7e2935" d="M575.15,55.68c-.66-.15-1.17-.24-1.55-.29a12,12,0,0,0-1.27-.07,7.18,7.18,0,0,0-6.09,2.75c-1.38,1.84-2.07,4.56-2.07,8.18V78H554.8V57.66q0-1.72,0-3c0-.85-.08-1.64-.18-2.38s-.22-1.45-.38-2.17-.39-1.52-.67-2.44h8.88c.15.58.28,1.07.4,1.48a8.09,8.09,0,0,1,.26,1.15c0,.37.09.75.14,1.16a12.31,12.31,0,0,1,.08,1.48,15.73,15.73,0,0,1,4-4.59A7.67,7.67,0,0,1,571.77,47a6.39,6.39,0,0,1,1.65.18,16.6,16.6,0,0,1,1.87.68Z"/>
        <path class="a8620d46-3084-4fcf-8724-81c9be7e2935" d="M588,38.51a3.88,3.88,0,0,1-1.62,3.14,6.54,6.54,0,0,1-7.81,0,4.21,4.21,0,0,1-1.69-3.23,3.79,3.79,0,0,1,1.55-3.22,6.7,6.7,0,0,1,6.16-1,5.59,5.59,0,0,1,1.76,1,4.81,4.81,0,0,1,1.19,1.49A3.81,3.81,0,0,1,588,38.51ZM577.4,78V47h9.37V78Z"/>
        <path class="a8620d46-3084-4fcf-8724-81c9be7e2935" d="M620.13,55.53a7.93,7.93,0,0,1-1.25,4.37,10.42,10.42,0,0,1-3.53,3.34,19.17,19.17,0,0,1-5.48,2.15,30.44,30.44,0,0,1-7.18.78c-.25,0-.53,0-.85,0s-.7,0-1.14,0a6.51,6.51,0,0,0,2.11,4.19,6.7,6.7,0,0,0,4.56,1.52,20.85,20.85,0,0,0,10.37-3.17V76a20.69,20.69,0,0,1-5.1,2.22,21.65,21.65,0,0,1-5.53.67,18.07,18.07,0,0,1-6.37-1.06,12.84,12.84,0,0,1-4.82-3.06,13.5,13.5,0,0,1-3-4.79,17.49,17.49,0,0,1-1.06-6.3,19.54,19.54,0,0,1,1.23-7.07,16.71,16.71,0,0,1,3.45-5.53,15.12,15.12,0,0,1,5.32-3.59,17.75,17.75,0,0,1,6.83-1.27A12.87,12.87,0,0,1,617,48.78,8.24,8.24,0,0,1,620.13,55.53Zm-9.36.71a2.45,2.45,0,0,0-1-1.94,3.64,3.64,0,0,0-2.43-.81,5.53,5.53,0,0,0-4,1.66,7.74,7.74,0,0,0-2.16,4.54,6.15,6.15,0,0,0,1.12.14h1Q610.77,59.83,610.77,56.24Z"/>
        <path class="a8620d46-3084-4fcf-8724-81c9be7e2935" d="M646,69.4a8.85,8.85,0,0,1-3,7q-3,2.61-8.39,2.61a35,35,0,0,1-7.14-.71,20.65,20.65,0,0,1-5.64-1.9l1.2-7.18q6.12,3.18,10.7,3.17a3.06,3.06,0,0,0,2.22-.67,2.1,2.1,0,0,0,.67-1.51,2.72,2.72,0,0,0-.53-1.73,8.21,8.21,0,0,0-2.57-1.65,41.16,41.16,0,0,1-5-2.54,16,16,0,0,1-3.38-2.64,8.63,8.63,0,0,1-1.9-2.92,9.66,9.66,0,0,1-.6-3.52,7.94,7.94,0,0,1,3.4-6.86A15,15,0,0,1,635,46a26.92,26.92,0,0,1,5.25.46,24.06,24.06,0,0,1,5.26,1.79l-1.13,7.11a16.6,16.6,0,0,0-4.84-1.93,21.77,21.77,0,0,0-4.62-.53,3.18,3.18,0,0,0-2.24.6A2.09,2.09,0,0,0,632,55,2.31,2.31,0,0,0,633,57a19.44,19.44,0,0,0,3.75,1.93A46.35,46.35,0,0,1,641,61.34a15.31,15.31,0,0,1,2.88,2.4,7.58,7.58,0,0,1,1.6,2.6A9.54,9.54,0,0,1,646,69.4Z"/>
      </g>
      <g>
        <path class="fc4cf1c1-c0ee-4add-bdd4-01b39d577862" d="M76.21,69.14a8.88,8.88,0,0,1-3,7c-2,1.73-4.78,2.6-8.39,2.6a35,35,0,0,1-7.14-.7,21.11,21.11,0,0,1-5.64-1.9L53.26,69q6.12,3.16,10.7,3.17a3.1,3.1,0,0,0,2.22-.67A2.08,2.08,0,0,0,66.85,70a2.69,2.69,0,0,0-.53-1.72,8,8,0,0,0-2.57-1.66,42,42,0,0,1-5-2.53,16.69,16.69,0,0,1-3.38-2.64,9,9,0,0,1-1.9-2.92,9.69,9.69,0,0,1-.6-3.52,7.94,7.94,0,0,1,3.4-6.87,15,15,0,0,1,8.9-2.43,27.69,27.69,0,0,1,5.24.46A24.69,24.69,0,0,1,75.71,48l-1.13,7.11a16.53,16.53,0,0,0-4.84-1.94,21.77,21.77,0,0,0-4.62-.53,3.18,3.18,0,0,0-2.24.6,2.12,2.12,0,0,0-.61,1.59,2.3,2.3,0,0,0,1,1.93A19.31,19.31,0,0,0,67,58.65a41.06,41.06,0,0,1,4.27,2.43,14.62,14.62,0,0,1,2.88,2.39,7.53,7.53,0,0,1,1.6,2.61A9.45,9.45,0,0,1,76.21,69.14Z"/>
        <path class="fc4cf1c1-c0ee-4add-bdd4-01b39d577862" d="M121.2,77.73V62.41q0-4.14-1.19-5.75a3.8,3.8,0,0,0-3.22-1.6,4.75,4.75,0,0,0-2.1.5,5.31,5.31,0,0,0-1.92,1.64,8.86,8.86,0,0,0-1.4,3.07,18.83,18.83,0,0,0-.52,4.82V77.73h-9.37V62.41a10.94,10.94,0,0,0-1.09-5.58,3.91,3.91,0,0,0-3.62-1.77,5.11,5.11,0,0,0-4.16,2.37c-1.17,1.58-1.76,4.14-1.76,7.66V77.73H81.49V58.28c0-1.14,0-2.18-.07-3.11s-.13-1.81-.25-2.63a18.24,18.24,0,0,0-.49-2.38c-.21-.78-.46-1.6-.74-2.46h9.37c.23.73.41,1.27.52,1.64a14.5,14.5,0,0,1,.39,1.56,22.07,22.07,0,0,1,4.87-3,15.9,15.9,0,0,1,6.43-1.16,10.91,10.91,0,0,1,4.8,1,7.19,7.19,0,0,1,3.18,2.84,10.49,10.49,0,0,1,4.72-2.87,19.41,19.41,0,0,1,6.06-1c3.28,0,5.82.94,7.6,2.8s2.68,4.59,2.68,8.14v20Z"/>
        <path class="fc4cf1c1-c0ee-4add-bdd4-01b39d577862" d="M168.29,62.14a17.89,17.89,0,0,1-1.15,6.67,13.31,13.31,0,0,1-3.3,4.87,14.2,14.2,0,0,1-5.11,3,21.82,21.82,0,0,1-13.25,0,14.24,14.24,0,0,1-5.12-3A13.89,13.89,0,0,1,137,68.81a17.49,17.49,0,0,1-1.19-6.67,17,17,0,0,1,1.16-6.5,13.54,13.54,0,0,1,3.25-4.84,13.78,13.78,0,0,1,5.12-3,22.49,22.49,0,0,1,13.36,0,13.92,13.92,0,0,1,5.11,3,13,13,0,0,1,3.3,4.84A17.63,17.63,0,0,1,168.29,62.14Zm-9.36,0A7,7,0,0,0,157,56.92,6.92,6.92,0,0,0,152,55.06a6.53,6.53,0,0,0-5,1.86,7.35,7.35,0,0,0-1.75,5.23,7.73,7.73,0,0,0,1.71,5.37,6.43,6.43,0,0,0,5.05,1.9,6.84,6.84,0,0,0,5.15-1.87A7.42,7.42,0,0,0,158.93,62.15Z"/>
        <path class="fc4cf1c1-c0ee-4add-bdd4-01b39d577862" d="M191.67,59.42l15,18.31H194.27L182.58,62.45V77.73h-9.36V28.66h9.36V57L194,46.75h13.45Z"/>
        <path class="fc4cf1c1-c0ee-4add-bdd4-01b39d577862" d="M237.43,55.27a7.9,7.9,0,0,1-1.26,4.36A10.45,10.45,0,0,1,232.64,63a19.46,19.46,0,0,1-5.48,2.14,30.44,30.44,0,0,1-7.18.78c-.24,0-.53,0-.84,0s-.7,0-1.14,0A6.49,6.49,0,0,0,220.11,70a6.68,6.68,0,0,0,4.55,1.51A20.75,20.75,0,0,0,235,68.36v7.39a20,20,0,0,1-5.1,2.22,21.22,21.22,0,0,1-5.53.67,18.3,18.3,0,0,1-6.37-1,13,13,0,0,1-4.82-3.07,13.46,13.46,0,0,1-3-4.78,17.78,17.78,0,0,1-1.06-6.3,19.6,19.6,0,0,1,1.24-7.08,16.49,16.49,0,0,1,3.45-5.53,15.35,15.35,0,0,1,5.31-3.59A18,18,0,0,1,226,46a12.87,12.87,0,0,1,8.34,2.53A8.25,8.25,0,0,1,237.43,55.27Zm-9.37.7a2.45,2.45,0,0,0-1-1.93,3.68,3.68,0,0,0-2.44-.81,5.56,5.56,0,0,0-4,1.65,7.92,7.92,0,0,0-2.16,4.54,5.37,5.37,0,0,0,1.12.14h1C225.59,59.56,228.06,58.37,228.06,56Z"/>
        <path class="fc4cf1c1-c0ee-4add-bdd4-01b39d577862" d="M280.72,37.32a12.82,12.82,0,0,0-2.53-1,10,10,0,0,0-2.33-.25,6.51,6.51,0,0,0-2.88.56,4,4,0,0,0-1.76,1.8,9.51,9.51,0,0,0-.88,3.27,41.42,41.42,0,0,0-.25,5h7.46v6.83h-7.39V77.73H260.8V53.44H255V46.75h5.71a40.71,40.71,0,0,1,.77-8.69,14.08,14.08,0,0,1,2.36-5.56,8.66,8.66,0,0,1,3.94-3,15.48,15.48,0,0,1,5.46-.88,24.37,24.37,0,0,1,8.38,1.41Z"/>
        <path class="fc4cf1c1-c0ee-4add-bdd4-01b39d577862" d="M300.08,55.41c-.66-.14-1.17-.23-1.55-.28a9.81,9.81,0,0,0-1.27-.07,7.15,7.15,0,0,0-6.09,2.75Q289.1,60.56,289.1,66V77.73h-9.37V57.39c0-1.14,0-2.14,0-3s-.08-1.65-.18-2.38a21.84,21.84,0,0,0-.38-2.17c-.17-.71-.39-1.53-.67-2.45h8.88c.15.58.28,1.07.4,1.48A7,7,0,0,1,288,50c.05.36.1.74.14,1.15a12.44,12.44,0,0,1,.08,1.48,15.8,15.8,0,0,1,4-4.58,7.68,7.68,0,0,1,4.47-1.34,6.39,6.39,0,0,1,1.65.18,15.19,15.19,0,0,1,1.87.69Z"/>
        <path class="fc4cf1c1-c0ee-4add-bdd4-01b39d577862" d="M332.75,62.14a17.89,17.89,0,0,1-1.16,6.67,13.31,13.31,0,0,1-3.3,4.87,14.2,14.2,0,0,1-5.11,3,21.82,21.82,0,0,1-13.25,0,14.24,14.24,0,0,1-5.12-3,13.89,13.89,0,0,1-3.33-4.87,17.49,17.49,0,0,1-1.19-6.67,17.2,17.2,0,0,1,1.16-6.5,13.44,13.44,0,0,1,3.26-4.84,13.66,13.66,0,0,1,5.11-3,22.49,22.49,0,0,1,13.36,0,13.92,13.92,0,0,1,5.11,3,13,13,0,0,1,3.3,4.84A17.62,17.62,0,0,1,332.75,62.14Zm-9.37,0a7,7,0,0,0-1.89-5.23,6.92,6.92,0,0,0-5.08-1.86,6.53,6.53,0,0,0-5,1.86,7.35,7.35,0,0,0-1.75,5.23,7.73,7.73,0,0,0,1.71,5.37,6.43,6.43,0,0,0,5.05,1.9,6.86,6.86,0,0,0,5.16-1.87A7.42,7.42,0,0,0,323.38,62.15Z"/>
        <path class="fc4cf1c1-c0ee-4add-bdd4-01b39d577862" d="M377.8,77.73V62.41q0-4.14-1.19-5.75a3.78,3.78,0,0,0-3.22-1.6,4.71,4.71,0,0,0-2.09.5,5.42,5.42,0,0,0-1.93,1.64A8.86,8.86,0,0,0,368,60.27a18.78,18.78,0,0,0-.53,4.82V77.73h-9.36V62.41A11.05,11.05,0,0,0,357,56.83a3.93,3.93,0,0,0-3.63-1.77,5.1,5.1,0,0,0-4.15,2.37c-1.18,1.58-1.76,4.14-1.76,7.66V77.73h-9.37V58.28c0-1.14,0-2.18-.07-3.11s-.13-1.81-.24-2.63a18.25,18.25,0,0,0-.5-2.38c-.21-.78-.45-1.6-.73-2.46h9.36c.23.73.41,1.27.53,1.64s.24.88.38,1.56a21.91,21.91,0,0,1,4.88-3,15.85,15.85,0,0,1,6.42-1.16,11,11,0,0,1,4.81,1,7.11,7.11,0,0,1,3.17,2.84,10.49,10.49,0,0,1,4.72-2.87,19.41,19.41,0,0,1,6.06-1c3.29,0,5.82.94,7.61,2.8s2.67,4.59,2.67,8.14v20Z"/>
        <path class="fc4cf1c1-c0ee-4add-bdd4-01b39d577862" d="M433.91,37.32a12.65,12.65,0,0,0-2.54-1,9.82,9.82,0,0,0-2.32-.25,6.55,6.55,0,0,0-2.89.56,4,4,0,0,0-1.76,1.8,10,10,0,0,0-.88,3.27,43.86,43.86,0,0,0-.24,5h7.46v6.83h-7.39V77.73H414V53.44h-5.84V46.75h5.7a40.63,40.63,0,0,1,.78-8.69A13.93,13.93,0,0,1,417,32.5a8.61,8.61,0,0,1,3.94-3,15.48,15.48,0,0,1,5.46-.88,24.27,24.27,0,0,1,8.37,1.41Z"/>
        <path class="fc4cf1c1-c0ee-4add-bdd4-01b39d577862" d="M453.76,77.73a11.8,11.8,0,0,0-.08-1.2c-.05-.38-.08-.82-.11-1.34s-.06-1-.11-1.62a11.11,11.11,0,0,1-4.59,3.63,14.83,14.83,0,0,1-6,1.23q-5.79,0-9-3.8t-3.21-10.84q0-8.52,5.17-13.13t14.74-4.61c1.05,0,2,0,2.86.07s1.71.13,2.57.24,1.73.27,2.64.46,1.9.45,3,.78v20c0,1.08,0,2.22.07,3.41s.11,2.29.21,3.28c.09,1.17.18,2.32.28,3.45Zm-1.48-23a14.54,14.54,0,0,0-2.22-.36c-.67,0-1.29-.07-1.86-.07a7.53,7.53,0,0,0-6,2.5A10.33,10.33,0,0,0,440,63.79a6.86,6.86,0,0,0,1.29,4.5A4.47,4.47,0,0,0,445,69.84a6.48,6.48,0,0,0,2.83-.63,7,7,0,0,0,2.33-1.8,8.6,8.6,0,0,0,1.58-2.74,10.47,10.47,0,0,0,.57-3.56Z"/>
        <path class="fc4cf1c1-c0ee-4add-bdd4-01b39d577862" d="M487,77.16a21.35,21.35,0,0,1-5,.57,16.8,16.8,0,0,1-6.2-1.11,15.23,15.23,0,0,1-4.89-3.06,13.31,13.31,0,0,1-3.2-4.7,16.07,16.07,0,0,1-1.13-6.12,19.65,19.65,0,0,1,1-6.45,13.4,13.4,0,0,1,3.1-5.07,14.16,14.16,0,0,1,5.14-3.29,19.71,19.71,0,0,1,7.14-1.18,16.43,16.43,0,0,1,5.39.74,19.89,19.89,0,0,1,3.49,1.58l-1.62,8.1c-.71-.33-1.31-.62-1.8-.88a10.6,10.6,0,0,0-1.41-.63,7,7,0,0,0-1.48-.36,15.33,15.33,0,0,0-1.93-.1,7.27,7.27,0,0,0-5.42,1.92,7,7,0,0,0-1.9,5.19,6.87,6.87,0,0,0,2,5.22,7.91,7.91,0,0,0,5.7,1.89,15.16,15.16,0,0,0,3.66-.43,20.63,20.63,0,0,0,3.73-1.34l.64,7.66A24.61,24.61,0,0,1,487,77.16Z"/>
        <path class="fc4cf1c1-c0ee-4add-bdd4-01b39d577862" d="M497.62,77.73V53.44h-6.2V46.75h6.2V38.94h9.22v7.81h8v6.69h-8V77.73Z"/>
        <path class="fc4cf1c1-c0ee-4add-bdd4-01b39d577862" d="M547,62.14a17.89,17.89,0,0,1-1.16,6.67,13.41,13.41,0,0,1-3.29,4.87,14.24,14.24,0,0,1-5.12,3,21.82,21.82,0,0,1-13.25,0,14.33,14.33,0,0,1-5.12-3,13.89,13.89,0,0,1-3.33-4.87,17.49,17.49,0,0,1-1.19-6.67,17.2,17.2,0,0,1,1.16-6.5,13.34,13.34,0,0,1,8.38-7.86,22.46,22.46,0,0,1,13.35,0,14,14,0,0,1,5.12,3,13,13,0,0,1,3.29,4.84A17.62,17.62,0,0,1,547,62.14Zm-9.37,0a7.07,7.07,0,0,0-1.88-5.23,7,7,0,0,0-5.09-1.86,6.53,6.53,0,0,0-5,1.86A7.39,7.39,0,0,0,524,62.15a7.77,7.77,0,0,0,1.7,5.37,6.43,6.43,0,0,0,5.05,1.9,6.85,6.85,0,0,0,5.16-1.87A7.42,7.42,0,0,0,537.67,62.15Z"/>
        <path class="fc4cf1c1-c0ee-4add-bdd4-01b39d577862" d="M573.08,55.41c-.65-.14-1.17-.23-1.54-.28a9.81,9.81,0,0,0-1.27-.07,7.13,7.13,0,0,0-6.09,2.75Q562.1,60.56,562.1,66V77.73h-9.36V57.39c0-1.14,0-2.14,0-3s-.08-1.65-.17-2.38a21.85,21.85,0,0,0-.39-2.17c-.16-.71-.39-1.53-.67-2.45h8.89c.15.58.28,1.07.4,1.48A6.94,6.94,0,0,1,561,50c0,.36.1.74.15,1.15a12.66,12.66,0,0,1,.07,1.48,15.81,15.81,0,0,1,4-4.58,7.68,7.68,0,0,1,4.47-1.34,6.49,6.49,0,0,1,1.65.18,15.19,15.19,0,0,1,1.87.69Z"/>
        <path class="fc4cf1c1-c0ee-4add-bdd4-01b39d577862" d="M585.9,38.25a3.86,3.86,0,0,1-1.62,3.13,6.51,6.51,0,0,1-7.82,0,4.22,4.22,0,0,1-1.69-3.22,3.84,3.84,0,0,1,1.55-3.23,6.25,6.25,0,0,1,4.09-1.31,6.43,6.43,0,0,1,2.07.35,5.48,5.48,0,0,1,1.76,1,5.09,5.09,0,0,1,1.2,1.49A3.94,3.94,0,0,1,585.9,38.25ZM575.34,77.73v-31h9.36v31Z"/>
        <path class="fc4cf1c1-c0ee-4add-bdd4-01b39d577862" d="M618.07,55.27a8,8,0,0,1-1.25,4.36A10.54,10.54,0,0,1,613.29,63a19.53,19.53,0,0,1-5.49,2.14,30.29,30.29,0,0,1-7.17.78c-.25,0-.53,0-.85,0s-.7,0-1.14,0A6.53,6.53,0,0,0,600.75,70a6.69,6.69,0,0,0,4.56,1.51,20.81,20.81,0,0,0,10.37-3.17v7.39A19.87,19.87,0,0,1,610.57,78a21.16,21.16,0,0,1-5.53.67,18.34,18.34,0,0,1-6.37-1,13.07,13.07,0,0,1-4.82-3.07,13.74,13.74,0,0,1-3-4.78,17.79,17.79,0,0,1-1.05-6.3A19.6,19.6,0,0,1,591,56.36a16.49,16.49,0,0,1,3.45-5.53,15.39,15.39,0,0,1,5.32-3.59A17.92,17.92,0,0,1,606.59,46a12.88,12.88,0,0,1,8.35,2.53A8.27,8.27,0,0,1,618.07,55.27Zm-9.36.7a2.46,2.46,0,0,0-1-1.93,3.64,3.64,0,0,0-2.43-.81,5.58,5.58,0,0,0-4,1.65,7.92,7.92,0,0,0-2.16,4.54,5.45,5.45,0,0,0,1.12.14h1C606.23,59.56,608.71,58.37,608.71,56Z"/>
        <path class="fc4cf1c1-c0ee-4add-bdd4-01b39d577862" d="M643.91,69.14a8.89,8.89,0,0,1-3,7c-2,1.73-4.78,2.6-8.38,2.6a35.18,35.18,0,0,1-7.15-.7,21,21,0,0,1-5.63-1.9L621,69q6.12,3.16,10.7,3.17a3.06,3.06,0,0,0,2.21-.67,2.08,2.08,0,0,0,.67-1.52,2.64,2.64,0,0,0-.53-1.72,7.89,7.89,0,0,0-2.57-1.66,42.78,42.78,0,0,1-5-2.53,17,17,0,0,1-3.38-2.64,9,9,0,0,1-1.9-2.92,9.69,9.69,0,0,1-.6-3.52A8,8,0,0,1,624,48.12a15,15,0,0,1,8.89-2.43,27.69,27.69,0,0,1,5.24.46A24.51,24.51,0,0,1,643.4,48l-1.12,7.11a16.75,16.75,0,0,0-4.84-1.94,21.86,21.86,0,0,0-4.63-.53,3.18,3.18,0,0,0-2.24.6,2.15,2.15,0,0,0-.6,1.59,2.31,2.31,0,0,0,1,1.93,20,20,0,0,0,3.75,1.94A41.3,41.3,0,0,1,639,61.08a15.23,15.23,0,0,1,2.88,2.39,7.65,7.65,0,0,1,1.59,2.61A9.18,9.18,0,0,1,643.91,69.14Z"/>
      </g>
    </g>
  </g>
</svg>
