<svg id="ec5f5742-3845-4c28-95cf-cee093d0cec0" data-name="Layer 1" xmlns="http://www.w3.org/2000/svg" width="770" height="373" viewBox="0 0 770 373">
  <defs>
    <style>
      .a2bcb0ca-d638-48c5-91da-766d4d1f00cf {
        fill: #5d97ac;
      }

      .a4edae53-f8c3-45dc-b934-4860d6fbf4a4 {
        fill: #fff;
      }

      .f173de2d-ade8-4f9f-b0fc-806fe0e1a49d {
        fill: #292929;
      }

      .b7e7f826-14fb-42f8-9049-3c688a90638d {
        fill: #9402b3;
      }

      .e87a9867-4fd5-4586-a3e0-8d44ca667507 {
        fill: #8441d5;
      }
    </style>
  </defs>
  <g>
    <path class="a2bcb0ca-d638-48c5-91da-766d4d1f00cf" d="M23.39,361.38h96.47l10.44-12.25L166,342.46l-1,12.34,71.11-15.31-4.24,5.74L301,336.9l5.11,4.36s56.73-24.33,102.39-31.53l8.76-14.21,13.12,9.54S488.29,321,564.21,302.5c0,0-13.39,28,11.65,49.47,22.75,19.49,60.56,19.49,87.76,9.41,26.59-9.85,40.63-48.19,29.28-75.38,0,0,49.55,0,63.78-34.6,13.22-32.15-.19-82.33-36.49-95.82-37.22-13.82-73.44,1.21-92.79,11l-7.94-4.41s21-79.87-43.6-98S476.48,102.62,484,123.7l-13.4,7.35s-29-61.76-105-37.5l-1.48,8.09-7.45,1.47-8.58-20.75S314.27,98,304.6,98c0,0,2.23-50.39-48.38-55.34s-64.76,48.73-64.76,48.73L164,7.46,41.09,56S59.38,158.42,8,348.44C8,348.44,10.9,361.38,23.39,361.38Z"/>
    <path class="a4edae53-f8c3-45dc-b934-4860d6fbf4a4" d="M18.53,357.54H119.88l5.56-12.25,35.67-6.67L165,354.8l66.25-19.15v9.64l70-18.21v10.34s56.73-24.33,102.4-31.53l8.75-14.21,13.12,9.54s57.93,15.91,133.85-2.56c0,0-13.39,28,11.65,49.47,22.76,19.49,60.56,19.49,87.76,9.41,26.59-9.85,40.63-48.19,29.28-75.38,0,0,49.55,0,63.78-34.6,13.22-32.15-.18-82.33-36.49-95.82-37.22-13.82-73.44,1.21-92.79,11l-7.94-4.41s21-79.87-43.6-98-99.38,38.46-91.87,59.54l-13.4,7.35s-29-61.76-105-37.5l-1.49,8.09-7.45,1.47-3.72-16.91s-38.7,11.76-48.38,11.76c0,0,2.23-50.39-48.38-55.34S186.6,87.51,186.6,87.51L164,7.46,36.24,52.11S59.43,155.27,8,345.29C8,345.29,6,357.54,18.53,357.54Z"/>
    <g>
      <g>
        <g>
          <path d="M165.26,330c-1.53-17.84-5-38.33-9.41-59.94-19.91-.35-39.52,2.14-49.29,3.59-1.23,23-1.63,46-1.08,66.36-35.27-.76-72.65,2-72.65,2C60,264.69,71.77,144,66.89,64.79,104.23,61.65,142.19,49,142.19,49c19.82,83.37,57.29,199.64,88.37,261C209.22,315.54,191.83,323.11,165.26,330ZM120.69,144.57c-4.46,23.78-9,58.61-12,95.74a356.39,356.39,0,0,0,38.44-8.17C139.83,202.66,130.76,172.54,120.69,144.57Z"/>
          <path d="M254.17,115.69c-18.16,8.06-38.88,4.12-44.64-10.81-5.63-13.71.16-29,15.78-37.66,17.91-10.49,40.26-6.72,46.52,9C277.05,90,273.89,106.65,254.17,115.69ZM239.59,316.82C242.24,265,230.8,190.15,218,141.2a422.42,422.42,0,0,0,57.15-15.06c1.65,45.64,14.9,133.39,25.33,176C300.51,302.18,270.58,308.63,239.59,316.82Z"/>
          <path d="M387.66,205c-1.64-22.73-8.54-36.73-16.5-37.52C364.07,167,357,170.23,352,181.4c6.16,41.47,15.18,86.32,23.29,115.31,0,0-30.82,2-57.69,13.89-2-56.23-6.88-128.1-21-182.22,0,0,29-3.89,48.2-13.7.29,6.51.67,13.84,1.51,21.52,14-15.8,35.09-23.76,51.77-22.67,27.49,1.59,44.27,26.39,48.37,71.76C419.22,190.63,387.66,205,387.66,205Z"/>
        </g>
        <g>
          <path class="f173de2d-ade8-4f9f-b0fc-806fe0e1a49d" d="M165.26,330c-1.53-17.84-5-38.33-9.41-59.94-19.91-.35-39.52,2.14-49.29,3.59-1.23,23-1.63,46-1.08,66.36-35.27-.76-72.65,2-72.65,2C60,264.69,71.77,144,66.89,64.79,104.23,61.65,142.19,49,142.19,49c19.82,83.37,57.29,199.64,88.37,261C209.22,315.54,191.83,323.11,165.26,330ZM120.69,144.57c-4.46,23.78-9,58.61-12,95.74a356.39,356.39,0,0,0,38.44-8.17C139.83,202.66,130.76,172.54,120.69,144.57Z"/>
          <path class="f173de2d-ade8-4f9f-b0fc-806fe0e1a49d" d="M254.17,115.69c-18.16,8.06-38.88,4.12-44.64-10.81-5.63-13.71.16-29,15.78-37.66,17.91-10.49,40.26-6.72,46.52,9C277.05,90,273.89,106.65,254.17,115.69ZM239.59,316.82C242.24,265,230.8,190.15,218,141.2a422.42,422.42,0,0,0,57.15-15.06c1.65,45.64,14.9,133.39,25.33,176C300.51,302.18,270.58,308.63,239.59,316.82Z"/>
          <path class="f173de2d-ade8-4f9f-b0fc-806fe0e1a49d" d="M387.66,205c-1.64-22.73-8.54-36.73-16.5-37.52C364.07,167,357,170.23,352,181.4c6.16,41.47,15.18,86.32,23.29,115.31,0,0-30.82,2-57.69,13.89-2-56.23-6.88-128.1-21-182.22,0,0,29-3.89,48.2-13.7.29,6.51.67,13.84,1.51,21.52,14-15.8,35.09-23.76,51.77-22.67,27.49,1.59,44.27,26.39,48.37,71.76C419.22,190.63,387.66,205,387.66,205Z"/>
        </g>
      </g>
      <g>
        <g>
          <path d="M164.28,325.22c-1.52-17.84-5-38.33-9.41-59.94-19.9-.35-39.51,2.14-49.29,3.58-1.22,23-1.63,46-1.07,66.37-35.27-.76-72.65,2-72.65,2C59.07,259.89,70.8,139.23,65.92,60c37.33-3.14,75.3-15.75,75.3-15.75,19.82,83.37,57.29,199.64,88.37,261C208.25,310.74,190.86,318.31,164.28,325.22ZM119.71,139.77c-4.45,23.78-8.95,58.61-11.95,95.74a356.39,356.39,0,0,0,38.44-8.17A912.38,912.38,0,0,0,119.71,139.77Z"/>
          <path d="M253.2,110.89C235,119,214.32,115,208.56,100.08c-5.63-13.71.15-29,15.78-37.66,17.9-10.49,40.26-6.72,46.51,9C276.08,85.16,272.92,101.85,253.2,110.89ZM238.62,312c2.65-51.81-8.79-126.67-21.56-175.62a422.42,422.42,0,0,0,57.15-15.06c1.64,45.64,14.9,133.39,25.33,176C299.54,297.38,269.61,303.83,238.62,312Z"/>
          <path d="M386.69,200.21c-1.64-22.72-8.55-36.72-16.5-37.51-7.09-.47-14.19,2.73-19.19,13.9,6.16,41.47,15.17,86.32,23.29,115.31,0,0-30.83,2-57.69,13.89-2-56.23-6.88-128.1-21-182.22,0,0,29-3.89,48.19-13.7.3,6.51.68,13.84,1.51,21.52,14-15.8,35.1-23.76,51.78-22.67,27.49,1.59,44.26,26.39,48.36,71.76C418.24,185.83,386.69,200.21,386.69,200.21Z"/>
        </g>
        <g>
          <path class="b7e7f826-14fb-42f8-9049-3c688a90638d" d="M164.28,325.22c-1.52-17.84-5-38.33-9.41-59.94-19.9-.35-39.51,2.14-49.29,3.58-1.22,23-1.63,46-1.07,66.37-35.27-.76-72.65,2-72.65,2C59.07,259.89,70.8,139.23,65.92,60c37.33-3.14,75.3-15.75,75.3-15.75,19.82,83.37,57.29,199.64,88.37,261C208.25,310.74,190.86,318.31,164.28,325.22ZM119.71,139.77c-4.45,23.78-8.95,58.61-11.95,95.74a356.39,356.39,0,0,0,38.44-8.17A912.38,912.38,0,0,0,119.71,139.77Z"/>
          <path class="b7e7f826-14fb-42f8-9049-3c688a90638d" d="M253.2,110.89C235,119,214.32,115,208.56,100.08c-5.63-13.71.15-29,15.78-37.66,17.9-10.49,40.26-6.72,46.51,9C276.08,85.16,272.92,101.85,253.2,110.89ZM238.62,312c2.65-51.81-8.79-126.67-21.56-175.62a422.42,422.42,0,0,0,57.15-15.06c1.64,45.64,14.9,133.39,25.33,176C299.54,297.38,269.61,303.83,238.62,312Z"/>
          <path class="b7e7f826-14fb-42f8-9049-3c688a90638d" d="M386.69,200.21c-1.64-22.72-8.55-36.72-16.5-37.51-7.09-.47-14.19,2.73-19.19,13.9,6.16,41.47,15.17,86.32,23.29,115.31,0,0-30.83,2-57.69,13.89-2-56.23-6.88-128.1-21-182.22,0,0,29-3.89,48.19-13.7.3,6.51.68,13.84,1.51,21.52,14-15.8,35.1-23.76,51.78-22.67,27.49,1.59,44.26,26.39,48.36,71.76C418.24,185.83,386.69,200.21,386.69,200.21Z"/>
        </g>
      </g>
    </g>
    <g>
      <path d="M409.94,226.35s63.63.25,130-44.86c59.83-40.64,30.8-91.07,1.24-83.32s-31.51,49.55,8.94,43.92c0,0-6.43,9.71-21.59,5.57S495,121.29,515.12,94.85c18.22-23.93,49.07-17.84,63.12-6.61,15.21,12.15,38.21,45.33-8.42,88.46S432.39,229.62,409.94,226.35Z"/>
      <path d="M403.16,243.17s57.34,15.53,124.63-4.33,116.43-53.47,152.11-50.26,37.77,29.71,38,32.29,3.61,27.89-25.26,30.16c-26.33,2.07-32.5-34.05-11.27-42.82,0,0-13.39-.68-21.34,16.37s11.48,45.76,36.6,41.95S738.87,248,738.23,220.8c-.68-29.3-21.87-48.11-53.84-50.54S615.13,189.12,598.88,197,495.53,255.29,403.16,243.17Z"/>
      <path d="M403,252s30.71,20.54,78.69,14.37S574,248.82,585.22,248s45-6.37,69.95,18.33,8.62,61.36-1,68.46c-13,9.62-30.81,19.65-55.93,6.79S577.09,277.3,615.92,286c0,0-36.28,3.66-19.38,35.26,12.56,23.47,54.6,6.51,52.19-21.8C647,279.54,636.81,260.87,590,263c-39.23,1.8-55,12.12-118.54,12.25C427,275.38,403,252,403,252Z"/>
    </g>
    <g>
      <path class="e87a9867-4fd5-4586-a3e0-8d44ca667507" d="M410.16,225.8s63.63-.67,129.35-46.73c59.22-41.51,29.44-91.51,0-83.34s-30.77,50,9.59,43.79c0,0-6.28,9.81-21.5,5.88s-34-25.88-14.23-52.61c17.87-24.19,48.81-18.54,63-7.52,15.38,11.93,38.87,44.77-7.12,88.57S432.65,228.74,410.16,225.8Z"/>
      <path class="e87a9867-4fd5-4586-a3e0-8d44ca667507" d="M403.63,242.71s57.56,14.71,124.55-6.13,115.62-55.15,151.35-52.45,38.21,29.16,38.46,31.74,4,27.83-24.81,30.52c-26.3,2.45-33-33.58-11.91-42.65,0,0-13.4-.49-21.09,16.67s12.15,45.59,37.21,41.42,42-19.14,40.94-46.33c-1.11-29.29-22.58-47.79-54.58-49.75s-69,19.85-85.11,27.94S496.17,253.5,403.63,242.71Z"/>
      <path class="e87a9867-4fd5-4586-a3e0-8d44ca667507" d="M403.63,251.53s31,20.1,78.9,13.24,92.05-18.87,103.21-19.85,44.91-7,70.22,17.32,9.52,61.23,0,68.46c-12.9,9.81-30.52,20.1-55.83,7.6s-22.08-64,16.87-55.88c0,0-36.22,4.19-18.85,35.54,12.9,23.28,54.68,5.72,51.85-22.55-2-19.86-12.49-38.37-59.3-35.54-39.2,2.37-54.8,12.92-118.35,14C427.94,274.57,403.63,251.53,403.63,251.53Z"/>
    </g>
  </g>
</svg>
