<svg id="ed7d2c2a-5995-4f20-96a0-e9cabcfa23e8" data-name="Layer 1" xmlns="http://www.w3.org/2000/svg" xmlns:xlink="http://www.w3.org/1999/xlink" width="91" height="46" viewBox="0 0 91 46">
  <defs>
    <style>
      .ab7daa6f-4cda-4261-a528-a229899f6e30 {
        stroke: #a1a8a7;
        stroke-miterlimit: 10;
        fill: url(#abbedad2-bbd9-4f0b-92fe-bdbc61321285);
      }

      .b2644ba7-e40a-43b1-8236-f8b37af05ae5 {
        fill: #ad9e9e;
      }
    </style>
    <linearGradient id="abbedad2-bbd9-4f0b-92fe-bdbc61321285" x1="182.54" y1="-1274.46" x2="239.55" y2="-1274.46" gradientTransform="translate(837.49 1044.78) rotate(-46.89)" gradientUnits="userSpaceOnUse">
      <stop offset="0" stop-color="#fff"/>
      <stop offset="0.44" stop-color="#fefefd"/>
      <stop offset="0.6" stop-color="#fbfaf6"/>
      <stop offset="0.71" stop-color="#f6f4eb"/>
      <stop offset="0.8" stop-color="#efebda"/>
      <stop offset="0.88" stop-color="#e5e0c4"/>
      <stop offset="0.95" stop-color="#d9d2a9"/>
      <stop offset="1" stop-color="#cfc692"/>
    </linearGradient>
  </defs>
  <g>
    <path class="ab7daa6f-4cda-4261-a528-a229899f6e30" d="M15.08,15.58c-.19.25-.85.42-2.32.47A7.38,7.38,0,0,0,15.6,17.1s-1.37,1.51-4.72.37a5.09,5.09,0,0,0,5.22,1.3s-1,1.47-4.11,2.35a5.17,5.17,0,0,0,4.52-.47A4.06,4.06,0,0,0,15.27,24,10.17,10.17,0,0,1,18,21.39a8.51,8.51,0,0,0,.51,5.41,10.46,10.46,0,0,1,1.09-4.33,9.59,9.59,0,0,0-.27,2.78s-.06-.65,1.15-1.71c0,0-1,.95-.06,6.23,0,0,.18-1.26,2.94-3.49a7,7,0,0,0-.05,5.06,7.92,7.92,0,0,1,.56-2.43s-.3,1.78,3.11,4.94S33.28,39.49,34,41a5.66,5.66,0,0,0-.73-3.37s4.86,4.09,17.11,5.52a8.93,8.93,0,0,1-3.59-3.86,18.8,18.8,0,0,0,5.29,3.42A39.22,39.22,0,0,0,74.1,39,4.89,4.89,0,0,1,71,36.87a6.08,6.08,0,0,0,4.54.87A28.73,28.73,0,0,0,89.61,16.46a34.08,34.08,0,0,1-11.2,7.05s-4.09,4.58-7.81,5.64A36.73,36.73,0,0,0,76.13,24a50.62,50.62,0,0,1-8.34,2.52,10.8,10.8,0,0,1-6.65,2.34,13.94,13.94,0,0,0,4.65-2.39s-2.64.64-8.5-1.09-11-2.84-21.56-2.49c0,0,2.85-1.92,10.09-1.65a21.63,21.63,0,0,0-8.73-1.21c-5.58.18-7.5,1.11-10,.33,0,0,5.75.06,7.9-4.56,0,0-5,4.84-11.31,2.14A8.5,8.5,0,0,0,30,16.48a5,5,0,0,1-3.84-.61,5,5,0,0,0-4-.53,3.78,3.78,0,0,0,2.21-3s-1.56,1.83-3.06,1.88a4.27,4.27,0,0,0,1.35-3,6.74,6.74,0,0,1-3.3,3.11,5.09,5.09,0,0,0,1.19-3.48,7.84,7.84,0,0,1-3.51,3.31,2.72,2.72,0,0,0,0-3.46,4.71,4.71,0,0,1-1.28,3.81S15.29,15.3,15.08,15.58Z"/>
    <path class="b2644ba7-e40a-43b1-8236-f8b37af05ae5" d="M1.94,3S14.68,17.65,29.41,27.12C46.1,37.85,73.16,39.47,87.94,19.4c0,0-9.42,13.62-31,14.32-20.62.67-38.27-14.66-53.58-32.3C3.07,1.15,1.62,2.58,1.94,3Z"/>
  </g>
</svg>
