<svg id="f24b850d-a2a6-44a8-8e00-09a02702f20e" data-name="Layer 1" xmlns="http://www.w3.org/2000/svg" xmlns:xlink="http://www.w3.org/1999/xlink" width="64" height="62" viewBox="0 0 64 62">
  <defs>
    <style>
      .ef8ee4b2-59b9-464f-9435-072c9c7a94ad {
        stroke: #a1a8a7;
        stroke-miterlimit: 10;
        fill: url(#a45da871-8316-40e9-9991-ba3d489c0a96);
      }

      .b4851f39-56ab-4ab7-9fd1-f8b5975e88f8 {
        fill: #ad9e9e;
      }
    </style>
    <linearGradient id="a45da871-8316-40e9-9991-ba3d489c0a96" x1="616.25" y1="-1126.36" x2="664.61" y2="-1126.36" gradientTransform="translate(1282.3 390.76) rotate(-103.51)" gradientUnits="userSpaceOnUse">
      <stop offset="0" stop-color="#fff"/>
      <stop offset="0.44" stop-color="#fefefd"/>
      <stop offset="0.6" stop-color="#fbfaf6"/>
      <stop offset="0.71" stop-color="#f6f4eb"/>
      <stop offset="0.8" stop-color="#efebda"/>
      <stop offset="0.88" stop-color="#e5e0c4"/>
      <stop offset="0.95" stop-color="#d9d2a9"/>
      <stop offset="1" stop-color="#cfc692"/>
    </linearGradient>
  </defs>
  <g>
    <path class="ef8ee4b2-59b9-464f-9435-072c9c7a94ad" d="M17.37,54.84c.09.25-.1.8-.76,1.86a6.43,6.43,0,0,0,2.11-1.52s.45,1.68-2,3.52a4.36,4.36,0,0,0,3.41-3.08,6.35,6.35,0,0,1-.24,4,4.3,4.3,0,0,0,1.79-3.41,3.49,3.49,0,0,0,1.81,2.43A8.51,8.51,0,0,1,23,55.52a7.48,7.48,0,0,0,4.15,2.2,9.27,9.27,0,0,1-2.62-2.81,8.67,8.67,0,0,0,1.89,1.5s-.5-.27-.69-1.63c0,0,.23,1.13,4.49,3,0,0-.84-.72-1.15-3.72a6.15,6.15,0,0,0,3.64,2.42,6.91,6.91,0,0,1-1.49-1.54s1.15,1,5,.13,7.08-1.81,8.53-1.62A5,5,0,0,0,42,52.36s5.27-1.5,12.08-9.5a7.81,7.81,0,0,1-4.49.71,16.1,16.1,0,0,0,5-2.13,32.63,32.63,0,0,0,7.68-17.33,4.24,4.24,0,0,1-3,1.19A5.17,5.17,0,0,0,62,22.49a24.45,24.45,0,0,0-8.8-20A28.49,28.49,0,0,1,53,13.75s1.39,5.05.4,8.19a30.77,30.77,0,0,0-1.09-6.33,42.34,42.34,0,0,1-2.11,7.09,9,9,0,0,1-1.44,5.82,11.69,11.69,0,0,0,.46-4.42s-.79,2.17-4.81,5.49-7.25,6.47-12,14.1c0,0,0-2.93,3.58-7.93a18.15,18.15,0,0,0-5,5.61c-2.51,4-2.74,5.83-4.5,7.26,0,0,2.76-4,.41-7.74,0,0,1.16,5.82-3.78,9a7.09,7.09,0,0,0,1.92-5.23,4.21,4.21,0,0,1-2.25,2.43,4.29,4.29,0,0,0-2.26,2.56,3.2,3.2,0,0,0-1.1-3s.59,2-.08,3a3.66,3.66,0,0,0-1.57-2.4,5.74,5.74,0,0,1,.7,3.8,4.43,4.43,0,0,0-2-2.48,6.72,6.72,0,0,1,.75,4,2.4,2.4,0,0,0-2.54-1.61,4.13,4.13,0,0,1,2.17,2.71S17.26,54.55,17.37,54.84Z"/>
    <path class="b4851f39-56ab-4ab7-9fd1-f8b5975e88f8" d="M2,58.18s16.68-2.08,30.5-8C48.16,43.39,62.11,25,54.54,5.06c0,0,5.43,13.1-4.27,28.73C41,48.71,21.57,54,1.55,56.47,1.23,56.52,1.58,58.23,2,58.18Z"/>
  </g>
</svg>
