<svg xmlns="http://www.w3.org/2000/svg" xmlns:xlink="http://www.w3.org/1999/xlink" width="1600" height="900" viewBox="0 0 1600 900">
  <defs>
    <style>
      .ec6676a0-3ea3-499f-aa6d-968bcd9731aa {
        fill: none;
      }

      .b5b0840f-5223-42ca-a6ff-8b4a62f6f13f {
        isolation: isolate;
      }

      .f82a2ac0-68b1-4bfb-8d8b-4b2287e014d9 {
        clip-path: url(#ebf0caf0-f1cc-41d7-b582-2246b01bbf82);
      }

      .ed55e666-0d41-4abf-9c91-9951de6d5422 {
        clip-path: url(#e0367188-cf73-4083-8aaf-bc4194dc7bd3);
      }

      .b9ad1e7a-efd2-413d-b794-595c822d2e98 {
        opacity: 0.53;
      }

      .b915a75e-3d02-46ec-a534-a0ab65c82281 {
        fill: #dfe8eb;
        mix-blend-mode: screen;
        opacity: 0.44;
      }

      .ac032266-433a-419f-8751-d631d5a9e531 {
        fill: #fff;
        opacity: 0.29;
      }

      .b8968195-8ab2-4c5e-9547-0abb8762d6d6 {
        fill: #95d4fa;
      }

      .b98ca986-29f0-4a5d-ae83-eae7ea85913d {
        fill: #5dbdf7;
      }
    </style>
    <clipPath id="ebf0caf0-f1cc-41d7-b582-2246b01bbf82">
      <rect class="ec6676a0-3ea3-499f-aa6d-968bcd9731aa" width="1600" height="900"/>
    </clipPath>
    <clipPath id="e0367188-cf73-4083-8aaf-bc4194dc7bd3">
      <rect class="ec6676a0-3ea3-499f-aa6d-968bcd9731aa" x="-33.33" y="-151.51" width="1648.15" height="1138.11"/>
    </clipPath>
  </defs>
  <g class="b5b0840f-5223-42ca-a6ff-8b4a62f6f13f">
    <g id="ae64d62d-6a17-40ca-876a-1d964f8787f9" data-name="Layer 1">
      <g class="f82a2ac0-68b1-4bfb-8d8b-4b2287e014d9">
        <g>
          <g>
            <g class="ed55e666-0d41-4abf-9c91-9951de6d5422">
              <g class="b9ad1e7a-efd2-413d-b794-595c822d2e98">
                <path class="b915a75e-3d02-46ec-a534-a0ab65c82281" d="M1562.29,941.91c-35.3,12.57-62.63,52.51-62.63,52.51,0-82.24-101-63.84-101-63.84-28.72-62.21-124.8-27.62-124.8-27.62-47.31-77.38-127.22-42.39-127.22-42.39C1103,758.25,1015,835.77,1015,835.77c-85-58-111.94,35.9-111.94,35.9-76.16-23.71-80.44,47.07-80.44,47.07C573.37,1003.37,840,1165.56,840,1165.56s435.79-20.44,630.36-12.11c36.83,1.58,67.08,1.43,91.91.14Z"/>
                <path class="b915a75e-3d02-46ec-a534-a0ab65c82281" d="M276.34,861.19c2.92-109-56.84-89.61-56.84-89.61-56.84-63.28-99.6,30-99.6,30C44.19,718.54,21.68,845,21.68,845c-25.27-9.47-42.83-4.22-55,8v223.78c39.19,9.76,89-1.61,89-1.61l257.16,11s53.71-52.81,58.87-148.75S276.34,861.19,276.34,861.19Z"/>
                <path class="b915a75e-3d02-46ec-a534-a0ab65c82281" d="M1278.83,629.67H1561.9S1551.61,614,1494.17,614c0,0-10.24-107.77-58.22-38.17,0,0-24.45-74.09-61.41-4.49,0,0-39.52-49.39-51.24,4.49,0,0-24.35-17.57-41.61,28.26l-31.34,12.79c-5.25,2.15-4.13,12.83,1.34,12.83Z"/>
                <path class="b915a75e-3d02-46ec-a534-a0ab65c82281" d="M-33,626.7c3.72-7.36,11.87-15.46,28.76-6.23,0,0,7.05-52.2,36.2-28.27,0,0,31.19-75.56,76.69-6.28,0,0,45.88-34,55.75,27.61,0,0,32.54-6.74,46.3,12.44,2.47,3.43.71,9.26-2.79,9.26H-29.81C-33,635.23-34.87,630.29-33,626.7Z"/>
              </g>
            </g>
            <g>
              <path class="ac032266-433a-419f-8751-d631d5a9e531" d="M315.17,390.61c10.74-8.92,16.58-28.34,8.59-40.74-5.32-8.25-15.05-10.86-23.6-9s-16.21,7.29-23.58,12.78c8.93-29,2.51-64-15.77-85.8-8.16-9.74-20.5-17.11-31-11.4-8.93,4.87-13,17.27-15.31,28.73a226.55,226.55,0,0,0-4.48,43.4c-4.5-16.54-14.6-26.64-26.34-26-11.27.61-13.83,19.17-13,32.68-4.27-11.48-26.54-10.84-20.18,18.21-13-5.38-26.74-10.82-40.12-7.28S85,366,89,381.77c4.55,18.13,24.23,21.79,40,22.11C212,405.53,293,409.06,315.17,390.61Z"/>
              <path class="b8968195-8ab2-4c5e-9547-0abb8762d6d6" d="M1593.22,70.11c28-23.23,43.19-73.78,22.37-106.09-13.83-21.47-39.19-28.26-61.45-23.54s-42.2,19-61.41,33.3c23.27-75.59,6.54-166.65-41-223.45-21.24-25.35-53.38-44.55-80.64-29.68-23.27,12.69-33.85,45-39.89,74.81a591.51,591.51,0,0,0-11.64,113c-11.73-43.07-38-69.36-68.61-67.71-29.33,1.58-36,49.91-33.72,85.09-11.14-29.88-69.13-28.23-52.57,47.42-33.74-14-69.62-28.16-104.48-18.95S993.93,6,1004.22,47.1c11.83,47.2,63.08,56.74,104.11,57.56C1324.64,109,1535.39,118.15,1593.22,70.11Z"/>
              <path class="b98ca986-29f0-4a5d-ae83-eae7ea85913d" d="M914.66,19.18C936,1.47,947.58-37.06,931.71-61.69c-10.55-16.37-29.87-21.54-46.84-17.94S852.7-65.16,838.06-54.25c17.74-57.62,5-127-31.29-170.32-16.19-19.32-40.69-34-61.47-22.62-17.73,9.67-25.8,34.28-30.4,57A451.12,451.12,0,0,0,706-104c-8.94-32.83-29-52.87-52.29-51.61-22.36,1.21-27.45,38-25.71,64.86-8.49-22.77-52.69-21.51-40.07,36.15-25.72-10.67-53.06-21.47-79.64-14.45S457.85-29.66,465.7,1.64c9,36,48.08,43.25,79.35,43.87C709.93,48.79,870.57,55.8,914.66,19.18Z"/>
            </g>
          </g>
          <rect class="ec6676a0-3ea3-499f-aa6d-968bcd9731aa" width="1600" height="900"/>
        </g>
      </g>
    </g>
  </g>
</svg>
