<svg id="a12d270e-90ed-4d24-bb9b-729b3116b677" data-name="Layer 1" xmlns="http://www.w3.org/2000/svg" width="159" height="175" viewBox="0 0 159 175">
  <defs>
    <style>
      .f3827f9d-fa82-48b3-a7dc-f39a544495be {
        fill: none;
        stroke: #262211;
        stroke-miterlimit: 10;
        stroke-width: 0.75px;
      }

      .afd7ad6b-589e-41b2-92b6-9807364c12eb {
        fill: #eabd3d;
      }

      .e289dc74-f0a9-4312-b317-d92e1f7353b8 {
        opacity: 0.1;
      }

      .e1dfe41c-19e2-498e-bf1d-2ab34555b4cd {
        fill: #fff;
      }

      .adefedff-b03b-4cbb-b77d-bcb8104ffa80 {
        fill: #c1385f;
      }

      .ffd4dd00-5ecb-473b-b0d0-26b781003ac4 {
        fill: #8d48b5;
      }
    </style>
  </defs>
  <g>
    <path class="f3827f9d-fa82-48b3-a7dc-f39a544495be" d="M88.68,78.15s1.2,12.92-11.71,32.2c-8.82,13.19-24.89,50.12-6.73,58.58"/>
    <path class="f3827f9d-fa82-48b3-a7dc-f39a544495be" d="M127.35,57.2s3.57,14.11-11.7,32.2-55.29,64.68-39.13,82.34"/>
    <path class="f3827f9d-fa82-48b3-a7dc-f39a544495be" d="M70.24,168.93C49,164.21,23.77,120.88,28.29,104"/>
    <g>
      <path class="afd7ad6b-589e-41b2-92b6-9807364c12eb" d="M56.31,67.08a21.4,21.4,0,0,0-7-11.89,27.34,27.34,0,0,0-15.58-7A29,29,0,0,0,18.51,50.3a33.6,33.6,0,0,0-4.6,2.55,23.26,23.26,0,0,0-8.42,9.5A22.57,22.57,0,0,0,4.24,77.93,31.35,31.35,0,0,0,14,94a24,24,0,0,0,12.12,5.69c1,.18,1,.35.52,1-.77,1-1.46,2-2.22,3l3.85.36H29a3.55,3.55,0,0,1,1.74.14,1,1,0,0,0,1.06,0c.3-.27,0-.55-.16-.83-.5-1-.93-2-1.4-3,1.5-.48,3.12-.27,4.65-.64,6.24-1.52,11.14-4.49,14.6-9C55,83.46,58.1,75.76,56.31,67.08ZM20.16,91"/>
      <path class="e289dc74-f0a9-4312-b317-d92e1f7353b8" d="M30.19,100.27c-.51-.62.37-.67.63-.81,6.7-3.46,10.35-8.75,13.11-14.55a23.78,23.78,0,0,0,2.55-11.49,21.56,21.56,0,0,0-8.22-16.2,29.17,29.17,0,0,0-14.52-6.51c-1.19-.18-2.37-.05-3.56-.12-.57,0-1.21.17-1.67-.29a29,29,0,0,1,15.25-2.15,27.34,27.34,0,0,1,15.58,7,21.4,21.4,0,0,1,7,11.89C58.1,75.76,55,83.46,49.44,90.67c-3.46,4.47-8.36,7.44-14.6,9C33.31,100,31.69,99.79,30.19,100.27Z"/>
      <g>
        <path class="e1dfe41c-19e2-498e-bf1d-2ab34555b4cd" d="M20.16,91a11.6,11.6,0,0,1-3.73-2.68A23.9,23.9,0,0,1,9.59,76.41c-1.09-4.77-.21-9.32,1.8-13.8.27-.61.71-.59,1.4-.44.85.18.75.49.57,1a21.8,21.8,0,0,0-1.25,7.65,28.11,28.11,0,0,0,2.71,11.94A42.59,42.59,0,0,0,20.16,91Z"/>
        <path class="e1dfe41c-19e2-498e-bf1d-2ab34555b4cd" d="M13,59.31c-.07-.78.42-1,1.27-1,1,0,1.34.48,1.29,1.15s-.6,1-1.41,1S12.85,60,13,59.31Z"/>
      </g>
    </g>
    <g>
      <path class="adefedff-b03b-4cbb-b77d-bcb8104ffa80" d="M155.52,20.28a21.52,21.52,0,0,0-7-11.89,27.34,27.34,0,0,0-15.58-7A29,29,0,0,0,117.72,3.5a34.32,34.32,0,0,0-4.61,2.55,23.36,23.36,0,0,0-8.41,9.5,22.57,22.57,0,0,0-1.25,15.58,31.35,31.35,0,0,0,9.77,16.1,24.08,24.08,0,0,0,12.12,5.69c1,.18,1,.35.53,1-.77,1-1.46,2-2.22,3l3.85.36h.66a3.55,3.55,0,0,1,1.74.14,1,1,0,0,0,1.06,0c.29-.27,0-.55-.16-.83-.5-1-.94-2-1.4-3,1.49-.47,3.12-.27,4.65-.64,6.24-1.52,11.14-4.49,14.6-9C154.23,36.66,157.31,29,155.52,20.28Z"/>
      <path class="e289dc74-f0a9-4312-b317-d92e1f7353b8" d="M129.4,53.47c-.51-.62.36-.67.63-.8,6.69-3.47,10.34-8.75,13.11-14.56a23.9,23.9,0,0,0,2.55-11.49,21.58,21.58,0,0,0-8.23-16.2A29.1,29.1,0,0,0,123,3.91c-1.19-.18-2.38-.05-3.56-.12-.57,0-1.21.17-1.67-.29A29,29,0,0,1,133,1.35a27.34,27.34,0,0,1,15.58,7,21.52,21.52,0,0,1,7,11.89c1.79,8.68-1.29,16.38-6.87,23.59-3.46,4.47-8.36,7.44-14.6,9C132.52,53.2,130.89,53,129.4,53.47Z"/>
      <g>
        <path class="e1dfe41c-19e2-498e-bf1d-2ab34555b4cd" d="M119.37,44.15a11.6,11.6,0,0,1-3.73-2.68,23.86,23.86,0,0,1-6.84-11.86c-1.1-4.76-.21-9.32,1.8-13.8.27-.61.71-.59,1.4-.44.85.18.75.49.57,1A21.75,21.75,0,0,0,111.32,24,28.11,28.11,0,0,0,114,36,42.12,42.12,0,0,0,119.37,44.15Z"/>
        <path class="e1dfe41c-19e2-498e-bf1d-2ab34555b4cd" d="M112.22,12.51c-.07-.78.42-1,1.27-1,1,0,1.33.48,1.29,1.15s-.6,1-1.41,1S112.06,13.22,112.22,12.51Z"/>
      </g>
    </g>
    <g>
      <path class="ffd4dd00-5ecb-473b-b0d0-26b781003ac4" d="M117.26,41.26a21.45,21.45,0,0,0-7-11.88,27.36,27.36,0,0,0-15.58-7,29,29,0,0,0-15.24,2.15A32.73,32.73,0,0,0,74.85,27a23.1,23.1,0,0,0-8.41,9.5,22.55,22.55,0,0,0-1.26,15.57A31.33,31.33,0,0,0,75,68.22,24,24,0,0,0,87.08,73.9c1,.18,1,.36.53,1-.78,1-1.47,2-2.23,3l3.85.36h.67a3.51,3.51,0,0,1,1.73.14,1,1,0,0,0,1.06-.05c.3-.26,0-.54-.16-.83-.49-1-.93-2-1.39-3,1.49-.48,3.11-.27,4.64-.65,6.24-1.51,11.14-4.49,14.6-9C116,57.65,119.05,50,117.26,41.26ZM81.11,65.14"/>
      <path class="e289dc74-f0a9-4312-b317-d92e1f7353b8" d="M91.14,74.46c-.51-.63.36-.67.62-.81,6.7-3.46,10.35-8.75,13.11-14.55a23.81,23.81,0,0,0,2.55-11.49A21.6,21.6,0,0,0,99.2,31.4a29.16,29.16,0,0,0-14.52-6.5c-1.19-.18-2.37,0-3.55-.13-.57,0-1.21.18-1.67-.29A29,29,0,0,1,94.7,22.33a27.36,27.36,0,0,1,15.58,7.05,21.45,21.45,0,0,1,7,11.88c1.79,8.69-1.3,16.39-6.88,23.59-3.46,4.47-8.36,7.45-14.6,9C94.25,74.19,92.63,74,91.14,74.46Z"/>
      <g>
        <path class="e1dfe41c-19e2-498e-bf1d-2ab34555b4cd" d="M81.11,65.14a11.69,11.69,0,0,1-3.74-2.68A23.9,23.9,0,0,1,70.53,50.6c-1.09-4.77-.21-9.32,1.8-13.8.28-.61.71-.59,1.4-.44.85.18.76.49.57,1A21.79,21.79,0,0,0,73.06,45,28,28,0,0,0,75.76,57,42.8,42.8,0,0,0,81.11,65.14Z"/>
        <path class="e1dfe41c-19e2-498e-bf1d-2ab34555b4cd" d="M74,33.49c-.06-.77.42-1,1.27-1,1,0,1.34.49,1.29,1.15s-.59,1-1.41,1S73.8,34.21,74,33.49Z"/>
      </g>
    </g>
  </g>
</svg>
