<svg xmlns="http://www.w3.org/2000/svg" xmlns:xlink="http://www.w3.org/1999/xlink" width="105" height="288" viewBox="0 0 105 288">
  <defs>
    <style>
      .beaffee8-20e1-4017-8e39-b1aaf0383bc1 {
        isolation: isolate;
      }

      .e5d45ead-5848-473d-9b23-da2fb6ed7c6d {
        opacity: 0.74;
      }

      .bdbb49e6-777c-4dd6-abec-cff9950e7259 {
        fill: #3fc416;
      }

      .ea8572a4-d18b-42e4-9cf4-b914e0c7aafd {
        fill: #00a6fd;
      }

      .fc3c2a20-36c8-49df-8a7f-4e98648a71df {
        fill: #fb8000;
      }

      .f6a00b93-1f1a-4370-a5ec-5078d2340585 {
        fill: #00a3fd;
      }

      .f4bb9a1f-36f0-435c-8fdb-8d114d224008 {
        fill: red;
      }

      .f4ddc2dc-f4e0-4834-8e39-b18c34da24bc {
        fill: #e53963;
      }

      .bf65cc8c-60d4-4f72-958d-4cd0e7ae0899 {
        mix-blend-mode: screen;
        opacity: 0.2;
      }

      .ed2bdacc-f567-4186-9508-d10999eb7e66 {
        fill: url(#a87599e9-99e2-44c6-8911-a58b14ab2ed5);
      }

      .ab335b19-48d8-4bb8-a338-c40c667b7bff {
        mix-blend-mode: multiply;
        opacity: 0.5;
      }

      .b4d1f538-61e2-425a-811b-093c37b9498f {
        fill: url(#ff2b6361-4bab-4135-a5f9-854a57cec0f8);
      }

      .bdf19eb3-e355-4649-8b9d-3ffd35376bec {
        fill: url(#a436611a-235c-4d06-a4f8-a923cbb1108e);
      }

      .fabd9259-2855-478f-845c-2cdc66707d52 {
        fill: none;
        stroke: #2f404f;
        stroke-miterlimit: 10;
        stroke-width: 0.5px;
      }
    </style>
    <linearGradient id="a87599e9-99e2-44c6-8911-a58b14ab2ed5" x1="-3401.44" y1="-9360.19" x2="-3368.75" y2="-9360.19" gradientTransform="translate(13788.73 12420.47) rotate(-28.14) scale(1.86)" gradientUnits="userSpaceOnUse">
      <stop offset="0" stop-color="#ff0a3b"/>
      <stop offset="0.67" stop-color="#ff576b"/>
      <stop offset="1" stop-color="#ff7880"/>
    </linearGradient>
    <linearGradient id="ff2b6361-4bab-4135-a5f9-854a57cec0f8" x1="-3377.4" y1="-9373.14" x2="-3377.04" y2="-9330.56" gradientTransform="translate(13788.73 12420.47) rotate(-28.14) scale(1.86)" gradientUnits="userSpaceOnUse">
      <stop offset="0" stop-color="#cc8122"/>
      <stop offset="0.32" stop-color="#9e5e16"/>
      <stop offset="0.78" stop-color="#612f06"/>
      <stop offset="1" stop-color="#491c00"/>
    </linearGradient>
    <linearGradient id="a436611a-235c-4d06-a4f8-a923cbb1108e" x1="-3401.44" y1="-9355.19" x2="-3353" y2="-9355.19" xlink:href="#ff2b6361-4bab-4135-a5f9-854a57cec0f8"/>
  </defs>
  <g class="beaffee8-20e1-4017-8e39-b1aaf0383bc1">
    <g id="b4822033-1f56-4e71-a4e1-e5116fe10246" data-name="Layer 1">
      <g class="e5d45ead-5848-473d-9b23-da2fb6ed7c6d">
        <g>
          <path class="bdbb49e6-777c-4dd6-abec-cff9950e7259" d="M3.31,62.68l.13.58c.08.36.21.87.4,1.46.1.29.21.6.35.91a4.85,4.85,0,0,0,.52.91,4.17,4.17,0,0,0,.34.38l.45.38q.5.42,1,.9a7.63,7.63,0,0,1,.85,1,4.68,4.68,0,0,1,.61,1.2,3.51,3.51,0,0,1,.19,1.26,4.3,4.3,0,0,1-.21,1.09,5.55,5.55,0,0,1-.32.83c-.1.24-.21.44-.29.61-.17.34-.28.52-.28.52s0-.21.09-.58.16-.9.23-1.5a5,5,0,0,0,0-1,3.46,3.46,0,0,0-.27-1,5,5,0,0,0-.58-1,10.67,10.67,0,0,0-.78-.9c-.28-.29-.58-.57-.88-.85s-.3-.26-.47-.45A3,3,0,0,1,3.94,67a4.13,4.13,0,0,1-.49-1.14,6.4,6.4,0,0,1-.21-1.06,5.54,5.54,0,0,1,0-.89,4.65,4.65,0,0,1,0-.68A4.27,4.27,0,0,1,3.31,62.68Z"/>
          <path class="ea8572a4-d18b-42e4-9cf4-b914e0c7aafd" d="M3.4,62.74a5.61,5.61,0,0,0-.33.78,7.66,7.66,0,0,0-.26.92,5,5,0,0,0-.12,1.2A3.28,3.28,0,0,0,3,67a3,3,0,0,0,1,1.12,5.58,5.58,0,0,0,1.48.76l.42.14.46.13.9.27c.31.11.63.26.94.39s.59.32.88.47a9.72,9.72,0,0,1,.8.59l.36.33a2.18,2.18,0,0,1,.33.35,5.71,5.71,0,0,1,.56.76c.07.13.16.26.22.39l.18.41a3.17,3.17,0,0,1,.14.4l.12.4c0,.27.1.53.11.77a5.88,5.88,0,0,1,0,.72,6.07,6.07,0,0,1-.07.63,6.14,6.14,0,0,1-.24,1l-.14.35-.12.25-.1.21a.1.1,0,0,1-.19-.07h0l.06-.21c0-.07,0-.16.07-.26s0-.22.06-.35,0-.28.06-.44a4.18,4.18,0,0,0,0-.51,2.84,2.84,0,0,0,0-.58,4.86,4.86,0,0,0-.08-.64c0-.21-.12-.43-.17-.66a3.42,3.42,0,0,1-.13-.34c-.05-.11-.09-.22-.15-.33l-.18-.34c-.06-.11-.15-.21-.22-.32a2.34,2.34,0,0,0-.24-.31l-.26-.3a4.11,4.11,0,0,0-.3-.29l-.32-.27-.35-.24c-.12-.08-.23-.17-.36-.24s-.51-.29-.78-.41-.53-.22-.82-.32L6,70.06l-.45-.14c-.16,0-.32-.11-.47-.16a6.2,6.2,0,0,1-1.72-1,3.67,3.67,0,0,1-1.13-1.51A3.6,3.6,0,0,1,2,66.43a4.34,4.34,0,0,1,0-.8,4.83,4.83,0,0,1,.3-1.33,5.47,5.47,0,0,1,.43-.93,3.85,3.85,0,0,1,.35-.55l.14-.19a.11.11,0,0,1,.14,0A.11.11,0,0,1,3.4,62.74Z"/>
          <path class="fc3c2a20-36c8-49df-8a7f-4e98648a71df" d="M3.4,62.73l-.06.18a2.72,2.72,0,0,0-.09.54,3.13,3.13,0,0,0,.07.83,3.37,3.37,0,0,0,.41,1,5.54,5.54,0,0,0,.82,1,9.84,9.84,0,0,0,1.16.89,7.58,7.58,0,0,0,.68.4l.73.39A7,7,0,0,1,8.62,69,4.77,4.77,0,0,1,9.7,70.54a4.55,4.55,0,0,1,.37,1.78A5.69,5.69,0,0,1,9.81,74a6.5,6.5,0,0,1-.58,1.33A7.33,7.33,0,0,1,7.93,77a3.11,3.11,0,0,1-.66.5h0a.11.11,0,0,1-.14,0,.12.12,0,0,1,0-.13.83.83,0,0,0,.14-.13,4.29,4.29,0,0,0,.36-.44,8.15,8.15,0,0,0,1-1.75A7.5,7.5,0,0,0,9,73.76a5.49,5.49,0,0,0,.12-1.41,3.92,3.92,0,0,0-.36-1.41,3.72,3.72,0,0,0-.89-1.21,5.79,5.79,0,0,0-1.26-.93,13.7,13.7,0,0,1-1.46-.91A7.48,7.48,0,0,1,4,66.81a5.22,5.22,0,0,1-.83-1.23,3.3,3.3,0,0,1-.32-1.23,3.13,3.13,0,0,1,.08-1,2.54,2.54,0,0,1,.23-.57l.12-.19a.11.11,0,0,1,.14,0A.1.1,0,0,1,3.4,62.73Z"/>
          <g>
            <path class="bdbb49e6-777c-4dd6-abec-cff9950e7259" d="M81.69,21.27s.2.08.54.26a6,6,0,0,1,.59.35,8.76,8.76,0,0,1,.73.53,6.85,6.85,0,0,1,.77.76,4.63,4.63,0,0,1,.69,1,3.44,3.44,0,0,1,.24.66,6.16,6.16,0,0,1,.11.64c.07.4.14.8.23,1.2a10,10,0,0,0,.33,1.14,5.33,5.33,0,0,0,.47,1,3.29,3.29,0,0,0,.67.76,5,5,0,0,0,.8.52c.55.28,1,.48,1.39.64l.54.26-.59-.07-.68-.09a7.64,7.64,0,0,1-.88-.2,4.69,4.69,0,0,1-1-.44,3.65,3.65,0,0,1-1-.85A4.68,4.68,0,0,1,85,28.19a9.36,9.36,0,0,1-.4-1.27c-.09-.43-.17-.86-.22-1.29,0-.19,0-.38-.07-.57a2.83,2.83,0,0,0-.13-.5,4.55,4.55,0,0,0-.48-.93c-.18-.29-.38-.55-.57-.8-.39-.48-.75-.87-1-1.14Z"/>
            <path class="ea8572a4-d18b-42e4-9cf4-b914e0c7aafd" d="M81.69,21.17h.23a5.62,5.62,0,0,1,.67,0,5.7,5.7,0,0,1,1,.16,5,5,0,0,1,1.28.5,4.39,4.39,0,0,1,.66.46,3.61,3.61,0,0,1,1.24,2.43,6,6,0,0,1-.14,1.94c0,.16-.07.33-.12.48l-.14.45c-.08.3-.17.6-.26.9s-.11.57-.18.86-.06.58-.09.86,0,.29,0,.43,0,.28,0,.42l.06.41a2.7,2.7,0,0,0,.07.41c0,.13.07.25.1.38s.1.25.14.37a3.88,3.88,0,0,0,.15.36l.18.33a2,2,0,0,0,.2.31l.21.29a5.87,5.87,0,0,0,.46.51,4.57,4.57,0,0,0,.49.42,3.54,3.54,0,0,0,.48.34q.23.15.45.27a3.44,3.44,0,0,0,.39.19l.34.15.25.08.21.08h0a.1.1,0,0,1,.06.13.09.09,0,0,1-.11.06l-.23,0-.28,0L89.13,36c-.14,0-.29-.09-.45-.14a3.23,3.23,0,0,1-.52-.22,3.13,3.13,0,0,1-.57-.3A5.21,5.21,0,0,1,87,35c-.2-.15-.38-.34-.58-.52l-.27-.32a2,2,0,0,1-.26-.34l-.25-.37c-.08-.13-.13-.27-.2-.41a4.34,4.34,0,0,1-.33-.87,2,2,0,0,1-.11-.47l-.09-.48a8,8,0,0,1,0-1c0-.33,0-.66.08-1s.12-.67.2-1l.27-.9.14-.45c0-.14.08-.28.12-.42a5.91,5.91,0,0,0,.19-1.64,3.14,3.14,0,0,0-.41-1.42,3.23,3.23,0,0,0-.93-1,4.91,4.91,0,0,0-1.07-.58,7.77,7.77,0,0,0-.92-.29,8.49,8.49,0,0,0-.84-.17.09.09,0,0,1-.09-.11C81.6,21.21,81.64,21.18,81.69,21.17Z"/>
            <path class="fc3c2a20-36c8-49df-8a7f-4e98648a71df" d="M81.69,21.17h.23a3.48,3.48,0,0,1,.6.13,2.85,2.85,0,0,1,.86.47,3.25,3.25,0,0,1,.85.94,4.83,4.83,0,0,1,.58,1.37,7.53,7.53,0,0,1,.23,1.6,13.74,13.74,0,0,1,0,1.7A5.82,5.82,0,0,0,85.08,29a3.91,3.91,0,0,0,1.51,2.47,5.7,5.7,0,0,0,1.25.69,10.41,10.41,0,0,0,1.27.37,8.91,8.91,0,0,0,2,.17l.56,0,.19,0a.1.1,0,0,1,.13.06.11.11,0,0,1-.05.12h0a3.09,3.09,0,0,1-.79.26,7.09,7.09,0,0,1-2.15.14,7.24,7.24,0,0,1-1.44-.27,5.46,5.46,0,0,1-1.52-.7,4.56,4.56,0,0,1-1.3-1.29,4.84,4.84,0,0,1-.7-1.75A6.57,6.57,0,0,1,84,27.31c0-.28.05-.55.07-.82a6.79,6.79,0,0,0,0-.78A8.33,8.33,0,0,0,84,24.27a4.6,4.6,0,0,0-.36-1.22,3.55,3.55,0,0,0-.6-.89,2.87,2.87,0,0,0-.66-.51,2.53,2.53,0,0,0-.5-.23l-.19-.05a.1.1,0,0,1-.08-.11A.12.12,0,0,1,81.69,21.17Z"/>
          </g>
          <path class="f6a00b93-1f1a-4370-a5ec-5078d2340585" d="M85.6,131.53l0-.16c0-.11,0-.27-.08-.48a15.27,15.27,0,0,1-.16-1.83,20,20,0,0,1,.13-2.86,32.8,32.8,0,0,1,.64-3.65c.28-1.32.68-2.71,1-4.18a30.9,30.9,0,0,0,.89-4.56,11.24,11.24,0,0,0,0-2.32,7.74,7.74,0,0,0-.6-2.19,9.08,9.08,0,0,0-3.15-3.51,23.45,23.45,0,0,0-4.53-2.36l-.62-.25-.63-.27q-.63-.28-1.23-.6A22.56,22.56,0,0,1,75,100.92a20.49,20.49,0,0,1-3.73-3.34A21.78,21.78,0,0,1,68.7,94a24.51,24.51,0,0,1-1.55-3.38,23.38,23.38,0,0,1-.81-2.73c-.18-.77-.27-1.38-.33-1.8,0-.21,0-.37-.05-.48l0-.17a.22.22,0,0,1,.19-.22.2.2,0,0,1,.21.16h0l0,.15c0,.11.05.26.1.46.1.4.26,1,.5,1.71a26.36,26.36,0,0,0,1,2.57,22.5,22.5,0,0,0,1.72,3.11,21.83,21.83,0,0,0,2.62,3.27,20.53,20.53,0,0,0,3.59,2.93,22.14,22.14,0,0,0,2.14,1.19q.57.27,1.14.51l.58.24.62.23a22.46,22.46,0,0,1,5,2.43A12.66,12.66,0,0,1,87.65,106a10.41,10.41,0,0,1,.92,1.16,9.21,9.21,0,0,1,.73,1.3,8.86,8.86,0,0,1,.74,2.81,13.1,13.1,0,0,1,0,1.39c0,.46,0,.91-.11,1.35a28.25,28.25,0,0,1-1.15,4.81c-.47,1.46-.91,2.83-1.32,4.09s-.71,2.42-1,3.46a26.65,26.65,0,0,0-.45,2.71c-.08.75-.1,1.36-.11,1.76v.64a.2.2,0,0,1-.2.2A.2.2,0,0,1,85.6,131.53Z"/>
          <path class="f4bb9a1f-36f0-435c-8fdb-8d114d224008" d="M66.43,84.71s0,.23,0,.66.07,1.08.15,1.89.21,1.79.41,2.91a37.7,37.7,0,0,0,.85,3.68A29.45,29.45,0,0,0,69.41,98c.34.7.71,1.41,1.13,2.1a18.61,18.61,0,0,0,1.43,2A19,19,0,0,0,73.7,104c.31.29.65.58,1,.84L75,105l.26.2.53.37A21.5,21.5,0,0,0,80.57,108c1.74.63,3.57,1.12,5.37,1.72a29.08,29.08,0,0,1,5.21,2.23,19.93,19.93,0,0,1,4.22,3.27,23.68,23.68,0,0,1,2.92,3.69,33.33,33.33,0,0,1,1.9,3.44c.5,1,.87,2,1.17,2.76.16.39.28.74.39,1s.19.56.26.78l.21.64a.19.19,0,0,1-.13.25.19.19,0,0,1-.24-.1h0l-.29-.61c-.19-.4-.47-1-.84-1.71s-.84-1.61-1.41-2.59a36.43,36.43,0,0,0-2.09-3.17,24.15,24.15,0,0,0-3-3.3,18.27,18.27,0,0,0-4-2.81,27.08,27.08,0,0,0-4.93-2c-1.76-.53-3.61-1-5.46-1.66a25.06,25.06,0,0,1-2.74-1.13,19.24,19.24,0,0,1-2.57-1.48l-.61-.44-.29-.22-.28-.22c-.39-.32-.74-.64-1.09-1a17.24,17.24,0,0,1-1.89-2.14,21,21,0,0,1-2.61-4.62,25.78,25.78,0,0,1-1.36-4.49,31.17,31.17,0,0,1-.62-6.9c0-.83.08-1.48.12-1.93s.09-.68.09-.68a.2.2,0,0,1,.4,0Z"/>
          <path class="bdbb49e6-777c-4dd6-abec-cff9950e7259" d="M66,84.39v0l0,.12a4.24,4.24,0,0,0,.2.49,10,10,0,0,0,1,1.75,14.27,14.27,0,0,0,2.06,2.35,17.78,17.78,0,0,0,3.28,2.37A25.57,25.57,0,0,0,77,93.44c.81.26,1.7.49,2.63.85a14.78,14.78,0,0,1,2.69,1.36,10.91,10.91,0,0,1,2.41,2.11,9.32,9.32,0,0,1,1.65,2.85,12.33,12.33,0,0,1,.71,3.2,20.13,20.13,0,0,1,0,3.2c-.14,2.1-.49,4.13-.75,6.09-.13,1-.25,1.94-.3,2.87,0,.47,0,.93,0,1.37,0,.22,0,.44,0,.66v.08h0v.07l0,.18,0,.35,0,.35.07.32c0,.22.08.43.14.65l.16.64c.06.21.12.41.19.62a10.92,10.92,0,0,0,1,2.27,9.6,9.6,0,0,0,3.26,3.18,19.15,19.15,0,0,0,3.71,1.65c1.17.39,2.22.69,3.09,1s1.54.49,2,.64l.7.25a.21.21,0,0,1,.12.26.21.21,0,0,1-.24.13h0l-.72-.17-2-.41c-.89-.18-2-.37-3.2-.68a18.53,18.53,0,0,1-4.09-1.47,11.06,11.06,0,0,1-2.13-1.41,10.18,10.18,0,0,1-1.84-2.06,12.64,12.64,0,0,1-1.32-2.56c-.08-.23-.16-.46-.25-.69s-.13-.48-.2-.71-.12-.49-.18-.74l-.09-.37-.06-.35-.06-.36,0-.17,0-.11,0-.1c0-.26-.06-.52-.08-.78,0-.53,0-1,0-1.56a30.59,30.59,0,0,1,.25-3.05c.25-2,.57-4,.69-6a14,14,0,0,0-.58-5.59A8.17,8.17,0,0,0,83.17,99a8.65,8.65,0,0,0-1.93-1.79,14.94,14.94,0,0,0-2.32-1.27c-.79-.34-1.65-.62-2.51-.94S74.75,94.3,74,93.91a21.88,21.88,0,0,1-2.14-1.25A19.33,19.33,0,0,1,70,91.3a16.93,16.93,0,0,1-1.48-1.43,13.73,13.73,0,0,1-1.94-2.7,10,10,0,0,1-.83-2,6,6,0,0,1-.18-.74.21.21,0,0,1,.17-.23.21.21,0,0,1,.23.14Z"/>
          <polygon class="f4ddc2dc-f4e0-4834-8e39-b18c34da24bc" points="82.44 20.88 63.91 81.29 2.76 62.98 21.29 2.57 82.44 20.88"/>
          <g class="bf65cc8c-60d4-4f72-958d-4cd0e7ae0899">
            <path class="ed2bdacc-f567-4186-9508-d10999eb7e66" d="M46.09,15.06a34.63,34.63,0,0,1,.12,32.81l-.39.71A35.09,35.09,0,0,1,31.55,62.45,35.67,35.67,0,0,1,14.83,66.6L2.76,63,21.29,2.57l20.37,6.1A35.94,35.94,0,0,1,46.09,15.06Z"/>
          </g>
          <g class="ab335b19-48d8-4bb8-a338-c40c667b7bff">
            <path class="b4d1f538-61e2-425a-811b-093c37b9498f" d="M43,41.89l3.23,6c1.56,2.92,3.11,5.78,4.59,8.54L57.59,69.1l4.78,9,1.59,3,.2.38-.2.11-.22-.38-1.66-3-4.93-8.91L50.24,56.71c-1.43-2.63-2.92-5.35-4.42-8.13l-3.47-6.36C39.69,37.27,37,32.33,34.53,27.7L27.74,15,23,6c-.93-1.75-1.53-2.9-1.73-3.28l.05-.16.16.05,1.8,3.24,4.93,8.91L35.09,27.4Z"/>
            <path class="bdf19eb3-e355-4649-8b9d-3ffd35376bec" d="M82.44,20.88l-.25.83c-32-3-63.33,13.61-78.57,41.53L2.76,63l1-3.33A81.74,81.74,0,0,1,35.9,29.5a82.93,82.93,0,0,1,43-9.67Z"/>
          </g>
          <polygon class="f4ddc2dc-f4e0-4834-8e39-b18c34da24bc" points="59.4 90.24 63.46 80.39 74 82.53 59.4 90.24"/>
        </g>
        <path class="fabd9259-2855-478f-845c-2cdc66707d52" d="M37.86,33S15.34,193.39,73.42,284.69"/>
      </g>
    </g>
  </g>
</svg>
