<svg id="abb5b2a1-58fc-4b8f-94c1-52520e907f2e" data-name="Layer 1" xmlns="http://www.w3.org/2000/svg" xmlns:xlink="http://www.w3.org/1999/xlink" width="54" height="61" viewBox="0 0 54 61">
  <defs>
    <style>
      .f7f46fdb-2092-404a-93ce-e125c17d19da {
        stroke: #a1a8a7;
        stroke-miterlimit: 10;
        fill: url(#e9a69b8a-4a62-48a7-a24f-4a0fb4931db7);
      }

      .f8a6f2a3-0819-4b0e-aa51-7e5ca94c173f {
        fill: #ad9e9e;
      }
    </style>
    <linearGradient id="e9a69b8a-4a62-48a7-a24f-4a0fb4931db7" x1="2470.89" y1="-1549.23" x2="2509.6" y2="-1549.23" gradientTransform="translate(2745.81 -1076.59) rotate(-170.28)" gradientUnits="userSpaceOnUse">
      <stop offset="0" stop-color="#fff"/>
      <stop offset="0.44" stop-color="#fefefd"/>
      <stop offset="0.6" stop-color="#fbfaf6"/>
      <stop offset="0.71" stop-color="#f6f4eb"/>
      <stop offset="0.8" stop-color="#efebda"/>
      <stop offset="0.88" stop-color="#e5e0c4"/>
      <stop offset="0.95" stop-color="#d9d2a9"/>
      <stop offset="1" stop-color="#cfc692"/>
    </linearGradient>
  </defs>
  <g>
    <path class="f7f46fdb-2092-404a-93ce-e125c17d19da" d="M11.63,53.45s.61.94-.27,3A3.34,3.34,0,0,0,12.73,54a5.13,5.13,0,0,1,1.68,2.17,2.19,2.19,0,0,0-.81-2.48,6,6,0,0,1,3,2,2.7,2.7,0,0,0-1.79-2.25,17.92,17.92,0,0,1,5.28,2.08,3.83,3.83,0,0,0-2.16-2s3.44.18,4.5.92c0,0,0-1-1.66-1.81a15,15,0,0,0,3.3.33,3.64,3.64,0,0,0,3-1.42c.86-.87,1.58-.57,2.84-1.14A4.93,4.93,0,0,0,33,48c1.24-1.83,4-2.17,6.55-6.12a5,5,0,0,1-3.17.78c-1.58-.28-2.44-.83-4,0,0,0,.32-1.08,2.23-1.17s3.4,0,5-.81c1.78-1,1.91-2.64,4.53-3.54a4,4,0,0,0-2.15.35,2.92,2.92,0,0,1-2.31,0,6.23,6.23,0,0,0,4.35-1.68c2.34-1.93,2.21-4.21,4.49-8.4s2.48-6.08,2.58-8.85c0-4.43,1.52-6.29.5-8.24-2.66-5.05-1.72-5.67-3.33-7.09-.44-.37-2.92.34-6.39,2.25-.9.53-1.31,1-1,2.79A10.32,10.32,0,0,1,41,13.4a7.89,7.89,0,0,0-2-5.29,15.92,15.92,0,0,1-2,4.73c-1.81,3.28-6.11,7.59-7.25,11-1.88,5,1.31,7.82-.33,11a4.66,4.66,0,0,0-1.07-3.81A6,6,0,0,1,27.77,25S26,26.51,25.89,30.31s1.63,5.51.39,9.35a14.12,14.12,0,0,0-.59-5.29c-.89-3.13-1.41-3.68-1.07-5.68A13.06,13.06,0,0,0,23.76,31a7,7,0,0,1-1.28,2.56c-.69,1.1-1.47,3.26-1.17,4.57a5.59,5.59,0,0,1,0-4.14,8,8,0,0,0-2.26,3.67c-.82,3-.55,5.84-1.47,8.21a7.48,7.48,0,0,0-.08-2.75c-.4-3,.75-4.56-.64-6.37a4.58,4.58,0,0,1-1.23,3.35c-1.41,1.44-2,1.68-2.72,4.16s-.46,2.77-1.4,3.87a5.62,5.62,0,0,0-.61-5.3,7.26,7.26,0,0,1,.14,3.33,9.86,9.86,0,0,0-.31,3.21c-.62-1.36-.06-2.58-2.91-3.62,0,0,2.21,1.61,2.12,3.9a3.22,3.22,0,0,0-3.21-.72s3,1.06,4,2.87a4.62,4.62,0,0,0-4.1-.27,6.1,6.1,0,0,1,4.19,1.36Z"/>
    <path class="f8a6f2a3-0819-4b0e-aa51-7e5ca94c173f" d="M46.71,8.73C39.07,44.15,7.79,54.43,2.22,55.89c-.12,0,.49,1.28.69,1.24C2.91,57.13,39.94,47.76,46.71,8.73Z"/>
  </g>
</svg>
