<svg xmlns="http://www.w3.org/2000/svg" width="282" height="214" viewBox="0 0 282 214">
  <defs>
    <style>
      .ba432f6e-f994-4bc0-8768-d1d944f3a12c {
        isolation: isolate;
      }

      .b5459283-718d-41ea-8f29-ebec3a570bd6, .bb586f79-114c-40d1-af64-f9ad55d4f263 {
        fill: #888184;
      }

      .a36e52fa-2287-4261-80ab-24ea0ad812dd, .b5459283-718d-41ea-8f29-ebec3a570bd6, .b80b92ec-ce1e-4bf0-99bd-e5c598924086, .bd256a00-c8bb-4e78-912a-a87061373e4a, .e7bf0d82-b894-4d15-8862-e1b9cb004e21, .ef72d1fa-e341-4066-b6cd-a35ef2e0b3d0 {
        mix-blend-mode: multiply;
      }

      .a73b72ee-edef-4e93-8fcd-8259d7eac936, .b480a570-7986-4748-a059-a3cfbe3ab2a2 {
        fill: #ecdde3;
      }

      .a1463c26-f999-4f6f-b757-7766ece6f9de {
        fill: #00688e;
      }

      .b80b92ec-ce1e-4bf0-99bd-e5c598924086 {
        fill: #d0c3c9;
      }

      .b08f8ff4-7dea-404b-9132-0c81e76eac9a {
        fill: #5e565b;
      }

      .b503e32b-36ab-451a-84e0-7ae13b7c426a {
        fill: #3a3437;
      }

      .a94ec72f-db4f-4386-b520-86103f16030c {
        fill: #f4e4ea;
      }

      .b110da82-a22f-4c5f-ae05-13f0f480f40d, .e7bf0d82-b894-4d15-8862-e1b9cb004e21 {
        fill: #d8cacf;
      }

      .a6536b06-550a-4a4b-9db8-dd751cf82827, .a73b72ee-edef-4e93-8fcd-8259d7eac936, .b110da82-a22f-4c5f-ae05-13f0f480f40d, .be4ff9d2-19a8-4148-a952-7fcece315d7f {
        mix-blend-mode: screen;
      }

      .ac161db5-3a30-46d5-ab95-73dbc62fb905 {
        fill: #cec0c7;
      }

      .a7df9fec-1b78-409e-b5eb-98536c7f9150 {
        fill: #857e82;
      }

      .b82d9012-b354-4930-ad24-fe803e06592d {
        fill: #dbcdd3;
      }

      .a6536b06-550a-4a4b-9db8-dd751cf82827, .bd256a00-c8bb-4e78-912a-a87061373e4a, .e7ffe368-aa07-4b08-8cb2-3d758c1bc8e8 {
        fill: #f8e8ed;
      }

      .a6536b06-550a-4a4b-9db8-dd751cf82827, .ba72a89c-3128-42f0-8ccf-d5a180fc26b9 {
        opacity: 0.55;
      }

      .a36e52fa-2287-4261-80ab-24ea0ad812dd, .bd256a00-c8bb-4e78-912a-a87061373e4a {
        opacity: 0.42;
      }

      .a36e52fa-2287-4261-80ab-24ea0ad812dd, .b5bc6a01-b9cc-4375-833a-d34b72e419fb {
        fill: #e5d6dc;
      }

      .ba72a89c-3128-42f0-8ccf-d5a180fc26b9 {
        fill: #ebdce1;
      }

      .ed88a903-335c-48fe-a20a-4dc930e37911 {
        fill: #cacde2;
      }

      .a73b72ee-edef-4e93-8fcd-8259d7eac936 {
        opacity: 0.41;
      }

      .aa80195f-dc56-49f4-89f3-705b4f65a295 {
        fill: #ffeff5;
      }

      .e031efa6-0694-495e-b87a-f54066d3bd5a {
        fill: #fff;
        opacity: 0.29;
      }

      .b3ec3908-9fd3-4839-9844-d4625a965af8 {
        fill: #365c6c;
      }

      .be4ff9d2-19a8-4148-a952-7fcece315d7f, .e0587baf-c517-4713-a137-7d55e9f299a7, .ef72d1fa-e341-4066-b6cd-a35ef2e0b3d0 {
        fill: #006a97;
      }

      .b9cc0e8c-217e-464c-9e9c-0b7f4dfbd3b2 {
        fill: #c8ddf0;
      }
    </style>
  </defs>
  <g class="ba432f6e-f994-4bc0-8768-d1d944f3a12c">
    <g id="e21658c7-081d-489a-857c-8c9970dc9653" data-name="Layer 1">
      <g>
        <path class="bb586f79-114c-40d1-af64-f9ad55d4f263" d="M189.45,80.32c-2.17.52-4.74-2.34-5.74-6.39s0-7.75,2.15-8.28A41.81,41.81,0,0,1,196.35,61c1.51-.42,6.16-1.12,6.16-1.12,2.35-.56,5.26,3,6.49,8s.31,9.54-2,10.1c0,0-4.41,1.56-5.93,1.86A47.71,47.71,0,0,1,189.45,80.32Z"/>
        <path class="b5459283-718d-41ea-8f29-ebec3a570bd6" d="M199.55,73.78c3.53-.85,6.89-1.79,9.95-2.79.27,3.66-.69,6.55-2.54,7,0,0-4.41,1.56-5.93,1.86a47.71,47.71,0,0,1-11.58.48c-1.69.41-3.62-1.23-4.86-3.88A122.37,122.37,0,0,0,199.55,73.78Z"/>
        <path class="b480a570-7986-4748-a059-a3cfbe3ab2a2" d="M194.07,81.55c-2.84.68-6.19-3-7.48-8.32s0-10.1,2.8-10.78a54.16,54.16,0,0,1,13.67-6.13c1.95-.55,8-1.47,8-1.47,3.07-.73,6.85,4,8.45,10.5s.41,12.42-2.66,13.15c0,0-5.73,2-7.72,2.42A62.11,62.11,0,0,1,194.07,81.55Z"/>
        <path class="a1463c26-f999-4f6f-b757-7766ece6f9de" d="M216.87,78.5s-3.75,1.34-6.23,2c-3.53-.83-6.41-6.6-7.56-11.27s-.66-11,1.49-13.31c2.55-.52,6.51-1.12,6.51-1.12,3.07-.73,6.85,4,8.45,10.5S219.94,77.77,216.87,78.5Z"/>
        <path class="b80b92ec-ce1e-4bf0-99bd-e5c598924086" d="M216.45,59.23s-8.27,1.45-11,2.17a99.17,99.17,0,0,0-19,7.41,3,3,0,0,0-.4.11c.06-3.38,1.28-6,3.31-6.47a54.16,54.16,0,0,1,13.67-6.13c1.95-.55,8-1.47,8-1.47,1.95-.46,4.19,1.27,6,4.28A6,6,0,0,0,216.45,59.23Z"/>
        <path class="b80b92ec-ce1e-4bf0-99bd-e5c598924086" d="M191.4,77.42a79.41,79.41,0,0,0,17.07-1.1c2.26-.45,8.81-2.68,8.81-2.68a4.63,4.63,0,0,0,3-2.7c0,4-1.22,7-3.37,7.56,0,0-5.73,2-7.72,2.42a62.11,62.11,0,0,1-15.08.63c-2.18.52-4.66-1.55-6.28-4.94A4.53,4.53,0,0,0,191.4,77.42Z"/>
        <path class="b08f8ff4-7dea-404b-9132-0c81e76eac9a" d="M216.74,78c2.73-.65,3.76-6.37,2.26-12.49s-5.07-10.75-7.79-10.1-3.76,6.38-2.26,12.5S214,78.63,216.74,78Z"/>
        <path class="b503e32b-36ab-451a-84e0-7ae13b7c426a" d="M216.1,66.17c-1.29-5.25-4-9.32-6.6-10.33a3.15,3.15,0,0,1,1.58-1c3.07-.73,6.85,4,8.45,10.5s.41,12.42-2.66,13.15a3,3,0,0,1-1.86-.17C216.86,76.26,217.38,71.43,216.1,66.17Z"/>
        <path class="a94ec72f-db4f-4386-b520-86103f16030c" d="M215.94,66.3c.4,1.6-2.38,3.64-6.22,4.6a18.58,18.58,0,0,1-.79-2.49A20.52,20.52,0,0,1,208.4,65C212.21,64.15,215.56,64.72,215.94,66.3Z"/>
        <path class="b110da82-a22f-4c5f-ae05-13f0f480f40d" d="M213.05,65.8c0,.21.15.38.71.35s1.33-.23,1.32-.45-.8-.35-1.36-.32S213,65.59,213.05,65.8Z"/>
        <path class="e7bf0d82-b894-4d15-8862-e1b9cb004e21" d="M209.21,69.44c3-.74,5.56-2,6.71-3.22a.31.31,0,0,1,0,.08c.4,1.6-2.38,3.64-6.22,4.6C209.53,70.44,209.37,69.94,209.21,69.44Z"/>
        <path class="ac161db5-3a30-46d5-ab95-73dbc62fb905" d="M208.42,68c1.6,6.53,5.38,11.23,8.45,10.49s4.26-6.62,2.66-13.15-5.38-11.23-8.45-10.5S206.82,61.48,208.42,68Zm2.92-12.1c2.12-.5,5.57,3.35,7.12,9.7s.28,11.33-1.84,11.83-5.58-3.34-7.13-9.69S209.21,56.42,211.34,55.91Z"/>
        <path class="a7df9fec-1b78-409e-b5eb-98536c7f9150" d="M187.05,63.15c.41,1.7,4.49.27,10.24-2,5.35-2.12,9.91-3.38,9.5-5.08s-2-4.23-7.64-2.89c-3.44.82-7.91,1.61-10.59,3.1C186.87,57.2,186.89,62.49,187.05,63.15Z"/>
        <path class="b82d9012-b354-4930-ad24-fe803e06592d" d="M200.51,59.92c0-2.06,2.09-4.28,5.32-5.7a4.36,4.36,0,0,1,.92,1.69,1.24,1.24,0,0,0,0,.16C207.11,57.41,204.33,58.48,200.51,59.92Z"/>
        <path class="e7ffe368-aa07-4b08-8cb2-3d758c1bc8e8" d="M208,78.61c-1.27,2.12-5.42,6.85-9.76,8s-22.57,4.21-35,4.39a178.75,178.75,0,0,0-20.9,1.18s6.37-9,8.31-12.17,20-64.89,20-64.89,7.13-7.36,12.38-10.61c1.24-.79,6.88-3.37,7.59-2.72s13.2,62.81,17.48,73.41A3.65,3.65,0,0,1,208,78.61Z"/>
        <path class="a6536b06-550a-4a4b-9db8-dd751cf82827" d="M178.81,9.92c1.41-.9,8.37-5.87,9.07-5.17s7.41,69.12,10.77,80.8a3,3,0,0,1,.18.92C203,85,206.77,80.63,208,78.61a3.65,3.65,0,0,0,.18-3.36c-4.28-10.6-16.82-72.82-17.48-73.41s-6.35,1.93-7.59,2.72c-5.25,3.25-12.38,10.61-12.38,10.61l-.45,1.57A74,74,0,0,1,178.81,9.92Z"/>
        <path class="bd256a00-c8bb-4e78-912a-a87061373e4a" d="M150.66,80.06c-1.94,3.15-8.31,12.17-8.31,12.17s4.9-.64,12.28-1c11.64-6.14,28.36-59.06,26-85a108.48,108.48,0,0,0-9.89,8.86S152.58,76.91,150.66,80.06Z"/>
        <path class="a36e52fa-2287-4261-80ab-24ea0ad812dd" d="M170.7,15.17s-17.3,58.61-19.85,64.5l5.17-2S164,61,166.59,50.64c2.77-10.65,7.06-34.25,8-39.14C172.31,13.55,170.7,15.17,170.7,15.17Z"/>
        <path class="a36e52fa-2287-4261-80ab-24ea0ad812dd" d="M171.89,15.3c-.64.56-1.29,1.15-1.65,1.48l-.06.21c.62-.53,2-1.73,3.69-3.25-.91,4.86-4.75,26-7.55,36.66-2.63,10.35-10.66,27.13-10.66,27.13L151,79.29l-.16.38,5.17-2S164,61,166.59,50.64c2.51-9.66,6.22-29.86,7.62-37.3C173.82,13.67,172.67,14.61,171.89,15.3Z"/>
        <path class="ba72a89c-3128-42f0-8ccf-d5a180fc26b9" d="M182.36,5.62c1.25-.79,7-3.39,7.68-2.75s13,62.71,17.29,73.28a3.63,3.63,0,0,1-.2,3.36A19,19,0,0,1,205,82.26,21.09,21.09,0,0,0,208,78.61a3.65,3.65,0,0,0,.18-3.36c-4.28-10.6-16.82-72.82-17.48-73.41s-6.35,1.93-7.59,2.72c-5.25,3.25-12.38,10.61-12.38,10.61s0,.12-.1.36C172.63,13.56,178.09,8.26,182.36,5.62Z"/>
        <path class="bb586f79-114c-40d1-af64-f9ad55d4f263" d="M157.91,174.87c-2.21.36-4.55-2.69-5.23-6.81s.58-7.73,2.79-8.09a41.85,41.85,0,0,1,10.83-3.88c1.53-.31,6.22-.66,6.22-.66,2.4-.38,5,3.44,5.85,8.53s-.43,9.53-2.83,9.91c0,0-4.51,1.23-6,1.4A47.5,47.5,0,0,1,157.91,174.87Z"/>
        <path class="b5459283-718d-41ea-8f29-ebec3a570bd6" d="M168.48,169.12c3.59-.57,7-1.26,10.14-2,0,3.66-1.2,6.47-3.08,6.77,0,0-4.51,1.23-6,1.4a47.5,47.5,0,0,1-11.58-.4c-1.72.28-3.51-1.5-4.54-4.24A121,121,0,0,0,168.48,169.12Z"/>
        <path class="b480a570-7986-4748-a059-a3cfbe3ab2a2" d="M162.42,176.45c-2.89.46-5.94-3.51-6.82-8.87s.75-10.07,3.64-10.54A54.31,54.31,0,0,1,173.35,152c2-.4,8.1-.85,8.1-.85,3.12-.5,6.53,4.47,7.62,11.11s-.57,12.41-3.69,12.91c0,0-5.87,1.6-7.88,1.82A61.92,61.92,0,0,1,162.42,176.45Z"/>
        <path class="a1463c26-f999-4f6f-b757-7766ece6f9de" d="M185.38,175.15s-3.84,1-6.37,1.56c-3.45-1.09-5.88-7.07-6.66-11.8s.2-11,2.53-13.16c2.59-.33,6.57-.62,6.57-.62,3.12-.5,6.53,4.47,7.62,11.11S188.5,174.65,185.38,175.15Z"/>
        <path class="b80b92ec-ce1e-4bf0-99bd-e5c598924086" d="M186.47,155.9s-8.36.81-11.1,1.33a99,99,0,0,0-19.53,5.93l-.41.09c.33-3.37,1.74-5.88,3.81-6.21A54.31,54.31,0,0,1,173.35,152c2-.4,8.1-.85,8.1-.85,2-.32,4.09,1.58,5.63,4.72A4.18,4.18,0,0,0,186.47,155.9Z"/>
        <path class="b80b92ec-ce1e-4bf0-99bd-e5c598924086" d="M160.07,172.13a79,79,0,0,0,17.11.2c2.29-.27,9-2,9-2a4.68,4.68,0,0,0,3.17-2.47c-.31,4-1.77,6.94-4,7.29,0,0-5.87,1.6-7.88,1.82a61.92,61.92,0,0,1-15.08-.52c-2.22.36-4.53-1.91-5.88-5.4A4.57,4.57,0,0,0,160.07,172.13Z"/>
        <path class="b08f8ff4-7dea-404b-9132-0c81e76eac9a" d="M185.3,174.61c2.77-.44,4.24-6.07,3.22-12.29s-4.21-11.1-7-10.65-4.24,6.06-3.22,12.28S182.53,175.06,185.3,174.61Z"/>
        <path class="b503e32b-36ab-451a-84e0-7ae13b7c426a" d="M185.58,162.79c-.88-5.33-3.25-9.59-5.77-10.8a3.12,3.12,0,0,1,1.64-.86c3.12-.5,6.53,4.47,7.62,11.11s-.57,12.41-3.69,12.91a3.15,3.15,0,0,1-1.83-.31C185.55,172.91,186.45,168.13,185.58,162.79Z"/>
        <path class="a94ec72f-db4f-4386-b520-86103f16030c" d="M185.41,162.91c.27,1.63-2.66,3.45-6.56,4.12a18.26,18.26,0,0,1-.59-2.55A18.75,18.75,0,0,1,178,161C181.86,160.49,185.15,161.31,185.41,162.91Z"/>
        <path class="b110da82-a22f-4c5f-ae05-13f0f480f40d" d="M182.57,162.19c0,.22.11.39.67.41s1.35-.14,1.36-.35-.78-.41-1.33-.42S182.58,162,182.57,162.19Z"/>
        <path class="e7bf0d82-b894-4d15-8862-e1b9cb004e21" d="M178.46,165.53c3.1-.5,5.69-1.56,6.93-2.7a.24.24,0,0,1,0,.08c.27,1.63-2.66,3.45-6.56,4.12Q178.63,166.3,178.46,165.53Z"/>
        <path class="ac161db5-3a30-46d5-ab95-73dbc62fb905" d="M177.78,164c1.08,6.63,4.49,11.6,7.6,11.11s4.77-6.28,3.69-12.91-4.5-11.61-7.62-11.11S176.69,157.41,177.78,164Zm1.08-.17c-1.05-6.45.61-11.32,2.77-11.67s5.3,3.76,6.35,10.21-.61,11.32-2.77,11.67S179.92,170.31,178.86,163.87Z"/>
        <path class="a7df9fec-1b78-409e-b5eb-98536c7f9150" d="M156.85,157.57c.28,1.72,4.46.61,10.38-1.22,5.49-1.7,10.14-2.61,9.85-4.34s-1.7-4.37-7.39-3.46c-3.49.56-8,1-10.8,2.28C157.14,151.63,156.74,156.9,156.85,157.57Z"/>
        <path class="b82d9012-b354-4930-ad24-fe803e06592d" d="M170.53,155.37c.12-2.06,2.41-4.1,5.74-5.27a4.21,4.21,0,0,1,.78,1.75l0,.16C177.31,153.38,174.45,154.23,170.53,155.37Z"/>
        <path class="b480a570-7986-4748-a059-a3cfbe3ab2a2" d="M23.19,131.36c1.65,10.09,51.66,19,156.79,5.33,57-7.44,100.58-25.18,98.81-36-2-12-28.77-9.56-31.92-20.76-3.63-12.94-38.12-8.54-76.58-2.4C113.58,86.55,19.66,109.77,23.19,131.36Z"/>
        <path class="ed88a903-335c-48fe-a20a-4dc930e37911" d="M85.94,96.14c25.63,13.78,82.66,17.28,146.92,7,14.56-2.33,28.54-5.21,41.69-8.52a9.06,9.06,0,0,1,4.24,6c1.77,10.86-41.85,28.6-98.81,36C74.85,150.4,24.84,141.45,23.19,131.36,21.2,119.19,50.15,106.51,85.94,96.14Z"/>
        <path class="ed88a903-335c-48fe-a20a-4dc930e37911" d="M276.42,96.16a8.2,8.2,0,0,1,2.37,4.49c1.77,10.86-41.85,28.6-98.81,36C74.85,150.4,24.84,141.45,23.19,131.36a8.12,8.12,0,0,1,.75-4.79c23.58,5,74.68,6,156.05-4.85C222.62,116.05,258.52,105.64,276.42,96.16Z"/>
        <path class="a73b72ee-edef-4e93-8fcd-8259d7eac936" d="M274.57,107.6c14-15.11-28.76-9.56-31.91-20.77-3.63-12.94-38.12-8.54-76.58-2.4C117.62,92.18,42,110.26,23.21,128.83,26.93,108,115.79,86.2,170.29,77.49c38.46-6.14,73-10.54,76.58,2.4,3.15,11.2,29.95,8.75,31.92,20.76.35,2.19-1.13,4.65-4.18,7.25C274.6,107.8,274.51,107.67,274.57,107.6Z"/>
        <path class="e7ffe368-aa07-4b08-8cb2-3d758c1bc8e8" d="M81.56,100s-10.09-.37-15.49-4.79S24.82,55.62,22.12,55.39s-14,.25-14,.25S32.56,115.13,33,117.7,81.56,100,81.56,100Z"/>
        <path class="aa80195f-dc56-49f4-89f3-705b4f65a295" d="M81.56,100a49.48,49.48,0,0,1-9-2.73,20.82,20.82,0,0,1-3.94-2.1A17.94,17.94,0,0,1,67,93.88l-1.64-1.62C61,87.77,56.47,83.32,51.92,79s-9.28-8.59-14.16-12.63c-2.43-2-4.93-4-7.47-5.92-1.3-.93-2.58-1.87-3.92-2.76a16.52,16.52,0,0,0-4.25-2.26,7.61,7.61,0,0,1,1.79,1.52l1.63,1.7,3.24,3.45,6.53,6.85c4.37,4.54,8.88,9,13.44,13.32S58,90.82,62.94,94.85l1.92,1.51a13.69,13.69,0,0,0,2.24,1.39,22,22,0,0,0,4.77,1.66A31.41,31.41,0,0,0,81.56,100Z"/>
        <path class="e031efa6-0694-495e-b87a-f54066d3bd5a" d="M180.85,129.94c44.38-5.88,81.32-17.09,97.67-27-4,10.92-45.5,26.79-98.54,33.71-97.07,12.66-147.15,6-155.55-3C46.09,139.35,97.21,141,180.85,129.94Z"/>
        <path class="b3ec3908-9fd3-4839-9844-d4625a965af8" d="M246.09,78.06c.33.57.49,1.22.78,1.83a13.08,13.08,0,0,0,6.36,6.44c-6.91,6.18-28.31,9.89-28.31,9.89l-4.46-7.29,11.31-3.37C240,83.13,244.31,79.74,246.09,78.06Z"/>
        <path class="a36e52fa-2287-4261-80ab-24ea0ad812dd" d="M44.24,114.81c-6.43,2.3-11.12,3.69-11.25,2.89-.43-2.57-24.87-62.06-24.87-62.06s2.11-.09,4.72-.17C16.91,62.78,37.25,99.47,44.24,114.81Z"/>
        <polygon class="b480a570-7986-4748-a059-a3cfbe3ab2a2" points="234.63 97.16 236.12 96.31 229.52 85.04 228.03 85.89 234.63 97.16"/>
        <path class="e0587baf-c517-4713-a137-7d55e9f299a7" d="M199,100a3.05,3.05,0,1,0,2.53-3.46A3,3,0,0,0,199,100Z"/>
        <path class="be4ff9d2-19a8-4148-a952-7fcece315d7f" d="M201.29,98.34a3.53,3.53,0,0,0-2.36,1.51,3.05,3.05,0,1,1,6,.29A3.52,3.52,0,0,0,201.29,98.34Z"/>
        <path class="ef72d1fa-e341-4066-b6cd-a35ef2e0b3d0" d="M204.86,99.3a3.07,3.07,0,0,0-5.76-.85A3.06,3.06,0,0,1,205,99a2.93,2.93,0,0,1-.27,1.81A3,3,0,0,0,204.86,99.3Z"/>
        <path class="e0587baf-c517-4713-a137-7d55e9f299a7" d="M186.48,102A3.06,3.06,0,1,0,189,98.51,3.05,3.05,0,0,0,186.48,102Z"/>
        <path class="be4ff9d2-19a8-4148-a952-7fcece315d7f" d="M188.83,100.34a3.5,3.5,0,0,0-2.37,1.5,3.06,3.06,0,0,1,6.06-.83,3,3,0,0,1,0,1.12A3.51,3.51,0,0,0,188.83,100.34Z"/>
        <path class="ef72d1fa-e341-4066-b6cd-a35ef2e0b3d0" d="M192.39,101.29a3.06,3.06,0,0,0-3.5-2.5,3.09,3.09,0,0,0-2.26,1.66,3.07,3.07,0,0,1,5.89.56,3,3,0,0,1-.28,1.81A2.91,2.91,0,0,0,192.39,101.29Z"/>
        <path class="e0587baf-c517-4713-a137-7d55e9f299a7" d="M174,104a3,3,0,0,0,3.5,2.5A3,3,0,1,0,174,104Z"/>
        <path class="be4ff9d2-19a8-4148-a952-7fcece315d7f" d="M176.36,102.33a3.52,3.52,0,0,0-2.36,1.5,3.06,3.06,0,0,1,6.05-.83,2.8,2.8,0,0,1,0,1.12A3.49,3.49,0,0,0,176.36,102.33Z"/>
        <path class="ef72d1fa-e341-4066-b6cd-a35ef2e0b3d0" d="M179.93,103.28a3.06,3.06,0,0,0-5.76-.84,3.07,3.07,0,0,1,5.88.56,2.93,2.93,0,0,1-.27,1.81A2.91,2.91,0,0,0,179.93,103.28Z"/>
        <path class="e0587baf-c517-4713-a137-7d55e9f299a7" d="M161.56,106a3.05,3.05,0,1,0,2.53-3.46A3,3,0,0,0,161.56,106Z"/>
        <path class="be4ff9d2-19a8-4148-a952-7fcece315d7f" d="M163.9,104.32a3.52,3.52,0,0,0-2.36,1.5,3.06,3.06,0,0,1,6.05-.83,3,3,0,0,1,0,1.12A3.5,3.5,0,0,0,163.9,104.32Z"/>
        <path class="ef72d1fa-e341-4066-b6cd-a35ef2e0b3d0" d="M167.46,105.27a3.06,3.06,0,0,0-5.75-.84,3.07,3.07,0,0,1,5.88.56,2.93,2.93,0,0,1-.27,1.81A2.91,2.91,0,0,0,167.46,105.27Z"/>
        <path class="e0587baf-c517-4713-a137-7d55e9f299a7" d="M149.09,108a3.05,3.05,0,1,0,2.53-3.46A3,3,0,0,0,149.09,108Z"/>
        <path class="be4ff9d2-19a8-4148-a952-7fcece315d7f" d="M151.43,106.31a3.52,3.52,0,0,0-2.36,1.5,3.06,3.06,0,0,1,6.05-.83,2.86,2.86,0,0,1,0,1.13A3.54,3.54,0,0,0,151.43,106.31Z"/>
        <path class="ef72d1fa-e341-4066-b6cd-a35ef2e0b3d0" d="M155,107.26a3.07,3.07,0,0,0-5.76-.84,3.07,3.07,0,0,1,5.88.56,3,3,0,0,1-.27,1.82A3,3,0,0,0,155,107.26Z"/>
        <path class="e0587baf-c517-4713-a137-7d55e9f299a7" d="M136.63,109.94a3.05,3.05,0,1,0,2.53-3.46A3,3,0,0,0,136.63,109.94Z"/>
        <path class="be4ff9d2-19a8-4148-a952-7fcece315d7f" d="M139,108.3a3.52,3.52,0,0,0-2.36,1.5,3.06,3.06,0,0,1,6-.83,2.85,2.85,0,0,1,0,1.13A3.51,3.51,0,0,0,139,108.3Z"/>
        <path class="ef72d1fa-e341-4066-b6cd-a35ef2e0b3d0" d="M142.54,109.26a3.07,3.07,0,0,0-5.76-.85,3.07,3.07,0,0,1,5.88.56,3,3,0,0,1-.27,1.82A2.92,2.92,0,0,0,142.54,109.26Z"/>
        <path class="e0587baf-c517-4713-a137-7d55e9f299a7" d="M124.16,111.93a3.06,3.06,0,1,0,2.53-3.46A3,3,0,0,0,124.16,111.93Z"/>
        <path class="be4ff9d2-19a8-4148-a952-7fcece315d7f" d="M126.51,110.29a3.54,3.54,0,0,0-2.37,1.5,3.06,3.06,0,1,1,6,.3A3.53,3.53,0,0,0,126.51,110.29Z"/>
        <path class="ef72d1fa-e341-4066-b6cd-a35ef2e0b3d0" d="M130.07,111.25a3.07,3.07,0,0,0-5.76-.85,3.07,3.07,0,0,1,5.89.57,3,3,0,0,1-.28,1.81A2.92,2.92,0,0,0,130.07,111.25Z"/>
        <path class="e0587baf-c517-4713-a137-7d55e9f299a7" d="M111.7,113.92a3.05,3.05,0,0,0,3.5,2.5,3,3,0,1,0-3.5-2.5Z"/>
        <path class="be4ff9d2-19a8-4148-a952-7fcece315d7f" d="M114.05,112.28a3.52,3.52,0,0,0-2.37,1.5,3.05,3.05,0,0,1,6-.82,2.81,2.81,0,0,1,0,1.12A3.51,3.51,0,0,0,114.05,112.28Z"/>
        <path class="ef72d1fa-e341-4066-b6cd-a35ef2e0b3d0" d="M117.61,113.24a3.07,3.07,0,0,0-5.76-.85,3.06,3.06,0,0,1,5.88.57,2.93,2.93,0,0,1-.27,1.81A2.92,2.92,0,0,0,117.61,113.24Z"/>
        <path class="e0587baf-c517-4713-a137-7d55e9f299a7" d="M99.24,115.91a3.05,3.05,0,1,0,2.52-3.46A3,3,0,0,0,99.24,115.91Z"/>
        <path class="be4ff9d2-19a8-4148-a952-7fcece315d7f" d="M101.58,114.27a3.5,3.5,0,0,0-2.36,1.51,3,3,0,0,1,2.54-3.33,3.06,3.06,0,0,1,3.51,2.5,3,3,0,0,1,0,1.12A3.53,3.53,0,0,0,101.58,114.27Z"/>
        <path class="ef72d1fa-e341-4066-b6cd-a35ef2e0b3d0" d="M105.15,115.23a3.07,3.07,0,0,0-5.76-.85,3.06,3.06,0,0,1,5.88.57,2.93,2.93,0,0,1-.28,1.81A3,3,0,0,0,105.15,115.23Z"/>
        <path class="e0587baf-c517-4713-a137-7d55e9f299a7" d="M87.53,133.8a1.9,1.9,0,0,0,2.19,1.56l6.17-1a1.89,1.89,0,0,0,1.58-2.16s-.79-3.68-1.41-7.43c-.21-1.23-.59-4.76-.59-4.76a1.9,1.9,0,0,0-2.18-1.57l-6.18,1a1.89,1.89,0,0,0-1.58,2.16s.4,3.48.57,4.7C86.56,129.67,87.53,133.8,87.53,133.8Z"/>
        <path class="b9cc0e8c-217e-464c-9e9c-0b7f4dfbd3b2" d="M87,133.93s-1-4.2-1.44-7.55c-.16-1.21-.56-4.68-.56-4.68h0a2.46,2.46,0,0,1,2-2.81l6.17-1A2.49,2.49,0,0,1,96,120s.38,3.53.58,4.73c.61,3.69,1.4,7.36,1.41,7.43a2.46,2.46,0,0,1-2,2.81l-6.17,1A2.47,2.47,0,0,1,87,133.93ZM87.2,120a1.33,1.33,0,0,0-1.1,1.54s.4,3.47.57,4.68c.45,3.3,1.41,7.4,1.42,7.48a1.35,1.35,0,0,0,1.54,1.1l6.17-1a1.32,1.32,0,0,0,1.11-1.48s-.8-3.73-1.42-7.45c-.21-1.24-.57-4.66-.58-4.77a1.35,1.35,0,0,0-1.53-1.1Z"/>
        <path class="e7ffe368-aa07-4b08-8cb2-3d758c1bc8e8" d="M207.12,124.05c.5-2.13-.23-6.37-5.22-6.13s-28.23,3.89-46.74,8.63-30.56,6.84-30.56,6.84-4.39,8.13-6.27,11-67.17,60.94-67.17,60.94a31.39,31.39,0,0,0,13.59,6.22c2,.37,12.58,1.15,15.2.34,2.4-.72,104.58-69.54,123.65-83.81C205.45,126.73,206.87,125.1,207.12,124.05Z"/>
        <path class="a6536b06-550a-4a4b-9db8-dd751cf82827" d="M62.24,207.82c2.05.43,12,3,14.65,2.18,2.45-.78,104.92-75.28,124.32-90.86a16.28,16.28,0,0,0,1.37-1.22c4.37.15,5,4.1,4.54,6.13-.25,1-1.67,2.68-3.52,4C184.53,142.37,82.35,211.19,80,211.91c-2.62.81-13.21,0-15.2-.34a31.39,31.39,0,0,1-13.59-6.22L52.68,204A31.17,31.17,0,0,0,62.24,207.82Z"/>
        <path class="bd256a00-c8bb-4e78-912a-a87061373e4a" d="M118.33,144.41c1.88-2.89,6.27-11,6.27-11s6.64-1.16,17.64-3.69c9,2.78-38,55.06-81.08,81a31.11,31.11,0,0,1-10-5.32S116.46,147.31,118.33,144.41Z"/>
        <path class="a36e52fa-2287-4261-80ab-24ea0ad812dd" d="M51.16,205.35s61.64-54.8,66.86-60.56l5.45.3s-12.53,15.84-24,26S60,203.27,54.45,207.63A26,26,0,0,1,51.16,205.35Z"/>
        <path class="a36e52fa-2287-4261-80ab-24ea0ad812dd" d="M54.18,204.86c-.6-.34-1.16-.7-1.46-.9l.21-.18c.59.31,1.9,1,3.44,1.94,5.58-4.35,30.87-24.07,42.26-34.24s24-26,24-26l-4.92-.27.36-.38,5.45.3s-12.53,15.84-24,26c-10.33,9.23-34.44,28.18-43,34.85C56.11,205.81,54.91,205.27,54.18,204.86Z"/>
        <path class="ba72a89c-3128-42f0-8ccf-d5a180fc26b9" d="M64.5,210.79c2,.37,12.58,1.15,15.21.35,2.39-.73,104.58-69.55,123.65-83.82,1.84-1.37,3.26-3,3.51-4a5.76,5.76,0,0,0,0-2.58,5.86,5.86,0,0,1,.27,3.36c-.25,1-1.67,2.68-3.52,4C184.53,142.37,82.35,211.19,80,211.91c-2.62.81-13.21,0-15.2-.34a31.39,31.39,0,0,1-13.59-6.22l.35-.31A31.74,31.74,0,0,0,64.5,210.79Z"/>
        <path class="b5bc6a01-b9cc-4375-833a-d34b72e419fb" d="M12.84,55.47Q16.65,63,20.57,70.38L28.45,85.2l8,14.77c2.63,4.94,5.31,9.85,7.84,14.84-2.14-5.16-4.56-10.22-7.06-15.23s-5.12-10-7.72-14.91S24.11,74.83,21.34,70,15.75,60.26,12.84,55.47Z"/>
        <path class="b480a570-7986-4748-a059-a3cfbe3ab2a2" d="M245,79c.79,1.23,2.33,3.59,3,4.49s2.36,2.85,3.49,4.15c-.36.23-.74.47-1.14.7-1.13-1.31-2.73-3.17-3.41-4.07s-2.18-3.19-3-4.46C244.38,79.51,244.73,79.23,245,79Z"/>
        <path class="b480a570-7986-4748-a059-a3cfbe3ab2a2" d="M245.39,90.68l-1.27.49-6-8,1.21-.57Z"/>
        <path class="b480a570-7986-4748-a059-a3cfbe3ab2a2" d="M60.12,101.42c-1.44,2.76-9.7,11.46-16.9,18.41s-27.44,24-29.09,24.3-10.47-1.41-11-2.34,25.49-36.87,27.13-37.61A215.8,215.8,0,0,1,51.91,99c3.38-.58,5.47-1.07,6.69-.49C60.36,99.38,60.47,100.74,60.12,101.42Z"/>
        <path class="a6536b06-550a-4a4b-9db8-dd751cf82827" d="M12.15,142c1.65-.28,21.9-17.36,29.09-24.31s15.46-15.64,16.9-18.41a1.62,1.62,0,0,0,.15-.88,2.85,2.85,0,0,1,.31.12c1.76.83,1.87,2.19,1.52,2.87-1.44,2.76-9.7,11.46-16.9,18.41s-27.44,24-29.09,24.3-10.47-1.41-11-2.34c0-.08.13-.46.49-1.08C6.54,141.48,11,142.21,12.15,142Z"/>
        <path class="a36e52fa-2287-4261-80ab-24ea0ad812dd" d="M30.3,104.18c.56-.25,3.76-1.13,7.81-2.14-1.76,2.58-9.13,13.3-13.74,19.3-4.22,5.51-14,17.29-17.73,21.72-1.81-.42-3.28-.9-3.47-1.27C2.67,140.87,28.66,104.92,30.3,104.18Z"/>
        <path class="b5bc6a01-b9cc-4375-833a-d34b72e419fb" d="M38.11,102c-2.63,3.43-5.18,6.91-7.74,10.37s-5.08,7-7.78,10.29c-5.3,6.79-10.79,13.43-15.95,20.36,3-3.16,5.79-6.41,8.6-9.68s5.54-6.62,8.26-10,5.16-6.93,7.58-10.5S35.87,105.73,38.11,102Z"/>
      </g>
    </g>
  </g>
</svg>
