<svg xmlns="http://www.w3.org/2000/svg" xmlns:xlink="http://www.w3.org/1999/xlink" width="111" height="360" viewBox="0 0 111 360">
  <defs>
    <style>
      .f4e83de6-09ba-4528-916a-3595b6f4196f {
        isolation: isolate;
      }

      .a56dbf91-88f7-47f5-8527-a81fceae33a6 {
        fill: #3fc416;
      }

      .e64cedf4-5088-4d11-bd82-a725e58b1219 {
        fill: #0028ff;
      }

      .affeac23-4bb3-41e7-8b22-3309220d1be5 {
        fill: red;
      }

      .ffc00e9e-76cf-4502-b028-4073751a4bd8 {
        fill: #00a6fd;
      }

      .af8f03ef-dfe3-4911-af8f-cb7f8204ebb3 {
        fill: #fb8000;
      }

      .b9f5e83a-5a9e-48ce-93fa-c67c37fa632d {
        fill: #020fe9;
      }

      .b3b4940e-5267-4356-aa4e-8d9078139216 {
        fill: #ff9906;
        stroke: #d6380d;
        stroke-width: 0.75px;
      }

      .b3b4940e-5267-4356-aa4e-8d9078139216, .b49217ed-6d6f-4187-980c-f1de9d46cf29 {
        stroke-miterlimit: 10;
      }

      .e41dd84b-7047-4b7a-9374-118bc43ca8c5 {
        mix-blend-mode: screen;
        opacity: 0.3;
      }

      .b895fabf-8281-4c53-a706-62793e3aaa3c {
        fill: #ff7880;
      }

      .a150415f-d19c-4a7e-a8d9-8f3b9b458cf3 {
        mix-blend-mode: multiply;
        opacity: 0.5;
      }

      .b8a1c527-efb3-4575-818a-a96da6f490fa {
        fill: url(#fbc3a236-bc7f-4b84-89b6-9c0407fdd885);
      }

      .ffae6384-2452-4fa7-846b-be9a385d0f39 {
        fill: url(#acb4aa3e-da48-47ad-8ead-bdc61e61788b);
      }

      .b49217ed-6d6f-4187-980c-f1de9d46cf29 {
        fill: none;
        stroke: #2f404f;
        stroke-width: 0.5px;
      }
    </style>
    <linearGradient id="fbc3a236-bc7f-4b84-89b6-9c0407fdd885" x1="664.7" y1="-7217.42" x2="665.28" y2="-7149.36" gradientTransform="translate(-547.07 5492.72) rotate(1.23) scale(0.76)" gradientUnits="userSpaceOnUse">
      <stop offset="0" stop-color="#cc8122"/>
      <stop offset="0.32" stop-color="#9e5e16"/>
      <stop offset="0.78" stop-color="#612f06"/>
      <stop offset="1" stop-color="#491c00"/>
    </linearGradient>
    <linearGradient id="acb4aa3e-da48-47ad-8ead-bdc61e61788b" x1="626.07" y1="-7188.81" x2="703.91" y2="-7188.81" xlink:href="#fbc3a236-bc7f-4b84-89b6-9c0407fdd885"/>
  </defs>
  <g class="f4e83de6-09ba-4528-916a-3595b6f4196f">
    <g id="a5b3845c-e971-4b63-ad86-ddb48c862d06" data-name="Layer 1">
      <g>
        <g>
          <path class="a56dbf91-88f7-47f5-8527-a81fceae33a6" d="M47.43,30.88l-.12.37c-.07.23-.16.56-.25,1a5.8,5.8,0,0,0-.09.64,3.09,3.09,0,0,0,0,.68c0,.11,0,.22.07.33l.13.36a7.13,7.13,0,0,1,.26.82,5,5,0,0,1,.15.86,2.89,2.89,0,0,1,0,.88,2.32,2.32,0,0,1-.31.78,2.88,2.88,0,0,1-.47.55,4.79,4.79,0,0,1-.45.38l-.37.25-.33.22.24-.31c.15-.2.39-.46.62-.79a2.85,2.85,0,0,0,.32-.54,2.08,2.08,0,0,0,.16-.63,3.62,3.62,0,0,0,0-.73,7.37,7.37,0,0,0-.16-.76c-.06-.26-.14-.51-.22-.77s-.09-.24-.13-.41a3.47,3.47,0,0,1-.06-.45,3,3,0,0,1,.1-.81,4.79,4.79,0,0,1,.22-.67,5,5,0,0,1,.27-.52,3.67,3.67,0,0,1,.24-.38A2.21,2.21,0,0,1,47.43,30.88Z"/>
          <path class="e64cedf4-5088-4d11-bd82-a725e58b1219" d="M47.46,30.94a4.71,4.71,0,0,0-.44.34,4.55,4.55,0,0,0-.45.44,2.9,2.9,0,0,0-.46.65,2.26,2.26,0,0,0-.25.85,2,2,0,0,0,.19,1,4,4,0,0,0,.6.91l.2.21.22.22.43.45c.14.16.27.34.41.52s.23.37.35.55.18.39.27.58l.09.31a1.55,1.55,0,0,1,.07.31,2.48,2.48,0,0,1,.07.61,1.4,1.4,0,0,1,0,.29l0,.29a1.26,1.26,0,0,1,0,.28l-.07.26a3.43,3.43,0,0,1-.19.48,2.27,2.27,0,0,1-.22.41c-.08.13-.16.24-.24.35a3.27,3.27,0,0,1-.24.27,2.34,2.34,0,0,1-.23.22l-.19.16-.15.1L47,42a.07.07,0,0,1-.09,0,.06.06,0,0,1,0-.08h0l.11-.1.12-.13.15-.18a1.53,1.53,0,0,0,.17-.23,2,2,0,0,0,.19-.28,3.59,3.59,0,0,0,.17-.34,2.66,2.66,0,0,0,.16-.39c0-.14.08-.29.12-.44l0-.23a1,1,0,0,0,0-.24v-.25a1.06,1.06,0,0,0,0-.25,2.6,2.6,0,0,0,0-.26l0-.25A2.58,2.58,0,0,0,48,38.1l-.09-.26c0-.08-.09-.16-.13-.25s-.07-.17-.12-.25-.2-.33-.32-.48-.22-.3-.36-.45L46.58,36l-.22-.22-.21-.24a4,4,0,0,1-.67-1.1,2.38,2.38,0,0,1-.15-1.23,2.55,2.55,0,0,1,.14-.56,3.42,3.42,0,0,1,.26-.46,3.28,3.28,0,0,1,.59-.67,4.44,4.44,0,0,1,.55-.39c.16-.1.3-.16.39-.21l.14-.06a.06.06,0,0,1,.08,0S47.48,30.92,47.46,30.94Z"/>
          <path class="affeac23-4bb3-41e7-8b22-3309220d1be5" d="M47.46,30.94l-.09.08a2,2,0,0,0-.23.28,2,2,0,0,0-.31,1.19,3.25,3.25,0,0,0,.15.82,6.39,6.39,0,0,0,.37.88,5.06,5.06,0,0,0,.26.44l.29.46a4,4,0,0,1,.5,1.09,3,3,0,0,1,.12,1.22,2.89,2.89,0,0,1-.37,1.14,3.69,3.69,0,0,1-.68.86,4.36,4.36,0,0,1-.77.57,4.47,4.47,0,0,1-1.3.56,2.5,2.5,0,0,1-.53.08h0a.09.09,0,0,1-.06-.07.06.06,0,0,1,.05-.06l.13,0a2.72,2.72,0,0,0,.34-.13,6.12,6.12,0,0,0,1.13-.69,5.74,5.74,0,0,0,.63-.59,3.4,3.4,0,0,0,.53-.77,2.63,2.63,0,0,0,.26-.92,2.78,2.78,0,0,0-.12-1,3.7,3.7,0,0,0-.42-.93,9.35,9.35,0,0,1-.54-1,4.81,4.81,0,0,1-.34-1,2.93,2.93,0,0,1-.07-1,2.19,2.19,0,0,1,.21-.8,2,2,0,0,1,.36-.52,1.51,1.51,0,0,1,.32-.26l.12-.07s.08,0,.09,0A.05.05,0,0,1,47.46,30.94Z"/>
          <g>
            <path class="a56dbf91-88f7-47f5-8527-a81fceae33a6" d="M105.75,32.11s.09.11.23.32.14.23.22.39a3.79,3.79,0,0,1,.24.53,4.18,4.18,0,0,1,.2.68,3.08,3.08,0,0,1,.06.82,2.41,2.41,0,0,1-.08.44c-.05.17-.1.28-.14.41s-.19.5-.26.75a7.67,7.67,0,0,0-.19.76,3.59,3.59,0,0,0,0,.72,2.27,2.27,0,0,0,.13.65,3.6,3.6,0,0,0,.29.55c.22.33.45.61.59.81a3.75,3.75,0,0,1,.22.32l-.32-.23-.35-.27a4.94,4.94,0,0,1-.44-.39,3,3,0,0,1-.44-.58,2.56,2.56,0,0,1-.28-.79,3.24,3.24,0,0,1,0-.88,6.28,6.28,0,0,1,.19-.86,7.64,7.64,0,0,1,.29-.8l.15-.36a1.67,1.67,0,0,0,.08-.32,2.61,2.61,0,0,0,0-.68,6.06,6.06,0,0,0-.06-.64c-.07-.4-.15-.74-.21-1Z"/>
            <path class="ffc00e9e-76cf-4502-b028-4073751a4bd8" d="M105.78,32.05l.14.07c.09.05.22.12.37.22a5.05,5.05,0,0,1,.54.42,3.43,3.43,0,0,1,.57.69,2.68,2.68,0,0,1,.23.48,2,2,0,0,1,.12.56,2.38,2.38,0,0,1-.21,1.22,4,4,0,0,1-.71,1.07,2.5,2.5,0,0,1-.23.23l-.22.22-.44.43c-.14.14-.25.29-.38.43a5.09,5.09,0,0,0-.34.47c0,.08-.09.16-.13.24a2,2,0,0,0-.14.25l-.1.25a1.25,1.25,0,0,0-.09.25,2.5,2.5,0,0,1-.07.26c0,.08,0,.17,0,.25a2.42,2.42,0,0,0,0,.25v.25a1,1,0,0,0,0,.24l0,.24c0,.15.06.3.1.44s.08.27.14.39a2.26,2.26,0,0,0,.17.35,2.75,2.75,0,0,0,.17.29,1.43,1.43,0,0,0,.16.24l.14.19.12.13.1.1h0a.06.06,0,0,1,0,.09.1.1,0,0,1-.09,0l-.12-.1-.15-.11-.18-.16-.22-.23a1.69,1.69,0,0,1-.22-.29,1.77,1.77,0,0,1-.23-.35,2.35,2.35,0,0,1-.21-.42c-.07-.15-.11-.32-.17-.48l0-.27a2.4,2.4,0,0,1,0-.28,2.83,2.83,0,0,1,0-.29c0-.1,0-.2,0-.3a2.51,2.51,0,0,1,.1-.6,1.11,1.11,0,0,1,.09-.31l.1-.3a6.19,6.19,0,0,1,.3-.57,6.45,6.45,0,0,1,.37-.54c.14-.17.29-.35.43-.5l.45-.43.23-.21.2-.2a3.72,3.72,0,0,0,.64-.88,2,2,0,0,0,0-1.8,3.34,3.34,0,0,0-.42-.67,5,5,0,0,0-.44-.46,4.08,4.08,0,0,0-.42-.36.07.07,0,0,1,0-.09A.07.07,0,0,1,105.78,32.05Z"/>
            <path class="af8f03ef-dfe3-4911-af8f-cb7f8204ebb3" d="M105.79,32.06l.12.07a2.09,2.09,0,0,1,.31.27,2.19,2.19,0,0,1,.34.54,2.42,2.42,0,0,1,.17.81,3,3,0,0,1-.11,1,4.93,4.93,0,0,1-.39,1,7.79,7.79,0,0,1-.58.95,4.17,4.17,0,0,0-.46.92,2.74,2.74,0,0,0-.16,1,2.69,2.69,0,0,0,.22.93,3.74,3.74,0,0,0,.49.79,5.85,5.85,0,0,0,.61.61,6.18,6.18,0,0,0,1.09.74l.34.15.13,0a.07.07,0,0,1,0,.08.08.08,0,0,1-.07,0h0a2,2,0,0,1-.53-.1,4.78,4.78,0,0,1-1.28-.61,5,5,0,0,1-.74-.61,3.5,3.5,0,0,1-.64-.89,2.89,2.89,0,0,1-.32-1.15,3.17,3.17,0,0,1,.17-1.22,4.51,4.51,0,0,1,.55-1.07l.31-.44a5.08,5.08,0,0,0,.27-.43,6.17,6.17,0,0,0,.42-.86,3.28,3.28,0,0,0,.18-.82,2.18,2.18,0,0,0,0-.69,2,2,0,0,0-.21-.51,2.49,2.49,0,0,0-.21-.29l-.09-.08a.07.07,0,0,1,0-.1A.06.06,0,0,1,105.79,32.06Z"/>
          </g>
          <path class="ffc00e9e-76cf-4502-b028-4073751a4bd8" d="M72.07,96.42l0-.1c0-.07.06-.17.11-.29a8.55,8.55,0,0,1,.51-1.1,12.11,12.11,0,0,1,1-1.6c.43-.59,1-1.22,1.55-1.88s1.28-1.34,2-2.06a21.41,21.41,0,0,0,2-2.33A7.94,7.94,0,0,0,80,85.73a4.56,4.56,0,0,0,.24-.71,4.94,4.94,0,0,0-.53-3.74,15.18,15.18,0,0,0-1.82-2.79l-.27-.34-.28-.36c-.17-.24-.34-.48-.5-.73A13.36,13.36,0,0,1,76,75.54a12.94,12.94,0,0,1-1-3.09,14.36,14.36,0,0,1-.29-2.89,15.64,15.64,0,0,1,.22-2.43,16.76,16.76,0,0,1,.42-1.82c.15-.5.3-.88.4-1.14l.13-.29,0-.1a.12.12,0,0,1,.17-.06.13.13,0,0,1,.07.16h0l0,.1-.09.29c-.07.26-.17.65-.27,1.14a16.09,16.09,0,0,0-.25,1.79,15,15,0,0,0,0,2.34,14.38,14.38,0,0,0,.43,2.7A13.7,13.7,0,0,0,77,75.06a15.14,15.14,0,0,0,.84,1.36c.16.22.32.44.49.65l.25.32.28.33a14.78,14.78,0,0,1,2.07,3,8.24,8.24,0,0,1,.66,1.78,6.06,6.06,0,0,1,.15,1,6.41,6.41,0,0,1,0,1,7.58,7.58,0,0,1-.18,1,5.22,5.22,0,0,1-.32.89c-.13.28-.27.56-.42.82s-.33.5-.5.73a18.47,18.47,0,0,1-2.23,2.39L76,92.11c-.63.59-1.19,1.16-1.66,1.67a17.64,17.64,0,0,0-1.15,1.41c-.29.41-.5.74-.63,1l-.21.37a.13.13,0,0,1-.18,0A.12.12,0,0,1,72.07,96.42Z"/>
          <path class="af8f03ef-dfe3-4911-af8f-cb7f8204ebb3" d="M76.35,63.55l-.2.39c-.13.25-.31.63-.53,1.12s-.46,1.09-.71,1.79a22.86,22.86,0,0,0-.71,2.38,17.45,17.45,0,0,0-.46,2.86,13.54,13.54,0,0,0,0,1.57,11.08,11.08,0,0,0,.15,1.61,11.86,11.86,0,0,0,.38,1.62c.09.26.19.53.29.79l.09.21.08.19c0,.13.12.26.18.38a13.86,13.86,0,0,0,2,2.9c.79.91,1.67,1.77,2.51,2.69A18.05,18.05,0,0,1,81.62,87,12.58,12.58,0,0,1,83,90.19a15.22,15.22,0,0,1,.47,3,19.46,19.46,0,0,1,0,2.57c-.05.76-.14,1.42-.22,2q-.06.4-.12.72c0,.2-.07.38-.1.52l-.09.44a.13.13,0,0,1-.16.1.12.12,0,0,1-.1-.14h0l0-.44c0-.29,0-.71.08-1.25s0-1.18,0-1.93a20.51,20.51,0,0,0-.16-2.47A15.48,15.48,0,0,0,82,90.48a12,12,0,0,0-1.37-2.88,16.92,16.92,0,0,0-2.19-2.68c-.83-.87-1.73-1.73-2.58-2.69a17.66,17.66,0,0,1-1.2-1.51,12.16,12.16,0,0,1-1-1.67l-.21-.44-.1-.23-.08-.21c-.12-.3-.22-.6-.31-.9a12.09,12.09,0,0,1-.39-1.82,13.47,13.47,0,0,1,0-3.48,17,17,0,0,1,.68-3,19.13,19.13,0,0,1,1-2.39,17.76,17.76,0,0,1,.94-1.75c.28-.47.52-.82.69-1.06s.27-.37.27-.37a.14.14,0,0,1,.19,0A.14.14,0,0,1,76.35,63.55Z"/>
          <path class="b9f5e83a-5a9e-48ce-93fa-c67c37fa632d" d="M76.2,63.22v.11c0,.08,0,.19-.05.34a7.13,7.13,0,0,0,0,1.32,9.23,9.23,0,0,0,.41,2,11.52,11.52,0,0,0,1.11,2.4,16.43,16.43,0,0,0,1.89,2.5c.38.41.81.82,1.23,1.33a8.58,8.58,0,0,1,1.09,1.63,7.21,7.21,0,0,1,.7,2,6.27,6.27,0,0,1,0,2.16,8.12,8.12,0,0,1-.63,2,15.52,15.52,0,0,1-1,1.84c-.77,1.16-1.63,2.21-2.42,3.25-.39.52-.77,1-1.11,1.55q-.24.39-.45.78a3.39,3.39,0,0,0-.18.39l0,0s0,0,0,0h0v0l0,.11-.09.22-.08.22-.07.2c0,.14-.1.27-.13.42l-.12.41-.09.42A7,7,0,0,0,76,92.56a6.08,6.08,0,0,0,.82,2.85,12.2,12.2,0,0,0,1.59,2.12c.55.6,1,1.11,1.46,1.54s.72.77.93,1l.32.37a.13.13,0,0,1,0,.18.14.14,0,0,1-.18,0h0l-.36-.32-1-.89c-.44-.38-1-.84-1.6-1.41A12.2,12.2,0,0,1,76,95.87a7.42,7.42,0,0,1-.75-1.49,6.34,6.34,0,0,1-.38-1.76A8.59,8.59,0,0,1,75,90.73l.09-.47c0-.16.07-.32.11-.47s.09-.32.14-.48l.07-.24.08-.22.08-.23,0-.11,0-.07,0-.06a4,4,0,0,1,.21-.47,9.67,9.67,0,0,1,.48-.9c.35-.58.74-1.13,1.14-1.67.8-1.07,1.63-2.11,2.33-3.19a9.2,9.2,0,0,0,1.5-3.39,5.58,5.58,0,0,0,0-1.73,5.75,5.75,0,0,0-.52-1.63,8.62,8.62,0,0,0-.92-1.47c-.33-.45-.73-.88-1.12-1.33a16.2,16.2,0,0,1-1-1.39,13.61,13.61,0,0,1-.82-1.39,10,10,0,0,1-.6-1.37,12.27,12.27,0,0,1-.39-1.28A9.46,9.46,0,0,1,75.64,65a6.76,6.76,0,0,1,.17-1.39,3.29,3.29,0,0,1,.14-.48.12.12,0,0,1,.17-.07.12.12,0,0,1,.08.15Z"/>
          <g>
            <polygon class="b3b4940e-5267-4356-aa4e-8d9078139216" points="106.31 32.13 76.03 60.79 47.01 30.88 77.3 2.21 106.31 32.13"/>
            <g class="e41dd84b-7047-4b7a-9374-118bc43ca8c5">
              <path class="b895fabf-8281-4c53-a706-62793e3aaa3c" d="M87.41,17.24A22.91,22.91,0,0,1,76.79,36.05l-.46.28a23.56,23.56,0,0,1-23.59.45L47,30.88,77.29,2.21l9.67,10A23,23,0,0,1,87.41,17.24Z"/>
            </g>
            <g class="a150415f-d19c-4a7e-a8d9-8f3b9b458cf3">
              <path class="b8a1c527-efb3-4575-818a-a96da6f490fa" d="M76.89,31.6c0,1.49-.07,3-.1,4.45-.05,2.16-.1,4.29-.15,6.34-.1,3.45-.18,6.66-.25,9.42s-.16,5-.21,6.66c0,1.09-.06,1.86-.07,2.25,0,.18,0,.28,0,.28H76v-.28c0-.39,0-1.16,0-2.24,0-1.61,0-3.91.09-6.67s.1-6,.15-9.42c0-2,.08-4,.12-6.05,0-1.57.07-3.16.1-4.74.08-3.68.17-7.35.25-10.8s.18-6.66.25-9.42.15-5,.2-6.66c.05-1.29.08-2.14.09-2.42l.07-.08.08.08c0,.28,0,1.13,0,2.43,0,1.6,0,3.9-.09,6.66s-.1,6-.16,9.42S77,27.92,76.89,31.6Z"/>
              <path class="ffae6384-2452-4fa7-846b-be9a385d0f39" d="M106.31,32.13l-.41.39A53.91,53.91,0,0,0,47.42,31.3L47,30.88l1.67-1.59a55.39,55.39,0,0,1,56,1.12Z"/>
            </g>
            <polygon class="b3b4940e-5267-4356-aa4e-8d9078139216" points="70.53 64.48 76.06 60.13 81.4 64.7 70.53 64.48"/>
          </g>
        </g>
        <path class="b49217ed-6d6f-4187-980c-f1de9d46cf29" d="M76.88,22.26S89.24,146.62,58.4,190.49c-31.66,45-73.86,117.76-47.94,123.68,41.11,9.38,36.41,35.1,36.41,35.1l-.07,8.37"/>
      </g>
    </g>
  </g>
</svg>
