<svg id="ef21334a-a8e1-4d0d-962e-b44a19894f74" data-name="Layer 1" xmlns="http://www.w3.org/2000/svg" width="167" height="243" viewBox="0 0 167 243">
  <defs>
    <style>
      .bbc501c9-d410-4ddb-8317-eb1d75f7574d {
        fill: #130000;
      }

      .bc265cdd-4972-4cde-8ae2-49d88152bb1b {
        fill: #ef6ca8;
      }

      .fde555d0-dbbb-4f60-86d5-881e3ebfd80e {
        fill: #c63e82;
      }

      .e06c8623-043b-48db-9b3d-940c7241540c {
        fill: #fffefa;
      }

      .e7c6a4ea-86f9-45d6-8eaf-9714f38d38f0 {
        fill: #44261b;
      }
    </style>
  </defs>
  <g>
    <polygon class="bbc501c9-d410-4ddb-8317-eb1d75f7574d" points="77.74 201.17 80.41 191.68 79.77 191.5 77.74 198.7 77.74 191.59 77.08 191.59 77.08 198.88 75.01 191.5 74.36 191.68 77.09 201.4 77.39 201.31 77.68 201.4 77.71 201.31 77.74 201.31 77.74 201.17"/>
    <polygon class="bbc501c9-d410-4ddb-8317-eb1d75f7574d" points="90.25 201.17 92.91 191.68 92.27 191.5 90.25 198.7 90.24 191.59 89.58 191.59 89.58 198.88 87.5 191.5 86.86 191.68 89.59 201.4 89.89 201.31 90.18 201.4 90.21 201.31 90.25 201.31 90.25 201.17"/>
    <g>
      <path class="bc265cdd-4972-4cde-8ae2-49d88152bb1b" d="M91,14.41c-3.73,0-6.37.19-7.34.27-1-.08-3.61-.27-7.35-.27C56,14.34,3.21,19.22,3.21,72.12c0,44.86,45.7,93.13,68.39,114.33H95.68c22.69-21.2,68.38-69.47,68.38-114.33C164.06,19.22,111.24,14.34,91,14.41Z"/>
      <g>
        <g>
          <path class="fde555d0-dbbb-4f60-86d5-881e3ebfd80e" d="M25,119.07a.28.28,0,1,0-.5.24l.59,1.17a.26.26,0,0,0,.24.15.28.28,0,0,0,.13,0,.27.27,0,0,0,.12-.36Z"/>
          <path class="fde555d0-dbbb-4f60-86d5-881e3ebfd80e" d="M22.39,113.55a.27.27,0,0,0-.36-.14.26.26,0,0,0-.14.36l.54,1.19a.28.28,0,0,0,.25.16l.12,0a.26.26,0,0,0,.13-.36Z"/>
          <path class="fde555d0-dbbb-4f60-86d5-881e3ebfd80e" d="M26.37,121.8a.27.27,0,0,0-.37-.12.27.27,0,0,0-.12.36l.6,1.17a.29.29,0,0,0,.25.15.27.27,0,0,0,.12,0A.27.27,0,0,0,27,123Z"/>
          <path class="fde555d0-dbbb-4f60-86d5-881e3ebfd80e" d="M23.67,116.32a.27.27,0,0,0-.37-.13.28.28,0,0,0-.13.36l.57,1.18a.26.26,0,0,0,.25.16.2.2,0,0,0,.11,0,.27.27,0,0,0,.14-.36Z"/>
          <path class="fde555d0-dbbb-4f60-86d5-881e3ebfd80e" d="M21.16,110.75a.27.27,0,0,0-.36-.14.26.26,0,0,0-.15.35c.18.4.35.81.53,1.21a.26.26,0,0,0,.25.16l.11,0a.27.27,0,0,0,.14-.36Z"/>
          <path class="fde555d0-dbbb-4f60-86d5-881e3ebfd80e" d="M27.79,124.5a.29.29,0,0,0-.38-.11.27.27,0,0,0-.11.37l.62,1.15a.26.26,0,0,0,.24.15.28.28,0,0,0,.13,0,.27.27,0,0,0,.12-.37C28.2,125.27,28,124.89,27.79,124.5Z"/>
          <path class="fde555d0-dbbb-4f60-86d5-881e3ebfd80e" d="M30.73,129.86a.28.28,0,0,0-.48.27q.33.56.66,1.14a.28.28,0,0,0,.23.13.32.32,0,0,0,.14,0,.27.27,0,0,0,.1-.37Z"/>
          <path class="fde555d0-dbbb-4f60-86d5-881e3ebfd80e" d="M32.26,132.51a.27.27,0,0,0-.37-.1.27.27,0,0,0-.11.37l.67,1.13a.27.27,0,0,0,.24.14.33.33,0,0,0,.14,0,.28.28,0,0,0,.1-.37Z"/>
          <path class="fde555d0-dbbb-4f60-86d5-881e3ebfd80e" d="M29.24,127.19a.28.28,0,0,0-.37-.11.26.26,0,0,0-.11.37c.21.38.42.77.64,1.15a.27.27,0,0,0,.24.14.31.31,0,0,0,.13,0,.28.28,0,0,0,.11-.37C29.66,128,29.45,127.57,29.24,127.19Z"/>
          <path class="fde555d0-dbbb-4f60-86d5-881e3ebfd80e" d="M33.82,135.13a.27.27,0,0,0-.38-.09.26.26,0,0,0-.09.37l.68,1.12a.27.27,0,0,0,.23.14.42.42,0,0,0,.15,0,.28.28,0,0,0,.09-.38Z"/>
          <path class="fde555d0-dbbb-4f60-86d5-881e3ebfd80e" d="M16.28,97.7l-.39-1.25a.26.26,0,0,0-.34-.18.27.27,0,0,0-.19.34l.39,1.25a.28.28,0,0,0,.27.19h.08A.27.27,0,0,0,16.28,97.7Z"/>
          <path class="fde555d0-dbbb-4f60-86d5-881e3ebfd80e" d="M15.4,94.78c-.12-.42-.24-.84-.35-1.26a.29.29,0,0,0-.34-.19.27.27,0,0,0-.2.33l.36,1.27a.27.27,0,0,0,.26.2h.08A.29.29,0,0,0,15.4,94.78Z"/>
          <path class="fde555d0-dbbb-4f60-86d5-881e3ebfd80e" d="M13.88,88.88c-.1-.43-.19-.85-.28-1.27a.28.28,0,0,0-.33-.21.27.27,0,0,0-.21.32c.09.42.18.85.28,1.28a.27.27,0,0,0,.27.21h.06A.28.28,0,0,0,13.88,88.88Z"/>
          <path class="fde555d0-dbbb-4f60-86d5-881e3ebfd80e" d="M16.82,99.35a.28.28,0,0,0-.35-.17.27.27,0,0,0-.18.34l.42,1.25A.28.28,0,0,0,17,101h.09a.28.28,0,0,0,.17-.35C17.09,100.18,17,99.77,16.82,99.35Z"/>
          <path class="fde555d0-dbbb-4f60-86d5-881e3ebfd80e" d="M14.6,91.84c-.11-.42-.22-.85-.32-1.27a.28.28,0,0,0-.54.13c.11.42.21.85.32,1.27a.28.28,0,0,0,.27.21h.07A.27.27,0,0,0,14.6,91.84Z"/>
          <path class="fde555d0-dbbb-4f60-86d5-881e3ebfd80e" d="M18.86,105.1a.27.27,0,0,0-.35-.16.27.27,0,0,0-.16.35c.15.41.31.81.47,1.22a.29.29,0,0,0,.26.18l.1,0a.27.27,0,0,0,.16-.35Z"/>
          <path class="fde555d0-dbbb-4f60-86d5-881e3ebfd80e" d="M20,107.94a.27.27,0,0,0-.35-.16.28.28,0,0,0-.16.36c.17.4.33.81.5,1.21a.28.28,0,0,0,.25.17l.11,0a.27.27,0,0,0,.15-.35C20.31,108.74,20.15,108.34,20,107.94Z"/>
          <path class="fde555d0-dbbb-4f60-86d5-881e3ebfd80e" d="M17.81,102.24a.28.28,0,1,0-.52.18c.14.41.29.82.44,1.23a.29.29,0,0,0,.26.18.16.16,0,0,0,.1,0,.26.26,0,0,0,.16-.34C18.1,103.05,18,102.65,17.81,102.24Z"/>
          <path class="fde555d0-dbbb-4f60-86d5-881e3ebfd80e" d="M17.11,39.42a.28.28,0,0,0-.36.15c-.17.4-.34.81-.5,1.22a.26.26,0,0,0,.15.35l.1,0a.28.28,0,0,0,.26-.17c.17-.41.33-.81.5-1.21A.28.28,0,0,0,17.11,39.42Z"/>
          <path class="fde555d0-dbbb-4f60-86d5-881e3ebfd80e" d="M49.18,158a.27.27,0,0,0-.38-.06.26.26,0,0,0-.06.38c.26.35.52.71.78,1.05a.28.28,0,0,0,.22.12A.28.28,0,0,0,50,159Z"/>
          <path class="fde555d0-dbbb-4f60-86d5-881e3ebfd80e" d="M51,160.41a.29.29,0,0,0-.39-.06.27.27,0,0,0-.05.39l.79,1a.29.29,0,0,0,.22.11.34.34,0,0,0,.17,0,.27.27,0,0,0,.05-.38Z"/>
          <path class="fde555d0-dbbb-4f60-86d5-881e3ebfd80e" d="M35.41,137.74a.27.27,0,0,0-.38-.09.26.26,0,0,0-.09.37c.23.37.46.75.7,1.11a.26.26,0,0,0,.23.13.28.28,0,0,0,.15,0,.27.27,0,0,0,.09-.37C35.87,138.48,35.64,138.11,35.41,137.74Z"/>
          <path class="fde555d0-dbbb-4f60-86d5-881e3ebfd80e" d="M47.37,155.49a.28.28,0,0,0-.39-.06.27.27,0,0,0-.06.38l.78,1.06a.27.27,0,0,0,.22.11.3.3,0,0,0,.16,0,.27.27,0,0,0,.06-.38Z"/>
          <path class="fde555d0-dbbb-4f60-86d5-881e3ebfd80e" d="M13.25,85.9c-.08-.43-.17-.85-.24-1.28a.27.27,0,0,0-.54.1c.07.42.15.85.23,1.29a.29.29,0,0,0,.28.22h0A.27.27,0,0,0,13.25,85.9Z"/>
          <path class="fde555d0-dbbb-4f60-86d5-881e3ebfd80e" d="M37,140.32a.28.28,0,0,0-.38-.08.26.26,0,0,0-.09.37l.7,1.11a.27.27,0,0,0,.24.12.23.23,0,0,0,.14,0,.28.28,0,0,0,.09-.38C37.5,141.06,37.27,140.69,37,140.32Z"/>
          <path class="fde555d0-dbbb-4f60-86d5-881e3ebfd80e" d="M40.37,145.44a.28.28,0,0,0-.39-.07.26.26,0,0,0-.07.37l.73,1.1a.29.29,0,0,0,.23.12.3.3,0,0,0,.15-.05.27.27,0,0,0,.08-.38C40.85,146.17,40.61,145.81,40.37,145.44Z"/>
          <path class="fde555d0-dbbb-4f60-86d5-881e3ebfd80e" d="M38.69,142.89a.29.29,0,0,0-.39-.08.27.27,0,0,0-.08.37l.72,1.1a.28.28,0,0,0,.23.13.3.3,0,0,0,.15,0,.26.26,0,0,0,.08-.37C39.16,143.62,38.92,143.26,38.69,142.89Z"/>
          <path class="fde555d0-dbbb-4f60-86d5-881e3ebfd80e" d="M45.58,153a.27.27,0,1,0-.45.31l.76,1.07a.3.3,0,0,0,.23.11.24.24,0,0,0,.16-.05.27.27,0,0,0,.06-.38Z"/>
          <path class="fde555d0-dbbb-4f60-86d5-881e3ebfd80e" d="M42.08,148a.28.28,0,0,0-.46.31l.74,1.08a.29.29,0,0,0,.23.12.3.3,0,0,0,.16-.05.27.27,0,0,0,.07-.38Z"/>
          <path class="fde555d0-dbbb-4f60-86d5-881e3ebfd80e" d="M43.82,150.5a.29.29,0,0,0-.39-.07.28.28,0,0,0-.07.38l.76,1.08a.28.28,0,0,0,.22.11.29.29,0,0,0,.16,0,.27.27,0,0,0,.07-.38Z"/>
          <path class="fde555d0-dbbb-4f60-86d5-881e3ebfd80e" d="M151.64,39.31a.26.26,0,0,0,.25.16.2.2,0,0,0,.11,0,.27.27,0,0,0,.14-.36q-.25-.6-.54-1.2a.28.28,0,0,0-.36-.13.27.27,0,0,0-.14.36Z"/>
          <path class="fde555d0-dbbb-4f60-86d5-881e3ebfd80e" d="M152.79,42.12a.27.27,0,0,0,.26.18.15.15,0,0,0,.09,0,.26.26,0,0,0,.16-.35c-.15-.41-.31-.82-.48-1.22a.26.26,0,0,0-.35-.15.27.27,0,0,0-.16.35Z"/>
          <path class="fde555d0-dbbb-4f60-86d5-881e3ebfd80e" d="M157,61.6c0,.43.08.86.11,1.29a.28.28,0,0,0,.28.26h0a.27.27,0,0,0,.26-.29c0-.44-.07-.88-.11-1.31a.28.28,0,0,0-.55.05Z"/>
          <path class="fde555d0-dbbb-4f60-86d5-881e3ebfd80e" d="M156.71,58.57l.15,1.29a.27.27,0,0,0,.27.25h0a.29.29,0,0,0,.25-.3c0-.44-.1-.87-.16-1.31a.26.26,0,0,0-.3-.23A.27.27,0,0,0,156.71,58.57Z"/>
          <path class="fde555d0-dbbb-4f60-86d5-881e3ebfd80e" d="M157.24,64.63c0,.43,0,.87.07,1.3a.27.27,0,0,0,.27.26h0a.27.27,0,0,0,.27-.28c0-.44,0-.88-.07-1.31a.28.28,0,0,0-.55,0Z"/>
          <path class="fde555d0-dbbb-4f60-86d5-881e3ebfd80e" d="M157.64,67.39h0a.28.28,0,0,0-.27.28l0,1.31a.27.27,0,0,0,.27.26h0A.27.27,0,0,0,158,69l0-1.31A.28.28,0,0,0,157.64,67.39Z"/>
          <path class="fde555d0-dbbb-4f60-86d5-881e3ebfd80e" d="M156.28,55.56c.07.42.14.85.2,1.29a.27.27,0,0,0,.27.23h0a.27.27,0,0,0,.23-.31c-.06-.44-.13-.87-.19-1.3a.28.28,0,0,0-.55.09Z"/>
          <path class="fde555d0-dbbb-4f60-86d5-881e3ebfd80e" d="M154.3,46.66c.12.41.24.83.35,1.25a.27.27,0,0,0,.27.2H155a.27.27,0,0,0,.2-.33l-.36-1.26a.28.28,0,0,0-.34-.19A.27.27,0,0,0,154.3,46.66Z"/>
          <path class="fde555d0-dbbb-4f60-86d5-881e3ebfd80e" d="M153.79,45a.28.28,0,0,0,.26.19l.08,0a.26.26,0,0,0,.18-.34c-.13-.42-.27-.83-.41-1.25a.28.28,0,0,0-.35-.17.27.27,0,0,0-.17.35C153.52,44.17,153.66,44.58,153.79,45Z"/>
          <path class="fde555d0-dbbb-4f60-86d5-881e3ebfd80e" d="M155.08,49.6q.16.63.3,1.26a.29.29,0,0,0,.27.22h.06a.27.27,0,0,0,.21-.32l-.3-1.28a.27.27,0,0,0-.33-.2A.28.28,0,0,0,155.08,49.6Z"/>
          <path class="fde555d0-dbbb-4f60-86d5-881e3ebfd80e" d="M155.74,52.56c.09.43.17.86.25,1.28a.27.27,0,0,0,.27.23h.05a.26.26,0,0,0,.22-.31l-.24-1.29a.29.29,0,0,0-.33-.22A.28.28,0,0,0,155.74,52.56Z"/>
          <path class="fde555d0-dbbb-4f60-86d5-881e3ebfd80e" d="M11.42,71.07h0a.27.27,0,0,0,.28-.27V69.49a.27.27,0,0,0-.27-.27h0a.28.28,0,0,0-.27.27c0,.38,0,.77,0,1.15v.16A.27.27,0,0,0,11.42,71.07Z"/>
          <path class="fde555d0-dbbb-4f60-86d5-881e3ebfd80e" d="M11.77,61.93h0a.27.27,0,0,0,.27-.25c0-.44.08-.87.13-1.3a.29.29,0,0,0-.25-.3.27.27,0,0,0-.3.24c-.05.44-.09.87-.13,1.31A.29.29,0,0,0,11.77,61.93Z"/>
          <path class="fde555d0-dbbb-4f60-86d5-881e3ebfd80e" d="M11.57,65h0a.28.28,0,0,0,.28-.26c0-.43.05-.87.08-1.3a.28.28,0,0,0-.26-.29.27.27,0,0,0-.29.25l-.09,1.31A.29.29,0,0,0,11.57,65Z"/>
          <path class="fde555d0-dbbb-4f60-86d5-881e3ebfd80e" d="M13,52.86h.05a.29.29,0,0,0,.28-.22c.08-.42.17-.85.26-1.27A.28.28,0,0,0,13.4,51a.28.28,0,0,0-.33.21l-.27,1.29A.28.28,0,0,0,13,52.86Z"/>
          <path class="fde555d0-dbbb-4f60-86d5-881e3ebfd80e" d="M12.5,55.87h0a.28.28,0,0,0,.27-.23c.07-.43.14-.86.22-1.29a.28.28,0,0,0-.55-.09c-.07.43-.15.86-.21,1.29A.28.28,0,0,0,12.5,55.87Z"/>
          <path class="fde555d0-dbbb-4f60-86d5-881e3ebfd80e" d="M11.45,68h0a.27.27,0,0,0,.27-.27c0-.43,0-.87,0-1.3a.26.26,0,0,0-.26-.28.25.25,0,0,0-.28.26c0,.43,0,.87-.05,1.31A.28.28,0,0,0,11.45,68Z"/>
          <path class="fde555d0-dbbb-4f60-86d5-881e3ebfd80e" d="M12.08,58.89h0a.27.27,0,0,0,.27-.24c0-.43.11-.86.17-1.29a.28.28,0,0,0-.55-.07c-.06.43-.11.86-.17,1.3A.27.27,0,0,0,12.08,58.89Z"/>
          <path class="fde555d0-dbbb-4f60-86d5-881e3ebfd80e" d="M11.72,77.16a.27.27,0,0,0,.25-.29c0-.44-.07-.87-.1-1.3a.28.28,0,0,0-.55,0c0,.43.06.87.1,1.31a.27.27,0,0,0,.27.25Z"/>
          <path class="fde555d0-dbbb-4f60-86d5-881e3ebfd80e" d="M12.05,80.2a.28.28,0,0,0,.24-.31q-.09-.65-.15-1.29a.28.28,0,0,0-.31-.24.26.26,0,0,0-.24.3c0,.43.09.86.15,1.3a.28.28,0,0,0,.27.24Z"/>
          <path class="fde555d0-dbbb-4f60-86d5-881e3ebfd80e" d="M11.5,74.12a.28.28,0,0,0,.27-.28c0-.44,0-.87,0-1.31a.27.27,0,0,0-.28-.26.28.28,0,0,0-.27.28c0,.43,0,.87.05,1.31a.27.27,0,0,0,.27.26Z"/>
          <path class="fde555d0-dbbb-4f60-86d5-881e3ebfd80e" d="M12.72,82.91c-.07-.44-.14-.87-.2-1.29a.28.28,0,0,0-.55.07c.07.43.13.87.2,1.3a.27.27,0,0,0,.27.23h.05A.28.28,0,0,0,12.72,82.91Z"/>
          <path class="fde555d0-dbbb-4f60-86d5-881e3ebfd80e" d="M19,35.59l.12,0a.27.27,0,0,0,.25-.15c.21-.38.41-.76.63-1.14a.27.27,0,0,0-.11-.37.27.27,0,0,0-.37.1c-.22.38-.43.77-.64,1.16A.27.27,0,0,0,19,35.59Z"/>
          <path class="fde555d0-dbbb-4f60-86d5-881e3ebfd80e" d="M14.44,46.92h.08a.26.26,0,0,0,.26-.19c.12-.42.25-.84.38-1.25a.28.28,0,0,0-.53-.16c-.13.41-.25.83-.38,1.26A.27.27,0,0,0,14.44,46.92Z"/>
          <path class="fde555d0-dbbb-4f60-86d5-881e3ebfd80e" d="M15.35,44h.09a.28.28,0,0,0,.26-.18c.14-.42.29-.83.44-1.23a.27.27,0,0,0-.17-.35.27.27,0,0,0-.35.16c-.15.41-.3.83-.44,1.24A.28.28,0,0,0,15.35,44Z"/>
          <path class="fde555d0-dbbb-4f60-86d5-881e3ebfd80e" d="M13.67,49.88h.06a.27.27,0,0,0,.27-.21c.1-.42.21-.84.32-1.26a.27.27,0,0,0-.2-.33.27.27,0,0,0-.33.19c-.12.43-.22.85-.32,1.28A.27.27,0,0,0,13.67,49.88Z"/>
          <path class="fde555d0-dbbb-4f60-86d5-881e3ebfd80e" d="M17.6,38.33a.25.25,0,0,0,.12,0,.28.28,0,0,0,.25-.16c.18-.39.37-.78.56-1.17a.27.27,0,1,0-.49-.24c-.2.39-.39.79-.57,1.19A.26.26,0,0,0,17.6,38.33Z"/>
          <path class="fde555d0-dbbb-4f60-86d5-881e3ebfd80e" d="M133.41,138.72a.29.29,0,0,0-.39.09l-.69,1.11a.27.27,0,0,0,.08.38.42.42,0,0,0,.15,0,.28.28,0,0,0,.23-.13l.71-1.12A.28.28,0,0,0,133.41,138.72Z"/>
          <path class="fde555d0-dbbb-4f60-86d5-881e3ebfd80e" d="M139.65,128.16a.28.28,0,0,0-.38.11l-.64,1.14a.27.27,0,0,0,.1.37.35.35,0,0,0,.14,0,.27.27,0,0,0,.24-.14c.22-.38.43-.76.64-1.14A.27.27,0,0,0,139.65,128.16Z"/>
          <path class="fde555d0-dbbb-4f60-86d5-881e3ebfd80e" d="M136.6,133.47a.28.28,0,0,0-.38.1l-.67,1.13a.26.26,0,0,0,.09.37.25.25,0,0,0,.14,0A.28.28,0,0,0,136,135c.23-.38.45-.76.67-1.14A.26.26,0,0,0,136.6,133.47Z"/>
          <path class="fde555d0-dbbb-4f60-86d5-881e3ebfd80e" d="M135,136.1a.29.29,0,0,0-.38.1l-.69,1.12a.26.26,0,0,0,.1.37.23.23,0,0,0,.14,0,.26.26,0,0,0,.23-.13c.24-.37.46-.75.69-1.12A.28.28,0,0,0,135,136.1Z"/>
          <path class="fde555d0-dbbb-4f60-86d5-881e3ebfd80e" d="M138.14,130.82a.29.29,0,0,0-.38.1l-.63,1.1,0,0a.27.27,0,0,0,.12.36.27.27,0,0,0,.12,0,.3.3,0,0,0,.26-.15c.22-.37.43-.74.64-1.11A.27.27,0,0,0,138.14,130.82Z"/>
          <path class="fde555d0-dbbb-4f60-86d5-881e3ebfd80e" d="M141.11,125.47a.27.27,0,0,0-.37.12l-.63,1.15a.28.28,0,0,0,.11.37l.13,0a.29.29,0,0,0,.25-.14c.21-.39.42-.77.62-1.16A.26.26,0,0,0,141.11,125.47Z"/>
          <path class="fde555d0-dbbb-4f60-86d5-881e3ebfd80e" d="M142.54,122.77a.27.27,0,0,0-.37.12l-.61,1.16a.26.26,0,0,0,.12.36.19.19,0,0,0,.13,0,.27.27,0,0,0,.24-.14l.61-1.16A.27.27,0,0,0,142.54,122.77Z"/>
          <path class="fde555d0-dbbb-4f60-86d5-881e3ebfd80e" d="M143.93,120a.28.28,0,0,0-.37.13c-.2.38-.39.77-.59,1.16a.28.28,0,0,0,.25.4.27.27,0,0,0,.24-.15c.2-.39.4-.78.59-1.17A.27.27,0,0,0,143.93,120Z"/>
          <path class="fde555d0-dbbb-4f60-86d5-881e3ebfd80e" d="M124.55,151.55l-.75,1.07a.27.27,0,0,0,.06.38.25.25,0,0,0,.16.05.3.3,0,0,0,.23-.11l.76-1.08a.28.28,0,0,0-.07-.38A.29.29,0,0,0,124.55,151.55Z"/>
          <path class="fde555d0-dbbb-4f60-86d5-881e3ebfd80e" d="M122.78,154.05l-.77,1.06a.27.27,0,0,0,.06.38.25.25,0,0,0,.16,0,.28.28,0,0,0,.23-.11c.26-.35.51-.71.77-1.07a.27.27,0,0,0-.07-.38A.28.28,0,0,0,122.78,154.05Z"/>
          <path class="fde555d0-dbbb-4f60-86d5-881e3ebfd80e" d="M121,156.53l-.78,1.05a.27.27,0,0,0,.06.38.27.27,0,0,0,.16.06.28.28,0,0,0,.23-.12l.78-1.05a.28.28,0,1,0-.45-.32Z"/>
          <path class="fde555d0-dbbb-4f60-86d5-881e3ebfd80e" d="M130.1,143.88a.28.28,0,0,0-.38.08l-.72,1.1a.26.26,0,0,0,.07.37.33.33,0,0,0,.16,0,.29.29,0,0,0,.23-.13l.72-1.09A.27.27,0,0,0,130.1,143.88Z"/>
          <path class="fde555d0-dbbb-4f60-86d5-881e3ebfd80e" d="M131.77,141.31a.28.28,0,0,0-.38.09c-.24.36-.48.73-.71,1.1a.26.26,0,0,0,.08.37.3.3,0,0,0,.15,0,.28.28,0,0,0,.23-.13c.24-.37.48-.73.71-1.1A.27.27,0,0,0,131.77,141.31Z"/>
          <path class="fde555d0-dbbb-4f60-86d5-881e3ebfd80e" d="M128.41,146.43a.29.29,0,0,0-.39.08c-.24.36-.49.72-.73,1.09a.26.26,0,0,0,.07.37.25.25,0,0,0,.16.05.28.28,0,0,0,.23-.12l.73-1.09A.27.27,0,0,0,128.41,146.43Z"/>
          <path class="fde555d0-dbbb-4f60-86d5-881e3ebfd80e" d="M126.3,149l-.75,1.08a.28.28,0,0,0,.08.38.3.3,0,0,0,.38-.07l.75-1.08a.28.28,0,0,0-.07-.38A.28.28,0,0,0,126.3,149Z"/>
          <path class="fde555d0-dbbb-4f60-86d5-881e3ebfd80e" d="M156.72,82.6a.28.28,0,0,0-.32.22l-.21,1.29a.27.27,0,0,0,.22.32h.05a.27.27,0,0,0,.27-.23c.08-.43.15-.86.22-1.29A.27.27,0,0,0,156.72,82.6Z"/>
          <path class="fde555d0-dbbb-4f60-86d5-881e3ebfd80e" d="M145.27,117.3a.27.27,0,0,0-.36.12l-.57,1.18a.27.27,0,0,0,.12.37l.12,0a.27.27,0,0,0,.25-.15c.19-.4.39-.79.57-1.18A.26.26,0,0,0,145.27,117.3Z"/>
          <path class="fde555d0-dbbb-4f60-86d5-881e3ebfd80e" d="M155.58,88.59a.29.29,0,0,0-.34.21c-.09.42-.19.85-.29,1.27a.27.27,0,0,0,.2.33h.07a.29.29,0,0,0,.27-.21l.3-1.28A.29.29,0,0,0,155.58,88.59Z"/>
          <path class="fde555d0-dbbb-4f60-86d5-881e3ebfd80e" d="M154.07,94.51a.28.28,0,0,0-.34.19c-.12.42-.24.84-.37,1.25a.27.27,0,0,0,.19.34h.08a.26.26,0,0,0,.26-.19c.13-.42.25-.84.37-1.26A.27.27,0,0,0,154.07,94.51Z"/>
          <path class="fde555d0-dbbb-4f60-86d5-881e3ebfd80e" d="M154.86,91.56a.27.27,0,0,0-.33.2L154.2,93a.27.27,0,0,0,.19.34h.07a.28.28,0,0,0,.27-.21c.11-.42.23-.84.34-1.26A.29.29,0,0,0,154.86,91.56Z"/>
          <path class="fde555d0-dbbb-4f60-86d5-881e3ebfd80e" d="M157.63,73.49a.27.27,0,0,0-.29.26c0,.44,0,.87-.07,1.3a.28.28,0,0,0,.26.29h0a.27.27,0,0,0,.27-.25c0-.44.05-.88.07-1.31A.28.28,0,0,0,157.63,73.49Z"/>
          <path class="fde555d0-dbbb-4f60-86d5-881e3ebfd80e" d="M157.69,70.44h0a.27.27,0,0,0-.28.27c0,.44,0,.87,0,1.31a.29.29,0,0,0,.28.28h0A.28.28,0,0,0,158,72c0-.44,0-.88,0-1.32A.28.28,0,0,0,157.69,70.44Z"/>
          <path class="fde555d0-dbbb-4f60-86d5-881e3ebfd80e" d="M157.14,79.57a.29.29,0,0,0-.31.24c-.05.43-.11.86-.17,1.3a.27.27,0,0,0,.24.3h0a.27.27,0,0,0,.28-.23c.06-.44.11-.87.17-1.3A.3.3,0,0,0,157.14,79.57Z"/>
          <path class="fde555d0-dbbb-4f60-86d5-881e3ebfd80e" d="M153.2,97.44a.27.27,0,0,0-.35.18c-.13.41-.26.83-.4,1.24a.29.29,0,0,0,.18.35h.08A.28.28,0,0,0,153,99c.14-.42.27-.83.4-1.25A.28.28,0,0,0,153.2,97.44Z"/>
          <path class="fde555d0-dbbb-4f60-86d5-881e3ebfd80e" d="M157.44,76.54a.29.29,0,0,0-.3.25q0,.64-.12,1.29a.28.28,0,0,0,.25.3h0a.26.26,0,0,0,.27-.24c0-.44.09-.87.12-1.31A.26.26,0,0,0,157.44,76.54Z"/>
          <path class="fde555d0-dbbb-4f60-86d5-881e3ebfd80e" d="M156.2,85.6a.29.29,0,0,0-.33.22c-.08.43-.16.85-.25,1.28a.27.27,0,0,0,.21.32h0a.29.29,0,0,0,.28-.22c.08-.43.17-.86.26-1.29A.3.3,0,0,0,156.2,85.6Z"/>
          <path class="fde555d0-dbbb-4f60-86d5-881e3ebfd80e" d="M146.57,114.53a.26.26,0,0,0-.36.13c-.18.4-.37.79-.56,1.19a.27.27,0,0,0,.14.36.25.25,0,0,0,.12,0,.27.27,0,0,0,.25-.15c.18-.4.36-.8.55-1.19A.27.27,0,0,0,146.57,114.53Z"/>
          <path class="fde555d0-dbbb-4f60-86d5-881e3ebfd80e" d="M149,108.92a.28.28,0,0,0-.36.15c-.16.4-.33.8-.5,1.2a.28.28,0,0,0,.15.36.18.18,0,0,0,.1,0,.29.29,0,0,0,.26-.16l.51-1.21A.28.28,0,0,0,149,108.92Z"/>
          <path class="fde555d0-dbbb-4f60-86d5-881e3ebfd80e" d="M152.25,100.34a.28.28,0,0,0-.35.18c-.14.41-.28.82-.43,1.23a.28.28,0,0,0,.17.35h.09a.27.27,0,0,0,.26-.18c.15-.42.29-.83.43-1.24A.28.28,0,0,0,152.25,100.34Z"/>
          <path class="fde555d0-dbbb-4f60-86d5-881e3ebfd80e" d="M147.82,111.73a.28.28,0,0,0-.36.15c-.18.39-.35.79-.53,1.19a.27.27,0,0,0,.14.36.2.2,0,0,0,.11,0,.26.26,0,0,0,.25-.16c.18-.4.36-.8.53-1.2A.27.27,0,0,0,147.82,111.73Z"/>
          <path class="fde555d0-dbbb-4f60-86d5-881e3ebfd80e" d="M151.23,103.23a.27.27,0,0,0-.35.16c-.15.41-.3.81-.46,1.22a.27.27,0,0,0,.17.35.15.15,0,0,0,.09,0,.28.28,0,0,0,.26-.18l.46-1.23A.26.26,0,0,0,151.23,103.23Z"/>
          <path class="fde555d0-dbbb-4f60-86d5-881e3ebfd80e" d="M150.15,106.08a.27.27,0,0,0-.35.16c-.16.4-.32.81-.49,1.22a.28.28,0,0,0,.16.35l.1,0a.29.29,0,0,0,.26-.17l.48-1.22A.27.27,0,0,0,150.15,106.08Z"/>
          <path class="fde555d0-dbbb-4f60-86d5-881e3ebfd80e" d="M116.73,162.91a.27.27,0,0,0,.22-.11c.27-.34.54-.69.8-1a.27.27,0,0,0,0-.38.28.28,0,0,0-.39.05c-.26.35-.53.7-.8,1C116.42,162.59,116.68,162.91,116.73,162.91Z"/>
          <path class="fde555d0-dbbb-4f60-86d5-881e3ebfd80e" d="M119.16,159l-.79,1a.26.26,0,0,0,.06.38.3.3,0,0,0,.16.05.27.27,0,0,0,.22-.11l.79-1.05a.27.27,0,1,0-.44-.32Z"/>
        </g>
        <path class="e06c8623-043b-48db-9b3d-940c7241540c" d="M84.55,10.7c-6-.93-70.63-9.36-70.63,59.94,0,38.15,33.14,84.51,60.48,114.33H94.71c27.33-29.82,60.47-76.18,60.47-114.33C155.18,1.34,90.55,9.77,84.55,10.7Z"/>
      </g>
      <g>
        <path class="bc265cdd-4972-4cde-8ae2-49d88152bb1b" d="M84.55,5.41c-5-1-50.87-7.72-50.87,65.23,0,37.82,27.71,89.66,44.74,115.81H90.69c17-26.15,44.73-78,44.73-115.81C135.42-2.31,89.54,4.46,84.55,5.41Z"/>
        <g>
          <path class="fde555d0-dbbb-4f60-86d5-881e3ebfd80e" d="M46.6,24.3a.23.23,0,0,0,.14,0,.27.27,0,0,0,.24-.13c.23-.36.48-.72.72-1.08a.27.27,0,0,0-.07-.38.28.28,0,0,0-.38.07c-.25.36-.49.73-.74,1.1A.28.28,0,0,0,46.6,24.3Z"/>
          <path class="fde555d0-dbbb-4f60-86d5-881e3ebfd80e" d="M60,11.85a.28.28,0,0,0,.13,0q.59-.32,1.17-.6a.28.28,0,0,0,.12-.37.27.27,0,0,0-.37-.12c-.39.19-.78.4-1.18.61a.28.28,0,0,0-.11.37A.27.27,0,0,0,60,11.85Z"/>
          <path class="fde555d0-dbbb-4f60-86d5-881e3ebfd80e" d="M62.8,10.51a.23.23,0,0,0,.11,0c.4-.17.81-.34,1.21-.49a.26.26,0,0,0,.16-.35.29.29,0,0,0-.36-.16c-.41.16-.82.32-1.23.5a.28.28,0,0,0-.15.36A.29.29,0,0,0,62.8,10.51Z"/>
          <path class="fde555d0-dbbb-4f60-86d5-881e3ebfd80e" d="M36.48,77.47a.27.27,0,0,0,.25-.29c0-.44-.07-.87-.09-1.3a.28.28,0,0,0-.56,0c0,.44.06.87.1,1.31a.26.26,0,0,0,.27.25Z"/>
          <path class="fde555d0-dbbb-4f60-86d5-881e3ebfd80e" d="M48.51,21.84a.29.29,0,0,0,.22-.11c.26-.35.53-.69.8-1a.26.26,0,0,0,0-.38.29.29,0,0,0-.39,0c-.27.34-.55.69-.81,1a.26.26,0,0,0,.05.38A.27.27,0,0,0,48.51,21.84Z"/>
          <path class="fde555d0-dbbb-4f60-86d5-881e3ebfd80e" d="M54.9,15.24a.27.27,0,0,0,.17-.06c.35-.27.69-.54,1-.79a.28.28,0,0,0,0-.39.27.27,0,0,0-.38-.05c-.35.26-.71.53-1.05.81a.27.27,0,0,0,0,.38A.28.28,0,0,0,54.9,15.24Z"/>
          <path class="fde555d0-dbbb-4f60-86d5-881e3ebfd80e" d="M52.59,17.26a.28.28,0,0,0,.19-.07c.32-.31.64-.6,1-.89a.27.27,0,0,0,0-.38.28.28,0,0,0-.39,0l-1,.89a.27.27,0,0,0,0,.39A.28.28,0,0,0,52.59,17.26Z"/>
          <path class="fde555d0-dbbb-4f60-86d5-881e3ebfd80e" d="M68.66,8.6h.06c.43-.1.86-.2,1.28-.28A.27.27,0,0,0,70.22,8a.28.28,0,0,0-.33-.21c-.43.08-.86.17-1.3.28a.26.26,0,0,0-.2.33A.28.28,0,0,0,68.66,8.6Z"/>
          <path class="fde555d0-dbbb-4f60-86d5-881e3ebfd80e" d="M65.68,9.43l.09,0L67,9a.27.27,0,1,0-.15-.52c-.42.12-.85.25-1.27.39a.26.26,0,0,0-.18.34A.29.29,0,0,0,65.68,9.43Z"/>
          <path class="fde555d0-dbbb-4f60-86d5-881e3ebfd80e" d="M45,26.92a.25.25,0,0,0,.14,0,.27.27,0,0,0,.24-.14c.21-.38.43-.76.65-1.13a.26.26,0,0,0-.09-.37.28.28,0,0,0-.38.09l-.66,1.14A.27.27,0,0,0,45,26.92Z"/>
          <path class="fde555d0-dbbb-4f60-86d5-881e3ebfd80e" d="M66.46,161.56a.27.27,0,0,0-.11.37l.64,1.15a.27.27,0,0,0,.24.14.31.31,0,0,0,.13,0,.27.27,0,0,0,.11-.37l-.63-1.15A.29.29,0,0,0,66.46,161.56Z"/>
          <path class="fde555d0-dbbb-4f60-86d5-881e3ebfd80e" d="M68.48,165.75a.27.27,0,0,0,.24.14.28.28,0,0,0,.13,0,.26.26,0,0,0,.11-.37c-.21-.38-.43-.76-.64-1.15a.27.27,0,0,0-.38-.1.27.27,0,0,0-.1.37Z"/>
          <path class="fde555d0-dbbb-4f60-86d5-881e3ebfd80e" d="M37.21,53.11h0a.28.28,0,0,0,.27-.24c.06-.43.12-.86.17-1.29a.27.27,0,0,0-.23-.31.28.28,0,0,0-.31.24L37,52.8A.29.29,0,0,0,37.21,53.11Z"/>
          <path class="fde555d0-dbbb-4f60-86d5-881e3ebfd80e" d="M36.4,62.23h0a.27.27,0,0,0,.27-.26c0-.44.05-.87.08-1.3a.28.28,0,0,0-.55,0c0,.44,0,.87-.08,1.31A.28.28,0,0,0,36.4,62.23Z"/>
          <path class="fde555d0-dbbb-4f60-86d5-881e3ebfd80e" d="M36.27,65.28h0a.28.28,0,0,0,.28-.27c0-.43,0-.87,0-1.3a.29.29,0,0,0-.27-.29.27.27,0,0,0-.28.26c0,.44,0,.87-.05,1.31A.28.28,0,0,0,36.27,65.28Z"/>
          <path class="fde555d0-dbbb-4f60-86d5-881e3ebfd80e" d="M36.87,56.14h0a.26.26,0,0,0,.27-.24c0-.44.09-.87.14-1.3a.27.27,0,0,0-.24-.3.29.29,0,0,0-.31.24c0,.43-.09.87-.14,1.3A.28.28,0,0,0,36.87,56.14Z"/>
          <path class="fde555d0-dbbb-4f60-86d5-881e3ebfd80e" d="M36.6,59.18h0a.29.29,0,0,0,.28-.25c0-.43.07-.87.11-1.3a.27.27,0,0,0-.26-.29.28.28,0,0,0-.3.24c0,.44-.07.87-.1,1.31A.26.26,0,0,0,36.6,59.18Z"/>
          <path class="fde555d0-dbbb-4f60-86d5-881e3ebfd80e" d="M43.62,29.64a.27.27,0,0,0,.12,0,.28.28,0,0,0,.25-.16c.19-.39.39-.78.59-1.16a.28.28,0,0,0-.5-.25c-.2.39-.4.78-.59,1.18A.28.28,0,0,0,43.62,29.64Z"/>
          <path class="fde555d0-dbbb-4f60-86d5-881e3ebfd80e" d="M36.19,71.38h0a.28.28,0,0,0,.27-.28V69.8a.27.27,0,0,0-.27-.27h0a.27.27,0,0,0-.28.27v1.31A.27.27,0,0,0,36.19,71.38Z"/>
          <path class="fde555d0-dbbb-4f60-86d5-881e3ebfd80e" d="M36.2,68.33h0a.27.27,0,0,0,.27-.27c0-.44,0-.87,0-1.31a.27.27,0,0,0-.26-.28.3.3,0,0,0-.29.27c0,.43,0,.87,0,1.31A.28.28,0,0,0,36.2,68.33Z"/>
          <path class="fde555d0-dbbb-4f60-86d5-881e3ebfd80e" d="M36.28,74.43a.28.28,0,0,0,.26-.29c0-.43,0-.87,0-1.3a.26.26,0,0,0-.28-.26.28.28,0,0,0-.27.28c0,.43,0,.87.05,1.31a.28.28,0,0,0,.27.26Z"/>
          <path class="fde555d0-dbbb-4f60-86d5-881e3ebfd80e" d="M41.28,35.28a.16.16,0,0,0,.1,0,.26.26,0,0,0,.25-.18c.16-.41.31-.82.46-1.22a.27.27,0,0,0-.16-.35.26.26,0,0,0-.35.15c-.16.41-.31.82-.46,1.24A.26.26,0,0,0,41.28,35.28Z"/>
          <path class="fde555d0-dbbb-4f60-86d5-881e3ebfd80e" d="M42.38,32.43a.18.18,0,0,0,.1,0,.27.27,0,0,0,.26-.17c.17-.4.34-.8.52-1.19a.27.27,0,0,0-.15-.36.27.27,0,0,0-.36.14c-.18.4-.35.8-.52,1.21A.26.26,0,0,0,42.38,32.43Z"/>
          <path class="fde555d0-dbbb-4f60-86d5-881e3ebfd80e" d="M40.32,38.18l.08,0a.29.29,0,0,0,.27-.2c.13-.41.26-.83.4-1.24a.28.28,0,0,0-.18-.34.28.28,0,0,0-.35.17c-.14.42-.27.83-.4,1.25A.27.27,0,0,0,40.32,38.18Z"/>
          <path class="fde555d0-dbbb-4f60-86d5-881e3ebfd80e" d="M37.64,50.09h0a.27.27,0,0,0,.27-.23c.07-.43.14-.86.22-1.29a.28.28,0,0,0-.23-.31.27.27,0,0,0-.32.22l-.21,1.3A.28.28,0,0,0,37.64,50.09Z"/>
          <path class="fde555d0-dbbb-4f60-86d5-881e3ebfd80e" d="M38.16,47.08h.05a.28.28,0,0,0,.27-.22c.08-.43.16-.86.25-1.28a.27.27,0,0,0-.21-.32.28.28,0,0,0-.33.21c-.09.43-.17.86-.25,1.29A.27.27,0,0,0,38.16,47.08Z"/>
          <path class="fde555d0-dbbb-4f60-86d5-881e3ebfd80e" d="M39.49,41.12h.07a.29.29,0,0,0,.27-.2c.11-.42.22-.84.34-1.26a.27.27,0,0,0-.19-.34.28.28,0,0,0-.34.19c-.12.42-.23.84-.35,1.27A.27.27,0,0,0,39.49,41.12Z"/>
          <path class="fde555d0-dbbb-4f60-86d5-881e3ebfd80e" d="M38.77,44.09h.06a.28.28,0,0,0,.27-.22c.1-.43.19-.85.3-1.27a.29.29,0,0,0-.21-.33.28.28,0,0,0-.33.21l-.3,1.27A.28.28,0,0,0,38.77,44.09Z"/>
          <path class="fde555d0-dbbb-4f60-86d5-881e3ebfd80e" d="M57.38,13.43a.29.29,0,0,0,.16,0c.36-.25.73-.48,1.1-.71a.26.26,0,0,0,.09-.37.28.28,0,0,0-.38-.09c-.38.23-.75.47-1.12.71a.28.28,0,0,0-.08.38A.28.28,0,0,0,57.38,13.43Z"/>
          <path class="fde555d0-dbbb-4f60-86d5-881e3ebfd80e" d="M129,39.84c.12.42.23.84.35,1.26a.28.28,0,0,0,.26.21h.07a.28.28,0,0,0,.2-.34c-.11-.42-.23-.84-.35-1.26a.26.26,0,0,0-.33-.19A.27.27,0,0,0,129,39.84Z"/>
          <path class="fde555d0-dbbb-4f60-86d5-881e3ebfd80e" d="M122.23,24.36a.26.26,0,0,0,.23.13.28.28,0,0,0,.15,0,.27.27,0,0,0,.08-.38c-.24-.37-.48-.74-.73-1.1a.28.28,0,0,0-.38-.07.28.28,0,0,0-.08.38Z"/>
          <path class="fde555d0-dbbb-4f60-86d5-881e3ebfd80e" d="M127.53,35.29a.28.28,0,0,0,.26.18.15.15,0,0,0,.09,0,.26.26,0,0,0,.17-.34l-.45-1.24a.29.29,0,0,0-.36-.16.29.29,0,0,0-.16.36Z"/>
          <path class="fde555d0-dbbb-4f60-86d5-881e3ebfd80e" d="M129.75,42.79l.3,1.27a.27.27,0,0,0,.27.21h.06a.27.27,0,0,0,.21-.32l-.3-1.28a.27.27,0,0,0-.33-.2A.28.28,0,0,0,129.75,42.79Z"/>
          <path class="fde555d0-dbbb-4f60-86d5-881e3ebfd80e" d="M128.49,38.18a.29.29,0,0,0,.27.19h.07A.28.28,0,0,0,129,38c-.13-.42-.26-.84-.4-1.25a.27.27,0,0,0-.35-.18.27.27,0,0,0-.17.34Z"/>
          <path class="fde555d0-dbbb-4f60-86d5-881e3ebfd80e" d="M126.44,32.45a.26.26,0,0,0,.25.17l.11,0a.28.28,0,0,0,.15-.36L126.43,31a.29.29,0,0,0-.37-.14.28.28,0,0,0-.14.36C126.1,31.65,126.27,32.05,126.44,32.45Z"/>
          <path class="fde555d0-dbbb-4f60-86d5-881e3ebfd80e" d="M123.79,27a.29.29,0,0,0,.25.14.31.31,0,0,0,.13,0,.28.28,0,0,0,.11-.37q-.33-.59-.66-1.14a.28.28,0,0,0-.48.27C123.36,26.21,123.58,26.59,123.79,27Z"/>
          <path class="fde555d0-dbbb-4f60-86d5-881e3ebfd80e" d="M125.19,29.67a.28.28,0,0,0,.25.16.27.27,0,0,0,.12,0,.26.26,0,0,0,.13-.36c-.19-.4-.39-.79-.58-1.18a.28.28,0,0,0-.5.25C124.81,28.89,125,29.28,125.19,29.67Z"/>
          <path class="fde555d0-dbbb-4f60-86d5-881e3ebfd80e" d="M130.41,45.76c.09.42.17.85.25,1.28a.28.28,0,0,0,.27.22h0a.27.27,0,0,0,.22-.32c-.08-.43-.16-.86-.25-1.29a.27.27,0,0,0-.32-.21A.27.27,0,0,0,130.41,45.76Z"/>
          <path class="fde555d0-dbbb-4f60-86d5-881e3ebfd80e" d="M132.35,60.85c0,.43.05.86.07,1.3a.28.28,0,0,0,.28.26h0a.28.28,0,0,0,.26-.29c0-.44-.05-.87-.07-1.31a.29.29,0,0,0-.3-.25A.27.27,0,0,0,132.35,60.85Z"/>
          <path class="fde555d0-dbbb-4f60-86d5-881e3ebfd80e" d="M132.77,63.6a.28.28,0,0,0-.26.29c0,.43,0,.86.05,1.3a.27.27,0,0,0,.27.27h0a.29.29,0,0,0,.27-.29c0-.43,0-.87-.05-1.31A.28.28,0,0,0,132.77,63.6Z"/>
          <path class="fde555d0-dbbb-4f60-86d5-881e3ebfd80e" d="M132.88,66.65h0a.29.29,0,0,0-.28.28l0,1.31a.28.28,0,0,0,.27.27h0a.28.28,0,0,0,.27-.28c0-.44,0-.88,0-1.31A.28.28,0,0,0,132.88,66.65Z"/>
          <path class="fde555d0-dbbb-4f60-86d5-881e3ebfd80e" d="M131,48.75l.21,1.29a.28.28,0,0,0,.27.23h0a.26.26,0,0,0,.23-.31q-.09-.64-.21-1.29a.26.26,0,0,0-.31-.22A.27.27,0,0,0,131,48.75Z"/>
          <path class="fde555d0-dbbb-4f60-86d5-881e3ebfd80e" d="M131.43,51.76c.07.43.12.86.18,1.29a.27.27,0,0,0,.27.24h0a.29.29,0,0,0,.24-.31l-.18-1.3a.28.28,0,0,0-.55.08Z"/>
          <path class="fde555d0-dbbb-4f60-86d5-881e3ebfd80e" d="M131.82,54.78c0,.43.09.86.13,1.3a.28.28,0,0,0,.28.24h0a.27.27,0,0,0,.25-.3c0-.43-.09-.87-.14-1.3a.27.27,0,0,0-.54.06Z"/>
          <path class="fde555d0-dbbb-4f60-86d5-881e3ebfd80e" d="M132.12,57.81c0,.43.07.86.11,1.3a.26.26,0,0,0,.27.25h0a.26.26,0,0,0,.25-.29c0-.44-.06-.87-.1-1.31a.28.28,0,1,0-.55.05Z"/>
          <path class="fde555d0-dbbb-4f60-86d5-881e3ebfd80e" d="M99.28,8.35c.42.08.85.18,1.28.28h.07a.29.29,0,0,0,.27-.21.28.28,0,0,0-.21-.33c-.43-.11-.87-.2-1.3-.29a.28.28,0,0,0-.11.54Z"/>
          <path class="fde555d0-dbbb-4f60-86d5-881e3ebfd80e" d="M100.69,164.51l-.64,1.14a.28.28,0,0,0,.11.37.32.32,0,0,0,.14,0,.25.25,0,0,0,.23-.14l.65-1.14a.28.28,0,0,0-.11-.37A.27.27,0,0,0,100.69,164.51Z"/>
          <path class="fde555d0-dbbb-4f60-86d5-881e3ebfd80e" d="M114.17,15.29a.26.26,0,0,0,.18.07.28.28,0,0,0,.21-.1.27.27,0,0,0,0-.39c-.35-.28-.69-.55-1-.81a.27.27,0,0,0-.38,0,.26.26,0,0,0,0,.38C113.49,14.75,113.83,15,114.17,15.29Z"/>
          <path class="fde555d0-dbbb-4f60-86d5-881e3ebfd80e" d="M110.62,12.78c.37.23.73.46,1.1.71a.28.28,0,0,0,.15,0,.27.27,0,0,0,.23-.12A.25.25,0,0,0,112,13c-.37-.25-.74-.49-1.12-.72a.28.28,0,0,0-.38.08A.28.28,0,0,0,110.62,12.78Z"/>
          <path class="fde555d0-dbbb-4f60-86d5-881e3ebfd80e" d="M116.46,17.31a.27.27,0,0,0,.19.08.32.32,0,0,0,.2-.08.28.28,0,0,0,0-.39c-.32-.31-.64-.61-1-.9a.28.28,0,0,0-.39,0,.27.27,0,0,0,0,.38Z"/>
          <path class="fde555d0-dbbb-4f60-86d5-881e3ebfd80e" d="M105.15,10.06l1.21.5a.23.23,0,0,0,.11,0,.29.29,0,0,0,.26-.16.28.28,0,0,0-.14-.36c-.42-.18-.83-.34-1.24-.5a.27.27,0,0,0-.2.5Z"/>
          <path class="fde555d0-dbbb-4f60-86d5-881e3ebfd80e" d="M102.25,9.08q.63.18,1.26.39h.09a.28.28,0,0,0,.26-.18.29.29,0,0,0-.18-.35c-.42-.14-.85-.27-1.27-.39a.27.27,0,0,0-.34.18A.28.28,0,0,0,102.25,9.08Z"/>
          <path class="fde555d0-dbbb-4f60-86d5-881e3ebfd80e" d="M108,11.3c.39.19.77.39,1.16.6a.22.22,0,0,0,.13,0,.27.27,0,0,0,.24-.14.27.27,0,0,0-.1-.37l-1.18-.62a.3.3,0,0,0-.38.12A.28.28,0,0,0,108,11.3Z"/>
          <path class="fde555d0-dbbb-4f60-86d5-881e3ebfd80e" d="M120.49,21.87a.27.27,0,0,0,.22.11.33.33,0,0,0,.16-.05.27.27,0,0,0,.06-.38c-.27-.36-.54-.71-.82-1.05a.27.27,0,0,0-.38,0,.26.26,0,0,0,0,.38Z"/>
          <path class="fde555d0-dbbb-4f60-86d5-881e3ebfd80e" d="M104,159a.29.29,0,0,0-.38.11l-.62,1.15a.27.27,0,0,0,.11.37.21.21,0,0,0,.13,0,.27.27,0,0,0,.24-.14l.63-1.15A.27.27,0,0,0,104,159Z"/>
          <path class="fde555d0-dbbb-4f60-86d5-881e3ebfd80e" d="M36.78,80.51a.27.27,0,0,0,.24-.3c-.05-.43-.09-.87-.14-1.3a.26.26,0,0,0-.3-.24.27.27,0,0,0-.25.29c.05.44.09.87.14,1.31a.28.28,0,0,0,.28.24Z"/>
          <path class="fde555d0-dbbb-4f60-86d5-881e3ebfd80e" d="M117.35,131.48a.28.28,0,0,0-.36.14l-.52,1.21a.26.26,0,0,0,.14.35.23.23,0,0,0,.11,0A.27.27,0,0,0,117,133l.52-1.2A.27.27,0,0,0,117.35,131.48Z"/>
          <path class="fde555d0-dbbb-4f60-86d5-881e3ebfd80e" d="M118.54,128.67a.28.28,0,0,0-.36.15l-.51,1.2a.28.28,0,0,0,.15.36l.11,0a.3.3,0,0,0,.25-.17l.51-1.21A.26.26,0,0,0,118.54,128.67Z"/>
          <path class="fde555d0-dbbb-4f60-86d5-881e3ebfd80e" d="M119,19.15c-.3-.33-.59-.65-.9-1a.27.27,0,0,0-.38,0,.27.27,0,0,0,0,.39c.3.31.59.63.88,1a.3.3,0,0,0,.21.1.29.29,0,0,0,.18-.07A.27.27,0,0,0,119,19.15Z"/>
          <path class="fde555d0-dbbb-4f60-86d5-881e3ebfd80e" d="M123,117.29a.28.28,0,0,0-.35.17l-.45,1.23a.26.26,0,0,0,.16.34.18.18,0,0,0,.1,0,.28.28,0,0,0,.26-.18l.45-1.23A.28.28,0,0,0,123,117.29Z"/>
          <path class="fde555d0-dbbb-4f60-86d5-881e3ebfd80e" d="M120.82,123a.29.29,0,0,0-.36.16c-.15.4-.31.81-.47,1.21a.28.28,0,0,0,.15.36h.1a.27.27,0,0,0,.26-.17l.48-1.21A.28.28,0,0,0,120.82,123Z"/>
          <path class="fde555d0-dbbb-4f60-86d5-881e3ebfd80e" d="M124,114.42a.27.27,0,0,0-.35.16c-.14.41-.29.83-.44,1.24a.27.27,0,0,0,.17.34.15.15,0,0,0,.09,0,.26.26,0,0,0,.26-.18c.15-.41.3-.83.44-1.24A.26.26,0,0,0,124,114.42Z"/>
          <path class="fde555d0-dbbb-4f60-86d5-881e3ebfd80e" d="M121.92,120.16a.29.29,0,0,0-.36.16c-.15.41-.3.82-.46,1.22a.27.27,0,0,0,.16.35.15.15,0,0,0,.09,0,.28.28,0,0,0,.26-.17c.16-.41.32-.82.47-1.23A.27.27,0,0,0,121.92,120.16Z"/>
          <path class="fde555d0-dbbb-4f60-86d5-881e3ebfd80e" d="M111,145.41a.27.27,0,0,0-.37.13l-.57,1.17a.27.27,0,0,0,.13.37.23.23,0,0,0,.12,0,.25.25,0,0,0,.24-.15l.58-1.18A.27.27,0,0,0,111,145.41Z"/>
          <path class="fde555d0-dbbb-4f60-86d5-881e3ebfd80e" d="M109.63,148.16a.27.27,0,0,0-.37.12l-.58,1.17a.27.27,0,0,0,.12.37.3.3,0,0,0,.37-.13l.59-1.17A.27.27,0,0,0,109.63,148.16Z"/>
          <path class="fde555d0-dbbb-4f60-86d5-881e3ebfd80e" d="M108.26,150.89a.28.28,0,0,0-.37.12c-.2.39-.4.78-.59,1.17a.27.27,0,0,0,.12.37l.12,0a.29.29,0,0,0,.25-.15l.6-1.17A.28.28,0,0,0,108.26,150.89Z"/>
          <path class="fde555d0-dbbb-4f60-86d5-881e3ebfd80e" d="M114.88,137.08a.28.28,0,0,0-.36.13l-.54,1.2a.26.26,0,0,0,.14.36.2.2,0,0,0,.11,0,.28.28,0,0,0,.25-.16l.54-1.19A.26.26,0,0,0,114.88,137.08Z"/>
          <path class="fde555d0-dbbb-4f60-86d5-881e3ebfd80e" d="M112.31,142.64a.28.28,0,0,0-.37.13c-.19.4-.38.79-.56,1.19a.26.26,0,0,0,.13.36.2.2,0,0,0,.11,0,.26.26,0,0,0,.25-.16l.57-1.19A.27.27,0,0,0,112.31,142.64Z"/>
          <path class="fde555d0-dbbb-4f60-86d5-881e3ebfd80e" d="M116.13,134.28a.28.28,0,0,0-.36.14c-.18.4-.36.8-.53,1.2a.26.26,0,0,0,.14.36.2.2,0,0,0,.11,0,.28.28,0,0,0,.25-.16c.18-.4.36-.8.53-1.2A.27.27,0,0,0,116.13,134.28Z"/>
          <path class="fde555d0-dbbb-4f60-86d5-881e3ebfd80e" d="M113.61,139.86a.29.29,0,0,0-.37.14c-.18.39-.37.79-.55,1.19a.26.26,0,0,0,.13.36.25.25,0,0,0,.12,0,.27.27,0,0,0,.25-.15l.55-1.2A.26.26,0,0,0,113.61,139.86Z"/>
          <path class="fde555d0-dbbb-4f60-86d5-881e3ebfd80e" d="M130,93.9a.28.28,0,0,0-.33.2c-.09.43-.19.85-.29,1.27a.27.27,0,0,0,.2.33h.07a.27.27,0,0,0,.26-.21l.3-1.28A.26.26,0,0,0,130,93.9Z"/>
          <path class="fde555d0-dbbb-4f60-86d5-881e3ebfd80e" d="M132.5,78.85a.27.27,0,0,0-.3.24c0,.43-.09.87-.14,1.3a.29.29,0,0,0,.25.3h0a.26.26,0,0,0,.27-.24c0-.44.1-.87.14-1.3A.27.27,0,0,0,132.5,78.85Z"/>
          <path class="fde555d0-dbbb-4f60-86d5-881e3ebfd80e" d="M125,111.52a.29.29,0,0,0-.35.18c-.13.41-.28.82-.42,1.24a.27.27,0,0,0,.17.34l.1,0a.27.27,0,0,0,.25-.19c.15-.41.29-.83.43-1.24A.28.28,0,0,0,125,111.52Z"/>
          <path class="fde555d0-dbbb-4f60-86d5-881e3ebfd80e" d="M131.73,84.9a.27.27,0,0,0-.31.23l-.21,1.29a.26.26,0,0,0,.23.31h0a.28.28,0,0,0,.27-.23c.08-.43.15-.87.21-1.3A.27.27,0,0,0,131.73,84.9Z"/>
          <path class="fde555d0-dbbb-4f60-86d5-881e3ebfd80e" d="M132.75,75.81a.27.27,0,0,0-.29.25c0,.43-.06.86-.1,1.3a.27.27,0,0,0,.25.29h0a.26.26,0,0,0,.27-.25c0-.43.07-.87.1-1.3A.27.27,0,0,0,132.75,75.81Z"/>
          <path class="fde555d0-dbbb-4f60-86d5-881e3ebfd80e" d="M133.2,70a.29.29,0,0,0-.28-.28h0a.29.29,0,0,0-.28.28v.66c0,.22,0,.43,0,.64a.28.28,0,0,0,.28.28h0a.28.28,0,0,0,.28-.27V70Z"/>
          <path class="fde555d0-dbbb-4f60-86d5-881e3ebfd80e" d="M131.23,87.91a.28.28,0,0,0-.32.22l-.24,1.29a.27.27,0,0,0,.21.32h.06a.28.28,0,0,0,.27-.22l.24-1.29A.27.27,0,0,0,131.23,87.91Z"/>
          <path class="fde555d0-dbbb-4f60-86d5-881e3ebfd80e" d="M132.89,72.76a.26.26,0,0,0-.28.26c0,.43,0,.87-.05,1.3a.28.28,0,0,0,.26.29h0a.28.28,0,0,0,.28-.26c0-.44,0-.88,0-1.31A.27.27,0,0,0,132.89,72.76Z"/>
          <path class="fde555d0-dbbb-4f60-86d5-881e3ebfd80e" d="M132.16,81.88a.26.26,0,0,0-.3.24l-.18,1.29a.27.27,0,0,0,.23.31h0a.28.28,0,0,0,.28-.24c.06-.43.12-.86.17-1.29A.28.28,0,0,0,132.16,81.88Z"/>
          <path class="fde555d0-dbbb-4f60-86d5-881e3ebfd80e" d="M126.86,105.7a.28.28,0,0,0-.34.19l-.39,1.25a.28.28,0,0,0,.18.34h.09a.29.29,0,0,0,.26-.19c.13-.42.26-.84.38-1.26A.27.27,0,0,0,126.86,105.7Z"/>
          <path class="fde555d0-dbbb-4f60-86d5-881e3ebfd80e" d="M130.65,90.91a.28.28,0,0,0-.33.21c-.09.43-.17.86-.27,1.28a.28.28,0,0,0,.21.33h.06a.28.28,0,0,0,.27-.21l.27-1.29A.26.26,0,0,0,130.65,90.91Z"/>
          <path class="fde555d0-dbbb-4f60-86d5-881e3ebfd80e" d="M127.72,102.77a.28.28,0,0,0-.34.19l-.36,1.26a.27.27,0,0,0,.18.33h.08a.28.28,0,0,0,.27-.19l.36-1.26A.26.26,0,0,0,127.72,102.77Z"/>
          <path class="fde555d0-dbbb-4f60-86d5-881e3ebfd80e" d="M126,108.62a.27.27,0,0,0-.34.18c-.14.41-.27.83-.41,1.24a.29.29,0,0,0,.18.35h.08a.29.29,0,0,0,.27-.19c.13-.42.27-.83.4-1.25A.27.27,0,0,0,126,108.62Z"/>
          <path class="fde555d0-dbbb-4f60-86d5-881e3ebfd80e" d="M106.87,153.62a.27.27,0,0,0-.37.11c-.21.39-.4.78-.61,1.17a.26.26,0,0,0,.12.36.31.31,0,0,0,.13,0,.27.27,0,0,0,.24-.14L107,154A.27.27,0,0,0,106.87,153.62Z"/>
          <path class="fde555d0-dbbb-4f60-86d5-881e3ebfd80e" d="M128.54,99.83a.28.28,0,0,0-.34.19c-.11.42-.23.84-.35,1.26a.28.28,0,0,0,.2.34h.07a.29.29,0,0,0,.27-.2c.12-.43.23-.85.34-1.27A.27.27,0,0,0,128.54,99.83Z"/>
          <path class="fde555d0-dbbb-4f60-86d5-881e3ebfd80e" d="M129.3,96.87a.28.28,0,0,0-.34.2c-.1.42-.21.84-.32,1.26a.28.28,0,0,0,.2.34h.07a.28.28,0,0,0,.27-.2c.11-.42.22-.85.32-1.27A.26.26,0,0,0,129.3,96.87Z"/>
          <path class="fde555d0-dbbb-4f60-86d5-881e3ebfd80e" d="M119.7,125.84a.29.29,0,0,0-.36.16c-.17.4-.33.8-.5,1.21a.28.28,0,0,0,.15.35l.11,0a.28.28,0,0,0,.26-.17l.49-1.21A.28.28,0,0,0,119.7,125.84Z"/>
          <path class="fde555d0-dbbb-4f60-86d5-881e3ebfd80e" d="M43.85,109.87l-.41-1.25a.27.27,0,0,0-.52.17c.13.41.27.83.4,1.25a.29.29,0,0,0,.26.19l.09,0A.28.28,0,0,0,43.85,109.87Z"/>
          <path class="fde555d0-dbbb-4f60-86d5-881e3ebfd80e" d="M42.92,107l-.39-1.25a.27.27,0,0,0-.34-.18.27.27,0,0,0-.18.34c.12.41.25.83.38,1.25a.28.28,0,0,0,.26.19h.09A.27.27,0,0,0,42.92,107Z"/>
          <path class="fde555d0-dbbb-4f60-86d5-881e3ebfd80e" d="M44.39,111.52a.27.27,0,0,0-.35-.17.28.28,0,0,0-.17.35l.42,1.24a.28.28,0,0,0,.26.18h.09a.28.28,0,0,0,.17-.35Z"/>
          <path class="fde555d0-dbbb-4f60-86d5-881e3ebfd80e" d="M105.45,156.33a.28.28,0,0,0-.37.11l-.61,1.16a.27.27,0,0,0,.11.37.31.31,0,0,0,.13,0,.27.27,0,0,0,.24-.14l.62-1.17A.26.26,0,0,0,105.45,156.33Z"/>
          <path class="fde555d0-dbbb-4f60-86d5-881e3ebfd80e" d="M48.57,123a.27.27,0,0,0-.35-.16.28.28,0,0,0-.16.36l.48,1.22a.29.29,0,0,0,.26.17l.1,0a.26.26,0,0,0,.15-.35Z"/>
          <path class="fde555d0-dbbb-4f60-86d5-881e3ebfd80e" d="M45.38,114.41a.28.28,0,0,0-.35-.17.28.28,0,0,0-.17.35c.15.41.29.82.44,1.24a.28.28,0,0,0,.26.18l.09,0a.26.26,0,0,0,.17-.34C45.67,115.23,45.53,114.82,45.38,114.41Z"/>
          <path class="fde555d0-dbbb-4f60-86d5-881e3ebfd80e" d="M46.41,117.29a.27.27,0,0,0-.35-.17.28.28,0,0,0-.17.35c.15.41.3.82.46,1.23a.27.27,0,0,0,.25.18.16.16,0,0,0,.1,0,.26.26,0,0,0,.16-.35Z"/>
          <path class="fde555d0-dbbb-4f60-86d5-881e3ebfd80e" d="M47.48,120.15a.29.29,0,0,0-.36-.16.27.27,0,0,0-.16.35c.15.41.31.82.47,1.23a.28.28,0,0,0,.26.17.15.15,0,0,0,.09,0,.26.26,0,0,0,.16-.35C47.78,121,47.63,120.56,47.48,120.15Z"/>
          <path class="fde555d0-dbbb-4f60-86d5-881e3ebfd80e" d="M41.2,101.11c-.11-.42-.23-.84-.34-1.26a.29.29,0,0,0-.34-.2.27.27,0,0,0-.19.33c.11.43.22.85.34,1.27a.27.27,0,0,0,.27.2H41A.27.27,0,0,0,41.2,101.11Z"/>
          <path class="fde555d0-dbbb-4f60-86d5-881e3ebfd80e" d="M38.41,89.24c-.08-.43-.17-.86-.24-1.28a.28.28,0,0,0-.32-.22.27.27,0,0,0-.23.31l.24,1.29a.29.29,0,0,0,.28.22h0A.28.28,0,0,0,38.41,89.24Z"/>
          <path class="fde555d0-dbbb-4f60-86d5-881e3ebfd80e" d="M37.17,83.54a.27.27,0,0,0,.23-.31c-.06-.43-.12-.86-.17-1.29a.28.28,0,1,0-.55.07c.06.43.11.86.18,1.3a.27.27,0,0,0,.27.23Z"/>
          <path class="fde555d0-dbbb-4f60-86d5-881e3ebfd80e" d="M37.87,86.24c-.08-.43-.14-.86-.21-1.29a.28.28,0,0,0-.32-.23.27.27,0,0,0-.22.32c.06.42.13.86.2,1.29a.29.29,0,0,0,.27.23h0A.27.27,0,0,0,37.87,86.24Z"/>
          <path class="fde555d0-dbbb-4f60-86d5-881e3ebfd80e" d="M40.42,98.16c-.11-.42-.22-.85-.32-1.27a.29.29,0,0,0-.34-.2.28.28,0,0,0-.2.33c.11.43.21.85.32,1.27a.28.28,0,0,0,.27.21h.07A.28.28,0,0,0,40.42,98.16Z"/>
          <path class="fde555d0-dbbb-4f60-86d5-881e3ebfd80e" d="M39,92.23c-.09-.43-.18-.86-.26-1.28a.29.29,0,0,0-.33-.22.28.28,0,0,0-.21.33c.08.42.17.85.27,1.28a.26.26,0,0,0,.26.21h.06A.26.26,0,0,0,39,92.23Z"/>
          <path class="fde555d0-dbbb-4f60-86d5-881e3ebfd80e" d="M39.68,95.2c-.09-.43-.19-.85-.29-1.27a.28.28,0,0,0-.54.12l.3,1.27a.27.27,0,0,0,.27.21h.06A.27.27,0,0,0,39.68,95.2Z"/>
          <path class="fde555d0-dbbb-4f60-86d5-881e3ebfd80e" d="M42,104c-.13-.42-.25-.84-.37-1.26a.28.28,0,0,0-.53.15c.12.42.24.84.37,1.26a.27.27,0,0,0,.26.2h.08A.28.28,0,0,0,42,104Z"/>
          <path class="fde555d0-dbbb-4f60-86d5-881e3ebfd80e" d="M61.13,150.85a.28.28,0,0,0-.37-.12.28.28,0,0,0-.12.37l.59,1.16a.27.27,0,0,0,.25.15.27.27,0,0,0,.12,0,.27.27,0,0,0,.13-.36Z"/>
          <path class="fde555d0-dbbb-4f60-86d5-881e3ebfd80e" d="M49.7,125.84a.27.27,0,0,0-.36-.15.26.26,0,0,0-.15.35l.49,1.21a.28.28,0,0,0,.26.17.22.22,0,0,0,.11,0,.27.27,0,0,0,.15-.35C50,126.65,49.87,126.24,49.7,125.84Z"/>
          <path class="fde555d0-dbbb-4f60-86d5-881e3ebfd80e" d="M58.42,145.39a.28.28,0,0,0-.37-.13.29.29,0,0,0-.13.37l.58,1.17a.27.27,0,0,0,.25.16l.12,0a.28.28,0,0,0,.13-.36Z"/>
          <path class="fde555d0-dbbb-4f60-86d5-881e3ebfd80e" d="M62.52,153.57a.28.28,0,0,0-.49.25l.61,1.16a.26.26,0,0,0,.24.15.31.31,0,0,0,.13,0,.28.28,0,0,0,.12-.37C62.92,154.35,62.72,154,62.52,153.57Z"/>
          <path class="fde555d0-dbbb-4f60-86d5-881e3ebfd80e" d="M63.94,156.28a.29.29,0,0,0-.37-.12.27.27,0,0,0-.12.37c.2.39.41.78.62,1.16a.26.26,0,0,0,.24.15.31.31,0,0,0,.13,0,.28.28,0,0,0,.11-.37Z"/>
          <path class="fde555d0-dbbb-4f60-86d5-881e3ebfd80e" d="M102.55,161.72a.28.28,0,0,0-.37.11c-.21.38-.42.77-.64,1.15a.28.28,0,0,0,.11.37.35.35,0,0,0,.14,0,.28.28,0,0,0,.24-.14l.63-1.15A.26.26,0,0,0,102.55,161.72Z"/>
          <path class="fde555d0-dbbb-4f60-86d5-881e3ebfd80e" d="M65.76,160.54a.33.33,0,0,0,.13,0,.27.27,0,0,0,.11-.37L65.38,159a.29.29,0,0,0-.38-.11.27.27,0,0,0-.11.37l.63,1.15A.27.27,0,0,0,65.76,160.54Z"/>
          <path class="fde555d0-dbbb-4f60-86d5-881e3ebfd80e" d="M59.77,148.13a.28.28,0,0,0-.37-.13.27.27,0,0,0-.13.37c.2.39.39.78.58,1.17a.27.27,0,0,0,.25.15.24.24,0,0,0,.12,0,.26.26,0,0,0,.13-.36C60.15,148.91,60,148.52,59.77,148.13Z"/>
          <path class="fde555d0-dbbb-4f60-86d5-881e3ebfd80e" d="M52.06,131.49a.28.28,0,0,0-.51.21c.17.4.35.8.52,1.21a.29.29,0,0,0,.26.16.18.18,0,0,0,.1,0,.28.28,0,0,0,.15-.36C52.4,132.29,52.23,131.89,52.06,131.49Z"/>
          <path class="fde555d0-dbbb-4f60-86d5-881e3ebfd80e" d="M50.86,128.66a.28.28,0,0,0-.36-.15.27.27,0,0,0-.14.36c.16.41.33.81.5,1.21a.28.28,0,0,0,.26.17.18.18,0,0,0,.1,0,.27.27,0,0,0,.15-.36Z"/>
          <path class="fde555d0-dbbb-4f60-86d5-881e3ebfd80e" d="M50.66,19.38c.29-.33.59-.65.89-1a.27.27,0,0,0,0-.39.27.27,0,0,0-.38,0c-.31.32-.61.65-.9,1a.27.27,0,0,0,0,.38.28.28,0,0,0,.39,0Z"/>
          <path class="fde555d0-dbbb-4f60-86d5-881e3ebfd80e" d="M54.53,137.09a.27.27,0,0,0-.36-.14.26.26,0,0,0-.14.36l.54,1.2a.28.28,0,0,0,.25.16.2.2,0,0,0,.11,0,.27.27,0,0,0,.14-.36Z"/>
          <path class="fde555d0-dbbb-4f60-86d5-881e3ebfd80e" d="M55.8,139.87a.26.26,0,0,0-.36-.13.27.27,0,0,0-.14.36l.56,1.19a.26.26,0,0,0,.25.16l.11,0a.27.27,0,0,0,.14-.36Z"/>
          <path class="fde555d0-dbbb-4f60-86d5-881e3ebfd80e" d="M57.1,142.64a.27.27,0,0,0-.37-.13.28.28,0,0,0-.13.36l.57,1.18a.26.26,0,0,0,.25.16.23.23,0,0,0,.11,0,.26.26,0,0,0,.13-.36Z"/>
          <path class="fde555d0-dbbb-4f60-86d5-881e3ebfd80e" d="M53.28,134.3a.28.28,0,0,0-.36-.15.26.26,0,0,0-.14.36c.17.4.35.8.53,1.2a.27.27,0,0,0,.25.17.2.2,0,0,0,.11,0,.26.26,0,0,0,.14-.36Z"/>
        </g>
      </g>
      <g>
        <path class="fde555d0-dbbb-4f60-86d5-881e3ebfd80e" d="M58.39,58.56h0a.27.27,0,0,0,.27-.26L58.74,57a.28.28,0,0,0-.55,0l-.06,1.3A.28.28,0,0,0,58.39,58.56Z"/>
        <path class="fde555d0-dbbb-4f60-86d5-881e3ebfd80e" d="M58.28,61.61h0a.27.27,0,0,0,.27-.27c0-.43,0-.87,0-1.3a.27.27,0,0,0-.27-.28.26.26,0,0,0-.28.26c0,.43,0,.87-.05,1.31A.28.28,0,0,0,58.28,61.61Z"/>
        <path class="fde555d0-dbbb-4f60-86d5-881e3ebfd80e" d="M58.54,55.51h0a.27.27,0,0,0,.27-.26c0-.43.06-.87.08-1.3a.27.27,0,0,0-.26-.29.28.28,0,0,0-.29.25c0,.44,0,.87-.08,1.31A.28.28,0,0,0,58.54,55.51Z"/>
        <path class="fde555d0-dbbb-4f60-86d5-881e3ebfd80e" d="M58.15,67.71h0a.27.27,0,0,0,.27-.27c0-.44,0-.87,0-1.31a.28.28,0,0,0-.55,0c0,.44,0,.87,0,1.31A.28.28,0,0,0,58.15,67.71Z"/>
        <path class="fde555d0-dbbb-4f60-86d5-881e3ebfd80e" d="M62.18,28.32h.07a.28.28,0,0,0,.26-.21c.11-.43.21-.85.32-1.27a.27.27,0,1,0-.53-.13c-.11.42-.22.84-.32,1.27A.27.27,0,0,0,62.18,28.32Z"/>
        <path class="fde555d0-dbbb-4f60-86d5-881e3ebfd80e" d="M58.73,52.46h0a.27.27,0,0,0,.28-.25l.09-1.3a.26.26,0,0,0-.25-.29.28.28,0,0,0-.3.25l-.09,1.3A.27.27,0,0,0,58.73,52.46Z"/>
        <path class="fde555d0-dbbb-4f60-86d5-881e3ebfd80e" d="M58.15,73.81h0a.27.27,0,0,0,.27-.27c0-.44,0-.87,0-1.31a.27.27,0,0,0-.27-.27h0a.27.27,0,0,0-.28.27c0,.44,0,.88,0,1.31A.27.27,0,0,0,58.15,73.81Z"/>
        <path class="fde555d0-dbbb-4f60-86d5-881e3ebfd80e" d="M58.2,64.66h0a.27.27,0,0,0,.27-.27l0-1.3a.26.26,0,0,0-.26-.28.28.28,0,0,0-.29.26l0,1.31A.28.28,0,0,0,58.2,64.66Z"/>
        <path class="fde555d0-dbbb-4f60-86d5-881e3ebfd80e" d="M59,49.42h0a.28.28,0,0,0,.28-.25c0-.43.07-.87.11-1.3a.28.28,0,0,0-.55,0l-.12,1.31A.27.27,0,0,0,59,49.42Z"/>
        <path class="fde555d0-dbbb-4f60-86d5-881e3ebfd80e" d="M61.51,31.3h.06a.29.29,0,0,0,.27-.21c.09-.43.18-.86.28-1.28a.28.28,0,0,0-.22-.32.27.27,0,0,0-.33.2L61.3,31A.27.27,0,0,0,61.51,31.3Z"/>
        <path class="fde555d0-dbbb-4f60-86d5-881e3ebfd80e" d="M60.41,37.3h0a.27.27,0,0,0,.27-.23c.07-.43.14-.86.22-1.28a.28.28,0,0,0-.55-.09q-.11.63-.21,1.29A.27.27,0,0,0,60.41,37.3Z"/>
        <path class="fde555d0-dbbb-4f60-86d5-881e3ebfd80e" d="M60.92,34.29h0a.28.28,0,0,0,.27-.23c.08-.43.16-.86.25-1.28a.27.27,0,0,0-.22-.32.28.28,0,0,0-.33.22L60.7,34A.27.27,0,0,0,60.92,34.29Z"/>
        <path class="fde555d0-dbbb-4f60-86d5-881e3ebfd80e" d="M59.24,46.38h0a.28.28,0,0,0,.28-.24c0-.44.09-.87.13-1.3a.27.27,0,0,0-.24-.3.26.26,0,0,0-.3.24c0,.43-.1.87-.14,1.3A.26.26,0,0,0,59.24,46.38Z"/>
        <path class="fde555d0-dbbb-4f60-86d5-881e3ebfd80e" d="M59.57,43.35h0a.27.27,0,0,0,.27-.24c0-.44.11-.87.16-1.3a.27.27,0,0,0-.24-.3.28.28,0,0,0-.31.24c-.05.43-.1.86-.16,1.3A.28.28,0,0,0,59.57,43.35Z"/>
        <path class="fde555d0-dbbb-4f60-86d5-881e3ebfd80e" d="M60,40.32h0a.28.28,0,0,0,.27-.23l.18-1.3a.26.26,0,0,0-.23-.3.27.27,0,0,0-.31.23c-.07.43-.13.86-.19,1.29A.28.28,0,0,0,60,40.32Z"/>
        <path class="fde555d0-dbbb-4f60-86d5-881e3ebfd80e" d="M58.14,70.76h0a.27.27,0,0,0,.27-.27c0-.44,0-.87,0-1.31a.27.27,0,0,0-.28-.27h0a.27.27,0,0,0-.27.27c0,.43,0,.87,0,1.31A.27.27,0,0,0,58.14,70.76Z"/>
        <path class="fde555d0-dbbb-4f60-86d5-881e3ebfd80e" d="M60.3,101.22a.26.26,0,0,0,.24-.3c0-.44-.11-.87-.17-1.3a.28.28,0,0,0-.3-.24.27.27,0,0,0-.24.31c.05.43.11.86.17,1.3a.27.27,0,0,0,.27.23Z"/>
        <path class="fde555d0-dbbb-4f60-86d5-881e3ebfd80e" d="M61.18,107.25a.27.27,0,0,0,.23-.31c-.06-.43-.13-.86-.19-1.29a.3.3,0,0,0-.32-.23.28.28,0,0,0-.23.31c.06.44.13.87.2,1.3a.27.27,0,0,0,.27.23Z"/>
        <path class="fde555d0-dbbb-4f60-86d5-881e3ebfd80e" d="M60.73,104.24a.27.27,0,0,0,.23-.31l-.18-1.29a.27.27,0,0,0-.31-.23.28.28,0,0,0-.24.3c.06.44.12.87.19,1.3a.26.26,0,0,0,.27.23Z"/>
        <path class="fde555d0-dbbb-4f60-86d5-881e3ebfd80e" d="M61.89,110l-.21-1.29a.27.27,0,1,0-.54.09c.06.42.13.85.21,1.28a.26.26,0,0,0,.27.23h0A.28.28,0,0,0,61.89,110Z"/>
        <path class="fde555d0-dbbb-4f60-86d5-881e3ebfd80e" d="M63.5,119c-.08-.43-.16-.86-.25-1.29a.27.27,0,0,0-.54.1c.08.43.17.86.25,1.29a.27.27,0,0,0,.27.22h.05A.26.26,0,0,0,63.5,119Z"/>
        <path class="fde555d0-dbbb-4f60-86d5-881e3ebfd80e" d="M62.93,116c-.07-.43-.15-.86-.23-1.29a.27.27,0,1,0-.54.1c.08.43.15.86.23,1.28a.28.28,0,0,0,.27.23h.05A.26.26,0,0,0,62.93,116Z"/>
        <path class="fde555d0-dbbb-4f60-86d5-881e3ebfd80e" d="M62.4,113c-.08-.42-.15-.85-.22-1.28a.28.28,0,1,0-.55.09c.08.43.15.86.22,1.29a.28.28,0,0,0,.28.22h0A.29.29,0,0,0,62.4,113Z"/>
        <path class="fde555d0-dbbb-4f60-86d5-881e3ebfd80e" d="M59.92,98.19a.27.27,0,0,0,.24-.3c-.06-.43-.11-.86-.16-1.3a.28.28,0,0,0-.3-.24.29.29,0,0,0-.25.31c0,.43.11.86.16,1.3a.27.27,0,0,0,.27.24Z"/>
        <path class="fde555d0-dbbb-4f60-86d5-881e3ebfd80e" d="M58.5,83a.27.27,0,0,0,.26-.29c0-.43,0-.87-.07-1.3a.27.27,0,0,0-.29-.26.28.28,0,0,0-.26.29c0,.43,0,.87.07,1.31a.27.27,0,0,0,.28.25Z"/>
        <path class="fde555d0-dbbb-4f60-86d5-881e3ebfd80e" d="M58.33,79.92h0a.27.27,0,0,0,.27-.28l-.06-1.31a.27.27,0,0,0-.28-.26.28.28,0,0,0-.27.29c0,.43,0,.87,0,1.3A.28.28,0,0,0,58.33,79.92Z"/>
        <path class="fde555d0-dbbb-4f60-86d5-881e3ebfd80e" d="M58.22,76.87h0a.27.27,0,0,0,.27-.28l0-1.31a.28.28,0,0,0-.55,0l0,1.31A.28.28,0,0,0,58.22,76.87Z"/>
        <path class="fde555d0-dbbb-4f60-86d5-881e3ebfd80e" d="M58.71,86a.28.28,0,0,0,.26-.29c0-.44-.07-.87-.1-1.31a.26.26,0,0,0-.29-.25.28.28,0,0,0-.26.29l.09,1.31a.28.28,0,0,0,.28.25Z"/>
        <path class="fde555d0-dbbb-4f60-86d5-881e3ebfd80e" d="M59.56,95.16a.27.27,0,0,0,.24-.3c0-.43-.09-.87-.14-1.3a.26.26,0,0,0-.3-.24.26.26,0,0,0-.24.29c0,.44.09.87.14,1.31a.26.26,0,0,0,.27.24Z"/>
        <path class="fde555d0-dbbb-4f60-86d5-881e3ebfd80e" d="M59,89.07a.27.27,0,0,0,.26-.29c0-.44-.08-.87-.11-1.31a.28.28,0,0,0-.3-.25.27.27,0,0,0-.25.29c0,.44.07.88.11,1.31a.26.26,0,0,0,.27.25Z"/>
        <path class="fde555d0-dbbb-4f60-86d5-881e3ebfd80e" d="M59.24,92.12a.29.29,0,0,0,.25-.3c0-.43-.09-.87-.13-1.3a.28.28,0,0,0-.55,0c0,.43.09.87.13,1.3a.27.27,0,0,0,.27.25Z"/>
        <path class="fde555d0-dbbb-4f60-86d5-881e3ebfd80e" d="M108.49,37.78c.07.43.14.86.2,1.29a.28.28,0,0,0,.27.24h0a.28.28,0,0,0,.24-.31c-.07-.43-.13-.86-.2-1.29a.27.27,0,0,0-.31-.23A.28.28,0,0,0,108.49,37.78Z"/>
        <path class="fde555d0-dbbb-4f60-86d5-881e3ebfd80e" d="M108.93,40.8c.06.42.11.86.17,1.29a.28.28,0,0,0,.27.24h0a.28.28,0,0,0,.24-.31c-.06-.43-.11-.87-.17-1.3a.28.28,0,0,0-.55.08Z"/>
        <path class="fde555d0-dbbb-4f60-86d5-881e3ebfd80e" d="M109.31,43.82c0,.43.09.86.14,1.3a.28.28,0,0,0,.28.24h0a.27.27,0,0,0,.24-.3c0-.44-.09-.87-.14-1.3a.29.29,0,0,0-.31-.24A.27.27,0,0,0,109.31,43.82Z"/>
        <path class="fde555d0-dbbb-4f60-86d5-881e3ebfd80e" d="M108,34.78c.08.42.16.85.23,1.28a.27.27,0,0,0,.27.23h.05a.27.27,0,0,0,.22-.32c-.07-.43-.15-.86-.22-1.29a.27.27,0,0,0-.32-.22A.29.29,0,0,0,108,34.78Z"/>
        <path class="fde555d0-dbbb-4f60-86d5-881e3ebfd80e" d="M109.63,46.85l.12,1.3a.27.27,0,0,0,.28.25h0a.29.29,0,0,0,.25-.3l-.12-1.3a.28.28,0,0,0-.55.05Z"/>
        <path class="fde555d0-dbbb-4f60-86d5-881e3ebfd80e" d="M106.76,28.81c.1.42.2.85.29,1.27a.28.28,0,0,0,.27.22h.06a.27.27,0,0,0,.21-.32c-.1-.43-.19-.86-.29-1.28a.27.27,0,0,0-.33-.2A.26.26,0,0,0,106.76,28.81Z"/>
        <path class="fde555d0-dbbb-4f60-86d5-881e3ebfd80e" d="M107.42,31.79c.09.42.17.84.25,1.28a.29.29,0,0,0,.27.22H108a.28.28,0,0,0,.22-.32c-.09-.43-.17-.86-.26-1.28a.28.28,0,0,0-.33-.22A.28.28,0,0,0,107.42,31.79Z"/>
        <path class="fde555d0-dbbb-4f60-86d5-881e3ebfd80e" d="M110.72,58.73a.27.27,0,0,0-.26.28c0,.44,0,.87,0,1.31a.28.28,0,0,0,.28.26h0a.28.28,0,0,0,.27-.28c0-.44,0-.88,0-1.31A.27.27,0,0,0,110.72,58.73Z"/>
        <path class="fde555d0-dbbb-4f60-86d5-881e3ebfd80e" d="M110.84,61.78h0a.28.28,0,0,0-.27.28c0,.43,0,.87,0,1.31a.27.27,0,0,0,.27.26h0a.27.27,0,0,0,.27-.28l0-1.31A.28.28,0,0,0,110.84,61.78Z"/>
        <path class="fde555d0-dbbb-4f60-86d5-881e3ebfd80e" d="M63,25.36H63a.29.29,0,0,0,.27-.2l.36-1.25a.28.28,0,0,0-.18-.34.29.29,0,0,0-.35.19L62.76,25A.27.27,0,0,0,63,25.36Z"/>
        <path class="fde555d0-dbbb-4f60-86d5-881e3ebfd80e" d="M111,67.88h0a.28.28,0,0,0-.27.28c0,.43,0,.86,0,1.3a.28.28,0,0,0,.28.27h0a.27.27,0,0,0,.27-.27c0-.44,0-.87,0-1.31A.27.27,0,0,0,111,67.88Z"/>
        <path class="fde555d0-dbbb-4f60-86d5-881e3ebfd80e" d="M110.91,64.83a.28.28,0,0,0-.27.28l0,1.3a.28.28,0,0,0,.28.27h0a.27.27,0,0,0,.27-.27l0-1.31A.27.27,0,0,0,110.91,64.83Z"/>
        <path class="fde555d0-dbbb-4f60-86d5-881e3ebfd80e" d="M110.13,52.93c0,.43.05.86.08,1.3a.27.27,0,0,0,.28.25h0a.27.27,0,0,0,.26-.28c0-.44-.05-.88-.08-1.31a.27.27,0,0,0-.3-.25A.26.26,0,0,0,110.13,52.93Z"/>
        <path class="fde555d0-dbbb-4f60-86d5-881e3ebfd80e" d="M106,25.86l.33,1.26a.28.28,0,0,0,.27.21h.07a.27.27,0,0,0,.2-.33c-.11-.43-.22-.85-.34-1.27a.28.28,0,0,0-.34-.19A.27.27,0,0,0,106,25.86Z"/>
        <path class="fde555d0-dbbb-4f60-86d5-881e3ebfd80e" d="M110.31,56c0,.43,0,.86.07,1.3a.27.27,0,0,0,.27.26h0a.27.27,0,0,0,.26-.28c0-.44,0-.88-.07-1.31a.28.28,0,0,0-.29-.26A.28.28,0,0,0,110.31,56Z"/>
        <path class="fde555d0-dbbb-4f60-86d5-881e3ebfd80e" d="M109.9,49.89c0,.43.07.86.1,1.3a.29.29,0,0,0,.28.25h0a.26.26,0,0,0,.25-.29c0-.44-.06-.88-.1-1.31a.28.28,0,0,0-.55,0Z"/>
        <path class="fde555d0-dbbb-4f60-86d5-881e3ebfd80e" d="M68.76,11.28a.25.25,0,0,0,.14,0,.26.26,0,0,0,.24-.13c.23-.38.47-.74.71-1.09a.27.27,0,0,0-.46-.3q-.36.52-.72,1.11A.27.27,0,0,0,68.76,11.28Z"/>
        <path class="fde555d0-dbbb-4f60-86d5-881e3ebfd80e" d="M64.09,122c-.09-.43-.17-.85-.26-1.28a.27.27,0,0,0-.54.1c.09.43.17.86.26,1.29a.27.27,0,0,0,.27.22h0A.27.27,0,0,0,64.09,122Z"/>
        <path class="fde555d0-dbbb-4f60-86d5-881e3ebfd80e" d="M66,16.71a.23.23,0,0,0,.11,0,.26.26,0,0,0,.25-.17c.18-.4.36-.79.55-1.18a.27.27,0,0,0-.14-.36.26.26,0,0,0-.36.13c-.19.39-.37.79-.55,1.2A.26.26,0,0,0,66,16.71Z"/>
        <path class="fde555d0-dbbb-4f60-86d5-881e3ebfd80e" d="M63.82,22.44h.09a.28.28,0,0,0,.26-.19L64.59,21a.27.27,0,0,0-.18-.34.28.28,0,0,0-.35.17l-.42,1.24A.29.29,0,0,0,63.82,22.44Z"/>
        <path class="fde555d0-dbbb-4f60-86d5-881e3ebfd80e" d="M64.82,19.55l.1,0a.28.28,0,0,0,.26-.18c.15-.41.31-.82.47-1.22a.27.27,0,0,0-.15-.35.28.28,0,0,0-.36.15c-.16.41-.32.81-.48,1.23A.27.27,0,0,0,64.82,19.55Z"/>
        <path class="fde555d0-dbbb-4f60-86d5-881e3ebfd80e" d="M103.56,18.43a.28.28,0,0,0,.26.18l.1,0a.27.27,0,0,0,.15-.36c-.16-.41-.33-.81-.5-1.21a.27.27,0,1,0-.5.21Z"/>
        <path class="fde555d0-dbbb-4f60-86d5-881e3ebfd80e" d="M102.36,15.64a.28.28,0,0,0,.25.16.2.2,0,0,0,.11,0,.27.27,0,0,0,.14-.36c-.19-.4-.38-.8-.57-1.18a.28.28,0,0,0-.37-.13.28.28,0,0,0-.13.37C102,14.85,102.17,15.24,102.36,15.64Z"/>
        <path class="fde555d0-dbbb-4f60-86d5-881e3ebfd80e" d="M105.15,22.94c.13.41.26.83.38,1.25a.28.28,0,0,0,.27.19h.08a.26.26,0,0,0,.18-.33c-.12-.43-.25-.85-.38-1.26a.28.28,0,0,0-.53.16Z"/>
        <path class="fde555d0-dbbb-4f60-86d5-881e3ebfd80e" d="M104.61,21.29a.28.28,0,0,0,.26.18H105a.28.28,0,0,0,.18-.35c-.15-.41-.3-.83-.44-1.24a.29.29,0,0,0-.36-.16.27.27,0,0,0-.16.35C104.33,20.46,104.47,20.87,104.61,21.29Z"/>
        <path class="fde555d0-dbbb-4f60-86d5-881e3ebfd80e" d="M100.46,12c.18.3.35.61.53.92a.27.27,0,0,0,.24.14.31.31,0,0,0,.13,0,.28.28,0,0,0,.11-.37c-.18-.32-.35-.63-.54-.95l-.12-.2a.27.27,0,0,0-.38-.09.26.26,0,0,0-.09.37Z"/>
        <path class="fde555d0-dbbb-4f60-86d5-881e3ebfd80e" d="M99.41,10.33a.29.29,0,0,0,.24.12.28.28,0,0,0,.15,0,.27.27,0,0,0,.07-.38c-.25-.37-.5-.74-.75-1.08a.28.28,0,0,0-.39-.07.27.27,0,0,0-.06.38C98.92,9.61,99.17,10,99.41,10.33Z"/>
        <path class="fde555d0-dbbb-4f60-86d5-881e3ebfd80e" d="M67.26,14l.13,0a.29.29,0,0,0,.25-.15c.2-.39.41-.77.62-1.14a.27.27,0,0,0-.11-.37.28.28,0,0,0-.38.1l-.63,1.16A.29.29,0,0,0,67.26,14Z"/>
        <path class="fde555d0-dbbb-4f60-86d5-881e3ebfd80e" d="M103.27,131.38a.28.28,0,0,0-.33.21l-.3,1.27a.28.28,0,0,0,.21.33h.06a.28.28,0,0,0,.27-.22l.3-1.27A.28.28,0,0,0,103.27,131.38Z"/>
        <path class="fde555d0-dbbb-4f60-86d5-881e3ebfd80e" d="M102.58,134.36a.26.26,0,0,0-.33.2l-.31,1.27a.27.27,0,0,0,.2.33h.07a.29.29,0,0,0,.27-.21l.3-1.28A.27.27,0,0,0,102.58,134.36Z"/>
        <path class="fde555d0-dbbb-4f60-86d5-881e3ebfd80e" d="M95.34,160.88a.28.28,0,0,0-.34.19l-.39,1.24a.29.29,0,0,0,.18.35h.08a.29.29,0,0,0,.27-.19c.13-.42.26-.83.39-1.26A.28.28,0,0,0,95.34,160.88Z"/>
        <path class="fde555d0-dbbb-4f60-86d5-881e3ebfd80e" d="M106.37,116.43a.28.28,0,0,0-.33.22c-.07.43-.16.86-.24,1.28a.27.27,0,0,0,.22.32h0a.28.28,0,0,0,.27-.23c.09-.42.17-.85.25-1.28A.27.27,0,0,0,106.37,116.43Z"/>
        <path class="fde555d0-dbbb-4f60-86d5-881e3ebfd80e" d="M105.8,119.43a.28.28,0,0,0-.33.22c-.08.42-.16.85-.25,1.28a.27.27,0,0,0,.22.32h0a.27.27,0,0,0,.27-.22c.09-.42.17-.85.26-1.28A.28.28,0,0,0,105.8,119.43Z"/>
        <path class="fde555d0-dbbb-4f60-86d5-881e3ebfd80e" d="M101.86,137.33a.26.26,0,0,0-.33.2c-.11.42-.21.85-.32,1.27a.28.28,0,0,0,.2.33h.07a.27.27,0,0,0,.27-.2c.1-.42.21-.85.31-1.27A.26.26,0,0,0,101.86,137.33Z"/>
        <path class="fde555d0-dbbb-4f60-86d5-881e3ebfd80e" d="M104.58,125.42a.28.28,0,0,0-.33.21c-.08.42-.18.85-.27,1.28a.27.27,0,0,0,.21.32h.06a.27.27,0,0,0,.27-.21c.09-.43.18-.85.28-1.28A.27.27,0,0,0,104.58,125.42Z"/>
        <path class="fde555d0-dbbb-4f60-86d5-881e3ebfd80e" d="M105.2,122.42a.28.28,0,0,0-.32.22l-.27,1.28a.27.27,0,0,0,.22.32h0a.27.27,0,0,0,.27-.22l.27-1.28A.29.29,0,0,0,105.2,122.42Z"/>
        <path class="fde555d0-dbbb-4f60-86d5-881e3ebfd80e" d="M97.1,155a.28.28,0,0,0-.34.19l-.37,1.25a.28.28,0,0,0,.19.34h.07a.27.27,0,0,0,.27-.2l.37-1.25A.27.27,0,0,0,97.1,155Z"/>
        <path class="fde555d0-dbbb-4f60-86d5-881e3ebfd80e" d="M96.23,158a.27.27,0,0,0-.34.18l-.38,1.26a.28.28,0,0,0,.19.34h.07a.28.28,0,0,0,.27-.2l.38-1.25A.27.27,0,0,0,96.23,158Z"/>
        <path class="fde555d0-dbbb-4f60-86d5-881e3ebfd80e" d="M98,152.09a.28.28,0,0,0-.34.19l-.36,1.26a.28.28,0,0,0,.19.34h.07a.29.29,0,0,0,.27-.2l.36-1.26A.27.27,0,0,0,98,152.09Z"/>
        <path class="fde555d0-dbbb-4f60-86d5-881e3ebfd80e" d="M98.77,149.15a.27.27,0,0,0-.33.19c-.12.42-.24.85-.36,1.26a.28.28,0,0,0,.2.34h.07a.29.29,0,0,0,.27-.2c.11-.42.23-.84.35-1.26A.28.28,0,0,0,98.77,149.15Z"/>
        <path class="fde555d0-dbbb-4f60-86d5-881e3ebfd80e" d="M100.36,143.25a.26.26,0,0,0-.33.2l-.34,1.26a.26.26,0,0,0,.2.33H100a.29.29,0,0,0,.27-.2l.33-1.27A.27.27,0,0,0,100.36,143.25Z"/>
        <path class="fde555d0-dbbb-4f60-86d5-881e3ebfd80e" d="M101.12,140.29a.26.26,0,0,0-.33.2l-.32,1.27a.27.27,0,0,0,.19.33h.07a.29.29,0,0,0,.27-.21l.32-1.27A.27.27,0,0,0,101.12,140.29Z"/>
        <path class="fde555d0-dbbb-4f60-86d5-881e3ebfd80e" d="M99.58,146.2a.28.28,0,0,0-.34.2c-.11.42-.23.84-.34,1.26a.27.27,0,0,0,.19.33h.08a.27.27,0,0,0,.26-.2c.12-.42.23-.84.34-1.26A.27.27,0,0,0,99.58,146.2Z"/>
        <path class="fde555d0-dbbb-4f60-86d5-881e3ebfd80e" d="M103.94,128.4a.28.28,0,0,0-.33.21c-.1.43-.19.85-.29,1.28a.27.27,0,0,0,.21.32h.06a.28.28,0,0,0,.27-.22c.1-.42.19-.85.29-1.27A.28.28,0,0,0,103.94,128.4Z"/>
        <path class="fde555d0-dbbb-4f60-86d5-881e3ebfd80e" d="M110.75,80.08a.27.27,0,0,0-.28.26c0,.43,0,.87-.07,1.3a.28.28,0,0,0,.26.29h0a.28.28,0,0,0,.27-.26c0-.44,0-.87.07-1.31A.28.28,0,0,0,110.75,80.08Z"/>
        <path class="fde555d0-dbbb-4f60-86d5-881e3ebfd80e" d="M110.14,89.2a.28.28,0,0,0-.3.25l-.12,1.3A.27.27,0,0,0,110,91h0a.26.26,0,0,0,.27-.24l.12-1.31A.27.27,0,0,0,110.14,89.2Z"/>
        <path class="fde555d0-dbbb-4f60-86d5-881e3ebfd80e" d="M110.39,86.16a.27.27,0,0,0-.3.25c0,.43-.07.87-.1,1.3a.27.27,0,0,0,.25.29h0a.26.26,0,0,0,.27-.25c0-.43.07-.87.1-1.3A.27.27,0,0,0,110.39,86.16Z"/>
        <path class="fde555d0-dbbb-4f60-86d5-881e3ebfd80e" d="M110.59,83.12a.28.28,0,0,0-.29.25c0,.44-.06.87-.08,1.31a.27.27,0,0,0,.25.29h0a.28.28,0,0,0,.28-.26c0-.43,0-.87.08-1.3A.28.28,0,0,0,110.59,83.12Z"/>
        <path class="fde555d0-dbbb-4f60-86d5-881e3ebfd80e" d="M110.87,77a.26.26,0,0,0-.28.26c0,.44,0,.87,0,1.3a.29.29,0,0,0,.27.29h0a.27.27,0,0,0,.27-.26c0-.44,0-.88,0-1.31A.27.27,0,0,0,110.87,77Z"/>
        <path class="fde555d0-dbbb-4f60-86d5-881e3ebfd80e" d="M111,70.93h0a.28.28,0,0,0-.28.27v1.31a.28.28,0,0,0,.27.28h0a.28.28,0,0,0,.28-.27c0-.44,0-.88,0-1.32A.28.28,0,0,0,111,70.93Z"/>
        <path class="fde555d0-dbbb-4f60-86d5-881e3ebfd80e" d="M111,74h0a.27.27,0,0,0-.27.27l0,1.31a.28.28,0,0,0,.27.28h0a.27.27,0,0,0,.28-.27l0-1.31A.28.28,0,0,0,111,74Z"/>
        <path class="fde555d0-dbbb-4f60-86d5-881e3ebfd80e" d="M109.17,98.31a.27.27,0,0,0-.3.24c-.05.43-.11.87-.17,1.3a.28.28,0,0,0,.24.31h0a.28.28,0,0,0,.27-.24c.06-.43.11-.87.17-1.3A.29.29,0,0,0,109.17,98.31Z"/>
        <path class="fde555d0-dbbb-4f60-86d5-881e3ebfd80e" d="M108.36,104.38a.27.27,0,0,0-.31.23l-.19,1.29a.27.27,0,0,0,.23.31h0a.28.28,0,0,0,.27-.24l.19-1.29A.27.27,0,0,0,108.36,104.38Z"/>
        <path class="fde555d0-dbbb-4f60-86d5-881e3ebfd80e" d="M107.9,107.4a.28.28,0,0,0-.31.23l-.2,1.29a.27.27,0,0,0,.23.31h0a.27.27,0,0,0,.27-.23l.2-1.29A.27.27,0,0,0,107.9,107.4Z"/>
        <path class="fde555d0-dbbb-4f60-86d5-881e3ebfd80e" d="M107.42,110.41a.29.29,0,0,0-.32.23c-.07.43-.14.86-.22,1.29a.27.27,0,0,0,.23.31h0a.27.27,0,0,0,.27-.22c.07-.43.15-.86.22-1.29A.29.29,0,0,0,107.42,110.41Z"/>
        <path class="fde555d0-dbbb-4f60-86d5-881e3ebfd80e" d="M106.91,113.42a.28.28,0,0,0-.32.22c-.08.44-.15.86-.23,1.29a.27.27,0,0,0,.22.32h0a.27.27,0,0,0,.27-.22c.08-.43.16-.86.23-1.29A.27.27,0,0,0,106.91,113.42Z"/>
        <path class="fde555d0-dbbb-4f60-86d5-881e3ebfd80e" d="M109.53,95.28a.28.28,0,0,0-.3.24l-.15,1.3a.27.27,0,0,0,.24.3h0a.28.28,0,0,0,.28-.24l.15-1.3A.27.27,0,0,0,109.53,95.28Z"/>
        <path class="fde555d0-dbbb-4f60-86d5-881e3ebfd80e" d="M108.78,101.35a.27.27,0,0,0-.31.23l-.18,1.3a.28.28,0,0,0,.24.31h0a.27.27,0,0,0,.27-.23l.18-1.3A.27.27,0,0,0,108.78,101.35Z"/>
        <path class="fde555d0-dbbb-4f60-86d5-881e3ebfd80e" d="M109.85,92.24a.28.28,0,0,0-.3.24c0,.43-.08.87-.13,1.3a.26.26,0,0,0,.24.3h0a.28.28,0,0,0,.28-.24c0-.44.09-.87.13-1.3A.27.27,0,0,0,109.85,92.24Z"/>
        <path class="fde555d0-dbbb-4f60-86d5-881e3ebfd80e" d="M67.41,136.85c-.1-.43-.2-.85-.31-1.28a.28.28,0,0,0-.33-.2.27.27,0,0,0-.2.33c.1.42.2.85.31,1.27a.27.27,0,0,0,.26.21h.07A.26.26,0,0,0,67.41,136.85Z"/>
        <path class="fde555d0-dbbb-4f60-86d5-881e3ebfd80e" d="M73,157.47c-.13-.41-.26-.83-.38-1.25a.28.28,0,0,0-.34-.19.27.27,0,0,0-.19.34c.13.42.25.84.37,1.26a.29.29,0,0,0,.27.19h.08A.28.28,0,0,0,73,157.47Z"/>
        <path class="fde555d0-dbbb-4f60-86d5-881e3ebfd80e" d="M70.48,148.67l-.34-1.27a.28.28,0,0,0-.54.14l.35,1.27a.27.27,0,0,0,.27.2h.07A.27.27,0,0,0,70.48,148.67Z"/>
        <path class="fde555d0-dbbb-4f60-86d5-881e3ebfd80e" d="M71.31,151.61,71,150.35a.27.27,0,0,0-.34-.19.27.27,0,0,0-.19.33l.35,1.26a.29.29,0,0,0,.27.2h.07A.27.27,0,0,0,71.31,151.61Z"/>
        <path class="fde555d0-dbbb-4f60-86d5-881e3ebfd80e" d="M72.15,154.54l-.37-1.26a.27.27,0,0,0-.34-.18.27.27,0,0,0-.19.33l.37,1.26a.27.27,0,0,0,.26.2H72A.27.27,0,0,0,72.15,154.54Z"/>
        <path class="fde555d0-dbbb-4f60-86d5-881e3ebfd80e" d="M75.74,166.22l-.4-1.25a.28.28,0,0,0-.53.17l.41,1.24a.26.26,0,0,0,.26.19h.08A.26.26,0,0,0,75.74,166.22Z"/>
        <path class="fde555d0-dbbb-4f60-86d5-881e3ebfd80e" d="M74.81,163.31l-.39-1.25a.29.29,0,0,0-.35-.18.27.27,0,0,0-.18.34l.39,1.25a.28.28,0,0,0,.26.19h.09A.28.28,0,0,0,74.81,163.31Z"/>
        <path class="fde555d0-dbbb-4f60-86d5-881e3ebfd80e" d="M73.9,160.39l-.38-1.25a.29.29,0,0,0-.35-.18.27.27,0,0,0-.18.34l.38,1.25a.28.28,0,0,0,.27.19h.07A.26.26,0,0,0,73.9,160.39Z"/>
        <path class="fde555d0-dbbb-4f60-86d5-881e3ebfd80e" d="M64.71,124.94l-.27-1.28a.28.28,0,0,0-.33-.21.27.27,0,0,0-.21.32l.27,1.28a.27.27,0,0,0,.27.22h0A.27.27,0,0,0,64.71,124.94Z"/>
        <path class="fde555d0-dbbb-4f60-86d5-881e3ebfd80e" d="M66.7,133.88l-.3-1.28a.28.28,0,0,0-.54.12l.3,1.28a.28.28,0,0,0,.27.21h.06A.26.26,0,0,0,66.7,133.88Z"/>
        <path class="fde555d0-dbbb-4f60-86d5-881e3ebfd80e" d="M66,130.9l-.29-1.27a.28.28,0,0,0-.33-.21.27.27,0,0,0-.2.33l.28,1.27a.28.28,0,0,0,.27.21h.06A.27.27,0,0,0,66,130.9Z"/>
        <path class="fde555d0-dbbb-4f60-86d5-881e3ebfd80e" d="M69.68,145.72l-.33-1.27a.28.28,0,0,0-.34-.19.27.27,0,0,0-.2.33l.34,1.27a.27.27,0,0,0,.27.2h.07A.27.27,0,0,0,69.68,145.72Z"/>
        <path class="fde555d0-dbbb-4f60-86d5-881e3ebfd80e" d="M65.35,127.92l-.28-1.28a.28.28,0,0,0-.33-.2.27.27,0,0,0-.21.32l.28,1.28a.27.27,0,0,0,.27.21h.06A.28.28,0,0,0,65.35,127.92Z"/>
        <path class="fde555d0-dbbb-4f60-86d5-881e3ebfd80e" d="M68.9,142.77l-.32-1.27a.29.29,0,0,0-.34-.2.29.29,0,0,0-.2.33l.33,1.27a.28.28,0,0,0,.27.21h.07A.27.27,0,0,0,68.9,142.77Z"/>
        <path class="fde555d0-dbbb-4f60-86d5-881e3ebfd80e" d="M68.15,139.81c-.11-.42-.21-.85-.32-1.27a.27.27,0,0,0-.33-.2.28.28,0,0,0-.21.33c.11.42.22.85.32,1.27a.29.29,0,0,0,.27.21H68A.28.28,0,0,0,68.15,139.81Z"/>
        <path class="fde555d0-dbbb-4f60-86d5-881e3ebfd80e" d="M94.43,163.8a.27.27,0,0,0-.34.18c-.14.42-.27.84-.4,1.25a.27.27,0,0,0,.18.34H94a.26.26,0,0,0,.26-.19c.14-.41.27-.83.4-1.25A.27.27,0,0,0,94.43,163.8Z"/>
      </g>
      <path class="e06c8623-043b-48db-9b3d-940c7241540c" d="M85,182.9c4.68-11.06,23.47-64.44,23.47-111.81,0-67-20.41-68.06-23.92-67.83C81,3,60.64,4.08,60.64,71.09c0,47.37,18.79,100.75,23.47,111.81V185l.44-1c.29.67.45,1,.45,1Z"/>
    </g>
    <g>
      <path class="fde555d0-dbbb-4f60-86d5-881e3ebfd80e" d="M72.22,192.47c5.39.11,17.44.11,22.83,0A3.85,3.85,0,0,0,97.82,191c3.2-4.74,13.49-19.8,20.4-27.54a157,157,0,0,1-34.58,3.94c-16.87,0-34.58-3.94-34.58-3.94,6.53,7.33,17.12,22.74,20.39,27.55A3.86,3.86,0,0,0,72.22,192.47Z"/>
      <g>
        <path class="bc265cdd-4972-4cde-8ae2-49d88152bb1b" d="M55.77,167.93a.25.25,0,0,1-.21-.1l-.41-.52a.29.29,0,0,1,0-.31.31.31,0,0,1,.29-.13l.65.12a.26.26,0,0,1,.22.31.28.28,0,0,1-.28.23.27.27,0,0,1-.07.35A.34.34,0,0,1,55.77,167.93Z"/>
        <path class="bc265cdd-4972-4cde-8ae2-49d88152bb1b" d="M83.64,170.1H82.9a.27.27,0,0,1-.28-.27.28.28,0,0,1,.28-.27h1.35a.27.27,0,0,1,.27.27.28.28,0,0,1-.27.28Zm2.41,0a.27.27,0,0,1-.27-.27.27.27,0,0,1,.27-.28l1.34,0a.29.29,0,0,1,.29.27.28.28,0,0,1-.27.28l-1.36,0Zm-5,0h0l-1.36,0a.26.26,0,0,1-.26-.28.27.27,0,0,1,.28-.26l1.35,0a.28.28,0,0,1,0,.55Zm8.1-.08a.27.27,0,0,1-.27-.26.28.28,0,0,1,.26-.29l1.35-.05a.28.28,0,0,1,.29.26.27.27,0,0,1-.26.28l-1.36.06Zm-11.26,0h0l-1.35-.07a.26.26,0,0,1-.26-.28.28.28,0,0,1,.29-.26l1.35.07a.27.27,0,0,1,.26.28A.28.28,0,0,1,77.94,170Zm14.41-.12a.28.28,0,0,1,0-.55l1.34-.08a.27.27,0,1,1,0,.54l-1.35.09Zm-17.55-.05h0l-1.35-.09a.27.27,0,1,1,0-.54l1.34.09a.28.28,0,0,1,0,.55Zm20.7-.16a.28.28,0,0,1-.28-.25.29.29,0,0,1,.26-.3l1.34-.11a.28.28,0,0,1,.3.25.27.27,0,0,1-.25.29l-1.35.11Zm-23.85-.09h0l-1.35-.12a.28.28,0,0,1-.25-.3.27.27,0,0,1,.3-.24l1.35.12a.28.28,0,0,1,.25.29A.28.28,0,0,1,71.65,169.54Zm27-.19a.26.26,0,0,1-.27-.25.26.26,0,0,1,.24-.29l1.34-.14a.28.28,0,0,1,.31.24.27.27,0,0,1-.25.3l-1.34.14Zm-30.13-.11h0l-1.34-.14a.28.28,0,0,1-.24-.31.26.26,0,0,1,.3-.24l1.34.15a.27.27,0,0,1,0,.54Zm33.27-.22a.29.29,0,0,1-.28-.24.28.28,0,0,1,.24-.31l1.34-.16a.29.29,0,0,1,.31.24.27.27,0,0,1-.24.3l-1.34.16Zm-36.4-.13h0L64,168.72a.27.27,0,0,1-.23-.31.26.26,0,0,1,.3-.23l1.35.16a.28.28,0,0,1,.23.31A.26.26,0,0,1,65.38,168.89Zm39.52-.27a.27.27,0,0,1,0-.54l1.33-.19a.3.3,0,0,1,.32.24.28.28,0,0,1-.24.3l-1.34.19Zm-42.65-.14h0l-1.33-.19a.27.27,0,1,1,.07-.54l1.34.19a.27.27,0,0,1,0,.54Zm45.77-.31a.28.28,0,0,1-.27-.23.27.27,0,0,1,.23-.31l1.33-.21a.28.28,0,0,1,.32.22.28.28,0,0,1-.23.32l-1.33.21ZM59.13,168h0l-1.34-.2a.27.27,0,0,1-.22-.32.27.27,0,0,1,.31-.22l1.33.21a.26.26,0,0,1,.23.31A.26.26,0,0,1,59.13,168Z"/>
        <path class="bc265cdd-4972-4cde-8ae2-49d88152bb1b" d="M111.38,168.06a.27.27,0,0,1-.17-.06.25.25,0,0,1-.07-.34h0a.27.27,0,0,1,0-.54l.65-.12a.28.28,0,0,1,.29.13.27.27,0,0,1,0,.31l-.4.52A.32.32,0,0,1,111.38,168.06Z"/>
        <path class="bc265cdd-4972-4cde-8ae2-49d88152bb1b" d="M84.19,190.35H82.87a.27.27,0,1,1,0-.54h1.32a.27.27,0,0,1,0,.54Zm1.76,0a.28.28,0,1,1,0-.55h1.32a.27.27,0,0,1,0,.54Zm-4.84,0H79.79a.27.27,0,1,1,0-.54h1.32a.27.27,0,0,1,.27.28A.28.28,0,0,1,81.11,190.35Zm7.92,0a.27.27,0,0,1-.28-.27.28.28,0,0,1,.27-.28h1.33a.27.27,0,0,1,.27.27.28.28,0,0,1-.27.28Zm-11,0H76.71a.28.28,0,1,1,0-.55H78a.27.27,0,0,1,.28.27A.29.29,0,0,1,78,190.34Zm14.08,0a.27.27,0,1,1,0-.54l1.32,0a.27.27,0,0,1,.28.27.28.28,0,0,1-.27.28Zm-17.16,0H73.63a.28.28,0,0,1-.27-.28.27.27,0,0,1,.28-.27l1.31,0a.27.27,0,0,1,.28.27A.28.28,0,0,1,75,190.31Zm20.23-.09a.27.27,0,0,1-.26-.17.28.28,0,0,1,.15-.36,1.3,1.3,0,0,0,.45-.27l.35-.52a.27.27,0,1,1,.45.31l-.35.52a1.7,1.7,0,0,1-.69.47Zm-23.28-.09a.31.31,0,0,1-.13,0,1.73,1.73,0,0,1-.47-.36l-.48-.71a.26.26,0,0,1,.08-.37.27.27,0,0,1,.38.07l.47.69a1.09,1.09,0,0,0,.28.2.26.26,0,0,1,.11.37A.27.27,0,0,1,71.9,190.13Zm25.18-2.25a.29.29,0,0,1-.16,0,.27.27,0,0,1-.07-.38l.74-1.08a.27.27,0,0,1,.38-.08.27.27,0,0,1,.07.38l-.74,1.08A.26.26,0,0,1,97.08,187.88Zm-27-.17a.26.26,0,0,1-.22-.12l-.75-1.07a.27.27,0,0,1,.08-.38.26.26,0,0,1,.38.07l.75,1.08a.28.28,0,0,1-.08.38A.29.29,0,0,1,70.06,187.71Zm28.74-2.35a.23.23,0,0,1-.15-.05.25.25,0,0,1-.07-.37l.74-1.08a.28.28,0,0,1,.46.31L99,185.24A.27.27,0,0,1,98.8,185.36Zm-30.47-.16a.28.28,0,0,1-.23-.12L67.36,184a.26.26,0,0,1,.07-.38.27.27,0,0,1,.38.07l.75,1.07a.27.27,0,0,1-.07.38A.3.3,0,0,1,68.33,185.2Zm32.22-2.35a.24.24,0,0,1-.16,0,.26.26,0,0,1-.07-.37l.75-1.08a.28.28,0,0,1,.38-.07.28.28,0,0,1,.08.38l-.76,1.08A.28.28,0,0,1,100.55,182.85Zm-34-.16a.27.27,0,0,1-.22-.11l-.76-1.08a.27.27,0,0,1,.07-.37.28.28,0,0,1,.39.06l.75,1.08a.25.25,0,0,1-.07.37A.24.24,0,0,1,66.58,182.69Zm35.72-2.34a.23.23,0,0,1-.15,0,.26.26,0,0,1-.07-.38l.76-1.06a.26.26,0,0,1,.38-.07.27.27,0,0,1,.07.38l-.76,1.07A.28.28,0,0,1,102.3,180.35Zm-37.48-.15a.29.29,0,0,1-.23-.12L63.84,179a.27.27,0,0,1,.06-.38.29.29,0,0,1,.39.07l.76,1.07a.27.27,0,0,1-.07.38A.3.3,0,0,1,64.82,180.2Zm39.25-2.34a.23.23,0,0,1-.15-.05.26.26,0,0,1-.07-.38l.77-1.06a.27.27,0,0,1,.38-.06.26.26,0,0,1,.06.38l-.76,1.06A.28.28,0,0,1,104.07,177.86Zm-41-.15a.28.28,0,0,1-.23-.12l-.76-1.06a.26.26,0,0,1,.06-.38.28.28,0,0,1,.39.07l.76,1.06a.27.27,0,0,1-.06.38A.33.33,0,0,1,63.05,177.71Zm42.82-2.32a.28.28,0,0,1-.16,0,.27.27,0,0,1-.07-.38l.78-1.06a.28.28,0,0,1,.45.32l-.78,1.05A.26.26,0,0,1,105.87,175.39Zm-44.61-.16a.3.3,0,0,1-.23-.11l-.77-1.06a.27.27,0,0,1,.06-.38.29.29,0,0,1,.39.06l.77,1.06a.27.27,0,0,1-.06.38A.25.25,0,0,1,61.26,175.23Zm46.42-2.3a.23.23,0,0,1-.16-.06.26.26,0,0,1-.06-.38l.78-1.05a.28.28,0,0,1,.39-.05.27.27,0,0,1,.05.38l-.78,1A.26.26,0,0,1,107.68,172.93Zm-48.23-.16a.3.3,0,0,1-.23-.11l-.78-1a.27.27,0,0,1,.44-.32l.79,1.05a.27.27,0,0,1-.06.38A.25.25,0,0,1,59.45,172.77Zm50.06-2.29a.25.25,0,0,1-.16,0,.26.26,0,0,1-.06-.38l.8-1.05a.28.28,0,0,1,.39-.05.27.27,0,0,1,0,.38c-.26.35-.53.7-.8,1A.24.24,0,0,1,109.51,170.48Zm-51.9-.16a.27.27,0,0,1-.22-.1l-.79-1.05a.26.26,0,0,1,0-.38.28.28,0,0,1,.39.06l.79,1a.27.27,0,0,1,0,.38A.26.26,0,0,1,57.61,170.32Z"/>
      </g>
    </g>
    <path class="bbc501c9-d410-4ddb-8317-eb1d75f7574d" d="M94,212.33l-1.78-7.7a1.09,1.09,0,0,0-1.1-1.09H76.17a1.09,1.09,0,0,0-1.1,1.09l-1.78,7.7a.77.77,0,0,1-1.54,0L73.54,202a1.09,1.09,0,0,1,1.09-1.09h18a1.09,1.09,0,0,1,1.1,1.09l1.78,10.38a.77.77,0,0,1-1.54,0Z"/>
    <path class="e7c6a4ea-86f9-45d6-8eaf-9714f38d38f0" d="M99.34,211.2a121,121,0,0,1-15.61.88,121,121,0,0,1-15.6-.88A1.8,1.8,0,0,0,66,213v17.17a2.28,2.28,0,0,0,0,.26,7.66,7.66,0,0,0,7.8,6.92H93.67a7.67,7.67,0,0,0,7.81-6.92,2.28,2.28,0,0,0,0-.26V213A1.8,1.8,0,0,0,99.34,211.2Z"/>
    <rect class="bc265cdd-4972-4cde-8ae2-49d88152bb1b" x="76.93" y="200.86" width="13.42" height="2.68"/>
  </g>
</svg>
