<svg id="b9d3a14e-cb48-414b-a3c9-27918dd08a97" data-name="Layer 1" xmlns="http://www.w3.org/2000/svg" width="70" height="99" viewBox="0 0 70 99">
  <defs>
    <style>
      .aad4d10c-968d-4cf3-9e18-af3e8d86a12a {
        fill: #5faadd;
      }

      .a3cd4567-aee6-4a6a-a815-05f89915e44f {
        fill: #81c2f7;
      }

      .a88f6ea0-2228-4bb5-90e0-b3142dbb68bf {
        fill: #a4d9f7;
      }
    </style>
  </defs>
  <g>
    <polygon class="aad4d10c-968d-4cf3-9e18-af3e8d86a12a" points="32.53 82.94 33.63 79.03 33.37 78.96 32.53 81.92 32.53 78.99 32.26 78.99 32.26 82 31.41 78.96 31.14 79.03 32.26 83.03 32.39 83 32.51 83.03 32.52 83 32.53 83 32.53 82.94"/>
    <polygon class="aad4d10c-968d-4cf3-9e18-af3e8d86a12a" points="37.68 82.94 38.78 79.03 38.51 78.96 37.68 81.92 37.68 78.99 37.41 78.99 37.41 82 36.55 78.96 36.29 79.03 37.41 83.03 37.53 83 37.66 83.03 37.67 83 37.68 83 37.68 82.94"/>
    <g>
      <path class="a3cd4567-aee6-4a6a-a815-05f89915e44f" d="M38,6c-1.54,0-2.63.08-3,.12S33.47,6,31.94,6C23.59,6,1.84,8,1.84,29.79,1.84,48.27,20.66,68.15,30,76.88h9.92c9.34-8.73,28.16-28.61,28.16-47.09C68.08,8,46.33,6,38,6Z"/>
      <path class="a88f6ea0-2228-4bb5-90e0-b3142dbb68bf" d="M35.34,4.5C32.87,4.11,6.25.64,6.25,29.18,6.25,44.89,19.9,64,31.16,76.27h8.36C50.78,64,64.43,44.89,64.43,29.18,64.43.64,37.81,4.11,35.34,4.5Z"/>
      <path class="a3cd4567-aee6-4a6a-a815-05f89915e44f" d="M35.34,2.32c-2.06-.4-21-3.18-21,26.86,0,15.58,11.41,36.93,18.42,47.7h5c7-10.77,18.43-32.12,18.43-47.7C56.29-.86,37.39,1.92,35.34,2.32Z"/>
      <path class="a88f6ea0-2228-4bb5-90e0-b3142dbb68bf" d="M35.52,75.42c1.93-4.56,9.67-26.54,9.67-46,0-27.6-8.41-28-9.85-27.94-1.45-.09-9.85.34-9.85,27.94,0,19.51,7.74,41.49,9.66,46.05v.85l.19-.42.18.42Z"/>
    </g>
    <path class="aad4d10c-968d-4cf3-9e18-af3e8d86a12a" d="M30.26,79.36c2.22,0,7.18,0,9.4,0a1.56,1.56,0,0,0,1.14-.63,136,136,0,0,1,8.4-11.34A64.77,64.77,0,0,1,35,69a76,76,0,0,1-14.24-1.62c2.69,3,7.05,9.36,8.4,11.34A1.56,1.56,0,0,0,30.26,79.36Z"/>
    <path class="aad4d10c-968d-4cf3-9e18-af3e8d86a12a" d="M39.22,87.53l-.73-3.17a.45.45,0,0,0-.46-.44H31.89a.45.45,0,0,0-.46.44l-.73,3.17a.32.32,0,0,1-.32.32.32.32,0,0,1-.32-.32l.74-4.27a.45.45,0,0,1,.45-.45h7.42a.45.45,0,0,1,.45.45l.74,4.27a.32.32,0,0,1-.32.32A.32.32,0,0,1,39.22,87.53Z"/>
    <path class="aad4d10c-968d-4cf3-9e18-af3e8d86a12a" d="M41.43,87.07a50.37,50.37,0,0,1-6.43.36,50.37,50.37,0,0,1-6.43-.36.74.74,0,0,0-.89.75v7.07s0,.07,0,.11a3.16,3.16,0,0,0,3.22,2.85h8.18A3.16,3.16,0,0,0,42.31,95s0-.08,0-.11V87.82A.74.74,0,0,0,41.43,87.07Z"/>
    <rect class="aad4d10c-968d-4cf3-9e18-af3e8d86a12a" x="32.2" y="82.81" width="5.53" height="1.1"/>
  </g>
</svg>
