<svg id="b07a3970-2548-49e5-a171-86fcc5b1a16d" data-name="Layer 1" xmlns="http://www.w3.org/2000/svg" xmlns:xlink="http://www.w3.org/1999/xlink" width="282" height="214" viewBox="0 0 282 214">
  <defs>
    <style>
      .b8b72b0a-a6d5-4bd2-b192-4f081a8a5985, .b9e82b46-04c0-43ed-8d1b-878ae4526659 {
        fill: #96948a;
      }

      .b9e82b46-04c0-43ed-8d1b-878ae4526659 {
        opacity: 0.18;
      }

      .a5c0365d-11b3-4281-9872-4e53b3e5f7e3, .b34076bb-99ba-4000-895d-5ac8f1b82800 {
        fill: #97a1aa;
      }

      .a5c0365d-11b3-4281-9872-4e53b3e5f7e3 {
        opacity: 0.21;
      }

      .b34076bb-99ba-4000-895d-5ac8f1b82800 {
        opacity: 0.37;
      }

      .b0dd0a99-b2d9-44f7-8906-683313297716 {
        fill: #66625a;
      }

      .a97ec67e-c4e0-4d84-9027-80a5e7b09a7c, .e0c4223d-9c9f-4fe8-ad08-da0b60417ead, .f50c5dbd-b6a8-454b-9c29-4ed232007a18 {
        fill: #3e6a84;
      }

      .b210ba9b-0105-4477-b954-8605a6a2901e {
        fill: #7a7a79;
      }

      .fc4143ad-ce54-41c2-957d-84c7686ba864 {
        fill: #cccbca;
      }

      .f811007d-0d83-450a-94de-4cf533d6aea2 {
        fill: #7a6c53;
      }

      .b4753c1a-81ce-469e-9ea3-554f45d7fddb {
        fill: #6d7e8f;
      }

      .b11c3538-53d5-4670-b8fa-5d83b63038ec, .b4753c1a-81ce-469e-9ea3-554f45d7fddb, .b53627dd-3375-4327-b1d7-4d53990c89a9, .e0c4223d-9c9f-4fe8-ad08-da0b60417ead {
        stroke: #706c42;
      }

      .aeb391a1-d8de-46c1-a55b-96452ca05d66, .b11c3538-53d5-4670-b8fa-5d83b63038ec, .b4753c1a-81ce-469e-9ea3-554f45d7fddb, .b53627dd-3375-4327-b1d7-4d53990c89a9, .e0c4223d-9c9f-4fe8-ad08-da0b60417ead, .f3ef8df4-e3d2-4819-b6f8-57dbe01cc96f {
        stroke-miterlimit: 10;
      }

      .b8b72b0a-a6d5-4bd2-b192-4f081a8a5985 {
        opacity: 0.73;
      }

      .f8008547-8397-4577-a0ef-3dad0158f3d7 {
        fill: #9eacb7;
      }

      .b53627dd-3375-4327-b1d7-4d53990c89a9 {
        fill: url(#a46ac5fb-2ab4-476c-bc91-445526af0a75);
      }

      .f50c5dbd-b6a8-454b-9c29-4ed232007a18 {
        opacity: 0.51;
      }

      .ee0b0dfb-85ca-499a-8c92-1094733e6782 {
        fill: #c48d02;
        opacity: 0.5;
      }

      .aeb391a1-d8de-46c1-a55b-96452ca05d66, .b25f8598-92f3-4d29-8444-73dc857a0791, .f3ef8df4-e3d2-4819-b6f8-57dbe01cc96f {
        fill: #7bc3d6;
      }

      .aeb391a1-d8de-46c1-a55b-96452ca05d66, .f3ef8df4-e3d2-4819-b6f8-57dbe01cc96f {
        stroke: #605545;
      }

      .aeb391a1-d8de-46c1-a55b-96452ca05d66 {
        stroke-width: 6px;
      }

      .b11c3538-53d5-4670-b8fa-5d83b63038ec {
        fill: #5f6e7d;
      }

      .a9602ed8-36b0-4b5f-8ba8-5f19e7425341 {
        fill: #605545;
      }

      .f3ef8df4-e3d2-4819-b6f8-57dbe01cc96f {
        stroke-width: 5px;
      }

      .aa973766-0293-4854-8dea-e3504da9e360 {
        fill: #ededed;
        opacity: 0.42;
      }

      .bb6ed89a-bac8-47f2-ad95-71e44e562baa {
        fill: #ede9da;
      }

      .f1acba59-f2d6-413f-a698-1bf11d391814 {
        fill: #284756;
      }

      .b95e771d-eec1-46ce-a9c1-88b1c05e287a {
        fill: #7d909e;
      }

      .e1333166-98cc-4317-980e-b888b6ada8f6 {
        fill: #84a1af;
      }

      .fa26326b-638b-4a18-ad2e-97ef932a9e87 {
        fill: url(#e5decce6-62db-4f52-9e88-a24ecd5d521a);
      }

      .aa4cfa3e-98e9-411c-a28c-7d444fb12ed2 {
        fill: #dfeaef;
        opacity: 0.35;
      }
    </style>
    <linearGradient id="a46ac5fb-2ab4-476c-bc91-445526af0a75" x1="-468.29" y1="268.4" x2="-549.31" y2="128.07" gradientTransform="matrix(-0.99, -0.12, -0.12, 0.99, -361.12, -122.73)" gradientUnits="userSpaceOnUse">
      <stop offset="0" stop-color="#febe10"/>
      <stop offset="0.2" stop-color="#fcbf16"/>
      <stop offset="0.48" stop-color="#f8c328"/>
      <stop offset="0.81" stop-color="#f0c845"/>
      <stop offset="1" stop-color="#eacc5a"/>
    </linearGradient>
    <linearGradient id="e5decce6-62db-4f52-9e88-a24ecd5d521a" x1="-560.75" y1="157.83" x2="-495.51" y2="157.83" xlink:href="#a46ac5fb-2ab4-476c-bc91-445526af0a75"/>
  </defs>
  <g id="e58500bf-5da3-4b80-8456-69327a23f3e5" data-name="9">
    <g>
      <g>
        <ellipse class="b9e82b46-04c0-43ed-8d1b-878ae4526659" cx="149.25" cy="65.79" rx="45.48" ry="108.82" transform="translate(80.78 213.83) rotate(-88.96)"/>
        <g>
          <path class="a5c0365d-11b3-4281-9872-4e53b3e5f7e3" d="M199.26,101.72s43.8-8.34,52.82-29.74c7.34-17.41-15.43-39.39-72.42-45.91,12.9,1.7,62.76,15.16,64.55,34.8C246,80.66,207.37,100.14,199.26,101.72Z"/>
          <path class="b34076bb-99ba-4000-895d-5ac8f1b82800" d="M117.29,105.72S71.07,99.39,51,80s4.09-46.35,51.68-55.35c-20.8,4.41-49.8,19.51-49.77,39.48C52.9,91.39,117.29,105.72,117.29,105.72Z"/>
        </g>
        <g>
          <path class="a5c0365d-11b3-4281-9872-4e53b3e5f7e3" d="M182.65,91.35s32-6.1,38.6-21.73C226.61,56.9,210,40.84,168.33,36.07c9.43,1.24,45.86,11.08,47.17,25.43S188.58,90.2,182.65,91.35Z"/>
          <path class="b34076bb-99ba-4000-895d-5ac8f1b82800" d="M122.76,94.27S89,89.65,74.29,75.5s3-33.87,37.76-40.45C96.85,38.27,75.67,49.3,75.69,63.9,75.71,83.8,122.76,94.27,122.76,94.27Z"/>
        </g>
        <path class="a5c0365d-11b3-4281-9872-4e53b3e5f7e3" d="M171.8,84.14s10.53-2,12.7-7.14c1.76-4.19-3.71-9.47-17.41-11,3.1.41,15.08,3.65,15.51,8.37S173.75,83.77,171.8,84.14Z"/>
        <path class="b34076bb-99ba-4000-895d-5ac8f1b82800" d="M152.1,85.11S141,83.59,136.16,78.93s1-11.14,12.42-13.3c-5,1.06-12,4.68-12,9.49C136.62,81.66,152.1,85.11,152.1,85.11Z"/>
      </g>
      <path class="b0dd0a99-b2d9-44f7-8906-683313297716" d="M169,68.39s89.68-27.78,92.32-28.11c3.22.4,11.32,17.62,10.14,24.33-.94,2.16-98.08,9.65-98.08,9.65l-.2,1.61S256,97.63,262.69,99.59c2.54,3.41-9.89,12.82-15.22,13.21-1.51-1.1-80-32.45-80-32.45l-12.54-1.11s-65.08,8.24-70.65,7.88C79,86.79,63,80.24,61.34,77.75c1.75-.76,88.76-4.12,88.76-4.12l-1.35-1.2S40,38.55,38.12,37.35c-1.79-1.53,8-19.79,15.56-19.83,5.57.37,99.22,49.38,100.23,49.18C157.52,66.82,166.33,66.76,169,68.39Z"/>
      <path class="a97ec67e-c4e0-4d84-9027-80a5e7b09a7c" d="M168.86,69.27s89.68-27.78,92.32-28.11c3.22.4,11.32,17.62,10.13,24.33-.93,2.16-98.07,9.65-98.07,9.65L173,76.75s82.86,21.76,89.55,23.72c2.54,3.41-9.89,12.82-15.22,13.21-1.52-1.1-80-32.45-80-32.45L154.8,80.12S89.72,88.36,84.15,88c-5.24-.33-21.26-6.88-22.92-9.37C63,77.87,150,74.51,150,74.51l-1.35-1.21S39.84,39.43,38,38.23C36.22,36.7,46,18.44,53.57,18.4c5.56.37,99.22,49.38,100.23,49.18C157.41,67.7,166.21,67.64,168.86,69.27Z"/>
      <path class="b210ba9b-0105-4477-b954-8605a6a2901e" d="M145.53,73c.64-5,8.14-7.82,16.4-6.79s14.78,5.54,14.16,10.42c-.52,4.08-7.78,5.38-16,4.35S145,77.09,145.53,73Z"/>
      <path class="fc4143ad-ce54-41c2-957d-84c7686ba864" d="M145.78,73.71c.52-4.08,7.64-6.56,15.9-5.54s14.54,5.16,14,9.24S168.07,84,159.8,83,145.27,77.79,145.78,73.71Z"/>
      <path class="b210ba9b-0105-4477-b954-8605a6a2901e" d="M162.94,91.87,165,75.73a7.45,7.45,0,0,0-7.66-1.44c-.51.82-3.58,18-3.58,18S162.56,94.87,162.94,91.87Z"/>
      <path class="fc4143ad-ce54-41c2-957d-84c7686ba864" d="M162.59,89.51c-.31,2.44-7.94.3-7.94.3,1.71-9.37,1.9-13,3-14.66a6.73,6.73,0,0,1,6.62,1.22s-3.81-1.24-4.84-.31-2.67,6.79-.64,8.09,4.1,1.17,4.4.77Z"/>
      <path class="f811007d-0d83-450a-94de-4cf533d6aea2" d="M150.32,71.46c.06-.47.74-.78,1.52-.68s1.36.56,1.3,1-.74.79-1.52.69S150.26,71.94,150.32,71.46Z"/>
      <path class="f811007d-0d83-450a-94de-4cf533d6aea2" d="M150.34,78.26c.06-.48.75-.78,1.52-.69s1.37.56,1.31,1-.75.78-1.52.68S150.28,78.73,150.34,78.26Z"/>
      <path class="f811007d-0d83-450a-94de-4cf533d6aea2" d="M170.05,73.52c.06-.48.74-.78,1.52-.69s1.36.56,1.3,1-.74.78-1.52.68S170,74,170.05,73.52Z"/>
      <path class="f811007d-0d83-450a-94de-4cf533d6aea2" d="M169,80.14c.06-.48.74-.79,1.52-.69s1.36.56,1.3,1-.74.78-1.52.68S168.89,80.61,169,80.14Z"/>
      <path class="b4753c1a-81ce-469e-9ea3-554f45d7fddb" d="M202.79,162.05s8.41,18.5,8.06,28.36a33,33,0,0,0,5-.44,4.78,4.78,0,0,0,4.48-2.91c2.19-1.76,5.65.12,4.41,2.81s-3.76,3.09-6.25,3.91-62,3.2-64.91,2.6-8.62-3.33-8-5.52c.88-1.76,3.47-1.51,4.54-.25s3.77,2.08,6.87,2.22c3.29,0,9.49-.2,9.49-.2s-1.22-16.32-10.19-29.2c1.62-1.09,5.22-1.05,5.22-1.05s7.81,16.88,9.68,29.94c5.78-.18,35-1.51,35-1.51s.29-16.53-10.53-29C198.6,160.15,200.52,159.17,202.79,162.05Z"/>
      <ellipse class="b8b72b0a-a6d5-4bd2-b192-4f081a8a5985" cx="50.29" cy="125.35" rx="23.47" ry="14.63" transform="translate(-80.46 159.21) rotate(-82.66)"/>
      <path class="f8008547-8397-4577-a0ef-3dad0158f3d7" d="M162,166.05s6.19,17.23,8.43,25.33C169.22,188.77,170.09,180.76,162,166.05Z"/>
      <path class="e0c4223d-9c9f-4fe8-ad08-da0b60417ead" d="M201.36,107.08S195,92.76,174.8,97.37c7.5-2,.52-7.53-6.3-9.41-4.34-1.19-40.79-8.45-65,21.33C119.53,114.91,201.08,109.19,201.36,107.08Z"/>
      <path class="b53627dd-3375-4327-b1d7-4d53990c89a9" d="M230,127.45c-.77-.08-11.67-18.44-18-21.16s-14.72-5-61-3.18c-27.15,1.08-31.74-.29-45.89,2.19C97.73,106.6,86,114,86,114s-49.24,8.47-50.48,6.62,1.59-15.67-6.31-35.69c-1.72-4.35-5.76-6.23-8.76-2.35C13.55,91.49,26,119,25.1,125.14c-.86,5.74-18,23.69-14,31.28,2.16,4.1,6.56,2.49,10.7-1.1,5.16-4.47,6.3-17.72,12.06-21.41,12.79-8.23,46.8-8.17,59,1,6,4.51,12.5,20.33,20.09,24.43s28.19,6.16,62.58,5.32,68.67-1.15,72.09-12.92C250.21,142.69,247.28,129.26,230,127.45Z"/>
      <polygon class="f50c5dbd-b6a8-454b-9c29-4ed232007a18" points="21.55 81.41 29.06 125.17 10.68 155.48 12.27 157.98 31.3 125.44 23.6 80.49 21.55 81.41"/>
      <path class="ee0b0dfb-85ca-499a-8c92-1094733e6782" d="M230.8,156c-30.28,2.38-73,3.57-104.76-1.34-18.6-.19-28.65-15.13-28.65-15.13s8,15.47,15.55,19.57,28.19,6.16,62.58,5.32c28.34-.69,53.88-.6,64.17-6.2,0,0,2.33-1.55-.45-2.4S230.8,156,230.8,156Z"/>
      <path class="aeb391a1-d8de-46c1-a55b-96452ca05d66" d="M169.62,110.8c4.21,2,4.22,19.55,3.31,22.31-1.06,3.23-12.1,1.58-15.1-.33-2.25-1.43-2.39-14.83.75-20.44C159.83,110.11,167.18,109.64,169.62,110.8Z"/>
      <path class="b11c3538-53d5-4670-b8fa-5d83b63038ec" d="M171,156.7c-.29.58-16.9,7-16.92,23.71,5.22.32,20.22.17,21.75-1.45,2-1.57,3.82-7.6,6.4-7.13s3.94.87,2.8,2.9-4.36,8.38-8,9.45-71.27,2.92-74.8,2.92c-4-1.16-7.73-7.49-7.25-10,1-1.4,2.23-1.73,3.12-.1.87,1.85,2,5,5,5.62s12.44.24,12.44.24,0-18,12.08-29.57c.81-.91,3.52-1.28,5-.55,1,.49-.39,2.48-.82,2.7-1.41.69-12.24,9.42-12.68,26.77,9.1-.61,31.36-1,31.36-1s-1.49-17.18,16.78-28C172.34,150.11,172.44,153.83,171,156.7Z"/>
      <path class="a9602ed8-36b0-4b5f-8ba8-5f19e7425341" d="M216.63,110.61S200.24,105.29,184,108c-2,2.5-1.65,19.4,1.19,20.37,0,0,9.75-3.14,29.46-2.47,10.07.18,15.79,2,15.3,1.51,0,0-4.52-6.7-9.1-12.4C219.64,113.5,217.73,110.79,216.63,110.61Z"/>
      <path class="b25f8598-92f3-4d29-8444-73dc857a0791" d="M219.07,112.75s6.27,8.13,9.88,13.27c-.62-.08-12.37-1.48-12.71-1.93-1.43-1.92-5.13-8.12-5.72-13C210.43,110.45,218.64,112.61,219.07,112.75Z"/>
      <path class="b25f8598-92f3-4d29-8444-73dc857a0791" d="M206.23,110.4c2.8,2.31,5.7,9.68,5.19,13.47-.11.85-17.61,1-24.19,1.69-3.48.36-3.46-13.4-1.52-15.6C186.9,109,203.57,108.21,206.23,110.4Z"/>
      <path class="f3ef8df4-e3d2-4819-b6f8-57dbe01cc96f" d="M131,126.69a3.24,3.24,0,0,0,2.84,3.61l7.09,1.44a3.27,3.27,0,0,0,3.66-2.81l1.79-14.16a3.24,3.24,0,0,0-2.84-3.61l-7.31.36a3.26,3.26,0,0,0-3.66,2.81Z"/>
      <path class="f3ef8df4-e3d2-4819-b6f8-57dbe01cc96f" d="M112.28,125.44a3,3,0,0,0,2.6,3.3l6.48,1.32a3,3,0,0,0,3.34-2.57l1.64-12.95a3,3,0,0,0-2.6-3.3l-6.68.33a3,3,0,0,0-3.35,2.57Z"/>
      <path class="aa973766-0293-4854-8dea-e3504da9e360" d="M260.33,41.36c-1.34.37-78.37,25-78.37,25s74.56-21.13,77.58-20.45S270.94,60,270.94,60,265.31,42,260.33,41.36Z"/>
      <path class="aa973766-0293-4854-8dea-e3504da9e360" d="M140.94,61.29S56.31,18.52,53.57,18.4s-11.92,6.65-15.45,19c1.86-5.74,11.46-15.29,16-14.72S140.94,61.29,140.94,61.29Z"/>
      <path class="aa973766-0293-4854-8dea-e3504da9e360" d="M141.89,75.07c-.94-.21-78.41,3.31-78.41,3.31s-3,2.38,17.33,8.28c-5.39-1.59-12.49-6.76-10-6.76S141.89,75.07,141.89,75.07Z"/>
      <path class="aa973766-0293-4854-8dea-e3504da9e360" d="M252.7,109.58s11.29-7.83,8.62-9.47c-2-1.44-83.61-21.48-83.61-21.48s77.33,19.13,78.44,23.3S252.7,109.58,252.7,109.58Z"/>
      <path class="bb6ed89a-bac8-47f2-ad95-71e44e562baa" d="M62.84,115.9s-1.73-9.7-8.38-12.39c-5.41-2.2-12.92,1.91-16.22,13.91.82-2.71,6.18-12.93,12.5-12.62S62.51,114.1,62.84,115.9Z"/>
      <path class="bb6ed89a-bac8-47f2-ad95-71e44e562baa" d="M62.37,133.63s-3,9.69-9.63,13.32-14.73-2.52-16.59-13c1,4.62,5.17,11.37,11.56,12.08C56.42,146.94,62.37,133.63,62.37,133.63Z"/>
      <path class="ee0b0dfb-85ca-499a-8c92-1094733e6782" d="M215.36,108.87s-3-4.19-16.17-5.73c-18.64-2.17-35.56-.13-49.84-.14-34.22,0-47.71,2.41-48.26,3.67,3.35.16,50.11-1.88,63.19-1.46C174,105.51,205.58,105.38,215.36,108.87Z"/>
      <path class="ee0b0dfb-85ca-499a-8c92-1094733e6782" d="M246.18,137s-3.18-8.55-21.05-10.26c-16.16-1.54-34.46.12-36.78,1.2C192.89,126.57,230.63,126.87,246.18,137Z"/>
      <path class="ee0b0dfb-85ca-499a-8c92-1094733e6782" d="M86,114s2.63,3.83.12,5.17C78.24,123.35,35.46,121,35.46,121S53.31,120,86,114Z"/>
      <path class="ee0b0dfb-85ca-499a-8c92-1094733e6782" d="M29.59,86c3,8.5,4.55,15.31,5.05,21.18.7,8.16-.08,13.32.86,13.48-2.3-.17-2.57.4-4.73-12.21-2.12-13-2-16.46-5-21.14C23.9,84.41,19,85.51,19,85.51a8.18,8.18,0,0,1,2.58-4.1C23.85,79.81,27.52,80.13,29.59,86Z"/>
      <path class="f1acba59-f2d6-413f-a698-1bf11d391814" d="M192.92,100.67c.62.55-7.64-3.48-13-2.76C181,96.67,189.18,97.37,192.92,100.67Z"/>
      <path class="f1acba59-f2d6-413f-a698-1bf11d391814" d="M176.89,93.75s-5.35-5.48-21.82-6.19-32.25,5.66-40.91,12.49c4-2.89,23.34-11.66,40.16-10.12C168.59,90.47,176.89,93.75,176.89,93.75Z"/>
      <path class="b95e771d-eec1-46ce-a9c1-88b1c05e287a" d="M170.91,153.44s-16.63,7.35-18.34,25.15C151,174.51,155.45,157.57,170.91,153.44Z"/>
      <path class="b95e771d-eec1-46ce-a9c1-88b1c05e287a" d="M130.77,154.11s-13.58,9.35-13.11,26.08C115.55,175.36,120.78,156.64,130.77,154.11Z"/>
      <path class="b95e771d-eec1-46ce-a9c1-88b1c05e287a" d="M183.86,173.33s-3.13,8.62-9.11,9.63-69.7,3.72-72.54,3.12S95.88,178,95.88,178s3.92,6.67,8.41,6.69,67.21-3,69.85-3.45C179.36,180.42,183.86,173.33,183.86,173.33Z"/>
      <path class="f8008547-8397-4577-a0ef-3dad0158f3d7" d="M202.65,163.93S211,179.84,209.4,189C209.15,187.28,204.71,167.25,202.65,163.93Z"/>
      <path class="f8008547-8397-4577-a0ef-3dad0158f3d7" d="M223.43,187.36s-2.15,4.6-6.73,5.34c-4.78.76-60,2.92-63,2.43s-6.16-2.8-6.43-4.37c.48,1.14,4.32,3.86,11.38,3.32s54.76-2.77,57.32-2.8S223.43,187.36,223.43,187.36Z"/>
      <path class="a97ec67e-c4e0-4d84-9027-80a5e7b09a7c" d="M248.14,142.43s-92.8,6.67-152.74-5l3.17,4.25s40.4,9.63,149.85,4.12Z"/>
      <path class="e1333166-98cc-4317-980e-b888b6ada8f6" d="M248.36,145.05s-90.62,6.21-150.68-4.57l-.29-1S148.15,150,248.24,143.6Z"/>
      <polygon class="fa26326b-638b-4a18-ad2e-97ef932a9e87" points="176.51 96.75 111.56 101.03 110.05 102.37 169.8 97.86 174.8 97.37 176.51 96.75"/>
      <path class="aa4cfa3e-98e9-411c-a28c-7d444fb12ed2" d="M211.37,121.4l-22.29-12.07-3.37.63,25.71,13.91S211.45,122,211.37,121.4Z"/>
      <path class="aa4cfa3e-98e9-411c-a28c-7d444fb12ed2" d="M144.48,125.47l-8.13-13.3-1.47.19L144,127.8A11.13,11.13,0,0,0,144.48,125.47Z"/>
      <path class="aa4cfa3e-98e9-411c-a28c-7d444fb12ed2" d="M143.83,129.21l-9.42-16.65-.79.61,9.08,17.57S143.93,129.7,143.83,129.21Z"/>
      <path class="aa4cfa3e-98e9-411c-a28c-7d444fb12ed2" d="M124.45,125.28l-7.21-13.19-1.33.2L124,127.6A11.79,11.79,0,0,0,124.45,125.28Z"/>
      <path class="aa4cfa3e-98e9-411c-a28c-7d444fb12ed2" d="M124,127.79l-8.49-15.29-.72.56L123,129.19S124.06,128.23,124,127.79Z"/>
      <path class="aa4cfa3e-98e9-411c-a28c-7d444fb12ed2" d="M169.56,133.2l-10-20.11-.5.74,9.07,19.92S169.63,133.72,169.56,133.2Z"/>
      <path class="aa4cfa3e-98e9-411c-a28c-7d444fb12ed2" d="M226.67,122.47l-12.8-10.89-1.9-.48L228,124.73A8.75,8.75,0,0,1,226.67,122.47Z"/>
      <path class="aa4cfa3e-98e9-411c-a28c-7d444fb12ed2" d="M227.91,125.74l-17-14.75-.18,1.42,15.35,13.12S227.93,126.28,227.91,125.74Z"/>
      <path class="aa4cfa3e-98e9-411c-a28c-7d444fb12ed2" d="M208.45,124.35,185,112.14l-.51,2.18,20.82,10.19S208.54,124.9,208.45,124.35Z"/>
    </g>
  </g>
</svg>
