<svg id="a2d16388-6613-47d5-ac3f-ad26836a5a34" data-name="Layer 1" xmlns="http://www.w3.org/2000/svg" xmlns:xlink="http://www.w3.org/1999/xlink" width="1600" height="900" viewBox="0 0 1600 900">
  <defs>
    <style>
      .bc9b10ba-8832-44ea-acaa-1328c2a293ca {
        mask: url(#f9f4ff07-d950-498c-aeb7-75674a89d5d4);
        filter: url(#e068de81-a12f-4f89-a018-a7e11234f777);
      }

      .b53238aa-e24b-4c5e-9d82-7ef7fc406bc8, .e13aa74a-ce31-4156-ae7a-b3ad6f9b8aca {
        mix-blend-mode: multiply;
      }

      .b53238aa-e24b-4c5e-9d82-7ef7fc406bc8 {
        fill: url(#a691e60b-5c4c-428a-8511-b874c4bc6e75);
      }

      .bf7ccd07-5433-4a92-b8d1-d6520410d679 {
        mask: url(#a32b6dc5-c457-45b1-8513-a7458d526be1);
        filter: url(#b89d4bd7-d882-417a-a78d-1f998d5d6f3a);
      }

      .e13aa74a-ce31-4156-ae7a-b3ad6f9b8aca {
        fill: url(#a14faee4-2311-4e2f-a8ae-e0738102d072);
      }

      .f3c344f7-14df-460a-97fe-9bb4b2d80556 {
        fill: none;
      }

      .b0b47afb-a0bb-450c-8d45-76034d90e990 {
        clip-path: url(#adeb4e9f-2260-4881-9b9d-835662201a89);
      }

      .a55a887e-971e-41d6-a61f-202ebe1347fe, .acec82d0-c88c-47f3-b05a-0b0fab61cde8 {
        opacity: 0.55;
      }

      .acec82d0-c88c-47f3-b05a-0b0fab61cde8 {
        fill: url(#bd4c5c23-367b-4d23-8c62-12d8985514de);
      }

      .a55a887e-971e-41d6-a61f-202ebe1347fe {
        fill: url(#f7fc6653-3fcd-4aee-bfa4-9614ee17f4fc);
      }

      .bd1a12d1-5caa-4505-b550-3fb893cec814 {
        fill: #080119;
      }

      .a86073f0-4dbc-4656-98c8-13ec8ff8cea6 {
        fill: #18053f;
      }

      .a9a4eccf-3d26-470c-aba7-59f42e7e4ec1 {
        fill: #2159ce;
      }

      .a9690bc1-7b65-4eb8-b142-f908232998e5 {
        fill: #479dec;
      }

      .fc91dc2d-35c9-494c-a0d5-7c91b4cf597a {
        fill: #5a187b;
      }

      .b69714a4-f9ac-48df-b740-9c3e617a3932 {
        mask: url(#edcc09ad-2870-40e9-aa04-7beb641795cf);
      }

      .a5b37363-f585-4504-baac-2f70b490a0bd {
        fill: url(#f317f1c4-8924-4f45-b5b8-fb8db1a85ddd);
      }

      .f7bf4f70-a1c1-4475-a0f6-e1da3df8cefc {
        fill: #6b2a41;
      }

      .ef935bbd-3d30-4e79-a8f3-66d55f0b2098 {
        fill: #543268;
      }

      .b11e99b6-b161-4213-84ee-b24129f8a7b7 {
        mask: url(#a3636bd3-5065-4211-a7d2-fe5fe00623ac);
      }

      .b62fbc1b-5124-417d-b82a-e3f31073fab6 {
        opacity: 0.51;
        fill: url(#b17f762d-0124-4ebf-b79f-c2252b59c02d);
      }

      .f50536b1-8870-415e-acf0-21ec444dda2c {
        filter: url(#e00ac9c5-3a61-4ad7-971a-f3df599e2a96);
      }

      .b0eece91-8c81-4f57-a25a-d7753cd25f64 {
        filter: url(#b0b3797f-0092-47a3-a45d-0b126f0318d9);
      }
    </style>
    <filter id="b0b3797f-0092-47a3-a45d-0b126f0318d9" x="62.02" y="-9551" width="125.48" height="32766" filterUnits="userSpaceOnUse" color-interpolation-filters="sRGB">
      <feFlood flood-color="#fff" result="bg"/>
      <feBlend in="SourceGraphic" in2="bg"/>
    </filter>
    <mask id="f9f4ff07-d950-498c-aeb7-75674a89d5d4" x="62.02" y="-9551" width="125.48" height="32766" maskUnits="userSpaceOnUse">
      <g class="b0eece91-8c81-4f57-a25a-d7753cd25f64"/>
    </mask>
    <linearGradient id="a691e60b-5c4c-428a-8511-b874c4bc6e75" x1="-1789.5" y1="801.7" x2="-1664.02" y2="801.7" gradientTransform="matrix(-1, 0, 0, 1, -1602, 0)" gradientUnits="userSpaceOnUse">
      <stop offset="0.01" stop-color="#b3b3b3"/>
      <stop offset="1"/>
    </linearGradient>
    <filter id="e00ac9c5-3a61-4ad7-971a-f3df599e2a96" x="1247.26" y="-9551" width="333.95" height="32766" filterUnits="userSpaceOnUse" color-interpolation-filters="sRGB">
      <feFlood flood-color="#fff" result="bg"/>
      <feBlend in="SourceGraphic" in2="bg"/>
    </filter>
    <mask id="a32b6dc5-c457-45b1-8513-a7458d526be1" x="1247.26" y="-9551" width="333.95" height="32766" maskUnits="userSpaceOnUse">
      <g class="f50536b1-8870-415e-acf0-21ec444dda2c"/>
    </mask>
    <linearGradient id="a14faee4-2311-4e2f-a8ae-e0738102d072" x1="-3211.27" y1="898.14" x2="-2843.65" y2="900.05" xlink:href="#a691e60b-5c4c-428a-8511-b874c4bc6e75"/>
    <clipPath id="adeb4e9f-2260-4881-9b9d-835662201a89">
      <rect class="f3c344f7-14df-460a-97fe-9bb4b2d80556" width="1600" height="900"/>
    </clipPath>
    <linearGradient id="bd4c5c23-367b-4d23-8c62-12d8985514de" x1="-3801.69" y1="886.51" x2="-3801.69" y2="1138.43" gradientTransform="matrix(-1, 0, 0, 1, -2658.53, 0)" gradientUnits="userSpaceOnUse">
      <stop offset="0" stop-color="#d64976"/>
      <stop offset="0.99" stop-color="#5a187b"/>
    </linearGradient>
    <linearGradient id="f7fc6653-3fcd-4aee-bfa4-9614ee17f4fc" x1="361.86" y1="775.82" x2="361.86" y2="980.88" gradientTransform="matrix(1, 0, 0, 1, 0, 0)" xlink:href="#bd4c5c23-367b-4d23-8c62-12d8985514de"/>
    <filter id="e068de81-a12f-4f89-a018-a7e11234f777" x="62.02" y="705.21" width="125.48" height="193" filterUnits="userSpaceOnUse" color-interpolation-filters="sRGB">
      <feFlood flood-color="#fff" result="bg"/>
      <feBlend in="SourceGraphic" in2="bg"/>
    </filter>
    <mask id="edcc09ad-2870-40e9-aa04-7beb641795cf" x="62.02" y="705.21" width="125.48" height="193" maskUnits="userSpaceOnUse">
      <g class="bc9b10ba-8832-44ea-acaa-1328c2a293ca">
        <polygon class="b53238aa-e24b-4c5e-9d82-7ef7fc406bc8" points="62.02 889.28 63.11 898.2 78.76 876.64 106.82 876.64 127.51 839.27 159.31 831.32 177.97 816.85 176.28 746.72 187.5 705.21 162.69 739.18 147.76 799.82 116.45 814.74 100.79 855.1 88.87 847.34 62.02 889.28"/>
      </g>
    </mask>
    <linearGradient id="f317f1c4-8924-4f45-b5b8-fb8db1a85ddd" x1="-1785.09" y1="804.72" x2="-1664.02" y2="804.72" gradientTransform="matrix(-1, 0, 0, 1, -1602, 0)" gradientUnits="userSpaceOnUse">
      <stop offset="0.01" stop-color="#18053f"/>
      <stop offset="1" stop-color="#18053f"/>
    </linearGradient>
    <filter id="b89d4bd7-d882-417a-a78d-1f998d5d6f3a" x="1247.26" y="846.78" width="333.95" height="103.65" filterUnits="userSpaceOnUse" color-interpolation-filters="sRGB">
      <feFlood flood-color="#fff" result="bg"/>
      <feBlend in="SourceGraphic" in2="bg"/>
    </filter>
    <mask id="a3636bd3-5065-4211-a7d2-fe5fe00623ac" x="1247.26" y="846.78" width="333.95" height="103.65" maskUnits="userSpaceOnUse">
      <g class="bf7ccd07-5433-4a92-b8d1-d6520410d679">
        <path class="e13aa74a-ce31-4156-ae7a-b3ad6f9b8aca" d="M1247.26,875.52c39.36,2.5,78.64,8.53,112.89,28.48,23.26,13.54,43.62,33.22,68.88,41.79,26.74,9.09,56.77,4.34,81.39-10s43.94-37.76,56.92-64.22c4.14-8.45,8.1-17.71,13.88-24.76-23.56,17.3-42.82,41-67.87,55.69-26.16,15.38-51.22,16.42-76.14,10.73-19.18-4.36-38.27-12.73-57.71-21.59a290.48,290.48,0,0,0-43.3-16.05c-28.66-7.84-58.18-9.75-87.82-.41Z"/>
      </g>
    </mask>
    <linearGradient id="b17f762d-0124-4ebf-b79f-c2252b59c02d" x1="-3211.27" y1="898.14" x2="-2843.65" y2="900.05" gradientTransform="matrix(-1, 0, 0, 1, -1602, 0)" gradientUnits="userSpaceOnUse">
      <stop offset="0.01" stop-color="#d64976"/>
      <stop offset="1" stop-color="#d64976"/>
    </linearGradient>
  </defs>
  <g class="b0b47afb-a0bb-450c-8d45-76034d90e990">
    <g>
      <g>
        <g>
          <path class="acec82d0-c88c-47f3-b05a-0b0fab61cde8" d="M1447.94,825c95.94-55.63,165.48,93.09,166.39,148.1.61,36.7-88.8,83.17-110.13,108.75-16.25,19.48-40.25,24.49-62.71,28.07-65.7,10.46-755.27-13.06-755.27-13.06-52.78-49.39,40.81-171,287.6-124.4,82,15.5,88.09-83.34,202.53-86.08,69.36-1.67,111.49,25.12,162.47,14.23C1379.11,892,1410.93,846.44,1447.94,825Z"/>
          <path class="a55a887e-971e-41d6-a61f-202ebe1347fe" d="M48,716.15c-53.75-7-76.81,81.78-77.72,127.54-.61,30.53.21,64.83,21.52,86.11C8.05,946,32,950.17,54.47,953.15c65.63,8.7,699.07,6.43,699.07,6.43-2.13-11.36-72.56-121.05-238.37-78.75C435,901.28,398.4,725.51,284.08,723.23,214.8,721.84,208,788.1,157,779.05,116.79,771.9,88.55,721.42,48,716.15Z"/>
          <polygon class="bd1a12d1-5caa-4505-b550-3fb893cec814" points="525.46 929.19 583.82 929.19 555.75 839.85 525.46 929.19"/>
          <polygon class="a86073f0-4dbc-4656-98c8-13ec8ff8cea6" points="533.01 966.84 627.28 966.84 581.93 822.53 533.01 966.84"/>
          <g>
            <path class="a9a4eccf-3d26-470c-aba7-59f42e7e4ec1" d="M-35.72,713.6V931.7l375.29-7.82c-.2-14.35-10.21-25-20.17-29.8s-20.94-6.35-30-13.68a43.7,43.7,0,0,1-8.4-9.12c-7.34-10.42-12-24.49-16.07-38.36-.92-3.17-3.19-5.24-5.71-5.24-14.45,0-28.63-1.71-42.76,2.71-10.67,3.32-22.6-2.37-29.38-14-5.14-8.81-7.38-20.38-13.07-28.54-3.31-4.76-7.59-8.07-11-12.73-.37-.5-.71-1-1-1.52-3.84-5.86-6.12-13.07-7.58-20.78-2.37-12.4-10.47-21.4-19.94-21.32a66.33,66.33,0,0,1-21.25-2.83A47.29,47.29,0,0,1,84.61,702.7c-1-2.34-2.93-3.84-5-3.84-6.71,0-13.4-2.8-19.79-5.73L57,691.79a6,6,0,0,1-2.06-1.61c-1-1.17-2-2.34-3-3.53C40.2,672.71,28.48,658,16.75,643.89c-.15-.19-.31-.36-.46-.55v0c-1.4-1.67-2.79-3.34-4.19-5-2.22-2.64-5.57-2.79-7.85-.24-1.31,1.46-2.59,2.95-3.85,4.5a177.13,177.13,0,0,0-25.88,42.93,203.72,203.72,0,0,0-7.65,20.83C-33.89,708.79-34.88,711.14-35.72,713.6Z"/>
            <polygon class="a9690bc1-7b65-4eb8-b142-f908232998e5" points="83.42 858.86 56.76 833.85 53.63 792.56 27.14 770.14 41.55 792.99 27.14 832.09 62.75 892.49 92.01 892.49 83.42 858.86"/>
            <path class="a9690bc1-7b65-4eb8-b142-f908232998e5" d="M16.48,643.34l21.15,55.09,22,8.62L72.4,735.78l10.17,3.45,2.55,20.7H122l22-8,18.24,27-.24-5.33c-3.83-5.86-6.11-13.07-7.57-20.78-2.37-12.4-10.47-21.4-19.92-21.32a66.23,66.23,0,0,1-21.24-2.83A47.3,47.3,0,0,1,84.76,702.7c-1-2.34-2.92-3.84-5-3.84-6.7,0-13.39-2.8-19.78-5.73l-2.9-1.34a6,6,0,0,1-2.06-1.61C42.21,675,29.35,658.83,16.48,643.34Z"/>
            <polygon class="bd1a12d1-5caa-4505-b550-3fb893cec814" points="59.57 896.63 110.9 896.63 86.21 815.29 59.57 896.63"/>
            <polygon class="bd1a12d1-5caa-4505-b550-3fb893cec814" points="9.75 930.78 59.57 930.78 35.61 823.46 9.75 930.78"/>
            <polygon class="bd1a12d1-5caa-4505-b550-3fb893cec814" points="261.08 868.95 310.9 868.95 286.94 761.64 261.08 868.95"/>
            <polygon class="a86073f0-4dbc-4656-98c8-13ec8ff8cea6" points="278.78 861.01 330.11 861.01 305.42 779.68 278.78 861.01"/>
            <path class="fc91dc2d-35c9-494c-a0d5-7c91b4cf597a" d="M64.38,885.6a13,13,0,0,0-1.77,8.5l.5,4.1,2.73,22.18A10.57,10.57,0,0,0,70.07,928l54.07,35.39a5.92,5.92,0,0,0,4.2,1l120.42-18.79a7.6,7.6,0,0,0,5.36-4.28L298,857.77a13.45,13.45,0,0,0-.23-12.46L271.33,799.8a8.05,8.05,0,0,0-3.77-3.5l-24.73-10.25a8.91,8.91,0,0,1-4.69-5.53l-8.5-24.67c-1.36-3.94-4.38-6.32-7.58-6l-7.75.89c-2.8.32-5.51-1.47-7.05-4.66l-14.57-30.19c-2.67-5.53-8.42-6.31-11.85-1.62l-16.9,23.14a11.37,11.37,0,0,0-1.82,4L149,795a9.53,9.53,0,0,1-4.72,6.51l-24.95,11.88a8.91,8.91,0,0,0-4.23,5l-10.83,27.89c-1.91,5-6.37,7-10.08,4.53h0c-3.11-2-6.84-1-9.1,2.55Z"/>
            <g class="b69714a4-f9ac-48df-b740-9c3e617a3932">
              <polygon class="a5b37363-f585-4504-baac-2f70b490a0bd" points="62.02 889.28 63.11 898.2 78.76 876.64 106.82 876.64 127.51 839.27 159.31 831.32 177.97 816.85 176.28 746.72 183.09 711.25 162.69 739.18 147.76 799.82 116.45 814.74 100.79 855.1 88.87 847.34 62.02 889.28"/>
            </g>
            <polygon class="a86073f0-4dbc-4656-98c8-13ec8ff8cea6" points="24.26 937.09 91.25 937.09 69.91 841.5 59.77 847.8 67.3 829.83 59.02 792.78 24.26 937.09"/>
            <path class="f7bf4f70-a1c1-4475-a0f6-e1da3df8cefc" d="M-35.72,768.61l-13.17,306,920.38-1.16c.33-.59,59.31-10.94,59.62-11.52,3.27-5.85,118.55-45.39,121.66-51.29-40.39-39.78-100.63-81.71-144.06-87.59-20.87-2.83-49.39,10-65.42-5.21-5.48-5.2-12.29-7.16-18.65-10.06C791.44,892.63,755,890.29,720.89,901c-31.07,9.75-54.25,24.67-87.57,18.87-15.18-2.64-30-7.73-44.51-14.37-15.65-7.19-30.86-16.21-45.59-26-82.13-54.45-160.57-111.59-255.06-80-42.31,14.14-78.61,50.47-120.93,66.3q-7.6,2.85-15.4,5c-28.21,7.75-57.72,7.94-84.79-4.76C27.3,847.39-2.41,804-35.72,768.61Z"/>
          </g>
        </g>
        <g>
          <polygon class="a86073f0-4dbc-4656-98c8-13ec8ff8cea6" points="1329.94 932.6 1374.25 932.6 1352.93 837.16 1329.94 932.6"/>
          <polygon class="bd1a12d1-5caa-4505-b550-3fb893cec814" points="1349.73 903.87 1393.5 903.87 1370.78 809.57 1365.38 833.76 1370.3 845.52 1363.67 841.41 1349.73 903.87"/>
          <polygon class="a86073f0-4dbc-4656-98c8-13ec8ff8cea6" points="1569.02 884.88 1614.82 884.88 1614.82 789.96 1603.79 740.58 1591.93 789.78 1584.08 822.36 1569.02 884.88"/>
          <polygon class="bd1a12d1-5caa-4505-b550-3fb893cec814" points="1551.21 907.45 1597.3 907.45 1597.3 813.83 1585.98 763.14 1551.21 907.45"/>
          <polygon class="a86073f0-4dbc-4656-98c8-13ec8ff8cea6" points="1467.26 1023.43 1534.25 1023.43 1502.03 879.13 1467.26 1023.43"/>
          <polygon class="a86073f0-4dbc-4656-98c8-13ec8ff8cea6" points="1149.96 1031.71 1216.96 1031.71 1184.73 887.41 1149.96 1031.71"/>
          <polygon class="bd1a12d1-5caa-4505-b550-3fb893cec814" points="1503.19 995.44 1570.19 995.44 1548.85 899.86 1538.71 906.15 1546.24 888.18 1537.96 851.13 1503.19 995.44"/>
        </g>
        <g>
          <path class="ef935bbd-3d30-4e79-a8f3-66d55f0b2098" d="M795.94,1054.33H1613V828.56a161.37,161.37,0,0,0-17.51,8.85c-4.44,2.6-8.77,5.39-13,8.42l-1.16.84-.15.11q-1.71,1.26-3.39,2.55c-1.12.87-2.22,1.73-3.33,2.63q-3.51,2.84-6.93,5.79l-2.8,2.45c-3.21,2.83-6.36,5.71-9.51,8.58-8.3,7.61-16.54,15.29-25.28,22.19l-1.81,1.39c-1.53,1.2-3.1,2.36-4.69,3.49l-2.25,1.58-1.73,1.17c-2,1.36-4.06,2.64-6.14,3.87-1.65,1-3.27,1.86-4.9,2.72-.68.35-1.34.69-2,1-1,.49-1.92.95-2.87,1.39s-1.67.75-2.5,1.1-1.64.69-2.45,1c-1,.39-2,.77-3,1.12l-2,.68c-1.82.61-3.64,1.16-5.44,1.66h-.07c-1.81.49-3.63.92-5.44,1.29h-.06c-.91.19-1.81.37-2.71.52s-1.69.28-2.53.4l-.21,0c-.81.12-1.64.23-2.45.32-.22,0-.45.06-.66.07-.69.08-1.38.15-2.06.2l-.27,0-2,.15c-.87,0-1.73.09-2.6.12-.41,0-.81,0-1.23,0-1.06,0-2.11,0-3.17,0s-2,0-3-.06a.86.86,0,0,1-.23,0c-1,0-2-.09-3-.16s-2.1-.16-3.14-.26c-1.77-.17-3.54-.39-5.31-.64l-1.81-.27-2.31-.4h-.1q-3-.54-6-1.22l-.1,0h0l-.42-.1c-1-.24-2.08-.48-3.14-.76-.64-.14-1.26-.31-1.89-.48s-1.12-.3-1.68-.45c-.77-.2-1.53-.42-2.31-.65s-1.62-.47-2.44-.73-1.41-.42-2.11-.65-1.44-.44-2.15-.68c-1-.34-2-.68-3.06-1-2.13-.73-4.25-1.5-6.38-2.3-3.11-1.16-6.23-2.41-9.35-3.69-1-.42-2.08-.87-3.13-1.3-2.91-1.23-5.83-2.48-8.76-3.78-3.77-1.67-7.53-3.37-11.31-5.09-1.74-.79-3.5-1.58-5.25-2.33l-.27-.11q-2.2-1-4.44-1.89c-.37-.18-.75-.34-1.12-.48l-3.36-1.38-2-.81c-1.29-.52-2.57-1-3.85-1.5l-2.56-1q-4-1.47-8-2.81l-2.29-.76c-1-.31-1.92-.62-2.89-.91-1.28-.4-2.57-.78-3.85-1.15s-2.26-.65-3.39-1c-1.91-.53-3.83-1-5.75-1.49l-2.87-.68c-.8-.19-1.62-.36-2.43-.54l-2.21-.46c-1-.21-2-.42-3-.59l-1.42-.26L1315,871a.76.76,0,0,0-.21,0c-1.14-.18-2.3-.35-3.46-.51-4.78-.65-9.56-1.11-14.37-1.34-1.21-.06-2.4-.11-3.61-.14-2.37,0-4.75,0-7.12,0a2.55,2.55,0,0,0-.39,0q-4.52.12-9,.52c-1.24.13-2.47.25-3.72.4-.61.06-1.23.14-1.84.23-3.72.5-7.44,1.14-11.16,2-.84.17-1.66.36-2.5.56-.27.06-.54.11-.8.19l-1.77.45c-2.2.57-4.42,1.2-6.62,1.89l-1.12.37a211.33,211.33,0,0,0-45.36,21.27q-9.4,5.76-18.43,12.25l-.65.46c-11.1,8-21.8,16.62-32.18,25.6h0c-.64.54-1.27,1.09-1.91,1.65-14.49,12.58-30.08,30.18-46.71,45.4a202.58,202.58,0,0,1-19,15.6,97.7,97.7,0,0,1-23.07,12.64h0l-.06,0c-1.45.52-2.9,1-4.36,1.4-1,.29-1.94.53-2.9.76q-5.25,1.21-10.49,2.07-4.65.76-9.31,1.3c-15.68,1.79-31.29,1.66-46.91.94h-.22c-6.69-.31-13.38-.73-20.08-1.16-7-.44-14-.88-21.08-1.22-9.17-.43-18.37-.66-27.61-.42-42,1-83.32,15.14-118.91,38.88-.53.35-1.07.71-1.6,1.08Z"/>
          <g class="b11e99b6-b161-4213-84ee-b24129f8a7b7">
            <path class="b62fbc1b-5124-417d-b82a-e3f31073fab6" d="M1247.26,875.52c39.36,2.5,78.64,8.53,112.89,28.48,23.26,13.54,43.62,33.22,68.88,41.79,26.74,9.09,56.77,4.34,81.39-10s43.94-37.76,56.92-64.22c4.14-8.45,8.1-17.71,13.88-24.76-23.56,17.3-42.82,41-67.87,55.69-26.16,15.38-51.22,16.42-76.14,10.73-19.18-4.36-38.27-12.73-57.71-21.59a290.48,290.48,0,0,0-43.3-16.05c-28.66-7.84-58.18-9.75-87.82-.41Z"/>
          </g>
        </g>
      </g>
      <rect class="f3c344f7-14df-460a-97fe-9bb4b2d80556" width="1600" height="900"/>
    </g>
  </g>
</svg>
