<svg id="b030cc37-0a03-45ea-889a-3c84ba721dc3" data-name="Layer 1" xmlns="http://www.w3.org/2000/svg" xmlns:xlink="http://www.w3.org/1999/xlink" width="259" height="78" viewBox="0 0 259 78">
  <defs>
    <style>
      .bd811879-5b2c-4005-b4ee-d163beb3ec21 {
        opacity: 0.67;
      }

      .b0286da8-891d-44d5-9779-4ab80244f6d7 {
        fill: url(#fed3cd7f-1383-466a-a59c-f95103288fe5);
      }

      .f7f87dd2-9ac6-460f-a71b-8ecd5b3aada1 {
        fill: url(#b668a0fa-f8b6-468d-ae22-ddd5d9dd071f);
      }
    </style>
    <linearGradient id="fed3cd7f-1383-466a-a59c-f95103288fe5" x1="129.53" y1="98.14" x2="199.85" y2="27.77" gradientUnits="userSpaceOnUse">
      <stop offset="0.15" stop-color="#82cdd9"/>
      <stop offset="0.82" stop-color="#d7eef4"/>
    </linearGradient>
    <linearGradient id="b668a0fa-f8b6-468d-ae22-ddd5d9dd071f" x1="17.14" y1="-239.79" x2="131.38" y2="-354.11" gradientTransform="matrix(0.92, -0.08, 0.09, 1, 66.58, 357.51)" gradientUnits="userSpaceOnUse">
      <stop offset="0.4" stop-color="#adcff1"/>
      <stop offset="0.51" stop-color="#b9d9f5"/>
      <stop offset="0.8" stop-color="#d2f0fc"/>
      <stop offset="0.98" stop-color="#dbf8ff"/>
    </linearGradient>
  </defs>
  <g class="bd811879-5b2c-4005-b4ee-d163beb3ec21">
    <path class="b0286da8-891d-44d5-9779-4ab80244f6d7" d="M128,58.16s1.43-9.84,19.51-16.58,33.3-10.36,49-2.59,12.36,25.39,9,27.46c-6.46,4-20.39,9.31-57.56,4.14C125.66,67.49,128,58.16,128,58.16Z"/>
    <path class="f7f87dd2-9ac6-460f-a71b-8ecd5b3aada1" d="M51.51,42.81S55.76,23.69,88.77,13.5s54.53-15,73.57,4.17,10.51,50-2.48,53.46S92.42,75.89,59.26,62.3C59.26,62.3,47.39,56.16,51.51,42.81Z"/>
  </g>
</svg>
