<svg xmlns="http://www.w3.org/2000/svg" xmlns:xlink="http://www.w3.org/1999/xlink" width="1600" height="900" viewBox="0 0 1600 900">
  <defs>
    <style>
      .b95f97f6-11de-4eff-a751-7d0b3f065695 {
        mask: url(#ad497c83-a5e8-4660-a4dc-972391d61578);
        filter: url(#ea270b18-a71e-487c-82a1-ae08d4d4455b);
      }

      .a0b4af59-6ddc-4d2b-9a75-e844e02cccc5, .ef2f2e53-2502-45e8-8143-102aa80f26e8 {
        mix-blend-mode: multiply;
      }

      .a0b4af59-6ddc-4d2b-9a75-e844e02cccc5 {
        fill: url(#bf21a4cc-6c37-452c-b71b-15eb532da3ce);
      }

      .b0e0a982-0c90-417d-b5ba-77056942198a {
        mask: url(#ba09a3a1-fd1a-445c-b638-0e28cc84fff8);
        filter: url(#bab1e87f-fa38-4273-ba05-04ce45d99fbc);
      }

      .ef2f2e53-2502-45e8-8143-102aa80f26e8 {
        fill: url(#bf595b5b-3b0f-4938-ab1d-47ca5749c8c9);
      }

      .af4c0fb9-4424-4632-8706-d98e9d2f65a1 {
        fill: none;
      }

      .e89499df-ec29-4b30-8f49-160695751dfe {
        isolation: isolate;
      }

      .ab0d9dc1-e120-49b6-8c1e-d0f6252a45cf {
        clip-path: url(#f8e37e07-182c-44b6-8a0a-8f8dc82f5727);
      }

      .f45a4e70-fe3f-4464-87a4-52a57c084f38 {
        clip-path: url(#b80cd430-ddae-40cc-95ea-546f2cd7ab1f);
      }

      .ad99707c-c522-4476-955c-be0e34ed1a4f {
        fill: url(#b0b40a08-91be-41bb-89df-c2639600675f);
      }

      .a292ed58-f37e-4b0e-99f3-99b39d6447bd {
        opacity: 0.53;
      }

      .a806ec36-780b-447d-8da8-569f448afa21, .fa2d753d-6e34-4011-9698-70f17754691e {
        fill: #dfe8eb;
        mix-blend-mode: screen;
      }

      .fa2d753d-6e34-4011-9698-70f17754691e {
        opacity: 0.44;
      }

      .a806ec36-780b-447d-8da8-569f448afa21 {
        opacity: 0.3;
      }

      .a4b2c38b-a985-4d59-8d05-7224e1804ccd, .aa63cfc3-58f6-4f44-a7aa-e274d91662d2 {
        opacity: 0.55;
      }

      .a4b2c38b-a985-4d59-8d05-7224e1804ccd {
        fill: url(#a5e94aa7-a719-47d0-97e7-dff2a4f18bda);
      }

      .aa63cfc3-58f6-4f44-a7aa-e274d91662d2 {
        fill: url(#b8a159bf-f2b9-4c4b-9d1a-308d1fe74ea8);
      }

      .a435cc55-f3dc-4bdc-8f81-64ac44a9190d {
        fill: #080119;
      }

      .b2a90306-c197-4f6f-8288-978ccefd5085 {
        fill: #18053f;
      }

      .a01c4322-d7e1-4bf5-b2ce-53241291e65c {
        fill: #2159ce;
      }

      .e4e652ba-1803-4616-9e55-2253f8dc8981 {
        fill: #479dec;
      }

      .a9cc7f61-9703-449f-a778-bc876d011295 {
        fill: #5a187b;
      }

      .aa798392-683c-4059-86ec-4f465280e0b4 {
        mask: url(#a845c3b1-b7c4-49d6-b0f7-dfd774495244);
      }

      .bff29328-b586-43f3-9868-4245b50ac8e4 {
        fill: url(#aabcbc78-bebe-490c-85bf-a61c5d61c0e8);
      }

      .b41a9c90-013b-4b21-9128-749a2457776c {
        fill: #6b2a41;
      }

      .e3304b58-8538-4ad5-bb43-96caedeb1306 {
        fill: #543268;
      }

      .a5378dae-5b38-4159-8ebb-6b5887d384fd {
        mask: url(#a7e8a1ff-85eb-4797-bbeb-7ad0d89e2e92);
      }

      .b0991c32-0460-4ffb-a3dd-91e53f7ff03d {
        opacity: 0.51;
        fill: url(#a71949b3-0ad9-4c7e-a1aa-ee1e926b0f02);
      }

      .fcf959f0-2810-47d0-bc24-6b4512ab4b45 {
        fill: #fff;
        opacity: 0.29;
      }

      .b9f46149-324f-4a0c-98af-7fa6c4e924dc {
        fill: #95d4fa;
      }

      .a04ae613-07d5-40c0-8bfe-921971ad76c1 {
        fill: #5dbdf7;
      }

      .ed0ea4c3-79bf-42da-8bde-246fae1f02f3 {
        filter: url(#b3028452-1455-4853-8ac2-0874169c8d32);
      }

      .ba66f523-63ad-493c-9c2d-195f41647e37 {
        filter: url(#e7da7933-765a-4864-b407-c80f6a6a00b1);
      }
    </style>
    <filter id="e7da7933-765a-4864-b407-c80f6a6a00b1" x="62.02" y="-9551" width="125.48" height="32766" filterUnits="userSpaceOnUse" color-interpolation-filters="sRGB">
      <feFlood flood-color="#fff" result="bg"/>
      <feBlend in="SourceGraphic" in2="bg"/>
    </filter>
    <mask id="ad497c83-a5e8-4660-a4dc-972391d61578" x="62.02" y="-9551" width="125.48" height="32766" maskUnits="userSpaceOnUse">
      <g class="ba66f523-63ad-493c-9c2d-195f41647e37"/>
    </mask>
    <linearGradient id="bf21a4cc-6c37-452c-b71b-15eb532da3ce" x1="3330.5" y1="801.7" x2="3455.98" y2="801.7" gradientTransform="matrix(-1, 0, 0, 1, 3518, 0)" gradientUnits="userSpaceOnUse">
      <stop offset="0.01" stop-color="#b3b3b3"/>
      <stop offset="1"/>
    </linearGradient>
    <filter id="b3028452-1455-4853-8ac2-0874169c8d32" x="1247.26" y="-9551" width="333.95" height="32766" filterUnits="userSpaceOnUse" color-interpolation-filters="sRGB">
      <feFlood flood-color="#fff" result="bg"/>
      <feBlend in="SourceGraphic" in2="bg"/>
    </filter>
    <mask id="ba09a3a1-fd1a-445c-b638-0e28cc84fff8" x="1247.26" y="-9551" width="333.95" height="32766" maskUnits="userSpaceOnUse">
      <g class="ed0ea4c3-79bf-42da-8bde-246fae1f02f3"/>
    </mask>
    <linearGradient id="bf595b5b-3b0f-4938-ab1d-47ca5749c8c9" x1="1908.73" y1="898.14" x2="2276.35" y2="900.05" xlink:href="#bf21a4cc-6c37-452c-b71b-15eb532da3ce"/>
    <clipPath id="f8e37e07-182c-44b6-8a0a-8f8dc82f5727">
      <rect class="af4c0fb9-4424-4632-8706-d98e9d2f65a1" width="1600" height="900"/>
    </clipPath>
    <clipPath id="b80cd430-ddae-40cc-95ea-546f2cd7ab1f">
      <rect class="af4c0fb9-4424-4632-8706-d98e9d2f65a1" x="-33.33" y="-151.51" width="1648.15" height="1138.11"/>
    </clipPath>
    <linearGradient id="b0b40a08-91be-41bb-89df-c2639600675f" x1="790.74" y1="-154.67" x2="790.74" y2="1027.67" gradientUnits="userSpaceOnUse">
      <stop offset="0" stop-color="#1ca3f4"/>
      <stop offset="0.1" stop-color="#24a7f4"/>
      <stop offset="0.25" stop-color="#3bb2f4"/>
      <stop offset="0.44" stop-color="#60c4f3"/>
      <stop offset="0.65" stop-color="#93ddf2"/>
      <stop offset="0.69" stop-color="#9de2f2"/>
      <stop offset="1" stop-color="#7de7f3"/>
    </linearGradient>
    <linearGradient id="a5e94aa7-a719-47d0-97e7-dff2a4f18bda" x1="1318.31" y1="886.51" x2="1318.31" y2="1138.43" gradientTransform="matrix(-1, 0, 0, 1, 2461.47, 0)" gradientUnits="userSpaceOnUse">
      <stop offset="0" stop-color="#d64976"/>
      <stop offset="0.99" stop-color="#5a187b"/>
    </linearGradient>
    <linearGradient id="b8a159bf-f2b9-4c4b-9d1a-308d1fe74ea8" x1="361.86" y1="775.82" x2="361.86" y2="980.88" gradientTransform="matrix(1, 0, 0, 1, 0, 0)" xlink:href="#a5e94aa7-a719-47d0-97e7-dff2a4f18bda"/>
    <filter id="ea270b18-a71e-487c-82a1-ae08d4d4455b" x="62.02" y="705.21" width="125.48" height="193" filterUnits="userSpaceOnUse" color-interpolation-filters="sRGB">
      <feFlood flood-color="#fff" result="bg"/>
      <feBlend in="SourceGraphic" in2="bg"/>
    </filter>
    <mask id="a845c3b1-b7c4-49d6-b0f7-dfd774495244" x="62.02" y="705.21" width="125.48" height="193" maskUnits="userSpaceOnUse">
      <g class="b95f97f6-11de-4eff-a751-7d0b3f065695">
        <polygon class="a0b4af59-6ddc-4d2b-9a75-e844e02cccc5" points="62.02 889.28 63.11 898.2 78.76 876.64 106.82 876.64 127.51 839.27 159.31 831.32 177.97 816.85 176.28 746.72 187.5 705.21 162.69 739.18 147.76 799.82 116.45 814.74 100.79 855.1 88.87 847.34 62.02 889.28"/>
      </g>
    </mask>
    <linearGradient id="aabcbc78-bebe-490c-85bf-a61c5d61c0e8" x1="3334.91" y1="804.72" x2="3455.98" y2="804.72" gradientTransform="matrix(-1, 0, 0, 1, 3518, 0)" gradientUnits="userSpaceOnUse">
      <stop offset="0.01" stop-color="#18053f"/>
      <stop offset="1" stop-color="#18053f"/>
    </linearGradient>
    <filter id="bab1e87f-fa38-4273-ba05-04ce45d99fbc" x="1247.26" y="846.78" width="333.95" height="103.65" filterUnits="userSpaceOnUse" color-interpolation-filters="sRGB">
      <feFlood flood-color="#fff" result="bg"/>
      <feBlend in="SourceGraphic" in2="bg"/>
    </filter>
    <mask id="a7e8a1ff-85eb-4797-bbeb-7ad0d89e2e92" x="1247.26" y="846.78" width="333.95" height="103.65" maskUnits="userSpaceOnUse">
      <g class="b0e0a982-0c90-417d-b5ba-77056942198a">
        <path class="ef2f2e53-2502-45e8-8143-102aa80f26e8" d="M1247.26,875.52c39.36,2.5,78.64,8.53,112.89,28.48,23.26,13.54,43.62,33.22,68.88,41.79,26.74,9.09,56.77,4.34,81.39-10s43.94-37.76,56.92-64.22c4.14-8.45,8.1-17.71,13.88-24.76-23.56,17.3-42.82,41-67.87,55.69-26.16,15.38-51.22,16.42-76.14,10.73-19.18-4.36-38.27-12.73-57.71-21.59a290.48,290.48,0,0,0-43.3-16.05c-28.66-7.84-58.18-9.75-87.82-.41Z"/>
      </g>
    </mask>
    <linearGradient id="a71949b3-0ad9-4c7e-a1aa-ee1e926b0f02" x1="1908.73" y1="898.14" x2="2276.35" y2="900.05" gradientTransform="matrix(-1, 0, 0, 1, 3518, 0)" gradientUnits="userSpaceOnUse">
      <stop offset="0.01" stop-color="#d64976"/>
      <stop offset="1" stop-color="#d64976"/>
    </linearGradient>
  </defs>
  <g class="e89499df-ec29-4b30-8f49-160695751dfe">
    <g id="b31a166a-3f56-47f7-835f-05f7ad0f3b64" data-name="Layer 1">
      <g class="ab0d9dc1-e120-49b6-8c1e-d0f6252a45cf">
        <g>
          <g>
            <g class="f45a4e70-fe3f-4464-87a4-52a57c084f38">
              <rect class="ad99707c-c522-4476-955c-be0e34ed1a4f" x="-33.33" y="-151.51" width="1648.15" height="1138.11"/>
              <g class="a292ed58-f37e-4b0e-99f3-99b39d6447bd">
                <path class="fa2d753d-6e34-4011-9698-70f17754691e" d="M1562.29,941.91c-35.3,12.57-62.63,52.51-62.63,52.51,0-82.24-101-63.84-101-63.84-28.72-62.21-124.8-27.62-124.8-27.62-47.31-77.38-127.22-42.39-127.22-42.39C1103,758.25,1015,835.77,1015,835.77c-85-58-111.94,35.9-111.94,35.9-76.16-23.71-80.44,47.07-80.44,47.07C573.37,1003.37,840,1165.56,840,1165.56s435.79-20.44,630.36-12.11c36.83,1.58,67.08,1.43,91.91.14Z"/>
                <path class="fa2d753d-6e34-4011-9698-70f17754691e" d="M276.34,861.19c2.92-109-56.84-89.61-56.84-89.61-56.84-63.28-99.6,30-99.6,30C44.19,718.54,21.68,845,21.68,845c-25.27-9.47-42.83-4.22-55,8v223.78c39.19,9.76,89-1.61,89-1.61l257.16,11s53.71-52.81,58.87-148.75S276.34,861.19,276.34,861.19Z"/>
                <path class="fa2d753d-6e34-4011-9698-70f17754691e" d="M1278.83,629.67H1561.9S1551.61,614,1494.17,614c0,0-10.24-107.77-58.22-38.17,0,0-24.45-74.09-61.41-4.49,0,0-39.52-49.39-51.24,4.49,0,0-24.35-17.57-41.61,28.26l-31.34,12.79c-5.25,2.15-4.13,12.83,1.34,12.83Z"/>
                <path class="fa2d753d-6e34-4011-9698-70f17754691e" d="M-33,626.7c3.72-7.36,11.87-15.46,28.76-6.23,0,0,7.05-52.2,36.2-28.27,0,0,31.19-75.56,76.69-6.28,0,0,45.88-34,55.75,27.61,0,0,32.54-6.74,46.3,12.44,2.47,3.43.71,9.26-2.79,9.26H-29.81C-33,635.23-34.87,630.29-33,626.7Z"/>
                <path class="a806ec36-780b-447d-8da8-569f448afa21" d="M-33.33,568.08v39s874.93,1.41,1114.12-11.85C1290.27,583.64,385.44,572.51-33.33,568.08Z"/>
                <path class="a806ec36-780b-447d-8da8-569f448afa21" d="M-33.33,675.39v61.7l1648.14-7.69V674.74C1346.89,672.44,91.14,665.27-33.33,675.39Z"/>
                <path class="a806ec36-780b-447d-8da8-569f448afa21" d="M1614.81,741.74v39S410.25,782.19,171.06,768.92C-38.42,757.3,1196,746.17,1614.81,741.74Z"/>
              </g>
            </g>
            <g>
              <g>
                <g>
                  <path class="a4b2c38b-a985-4d59-8d05-7224e1804ccd" d="M1447.94,825c95.94-55.63,165.48,93.09,166.39,148.1.61,36.7-88.8,83.17-110.13,108.75-16.25,19.48-40.25,24.49-62.71,28.07-65.7,10.46-755.27-13.06-755.27-13.06-52.78-49.39,40.81-171,287.6-124.4,82,15.5,88.09-83.34,202.53-86.08,69.36-1.67,111.49,25.12,162.47,14.23C1379.11,892,1410.93,846.44,1447.94,825Z"/>
                  <path class="aa63cfc3-58f6-4f44-a7aa-e274d91662d2" d="M48,716.15c-53.75-7-76.81,81.78-77.72,127.54-.61,30.53.21,64.83,21.52,86.11C8.05,946,32,950.17,54.47,953.15c65.63,8.7,699.07,6.43,699.07,6.43-2.13-11.36-72.56-121.05-238.37-78.75C435,901.28,398.4,725.51,284.08,723.23,214.8,721.84,208,788.1,157,779.05,116.79,771.9,88.55,721.42,48,716.15Z"/>
                  <polygon class="a435cc55-f3dc-4bdc-8f81-64ac44a9190d" points="525.46 929.19 583.82 929.19 555.75 839.85 525.46 929.19"/>
                  <polygon class="b2a90306-c197-4f6f-8288-978ccefd5085" points="533.01 966.84 627.28 966.84 581.93 822.53 533.01 966.84"/>
                  <g>
                    <path class="a01c4322-d7e1-4bf5-b2ce-53241291e65c" d="M-35.72,713.6V931.7l375.29-7.82c-.2-14.35-10.21-25-20.17-29.8s-20.94-6.35-30-13.68a43.7,43.7,0,0,1-8.4-9.12c-7.34-10.42-12-24.49-16.07-38.36-.92-3.17-3.19-5.24-5.71-5.24-14.45,0-28.63-1.71-42.76,2.71-10.67,3.32-22.6-2.37-29.38-14-5.14-8.81-7.38-20.38-13.07-28.54-3.31-4.76-7.59-8.07-11-12.73-.37-.5-.71-1-1-1.52-3.84-5.86-6.12-13.07-7.58-20.78-2.37-12.4-10.47-21.4-19.94-21.32a66.33,66.33,0,0,1-21.25-2.83A47.29,47.29,0,0,1,84.61,702.7c-1-2.34-2.93-3.84-5-3.84-6.71,0-13.4-2.8-19.79-5.73L57,691.79a6,6,0,0,1-2.06-1.61c-1-1.17-2-2.34-3-3.53C40.2,672.71,28.48,658,16.75,643.89c-.15-.19-.31-.36-.46-.55v0c-1.4-1.67-2.79-3.34-4.19-5-2.22-2.64-5.57-2.79-7.85-.24-1.31,1.46-2.59,2.95-3.85,4.5a177.13,177.13,0,0,0-25.88,42.93,203.72,203.72,0,0,0-7.65,20.83C-33.89,708.79-34.88,711.14-35.72,713.6Z"/>
                    <polygon class="e4e652ba-1803-4616-9e55-2253f8dc8981" points="83.42 858.86 56.76 833.85 53.63 792.56 27.14 770.14 41.55 792.99 27.14 832.09 62.75 892.49 92.01 892.49 83.42 858.86"/>
                    <path class="e4e652ba-1803-4616-9e55-2253f8dc8981" d="M16.48,643.34l21.15,55.09,22,8.62L72.4,735.78l10.17,3.45,2.55,20.7H122l22-8,18.24,27-.24-5.33c-3.83-5.86-6.11-13.07-7.57-20.78-2.37-12.4-10.47-21.4-19.92-21.32a66.23,66.23,0,0,1-21.24-2.83A47.3,47.3,0,0,1,84.76,702.7c-1-2.34-2.92-3.84-5-3.84-6.7,0-13.39-2.8-19.78-5.73l-2.9-1.34a6,6,0,0,1-2.06-1.61C42.21,675,29.35,658.83,16.48,643.34Z"/>
                    <polygon class="a435cc55-f3dc-4bdc-8f81-64ac44a9190d" points="59.57 896.63 110.9 896.63 86.21 815.29 59.57 896.63"/>
                    <polygon class="a435cc55-f3dc-4bdc-8f81-64ac44a9190d" points="9.75 930.78 59.57 930.78 35.61 823.46 9.75 930.78"/>
                    <polygon class="a435cc55-f3dc-4bdc-8f81-64ac44a9190d" points="261.08 868.95 310.9 868.95 286.94 761.64 261.08 868.95"/>
                    <polygon class="b2a90306-c197-4f6f-8288-978ccefd5085" points="278.78 861.01 330.11 861.01 305.42 779.68 278.78 861.01"/>
                    <path class="a9cc7f61-9703-449f-a778-bc876d011295" d="M64.38,885.6a13,13,0,0,0-1.77,8.5l.5,4.1,2.73,22.18A10.57,10.57,0,0,0,70.07,928l54.07,35.39a5.92,5.92,0,0,0,4.2,1l120.42-18.79a7.6,7.6,0,0,0,5.36-4.28L298,857.77a13.45,13.45,0,0,0-.23-12.46L271.33,799.8a8.05,8.05,0,0,0-3.77-3.5l-24.73-10.25a8.91,8.91,0,0,1-4.69-5.53l-8.5-24.67c-1.36-3.94-4.38-6.32-7.58-6l-7.75.89c-2.8.32-5.51-1.47-7.05-4.66l-14.57-30.19c-2.67-5.53-8.42-6.31-11.85-1.62l-16.9,23.14a11.37,11.37,0,0,0-1.82,4L149,795a9.53,9.53,0,0,1-4.72,6.51l-24.95,11.88a8.91,8.91,0,0,0-4.23,5l-10.83,27.89c-1.91,5-6.37,7-10.08,4.53h0c-3.11-2-6.84-1-9.1,2.55Z"/>
                    <g class="aa798392-683c-4059-86ec-4f465280e0b4">
                      <polygon class="bff29328-b586-43f3-9868-4245b50ac8e4" points="62.02 889.28 63.11 898.2 78.76 876.64 106.82 876.64 127.51 839.27 159.31 831.32 177.97 816.85 176.28 746.72 183.09 711.25 162.69 739.18 147.76 799.82 116.45 814.74 100.79 855.1 88.87 847.34 62.02 889.28"/>
                    </g>
                    <polygon class="b2a90306-c197-4f6f-8288-978ccefd5085" points="24.26 937.09 91.25 937.09 69.91 841.5 59.77 847.8 67.3 829.83 59.02 792.78 24.26 937.09"/>
                    <path class="b41a9c90-013b-4b21-9128-749a2457776c" d="M-35.72,768.61l-13.17,306,920.38-1.16c.33-.59,59.31-10.94,59.62-11.52,3.27-5.85,118.55-45.39,121.66-51.29-40.39-39.78-100.63-81.71-144.06-87.59-20.87-2.83-49.39,10-65.42-5.21-5.48-5.2-12.29-7.16-18.65-10.06C791.44,892.63,755,890.29,720.89,901c-31.07,9.75-54.25,24.67-87.57,18.87-15.18-2.64-30-7.73-44.51-14.37-15.65-7.19-30.86-16.21-45.59-26-82.13-54.45-160.57-111.59-255.06-80-42.31,14.14-78.61,50.47-120.93,66.3q-7.6,2.85-15.4,5c-28.21,7.75-57.72,7.94-84.79-4.76C27.3,847.39-2.41,804-35.72,768.61Z"/>
                  </g>
                </g>
                <g>
                  <polygon class="b2a90306-c197-4f6f-8288-978ccefd5085" points="1329.94 932.6 1374.25 932.6 1352.93 837.16 1329.94 932.6"/>
                  <polygon class="a435cc55-f3dc-4bdc-8f81-64ac44a9190d" points="1349.73 903.87 1393.5 903.87 1370.78 809.57 1365.38 833.76 1370.3 845.52 1363.67 841.41 1349.73 903.87"/>
                  <polygon class="b2a90306-c197-4f6f-8288-978ccefd5085" points="1569.02 884.88 1614.82 884.88 1614.82 789.96 1603.79 740.58 1591.93 789.78 1584.08 822.36 1569.02 884.88"/>
                  <polygon class="a435cc55-f3dc-4bdc-8f81-64ac44a9190d" points="1551.21 907.45 1597.3 907.45 1597.3 813.83 1585.98 763.14 1551.21 907.45"/>
                  <polygon class="b2a90306-c197-4f6f-8288-978ccefd5085" points="1467.26 1023.43 1534.25 1023.43 1502.03 879.13 1467.26 1023.43"/>
                  <polygon class="b2a90306-c197-4f6f-8288-978ccefd5085" points="1149.96 1031.71 1216.96 1031.71 1184.73 887.41 1149.96 1031.71"/>
                  <polygon class="a435cc55-f3dc-4bdc-8f81-64ac44a9190d" points="1503.19 995.44 1570.19 995.44 1548.85 899.86 1538.71 906.15 1546.24 888.18 1537.96 851.13 1503.19 995.44"/>
                </g>
                <g>
                  <path class="e3304b58-8538-4ad5-bb43-96caedeb1306" d="M795.94,1054.33H1613V828.56a161.37,161.37,0,0,0-17.51,8.85c-4.44,2.6-8.77,5.39-13,8.42l-1.16.84-.15.11q-1.71,1.26-3.39,2.55c-1.12.87-2.22,1.73-3.33,2.63q-3.51,2.84-6.93,5.79l-2.8,2.45c-3.21,2.83-6.36,5.71-9.51,8.58-8.3,7.61-16.54,15.29-25.28,22.19l-1.81,1.39c-1.53,1.2-3.1,2.36-4.69,3.49l-2.25,1.58-1.73,1.17c-2,1.36-4.06,2.64-6.14,3.87-1.65,1-3.27,1.86-4.9,2.72-.68.35-1.34.69-2,1-1,.49-1.92.95-2.87,1.39s-1.67.75-2.5,1.1-1.64.69-2.45,1c-1,.39-2,.77-3,1.12l-2,.68c-1.82.61-3.64,1.16-5.44,1.66h-.07c-1.81.49-3.63.92-5.44,1.29h-.06c-.91.19-1.81.37-2.71.52s-1.69.28-2.53.4l-.21,0c-.81.12-1.64.23-2.45.32-.22,0-.45.06-.66.07-.69.08-1.38.15-2.06.2l-.27,0-2,.15c-.87,0-1.73.09-2.6.12-.41,0-.81,0-1.23,0-1.06,0-2.11,0-3.17,0s-2,0-3-.06a.86.86,0,0,1-.23,0c-1,0-2-.09-3-.16s-2.1-.16-3.14-.26c-1.77-.17-3.54-.39-5.31-.64l-1.81-.27-2.31-.4h-.1q-3-.54-6-1.22l-.1,0h0l-.42-.1c-1-.24-2.08-.48-3.14-.76-.64-.14-1.26-.31-1.89-.48s-1.12-.3-1.68-.45c-.77-.2-1.53-.42-2.31-.65s-1.62-.47-2.44-.73-1.41-.42-2.11-.65-1.44-.44-2.15-.68c-1-.34-2-.68-3.06-1-2.13-.73-4.25-1.5-6.38-2.3-3.11-1.16-6.23-2.41-9.35-3.69-1-.42-2.08-.87-3.13-1.3-2.91-1.23-5.83-2.48-8.76-3.78-3.77-1.67-7.53-3.37-11.31-5.09-1.74-.79-3.5-1.58-5.25-2.33l-.27-.11q-2.2-1-4.44-1.89c-.37-.18-.75-.34-1.12-.48l-3.36-1.38-2-.81c-1.29-.52-2.57-1-3.85-1.5l-2.56-1q-4-1.47-8-2.81l-2.29-.76c-1-.31-1.92-.62-2.89-.91-1.28-.4-2.57-.78-3.85-1.15s-2.26-.65-3.39-1c-1.91-.53-3.83-1-5.75-1.49l-2.87-.68c-.8-.19-1.62-.36-2.43-.54l-2.21-.46c-1-.21-2-.42-3-.59l-1.42-.26L1315,871a.76.76,0,0,0-.21,0c-1.14-.18-2.3-.35-3.46-.51-4.78-.65-9.56-1.11-14.37-1.34-1.21-.06-2.4-.11-3.61-.14-2.37,0-4.75,0-7.12,0a2.55,2.55,0,0,0-.39,0q-4.52.12-9,.52c-1.24.13-2.47.25-3.72.4-.61.06-1.23.14-1.84.23-3.72.5-7.44,1.14-11.16,2-.84.17-1.66.36-2.5.56-.27.06-.54.11-.8.19l-1.77.45c-2.2.57-4.42,1.2-6.62,1.89l-1.12.37a211.33,211.33,0,0,0-45.36,21.27q-9.4,5.76-18.43,12.25l-.65.46c-11.1,8-21.8,16.62-32.18,25.6h0c-.64.54-1.27,1.09-1.91,1.65-14.49,12.58-30.08,30.18-46.71,45.4a202.58,202.58,0,0,1-19,15.6,97.7,97.7,0,0,1-23.07,12.64h0l-.06,0c-1.45.52-2.9,1-4.36,1.4-1,.29-1.94.53-2.9.76q-5.25,1.21-10.49,2.07-4.65.76-9.31,1.3c-15.68,1.79-31.29,1.66-46.91.94h-.22c-6.69-.31-13.38-.73-20.08-1.16-7-.44-14-.88-21.08-1.22-9.17-.43-18.37-.66-27.61-.42-42,1-83.32,15.14-118.91,38.88-.53.35-1.07.71-1.6,1.08Z"/>
                  <g class="a5378dae-5b38-4159-8ebb-6b5887d384fd">
                    <path class="b0991c32-0460-4ffb-a3dd-91e53f7ff03d" d="M1247.26,875.52c39.36,2.5,78.64,8.53,112.89,28.48,23.26,13.54,43.62,33.22,68.88,41.79,26.74,9.09,56.77,4.34,81.39-10s43.94-37.76,56.92-64.22c4.14-8.45,8.1-17.71,13.88-24.76-23.56,17.3-42.82,41-67.87,55.69-26.16,15.38-51.22,16.42-76.14,10.73-19.18-4.36-38.27-12.73-57.71-21.59a290.48,290.48,0,0,0-43.3-16.05c-28.66-7.84-58.18-9.75-87.82-.41Z"/>
                  </g>
                </g>
              </g>
              <path class="fcf959f0-2810-47d0-bc24-6b4512ab4b45" d="M315.17,390.61c10.74-8.92,16.58-28.34,8.59-40.74-5.32-8.25-15.05-10.86-23.6-9s-16.21,7.29-23.58,12.78c8.93-29,2.51-64-15.77-85.8-8.16-9.74-20.5-17.11-31-11.4-8.93,4.87-13,17.27-15.31,28.73a226.55,226.55,0,0,0-4.48,43.4c-4.5-16.54-14.6-26.64-26.34-26-11.27.61-13.83,19.17-13,32.68-4.27-11.48-26.54-10.84-20.18,18.21-13-5.38-26.74-10.82-40.12-7.28S85,366,89,381.77c4.55,18.13,24.23,21.79,40,22.11C212,405.53,293,409.06,315.17,390.61Z"/>
              <path class="b9f46149-324f-4a0c-98af-7fa6c4e924dc" d="M1593.22,70.11c28-23.23,43.19-73.78,22.37-106.09-13.83-21.47-39.19-28.26-61.45-23.54s-42.2,19-61.41,33.3c23.27-75.59,6.54-166.65-41-223.45-21.24-25.35-53.38-44.55-80.64-29.68-23.27,12.69-33.85,45-39.89,74.81a591.51,591.51,0,0,0-11.64,113c-11.73-43.07-38-69.36-68.61-67.71-29.33,1.58-36,49.91-33.72,85.09-11.14-29.88-69.13-28.23-52.57,47.42-33.74-14-69.62-28.16-104.48-18.95S993.93,6,1004.22,47.1c11.83,47.2,63.08,56.74,104.11,57.56C1324.64,109,1535.39,118.15,1593.22,70.11Z"/>
              <path class="a04ae613-07d5-40c0-8bfe-921971ad76c1" d="M914.66,19.18C936,1.47,947.58-37.06,931.71-61.69c-10.55-16.37-29.87-21.54-46.84-17.94S852.7-65.16,838.06-54.25c17.74-57.62,5-127-31.29-170.32-16.19-19.32-40.69-34-61.47-22.62-17.73,9.67-25.8,34.28-30.4,57A451.12,451.12,0,0,0,706-104c-8.94-32.83-29-52.87-52.29-51.61-22.36,1.21-27.45,38-25.71,64.86-8.49-22.77-52.69-21.51-40.07,36.15-25.72-10.67-53.06-21.47-79.64-14.45S457.85-29.66,465.7,1.64c9,36,48.08,43.25,79.35,43.87C709.93,48.79,870.57,55.8,914.66,19.18Z"/>
            </g>
          </g>
          <rect class="af4c0fb9-4424-4632-8706-d98e9d2f65a1" width="1600" height="900"/>
        </g>
      </g>
    </g>
  </g>
</svg>
