<svg xmlns="http://www.w3.org/2000/svg" xmlns:xlink="http://www.w3.org/1999/xlink" width="1600" height="900" viewBox="0 0 1600 900">
  <defs>
    <style>
      .b753b685-af9f-4668-85c6-8f24ca357c18, .fde1f9cb-8b71-4680-9cd9-d324d7459405 {
        fill: none;
      }

      .bc2ced5f-82c4-4836-8d96-5ba24e27047e {
        isolation: isolate;
      }

      .a9fddcec-bcab-46fe-b84b-4318bd47f179 {
        clip-path: url(#bdb83227-fe06-45ee-bc91-2f4b10c3db6a);
      }

      .b753b685-af9f-4668-85c6-8f24ca357c18 {
        stroke: #f3f1f1;
        stroke-miterlimit: 10;
        stroke-width: 0.5px;
      }

      .bc9cb56e-2f4a-4d13-9b28-258aeacc5bd2 {
        fill: #954c27;
      }

      .ec86e215-fb16-410e-8a63-c7bf9c69e7a0 {
        fill: url(#aba32ede-6ba9-45b5-b48f-0c3abcacb095);
      }

      .a606de66-7508-4ce7-8b21-614ae4c8a36d {
        fill: #80c6d7;
      }

      .bd26991a-b88e-48c4-9df7-df40e2df8301 {
        fill: #74bf44;
      }

      .bc4d92bd-a481-4a5a-9334-3db412182326 {
        fill: url(#f479fbba-6f64-4105-bc11-9268516afeef);
      }

      .e72ad202-5eea-48ee-8465-4c4eb7679c84 {
        fill: url(#bf6ea63e-5cb3-4a2c-a411-8fdf6c7e694b);
      }

      .f50779db-6958-4179-83ca-949e20d91033 {
        fill: url(#e36d2776-d9b7-4c5a-9a54-a7fd6f7de855);
      }

      .e82698a3-7d9e-4497-90ca-0b6617e714d7 {
        fill: #8bc656;
      }

      .e90c3409-3724-4b8d-af3c-4af3cdab7db4 {
        fill: url(#a928adaa-c5a4-42cb-9e33-11a688997bf4);
      }

      .afaf8d23-9ce6-4a8c-9ce2-aa7ce84cb142 {
        fill: #379f48;
      }

      .aa4bb793-60bc-4453-8a0b-316013a4ea3a, .afaf8d23-9ce6-4a8c-9ce2-aa7ce84cb142, .e75a1c97-aeed-46b1-b144-89f6b81ec2d1 {
        fill-rule: evenodd;
      }

      .af218d62-9bdd-4bbe-8ad6-fdf6f5ae08ea {
        mix-blend-mode: screen;
        opacity: 0.5;
        fill: url(#f6d6a75e-5b80-4e50-af66-b4ab5400ba99);
      }

      .adaccfcb-8a15-4e7f-b37c-3995ff71f5e6 {
        fill: #4cb64b;
      }

      .e0787be6-9e6b-4f2d-9e30-9d6440fa252a {
        opacity: 0.39;
      }

      .e301988b-9ad5-4674-be45-acc2d5e2dfe1 {
        fill: #49b64a;
        mix-blend-mode: multiply;
      }

      .e75a1c97-aeed-46b1-b144-89f6b81ec2d1 {
        fill: #318741;
      }

      .b7b62b27-97cb-4907-8fc9-d95a93b89e76 {
        fill: url(#af17f8eb-93f7-454e-8be8-6d8933ec1aa0);
      }

      .a66322f5-1e99-4fa9-a0ba-4cd58c8cb808 {
        fill: url(#e13cd71c-0552-4223-838a-26a472ad7ca3);
      }

      .a896bd4b-e6cc-4d64-ab49-6b3488563125 {
        fill: url(#f30ef9fd-8f6e-49ec-b8a7-a9ac2d003f53);
      }

      .f0490698-9214-496b-9239-405ed5fde42b {
        fill: url(#a4894ef2-75f4-4251-9b01-5cad767649dd);
      }

      .afee20d0-eff8-4bcc-8027-850ddb1ca160 {
        fill: #30b34a;
      }

      .b639156b-8f2e-4298-9f15-a35ed2b50fd4 {
        fill: #60833a;
      }

      .fa3cef10-4602-4bf6-8964-7c1fca9995a1 {
        fill: #407638;
      }

      .a9f70add-bb48-49b9-b0f8-d4422a65500b {
        opacity: 0.24;
      }

      .ea21003d-18d7-43a2-9f9a-236d608bb4f8 {
        fill: url(#e4aa58d2-9ee4-430a-967f-72c0cade75a7);
      }

      .aa4bb793-60bc-4453-8a0b-316013a4ea3a, .e02511b9-35c8-4f2c-a0a3-5e4689ed3e7a, .fd93ba97-dd01-46f8-998a-764163910402 {
        fill: #227d3e;
      }

      .e384ca54-d38f-4e13-9bd9-21edeb00a7bb {
        fill: #1f763b;
      }

      .b9448318-65d5-4cf1-b71a-92ef67e605f8 {
        fill: #b1732a;
      }

      .b15812aa-ff73-4a99-968f-154e38441270 {
        fill: #925c25;
      }

      .b6c6393e-b59e-435a-a1d9-edde64dd3b4d {
        fill: #1a1e1a;
        opacity: 0.3;
      }

      .eae7b8ea-fe99-4e06-9cc1-c9d22caa5ba7 {
        fill: #514e47;
      }

      .b19a77c6-7771-4f68-89d4-8fe42882936b {
        fill: #716c63;
      }

      .e43d7f5d-208d-4764-af25-5f98abe3bcd7 {
        fill: #7c7972;
      }

      .f87fe5fc-8970-4300-8eb6-f33f08a9f8e4 {
        fill: #565450;
      }

      .b692132e-0a31-4f76-a437-d08fc4b40671 {
        fill: #3f3f3e;
      }

      .e388da32-9dd8-4a69-909a-44c4aa22c684 {
        fill: #5f5b54;
      }

      .bf94cfe4-0bd3-4dc1-a17d-6795274205aa {
        fill: #4d4943;
      }

      .a3066d47-c346-402e-ab8f-de29417cd44d {
        fill: #afaeab;
      }

      .e1dd39de-79c9-4f93-9830-0c5bb5783269 {
        fill: #b9b8b4;
      }

      .aeaf69c8-2941-4d35-b7d6-0f757b485273 {
        fill: #a09c95;
      }

      .b4bfc44a-3c38-4d16-8d25-ffa291a08c77, .fc1ea883-7003-4b2d-ad64-465a27bd028b {
        fill: #706e69;
      }

      .fc1ea883-7003-4b2d-ad64-465a27bd028b {
        opacity: 0.42;
      }

      .b4bfc44a-3c38-4d16-8d25-ffa291a08c77, .fd93ba97-dd01-46f8-998a-764163910402 {
        opacity: 0.4;
      }

      .ff2900a1-295b-4984-8793-9e73c1d5566e {
        fill: #0a4924;
      }
    </style>
    <clipPath id="bdb83227-fe06-45ee-bc91-2f4b10c3db6a">
      <rect class="fde1f9cb-8b71-4680-9cd9-d324d7459405" width="1600" height="900"/>
    </clipPath>
    <linearGradient id="aba32ede-6ba9-45b5-b48f-0c3abcacb095" x1="807.75" y1="1293.96" x2="802.34" y2="-446.97" gradientUnits="userSpaceOnUse">
      <stop offset="0.32" stop-color="#d6ede9"/>
      <stop offset="0.44" stop-color="#c7e6e8"/>
      <stop offset="0.67" stop-color="#9ed3e6"/>
      <stop offset="0.93" stop-color="#68b9e4"/>
    </linearGradient>
    <linearGradient id="f479fbba-6f64-4105-bc11-9268516afeef" x1="308.87" y1="627.19" x2="1178.66" y2="627.19" gradientUnits="userSpaceOnUse">
      <stop offset="0.15" stop-color="#50ba7d"/>
      <stop offset="0.29" stop-color="#40b776"/>
      <stop offset="0.29" stop-color="#40b776"/>
      <stop offset="0.82" stop-color="#63bf85"/>
      <stop offset="0.9" stop-color="#69c088"/>
    </linearGradient>
    <linearGradient id="bf6ea63e-5cb3-4a2c-a411-8fdf6c7e694b" x1="567.51" y1="581.31" x2="1630" y2="581.31" xlink:href="#f479fbba-6f64-4105-bc11-9268516afeef"/>
    <linearGradient id="e36d2776-d9b7-4c5a-9a54-a7fd6f7de855" x1="-30.74" y1="591.41" x2="1007.04" y2="591.41" xlink:href="#f479fbba-6f64-4105-bc11-9268516afeef"/>
    <linearGradient id="a928adaa-c5a4-42cb-9e33-11a688997bf4" x1="213.17" y1="630.05" x2="1416.44" y2="630.05" xlink:href="#f479fbba-6f64-4105-bc11-9268516afeef"/>
    <linearGradient id="f6d6a75e-5b80-4e50-af66-b4ab5400ba99" x1="500.46" y1="609.77" x2="500.46" y2="578.39" gradientUnits="userSpaceOnUse">
      <stop offset="0" stop-color="#0f1a11"/>
      <stop offset="0.58" stop-color="#325629"/>
      <stop offset="1" stop-color="#15633e"/>
    </linearGradient>
    <linearGradient id="af17f8eb-93f7-454e-8be8-6d8933ec1aa0" x1="589.46" y1="203.63" x2="665.48" y2="170.71" gradientUnits="userSpaceOnUse">
      <stop offset="0.32" stop-color="#86d1f1"/>
      <stop offset="0.53" stop-color="#95d6ef"/>
      <stop offset="0.93" stop-color="#bee4e8"/>
      <stop offset="0.93" stop-color="#bee4e8"/>
    </linearGradient>
    <linearGradient id="e13cd71c-0552-4223-838a-26a472ad7ca3" x1="525.77" y1="213.96" x2="661.61" y2="159.28" xlink:href="#af17f8eb-93f7-454e-8be8-6d8933ec1aa0"/>
    <linearGradient id="f30ef9fd-8f6e-49ec-b8a7-a9ac2d003f53" x1="795.41" y1="226.02" x2="914.76" y2="106.58" gradientUnits="userSpaceOnUse">
      <stop offset="0.18" stop-color="#86d1f1"/>
      <stop offset="0.43" stop-color="#95d6ef"/>
      <stop offset="0.93" stop-color="#bee4e8"/>
      <stop offset="0.93" stop-color="#bee4e8"/>
    </linearGradient>
    <linearGradient id="a4894ef2-75f4-4251-9b01-5cad767649dd" x1="1159.95" y1="216.55" x2="1249.1" y2="127.34" gradientUnits="userSpaceOnUse">
      <stop offset="0.18" stop-color="#86d1f1"/>
      <stop offset="0.47" stop-color="#95d6ee"/>
      <stop offset="0.96" stop-color="#b9e3e7"/>
    </linearGradient>
    <linearGradient id="e4aa58d2-9ee4-430a-967f-72c0cade75a7" x1="1234.15" y1="343.33" x2="1127.41" y2="1285.89" gradientUnits="userSpaceOnUse">
      <stop offset="0" stop-color="#acdee9"/>
      <stop offset="0.17" stop-color="#8ecbd8"/>
      <stop offset="0.41" stop-color="#69b3c4"/>
      <stop offset="0.64" stop-color="#4ea2b5"/>
      <stop offset="0.84" stop-color="#3e98ac"/>
      <stop offset="1" stop-color="#3894a9"/>
    </linearGradient>
  </defs>
  <g class="bc2ced5f-82c4-4836-8d96-5ba24e27047e">
    <g id="bb6ad1c5-d42f-4b2b-a9a3-e959a2085373" data-name="Layer 1">
      <g class="a9fddcec-bcab-46fe-b84b-4318bd47f179">
        <g>
          <g>
            <line class="b753b685-af9f-4668-85c6-8f24ca357c18" x1="1100.6" y1="585.02" x2="1177.36" y2="585.02"/>
            <line class="b753b685-af9f-4668-85c6-8f24ca357c18" x1="1099.86" y1="587.02" x2="1176.62" y2="587.02"/>
            <line class="b753b685-af9f-4668-85c6-8f24ca357c18" x1="1099.16" y1="589.02" x2="1175.88" y2="589.02"/>
            <line class="b753b685-af9f-4668-85c6-8f24ca357c18" x1="1099.12" y1="591.02" x2="1175.88" y2="591.02"/>
            <line class="b753b685-af9f-4668-85c6-8f24ca357c18" x1="1098.37" y1="593.02" x2="1175.14" y2="593.02"/>
            <line class="b753b685-af9f-4668-85c6-8f24ca357c18" x1="1097.63" y1="595.02" x2="1174.4" y2="595.02"/>
            <line class="b753b685-af9f-4668-85c6-8f24ca357c18" x1="1097.63" y1="597.02" x2="1174.4" y2="597.02"/>
            <line class="b753b685-af9f-4668-85c6-8f24ca357c18" x1="1096.89" y1="599.02" x2="1173.66" y2="599.02"/>
          </g>
          <line class="bc9cb56e-2f4a-4d13-9b28-258aeacc5bd2" x1="1065.29" y1="515.03" x2="1221.9" y2="513.32"/>
          <path class="ec86e215-fb16-410e-8a63-c7bf9c69e7a0" d="M1630.74,612.39c-17.81,0-76.46-14.22-94.28-14.22-94.71,0-187.11,32.49-281.82,32.49-98.19,0-215.06,9.14-313.25,9.14-120,0-203-74.41-323-74.41H-19.63V-23.06h1630.1Z"/>
          <g>
            <path class="a606de66-7508-4ce7-8b21-614ae4c8a36d" d="M672.58,481a21.7,21.7,0,0,1-1.24,7.05c-1.94,5.08-5.19,4.92-5.54,4.9l.11-11.28-2,.17V488a2.41,2.41,0,0,1-2.55-.63c-1.67-1.53-2.2-4.73-2.29-5.28l-.83.05.5,3.07a2,2,0,0,1-2.29.65c-1.43-.71-2-3.23-2.09-3.55h-.62s.4,7.12,5.28,4.75c.89,2.49,3,5.15,4.89,3.81-.11,7.75-.75,38.05-.75,38.05h2.25l.39-33.23c.57,0,3.24-.37,5.37-4.77a26.42,26.42,0,0,0,2.19-10.26Z"/>
            <path class="a606de66-7508-4ce7-8b21-614ae4c8a36d" d="M675.24,464.88s-17.28-12.9-27.7,0c-8.85,12.6.23,18,6.2,17.47,9.2-.19,20.46-1.58,20.46-1.58S686.69,476.9,675.24,464.88Z"/>
            <path class="a606de66-7508-4ce7-8b21-614ae4c8a36d" d="M995.78,600.06q-22.44-127.93-35.41-124.35-5.65,1.56-9.51,28.17c-2-7.75-6.7-13.05-12-13.54-7.69-.72-12.13,9-12.32,9.47,0-1.7-.08-12.89-5.75-20s-14.37-7.24-21.24.15c-1.86-13.13-8.7-23-16.81-24.61-9.59-1.89-19.23,8.11-21.9,23.78-9-14.26-22.5-16-30.74-6.09-8.87,10.6-7.62,29.77-7.53,30.87-6.35-12-16.71-16.93-26.11-12.56-8.57,4-15,15.13-16.81,28.85-5.23-7.1-12.48-7.81-17.13-2.46s-4.77,14.47-4.77,15.7a11.23,11.23,0,0,0-9.62,2.83c-5.4,4.63-7.08,12.62-7.41,14.35.43-22.86-12-23.14-19-16,5.08-15.28-13.28-54-31-17.65-.61-1.61-4.31-10.87-11.12-12.55-7.49-1.85-15.79,6.25-19,20.21-3.22-3.93-9.49-10.29-18.14-11.54-1.66-.24-17.56-2.24-23.67,12.22-1.61,3.8-2.12,7.76-2.66,11.88a78.59,78.59,0,0,0,.3,21.87l2.8,28.7L880.7,608.17l91.07,1.63Z"/>
            <path class="a606de66-7508-4ce7-8b21-614ae4c8a36d" d="M1327,540.05c1-16.31,1.72-48-6.67-71.61a84.82,84.82,0,0,0-3.27-7.88c-1.17-2.47-15.27-31.37-26.3-22.16-6.89,5.75-9,23.38-9.51,28.17-2-7.75-6.7-13-12-13.54-7.69-.72-12.12,9-12.32,9.47,0-1.7-.08-12.89-5.75-20s-14.36-7.24-21.24.15c-1.85-13.13-8.69-23-16.81-24.61-9.59-1.89-19.23,8.11-21.9,23.78-9-14.26-22.5-16-30.74-6.09-8.86,10.6-7.61,29.77-7.53,30.87-6.35-12-16.71-16.92-26.11-12.56-8.56,4-15,15.13-16.81,28.86-5.23-7.11-12.48-7.81-17.12-2.47s-4.77,14.47-4.78,15.7a11.27,11.27,0,0,0-9.62,2.83c-5.39,4.63-7.07,12.62-7.41,14.35.43-22.85-12-23.14-19-16,5.09-15.27-13.27-54-31-17.65-.62-1.6-4.32-10.87-11.12-12.55-7.5-1.85-15.8,6.25-19,20.21-3.22-3.93-9.48-10.29-18.14-11.54-1.65-.24-17.56-2.24-23.67,12.22a42.7,42.7,0,0,0-2.66,11.88c-3.08,27.19-.21,64.42,1.28,80.76q1.25,13.78,2.48,27.57,119.52-24.88,239.27-43.79,55.46-8.76,111-16.22Z"/>
            <path class="a606de66-7508-4ce7-8b21-614ae4c8a36d" d="M1619.21,527.07c.89-13.55,4-66.65-5.84-94.32-1.39-3.9-3.11-7.54-3.27-7.87-1.18-2.48-15.27-31.38-26.3-22.17-6.89,5.76-9,23.38-9.51,28.18-2-7.75-6.7-13.05-12-13.55-7.69-.72-12.13,9-12.32,9.47,0-1.69-.08-12.88-5.75-20s-14.37-7.25-21.24.15c-1.86-13.14-8.7-23-16.81-24.61-9.59-1.9-19.23,8.1-21.9,23.78-9-14.27-22.5-16-30.74-6.09-8.87,10.6-7.62,29.76-7.54,30.87-6.34-12-16.7-16.93-26.1-12.56-8.57,4-15,15.12-16.81,28.85-5.23-7.11-12.48-7.81-17.13-2.46s-4.77,14.47-4.77,15.7a11.19,11.19,0,0,0-9.62,2.83c-5.4,4.62-7.08,12.62-7.41,14.34.43-22.85-12-23.13-19-16,5.08-15.27-13.28-54-31-17.65-.61-1.6-4.31-10.87-11.12-12.54-7.49-1.85-15.79,6.24-19,20.2-3.22-3.93-9.49-10.28-18.14-11.54-1.66-.24-17.57-2.24-23.67,12.22a42.7,42.7,0,0,0-2.66,11.88c-3.09,27.19-.21,64.42,1.28,80.76l-3.32,11.36a1862.14,1862.14,0,0,1,266.6-21.09q46.23-.31,91.07,1.62Z"/>
          </g>
          <g>
            <path class="a606de66-7508-4ce7-8b21-614ae4c8a36d" d="M698.28,465a20.05,20.05,0,0,0,1.37,7.05c2.14,5.08,5.73,4.92,6.11,4.9l-.12-11.28,2.21.17V472a2.86,2.86,0,0,0,2.81-.63c1.83-1.53,2.42-4.73,2.52-5.28l.92.05c-.19,1-.37,2.05-.56,3.07a2.29,2.29,0,0,0,2.53.65c1.58-.71,2.23-3.23,2.31-3.55h.69s-.45,7.12-5.84,4.75c-1,2.49-3.27,5.15-5.39,3.81.12,7.75.83,38.05.83,38.05h-2.48q-.23-16.61-.43-33.23c-.62,0-3.57-.37-5.92-4.77a24.38,24.38,0,0,1-2.42-10.26Z"/>
            <path class="a606de66-7508-4ce7-8b21-614ae4c8a36d" d="M695.35,448.88s19.06-12.9,30.55,0c9.76,12.6-.26,18-6.83,17.47-10.15-.19-22.58-1.58-22.58-1.58S682.72,460.9,695.35,448.88Z"/>
            <path class="a606de66-7508-4ce7-8b21-614ae4c8a36d" d="M341.82,584.06q24.75-127.93,39.05-124.35,6.25,1.56,10.5,28.17c2.2-7.75,7.39-13.05,13.25-13.54,8.48-.72,13.37,9,13.59,9.47,0-1.7.09-12.89,6.34-20s15.84-7.24,23.42.15c2-13.13,9.6-23,18.55-24.61,10.57-1.89,21.2,8.11,24.15,23.78,9.89-14.26,24.81-16,33.91-6.09,9.77,10.6,8.39,29.77,8.3,30.87,7-12,18.43-16.93,28.79-12.56,9.45,4,16.6,15.13,18.55,28.85,5.76-7.1,13.76-7.81,18.88-2.46s5.26,14.47,5.27,15.7A13.33,13.33,0,0,1,615,520.24c5.95,4.63,7.8,12.62,8.17,14.35-.47-22.86,13.19-23.14,21-16-5.61-15.28,14.64-54,34.16-17.65.68-1.61,4.76-10.87,12.27-12.55,8.27-1.85,17.42,6.25,20.92,20.21,3.55-3.93,10.46-10.29,20-11.54,1.83-.24,19.37-2.24,26.11,12.22,1.77,3.8,2.34,7.76,2.93,11.88A71.3,71.3,0,0,1,760.2,543l-3.09,28.7L468.75,592.17,368.3,593.8Z"/>
            <path class="a606de66-7508-4ce7-8b21-614ae4c8a36d" d="M-23.43,524.05c-1.09-16.31-1.9-48,7.35-71.61a81.4,81.4,0,0,1,3.6-7.88c1.3-2.47,16.85-31.37,29-22.16,7.6,5.75,9.94,23.38,10.5,28.17,2.2-7.75,7.38-13,13.25-13.54,8.48-.72,13.37,9,13.59,9.47,0-1.7.09-12.89,6.34-20s15.84-7.24,23.42.15c2.05-13.13,9.59-23,18.55-24.61,10.57-1.89,21.2,8.11,24.15,23.78,9.89-14.26,24.81-16,33.91-6.09,9.77,10.6,8.39,29.77,8.3,30.87,7-12,18.43-16.92,28.79-12.56,9.45,4,16.6,15.13,18.55,28.86,5.76-7.11,13.76-7.81,18.88-2.47S240,478.87,240,480.1a13.38,13.38,0,0,1,10.61,2.83c5.95,4.63,7.8,12.62,8.17,14.35-.47-22.85,13.19-23.14,21-16-5.61-15.27,14.64-54,34.16-17.65.68-1.6,4.76-10.87,12.27-12.55,8.27-1.85,17.42,6.25,20.91,20.21,3.56-3.93,10.47-10.29,20-11.54,1.83-.24,19.37-2.24,26.11,12.22a39.26,39.26,0,0,1,2.93,11.88c3.41,27.19.23,64.42-1.41,80.76q-1.36,13.78-2.74,27.57-131.8-24.88-263.89-43.79Q67,539.62,5.79,532.16Z"/>
          </g>
          <path class="bd26991a-b88e-48c4-9df7-df40e2df8301" d="M1197.68,711.56s9.63,1.81,1.48,7.81l4.45-2h0s4.5-2.62,4.47-5.81S1197.68,711.56,1197.68,711.56Z"/>
          <path class="bc4d92bd-a481-4a5a-9334-3db412182326" d="M308.87,603.88s629.71-125.74,858.17,0l11.62,100.92-862.81,1.58Z"/>
          <path class="e72ad202-5eea-48ee-8465-4c4eb7679c84" d="M576.89,607.18c431.4-49.56,579.2-65.21,596.48-65.47,13.14-.2,22.4-.83,40.94-1.56,169.52-6.62,254.92-10.08,286.54-17.14,81.46-18.21,103.36-37.95,126.39-24.95,11,6.24-14.55,170.7-14.55,170.7H567.51Z"/>
          <path class="f50779db-6958-4179-83ca-949e20d91033" d="M-30.74,506.06s316.71,51.45,417.21,53,521,29,584.81,42.54S994,676.76,994,676.76H-12.54Z"/>
          <polygon class="e82698a3-7d9e-4497-90ca-0b6617e714d7" points="218.73 625.25 1429.72 590.66 1429.72 909.76 218.73 909.76 218.73 625.25"/>
          <path class="e90c3409-3724-4b8d-af3c-4af3cdab7db4" d="M213.17,554.07c54.5,4.07,146.45,9.7,251.25,13.51,190.91,6.94,179.56-1.91,273.09,7.11,238.76,23,197.31,24.17,266,17.07,54.83-5.67,369.76-44.63,387.28-41.25,0,0,12.65,2.45,25.46,3.56h.14c.07,0-11.48,155.72-11.48,155.72H234.23Z"/>
          <path class="afaf8d23-9ce6-4a8c-9ce2-aa7ce84cb142" d="M1552.33,595.72c15.52-19.14,18.69-22.47,20.56-25.47,4.87-7.78-2.53-5-7.69-4.34-14.36,1.91,18.68-24.95-1.54-21.42-10.28-.2-28.31,19.5-29.57,4.46-.3-3.51-5.89-2.82-10.77-2-5.63,1-3.39-10.78-19.59.07-5.43,3.63-4.9,10-14.89,9.94-7,0-19.26,15.6-25.44,14.37-2.45-.49,6.61-9.74-.73-7.9-2.32.59-3.63-.14-3.25-1.92.63-2.91-3.6-3.09-9.78-.76-7.4,2.79-20.53,11.52-22.05,7.84-4.75-11.52-24.34,3.75-36.56,5.6-6.06.92-11.16.73-19.78,7.59-1.87,1.48-4,2.4-5.3,2.34-3.11-.15-7.74,2-12.18,5.35-2.29,1.72-4.67,2.31-5.29,1.34-2.89-4.48-19.61-1.13-34.28,2.82-6.15,1.66-.66-6.72-15.06-3.11-4.75,1.2-9.91,10-13.83,10.49-7.36.86-17.51,7.72-27.68,8.76-4.62.48-6.44-10.85-20.88,1.53-9.06,7.76,4.2,10.31-8.48,27.46L1353.48,621l147.44-23.08Z"/>
          <path class="afaf8d23-9ce6-4a8c-9ce2-aa7ce84cb142" d="M1134.38,645.8c14.48-17,17.39-19.86,19.2-22.58,4.7-7.09-1.65-5.33-6-5.33-12,0,17.61-22.32.6-21.48-8.47-1.55-25.08,15.63-24.81.53.06-3.52-4.62-3.58-8.72-3.39-4.73.23-1.86-11.15-16.18-2.51-4.8,2.89-4.91,9.23-13.17,7.9-5.81-.93-17.25,12.95-22.25,10.92-2-.81,6.31-8.8.09-7.94-2,.27-3-.62-2.52-2.34.77-2.81-2.7-3.54-8-2-6.35,1.79-18,8.72-18.89,4.88-2.93-12.08-20.43.51-30.68.73-5.08.11-9.28-.75-17,4.93-1.67,1.22-3.47,1.86-4.57,1.62-2.56-.55-6.57,1-10.53,3.71-2,1.4-4.06,1.67-4.49.63-2-4.83-16.09-3.71-28.55-1.72-5.22.84,0-6.76-12.16-5.07-4,.56-9.06,8.65-12.33,8.59-6.15-.12-15.13,5.36-23.62,5-3.86-.14-4.38-11.63-17.38-1.24-8.15,6.51,2.57,10.79-9.39,26.15L968,644.68l123.76-3.46Z"/>
          <path class="af218d62-9bdd-4bbe-8ad6-fdf6f5ae08ea" d="M237.91,588c20.22.33,40.29,2,60.52,2.18,25,.27,49.69-2.17,74.71-1.13,14.11.59,28.21,1.32,42.35,1.7,12.77.32,25.55.17,38.27.93,26.12,1.57,51.5,5.58,77.29,8.15,54.88,5.46,110.62,6.21,166.32,7.4,20.07.44,39.59.11,59.38-.76a80.67,80.67,0,0,1,11-1.28c6.22-.42,12.46-.6,18.69-.65-3.42-.09-6.39-.13-8.71-.13-21.09,0-66.75,2.38-91.34,1.19s-35.13,0-70.26-1.8S540,597.23,515.42,596s-52.69-6-74.94-6.58-39.81,1.2-71.44-1.19-60.88,1.79-93.66-.6c-22.21-1.62-46-3.24-60.89-4.11v4.88C222.31,587.91,230.32,587.87,237.91,588Z"/>
          <path class="adaccfcb-8a15-4e7f-b37c-3995ff71f5e6" d="M1311.34,607.49c-53.38,6.39-108.27,16.73-162.11,18.4-70.54,2.16-140.35,9.7-211,11.45-72.47,1.8-142.58,1.39-215-2.48-62.67-3.35-125.45-.32-188.09-3.61-64.22-3.38-127.41-15-191.63-18-46.36-2.19-91.29-5.37-137.32-9.92-38-3.76-74.35-13.5-112-17.23-35.83-3.54-73.2-9.65-109.34-10.26v341H1607V559.27c-45.32,6.43-90.56,14.83-134.56,25C1420.4,596.34,1364.9,601.09,1311.34,607.49Z"/>
          <g class="e0787be6-9e6b-4f2d-9e30-9d6440fa252a">
            <path class="e301988b-9ad5-4674-be45-acc2d5e2dfe1" d="M1304.16,614.08c-5,2.11-10,4.22-15.08,6.26a367.4,367.4,0,0,1-65.56,19.71c-48.71,9.8-102.68,9.9-149.79,22.25,28.54,2.52,57.73,1.29,86.35-.2,20-1.05,40-1.76,60-2.77,15.51-.8,31-1.69,46.62-1.78,11.51-.06,27.75-.5,37.62,3.51,7.9,3.23,5.12,8.27-.12,12-8.5,6-21,10.29-32.89,13.94a437.55,437.55,0,0,1-49.65,12c-16.24,3-33.17,5.43-50.29,6.11-11.32.44-25,.46-34.5-3.56-.53-.24-.64-.58-.19-.86,10.55-7,30.83-7,39.84-14.62-22.25-5-48.79-2.28-71.86-1-29,1.55-58.2,3.61-87.34,4.11-62,1.1-122.88-8.57-184.88-7.9-32.23.33-64.45,1.2-96.69,1.42-31.93.21-63.86.16-95.8-.38-23.51-.42-47.19-.17-70.67-1.11-20.63-.83-43.41-2.39-60.5-9.42-.66-.28-.64-.86.25-1,1.92-.32,3.91-.66,5.92-.84,13.55-1.32,27.28-.36,40.89,0,15.4.37,30.87-.62,46.14-1.6,15.54-1,31.08-2.15,46.68-2.8,7.47-.31,14.9-.41,22.33-.46q-19.53-.71-39.23-1.76c-54.9-3-109.9-.29-164.78-3.25-56.26-3-111.62-13.47-167.88-16.19-40.62-2-80-4.83-120.31-8.93-33.26-3.38-65.13-12.14-98.16-15.49-31.39-3.19-64.13-8.68-95.79-9.23v7.24c6.46.29,12.88.71,19.31,1.21,60.83,4.75,118.93,16.54,178,25.5,14.7,2.24,29.5,4.32,44.53,5.75,14.13,1.37,28.15,2,42.46,2.35,23.16.62,48.73,1.36,68.92,8.42.58.2.68.73,0,.94-11.91,3.33-25.31,4.53-38.49,5-25,.82-50-.75-75-.75-28.45,0-56.31,3.72-83.9,7.27-15.53,2-31.06,4.42-46.75,6-10.14,1-20.45,1.48-30.65,2.33-10.95.94-22.56,2.06-32.4,5.05a47.87,47.87,0,0,0-7.52,2.79c-2,1-2.13,1-.32,2.15a33.32,33.32,0,0,0,7.41,3.41c14.91,4.83,34,5.55,50.83,6,18.81.47,37.62.08,56.44,0,16.57-.07,33,.87,49.61,1.18,20.12.33,44.14.18,61.57,6.61.45.17.62.46.35.74-4.56,4.69-11.6,5.4-20.48,5.86-8.09.41-16.1,1.71-24.12,2.47q-10.37,1-20.83,1.69c-15.72,1.08-31.51,1.8-47.31,2.52-32.21,1.45-63.89,3.84-95.82,6.68-18.53,1.64-37.1,3.17-55.79,4.13V916.8l1631.12-2.86-6.78-366C1575,552.92,1337.62,606.56,1304.16,614.08Z"/>
          </g>
          <path class="e75a1c97-aeed-46b1-b144-89f6b81ec2d1" d="M1393.11,665.8c13.82-17,16.6-19.86,18.32-22.58,4.49-7.09-1.57-5.33-5.7-5.33-11.47,0,16.8-22.32.57-21.48-8.09-1.55-23.94,15.63-23.68.53.06-3.52-4.4-3.58-8.32-3.39-4.52.23-1.78-11.15-15.45-2.51-4.57,2.89-4.68,9.23-12.56,7.9-5.55-.93-16.47,12.95-21.23,10.92-1.9-.81,6-8.8.08-7.94-1.89.27-2.85-.62-2.41-2.34.74-2.81-2.57-3.54-7.64-2-6.06,1.79-17.14,8.72-18,4.88-2.79-12.08-19.5.51-29.28.73-4.85.11-8.86-.75-16.22,4.93-1.6,1.22-3.31,1.86-4.36,1.62-2.44-.55-6.27,1-10,3.71-2,1.4-3.87,1.67-4.29.63-1.9-4.83-15.35-3.71-27.24-1.72-5,.84,0-6.76-11.61-5.07-3.84.56-8.64,8.65-11.77,8.59-5.87-.12-14.44,5.36-22.54,5-3.68-.14-4.18-11.63-16.59-1.24-7.78,6.51,2.46,10.79-9,26.15l100.15-1.12,118.11-3.46Z"/>
          <path class="e75a1c97-aeed-46b1-b144-89f6b81ec2d1" d="M1604.22,658.94c13.82-17,16.6-19.85,18.32-22.58,4.49-7.08-1.57-5.33-5.7-5.33-11.47,0,16.8-22.31.57-21.47-8.08-1.56-23.94,15.63-23.68.53.06-3.53-4.4-3.59-8.32-3.39-4.52.22-1.77-11.15-15.45-2.51-4.57,2.89-4.68,9.22-12.56,7.9-5.54-.94-16.47,12.95-21.23,10.91-1.9-.8,6-8.8.08-7.93-1.88.27-2.85-.63-2.4-2.34.73-2.81-2.58-3.55-7.65-2.05-6.06,1.8-17.14,8.73-18,4.88-2.79-12.07-19.5.51-29.28.74-4.85.11-8.86-.75-16.22,4.92-1.59,1.23-3.31,1.86-4.36,1.63-2.44-.56-6.27,1-10,3.71-2,1.4-3.87,1.67-4.28.63-1.91-4.83-15.36-3.71-27.25-1.72-5,.83,0-6.77-11.61-5.07-3.84.55-8.64,8.65-11.77,8.59-5.87-.12-14.44,5.35-22.54,5-3.68-.14-4.18-11.62-16.59-1.24-7.78,6.52,2.46,10.8-9,26.15l100.15-1.11,118.11-3.47Z"/>
          <g>
            <path class="b7b62b27-97cb-4907-8fc9-d95a93b89e76" d="M591.31,197.11a22.19,22.19,0,0,1,8.62-14.84c8-6,14.7-9.27,21.64-2.32s5.46,22.72,4,24.58c-2.86,3.6-9,8.33-25.42,3.7C590.26,205.45,591.31,197.11,591.31,197.11Z"/>
            <path class="a66322f5-1e99-4fa9-a0ba-4cd58c8cb808" d="M554.69,191s2.19-13.28,17.64-21.06,25.5-11.61,34.13,1.18,4.31,34.22-1.76,36.9-31.38,4.83-46.63-3.77C558.07,204.28,552.62,200.32,554.69,191Z"/>
            <path class="a896bd4b-e6cc-4d64-ab49-6b3488563125" d="M806.73,180.21s1.21-14.82,16.59-25,28.32-15.59,41.68-3.9,10.52,38.21,7.69,41.33c-5.5,6.06-17.35,14-49,6.24C804.7,194.24,806.73,180.21,806.73,180.21Z"/>
          </g>
          <path class="f0490698-9214-496b-9239-405ed5fde42b" d="M1166.94,181.86s1-10.09,13.17-17,22.47-10.62,33.07-2.65,8.35,26,6.1,28.13c-4.36,4.12-13.76,9.54-38.85,4.25C1165.34,191.41,1166.94,181.86,1166.94,181.86Z"/>
          <g>
            <path class="afee20d0-eff8-4bcc-8027-850ddb1ca160" d="M708.53,636.16s5.39-5.52,15.77-6.88-11.15-7.26-18.84,6.88C705.46,636.16,702,642.45,708.53,636.16Z"/>
            <path class="afee20d0-eff8-4bcc-8027-850ddb1ca160" d="M693.92,637s15.77-17.68,25-22.39-8.84-5.11-21.14,9.62C697.77,624.18,691.61,633,693.92,637Z"/>
            <path class="afee20d0-eff8-4bcc-8027-850ddb1ca160" d="M689.31,637s10.47-28.67,15.23-32.21-7.54-5.5-15.23,17.87C689.31,622.61,686.23,635,689.31,637Z"/>
            <path class="afee20d0-eff8-4bcc-8027-850ddb1ca160" d="M683.73,637s4-26.32,7.88-30.25S677,611,683.73,637Z"/>
            <path class="afee20d0-eff8-4bcc-8027-850ddb1ca160" d="M681.43,637s.19-21.93-8.08-25.3S678.16,626,681.43,637Z"/>
            <path class="afee20d0-eff8-4bcc-8027-850ddb1ca160" d="M678.73,637a26.8,26.8,0,0,0-19.35-9.58C646.69,626.77,670.85,620.45,678.73,637Z"/>
            <path class="afee20d0-eff8-4bcc-8027-850ddb1ca160" d="M677.64,637s-6.79-10.21-18.32-9.43S674.83,633.81,677.64,637Z"/>
          </g>
          <path class="afee20d0-eff8-4bcc-8027-850ddb1ca160" d="M210.85,607.65c69.93,4.61,126.42,7.22,163.62,8.72,127.58,5.15,135.1,1.56,206.06,8,46.35,4.2,92.82,6.45,139.1,12A497.61,497.61,0,0,0,796,639.81c4.59-.14,8.34-.32,10.68-.44q.6,6.46,1.21,12.93L218.73,629.24Z"/>
          <g>
            <path class="afee20d0-eff8-4bcc-8027-850ddb1ca160" d="M315.44,615s5.05-3.82,14.77-4.76-10.44-5-17.65,4.76C312.56,615,309.32,619.37,315.44,615Z"/>
            <path class="afee20d0-eff8-4bcc-8027-850ddb1ca160" d="M301.76,615.57s14.76-12.24,23.41-15.5-8.29-3.53-19.81,6.66C305.36,606.73,299.59,612.85,301.76,615.57Z"/>
            <path class="afee20d0-eff8-4bcc-8027-850ddb1ca160" d="M297.43,615.57s9.81-19.85,14.27-22.29-7.06-3.81-14.27,12.36C297.43,605.64,294.55,614.21,297.43,615.57Z"/>
            <path class="afee20d0-eff8-4bcc-8027-850ddb1ca160" d="M292.21,615.57s3.78-18.22,7.38-20.94S285.91,597.62,292.21,615.57Z"/>
            <path class="afee20d0-eff8-4bcc-8027-850ddb1ca160" d="M290.05,615.57s.18-15.18-7.56-17.51S287,608,290.05,615.57Z"/>
            <path class="afee20d0-eff8-4bcc-8027-850ddb1ca160" d="M287.53,615.57s-4.86-17.39-16.75-17.8S280.14,604.15,287.53,615.57Z"/>
            <path class="afee20d0-eff8-4bcc-8027-850ddb1ca160" d="M286.51,615.57A22.78,22.78,0,0,0,269.34,609C258.53,609.59,283.87,613.39,286.51,615.57Z"/>
          </g>
          <g>
            <path class="b639156b-8f2e-4298-9f15-a35ed2b50fd4" d="M1357.47,773.71s20.19-18.17,24.28-21.42c5-4-4.21-9.74-19.18,4.15C1362.57,756.44,1353.38,766.48,1357.47,773.71Z"/>
            <path class="b639156b-8f2e-4298-9f15-a35ed2b50fd4" d="M1348,772.57s-4.07-16.84-26.41-16.34S1348,772.57,1348,772.57Z"/>
            <path class="b639156b-8f2e-4298-9f15-a35ed2b50fd4" d="M1354.06,775s6.81-37.73,16.74-48.07c8.5-8.86-9.51-11.29-19.64,9.87S1354.06,775,1354.06,775Z"/>
          </g>
          <path class="fa3cef10-4602-4bf6-8964-7c1fca9995a1" d="M1131.83,826.8s0-2-1.77-2.25-2.31.85-2.93,1.91c-3.81-9.39-10.26-6.59-11.39-.66-1.65-10.16-3.59-6.34-2.9-.16-2.23-2.18-4.8-2.36-5.29.29-6-9.9-15.13-4.51-14.24-.16-3-2-4-.74-4.24.42-5.81-6.08-5.73-2.22-4-.22-2.2-.55-3.78-.22-2.77.83Z"/>
          <polygon class="a9f70add-bb48-49b9-b0f8-d4422a65500b" points="1145.4 731.12 1199.64 754.72 1207.78 755.2 1153.21 726.84 1145.4 731.12"/>
          <polygon class="a9f70add-bb48-49b9-b0f8-d4422a65500b" points="1176.59 726.84 1233.04 748.3 1241.15 747.64 1182.08 721.79 1176.59 726.84"/>
          <path class="afaf8d23-9ce6-4a8c-9ce2-aa7ce84cb142" d="M890,642.8c11.36-12.45,13.64-14.57,15.06-16.57,3.68-5.2-1.3-3.91-4.69-3.91-9.43,0,13.81-16.37.47-15.75-6.65-1.14-19.68,11.47-19.47.39,0-2.59-3.62-2.63-6.84-2.49-3.71.17-1.46-8.18-12.69-1.84-3.77,2.12-3.85,6.77-10.33,5.79-4.56-.68-13.54,9.5-17.46,8-1.55-.59,5-6.45.07-5.82-1.55.2-2.34-.46-2-1.72.61-2.06-2.11-2.6-6.28-1.49-5,1.31-14.09,6.4-14.82,3.57-2.29-8.85-16,.38-24.07.54-4,.09-7.28-.55-13.33,3.62a5.5,5.5,0,0,1-3.59,1.19c-2-.41-5.15.73-8.26,2.72-1.6,1-3.18,1.23-3.52.46-1.56-3.54-12.63-2.72-22.4-1.26-4.1.61,0-5-9.54-3.72-3.16.41-7.11,6.35-9.68,6.3-4.82-.08-11.86,3.93-18.53,3.7-3-.1-3.43-8.52-13.63-.91-6.39,4.78,2,7.92-7.37,19.19l82.33-.82,97.09-2.54Z"/>
          <path class="afaf8d23-9ce6-4a8c-9ce2-aa7ce84cb142" d="M707.7,637.15c14.83-14.4,17.82-16.85,19.67-19.16,4.81-6-1.69-4.53-6.13-4.53-12.31,0,18-18.93.62-18.22-8.68-1.32-25.7,13.26-25.42.45.06-3-4.73-3-8.94-2.88-4.84.19-1.9-9.46-16.58-2.13-4.91,2.45-5,7.83-13.48,6.7-6-.79-17.68,11-22.8,9.27-2-.69,6.46-7.47.09-6.74-2,.23-3.06-.53-2.58-2,.79-2.39-2.77-3-8.21-1.74-6.51,1.53-18.4,7.41-19.35,4.14-3-10.24-20.93.44-31.43.63-5.21.09-9.51-.64-17.42,4.18a7.7,7.7,0,0,1-4.68,1.37c-2.62-.47-6.73.85-10.79,3.16-2.08,1.18-4.15,1.41-4.59.53-2-4.1-16.49-3.15-29.25-1.46-5.36.71,0-5.74-12.47-4.31-4.12.48-9.27,7.35-12.63,7.29-6.3-.09-15.5,4.55-24.2,4.29-3.95-.12-4.48-9.87-17.8-1-8.36,5.52,2.63,9.16-9.62,22.19l107.51-.95L664,633.26Z"/>
          <path class="afaf8d23-9ce6-4a8c-9ce2-aa7ce84cb142" d="M276.18,586c6.55-7.32,14-12.54,18.5-12.54a3.42,3.42,0,0,1,2.61,1,2.74,2.74,0,0,0,4.14.27c2.87-2.8,5.64-4.63,7.32-4.63s1.87,1.56,1.08,4c-.32,1,.26,2.1,1.06,2a5.59,5.59,0,0,1,.8-.06c2.87,0,3.8,2.35,2.93,6-.22.94.29,1.91,1,1.87H316c2.18,0,3.19,1.34,3,3.42s1.11,3.75,2.62,3.67a5,5,0,0,1,.88,0,.91.91,0,0,0,.76-.27c2-2,4-3.32,5.16-3.32,1.57,0,1.27,2.34-.55,5.53l.64-.47a3.25,3.25,0,0,1,.23-.29c2.84-3.58,6.63-5.63,8.44-4.59a1.07,1.07,0,0,1,.22.15.79.79,0,0,0,1.12,0c.42-.42.85-.83,1.27-1.23a1.6,1.6,0,0,0,.49-1.3,7.59,7.59,0,0,1,2-4.88c2.12-2.66,5.05-4.11,6.54-3.26l.09.05c2.76-3.15,6.18-4.88,7.88-3.91s1,4.77-1.86,8.35l0,0a4.91,4.91,0,0,1,.26,1.29c.06.77.62,1.29,1.19,1.17a3.35,3.35,0,0,1,2.36.24c1.66,1,1.56,3.68,0,6.76-.48.94,0,2.22.84,2.24a4,4,0,0,1,2,.49,3.26,3.26,0,0,1,1.34,1.5.88.88,0,0,0,1.58.21l0,0c3.12-3.92,7.33-6.3,10.25-6a.92.92,0,0,0,.83-.45c.32-.48.67-1,1.06-1.45,3.34-4.2,7.84-6.58,10.05-5.31a2.37,2.37,0,0,1,.55.44c.27-.4.57-.8.88-1.2,3.73-4.67,9-7.17,11.79-5.58a3.06,3.06,0,0,1,1.27,1.39,1,1,0,0,0,1,.65,6.81,6.81,0,0,1,1.75,0l.83-.36c2.09-2.44,4.83-3.75,6.27-2.93s1,3.7-1.12,6.36a14.12,14.12,0,0,1-1.34,1.43,1.5,1.5,0,0,0-.45,1.11c0,2.91-1.27,6.67-3.57,10.63l.45.11a.84.84,0,0,0,.84-.27c3.57-3.65,8-5.44,10.42-4a2.71,2.71,0,0,1,.41.28.85.85,0,0,0,1.12,0,7.79,7.79,0,0,1,4.71-2l.72-.38c2.82-3.39,6.43-5.29,8.2-4.28,1.47.84,1.2,3.47-.49,6.34a3.75,3.75,0,0,1,.65.28c2.78,1.59,2,6.67-1.71,11.35A17.62,17.62,0,0,1,422.6,607c-.21.55-.44,1.1-.7,1.66a5.54,5.54,0,0,1,4.18.32c2.68,1.53,2.55,5.67-.3,9.24-2,3.32-3.7,6.19-6.09,6.19H191.29c-1.2,0-1.46-2.34-.3-2.77a5.7,5.7,0,0,1,1.95-.4,2.83,2.83,0,0,1,.74.09l.17-.24c3.33-4.78,8.28-8.84,12.3-10.34a1.1,1.1,0,0,0,.56-.51,20,20,0,0,1,1.19-1.9c3.19-4.59,8-8.31,10.71-8.31a1.85,1.85,0,0,1,1.2.37.86.86,0,0,0,1.22-.22c1.71-1.94,4-3.38,5.45-3.38a1.23,1.23,0,0,1,1.34,1.43h0c4.46-5,9.54-8.54,12.6-8.54A2.14,2.14,0,0,1,242.6,591c.33.76,1.06,1,1.57.41,2.24-2.39,4.52-4,5.83-4,.94,0,1.21.84.89,2.19-.23.94.3,1.87,1,1.86H252a2.06,2.06,0,0,1,1.65.64.86.86,0,0,0,1.24.22c2.91-2.28,5.73-3.69,7.76-3.69a2.55,2.55,0,0,1,2,.72.82.82,0,0,0,1.28-.12c2.54-3,6.05-5.34,8.33-5.34a1.8,1.8,0,0,1,2,2.09Z"/>
          <path class="afaf8d23-9ce6-4a8c-9ce2-aa7ce84cb142" d="M94.8,581.68c6.55-7.32,14-12.54,18.5-12.54a3.42,3.42,0,0,1,2.61,1,2.74,2.74,0,0,0,4.14.27c2.87-2.81,5.64-4.63,7.32-4.63s1.87,1.55,1.08,4c-.32,1,.26,2.09,1.06,2a5.59,5.59,0,0,1,.8-.06c2.87,0,3.8,2.34,2.93,6-.22.94.29,1.91,1,1.87h.32c2.18,0,3.19,1.34,3,3.42s1.11,3.75,2.62,3.67a6.31,6.31,0,0,1,.88,0,.9.9,0,0,0,.76-.26c2-2,4-3.32,5.16-3.32,1.57,0,1.27,2.34-.55,5.53.21-.17.43-.32.64-.48l.22-.29c2.85-3.57,6.63-5.62,8.45-4.58a1.64,1.64,0,0,1,.22.14.79.79,0,0,0,1.12,0c.42-.42.85-.83,1.27-1.23a1.62,1.62,0,0,0,.49-1.31,7.58,7.58,0,0,1,2-4.87c2.12-2.66,5.05-4.12,6.54-3.26l.09,0c2.76-3.15,6.18-4.89,7.88-3.92s1,4.78-1.87,8.35l0,0a4.92,4.92,0,0,1,.26,1.28c.06.77.62,1.29,1.19,1.18a3.4,3.4,0,0,1,2.36.23c1.66.95,1.56,3.69,0,6.77-.48.94,0,2.22.84,2.24a4,4,0,0,1,2,.49,3.16,3.16,0,0,1,1.34,1.5.88.88,0,0,0,1.58.2h0c3.12-3.92,7.33-6.31,10.25-6a.88.88,0,0,0,.82-.44c.32-.48.68-1,1.07-1.46,3.34-4.19,7.84-6.57,10-5.3a1.94,1.94,0,0,1,.55.44c.27-.4.57-.8.88-1.2,3.73-4.68,9-7.18,11.79-5.59a3.16,3.16,0,0,1,1.27,1.39,1,1,0,0,0,1,.65,7.85,7.85,0,0,1,1.75,0l.83-.35c2.09-2.45,4.83-3.75,6.27-2.93s1,3.7-1.12,6.35a12.28,12.28,0,0,1-1.34,1.43,1.51,1.51,0,0,0-.45,1.12c0,2.91-1.27,6.67-3.57,10.62l.45.12a.83.83,0,0,0,.84-.28c3.56-3.65,8-5.43,10.42-4,.14.09.28.18.41.28a.85.85,0,0,0,1.12,0A7.73,7.73,0,0,1,241,583.9l.72-.39c2.82-3.38,6.43-5.29,8.2-4.28,1.47.85,1.2,3.48-.49,6.35a3.75,3.75,0,0,1,.65.28c2.78,1.59,2,6.67-1.71,11.34a17.65,17.65,0,0,1-7.15,5.53c-.21.54-.45,1.1-.7,1.66a5.54,5.54,0,0,1,4.18.31c2.68,1.54,2.55,5.68-.3,9.25-2,3.32-3.7,6.19-6.09,6.19H9.91c-1.21,0-1.47-2.34-.3-2.77a5.73,5.73,0,0,1,1.94-.41,2.84,2.84,0,0,1,.75.1l.17-.24c3.33-4.78,8.28-8.84,12.3-10.35a1,1,0,0,0,.55-.51c.34-.6.74-1.24,1.19-1.89,3.2-4.59,8-8.32,10.72-8.32a1.85,1.85,0,0,1,1.2.37.85.85,0,0,0,1.22-.21c1.71-1.94,4-3.38,5.45-3.38A1.22,1.22,0,0,1,46.44,594h0c4.46-5,9.54-8.54,12.6-8.54a2.16,2.16,0,0,1,2.18,1.3c.33.76,1.06,1,1.57.41,2.24-2.39,4.52-4,5.83-4,.94,0,1.21.83.88,2.19-.22.94.31,1.87,1,1.85h.08a2.06,2.06,0,0,1,1.65.65.87.87,0,0,0,1.24.22c2.9-2.28,5.73-3.7,7.76-3.7a2.59,2.59,0,0,1,2,.72.81.81,0,0,0,1.28-.11c2.54-3,6-5.35,8.33-5.35a1.81,1.81,0,0,1,2,2.1Z"/>
          <path class="ea21003d-18d7-43a2-9f9a-236d608bb4f8" d="M1609.26,646.94s-511.65,22.86-482.93,22.27,147.55,24.1-47.72,56-402,59-279.38,88.72-9,106.16-75.85,108.9,895.51-16.86,895.51-16.86Z"/>
          <g>
            <path class="e02511b9-35c8-4f2c-a0a3-5e4689ed3e7a" d="M824.23,704.92c-.56.05-2.93-10.48-1.72-22.69a63,63,0,0,1,12.73-32.43,78.76,78.76,0,0,0-8.15,20C822.32,688.34,824.92,704.85,824.23,704.92Z"/>
            <path class="e02511b9-35c8-4f2c-a0a3-5e4689ed3e7a" d="M825.24,706.92c-.43.05-2.26-9.53-1.33-20.63a63.1,63.1,0,0,1,9.84-29.49,79.55,79.55,0,0,0-6.3,18.18C823.77,691.84,825.78,706.85,825.24,706.92Z"/>
            <path class="e02511b9-35c8-4f2c-a0a3-5e4689ed3e7a" d="M826.61,706.92c-.4,0-2.1-7.44-1.23-16.1a44.43,44.43,0,0,1,9.12-23A55.33,55.33,0,0,0,828.66,682C825.24,695.15,827.11,706.87,826.61,706.92Z"/>
            <path class="e02511b9-35c8-4f2c-a0a3-5e4689ed3e7a" d="M827.1,705.32c-.31,0-1.05-5.41.23-11.23a26.49,26.49,0,0,1,8.54-14.48,33.1,33.1,0,0,0-5.43,8.9C826.91,697,827.48,705.36,827.1,705.32Z"/>
            <path class="e02511b9-35c8-4f2c-a0a3-5e4689ed3e7a" d="M827.84,707.32c-.31,0-1.18-4.23,0-8.68A18.61,18.61,0,0,1,836,687.8a22.87,22.87,0,0,0-5.21,6.65C827.46,700.91,828.22,707.37,827.84,707.32Z"/>
            <path class="e02511b9-35c8-4f2c-a0a3-5e4689ed3e7a" d="M824,706c-.36.26-4.19-5.59-6.06-14a52.34,52.34,0,0,1,1.24-26,65.09,65.09,0,0,0-1,16.18C819.15,696,824.45,705.63,824,706Z"/>
            <path class="e02511b9-35c8-4f2c-a0a3-5e4689ed3e7a" d="M824.32,705.56c-.54.19-4.29-9.59-4.75-21.88a69.47,69.47,0,0,1,8.13-35,86.61,86.61,0,0,0-5.31,21.67C820.21,689.72,825,705.32,824.32,705.56Z"/>
            <path class="e02511b9-35c8-4f2c-a0a3-5e4689ed3e7a" d="M821.06,705.3c-.18.22-3.46-3.53-5.82-9.24a41.37,41.37,0,0,1-2.84-18.5A51.53,51.53,0,0,0,814,689.07C816.57,698.77,821.3,705,821.06,705.3Z"/>
          </g>
          <g>
            <path class="e02511b9-35c8-4f2c-a0a3-5e4689ed3e7a" d="M670.89,694.92c-.55.05-2.92-10.48-1.71-22.69A63,63,0,0,1,681.9,639.8a79.13,79.13,0,0,0-8.15,20C669,678.34,671.59,694.85,670.89,694.92Z"/>
            <path class="e02511b9-35c8-4f2c-a0a3-5e4689ed3e7a" d="M671.91,696.92c-.43.05-2.26-9.53-1.33-20.63a63,63,0,0,1,9.84-29.49,79.55,79.55,0,0,0-6.3,18.18C670.43,681.84,672.45,696.85,671.91,696.92Z"/>
            <path class="e02511b9-35c8-4f2c-a0a3-5e4689ed3e7a" d="M673.27,696.92c-.4,0-2.09-7.44-1.23-16.1a44.61,44.61,0,0,1,9.12-23A55.69,55.69,0,0,0,675.32,672C671.91,685.15,673.77,696.87,673.27,696.92Z"/>
            <path class="e02511b9-35c8-4f2c-a0a3-5e4689ed3e7a" d="M673.76,695.32c-.3,0-1-5.41.23-11.23a26.54,26.54,0,0,1,8.55-14.48,32.84,32.84,0,0,0-5.44,8.9C673.58,687,674.14,695.36,673.76,695.32Z"/>
            <path class="e02511b9-35c8-4f2c-a0a3-5e4689ed3e7a" d="M674.51,697.32c-.31,0-1.18-4.23,0-8.68a18.56,18.56,0,0,1,8.17-10.84,22.87,22.87,0,0,0-5.2,6.65C674.12,690.91,674.89,697.37,674.51,697.32Z"/>
            <path class="e02511b9-35c8-4f2c-a0a3-5e4689ed3e7a" d="M670.67,696c-.35.26-4.19-5.59-6.06-14a52.58,52.58,0,0,1,1.24-26,66.07,66.07,0,0,0-1,16.18C665.82,686,671.11,695.63,670.67,696Z"/>
            <path class="e02511b9-35c8-4f2c-a0a3-5e4689ed3e7a" d="M671,695.56c-.54.19-4.29-9.59-4.75-21.88a69.47,69.47,0,0,1,8.13-35,86.61,86.61,0,0,0-5.31,21.67C666.87,679.72,671.67,695.32,671,695.56Z"/>
            <path class="e02511b9-35c8-4f2c-a0a3-5e4689ed3e7a" d="M667.73,695.3c-.19.22-3.46-3.53-5.83-9.24a41.51,41.51,0,0,1-2.84-18.5,52.23,52.23,0,0,0,1.65,11.51C663.24,688.77,668,695,667.73,695.3Z"/>
          </g>
          <path class="e02511b9-35c8-4f2c-a0a3-5e4689ed3e7a" d="M786.47,710.39c-.24.11-2.36-4.92-3.12-11.39a41.66,41.66,0,0,1,2.06-18.69,52.38,52.38,0,0,0-1.4,11.58C783.91,702.17,786.76,710.24,786.47,710.39Z"/>
          <path class="e02511b9-35c8-4f2c-a0a3-5e4689ed3e7a" d="M775.6,703.93c-.24.12-2.36-4.92-3.12-11.38a41.66,41.66,0,0,1,2.06-18.69,52.28,52.28,0,0,0-1.4,11.57C773,695.72,775.89,703.79,775.6,703.93Z"/>
          <path class="e02511b9-35c8-4f2c-a0a3-5e4689ed3e7a" d="M499.8,667.39c-.23.11-2.35-4.92-3.11-11.39a41.55,41.55,0,0,1,2.05-18.69,52.48,52.48,0,0,0-1.39,11.58C497.24,659.17,500.09,667.24,499.8,667.39Z"/>
          <path class="e02511b9-35c8-4f2c-a0a3-5e4689ed3e7a" d="M642.26,802.93c-.23.12-2.35-4.92-3.11-11.38a41.51,41.51,0,0,1,2.06-18.69,52.28,52.28,0,0,0-1.4,11.57C639.71,794.72,642.55,802.79,642.26,802.93Z"/>
          <path class="e02511b9-35c8-4f2c-a0a3-5e4689ed3e7a" d="M556.34,676.93c-.24.12-2.36-4.92-3.12-11.38a41.66,41.66,0,0,1,2.06-18.69,52.28,52.28,0,0,0-1.4,11.57C553.78,668.72,556.63,676.79,556.34,676.93Z"/>
          <g>
            <path class="e02511b9-35c8-4f2c-a0a3-5e4689ed3e7a" d="M256.08,768.92c-.56.05-2.93-10.48-1.72-22.69a63,63,0,0,1,12.73-32.43,78.76,78.76,0,0,0-8.15,20C254.17,752.34,256.78,768.85,256.08,768.92Z"/>
            <path class="e02511b9-35c8-4f2c-a0a3-5e4689ed3e7a" d="M257.09,770.92c-.43.05-2.26-9.53-1.32-20.63a62.86,62.86,0,0,1,9.84-29.49,78.59,78.59,0,0,0-6.3,18.18C255.62,755.84,257.63,770.85,257.09,770.92Z"/>
            <path class="e02511b9-35c8-4f2c-a0a3-5e4689ed3e7a" d="M258.46,770.92c-.4,0-2.1-7.44-1.23-16.1a44.43,44.43,0,0,1,9.12-23A55.33,55.33,0,0,0,260.51,746C257.09,759.15,259,770.87,258.46,770.92Z"/>
            <path class="e02511b9-35c8-4f2c-a0a3-5e4689ed3e7a" d="M259,769.32c-.31,0-1.05-5.41.23-11.23a26.49,26.49,0,0,1,8.54-14.48,33.1,33.1,0,0,0-5.43,8.9C258.76,761,259.33,769.36,259,769.32Z"/>
            <path class="e02511b9-35c8-4f2c-a0a3-5e4689ed3e7a" d="M259.69,771.32c-.3,0-1.17-4.23,0-8.68a18.61,18.61,0,0,1,8.18-10.84,23,23,0,0,0-5.21,6.65C259.31,764.91,260.07,771.37,259.69,771.32Z"/>
            <path class="e02511b9-35c8-4f2c-a0a3-5e4689ed3e7a" d="M255.86,770c-.35.26-4.19-5.59-6.06-14a52.46,52.46,0,0,1,1.24-26,66.07,66.07,0,0,0-1,16.18C251,760,256.3,769.63,255.86,770Z"/>
            <path class="e02511b9-35c8-4f2c-a0a3-5e4689ed3e7a" d="M256.18,769.56c-.55.19-4.3-9.59-4.76-21.88a69.47,69.47,0,0,1,8.13-35,87.5,87.5,0,0,0-5.31,21.67C252.06,753.72,256.85,769.32,256.18,769.56Z"/>
            <path class="e02511b9-35c8-4f2c-a0a3-5e4689ed3e7a" d="M252.92,769.3c-.19.22-3.47-3.53-5.83-9.24a41.51,41.51,0,0,1-2.84-18.5,52.12,52.12,0,0,0,1.64,11.51C248.42,762.77,253.15,769,252.92,769.3Z"/>
          </g>
          <g>
            <path class="e02511b9-35c8-4f2c-a0a3-5e4689ed3e7a" d="M322,705.92c-.56.05-2.93-10.48-1.72-22.69A63.06,63.06,0,0,1,333,650.8a79.17,79.17,0,0,0-8.14,20C320.1,689.34,322.7,705.85,322,705.92Z"/>
            <path class="e02511b9-35c8-4f2c-a0a3-5e4689ed3e7a" d="M323,707.92c-.43.05-2.26-9.53-1.33-20.63a63.1,63.1,0,0,1,9.84-29.49,79.55,79.55,0,0,0-6.3,18.18C321.54,692.84,323.56,707.85,323,707.92Z"/>
            <path class="e02511b9-35c8-4f2c-a0a3-5e4689ed3e7a" d="M324.39,707.92c-.4,0-2.1-7.44-1.24-16.1a44.61,44.61,0,0,1,9.12-23A56.06,56.06,0,0,0,326.43,683C323,696.15,324.88,707.87,324.39,707.92Z"/>
            <path class="e02511b9-35c8-4f2c-a0a3-5e4689ed3e7a" d="M324.87,706.32c-.3,0-1-5.41.23-11.23a26.54,26.54,0,0,1,8.55-14.48,32.6,32.6,0,0,0-5.43,8.9C324.69,698,325.25,706.36,324.87,706.32Z"/>
            <path class="e02511b9-35c8-4f2c-a0a3-5e4689ed3e7a" d="M325.62,708.32c-.31,0-1.18-4.23,0-8.68a18.6,18.6,0,0,1,8.17-10.84,23,23,0,0,0-5.2,6.65C325.23,701.91,326,708.37,325.62,708.32Z"/>
            <path class="e02511b9-35c8-4f2c-a0a3-5e4689ed3e7a" d="M321.78,707c-.35.26-4.19-5.59-6-14a52.49,52.49,0,0,1,1.23-26,66.07,66.07,0,0,0-1,16.18C316.93,697,322.22,706.63,321.78,707Z"/>
            <path class="e02511b9-35c8-4f2c-a0a3-5e4689ed3e7a" d="M322.1,706.56c-.54.19-4.29-9.59-4.75-21.88a69.47,69.47,0,0,1,8.13-35,86.61,86.61,0,0,0-5.31,21.67C318,690.72,322.78,706.32,322.1,706.56Z"/>
            <path class="e02511b9-35c8-4f2c-a0a3-5e4689ed3e7a" d="M318.84,706.3c-.19.22-3.46-3.53-5.82-9.24a41.41,41.41,0,0,1-2.85-18.5,52.23,52.23,0,0,0,1.65,11.51C314.35,699.77,319.08,706,318.84,706.3Z"/>
          </g>
          <path class="e02511b9-35c8-4f2c-a0a3-5e4689ed3e7a" d="M230.91,772.39c-.23.11-2.35-4.92-3.11-11.39a41.55,41.55,0,0,1,2-18.69,53.1,53.1,0,0,0-1.39,11.58C228.36,764.17,231.2,772.24,230.91,772.39Z"/>
          <path class="e02511b9-35c8-4f2c-a0a3-5e4689ed3e7a" d="M220,765.93c-.23.12-2.35-4.92-3.11-11.38a41.55,41.55,0,0,1,2-18.69,52.38,52.38,0,0,0-1.39,11.57C217.48,757.72,220.33,765.79,220,765.93Z"/>
          <g>
            <path class="e02511b9-35c8-4f2c-a0a3-5e4689ed3e7a" d="M887.6,683.25c-.79,0-4.12-9-2.42-19.53,2.36-14.6,13.16-24.19,17.9-27.94A58,58,0,0,0,891.62,653C884.91,669,888.58,683.19,887.6,683.25Z"/>
            <path class="e02511b9-35c8-4f2c-a0a3-5e4689ed3e7a" d="M889,685c-.61,0-3.18-8.2-1.87-17.76,1.82-13.27,10.17-22,13.84-25.4a54.19,54.19,0,0,0-8.86,15.66C887,672,889.79,684.92,889,685Z"/>
            <path class="e02511b9-35c8-4f2c-a0a3-5e4689ed3e7a" d="M891,685c-.57,0-3-6.4-1.73-13.86,1.69-10.36,9.42-17.17,12.82-19.83a41.11,41.11,0,0,0-8.21,12.23C889,674.84,891.65,684.93,891,685Z"/>
            <path class="e02511b9-35c8-4f2c-a0a3-5e4689ed3e7a" d="M891.63,683.6c-.43,0-1.47-4.66.33-9.67,2.49-7,9.13-10.95,12-12.48a30.87,30.87,0,0,0-7.63,7.67C891.37,676.47,892.17,683.63,891.63,683.6Z"/>
            <path class="e02511b9-35c8-4f2c-a0a3-5e4689ed3e7a" d="M892.68,685.32c-.43,0-1.65-3.64-.06-7.48,2.22-5.32,8.69-8.23,11.51-9.33a25.3,25.3,0,0,0-7.33,5.73C892.14,679.8,893.21,685.36,892.68,685.32Z"/>
            <path class="e02511b9-35c8-4f2c-a0a3-5e4689ed3e7a" d="M887.29,684.14c-.5.23-5.89-4.82-8.52-12-3.65-10,0-18.86,1.74-22.44a35.42,35.42,0,0,0-1.35,13.94C880.46,675.58,887.91,683.86,887.29,684.14Z"/>
            <path class="e02511b9-35c8-4f2c-a0a3-5e4689ed3e7a" d="M887.74,683.8c-.77.17-6-8.25-6.69-18.84-.9-14.7,7.59-25.77,11.43-30.16A53.11,53.11,0,0,0,885,653.46C881.94,670.17,888.69,683.59,887.74,683.8Z"/>
            <path class="e02511b9-35c8-4f2c-a0a3-5e4689ed3e7a" d="M883.15,683.58c-.26.19-4.87-3-8.19-8a23.32,23.32,0,0,1-4-15.93,28.85,28.85,0,0,0,2.31,9.92C876.83,678,883.48,683.34,883.15,683.58Z"/>
          </g>
          <path class="e02511b9-35c8-4f2c-a0a3-5e4689ed3e7a" d="M862.76,711.39c-.23.11-2.35-4.92-3.11-11.39a41.51,41.51,0,0,1,2.06-18.69,52.38,52.38,0,0,0-1.4,11.58C860.21,703.17,863.05,711.24,862.76,711.39Z"/>
          <path class="e02511b9-35c8-4f2c-a0a3-5e4689ed3e7a" d="M851.89,704.93c-.23.12-2.35-4.92-3.11-11.38a41.51,41.51,0,0,1,2.06-18.69,52.28,52.28,0,0,0-1.4,11.57C849.34,696.72,852.18,704.79,851.89,704.93Z"/>
          <path class="e02511b9-35c8-4f2c-a0a3-5e4689ed3e7a" d="M333.37,760.93c-.23.12-2.35-4.92-3.11-11.38a41.66,41.66,0,0,1,2.06-18.69,52.28,52.28,0,0,0-1.4,11.57C330.82,752.72,333.66,760.79,333.37,760.93Z"/>
          <path class="e02511b9-35c8-4f2c-a0a3-5e4689ed3e7a" d="M368.19,696.93c-.24.12-2.35-4.92-3.11-11.38a41.55,41.55,0,0,1,2.05-18.69,51.78,51.78,0,0,0-1.39,11.57C365.63,688.72,368.48,696.79,368.19,696.93Z"/>
          <path class="e02511b9-35c8-4f2c-a0a3-5e4689ed3e7a" d="M314.85,755.93c-.23.12-2.35-4.92-3.11-11.38a41.66,41.66,0,0,1,2.06-18.69,52.28,52.28,0,0,0-1.4,11.57C312.3,747.72,315.15,755.79,314.85,755.93Z"/>
          <path class="e02511b9-35c8-4f2c-a0a3-5e4689ed3e7a" d="M348.19,744.93c-.24.12-2.35-4.92-3.11-11.38a41.55,41.55,0,0,1,2.05-18.69,51.78,51.78,0,0,0-1.39,11.57C345.63,736.72,348.48,744.79,348.19,744.93Z"/>
          <path class="e02511b9-35c8-4f2c-a0a3-5e4689ed3e7a" d="M358.56,695.93c-.24.12-2.35-4.92-3.11-11.38a41.55,41.55,0,0,1,2.05-18.69,51.78,51.78,0,0,0-1.39,11.57C356,687.72,358.85,695.79,358.56,695.93Z"/>
          <g>
            <path class="e02511b9-35c8-4f2c-a0a3-5e4689ed3e7a" d="M1040.69,690.81c-.14.07-1.49-3.82-2.09-8.66a37.11,37.11,0,0,1,.71-13.66,46.67,46.67,0,0,0-.51,8.45C1039,684.53,1040.85,690.72,1040.69,690.81Z"/>
            <path class="e02511b9-35c8-4f2c-a0a3-5e4689ed3e7a" d="M1059.54,692.77c-.3,0-1.56-6.59-.91-14.26a43.52,43.52,0,0,1,6.8-20.39,54.76,54.76,0,0,0-4.36,12.57C1058.52,682.35,1059.92,692.73,1059.54,692.77Z"/>
            <path class="e02511b9-35c8-4f2c-a0a3-5e4689ed3e7a" d="M1072.46,690c-.19,0-1-4.36-.59-9.43a29.58,29.58,0,0,1,4.31-13.47,37.71,37.71,0,0,0-2.76,8.31C1071.81,683.12,1072.69,690,1072.46,690Z"/>
            <path class="e02511b9-35c8-4f2c-a0a3-5e4689ed3e7a" d="M1067.41,692.31c-.21.06-1.48-3.31-1.47-7.51a22.3,22.3,0,0,1,3.58-11.85,27.78,27.78,0,0,0-2.32,7.33C1066.09,686.87,1067.67,692.24,1067.41,692.31Z"/>
            <path class="e02511b9-35c8-4f2c-a0a3-5e4689ed3e7a" d="M1080.27,690.32c-.2.08-1.55-2.31-1.66-5.57a16.8,16.8,0,0,1,3.21-9.78,20.78,20.78,0,0,0-2.09,6.07C1078.82,686.33,1080.53,690.22,1080.27,690.32Z"/>
            <path class="e02511b9-35c8-4f2c-a0a3-5e4689ed3e7a" d="M1057.15,690c-.24.18-2.89-3.87-4.19-9.66a36.3,36.3,0,0,1,.86-18,45.51,45.51,0,0,0-.66,11.19C1053.8,683.15,1057.46,689.81,1057.15,690Z"/>
            <path class="e02511b9-35c8-4f2c-a0a3-5e4689ed3e7a" d="M1058.4,691.14c-.38.13-3-6.63-3.29-15.13a48,48,0,0,1,5.62-24.21,59.87,59.87,0,0,0-3.67,15C1055.55,680.19,1058.86,691,1058.4,691.14Z"/>
            <path class="e02511b9-35c8-4f2c-a0a3-5e4689ed3e7a" d="M1054.09,689.58c-.13.15-2.39-2.44-4-6.39a28.72,28.72,0,0,1-2-12.79,35.77,35.77,0,0,0,1.14,8C1051,685.07,1054.26,689.39,1054.09,689.58Z"/>
          </g>
          <g>
            <path class="e384ca54-d38f-4e13-9bd9-21edeb00a7bb" d="M1111.06,694.81c-.14.07-1.49-3.82-2.09-8.66a37.11,37.11,0,0,1,.71-13.66,46.67,46.67,0,0,0-.51,8.45C1109.37,688.53,1111.22,694.72,1111.06,694.81Z"/>
            <path class="e384ca54-d38f-4e13-9bd9-21edeb00a7bb" d="M1129.91,696.77c-.29,0-1.56-6.59-.91-14.26a43.52,43.52,0,0,1,6.8-20.39,54.76,54.76,0,0,0-4.36,12.57C1128.89,686.35,1130.29,696.73,1129.91,696.77Z"/>
            <path class="e384ca54-d38f-4e13-9bd9-21edeb00a7bb" d="M1142.83,694c-.19,0-1-4.36-.59-9.43a29.58,29.58,0,0,1,4.31-13.47,37.71,37.71,0,0,0-2.76,8.31C1142.18,687.12,1143.06,694,1142.83,694Z"/>
            <path class="e384ca54-d38f-4e13-9bd9-21edeb00a7bb" d="M1137.78,696.31c-.21.06-1.48-3.31-1.47-7.51a22.3,22.3,0,0,1,3.58-11.85,27.78,27.78,0,0,0-2.32,7.33C1136.46,690.87,1138,696.24,1137.78,696.31Z"/>
            <path class="e384ca54-d38f-4e13-9bd9-21edeb00a7bb" d="M1150.64,694.32c-.2.08-1.55-2.31-1.66-5.57a16.8,16.8,0,0,1,3.21-9.78,20.78,20.78,0,0,0-2.09,6.07C1149.19,690.33,1150.9,694.22,1150.64,694.32Z"/>
            <path class="e384ca54-d38f-4e13-9bd9-21edeb00a7bb" d="M1127.52,694c-.24.18-2.89-3.87-4.19-9.66a36.3,36.3,0,0,1,.86-18,45.51,45.51,0,0,0-.66,11.19C1124.17,687.15,1127.83,693.81,1127.52,694Z"/>
            <path class="e384ca54-d38f-4e13-9bd9-21edeb00a7bb" d="M1128.77,695.14c-.38.13-3-6.63-3.29-15.13a48,48,0,0,1,5.62-24.21,59.87,59.87,0,0,0-3.67,15C1125.92,684.19,1129.23,695,1128.77,695.14Z"/>
            <path class="e384ca54-d38f-4e13-9bd9-21edeb00a7bb" d="M1124.46,693.58c-.13.15-2.39-2.44-4-6.39a28.72,28.72,0,0,1-2-12.79,35.77,35.77,0,0,0,1.14,8C1121.36,689.07,1124.63,693.39,1124.46,693.58Z"/>
          </g>
          <g>
            <path class="e02511b9-35c8-4f2c-a0a3-5e4689ed3e7a" d="M581.43,659.81c-.14.07-1.48-3.82-2.09-8.66a37.34,37.34,0,0,1,.71-13.66,46.67,46.67,0,0,0-.51,8.45C579.74,653.53,581.59,659.72,581.43,659.81Z"/>
            <path class="e02511b9-35c8-4f2c-a0a3-5e4689ed3e7a" d="M600.28,661.77c-.29,0-1.56-6.59-.91-14.26a43.52,43.52,0,0,1,6.8-20.39,54.76,54.76,0,0,0-4.36,12.57C599.26,651.35,600.66,661.73,600.28,661.77Z"/>
            <path class="e02511b9-35c8-4f2c-a0a3-5e4689ed3e7a" d="M613.2,659c-.19,0-1-4.36-.59-9.43a29.58,29.58,0,0,1,4.31-13.47,37.71,37.71,0,0,0-2.76,8.31C612.55,652.12,613.43,659,613.2,659Z"/>
            <path class="e02511b9-35c8-4f2c-a0a3-5e4689ed3e7a" d="M608.15,661.31c-.21.06-1.48-3.31-1.47-7.51A22.3,22.3,0,0,1,610.26,642a27.78,27.78,0,0,0-2.32,7.33C606.83,655.87,608.41,661.24,608.15,661.31Z"/>
            <path class="e02511b9-35c8-4f2c-a0a3-5e4689ed3e7a" d="M621,659.32c-.2.08-1.55-2.31-1.66-5.57a16.8,16.8,0,0,1,3.21-9.78,20.78,20.78,0,0,0-2.09,6.07C619.56,655.33,621.27,659.22,621,659.32Z"/>
            <path class="e02511b9-35c8-4f2c-a0a3-5e4689ed3e7a" d="M597.89,659c-.24.18-2.89-3.87-4.19-9.66a36.3,36.3,0,0,1,.86-18,45.51,45.51,0,0,0-.66,11.19C594.54,652.15,598.2,658.81,597.89,659Z"/>
            <path class="e02511b9-35c8-4f2c-a0a3-5e4689ed3e7a" d="M599.14,660.14c-.38.13-3-6.63-3.29-15.13a48,48,0,0,1,5.62-24.21,59.87,59.87,0,0,0-3.67,15C596.29,649.19,599.6,660,599.14,660.14Z"/>
            <path class="e02511b9-35c8-4f2c-a0a3-5e4689ed3e7a" d="M594.84,658.58c-.14.15-2.4-2.44-4-6.39a28.72,28.72,0,0,1-2-12.79,35.77,35.77,0,0,0,1.14,8C591.73,654.07,595,658.39,594.84,658.58Z"/>
          </g>
          <path class="e02511b9-35c8-4f2c-a0a3-5e4689ed3e7a" d="M968,712.39c-.24.11-2.35-4.92-3.11-11.39a41.55,41.55,0,0,1,2-18.69,52.38,52.38,0,0,0-1.4,11.58C965.39,704.17,968.24,712.24,968,712.39Z"/>
          <path class="e02511b9-35c8-4f2c-a0a3-5e4689ed3e7a" d="M957.08,705.93c-.24.12-2.35-4.92-3.12-11.38A41.66,41.66,0,0,1,956,675.86a52.28,52.28,0,0,0-1.4,11.57C954.52,697.72,957.37,705.79,957.08,705.93Z"/>
          <path class="b9448318-65d5-4cf1-b71a-92ef67e605f8" d="M799.68,803c17.78-7.17,376.21-86.93,388.11-98.05,2.75-2.58,5.18-4,6.71-6.12-.31-.68-1.23-.29-1.49-1a39.06,39.06,0,0,0-4.28-6.55l-.65.32a8.27,8.27,0,0,1-1.46.53c0,.11,0,.22-.09.33S1136,713.8,814.8,771.53c-121,26.27,3.54,51.57,16.8,53.42C831.6,825,781.9,810.15,799.68,803Z"/>
          <path class="b9448318-65d5-4cf1-b71a-92ef67e605f8" d="M847.88,837.2s-100.54,64.14-187,77.87l91.6,2.45c5.68,18.28,119.75-38.72,101.23-62.72C853.86,850,852.52,844.08,847.88,837.2Z"/>
          <polygon class="b9448318-65d5-4cf1-b71a-92ef67e605f8" points="1124.46 666.94 1603.24 647.24 1603.27 649.44 1150.06 667.07 1124.46 666.94"/>
          <g>
            <path class="e02511b9-35c8-4f2c-a0a3-5e4689ed3e7a" d="M768.67,781.92c-.56.05-2.92-10.48-1.72-22.69a63,63,0,0,1,12.73-32.43,78.76,78.76,0,0,0-8.15,20C766.76,765.34,769.37,781.85,768.67,781.92Z"/>
            <path class="e02511b9-35c8-4f2c-a0a3-5e4689ed3e7a" d="M769.69,783.92c-.43.05-2.27-9.53-1.33-20.63a63,63,0,0,1,9.84-29.49A79.07,79.07,0,0,0,771.9,752C768.21,768.84,770.23,783.85,769.69,783.92Z"/>
            <path class="e02511b9-35c8-4f2c-a0a3-5e4689ed3e7a" d="M771.05,783.92c-.4,0-2.09-7.44-1.23-16.1a44.43,44.43,0,0,1,9.12-23A55.69,55.69,0,0,0,773.1,759C769.68,772.15,771.55,783.87,771.05,783.92Z"/>
            <path class="e02511b9-35c8-4f2c-a0a3-5e4689ed3e7a" d="M771.54,782.32c-.31,0-1-5.41.23-11.23a26.55,26.55,0,0,1,8.54-14.48,33.1,33.1,0,0,0-5.43,8.9C771.35,774,771.92,782.36,771.54,782.32Z"/>
            <path class="e02511b9-35c8-4f2c-a0a3-5e4689ed3e7a" d="M772.28,784.32c-.3,0-1.17-4.23,0-8.68a18.61,18.61,0,0,1,8.18-10.84,22.87,22.87,0,0,0-5.2,6.65C771.9,777.91,772.66,784.37,772.28,784.32Z"/>
            <path class="e02511b9-35c8-4f2c-a0a3-5e4689ed3e7a" d="M768.45,783c-.35.26-4.19-5.59-6.06-14a52.58,52.58,0,0,1,1.24-26,66.07,66.07,0,0,0-1,16.18C763.6,773,768.89,782.63,768.45,783Z"/>
            <path class="e02511b9-35c8-4f2c-a0a3-5e4689ed3e7a" d="M768.77,782.56c-.54.19-4.3-9.59-4.76-21.88a69.47,69.47,0,0,1,8.13-35,87.5,87.5,0,0,0-5.31,21.67C764.65,766.72,769.44,782.32,768.77,782.56Z"/>
            <path class="e02511b9-35c8-4f2c-a0a3-5e4689ed3e7a" d="M765.51,782.3c-.19.22-3.46-3.53-5.83-9.24a41.51,41.51,0,0,1-2.84-18.5,52.12,52.12,0,0,0,1.64,11.51C761,775.77,765.74,782,765.51,782.3Z"/>
          </g>
          <g>
            <path class="e02511b9-35c8-4f2c-a0a3-5e4689ed3e7a" d="M607.42,849.71c-.26.1-2.95-5.87-4.15-13.31a44.53,44.53,0,0,1,1.41-21,55.49,55.49,0,0,0-1,13C604.07,840.07,607.74,849.58,607.42,849.71Z"/>
            <path class="e02511b9-35c8-4f2c-a0a3-5e4689ed3e7a" d="M645,852.72c-.6,0-3.12-10.12-1.83-21.9a57.94,57.94,0,0,1,13.54-31.31,72.5,72.5,0,0,0-8.67,19.3C642.93,836.71,645.71,852.65,645,852.72Z"/>
            <path class="e02511b9-35c8-4f2c-a0a3-5e4689ed3e7a" d="M670.67,848.47c-.37,0-2-6.68-1.15-14.47a39,39,0,0,1,8.58-20.69,48.85,48.85,0,0,0-5.5,12.76C669.39,837.89,671.14,848.43,670.67,848.47Z"/>
            <path class="e02511b9-35c8-4f2c-a0a3-5e4689ed3e7a" d="M660.63,852c-.42.09-2.94-5.09-2.92-11.53,0-9,4.93-15.58,7.13-18.2a35.94,35.94,0,0,0-4.62,11.25C658,843.66,661.14,851.9,660.63,852Z"/>
            <path class="e02511b9-35c8-4f2c-a0a3-5e4689ed3e7a" d="M686.24,849c-.4.12-3.09-3.56-3.32-8.55-.3-6.93,4.31-12.7,6.39-15a27.78,27.78,0,0,0-4.16,9.31C683.34,842.83,686.74,848.8,686.24,849Z"/>
            <path class="e02511b9-35c8-4f2c-a0a3-5e4689ed3e7a" d="M640.21,848.51c-.49.28-5.77-5.94-8.35-14.83-3.57-12.33,0-23.24,1.71-27.66a54.34,54.34,0,0,0-1.32,17.19C633.52,838,640.81,848.17,640.21,848.51Z"/>
            <path class="e02511b9-35c8-4f2c-a0a3-5e4689ed3e7a" d="M642.68,850.21c-.74.21-5.91-10.17-6.54-23.23-.89-18.12,7.43-31.77,11.19-37.18a75.56,75.56,0,0,0-7.31,23C637,833.4,643.61,850,642.68,850.21Z"/>
            <path class="e02511b9-35c8-4f2c-a0a3-5e4689ed3e7a" d="M634.12,847.81c-.26.24-4.77-3.74-8-9.8a35,35,0,0,1-3.92-19.65,43.79,43.79,0,0,0,2.27,12.23C627.93,840.89,634.44,847.52,634.12,847.81Z"/>
          </g>
          <g>
            <path class="e02511b9-35c8-4f2c-a0a3-5e4689ed3e7a" d="M380.05,721.28c-.26.12-3-6.71-4.18-15.21a57.41,57.41,0,0,1,1.42-24,72.08,72.08,0,0,0-1,14.82C376.67,710.26,380.38,721.13,380.05,721.28Z"/>
            <path class="e02511b9-35c8-4f2c-a0a3-5e4689ed3e7a" d="M417.92,724.72c-.6.06-3.14-11.57-1.84-25a70.55,70.55,0,0,1,13.66-35.79A88.2,88.2,0,0,0,421,686C415.87,706.42,418.67,724.64,417.92,724.72Z"/>
            <path class="e02511b9-35c8-4f2c-a0a3-5e4689ed3e7a" d="M443.85,719.86c-.38,0-2-7.64-1.17-16.54a47.83,47.83,0,0,1,8.65-23.65,60.15,60.15,0,0,0-5.54,14.58C442.55,707.77,444.32,719.81,443.85,719.86Z"/>
            <path class="e02511b9-35c8-4f2c-a0a3-5e4689ed3e7a" d="M433.71,723.91c-.41.11-3-5.81-2.94-13.18A35.86,35.86,0,0,1,438,689.92a44.76,44.76,0,0,0-4.66,12.87C431.07,714.36,434.23,723.78,433.71,723.91Z"/>
            <path class="e02511b9-35c8-4f2c-a0a3-5e4689ed3e7a" d="M459.55,720.42c-.41.14-3.12-4.07-3.35-9.77-.31-7.93,4.35-14.52,6.44-17.17a34.1,34.1,0,0,0-4.19,10.65C456.62,713.41,460.06,720.24,459.55,720.42Z"/>
            <path class="e02511b9-35c8-4f2c-a0a3-5e4689ed3e7a" d="M413.12,719.91c-.49.31-5.82-6.79-8.41-16.95-3.6-14.1,0-26.57,1.72-31.61A70.15,70.15,0,0,0,405.09,691C406.38,707.84,413.73,719.51,413.12,719.91Z"/>
            <path class="e02511b9-35c8-4f2c-a0a3-5e4689ed3e7a" d="M415.62,721.85c-.76.24-6-11.63-6.6-26.55a76.06,76.06,0,0,1,11.28-42.5,95.15,95.15,0,0,0-7.37,26.29C409.9,702.64,416.55,721.56,415.62,721.85Z"/>
            <path class="e02511b9-35c8-4f2c-a0a3-5e4689ed3e7a" d="M407,719.11c-.26.27-4.81-4.27-8.09-11.21a44.47,44.47,0,0,1-3.95-22.45,56.11,56.11,0,0,0,2.28,14C400.74,711.2,407.31,718.78,407,719.11Z"/>
          </g>
          <g>
            <path class="e02511b9-35c8-4f2c-a0a3-5e4689ed3e7a" d="M441.26,857.92c-.55.05-2.92-10.48-1.71-22.69a63,63,0,0,1,12.72-32.43,78.8,78.8,0,0,0-8.14,20C439.36,841.34,442,857.85,441.26,857.92Z"/>
            <path class="e02511b9-35c8-4f2c-a0a3-5e4689ed3e7a" d="M442.28,859.92c-.43.05-2.26-9.53-1.33-20.63a63,63,0,0,1,9.84-29.49,79.55,79.55,0,0,0-6.3,18.18C440.8,844.84,442.82,859.85,442.28,859.92Z"/>
            <path class="e02511b9-35c8-4f2c-a0a3-5e4689ed3e7a" d="M443.64,859.92c-.4,0-2.09-7.44-1.23-16.1a44.61,44.61,0,0,1,9.12-23A55.69,55.69,0,0,0,445.69,835C442.28,848.15,444.14,859.87,443.64,859.92Z"/>
            <path class="e02511b9-35c8-4f2c-a0a3-5e4689ed3e7a" d="M444.13,858.32c-.3,0-1.05-5.41.23-11.23a26.54,26.54,0,0,1,8.55-14.48,32.6,32.6,0,0,0-5.43,8.9C444,850,444.51,858.36,444.13,858.32Z"/>
            <path class="e02511b9-35c8-4f2c-a0a3-5e4689ed3e7a" d="M444.88,860.32c-.31,0-1.18-4.23,0-8.68A18.56,18.56,0,0,1,453,840.8a22.87,22.87,0,0,0-5.2,6.65C444.49,853.91,445.26,860.37,444.88,860.32Z"/>
            <path class="e02511b9-35c8-4f2c-a0a3-5e4689ed3e7a" d="M441,859c-.35.26-4.19-5.59-6.06-14a52.58,52.58,0,0,1,1.24-26,66.07,66.07,0,0,0-1,16.18C436.19,849,441.48,858.63,441,859Z"/>
            <path class="e02511b9-35c8-4f2c-a0a3-5e4689ed3e7a" d="M441.36,858.56c-.54.19-4.29-9.59-4.75-21.88a69.47,69.47,0,0,1,8.13-35,86.61,86.61,0,0,0-5.31,21.67C437.24,842.72,442,858.32,441.36,858.56Z"/>
            <path class="e02511b9-35c8-4f2c-a0a3-5e4689ed3e7a" d="M438.1,858.3c-.19.22-3.46-3.53-5.83-9.24a41.51,41.51,0,0,1-2.84-18.5,52.23,52.23,0,0,0,1.65,11.51C433.61,851.77,438.34,858,438.1,858.3Z"/>
          </g>
          <g>
            <path class="e02511b9-35c8-4f2c-a0a3-5e4689ed3e7a" d="M524.23,674.92c-.56.05-2.93-10.48-1.72-22.69a63,63,0,0,1,12.73-32.43,78.76,78.76,0,0,0-8.15,20C522.32,658.34,524.92,674.85,524.23,674.92Z"/>
            <path class="e02511b9-35c8-4f2c-a0a3-5e4689ed3e7a" d="M525.24,676.92c-.43.05-2.26-9.53-1.33-20.63a63.1,63.1,0,0,1,9.84-29.49,79.55,79.55,0,0,0-6.3,18.18C523.77,661.84,525.78,676.85,525.24,676.92Z"/>
            <path class="e02511b9-35c8-4f2c-a0a3-5e4689ed3e7a" d="M526.61,676.92c-.4,0-2.1-7.44-1.23-16.1a44.43,44.43,0,0,1,9.12-23A55.33,55.33,0,0,0,528.66,652C525.24,665.15,527.11,676.87,526.61,676.92Z"/>
            <path class="e02511b9-35c8-4f2c-a0a3-5e4689ed3e7a" d="M527.1,675.32c-.31,0-1.05-5.41.23-11.23a26.49,26.49,0,0,1,8.54-14.48,33.1,33.1,0,0,0-5.43,8.9C526.91,667,527.48,675.36,527.1,675.32Z"/>
            <path class="e02511b9-35c8-4f2c-a0a3-5e4689ed3e7a" d="M527.84,677.32c-.31,0-1.18-4.23,0-8.68A18.61,18.61,0,0,1,536,657.8a22.87,22.87,0,0,0-5.21,6.65C527.46,670.91,528.22,677.37,527.84,677.32Z"/>
            <path class="e02511b9-35c8-4f2c-a0a3-5e4689ed3e7a" d="M524,676c-.36.26-4.19-5.59-6.06-14a52.34,52.34,0,0,1,1.24-26,65.09,65.09,0,0,0-1,16.18C519.15,666,524.45,675.63,524,676Z"/>
            <path class="e02511b9-35c8-4f2c-a0a3-5e4689ed3e7a" d="M524.32,675.56c-.54.19-4.29-9.59-4.75-21.88a69.47,69.47,0,0,1,8.13-35,86.61,86.61,0,0,0-5.31,21.67C520.21,659.72,525,675.32,524.32,675.56Z"/>
            <path class="e02511b9-35c8-4f2c-a0a3-5e4689ed3e7a" d="M521.06,675.3c-.18.22-3.46-3.53-5.82-9.24a41.37,41.37,0,0,1-2.84-18.5A51.53,51.53,0,0,0,514,659.07C516.57,668.77,521.3,675,521.06,675.3Z"/>
          </g>
          <path class="b15812aa-ff73-4a99-968f-154e38441270" d="M776.05,781.92s91-26.12,147.93-31.71c46.21-9.83,259.65-56.71,259.65-56.71l5.36-2.6,3.78,6.66-11.75,1s-37.43,14.36-69.75,20.79-104.45,23-139.5,34.73S890,775.26,872.22,775s-56.5,1.19-75.26,17-34.52,4.79-34.52,4.79S760.57,787,776.05,781.92Z"/>
          <path class="b15812aa-ff73-4a99-968f-154e38441270" d="M849.31,836.8S753.15,898.24,661.23,915c60.61,1.56,68.82,4.14,68.82,4.14a40.53,40.53,0,0,1,34.83-15l23,1.66,3.94-18.14,13.84,3.78s24.26-22.52,38.8-26.58,13.05-6.06,13.05-6.06Z"/>
          <path class="aa4bb793-60bc-4453-8a0b-316013a4ea3a" d="M276.42,605.94c5.95-4.66,12.73-8,16.8-8a3.85,3.85,0,0,1,2.37.62,3.24,3.24,0,0,0,3.76.17c2.61-1.79,5.12-3,6.65-3s1.69,1,1,2.55a.92.92,0,0,0,1,1.27,6.18,6.18,0,0,1,.73,0c2.6,0,3.45,1.49,2.66,3.83a.91.91,0,0,0,.93,1.19h.28c2,0,2.9.85,2.72,2.17a2.19,2.19,0,0,0,2.38,2.34,6.94,6.94,0,0,1,.8,0,1,1,0,0,0,.69-.17c1.83-1.27,3.61-2.11,4.68-2.11,1.43,0,1.15,1.49-.5,3.52l.58-.3.21-.18c2.59-2.28,6-3.59,7.67-2.92a1.21,1.21,0,0,1,.2.09.94.94,0,0,0,1,0c.39-.27.77-.53,1.16-.78a.89.89,0,0,0,.44-.84c-.1-.82.53-2,1.79-3.1,1.93-1.69,4.58-2.62,5.94-2.08l.08,0c2.51-2,5.62-3.12,7.16-2.5s.89,3-1.7,5.32l0,0a2.12,2.12,0,0,1,.24.82.91.91,0,0,0,1.08.74,4.22,4.22,0,0,1,2.14.15c1.51.61,1.42,2.35,0,4.31a.89.89,0,0,0,.76,1.42,5,5,0,0,1,1.78.32,2.48,2.48,0,0,1,1.22,1,1,1,0,0,0,1.44.13h0c2.84-2.49,6.66-4,9.31-3.84a.94.94,0,0,0,.75-.29c.29-.3.61-.62,1-.92,3-2.68,7.13-4.19,9.13-3.38a1.71,1.71,0,0,1,.5.28c.25-.26.52-.51.81-.76,3.38-3,8.17-4.57,10.7-3.56a2.45,2.45,0,0,1,1.15.88,1,1,0,0,0,.94.42,10.54,10.54,0,0,1,1.59,0l.75-.22c1.89-1.56,4.39-2.39,5.69-1.87s.9,2.36-1,4a10.63,10.63,0,0,1-1.21.91.86.86,0,0,0-.41.71c0,1.85-1.15,4.24-3.24,6.76l.41.08a1,1,0,0,0,.76-.18c3.24-2.32,7.23-3.46,9.46-2.56l.37.17a1,1,0,0,0,1,0,8.87,8.87,0,0,1,4.27-1.31l.66-.24c2.56-2.15,5.84-3.37,7.44-2.73,1.35.54,1.1,2.22-.44,4a4.55,4.55,0,0,1,.59.18c2.53,1,1.83,4.25-1.55,7.23a16.66,16.66,0,0,1-6.49,3.52c-.19.34-.41.69-.64,1a7,7,0,0,1,3.79.2c2.44,1,2.32,3.62-.26,5.89-1.84,2.11-3.36,3.94-5.54,3.94H199.34a.89.89,0,0,1-.27-1.76,6.89,6.89,0,0,1,1.77-.26,3.4,3.4,0,0,1,.67.06l.15-.15a26.91,26.91,0,0,1,11.18-6.59,1,1,0,0,0,.5-.32,14.3,14.3,0,0,1,1.08-1.21c2.9-2.92,7.26-5.3,9.73-5.3a2.23,2.23,0,0,1,1.09.24,1,1,0,0,0,1.11-.14,9.27,9.27,0,0,1,5-2.15c.84,0,1.24.35,1.21.91h0c4.05-3.18,8.67-5.44,11.44-5.44a2.15,2.15,0,0,1,2,.82,1,1,0,0,0,1.43.27c2-1.52,4.1-2.56,5.29-2.56.86,0,1.1.53.81,1.4a.91.91,0,0,0,.94,1.18h.07a2.33,2.33,0,0,1,1.5.41,1,1,0,0,0,1.13.14,16.25,16.25,0,0,1,7-2.35,3,3,0,0,1,1.77.45.93.93,0,0,0,1.16-.07c2.31-1.94,5.49-3.4,7.57-3.4,1.23,0,1.82.51,1.78,1.33Z"/>
          <path class="aa4bb793-60bc-4453-8a0b-316013a4ea3a" d="M70.5,605.94c6-4.66,12.72-8,16.8-8a3.87,3.87,0,0,1,2.37.62,3.23,3.23,0,0,0,3.76.17c2.6-1.79,5.11-3,6.64-3s1.7,1,1,2.55a.91.91,0,0,0,1,1.27,6,6,0,0,1,.72,0c2.61,0,3.45,1.49,2.66,3.83a.91.91,0,0,0,.93,1.19h.29c2,0,2.89.85,2.71,2.17a2.2,2.2,0,0,0,2.39,2.34,6.77,6.77,0,0,1,.79,0,1,1,0,0,0,.7-.17c1.82-1.27,3.6-2.11,4.67-2.11,1.43,0,1.16,1.49-.49,3.52l.58-.3.2-.18c2.59-2.28,6-3.59,7.67-2.92a1.21,1.21,0,0,1,.2.09,1,1,0,0,0,1,0c.38-.27.77-.53,1.15-.78a.91.91,0,0,0,.45-.84c-.11-.82.52-2,1.79-3.1,1.92-1.69,4.58-2.62,5.94-2.08l.07,0c2.52-2,5.62-3.12,7.16-2.5s.89,3-1.69,5.32l0,0a2.12,2.12,0,0,1,.24.82.92.92,0,0,0,1.08.74,4.25,4.25,0,0,1,2.15.15c1.5.61,1.41,2.35,0,4.31a.89.89,0,0,0,.76,1.42,5.11,5.11,0,0,1,1.79.32,2.53,2.53,0,0,1,1.22,1,1,1,0,0,0,1.43.13h0c2.83-2.49,6.65-4,9.3-3.84a1,1,0,0,0,.76-.29c.29-.3.61-.62,1-.92,3-2.68,7.12-4.19,9.13-3.38a2,2,0,0,1,.5.28,9.74,9.74,0,0,1,.8-.76c3.38-3,8.18-4.57,10.7-3.56a2.53,2.53,0,0,1,1.16.88,1,1,0,0,0,.93.42,10.54,10.54,0,0,1,1.59,0l.75-.22c1.9-1.56,4.39-2.39,5.7-1.87s.9,2.36-1,4a10.74,10.74,0,0,1-1.22.91.86.86,0,0,0-.41.71c0,1.85-1.15,4.24-3.24,6.76l.41.08a1,1,0,0,0,.77-.18c3.23-2.32,7.22-3.46,9.45-2.56a3.34,3.34,0,0,1,.38.17,1,1,0,0,0,1,0,8.91,8.91,0,0,1,4.28-1.31l.66-.24c2.55-2.15,5.84-3.37,7.44-2.73,1.34.54,1.09,2.22-.44,4a4.39,4.39,0,0,1,.58.18c2.53,1,1.84,4.25-1.55,7.23a16.59,16.59,0,0,1-6.49,3.52c-.19.34-.4.69-.64,1a7,7,0,0,1,3.8.2c2.44,1,2.32,3.62-.27,5.89-1.84,2.11-3.36,3.94-5.53,3.94H-6.58a.89.89,0,0,1-.28-1.76,7,7,0,0,1,1.77-.26,3.51,3.51,0,0,1,.68.06l.15-.15a26.82,26.82,0,0,1,11.17-6.59,1,1,0,0,0,.5-.32,14.3,14.3,0,0,1,1.08-1.21c2.91-2.92,7.26-5.3,9.73-5.3a2.23,2.23,0,0,1,1.09.24,1,1,0,0,0,1.11-.14,9.3,9.3,0,0,1,4.95-2.15c.84,0,1.25.35,1.22.91h0c4.05-3.18,8.66-5.44,11.44-5.44a2.17,2.17,0,0,1,2,.82,1,1,0,0,0,1.43.27c2-1.52,4.09-2.56,5.28-2.56.86,0,1.11.53.81,1.4a.91.91,0,0,0,.94,1.18h.07a2.33,2.33,0,0,1,1.5.41,1,1,0,0,0,1.13.14,16.29,16.29,0,0,1,7-2.35,3,3,0,0,1,1.77.45,1,1,0,0,0,1.17-.07c2.3-1.94,5.49-3.4,7.56-3.4,1.23,0,1.83.51,1.79,1.33Z"/>
          <path class="aa4bb793-60bc-4453-8a0b-316013a4ea3a" d="M542.37,617.23c5.94-4.66,12.72-8,16.79-8a3.9,3.9,0,0,1,2.37.62,3.23,3.23,0,0,0,3.77.17c2.6-1.79,5.11-2.95,6.64-2.95s1.69,1,1,2.55a.91.91,0,0,0,1,1.27l.73,0c2.6,0,3.45,1.49,2.66,3.83a.92.92,0,0,0,.93,1.19h.29c2,0,2.89.85,2.71,2.18a2.2,2.2,0,0,0,2.38,2.34,5.24,5.24,0,0,1,.8,0,1,1,0,0,0,.69-.17c1.83-1.28,3.61-2.12,4.68-2.12,1.43,0,1.16,1.49-.5,3.53l.59-.31.2-.18c2.59-2.27,6-3.58,7.67-2.92l.2.09a1,1,0,0,0,1,0c.38-.27.77-.53,1.15-.78a.9.9,0,0,0,.45-.83c-.11-.83.52-2,1.79-3.11,1.92-1.69,4.58-2.62,5.94-2.07l.07,0c2.51-2,5.62-3.11,7.16-2.49s.89,3-1.69,5.31l0,0a2.18,2.18,0,0,1,.24.82.93.93,0,0,0,1.08.75,4.22,4.22,0,0,1,2.14.15c1.51.6,1.42,2.34,0,4.3a.9.9,0,0,0,.76,1.43,5,5,0,0,1,1.78.31,2.5,2.5,0,0,1,1.22,1,1,1,0,0,0,1.44.13h0c2.84-2.49,6.66-4,9.31-3.85a.93.93,0,0,0,.75-.28,12.42,12.42,0,0,1,1-.93c3-2.67,7.12-4.18,9.13-3.38a2.09,2.09,0,0,1,.49.28c.25-.25.52-.51.81-.76,3.38-3,8.17-4.57,10.7-3.56a2.4,2.4,0,0,1,1.15.89,1,1,0,0,0,.94.41,9.33,9.33,0,0,1,1.59,0l.75-.23c1.89-1.56,4.39-2.39,5.69-1.86s.91,2.35-1,4a9.57,9.57,0,0,1-1.21.91.86.86,0,0,0-.41.71c0,1.86-1.15,4.25-3.24,6.77l.41.07a1,1,0,0,0,.76-.17c3.24-2.33,7.23-3.46,9.46-2.57a2.12,2.12,0,0,1,.37.18,1,1,0,0,0,1,0,8.85,8.85,0,0,1,4.28-1.3l.65-.25c2.56-2.15,5.84-3.36,7.45-2.72,1.34.53,1.09,2.21-.44,4a4.91,4.91,0,0,1,.58.18c2.53,1,1.83,4.25-1.55,7.22a16.66,16.66,0,0,1-6.49,3.52c-.19.35-.41.7-.64,1.06a6.93,6.93,0,0,1,3.8.2c2.43,1,2.31,3.61-.27,5.88-1.84,2.12-3.36,3.94-5.53,3.94H465.28A.89.89,0,0,1,465,640a6.89,6.89,0,0,1,1.77-.26,3.58,3.58,0,0,1,.68.06l.15-.15A26.92,26.92,0,0,1,478.78,633a.93.93,0,0,0,.5-.32,16,16,0,0,1,1.08-1.21c2.9-2.92,7.26-5.29,9.73-5.29a2.24,2.24,0,0,1,1.09.23,1,1,0,0,0,1.11-.13,9.29,9.29,0,0,1,4.95-2.16c.84,0,1.24.35,1.22.91h0c4.05-3.17,8.66-5.44,11.43-5.44a2.14,2.14,0,0,1,2,.83,1,1,0,0,0,1.43.26c2-1.52,4.1-2.56,5.29-2.56.86,0,1.1.54.81,1.4a.91.91,0,0,0,.94,1.18h.07a2.4,2.4,0,0,1,1.5.41,1,1,0,0,0,1.13.14,16.25,16.25,0,0,1,7-2.35,2.92,2.92,0,0,1,1.77.46,1,1,0,0,0,1.16-.07c2.31-1.94,5.49-3.41,7.57-3.41,1.23,0,1.82.51,1.79,1.33Z"/>
          <ellipse class="b6c6393e-b59e-435a-a1d9-edde64dd3b4d" cx="268.2" cy="702.8" rx="73.7" ry="13"/>
          <g>
            <polygon class="eae7b8ea-fe99-4e06-9cc1-c9d22caa5ba7" points="231.56 653.93 245.99 671.48 254.38 703.95 230.53 682.94 231.56 653.93"/>
            <polygon class="b19a77c6-7771-4f68-89d4-8fe42882936b" points="245.99 671.48 268.57 673.69 266.51 703.95 254.38 703.95 245.99 671.48"/>
            <polygon class="e43d7f5d-208d-4764-af25-5f98abe3bcd7" points="268.29 673.69 279.21 703.95 266.23 703.95 268.29 673.69"/>
            <polygon class="f87fe5fc-8970-4300-8eb6-f33f08a9f8e4" points="268.29 673.69 291.38 675.35 303.9 691.93 296.66 710.59 279.21 703.95 268.29 673.69"/>
            <path class="b692132e-0a31-4f76-a437-d08fc4b40671" d="M303.9,691.93l-7.24,18.65s16.42.83,20.87-2.07,2.78-1.66,2.78-1.66Z"/>
            <polygon class="e388da32-9dd8-4a69-909a-44c4aa22c684" points="291.38 675.35 321.68 653.93 334.22 690.44 334.22 703.95 320.31 706.85 302.86 691.93 291.38 675.35"/>
            <path class="bf94cfe4-0bd3-4dc1-a17d-6795274205aa" d="M321.68,653.93q6.4,18.59,12.82,37.17-.15-15.93-.28-31.86Z"/>
            <polygon class="f87fe5fc-8970-4300-8eb6-f33f08a9f8e4" points="310.85 634.31 321.68 653.93 334.22 659.24 334.22 656.34 310.85 634.31"/>
            <path class="a3066d47-c346-402e-ab8f-de29417cd44d" d="M231.56,653.93,246,671.48l45.39,3.87,30.3-21.42-10.83-19.62H280.21s-13-2.91-24.72,4.56S231.56,653.93,231.56,653.93Z"/>
            <path class="e1dd39de-79c9-4f93-9830-0c5bb5783269" d="M246,671.48s31.07-2.51,33.22-13.21,6.88-10.7,42.47-4.34l-10.83-19.62H279.21l-47.65,19.62Z"/>
            <polygon class="aeaf69c8-2941-4d35-b7d6-0f757b485273" points="244.43 669.58 245.99 671.48 247.92 678.94 247.09 671.38 248.93 671.48 246.31 670.37 244.43 669.58"/>
            <polygon class="aeaf69c8-2941-4d35-b7d6-0f757b485273" points="285.75 674.94 291.1 676.18 295.31 681.02 292.25 674.73 293.05 672.86 290.27 674.93 285.75 674.94"/>
            <polygon class="aeaf69c8-2941-4d35-b7d6-0f757b485273" points="233.32 656.06 231.85 655.03 231.43 657.8 231.56 653.93 233.65 653.07 232.54 654.21 233.32 656.06"/>
            <path class="fc1ea883-7003-4b2d-ad64-465a27bd028b" d="M304.47,634.31s-10.87,2.07-15.59,6.63-12.24,11.61-13.36,14.92l-1.11,3.32-1.69,4.6s3.64-7.92,7.81-11.65,7.79-9.53,11.68-11.19,10.3-4.15,14.47-5.39l4.17-1.24Z"/>
            <path class="b4bfc44a-3c38-4d16-8d25-ffa291a08c77" d="M277.85,634.31s-7.06,4.56-7.06,10.78v6.21s-.13-12.43,8.42-17Z"/>
            <polygon class="f87fe5fc-8970-4300-8eb6-f33f08a9f8e4" points="293.91 660.63 307.36 664.05 317.55 682.94 310.85 660.63 293.91 660.63"/>
          </g>
          <path class="fd93ba97-dd01-46f8-998a-764163910402" d="M241.79,877.58s154.28,10.87,202-5.21,76-30.72,178.84-20.9S846.3,836.8,846.3,836.8s-129.45,53.38-259.94,79.94c-119.82,4.12-590.43-.59-590.43-.59l.24-64.36s104.77-1.74,165.75,7.38,108.9,17.6,108.9,17.6"/>
          <g>
            <path class="ff2900a1-295b-4984-8793-9e73c1d5566e" d="M386,920.12s-16.81-5-16.34-18.76S386,920.12,386,920.12Z"/>
            <path class="ff2900a1-295b-4984-8793-9e73c1d5566e" d="M390.21,920.12s-9.34-34.39-16.34-43.14,12.14-9.47,16.34,26.53Z"/>
            <path class="ff2900a1-295b-4984-8793-9e73c1d5566e" d="M392.31,920.12S387.6,893.37,405.15,892C413.09,891.36,392.31,920.12,392.31,920.12Z"/>
            <path class="ff2900a1-295b-4984-8793-9e73c1d5566e" d="M405.62,913.24s2.8-20,13.54-21.26S405.62,913.24,405.62,913.24Z"/>
          </g>
          <g>
            <path class="ff2900a1-295b-4984-8793-9e73c1d5566e" d="M116,904.13a49.14,49.14,0,0,0-29.43-16.85c-19.38-3.34,20.81-17.76,35.17,16.85C121.7,904.13,128.16,919.51,116,904.13Z"/>
            <path class="ff2900a1-295b-4984-8793-9e73c1d5566e" d="M143.23,906.05s-29.43-43.26-46.65-54.79,16.5-12.5,39.47,23.55C136.05,874.81,147.54,896.44,143.23,906.05Z"/>
            <path class="ff2900a1-295b-4984-8793-9e73c1d5566e" d="M151.84,906.05s-19.55-70.17-28.43-78.82,14.08-13.46,28.43,43.73C151.84,871,157.58,901.24,151.84,906.05Z"/>
            <path class="ff2900a1-295b-4984-8793-9e73c1d5566e" d="M162.25,906.05s-7.54-64.4-14.71-74S174.81,842.61,162.25,906.05Z"/>
            <path class="ff2900a1-295b-4984-8793-9e73c1d5566e" d="M166.56,906.05s-.36-53.66,15.07-61.91S172.66,879.13,166.56,906.05Z"/>
            <path class="ff2900a1-295b-4984-8793-9e73c1d5566e" d="M171.58,906.05s9.69-61.49,33.38-62.94S186.29,865.68,171.58,906.05Z"/>
            <path class="ff2900a1-295b-4984-8793-9e73c1d5566e" d="M173.61,906.05s12.68-25,34.22-23.07S178.88,898.36,173.61,906.05Z"/>
          </g>
          <g>
            <path class="ff2900a1-295b-4984-8793-9e73c1d5566e" d="M550,911A27.79,27.79,0,0,1,566.48,902c10.88-1.79-11.68-9.54-19.73,9.06C546.75,911,543.12,919.3,550,911Z"/>
            <path class="ff2900a1-295b-4984-8793-9e73c1d5566e" d="M534.66,912.07s16.52-23.26,26.18-29.46-9.26-6.72-22.15,12.66C538.69,895.27,532.24,906.9,534.66,912.07Z"/>
            <path class="ff2900a1-295b-4984-8793-9e73c1d5566e" d="M529.83,912.07s11-37.73,16-42.38-7.91-7.23-16,23.52C529.83,893.21,526.6,909.48,529.83,912.07Z"/>
            <path class="ff2900a1-295b-4984-8793-9e73c1d5566e" d="M524,912.07s4.23-34.63,8.25-39.79S516.94,878,524,912.07Z"/>
            <path class="ff2900a1-295b-4984-8793-9e73c1d5566e" d="M521.57,912.07s.2-28.85-8.46-33.29S518.15,897.6,521.57,912.07Z"/>
            <path class="ff2900a1-295b-4984-8793-9e73c1d5566e" d="M518.75,912.07S513.31,879,500,878.23,510.49,890.36,518.75,912.07Z"/>
            <path class="ff2900a1-295b-4984-8793-9e73c1d5566e" d="M517.61,912.07s-7.12-13.44-19.2-12.41S514.65,907.93,517.61,912.07Z"/>
          </g>
        </g>
      </g>
    </g>
  </g>
</svg>
