<svg xmlns="http://www.w3.org/2000/svg" xmlns:xlink="http://www.w3.org/1999/xlink" width="1600" height="900" viewBox="0 0 1600 900">
  <defs>
    <style>
      .b666c485-d654-45e4-b05e-3f88e0b1ce3b {
        fill: none;
      }

      .a589f729-dea6-40ca-b192-f78b5c1df563 {
        isolation: isolate;
      }

      .b15cab55-5fe3-4ac7-b297-616581c95685 {
        clip-path: url(#a25ec936-dedc-49ec-98d8-f67c007ff3f0);
      }

      .ee30c0ac-69ba-4682-9997-97539d9338af {
        fill: url(#bb3b79f7-1f1c-43c3-95fb-542583bea0a1);
      }

      .b2888163-5d1f-4ab5-a6a4-9c423ac9a1dd {
        clip-path: url(#fb6ffd49-0e83-41f1-8377-45f368241321);
      }

      .ead294c7-887d-4c0e-94bc-bae58dfe4482 {
        clip-path: url(#af6cff43-9724-451e-b202-171d2d1c035f);
      }

      .f9749db3-29bc-40c7-a1de-74a762e0d119 {
        fill: url(#bb07d475-ed4c-43d8-bfc3-fb6a8921b3fa);
      }

      .f75f7233-ffe0-4b4b-aec8-3ad56c55335e {
        fill: #472409;
        mix-blend-mode: color-burn;
        opacity: 0.25;
      }

      .e3bcc383-c507-4c0e-9a3c-45f9bfbf6ed0 {
        fill: #3db038;
      }

      .e888c077-f12c-49fa-adbb-eef06da9c62b {
        fill: #6fb738;
      }

      .e4ab3142-9999-4fee-a65b-261b2fe51a4e {
        clip-path: url(#b537470e-b73c-4c5b-bdba-228c4de5c997);
      }

      .a70e3973-cd2d-4ebb-bae4-fb2aaccf34ec {
        fill: url(#bae2e887-2b19-480d-8308-06a4f680b645);
      }

      .a6633eb7-ae0f-421d-8dd1-b4ee9f5b645c {
        fill: #95e053;
      }

      .fea07ae5-4fa3-452b-906a-ebca52bbf51d {
        fill: #fff;
        opacity: 0.8;
      }

      .bdeb8f93-175a-459b-9877-236bc0c0f273 {
        clip-path: url(#b8283271-db34-4081-9394-39a66bc3ae90);
      }

      .f181b754-fcea-4d89-99bc-78ef440e7e59 {
        fill: url(#fa08e52b-f010-4bd7-b69f-92effca44e7b);
      }

      .a9bfb4ca-ff29-4176-b5e4-94f015da57fd {
        mix-blend-mode: color-dodge;
        opacity: 0.67;
        fill: url(#bcefefad-044c-45a6-ade1-4bf234c215ae);
      }
    </style>
    <clipPath id="a25ec936-dedc-49ec-98d8-f67c007ff3f0">
      <rect class="b666c485-d654-45e4-b05e-3f88e0b1ce3b" y="-1000" width="1600" height="900"/>
    </clipPath>
    <linearGradient id="bb3b79f7-1f1c-43c3-95fb-542583bea0a1" x1="802.84" y1="1273.1" x2="793.08" y2="-1867.49" gradientUnits="userSpaceOnUse">
      <stop offset="0.32" stop-color="#d3fff3"/>
      <stop offset="0.44" stop-color="#c4f5f1"/>
      <stop offset="0.68" stop-color="#9bdbec"/>
      <stop offset="0.93" stop-color="#68bae5"/>
    </linearGradient>
    <clipPath id="fb6ffd49-0e83-41f1-8377-45f368241321">
      <rect class="b666c485-d654-45e4-b05e-3f88e0b1ce3b" width="1600" height="900"/>
    </clipPath>
    <clipPath id="af6cff43-9724-451e-b202-171d2d1c035f">
      <rect class="b666c485-d654-45e4-b05e-3f88e0b1ce3b" x="-158.53" y="-460" width="2090.53" height="1775.96"/>
    </clipPath>
    <linearGradient id="bb07d475-ed4c-43d8-bfc3-fb6a8921b3fa" x1="902.27" y1="-364.36" x2="900.18" y2="887.03" gradientUnits="userSpaceOnUse">
      <stop offset="0.08" stop-color="#7b98ff"/>
      <stop offset="0.09" stop-color="#7e9dff"/>
      <stop offset="0.23" stop-color="#96c1ff"/>
      <stop offset="0.36" stop-color="#a7daff"/>
      <stop offset="0.47" stop-color="#b1eaff"/>
      <stop offset="0.56" stop-color="#b5efff"/>
    </linearGradient>
    <clipPath id="b537470e-b73c-4c5b-bdba-228c4de5c997">
      <rect class="b666c485-d654-45e4-b05e-3f88e0b1ce3b" x="1700" width="1600" height="900"/>
    </clipPath>
    <linearGradient id="bae2e887-2b19-480d-8308-06a4f680b645" x1="2487.08" y1="-316.22" x2="2485.17" y2="824.26" xlink:href="#bb07d475-ed4c-43d8-bfc3-fb6a8921b3fa"/>
    <clipPath id="b8283271-db34-4081-9394-39a66bc3ae90">
      <rect class="b666c485-d654-45e4-b05e-3f88e0b1ce3b" y="1000" width="1600" height="900"/>
    </clipPath>
    <linearGradient id="fa08e52b-f010-4bd7-b69f-92effca44e7b" x1="845.75" y1="849.31" x2="844.03" y2="1878.94" gradientUnits="userSpaceOnUse">
      <stop offset="0.49" stop-color="#999"/>
      <stop offset="0.63" stop-color="#9a9797"/>
      <stop offset="0.71" stop-color="#9f908e"/>
      <stop offset="0.78" stop-color="#a88380"/>
      <stop offset="0.84" stop-color="#b4716c"/>
      <stop offset="0.9" stop-color="#c35b52"/>
      <stop offset="0.9" stop-color="#c6574e"/>
      <stop offset="0.95" stop-color="#f9a12c"/>
    </linearGradient>
    <linearGradient id="bcefefad-044c-45a6-ade1-4bf234c215ae" x1="916.59" y1="700.6" x2="846.01" y2="1374.47" gradientUnits="userSpaceOnUse">
      <stop offset="0.29" stop-color="#aaa9aa"/>
      <stop offset="0.3" stop-color="#aca4a4"/>
      <stop offset="0.35" stop-color="#b48c89"/>
      <stop offset="0.4" stop-color="#bb7873"/>
      <stop offset="0.46" stop-color="#c06962"/>
      <stop offset="0.54" stop-color="#c35f57"/>
      <stop offset="0.64" stop-color="#c55950"/>
      <stop offset="0.94" stop-color="#c6574e"/>
    </linearGradient>
  </defs>
  <g class="a589f729-dea6-40ca-b192-f78b5c1df563">
    <g id="bae5091b-4fb3-42c8-86b9-e518848444c4" data-name="Layer 1">
      <g class="b15cab55-5fe3-4ac7-b297-616581c95685">
        <path class="ee30c0ac-69ba-4682-9997-97539d9338af" d="M1643,43.8c-18.22,0-78.21-25.69-96.43-25.69-96.88,0-191.4,58.72-288.28,58.72-100.43,0-220,16.51-320.41,16.51-122.72,0-207.65-134.49-330.36-134.49H-45.19V-1104.77H1622.22Z"/>
      </g>
      <g class="b2888163-5d1f-4ab5-a6a4-9c423ac9a1dd">
        <g class="ead294c7-887d-4c0e-94bc-bae58dfe4482">
          <g>
            <rect class="b666c485-d654-45e4-b05e-3f88e0b1ce3b" x="-416.23" y="-765.71" width="2613.17" height="2219.95"/>
            <rect class="f9749db3-29bc-40c7-a1de-74a762e0d119" x="-4.33" y="-28.87" width="1810.83" height="747.43"/>
            <path class="f75f7233-ffe0-4b4b-aec8-3ad56c55335e" d="M1877.26,476.82l.24,519-3907.08,2.72-.19-424.74,24.7.94,1.5,39.84,22.17,0-.75-62.11,130.75,4.61,0,51.54,153,1.06,6.35-694,33.94-3.53,41,11.09v-6.45h-5.91v-7h4.81v-18.19h2.57v19.94h8.88v-16.41h3.3v17l7.42,3.49-.73,5.29h-1.87v4.7l7,1.16,0,35.18,25.47-3.55v-6.46h1.51v5.29h5.52l0-61,29.93-1.76v-7h3v-17h-2.6V-136h8.88v25.77h2.24v8.79l18.82,0v-13.49h7.39v8.78H-1494l.36,7.61,37.67,6.47-.33,90.85,22.93,4.06V13.41l4.06,6.41-4.62,489.45,25.16-2.35,15.51.57,1.49-56.87,16.57-2.35v-31.1l70.58-1.21V403.09l53.56-.66V389.57h6l0-75,3.85-6.17,0-39h16.08V239.5h6.61v2.91h8.15l0-47.46,1.84,2.33v9.41l4.45,1.16v3.5h5.54l.37-5.87,3-1.17v5.87l7.73.58,1.12-5.29,4.45-.59,1.1,5.29,8.87.58-.39-4.71,4.09.62v3.5h7.36v-7l1.87-1.17.36-9.37h3.33l.77,17.57,9.21.58.38-13.49,2.24.58,1.08,12.9,6.66,2.91.36-15.82h1.48l.37,16.41,7,1.78,1.48-4.7v-6.46l3.7.58.37,12.33-1.46,3.49.35,27.57,12.21,1.15,2.22,27.56,1.88.58,1.48,4.67,6.64-.55.32-49.84,3.35.59,1.12,51.58,32.9,2.31-3.25,240.31h4.45v5.28l1.51,1.79-.36,7-2.24,1.21-.71,51,4.43,1.74v6.42h-3l-.36,18.77s22.77-.55,23.66-.59c-1.12,0,.73,7,.73,7l12.93.57-1.84,7-2.24,1.79h-3.3l1.49,34.6,3,2.91,0,38.1h5.52l2.37-451.31,37-10V223.51l42.5-10v-4.12H-926l1.49,2.95,100.85,6.39v29.89l40.68,4.67-.75-52.74,14-7.05,5.89-95.55,123.8,2.24L-631.85,201l22.93.57-.39-11.12,4.08.54,4-80.9,16.66-3.5-.83-160,49.16.55,31.39,5.3-.1-229.82,22.53-10h12.57v-9.37h2.18v8.2l33.65-1.77v-10.57h2.22v9.37l20-1.76v5.87h4.06v-5.29l25.14,0L-352-276.32l42.1-4.74,10.73,8.2L-303,211.3l29.93,6.43,1.06-70.95,15.9.62,0-59.2,41.37-7.07L-215.89,2l5.18-4.71,21.07-3.51,0-78,4.06-3.5s18.84-4.72,17.72-4.72,54.65-66.82,54.65-66.82h11.09l55.07,65.58,2.63,1.16.73,3.54,17.36,4.65L-26.72-4-.09,1.25l-.3,131.9,53.17,1.71,1.5-22.28h2.57l.74,14.62h2.6l-.36,7.66,95.31,3.44.37,21.1,29.61-4.68,1-40.47,21.06-1.18,8.13-32.81L216.08,65h4.79l1.88,12.33h8.09V74.37h9.27v3.5l50.25-9.4V63.75h-2.58v-10h15.85V69l12.94.61V63.15l5.53-8.79,4.82.58v8.79l-3,.62,1.48,6.41,3,.58,1.12,12.33-.36,4.66,2.6-.54V98.9H334v8.2h22.9l-1.74,248.55H340l-.33,79.69,8.85,1.2,0,96.72,7.78.53,0-58,4.42-1.17.38-18.78,38.81,3.51v-5.87l39.14,0v5.25h17l.2-311.8,2.58-3,4.84-.58.36-3,3.7-1.12,1.06-2.38,11.45-.59.39-3.5,8.15-.63,0-34.55,12.91-10,79.48,4V87.61H590V91.1L627,90.5l1.14,48.08,33.26.56L660.1,711.81l6-.63.19-390.35,2.61-.59.36-8.78L691,312v7.61h6.28v-4.7l21.42,0V319h3.73l-.85-203.42,30.31-20-.4-34,27.34-20.54,82.79,1.73V58.65l5.51-.55,7-4.12V48.73h3L879,51.64l19.2-.64V45.18H896.3l-4.24-6.74,3.32-5.25L900,25.81h5.57V7.66h4V27l46.56-1.24V20.53h4.08v7.62l6.27,4.11.37,6.41-4.81,11.75.77,26.35,3.69,3.54h9.24l-.39,2.33,3.36.58,0,38.68h19.18v-5.25l3.33-5.29,5.18,5.87.84,194.59,5.54,2.33,0,44,15.88,1.74-.34,46.29,7,1.75.74,24.06,4.06,2.33.38,89.68,2.6.58L1043,741.4l1.43-.59,1.15-5.83h12.18v4.66c0,2.33,1.12,2.33,1.12,2.33l.37,5.87,23.29-.6L1081.35,715s-4.06-6.45-6.27-7l-.73-4.08h8.85v-4.12l8.48.58v1.74l3,2.37.36,1.75h7.4l.75-3a10.28,10.28,0,0,1,4.06-3.5c2.6-1.17,4,4.7,4,4.7h8.51l-1.11-35.77,4.45-1.16-.45-137.77,7-10,23.63,0,.58-345.27,7.78-.59,0-31.64,5.13.58.39,6.45,3.31-1.17-.37-5.87,35.09.56,15.16-69.16.73-11.74,1.48-2.34,1.81-18.77,2.22,18.77,2.24,3.5L1230,73.67l13.33,72.06,83.46,2.9,11.12.57,10.7,13.49.79,72.06,3.33,1.21,1.48,5.83,3.34.62-.26,255,25.85,0,16.64,17.56-.35,36.93,7.75,1.75-.37,35.76,13.72.57,0,106.67h6.61V681.93l39.16-4.11V652.63l3.36-5.29h5.15l.73-54.5,14-14.71h7v-5.25h-3.73l0-45.14,18.5-15.83,82.42,1.69,0,47.46L1589.7,567l.39,9.36h22.54l.37,22.9-2.18,2.33,1.43,4.08L1638.53,639l15.14.58,0,52.16h17.72l.06,128.94,30.32,0-.16-345.23,29.91,0v-5.87h4.09V476h5.13v-5.29h3.36V476h9.21V466h2.21v9.36l34.75,2.31v-7.62l3-1.75,1.12,1.75.7,4.7h5.21V463.05h8.12v10.58h5.54v-6.46h8.85V473l1.51-.59,5.18-7.08v10Z"/>
            <path class="e3bcc383-c507-4c0e-9a3c-45f9bfbf6ed0" d="M2695.46,744.64c-8.57-18.87-39.44-32.84-76.23-32.84a139.13,139.13,0,0,0-23.26,1.93c3.49-3.66,5.48-7.83,5.48-12.27,0-14.56-21.35-26.36-47.68-26.36a81.78,81.78,0,0,0-19.08,2.21c-1-23.51-35.79-42.38-78.54-42.38-31,0-57.87,10-70.64,24.39-13.61-9.23-34.33-15.12-57.56-15.12-41,0-74.23,18.37-74.23,41a23.68,23.68,0,0,0,1.63,8.58,78.26,78.26,0,0,0-25.07-3.93c-16,0-30.14,4.36-38.79,11a29.66,29.66,0,0,0,2.83-12.49c0-28-41.08-50.73-91.75-50.73a152.58,152.58,0,0,0-44.77,6.46c-3.91-12.38-23.43-21.8-47-21.8-13.3,0-25.32,3-34,7.87-23.49-14.09-57.16-22.93-94.55-22.93-41.85,0-79,11.06-102.49,28.18-8.41-4.13-19.48-6.65-31.63-6.65-26.32,0-47.66,11.81-47.66,26.37a15.28,15.28,0,0,0,.71,4.55c-11.34-7.27-28.11-11.89-46.83-11.89-28.44,0-52.37,10.61-59.61,25.07-8.82-14.09-33-24.2-61.47-24.2a109.52,109.52,0,0,0-29.62,3.93c4.43-3.37,7.07-7.5,7.07-12,0-11.29-16.55-20.44-37-20.44-9.38,0-17.91,1.94-24.43,5.13-11.07-9.27-30.06-15.38-51.64-15.38-15.58,0-29.82,3.19-40.7,8.46-29.21-13.9-67.2-22.32-108.77-22.32-66.79,0-124.39,21.7-151.08,53-11.15-6.06-26.44-9.8-43.32-9.8-34.14,0-61.84,15.3-61.84,34.19,0,5.31,2.2,10.34,6.12,14.83a128.33,128.33,0,0,0-40.77-6.34c-35.31,0-65.12,12.94-74.83,30.72C873,705.06,856.93,700,838.69,700c-13.91,0-26.58,3-36.05,7.81-13.83-21.76-51.3-37.37-95.37-37.37-39.22,0-73.19,12.37-90,30.41-11-4.66-24.69-7.44-39.61-7.44-26.44,0-49.17,8.71-59.36,21.23a135.84,135.84,0,0,0-27.85-2.82,139,139,0,0,0-23.26,1.93c3.49-3.66,5.48-7.83,5.48-12.27,0-14.56-21.36-26.36-47.68-26.36a81.72,81.72,0,0,0-19.08,2.21c-1-23.51-35.8-42.38-78.54-42.38-31,0-57.87,10-70.64,24.39-13.61-9.23-34.33-15.12-57.56-15.12-41,0-74.24,18.37-74.24,41a23.69,23.69,0,0,0,1.64,8.58,78.26,78.26,0,0,0-25.07-3.93c-16,0-30.14,4.36-38.79,11a29.65,29.65,0,0,0,2.82-12.49c0-28-41.07-50.73-91.74-50.73a152.58,152.58,0,0,0-44.77,6.46c-3.92-12.38-23.43-21.8-46.95-21.8-13.3,0-25.33,3-34,7.87-23.48-14.09-57.15-22.93-94.55-22.93-41.84,0-79,11.06-102.48,28.18-8.42-4.13-19.49-6.65-31.63-6.65-26.33,0-47.67,11.81-47.67,26.37a15.29,15.29,0,0,0,.72,4.55c-11.34-7.27-28.12-11.89-46.83-11.89-28.44,0-52.37,10.61-59.61,25.07-8.82-14.09-33-24.2-61.48-24.2A109.5,109.5,0,0,0-625,652.68c4.43-3.37,7.07-7.5,7.07-12,0-11.29-16.56-20.44-37-20.44-9.38,0-17.91,1.94-24.44,5.13C-690.42,616.12-709.41,610-731,610c-15.58,0-29.82,3.19-40.7,8.46-29.21-13.9-67.2-22.32-108.77-22.32-66.8,0-124.39,21.7-151.08,53-11.15-6.06-26.45-9.8-43.32-9.8-34.15,0-61.84,15.3-61.84,34.19,0,5.31,2.2,10.34,6.12,14.83a128.33,128.33,0,0,0-40.77-6.34c-35.31,0-65.13,12.94-74.83,30.72-9.58-7.73-25.65-12.81-43.89-12.81-13.91,0-26.58,3-36,7.81-13.83-21.76-51.3-37.37-95.37-37.37-36.24,0-68,10.56-85.83,26.39V865.45h4257.5V720.88C2724.72,722.19,2703.55,731.72,2695.46,744.64Z"/>
            <rect class="e888c077-f12c-49fa-adbb-eef06da9c62b" x="-3.51" y="818.82" width="1821.49" height="122.13"/>
          </g>
        </g>
      </g>
      <g class="e4ab3142-9999-4fee-a65b-261b2fe51a4e">
        <g>
          <rect class="a70e3973-cd2d-4ebb-bae4-fb2aaccf34ec" x="1383" y="-10" width="2206" height="680.25"/>
          <path class="f75f7233-ffe0-4b4b-aec8-3ad56c55335e" d="M3600,483.88l.12,162.49-2190,1-.1-133,13.85.3.84,12.47h12.43l-.42-19.44,73.29,1.43v16.14l85.76.32,3.58-217.27,19-1.1,23,3.47v-2h-3.31v-2.19h2.7v-5.7h1.45v6.24h5v-5.13h1.86v5.32l4.16,1.1-.41,1.65h-1v1.47l3.94.37v11l14.28-1.11v-2h.84v1.65h3.1l0-19.08,16.78-.56v-2.2h1.66V294.2h-1.46v-2h5v8.07h1.25V303h10.55v-4.22h4.14v2.75h-1.43l.21,2.38,21.11,2-.19,28.44,12.86,1.27V339l2.28,2L1744,494.2l14.1-.74,8.7.18.83-17.8,9.29-.74v-9.74l39.56-.38v-4l30-.21v-4h3.34l0-23.48,2.16-1.93V419.1h9v-9.36h3.7v.91h4.57V395.78l1,.73v2.95l2.49.36v1.1h3.11l.2-1.83,1.67-.37v1.84l4.33.18.63-1.66,2.49-.18.62,1.65,5,.18-.22-1.47,2.29.2v1.09H1897v-2.2l1-.37.2-2.93h1.87l.42,5.5,5.17.18.21-4.23,1.26.19.6,4,3.74.91.2-5h.83l.21,5.14,3.92.56.83-1.48v-2l2.07.19.21,3.85L1919,404l.2,8.63,6.84.36,1.24,8.63,1.06.18.83,1.46,3.72-.17.18-15.6,1.88.18.62,16.15,18.44.72-1.83,75.23h2.5v1.66l.84.56-.2,2.19-1.25.38-.4,16,2.48.55v2h-1.66l-.2,5.88,13.26-.19c-.63,0,.41,2.2.41,2.2l7.25.18-1,2.19-1.25.56h-1.85l.84,10.83,1.66.91v11.93h3.09L1978,416.29l20.71-3.14v-8.44l23.82-3.14v-1.29h6.22l.83.93,56.53,2v9.36l22.8,1.46-.42-16.51,7.84-2.21,3.31-29.92,69.39.7,4.56,31.57,12.86.17-.23-3.48,2.29.17,2.25-25.32,9.33-1.1-.45-50.11,27.55.17,17.6,1.66-.05-71.95,12.63-3.12h7V241.8h1.23v2.57l18.86-.56V240.5h1.24v2.94l11.19-.56v1.84h2.28v-1.66h14.1l17.18,5.14,23.61-1.49,6,2.57-2.17,151.58,16.77,2,.6-22.21,8.92.19,0-18.53,23.2-2.22-.65-24.78,2.9-1.47,11.82-1.1,0-24.42,2.28-1.09s10.56-1.48,9.93-1.48,30.63-20.92,30.63-20.92h6.22l30.87,20.52,1.47.37.41,1.11,9.73,1.45-.2,25.14,14.92,1.65-.17,41.3,29.8.53.84-7h1.45l.41,4.57h1.46l-.21,2.4,53.43,1.07.2,6.61,16.6-1.47.59-12.67,11.81-.37,4.55-10.28.41-4.78h2.68l1.06,3.86h4.53V358h5.2v1.09l28.16-2.94v-1.47h-1.44v-3.12H2718v4.77l7.25.19v-2l3.11-2.76,2.7.19v2.75l-1.66.19.83,2,1.66.18.63,3.86-.2,1.46,1.46-.17v3.48H2735v2.57h12.83l-1,77.82h-8.49l-.18,25,5,.37,0,30.28,4.36.17V483.63l2.48-.36.21-5.88,21.75,1.1v-1.84h21.94v1.64h9.54l.12-97.62,1.45-.93,2.71-.18.2-.93,2.08-.35.59-.74,6.42-.19.22-1.09,4.57-.2V365.23l7.23-3.12,44.55,1.26v-1.28h5v1.09l20.7-.19.64,15.06,18.64.17-.72,179.29,3.34-.2.12-122.21,1.46-.18.2-2.75,12.21.17v2.39h3.51v-1.48h12v1.29h2.08l-.46-63.69,17-6.25L2969,354l15.33-6.43,46.4.54V353l3.1-.17,3.92-1.29V349.9h1.66l1,.92,10.76-.21v-1.82h-1l-2.38-2.11,1.86-1.64,2.58-2.31h3.13V337h2.26v6.06l26.1-.39v-1.64H3086v2.39l3.51,1.28.21,2-2.7,3.68.43,8.25,2.07,1.11h5.18l-.22.73,1.89.19v12.1h10.75v-1.64l1.87-1.66,2.9,1.84.47,60.92,3.11.73v13.76l8.9.55-.2,14.49,3.94.55.41,7.53,2.28.73.21,28.07,1.46.19-.14,67.89.8-.18.64-1.83h6.83v1.46a.65.65,0,0,0,.62.73l.21,1.84,13.06-.19-.64-10.09s-2.28-2-3.52-2.2L3150,555h5v-1.29l4.76.18v.55l1.66.74.21.55h4.14l.42-.93a5.82,5.82,0,0,1,2.28-1.1c1.46-.36,2.26,1.48,2.26,1.48h4.77l-.62-11.19,2.49-.37-.24-43.13,3.95-3.12h13.24l.34-108.1,4.36-.18v-9.91l2.88.18.22,2,1.85-.36-.21-1.84,19.67.17,8.5-21.65.41-3.68.83-.73,1-5.88,1.24,5.88,1.25,1.09.63,3.32,7.47,22.55,46.79.91,6.23.18,6,4.22.43,22.56,1.87.38.83,1.82,1.87.2-.15,79.82H3323l9.32,5.5-.19,11.56,4.35.54-.22,11.2,7.69.18,0,33.39h3.7v-4.59l21.95-1.28v-7.89l1.88-1.66h2.89l.41-17.06,7.86-4.6h3.93V514h-2.08V499.84l10.37-4.95,46.2.52v14.86l-2.31,1.84L3439,515h12.64l.21,7.16-1.23.74.8,1.27,14.73,10.46,8.49.18v16.33h9.94l0,40.37h17l-.08-108.08h16.77v-1.84h2.29v2h2.87V482h1.88v1.66h5.17v-3.11h1.24v2.93l19.47.72v-2.38l1.66-.55.63.55.4,1.47h2.91v-3.68h4.55v3.31h3.11v-2h5v1.83l.85-.18,2.9-2.22v3.13Z"/>
          <path class="e3bcc383-c507-4c0e-9a3c-45f9bfbf6ed0" d="M3567.86,641.53c-4.41-11-20.28-19.2-39.19-19.2a62.32,62.32,0,0,0-12,1.13,11.15,11.15,0,0,0,2.82-7.18c0-8.51-11-15.41-24.52-15.41a37.35,37.35,0,0,0-9.81,1.29c-.53-13.74-18.4-24.77-40.38-24.77-16,0-29.75,5.81-36.32,14.26-7-5.4-17.65-8.85-29.6-8.85-21.08,0-38.16,10.75-38.16,24a15.46,15.46,0,0,0,.84,5,35.75,35.75,0,0,0-12.89-2.3c-8.22,0-15.5,2.55-20,6.46a19.26,19.26,0,0,0,1.46-7.31c0-16.37-21.12-29.65-47.17-29.65a69.61,69.61,0,0,0-23,3.77c-2-7.24-12.05-12.74-24.14-12.74a32.92,32.92,0,0,0-17.47,4.6c-12.08-8.24-29.39-13.41-48.61-13.41-21.52,0-40.63,6.47-52.7,16.48a33.66,33.66,0,0,0-16.26-3.89c-13.53,0-24.51,6.9-24.51,15.42a10.41,10.41,0,0,0,.37,2.66c-5.83-4.26-14.45-6.95-24.08-6.95-14.62,0-26.92,6.2-30.64,14.65-4.54-8.23-17-14.15-31.61-14.15a49.9,49.9,0,0,0-15.23,2.3,9.34,9.34,0,0,0,3.63-7c0-6.6-8.51-12-19-12a26.16,26.16,0,0,0-12.56,3c-5.69-5.41-15.46-9-26.55-9a43.94,43.94,0,0,0-20.93,5c-15-8.13-34.55-13-55.92-13-34.34,0-64,12.69-77.67,31-5.74-3.54-13.6-5.73-22.28-5.73-17.56,0-31.79,9-31.79,20a14.16,14.16,0,0,0,3.14,8.67,58.72,58.72,0,0,0-21-3.7c-18.15,0-33.48,7.56-38.48,18-4.92-4.52-13.18-7.49-22.56-7.49a37.39,37.39,0,0,0-18.54,4.56c-7.11-12.72-26.37-21.84-49-21.84-20.16,0-37.63,7.23-46.26,17.77a47.31,47.31,0,0,0-20.36-4.35c-13.6,0-25.28,5.1-30.52,12.42a61.51,61.51,0,0,0-14.32-1.65,62.32,62.32,0,0,0-12,1.13,11.15,11.15,0,0,0,2.82-7.18c0-8.51-11-15.41-24.52-15.41a37.35,37.35,0,0,0-9.81,1.29c-.53-13.74-18.4-24.77-40.38-24.77-16,0-29.75,5.81-36.32,14.26-7-5.4-17.65-8.85-29.6-8.85-21.08,0-38.16,10.75-38.16,24a15.46,15.46,0,0,0,.84,5,35.75,35.75,0,0,0-12.89-2.3c-8.22,0-15.5,2.55-20,6.46a19.26,19.26,0,0,0,1.46-7.31c0-16.37-21.12-29.65-47.17-29.65a69.61,69.61,0,0,0-23,3.77c-2-7.24-12.05-12.74-24.14-12.74a32.92,32.92,0,0,0-17.47,4.6c-12.08-8.24-29.39-13.41-48.61-13.41-21.52,0-40.63,6.47-52.7,16.48a33.69,33.69,0,0,0-16.26-3.89c-13.53,0-24.51,6.9-24.51,15.42a10.41,10.41,0,0,0,.37,2.66c-5.83-4.26-14.45-6.95-24.08-6.95-14.62,0-26.92,6.2-30.64,14.65-4.54-8.23-17-14.15-31.61-14.15a49.9,49.9,0,0,0-15.23,2.3,9.34,9.34,0,0,0,3.63-7c0-6.6-8.51-12-19-12a26.16,26.16,0,0,0-12.56,3c-5.69-5.41-15.46-9-26.55-9a43.94,43.94,0,0,0-20.93,5c-15-8.13-34.55-13-55.92-13-34.34,0-64,12.69-77.67,31-5.74-3.54-13.6-5.73-22.28-5.73-17.56,0-31.79,9-31.79,20a14.16,14.16,0,0,0,3.14,8.67,58.72,58.72,0,0,0-21-3.7c-18.15,0-33.48,7.56-38.48,18-4.92-4.52-13.18-7.49-22.56-7.49a37.39,37.39,0,0,0-18.54,4.56c-7.11-12.72-26.37-21.84-49-21.84-18.63,0-35,6.17-44.13,15.42v98.6H3596V627.64C3582.9,628.4,3572,634,3567.86,641.53Z"/>
          <rect class="e888c077-f12c-49fa-adbb-eef06da9c62b" x="1365" y="656.64" width="2250" height="257.36"/>
          <polygon class="a6633eb7-ae0f-421d-8dd1-b4ee9f5b645c" points="2208.13 706.43 1361 779.72 1361 743.89 1731.57 717.95 1429.8 690.3 2208.13 706.43"/>
          <rect class="fea07ae5-4fa3-452b-906a-ebca52bbf51d" x="1398" y="-10" width="2204" height="932"/>
        </g>
      </g>
      <g class="bdeb8f93-175a-459b-9877-236bc0c0f273">
        <g>
          <path class="f181b754-fcea-4d89-99bc-78ef440e7e59" d="M820.14,1747.51c19.42-9.33,31.75-23.25,29.64-43.68-1.71-16.41-17.4-27.67-25.24-33.89a54.68,54.68,0,0,1-20.1-38.17c-.49-7.11-.5-15.74,3.26-21.35,4.2-6.25,11.67-10.35,17-14.67,5.81-4.73,14-8.89,18.12-16.34,3.61-6.47,1.85-12.93-.2-19.76,12.73,5.43,35.48,2.6,50.3-5.15,20-10.48,31.75-38,4.7-42.71,43.45-15,81.9,25,110.12,20.18,28.58-4.93,50.53-36.07,31.65-58.14,18-4.66,39.36-9.2,47.2-34.13,5-16,2.78-31.67-6.85-43.35-3.49-4.23-9.5-6.59-12.17-11.79-6.5-12.63-3-23.45-13.67-33.4-5.42-5-18.42-8.11-19.56-18.53-2.91-26.49,43.25-6.13,46-36.92,1.51-17.09-9.81-9.18-20.17-17.32,23.66-43.81,26.87-98.83,10.69-147.09-6.89-20.58-16.39-41-29.83-55.15s-31.48-9.15-33.53-36.3c-1.56-20.58-7-40.9-16.25-57.69-10.89-19.77-43.79-52.44-88.83-28.11-11.59-77.16-119.53-81.38-137.6-11.53-9.21-6.35-25.33-6.11-39.61,6.57-26.58,23.59-26.46,63-15,87.39-31.55-9.55-46.89,48.87-34.19,89.77-8.47,1.4-6.36,21.13-2.07,30.25-30.22,2.85-81,43.7-72.14,93.31,7,39,45.21,26.85,65.35,20,14.46-4.9,36.57,2.53,38.26,23.48,2.37,29.5-26.06,41.06.22,67.48,25.1,25.23,113.75-9.53,124.84,13.65,10.86,22.71-8.41,42.69-41,52.21-70,20.45-40.1,89.63-43.62,99-4.36,11.64-43.43,19.66-41.93,65,.49,14.54,12.56,23.27,21,31-6.22,15.79-5.36,32.25,2.85,46.74,8.6,15.19,22.62,17.41,35.78,20.34a310.1,310.1,0,0,1,39.84,11.93c11.58,4.25,22.57,11.94,12.58,28.56-10.75,17.88-28.84,27.39-41.54,33.73C789.84,1758.77,801.09,1756.66,820.14,1747.51Z"/>
          <path class="a9bfb4ca-ff29-4176-b5e4-94f015da57fd" d="M1079.72,1396.35c-3.49-4.23-9.5-6.59-12.17-11.79-6.5-12.63-3-23.45-13.67-33.4-5.42-5-18.42-8.11-19.56-18.53-2.91-26.49,43.25-6.13,46-36.92,1.51-17.09-9.81-9.18-20.17-17.32,23.66-43.81,26.87-98.83,10.69-147.09-6.89-20.58-16.39-41-29.83-55.15s-31.48-9.15-33.53-36.3c-1.56-20.58-7-40.9-16.25-57.69-10.89-19.77-43.79-52.44-88.83-28.11-11.59-77.16-119.53-81.38-137.6-11.53-9.21-6.35-25.33-6.11-39.61,6.57-26.58,23.59-26.46,63-15,87.39-31.55-9.55-46.89,48.87-34.19,89.77-8.47,1.4-6.36,21.13-2.07,30.25-17.47,1.65-41.8,16-57.52,37.41,19.11-14.92,43.82-17.43,66.82-6-4.49-18-.47-64.18,24.14-47.63a45.9,45.9,0,0,0-5.36,16.6c11.72-14,31.4-21,44.74-18.71,11.87,2,30.69,9,40.67,22.61a21.34,21.34,0,0,0,1.27-12.49c-6-27.28-36.51-35.1-54.8-30.16-8.86,2.39-17.73,8.94-23.92,18-5.78-21.59-17.24-38.63-17.24-55.65,4.75-31.61,38-37.93,47.49-6.32-9.23-30.73-15.09-104.76,33.71-92.87-14.82,14.51-25.32,43.78-15.18,65.3,1.68,3.57,4.12,5.63,6.73,6.36.19-.81.38-1.61.59-2.29,5.74-18.79,13.43-31.59,27.06-41.16s31.62-9.73,47-2.17A20.6,20.6,0,0,0,840,996c-9.35-31.52-38.63-32.12-58.71-20.46,15-34.9,27.72-63.33,77.64-35.69,21.92,12.13,36.8,61.63,36.8,93.24,14.25-44.25,47.5-47.41,76-11.06,16,18.49,16.88,44,13,65.76a99.29,99.29,0,0,0-9.89-24c-5.61-9.18-13.35-15-22.11-16.43-8.44-1.38-17.71,10.16-16.35,21.28.35,2.89,2.81,5,4.86,4.93,3.8,0,6.43-3,10.3-2.12,4.39,1,7.79,6.87,10.1,11.48a66.78,66.78,0,0,1,6,19.84c.65,4.12.11,7.61,1.5,11.66.92,2.7,2,5.38,2.75,8.16a3.91,3.91,0,0,0,1.13,1.94l-.13.27.39,0a2.23,2.23,0,0,0,1.9.31,18.66,18.66,0,0,0,1.77-.71c36.9-2.27,76.33,46.49,67.17,95.27-9.5,44.25-42.74,56.89-71.23,75.86,9.49,0,19,6.32,23.74,12.64,9.5,19,9.5,44.25,0,63.22,28.5-6.32,42.74,25.28,57,44.25,4.75,6.32,0,19-9.5,25.28,9.5-6.32,14.25,6.33,23.75,6.33,0,5.49.22,11,.37,16.33,7.93-4.85,14.65-12,18.34-23.78C1091.61,1423.67,1089.35,1408,1079.72,1396.35Z"/>
        </g>
      </g>
    </g>
  </g>
</svg>
