<svg xmlns="http://www.w3.org/2000/svg" xmlns:xlink="http://www.w3.org/1999/xlink" width="1600" height="900" viewBox="0 0 1600 900">
  <defs>
    <style>
      .aa065501-2ae0-4f1d-a2d1-50074928f16f, .ff35c1d8-1f40-4117-ae36-71ef44a1fece {
        fill: none;
      }

      .b3763b08-dc17-4c31-8789-f583031668c9 {
        isolation: isolate;
      }

      .e932bc8d-9829-4a8a-8896-ba9a71a60d60 {
        clip-path: url(#bcda7278-15c0-48ec-abd2-7cc4df3a8534);
      }

      .a4fe30ad-d807-4d12-accd-c6c072893a2a {
        fill: #c5db7f;
      }

      .a6b52535-fe2b-4d0a-b79b-3ff55608ff8e {
        fill: #98bc5c;
      }

      .fc265f67-b9f3-4b8e-96d5-01a117f640a8 {
        fill: #799640;
        opacity: 0.46;
      }

      .a5317fd8-a837-4bfd-acc5-5a69998a14c0 {
        fill: #00470c;
      }

      .e868b784-8d33-4f99-a85e-ed479be2ba59 {
        fill: #042f33;
      }

      .baa7715b-1fa1-423a-8a64-c00854ca3acf {
        fill: url(#b375b787-0690-41fe-898b-b57358f35ba3);
      }

      .ab54e506-b123-4668-9650-eeef7ca6ee0a {
        fill: url(#a32e5905-caad-4b3c-af5c-a97eb5a20780);
      }

      .b57289b9-6a4c-4e0b-95b4-511b4c25dfc4 {
        fill: url(#a5be50f7-5153-49fc-9451-c145110350b7);
      }

      .af4ce1ca-c9ce-4216-b42d-67c1dcbc414f {
        fill: url(#bbf17797-f2f9-4a91-8a85-b3fbcaf82e70);
      }

      .b6ea6c23-6204-460a-9914-c683283f7b99 {
        fill: url(#e1aaf8f9-0021-404d-bbb6-5605e124dc53);
      }

      .af423b0e-afb2-4684-9807-5555321a43e0 {
        fill: #95e053;
      }

      .a237c7a4-5ebc-4d5f-af98-5a60b4397208 {
        fill: #824b4e;
      }

      .bf724bcd-90cd-4fa2-845c-abadef92a13f {
        fill: #fd6700;
      }

      .ff35c1d8-1f40-4117-ae36-71ef44a1fece {
        stroke: #4f3729;
        stroke-miterlimit: 10;
      }

      .b42588cb-8bdf-4339-bbbd-95485b5cb468 {
        clip-path: url(#a0a7b7f6-6fc6-48ea-9360-07e64434edc3);
      }

      .b165ed14-2fc6-4fbb-9a38-414e0ac7ce46 {
        fill: url(#b70e0395-d5a3-46c2-a902-2fcfeed36162);
      }

      .bd6e2909-b915-4bf7-9c7a-b2e7bbed96be {
        fill: #472409;
        mix-blend-mode: color-burn;
        opacity: 0.25;
      }

      .a6e165ee-5722-40af-949a-693601a1462b {
        fill: #3db038;
      }

      .b921f4e6-7e01-419b-9ec2-61c25624cddc {
        fill: #6fb738;
      }

      .b94622f0-63b3-427f-99dc-538776012a11 {
        fill: #549119;
      }

      .a3a6d51a-26d7-4178-ad76-0d5dfeb42e72 {
        fill: #7c6057;
      }

      .a7ce0338-fb35-483f-b410-9a1537506827 {
        fill: #e0b673;
      }

      .b1c9689f-13a2-4345-a7ad-d485c898cb55 {
        fill: #f9b234;
      }

      .b602138a-7be6-41f7-b448-60e6c54347fb {
        fill: #525e68;
      }

      .a25ae232-cdb2-442a-879a-0bd84741824b {
        fill: #472c19;
      }

      .fe3436bc-943d-451d-936f-18ee7f3f6ee5 {
        fill: #4baee0;
      }

      .b31f8481-7c48-4e2b-911f-fcc67c9c9dc7 {
        fill: #e59c28;
      }

      .e799d645-f80f-42a9-8092-bb2724166be9 {
        fill: #db982c;
      }

      .f1801119-84f5-45e1-af8f-416a9669fc65 {
        fill: #c9841f;
      }

      .afc718aa-1ca4-4d25-a851-a455cffd6a84 {
        fill: #8e4b2e;
      }

      .a9006e7d-3323-4e1a-9130-20d679870496 {
        fill: #683727;
      }

      .aa5a5222-15af-41fd-a4dc-491cd4c44a81 {
        fill: #ffc881;
      }

      .b98079ea-967d-461a-a644-a4598086cab1 {
        fill: #a2744d;
      }

      .bda0e53a-d63a-49d8-ba4e-e2b0e15bb1c1 {
        fill: #ffe3ca;
      }

      .a8512d52-da43-4d61-b8af-6bde34b6fbc0, .e6ed3a0a-fd67-4533-9a44-250ad9d56bee {
        fill: #fff;
      }

      .eb568f2e-6711-43e0-90d9-1a6d9baf0011 {
        fill: #af2323;
      }

      .f9cb0b8f-625f-4e7c-87ac-12e0098e35c3 {
        fill: #16272f;
      }

      .fbb799a0-b6c8-4b1c-a129-9ff26b0c5c22 {
        fill: #738391;
      }

      .f03155a0-1304-4907-b655-7db232b87ea6 {
        fill: #12749b;
      }

      .e2ecd720-8f89-4e85-9c7a-885bc5247543 {
        fill: #303c42;
      }

      .efc627aa-58c9-4792-8325-f33ad6db7195 {
        fill: #579312;
      }

      .ea92a99f-f640-402e-b468-f93458307eaa {
        fill: #2996cc;
      }

      .b7ca4f03-549b-42b8-ac9a-a6465c4b7060 {
        fill: #4ebbe5;
      }

      .e62beb37-4e7a-4e86-8be0-c5c8b5d5a213 {
        fill: #92a1ad;
      }

      .e174d56e-c70b-4aca-8be7-dc5fe9deb024 {
        fill: #5a6a77;
      }

      .fe742035-c8ab-4d44-9ba1-50bc8fa90ede {
        fill: #cca266;
      }

      .f823297d-d4c4-4324-8f95-195814d66e61 {
        fill: #87d5f4;
      }

      .a22dbe6c-4078-4b6f-b404-0286d1428223 {
        fill: #684932;
      }

      .e6e95756-ab42-41b1-93a7-bec0625a43d9 {
        fill: #e8e8e8;
        opacity: 0.65;
      }

      .e3b4dc0c-49a2-430e-b691-e1ccd1897bde {
        fill: #368fb2;
      }

      .ab2f44cf-711b-49d2-9ea8-515f0b6f2dde {
        fill: #fe7248;
      }

      .fb23ea81-4a52-4506-98b7-b1eace9a07a8 {
        fill: #ffd56e;
      }

      .ae42cd22-2187-4d42-89be-83f630e081c4 {
        fill: #b0b1ae;
      }

      .ea8e7c12-029d-4a83-ba76-8b19bf4ed1c8 {
        fill: #eae9e9;
      }

      .e9136ed4-0516-4b5b-bda5-9fad14bf7903 {
        fill: #d0d0cf;
      }

      .e2d89cf6-647a-46cc-8e5c-c3d331924059 {
        fill: #9d9f9b;
      }

      .a9eab1f6-9d4c-4ffa-8db5-86b350ef78e4 {
        fill: #8f928d;
      }

      .ff5c68f5-c4a1-4ecb-9c97-766439777578 {
        fill: #d5d4d4;
      }

      .a50d0c60-3f81-4b32-bd0c-23f23b7fad54 {
        fill: #e5e3e3;
      }

      .a081aa57-0059-4613-9acd-596aa441311f {
        fill: #868982;
      }

      .e6ed3a0a-fd67-4533-9a44-250ad9d56bee {
        opacity: 0.8;
      }

      .f8b9518e-26f0-4df2-9c6e-426373504fc9 {
        clip-path: url(#fc44e6b5-ecf2-4b84-9ea1-788e82854f5a);
      }

      .a7fa20b6-a4f7-4d28-b0fb-b982c0f0b40b {
        fill: url(#ab52ca30-721a-4eac-beae-da0e9e0c54ff);
      }

      .ad013024-f6b0-4bce-b583-fe984efab85e {
        fill: #bf987e;
      }

      .ec4fc1d3-3e66-45b6-a798-6a251a352050 {
        fill: #7d8a92;
      }

      .f67403ac-3e70-43ee-8daa-a12d7e4b7da9 {
        fill: #3a3a3a;
      }

      .bed17dcb-1d91-4ae2-b2d8-9e8c1cf3eb06 {
        fill: #bababa;
      }
    </style>
    <clipPath id="bcda7278-15c0-48ec-abd2-7cc4df3a8534">
      <rect class="aa065501-2ae0-4f1d-a2d1-50074928f16f" y="-1000" width="1600" height="900"/>
    </clipPath>
    <linearGradient id="b375b787-0690-41fe-898b-b57358f35ba3" x1="426.4" y1="169.84" x2="468.98" y2="127.23" gradientUnits="userSpaceOnUse">
      <stop offset="0.15" stop-color="#82cdd9"/>
      <stop offset="0.82" stop-color="#d7eef4"/>
    </linearGradient>
    <linearGradient id="a32e5905-caad-4b3c-af5c-a97eb5a20780" x1="648.88" y1="153.87" x2="722.19" y2="80.51" gradientTransform="matrix(0.92, -0.08, 0.09, 1, -223.12, 79.97)" gradientUnits="userSpaceOnUse">
      <stop offset="0.4" stop-color="#adcff1"/>
      <stop offset="0.51" stop-color="#b9d9f5"/>
      <stop offset="0.8" stop-color="#d2f0fc"/>
      <stop offset="0.98" stop-color="#dbf8ff"/>
    </linearGradient>
    <linearGradient id="a5be50f7-5153-49fc-9451-c145110350b7" x1="1271.76" y1="95.95" x2="1321.85" y2="45.83" xlink:href="#b375b787-0690-41fe-898b-b57358f35ba3"/>
    <linearGradient id="bbf17797-f2f9-4a91-8a85-b3fbcaf82e70" x1="1048.29" y1="305.15" x2="1139.48" y2="213.89" gradientTransform="matrix(1.05, -0.1, 0.07, 0.8, 88.2, -40.24)" xlink:href="#a32e5905-caad-4b3c-af5c-a97eb5a20780"/>
    <linearGradient id="e1aaf8f9-0021-404d-bbb6-5605e124dc53" x1="904.56" y1="119.47" x2="981.24" y2="42.74" gradientUnits="userSpaceOnUse">
      <stop offset="0.15" stop-color="#82cdd9"/>
      <stop offset="0.9" stop-color="#d7eef4"/>
    </linearGradient>
    <clipPath id="a0a7b7f6-6fc6-48ea-9360-07e64434edc3">
      <rect class="aa065501-2ae0-4f1d-a2d1-50074928f16f" width="1600" height="900"/>
    </clipPath>
    <linearGradient id="b70e0395-d5a3-46c2-a902-2fcfeed36162" x1="796.77" y1="-408.48" x2="794.62" y2="878.09" gradientUnits="userSpaceOnUse">
      <stop offset="0.08" stop-color="#7b98ff"/>
      <stop offset="0.09" stop-color="#7e9dff"/>
      <stop offset="0.23" stop-color="#96c1ff"/>
      <stop offset="0.36" stop-color="#a7daff"/>
      <stop offset="0.47" stop-color="#b1eaff"/>
      <stop offset="0.56" stop-color="#b5efff"/>
    </linearGradient>
    <clipPath id="fc44e6b5-ecf2-4b84-9ea1-788e82854f5a">
      <rect class="aa065501-2ae0-4f1d-a2d1-50074928f16f" x="-1700" width="1600" height="900"/>
    </clipPath>
    <linearGradient id="ab52ca30-721a-4eac-beae-da0e9e0c54ff" x1="-900.52" y1="-119.36" x2="-901.91" y2="712.12" gradientUnits="userSpaceOnUse">
      <stop offset="0.09" stop-color="#a0cfff"/>
      <stop offset="0.33" stop-color="#a8dbff"/>
      <stop offset="0.79" stop-color="#b5efff"/>
    </linearGradient>
  </defs>
  <g class="b3763b08-dc17-4c31-8789-f583031668c9">
    <g id="aa260863-da1d-4e9b-a8f2-b80ac8a99a71" data-name="Layer 1">
      <g class="e932bc8d-9829-4a8a-8896-ba9a71a60d60">
        <g>
          <path class="a4fe30ad-d807-4d12-accd-c6c072893a2a" d="M5.36,683.59s1343.39-1515.26-28.62-1072"/>
          <path class="a6b52535-fe2b-4d0a-b79b-3ff55608ff8e" d="M1054.48,106.84C727.66,47.39,220.75,10.47,280.31-60.37c106.58-126.77,394.84-411,1248.08-461.76C1857.48-541.72,1694.71,223.31,1054.48,106.84Z"/>
          <path class="fc265f67-b9f3-4b8e-96d5-01a117f640a8" d="M986.67,197.55C765.75,120.85,472.42-23,481.35-99.42s298.18-195.16,874.29-32.07C1577.84-68.59,1207.59,274.24,986.67,197.55Z"/>
          <g>
            <path class="a5317fd8-a837-4bfd-acc5-5a69998a14c0" d="M824.09,9.69S771,24.55,766.79.79s43.94-15.34,64.34-4.41c-65-60.77-30.46-24.34-49.81-47s-8.33-50.09,24.5-18.54c27.91,33.7,36.12,43.52,36.12,43.52S815.76-80.54,803.79-111s.91-67.22,25.93-17.24c-.71-21.34-.8-23.43-.8-23.43s1.53,31.8-.83-4.93,18-29.56,18.3,26.83c6.53-25.83-2.68,4.87,7.89-23.94s31.56-22.12,21.3,32.52-6.93,38.91-6.93,38.91l-7.8,35.15,28.62-51.29c20.33-31.27,33.67-20.76,13.3,28.19-13.88,27.83-25.93,50.06-25.93,50.06S891-31.79,913.75-52.42s29.12,14.2,2.53,34.09c-33.51,9.6-92.19,28-92.19,28"/>
            <g>
              <path class="e868b784-8d33-4f99-a85e-ed479be2ba59" d="M829.63,3s-55.19,1.32-56.54-.05,50.35-3,56.54.05"/>
              <path class="e868b784-8d33-4f99-a85e-ed479be2ba59" d="M795.36-11.49,812.3,1.31s-6.44-.25-16.94-12.8"/>
              <path class="e868b784-8d33-4f99-a85e-ed479be2ba59" d="M789.39,1.51s-11.58-6.09-13.58-9.06,11.43,4.73,13.58,9.06"/>
              <path class="e868b784-8d33-4f99-a85e-ed479be2ba59" d="M803.31,3.44s-13.84,8.7-17,9.43,8-7.29,17-9.43"/>
            </g>
          </g>
        </g>
      </g>
      <g>
        <path class="baa7715b-1fa1-423a-8a64-c00854ca3acf" d="M428.65,146.62s.74-8.55,10-14.4,17.14-9,25.22-2.25,6.37,22.05,4.66,23.85c-3.33,3.5-10.5,8.09-29.63,3.6C427.43,154.72,428.65,146.62,428.65,146.62Z"/>
        <path class="ab54e506-b123-4668-9650-eeef7ca6ee0a" d="M389.26,133.29a36.41,36.41,0,0,1,19.18-25.46c17-8.85,28.07-13,37.87,3.62s5.41,43.44-1.28,46.44-34.71,4.13-51.78-7.67C393.25,150.22,387.14,144.89,389.26,133.29Z"/>
      </g>
      <g>
        <path class="b57289b9-6a4c-4e0b-95b4-511b4c25dfc4" d="M1271.18,67.62s1-7.51,13.6-12.65,23.22-7.91,34.16-2,8.62,19.38,6.3,21c-4.51,3.07-14.21,7.1-40.13,3.16C1269.52,74.74,1271.18,67.62,1271.18,67.62Z"/>
        <path class="af4ce1ca-c9ce-4216-b42d-67c1dcbc414f" d="M1215.57,57.26S1219,40.78,1243.07,31s39.68-14.64,53.06,1.12,6.61,42.38-2.85,45.76-48.81,6.32-72.5-4.19C1220.78,73.66,1212.33,68.81,1215.57,57.26Z"/>
      </g>
      <path class="b6ea6c23-6204-460a-9914-c683283f7b99" d="M904.93,76.47S906.4,63.83,925,55.18s34.3-13.32,50.46-3.33,12.74,32.61,9.31,35.27c-6.65,5.17-21,12-59.28,5.33C902.48,88.46,904.93,76.47,904.93,76.47Z"/>
      <polygon class="af423b0e-afb2-4684-9807-5555321a43e0" points="550.87 750.29 -5.18 841.9 -5.18 797.12 238.06 764.69 39.98 730.13 550.87 750.29"/>
      <path class="a237c7a4-5ebc-4d5f-af98-5a60b4397208" d="M340,870.87c0,2.22-5.08,4-11.35,4s-11.34-1.79-11.34-4,5.08-4,11.34-4S340,868.66,340,870.87Z"/>
      <path class="bf724bcd-90cd-4fa2-845c-abadef92a13f" d="M475.29,581.56s16.15,61.55,47.65,56.93,37,131.77,37,131.77L511.2,812.92S446.28,719.72,475.29,581.56Z"/>
      <line class="ff35c1d8-1f40-4117-ae36-71ef44a1fece" x1="5.35" y1="644.3" x2="75.38" y2="691.42"/>
      <g class="b42588cb-8bdf-4339-bbbd-95485b5cb468">
        <g>
          <rect class="b165ed14-2fc6-4fbb-9a38-414e0ac7ce46" x="-22.22" y="-63.75" width="1635.56" height="768.82"/>
          <path class="bd6e2909-b915-4bf7-9c7a-b2e7bbed96be" d="M1485.16,472.19l.09,203.11L134.16,676.35l-.07-166.22,8.54.37.52,15.59h7.67l-.26-24.31,45.21,1.81v20.17l52.91.42,2.19-271.6,11.74-1.37,14.19,4.34V253h-2v-2.74h1.66v-7.12h.89V251h3.06v-6.41h1.14v6.65l2.56,1.37-.25,2.07h-.65v1.84l2.43.45v13.77l8.81-1.39v-2.53H295v2.07h1.91V245l10.35-.69v-2.76h1v-6.66h-.9v-2.51h3.07v10.08h.78v3.44h6.51V240.6h2.56V244h-.88l.13,3,13,2.54-.11,35.55,7.93,1.59v4.14l1.4,2.5-1.59,191.55,8.7-.92,5.36.22.52-22.26,5.73-.91V448.84l24.41-.48v-5l18.52-.26v-5h2.06V408.67l1.33-2.41V391h5.56v-11.7h2.29v1.14h2.81V361.87l.64.91v3.68l1.54.46v1.37h1.91l.13-2.3,1-.46v2.3l2.67.22.38-2.06,1.54-.23.38,2.06,3.07.23-.13-1.84,1.41.24v1.37h2.55v-2.75l.65-.46.13-3.67h1.15l.26,6.88,3.19.22.13-5.28.78.23.37,5.05,2.3,1.14.12-6.19h.52l.13,6.42,2.42.7.51-1.84v-2.53l1.28.23.12,4.82-.5,1.37L448.2,383l4.22.45.77,10.78.65.23.51,1.83,2.3-.22.11-19.5,1.16.23.39,20.18,11.37.91-1.12,94h1.54V494l.52.7-.12,2.74-.78.47-.24,20,1.53.68V521h-1l-.12,7.35,8.18-.23c-.39,0,.25,2.75.25,2.75l4.48.22-.64,2.74-.78.7h-1.14l.52,13.54,1,1.14v14.91h1.91l.82-176.62,12.78-3.92V373.05L512,369.13v-1.61h3.83l.52,1.16,34.87,2.5v11.7l14.06,1.83L565,364.05l4.84-2.75,2-37.4,42.81.88,2.82,39.46,7.93.22-.14-4.35,1.41.21,1.39-31.66,5.76-1.37-.29-62.63,17,.22L661.41,267l0-89.94,7.79-3.9h4.35v-3.66h.75v3.21l11.64-.69v-4.14h.76v3.67l6.9-.69v2.3H695V171h8.7l10.6,6.43,14.56-1.86,3.71,3.21-1.33,189.47,10.35,2.52.37-27.76,5.5.24V320.1l14.31-2.77-.4-31,1.79-1.84,7.29-1.38V252.63l1.4-1.37s6.51-1.85,6.13-1.85,18.9-26.15,18.9-26.15h3.83l19,25.66.91.46.26,1.38,6,1.82L826.76,284l9.2,2.07-.1,51.61,18.39.67.51-8.72h.89l.26,5.72h.9l-.13,3,33,1.34.13,8.26L900,346.13l.37-15.84,7.28-.46L910.47,317l.25-6h1.65l.65,4.82h2.8v-1.14H919v1.37l17.37-3.68v-1.84h-.89v-3.9H941v6l4.48.24V310.3l1.92-3.44,1.67.23v3.44l-1,.24.52,2.51,1,.23.39,4.82-.13,1.82.9-.21v4.35h.75v3.21h7.92l-.6,97.27h-5.23L953.45,456l3.06.47,0,37.85,2.69.21V471.79l1.53-.46.13-7.35,13.42,1.37v-2.29h13.53v2.05h5.88l.07-122,.89-1.16,1.67-.23.13-1.16,1.28-.44.37-.93,4-.23.13-1.37,2.82-.24V323.79l4.46-3.89,27.49,1.57v-1.6H1040v1.37l12.77-.24.39,18.82,11.51.22-.44,224.11,2.06-.24.07-152.77.9-.23.12-3.44,7.54.23v3h2.17v-1.84h7.4v1.61h1.29l-.29-79.61L1096,323l-.14-13.29,9.46-8,28.62.68v6.17l1.9-.21,2.42-1.62v-2h1l.64,1.14,6.64-.25v-2.28h-.64l-1.47-2.64,1.15-2.05,1.6-2.89h1.92v-7.1h1.39v7.57l16.1-.48v-2.06h1.41v3l2.17,1.62.13,2.5-1.67,4.6.27,10.31,1.28,1.39h3.19l-.13.91,1.16.22v15.14h6.63v-2.06l1.15-2.07,1.79,2.3.29,76.15,1.92.91v17.21l5.49.68-.12,18.12,2.43.68.25,9.42,1.41.91.13,35.09.9.23-.08,84.87.49-.23.4-2.28h4.21V575c0,.91.38.91.38.91l.13,2.3,8.06-.23-.4-12.61s-1.4-2.53-2.17-2.75l-.25-1.6h3.06v-1.62l2.94.23v.68l1,.93.13.69h2.55l.26-1.15a3.74,3.74,0,0,1,1.41-1.37c.9-.46,1.39,1.84,1.39,1.84h3l-.39-14,1.54-.46-.15-53.91,2.43-3.9h8.17l.2-135.12,2.69-.23V341.27l1.77.23.14,2.53,1.14-.46-.13-2.3,12.14.22,5.24-27.07.25-4.59.51-.91.63-7.35.77,7.35.77,1.36.39,4.14,4.61,28.2,28.86,1.14,3.85.22,3.7,5.28.27,28.2,1.15.47.52,2.28,1.15.25-.09,99.77h8.94l5.75,6.87-.12,14.45,2.68.68-.12,14,4.74.22V558.2h2.29v-5.73l13.54-1.61V541l1.16-2.07H1346l.25-21.32,4.85-5.76h2.43v-2h-1.29V492.12l6.39-6.19,28.51.66v18.57l-1.42,2.3.14,3.67h7.79l.13,9-.75.92.49,1.59,9.09,13.08,5.24.22v20.42H1414l0,50.46h10.49l-.06-135.11h10.34v-2.3h1.42v2.52H1438V469.8h1.16v2.07h3.19V468h.76v3.67l12,.9v-3l1-.68.39.68.24,1.84h1.8v-4.6h2.81v4.14h1.92v-2.53h3.06v2.3l.52-.23,1.79-2.77v3.91Z"/>
          <path class="a6e165ee-5722-40af-949a-693601a1462b" d="M1628.31,669.17c-3.34-13.79-15.37-24-29.7-24a29.91,29.91,0,0,0-9.06,1.41,19.7,19.7,0,0,0,2.14-9c0-10.64-8.32-19.27-18.58-19.27a17.84,17.84,0,0,0-7.43,1.62c-.4-17.18-13.94-31-30.59-31a30.51,30.51,0,0,0-27.52,17.82,28.49,28.49,0,0,0-22.43-11c-16,0-28.91,13.43-28.91,30a31.52,31.52,0,0,0,.63,6.27,18,18,0,0,0-9.76-2.87,18.34,18.34,0,0,0-15.11,8.07,38.62,38.62,0,0,0,1.1-9.13c0-20.48-16-37.08-35.74-37.08a34.46,34.46,0,0,0-17.44,4.73,18.8,18.8,0,0,0-18.29-15.94,18.22,18.22,0,0,0-13.24,5.76,48.91,48.91,0,0,0-76.75,3.83,18.12,18.12,0,0,0-12.32-4.86c-10.26,0-18.57,8.63-18.57,19.27a20.1,20.1,0,0,0,.28,3.32,23.71,23.71,0,0,0-18.25-8.68,24.26,24.26,0,0,0-23.22,18.32,25.42,25.42,0,0,0-23.94-17.69,24.46,24.46,0,0,0-11.54,2.88,15.26,15.26,0,0,0,2.75-8.76,14.67,14.67,0,0,0-14.39-14.93,14,14,0,0,0-9.52,3.74,23.88,23.88,0,0,0-20.12-11.24,23.48,23.48,0,0,0-15.85,6.18,63.39,63.39,0,0,0-42.38-16.31c-26,0-48.45,15.86-58.85,38.77a23.51,23.51,0,0,0-16.87-7.17c-13.31,0-24.09,11.19-24.09,25a25.59,25.59,0,0,0,2.38,10.84,29.46,29.46,0,0,0-15.88-4.63c-13.76,0-25.37,9.45-29.15,22.45a20.49,20.49,0,0,0-17.1-9.36,20.21,20.21,0,0,0-14,5.7c-5.39-15.9-20-27.31-37.15-27.31-15.28,0-28.52,9-35,22.23a24.63,24.63,0,0,0-15.43-5.44,25.34,25.34,0,0,0-23.13,15.51,29.7,29.7,0,0,0-19.91-.65,19.7,19.7,0,0,0,2.14-9c0-10.64-8.32-19.27-18.58-19.27a17.84,17.84,0,0,0-7.43,1.62c-.4-17.18-13.94-31-30.59-31a30.51,30.51,0,0,0-27.52,17.82,28.49,28.49,0,0,0-22.42-11c-16,0-28.92,13.43-28.92,30a31.52,31.52,0,0,0,.63,6.27,18,18,0,0,0-9.76-2.87,18.34,18.34,0,0,0-15.11,8.07,38.62,38.62,0,0,0,1.1-9.13c0-20.48-16-37.08-35.74-37.08a34.46,34.46,0,0,0-17.44,4.73,18.8,18.8,0,0,0-18.29-15.94,18.22,18.22,0,0,0-13.24,5.76,48.91,48.91,0,0,0-76.75,3.83,18.12,18.12,0,0,0-12.32-4.86c-10.26,0-18.57,8.63-18.57,19.27a20.1,20.1,0,0,0,.28,3.32,23.71,23.71,0,0,0-18.25-8.68,24.27,24.27,0,0,0-23.22,18.32,25.42,25.42,0,0,0-23.94-17.69A24.48,24.48,0,0,0,334.81,602a15.26,15.26,0,0,0,2.75-8.76,14.67,14.67,0,0,0-14.39-14.93,14,14,0,0,0-9.52,3.74,23.88,23.88,0,0,0-20.12-11.24A23.48,23.48,0,0,0,277.68,577a63.39,63.39,0,0,0-42.38-16.31c-26,0-48.45,15.86-58.85,38.77a23.51,23.51,0,0,0-16.87-7.17c-13.3,0-24.09,11.19-24.09,25a25.59,25.59,0,0,0,2.38,10.84A29.46,29.46,0,0,0,122,623.44c-13.75,0-25.37,9.45-29.15,22.45a20.49,20.49,0,0,0-17.1-9.36,20.21,20.21,0,0,0-14,5.7c-5.39-15.9-20-27.31-37.15-27.31A39.06,39.06,0,0,0-8.89,634.21V757.46H1649.63V651.8A25.25,25.25,0,0,0,1628.31,669.17Z"/>
          <rect class="b921f4e6-7e01-419b-9ec2-61c25624cddc" x="-5.19" y="688.06" width="1608.15" height="231.94"/>
          <path class="af423b0e-afb2-4684-9807-5555321a43e0" d="M1605.93,763.42v29.23L1034.12,782S1403.45,773.6,1605.93,763.42Z"/>
          <ellipse class="b94622f0-63b3-427f-99dc-538776012a11" cx="760.44" cy="825.13" rx="510.25" ry="15.06"/>
          <g>
            <g>
              <path class="a3a6d51a-26d7-4178-ad76-0d5dfeb42e72" d="M583.82,585.74l-.14-26c-8-3.9-14-16.32-14-30.35l0-15-.06-20.1,7,10.32L584.8,488l1.57,4.25,2.68,7.21,5.81-10.18,8.9,6.12,7.59-11.89-.61,12.38-.13,37.58c0,14.21-6.28,25.57-14.5,27.67l-.06,25.85.6.07c1.38.13,2.5,2.08,2.49,4.32l0,5.44c0,2.25-1.14,4-2.51,3.84l-13.36-1.31c-1.38-.13-2.5-2.08-2.49-4.33l0-5.44c0-2.24,1.14-4,2.51-3.83Z"/>
              <path class="a3a6d51a-26d7-4178-ad76-0d5dfeb42e72" d="M569.71,529.4l0-15-.06-20.1,7,10.32L584.8,488l1.57,4.25c-2.28,11.61-5.2,29.34-3.89,38.92,2,15,9.07,22.35,9.07,22.35l-.17,33.17-7.56-.9-.14-26C575.65,555.85,569.66,543.43,569.71,529.4Z"/>
              <path class="a3a6d51a-26d7-4178-ad76-0d5dfeb42e72" d="M605.52,505.46s.86,32.66-2.24,39.28-7.45,9.18-9,5.48,5.9-11.44,6.38-18.26-.23-28.47.92-29.19S605.44,500.91,605.52,505.46Z"/>
              <path class="a3a6d51a-26d7-4178-ad76-0d5dfeb42e72" d="M585.43,596.06s9.74,1.64,10.77,1.3,1.08-3.25.36-3.85-9.66-1.15-10.81-.85S584.5,595.9,585.43,596.06Z"/>
              <polygon class="a3a6d51a-26d7-4178-ad76-0d5dfeb42e72" points="611.35 483.46 603.76 495.35 594.86 489.23 589.05 499.41 584.8 487.95 581.77 494.16 588.17 508.38 595.53 493.59 604.59 499.88 611 490.58 611.35 483.46"/>
            </g>
            <polygon class="a7ce0338-fb35-483f-b410-9a1537506827" points="441.99 525.76 487.81 525.76 529.79 477.08 575.77 641.98 475.29 705.28 441.99 525.76"/>
            <path class="b1c9689f-13a2-4345-a7ad-d485c898cb55" d="M847.6,799.93l-123.53,2.3-35.34.65-1.25,0-19.58.37-8,.15h-1.46l-5.56.11-12.42.23-35.9.67-41.26.77-28,.52-3.51.06-22.46.42-29.43,18.91H333.71L381.15,773l6.57-7.22,3.64-4,18.45-20.28,4.88-5.36.81-.91,4.84-5.31.1-.11,3.23-3.55,8.78-9.66,6.28-6.9,4.67-5.12,7.3-8,.93-1,8.8-9.69,7.67-8.43,1.67-1.83,36.82-40.47,51.47-56.58h0l28.82-31.69,47.36,24.69,29.86,15.56,15.54,8.09,1.43.75,1.14.6,3.15,1.64,8.06,4.2.2.1,16.74,8.72,7.11,3.71,5.32,2.77,15.84,8.26c6.06,7.69,12.51,16.52,19.11,26.05,11.6,16.75,23.71,35.63,35.14,54.16.18.31.36.61.56.91.35.58.7,1.15,1.06,1.72l1,1.69c.83,1.34,1.65,2.69,2.47,4l0,0C825.37,759.38,847.6,799.93,847.6,799.93Z"/>
            <polygon class="b602138a-7be6-41f7-b448-60e6c54347fb" points="428.75 680.99 472.35 806.22 485.06 805.28 445.8 680.99 428.75 680.99"/>
            <polygon class="b602138a-7be6-41f7-b448-60e6c54347fb" points="381.35 685.78 449.43 819.04 462.7 815.79 388.07 663.93 381.35 685.78"/>
            <polygon class="b602138a-7be6-41f7-b448-60e6c54347fb" points="435.48 815.91 425.22 825.13 424.3 825.96 423.62 825.13 411.15 809.83 388.72 782.29 381.15 772.98 367.32 756.01 352.58 737.91 361.17 734.77 367.49 732.44 381.79 750 391.36 761.75 410.62 785.39 415.31 791.16 435.48 815.91"/>
            <g>
              <polygon class="a3a6d51a-26d7-4178-ad76-0d5dfeb42e72" points="982.44 615.95 994.33 537.71 986.5 528.53 976.37 609.54 982.44 615.95"/>
              <polygon class="a3a6d51a-26d7-4178-ad76-0d5dfeb42e72" points="963.57 505.23 962.75 603.1 969.63 608.74 971.91 498.8 963.57 505.23"/>
              <polygon class="a3a6d51a-26d7-4178-ad76-0d5dfeb42e72" points="945.96 519.21 937.79 513.7 949.54 592.75 957.1 594.16 945.96 519.21"/>
            </g>
            <path class="a3a6d51a-26d7-4178-ad76-0d5dfeb42e72" d="M1197.09,726.58c-9.88,10-13.2,27.42-14.27,39.71-7.34-30.95-21.69-56.68-21.69-56.68,6.24,15.31,11,45.25,13.25,60.79a90.27,90.27,0,0,0-25.78-34.11c12.55,18,21.23,44,21.23,44h22.33C1189.64,760.46,1197.09,726.58,1197.09,726.58Z"/>
            <polygon class="a3a6d51a-26d7-4178-ad76-0d5dfeb42e72" points="1250.42 825.13 1113.65 825.13 1114.72 813.87 1119.77 761 1115.64 737.12 1141.35 753.18 1149.75 758.42 1172.84 772.85 1176.24 779.74 1181.69 790.8 1184.57 796.65 1185.87 796.9 1203.78 800.37 1204.11 800.44 1211.49 804.37 1250.42 825.13"/>
            <polygon class="a25ae232-cdb2-442a-879a-0bd84741824b" points="1172.84 681.39 1180.22 690.11 1122.34 819.91 1122.91 795.21 1172.84 681.39"/>
            <polygon class="fe3436bc-943d-451d-936f-18ee7f3f6ee5" points="1057.86 603.63 1060.29 634.13 1051.37 630.77 1048.84 648.55 1032.59 650.44 1022.49 629.8 1015.18 665.95 993.42 643.61 1008.04 611.09 1027.84 567.05 1057.86 603.63"/>
            <path class="fe3436bc-943d-451d-936f-18ee7f3f6ee5" d="M1130.58,692.22l-.5,1.11L1124,706.84l-4.32,9.59-4,9-8,17.68-1.38,3.07,0,.07s0,0,0,0l-7.85,17.43-27.61,61.42h-8.77l-.79-7.69-2.56-25,1.19-1.24,15.74-16.52,1.42-27.48,4.6-3.91,1.26-1.08,11.12-9.49.75-.64,0-1.12,1.55-34.48,2.37-2.84,6.25-7.51v-1.28l-.09-18.82,0-5.07,6.14,7.49,7.75,9.43,1.21,1.48Z"/>
            <path class="b31f8481-7c48-4e2b-911f-fcc67c9c9dc7" d="M512.69,789.17s13-66.63,55.71-92.86,65.21-5.51,99.18-23.44S725.43,642,725.43,642l-8.68,153.64-64.61,16.75Z"/>
            <path class="e799d645-f80f-42a9-8092-bb2724166be9" d="M1119.66,805.13H847.87l-2-101.84-.23-11.84-.49-26-.82-42.47-.11-5.84,2.82-6.85,15-36.33,1.08-2.63L884.83,575l17.86-30.69,21.7-.55,16.9,13.89,8.37,6.89,7.2,5.91,7,5.78,5.54,4.55,1.84,1.52,6.44,5.29L992.87,600l.77.63,4.88-1.75h0l.49-.18h0l32.24-11.54,15.72-5.62,2.45-.89h0l14.31-5.11,3.36,36.53v0l2.74,29.82h0l2,22.13,2.59,28.15s0,0,0,0l.57,6.17,6.42,7.07h0l6.55,7.21,3,3.34,5,5.44,4.2,4.62h0l.08.1.42.46,13,14.34,3.14,34.2v0l1.78,19.4Z"/>
            <polygon class="f1801119-84f5-45e1-af8f-416a9669fc65" points="1068.1 825.13 898.74 825.13 897.09 776.67 896.53 760.14 896.53 760.12 896.4 756.27 896.39 755.98 897.2 755.44 897.21 755.44 924.12 737.38 926.01 736.12 956.9 715.4 965 709.98 968.2 707.82 993.41 719.87 1019.22 770.15 1061.26 817.44 1068.1 825.13"/>
            <polygon class="afc718aa-1ca4-4d25-a851-a455cffd6a84" points="945.41 825.13 647.34 825.13 651.35 817.29 652.55 814.94 654.13 811.85 657.6 805.07 658.42 803.44 659.6 801.16 667.5 785.68 677.98 765.21 678.82 763.54 687.63 746.29 688.45 744.7 689.81 742.05 690.18 741.31 690.6 740.51 692.44 736.9 692.92 735.96 693.05 735.7 694.75 732.37 694.82 732.24 695.77 730.38 699.26 723.54 700.22 721.68 701.03 720.09 701.7 718.77 702.05 715.48 708.8 650.95 711.44 625.74 715.77 617.97 717.49 614.87 721.77 607.18 724.77 601.77 726.99 597.79 732.43 588.01 743.75 567.65 743.84 567.5 744 567.75 748.86 575.49 751.09 579.05 754.27 584.1 757.72 589.61 757.87 589.83 775.29 617.58 782.45 628.99 783.81 631.15 787.34 631.09 819.1 630.47 823.87 630.37 853.01 629.81 853.09 630.25 855.22 641.98 865.47 698.54 865.76 700.13 866.45 703.91 867.3 708.63 868.72 716.44 868.95 717.69 870.43 719.77 896.4 756.27 896.97 757.07 918.56 787.4 945.41 825.13"/>
            <polygon class="a9006e7d-3323-4e1a-9130-20d679870496" points="896.39 825.13 712.74 825.13 724.07 802.23 725.86 798.62 730.55 697.17 757.75 651.95 759.46 649.11 792.76 702.13 794.19 704.4 794.37 704.7 796.18 707.57 799.43 712.77 799.5 712.77 804.66 712.64 804.77 712.64 806.19 712.59 807.91 712.55 811.86 712.45 812.49 712.43 816.22 712.34 817.55 712.31 817.63 712.3 819.34 712.26 823.41 712.16 825.38 712.11 827.77 712.05 829.41 712.01 830.7 711.98 831.12 711.97 834.96 711.87 838.32 711.78 839.04 711.76 844.52 711.63 851.69 711.45 851.98 711.43 852.88 711.41 854.34 719.39 854.65 721.11 862.43 763.84 896.39 825.13"/>
            <g>
              <polygon class="aa5a5222-15af-41fd-a4dc-491cd4c44a81" points="850.74 590.49 839.45 536.41 773.96 566.94 785.24 621.02 850.74 590.49"/>
              <polygon class="b98079ea-967d-461a-a644-a4598086cab1" points="855.94 615.42 850.74 590.49 785.24 621.02 790.45 645.96 855.94 615.42"/>
              <polygon class="bda0e53a-d63a-49d8-ba4e-e2b0e15bb1c1" points="779.46 637.56 768.17 583.48 773.96 566.94 785.24 621.02 779.46 637.56"/>
              <polygon class="b98079ea-967d-461a-a644-a4598086cab1" points="785.24 621.02 779.46 637.56 790.45 645.96 785.24 621.02"/>
              <polygon class="aa5a5222-15af-41fd-a4dc-491cd4c44a81" points="757.41 588.13 768.76 642.54 779.46 637.56 768.11 583.14 757.41 588.13"/>
              <ellipse class="a8512d52-da43-4d61-b8af-6bde34b6fbc0" cx="812.35" cy="578.71" rx="12.01" ry="17.95"/>
            </g>
            <g>
              <path class="a3a6d51a-26d7-4178-ad76-0d5dfeb42e72" d="M1160.06,790.8l16.2-9.47c-.43-12.6,5.19-25.4,14-30.34l9.36-5.27,12.54-7.26-4,13.4,13.34,5.41-2.09,3.71-3.55,6.31,8.43,4.48-.64,14.62,10.14,6.35-8,3.57-23.53,13.23c-8.89,5-18.22.35-22.47-10.37l-16.17,9.13.17.87c.41,2-.41,4.23-1.81,5l-3.41,1.91c-1.41.8-2.89-.17-3.3-2.14l-3.94-19.12c-.41-2,.4-4.23,1.81-5l3.41-1.91c1.4-.8,2.89.17,3.29,2.14Z"/>
              <path class="a3a6d51a-26d7-4178-ad76-0d5dfeb42e72" d="M1190.24,751l9.36-5.27,12.54-7.26-4,13.4,13.34,5.41-2.09,3.71c-8.07.95-20.19,3.21-25.72,8.45-8.67,8.23-10.72,20.64-10.72,20.64l-20.79,11.61-2.14-10.88,16.2-9.47C1175.83,768.73,1181.45,755.93,1190.24,751Z"/>
              <path class="a3a6d51a-26d7-4178-ad76-0d5dfeb42e72" d="M1218,792.44s-20.1,12.87-25.35,10.9-8.4-7.13-6.62-10.55,9.25,4.15,13.69,2.38,17.7-10.48,18.57-9.13S1220.79,790.71,1218,792.44Z"/>
              <path class="a3a6d51a-26d7-4178-ad76-0d5dfeb42e72" d="M1154.19,796.72s2.45,14.2,3,15.51,2.41.35,2.53-.87-2.72-13.89-3.32-15.39S1154,795.38,1154.19,796.72Z"/>
              <polygon class="a3a6d51a-26d7-4178-ad76-0d5dfeb42e72" points="1233.81 792.74 1223.67 786.38 1224.31 771.77 1215.88 767.29 1221.52 757.27 1216.56 755.25 1209.96 769.26 1221.83 774.26 1221.13 789.16 1229.23 794.79 1233.81 792.74"/>
            </g>
            <polygon class="a9006e7d-3323-4e1a-9130-20d679870496" points="855.22 641.98 835.28 645.96 810.47 622.22 817.23 583.5 836.71 589.62 853.77 574 869.14 591.29 855.22 641.98"/>
            <path class="eb568f2e-6711-43e0-90d9-1a6d9baf0011" d="M638.09,567.5c8.58-6.12,30.93-6,40.3,0,17.55,11.21,29.49,40.26,39.1,47.37,0,0-11.54,10.42-32.4,1.82-13.12-5.41-22.34-2.71-26.59,7.57-7.36,17.76-13.33,24.12-18.34,25.91-7,2.48-18.07-7.2-15.13-21.72,3.8-18.8,16.36-23.91,16.64-39.48S627.33,575.18,638.09,567.5Z"/>
            <polygon class="f9cb0b8f-625f-4e7c-87ac-12e0098e35c3" points="423.62 825.13 425.22 825.13 424.3 825.96 423.62 825.13"/>
            <polygon class="fbb799a0-b6c8-4b1c-a129-9ff26b0c5c22" points="701.7 825.13 428.75 825.13 443.1 817.22 447.31 814.9 452.02 812.31 452.1 812.26 459.08 808.42 470.85 801.93 475.29 799.49 482.06 795.75 515.72 777.2 518.89 775.46 525.13 772.02 545.13 761 566.86 765.38 583.9 768.82 631.69 778.46 642.21 780.59 654.6 783.09 655.8 783.32 661.82 784.54 667.5 785.68 677.78 787.76 678.83 789.4 687.48 802.9 687.64 803.16 701.7 825.13"/>
            <path class="f03155a0-1304-4907-b655-7db232b87ea6" d="M970.23,731.46s-8.15,5.41-6,7,3.61,5.94,8.68,5.94h10.85s4.35-.11-2.89-10.33-10.66-9.68-10.66-9.68Z"/>
            <path class="e2ecd720-8f89-4e85-9c7a-885bc5247543" d="M887.06,648.82s-5.12,5.41-3.76,7,2.28,5.95,5.46,5.95h6.82s2.73-.11-1.82-10.33-6.7-9.68-6.7-9.68Z"/>
            <polygon class="a9006e7d-3323-4e1a-9130-20d679870496" points="447.92 825.13 364.34 825.13 388.72 782.29 390.39 779.34 402.46 782.95 410.62 785.39 416.23 787.07 426.57 790.16 443.1 817.22 447.92 825.13"/>
            <path class="efc627aa-58c9-4792-8325-f33ad6db7195" d="M716,771.41c-9.88,10-13.19,27.43-14.27,39.72-7.34-31-21.69-56.69-21.69-56.69,6.24,15.31,11,45.26,13.25,60.8a90.39,90.39,0,0,0-25.77-34.12c12.54,18,21.22,44,21.22,44H711C708.53,805.3,716,771.41,716,771.41Z"/>
            <path class="ea92a99f-f640-402e-b468-f93458307eaa" d="M553.81,693.2l-2.28-9.27-8.07,4.94-7.32-13.63,4.11-17.3L523,666.08l.06-28.31a31,31,0,0,1,22.59-9.08c6.27.22,13.6,2.5,21.68,8.64l-1.79,31.21-.58,10.17Z"/>
            <polygon class="f03155a0-1304-4907-b655-7db232b87ea6" points="522.96 666.07 540.25 657.94 536.14 675.23 543.46 688.87 551.76 684.87 553.8 693.2 564.92 678.71 565.12 675.27 555.01 687.56 552.73 680.88 544.68 685.18 537.9 674.53 542.95 656.14 524.68 661.83 522.96 666.07"/>
            <path class="b7ca4f03-549b-42b8-ac9a-a6465c4b7060" d="M565.5,668.54c-14-9.48-18.46-27.56-19.89-39.85,6.27.22,13.6,2.5,21.68,8.64Z"/>
            <polygon class="f03155a0-1304-4907-b655-7db232b87ea6" points="940.91 754.01 923.07 758.83 928.6 742.45 922.49 727.54 913.92 729.95 912.59 721.31 900.35 733.59 899.86 736.97 910.92 726.67 912.62 733.73 920.97 730.97 926.79 742.81 920.24 760.11 938.84 757.9 940.91 754.01"/>
            <polygon class="e62beb37-4e7a-4e86-8be0-c5c8b5d5a213" points="545.13 761 540.01 784.24 538 793.38 535.28 805.74 532.2 819.75 531.01 825.13 447.92 825.13 443.1 817.22 447.31 814.9 452.02 812.31 452.1 812.26 459.08 808.42 470.85 801.93 475.29 799.49 482.06 795.75 515.72 777.2 518.89 775.46 525.13 772.02 545.13 761"/>
            <polygon class="e174d56e-c70b-4aca-8be7-dc5fe9deb024" points="701.7 825.13 634.2 825.13 647.34 813.86 649.58 811.95 652.13 809.76 657.6 805.07 659.51 803.43 659.85 803.13 677.78 787.76 678.83 789.4 687.48 802.9 687.64 803.16 701.7 825.13"/>
            <polygon class="fbb799a0-b6c8-4b1c-a129-9ff26b0c5c22" points="1045.58 825.13 927.8 825.13 933.99 820.48 935.81 819.11 937.84 817.59 937.88 817.56 940.89 815.3 945.97 811.48 947.88 810.04 950.8 807.85 965.33 796.93 966.7 795.91 969.39 793.89 978.02 787.4 987.4 789.98 994.75 792 1015.37 797.67 1019.91 798.93 1025.26 800.4 1025.77 800.54 1028.37 801.25 1030.83 801.92 1035.26 803.15 1035.71 804.11 1039.44 812.05 1039.52 812.21 1045.58 825.13"/>
            <polygon class="e62beb37-4e7a-4e86-8be0-c5c8b5d5a213" points="978.02 787.4 975.81 801.08 974.94 806.45 973.77 813.72 972.44 821.96 971.93 825.13 936.07 825.13 933.99 820.48 935.81 819.11 937.84 817.59 937.88 817.56 940.89 815.3 945.97 811.48 947.88 810.04 950.8 807.85 965.33 796.93 966.7 795.91 969.39 793.89 978.02 787.4"/>
            <polygon class="e174d56e-c70b-4aca-8be7-dc5fe9deb024" points="1045.58 825.13 1016.45 825.13 1022.13 818.5 1023.09 817.37 1024.19 816.09 1026.55 813.33 1027.38 812.37 1027.52 812.19 1035.26 803.15 1035.71 804.11 1039.44 812.05 1039.52 812.21 1045.58 825.13"/>
            <polygon class="e174d56e-c70b-4aca-8be7-dc5fe9deb024" points="428.75 680.99 470.85 801.93 475.29 799.48 435.48 680.99 428.75 680.99"/>
            <polygon class="e174d56e-c70b-4aca-8be7-dc5fe9deb024" points="384.69 674.9 452.02 812.31 458.65 808.19 388.07 663.93 384.69 674.9"/>
            <polygon class="e174d56e-c70b-4aca-8be7-dc5fe9deb024" points="361.17 734.76 402.45 782.95 410.62 785.39 367.49 732.44 361.17 734.76"/>
            <polygon class="fe742035-c8ab-4d44-9ba1-50bc8fa90ede" points="487.81 525.76 506.59 635.09 558.07 578.5 529.79 477.08 487.81 525.76"/>
            <polygon class="f823297d-d4c4-4324-8f95-195814d66e61" points="1115.64 725.45 1107.69 743.13 1098.75 693.61 1105.01 686.1 1104.91 666 1115.64 725.45"/>
            <polygon class="f823297d-d4c4-4324-8f95-195814d66e61" points="1124.01 706.84 1119.69 716.43 1111.03 668.42 1118.78 677.85 1124.01 706.84"/>
            <polygon class="a22dbe6c-4078-4b6f-b404-0286d1428223" points="441.99 525.76 485.06 510.55 529.79 477.08 485.89 528.39 441.99 525.76"/>
            <path class="e6e95756-ab42-41b1-93a7-bec0625a43d9" d="M639.64,761s12.82-11.49,17.41-12.71,6.63-8,7.11-12.17,2.66-11.42,4.47-11.68,6-2.12,6.63-.65-5.82,5.28-7.31,8.33a67.43,67.43,0,0,0-4.27,11.09c-.72,3-4.22,8.91-7.24,9.63s-9.4,4.39-12.18,7.07S637,764.64,639.64,761Z"/>
            <path class="e6e95756-ab42-41b1-93a7-bec0625a43d9" d="M565.22,735.17s-2.28-4.68-5.28-5-5.77-1.08-5.65,0,5.35,3.24,7.08,5S565.54,737.52,565.22,735.17Z"/>
            <polygon class="e3b4dc0c-49a2-430e-b691-e1ccd1897bde" points="1049.07 594.92 1007.37 612.58 1004.52 618.92 1055.44 600.68 1049.89 593.92 1049.07 594.92"/>
            <ellipse class="b31f8481-7c48-4e2b-911f-fcc67c9c9dc7" cx="580.8" cy="603.7" rx="2.98" ry="4.46"/>
            <ellipse class="b31f8481-7c48-4e2b-911f-fcc67c9c9dc7" cx="608.29" cy="597.21" rx="2.98" ry="4.46"/>
            <path class="b31f8481-7c48-4e2b-911f-fcc67c9c9dc7" d="M600.06,625.07c0,2.46-1.33,4.46-3,4.46s-3-2-3-4.46,1.34-4.46,3-4.46S600.06,622.6,600.06,625.07Z"/>
            <ellipse class="b31f8481-7c48-4e2b-911f-fcc67c9c9dc7" cx="612.63" cy="652.65" rx="2.98" ry="4.46"/>
            <ellipse class="b1c9689f-13a2-4345-a7ad-d485c898cb55" cx="873.77" cy="681.59" rx="2.98" ry="4.46"/>
            <ellipse class="b1c9689f-13a2-4345-a7ad-d485c898cb55" cx="907.42" cy="628.69" rx="2.98" ry="4.46"/>
            <ellipse class="b1c9689f-13a2-4345-a7ad-d485c898cb55" cx="894.56" cy="704.3" rx="2.98" ry="4.46"/>
            <path class="efc627aa-58c9-4792-8325-f33ad6db7195" d="M1067,771.41c-9.88,10-13.19,27.43-14.27,39.72-7.34-31-21.69-56.69-21.69-56.69,6.24,15.31,11,45.26,13.25,60.8a90.39,90.39,0,0,0-25.77-34.12c12.54,18,21.22,44,21.22,44h22.33C1059.53,805.3,1067,771.41,1067,771.41Z"/>
            <path class="efc627aa-58c9-4792-8325-f33ad6db7195" d="M424.42,771.41c9.88,10,13.19,27.43,14.27,39.72,7.34-31,21.69-56.69,21.69-56.69-6.24,15.31-11.05,45.26-13.25,60.8a90.39,90.39,0,0,1,25.77-34.12c-12.54,18-21.23,44-21.23,44H429.35C431.86,805.3,424.42,771.41,424.42,771.41Z"/>
            <path class="a3a6d51a-26d7-4178-ad76-0d5dfeb42e72" d="M315.34,771.41c-9.88,10-13.19,27.43-14.26,39.72-7.34-31-21.7-56.69-21.7-56.69,6.24,15.31,11.05,45.26,13.25,60.8a90.28,90.28,0,0,0-25.77-34.12c12.54,18,21.23,44,21.23,44h22.32C307.9,805.3,315.34,771.41,315.34,771.41Z"/>
            <path class="efc627aa-58c9-4792-8325-f33ad6db7195" d="M813.45,825.13s1-24.69,16.63-37.55c0,0-8.73,10.46-9.49,37.55Z"/>
            <path class="efc627aa-58c9-4792-8325-f33ad6db7195" d="M807.6,825.13s-3.51-27.76-17.15-42.18c0,0,18.4,7.92,24.57,42.18Z"/>
          </g>
          <g>
            <polygon class="ab2f44cf-711b-49d2-9ea8-515f0b6f2dde" points="944.89 736.7 945.8 736.3 945.8 734.83 947.02 732.36 951.72 726.16 952.18 725.55 952.26 725.44 965.22 708.35 960.25 733.15 958.42 742.24 947.82 753.81 944.44 757.5 947.86 748.45 950.88 740.44 947.9 743.59 943.79 747.91 943.55 748.17 940.12 751.79 939.04 752.92 935.26 756.9 934.7 757.5 934.89 757.1 939.04 748.64 940.12 746.44 943.55 739.44 943.77 738.98 944.89 736.7"/>
            <polygon class="ab2f44cf-711b-49d2-9ea8-515f0b6f2dde" points="670.56 838.21 676.86 815.65 677.74 812.5 677.98 811.61 693.48 796.85 696.23 794.24 697.23 793.28 697.59 792.94 697.76 792.78 697.68 792.99 697.62 793.18 697.29 794.13 695.45 799.4 695.12 800.33 693.56 804.81 691.97 809.36 691.76 809.95 691.17 811.65 686.66 824.57 684.38 826.62 682.29 828.49 671.67 838.02 670.26 839.28 670.56 838.21"/>
            <polygon class="ab2f44cf-711b-49d2-9ea8-515f0b6f2dde" points="988.72 749.23 981.23 770.68 971.25 779.63 967.86 782.68 967.71 782.82 967.49 783.01 967.36 783.13 966 784.34 960.73 789.07 962.62 782.33 964.23 776.54 970.38 754.49 980.7 744.66 995.1 730.94 989.44 747.17 988.72 749.23"/>
            <polygon class="ab2f44cf-711b-49d2-9ea8-515f0b6f2dde" points="679.88 698.5 680.33 697.32 678.84 698.89 675.44 702.48 672.89 705.17 672.78 705.28 668.1 710.21 664.15 714.37 665.76 711.08 669.98 702.49 670.18 702.08 675.03 692.17 676.38 689.42 676.47 689.24 676.92 688.65 677.75 687.55 679.42 685.34 691.89 668.9 693.77 666.42 694.68 665.23 694.12 667.97 694.1 668.11 691.89 679.09 690.14 687.81 689.41 691.47 687.87 699.12 685.94 701.23 677.24 710.73 673.9 714.38 675.48 710.17 675.84 709.23 678.86 701.21 679.88 698.5"/>
            <polygon class="ab2f44cf-711b-49d2-9ea8-515f0b6f2dde" points="805.42 610.49 799.68 616.75 801.17 612.82 801.41 612.18 801.58 611.73 802.87 608.31 806.12 599.69 802.87 603.12 801.41 604.66 792.02 614.55 790.86 615.77 790.21 616.46 789.94 616.74 790.06 616.5 790.49 615.63 792.02 612.49 801.41 593.35 802.26 591.61 802.87 590.8 803.49 589.98 806.12 586.52 807.68 584.46 809.65 581.87 818.25 570.53 819.53 568.83 820.47 567.6 819.53 572.24 818.25 578.66 817.54 582.15 816.17 589.01 814.15 599.05 813.66 601.49 810.27 605.19 810.03 605.45 809.18 606.38 809 606.58 808.48 607.15 807.31 608.42 807.22 608.52 806.36 609.46 805.42 610.49"/>
            <path class="ab2f44cf-711b-49d2-9ea8-515f0b6f2dde" d="M686.53,743.15l.29-.9,1.66-5.22.08-.23.68-2.13.23-.73.22-.69,3.61-3.43,5.45-5.17,19-18.08-2.4,9.59-.82,3.29-1.46,5.82-.23.92-.41,1.65-1,3.84-.79,3.15L708,745.78,704.7,748l-1.88,1.29-3.32,2.27L691.66,757l-12.23,8.4,6.17-19.33.65-2Zm.32,12.56,13.22-8.78,4-16.4L693,740Z"/>
            <path class="ab2f44cf-711b-49d2-9ea8-515f0b6f2dde" d="M952.7,688.15l-2.3,1.57-1.21.83-6.3,4.33,1.69-5.31.07-.21,1.56-4.89,1.66-5.2.24-.75.32-1,4.72-14.77,8.23-7.81,10.83-10.27,8.31-7.9.74-.7-.6,2.39-3.19,12.75-1.32,5.27-2.93,11.69-1.78,7.11-9,6.21Zm-2.4-2.93,13.22-8.78,4-16.41-11,9.46Z"/>
            <path class="ab2f44cf-711b-49d2-9ea8-515f0b6f2dde" d="M918.67,485.14,889.74,505l-3.49,2.39-6.17,4.24,1.52-4.77.86-2.7,11.48-35.95,38-36.05ZM890.1,498.56,908,486.7l5.43-22.17-14.92,12.78Z"/>
            <path class="ab2f44cf-711b-49d2-9ea8-515f0b6f2dde" d="M571.94,592.25l-.09.39-28.56,19.59L547.2,600l6.36-19.88,28.1-26.68Zm-21.23,10.32,13.22-8.78,4-16.4-11,9.46Z"/>
            <path class="ab2f44cf-711b-49d2-9ea8-515f0b6f2dde" d="M746.08,669.85l2.89-9,.51-.48,2.38-2.27.22-.2,5.28-5,2.51-2.38L770,640.89l12.72-12.07,2.31-2.2,2-1.86-2,7.83-1.47,5.89-4.93,19.7-3.5,14-.76,3-.47,1.87-.17.69-3.2,2.19-.67.46-1.63,1.12-30.5,20.93-2.59,1.78.84-2.64Zm-1,21.32L763,679.31l5.42-22.17-14.92,12.78Z"/>
            <path class="ab2f44cf-711b-49d2-9ea8-515f0b6f2dde" d="M624.85,663.17l-10,14.24-1.21,1.72-1.5,2.13-3.24,4.62L599,700l-.81,1-14.82,5.1-1.31.45-2.61.9-1.67.58L567,711.75l-.85.3L563,713.14l.89-1.47,1.15-1.74.4-.6.44-.66,2.73-4,3.11-4.53.95-1.38,2.18-3.15,1.85-2.68.5-.72.43-.63,3.11-4.46,1.17-.76L592,680.07l7.28-4.5,7.2-4.44,1.41-.87,8.9-5.5,8-5,2.31-1.43.87-.54.28-.17.2-.12.18.15-.1.14-.56.81-.87,1.24ZM583.8,692.08l-8.14,11.59,19-5.51,4.52-11Z"/>
            <path class="ab2f44cf-711b-49d2-9ea8-515f0b6f2dde" d="M557.75,687.59,541,703.46l-2.14-6.83.21-1.4,1.84-12.79.09-.58-.39.23-15.68,9.57-3.56,2.17L521,694l-2.17,1.33-.76.46,1.84-7.76.37-1.58,1.21-5.09,1.43-6.06,2.38-10.05,2.2-1.54,11.89-8.37.75-.52,2.4-1.69,3.29-2.32,12.06-8.48.79-.56,7.31-5.14.61-.43-.21.72-7,23.56,17-12.91,9.87-7.49.26-.2,1.43-1,10.19-7.24,1.46-1,7.6-5.4,10.37-7.38-.88,2.43-5,13.8-.08.21-1.08,3-.58,1.61-.64,1.73-.23.65-2.77,7.58-.14.39-.1.25-1,2.84-.33.9L604,655l-5.46,5.31-5.85,5.7L580.61,677.8l-9,8.72-5.47,5.33-1.08,1.06.44-1.63L567.8,683l1.83-6.69-4.54,4.29-1.9,1.8Zm-30-17.33V683l15.83-6.62v19.87l35.73-33.84L551,673.86V657.21Z"/>
            <path class="ab2f44cf-711b-49d2-9ea8-515f0b6f2dde" d="M827.36,587.11l1.73-2.54,3.13-4.53,1.11-1.6,1-1.52,1.66-2.39.39-.56.54-.77,1.14-1.65,1.17-.76,1.07-.66,1.79-1.1L853,562.35l2.3-1.42,4.62-2.86.73-.45,2.46-1.52,13.22-8.16.63-.39,1.9-1.18,7.06-4.36.19.15-7.25,10.32-1.9,2.7-.63.91-1.91,2.72-3.79,5.39L870,565l-2,2.77-7.42,10.56-2.35,1.51v.94l-.87-.05-2.3,4.84-4.54,1.61-5.79,2-1.64.57-6.63,2.28-.87.3-2.31.79-13,4.46.89-1.48,2-3,2.73-4Zm13.81-10.56L833,588.14l19-5.52,4.52-11Z"/>
            <polygon class="ab2f44cf-711b-49d2-9ea8-515f0b6f2dde" points="836.04 574.53 834.38 576.92 833.33 574.71 836.04 574.53"/>
            <path class="ab2f44cf-711b-49d2-9ea8-515f0b6f2dde" d="M891.27,432.13,872.6,459.56l-8.87,13-2.84,4.18L858.71,480l1-4.12.9-3.69.25-1,.06-.26,1.34-5.45,4.57-18.6-13.56,11.58-3-13.06-11.79,15.7-3.18,4.23-.21.29-1.33,1.76-3.38,4.51-.2-4.62-.12-2.73-.59-14-11.2,13.95-2.46,3.05-1.41,1.77-5.69,4.79-1.65,1.38-2.42,2-2.9,2.45.28-1,.06-.2.52-1.87,2.14-7.63.75-2.67L809.57,452l35.58-52.24L842,421.46l-3.53,24.63,25.93-41.2,29.85-19.5,21.4-24.27Zm-57.35-2.28-19,20.83-3.62,13,17-15.72Zm52.45-4.67,8.37-23.87-22.38,16-16.51,20.42V449l16.73-12.69L869,458.43Z"/>
            <polygon class="ab2f44cf-711b-49d2-9ea8-515f0b6f2dde" points="796.3 471.81 787.87 484.71 788.78 476.96 789.01 474.95 789.03 474.77 789.51 470.66 791.18 456.38 806.68 435.91 809.58 432.1 805.05 458.41 801.5 463.84 799.22 467.34 797.05 470.66 796.94 470.82 796.3 471.81"/>
            <polygon class="ab2f44cf-711b-49d2-9ea8-515f0b6f2dde" points="809.58 432.1 806.68 435.91 807.94 429.14 864.65 377.43 842.04 421.46 845.15 399.73 809.58 451.97 805.49 466.56 804.42 465.99 800.94 466.89 801.5 463.84 805.05 458.41 809.58 432.1"/>
            <path class="ab2f44cf-711b-49d2-9ea8-515f0b6f2dde" d="M926.86,699.51l-4.24,11.62-6.21,6-2.51,2.44-3,2.94-2.67,2.59-1.22,1.2-1.32,1.29L895,738l-5,4.83L883.73,749l4.53-16.56-8.68,8.21-.63.59-3.49,3.31-9.13,8.64-2.62,2.48L856,763l3.61-25-2.5,1.53-1,.61-1.25.76-.66.41L853,742l-2,1.24-12,7.31-2.19,1.34-.12.07,0-.12,3.84-16.19.44-1.85,1.89-8,1-4.37,2.26-1.59,1-.7,1.6-1.12,9.32-6.56.92-.64,9.38-6.6,1.77-1.25,1-.7,14.06-9.89L881,706.57l-2.62,8.8-.38,1.26.91-.69,6.35-4.82L905.14,696,936.19,674l-4.91,13.44-3.19,8.74-.41,1.11-.2.55Zm-80.51,26.86v12.7l15.83-6.62v19.87l35.72-33.84L869.64,730V713.32Z"/>
            <polygon class="ab2f44cf-711b-49d2-9ea8-515f0b6f2dde" points="881 706.57 885.24 692.35 871.18 702.24 867.21 700.77 868.83 697.66 866.02 700.38 864.77 700.07 863.23 699.09 858.75 697.42 870.92 681.61 871.23 680.97 880.43 651.56 880.21 651.4 844.09 676.14 843.47 676.41 848.53 646.3 848.6 645.68 834.73 671.45 834.25 672.25 792.22 692.14 790.69 692.88 790.69 724.26 791.21 723.85 786.98 737.1 785.77 736.22 776.38 729.38 775.71 728.89 775.71 725.42 775.71 723.7 775.71 718.9 775.71 716.18 775.71 696.37 775.71 693.91 775.71 690.47 784.71 679.21 792.25 669.76 792.98 668.85 794.48 666.97 796.45 664.51 805.05 653.74 806.33 652.13 810.96 646.33 811.42 645.76 811.51 645.64 825.2 628.49 825.2 657.37 836.62 630.71 838.79 625.64 839.04 625.04 839.89 623.06 845.39 610.22 847.85 608.01 847.98 607.89 854.95 601.63 855.11 601.48 857.41 599.41 858.28 598.63 862.4 594.93 865.93 591.75 886.66 573.12 890.45 569.71 894.88 565.73 897.62 556.31 897.66 556.15 902.04 541.09 904.82 538.92 906.62 537.52 914.23 531.57 915.3 530.73 918.74 528.05 918.96 527.88 934.6 515.67 918.96 537.84 918.74 538.16 915.3 543.03 914.23 544.55 910.51 549.84 910.51 551.57 910.51 569.7 910.51 572.09 910.16 572.54 906.6 577.17 905.4 578.73 900.54 585.05 893.04 594.79 889.48 599.42 887.46 602.05 880.55 611.03 879.22 622.41 877.3 638.85 883.51 632.37 885.89 629.88 891.65 623.89 893.9 621.54 907.17 607.71 908.55 606.27 909.68 606.27 918.97 606.27 922.15 603.42 924.36 601.43 926.07 599.89 930.81 595.63 931.02 595.44 935.06 591.81 936.74 590.3 941.25 586.24 941.64 585.89 943.72 584.03 942.94 585.81 942.7 586.34 940.58 591.19 940.33 591.76 939.05 594.68 936.15 601.29 934.52 605.03 927.57 620.9 927.51 621.04 923.53 630.12 916.98 634.76 914.58 636.46 903.34 644.42 902.84 645.78 902.32 647.19 901.24 650.11 894.71 667.79 893.62 670.73 893.11 672.11 888.37 684.95 899.7 682.09 902.16 681.47 914.23 678.43 916.32 677.9 925.77 675.52 926.13 675.43 927.25 674.14 932.94 667.56 933.62 666.78 934.86 665.34 945.3 653.27 950.88 646.82 948.01 653.55 939.8 672.79 939.22 674.13 938.94 674.81 938.25 676.42 934.6 684.97 931.28 687.41 936.19 673.97 905.14 696.03 885.26 711.12 881 706.57"/>
            <path class="ab2f44cf-711b-49d2-9ea8-515f0b6f2dde" d="M901.09,762.56,896.8,764l-.28.1-1.12.39-.59.2-.56.19-1.4.48-2.67.92-1.42.49-7.14,2.45.89-1.47,2-3,2.73-4,2.76-4,.35-.51,3.13-4.54,1.93-2.78.11-.16.75-1.08,2.72-3.91.38-.55,1.17-.76,5.15-3.18,1.32-.81,1.22-.76,13.09-8.08,2.4-1.48L935.24,721l2-1.21,5.59-3.45.09-.06,3-1.83.81-.5.46-.29.18.14-.22.33L945.81,716l-8.6,12.25-2,2.79-8,11.32-8.53,12.15-1.15,1.63-.81,1.06-.35.12-12.82,4.41-1.39.47-.73.25Zm1.33-14.37-8.14,11.59,19-5.51,4.52-11Z"/>
            <path class="ab2f44cf-711b-49d2-9ea8-515f0b6f2dde" d="M704.26,668.45l-8.37,7.15L694.12,668l.56-2.74-.91,1.19-.25-1-.65-2.83-1.43,1.91-.51.67-.92,1.23-10.59,14.09-2.5,3.34L673,689l-.89-21.09v-.26l-.21.26-8.21,10.23-2.51,3.12L657,686.45l-2.31,1.94-1.44,1.21-2,1.7L645.65,696l-1.1.92-.18.06.2-.71,1.65-5.89.94-3.34.08-.29,1.43-5.11,3.5-12.5,1.61-2.36,1.8-2.65,3.19-4.68,2.06-3,.85-1.25,7.71-11.33,1.17-1.72,3.27-4.8,1.85-2.72,12.07-17.71-2.67,18.64-.41,2.84-.74,5.21-.24,1.64-1.48,10.36-.55,3.88-.55,3.79,2.68-4.26,1.72-2.72,2.91-4.62,2.37-3.78.77-1.23,3.67-5.82,1.87-3,9.94-15.8,12.54-8.19,1.06-.7.64-.41,3.5-2.29,7.12-4.65,1.8-1.17,3.19-2.08,6-6.76,2.38-2.7,4.21-4.77,2-2.27,6.87-7.78-3,8.63-.93,2.69-1.65,4.81-.93,2.72-4.93,14.33-2.12,6.16-5.11,14.87-1.71,5-4.07,11.84-1.35,2-.71,1.05-.18.25-4,5.88-1.26,1.85-.11.15L707.7,687.75l-6.39,9.39L704,686.27l.68-2.78.13-.51,1.11-4.51L709.45,664l-3.55,3ZM676.52,647l-19,20.83-3.61,13,17-15.72ZM729,642.36l8.37-23.87-22.39,16-16.5,20.42v11.31l16.73-12.69-3.62,22.08Z"/>
            <polygon class="ab2f44cf-711b-49d2-9ea8-515f0b6f2dde" points="728.44 572.19 727.95 572.11 727.95 557.18 734.28 547.89 734.28 551.91 734.72 552.84 734.7 553.78 734.7 568.85 728.44 571.17 728.44 572.19"/>
            <polygon class="ab2f44cf-711b-49d2-9ea8-515f0b6f2dde" points="630.47 701.89 632.4 685.4 632.78 682.1 633.78 673.56 634.66 672.4 636.3 670.24 641.06 663.95 643.24 661.07 647.76 655.11 652.15 649.31 652.15 649.43 650.83 657.08 649.79 663.12 649.6 664.24 649.41 665.34 649.27 666.18 648.67 669.66 647.65 675.59 646.46 677.4 641.2 685.47 639.87 687.5 639.13 688.63 630.47 701.89"/>
            <path class="ab2f44cf-711b-49d2-9ea8-515f0b6f2dde" d="M713.71,577.19l-25.4,34.9L679,617.64l-.31.19-3.74,2.22-1.1.66-7.56,4.49-1.76,1L654,632.46l-2.21,1.31-9.55,5.67,9-9.73,2.07-2.25,9.81-10.67,1.65-1.79,7.08-7.71.13-.13.12-.5,1.89-8,.47-2,1-4.36,4.93-20.78,0-.17-.08.16-6.26,11.53-1.32,2.43-.6,1.11-4.84,8.92-1.23,2.27L661,607.15l-3,3-1.9,1.85-1.56,1.52-2.93,2.85-2.1,2L638,629.58,636.6,631l-.85.83-11.7,11.39-.15.14-2.85,2.78.67-1.66,1.84-4.55,8.18-20.23,7.72-19.11,1.85-4.57.68-1.68.51-1.26.93-2.29,0-.11-.09.13-1.73,2.52-.86,1.25L639,597.18l-11.1,16.13-.31.45-1.81,2.63-3.66,5.33-1,1.45-2,3L615,632l-3.35,2,5-13.8.13-.08,32.11-41.4-11.21,40.67,21.52-19.22,13-25.51,9.7-25.89-30.3,21.44v-9.24l-39.39,33.64L605.6,584l-3.94,33.17-7.15-7.77-.52.22.34-6.25.1-1.72v-.21l.22-4,.08-1.45,0-.3,0-.32.57-10.42.54-9.73,2.62-13-2,2.7.95-17.15,64.23-69.5L646.5,539.59l48.48-51,10.3-46.6,35.14-33.27-21.2,42.15-6.67,57.69-21.21,35.5,30.3-10.35,10.91-48.07,24.24-25.14-7.88,30.32-1.38,15.54-1.09,12.21,0,.52-.08.9-.34,3.74-.71,8-1.72,2.53-.4.58-.07.11-2.28,3.35-3.35,4.91-.87,1.28-2.3,3.39L728,557.18l-4.49,6.6Zm-26.61-16.5-7.27,41.79-5.45,8.5,18.17-9.24L721,548.87Z"/>
            <polygon class="ab2f44cf-711b-49d2-9ea8-515f0b6f2dde" points="596.47 564.86 598.51 562.16 595.89 575.2 593.85 585.4 591.71 596.06 590.66 597.2 589.05 598.96 588.81 599.23 586.69 601.54 586.39 601.87 585.64 602.68 584.8 603.6 584.69 603.72 584.46 603.97 579.69 609.18 577.73 611.32 578.7 608.75 581.04 602.55 584.17 594.26 576.81 602.01 575.41 603.49 573.19 605.83 572.77 606.27 572.38 606.68 567.99 611.31 570.46 606.27 570.9 605.37 572.49 602.13 578.3 590.26 580.31 586.18 596.47 564.86"/>
            <polygon class="ab2f44cf-711b-49d2-9ea8-515f0b6f2dde" points="868.99 477.14 868.33 477.17 868.33 476.24 863.73 472.58 872.6 459.56 871.21 475.8 869.39 478.86 868.99 477.14"/>
            <path class="ab2f44cf-711b-49d2-9ea8-515f0b6f2dde" d="M778.12,578.67l-2.67,1.63,2.67-11.25.22-.95,4.35-18.34,3.65-2.57,1.91-1.34,3.86-2.72,7.54-5.31,4.49-3.15,2.3-1.62,12.79-9,1.95-1.37.59-.42L824,520.7l-2.22,7.46-.59,2-1.95,6.53-1.17,3.92-1.31,4.4,5.21-4,.32-.24L835,531.14l2.47-1.87,6.43-4.88,5.63-4,2.1-1.49,8-5.72.38-.27,5.36-3.81,1.08-.76,1.31-.94,1.11-.79,1.25-.88.34-.25,2.31-1.64,2.13-1.51-.57,1.56-1,2.7-1.74,4.76-.23.64-.41,1.11-.84,2.32-1.25,3.42-.68,1.86L864,532.21l-.73,2-.2.55-1.73,4.74-.76.75-12,11.71-2.09,2-1.19,1.16-3.16,3.08L840.35,560l-7.53,7.34-1.06,1-.75.73-3.36,3.28-3,2.94-.21.21-.25.24-1.68,1.64,1.68-6.14.46-1.69.09-.34,2.29-8.39L824.71,563l-.09.09-.46.43-4.63,4.38-1.28,1.22-8.6,8.14-2,1.86-9.63,9.12-1.28,1.2-.08.08-1.94,1.84.22-1.55.26-1.77.92-6.35,2.16-15,.06-.37-.71.43-.18.11-1.33.81-2.4,1.47-13.09,8-1.22.74Zm7-23.94v12.69l15.83-6.62v19.87l35.72-33.84-28.26,11.49V541.67Z"/>
            <polygon class="ab2f44cf-711b-49d2-9ea8-515f0b6f2dde" points="827 560.81 824.71 569.2 824.71 562.98 827 560.81"/>
            <path class="ab2f44cf-711b-49d2-9ea8-515f0b6f2dde" d="M784.61,748.41,783,749.5l.66-2,.25-.79,1.71-5.34.14-.44L787,737.1l4.23-13.25,2.07-6.48,28.1-26.67-6,24L813,724.27l-.9,3.6-.51,2-23.63,16.21Zm5.82-8.57,13.22-8.78,4-16.41-11,9.46Z"/>
            <polygon class="ab2f44cf-711b-49d2-9ea8-515f0b6f2dde" points="846.16 693.18 845.29 694.2 839.77 694.51 839.64 695.77 838.74 695.44 863.15 671.58 863.05 672.21 862.03 675.45 860.42 680.51 858.46 686.62 856.38 693.03 855.35 696.17 850.69 694.44 850.64 694.6 849 693.99 848.29 694.03 851.9 686.53 846.16 693.18"/>
            <polygon class="ab2f44cf-711b-49d2-9ea8-515f0b6f2dde" points="765.79 537.57 760.6 542.23 762.21 536.46 765.65 524.12 766.18 522.24 767.71 516.75 768.55 513.74 770.22 507.74 770.25 507.64 779.41 498.92 780.56 497.82 781.22 497.19 786.83 491.85 788.8 489.98 791.39 487.51 794.97 484.1 793.26 489 793.18 489.22 792.04 492.48 788.29 503.24 786.83 507.43 785.64 510.84 784 515.54 782.94 518.58 781.1 523.84 779.59 525.19 770.32 533.51 765.79 537.57"/>
            <polygon class="ab2f44cf-711b-49d2-9ea8-515f0b6f2dde" points="860.94 470.89 855.84 469 862.28 465.44 860.94 470.89"/>
            <polygon class="ab2f44cf-711b-49d2-9ea8-515f0b6f2dde" points="837.76 464.91 835.3 466.86 835.3 465.29 838.48 461.06 838.74 465.08 837.76 464.91"/>
            <polygon class="ab2f44cf-711b-49d2-9ea8-515f0b6f2dde" points="829.47 450.5 830.06 464.5 822.08 464.24 821.44 466.94 819.55 464.32 818.27 464.45 829.47 450.5"/>
            <polygon class="ab2f44cf-711b-49d2-9ea8-515f0b6f2dde" points="758.1 516.6 755.89 515.62 746.44 518.56 747.53 506.35 754.22 471.38 792.42 429.14 782.87 466.29 776.9 480.13 780.08 478.49 779.63 479.11 779.63 480.04 779.41 480.05 779.41 498.92 770.25 507.64 770.22 507.74 758.4 494.33 758.4 515.11 758.1 515.15 758.1 516.6"/>
            <polygon class="ab2f44cf-711b-49d2-9ea8-515f0b6f2dde" points="812.98 724.27 815.37 714.73 818.99 714.73 819.13 714.6 820.18 717.37 817.48 716.37 814.16 724.27 812.98 724.27"/>
            <polygon class="ab2f44cf-711b-49d2-9ea8-515f0b6f2dde" points="827.65 572.34 831.01 569.06 831.52 569.77 827.65 572.34"/>
            <polygon class="ab2f44cf-711b-49d2-9ea8-515f0b6f2dde" points="663.06 747.84 658.95 759.61 658.05 760.42 651.62 766.2 642.41 774.45 639.26 777.28 638.45 778 638.86 776.55 639.1 775.68 642.87 762.16 646.67 748.55 648.1 743.42 653.95 737.85 654.95 736.89 657.51 734.46 660.87 740.54 663.06 747.84"/>
          </g>
          <g>
            <polygon class="fb23ea81-4a52-4506-98b7-b1eace9a07a8" points="604.11 619.78 601.66 617.13 605.6 583.96 612.26 594.68 651.65 561.04 651.65 570.29 681.95 548.85 672.25 574.74 659.23 600.25 637.72 619.47 648.92 578.8 616.81 620.2 616.68 620.28 617.56 617.86 607.19 625.23 605.72 622.18 602.22 623.64 604.11 619.78"/>
            <polygon class="fb23ea81-4a52-4506-98b7-b1eace9a07a8" points="815.37 714.73 821.38 690.7 793.28 717.37 791.21 723.85 790.69 724.26 790.69 692.88 792.22 692.14 834.25 672.25 834.73 671.45 848.6 645.68 848.53 646.3 843.47 676.41 844.09 676.14 880.21 651.4 880.43 651.56 871.23 680.97 870.92 681.61 858.75 697.42 855.35 696.17 856.38 693.03 858.46 686.62 860.42 680.51 862.03 675.45 863.05 672.21 863.15 671.58 838.74 695.44 837.97 695.15 828.72 701.26 828.96 703.64 827.02 702.92 818.86 713.89 819.13 714.6 818.99 714.73 815.37 714.73"/>
            <polygon class="fb23ea81-4a52-4506-98b7-b1eace9a07a8" points="768.55 513.74 758.4 515.11 758.4 494.33 770.22 507.74 768.55 513.74"/>
            <polygon class="fb23ea81-4a52-4506-98b7-b1eace9a07a8" points="700.07 746.93 686.85 755.71 693.04 739.99 704.08 730.53 700.07 746.93"/>
            <polygon class="fb23ea81-4a52-4506-98b7-b1eace9a07a8" points="803.65 731.06 790.43 739.84 796.62 724.11 807.66 714.65 803.65 731.06"/>
            <polygon class="fb23ea81-4a52-4506-98b7-b1eace9a07a8" points="963.52 676.44 950.3 685.22 956.49 669.49 967.54 660.03 963.52 676.44"/>
            <polygon class="fb23ea81-4a52-4506-98b7-b1eace9a07a8" points="563.93 593.79 550.71 602.57 556.9 586.85 567.94 577.39 563.93 593.79"/>
            <polygon class="fb23ea81-4a52-4506-98b7-b1eace9a07a8" points="907.96 486.7 890.1 498.56 898.47 477.31 913.39 464.53 907.96 486.7"/>
            <polygon class="fb23ea81-4a52-4506-98b7-b1eace9a07a8" points="762.99 679.31 745.13 691.17 753.49 669.92 768.41 657.14 762.99 679.31"/>
            <polygon class="fb23ea81-4a52-4506-98b7-b1eace9a07a8" points="575.66 703.67 583.8 692.08 599.17 687.12 594.65 698.16 575.66 703.67"/>
            <polygon class="fb23ea81-4a52-4506-98b7-b1eace9a07a8" points="527.72 682.96 527.72 670.26 551.01 657.21 551.01 673.86 579.28 662.37 543.55 696.21 543.55 676.34 527.72 682.96"/>
            <polygon class="fb23ea81-4a52-4506-98b7-b1eace9a07a8" points="833.03 588.14 841.17 576.55 856.55 571.59 852.03 582.62 833.03 588.14"/>
            <polygon class="fb23ea81-4a52-4506-98b7-b1eace9a07a8" points="785.1 567.42 785.1 554.73 808.39 541.67 808.39 558.32 836.65 546.83 800.93 580.67 800.93 560.8 785.1 567.42"/>
            <polygon class="fb23ea81-4a52-4506-98b7-b1eace9a07a8" points="814.92 450.68 833.92 429.85 828.26 447.93 811.31 463.65 814.92 450.68"/>
            <polygon class="fb23ea81-4a52-4506-98b7-b1eace9a07a8" points="894.74 401.31 886.37 425.18 868.96 458.43 872.58 436.35 855.85 449.04 855.85 437.73 872.36 417.31 894.74 401.31"/>
            <polygon class="fb23ea81-4a52-4506-98b7-b1eace9a07a8" points="894.28 759.78 902.42 748.19 917.8 743.23 913.28 754.27 894.28 759.78"/>
            <polygon class="fb23ea81-4a52-4506-98b7-b1eace9a07a8" points="846.35 739.07 846.35 726.37 869.64 713.32 869.64 729.97 897.9 718.48 862.18 752.32 862.18 732.45 846.35 739.07"/>
            <polygon class="fb23ea81-4a52-4506-98b7-b1eace9a07a8" points="657.52 667.86 676.52 647.03 670.86 665.11 653.91 680.83 657.52 667.86"/>
            <polygon class="fb23ea81-4a52-4506-98b7-b1eace9a07a8" points="737.34 618.49 728.97 642.36 711.56 675.61 715.18 653.53 698.45 666.22 698.45 654.91 714.95 634.49 737.34 618.49"/>
            <polygon class="fb23ea81-4a52-4506-98b7-b1eace9a07a8" points="679.83 602.48 687.1 560.69 721.03 548.87 692.55 601.74 674.38 610.98 679.83 602.48"/>
          </g>
          <g>
            <path class="ae42cd22-2187-4d42-89be-83f630e081c4" d="M1092.29,47.46a2.37,2.37,0,0,0-1.09,1.94c.09.59.65.17,1.23-.88S1093,47,1092.29,47.46Z"/>
            <path class="ae42cd22-2187-4d42-89be-83f630e081c4" d="M1251.6,141.75a35.75,35.75,0,0,0,9.69-6.74c1.62-1.56,1-3.21-1.2-2.64a11.19,11.19,0,0,0-4.81,2.68,20.69,20.69,0,0,0-2.22,2.44c-1.12,1.43-2,1.19-2.7-.56a10,10,0,0,0-1.63-2.93,22,22,0,0,0-3.82-4c-3.71-2.55-7.89-2.77-12.17,0a13.49,13.49,0,0,0-1.65,1.28c-.87.78-1.73.95-2.09.34s-1-.11-1.43,1-1.39.39-2.3-1.61a24,24,0,0,0-6.57-8.88,16.3,16.3,0,0,0-7.38-3.37,50,50,0,0,1-6.45-1.41,2.47,2.47,0,0,1-1.57-3.35c.34-.89.67-1.81,1-2.75a51.14,51.14,0,0,0-3.25-39.7c-10.64-19.83-33.85-28.91-52.7-16.48-8.77,5.77-14.79,15.2-18.64,26.27-.73,2.12-1.92,3.15-2.94,2.52a6.55,6.55,0,0,0-2-.85,10.76,10.76,0,0,0-9.9,2.74,22.83,22.83,0,0,0-3.52,4.17,4.53,4.53,0,0,1-5.53,1.84c-6.21-2.64-13.15-3.63-19.89-.27-5.31,2.64-9.35,6.22-11.93,11.82-.93,2-1.7,2-2.35-.1a23.36,23.36,0,0,0-4.29-8c-2-2.49-4-4.24-6.76-5a12.09,12.09,0,0,0-11,3.1,32.86,32.86,0,0,0-10.2,19.22c-.36,2.2-1.45,3.89-2.67,3.65s-2.42-2.55-3.14-4.64c-2.24-6.47-6.38-11.06-11.56-12.91-5.43-1.93-12.26-.35-17.59,4.5a32.2,32.2,0,0,0-5.68,6.92c-1.18,1.91-2.38,2.55-2.78,1.25a23.16,23.16,0,0,1-.61-2.39A62.67,62.67,0,0,1,994,93.64c.11-2.22-.17-2.79-1-1.39s-2.42.73-3.58-1.15a17.35,17.35,0,0,0-9.31-7.66,3.47,3.47,0,0,0-4.35,3.24A57.92,57.92,0,0,0,977,104.49c.5,2.15,1.24,3.82,1.49,3.77l.46-.1a21.63,21.63,0,0,1,3.07-.47c1.72-.1,2.5,2.13,2.19,4.34a20,20,0,0,0,.74,9.35c3.59,10.43,9.64,17.36,17.52,20.18,2.08.75,3.56,1.48,3.2,2-.21.33-.42.67-.62,1-7.86,13.64-2.34,29.69,11.38,36.21.25.12.5.22.75.32.41.16,1.07,2.07,1.84,4.14a26.65,26.65,0,0,0,3.44,6.36,18.78,18.78,0,0,0,4.15,4.1c1.77,1.3,2.25,3.68,2.15,5.9a7.67,7.67,0,0,0,1.14,4.3c3.42,5.82,7.86,10.17,14.78,11.39,7.62,1.35,14.34-3.67,21.85-1.59a10.49,10.49,0,0,0,2.7.37c1.51,0,3.08-.3,3.53-.17a.69.69,0,0,1,.48,1c-.17.43-2.06,1.22-4.17,2-5.23,1.88-10.06,4.77-13.26,9.6a22.39,22.39,0,0,0-2.24,4.34c-.8,2.1-2.15,5.31-3,7.3a15.35,15.35,0,0,0-1,3.73c-1,6.73.78,10.78,4.58,16,5,6.91,12.18,6.74,17.62,3.06a61.3,61.3,0,0,1,6.93-3.82,14.49,14.49,0,0,0,7.65-9.53c.59-2.16,1-4.12,1.46-4.28a35.59,35.59,0,0,1,4.86-.8q4.83-.51,9.66-.83c5.54-.33,12.49.35,18.17-.75,8.13-1.57,15.15-6.72,17.82-14.36a13.89,13.89,0,0,1,4.4-6.08c4.11-2.83,7.26-6.1,8.9-9.81.91-2.05,2.84-3.36,5-2.75,12.25,3.54,24.48,6.06,35.67-.66,1.92-1.15,5.09-2.87,7-4.11a15.12,15.12,0,0,0,2.69-2.23,37.72,37.72,0,0,1,5.93-5.23,26.81,26.81,0,0,0,4.85-3.91,10.14,10.14,0,0,1,6.52-2.62c5.76-.2,11.47-4.37,13.81-9.7a47.29,47.29,0,0,0,1.75-4.69,17.82,17.82,0,0,1,1.71-4.36,3.93,3.93,0,0,0,.58-.51c.1-.11.2-.21.31-.31s2,.24,4.27.25c9.39,0,18.37-9,13.56-19.85a20.68,20.68,0,0,0-4.28-6.36C1249.39,144.14,1249.57,142.7,1251.6,141.75Z"/>
            <path class="ea8e7c12-029d-4a83-ba76-8b19bf4ed1c8" d="M1246,71.81a23.06,23.06,0,0,1,11.44,9.74c2.64,4.57,4.17,11,4.23,17.55.8,1.08,1.57,2.18,2.27,3.34a8.06,8.06,0,0,1,7.28-1.18,9.56,9.56,0,0,1,3.6,2.07,124,124,0,0,0,.24-12.61c-2-5.7-4.94-11.09-7.46-16.6a8,8,0,0,0-2.49-.24c-2.52-8-9-14.77-14.06-16.94-.48-.21-1-.32-1.46-.48-6.89-8.82-19.66-9.43-27.18,2.08.86-14.86-3.54-26.22-10.63-33.83-1.58-13.84-9.8-26-19.29-30.07-11.78-5-26.47-5.71-38.64,3.29a30,30,0,0,0-3.29-.15c-1.37-1.94-2.82-3.8-4.32-5.55-.75-18.23-10.51-32.95-25.77-32.41-19.14.68-33.16,20.21-38.93,43.35a37,37,0,0,0-8.17,7.45,50.45,50.45,0,0,0-3.82,5.37,46.67,46.67,0,0,0-10,4.49,52.92,52.92,0,0,0-19.84,21.58c-3-7.67-7.73-13.86-13.12-16.84-14.1-7.78-36.42,6.53-41.71,30.05a45,45,0,0,0-.83,5.19,30.69,30.69,0,0,0-3.8,8.83l-.45.13c-.2-.13-.43-.19-.64-.31-.35,1.2-.68,2.4-1,3.58.86-.23,1.73-.43,2.6-.58a24.92,24.92,0,0,1,2.45-7.54A29.21,29.21,0,0,1,996.06,51.9c3.36-3,7.15-4.35,10.8-3.11.61,0,1.21-.07,1.79-.07,8.85,0,17.91,6.43,22,16.11a19.94,19.94,0,0,1,3.25-.58c2.77-6.14,6.31-11.54,10.16-15.06,4.32-3.95,9.16-5.61,13.68-5.33a27.29,27.29,0,0,1,4.21-2.61,17.92,17.92,0,0,1,14.89-.83c7.51-31.06,28.44-42.07,49.57-36.11,6.72,1.89,10.91,7.11,13.28,14.45,8.42-4.65,18.41-4.3,24.34.63,8.34-10.74,20.58-7.32,26.53,3.79,2.5,4.67,3.7,11.4,3.55,18.35,10.74,2.07,19.41,15,23.3,27.89a48.29,48.29,0,0,1,1.47,6.55,7.42,7.42,0,0,1,5.67-2.16,5.89,5.89,0,0,1,3.2,1.47,7.83,7.83,0,0,1,2-3C1235.87,67,1240.34,69.35,1246,71.81Z"/>
            <path class="e9136ed4-0516-4b5b-bda5-9fad14bf7903" d="M1228.27,138.38c.47-2.91,4-5.71,6.37-7.59a10,10,0,0,1,9.68,1.23,21.62,21.62,0,0,1,3.82,4,13.21,13.21,0,0,1,2.47,6.18l0,0a22.93,22.93,0,0,1,4-5.1,11.06,11.06,0,0,1,7.52-3,51.51,51.51,0,0,0,8-10.83,59.22,59.22,0,0,0,4.55-19.86,9.56,9.56,0,0,0-3.6-2.07,8.06,8.06,0,0,0-7.28,1.18c-.7-1.16-1.47-2.26-2.27-3.34-.06-6.6-1.59-13-4.23-17.55A23.06,23.06,0,0,0,1246,71.81c-5.62-2.46-10.09-4.81-16.16.42a7.83,7.83,0,0,0-2,3,5.89,5.89,0,0,0-3.2-1.47,7.42,7.42,0,0,0-5.67,2.16,48.29,48.29,0,0,0-1.47-6.55c-3.89-12.85-12.56-25.82-23.3-27.89.15-7-1-13.68-3.55-18.35-6-11.11-18.19-14.53-26.53-3.79-5.93-4.93-15.92-5.28-24.34-.63-2.37-7.34-6.56-12.56-13.28-14.45-21.13-6-42.06,5.05-49.57,36.11a17.92,17.92,0,0,0-14.89.83,27.29,27.29,0,0,0-4.21,2.61c-4.52-.28-9.36,1.38-13.68,5.33-3.85,3.52-7.39,8.92-10.16,15.06a19.94,19.94,0,0,0-3.25.58c-4.09-9.68-13.15-16.11-22-16.11-.58,0-1.18,0-1.79.07-3.65-1.24-7.44.12-10.8,3.11a29.21,29.21,0,0,0-12.83,12.67,24.92,24.92,0,0,0-2.45,7.54c-.88.15-1.75.41-2.62.65a83.35,83.35,0,0,0-2.25,11.91c5.63.51,10.32,3.86,13.34,9.25a1,1,0,0,0-.1.26c-.28,1.89-.54,3.79-.84,5.68-.18,1.15.59,2.19,1.43,1.57s1.92.08,2.65.84c0,.69,0,1.4,0,2.07,0,6.06.69,11.65,2.82,16.51.66,1.48,2.21-.17,2-1.71a15.06,15.06,0,0,1,.6-6.49,32.2,32.2,0,0,1,6-7.37c5.32-4.85,12.16-6.43,17.58-4.49,6.16,2.19,10.85,8.27,12.61,16.76a17.1,17.1,0,0,0,5.06,1.93c.56-9.17,3.54-18.33,9.9-24a12.13,12.13,0,0,1,11-3.1c2.78.74,4.79,2.48,6.75,5,2.77,3.52,4.16,8.86,5.11,14.06,2.35-7.86,7-14.6,13.46-17.8,8.07-4,16.42-1.81,23.48,2a23.37,23.37,0,0,1,5.46-7.73,10.74,10.74,0,0,1,9.91-2.74,8,8,0,0,1,3.72,2.19c3.74-12.74,10.1-23.7,19.87-30.14,18.85-12.42,42.06-3.35,52.71,16.49a51.18,51.18,0,0,1,3.25,39.7c-.61,1.9-1.31,3.7-2.06,5.44a11.57,11.57,0,0,1,1.29.32.75.75,0,0,0,.56.73,30.69,30.69,0,0,1,3.21.79l0,0h0c8.29,2.51,15,8.51,19.33,18.67C1226.6,140.5,1228,139.76,1228.27,138.38ZM1091.43,50.45a10.07,10.07,0,0,1-.35-2.12c.76-.57,1.58-1.14,2.45-1.69Q1092.42,48.44,1091.43,50.45Z"/>
            <path class="ea8e7c12-029d-4a83-ba76-8b19bf4ed1c8" d="M1029.05,52.72c-8.28-7.85-19.77-11-30.68-6.74A36.73,36.73,0,0,0,983.11,57.4c-1.68,4.56-3.18,9-4.4,13.28a1.08,1.08,0,0,0,1.16-.7c5.24-10.45,12.67-17,21.13-19.38,9.8-2.74,17.87,1.64,25.81,6.94C1028.64,58.77,1030.72,54.3,1029.05,52.72Z"/>
            <g>
              <path class="ea8e7c12-029d-4a83-ba76-8b19bf4ed1c8" d="M1002.91-50a30,30,0,0,1,7.92-4.72c13.31-5.35,25.91,1.15,32.63,13.36a38.2,38.2,0,0,1,4.66,16,24.26,24.26,0,0,1,6.42,4.74c11.74-1,22.36,3.49,28.91,18.33,5.26,11.9,9,25.45,2.88,38.79a33.69,33.69,0,0,1-12.1,14.12c5.85,13.28,1.45,31.72-14.4,36-5.67,1.51-10.52,1-14.59-2a33.61,33.61,0,0,1-2.68,2.66c.08.46.16.93.23,1.4,2.07,1.77,4.23,3.27,5.71,4.39,13,9.83,9.07,23.49.79,36.36-1.56,2.42-2.93,4.87-4.24,7.34a35.09,35.09,0,0,1,1.23,23.57c-.75,2.58-3.33,9-6.49,12.65h0a13.82,13.82,0,0,1,7.17,5.15l.29.26a19.63,19.63,0,0,0,.12,11c1.88,6.62,6,17.8,2.53,25.15-1.59,3.32-4.54,5.27-8,6.7a115.31,115.31,0,0,0-6.84-24.69,78.75,78.75,0,0,0-11.42-18.89c-1.64-2.07-5.58-5.24-5.71-8.29-.12-2.81,2.39-4.89,4.07-7.59,5.39-8.63,7.75-18.17,8.28-27.93,4.64-2.47,7.34-7.33,8.39-12.56a24.4,24.4,0,0,0,2.15-4.56c2.78-7.91,1.71-16.61-2.92-22.77a22.37,22.37,0,0,0,4.13-6.74,21.45,21.45,0,0,0,1.31-10.11,23.83,23.83,0,0,0-1.22-5.14,31.5,31.5,0,0,0,16.19-26.05,27.45,27.45,0,0,0-.11-3.13c8.44-20.08-5.23-44.92-22.88-56.06.1-1.55.13-3.13.11-4.72-.12-9.8-11.75-14.92-21.19-1.79,1.42-4.07-2.51-8.36-7.51-5.23.16-.23.31-.47.47-.71,5.69-1.92,1.41-7.06,2.78-7.61,5.4-2.17,3.81-18.66-8.28-10-8.69-11.81-27-6-36.46,9.4A36.38,36.38,0,0,0,962-27.21a15.17,15.17,0,0,1-4.81,6.74c-1.46,3.87-2.82,7.64-4.15,11C950.31-2.67,944.68.16,939.44,0a15.64,15.64,0,0,1,.13,2.3c0,.25,0,.48,0,.71V3a11.85,11.85,0,0,1-.61,3.54A15.2,15.2,0,0,1,934,13.8a12.14,12.14,0,0,1-7.84,3,13.38,13.38,0,0,1-6.05-1.76,8.89,8.89,0,0,1-3.43-3.58,9.71,9.71,0,0,1-1.64-3.14c-.17,0-.33-.12-.51-.17a18.55,18.55,0,0,0,4.93-.91c.2.18.42.33.62.51a27.62,27.62,0,0,1,13.83-.53c0-4.91,2.95-9.77,6.47-12.9A22.9,22.9,0,0,1,945-8.76a44.15,44.15,0,0,1,7.8-28.87C965.47-56.17,987.22-60.78,1002.91-50Z"/>
              <path class="ae42cd22-2187-4d42-89be-83f630e081c4" d="M830.6,41.87s-4.14,4-7.2,6.88c-1.64,1.53-2.93,2.88-2.83,3.08s2-.2,4.13.46a8.36,8.36,0,0,1,3.1,1.79c1.63,1.46,2.29,1.4,2.43-.82.55-8.68,3-17,10.47-22.33,8.39-5.91,18.81-4.8,24.8,3.25,5.28,7.08,3.15,15.65-1.74,20.83-1.55,1.63-1.33,3,.5,4.19a13.41,13.41,0,0,1,3.28,3.15c1.31,1.77,2.15,2.9,2.44,2.2.18-.43.37-.86.57-1.27a24.16,24.16,0,0,1,7-7.85,17.31,17.31,0,0,1,9.76-3.33c2.22,0-1.16.73-.64-.47s.61-2.89-.21-3.21-.55-2.06-.47-3.26c0-.7,1.48-5,1.47-5.78-.05-2.43,3-1.82,3.2-4.64a5,5,0,0,1,4.3-4.58,21.15,21.15,0,0,1,5.65.48,23,23,0,0,1,14.07,10.21,23.25,23.25,0,0,1,2.82,6.1c.63,2.12,2.12,3,3.81,1.93,1-.64,2.09-1.23,3.14-1.75,7.4-3.72,15.86-5.11,22.85-.72a18.69,18.69,0,0,1,4.09,3.47c1.46,1.64,1.84,1.51,1.85-.65a12.08,12.08,0,0,1,.61-3.86,16.21,16.21,0,0,1,1.62-3.49,36.12,36.12,0,0,1,2.67-3.42,4.5,4.5,0,0,1,.23-.43,15.08,15.08,0,0,1,17.23-7,18.52,18.52,0,0,1,10.74,9.54C989.11,46,989,52.18,987.66,58.3a12.78,12.78,0,0,1-2.72,5.16,4.84,4.84,0,0,0-.49,5.91c6.42,9,9.34,20.18,6.95,30.6a18.07,18.07,0,0,0,.07,7.68,62.65,62.65,0,0,1,2,23.91,14.06,14.06,0,0,0,1.61,7.28,21.49,21.49,0,0,1,2.27,6.86A24.55,24.55,0,0,1,992,165.34a14.89,14.89,0,0,1-1.15,1.22c-.66.63.08,2.29,1.59,3.89,9.07,9.59,14.74,22.45,11.76,34.4a4.24,4.24,0,0,0,2.53,5.06,27.58,27.58,0,0,1,12.54,11.49,32.2,32.2,0,0,1,2.26,4.46c.84,2-.09,5-1.44,6.79-4.64,6.2-4.42,13.16-7.76,21.16a30,30,0,0,1-15.21,15.51,9.06,9.06,0,0,1-6.53.25c-1.49-.71-2.89-.95-3.23-.41-.2.33-.41.65-.64,1-6.7,9.61-19,13.95-31,13.5a13.44,13.44,0,0,0-7.21,2.16,46.63,46.63,0,0,1-16.83,7.76c-.71.15-1.43.27-2.17.37-1.2.17-2.74,2-3.68,4a43.57,43.57,0,0,1-7.65,11.24,9,9,0,0,0-2,6.75c2.21,16-13.05,32.09-29.05,34.21a6.63,6.63,0,0,0-5.07,4.13A24.59,24.59,0,0,1,879.7,359c-5.75,8.94-15.51,10.84-23.25,7.59a12.44,12.44,0,0,0-7.33-.67,53.87,53.87,0,0,1-25.14,1.3,14.18,14.18,0,0,0-6.34.16c-1.39.51-3.1,2.5-4.27,4.42a18.27,18.27,0,0,1-1.44,2,13,13,0,0,0-2.58,6.83c-.26,5.39-3.11,11.15-7.53,13.17-7.38,3.38-14.27,5.84-22.18,5.26l-1.52-.13c-.83-.08-.65,1.44-.23,3.61,1.3,6.7-2.65,12.6-8,15.43-2,1.06-3.27,3.18-2.06,5a14.5,14.5,0,0,0,3.4,3.57c4.26,3.16,5.06,12-.9,14.75a48.4,48.4,0,0,0-5,2.63c-1.93,1.16-3.34,4.12-4.31,6.14-1.78,3.7-5.9,6-10.24,3.59a23.21,23.21,0,0,1-4.64-3.6c-3-2.81-2.24-9.24.73-12.07q2.13-2,4.33-3.78a5.39,5.39,0,0,0,1.52-6A32,32,0,0,1,750.59,414a22.74,22.74,0,0,0-.93-7.71c-3.43-10-3.55-21.2,3.78-30.38,8.49-10.64,16-7.44,24.33-6.26,2.19.31,4.42-1.43,5.29-3.49.15-.37.32-.73.49-1.09a12.58,12.58,0,0,0,.89-7.37c-2.38-9.7-1.5-20,6.19-28.5a23.25,23.25,0,0,1,16.3-8.09c1.92-.13,7.17,1.1,11.74,1.6a6,6,0,0,0,5.8-3.45,31,31,0,0,1,3.18-6.8c.32-.51.66-1,1-1.46.59-.78-.6-2-2.38-3.25a13.66,13.66,0,0,1-5.06-15.65,6.7,6.7,0,0,1,.34-.86c.21-.46-.84-2.16-1.94-4.07a23.85,23.85,0,0,1-3-12.11c-.06-15.17,10.24-21.35,19.65-20.58A23,23,0,0,1,844,256.4a10.05,10.05,0,0,1,1.26.82c1.75,1.32,2.74,2,2.89.85a16,16,0,0,1,.39-2c3.81-14.77,18.1-23.27,31.25-19.46a20.66,20.66,0,0,1,2.4.86c1.3.56.71.23-.71-1.45a11.71,11.71,0,0,1-2.52-9.68q.63-4.18,1.28-8.37c1.63-10.64,11.81-18.84,20.88-12.72,1.93,1.3,3.81,2.67,5.65,4.09a28.23,28.23,0,0,0,3.51,2.52,34.93,34.93,0,0,0,3.78-2.17,40.26,40.26,0,0,1,20.11-5.77,12.19,12.19,0,0,0,6.69-2.83,10.3,10.3,0,0,1,3.43-1.86c2.13-.67,3.49-2.11,3.14-4.29-.06-.32-.11-.66-.16-1a13.5,13.5,0,0,0-3.58-6.57,28.43,28.43,0,0,1-4.61-5.73q-.25-.42-.48-.87c-.26-.49-1.2-.57-2.09-.12-.51.26-1,.55-1.6.86-6.1,3.4-9.93,7.49-17.14,8-13.42.89-25.64-10-27.74-24.42-.12-.8-.2-1.59-.26-2.38-.09-1.32-1.41-3.6-2.81-5.29a28.84,28.84,0,0,1-2-2.66,11.39,11.39,0,0,0-5.88-4.19,21,21,0,0,1-8.12-4.33,17.83,17.83,0,0,1-1.71-1.65c-.9-1-3.3-1.32-5.51-1.12a20.39,20.39,0,0,1-14-3.66c-1.77-1.3-3.12-2.73-3.37-2.79l-.43-.12c-14.79-5.86-14.31-22.52-9.3-36.84.74-2.12-.35-3.85-2.57-3.88-4.63-.07-9.09-.31-12.54-4-3-3.2-4.49-8-5.47-13.13a7.77,7.77,0,0,0-2.89-4.87,9.5,9.5,0,0,1-1.92-1.45c-2.26-2.18-4.08-7.91-4.35-8.31-2.37-3.41-6.12-3.82-6.84-9.24-1.66-12.58,9-24.62,16.84-30.68S855.31,27.15,830.6,41.87ZM967,231.06c1-.28.92-.69-.17-1.19s-1.8-.43-1.73.35S965.94,231.33,967,231.06Z"/>
              <path class="e9136ed4-0516-4b5b-bda5-9fad14bf7903" d="M1001.73-43.34a40.3,40.3,0,0,0,3.44,13.85,30.31,30.31,0,0,0,2.06,3.75c-.16.24-.31.48-.47.71l5.93,6.25.92-.13c-.21,0,0,.26,0,.41.07-.1.12-.2.18-.3,6.27,4.29,14.08,4.51,21.66.79,0,1.59,0,3.17-.11,4.72,17.65,11.14,31.32,36,22.88,56.06a27.45,27.45,0,0,1,.11,3.13A31.5,31.5,0,0,1,1042.15,72a23.83,23.83,0,0,1,1.22,5.14,21.45,21.45,0,0,1-1.31,10.11,22.37,22.37,0,0,1-4.13,6.74c4.63,6.16,5.7,14.86,2.92,22.77a24.4,24.4,0,0,1-2.15,4.56c-1,5.23-3.75,10.09-8.39,12.56-.53,9.76-2.89,19.3-8.28,27.93-1.68,2.7-4.19,4.78-4.07,7.59.13,3.05,4.07,6.22,5.71,8.29a78.75,78.75,0,0,1,11.42,18.89,115.31,115.31,0,0,1,6.84,24.69c-5.57,2.33-12.43,3.31-16.84,6.56a25.23,25.23,0,0,0-2.23,1.86,32.8,32.8,0,0,0-3.55-8.24c-4.21-7-10-11.3-16.34-12.7,5.93-14.15-1.6-30.29-13.32-41a18.59,18.59,0,0,0,2.39-2.32,24.55,24.55,0,0,0,5.32-19.64,20.6,20.6,0,0,0-4.5-10.15,61.67,61.67,0,0,0-2.61-31.7c4.67-12.68.75-27.17-8.26-37.61,2.46-1.75,5-4.9,5.67-7.94,1.35-6.12,1.45-12.32-1.33-17.74A18.52,18.52,0,0,0,975.59,31a15.08,15.08,0,0,0-17.23,7c-.18.29-.29.58-.45.87a15.4,15.4,0,0,0-4.07,6.47,13.79,13.79,0,0,0-.12,7.72,19.52,19.52,0,0,0-6.43-6.68c-7-4.39-15.45-3-22.85.72a46.17,46.17,0,0,0-6.13,3.74,23.54,23.54,0,0,0-3.64-10A23,23,0,0,0,900.6,30.64a21.74,21.74,0,0,0-9.64.08,47.4,47.4,0,0,1,3-13.17c5.91-5.77,12.77-10.32,16.23-9.67a20.07,20.07,0,0,0,4.39.3c.18.05.34.13.51.17a9.71,9.71,0,0,0,1.64,3.14,8.89,8.89,0,0,0,3.43,3.58,13.38,13.38,0,0,0,6.05,1.76,12.14,12.14,0,0,0,7.84-3,15.2,15.2,0,0,0,4.91-7.25A11.85,11.85,0,0,0,939.55,3V3c0-.23,0-.46,0-.71a15.64,15.64,0,0,0-.13-2.3c5.24.16,10.87-2.67,13.55-9.46,1.33-3.37,2.69-7.14,4.15-11A15.17,15.17,0,0,0,962-27.21a39.37,39.37,0,0,1,3.32-6.73C973.76-47.25,988-46.46,1001.73-43.34Z"/>
            </g>
            <path class="ea8e7c12-029d-4a83-ba76-8b19bf4ed1c8" d="M1012,162.64a49.94,49.94,0,0,1,18.67,18,1.41,1.41,0,0,1,2.18-.28c7.22,7.25,11.41,19.11,11.32,30.15a18.48,18.48,0,0,1-.6,4.44,1.25,1.25,0,0,1,1.26,1.15,8.31,8.31,0,0,1-.27,2.53,17.65,17.65,0,0,0,1.16-1.71,1.64,1.64,0,0,1,2.88-.31c-3.79,4.74-11.06,6-17.25,8.13a.8.8,0,0,1,.4-.61c.48-.25.93-.51,1.36-.77,3.45-4.62,4.46-9.22,3.66-15.46a62.57,62.57,0,0,0-4.58-16.39,53.88,53.88,0,0,0-21.74-25.3C1008.54,165.06,1009.91,161.57,1012,162.64Zm27.93,52.25c1.75-5.67.25-12.44-2.33-18.71C1038.94,201,1040.48,208.49,1039.88,214.89Z"/>
            <path class="ea8e7c12-029d-4a83-ba76-8b19bf4ed1c8" d="M1058.2,71c2.34,10.47-2.33,21-10.41,27.64-1,.85-2.12-.8-1.1-1.67h0a1.38,1.38,0,0,1-1.09-.09c-.35.09-.7.21-1.06.28a1.44,1.44,0,0,1-1.63-1.37c-.08-.9-.1-1.8-.12-2.69a1.21,1.21,0,0,1-1.32-1.33c0-.15,0-.29,0-.43h0v0a23.22,23.22,0,0,1,2.74-10.78,1.72,1.72,0,0,1,2-.86c.59-1,1.22-1.93,1.91-2.85a1.45,1.45,0,0,1,2.44,1.56c-.28.74-.54,1.48-.81,2.21.93-1.33,1.89-2.63,2.93-3.89a1.6,1.6,0,0,1,.73-.49l2.31-5.16C1056.19,70,1057.92,69.76,1058.2,71Zm-2,5.58q-1,2.38-2.11,4.77a1.43,1.43,0,0,1,.22.77,20.41,20.41,0,0,1-.2,3.33,1.44,1.44,0,0,1,.58,0A24.49,24.49,0,0,0,1056.18,76.62Z"/>
            <path class="ea8e7c12-029d-4a83-ba76-8b19bf4ed1c8" d="M926.73,29.09A44.91,44.91,0,0,0,921,17c-4.45-5-10.89-7.26-17.78-2.54a1.79,1.79,0,0,1-2-3c.13-.09.26-.15.39-.23s0,0,0-.06a30.37,30.37,0,0,1,3-1.82s0,0,0,.06.29-.2.43-.31c2-1,3.81-1.5,5.11-1.26a19.56,19.56,0,0,0,6.28.11c.37.17.75.34,1.11.54a23,23,0,0,1,8,8.55,30.18,30.18,0,0,1,4.34,10.29c0,.07.05.14.07.21h0c0,.16.09.31.12.46C930.48,30.1,927.31,31.06,926.73,29.09Z"/>
            <path class="ea8e7c12-029d-4a83-ba76-8b19bf4ed1c8" d="M1021.45,76.61c10.29,5.64,19.26,12.93,21.46,26.15,1.85,11.11-2,24.55-11,31.6-.67.53-1.48-.35-.94-1.08,6.55-9,11-18.46,8.89-29.78-2.28-12.16-10.59-18-19.87-23.41C1018.1,79,1019.52,75.55,1021.45,76.61Z"/>
            <path class="ea8e7c12-029d-4a83-ba76-8b19bf4ed1c8" d="M1061.16,42.69a.71.71,0,0,1,1.36.38c-1.83,11.36-8.37,24-18,29.79-8,4.84-18.2,4.09-23.51-3.76-1.15-1.71,1.33-3.72,2.54-2.1,6.16,8.22,16.77,6.74,24.23-.24C1054.78,60.18,1057.12,51.2,1061.16,42.69Z"/>
            <path class="ae42cd22-2187-4d42-89be-83f630e081c4" d="M919.82,287.86h0c1.38-1.77,1-5.68,1.63-7.82A14.11,14.11,0,0,1,937.07,270a10.52,10.52,0,0,0,6.88-1.38c4.26-2.77,9.71-3.45,14.09-.75l11.42,7.05,2.57,1.59A4.07,4.07,0,0,0,977.2,275c1.89-2.95,3.42-6.92,5-10.66.86-2.07.8-3.77-.23-3.81-.86,0-1.53-.07-1.87-.06-10.23.16-20.46.84-30.69,1.27-17.56.72-15.11-27.62,1.79-29.41,7-.74,19.19-2.28,31.21-2.13,2.21,0,4.56-.57,5.34-1.32s-.16-2.06-1.73-3.6a13.1,13.1,0,0,1-3.22-5.12c-.7-2.09-1.41-5.57-2-7.71-.07-.27-.13-.53-.19-.8a33.22,33.22,0,0,0-3-7.11,17.69,17.69,0,0,1-2-8.05,23.92,23.92,0,0,1,3.12-12.65c1.11-1.95,2.14-3.39,2-3.43l-.36-.08c-15.75-2.5-9.24-28.19,5.19-29.09a55.07,55.07,0,0,1,6.55,0c2.22.13,2.85-7.86,4.47-9.42,3.16-3,9.44,2.07,13.91,3.54l.43.16c.23.1,2.08-.62,4.25-1.13,16.2-3.72,31.33,14.33,25.44,33.54-2.5,8.19-8.93,14.61-16.2,16.5a5.15,5.15,0,0,0-4,4.59,47,47,0,0,1-1.57,9.79c-.58,2.16.65,3.68,2.79,4.2a11.88,11.88,0,0,1,2.28.8,8,8,0,0,0,6.7.06,19.38,19.38,0,0,1,8.29-2.28c9.92-.41,18.61,8.26,19.4,18.92.58,7.83-2.34,13.39-6.7,16.69-1.79,1.36-3.2,3.37-3,5a28,28,0,0,0,1,5c.39,1.17,1.91,1.08,3.8-.12a39.75,39.75,0,0,1,10.21-4.73,26.5,26.5,0,0,0,7.1-3.39,34,34,0,0,1,4.69-2.84c2-1,3.58-3.45,4.43-5.52a11.47,11.47,0,0,1,1.91-3.09c1.47-1.7,3.15-3.29,3.23-4.24,0-.55.13-1.12.24-1.7a17.12,17.12,0,0,1,3.5-7.44c1.4-1.76,3.55-4.6,4.85-6.43,3.75-5.31,9.71-8.41,16.67-6.2a14.85,14.85,0,0,1,7.83,5.7,50,50,0,0,1,4,6.88,14.46,14.46,0,0,1,.79,2.16A23.25,23.25,0,0,0,1126,233c4.45,5.89,4.93,15-2.52,20.92a13.41,13.41,0,0,1-4.06,2.22c-2.11.72-4.14.94-4.37,1.21l-.43.48-.12.1a8.55,8.55,0,0,0,1,2.3,22.43,22.43,0,0,0,1.26,2.1c4.17,7.45-4,14.56-10.36,13.57-5.12-.8-10.23,1.14-15.35,3.16a9.7,9.7,0,0,0-4.91,5.35c-3,8.65-8.61,16.63-14.88,20.88-7.61,5.15-16.85,6.21-24.57,2.33-3-1.48-4.56-3.35-7.22-5.6-7.21-6.12-14.14-6.82-23.17-5.94a34.52,34.52,0,0,1-14.61-1.76,5.29,5.29,0,0,0-5.95,1.7,41.13,41.13,0,0,1-9.62,9.79c-7.06,4.76-14.32,4-21.29,1a5.2,5.2,0,0,0-5.9,1.64,21.62,21.62,0,0,1-10.88,7,16.13,16.13,0,0,1-12-.75,7.79,7.79,0,0,0-6.75,0,32.22,32.22,0,0,1-8,3.08c-15.61,3.76-21.23-19.91-8.81-27C914.4,289.71,918.44,289.63,919.82,287.86Z"/>
            <path class="ae42cd22-2187-4d42-89be-83f630e081c4" d="M1025.09,108.57c-2.22.17-4.08.29-4.32-.34s.21-2.87.35-5.09c.38-6.3-3.7-11.49-9.46-14.36a13.66,13.66,0,0,0-3-1.08c-1.7-.4-2.07-1.93-1.76-4.14a7.83,7.83,0,0,0-2.1-6.61,17.57,17.57,0,0,0-2.26-2.08,2.58,2.58,0,0,1-.66-3.73,9.71,9.71,0,0,0,1.13-2.58l.33-1.14c.86-3,.9-6.89-1.54-9.18-11.79-11-27.65,2.29-28.36,16.22a17.41,17.41,0,0,0,.53,5.28c.55,2.14,1.29,4.07,1.16,4.49-.08.24-.16.49-.22.75-2.59,10.7,3.88,18.88,11.43,25.67a25.91,25.91,0,0,1,4.24,5c.76,1.29,1.38,3,1.2,3.78-.11.51-.23,1-.33,1.5a23.54,23.54,0,0,0-.41,7.54c1.3,11.36,11.08,18.66,22.18,18.37,10.7-.28,18.94-7.6,24.1-16.59,3.8-6.62,3.24-15-3.31-19.46A14.06,14.06,0,0,0,1025.09,108.57Z"/>
            <path class="ae42cd22-2187-4d42-89be-83f630e081c4" d="M1262.61,119.54c5.44-8.21,5.73-13.12,11.4-5.2,5.34,7.46,3,14.81-2.76,17.65-4.65,2.3-4.32,15.66-7.73,19.87s-8.23,7.79-13.61,8.85l-.36,0c-.2,0-.17,1.85-.34,4.07a15.26,15.26,0,0,1-5.09,10.6c-7.4,6.89-18.16,1.47-23.43,10.9-4.52,8.11-4,16.8-12.85,22.38a20.79,20.79,0,0,1-12.52,3.36,11.43,11.43,0,0,0-7,2c-9.82,7.68-23.35,10.08-34.73,3.77-10.45-5.8-14.83-22.82.88-25.26,5.9-.92,9.32,3.31,9.54,7.8.11,2.21,1.14,4,3.34,3.61a22.37,22.37,0,0,0,2.9-.73,33.43,33.43,0,0,0,7.41-3.21,9.55,9.55,0,0,0,1.9-1.75c1.43-1.73,2.94-5.2,4.89-6.3a9.44,9.44,0,0,1,9.91.28c6.69,5,9.08-16.11,10.62-19.07a22.81,22.81,0,0,1,6.71-8.19c8.35-5.82,18.44,1.14,17.67-11.64-.25-4.23,1.36-8.23,5.44-10.21,7.23-3.5,12.6-.75,18-9.47,1.57-2.52,1.59-5.36,3.29-7.87S1260.9,122.14,1262.61,119.54Z"/>
            <path class="e2d89cf6-647a-46cc-8e5c-c3d331924059" d="M938.84,190.69a27.19,27.19,0,0,0,8.1,13.71,3.59,3.59,0,0,1,.53,4.82L939.29,220a16.23,16.23,0,0,1-5.25,4A28.48,28.48,0,0,0,922.42,234c-1,1.58-1.93,2.48-2.24,1.9a9.55,9.55,0,0,0-.62-1,25.18,25.18,0,0,0-2.53-3.19,21.21,21.21,0,0,0-2.1-1.93c.22.16.22.19.05,0a2.21,2.21,0,0,1-.28-.32c-2.43-2.75-6.43-3.91-9.89-4a11.62,11.62,0,0,0-6.46,1l-1.92,1.11a24.8,24.8,0,0,0-4.4,3.47,25.34,25.34,0,0,0-5.11,7.26,30.75,30.75,0,0,0-2.7,13.4,19.23,19.23,0,0,0,4.9,12.71c1.22,1.38,1.7,3.21.9,4.38-.46.68-.91,1.39-1.36,2.15a42.2,42.2,0,0,0-3.87,8.55,3,3,0,0,1-4,2,16.35,16.35,0,0,0-12.14.64,33.57,33.57,0,0,0-14.5,14.15,15.42,15.42,0,0,1-2.27,3.48,23.73,23.73,0,0,0-3.5,2.05,39.78,39.78,0,0,0-4.75,4.63,21.38,21.38,0,0,0-3.48,5.58l-2.23,6.67a23.49,23.49,0,0,0-.6,2.74c-.24,1.53-1.84,3-3.57,3.76a16.5,16.5,0,0,0-4.55,2.87c-.73.65-2.62,2-4,3.24a17.07,17.07,0,0,0-5.69,11.5,15.21,15.21,0,0,0,7.41,14.82c2.82,1.61,5.76,1.75,8.92,1.76a8.2,8.2,0,0,0,1.84-.18,22.26,22.26,0,0,0,9.56-4.32,6.38,6.38,0,0,1,5.54-1.16,26,26,0,0,0,9.49,1,17.7,17.7,0,0,0,6-1.54,43.41,43.41,0,0,0,5.92-3.4,20.84,20.84,0,0,0,4.66-4.54A26.64,26.64,0,0,0,882,340.4a19,19,0,0,1,4-5.11,29.28,29.28,0,0,0,2.37-2.24c3.95-4.19,5.79-10,6-15.74a2.91,2.91,0,0,1,3.27-2.92A23.19,23.19,0,0,0,920,300.27c.72-1.75,1.4-1.48,2.94-2.57a58.14,58.14,0,0,0,6.57-6.16l.26-.28c.14-.15,1.54.49,3.23,1.26a27.57,27.57,0,0,0,5.9,1.93c13.28,2.7,18.85-4,29-11.51a18.22,18.22,0,0,1,1.81-1.2A11.31,11.31,0,0,1,975,281a120.84,120.84,0,0,0,17,.13,21.77,21.77,0,0,0,3.93-.67c1.81-.5,4-1.24,5-1.43a8.85,8.85,0,0,1,4.72,1.24,105.94,105.94,0,0,0,29.36,11c15.47,3.31,20.54-19.5,9.14-27.3a258,258,0,0,1-22-16.8,8.25,8.25,0,0,1-2.45-5.57c0-6.9-1.38-13.53-4.68-19.17a14.55,14.55,0,0,1-1.69-6.17,24.47,24.47,0,0,0-12.42-20.8c-1.61-.92-3-2.14-3-3,0-.51,0-1,0-1.54a38.5,38.5,0,0,0-3-15,19.21,19.21,0,0,1-1.34-6.4,36,36,0,0,0-16.15-29.91c-1.54-1-2.87-2.18-2.88-2.72a15.63,15.63,0,0,1,1.66-3.94,37.44,37.44,0,0,0,2-29.55c-4-11-11.65-17.18-22.47-18.51a36.52,36.52,0,0,0-14,1.36,6.57,6.57,0,0,1-5.62-1.43c-7.42-6.79-17.74-9.76-29.79-5.71a21.88,21.88,0,0,0-6.6,3.57,9.3,9.3,0,0,1-5.86,1.76c-10-1-20.44,4.1-25.07,16.3-.67,1.76-1.2,3.4-1.39,3.6l-.35.36c-16.85,15.77-12.51,39.74,7.31,46.44a24.11,24.11,0,0,0,7.7,1.29,13.83,13.83,0,0,1,6.17,1.6,40.63,40.63,0,0,0,5.06,2.57,34.44,34.44,0,0,0,11.45,2.64,7.17,7.17,0,0,1,5.06,3A25.51,25.51,0,0,0,921,171.7a10,10,0,0,1,4.39,4.28A22,22,0,0,0,935.22,186,7.7,7.7,0,0,1,938.84,190.69Z"/>
            <path class="e2d89cf6-647a-46cc-8e5c-c3d331924059" d="M863.83,81.63c.2,0,.13.39-.07.35S863.62,81.59,863.83,81.63Z"/>
            <path class="e2d89cf6-647a-46cc-8e5c-c3d331924059" d="M816.79,53.14a19,19,0,0,1,3-4.76l4.14-4a16.7,16.7,0,0,1,4.27-2.56,27.33,27.33,0,0,1,6-1.62,26,26,0,0,1,6.14.27A14.31,14.31,0,0,1,845,42.19c4.42,2.58,9,7,10.07,12.65a45,45,0,0,1,1.24,10,39.88,39.88,0,0,1-.76,6.82,18.52,18.52,0,0,1-.77,3.55A18.78,18.78,0,0,1,852,80.53a22.89,22.89,0,0,1-1.46,2,25.53,25.53,0,0,1-5.13,4.73,19.88,19.88,0,0,1-9.64,3.94,18.12,18.12,0,0,1-17.64-8.94,19.5,19.5,0,0,1-2.93-6.2,22.09,22.09,0,0,1-.89-7.64,18.41,18.41,0,0,0-.12-3,19.82,19.82,0,0,1,.44-5.87A42.23,42.23,0,0,1,816.79,53.14Z"/>
            <path class="a9eab1f6-9d4c-4ffa-8db5-86b350ef78e4" d="M1263.14,129.16c-1.28-5.83-8.73-5-10,.5-.4,1.71-.28,3.42-.81,5.12a11,11,0,0,1-.6,1.36,9.18,9.18,0,0,0-3.24.53c-1.48-4-8.43-5.14-10.74.1-5,11.33-3.08,12.79-17.16,10.79-3.8-.54-5.6-1.9-9.14-.88-6.54,1.89-8.8,6.83-8.07,13a4.79,4.79,0,0,0,1.11,2.57c-2.79-.55-5.86-.54-8.4,1.15-5.6,3.72-4.56,9.42-2.77,14.85a22.33,22.33,0,0,0-6.68,1.48c-3.68,1.53-7.5,6.79-11.73,7.57a6,6,0,0,0-2.47-2.27c-.54-3.26-2.67-6.34-7.17-8.67a10.78,10.78,0,0,0-6.91-1.15c-.36-.42-.69-.84-1.1-1.26-1.86-1.92-4-2.16-6.47-1.34a34.27,34.27,0,0,0-17,11.83c-7.13-1.92-15.69.55-22.38,5.31a14.41,14.41,0,0,0-6.75,1.11,30.59,30.59,0,0,0-4-9.1c-.42-4.47-3.45-7.94-7.5-10a13.75,13.75,0,0,0,6.84-7.33,6,6,0,0,0-.41-4.82,11.52,11.52,0,0,0,3.51-.58c4,5.13,9.13,9.94,14.3,10.77a12.16,12.16,0,0,0,2.95.59,5.81,5.81,0,0,0,2.49-.43,5.13,5.13,0,0,0,8.36,2.89,40.89,40.89,0,0,0,7.86-7.8,15.13,15.13,0,0,0,6.13-2.62,11.2,11.2,0,0,0,1.67-1.53,39.43,39.43,0,0,0,15.36,2.84c7.11-.1,8.49-10.63,1.17-11.23a39.88,39.88,0,0,1-14.45-3.62c10.34-3.59,10-18.6-.89-22.49-4.85-1.74-8.63,4.15-6.16,7.86a8,8,0,0,0-1,.69c-6.41-3-15.47.58-14.06,9.91l-.18,0c-11.63-8.44-31.94-16.4-36.06,0-4.55,1.14-8.84,3.07-11.73,5.94-1-.2-2-.38-3-.54a12.48,12.48,0,0,0-10-.79,68,68,0,0,0-16.83,2.17,6.78,6.78,0,0,0-2.63,1.4c-4.64-4.48-9.46-4.53-13.53-2.17.1-1.41.26-2.85.46-4.29a27.7,27.7,0,0,0,2.55-3.32,5.81,5.81,0,0,0-6.43-8.87c-.26-3.19-3.09-6.44-6.84-6-.62.08-1.19.19-1.74.31l-3.87-3.35c-.64-4-3.12-7.64-8.17-9.85-2.51-1.1-5.31.18-6.85,2.31l-6.69-5.13a59.52,59.52,0,0,1-4.63-4.51l.19-.05c6-.32,5.11-9.34-.26-10.1l-.7-.09a5.94,5.94,0,0,0-2.84-2.23c-6.17-2.05-13.32,1.16-13.81,8.59s7.89,14.4,15.94,20c-3.55,2.19-5.8,5.78-4.94,11.31,1.07,6.92,5.46,8.68,10.34,8,6.18,3.84,12.75,1.5,17.2-3.23.3.1.59.18.9.26a14.76,14.76,0,0,0,3.14,6.79c-3.79,8.66-2.13,18.93,7.23,24.46,0,.15,0,.3,0,.45,2.72,15.9,19.41,38.12,37.44,24.7.16-.12.28-.26.44-.39a44.76,44.76,0,0,0,8.35-2.54,44.31,44.31,0,0,0,7.6-2.23,9.32,9.32,0,0,0,6.56,5.71c.21.43.43.84.65,1.23a5,5,0,0,0,6.29,2.46c0,.08.07.19.12.27-2.6,3.11-3.52,6.19-2.29,9.83-.86,1.14-1.73,2.28-2.59,3.43-3.76,0-6.93,3.05-7.72,7-5.07,2.18-8.86,5.72-12.43,10.37l.3-.23.05.05-.44.3c-.17.22-.34.42-.51.65-3.64,4.9,2.91,10.1,7.43,6.72,2.08-1.56,10.49-4.35,16.41-8.26,4.92-.22,10,.13,14.53-1.77,4.09-1.69,9.14-9,14.71-11.32a20.21,20.21,0,0,0,13.59,4.9c4.31,0,7.36-4.89,4.42-8.39a24.61,24.61,0,0,0-4.07-3.89c-.48-1.44-1-2.89-1.43-4.33a5.12,5.12,0,0,0,1.15.24c10.16.75,14.95-8.76,11-15.88a24,24,0,0,1,6.21-5.42,10.63,10.63,0,0,0,2.11,8.23,26.88,26.88,0,0,0-1.72,3.62,5.43,5.43,0,0,0,6,7.23,22.36,22.36,0,0,0,11.26-5.81l.7-.25a14,14,0,0,0,9.21,2.81c10-.87,12.76-12.36,23.83-12.28,3,0,7-2.78,5.91-6.37-3.87-13,4-2.29,11.86-4.31a15,15,0,0,0,10-10.27,14.11,14.11,0,0,0,.37-5.46c3,.16,5.59,0,6.77-.58,4.82-2.29,7.65-7.82,9.85-13.23a5,5,0,0,0,6.26-2.54c1.78,1.11,4.27,1.27,5.81-.39C1260.94,141.7,1264.39,134.94,1263.14,129.16Zm-225.57,49.05c-.62-1.36-1.19-2.75-1.69-4.15a25.92,25.92,0,0,0,3.59-.93A14.28,14.28,0,0,0,1037.57,178.21Zm32.33-13.73a5.22,5.22,0,0,0-.7,2.36c-2.2-1.56-3.56-4.13-.57-6.06a3.18,3.18,0,0,1,.3-.17c.52,0,1,.06,1.57.11a2.89,2.89,0,0,1,.23.3C1071.52,162.35,1070.57,163.39,1069.9,164.48Zm33,50.27a18.8,18.8,0,0,0,.14-3.19l.66.28a19.09,19.09,0,0,0,1.53,1.15C1104.46,213.56,1103.68,214.16,1102.92,214.75Zm105.89-50.58a6.4,6.4,0,0,0,2.36-.43C1212.9,167.18,1212.09,167.29,1208.81,164.17Z"/>
            <path class="a9eab1f6-9d4c-4ffa-8db5-86b350ef78e4" d="M1065.44,232.23l.09-.12C1065,232.53,1065,232.52,1065.44,232.23Z"/>
            <path class="ff5c68f5-c4a1-4ecb-9c97-766439777578" d="M1037.47,57.44a10.82,10.82,0,0,0-4.27-2.07,41.32,41.32,0,0,0-4.72-.54c-.24,0-.48-.11-.72-.14s-.63-.1-.93-.19a5,5,0,0,0-6.13,2.92,13.21,13.21,0,0,0-.89,4.16,3.55,3.55,0,0,0-.23.31c-2.09,4.39,1.64,9,6,9.49a6.69,6.69,0,0,0,1.9-.1c3.91,1.64,8.54,1.23,11.46-2.65A8,8,0,0,0,1037.47,57.44Z"/>
            <path class="a50d0c60-3f81-4b32-bd0c-23f23b7fad54" d="M1035.18,49.27c-5.9-3-13.84-4.33-20.3-1.94-6.08,2.25-8,9.14-3,13.4a3.85,3.85,0,0,0,4.07.64,9.06,9.06,0,0,0,2.65,2.8c4.41,3,10.22.9,12.77-3.61a18.57,18.57,0,0,0,4.15-2C1039.35,56.07,1039.25,51.31,1035.18,49.27Z"/>
            <path class="a50d0c60-3f81-4b32-bd0c-23f23b7fad54" d="M793.36,47.47c2-9.52,8.18-21.73,15.87-26.73-.13-6.29,2.58-12.51,9.23-16s11.9-2.45,15.71.93c4-9.36,15.4-14.91,24.12-9.19,8.36-.12,14.33,7.66,15.78,16.47a18,18,0,0,1,2.2-5.27C880.5.83,885.92-1.07,890.63.16a34,34,0,0,1,10.15-3.57,4.33,4.33,0,0,1,.79-.27A17.19,17.19,0,0,1,910.78-6a18.42,18.42,0,0,1,8.62-4.83,25.84,25.84,0,0,1,14.44-2.45,12,12,0,0,1,9.55,6.88c.41-.59.79-1.2,1.24-1.75-.14-4.23,1.5-8.36,5.85-10.63,7-3.68,13.72,1.88,13.11,9.93-.09,1.22-.26,2.45-.46,3.69,3.38,1.61,5.52,5,4.09,10.28a17.6,17.6,0,0,1-.73,2.11c1.54,6.68-3.14,13.87-9.25,15.5a8.89,8.89,0,0,1-8.73,3.67c-5.41,1.66-11.65-.27-13.42-7.7a12.55,12.55,0,0,1-.26-4.05c-5.77,3-13,3.48-18.53,2.52A17.41,17.41,0,0,1,909,14.34l-3.52,1.28a19.71,19.71,0,0,1-9.56,15.11,15,15,0,0,1-3.29,1.36c-.08.64-.14,1.27-.25,1.92A21.13,21.13,0,0,1,891,40.67a6.79,6.79,0,0,1-2.06,2.86c0,.35,0,.7,0,1,3.22,2.79,3.06,7.4-.62,10.11l-3.38,2.5a4.83,4.83,0,0,1-5.22,0l-.57-.2-.93,3.77c-1,4-9.43,7.67-11.69,4.21-1.22-1.07.25-3.77-1-4.84a4.7,4.7,0,0,1-3-1.65l-1.25-1.59c-3.13-4,.57-11.63,5.67-9.69.88.33,1.69.69,2.46,1.06a23.09,23.09,0,0,0,1.55-8.35,4.48,4.48,0,0,1-2.06-.74,29,29,0,0,1-5.37-4.58c-3.58.7-7-1.06-9.62-4.17-3.1,5.78-10.78,6.33-16.09,2.36a5.34,5.34,0,0,1-6.53-1.87,9.69,9.69,0,0,0-3.31,1.25,5.73,5.73,0,0,1-4.26,3.15l-.18.15a6.68,6.68,0,0,1-2.52,2c-3.24,2.3-6.59,3.39-10.72-.76a10.6,10.6,0,0,1-1.51-1.92,51.85,51.85,0,0,0-4.48,12.1c2.9,3.16,4.58,6.42,6,11.6a5.47,5.47,0,0,1-2.84,6.28,5.41,5.41,0,0,1,2.11,4.52,4.35,4.35,0,0,1-.06.55L811,70.84c6.76.55,6.08,12.25-.71,11.67-8.43-.72-19.36-4.23-18.7-15.79a13.31,13.31,0,0,1,5.3-10.34L795.47,54A6.18,6.18,0,0,1,793.36,47.47Z"/>
            <path class="a50d0c60-3f81-4b32-bd0c-23f23b7fad54" d="M1039.12,195.37c-4.5-7.41-5.67-17.44-.58-23.29-.44-3.71.45-7.74,3.42-11.92,7.26-10.19,22.67-7.23,23.07,5.92a17.68,17.68,0,0,1,3.74.8c11,.06,18.84,12.4,20.68,23.87a46.16,46.16,0,0,1-2.55,22.82l4.27.46c1.71-8.66,7.75-15.92,15.62-16.36,12.2-8.1,17.08,4.63,20.41,17.06a20.54,20.54,0,0,1,21,17.44c2.89,16.13-7.31,24.19-18.53,30.35,0,.12,0,.24-.06.35,3.6,3.18,5.29,8.72,3.35,14.45-3,9-14.08,13.19-21.74,11.33-.16,0-.32-.11-.48-.16a25.44,25.44,0,0,1-18.23,1.79c-5.65-1.54-4-12.14,2-11.48a25.85,25.85,0,0,0,7.86-.28,10.43,10.43,0,0,1,2.14-7.3,8.83,8.83,0,0,1,8.53-3.68,9.32,9.32,0,0,1,2.91,1c.11-.2.21-.44.32-.64a5.76,5.76,0,0,1,1.58-6c.16-1,.32-2.11.49-3.16-2.72-3-.93-8.84,3-9.78a19.25,19.25,0,0,0,8.78-3.72,12.82,12.82,0,0,0-.18-5.3,4.29,4.29,0,0,1-4.44-1.22c-1.81-2.2-3.17-7.76-4.67-13.18l-.11,0a4.68,4.68,0,0,1-.75.17,16,16,0,0,1-3,3.15c-5.92,4.6-14.17,2.12-17.43-3.69a4.52,4.52,0,0,1-3.73,1.49l-5.23-.56,1,2.47c4.22,2,2.44,8.23-.64,10.54-6,4.47-11.93,6-18.17,4.75-4.81,10.11-14.67,22.31-24.15,14.5-3.63-3-4.67-7.9-3-12.82.88-2.59,2.94-4.34,4.43-6.51a24.26,24.26,0,0,0,7.26-9,23.85,23.85,0,0,1-5.76-9.75,49.6,49.6,0,0,1-13.32-17.68,6.67,6.67,0,0,1,1-6.88C1039.25,195.55,1039.18,195.47,1039.12,195.37Z"/>
            <path class="a081aa57-0059-4613-9acd-596aa441311f" d="M1041.35,158.92c3.5-1,7-2.07,10.5-3.08s2.61-6.63-.88-5.58l-6.66,2c-2.14.63-3.67-.79-4.66-2.75s-2.86-2.94-6.13-1.8a8.51,8.51,0,0,0-2.33,1.21c-1.16.88-2.1.19-2.53-2-.52-2.56-1.19-5-2.8-6.62a10.56,10.56,0,0,0-5.92-3c-2.19-.33-4-.33-4-.82a12.47,12.47,0,0,0-.18-4.08,11,11,0,0,0-4.36-5.51l-.06,0a12.57,12.57,0,0,0-5.54-1c-.93,0-2.25-1.57-3.28-3.51a17.28,17.28,0,0,0-4-5.11c-1.69-1.41-4.49-3.32-6.08-4.84-2.21-2.11-4.82-3.45-7.59-2.89-9.18,1.87.11,14.55-7,18.81-3,1.8-.8,6.75,2.26,4.93,3.55-2.12,8.76-4.36,9.53-8.6.16-.92-3.07-6-2.87-6.38a4.14,4.14,0,0,1,.84-1.16c.6-.51-.26,1.25.34,3.37a8.12,8.12,0,0,0,2.68,3.82c1.68,1.42,3,2.06,2.51,2.27-.3.13-.61.27-.91.43a2.87,2.87,0,0,0-1,4.37c.58.62,1.15,1.23,1.73,1.81,1,1,1.2,3.54,1.69,5.69a4.89,4.89,0,0,0,3.6,3.8A32.19,32.19,0,0,0,1006,144a5.32,5.32,0,0,0,.69,0c2.22-.23,4.32-.48,5.38-.17s3.75.2,5.81,1q6.6,2.53,5.12,7.74a13.73,13.73,0,0,0-.21,1.55,9.43,9.43,0,0,0,.58,3.23,6.38,6.38,0,0,0,.79,1.59,6.94,6.94,0,0,0,2.1,1.87c1.34.8,2.67,1.39,2.74,1.76s-.81,2.35-.84,4.57a7.49,7.49,0,0,0,2.59,5.66c1.62,1.55,4.76,1,5-1.62a10.87,10.87,0,0,0,0-1.8,18.42,18.42,0,0,1,.5-4.84,38,38,0,0,1,1.14-3.71C1037.47,160.42,1039.21,159.56,1041.35,158.92Z"/>
            <path class="a081aa57-0059-4613-9acd-596aa441311f" d="M1151.31,151.12c-.07,0-.18-.87-.44-1.89a23.84,23.84,0,0,0-.79-2.51,3.06,3.06,0,0,0-.33-.65c-.2-.3-.43-.56-.65-.83a10.92,10.92,0,0,0-2.49-2.66,15.26,15.26,0,0,0-7.21-2.28,12.45,12.45,0,0,0-5,.82c-2.08.82-5.5,1.44-7.27,2.82a7.24,7.24,0,0,0-2.21,3.36,2.56,2.56,0,0,0-.15.8c0,.44-.74-.89-2.54-2.15a5.49,5.49,0,0,0-7,.18,2.18,2.18,0,0,0-.3.31c-.15.18-1.6-1-3.65-1.76a11.61,11.61,0,0,0-7.18-.37,12.54,12.54,0,0,0-3,1.14,13.11,13.11,0,0,1-6.39,1.56,14.05,14.05,0,0,0-9.84,2.74c-.29.23-.56.48-.83.74-.43.42-2.68,1.23-4.14,2.93a7.61,7.61,0,0,0-1.74,4.23,6.33,6.33,0,0,0,4.89,7.09,6.64,6.64,0,0,0,1.05.15,17.34,17.34,0,0,0,4.95.7c3.71-.31,6.91-3.36,5.38-8.45a.67.67,0,0,0-.07-.18,4.88,4.88,0,0,0,.14-2.06c-.24-1-.29-2.16,1.1-2.52s3.28,1.88,5.34,2.37,4.25-.48,5.13.37a4.4,4.4,0,0,1,1.21,3.14,4.78,4.78,0,0,0,.22,1.62c1.15,3.85,4.43,5.1,7.93,4.6a25.77,25.77,0,0,1,6.34-.34c1.45.24,3.05.15,3.58.37a6.65,6.65,0,0,0,1,.33,4.81,4.81,0,0,0,3.72-.17,6.45,6.45,0,0,0,2.43-1.95c1.08-1.37,1.78-1.35,3-.65a2.86,2.86,0,0,0,2.51.12l5.36-2.14c2.08-.82,3.92-1.48,4.12-1.5l.36-.06a11.12,11.12,0,0,1,5.71.25c2.15.52,4.53,2.66,6.45,3.72,4.62,2.54,13.47-.05,16-6.89a2.49,2.49,0,0,0-.88-2.86l-.62-.48a2.28,2.28,0,0,0-2.34-.17l-.59.36a2.46,2.46,0,0,0-1.14,1.74c-.19,1.17-1.22,1.59-3.36,1.49s-3.29-2.19-5.2-3.27a2.66,2.66,0,0,0-3.67.87c-.2.31-1,.36-2.19.3a5.41,5.41,0,0,1-3.11-1.68,2.73,2.73,0,0,0-1.54-.74Z"/>
            <path class="a081aa57-0059-4613-9acd-596aa441311f" d="M1261.21,128.42c-2.21.2-4.26,3.27-6.37,4l-.09,0c-2.1.76-4.9.08-6.6.42a3.09,3.09,0,0,0-2.31,1.93,36.34,36.34,0,0,1-4.21,8c-1.29,1.84-4.29,3.61-6.38,4.42a31.13,31.13,0,0,0-7.79,4.35c-1.78,1.36-3.81,2.6-4.71,2.7s-2.57.44-3.76.57c-.67.07-1.38.14-2.16.19-7.92.45-9.77-2.47-13-8.8-2.36-4.66-4.83-8.47-10.44-8.78a3.15,3.15,0,0,0-3.27,2.73,18.94,18.94,0,0,0,.22,9.44c.62,2.12,1.23,5.34,1.6,7.33s.84,5.23,1.44,7.28,2.92,4.56,3.9,6.3,1.26,3.1.76,2.93a7.46,7.46,0,0,1-.89-.35,3,3,0,0,0-3.93,2.52,52.08,52.08,0,0,1-1.45,9,5.64,5.64,0,0,1-5.17,3.87q-4.55.06-9.06.54c-2.21.23-4.48-1.38-6.21-2.74-2.34-1.85-5.89-2-9.35-1.06-2.16.56-3.7.52-4.21-.31a2.88,2.88,0,0,0-1.33-1.13,18.11,18.11,0,0,0-17.72,1.15c-1.87,1.25-3.25,2.58-3.44,2.53s-1.88-1-3.87-1.9a41,41,0,0,0-15.4-3.79c-1.32-.08-3,1-3,2.48,0,.52,0,1,0,1.37a1.78,1.78,0,0,1-1.69,1.62l-1.84.25c-3.42.49-2.57,5.73.83,5.27l7.18-1a2.46,2.46,0,0,0,1.29-.55c.61-.51.82-1.14.89-1.07a.78.78,0,0,0,.15.1,30.83,30.83,0,0,0,2.88,1.3c1.63.63,2.38,2.37,2.51,4.13a7.7,7.7,0,0,0,.9,3,6.14,6.14,0,0,0,1.84,2.1c1.27.91,2.58,1.44,2.59,1.79s0,.42,0,.64a2.84,2.84,0,0,0,4,2.08c4.39-2,7.62-6.69,7.19-11-.22-2.21-.07-4.93,2-5.72a12.54,12.54,0,0,1,3.66-.75c2.22-.12,4.13,1,4.44,1.71s.11,2.16.32,3.29a2.5,2.5,0,0,0,1.12,1.66,18.89,18.89,0,0,0,3.51,1.81c2,.79,4.85,2.59,6.89,3.4a7.82,7.82,0,0,0,7.59-1.14c1.76-1.4,4.08-3.58,6.29-3.82a92.89,92.89,0,0,1,14.67-.51,3.06,3.06,0,0,0,3-1.94,57.18,57.18,0,0,0,2.53-8.68c.46-2.18,1.75-3.69,3.1-3.47.78.13,1.59.23,2.45.3a3,3,0,0,0,3-4.18q-.69-1.8-1.47-3.51c-.87-1.91-1-3.5-.18-3.73s3.14.05,5.34.29a20.94,20.94,0,0,0,16.77-5.77c1.62-1.55,3.19-2.86,3.87-2.85a3.34,3.34,0,0,0,1.2-.21,19.09,19.09,0,0,0,9.53-7.25c1.28-1.85,3.26-4.87,4.58-6.69.57-.78,1.11-1.58,1.63-2.41a5.77,5.77,0,0,1,5.74-2.31c5.4.66,10.76-3.28,11.14-10.34A3,3,0,0,0,1261.21,128.42Z"/>
          </g>
          <rect class="e6ed3a0a-fd67-4533-9a44-250ad9d56bee" x="-13.7" y="-18.53" width="1627.41" height="937.06"/>
          <rect class="aa065501-2ae0-4f1d-a2d1-50074928f16f" width="1600" height="900"/>
        </g>
      </g>
      <g class="f8b9518e-26f0-4df2-9c6e-426373504fc9">
        <g>
          <g>
            <polyline class="a7fa20b6-a4f7-4d28-b0fb-b982c0f0b40b" points="-1913.73 -36.99 111.23 -36.99 111.23 678.09 -1913.73 678.09"/>
            <path class="bd6e2909-b915-4bf7-9c7a-b2e7bbed96be" d="M-1891.06,470.3l67.34,1.73v19.38l78.79.39,3.3-261,17.48-1.33,21.14,4.17v-2.43h-3V228.6h2.48v-6.84h1.32v7.5h4.57v-6.16h1.71v6.39l3.82,1.31-.37,2h-1v1.77l3.62.44v13.23l13.12-1.34v-2.43h.77v2h2.84V223.51l15.41-.67v-2.65h1.52v-6.4h-1.34v-2.41h4.57v9.69h1.15v3.3h9.69v-5.07h3.8v3.3h-1.32l.19,2.87,19.4,2.43-.17,34.16,11.8,1.53v4l2.09,2.41-2.4,184.06,13-.88,8,.21L-1587,432l8.53-.89V419.39l36.35-.46v-4.84l27.59-.25V409h3.07V380.78l2-2.32V363.81h8.29V352.56h3.4v1.1h4.2V335.81l1,.87v3.54l2.3.44V342h2.85l.19-2.21,1.53-.44v2.21l4,.22.57-2,2.3-.22.56,2,4.57.21-.2-1.77,2.1.24v1.31h3.8v-2.65l1-.44.19-3.52h1.71l.39,6.61,4.75.21.2-5.07,1.15.22.55,4.85,3.43,1.1.19-5.95h.76l.19,6.16,3.61.68.76-1.77v-2.43l1.9.22.19,4.63-.75,1.32.18,10.36,6.29.44,1.14,10.36,1,.22.76,1.75,3.42-.21.17-18.74,1.72.22.58,19.4,16.94.87-1.68,90.37h2.29v2l.78.68-.19,2.63-1.15.45-.37,19.18,2.28.66v2.41h-1.52l-.19,7.06s11.73-.21,12.18-.23c-.57,0,.38,2.65.38,2.65l6.66.21-1,2.63-1.15.68h-1.7l.77,13,1.53,1.09v14.33h2.85l1.24-169.72,19-3.77V346.53l21.88-3.77v-1.55h5.71l.77,1.11,51.94,2.39V356l21,1.76-.38-19.84,7.2-2.65,3-35.93,63.76.83,4.19,37.92,11.81.21-.21-4.18,2.11.2,2.06-30.42,8.58-1.32-.42-60.18,25.31.2,16.17,2,0-86.42,11.61-3.75h6.47v-3.53h1.13v3.09l17.33-.67v-4h1.14v3.52l10.28-.66v2.21h2.09v-2h13l15.79,6.17,21.68-1.78,5.53,3.08-2,182.07,15.41,2.42.55-26.68,8.19.23V295.59l21.31-2.66-.59-29.76,2.66-1.77,10.86-1.32,0-29.33,2.09-1.31s9.71-1.78,9.13-1.78,28.15-25.13,28.15-25.13h5.71l28.36,24.65,1.35.44.38,1.33,8.94,1.75-.19,30.2,13.71,2-.16,49.6,27.38.64.78-8.38H-841l.38,5.5h1.34l-.18,2.88,49.08,1.28.19,7.94,15.25-1.76.54-15.22,10.85-.45,4.18-12.34.38-5.74h2.46l1,4.64h4.17v-1.1h4.77v1.31l25.88-3.54v-1.77H-722v-3.74h8.16v5.73l6.66.23v-2.44l2.85-3.31,2.48.22v3.3l-1.53.24.77,2.41,1.53.22.57,4.63-.18,1.75,1.34-.2v4.18h1.13v3.08h11.79l-.9,93.47h-7.8l-.17,30,4.55.45,0,36.37,4,.2V441.31l2.28-.44.19-7.06,20,1.32v-2.21h20.15v2h8.76l.11-117.25,1.33-1.11,2.49-.22.19-1.11,1.9-.43.55-.89,5.9-.22.2-1.32,4.2-.24v-13l6.64-3.75,40.94,1.51v-1.53h4.55v1.32l19-.23.59,18.08,17.13.21L-530.33,530l3.07-.23.11-146.8,1.34-.22.19-3.3,11.22.21v2.86h3.23v-1.77h11v1.55h1.92l-.43-76.49,15.61-7.51-.21-12.78,14.08-7.73,42.64.65v5.93l2.84-.2,3.61-1.55v-2h1.52l1,1.1,9.89-.24v-2.2h-1l-2.18-2.53,1.71-2,2.37-2.78h2.87v-6.82h2.08v7.28l24-.47v-2h2.1v2.87l3.23,1.54.19,2.41-2.48,4.42.4,9.91,1.9,1.33h4.76l-.2.88,1.73.21v14.55h9.87v-2l1.72-2,2.67,2.21.42,73.17,2.86.88V397l8.17.65-.18,17.41,3.62.66.38,9,2.09.87.2,33.73,1.34.22-.14,81.55.74-.22.59-2.19h6.27v1.75c0,.88.58.88.58.88l.19,2.2,12-.22-.58-12.12s-2.09-2.43-3.23-2.65L-317,527h4.56v-1.55l4.37.21v.66l1.53.89.19.66h3.8l.39-1.11a5,5,0,0,1,2.09-1.32c1.34-.44,2.08,1.77,2.08,1.77h4.38l-.57-13.44,2.29-.44-.22-51.81,3.63-3.75h12.17L-276,328l4-.23V315.84l2.64.21.2,2.43,1.7-.44-.19-2.21,18.07.21,7.81-26,.38-4.42.76-.87.93-7.06,1.15,7.06,1.15,1.31.58,4,6.86,27.09,43,1.09,5.73.21,5.51,5.07.4,27.1,1.72.46.76,2.19,1.72.23-.14,95.88H-158l8.57,6.6-.18,13.89,4,.66-.19,13.45,7.06.21,0,40.11h3.41v-5.51l20.17-1.55v-9.47l1.73-2h2.65l.38-20.5,7.22-5.53h3.62v-2h-1.92v-17l9.53-6,42.44.63v17.85l-2.11,2.21.2,3.52h11.61l.19,8.62-1.13.87L-40,490l13.53,12.56,7.8.21v19.62h9.13l0,48.48H6.13L6.06,441.08h15.4v-2.21h2.11v2.43h2.64v-2h1.73v2h4.74v-3.74h1.14v3.52l17.89.87v-2.87l1.53-.66.58.66.36,1.77h2.68v-4.42H61v4H63.9V438h4.56v2.2l.78-.22,2.67-2.66V441l24.61.55.1,195.17-2012.11,1.3"/>
            <polyline class="ad013024-f6b0-4bce-b583-fe984efab85e" points="-1896.14 634.11 98.36 637.58 98.36 735.83 -1916.49 735.83"/>
            <polyline class="ec4fc1d3-3e66-45b6-a798-6a251a352050" points="-1913.73 705.69 103.7 711.21 114.91 920.99 -1913.73 920.99"/>
            <polyline class="f67403ac-3e70-43ee-8daa-a12d7e4b7da9" points="-1899.33 683.34 96.52 691.02 96.52 714.79 -1899.94 706.02"/>
            <g>
              <polygon class="bed17dcb-1d91-4ae2-b2d8-9e8c1cf3eb06" points="34.57 716.45 34.57 691.69 -20.12 691.42 -20.12 715.94 34.57 716.45"/>
              <polygon class="bed17dcb-1d91-4ae2-b2d8-9e8c1cf3eb06" points="132 717.69 132 692.93 77.31 692.66 77.31 717.18 132 717.69"/>
            </g>
            <line class="ff35c1d8-1f40-4117-ae36-71ef44a1fece" x1="98.36" y1="671.38" x2="-1893.51" y2="662.93"/>
            <line class="ff35c1d8-1f40-4117-ae36-71ef44a1fece" x1="-70.03" y1="645.54" x2="0.01" y2="692.66"/>
            <polyline class="f67403ac-3e70-43ee-8daa-a12d7e4b7da9" points="-1892.89 634.32 97.44 637.29 97.44 646.47 -1893.51 643.09"/>
            <g>
              <polygon class="bed17dcb-1d91-4ae2-b2d8-9e8c1cf3eb06" points="13.04 646.64 13.04 637.07 -41.65 636.96 -41.65 646.44 13.04 646.64"/>
              <polygon class="bed17dcb-1d91-4ae2-b2d8-9e8c1cf3eb06" points="104.03 646.64 104.03 637.07 49.35 636.96 49.35 646.44 104.03 646.64"/>
            </g>
            <rect class="aa065501-2ae0-4f1d-a2d1-50074928f16f" x="-1891.67" y="5.2" width="1985.44" height="893.45"/>
          </g>
          <rect class="e6ed3a0a-fd67-4533-9a44-250ad9d56bee" x="-1911.56" y="-16.81" width="2023.12" height="933.63"/>
        </g>
      </g>
    </g>
  </g>
</svg>
