<svg xmlns="http://www.w3.org/2000/svg" xmlns:xlink="http://www.w3.org/1999/xlink" width="1600" height="900" viewBox="0 0 1600 900">
  <defs>
    <style>
      .b663586e-992a-42cb-9987-80d3b35d4bdb, .ecd8177e-1d94-4284-b790-7e531600fcc0 {
        fill: none;
      }

      .b500cec4-39c6-47c1-a3bb-07a899c3581b {
        isolation: isolate;
      }

      .a6da2074-77ab-405f-b559-8d019bae47e1 {
        clip-path: url(#a8daac7b-ac84-40ed-b98c-87a94db2e7cd);
      }

      .ecd8177e-1d94-4284-b790-7e531600fcc0 {
        stroke: #f4f2f2;
        stroke-miterlimit: 10;
        stroke-width: 0.5px;
      }

      .b3008d4c-7fd3-4956-ab1b-95e6314b333b {
        fill: #964c27;
      }

      .fb04ac5f-9a75-43ba-82e7-2a3e1f4b477c {
        fill: url(#ac1c4607-54b0-45d7-a40c-bff137c3d558);
      }

      .a15e8757-6e4f-463d-8b66-376eaf7838d1 {
        opacity: 0.67;
      }

      .f7cd0891-caba-4eac-a30d-292aa32d217e {
        fill: url(#a2d34cfa-7cdc-4a49-ab49-1ae6f2465ae1);
      }

      .b0e468ec-48cf-4808-a0ac-ef80f9633bf3 {
        fill: url(#b323136b-53ac-4a66-a2d6-fa044bd2aefe);
      }

      .a4eca95a-ce77-43f3-8ff4-b6e681b0f4fd {
        fill: url(#f3c55f2a-a858-446c-b76d-fc0321c9b759);
      }

      .ac4c3fe7-a77b-4d30-98bf-df92b41b3f2d {
        fill: url(#a4e1291d-c146-4d5a-b040-d6f57883b831);
      }

      .a5e23cfc-fd7c-4317-9232-80fbb964da59 {
        clip-path: url(#bbe2d4c0-9ab7-4809-977d-2ced315209aa);
      }

      .a663e4c6-c118-4edf-99cc-61583376a08d {
        clip-path: url(#ae7a6887-7e31-443d-be81-245edb9cab28);
      }

      .a217fb6a-bc9a-4082-992e-f1eeb8b06e8f {
        fill: #472409;
        mix-blend-mode: color-burn;
        opacity: 0.25;
      }
    </style>
    <clipPath id="a8daac7b-ac84-40ed-b98c-87a94db2e7cd">
      <rect class="b663586e-992a-42cb-9987-80d3b35d4bdb" width="1600" height="900"/>
    </clipPath>
    <linearGradient id="ac1c4607-54b0-45d7-a40c-bff137c3d558" x1="802.84" y1="2273.1" x2="793.08" y2="-867.49" gradientUnits="userSpaceOnUse">
      <stop offset="0.32" stop-color="#d3fff3"/>
      <stop offset="0.44" stop-color="#c4f5f1"/>
      <stop offset="0.68" stop-color="#9bdbec"/>
      <stop offset="0.93" stop-color="#68bae5"/>
    </linearGradient>
    <linearGradient id="a2d34cfa-7cdc-4a49-ab49-1ae6f2465ae1" x1="390" y1="154.23" x2="451.27" y2="92.91" gradientUnits="userSpaceOnUse">
      <stop offset="0.15" stop-color="#82cdd9"/>
      <stop offset="0.82" stop-color="#d7eef4"/>
    </linearGradient>
    <linearGradient id="b323136b-53ac-4a66-a2d6-fa044bd2aefe" x1="173.05" y1="-463.84" x2="278.54" y2="-569.4" gradientTransform="matrix(0.92, -0.08, 0.09, 1, 218.47, 646.71)" gradientUnits="userSpaceOnUse">
      <stop offset="0.4" stop-color="#adcff1"/>
      <stop offset="0.51" stop-color="#b9d9f5"/>
      <stop offset="0.8" stop-color="#d2f0fc"/>
      <stop offset="0.98" stop-color="#dbf8ff"/>
    </linearGradient>
    <linearGradient id="f3c55f2a-a858-446c-b76d-fc0321c9b759" x1="1198.47" y1="113.04" x2="1260.75" y2="50.72" xlink:href="#a2d34cfa-7cdc-4a49-ab49-1ae6f2465ae1"/>
    <linearGradient id="a4e1291d-c146-4d5a-b040-d6f57883b831" x1="1436.74" y1="-696.01" x2="1550.14" y2="-809.49" gradientTransform="matrix(1.05, -0.1, 0.07, 0.8, -336.09, 811.35)" xlink:href="#b323136b-53ac-4a66-a2d6-fa044bd2aefe"/>
    <clipPath id="bbe2d4c0-9ab7-4809-977d-2ced315209aa">
      <rect class="b663586e-992a-42cb-9987-80d3b35d4bdb" y="1000" width="1600" height="900"/>
    </clipPath>
    <clipPath id="ae7a6887-7e31-443d-be81-245edb9cab28">
      <rect class="b663586e-992a-42cb-9987-80d3b35d4bdb" x="-158.53" y="540" width="2090.53" height="1775.96"/>
    </clipPath>
  </defs>
  <g class="b500cec4-39c6-47c1-a3bb-07a899c3581b">
    <g id="e42d5ff0-5f8e-41dc-8fe1-3cefac17c295" data-name="Layer 1">
      <g class="a6da2074-77ab-405f-b559-8d019bae47e1">
        <g>
          <g>
            <rect class="b663586e-992a-42cb-9987-80d3b35d4bdb" x="101.45" width="1327.3" height="900"/>
            <g>
              <g>
                <line class="ecd8177e-1d94-4284-b790-7e531600fcc0" x1="1218.79" y1="623.9" x2="1326.25" y2="623.9"/>
                <line class="ecd8177e-1d94-4284-b790-7e531600fcc0" x1="1217.75" y1="626.4" x2="1325.21" y2="626.4"/>
                <line class="ecd8177e-1d94-4284-b790-7e531600fcc0" x1="1216.78" y1="628.9" x2="1324.18" y2="628.9"/>
                <line class="ecd8177e-1d94-4284-b790-7e531600fcc0" x1="1216.72" y1="631.4" x2="1324.18" y2="631.4"/>
                <line class="ecd8177e-1d94-4284-b790-7e531600fcc0" x1="1215.68" y1="633.9" x2="1323.14" y2="633.9"/>
                <line class="ecd8177e-1d94-4284-b790-7e531600fcc0" x1="1214.64" y1="636.4" x2="1322.1" y2="636.4"/>
                <line class="ecd8177e-1d94-4284-b790-7e531600fcc0" x1="1214.64" y1="638.9" x2="1322.1" y2="638.9"/>
                <line class="ecd8177e-1d94-4284-b790-7e531600fcc0" x1="1213.61" y1="641.4" x2="1321.07" y2="641.4"/>
              </g>
              <line class="b3008d4c-7fd3-4956-ab1b-95e6314b333b" x1="1169.36" y1="536.41" x2="1388.6" y2="534.27"/>
              <path class="fb04ac5f-9a75-43ba-82e7-2a3e1f4b477c" d="M1643,1043.8c-18.22,0-78.21-25.69-96.43-25.69-96.88,0-191.4,58.72-288.28,58.72-100.43,0-220,16.51-320.41,16.51-122.72,0-207.65-134.49-330.36-134.49H-45.19V-104.77H1622.22Z"/>
            </g>
          </g>
          <g class="a15e8757-6e4f-463d-8b66-376eaf7838d1">
            <path class="f7cd0891-caba-4eac-a30d-292aa32d217e" d="M393.25,120.82s1.05-12.3,14.44-20.72,24.67-12.95,36.3-3.23,9.16,31.72,6.69,34.31c-4.79,5-15.1,11.64-42.63,5.18C391.48,132.48,393.25,120.82,393.25,120.82Z"/>
            <path class="b0e468ec-48cf-4808-a0ac-ef80f9633bf3" d="M336.56,101.64A52.4,52.4,0,0,1,364.16,65c24.46-12.73,40.4-18.76,54.5,5.22s7.78,62.5-1.84,66.82S366.87,143,342.3,126C342.3,126,333.51,118.33,336.56,101.64Z"/>
          </g>
          <g class="a15e8757-6e4f-463d-8b66-376eaf7838d1">
            <path class="a4eca95a-ce77-43f3-8ff4-b6e681b0f4fd" d="M1197.75,77.81s1.24-9.34,16.91-15.73,28.87-9.83,42.48-2.46,10.72,24.09,7.83,26.06c-5.6,3.82-17.68,8.84-49.9,3.93C1195.69,86.66,1197.75,77.81,1197.75,77.81Z"/>
            <path class="ac4c3fe7-a77b-4d30-98bf-df92b41b3f2d" d="M1128.59,64.93s4.3-20.5,34.2-32.69,49.35-18.21,66,1.4,8.22,52.69-3.54,56.9-60.69,7.84-90.15-5.22C1135.08,85.32,1124.57,79.29,1128.59,64.93Z"/>
          </g>
        </g>
      </g>
      <g class="a5e23cfc-fd7c-4317-9232-80fbb964da59">
        <g class="a663e4c6-c118-4edf-99cc-61583376a08d">
          <g>
            <rect class="b663586e-992a-42cb-9987-80d3b35d4bdb" x="-416.23" y="234.29" width="2613.17" height="2219.95"/>
            <path class="a217fb6a-bc9a-4082-992e-f1eeb8b06e8f" d="M1877.26,1476.82l.24,519-3907.08,2.72-.19-424.74,24.7.94,1.5,39.84,22.17,0-.75-62.11,130.75,4.61,0,51.54,153,1.06,6.35-694,33.94-3.53,41,11.09v-6.45h-5.91v-7h4.81V891.59h2.57v19.94h8.88V895.12h3.3v17l7.42,3.49-.73,5.29h-1.87v4.7l7,1.16,0,35.18,25.47-3.55v-6.46h1.51v5.29h5.52l0-61,29.93-1.76v-7h3v-17h-2.6V864h8.88v25.77h2.24v8.79l18.82,0V885.05h7.39v8.78H-1494l.36,7.61,37.67,6.47-.33,90.85,22.93,4.06v10.58l4.06,6.41-4.62,489.45,25.16-2.35,15.51.57,1.49-56.87,16.57-2.35v-31.1l70.58-1.21v-12.87l53.56-.66v-12.86h6l0-75,3.85-6.17,0-39h16.08V1239.5h6.61v2.91h8.15l0-47.46,1.84,2.33v9.41l4.45,1.16v3.5h5.54l.37-5.87,3-1.17v5.87l7.73.58,1.12-5.29,4.45-.59,1.1,5.29,8.87.58-.39-4.71,4.09.62v3.5h7.36v-7l1.87-1.17.36-9.37h3.33l.77,17.57,9.21.58.38-13.49,2.24.58,1.08,12.9,6.66,2.91.36-15.82h1.48l.37,16.41,7,1.78,1.48-4.7v-6.46l3.7.58.37,12.33-1.46,3.49.35,27.57,12.21,1.15,2.22,27.56,1.88.58,1.48,4.67,6.64-.55.32-49.84,3.35.59,1.12,51.58,32.9,2.31-3.25,240.31h4.45v5.28l1.51,1.79-.36,7-2.24,1.21-.71,51,4.43,1.74v6.42h-3l-.36,18.77s22.77-.55,23.66-.59c-1.12,0,.73,7,.73,7l12.93.57-1.84,7-2.24,1.79h-3.3l1.49,34.6,3,2.91,0,38.1h5.52l2.37-451.31,37-10v-26.94l42.5-10v-4.12H-926l1.49,3,100.85,6.39v29.89l40.68,4.67-.75-52.74,14-7,5.89-95.55,123.8,2.24,8.14,100.83,22.93.57-.39-11.12,4.08.54,4-80.9,16.66-3.5-.83-160,49.16.55,31.39,5.3-.1-229.82,22.53-10h12.57v-9.37h2.18v8.2l33.65-1.77V699.09h2.22v9.37l20-1.76v5.87h4.06v-5.29l25.14,0L-352,723.68l42.1-4.74,10.73,8.2L-303,1211.3l29.93,6.43,1.06-71,15.9.62,0-59.2,41.37-7.07-1.15-79.14,5.18-4.71,21.07-3.51,0-78,4.06-3.5s18.84-4.72,17.72-4.72,54.65-66.82,54.65-66.82h11.09l55.07,65.58,2.63,1.16.73,3.54,17.36,4.65L-26.72,996l26.63,5.27-.3,131.9,53.17,1.71,1.5-22.28h2.57l.74,14.62h2.6l-.36,7.66,95.31,3.44.37,21.1,29.61-4.68,1-40.47,21.06-1.18,8.13-32.81.72-15.28h4.79l1.88,12.33h8.09v-2.91h9.27v3.5l50.25-9.4v-4.71h-2.58v-10h15.85V1069l12.94.61v-6.49l5.53-8.79,4.82.58v8.79l-3,.62,1.48,6.41,3,.58,1.12,12.33-.36,4.66,2.6-.54v11.11H334v8.2h22.9l-1.74,248.55H340l-.33,79.69,8.85,1.2,0,96.72,7.78.53,0-58,4.42-1.17.38-18.78,38.81,3.51v-5.87l39.14,0v5.25h17l.2-311.8,2.58-3,4.84-.58.36-3,3.7-1.12,1.06-2.38,11.45-.59.39-3.5,8.15-.63,0-34.55,12.91-10,79.48,4v-4.08H590v3.49l36.93-.6,1.14,48.08,33.26.56-1.26,572.67,6-.63.19-390.35,2.61-.59.36-8.78L691,1312v7.61h6.28v-4.7l21.42,0V1319h3.73l-.85-203.42,30.31-20-.4-34,27.34-20.54,82.79,1.73v15.78l5.51-.55,7-4.12v-5.25h3l1.85,2.91,19.2-.64v-5.82H896.3l-4.24-6.74,3.32-5.25,4.61-7.38h5.57v-18.15h4V1027l46.56-1.24v-5.25h4.08v7.62l6.27,4.11.37,6.41-4.81,11.75.77,26.35,3.69,3.54h9.24l-.39,2.33,3.36.58,0,38.68h19.18v-5.25l3.33-5.29,5.18,5.87.84,194.59,5.54,2.33,0,44,15.88,1.74-.34,46.29,7,1.75.74,24.06,4.06,2.33.38,89.68,2.6.58L1043,1741.4l1.43-.59,1.15-5.83h12.18v4.66c0,2.33,1.12,2.33,1.12,2.33l.37,5.87,23.29-.6-1.14-32.22s-4.06-6.45-6.27-7l-.73-4.08h8.85v-4.12l8.48.58v1.74l3,2.37.36,1.75h7.4l.75-3a10.28,10.28,0,0,1,4.06-3.5c2.6-1.17,4,4.7,4,4.7h8.51l-1.11-35.77,4.45-1.16-.45-137.77,7-10,23.63,0,.58-345.27,7.78-.59,0-31.64,5.13.58.39,6.45,3.31-1.17-.37-5.87,35.09.56,15.16-69.16.73-11.74,1.48-2.34,1.81-18.77,2.22,18.77,2.24,3.5,1.13,10.57,13.33,72.06,83.46,2.9,11.12.57,10.7,13.49.79,72.06,3.33,1.21,1.48,5.83,3.34.62-.26,255,25.85,0,16.64,17.56-.35,36.93,7.75,1.75-.37,35.76,13.72.57,0,106.67h6.61v-14.65l39.16-4.11v-25.19l3.36-5.29h5.15l.73-54.5,14-14.71h7v-5.25h-3.73l0-45.14,18.5-15.83,82.42,1.69,0,47.46-4.11,5.88.39,9.36h22.54l.37,22.9-2.18,2.33,1.43,4.08,26.28,33.41,15.14.58,0,52.16h17.72l.06,128.94,30.32,0-.16-345.23,29.91,0v-5.87h4.09V1476h5.13v-5.29h3.36V1476h9.21v-10h2.21v9.36l34.75,2.31v-7.62l3-1.75,1.12,1.75.7,4.7h5.21v-11.74h8.12v10.58h5.54v-6.46h8.85V1473l1.51-.59,5.18-7.08v10Z"/>
          </g>
        </g>
      </g>
    </g>
  </g>
</svg>
