<svg id="ad8f6f7d-d109-4423-ae28-4baa368cb57f" data-name="Layer 1" xmlns="http://www.w3.org/2000/svg" xmlns:xlink="http://www.w3.org/1999/xlink" width="1600" height="900" viewBox="0 0 1600 900">
  <defs>
    <style>
      .f79504f6-ad51-466b-86d8-82c307cb4712 {
        fill: #80dbe5;
      }

      .b7581430-e14c-425e-9500-797e5e153c08 {
        fill: none;
      }

      .fb9e42ee-1ad0-4edf-b3c4-352a9cf023eb {
        clip-path: url(#bc203df4-7b89-4f0b-aa69-d206c720d332);
      }

      .ffbde21b-157f-47ad-984a-1275cd857533 {
        opacity: 0.2;
      }

      .b80f12e8-4e40-4aff-b3a6-adfbac4cf5c2 {
        fill: #6ec9ce;
      }

      .a2f80c6f-7a0e-43fd-9a3c-770ec66bfb5e {
        fill: #cffffd;
      }

      .a4d77aa8-4f61-41b8-bb80-68f360ba5c71 {
        fill: #aee5e2;
      }

      .b99394a0-97f5-4078-a08d-457c4e946e61 {
        fill: #e5f9f8;
      }

      .a1e56b46-851a-46b0-97cf-e1f05b17fd17 {
        fill: #bdefee;
      }

      .a4122124-b153-4e38-9510-a39073bd1c1a {
        fill: #faffff;
      }

      .a8703bfe-1568-4bc8-8f5f-5f19a250dc7f {
        clip-path: url(#a966ade9-85ec-439d-8d6c-b2e92aa1c27d);
      }

      .ff201ba4-afa2-4abd-8619-975817299815 {
        fill: #d3fff3;
      }
    </style>
    <clipPath id="bc203df4-7b89-4f0b-aa69-d206c720d332">
      <rect class="f79504f6-ad51-466b-86d8-82c307cb4712" width="1600" height="900"/>
    </clipPath>
    <clipPath id="a966ade9-85ec-439d-8d6c-b2e92aa1c27d">
      <rect class="b7581430-e14c-425e-9500-797e5e153c08" x="1700" width="1600" height="900"/>
    </clipPath>
  </defs>
  <g>
    <rect class="f79504f6-ad51-466b-86d8-82c307cb4712" width="1600" height="900"/>
    <g class="fb9e42ee-1ad0-4edf-b3c4-352a9cf023eb">
      <g>
        <rect class="f79504f6-ad51-466b-86d8-82c307cb4712" x="-8.15" y="-25" width="1625.93" height="962.5"/>
        <g class="ffbde21b-157f-47ad-984a-1275cd857533">
          <g>
            <path class="b80f12e8-4e40-4aff-b3a6-adfbac4cf5c2" d="M1215.81,150.07c0-11.14-7.13-20.17-15.92-20.17l-.59,0c-1.52-9.38-5.78-16.14-10.8-16.14a7.29,7.29,0,0,0-5.33,2.74,12.38,12.38,0,0,0-10.6-6.27c-6.09,0-11.18,4.68-12.34,10.89-4.79,1-8.84,4.81-11.14,10a13.07,13.07,0,0,0-5.49-1.23c-8.8,0-15.93,9-15.93,20.17a23.6,23.6,0,0,0,3.64,12.83,13.76,13.76,0,0,0-6.86,12.12c0,7.51,5.64,13.61,12.59,13.61a11.73,11.73,0,0,0,5.54-1.39c2.67,6.37,8,10.72,14.07,10.72a13.1,13.1,0,0,0,6.34-1.67c3.34,4.48,7.75,7.21,12.58,7.21,7.36,0,13.74-6.33,16.87-15.57,5.81,5.31,12.56,4,15.91-3.5,2.25-5.06,2.46-11.81,1-18.1C1213.25,162.66,1215.81,156.75,1215.81,150.07Z"/>
            <path class="a2f80c6f-7a0e-43fd-9a3c-770ec66bfb5e" d="M1215.81,150.07c.06-9.66-6.17-20.25-16.62-20.13-.75-4.38-2.08-8.83-4.76-12.43-3-4-7.65-4.86-11-.79l-.26.29-.2-.34c-6.12-10-20.16-6.7-22.13,4.57l-.07.38a13.92,13.92,0,0,0-6.79,3.66,19.68,19.68,0,0,0-4.48,6.83l-.68-.32c-7.39-3.47-15.29,1.63-18.19,8.65a23.58,23.58,0,0,0,1.54,21.92l.57.88A12.82,12.82,0,0,0,1126,171c-3.22,9.79,6.19,20.47,16.13,15.46l.84-.44.37.88c3.09,7.92,11.84,13.3,19.8,8.51,10.3,14.34,24.58,6.34,29.13-8,5.32,5.31,12.35,4.58,15.62-2.46,2.78-5.73,2.69-12.5,1.3-18.61v0l0,0c4.42-4.11,6.54-10.26,6.56-16.21Zm0,0c0,6-2.06,12.14-6.47,16.31l0-.06c1.45,6.15,1.58,12.94-1.18,18.76-2,4.58-6.92,7.74-11.84,5.64a13.69,13.69,0,0,1-4.1-2.57l.48-.12c-4.55,14.76-19.32,22.73-30.27,8.66l.86.19c-8.57,4.93-18.19-.79-21.54-9.3l1.22.43c-11.41,5.83-22.46-6.17-18.83-17.58a14.28,14.28,0,0,1,6.68-8.39l-.34,1.39a25.42,25.42,0,0,1-1.53-23.72c3.32-7.83,12.19-13.27,20.42-9.24l-1,.37a20.33,20.33,0,0,1,4.63-6.51,15.08,15.08,0,0,1,7-3.76l-.44.46c2.33-12,17.33-15.51,23.76-4.66l-.46,0c1.53-1.69,3.77-3.07,6.14-2.73,6.76,1.23,9.28,10.46,10.3,16.31,4.28-.63,9.64,2.63,12.24,6.49a23.46,23.46,0,0,1,4.17,13.67Z"/>
          </g>
          <g>
            <path class="a4d77aa8-4f61-41b8-bb80-68f360ba5c71" d="M1314.07,117.79c0-16.26-10.41-29.44-23.25-29.44q-.43,0-.87,0c-2.21-13.71-8.43-23.59-15.77-23.59-2.81,0-5.45,1.46-7.77,4a18.1,18.1,0,0,0-15.49-9.16c-8.9,0-16.32,6.83-18,15.9-7,1.54-12.92,7-16.28,14.6a19,19,0,0,0-8-1.79c-12.84,0-23.25,13.18-23.25,29.44a34.39,34.39,0,0,0,5.31,18.74,20.13,20.13,0,0,0-10,17.7c0,11,8.23,19.88,18.39,19.88a17.26,17.26,0,0,0,8.09-2c3.91,9.3,11.64,15.64,20.54,15.64a19.1,19.1,0,0,0,9.26-2.43c4.89,6.54,11.32,10.52,18.38,10.52,10.75,0,20.06-9.23,24.63-22.73,8.5,7.75,18.36,5.91,23.25-5.11,3.28-7.39,3.58-17.25,1.38-26.43C1310.33,136.19,1314.07,127.55,1314.07,117.79Z"/>
            <path class="b99394a0-97f5-4078-a08d-457c4e946e61" d="M1314.07,117.79c.14-13.93-9-29.72-24.23-29.4-1.09-6.41-3-12.91-6.93-18.18-4.46-6-11.17-7.18-16.29-1.21l-.26.29-.2-.34c-6-10.25-20.06-12.05-28-3A20.1,20.1,0,0,0,1233.39,76a20.45,20.45,0,0,0-9.88,5.35,28.62,28.62,0,0,0-6.52,9.74l-.67-.32c-11.08-5.18-22.67,2.27-27.09,12.76-4.54,10.27-3.89,23,2.25,32.44l.57.88a18.93,18.93,0,0,0-9.52,11.36c-4.76,14.75,9.24,30.54,24.18,23.08l.84-.45.37.88c4.55,11.44,16.9,19.41,28.68,13l.52-.28.34.47c7.43,10.42,20,14.14,30.52,5.74,5.72-4.6,9.45-11.19,11.82-18.06,7.89,7.68,18,6.45,22.82-3.8,4.05-8.39,3.91-18.28,1.87-27.22,0,0,0,0,0-.06,6.45-6,9.53-15,9.56-23.71Zm0,0c0,8.73-3,17.73-9.47,23.81l0-.07c2.1,9,2.28,18.89-1.75,27.38-3,6.74-9.87,11.17-17.19,8.15a20,20,0,0,1-5.94-3.75l.47-.12c-3.06,9-8.77,18.2-18,21.82-9.73,4-20-1.28-25.8-9.31l.86.19a20.07,20.07,0,0,1-9.16,2.57c-9.91.35-18.2-7.28-21.78-16l1.22.44c-16.4,8.28-32-8.82-26.88-25.2a20.41,20.41,0,0,1,9.54-12l-.34,1.39c-6.46-10.1-7.09-23.38-2.24-34.24,4.88-11.34,17.37-19.07,29.32-13.35l-1,.37a29.28,29.28,0,0,1,6.65-9.42A21.73,21.73,0,0,1,1232.77,75l-.45.46c3.39-17.36,24.94-22.46,34.33-6.78l-.46,0c2.21-2.44,5.44-4.45,8.86-4,9.67,1.58,13.61,15.4,15,23.72,14.78-.89,24.35,15.74,24,29.43Z"/>
          </g>
          <g>
            <path class="a1e56b46-851a-46b0-97cf-e1f05b17fd17" d="M1296.3,179.86c0-7.86-5-14.24-11.25-14.24h-.42c-1.07-6.63-4.08-11.41-7.63-11.41a5.17,5.17,0,0,0-3.76,1.94,8.77,8.77,0,0,0-7.5-4.43,9.09,9.09,0,0,0-8.71,7.69c-3.39.75-6.25,3.41-7.88,7.07a9,9,0,0,0-3.88-.87c-6.21,0-11.25,6.38-11.25,14.24a16.69,16.69,0,0,0,2.57,9.07,9.73,9.73,0,0,0-4.84,8.56c0,5.31,4,9.62,8.89,9.62a8.36,8.36,0,0,0,3.91-1c1.9,4.5,5.64,7.57,9.94,7.57a9.27,9.27,0,0,0,4.48-1.18c2.37,3.17,5.48,5.09,8.89,5.09,5.2,0,9.71-4.47,11.92-11,4.11,3.74,8.88,2.85,11.25-2.48,1.58-3.57,1.73-8.34.66-12.78A15.73,15.73,0,0,0,1296.3,179.86Z"/>
            <path class="a4122124-b153-4e38-9510-a39073bd1c1a" d="M1296.3,179.86c.1-6.56-4.35-14.47-11.67-14.15-.1,0-.07,0-.08-.07a26.05,26.05,0,0,0-1.2-4.59c-1.39-4.32-5.74-9.45-9.9-4.69l-.25.29-.21-.34c-4.23-7-14.09-4.62-15.39,3.22l-.07.37a9.66,9.66,0,0,0-4.81,2.59,14,14,0,0,0-3.19,5,8.52,8.52,0,0,0-8.11,0c-7,4-8.21,14.52-4,21l.58.89-.93.51c-8.82,5.17-3,20,7.07,15.56l.86-.46.37.9c2.13,5.57,8.3,9.28,13.8,5.86,7.12,10.27,17.33,4.57,20.49-5.55,2.35,2.51,6.39,3.7,9.1,1.07,4-4.06,4.07-10.56,2.89-15.83a15.79,15.79,0,0,0,4.65-11.48Zm0,0c0,4.17-1.53,8.73-4.57,11.49,1.21,5.32,1.27,11.87-2.76,16.05-2.61,2.7-6.89,1.85-9.39-.57l.48-.12c-3.13,10.53-13.86,16.22-21.62,6.21l.86.19c-6.07,3.59-13.2-.56-15.56-6.64l1.23.44c-8.22,4.32-16.4-4.5-13.71-12.75a10.39,10.39,0,0,1,4.86-6.1l-.35,1.41a18.14,18.14,0,0,1-1.09-17c2.35-5.6,8.94-9.56,14.78-6.6l-1,.36a14.48,14.48,0,0,1,3.33-4.65,10.83,10.83,0,0,1,5.08-2.68l-.45.46c1.62-8.53,12.55-11.09,17-3.3L1273,156a6.9,6.9,0,0,1,2-1.51c6.19-2.48,9,6.58,9.73,11.16,6.93-.55,11.83,7.68,11.59,14.24Z"/>
          </g>
        </g>
        <g class="ffbde21b-157f-47ad-984a-1275cd857533">
          <g>
            <path class="b80f12e8-4e40-4aff-b3a6-adfbac4cf5c2" d="M377,44.17C377,33,369.83,24,361,24l-.59,0c-1.52-9.38-5.78-16.15-10.8-16.15a7.3,7.3,0,0,0-5.33,2.75,12.4,12.4,0,0,0-10.6-6.28c-6.09,0-11.18,4.68-12.34,10.89-4.79,1.06-8.85,4.82-11.15,10A12.89,12.89,0,0,0,304.74,24c-8.79,0-15.92,9-15.92,20.16A23.55,23.55,0,0,0,292.46,57a13.78,13.78,0,0,0-6.86,12.12c0,7.52,5.64,13.61,12.59,13.61a11.84,11.84,0,0,0,5.54-1.38c2.67,6.37,8,10.71,14.06,10.71a13.11,13.11,0,0,0,6.35-1.67c3.34,4.49,7.75,7.21,12.58,7.21,7.36,0,13.74-6.32,16.87-15.56,5.81,5.3,12.56,4,15.91-3.5,2.25-5.07,2.46-11.81.95-18.1C374.4,56.77,377,50.85,377,44.17Z"/>
            <path class="a2f80c6f-7a0e-43fd-9a3c-770ec66bfb5e" d="M377,44.17c.06-9.65-6.17-20.25-16.62-20.12-.75-4.39-2.08-8.83-4.76-12.43-2.95-4-7.65-4.86-11-.8l-.26.29-.21-.34C338,.75,323.92,4.07,322,15.35l-.07.37a13.89,13.89,0,0,0-6.79,3.67,19.59,19.59,0,0,0-4.48,6.82l-.68-.31c-7.35-3.49-15.32,1.64-18.2,8.64a23.61,23.61,0,0,0,1.55,21.93l.57.88a12.79,12.79,0,0,0-6.66,7.77c-3.22,9.79,6.19,20.47,16.13,15.46l.84-.44.37.87c3.09,7.92,11.84,13.31,19.8,8.52,10.3,14.33,24.58,6.33,29.13-8,5.32,5.32,12.35,4.58,15.62-2.45,2.77-5.74,2.69-12.5,1.3-18.62,0,0,0,0,0-.06,4.42-4.12,6.53-10.26,6.56-16.22Zm0,0c0,6-2.06,12.15-6.47,16.32l0-.07c1.45,6.16,1.58,13-1.18,18.77-2,4.58-6.92,7.74-11.84,5.64a14,14,0,0,1-4.1-2.57l.47-.13c-4.54,14.77-19.31,22.74-30.26,8.67l.86.18c-8.57,4.94-18.19-.79-21.54-9.29l1.21.43C292.73,88,281.68,76,285.31,64.53A14.26,14.26,0,0,1,292,56.15l-.35,1.39a25.46,25.46,0,0,1-1.52-23.73c3.32-7.83,12.19-13.27,20.42-9.23l-1,.36a20.29,20.29,0,0,1,4.63-6.5,15,15,0,0,1,7.05-3.76l-.44.46c2.33-12,17.33-15.52,23.76-4.66l-.46-.05c1.53-1.68,3.77-3.06,6.14-2.72,6.76,1.23,9.27,10.46,10.3,16.3,4.28-.63,9.64,2.64,12.24,6.49A23.48,23.48,0,0,1,377,44.17Z"/>
          </g>
          <g>
            <path class="a4d77aa8-4f61-41b8-bb80-68f360ba5c71" d="M475.22,11.9c0-16.26-10.41-29.45-23.25-29.45-.29,0-.58,0-.87,0-2.21-13.7-8.44-23.58-15.77-23.58-2.81,0-5.45,1.45-7.78,4a18.07,18.07,0,0,0-15.48-9.16c-8.9,0-16.32,6.83-18,15.9-7,1.54-12.91,7-16.27,14.6a19,19,0,0,0-8-1.8c-12.84,0-23.25,13.19-23.25,29.45a34.39,34.39,0,0,0,5.31,18.74,20.1,20.1,0,0,0-10,17.7c0,11,8.23,19.87,18.39,19.87a17.17,17.17,0,0,0,8.09-2c3.9,9.31,11.64,15.65,20.54,15.65a19.14,19.14,0,0,0,9.26-2.44C403,86,409.39,89.93,416.45,89.93c10.75,0,20.06-9.24,24.63-22.73,8.49,7.74,18.35,5.9,23.25-5.11,3.28-7.4,3.58-17.25,1.37-26.44C471.48,30.3,475.22,21.65,475.22,11.9Z"/>
            <path class="b99394a0-97f5-4078-a08d-457c4e946e61" d="M475.22,11.9c.14-13.93-9-29.72-24.23-29.4-1.09-6.42-3-12.91-6.93-18.19-4.46-6-11.17-7.18-16.29-1.21l-.26.29-.2-.33c-6-10.26-20.06-12.06-28-3a20.21,20.21,0,0,0-4.78,10.08,20.51,20.51,0,0,0-9.88,5.36,28.49,28.49,0,0,0-6.52,9.73l-.68-.31c-11.07-5.18-22.67,2.27-27.08,12.76-4.54,10.27-3.89,23,2.25,32.43l.57.88a18.92,18.92,0,0,0-9.52,11.37c-4.76,14.75,9.24,30.53,24.18,23.07l.84-.44.37.87c4.54,11.45,16.89,19.41,28.68,13l.52-.28.34.47c7.43,10.43,20,14.15,30.52,5.74,5.72-4.59,9.45-11.18,11.82-18,7.89,7.67,18,6.44,22.82-3.8,4.05-8.4,3.91-18.28,1.87-27.22v0l0,0c6.45-6,9.53-15,9.56-23.7Zm0,0c0,8.72-3,17.73-9.47,23.8l0-.06c2.1,9,2.28,18.89-1.75,27.37-3,6.75-9.87,11.18-17.19,8.16a20.3,20.3,0,0,1-5.95-3.75l.48-.13c-3.06,9-8.77,18.2-18,21.82-9.73,4-20-1.28-25.81-9.31l.87.19a19.83,19.83,0,0,1-9.16,2.57c-9.91.35-18.2-7.27-21.78-16l1.21.43c-16.39,8.28-32-8.82-26.87-25.19a20.43,20.43,0,0,1,9.54-12L351,31.17c-6.46-10.09-7.09-23.38-2.24-34.23,4.88-11.34,17.37-19.08,29.32-13.35l-1,.36a29.57,29.57,0,0,1,6.66-9.42,21.78,21.78,0,0,1,10.16-5.45l-.45.46c3.39-17.35,24.94-22.46,34.33-6.78l-.46,0c2.21-2.44,5.43-4.44,8.85-4,9.68,1.57,13.62,15.39,15,23.71,14.77-.89,24.35,15.74,24,29.44Z"/>
          </g>
          <g>
            <path class="a1e56b46-851a-46b0-97cf-e1f05b17fd17" d="M457.45,74c0-7.87-5-14.25-11.25-14.25l-.42,0c-1.07-6.63-4.08-11.41-7.63-11.41a5.13,5.13,0,0,0-3.76,1.94,8.76,8.76,0,0,0-7.5-4.43,9.11,9.11,0,0,0-8.72,7.69c-3.38.74-6.24,3.4-7.87,7.06a9.17,9.17,0,0,0-3.88-.87c-6.21,0-11.25,6.38-11.25,14.25A16.68,16.68,0,0,0,397.74,83a9.76,9.76,0,0,0-4.85,8.57c0,5.31,4,9.61,8.9,9.61a8.24,8.24,0,0,0,3.91-1c1.89,4.51,5.63,7.57,9.94,7.57a9.16,9.16,0,0,0,4.48-1.18c2.36,3.17,5.48,5.1,8.89,5.1,5.2,0,9.71-4.47,11.92-11,4.11,3.75,8.88,2.86,11.24-2.47,1.59-3.58,1.74-8.35.67-12.79A15.69,15.69,0,0,0,457.45,74Z"/>
            <path class="a4122124-b153-4e38-9510-a39073bd1c1a" d="M457.45,74c.1-6.57-4.35-14.48-11.67-14.15-.1,0-.07,0-.09-.07a25.8,25.8,0,0,0-1.19-4.59c-1.39-4.33-5.74-9.46-9.9-4.7l-.25.29-.21-.33c-4.24-7-14.09-4.63-15.39,3.22l-.07.37a9.58,9.58,0,0,0-4.81,2.59,13.91,13.91,0,0,0-3.19,5,8.57,8.57,0,0,0-8.11,0c-7,4-8.21,14.53-4,21l.58.89-.93.52c-8.82,5.17-3,20,7.07,15.55l.86-.46.37.9c2.13,5.58,8.3,9.28,13.8,5.87,7.11,10.26,17.33,4.57,20.49-5.56,2.35,2.52,6.39,3.7,9.1,1.08,4-4.06,4.06-10.57,2.89-15.83A15.79,15.79,0,0,0,457.45,74Zm0,0c0,4.17-1.53,8.72-4.57,11.48,1.2,5.33,1.27,11.87-2.76,16.06-2.61,2.69-6.89,1.84-9.39-.57l.48-.12c-3.14,10.53-13.87,16.21-21.63,6.21l.87.18c-6.07,3.6-13.21-.56-15.56-6.63l1.23.44c-8.23,4.32-16.4-4.5-13.71-12.75a10.32,10.32,0,0,1,4.86-6.1l-.35,1.4a18.14,18.14,0,0,1-1.09-17c2.35-5.59,8.93-9.55,14.78-6.6l-1,.37A14.64,14.64,0,0,1,413,55.64,10.88,10.88,0,0,1,418.05,53l-.45.46c1.62-8.52,12.54-11.08,17-3.3l-.46,0a7.05,7.05,0,0,1,2-1.5c6.19-2.49,9,6.58,9.73,11.15,6.93-.55,11.83,7.69,11.59,14.25Z"/>
          </g>
        </g>
        <g class="ffbde21b-157f-47ad-984a-1275cd857533">
          <g>
            <path class="b80f12e8-4e40-4aff-b3a6-adfbac4cf5c2" d="M371.48,723c0-11.14-7.13-20.16-15.93-20.16l-.59,0c-1.51-9.39-5.78-16.15-10.8-16.15a7.29,7.29,0,0,0-5.32,2.74,12.39,12.39,0,0,0-10.61-6.27c-6.09,0-11.17,4.68-12.34,10.89-4.79,1.06-8.84,4.82-11.14,10a12.89,12.89,0,0,0-5.49-1.23c-8.79,0-15.92,9-15.92,20.16A23.49,23.49,0,0,0,287,735.86,13.76,13.76,0,0,0,280.11,748c0,7.52,5.64,13.61,12.6,13.61a11.83,11.83,0,0,0,5.53-1.38c2.68,6.37,8,10.71,14.07,10.71a13.07,13.07,0,0,0,6.34-1.67c3.34,4.48,7.75,7.21,12.58,7.21,7.36,0,13.74-6.33,16.87-15.56,5.82,5.3,12.57,4,15.92-3.5,2.24-5.07,2.45-11.82.94-18.1C368.91,735.63,371.48,729.71,371.48,723Z"/>
            <path class="a2f80c6f-7a0e-43fd-9a3c-770ec66bfb5e" d="M371.48,723c.06-9.65-6.18-20.25-16.63-20.13-.75-4.38-2.07-8.82-4.75-12.42-3-4-7.66-4.86-11.05-.8l-.25.29-.21-.34c-6.11-10-20.15-6.7-22.13,4.58l-.07.37a13.82,13.82,0,0,0-6.78,3.67,19.67,19.67,0,0,0-4.49,6.82l-.68-.31c-7.34-3.49-15.32,1.64-18.19,8.64a23.63,23.63,0,0,0,1.54,21.93l.58.87a12.82,12.82,0,0,0-6.66,7.77c-3.23,9.8,6.18,20.47,16.12,15.47l.85-.45.37.88c3.08,7.92,11.84,13.31,19.8,8.51,10.29,14.34,24.58,6.34,29.12-8,5.32,5.32,12.36,4.58,15.63-2.46,2.77-5.73,2.69-12.5,1.3-18.61,0,0,0,0,0-.06,4.41-4.12,6.53-10.26,6.56-16.22Zm0,0c0,6-2.07,12.15-6.47,16.32l0-.07c1.44,6.15,1.57,12.94-1.18,18.77-2,4.58-6.92,7.73-11.84,5.64a14,14,0,0,1-4.11-2.58l.48-.12c-4.54,14.76-19.31,22.73-30.27,8.66l.87.19c-8.57,4.93-18.2-.79-21.54-9.3l1.21.44c-11.4,5.83-22.45-6.18-18.83-17.59A14.23,14.23,0,0,1,286.5,735l-.34,1.38a25.44,25.44,0,0,1-1.53-23.72c3.33-7.83,12.19-13.27,20.43-9.23l-1,.36a20.48,20.48,0,0,1,4.63-6.51,15.12,15.12,0,0,1,7.06-3.76l-.45.46c2.33-12,17.33-15.51,23.77-4.65l-.47-.05c1.54-1.68,3.78-3.06,6.14-2.73,6.77,1.23,9.28,10.46,10.31,16.31,4.28-.63,9.63,2.64,12.23,6.49A23.54,23.54,0,0,1,371.48,723Z"/>
          </g>
          <g>
            <path class="a4d77aa8-4f61-41b8-bb80-68f360ba5c71" d="M469.74,690.75c0-16.26-10.41-29.44-23.26-29.44l-.87,0c-2.21-13.71-8.43-23.58-15.77-23.58-2.81,0-5.45,1.45-7.77,4a18.1,18.1,0,0,0-15.49-9.17c-8.9,0-16.32,6.83-18,15.91-7,1.54-12.92,7-16.27,14.6a18.81,18.81,0,0,0-8-1.8c-12.85,0-23.26,13.18-23.26,29.44a34.46,34.46,0,0,0,5.32,18.75,20.09,20.09,0,0,0-10,17.69c0,11,8.23,19.88,18.39,19.88a17.22,17.22,0,0,0,8.08-2c3.91,9.3,11.64,15.65,20.55,15.65a19.14,19.14,0,0,0,9.26-2.44c4.88,6.55,11.32,10.53,18.37,10.53,10.75,0,20.07-9.24,24.64-22.73,8.49,7.74,18.35,5.9,23.24-5.11,3.28-7.4,3.59-17.26,1.38-26.44C466,709.15,469.74,700.51,469.74,690.75Z"/>
            <path class="b99394a0-97f5-4078-a08d-457c4e946e61" d="M469.74,690.75c.14-13.92-9-29.71-24.23-29.39-1.09-6.42-3-12.91-6.94-18.19-4.45-6-11.16-7.18-16.29-1.21l-.26.29-.2-.34c-6-10.25-20.05-12-28-3A20.17,20.17,0,0,0,389.06,649a20.49,20.49,0,0,0-9.89,5.35,28.62,28.62,0,0,0-6.52,9.74l-.67-.31c-11.08-5.19-22.67,2.27-27.09,12.76-4.54,10.26-3.88,23,2.25,32.43l.58.88a18.86,18.86,0,0,0-9.52,11.37c-4.76,14.74,9.24,30.53,24.17,23.07l.84-.44.37.87c4.55,11.45,16.9,19.41,28.68,13l.52-.28.35.47c7.42,10.43,20,14.15,30.51,5.74,5.72-4.59,9.46-11.18,11.83-18.06,7.89,7.68,18,6.45,22.82-3.79,4-8.4,3.91-18.29,1.86-27.22,0,0,0,0,0-.07,6.45-6,9.54-15,9.57-23.71Zm0,0c0,8.73-3,17.73-9.47,23.81l0-.06c2.1,9,2.28,18.89-1.75,27.37-3,6.74-9.88,11.17-17.2,8.15a19.85,19.85,0,0,1-5.94-3.75l.48-.12c-3.07,9-8.77,18.2-18,21.82-9.74,3.95-20-1.28-25.81-9.31l.86.19a19.91,19.91,0,0,1-9.15,2.57c-9.91.35-18.21-7.27-21.78-16l1.21.43c-16.39,8.28-32-8.82-26.88-25.19a20.42,20.42,0,0,1,9.55-12l-.35,1.39c-6.46-10.1-7.08-23.38-2.23-34.24,4.87-11.33,17.36-19.07,29.31-13.35l-1,.37a29.31,29.31,0,0,1,6.66-9.42,21.73,21.73,0,0,1,10.16-5.45l-.45.46c3.38-17.35,24.93-22.46,34.33-6.78l-.46,0c2.21-2.44,5.43-4.45,8.85-4,9.67,1.58,13.61,15.4,15,23.72,14.78-.89,24.35,15.74,24,29.43Z"/>
          </g>
          <g>
            <path class="a1e56b46-851a-46b0-97cf-e1f05b17fd17" d="M452,752.82c0-7.86-5-14.24-11.25-14.24h-.42c-1.07-6.63-4.08-11.4-7.63-11.4a5.13,5.13,0,0,0-3.76,1.94,8.74,8.74,0,0,0-7.49-4.44,9.1,9.1,0,0,0-8.72,7.7c-3.38.74-6.25,3.4-7.87,7.06a9.21,9.21,0,0,0-3.88-.87c-6.22,0-11.25,6.38-11.25,14.24a16.6,16.6,0,0,0,2.57,9.07,9.72,9.72,0,0,0-4.85,8.56c0,5.31,4,9.62,8.9,9.62a8.27,8.27,0,0,0,3.91-1c1.89,4.5,5.63,7.57,9.94,7.57a9.22,9.22,0,0,0,4.48-1.18c2.36,3.17,5.47,5.09,8.89,5.09,5.2,0,9.7-4.46,11.92-11,4.1,3.74,8.87,2.86,11.24-2.47,1.59-3.58,1.73-8.35.67-12.79A15.71,15.71,0,0,0,452,752.82Z"/>
            <path class="a4122124-b153-4e38-9510-a39073bd1c1a" d="M452,752.82c.11-6.56-4.34-14.47-11.66-14.14-.1,0-.07,0-.09-.07A26.68,26.68,0,0,0,439,734c-1.39-4.33-5.74-9.46-9.91-4.7l-.25.29-.21-.34c-4.23-6.95-14.09-4.62-15.39,3.22l-.07.37a9.72,9.72,0,0,0-4.81,2.6,14,14,0,0,0-3.19,5,8.55,8.55,0,0,0-8.1,0c-7,4-8.21,14.52-4,21l.58.89-.93.51c-8.83,5.18-2.95,20,7.06,15.56l.86-.46.38.9c2.12,5.58,8.29,9.28,13.8,5.86,7.11,10.27,17.33,4.57,20.48-5.55,2.35,2.51,6.39,3.7,9.1,1.07,4-4.06,4.07-10.56,2.9-15.82A15.78,15.78,0,0,0,452,752.82Zm0,0c0,4.17-1.53,8.73-4.57,11.49,1.21,5.32,1.27,11.87-2.75,16.05-2.61,2.7-6.9,1.85-9.39-.56l.47-.13c-3.13,10.53-13.86,16.22-21.62,6.21l.86.19c-6.06,3.59-13.2-.56-15.56-6.64l1.23.44c-8.22,4.33-16.4-4.5-13.71-12.75a10.41,10.41,0,0,1,4.86-6.09l-.35,1.4a18.14,18.14,0,0,1-1.08-17c2.35-5.59,8.93-9.55,14.77-6.6l-1,.36a14.71,14.71,0,0,1,3.33-4.65,10.83,10.83,0,0,1,5.08-2.68l-.44.46c1.61-8.52,12.54-11.08,17-3.3l-.46-.05a6.56,6.56,0,0,1,2-1.5c6.19-2.49,9,6.58,9.72,11.15,6.93-.55,11.84,7.68,11.59,14.24Z"/>
          </g>
        </g>
        <g class="ffbde21b-157f-47ad-984a-1275cd857533">
          <g>
            <path class="b80f12e8-4e40-4aff-b3a6-adfbac4cf5c2" d="M1208.25,758.94c0-11.13-7.13-20.16-15.92-20.16l-.59,0c-1.52-9.38-5.78-16.15-10.8-16.15a7.3,7.3,0,0,0-5.33,2.75,12.38,12.38,0,0,0-10.6-6.27c-6.09,0-11.17,4.67-12.34,10.89-4.79,1.05-8.84,4.81-11.14,10a13.07,13.07,0,0,0-5.49-1.23c-8.8,0-15.93,9-15.93,20.16a23.61,23.61,0,0,0,3.64,12.84,13.76,13.76,0,0,0-6.86,12.12c0,7.51,5.64,13.61,12.59,13.61a11.73,11.73,0,0,0,5.54-1.39c2.67,6.37,8,10.72,14.07,10.72a13.1,13.1,0,0,0,6.34-1.67c3.34,4.48,7.75,7.21,12.58,7.21,7.36,0,13.74-6.33,16.87-15.57,5.81,5.3,12.56,4.05,15.91-3.5,2.25-5.06,2.46-11.81,1-18.1C1205.69,771.54,1208.25,765.62,1208.25,758.94Z"/>
            <path class="a2f80c6f-7a0e-43fd-9a3c-770ec66bfb5e" d="M1208.25,758.94c.06-9.65-6.17-20.25-16.62-20.12-.75-4.38-2.08-8.83-4.76-12.43-2.95-4-7.65-4.86-11-.79l-.26.29-.2-.34c-6.12-10-20.16-6.7-22.13,4.57l-.07.38a13.92,13.92,0,0,0-6.79,3.66,19.68,19.68,0,0,0-4.48,6.83l-.68-.32c-7.39-3.47-15.29,1.62-18.19,8.65a23.58,23.58,0,0,0,1.54,21.92l.57.88a12.82,12.82,0,0,0-6.66,7.77c-3.22,9.79,6.19,20.47,16.13,15.46l.84-.44.37.87c3.09,7.93,11.84,13.31,19.8,8.52,10.3,14.34,24.58,6.34,29.13-8,5.32,5.31,12.35,4.58,15.62-2.46,2.78-5.74,2.69-12.5,1.3-18.61v0l0,0c4.42-4.11,6.54-10.26,6.56-16.22Zm0,0c0,6-2.06,12.15-6.47,16.32l0-.06c1.45,6.15,1.58,12.94-1.18,18.76-2,4.58-6.92,7.74-11.84,5.64a13.69,13.69,0,0,1-4.1-2.57l.48-.12c-4.55,14.76-19.32,22.73-30.27,8.66l.86.19c-8.57,4.93-18.19-.79-21.54-9.3l1.22.43c-11.41,5.83-22.46-6.17-18.83-17.58a14.25,14.25,0,0,1,6.68-8.39l-.34,1.39a25.42,25.42,0,0,1-1.53-23.72c3.33-7.83,12.19-13.27,20.42-9.24l-1,.37a20.33,20.33,0,0,1,4.63-6.51,15.08,15.08,0,0,1,7-3.76l-.44.46c2.33-12,17.33-15.51,23.76-4.66l-.46,0c1.53-1.69,3.77-3.07,6.14-2.73,6.76,1.23,9.28,10.46,10.3,16.3,4.29-.63,9.64,2.64,12.24,6.49a23.48,23.48,0,0,1,4.17,13.67Z"/>
          </g>
          <g>
            <path class="a4d77aa8-4f61-41b8-bb80-68f360ba5c71" d="M1306.51,726.67c0-16.26-10.41-29.44-23.25-29.44l-.87,0c-2.21-13.7-8.43-23.58-15.77-23.58-2.81,0-5.45,1.45-7.77,4a18.1,18.1,0,0,0-15.49-9.16c-8.9,0-16.32,6.83-18,15.9-7,1.54-12.92,7-16.28,14.6a19,19,0,0,0-8-1.79c-12.84,0-23.25,13.18-23.25,29.44a34.39,34.39,0,0,0,5.31,18.74,20.12,20.12,0,0,0-10,17.7c0,11,8.24,19.88,18.39,19.88a17.15,17.15,0,0,0,8.09-2c3.91,9.31,11.64,15.65,20.54,15.65a19.07,19.07,0,0,0,9.26-2.43c4.89,6.54,11.32,10.52,18.38,10.52,10.75,0,20.06-9.24,24.63-22.73,8.5,7.75,18.36,5.91,23.25-5.11,3.28-7.39,3.58-17.25,1.38-26.43C1302.77,745.07,1306.51,736.43,1306.51,726.67Z"/>
            <path class="b99394a0-97f5-4078-a08d-457c4e946e61" d="M1306.51,726.67c.15-13.93-9-29.72-24.23-29.4-1.09-6.41-3-12.91-6.93-18.18-4.46-6-11.17-7.18-16.29-1.21l-.26.28-.2-.33c-6-10.26-20-12.06-28-3a20,20,0,0,0-4.78,10.07,20.54,20.54,0,0,0-9.89,5.36,28.62,28.62,0,0,0-6.52,9.74l-.67-.32c-11.08-5.18-22.67,2.27-27.09,12.76-4.54,10.27-3.89,23,2.25,32.44l.57.88a18.93,18.93,0,0,0-9.52,11.36c-4.76,14.75,9.24,30.54,24.18,23.07l.84-.44.37.88c4.55,11.44,16.9,19.41,28.68,13l.52-.28.34.46c7.43,10.43,20,14.15,30.52,5.75,5.72-4.6,9.45-11.19,11.82-18.06,7.89,7.68,18,6.45,22.82-3.8,4-8.4,3.91-18.28,1.87-27.22,0,0,0,0,0-.06,6.45-6,9.53-15,9.56-23.71Zm0,0c0,8.72-3,17.73-9.47,23.81l0-.07c2.1,9,2.28,18.89-1.75,27.38-3,6.74-9.87,11.17-17.19,8.15a20.25,20.25,0,0,1-5.94-3.75l.47-.12c-3.06,9-8.77,18.19-18,21.82-9.73,3.94-20-1.28-25.8-9.31l.86.18a20,20,0,0,1-9.16,2.58c-9.9.34-18.2-7.28-21.78-16l1.22.43c-16.39,8.29-32-8.81-26.88-25.19a20.41,20.41,0,0,1,9.54-12l-.34,1.38c-6.46-10.09-7.08-23.37-2.24-34.23,4.88-11.34,17.37-19.07,29.32-13.35l-1,.37a29.43,29.43,0,0,1,6.65-9.43,21.91,21.91,0,0,1,10.16-5.45l-.44.46c3.38-17.35,24.93-22.45,34.32-6.78l-.46,0c2.21-2.45,5.44-4.45,8.86-4,9.67,1.58,13.61,15.4,15,23.72,14.78-.89,24.35,15.74,24,29.43Z"/>
          </g>
          <g>
            <path class="a1e56b46-851a-46b0-97cf-e1f05b17fd17" d="M1291.09,791c0-7.87-5-14.25-11.25-14.25l-.42,0c-1.07-6.63-4.08-11.41-7.63-11.41a5.13,5.13,0,0,0-3.76,1.94,8.74,8.74,0,0,0-7.49-4.43,9.09,9.09,0,0,0-8.72,7.69c-3.39.75-6.25,3.4-7.87,7.06a9.21,9.21,0,0,0-3.88-.87c-6.22,0-11.25,6.38-11.25,14.25a16.65,16.65,0,0,0,2.57,9.07,9.71,9.71,0,0,0-4.85,8.56c0,5.31,4,9.61,8.9,9.61a8.38,8.38,0,0,0,3.91-1c1.89,4.5,5.63,7.56,9.94,7.56a9.32,9.32,0,0,0,4.48-1.17c2.36,3.16,5.47,5.09,8.89,5.09,5.2,0,9.7-4.47,11.91-11,4.11,3.75,8.88,2.86,11.25-2.47,1.59-3.58,1.73-8.35.67-12.79A15.69,15.69,0,0,0,1291.09,791Z"/>
            <path class="a4122124-b153-4e38-9510-a39073bd1c1a" d="M1291.09,791c.11-6.56-4.34-14.48-11.67-14.15-.09,0-.06,0-.08-.07a26.92,26.92,0,0,0-1.19-4.59c-1.39-4.32-5.74-9.46-9.91-4.7l-.25.3-.21-.34c-4.23-7-14.09-4.63-15.39,3.22l-.07.37a9.63,9.63,0,0,0-4.81,2.59,14.14,14.14,0,0,0-3.19,5,8.52,8.52,0,0,0-8.1,0c-7,4-8.21,14.52-4,21l.58.88-.92.52c-8.83,5.17-2.95,20,7.06,15.55l.86-.46.37.9c2.13,5.58,8.3,9.28,13.81,5.87,7.11,10.26,17.33,4.57,20.48-5.56,2.35,2.52,6.39,3.7,9.1,1.08,4-4.06,4.07-10.57,2.9-15.83a15.78,15.78,0,0,0,4.64-11.48Zm0,0c0,4.17-1.53,8.72-4.57,11.48,1.21,5.33,1.27,11.87-2.75,16.06-2.61,2.69-6.9,1.85-9.39-.57l.47-.12c-3.13,10.53-13.86,16.21-21.62,6.21l.86.19c-6.07,3.59-13.2-.57-15.56-6.64l1.23.44c-8.22,4.32-16.4-4.5-13.71-12.75a10.4,10.4,0,0,1,4.86-6.1l-.35,1.4a18.14,18.14,0,0,1-1.09-17c2.35-5.59,8.94-9.55,14.78-6.6l-1,.37a14.48,14.48,0,0,1,3.33-4.65,10.85,10.85,0,0,1,5.08-2.69l-.44.46c1.61-8.52,12.54-11.08,17-3.3l-.46,0a6.76,6.76,0,0,1,2-1.51c6.19-2.49,9,6.58,9.72,11.15,6.93-.55,11.84,7.69,11.59,14.25Z"/>
          </g>
        </g>
        <g class="ffbde21b-157f-47ad-984a-1275cd857533">
          <g>
            <path class="b80f12e8-4e40-4aff-b3a6-adfbac4cf5c2" d="M914.61,724.94c0-11.13-7.13-20.16-15.92-20.16l-.6,0c-1.51-9.38-5.77-16.15-10.8-16.15A7.3,7.3,0,0,0,882,691.4a12.4,12.4,0,0,0-10.6-6.28c-6.1,0-11.18,4.68-12.34,10.89-4.79,1.06-8.85,4.82-11.15,10a12.89,12.89,0,0,0-5.49-1.23c-8.79,0-15.92,9-15.92,20.16a23.47,23.47,0,0,0,3.64,12.83,13.77,13.77,0,0,0-6.87,12.12c0,7.52,5.64,13.61,12.6,13.61a11.83,11.83,0,0,0,5.53-1.38c2.68,6.37,8,10.71,14.07,10.71a13,13,0,0,0,6.34-1.67c3.35,4.49,7.75,7.21,12.58,7.21,7.37,0,13.74-6.32,16.87-15.56,5.82,5.3,12.57,4,15.92-3.5,2.25-5.07,2.45-11.81.94-18.1C912,737.54,914.61,731.62,914.61,724.94Z"/>
            <path class="a2f80c6f-7a0e-43fd-9a3c-770ec66bfb5e" d="M914.61,724.94c.06-9.65-6.18-20.25-16.62-20.12-.76-4.39-2.08-8.83-4.76-12.43-3-4-7.66-4.86-11.05-.8l-.25.29-.21-.33c-6.11-10-20.15-6.71-22.12,4.57l-.07.37a13.89,13.89,0,0,0-6.79,3.67,19.76,19.76,0,0,0-4.49,6.82l-.68-.31c-7.39-3.48-15.28,1.62-18.19,8.64a23.63,23.63,0,0,0,1.54,21.93l.58.88a12.79,12.79,0,0,0-6.66,7.77c-3.23,9.79,6.18,20.47,16.13,15.46l.84-.44.37.87c3.08,7.92,11.84,13.31,19.8,8.52,10.29,14.34,24.58,6.34,29.12-8,5.32,5.32,12.36,4.58,15.63-2.45,2.77-5.74,2.69-12.5,1.3-18.62,0,0,0,0,0-.06,4.41-4.12,6.53-10.26,6.56-16.22Zm0,0c0,6-2.07,12.15-6.47,16.32l0-.07c1.44,6.16,1.58,12.95-1.18,18.77-2,4.58-6.92,7.74-11.84,5.64A14.15,14.15,0,0,1,891,763l.48-.13c-4.54,14.77-19.31,22.74-30.27,8.67l.87.18c-8.57,4.94-18.2-.79-21.54-9.29l1.21.43c-11.4,5.83-22.45-6.17-18.83-17.59a14.24,14.24,0,0,1,6.69-8.38l-.35,1.39a25.49,25.49,0,0,1-1.53-23.73c3.33-7.82,12.19-13.27,20.43-9.23l-1,.36a20.41,20.41,0,0,1,4.62-6.5,15.07,15.07,0,0,1,7.06-3.76l-.45.46c2.34-12,17.34-15.52,23.77-4.66l-.46,0c1.53-1.68,3.77-3.06,6.13-2.72,6.77,1.23,9.28,10.46,10.31,16.3,4.28-.63,9.63,2.64,12.23,6.49a23.56,23.56,0,0,1,4.18,13.67Z"/>
          </g>
          <g>
            <path class="a4d77aa8-4f61-41b8-bb80-68f360ba5c71" d="M1012.87,692.67c0-16.26-10.41-29.45-23.26-29.45-.29,0-.57,0-.86,0-2.22-13.7-8.44-23.58-15.77-23.58-2.81,0-5.46,1.45-7.78,4a18.09,18.09,0,0,0-15.49-9.16c-8.89,0-16.32,6.83-18,15.9-7,1.54-12.91,7-16.27,14.6a19,19,0,0,0-8-1.8c-12.84,0-23.26,13.19-23.26,29.45a34.4,34.4,0,0,0,5.32,18.74,20.1,20.1,0,0,0-10,17.7c0,11,8.23,19.87,18.39,19.87a17.1,17.1,0,0,0,8.08-2c3.91,9.31,11.64,15.65,20.55,15.65a19.14,19.14,0,0,0,9.26-2.44c4.88,6.55,11.32,10.53,18.37,10.53,10.75,0,20.07-9.24,24.64-22.73,8.49,7.74,18.35,5.9,23.24-5.11,3.29-7.4,3.59-17.25,1.38-26.44C1009.12,711.07,1012.87,702.42,1012.87,692.67Z"/>
            <path class="b99394a0-97f5-4078-a08d-457c4e946e61" d="M1012.87,692.67c.14-13.93-9-29.72-24.23-29.4-1.09-6.42-3-12.91-6.94-18.19-4.45-6-11.16-7.18-16.29-1.21l-.25.29-.21-.33c-6-10.26-20.05-12.06-28-3a20.21,20.21,0,0,0-4.78,10.08,20.51,20.51,0,0,0-9.88,5.36,28.34,28.34,0,0,0-6.52,9.73l-.68-.31C904,660.5,892.44,668,888,678.44c-4.55,10.27-3.89,23,2.25,32.43l.57.88a18.92,18.92,0,0,0-9.52,11.37c-4.76,14.75,9.24,30.53,24.17,23.07l.84-.44.38.87c4.54,11.45,16.89,19.41,28.68,13l.51-.28.35.47c7.42,10.43,20,14.15,30.51,5.74,5.72-4.59,9.46-11.18,11.83-18,7.89,7.68,18,6.44,22.82-3.8,4-8.4,3.91-18.28,1.87-27.22,0,0,0,0,0-.07,6.44-6,9.53-15,9.56-23.7Zm0,0c0,8.72-3,17.73-9.47,23.8l0-.06c2.1,9,2.28,18.89-1.75,27.37-3,6.75-9.88,11.18-17.2,8.16a20.25,20.25,0,0,1-5.94-3.75l.48-.13c-3.06,9-8.77,18.2-18,21.82-9.73,4-20-1.28-25.81-9.31l.86.19a19.79,19.79,0,0,1-9.15,2.57c-9.91.35-18.21-7.27-21.78-16l1.21.43c-16.39,8.28-32-8.82-26.88-25.19a20.45,20.45,0,0,1,9.55-12l-.35,1.39c-6.46-10.09-7.08-23.38-2.23-34.23,4.87-11.34,17.36-19.08,29.31-13.35l-1,.36a29.53,29.53,0,0,1,6.66-9.42,21.78,21.78,0,0,1,10.16-5.45l-.45.46c3.38-17.35,24.93-22.46,34.33-6.78l-.46,0c2.21-2.44,5.43-4.44,8.85-4,9.67,1.57,13.62,15.39,15,23.71,14.78-.89,24.36,15.74,24,29.44Z"/>
          </g>
          <g>
            <path class="a1e56b46-851a-46b0-97cf-e1f05b17fd17" d="M995.09,754.74c0-7.87-5-14.25-11.25-14.25l-.42,0c-1.07-6.63-4.08-11.41-7.63-11.41A5.15,5.15,0,0,0,972,731a8.73,8.73,0,0,0-7.49-4.43,9.1,9.1,0,0,0-8.72,7.69c-3.38.74-6.25,3.4-7.87,7.06a9.21,9.21,0,0,0-3.88-.87c-6.21,0-11.25,6.38-11.25,14.25a16.59,16.59,0,0,0,2.57,9.06,9.74,9.74,0,0,0-4.85,8.57c0,5.31,4,9.61,8.9,9.61a8.27,8.27,0,0,0,3.91-1c1.89,4.51,5.63,7.57,9.94,7.57a9.19,9.19,0,0,0,4.48-1.18c2.36,3.17,5.48,5.1,8.89,5.1,5.2,0,9.71-4.47,11.92-11,4.1,3.75,8.88,2.86,11.24-2.47,1.59-3.58,1.74-8.35.67-12.79A15.69,15.69,0,0,0,995.09,754.74Z"/>
            <path class="a4122124-b153-4e38-9510-a39073bd1c1a" d="M995.09,754.74c.11-6.57-4.34-14.48-11.66-14.15-.1,0-.07,0-.09-.07a26.68,26.68,0,0,0-1.19-4.59c-1.39-4.33-5.74-9.46-9.9-4.7l-.26.29-.21-.33c-4.23-7-14.09-4.63-15.39,3.22l-.07.37a9.63,9.63,0,0,0-4.81,2.59,14,14,0,0,0-3.19,5,8.55,8.55,0,0,0-8.1,0c-7,4-8.21,14.53-4,21l.58.89-.93.52c-8.83,5.17-3,20,7.07,15.55l.85-.46.38.9c2.12,5.58,8.29,9.28,13.8,5.87,7.11,10.26,17.33,4.57,20.48-5.56,2.35,2.52,6.4,3.7,9.11,1.08,4-4.06,4.06-10.57,2.89-15.83a15.74,15.74,0,0,0,4.64-11.48Zm0,0c0,4.17-1.53,8.72-4.57,11.48,1.21,5.33,1.27,11.87-2.75,16.06-2.61,2.69-6.9,1.85-9.39-.57l.48-.12c-3.14,10.53-13.87,16.21-21.63,6.21l.86.18c-6.06,3.6-13.2-.56-15.56-6.63l1.23.44c-8.22,4.32-16.4-4.5-13.71-12.75a10.4,10.4,0,0,1,4.86-6.1l-.35,1.4a18.14,18.14,0,0,1-1.08-17c2.35-5.59,8.93-9.55,14.77-6.6l-1,.37a14.36,14.36,0,0,1,3.34-4.65,10.8,10.8,0,0,1,5.08-2.69l-.45.46c1.61-8.52,12.54-11.08,17-3.3l-.46,0a6.91,6.91,0,0,1,2-1.5c6.19-2.49,9,6.58,9.72,11.15,6.94-.55,11.84,7.69,11.59,14.25Z"/>
          </g>
        </g>
        <g class="ffbde21b-157f-47ad-984a-1275cd857533">
          <g>
            <path class="b80f12e8-4e40-4aff-b3a6-adfbac4cf5c2" d="M588,435.42c0-11.13-7.13-20.16-15.92-20.16l-.59,0c-1.52-9.38-5.78-16.15-10.8-16.15a7.3,7.3,0,0,0-5.33,2.75,12.39,12.39,0,0,0-10.6-6.28c-6.09,0-11.18,4.68-12.34,10.89-4.79,1.06-8.84,4.82-11.14,10a13.07,13.07,0,0,0-5.49-1.23c-8.8,0-15.93,9-15.93,20.16a23.55,23.55,0,0,0,3.64,12.83,13.78,13.78,0,0,0-6.86,12.12c0,7.52,5.64,13.61,12.59,13.61a11.84,11.84,0,0,0,5.54-1.38c2.67,6.37,8,10.71,14.07,10.71a13.1,13.1,0,0,0,6.34-1.67c3.34,4.49,7.75,7.21,12.58,7.21,7.36,0,13.74-6.32,16.87-15.56,5.81,5.3,12.56,4,15.91-3.5,2.25-5.06,2.46-11.81.95-18.1C585.48,448,588,442.1,588,435.42Z"/>
            <path class="a2f80c6f-7a0e-43fd-9a3c-770ec66bfb5e" d="M588,435.42c.06-9.65-6.17-20.25-16.62-20.12-.75-4.39-2.08-8.83-4.76-12.43-2.95-4-7.65-4.86-11-.8l-.26.29-.2-.33C549,392,535,395.32,533,406.6L533,407a13.94,13.94,0,0,0-6.79,3.67,19.73,19.73,0,0,0-4.48,6.82l-.68-.31c-7.39-3.47-15.29,1.62-18.19,8.65a23.59,23.59,0,0,0,1.54,21.92l.57.88a12.82,12.82,0,0,0-6.66,7.77c-3.22,9.79,6.19,20.47,16.13,15.46l.84-.44.37.87c3.09,7.93,11.84,13.31,19.8,8.52,10.3,14.34,24.58,6.34,29.13-8,5.32,5.32,12.35,4.59,15.62-2.45,2.78-5.74,2.69-12.5,1.3-18.61v0l0,0c4.42-4.12,6.54-10.26,6.56-16.22Zm0,0c0,6-2.06,12.15-6.47,16.32l0-.07c1.45,6.16,1.58,12.95-1.18,18.77-2,4.58-6.92,7.74-11.84,5.64a14.1,14.1,0,0,1-4.1-2.57l.48-.13c-4.55,14.77-19.32,22.74-30.27,8.67l.86.18c-8.57,4.94-18.19-.79-21.53-9.29l1.21.43c-11.41,5.83-22.46-6.17-18.83-17.59a14.26,14.26,0,0,1,6.68-8.38l-.34,1.39a25.43,25.43,0,0,1-1.53-23.73c3.33-7.82,12.19-13.27,20.42-9.23l-1,.36a20.29,20.29,0,0,1,4.63-6.5,15,15,0,0,1,7.05-3.76l-.44.46c2.33-12,17.33-15.52,23.76-4.66l-.46-.05c1.53-1.68,3.77-3.06,6.14-2.72,6.76,1.23,9.28,10.46,10.3,16.3,4.29-.63,9.64,2.64,12.24,6.49A23.48,23.48,0,0,1,588,435.42Z"/>
          </g>
          <g>
            <path class="a4d77aa8-4f61-41b8-bb80-68f360ba5c71" d="M686.3,403.15c0-16.26-10.41-29.45-23.25-29.45l-.87,0c-2.21-13.7-8.43-23.58-15.77-23.58-2.81,0-5.45,1.45-7.77,4A18.1,18.1,0,0,0,623.15,345c-8.9,0-16.32,6.83-18,15.9-7,1.54-12.92,7-16.28,14.6a19,19,0,0,0-8-1.8c-12.84,0-23.25,13.19-23.25,29.45a34.39,34.39,0,0,0,5.31,18.74,20.12,20.12,0,0,0-10,17.7c0,11,8.24,19.87,18.39,19.87a17.14,17.14,0,0,0,8.09-2c3.91,9.31,11.64,15.65,20.54,15.65a19.08,19.08,0,0,0,9.26-2.44c4.89,6.55,11.32,10.53,18.38,10.53,10.75,0,20.06-9.24,24.63-22.73,8.5,7.74,18.36,5.91,23.25-5.11,3.28-7.4,3.58-17.25,1.38-26.43C682.56,421.55,686.3,412.9,686.3,403.15Z"/>
            <path class="b99394a0-97f5-4078-a08d-457c4e946e61" d="M686.3,403.15c.15-13.93-9-29.72-24.23-29.4-1.09-6.42-3-12.91-6.93-18.19-4.46-6-11.16-7.18-16.29-1.21l-.26.29-.2-.33c-6-10.26-20-12.06-28-3a20,20,0,0,0-4.78,10.08,20.54,20.54,0,0,0-9.89,5.36,28.58,28.58,0,0,0-6.52,9.73l-.67-.31c-11.08-5.18-22.67,2.27-27.09,12.76-4.54,10.27-3.89,23,2.25,32.44l.57.87a19,19,0,0,0-9.52,11.37c-4.76,14.75,9.24,30.54,24.18,23.07l.84-.44.37.87c4.55,11.45,16.9,19.41,28.68,13l.52-.28.34.47c7.43,10.43,20,14.15,30.52,5.74,5.72-4.59,9.45-11.18,11.82-18.05,7.89,7.68,18,6.45,22.82-3.8,4-8.4,3.91-18.28,1.87-27.22,0,0,0,0,0-.06,6.45-6,9.53-15,9.56-23.71Zm0,0c0,8.72-3,17.73-9.47,23.8l0-.06c2.1,9,2.28,18.89-1.75,27.37-3,6.75-9.87,11.18-17.19,8.16a20.25,20.25,0,0,1-5.94-3.75l.47-.12c-3.06,9-8.77,18.19-18,21.82-9.73,3.94-20-1.29-25.8-9.32l.86.19a19.83,19.83,0,0,1-9.16,2.57c-9.9.35-18.2-7.27-21.78-16l1.22.43c-16.4,8.29-32-8.82-26.88-25.19a20.38,20.38,0,0,1,9.54-12l-.34,1.38c-6.46-10.09-7.08-23.38-2.24-34.23,4.88-11.34,17.37-19.08,29.32-13.35l-1,.36a29.5,29.5,0,0,1,6.65-9.42A21.82,21.82,0,0,1,605,360.33l-.44.46c3.38-17.35,24.93-22.45,34.32-6.78l-.46-.05c2.21-2.44,5.44-4.44,8.86-4,9.67,1.57,13.61,15.39,15,23.71,14.78-.89,24.35,15.75,24,29.44Z"/>
          </g>
          <g>
            <path class="a1e56b46-851a-46b0-97cf-e1f05b17fd17" d="M668.53,465.22c0-7.87-5-14.25-11.25-14.25l-.42,0c-1.07-6.63-4.08-11.41-7.63-11.41a5.13,5.13,0,0,0-3.76,1.94,8.75,8.75,0,0,0-7.5-4.43,9.09,9.09,0,0,0-8.71,7.69c-3.39.75-6.25,3.4-7.88,7.06a9.17,9.17,0,0,0-3.88-.87c-6.21,0-11.25,6.38-11.25,14.25a16.6,16.6,0,0,0,2.58,9.06,9.74,9.74,0,0,0-4.85,8.57c0,5.31,4,9.61,8.89,9.61a8.24,8.24,0,0,0,3.91-1c1.9,4.51,5.64,7.57,9.94,7.57a9.26,9.26,0,0,0,4.48-1.17c2.37,3.16,5.48,5.09,8.89,5.09,5.2,0,9.71-4.47,11.92-11,4.11,3.75,8.88,2.86,11.25-2.47,1.58-3.58,1.73-8.35.66-12.79A15.69,15.69,0,0,0,668.53,465.22Z"/>
            <path class="a4122124-b153-4e38-9510-a39073bd1c1a" d="M668.53,465.22c.1-6.57-4.35-14.48-11.67-14.15-.1,0-.07,0-.08-.07a25.83,25.83,0,0,0-1.2-4.59c-1.39-4.32-5.74-9.46-9.9-4.7l-.25.3-.21-.34c-4.23-7-14.09-4.63-15.39,3.22l-.07.37a9.63,9.63,0,0,0-4.81,2.59,14,14,0,0,0-3.19,5,8.54,8.54,0,0,0-8.11,0c-7,4-8.21,14.52-4,21l.58.89-.93.52c-8.82,5.17-2.95,20,7.07,15.55l.86-.46.37.9c2.13,5.58,8.3,9.28,13.8,5.87,7.12,10.26,17.33,4.57,20.49-5.56,2.35,2.52,6.39,3.7,9.1,1.08,4-4.06,4.07-10.57,2.89-15.83a15.79,15.79,0,0,0,4.65-11.48Zm0,0c0,4.17-1.53,8.72-4.57,11.48,1.21,5.33,1.27,11.87-2.76,16.06-2.6,2.69-6.89,1.85-9.39-.57l.48-.12c-3.13,10.53-13.86,16.21-21.62,6.21l.86.18c-6.07,3.6-13.2-.56-15.56-6.63l1.23.44c-8.22,4.32-16.4-4.5-13.71-12.75a10.36,10.36,0,0,1,4.86-6.1l-.35,1.4a18.14,18.14,0,0,1-1.09-17c2.35-5.59,8.94-9.55,14.78-6.6l-1,.37a14.48,14.48,0,0,1,3.33-4.65,10.85,10.85,0,0,1,5.08-2.69l-.45.46c1.62-8.52,12.55-11.08,17-3.3l-.47-.05a7.05,7.05,0,0,1,2-1.5c6.19-2.49,9,6.58,9.73,11.15,6.93-.55,11.83,7.69,11.59,14.25Z"/>
          </g>
        </g>
        <g class="ffbde21b-157f-47ad-984a-1275cd857533">
          <g>
            <path class="b80f12e8-4e40-4aff-b3a6-adfbac4cf5c2" d="M77.67,342.92c0-11.13-7.13-20.16-15.92-20.16l-.59,0c-1.52-9.38-5.78-16.15-10.8-16.15A7.3,7.3,0,0,0,45,309.38a12.39,12.39,0,0,0-10.6-6.28c-6.09,0-11.18,4.68-12.34,10.89-4.79,1.06-8.84,4.82-11.14,10a13.1,13.1,0,0,0-5.49-1.23c-8.8,0-15.93,9-15.93,20.16a23.55,23.55,0,0,0,3.64,12.83,13.78,13.78,0,0,0-6.86,12.12c0,7.52,5.64,13.61,12.59,13.61a11.84,11.84,0,0,0,5.54-1.38c2.67,6.37,8,10.71,14.07,10.71a13.1,13.1,0,0,0,6.34-1.67c3.34,4.49,7.75,7.21,12.58,7.21,7.36,0,13.74-6.32,16.87-15.56,5.81,5.3,12.56,4,15.91-3.5,2.25-5.06,2.46-11.81,1-18.1C75.11,355.52,77.67,349.6,77.67,342.92Z"/>
            <path class="a2f80c6f-7a0e-43fd-9a3c-770ec66bfb5e" d="M77.67,342.92c.06-9.65-6.17-20.25-16.62-20.12-.75-4.39-2.08-8.83-4.76-12.43-2.95-4-7.65-4.86-11-.8l-.26.29-.2-.33c-6.12-10-20.16-6.71-22.13,4.57l-.07.37a13.94,13.94,0,0,0-6.79,3.67A19.73,19.73,0,0,0,11.32,325l-.68-.31c-7.35-3.48-15.32,1.64-18.19,8.65A23.59,23.59,0,0,0-6,355.22l.57.88a12.82,12.82,0,0,0-6.66,7.77c-3.22,9.79,6.19,20.47,16.13,15.46l.84-.44.37.87c3.09,7.93,11.84,13.31,19.8,8.52,10.3,14.34,24.58,6.34,29.13-8,5.32,5.32,12.35,4.59,15.62-2.45,2.78-5.74,2.69-12.5,1.3-18.61v0l0,0c4.42-4.12,6.54-10.26,6.56-16.22Zm0,0c0,6-2.06,12.15-6.47,16.32l0-.07c1.45,6.16,1.58,12.95-1.18,18.77-2,4.58-6.92,7.74-11.84,5.64A14.1,14.1,0,0,1,54.1,381l.48-.13c-4.55,14.77-19.32,22.74-30.27,8.67l.86.18c-8.57,4.94-18.19-.79-21.54-9.29l1.22.43C-6.56,386.7-17.61,374.7-14,363.28A14.26,14.26,0,0,1-7.3,354.9l-.35,1.39a25.46,25.46,0,0,1-1.52-23.73c3.32-7.82,12.19-13.27,20.42-9.23l-1,.36a20.29,20.29,0,0,1,4.63-6.5A15,15,0,0,1,22,313.43l-.44.46c2.33-12,17.33-15.52,23.76-4.66l-.46-.05c1.53-1.68,3.77-3.06,6.14-2.72,6.76,1.23,9.28,10.46,10.3,16.3,4.29-.63,9.64,2.64,12.24,6.49a23.48,23.48,0,0,1,4.17,13.67Z"/>
          </g>
          <g>
            <path class="a4d77aa8-4f61-41b8-bb80-68f360ba5c71" d="M175.93,310.65c0-16.26-10.41-29.45-23.25-29.45l-.87,0c-2.21-13.7-8.43-23.58-15.77-23.58-2.81,0-5.45,1.45-7.77,4a18.1,18.1,0,0,0-15.49-9.16c-8.9,0-16.32,6.83-18,15.9-7,1.54-12.92,7-16.28,14.6a19,19,0,0,0-8-1.8c-12.84,0-23.25,13.19-23.25,29.45a34.39,34.39,0,0,0,5.31,18.74,20.12,20.12,0,0,0-10,17.7c0,11,8.23,19.87,18.39,19.87a17.14,17.14,0,0,0,8.09-2c3.91,9.31,11.64,15.65,20.54,15.65a19.11,19.11,0,0,0,9.26-2.44c4.89,6.55,11.32,10.53,18.38,10.53,10.75,0,20.06-9.24,24.63-22.73,8.5,7.74,18.36,5.91,23.25-5.11,3.28-7.4,3.58-17.25,1.38-26.43C172.19,329.05,175.93,320.4,175.93,310.65Z"/>
            <path class="b99394a0-97f5-4078-a08d-457c4e946e61" d="M175.93,310.65c.14-13.93-9-29.72-24.23-29.4-1.09-6.42-3-12.91-6.93-18.19-4.46-6-11.17-7.18-16.29-1.21l-.26.29-.2-.33c-6-10.26-20.06-12.06-28-3a20.14,20.14,0,0,0-4.79,10.08,20.55,20.55,0,0,0-9.88,5.36A28.58,28.58,0,0,0,78.85,284l-.67-.31c-11.08-5.18-22.67,2.27-27.09,12.76-4.54,10.27-3.89,23,2.25,32.44l.57.87a19,19,0,0,0-9.52,11.37c-4.76,14.75,9.24,30.54,24.18,23.07l.84-.44.37.87c4.55,11.45,16.9,19.41,28.68,13l.52-.28.34.47c7.43,10.43,20,14.15,30.52,5.74,5.72-4.59,9.45-11.18,11.82-18.05,7.89,7.68,18,6.45,22.82-3.8,4.05-8.4,3.91-18.28,1.87-27.22,0,0,0,0,0-.06,6.45-6,9.53-15,9.56-23.71Zm0,0c0,8.72-3,17.73-9.47,23.8l0-.06c2.1,9,2.28,18.89-1.75,27.37-3,6.75-9.87,11.18-17.19,8.16a20.25,20.25,0,0,1-5.94-3.75l.47-.12c-3.06,9-8.77,18.19-18,21.82-9.73,3.94-20-1.29-25.8-9.32l.86.19A19.83,19.83,0,0,1,90,381.31c-9.91.35-18.2-7.27-21.78-16l1.22.43c-16.4,8.29-32-8.82-26.88-25.19a20.38,20.38,0,0,1,9.54-12l-.34,1.38c-6.46-10.09-7.09-23.38-2.24-34.23,4.88-11.34,17.37-19.08,29.32-13.35l-1,.36a29.5,29.5,0,0,1,6.65-9.42,21.82,21.82,0,0,1,10.16-5.45l-.44.46c3.38-17.35,24.93-22.45,34.32-6.78l-.46-.05c2.21-2.44,5.44-4.44,8.86-4,9.67,1.57,13.61,15.39,15,23.71,14.78-.89,24.35,15.75,24,29.44Z"/>
          </g>
          <g>
            <path class="a1e56b46-851a-46b0-97cf-e1f05b17fd17" d="M158.16,372.72c0-7.87-5-14.25-11.25-14.25l-.42,0c-1.07-6.63-4.08-11.41-7.63-11.41A5.13,5.13,0,0,0,135.1,349a8.75,8.75,0,0,0-7.5-4.43,9.09,9.09,0,0,0-8.71,7.69c-3.39.75-6.25,3.4-7.88,7.06a9.17,9.17,0,0,0-3.88-.87c-6.21,0-11.25,6.38-11.25,14.25a16.68,16.68,0,0,0,2.57,9.06,9.75,9.75,0,0,0-4.84,8.57c0,5.31,4,9.61,8.89,9.61a8.24,8.24,0,0,0,3.91-1c1.9,4.51,5.64,7.57,9.94,7.57a9.26,9.26,0,0,0,4.48-1.17c2.37,3.16,5.48,5.09,8.89,5.09,5.2,0,9.71-4.47,11.92-11,4.11,3.75,8.88,2.86,11.25-2.47,1.58-3.58,1.73-8.35.66-12.79A15.69,15.69,0,0,0,158.16,372.72Z"/>
            <path class="a4122124-b153-4e38-9510-a39073bd1c1a" d="M158.16,372.72c.1-6.57-4.35-14.48-11.67-14.15-.1,0-.07,0-.08-.07a25.83,25.83,0,0,0-1.2-4.59c-1.39-4.32-5.74-9.46-9.9-4.7l-.25.3-.21-.34c-4.23-7-14.09-4.63-15.39,3.22l-.07.37a9.58,9.58,0,0,0-4.81,2.59,14,14,0,0,0-3.19,5,8.54,8.54,0,0,0-8.11,0c-7,4-8.21,14.52-4,21l.58.89-.93.52c-8.82,5.17-3,20,7.07,15.55l.86-.46.37.9c2.13,5.58,8.3,9.28,13.8,5.87,7.12,10.26,17.33,4.57,20.49-5.56,2.35,2.52,6.39,3.7,9.1,1.08,4-4.06,4.07-10.57,2.89-15.83a15.79,15.79,0,0,0,4.65-11.48Zm0,0c0,4.17-1.53,8.72-4.57,11.48,1.21,5.33,1.27,11.87-2.76,16.06-2.61,2.69-6.89,1.85-9.39-.57l.48-.12c-3.13,10.53-13.86,16.21-21.62,6.21l.86.18c-6.07,3.6-13.2-.56-15.56-6.63l1.23.44c-8.22,4.32-16.4-4.5-13.71-12.75a10.36,10.36,0,0,1,4.86-6.1l-.35,1.4a18.14,18.14,0,0,1-1.09-17c2.35-5.59,8.94-9.55,14.78-6.6l-1,.37a14.48,14.48,0,0,1,3.33-4.65,10.85,10.85,0,0,1,5.08-2.69l-.45.46c1.62-8.52,12.55-11.08,17-3.3l-.46-.05a7.05,7.05,0,0,1,2-1.5c6.19-2.49,9,6.58,9.73,11.15,6.93-.55,11.83,7.69,11.59,14.25Z"/>
          </g>
        </g>
        <g class="ffbde21b-157f-47ad-984a-1275cd857533">
          <g>
            <path class="b80f12e8-4e40-4aff-b3a6-adfbac4cf5c2" d="M1561.38,324.17c0-11.13-7.13-20.16-15.93-20.16l-.59,0c-1.51-9.38-5.78-16.15-10.8-16.15a7.3,7.3,0,0,0-5.32,2.75,12.4,12.4,0,0,0-10.61-6.28c-6.09,0-11.17,4.68-12.34,10.89-4.79,1.06-8.84,4.82-11.14,10a13,13,0,0,0-5.49-1.23c-8.8,0-15.92,9-15.92,20.16a23.47,23.47,0,0,0,3.64,12.83,13.77,13.77,0,0,0-6.87,12.12c0,7.52,5.64,13.61,12.6,13.61a11.83,11.83,0,0,0,5.53-1.38c2.68,6.37,8,10.71,14.07,10.71a13.07,13.07,0,0,0,6.34-1.67c3.34,4.49,7.75,7.21,12.58,7.21,7.36,0,13.74-6.32,16.87-15.56,5.82,5.3,12.57,4,15.92-3.5,2.24-5.06,2.45-11.81.94-18.1C1558.81,336.77,1561.38,330.85,1561.38,324.17Z"/>
            <path class="a2f80c6f-7a0e-43fd-9a3c-770ec66bfb5e" d="M1561.38,324.17c0-9.65-6.18-20.25-16.63-20.12-.75-4.39-2.07-8.83-4.75-12.43-3-4-7.66-4.86-11-.8l-.25.29-.21-.33c-6.11-10-20.15-6.71-22.13,4.57l-.07.37a13.9,13.9,0,0,0-6.78,3.67,19.76,19.76,0,0,0-4.49,6.82l-.68-.31c-7.39-3.47-15.28,1.62-18.19,8.65a23.61,23.61,0,0,0,1.54,21.92l.58.88a12.86,12.86,0,0,0-6.67,7.77c-3.22,9.79,6.19,20.47,16.13,15.46l.84-.44.38.87c3.08,7.93,11.84,13.31,19.8,8.52,10.29,14.34,24.58,6.34,29.12-8,5.32,5.32,12.36,4.59,15.63-2.45,2.77-5.74,2.69-12.5,1.29-18.61v0l0,0c4.42-4.12,6.54-10.26,6.57-16.22Zm0,0c0,6-2.07,12.15-6.47,16.32l0-.07c1.44,6.16,1.57,12.95-1.18,18.77-2,4.58-6.92,7.74-11.84,5.64a14.15,14.15,0,0,1-4.11-2.57l.48-.13c-4.54,14.77-19.31,22.74-30.27,8.67l.87.18c-8.57,4.94-18.2-.79-21.54-9.29l1.21.43c-11.4,5.83-22.45-6.17-18.83-17.59a14.26,14.26,0,0,1,6.68-8.38l-.34,1.39a25.46,25.46,0,0,1-1.53-23.73c3.33-7.82,12.19-13.27,20.43-9.23l-1,.36a20.44,20.44,0,0,1,4.63-6.5,15,15,0,0,1,7.06-3.76l-.45.46c2.33-12,17.33-15.52,23.77-4.66l-.47-.05c1.54-1.68,3.78-3.06,6.14-2.72,6.77,1.23,9.28,10.46,10.31,16.3,4.28-.63,9.63,2.64,12.23,6.49a23.56,23.56,0,0,1,4.18,13.67Z"/>
          </g>
          <g>
            <path class="a4d77aa8-4f61-41b8-bb80-68f360ba5c71" d="M1659.64,291.9c0-16.26-10.41-29.45-23.26-29.45l-.87,0c-2.21-13.7-8.43-23.58-15.77-23.58-2.81,0-5.45,1.45-7.77,4a18.09,18.09,0,0,0-15.49-9.16c-8.9,0-16.32,6.83-18,15.9-7,1.54-12.92,7-16.27,14.6a19,19,0,0,0-8-1.8c-12.85,0-23.26,13.19-23.26,29.45a34.4,34.4,0,0,0,5.32,18.74,20.1,20.1,0,0,0-10,17.7c0,11,8.24,19.87,18.4,19.87a17.1,17.1,0,0,0,8.08-2c3.91,9.31,11.64,15.65,20.55,15.65a19.14,19.14,0,0,0,9.26-2.44c4.88,6.55,11.32,10.53,18.37,10.53,10.75,0,20.07-9.24,24.64-22.73,8.49,7.74,18.35,5.91,23.24-5.11,3.28-7.4,3.59-17.25,1.38-26.43C1655.89,310.3,1659.64,301.65,1659.64,291.9Z"/>
            <path class="b99394a0-97f5-4078-a08d-457c4e946e61" d="M1659.64,291.9c.14-13.93-9-29.72-24.23-29.4-1.09-6.42-3-12.91-6.94-18.19-4.45-6-11.16-7.18-16.29-1.21l-.26.29-.2-.33c-6-10.26-20-12.06-28-3a20.21,20.21,0,0,0-4.78,10.08,20.59,20.59,0,0,0-9.89,5.36,28.58,28.58,0,0,0-6.52,9.73l-.67-.31c-11.08-5.18-22.67,2.27-27.09,12.76-4.54,10.27-3.88,23,2.25,32.44l.58.87a18.89,18.89,0,0,0-9.52,11.37c-4.76,14.75,9.24,30.54,24.17,23.07l.84-.44.37.87c4.55,11.45,16.9,19.41,28.68,13l.52-.28.35.47c7.42,10.43,20,14.15,30.51,5.74,5.72-4.59,9.46-11.18,11.83-18.05,7.89,7.68,18,6.45,22.82-3.8,4-8.4,3.91-18.28,1.86-27.22,0,0,0,0,0-.06,6.45-6,9.54-15,9.57-23.71Zm0,0c0,8.72-3,17.73-9.47,23.8l0-.06c2.09,9,2.28,18.89-1.75,27.37-3,6.75-9.88,11.18-17.2,8.16a20.25,20.25,0,0,1-5.94-3.75l.48-.12c-3.07,9-8.77,18.19-18,21.82-9.74,3.94-20-1.29-25.81-9.32l.86.19a19.83,19.83,0,0,1-9.15,2.57c-9.91.35-18.21-7.27-21.78-16l1.21.43c-16.39,8.29-32-8.82-26.88-25.19a20.42,20.42,0,0,1,9.54-12l-.34,1.38c-6.46-10.09-7.08-23.38-2.23-34.23,4.87-11.34,17.36-19.08,29.31-13.35l-1,.36a29.53,29.53,0,0,1,6.66-9.42,21.74,21.74,0,0,1,10.15-5.45l-.44.46c3.38-17.35,24.93-22.45,34.33-6.78l-.47,0c2.22-2.44,5.44-4.44,8.86-4,9.67,1.57,13.61,15.39,15,23.71,14.78-.89,24.35,15.75,24,29.44Z"/>
          </g>
          <g>
            <path class="a1e56b46-851a-46b0-97cf-e1f05b17fd17" d="M1641.86,354c0-7.87-5-14.25-11.25-14.25l-.42,0c-1.07-6.63-4.08-11.41-7.63-11.41a5.13,5.13,0,0,0-3.76,1.94,8.73,8.73,0,0,0-7.49-4.43,9.09,9.09,0,0,0-8.72,7.69c-3.38.75-6.25,3.4-7.87,7.06a9.21,9.21,0,0,0-3.88-.87c-6.22,0-11.25,6.38-11.25,14.25a16.59,16.59,0,0,0,2.57,9.06,9.74,9.74,0,0,0-4.85,8.57c0,5.31,4,9.61,8.9,9.61a8.27,8.27,0,0,0,3.91-1c1.89,4.51,5.63,7.57,9.94,7.57a9.32,9.32,0,0,0,4.48-1.17c2.36,3.16,5.47,5.09,8.89,5.09,5.2,0,9.7-4.47,11.91-11,4.11,3.75,8.88,2.86,11.25-2.47,1.59-3.58,1.73-8.35.67-12.79A15.69,15.69,0,0,0,1641.86,354Z"/>
            <path class="a4122124-b153-4e38-9510-a39073bd1c1a" d="M1641.86,354c.11-6.57-4.34-14.48-11.66-14.15-.1,0-.07,0-.09-.07a26.68,26.68,0,0,0-1.19-4.59c-1.39-4.32-5.74-9.46-9.91-4.7l-.25.3-.21-.34c-4.23-7-14.09-4.63-15.39,3.22l-.07.37a9.63,9.63,0,0,0-4.81,2.59,14.14,14.14,0,0,0-3.19,5,8.52,8.52,0,0,0-8.1,0c-7,4-8.21,14.52-4,21l.58.89-.93.52c-8.83,5.17-3,20,7.06,15.55l.86-.46.38.9c2.12,5.58,8.29,9.28,13.8,5.87,7.11,10.26,17.33,4.57,20.48-5.56,2.35,2.52,6.39,3.7,9.1,1.08,4-4.06,4.07-10.57,2.9-15.83a15.74,15.74,0,0,0,4.64-11.48Zm0,0c0,4.17-1.53,8.72-4.57,11.48,1.21,5.33,1.27,11.87-2.75,16.06-2.61,2.69-6.9,1.85-9.39-.57l.47-.12c-3.13,10.53-13.86,16.21-21.62,6.21l.86.18c-6.06,3.6-13.2-.56-15.56-6.63l1.23.44c-8.22,4.32-16.4-4.5-13.71-12.75a10.4,10.4,0,0,1,4.86-6.1l-.35,1.4a18.17,18.17,0,0,1-1.09-17c2.35-5.59,8.94-9.55,14.78-6.6l-1,.37a14.48,14.48,0,0,1,3.33-4.65,10.85,10.85,0,0,1,5.08-2.69l-.44.46c1.61-8.52,12.54-11.08,17-3.3l-.46-.05a6.91,6.91,0,0,1,2-1.5c6.19-2.49,9,6.58,9.72,11.15,6.93-.55,11.84,7.69,11.59,14.25Z"/>
          </g>
        </g>
      </g>
    </g>
  </g>
  <g class="a8703bfe-1568-4bc8-8f5f-5f19a250dc7f">
    <path class="ff201ba4-afa2-4abd-8619-975817299815" d="M3488.15,391.08c-101.38,563.11-747.85,467.5-1225,467.5S1357,652.05,1357,366.4,1786-175.86,2263.14-175.86,3611.64-294.84,3488.15,391.08Z"/>
  </g>
</svg>
