<svg xmlns="http://www.w3.org/2000/svg" xmlns:xlink="http://www.w3.org/1999/xlink" width="1600" height="900" viewBox="0 0 1600 900">
  <defs>
    <style>
      .acc48f2c-1db3-41c4-a539-85ae2f27d596, .f0c925aa-a922-43a5-bf75-a49b5ccb4274 {
        fill: none;
      }

      .b5a94932-abb0-4689-a2fe-f722eb9ef032 {
        isolation: isolate;
      }

      .f5b19673-475c-4204-9141-504b4fc3629f {
        clip-path: url(#ea8a742d-ae78-47c9-82fe-cf33d3eb107a);
      }

      .e6805334-4127-47cc-8f7e-6b7daacab1bf {
        clip-path: url(#e18a86be-204e-44c9-adeb-0d540242fc8f);
      }

      .f785ab68-a2dd-4374-9d79-ac7bdae6d080 {
        fill: #fff;
        opacity: 0.8;
      }

      .f83a5cda-71b3-41c9-9a32-4d9af19fcebf {
        clip-path: url(#f32489bc-836f-4e8c-9ca3-97e72d802cae);
      }

      .b6abd1bc-d58f-4f95-96cf-1132b34c7881 {
        fill: url(#ba48b95c-005f-4001-92c1-bba174df4e5a);
      }

      .e969716f-c255-4dab-a9ef-8a9eb9a58fca {
        fill: #472409;
        mix-blend-mode: color-burn;
        opacity: 0.25;
      }

      .ba5622c6-13cc-4ce3-a5f0-b91abb849f8a, .e4266036-a4ac-4158-9e7c-4424acdef968 {
        fill: #3a3a3a;
      }

      .e4266036-a4ac-4158-9e7c-4424acdef968 {
        opacity: 0.3;
      }

      .e159ef9f-f2bd-432a-94aa-01939b3f8b0d {
        fill: #bf987e;
      }

      .e01e2f7d-0447-4d27-a381-4408f8d1019b {
        fill: #7d8a92;
      }

      .ecd270ea-a893-4c8c-a728-85121262b7a3 {
        fill: #bababa;
      }

      .f0c925aa-a922-43a5-bf75-a49b5ccb4274 {
        stroke: #4f3729;
        stroke-miterlimit: 10;
      }

      .a52d6263-9ba5-4337-9758-347de90394b5 {
        fill: url(#b7e8d007-300b-4c2b-b3e0-44706a2595b3);
      }

      .b1e0637f-233a-4472-a04b-e7fae8e36117 {
        fill: url(#e037088c-06a8-4435-8227-3fa28d209519);
      }

      .a7a4bfa5-6800-42fb-a0b4-b2bf1b3a7e2b {
        fill: url(#a4b873e9-e197-443a-ab6a-c361445aaebb);
      }

      .ad185d63-e2d4-4e93-8955-71806fdc0da6 {
        fill: url(#fb2fe72f-6ac2-4d91-b548-0a83739cd637);
      }

      .bf7b2552-613d-43ba-b387-e81bcd30c545 {
        fill: url(#faf5304c-0997-445b-8f89-9a92efd175eb);
      }

      .a1f7d0ea-4642-476d-a44d-7bfa8d7600ac {
        fill: #ddd;
      }

      .a2c779df-3e5c-41a6-acd7-68cb30d46549, .a811d4f7-eb34-4280-bc40-d66171aa50c8, .ac585b88-6bd5-4376-9110-3b736b9aeff6, .ace533a0-2c6f-4f63-9916-0bc9877bb2e1, .b2e9f2ef-453b-464e-b4b5-957c417bb8e9, .b308031d-10b0-4951-bebf-e9d4027897a9, .b89176bc-0618-4853-8f45-0392ea6d63ca, .e37633d3-68bf-46ac-9774-842888618b44, .e5b43b12-7078-4b3c-a17b-6380f6b5e6ce, .f3a772d5-9708-4446-a7c0-bc7b8694ddc5, .f7384a37-8461-47f9-8ed3-f23d0041c316 {
        fill-rule: evenodd;
      }

      .e5b43b12-7078-4b3c-a17b-6380f6b5e6ce {
        fill: url(#a66c2ed5-427e-49b3-9174-36a441abcebd);
      }

      .f7384a37-8461-47f9-8ed3-f23d0041c316 {
        fill: url(#b3d73753-5388-42ed-9a42-18d372ef0453);
      }

      .ace533a0-2c6f-4f63-9916-0bc9877bb2e1 {
        fill: #e5dcd3;
      }

      .a811d4f7-eb34-4280-bc40-d66171aa50c8, .ac585b88-6bd5-4376-9110-3b736b9aeff6, .ace533a0-2c6f-4f63-9916-0bc9877bb2e1, .b2e9f2ef-453b-464e-b4b5-957c417bb8e9, .b308031d-10b0-4951-bebf-e9d4027897a9, .b89176bc-0618-4853-8f45-0392ea6d63ca {
        opacity: 0.5;
      }

      .b2e9f2ef-453b-464e-b4b5-957c417bb8e9 {
        fill: #ebded5;
      }

      .b308031d-10b0-4951-bebf-e9d4027897a9 {
        fill: #ded4c8;
      }

      .ac585b88-6bd5-4376-9110-3b736b9aeff6 {
        fill: #ece3da;
      }

      .b89176bc-0618-4853-8f45-0392ea6d63ca {
        fill: #e0d4c8;
      }

      .a811d4f7-eb34-4280-bc40-d66171aa50c8 {
        fill: #ede0d0;
      }

      .e37633d3-68bf-46ac-9774-842888618b44 {
        fill: url(#e0a1f40b-69a0-434e-ae20-ad2a594eeacb);
      }

      .a2c779df-3e5c-41a6-acd7-68cb30d46549 {
        fill: url(#a4f40e97-1786-4dd9-bf85-0d4d7a8f274c);
      }

      .ae31634f-25e8-4e60-8314-94c3b93f3faa {
        fill: url(#faa71c12-e750-469e-a642-5f3a0a3b6ca1);
      }

      .fe83e914-b061-4d83-84f0-6aa22b832673 {
        fill: url(#bd1c9815-f0c6-474b-82dc-d9977c7abe3a);
      }

      .bcce7597-5d73-4658-add4-8831ecb132c6 {
        fill: url(#eb4a0569-686d-42a2-9d60-cdfe3b6a2504);
      }

      .bcc9a66f-1c6c-4a7f-98e4-635d6df007e6 {
        fill: url(#b24f8664-7ef8-4c61-9a4f-5c646b0fb231);
      }

      .fdcadcdc-0df0-49e0-86cf-93e6835fbb69 {
        fill: url(#f1900cb3-f35e-469d-8cce-4777fbefa153);
      }

      .b33e50c6-d6a8-4ec6-949c-c361b51552d6 {
        fill: url(#e75f0061-f266-441b-994b-9d2f6f831386);
      }

      .a74a2e88-b10b-4de3-88f8-2dcf44e264dd {
        fill: url(#a527999f-3083-4104-bf2c-f5b390a2c661);
      }

      .ae4b4b76-2fa3-44d5-ba71-8cc8cf0ec50d {
        fill: url(#a6b8e9a2-a460-41d0-992f-1ee3dfc48489);
      }

      .a02bb773-943c-499e-8f41-616f81e718ac {
        fill: #787777;
      }

      .a314cc78-c58a-4b7e-934a-33f220b86bb3 {
        fill: #4d4d4f;
      }

      .ac429744-051a-425e-9a18-a597ead60e78 {
        fill: #404041;
      }

      .a9727ab9-2893-4380-91ce-d64650633047 {
        fill: #bec5cc;
      }

      .a2be86b6-78d2-4fdd-b9b2-bdb3248c8bac {
        fill: #89929d;
      }

      .a2067621-7159-4832-bdd0-c5b30f5fc5d0 {
        fill: #707985;
      }

      .b4a65756-6ad4-443a-b19a-3f90743551f1 {
        fill: #6c7580;
      }

      .a755cfd4-ba7c-40d7-a35d-f3cde9efb1b4 {
        fill: #69727d;
      }

      .fc683fb6-63d4-4bf9-b7fa-6c34c61225ca {
        fill: #abb9c4;
      }

      .f23d1658-6feb-4c8c-856a-c3d1ca835ae8 {
        fill: #b6c4d1;
      }

      .a9b02d3c-83a2-4b5d-8d33-e52fa8f0c586 {
        fill: #f7971d;
      }

      .b74bbb27-f7ad-4f7e-9415-fc803b4c977d {
        fill: #c73525;
      }

      .a5d8cd7e-4e94-4f5c-82b7-dab0a0ac5c7c {
        fill: #d0dce0;
      }

      .be5ddce6-c1f8-4684-bcd8-bfe07d6c051d {
        fill: #dcdbe0;
      }

      .bf33568d-ef86-411c-8d72-d1d20ab5ba7b {
        fill: #d8d7db;
      }

      .e6285696-5c09-4d8f-a97c-6b8e419ade0c {
        fill: #aaabad;
      }

      .ee70ddef-d0e4-46f0-bd52-a00b1b3bf8c7 {
        fill: #a34248;
      }

      .ad1afe18-d79e-4358-8df4-250ecb1521ee {
        fill: #943a42;
      }

      .f1de5b5a-e3c7-45a0-841b-0b91e12800bb {
        fill: #991f2a;
      }

      .b5ce0226-4654-4a23-b24e-2c55511f3c7d {
        fill: #4c4f4e;
      }

      .f45d0583-ff88-4d67-9bf0-4fda44724607 {
        fill: #8a1c26;
      }

      .a059e425-d3ed-4d6d-823c-0e04d9f03932 {
        fill: #97a7b3;
      }

      .e5257f7c-a4dd-4311-90a0-59a87a2898bd {
        fill: #97acb3;
      }

      .ae03e982-cd16-4527-b84b-cba1b9dbd6cb {
        fill: #adbdc9;
      }

      .e932e790-72a6-4376-aef8-833081ff0012 {
        fill: #adc3c9;
      }

      .a48fd265-a067-4473-9d9a-cc38f7acd0ca {
        fill: #636363;
      }

      .e3867744-01b9-4fc5-9c85-5ad1f7e6e38e {
        fill: #f79c28;
      }

      .bdc4981f-be47-4966-a768-5be8c176a918 {
        fill: #7d1922;
      }
    </style>
    <clipPath id="ea8a742d-ae78-47c9-82fe-cf33d3eb107a">
      <rect class="acc48f2c-1db3-41c4-a539-85ae2f27d596" x="1700" y="-1000" width="1600" height="900"/>
    </clipPath>
    <clipPath id="e18a86be-204e-44c9-adeb-0d540242fc8f">
      <rect class="acc48f2c-1db3-41c4-a539-85ae2f27d596" x="-1700" width="1600" height="900"/>
    </clipPath>
    <clipPath id="f32489bc-836f-4e8c-9ca3-97e72d802cae">
      <rect class="acc48f2c-1db3-41c4-a539-85ae2f27d596" width="1600" height="900"/>
    </clipPath>
    <linearGradient id="ba48b95c-005f-4001-92c1-bba174df4e5a" x1="799.48" y1="-119.36" x2="798.09" y2="712.12" gradientUnits="userSpaceOnUse">
      <stop offset="0.09" stop-color="#a0cfff"/>
      <stop offset="0.33" stop-color="#a8dbff"/>
      <stop offset="0.79" stop-color="#b5efff"/>
    </linearGradient>
    <linearGradient id="b7e8d007-300b-4c2b-b3e0-44706a2595b3" x1="383.91" y1="164.77" x2="431.27" y2="117.38" gradientUnits="userSpaceOnUse">
      <stop offset="0.15" stop-color="#82cdd9"/>
      <stop offset="0.82" stop-color="#d7eef4"/>
    </linearGradient>
    <linearGradient id="e037088c-06a8-4435-8227-3fa28d209519" x1="467.19" y1="-6.36" x2="546.65" y2="-85.88" gradientTransform="matrix(0.92, -0.08, 0.09, 1, -90.12, 221.63)" gradientUnits="userSpaceOnUse">
      <stop offset="0.4" stop-color="#adcff1"/>
      <stop offset="0.51" stop-color="#b9d9f5"/>
      <stop offset="0.8" stop-color="#d2f0fc"/>
      <stop offset="0.98" stop-color="#dbf8ff"/>
    </linearGradient>
    <linearGradient id="a4b873e9-e197-443a-ab6a-c361445aaebb" x1="1270.39" y1="149.99" x2="1327.93" y2="92.41" xlink:href="#b7e8d007-300b-4c2b-b3e0-44706a2595b3"/>
    <linearGradient id="fb2fe72f-6ac2-4d91-b548-0a83739cd637" x1="1131.34" y1="179.84" x2="1229.86" y2="81.25" gradientTransform="matrix(1.05, -0.1, 0.07, 0.8, 0.1, 121.41)" xlink:href="#e037088c-06a8-4435-8227-3fa28d209519"/>
    <linearGradient id="faf5304c-0997-445b-8f89-9a92efd175eb" x1="871.49" y1="215.27" x2="958.8" y2="127.9" gradientUnits="userSpaceOnUse">
      <stop offset="0.15" stop-color="#82cdd9"/>
      <stop offset="0.9" stop-color="#d7eef4"/>
    </linearGradient>
    <linearGradient id="a66c2ed5-427e-49b3-9174-36a441abcebd" data-name="New Gradient 21" x1="-2324.5" y1="879.94" x2="-2324.5" y2="842.81" gradientTransform="matrix(-1.47, 0, 0, 1.43, -2102.6, -548)" gradientUnits="userSpaceOnUse">
      <stop offset="0.28" stop-color="#898971"/>
      <stop offset="0.72" stop-color="#272622"/>
    </linearGradient>
    <linearGradient id="b3d73753-5388-42ed-9a42-18d372ef0453" data-name="New Gradient 24" x1="-2326.94" y1="840.51" x2="-2322.55" y2="868.23" gradientTransform="matrix(-1.47, 0, 0, 1.43, -2102.6, -548)" gradientUnits="userSpaceOnUse">
      <stop offset="0.28" stop-color="#d2dae5"/>
      <stop offset="0.72" stop-color="#fefefe"/>
    </linearGradient>
    <linearGradient id="e0a1f40b-69a0-434e-ae20-ad2a594eeacb" x1="-2030.51" y1="860.04" x2="-2030.51" y2="833.68" xlink:href="#a66c2ed5-427e-49b3-9174-36a441abcebd"/>
    <linearGradient id="a4f40e97-1786-4dd9-bf85-0d4d7a8f274c" x1="-2032.25" y1="832.05" x2="-2029.13" y2="851.73" xlink:href="#b3d73753-5388-42ed-9a42-18d372ef0453"/>
    <linearGradient id="faa71c12-e750-469e-a642-5f3a0a3b6ca1" x1="1222.57" y1="735.53" x2="1236.21" y2="735.53" gradientUnits="userSpaceOnUse">
      <stop offset="0.01" stop-color="#c2bfb6"/>
      <stop offset="0.19" stop-color="#b6bfbb"/>
      <stop offset="0.51" stop-color="#98bfc7"/>
      <stop offset="0.75" stop-color="#7dbfd1"/>
      <stop offset="0.88" stop-color="#cfa489"/>
    </linearGradient>
    <linearGradient id="bd1c9815-f0c6-474b-82dc-d9977c7abe3a" x1="1239.74" y1="802.07" x2="1246.56" y2="802.07" xlink:href="#faa71c12-e750-469e-a642-5f3a0a3b6ca1"/>
    <linearGradient id="eb4a0569-686d-42a2-9d60-cdfe3b6a2504" x1="1129.07" y1="750.67" x2="1135.89" y2="750.67" xlink:href="#faa71c12-e750-469e-a642-5f3a0a3b6ca1"/>
    <linearGradient id="b24f8664-7ef8-4c61-9a4f-5c646b0fb231" x1="1276.79" y1="854.91" x2="1283.61" y2="854.91" xlink:href="#faa71c12-e750-469e-a642-5f3a0a3b6ca1"/>
    <linearGradient id="f1900cb3-f35e-469d-8cce-4777fbefa153" x1="1088.63" y1="652.54" x2="1095.45" y2="652.54" xlink:href="#faa71c12-e750-469e-a642-5f3a0a3b6ca1"/>
    <linearGradient id="e75f0061-f266-441b-994b-9d2f6f831386" x1="1245.43" y1="811.04" x2="1272.71" y2="811.04" xlink:href="#faa71c12-e750-469e-a642-5f3a0a3b6ca1"/>
    <linearGradient id="a527999f-3083-4104-bf2c-f5b390a2c661" x1="1027.69" y1="765.77" x2="1034.51" y2="765.77" xlink:href="#faa71c12-e750-469e-a642-5f3a0a3b6ca1"/>
    <linearGradient id="a6b8e9a2-a460-41d0-992f-1ee3dfc48489" x1="1033.38" y1="774.74" x2="1060.65" y2="774.74" xlink:href="#faa71c12-e750-469e-a642-5f3a0a3b6ca1"/>
  </defs>
  <g class="b5a94932-abb0-4689-a2fe-f722eb9ef032">
    <g id="a5f5932c-daab-49ab-be63-1faa967798c1" data-name="Layer 1">
      <g class="e6805334-4127-47cc-8f7e-6b7daacab1bf">
        <rect class="f785ab68-a2dd-4374-9d79-ac7bdae6d080" x="-1814.63" y="-15.54" width="1815.63" height="936.96"/>
      </g>
      <g class="f83a5cda-71b3-41c9-9a32-4d9af19fcebf">
        <g>
          <g>
            <polyline class="b6abd1bc-d58f-4f95-96cf-1132b34c7881" points="-213.73 -36.99 1811.23 -36.99 1811.23 678.09 -213.73 678.09"/>
            <path class="e969716f-c255-4dab-a9ef-8a9eb9a58fca" d="M-191.06,470.3l67.34,1.73v19.38l78.79.39,3.3-261,17.48-1.33L-3,233.66v-2.43H-6V228.6h2.48v-6.84h1.32v7.5H2.33v-6.16H4v6.39l3.82,1.31-.37,2h-1v1.77l3.62.44v13.23l13.12-1.34v-2.43H24v2h2.84V223.51l15.41-.67v-2.65H43.8v-6.4H42.46v-2.41H47v9.69h1.15v3.3h9.69v-5.07h3.8v3.3H60.37l.19,2.87L80,227.89l-.17,34.16,11.8,1.53v4L93.69,270,91.29,454l13-.88,8,.21L113,432l8.53-.89V419.39l36.35-.46v-4.84l27.59-.25V409h3.07V380.78l2-2.32V363.81h8.29V352.56h3.4v1.1h4.2V335.81l.95.87v3.54l2.3.44V342h2.85l.19-2.21,1.53-.44v2.21l4,.22.57-2,2.3-.22.56,2,4.57.21L226,340l2.1.24v1.31h3.8v-2.65l1-.44.19-3.52h1.71l.39,6.61,4.75.21.2-5.07,1.15.22.55,4.85,3.43,1.1.19-5.95h.76l.19,6.16,3.61.68.76-1.77v-2.43l1.9.22.19,4.63-.75,1.32.18,10.36,6.29.44,1.14,10.36,1,.22.76,1.75,3.42-.21.17-18.74,1.72.22.58,19.4,16.94.87-1.68,90.37h2.29v2l.78.68-.19,2.63-1.15.45-.37,19.18,2.28.66v2.41h-1.52l-.19,7.06s11.73-.21,12.18-.23c-.57,0,.38,2.65.38,2.65l6.66.21-.95,2.63-1.15.68h-1.7l.77,13,1.53,1.09v14.33H305l1.24-169.72,19-3.77V346.53l21.88-3.77v-1.55h5.71l.77,1.11,51.94,2.39V356l21,1.76-.38-19.84,7.2-2.65,3-35.93,63.76.83L504.35,338l11.81.21-.21-4.18,2.11.2,2.06-30.42,8.58-1.32-.42-60.18,25.31.2,16.17,2,0-86.42,11.61-3.75h6.47v-3.53h1.13v3.09l17.33-.67v-4h1.14v3.52l10.28-.66v2.21h2.09v-2h13l15.79,6.17,21.68-1.78,5.53,3.08-2,182.07,15.41,2.42.55-26.68,8.19.23V295.59l21.31-2.66-.59-29.76,2.66-1.77,10.86-1.32,0-29.33,2.09-1.31s9.71-1.78,9.13-1.78,28.15-25.13,28.15-25.13h5.71l28.36,24.65,1.35.44.38,1.33,8.94,1.75L816,260.9l13.71,2-.16,49.6,27.38.64.78-8.38H859l.38,5.5h1.34l-.18,2.88,49.08,1.28.19,7.94,15.25-1.76.54-15.22,10.85-.45,4.18-12.34.38-5.74h2.46l1,4.64h4.17v-1.1h4.77v1.31l25.88-3.54v-1.77H978v-3.74h8.16v5.73l6.66.23v-2.44l2.85-3.31,2.48.22v3.3l-1.53.24.77,2.41,1.53.22.57,4.63-.18,1.75,1.34-.2v4.18h1.13v3.08h11.79l-.9,93.47h-7.8l-.17,30,4.55.45,0,36.37,4,.2V441.31l2.28-.44.19-7.06,20,1.32v-2.21h20.15v2h8.76l.11-117.25,1.33-1.11,2.49-.22.19-1.11,1.9-.43.55-.89,5.9-.22.2-1.32,4.2-.24v-13l6.64-3.75,40.94,1.51v-1.53h4.55v1.32l19-.23.59,18.08,17.13.21L1169.67,530l3.07-.23.11-146.8,1.34-.22.19-3.3,11.22.21v2.86h3.23v-1.77h11v1.55h1.92l-.43-76.49,15.61-7.51-.21-12.78,14.08-7.73,42.64.65v5.93l2.84-.2,3.61-1.55v-2h1.52l1,1.1,9.89-.24v-2.2h-1l-2.18-2.53,1.71-2,2.37-2.78h2.87v-6.82h2.08v7.28l24-.47v-2h2.1v2.87l3.23,1.54.19,2.41-2.48,4.42.4,9.91,1.9,1.33h4.76l-.2.88,1.73.21v14.55h9.87v-2l1.72-2,2.67,2.21.42,73.17,2.86.88V397l8.17.65-.18,17.41,3.62.66.38,9,2.09.87.2,33.73,1.34.22-.14,81.55.74-.22.59-2.19h6.27v1.75c0,.88.58.88.58.88l.19,2.2,12-.22-.58-12.12s-2.09-2.43-3.23-2.65L1383,527h4.56v-1.55l4.37.21v.66l1.53.89.19.66h3.8l.39-1.11a5,5,0,0,1,2.09-1.32c1.34-.44,2.08,1.77,2.08,1.77h4.38l-.57-13.44,2.29-.44-.22-51.81,3.63-3.75h12.17L1424,328l4-.23V315.84l2.64.21.2,2.43,1.7-.44-.19-2.21,18.07.21,7.81-26,.38-4.42.76-.87.93-7.06,1.15,7.06,1.15,1.31.58,4,6.86,27.09,43,1.09,5.73.21,5.51,5.07.4,27.1,1.72.46.76,2.19,1.72.23-.14,95.88H1542l8.57,6.6-.18,13.89,4,.66-.19,13.45,7.06.21,0,40.11h3.41v-5.51l20.17-1.55v-9.47l1.73-2h2.65l.38-20.5,7.22-5.53h3.62v-2h-1.92v-17l9.53-6,42.44.63v17.85l-2.11,2.21.2,3.52h11.61l.19,8.62-1.13.87L1660,490l13.53,12.56,7.8.21v19.62h9.13l0,48.48h15.61l-.07-129.82h15.4v-2.21h2.11v2.43h2.64v-2h1.73v2h4.74v-3.74h1.14v3.52l17.89.87v-2.87l1.53-.66.58.66.36,1.77h2.68v-4.42H1761v4h2.86V438h4.56v2.2l.78-.22,2.67-2.66V441l24.61.55.1,195.17-2012.11,1.3"/>
            <ellipse class="e4266036-a4ac-4158-9e7c-4424acdef968" cx="1304.27" cy="693.22" rx="28.55" ry="9.84"/>
            <polyline class="e159ef9f-f2bd-432a-94aa-01939b3f8b0d" points="-196.14 634.11 1798.36 637.58 1798.36 735.83 -216.49 735.83"/>
            <polyline class="e01e2f7d-0447-4d27-a381-4408f8d1019b" points="-213.73 705.69 1803.7 711.21 1814.91 920.99 -213.73 920.99"/>
            <polyline class="ba5622c6-13cc-4ce3-a5f0-b91abb849f8a" points="-199.33 683.34 1796.52 691.02 1796.52 714.79 -199.94 706.02"/>
            <polygon class="ecd270ea-a893-4c8c-a728-85121262b7a3" points="821.7 709.98 821.7 686.73 767.01 686.73 767.01 709.47 821.7 709.98"/>
            <polygon class="ecd270ea-a893-4c8c-a728-85121262b7a3" points="709.67 709.98 709.67 686.73 654.98 686.73 654.98 709.47 709.67 709.98"/>
            <polygon class="ecd270ea-a893-4c8c-a728-85121262b7a3" points="597.63 708.52 597.63 684.58 542.95 684.58 542.95 707.99 597.63 708.52"/>
            <polygon class="ecd270ea-a893-4c8c-a728-85121262b7a3" points="485.6 708.52 485.6 684.58 430.92 684.58 430.92 707.99 485.6 708.52"/>
            <polygon class="ecd270ea-a893-4c8c-a728-85121262b7a3" points="373.57 708.52 373.57 684.58 318.88 684.58 318.88 707.99 373.57 708.52"/>
            <polygon class="ecd270ea-a893-4c8c-a728-85121262b7a3" points="261.54 708.52 261.54 684.58 206.85 684.58 206.85 707.99 261.54 708.52"/>
            <polygon class="ecd270ea-a893-4c8c-a728-85121262b7a3" points="149.51 708.52 149.51 684.58 94.82 684.58 94.82 707.99 149.51 708.52"/>
            <polygon class="ecd270ea-a893-4c8c-a728-85121262b7a3" points="47.48 708.52 47.48 684.58 -7.21 684.58 -7.21 707.99 47.48 708.52"/>
            <g>
              <g>
                <polygon class="ecd270ea-a893-4c8c-a728-85121262b7a3" points="925.41 710.06 925.41 686.22 870.73 685.95 870.73 709.66 925.41 710.06"/>
                <polygon class="ecd270ea-a893-4c8c-a728-85121262b7a3" points="1045.22 710.52 1045.22 686.8 990.53 686.53 990.53 710.41 1045.22 710.52"/>
                <polygon class="ecd270ea-a893-4c8c-a728-85121262b7a3" points="1171.24 711.32 1171.24 687.41 1116.56 687.15 1116.56 710.8 1171.24 711.32"/>
              </g>
              <g>
                <polygon class="ecd270ea-a893-4c8c-a728-85121262b7a3" points="1293.87 712.39 1293.87 688.01 1239.18 687.74 1239.18 711.88 1293.87 712.39"/>
                <polygon class="ecd270ea-a893-4c8c-a728-85121262b7a3" points="1413.67 713.18 1413.67 688.59 1358.99 688.33 1358.99 712.67 1413.67 713.18"/>
                <polygon class="ecd270ea-a893-4c8c-a728-85121262b7a3" points="1539.7 713.97 1539.7 689.21 1485.02 688.94 1485.02 713.46 1539.7 713.97"/>
                <polygon class="ecd270ea-a893-4c8c-a728-85121262b7a3" points="1637.13 715.21 1637.13 690.45 1582.45 690.18 1582.45 714.7 1637.13 715.21"/>
              </g>
            </g>
            <line class="f0c925aa-a922-43a5-bf75-a49b5ccb4274" x1="1798.36" y1="671.38" x2="-193.51" y2="662.93"/>
            <line class="f0c925aa-a922-43a5-bf75-a49b5ccb4274" x1="1332.06" y1="641.28" x2="1413.67" y2="699.05"/>
            <line class="f0c925aa-a922-43a5-bf75-a49b5ccb4274" x1="1459.92" y1="641.82" x2="1529.96" y2="688.94"/>
            <line class="f0c925aa-a922-43a5-bf75-a49b5ccb4274" x1="1542.65" y1="643.06" x2="1612.69" y2="690.18"/>
            <line class="f0c925aa-a922-43a5-bf75-a49b5ccb4274" x1="1239.18" y1="698.91" x2="1179.87" y2="641.82"/>
            <polyline class="ba5622c6-13cc-4ce3-a5f0-b91abb849f8a" points="-192.89 634.32 1797.44 637.29 1797.44 646.47 -193.51 643.09"/>
            <g>
              <g>
                <polygon class="ecd270ea-a893-4c8c-a728-85121262b7a3" points="916.75 645.13 916.75 635.91 862.06 635.81 862.06 644.97 916.75 645.13"/>
                <polygon class="ecd270ea-a893-4c8c-a728-85121262b7a3" points="1036.56 645.3 1036.56 636.14 981.87 636.03 981.87 645.26 1036.56 645.3"/>
                <polygon class="ecd270ea-a893-4c8c-a728-85121262b7a3" points="1162.58 645.61 1162.58 636.37 1107.9 636.27 1107.9 645.41 1162.58 645.61"/>
              </g>
              <g>
                <polygon class="ecd270ea-a893-4c8c-a728-85121262b7a3" points="1285.2 646.02 1285.2 636.6 1230.52 636.5 1230.52 645.83 1285.2 646.02"/>
                <polygon class="ecd270ea-a893-4c8c-a728-85121262b7a3" points="1405.01 646.33 1405.01 636.83 1350.33 636.73 1350.33 646.13 1405.01 646.33"/>
                <polygon class="ecd270ea-a893-4c8c-a728-85121262b7a3" points="1531.04 646.64 1531.04 637.07 1476.35 636.96 1476.35 646.44 1531.04 646.64"/>
                <polygon class="ecd270ea-a893-4c8c-a728-85121262b7a3" points="1531.04 646.64 1531.04 637.07 1476.35 636.96 1476.35 646.44 1531.04 646.64"/>
                <polygon class="ecd270ea-a893-4c8c-a728-85121262b7a3" points="1622.04 646.64 1622.04 637.07 1567.35 636.96 1567.35 646.44 1622.04 646.64"/>
              </g>
            </g>
            <g>
              <g>
                <polygon class="ecd270ea-a893-4c8c-a728-85121262b7a3" points="65.98 644.23 65.98 634.68 1.41 634.57 1.41 644.18 65.98 644.23"/>
                <polygon class="ecd270ea-a893-4c8c-a728-85121262b7a3" points="214.81 644.55 214.81 634.93 150.23 634.82 150.23 644.34 214.81 644.55"/>
              </g>
              <g>
                <polygon class="ecd270ea-a893-4c8c-a728-85121262b7a3" points="359.62 644.98 359.62 635.17 295.04 635.06 295.04 644.77 359.62 644.98"/>
                <polygon class="ecd270ea-a893-4c8c-a728-85121262b7a3" points="501.1 645.3 501.1 635.4 436.52 635.3 436.52 645.09 501.1 645.3"/>
                <polygon class="ecd270ea-a893-4c8c-a728-85121262b7a3" points="649.92 645.62 649.92 635.65 585.35 635.54 585.35 645.41 649.92 645.62"/>
              </g>
            </g>
            <g>
              <path class="a52d6263-9ba5-4337-9758-347de90394b5" d="M384.67,138.38s.89-8.24,12.11-13.89,20.67-8.68,30.42-2.17,7.67,21.27,5.61,23c-4,3.37-12.66,7.8-35.74,3.47C383.19,146.2,384.67,138.38,384.67,138.38Z"/>
              <path class="b1e0637f-233a-4472-a04b-e7fae8e36117" d="M337.16,125.52s2.64-16,23.14-24.57,33.85-12.58,45.67,3.5,6.52,41.91-1.54,44.8-41.87,4-62.46-7.4C342,141.85,334.61,136.71,337.16,125.52Z"/>
            </g>
            <g>
              <path class="a7a4bfa5-6800-42fb-a0b4-b2bf1b3a7e2b" d="M1268.46,117.08s1.2-7.25,16.4-12.21,28-7.63,41.19-1.91,10.4,18.7,7.6,20.22c-5.43,3-17.14,6.86-48.39,3C1266.46,123.94,1268.46,117.08,1268.46,117.08Z"/>
              <path class="ad185d63-e2d4-4e93-8955-71806fdc0da6" d="M1201.38,107.08s4.16-15.9,33.17-25.36,47.86-14.13,64,1.08,8,40.89-3.43,44.15-58.87,6.09-87.44-4C1207.67,122.9,1197.48,118.22,1201.38,107.08Z"/>
            </g>
            <path class="bf7b2552-613d-43ba-b387-e81bcd30c545" d="M869.61,165.63s1.77-12.2,24.23-20.55,41.36-12.85,60.87-3.21,15.36,31.46,11.22,34c-8,5-25.33,11.55-71.5,5.14C866.66,177.19,869.61,165.63,869.61,165.63Z"/>
            <g>
              <polyline class="a1f7d0ea-4642-476d-a44d-7bfa8d7600ac" points="54.37 807.54 257.78 807.54 269.78 803.11 73.51 802.75"/>
              <polygon class="a1f7d0ea-4642-476d-a44d-7bfa8d7600ac" points="352.19 807.54 555.6 807.54 567.6 803.11 371.33 802.75 352.19 807.54"/>
              <polygon class="a1f7d0ea-4642-476d-a44d-7bfa8d7600ac" points="647.08 807.54 850.49 807.54 862.49 803.11 666.22 802.75 647.08 807.54"/>
              <polygon class="a1f7d0ea-4642-476d-a44d-7bfa8d7600ac" points="941.98 807.54 1145.39 807.54 1157.39 803.11 961.12 802.75 941.98 807.54"/>
              <polygon class="a1f7d0ea-4642-476d-a44d-7bfa8d7600ac" points="1236.87 807.54 1440.28 807.54 1452.29 803.11 1256.01 802.75 1236.87 807.54"/>
              <polygon class="a1f7d0ea-4642-476d-a44d-7bfa8d7600ac" points="1531.77 807.54 1648.59 807.54 1655.48 803.11 1542.76 802.75 1531.77 807.54"/>
            </g>
            <g>
              <g id="bdd8915d-77e4-457c-ada6-c755512060a0" data-name="rear bumper">
                <path class="e5b43b12-7078-4b3c-a17b-6380f6b5e6ce" d="M1325.48,700.9l-1.13,8.8h-2.14c-2-.15-4.32-9.42-10-8.8h-13.08c-1.39,0-2.21-3.11-2.16-5.95l-.06-34.08c.17-2.12.81-4.23,1.65-4.24h19.17c3.87.44,6.63,5.7,7.79,17.87a195.38,195.38,0,0,1,0,26.4Z"/>
                <path class="f7384a37-8461-47f9-8ed3-f23d0041c316" d="M1298.52,669V656.63h19.17c3.87.44,6.63,5.7,7.79,17.87.19,3.32.33,6.59.4,9.83-1.29,1.38-2.8,1.86-3.52-2.08-1.38-7.59-3.64-9.28-9.52-8.44s-13,3.38-14-3c-.09-.55-.19-1.16-.29-1.81Z"/>
                <path class="f3a772d5-9708-4446-a7c0-bc7b8694ddc5" d="M1324.69,706.28l-.42,3.2h-2.14c-2-.15-4.31-9.19-10-8.59h-13c-1.4,0-2.21-3-2.17-5.81l-.05-33.25c.14-1.75.62-3.51,1.28-4,0,.26-.07.53-.09.8l0,33.25c0,2.78.77,5.81,2.17,5.81h13c5.71-.6,8,8.44,10,8.59Z"/>
              </g>
              <path class="ace533a0-2c6f-4f63-9916-0bc9877bb2e1" d="M1117.4,597.87c12.09-5.43,24.42,1.58,32.16,16.33,1.71-4.38,4.35-7.77,7.61-9.23,7-3.16,14.26,3.84,16.15,15.62a36,36,0,0,1,.43,6.84c11.55,3.29,21.53,17.16,25.13,37,5.27-2.25,8.58-8.72,7.56-22.43-3.59-48.38-40-66.37-4.49-76.5s22.91,22.5,31,7.87,6.74-14.62.9-50.62,20.66-81,38.62-41.63,11.23,65.25,23.36,42.75,32.33-84.37,55.23-68.62,28.75,64.12,16.62,86.63-10.78,55.12,4.49,38.24,42.67-21.37,24.7,11.25-17.51,38.25-.45,41.63,24.7,13.49,6.74,32.62,7.19,29.25,14.82,37.13,14.37,29.24,15.27,54,28.29-18,20.21,6.75,4.49,42.75-22,31.5-36.82-19.12-41.76-13.5,17.51,36-17.52,7.88-61.52-10.13-44.46,0-2.24,41.62-47.6,29.25S1241,797.26,1250,796.13s-3.6-11.25-25.6-12.38-36.83-5.62-31-9-26.94-15.75-42.21-7.87,10.77,27-5.84,24.75c-13.57-1.84-49.88-.68-41.74-20.39a35.68,35.68,0,0,1-4-4.08c-4.08,11.7-10.8,20.82-19.23,24.6-13.07,5.87-26.42-2.79-34-20.07-1.74-.17-3.64-1.24-5.58-3.3a28.87,28.87,0,0,1-4.77-7.2,3.34,3.34,0,0,1-3,1.31,36.09,36.09,0,0,1,1.23,11.94c-.63,8-4.59,10.88-8.83,6.39a17.94,17.94,0,0,1-2.81-4.14c-2.31,4-6,4.41-10,.27-.12-.12-.24-.26-.35-.39a57.07,57.07,0,0,1,1.91,18.61c-1,12.54-7.18,17-13.81,10a25,25,0,0,1-3.27-4.44c0,.23,0,.45-.09.67-1.3,8.61-9.41,11.68-18.11,6.86a25,25,0,0,1-4.83-3.53c-3.24,4.28-9.44,5.1-16,1.48-8.69-4.82-14.68-15.7-13.38-24.3s9.42-11.68,18.11-6.86a24.78,24.78,0,0,1,4.84,3.53c3.12-4.13,9-5.05,15.29-1.84a38,38,0,0,1-.71-10.16c.69-8.6,4.93-11.67,9.48-6.85.24.25.47.52.7.81,2.59-5,7-5.65,11.55-.79a14.74,14.74,0,0,1,1,1.17,49.47,49.47,0,0,1-1.38-15.22c.88-11.07,6.33-15,12.18-8.82,2.79,3,5.16,7.68,6.79,13a3.09,3.09,0,0,1,1.57-.23,36.54,36.54,0,0,1-1.23-11.93c.59-7.43,4-10.43,7.9-7.27,1-6.54,3.54-10.35,6.81-10.77a53.32,53.32,0,0,1-.57-12.27c.52-6.59,2.48-11,5.19-12.59-.15-23.75,9.26-45.58,23.59-52a19.44,19.44,0,0,1,12.49-1.35c.29-5.06,2.41-9.53,5.51-10.92a4.67,4.67,0,0,1,4.66.44c1.67-5.09,4.52-9.07,8.13-10.69a8.26,8.26,0,0,1,2.43-.7c4.14-10.31,10.43-18.26,18.16-21.73Z"/>
              <path class="b2e9f2ef-453b-464e-b4b5-957c417bb8e9" d="M1234,645.12c-11.51-.26-16.18,11.72-13.27,29.35-3.67-3.56-7.43-5.76-10.53-5.83-6.7-.15-7.81,9.69-2.48,22a56.23,56.23,0,0,0,3.56,6.86c-6.41,8.26-5.32,26.78,4.08,48.47,12.86,29.66,36.38,54,52.55,54.35a12.92,12.92,0,0,0,5.54-1c11.6,14.84,24.87,24.78,35.15,25a11.75,11.75,0,0,0,9.92-4.4,23.89,23.89,0,0,0,9.22,2.37c9.15.2,14-7.32,14.11-19.26,9.45,9.72,19.3,15.82,27.33,16,12.44.27,16.89-13.75,12.41-33.75,1.12-.9,1.84-2.74,2-5.56a36.28,36.28,0,0,0-.73-9,2.47,2.47,0,0,0,2.84,0,56.26,56.26,0,0,0,5.86,12.16c5,7.57,9.35,8.71,9.79,2.56a22.35,22.35,0,0,0-.37-5.21c3.88,3,6.71,1.78,7.1-3.9,0-.16,0-.34,0-.51a88.45,88.45,0,0,0,9.16,19c7.77,11.83,14.61,13.62,15.28,4a30.55,30.55,0,0,0-.21-5.7c.14.21.29.42.44.62,5.77,7.86,13.16,7.47,16.53-.86a22.4,22.4,0,0,0,1.38-5.46c4.68,2.83,9.48,1,12-5.21,3.36-8.33,1.42-21.45-4.35-29.31s-13.17-7.47-16.53.86a22.6,22.6,0,0,0-1.39,5.47c-4.51-2.74-9.14-1.18-11.73,4.57a58.64,58.64,0,0,0-5.23-10.21c-5.33-8.12-10-9.34-10.49-2.74,0,.35,0,.71,0,1.08-4.63-3.8-8-2.61-8.51,4,0,.5-.06,1-.06,1.57a76.76,76.76,0,0,0-7.61-15.44c-6.86-10.44-12.9-12-13.49-3.52-.28,4,.72,9.64,2.59,15.52a1.87,1.87,0,0,0-1.23.44,56.29,56.29,0,0,0-5.87-12.16c-4.6-7-8.69-8.51-9.62-3.81-4.37-6-8.31-8.62-10.84-7.67a82.07,82.07,0,0,0-6.51-12.21c-4.09-6.23-7.92-9.67-10.73-10.14-13.29-23.25-32.18-40.64-45.82-40.94a11.84,11.84,0,0,0-9.5,3.89c-3-4.82-7-8.29-10-8.36a3,3,0,0,0-3,2.37c-4-4.27-8.27-7-11.71-7a5.37,5.37,0,0,0-2.09.33c-8.71-8.34-17.59-13.48-25-13.64Z"/>
              <path class="b308031d-10b0-4951-bebf-e9d4027897a9" d="M1125.81,630.32c11.27-4,21.06,1.15,25.79,12a16.43,16.43,0,0,1,7.89-6.76c6.56-2.32,11.91,2.8,11.94,11.44a22.36,22.36,0,0,1-.55,5c9.62,2.4,16.42,12.56,16.86,27.1,4.9-1.65,8.66-6.39,9.64-16.43,3.45-35.43-25.79-48.61,6.49-56s16.89,16.47,25.92,5.76,7.86-10.71,7.67-37.08,29-59.31,39.31-30.48.9,47.79,14.53,31.31,39.64-61.79,57.45-50.26,16.32,47,2.7,63.44-16.89,40.37-1.29,28,40.07-15.66,20,8.24-20.46,28-6.06,30.48,19.69,9.88,1.44,23.89,2.28,21.42,7.86,27.19,8.54,21.42,6,39.55,27.09-13.18,16.69,4.94-1.9,31.31-23.46,23.07-29.48-14-34.55-9.89,10.37,26.37-16.32,5.77-52.23-7.41-38.74,0-7.61,30.49-45.44,21.43-31.14-15.66-23.16-16.48-1.6-8.24-20.62-9.07-31.31-4.12-25.77-6.59-21.33-11.53-35.7-5.76,5.72,19.77-8.45,18.12c-11.57-1.34-43.36-.5-33.58-14.93a21,21,0,0,1-2.89-3c-5.15,8.57-12.25,15.25-20.11,18-12.18,4.3-22.63-2.05-26.84-14.7a6.94,6.94,0,0,1-4.42-2.42,16.61,16.61,0,0,1-3.17-5.27,3.74,3.74,0,0,1-2.79,1,22.19,22.19,0,0,1-.55,8.74c-1.64,5.88-5.48,8-8.56,4.68a10.16,10.16,0,0,1-1.89-3c-2.56,3-5.86,3.23-8.7.2l-.26-.28a34.72,34.72,0,0,1-.86,13.62c-2.57,9.19-8.57,12.46-13.39,7.32a15,15,0,0,1-2.25-3.25c-.05.16-.1.33-.16.49-2.31,6.3-9.79,8.55-16.71,5a16.67,16.67,0,0,1-3.73-2.59c-3.41,3.14-8.92,3.74-14.11,1.09-6.92-3.53-10.66-11.5-8.35-17.8s9.79-8.55,16.71-5a16.9,16.9,0,0,1,3.73,2.59c3.28-3,8.53-3.7,13.57-1.36a23.36,23.36,0,0,1,.77-7.43c1.76-6.3,5.87-8.55,9.18-5a7.46,7.46,0,0,1,.51.59c2.93-3.67,6.83-4.14,10.16-.58.25.27.5.56.73.86a30.51,30.51,0,0,1,.87-11.15c2.27-8.1,7.56-11,11.81-6.45,2,2.16,3.45,5.62,4.14,9.52a3.35,3.35,0,0,1,1.4-.16,22.56,22.56,0,0,1,.55-8.74c1.53-5.44,4.93-7.64,7.87-5.33,1.74-4.79,4.49-7.58,7.4-7.89a33.52,33.52,0,0,1,1.17-9c1.36-4.83,3.66-8,6.23-9.22,3.1-17.4,14.27-33.39,27.62-38.1a20.85,20.85,0,0,1,11.07-1c.94-3.71,3.39-7,6.29-8a4.54,4.54,0,0,1,4,.32c2.14-3.73,5.17-6.64,8.54-7.83a9.68,9.68,0,0,1,2.2-.51c5-7.55,11.58-13.37,18.78-15.91Z"/>
              <path class="ac585b88-6bd5-4376-9110-3b736b9aeff6" d="M1365.87,457.62c28.77,36.15,44.57,103,35.28,149.4-.13.68-.27,1.34-.42,2a168.81,168.81,0,0,1,7.42,59.67,31.32,31.32,0,0,1,2.54,2.1c16.89,15.43,26.89,53.34,22.32,84.69s-22,44.25-38.84,28.82c-12.66-11.56-21.45-35.76-23.14-60.35-4.37-1.39-8.84-4.33-13.25-9-17.32-18.14-28-56.21-26.9-91.23-27.9-36.52-43.05-102-33.92-147.64,9.29-46.37,40.14-54.65,68.91-18.51Z"/>
              <path class="b89176bc-0618-4853-8f45-0392ea6d63ca" d="M1425.41,654.51c-6.25,6-10.12,18.64-8.64,28.34s7.72,12.73,14,6.78,10.12-18.63,8.65-28.33-7.73-12.74-14-6.79Zm-95-50.68c-5.72,10.36-7,30.37-2.87,44.7s12.12,17.54,17.84,7.18,7-30.37,2.87-44.7-12.12-17.54-17.84-7.18Zm39.35-151.25c-3.79,7.94-4.28,22.05-1.12,31.53s8.8,10.73,12.59,2.79,4.28-22,1.11-31.52-8.8-10.73-12.58-2.8Zm-38,55c-7.92,9.7-13.11,23.86-11.59,31.64s9.17,6.23,17.09-3.47,13.11-23.87,11.59-31.65-9.17-6.22-17.09,3.48ZM1366,536.3c-7.83,10.58-12.36,27.59-10.12,38s10.4,10.26,18.23-.32,12.37-27.58,10.13-38-10.41-10.27-18.24.31ZM1396.84,580c-6,6.84-9.9,17.49-8.75,23.8s6.93,5.89,12.91-.94,9.9-17.49,8.76-23.8-6.93-5.89-12.92.94Z"/>
              <path class="a811d4f7-eb34-4280-bc40-d66171aa50c8" d="M1153,769.39c-11.51-5.08-16.18-19.23-13.27-35.51-3.67,1.87-7.43,2.32-10.53,1-6.7-3-7.81-13.32-2.48-23.14a30.63,30.63,0,0,1,3.56-5.21c-6.41-11.23-5.32-29.25,4.08-46.57,12.86-23.7,36.38-37.13,52.55-30a20.83,20.83,0,0,1,5.54,3.58c11.6-9.46,24.87-13.25,35.15-8.71a21.44,21.44,0,0,1,9.92,9,23,23,0,0,1,9.22,1.91c9.15,4,14,13.79,14.11,25.8,9.45-5.34,19.3-6.87,27.33-3.33,12.44,5.49,16.89,21.58,12.41,39.51a11.72,11.72,0,0,1,2,6.49,32.56,32.56,0,0,1-.73,8.68,3.18,3.18,0,0,1,2.84,1.29,31.41,31.41,0,0,1,5.86-9.44c5-5.27,9.35-4.38,9.79,2a20.24,20.24,0,0,1-.37,5c3.88-1.16,6.71,1.33,7.1,7.19,0,.18,0,.36,0,.53a49.42,49.42,0,0,1,9.16-14.71c7.77-8.23,14.61-6.85,15.28,3.09a29,29,0,0,1-.21,5.6l.44-.42c5.77-5.18,13.16-1.36,16.53,8.53a30.91,30.91,0,0,1,1.38,6.11c4.68-.66,9.48,3.34,12,10.77,3.36,9.89,1.42,22.1-4.35,27.29s-13.17,1.37-16.53-8.52a30.93,30.93,0,0,1-1.39-6.11c-4.51.63-9.14-3.07-11.73-10a31.62,31.62,0,0,1-5.23,7.78c-5.33,5.65-10,4.7-10.49-2.12,0-.36,0-.72,0-1.1-4.63,1.66-8-1.12-8.51-8,0-.52-.06-1-.06-1.6a42.68,42.68,0,0,1-7.61,11.91c-6.86,7.26-12.9,6-13.49-2.73a36.18,36.18,0,0,1,2.59-14.33,3.18,3.18,0,0,1-1.23-1,31.61,31.61,0,0,1-5.87,9.45c-4.6,4.87-8.69,4.48-9.62-.65-4.37,4-8.31,4.76-10.84,2.64a44.36,44.36,0,0,1-6.51,9.19c-4.09,4.33-7.92,6-10.73,5.16-13.29,17.09-32.18,25.72-45.82,19.7a21.39,21.39,0,0,1-9.5-8.3c-3,3.41-7,5-10,3.72a5.5,5.5,0,0,1-3-3.76c-4,2.4-8.27,3.13-11.71,1.61a8.74,8.74,0,0,1-2.09-1.3c-8.71,4.3-17.59,5.32-25,2.07Z"/>
            </g>
            <g>
              <g id="b62fa3d3-4456-4d6e-a90c-d067b0b7bb11" data-name="rear bumper">
                <path class="e37633d3-68bf-46ac-9774-842888618b44" d="M889.61,675l-.8,6.25h-1.52c-1.42-.11-3.07-6.69-7.13-6.25h-9.28c-1,0-1.57-2.2-1.53-4.22l0-24.19c.11-1.5.57-3,1.16-3h13.61c2.75.31,4.71,4,5.53,12.68a137.83,137.83,0,0,1,0,18.74Z"/>
                <path class="a2c779df-3e5c-41a6-acd7-68cb30d46549" d="M870.47,652.4v-8.81h13.61c2.75.31,4.71,4,5.53,12.68.13,2.36.23,4.68.28,7-.91,1-2,1.32-2.49-1.47-1-5.4-2.58-6.6-6.76-6s-9.22,2.4-10-2.09q-.09-.6-.21-1.29Z"/>
                <path class="f3a772d5-9708-4446-a7c0-bc7b8694ddc5" d="M889.05,678.83l-.3,2.27h-1.52c-1.42-.1-3.06-6.52-7.11-6.09h-9.27c-1,0-1.57-2.16-1.54-4.13l0-23.6a4.7,4.7,0,0,1,.9-2.84c0,.18,0,.38-.06.57l0,23.6c0,2,.54,4.12,1.53,4.12H881c4.06-.42,5.7,6,7.12,6.1Z"/>
              </g>
              <path class="ace533a0-2c6f-4f63-9916-0bc9877bb2e1" d="M741.92,601.88c8.58-3.85,17.33,1.12,22.82,11.59,1.22-3.11,3.09-5.51,5.41-6.55,5-2.24,10.12,2.72,11.46,11.09a25.71,25.71,0,0,1,.31,4.86c8.19,2.33,15.27,12.17,17.83,26.26,3.74-1.59,6.09-6.19,5.37-15.92-2.55-34.34-28.37-47.11-3.19-54.3s16.26,16,22,5.59,4.78-10.38.64-35.93S839.23,491.08,852,519s8,46.32,16.58,30.35,23-59.89,39.2-48.71,20.41,45.51,11.8,61.48-7.65,39.13,3.19,27.15,30.28-15.17,17.53,8-12.43,27.15-.32,29.54,17.53,9.58,4.78,23.16,5.1,20.76,10.52,26.35,10.2,20.76,10.84,38.33,20.08-12.78,14.34,4.79,3.19,30.34-15.62,22.36-26.13-13.58-29.64-9.59,12.43,25.56-12.43,5.59-43.68-7.18-31.56,0-1.6,29.55-33.79,20.76-27.73-15.17-21.36-16-2.55-8-18.17-8.79-26.14-4-22-6.39-19.13-11.18-30-5.59,7.65,19.17-4.14,17.57c-9.63-1.3-35.4-.48-29.62-14.47a24.22,24.22,0,0,1-2.81-2.9c-2.9,8.31-7.67,14.78-13.65,17.47-9.28,4.16-18.76-2-24.1-14.25a6.61,6.61,0,0,1-4-2.34,20.61,20.61,0,0,1-3.38-5.11,2.41,2.41,0,0,1-2.13.93,25.72,25.72,0,0,1,.87,8.47c-.45,5.69-3.26,7.72-6.27,4.53a12.51,12.51,0,0,1-2-2.93c-1.64,2.85-4.29,3.13-7.07.19l-.25-.27a40,40,0,0,1,1.36,13.2c-.7,8.9-5.09,12.08-9.8,7.09a18.1,18.1,0,0,1-2.32-3.15l-.06.48c-.93,6.11-6.69,8.28-12.86,4.86a17.71,17.71,0,0,1-3.43-2.5c-2.3,3-6.7,3.62-11.33,1-6.17-3.42-10.43-11.14-9.5-17.25s6.68-8.29,12.86-4.87a17.35,17.35,0,0,1,3.43,2.51c2.22-2.93,6.39-3.58,10.85-1.31a27,27,0,0,1-.5-7.21c.49-6.11,3.5-8.29,6.73-4.86.17.18.33.37.5.57,1.84-3.55,4.94-4,8.19-.56.25.26.49.54.73.83a34.84,34.84,0,0,1-1-10.8c.62-7.86,4.49-10.66,8.64-6.26a24.15,24.15,0,0,1,4.82,9.23,2.24,2.24,0,0,1,1.12-.16,26,26,0,0,1-.88-8.47c.42-5.27,2.86-7.4,5.61-5.16.69-4.64,2.51-7.34,4.84-7.64a37.39,37.39,0,0,1-.41-8.71c.37-4.68,1.76-7.78,3.68-8.94-.1-16.86,6.57-32.35,16.74-36.91a13.78,13.78,0,0,1,8.87-1c.21-3.59,1.71-6.76,3.91-7.75a3.33,3.33,0,0,1,3.31.31c1.18-3.61,3.21-6.44,5.78-7.59a5.78,5.78,0,0,1,1.72-.49c2.93-7.32,7.4-13,12.89-15.43Z"/>
              <path class="b2e9f2ef-453b-464e-b4b5-957c417bb8e9" d="M824.68,635.42c-8.17-.19-11.49,8.32-9.42,20.83-2.6-2.53-5.27-4.09-7.47-4.14C803,652,802.24,659,806,667.72a40.69,40.69,0,0,0,2.52,4.87c-4.55,5.86-3.77,19,2.9,34.4,9.13,21,25.82,38.32,37.3,38.58a9.31,9.31,0,0,0,3.93-.72c8.23,10.53,17.65,17.59,25,17.75a8.34,8.34,0,0,0,7-3.12,17,17,0,0,0,6.55,1.68c6.49.14,9.92-5.2,10-13.67,6.71,6.9,13.7,11.23,19.4,11.35,8.83.2,12-9.75,8.81-24,.79-.64,1.31-1.94,1.45-3.94a26.37,26.37,0,0,0-.52-6.4,1.73,1.73,0,0,0,2,0,40.06,40.06,0,0,0,4.17,8.63c3.52,5.37,6.63,6.19,6.94,1.82a16,16,0,0,0-.26-3.7c2.75,2.1,4.76,1.26,5-2.77,0-.11,0-.24,0-.36a63.24,63.24,0,0,0,6.5,13.46c5.51,8.39,10.37,9.66,10.85,2.83a21.83,21.83,0,0,0-.15-4l.31.44c4.09,5.57,9.34,5.3,11.73-.62a15.87,15.87,0,0,0,1-3.88c3.31,2,6.72.75,8.51-3.69,2.39-5.91,1-15.23-3.09-20.8s-9.34-5.31-11.73.6a16.07,16.07,0,0,0-1,3.89c-3.21-1.94-6.5-.84-8.33,3.24a41.07,41.07,0,0,0-3.72-7.24c-3.78-5.77-7.11-6.64-7.44-2,0,.25,0,.5,0,.77-3.29-2.7-5.71-1.85-6,2.87,0,.36,0,.73,0,1.12a54.29,54.29,0,0,0-5.41-11c-4.86-7.41-9.15-8.53-9.57-2.5a32.07,32.07,0,0,0,1.84,11,1.31,1.31,0,0,0-.87.31,40.38,40.38,0,0,0-4.17-8.64c-3.26-5-6.17-6-6.83-2.7-3.1-4.24-5.9-6.12-7.69-5.44a57.84,57.84,0,0,0-4.62-8.67c-2.9-4.42-5.62-6.86-7.62-7.2-9.43-16.5-22.84-28.84-32.52-29.06a8.4,8.4,0,0,0-6.74,2.77c-2.17-3.42-5-5.89-7.11-5.94a2.1,2.1,0,0,0-2.13,1.68c-2.87-3-5.88-4.94-8.32-5a3.87,3.87,0,0,0-1.48.24c-6.18-5.92-12.49-9.57-17.71-9.68Z"/>
              <path class="b308031d-10b0-4951-bebf-e9d4027897a9" d="M747.89,624.91c8-2.82,14.94.82,18.3,8.49a11.72,11.72,0,0,1,5.6-4.8c4.66-1.64,8.45,2,8.48,8.12a15.85,15.85,0,0,1-.39,3.56c6.82,1.71,11.65,8.92,12,19.24,3.47-1.17,6.14-4.54,6.84-11.66,2.44-25.15-18.31-34.51,4.6-39.77s12,11.69,18.4,4.09,5.58-7.6,5.45-26.32,20.59-42.1,27.89-21.63.65,33.92,10.32,22.22,28.14-43.86,40.78-35.67,11.58,33.33,1.91,45-12,28.65-.91,19.88,28.44-11.11,14.19,5.85-14.53,19.88-4.3,21.64,14,7,1,17,1.62,15.2,5.58,19.3,6.06,15.2,4.23,28.07,19.23-9.36,11.84,3.5-1.35,22.23-16.65,16.38-20.92-9.94-24.52-7,7.36,18.72-11.59,4.1-37.07-5.27-27.49,0-5.41,21.63-32.26,15.2-22.1-11.11-16.43-11.7-1.14-5.84-14.64-6.43-22.23-2.92-18.29-4.68-15.14-8.19-25.34-4.09,4.06,14-6,12.86c-8.21-1-30.77-.35-23.84-10.59a16.49,16.49,0,0,1-2-2.12c-3.65,6.08-8.69,10.82-14.27,12.79-8.65,3-16.06-1.46-19.05-10.44a4.9,4.9,0,0,1-3.13-1.71,11.85,11.85,0,0,1-2.26-3.75,2.65,2.65,0,0,1-2,.68,15.84,15.84,0,0,1-.39,6.21c-1.17,4.17-3.89,5.66-6.08,3.32a7.44,7.44,0,0,1-1.34-2.15c-1.81,2.09-4.16,2.29-6.17.14l-.18-.2a24.8,24.8,0,0,1-.62,9.67c-1.82,6.52-6.08,8.85-9.5,5.19a10.52,10.52,0,0,1-1.6-2.3c0,.11-.07.23-.11.35-1.64,4.47-6.95,6.06-11.86,3.56a11.82,11.82,0,0,1-2.65-1.84c-2.42,2.23-6.33,2.66-10,.78-4.91-2.51-7.56-8.16-5.92-12.64s6.94-6.07,11.86-3.56a12,12,0,0,1,2.64,1.83c2.34-2.15,6.06-2.62,9.64-1a16.66,16.66,0,0,1,.54-5.28c1.26-4.47,4.17-6.06,6.52-3.56a3.62,3.62,0,0,1,.36.42c2.09-2.6,4.85-2.93,7.22-.41a7.49,7.49,0,0,1,.51.61,21.89,21.89,0,0,1,.62-7.91c1.61-5.75,5.36-7.81,8.38-4.58a13.4,13.4,0,0,1,2.94,6.76,2.44,2.44,0,0,1,1-.12,15.79,15.79,0,0,1,.39-6.2c1.08-3.87,3.49-5.43,5.58-3.78,1.24-3.4,3.19-5.38,5.26-5.6a23.32,23.32,0,0,1,.83-6.38c1-3.43,2.59-5.7,4.42-6.55,2.2-12.34,10.13-23.69,19.61-27a14.79,14.79,0,0,1,7.85-.7c.67-2.64,2.41-5,4.46-5.68a3.24,3.24,0,0,1,2.84.23,12.06,12.06,0,0,1,6.06-5.56,6.68,6.68,0,0,1,1.57-.36c3.55-5.36,8.21-9.5,13.33-11.3Z"/>
              <path class="ac585b88-6bd5-4376-9110-3b736b9aeff6" d="M918.28,502.33c20.42,25.66,31.63,73.14,25,106.05-.09.48-.19,1-.29,1.42a120,120,0,0,1,5.26,42.35,21.48,21.48,0,0,1,1.8,1.49c12,11,19.09,37.86,15.85,60.11s-15.58,31.41-27.58,20.46c-9-8.21-15.22-25.38-16.42-42.84a23,23,0,0,1-9.4-6.35c-12.3-12.88-19.91-39.9-19.1-64.76-19.8-25.92-30.55-72.41-24.07-104.79,6.59-32.91,28.49-38.79,48.91-13.14Z"/>
              <path class="b89176bc-0618-4853-8f45-0392ea6d63ca" d="M960.54,642.09c-4.43,4.22-7.18,13.22-6.13,20.11s5.48,9,9.92,4.81,7.18-13.22,6.13-20.11-5.48-9-9.92-4.81Zm-67.42-36c-4.06,7.35-5,21.56-2,31.73s8.61,12.45,12.67,5.1,5-21.56,2-31.73-8.6-12.45-12.66-5.1Zm27.93-107.35c-2.69,5.63-3,15.65-.79,22.37s6.24,7.62,8.93,2,3-15.65.79-22.38-6.25-7.62-8.93-2Zm-26.95,39c-5.62,6.89-9.3,16.94-8.22,22.46s6.51,4.42,12.13-2.46,9.3-16.94,8.22-22.46-6.5-4.42-12.13,2.46Zm24.29,20.42c-5.55,7.51-8.77,19.58-7.18,27s7.38,7.29,12.94-.22,8.78-19.59,7.19-27-7.39-7.29-13,.22Zm21.87,31c-4.24,4.85-7,12.41-6.21,16.89s4.92,4.18,9.17-.67,7-12.41,6.21-16.89-4.92-4.18-9.17.67Z"/>
              <path class="a811d4f7-eb34-4280-bc40-d66171aa50c8" d="M767.19,723.63C759,720,755.71,710,757.77,698.42c-2.6,1.33-5.27,1.65-7.47.68-4.75-2.1-5.54-9.45-1.76-16.42a22.07,22.07,0,0,1,2.52-3.7c-4.54-8-3.77-20.76,2.9-33.06,9.13-16.82,25.83-26.35,37.3-21.29a14.69,14.69,0,0,1,3.93,2.55c8.24-6.72,17.65-9.41,24.95-6.19a15.33,15.33,0,0,1,7.05,6.39,16.47,16.47,0,0,1,6.54,1.36c6.49,2.86,9.92,9.79,10,18.31,6.7-3.79,13.69-4.88,19.39-2.36,8.83,3.9,12,15.31,8.81,28a8.27,8.27,0,0,1,1.45,4.61,22.77,22.77,0,0,1-.52,6.16,2.27,2.27,0,0,1,2,.92,22.3,22.3,0,0,1,4.16-6.71c3.53-3.73,6.64-3.1,6.94,1.41a14,14,0,0,1-.26,3.57c2.76-.82,4.76.95,5,5.11,0,.12,0,.25,0,.37a35,35,0,0,1,6.49-10.44c5.52-5.84,10.38-4.86,10.85,2.19a20.07,20.07,0,0,1-.15,4l.31-.3c4.1-3.68,9.35-1,11.74,6a22.75,22.75,0,0,1,1,4.34c3.32-.47,6.73,2.37,8.52,7.64,2.38,7,1,15.7-3.09,19.38s-9.35,1-11.74-6a22,22,0,0,1-1-4.34c-3.21.45-6.49-2.18-8.33-7.11A22.75,22.75,0,0,1,901.7,709c-3.79,4-7.12,3.33-7.45-1.51,0-.26,0-.52,0-.78-3.29,1.17-5.72-.8-6.05-5.68,0-.37,0-.74,0-1.13a30.24,30.24,0,0,1-5.4,8.45c-4.87,5.15-9.15,4.29-9.58-1.94A25.75,25.75,0,0,1,875,696.29a2.47,2.47,0,0,1-.87-.72,22.38,22.38,0,0,1-4.16,6.7c-3.27,3.46-6.18,3.18-6.83-.46-3.1,2.81-5.9,3.38-7.7,1.88a31.51,31.51,0,0,1-4.62,6.52c-2.9,3.07-5.62,4.26-7.62,3.66-9.43,12.13-22.84,18.26-32.52,14a15.16,15.16,0,0,1-6.74-5.88c-2.17,2.41-5,3.56-7.1,2.63a3.86,3.86,0,0,1-2.14-2.66c-2.86,1.7-5.88,2.21-8.32,1.14a6,6,0,0,1-1.48-.93c-6.18,3.06-12.48,3.78-17.71,1.48Z"/>
            </g>
            <g>
              <path class="ae31634f-25e8-4e60-8314-94c3b93f3faa" d="M1231.18,735.53c0-2.48-1.48-4.49-3.32-4.49s-3.32,2-3.32,4.49,1.49,4.48,3.32,4.48S1231.18,738,1231.18,735.53Z"/>
              <path class="fe83e914-b061-4d83-84f0-6aa22b832673" d="M1244.05,802.07c0-1.24-.74-2.24-1.66-2.24s-1.66,1-1.66,2.24.74,2.24,1.66,2.24S1244.05,803.31,1244.05,802.07Z"/>
              <path class="bcce7597-5d73-4658-add4-8831ecb132c6" d="M1133.38,750.67c0-1.24-.74-2.24-1.66-2.24s-1.66,1-1.66,2.24.74,2.24,1.66,2.24S1133.38,751.91,1133.38,750.67Z"/>
              <path class="bcc9a66f-1c6c-4a7f-98e4-635d6df007e6" d="M1281.1,854.91c0-1.24-.75-2.24-1.66-2.24s-1.66,1-1.66,2.24.74,2.24,1.66,2.24S1281.1,856.15,1281.1,854.91Z"/>
              <path class="fdcadcdc-0df0-49e0-86cf-93e6835fbb69" d="M1092.94,652.54c0-1.24-.74-2.24-1.66-2.24s-1.66,1-1.66,2.24.74,2.24,1.66,2.24S1092.94,653.78,1092.94,652.54Z"/>
              <path class="b33e50c6-d6a8-4ec6-949c-c361b51552d6" d="M1262.66,811c0-4.95-3-9-6.65-9s-6.64,4-6.64,9,3,9,6.64,9S1262.66,816,1262.66,811Z"/>
              <path class="a74a2e88-b10b-4de3-88f8-2dcf44e264dd" d="M1032,765.77c0-1.24-.75-2.24-1.66-2.24s-1.67,1-1.67,2.24.75,2.25,1.67,2.25S1032,767,1032,765.77Z"/>
              <path class="ae4b4b76-2fa3-44d5-ba71-8cc8cf0ec50d" d="M1050.6,774.74c0-5-3-9-6.64-9s-6.65,4-6.65,9,3,9,6.65,9S1050.6,779.7,1050.6,774.74Z"/>
            </g>
            <g>
              <path class="a02bb773-943c-499e-8f41-616f81e718ac" d="M457,773.71c-106.13,0-192.17,2.2-192.17,4.91s86,4.9,192.17,4.9,192.18-2.2,192.18-4.9S563.1,773.71,457,773.71Z"/>
              <g>
                <g>
                  <g>
                    <path class="a314cc78-c58a-4b7e-934a-33f220b86bb3" d="M330.8,680.27c-14.33,0-30.22,7.78-36.65,27.32-2.32,7.06-2.58,12-2.5,29.64H273.07s1.63,10.28,5.74,11.07l27.63,3.57,64.45-4.09s-.52-29.18-4.68-40.52C358.8,687.06,343.13,680.27,330.8,680.27Z"/>
                    <g>
                      <path class="ac429744-051a-425e-9a18-a597ead60e78" d="M330,695.83c-17.09,0-31,18.7-31,41.78S313,779.4,330,779.4,361,760.69,361,737.61,347.13,695.83,330,695.83Z"/>
                      <path class="a9727ab9-2893-4380-91ce-d64650633047" d="M330,710c-11.28,0-20.43,12.35-20.43,27.58s9.15,27.58,20.43,27.58,20.43-12.35,20.43-27.58S341.32,710,330,710Z"/>
                      <path class="a314cc78-c58a-4b7e-934a-33f220b86bb3" d="M330,728.52c-3.72,0-6.74,4.07-6.74,9.09s3,9.09,6.74,9.09,6.73-4.07,6.73-9.09S333.76,728.52,330,728.52Z"/>
                      <g>
                        <path class="a314cc78-c58a-4b7e-934a-33f220b86bb3" d="M330.09,748.68c-2.26,0-5,11.69-4.57,11.86a12.42,12.42,0,0,0,4.57.87,12.86,12.86,0,0,0,4.49-.83C334.89,760.46,332.43,748.68,330.09,748.68Z"/>
                        <path class="a314cc78-c58a-4b7e-934a-33f220b86bb3" d="M330,713.81a12.59,12.59,0,0,0-4.49.83c-.31.12,2.14,11.9,4.49,11.9s5-11.69,4.57-11.86A12.46,12.46,0,0,0,330,713.81Z"/>
                      </g>
                      <g>
                        <path class="a314cc78-c58a-4b7e-934a-33f220b86bb3" d="M313.14,744.17a27.55,27.55,0,0,0,1.81,5.74,22.62,22.62,0,0,0,2.84,4.77c.23.3,6.45-8.61,5.25-11.31S313,743.58,313.14,744.17Z"/>
                        <path class="a314cc78-c58a-4b7e-934a-33f220b86bb3" d="M342.29,720.54c-.23-.29-6.45,8.61-5.25,11.31s10-.21,9.89-.8a26.94,26.94,0,0,0-1.8-5.74A22.37,22.37,0,0,0,342.29,720.54Z"/>
                      </g>
                      <g>
                        <path class="a314cc78-c58a-4b7e-934a-33f220b86bb3" d="M337.21,743c-1.11,2.66,5.09,11.62,5.42,11.2a23.37,23.37,0,0,0,2.8-5,27.86,27.86,0,0,0,1.66-5.69C347.16,743.11,338.36,740.22,337.21,743Z"/>
                        <path class="a314cc78-c58a-4b7e-934a-33f220b86bb3" d="M317.45,721a23.37,23.37,0,0,0-2.8,5,27.86,27.86,0,0,0-1.66,5.69c-.08.42,8.73,3.31,9.88.56S317.77,720.61,317.45,721Z"/>
                      </g>
                    </g>
                  </g>
                  <g>
                    <path class="a314cc78-c58a-4b7e-934a-33f220b86bb3" d="M593.8,708.49c-6.86-21.16-21.84-28.35-35.81-28-18.34.47-24.65,4.14-31.39,15.4-8.13,13.6-7.67,34.05-7.33,52.41l54.19,2.84,46.71-10.22s3.79-.33,3.79-5.12V732l-27.73,3.19C596.33,729.67,596.29,716.16,593.8,708.49Z"/>
                    <g>
                      <path class="ac429744-051a-425e-9a18-a597ead60e78" d="M557.86,695.83c-17.09,0-31,18.7-31,41.78s13.86,41.79,31,41.79,30.95-18.71,30.95-41.79S575,695.83,557.86,695.83Z"/>
                      <path class="a9727ab9-2893-4380-91ce-d64650633047" d="M557.86,710c-11.28,0-20.43,12.35-20.43,27.58s9.15,27.58,20.43,27.58,20.43-12.35,20.43-27.58S569.14,710,557.86,710Z"/>
                      <path class="a314cc78-c58a-4b7e-934a-33f220b86bb3" d="M557.86,728.52c-3.72,0-6.74,4.07-6.74,9.09s3,9.09,6.74,9.09,6.73-4.07,6.73-9.09S561.58,728.52,557.86,728.52Z"/>
                      <g>
                        <path class="a314cc78-c58a-4b7e-934a-33f220b86bb3" d="M557.91,748.68c-2.26,0-5,11.69-4.58,11.86a12.51,12.51,0,0,0,4.58.87,12.86,12.86,0,0,0,4.49-.83C562.71,760.46,560.25,748.68,557.91,748.68Z"/>
                        <path class="a314cc78-c58a-4b7e-934a-33f220b86bb3" d="M557.8,713.81a12.67,12.67,0,0,0-4.49.83c-.31.12,2.15,11.9,4.49,11.9s5-11.69,4.58-11.86A12.51,12.51,0,0,0,557.8,713.81Z"/>
                      </g>
                      <g>
                        <path class="a314cc78-c58a-4b7e-934a-33f220b86bb3" d="M541,744.17a27,27,0,0,0,1.81,5.74,23,23,0,0,0,2.83,4.77c.24.3,6.46-8.61,5.25-11.31S540.85,743.58,541,744.17Z"/>
                        <path class="a314cc78-c58a-4b7e-934a-33f220b86bb3" d="M570.11,720.54c-.23-.29-6.45,8.61-5.25,11.31s10-.21,9.89-.8a27.52,27.52,0,0,0-1.8-5.74A22.79,22.79,0,0,0,570.11,720.54Z"/>
                      </g>
                      <g>
                        <path class="a314cc78-c58a-4b7e-934a-33f220b86bb3" d="M565,743c-1.11,2.66,5.09,11.62,5.41,11.2a22.54,22.54,0,0,0,2.8-5,27.27,27.27,0,0,0,1.67-5.69C575,743.11,566.18,740.22,565,743Z"/>
                        <path class="a314cc78-c58a-4b7e-934a-33f220b86bb3" d="M545.27,721a22.54,22.54,0,0,0-2.8,5,27.24,27.24,0,0,0-1.66,5.69c-.08.42,8.73,3.31,9.87.56S545.59,720.61,545.27,721Z"/>
                      </g>
                    </g>
                  </g>
                  <path class="a2be86b6-78d2-4fdd-b9b2-bdb3248c8bac" d="M639.09,701.75c0-4-1.52-5.58-2.59-6.68l-4.18-4.17c-.49-12.36,0-30-3.11-47.06s-11.89-47.37-11.89-47.37a5.63,5.63,0,0,0,1.18-4.42c-.31-1.6-12.73-4-14.74-4.47-6.67-1.45-14-1.81-20.76-2.28-3.54-.24-7.09-.46-10.64-.63H478.13c-56,0-66.7,6.11-73.89,12.46-11.83,10.47-40.92,38.52-40.92,38.52-7.12,4.76-19.43,6.47-19.44,6.47-19.48,2.72-39.49,6.51-58.58,12.33-9,2.75-15,6.71-18.28,18.58-2.29,8.27-3.85,16.18-6,24.71,0,0-.89,2.45-.89,10.59,0,0,4.05,36.3,9,36.3l22.05.14s.66-23,3.12-31.7c5.36-18.87,19.47-31,34.84-31,14.87,0,28.74,11,34.2,29.28,2.33,7.78,3.89,20.43,5.2,33.16l.12,1s.31,2.8,2.63,2.8H519.32c2.19,0,2.12-2.39,2.07-3.55-.68-17,1.67-29.15,3.4-35,5.09-17.34,18.45-27.64,32.87-27.64,16.09,0,32,13.64,35.66,33.47,1,5.16,3.45,21.17,3.45,21.17.09,1.64.49,2.56,1.23,3a3.18,3.18,0,0,0,2,.21l27.27-5.35c8.88-1.4,11.8-9,11.8-27.72C639.12,706.87,639.08,703,639.09,701.75Z"/>
                  <path class="a2067621-7159-4832-bdd0-c5b30f5fc5d0" d="M363.32,711.38c1.94,6.48,3.34,16.34,4.52,26.8H521.27c.06-13.56,2-23.34,3.52-28.44a42.24,42.24,0,0,1,9.36-16.93l-178.38,3.45A47.23,47.23,0,0,1,363.32,711.38Z"/>
                  <path class="a2067621-7159-4832-bdd0-c5b30f5fc5d0" d="M636.5,695.07l-4.17-4.16-51.65,1a41.78,41.78,0,0,1,7.59,9.74h50.82A8.21,8.21,0,0,0,636.5,695.07Z"/>
                  <path class="a2067621-7159-4832-bdd0-c5b30f5fc5d0" d="M260.09,708.33s.37,3.34,1,8h32.43a32.82,32.82,0,0,1,.73-3.25,49.92,49.92,0,0,1,7.53-15.77l-40.93.79C260.65,699,260.09,701.88,260.09,708.33Z"/>
                  <path class="ac429744-051a-425e-9a18-a597ead60e78" d="M578.52,577.47l-99.36-.05a12.68,12.68,0,0,0-11.27,6.17c-.57.93-.25,1.57,0,1.56,3.5-.09,7.23-.15,11.23-.17v-1.83c0-1.35.75-2.44,1.68-2.44h26.39c.93,0,1.68,1.09,1.68,2.43V585h6.89v-1.84c0-1.34.75-2.44,1.68-2.44h26.39c.93,0,1.69,1.09,1.69,2.44V585h6.88v-1.86c0-1.34.76-2.44,1.68-2.44h26.4c.92,0,1.68,1.09,1.68,2.44V586l12,.4a3,3,0,0,0-.19-1.48C589.63,578,585.38,577.42,578.52,577.47Z"/>
                  <path class="a2067621-7159-4832-bdd0-c5b30f5fc5d0" d="M358.35,638.24a67.34,67.34,0,0,1-14.47,3.88c-19.48,2.72-39.49,6.51-58.58,12.33-.62.19-1.21.39-1.8.59a6.1,6.1,0,0,0,5.43,1.42c23.61-7.13,74.46-12.22,74.46-12.22A12.81,12.81,0,0,0,358.35,638.24Z"/>
                  <path class="b4a65756-6ad4-443a-b19a-3f90743551f1" d="M408,595.44l-1.44-.14-3.93,3.45,2.11.27c.21,0,.49,0,.79,0l0,0c-9.17,8.12-28,27.28-35.59,35.12a4,4,0,0,1-1.81.6h0a9.47,9.47,0,0,1-1.12-.23L365,634l-1.5,1.5-2.33,1.39,1.92.54c.65.19,4.9,1.17,5,1.17a5.85,5.85,0,0,0,3.52-1.36c7.62-7.84,26.34-26.93,35.44-35l.2-.18c1.25-1.06,2.95-2.52,2.64-4.58A2.37,2.37,0,0,0,408,595.44Z"/>
                  <g>
                    <path class="a2067621-7159-4832-bdd0-c5b30f5fc5d0" d="M451.21,658.35h-4.72c-2.46,0-4.45,2.3-4.45,5.12v2.34c0,2.83,2,5.12,4.45,5.12h4.72c2.46,0,4.45-2.29,4.45-5.12v-2.34C455.66,660.65,453.67,658.35,451.21,658.35Z"/>
                    <path class="a314cc78-c58a-4b7e-934a-33f220b86bb3" d="M459.75,662.4H443s-5.12.86-5.12,1.92V665c0,1.06,5.12,1.92,5.12,1.92h16.73c.78,0,1.42-.86,1.42-1.92v-.64C461.17,663.26,460.53,662.4,459.75,662.4Z"/>
                  </g>
                  <g>
                    <path class="a2067621-7159-4832-bdd0-c5b30f5fc5d0" d="M524.1,655.22h-4.73c-2.45,0-4.44,2.29-4.44,5.12v2.34c0,2.82,2,5.11,4.44,5.11h4.73c2.46,0,4.45-2.29,4.45-5.11v-2.34C528.55,657.51,526.56,655.22,524.1,655.22Z"/>
                    <path class="a314cc78-c58a-4b7e-934a-33f220b86bb3" d="M532.64,659.27H515.91s-5.13.86-5.13,1.92v.64c0,1.06,5.13,1.91,5.13,1.91h16.73c.78,0,1.42-.85,1.42-1.91v-.64C534.06,660.13,533.42,659.27,532.64,659.27Z"/>
                  </g>
                  <path class="a755cfd4-ba7c-40d7-a35d-f3cde9efb1b4" d="M464.37,588.67h-.44c-37.17,1-45.69,5-53.41,12.32-11.42,10.92-35.09,35.57-35.33,35.82l-.1.11,0,.16c-10.51,34.72-.13,94.16,0,94.81,1,3.86,3.43,4.45,4.81,4.45a5.24,5.24,0,0,0,1.13-.13l86.15,0h.47v-1.9c.22-34.6.59-92.51-3.19-145.12Zm2.28,145.69V735l-85.73,0h-.1a3.84,3.84,0,0,1-1,.12c-1.38,0-3.18-.62-3.9-3.53-.11-.59-10.39-59.44-.07-93.81,1.7-1.78,24.17-25.16,35.2-35.68,7.53-7.2,15.87-11,52.44-12.08C467.24,642.35,466.87,699.92,466.65,734.36Z"/>
                  <path class="a755cfd4-ba7c-40d7-a35d-f3cde9efb1b4" d="M538.89,592.71l0-.11c0-.18-1.13-4.27-4.24-4.27l-49.94.1c-6.92,0-13.3.06-19,.2l-.51,0,.05.68c3.78,52.54,3.41,110.41,3.19,145v1.95l49.66,0v-.63a124.27,124.27,0,0,1,4.27-29.41c3.34-11.34,10.29-20,19.59-24.35l.32-.15v-.46C542.11,658.12,541.42,615.78,538.89,592.71ZM521.51,705.79A125.34,125.34,0,0,0,517.18,735l-47.79,0v-.66c.22-34.45.58-92-3.15-144.43,5.54-.13,11.73-.19,18.44-.19l49.95-.1c2.28,0,3.2,2.91,3.32,3.35,2.5,22.86,3.19,64.67,3.38,87.9C531.94,685.39,524.91,694.23,521.51,705.79Z"/>
                  <g>
                    <path class="b4a65756-6ad4-443a-b19a-3f90743551f1" d="M535.68,599.23c-.36-4.79-3.07-7.23-8.08-7.23l-40,.7c-5.67,0-11.05,0-16,.16l-1.53,0,.14,2.06c1.25,18.88,1.91,30.9,2.33,48.08l.05,1.85h59.07a5.44,5.44,0,0,0,4.57-2.21,9.18,9.18,0,0,0,1.26-5.47C537.09,618.69,536.51,610.15,535.68,599.23ZM534.19,640a3.1,3.1,0,0,1-2.56,1H475.36c-.41-15.69-1.05-27.26-2.17-44.39,4.49-.09,9.33-.13,14.43-.13l40-.7c5,0,5.16,2.56,5.25,3.79.82,10.83,1.39,19.31,1.81,37.7A4.67,4.67,0,0,1,534.19,640Z"/>
                    <path class="b4a65756-6ad4-443a-b19a-3f90743551f1" d="M460.44,595l-.11-1.81-1.35.07c-30.87,1.5-38.59,5.68-46.09,12.85-7.74,7.38-17.31,17.18-24.78,24.89-3.62,3.72-3.46,7.08-3,8.76.78,3.13,3.53,5.08,7.16,5.08h70.58l-.05-2C462.34,625.88,461.68,613.91,460.44,595Zm-68.21,46c-2.65,0-4.18-1.29-4.47-2.48s.48-2.84,2.08-4.48c7.45-7.69,17-17.46,24.69-24.81,5.87-5.61,11.16-10.4,43.2-12.08,1.11,17,1.74,28.49,2.14,43.85Z"/>
                    <path class="b4a65756-6ad4-443a-b19a-3f90743551f1" d="M615.62,635a341.62,341.62,0,0,0-10.21-34.14l-.12-.33c-1-2.71-1.91-5.26-5.4-6.18l-.12,0-47.43-1.79a4,4,0,0,0-3.61,1.78c-1.2,1.8-1.17,4.49-1,6.59l2,33.08c.68,10.57,6.63,10.57,8.59,10.57h51.92c2.57,0,4.28-.85,5.22-2.61,1.26-2.37.55-5.29.16-6.87Zm-2.44,4.69c-.17.31-.78,1-2.92,1H558.34c-2.69,0-5.34-.54-5.76-7.06l-2-33.1c-.18-2.4.06-3.32.3-3.67a1.77,1.77,0,0,1,1.46-.52l47.16,1.79c2,.56,2.41,1.68,3.28,4.07l.13.34a341,341,0,0,1,10.06,33.65l0,.07C613.18,637.28,613.59,638.94,613.18,639.71Z"/>
                  </g>
                  <g>
                    <path class="fc683fb6-63d4-4bf9-b7fa-6c34c61225ca" d="M407.73,597.34a29.23,29.23,0,0,0-3.49-.21c-11.5,10.17-39.3,37-40.85,38.46,0,0,3.75,1.06,4.56,1.12a4.77,4.77,0,0,0,2.78-1c8.08-8.32,26.46-27,35.52-35.07C406.92,600.09,409.85,597.8,407.73,597.34Z"/>
                    <path class="fc683fb6-63d4-4bf9-b7fa-6c34c61225ca" d="M534.27,599.54c-.2-2.62-1.33-5.51-6.66-5.51l-40,.69c-5.78,0-11.08.06-16,.17,1.19,17.9,1.91,30.47,2.34,48.18h57.67c4.47-.11,4.48-3.9,4.44-5.7C535.68,619.29,535.14,611,534.27,599.54Z"/>
                    <path class="fc683fb6-63d4-4bf9-b7fa-6c34c61225ca" d="M413.71,607.83c-7.46,7.12-16.78,16.63-24.74,24.85-5.17,5.3-2.25,10.39,3.26,10.39h69.11c-.43-17.57-1.14-30-2.31-47.75C427.06,596.88,420.39,601.44,413.71,607.83Z"/>
                    <path class="fc683fb6-63d4-4bf9-b7fa-6c34c61225ca" d="M604.14,601.73c-1-2.75-1.6-4.71-4.52-5.48l-47.28-1.78c-2.75,0-3.54,1.91-3.21,6.29l2,33.07c.58,8.93,5.24,8.82,7.33,8.82h51.77c5.8,0,4.56-4.8,4-7A344.9,344.9,0,0,0,604.14,601.73Z"/>
                  </g>
                  <g>
                    <path class="f23d1658-6feb-4c8c-856a-c3d1ca835ae8" d="M407.73,597.34a29.23,29.23,0,0,0-3.49-.21c-5.23,4.63-13.85,12.72-21.83,20.28,2.53-.44,5.09-.86,7.69-1.28,6.08-6,12.06-11.83,16.15-15.45C406.92,600.09,409.85,597.8,407.73,597.34Z"/>
                    <path class="f23d1658-6feb-4c8c-856a-c3d1ca835ae8" d="M527.61,593.92l-40,.69c-5.78,0-11.08.06-16,.17.56,8.52,1,15.84,1.4,23.08,21-1.31,40.34-2.12,62.28-2.62-.29-5.51-.63-10.3-1.05-15.81C534.07,596.8,532.94,593.92,527.61,593.92Z"/>
                    <path class="f23d1658-6feb-4c8c-856a-c3d1ca835ae8" d="M413.71,607.71c-5.74,5.48-12.57,12.37-19,19a632.62,632.62,0,0,1,65.77-8c-.38-7.38-.84-14.8-1.41-23.51C427.06,596.77,420.39,601.33,413.71,607.71Z"/>
                    <path class="f23d1658-6feb-4c8c-856a-c3d1ca835ae8" d="M599.62,596.25l-47.28-1.78c-2.75,0-3.54,1.91-3.21,6.29l.85,13.87c20.09-.33,39-.44,58.32-.48-1.75-5.6-3.25-9.91-4.16-12.42C603.14,599,602.54,597,599.62,596.25Z"/>
                  </g>
                  <path class="a314cc78-c58a-4b7e-934a-33f220b86bb3" d="M389.1,631.91c-5.49,5.69-3.53,11.41,2.31,11.41h14l-8.08-20C394.32,626.46,391.51,629.38,389.1,631.91Z"/>
                  <path class="a2067621-7159-4832-bdd0-c5b30f5fc5d0" d="M402.71,618.59h-5.2c-3.83,0-4.34,10.48-4.34,12.35,0,0-4.4,2.38-2,7.81,1.59,3.56,5.73.17,5.73.17l5.77.68c1.39,0,2.52-1.52,2.52-3.39V622C405.23,620.1,404.1,618.59,402.71,618.59Z"/>
                  <path class="a9b02d3c-83a2-4b5d-8d33-e52fa8f0c586" d="M358.52,655.05h-6.78c-.22,0-.39.24-.39.54v3.75c0,.3.17.54.39.54h6.78c.22,0,.4-.24.4-.54v-3.75C358.92,655.29,358.74,655.05,358.52,655.05Z"/>
                  <path class="b74bbb27-f7ad-4f7e-9415-fc803b4c977d" d="M616.18,657.89c-2-.22-3.16,1.65-2.53,4.19l1.78,7.21a11.9,11.9,0,0,0,4.48,6.59l12.23,8.3c-.16-7.47-.25-16.16-1-25.2Z"/>
                  <path class="acc48f2c-1db3-41c4-a539-85ae2f27d596" d="M534.15,692.81l46.53-.9c-6.54-6.2-14.75-9.81-23-9.81A32,32,0,0,0,534.15,692.81Z"/>
                  <path class="acc48f2c-1db3-41c4-a539-85ae2f27d596" d="M301.81,697.3l54-1c-6.86-9-16.53-14.16-26.65-14.16C318.63,682.1,308.74,687.73,301.81,697.3Z"/>
                </g>
                <path class="a5d8cd7e-4e94-4f5c-82b7-dab0a0ac5c7c" d="M264.07,693.32l13.68-1.56c4.77-4.39,9.88-29,9.88-29l-9.6,2.09C270.64,666.53,267.28,680.25,264.07,693.32Z"/>
                <path class="be5ddce6-c1f8-4684-bcd8-bfe07d6c051d" d="M270,724.78c-.69.07-1.27.87-1.65,2.11a13.09,13.09,0,0,0-.62,5.12c.2,3.62,1.48,6.45,2.85,6.32.69-.08,1.27-.88,1.65-2.11a13.2,13.2,0,0,0,.62-5.14C272.63,727.47,271.35,724.64,270,724.78Z"/>
              </g>
            </g>
            <g>
              <path class="a02bb773-943c-499e-8f41-616f81e718ac" d="M1003.91,851.72c0,2.5-69.08,4.52-154.3,4.52s-154.3-2-154.3-4.52,69.08-4.53,154.3-4.53S1003.91,849.22,1003.91,851.72Z"/>
              <path class="a314cc78-c58a-4b7e-934a-33f220b86bb3" d="M951.87,777.68c-16.8,0-30.55,17.52-31.81,39.76,0,.75-.08,8.56-.08,8.56l33.58,6.32,30.1-9s-.15-8.21-.25-9.15C981.05,793.49,967.83,777.68,951.87,777.68Z"/>
              <path class="a314cc78-c58a-4b7e-934a-33f220b86bb3" d="M764.29,778.38c-17.63,0-31.92,19.29-31.92,43.08,0,2.11-.18,12.51-.18,12.51l32.49,4.25,31.92-6.94c-.38-8.2-.4-8.19-.4-9.82C796.2,797.67,781.92,778.38,764.29,778.38Z"/>
              <g>
                <path class="ac429744-051a-425e-9a18-a597ead60e78" d="M975.74,819.36c0,17.8-10.68,32.22-23.87,32.22S928,837.16,928,819.36s10.69-32.22,23.87-32.22S975.74,801.57,975.74,819.36Z"/>
                <g>
                  <path class="bf33568d-ef86-411c-8d72-d1d20ab5ba7b" d="M969,819.36c0,12.77-7.66,23.12-17.13,23.12s-17.12-10.35-17.12-23.12,7.66-23.12,17.12-23.12S969,806.58,969,819.36Z"/>
                  <g>
                    <path class="ac429744-051a-425e-9a18-a597ead60e78" d="M948.77,811c1.5-1.11.18-10.24-.15-10.14a10.76,10.76,0,0,0-3.27,1.66,13.83,13.83,0,0,0-2.76,2.75C942.42,805.5,947.22,812.14,948.77,811Z"/>
                    <path class="ac429744-051a-425e-9a18-a597ead60e78" d="M945.4,817.18c.26-2.28-5.9-6.44-6-6a21.61,21.61,0,0,0-1,4.5,23.18,23.18,0,0,0-.07,4.63C938.29,820.61,945.12,819.54,945.4,817.18Z"/>
                    <path class="ac429744-051a-425e-9a18-a597ead60e78" d="M952,828.21c-1.71,0-3.84,8.83-3.51,9a9.42,9.42,0,0,0,6.85.09C955.58,837.17,953.78,828.22,952,828.21Z"/>
                    <path class="ac429744-051a-425e-9a18-a597ead60e78" d="M946.63,824.85c-1.13-1.73-7.44,2-7.29,2.42a17.51,17.51,0,0,0,1.91,3.94,14.1,14.1,0,0,0,2.58,3C944,834.42,947.79,826.65,946.63,824.85Z"/>
                    <path class="ac429744-051a-425e-9a18-a597ead60e78" d="M957.22,824.2c-1.07,1.79,2.75,9.54,3,9.27a14.91,14.91,0,0,0,2.55-3.22,19.35,19.35,0,0,0,1.76-4C964.65,826,958.33,822.33,957.22,824.2Z"/>
                    <path class="ac429744-051a-425e-9a18-a597ead60e78" d="M954.42,811.1c1.54,1,6.28-5.75,6-6.06a13.12,13.12,0,0,0-2.9-2.63,10.23,10.23,0,0,0-3.25-1.43C954.05,800.93,952.83,810.05,954.42,811.1Z"/>
                    <path class="ac429744-051a-425e-9a18-a597ead60e78" d="M958.25,816.94c.43,2.24,7.3,2.77,7.32,2.3a22.64,22.64,0,0,0-.39-4.68,20.74,20.74,0,0,0-1.29-4.28C963.77,810,957.82,814.63,958.25,816.94Z"/>
                  </g>
                  <path class="e6285696-5c09-4d8f-a97c-6b8e419ade0c" d="M956.92,819.36c0,3.77-2.26,6.82-5,6.82s-5-3-5-6.82,2.26-6.82,5-6.82S956.92,815.59,956.92,819.36Z"/>
                </g>
              </g>
              <g>
                <path class="ac429744-051a-425e-9a18-a597ead60e78" d="M788.16,819.36c0,17.8-10.69,32.22-23.87,32.22s-23.87-14.42-23.87-32.22,10.68-32.22,23.87-32.22S788.16,801.57,788.16,819.36Z"/>
                <g>
                  <path class="bf33568d-ef86-411c-8d72-d1d20ab5ba7b" d="M781.41,819.36c0,12.77-7.66,23.12-17.12,23.12s-17.13-10.35-17.13-23.12,7.66-23.12,17.13-23.12S781.41,806.58,781.41,819.36Z"/>
                  <g>
                    <path class="ac429744-051a-425e-9a18-a597ead60e78" d="M761.19,811c1.5-1.11.17-10.24-.16-10.14a10.87,10.87,0,0,0-3.27,1.66,13.52,13.52,0,0,0-2.75,2.75C754.84,805.5,759.63,812.14,761.19,811Z"/>
                    <path class="ac429744-051a-425e-9a18-a597ead60e78" d="M757.81,817.18c.27-2.28-5.89-6.44-6-6a20.4,20.4,0,0,0-1,4.5,22.46,22.46,0,0,0-.07,4.63C750.7,820.61,757.53,819.54,757.81,817.18Z"/>
                    <path class="ac429744-051a-425e-9a18-a597ead60e78" d="M764.42,828.21c-1.71,0-3.83,8.83-3.5,9a9.39,9.39,0,0,0,3.45.69,9.5,9.5,0,0,0,3.39-.6C768,837.17,766.19,828.22,764.42,828.21Z"/>
                    <path class="ac429744-051a-425e-9a18-a597ead60e78" d="M759,824.85c-1.13-1.73-7.44,2-7.29,2.42a17.94,17.94,0,0,0,1.91,3.94,14.39,14.39,0,0,0,2.58,3C756.44,834.42,760.2,826.65,759,824.85Z"/>
                    <path class="ac429744-051a-425e-9a18-a597ead60e78" d="M769.64,824.2c-1.08,1.79,2.74,9.54,3,9.27a15.19,15.19,0,0,0,2.54-3.22,18.82,18.82,0,0,0,1.76-4C777.06,826,770.74,822.33,769.64,824.2Z"/>
                    <path class="ac429744-051a-425e-9a18-a597ead60e78" d="M766.83,811.1c1.54,1,6.28-5.75,6-6.06a13.39,13.39,0,0,0-2.91-2.63A10.13,10.13,0,0,0,766.7,801C766.46,800.92,765.24,810.05,766.83,811.1Z"/>
                    <path class="ac429744-051a-425e-9a18-a597ead60e78" d="M770.66,816.94c.43,2.24,7.3,2.77,7.32,2.3a22.64,22.64,0,0,0-.39-4.68,20.74,20.74,0,0,0-1.29-4.28C776.18,810,770.23,814.63,770.66,816.94Z"/>
                  </g>
                  <path class="e6285696-5c09-4d8f-a97c-6b8e419ade0c" d="M769.34,819.36c0,3.77-2.26,6.82-5.05,6.82s-5-3-5-6.82,2.26-6.82,5-6.82S769.34,815.59,769.34,819.36Z"/>
                </g>
              </g>
              <path class="acc48f2c-1db3-41c4-a539-85ae2f27d596" d="M981.06,805.36c-4-15.83-14.79-27.39-28.35-27.17-7.66.13-15.35,3.63-21.36,10.09a35.13,35.13,0,0,0-7.19,13.1c-1.76,5.42-3.16,12.86-2.72,18.82l.2,2.71h60.92A56.4,56.4,0,0,0,981.06,805.36Z"/>
              <path class="ee70ddef-d0e4-46f0-bd52-a00b1b3bf8c7" d="M972.09,707.57c-2.05-6.07-2.44-7.65-15.74-9.06h0l-40.14-4.4c-54-4-88-2.39-143.24,53.27-37.62,5.25-63.57,20-69.28,45.19C698.5,815.34,701.1,836,719,836l18.62-.79a51,51,0,0,1-1.88-13.76c0-21.27,12.78-38.53,28.55-38.53s28.54,17.26,28.54,38.53a50.75,50.75,0,0,1-1.29,11.46l132.21-5.62a51.94,51.94,0,0,1-.42-6.54c0-21.28,12.78-38.53,28.54-38.53s28.55,17.25,28.55,38.53c0,1.4-.06,2.77-.17,4.13l2.11-.09c13.3,0,13.24-18.17,13.24-40.63C995.6,760,987.44,723.1,972.09,707.57Z"/>
              <path class="ad1afe18-d79e-4358-8df4-250ecb1521ee" d="M995.6,787.56l-27.93,1.11c7.61,6.84,12.65,18.48,12.74,31.73l10.87-.43C995.31,813.62,995.58,801.61,995.6,787.56Z"/>
              <path class="ad1afe18-d79e-4358-8df4-250ecb1521ee" d="M934.71,790l-149.08,5.92a46.81,46.81,0,0,1,7.2,25.57,51.18,51.18,0,0,1-.4,6.38l130.94-5.18c0-.63,0-1.26,0-1.9C923.33,808.18,927.8,797,934.71,790Z"/>
              <path class="ad1afe18-d79e-4358-8df4-250ecb1521ee" d="M741.87,797.62l-39.47,1.57c-2.2,13.56-1.2,25.66,4.7,32l29.37-1.16a51.46,51.46,0,0,1-.73-8.61A47.51,47.51,0,0,1,741.87,797.62Z"/>
              <path class="acc48f2c-1db3-41c4-a539-85ae2f27d596" d="M981.06,805.36c-4-15.83-14.79-27.39-28.35-27.17-7.66.13-15.35,3.63-21.36,10.09a35.13,35.13,0,0,0-7.19,13.1c-1.76,5.42-3.16,12.86-2.72,18.82,0,0,.07.89.15,2.08l61.1-2.24A56.5,56.5,0,0,0,981.06,805.36Z"/>
              <path class="b74bbb27-f7ad-4f7e-9415-fc803b4c977d" d="M979.19,754.86c5.27,10.15,10,15.75,15.95,18.83a168.16,168.16,0,0,0-6.11-33A18.44,18.44,0,0,0,979.19,754.86Z"/>
              <g>
                <path class="f1de5b5a-e3c7-45a0-841b-0b91e12800bb" d="M880.63,760a2.53,2.53,0,0,1,2.31-2.76l6.28,0a2.63,2.63,0,0,1,2.41,2.75l.09,5.28a2.54,2.54,0,0,1-2.31,2.77h-6.29a2.62,2.62,0,0,1-2.4-2.75Z"/>
                <path class="b5ce0226-4654-4a23-b24e-2c55511f3c7d" d="M878,762.14c0-.39.19-.7.44-.7l16.23-.58c.24,0,.44.32.44.71v2.57c0,.38-.2.7-.44.69L878.39,764c-.24,0-.44-.32-.44-.71Z"/>
              </g>
              <path class="bf33568d-ef86-411c-8d72-d1d20ab5ba7b" d="M733.84,766.48l-10.77,1.11c-8.11,5.69-12.25,11.29-14.76,20.15-.18.64-.53,2.11-.55,2.19l14.75-2.69c3.93-10,12.52-17.83,15.59-20.38.7-.59-.2-.91-.2-.91Z"/>
              <path class="f1de5b5a-e3c7-45a0-841b-0b91e12800bb" d="M770.61,751.56c.66-1,2.37-4.16,2.37-4.16v0c-20.3,2.83-37.19,8.42-49.35,16.92l1.78.76s24.38-11,41.17-11.51A5.23,5.23,0,0,0,770.61,751.56Z"/>
              <path class="f45d0583-ff88-4d67-9bf0-4fda44724607" d="M798.79,761.41l.13-2.47c.87-16.75,2.31-18.23,2.78-18.73,23.27-24.09,53-35.81,93.51-36.85l1.59,0-.13,45.94Zm4.93-18c-.53,1.35-1.17,7.48-1.55,13.35l91.4-11.35.1-37.81C854.73,708.89,826.11,720.3,803.72,743.42Z"/>
              <path class="f45d0583-ff88-4d67-9bf0-4fda44724607" d="M909.13,747.86h0c-2.16,0-3.62-1.79-3.62-4.44l.11-38.38a5.42,5.42,0,0,1,.85-3,3.31,3.31,0,0,1,2.82-1.46c12.38,0,24.94,1.33,37.79,2.84l0,0,1.18.18c18.29,2.89,24,13.6,27.72,31.14a6,6,0,0,1-.34,3.59,2.74,2.74,0,0,1-2,1.62l-.07,0-64.11,8h0A2.89,2.89,0,0,1,909.13,747.86Zm-.5-4.31a1,1,0,0,0,.5.11h.09L973,735.75c-3.5-16.52-8.34-25.4-25-28h0c-13.18-1.56-26.06-3-38.68-3a.86.86,0,0,0-.55.13.11.11,0,0,1,0,0l0,.13,0,0-.11,38.42C908.62,743.48,908.63,743.52,908.63,743.55Z"/>
              <path class="f45d0583-ff88-4d67-9bf0-4fda44724607" d="M983.34,738.67c-1.9,0-3.25-1.7-3.75-3.41a100.71,100.71,0,0,0-10-24,4.4,4.4,0,0,1-.63-3.4c.31-1.23,2.53-2.14,2.53-2.14l.63,1.81,1.08,1.14-.85.51a106.66,106.66,0,0,1,10.16,24.51s.23.74.86.74h0a32.55,32.55,0,0,0,3.52-.52l1.35,4.06c-.33.06-3.7.64-4.81.66Z"/>
              <path class="f45d0583-ff88-4d67-9bf0-4fda44724607" d="M778,749.92a3.73,3.73,0,0,1-2.45-1,25.52,25.52,0,0,1-1.93-2.2l2.57-2.54a12.43,12.43,0,0,0,1,1.21c.64.55,1.15.47,2-.34,23.35-23.15,43.88-37.51,64.56-45.16l-.32-1,3-.94a15.66,15.66,0,0,1,.59,3.41,3.49,3.49,0,0,1-2.11,2.42c-20.44,7.48-40.74,21.66-63.91,44.63A4.38,4.38,0,0,1,778,749.92Z"/>
              <g>
                <path class="a059e425-d3ed-4d6d-823c-0e04d9f03932" d="M802.65,741.88c-1.35,1.4-2.17,17.2-2.17,17.2l94.64-11.74.11-41.88C859.63,706.38,828.07,715.56,802.65,741.88Z"/>
                <path class="e5257f7c-a4dd-4311-90a0-59a87a2898bd" d="M974.5,735.25c-3.38-16-8.16-26.76-26.4-29.64h0c-13.31-1.57-26.27-3-38.81-3-2.23,0-2.11,2.37-2.11,2.37l-.11,38.41c0,2.65,2.29,2.33,2.29,2.33l64.11-8C974.65,737.58,974.66,736,974.5,735.25Z"/>
                <path class="e5257f7c-a4dd-4311-90a0-59a87a2898bd" d="M983.4,736.57c1,0,4.15-.62,4.15-.62-3.83-11.53-9-21.82-15.43-28.34l-1,.23s-1.35.44-.33,2.12A104.22,104.22,0,0,1,981,734.49,2.63,2.63,0,0,0,983.4,736.57Z"/>
                <path class="e5257f7c-a4dd-4311-90a0-59a87a2898bd" d="M845.43,699.42a11.11,11.11,0,0,0-.68-.94c-21.52,6.74-43.22,20.53-69.8,46.94a20.67,20.67,0,0,0,1.48,1.7c1.65,1.44,3,.31,3.74-.4,24.36-24.16,44.62-37.73,64.42-45A1.55,1.55,0,0,0,845.43,699.42Z"/>
              </g>
              <g>
                <path class="ae03e982-cd16-4527-b84b-cba1b9dbd6cb" d="M802.65,741.88c-.48.49-.89,2.75-1.22,5.48,23-10.44,55.85-17.29,93.75-21.77l.05-20.13C859.63,706.38,828.07,715.56,802.65,741.88Z"/>
                <path class="e932e790-72a6-4376-aef8-833081ff0012" d="M948.1,705.61h0c-13.31-1.57-26.27-3-38.81-3-2.23,0-2.11,2.37-2.11,2.37l-.06,19.27c19.83-2,40.85-3.5,62.42-4.55C965.72,712.35,959.57,707.42,948.1,705.61Z"/>
                <path class="e932e790-72a6-4376-aef8-833081ff0012" d="M972.12,707.61l-1,.23s-1.35.44-.33,2.12a80.84,80.84,0,0,1,4.87,9.48l4.82-.21A51.83,51.83,0,0,0,972.12,707.61Z"/>
                <path class="e932e790-72a6-4376-aef8-833081ff0012" d="M844.59,701.75a1.55,1.55,0,0,0,.84-2.33,11.11,11.11,0,0,0-.68-.94c-14.9,4.67-29.89,12.72-46.52,26,2.69-.33,5.41-.64,8.15-1C819.87,713.16,832.32,706.24,844.59,701.75Z"/>
              </g>
              <g>
                <path class="a48fd265-a067-4473-9d9a-cc38f7acd0ca" d="M802.13,741.75c-1.35,1.37-2.17,17.52-2.17,17.52l9.57-1.16-1.15-22.36S805.21,738.63,802.13,741.75Z"/>
                <path class="a314cc78-c58a-4b7e-934a-33f220b86bb3" d="M804.42,747.15c.16-2.79-.08-7.56,1.36-9.57,2.45-3.44,6.84-2.49,7.2-2,1,1.33,1.76,9.76.84,15-.25,1.46-.78,1.74-1.29,1.77s-1.15.41-4.37-.26l-.54,3.45a4,4,0,0,1-3.38,0c-1.27-.69-2.07-2.91-2.07-2.91Z"/>
              </g>
              <path class="e3867744-01b9-4fc5-9c85-5ad1f7e6e38e" d="M778.06,761.77c0-1.35,1.64-2.4,3.6-2.33s3.55,1.21,3.52,2.56-1.63,2.4-3.6,2.34S778,763.12,778.06,761.77Z"/>
              <path class="acc48f2c-1db3-41c4-a539-85ae2f27d596" d="M933.09,791.75l36.26-1.45c-4.83-5.06-10.89-8.07-17.48-8.07C944.68,782.23,938.11,785.82,933.09,791.75Z"/>
              <path class="acc48f2c-1db3-41c4-a539-85ae2f27d596" d="M764.29,782.93c-9.71,0-18.28,6.54-23.44,16.54l45.86-1.84C781.49,788.68,773.38,782.93,764.29,782.93Z"/>
              <path class="acc48f2c-1db3-41c4-a539-85ae2f27d596" d="M915.14,822.91H919l0-.14Z"/>
              <path class="bdc4981f-be47-4966-a768-5be8c176a918" d="M804.66,822.65h0a4.15,4.15,0,0,1-3.4-1.72,8.56,8.56,0,0,1-1.32-5.15c0-11.45-3.58-24.45-8.74-31.63l-.16-.22,2.71-38.42c.51-5,.63-6.14,4.17-9.55,27.81-26.77,57.28-38.71,95.55-38.71,1.44,0,2.88,0,4.32,0,1.25,0,3.38,1,3.38,4.56l-1.12,107.83c0,5.34-3.31,9.68-7.26,9.68h-.1l-87.51,3.26A4,4,0,0,1,804.66,822.65Zm-12.55-39.24c5.25,7.46,8.89,20.71,8.87,32.38a6.92,6.92,0,0,0,1,4.15,3.24,3.24,0,0,0,2.66,1.31h0a1.75,1.75,0,0,0,.41,0h.06L892.68,818h.11c3.39,0,6.18-3.72,6.23-8.3l1.11-107.82c0-2.94-2-3.14-2.36-3.15-1.43,0-2.87,0-4.3,0-38,0-67.32,11.86-95,38.45-3.17,3.07-3.25,3.8-3.74,8.6l0,.43Z"/>
              <path class="acc48f2c-1db3-41c4-a539-85ae2f27d596" d="M785.63,795.89l-43.76,1.73a47.51,47.51,0,0,0-6.13,23.84,51.46,51.46,0,0,0,.73,8.61l56-2.23a51.18,51.18,0,0,0,.4-6.38A46.81,46.81,0,0,0,785.63,795.89Z"/>
              <path class="acc48f2c-1db3-41c4-a539-85ae2f27d596" d="M934.71,790l33-1.3a23.54,23.54,0,0,0-15.8-6.44C945.43,782.23,939.49,785.11,934.71,790Z"/>
              <path class="acc48f2c-1db3-41c4-a539-85ae2f27d596" d="M764.29,782.93c-9.1,0-17.19,5.75-22.42,14.69l43.76-1.73C780.4,787.94,772.78,782.93,764.29,782.93Z"/>
              <path class="acc48f2c-1db3-41c4-a539-85ae2f27d596" d="M967.67,788.67l-33,1.3c-6.91,7-11.38,18.21-11.38,30.79,0,.64,0,1.27,0,1.9l57-2.26C980.32,807.15,975.28,795.51,967.67,788.67Z"/>
            </g>
            <rect class="acc48f2c-1db3-41c4-a539-85ae2f27d596" x="-191.67" y="5.2" width="1985.44" height="893.45"/>
            <rect class="acc48f2c-1db3-41c4-a539-85ae2f27d596" width="1600" height="900"/>
          </g>
          <rect class="f785ab68-a2dd-4374-9d79-ac7bdae6d080" x="-211.56" y="-16.81" width="2023.12" height="933.63"/>
        </g>
      </g>
    </g>
  </g>
</svg>
