<svg id="b20b09ef-9d8c-4284-ad9d-5aa581bb17b7" data-name="Layer 1" xmlns="http://www.w3.org/2000/svg" xmlns:xlink="http://www.w3.org/1999/xlink" width="1600" height="900" viewBox="0 0 1600 900">
  <defs>
    <style>
      .bcc9f265-1314-4dd6-8342-8a914e7969f6 {
        fill: none;
      }

      .e5c7cacb-8e62-4937-8645-5252c1ea517b {
        clip-path: url(#a0e4bd58-8200-4086-b4e0-1ee59bcb910e);
      }

      .a9a853ce-e630-443a-bec0-703d3078cb31 {
        fill: #d3fff3;
      }

      .b2b4461b-47fc-49b4-aaa5-4d1791077707 {
        fill: #c5db7f;
      }

      .f1bbc863-52ed-4028-84bb-aad1718e02d3 {
        fill: #98bc5c;
      }

      .ad891529-de53-4c17-aa5a-1eaad1e31065 {
        fill: #799640;
        opacity: 0.46;
      }

      .b102fda8-0c79-40ea-8ab1-d176871ca5e6, .bf744be4-ed35-4448-ae1f-d9cbfa6da452 {
        fill: #042f33;
      }

      .bf744be4-ed35-4448-ae1f-d9cbfa6da452 {
        opacity: 0.69;
      }

      .e01f63bf-b15f-4965-a1fd-686e1de00e0c, .ea2ab83c-20ad-494e-8bf9-42d2237dbb67 {
        fill: #fff;
      }

      .bb7dae17-62d8-4d89-be5c-97ab34e04726 {
        fill: #00470c;
      }

      .e6c98329-378a-435c-be3d-d34f169f3d54 {
        opacity: 0.38;
      }

      .a8c169bf-81fb-4dc5-b730-eb7b0021b9ea {
        opacity: 0.45;
      }

      .f0088e44-6c89-4e9b-8541-42f10cb602e2 {
        fill: #77c9b0;
      }

      .ea2ab83c-20ad-494e-8bf9-42d2237dbb67 {
        opacity: 0.5;
      }
    </style>
    <clipPath id="a0e4bd58-8200-4086-b4e0-1ee59bcb910e">
      <rect class="bcc9f265-1314-4dd6-8342-8a914e7969f6" width="1600" height="900"/>
    </clipPath>
  </defs>
  <g class="e5c7cacb-8e62-4937-8645-5252c1ea517b">
    <g>
      <g>
        <path class="a9a853ce-e630-443a-bec0-703d3078cb31" d="M1788.15,391.08c-101.38,563.11-747.85,467.5-1225,467.5S-343,652.05-343,366.4,86-175.86,563.14-175.86,1911.64-294.84,1788.15,391.08Z"/>
        <path class="b2b4461b-47fc-49b4-aaa5-4d1791077707" d="M5.36,1683.59s1343.39-1515.26-28.62-1072"/>
        <path class="f1bbc863-52ed-4028-84bb-aad1718e02d3" d="M1054.48,1106.84c-326.82-59.45-833.73-96.37-774.17-167.21,106.58-126.77,394.84-411,1248.08-461.76C1857.48,458.28,1694.71,1223.31,1054.48,1106.84Z"/>
        <path class="ad891529-de53-4c17-aa5a-1eaad1e31065" d="M986.67,1197.55c-220.92-76.7-514.25-220.51-505.32-297s298.18-195.16,874.29-32.07C1577.84,931.41,1207.59,1274.24,986.67,1197.55Z"/>
        <path class="bf744be4-ed35-4448-ae1f-d9cbfa6da452" d="M1163.89,521.72s-11.91-31.17,8.38-27.36c0,0-.34-51.19,19.78-31.58,0,0-5.79-43.43,28.73-28.32,0,0,41.94-13.31,20.2,37.36,0,0,33.39,9.23,12.67,44.79Z"/>
        <g>
          <path class="e01f63bf-b15f-4965-a1fd-686e1de00e0c" d="M560.12,75.76s8.33-66.24,51.49-16.65-40.81,55.15-79,43.1S560.12,75.76,560.12,75.76Z"/>
          <path class="e01f63bf-b15f-4965-a1fd-686e1de00e0c" d="M642.71,18.51c36.09,31.09,3.46,44.61-26.65,41.66S606.62-12.57,642.71,18.51Z"/>
        </g>
        <g>
          <path class="e01f63bf-b15f-4965-a1fd-686e1de00e0c" d="M101.6,239.51s8.33-66.24,51.49-16.65S112.28,278,74.14,266,101.6,239.51,101.6,239.51Z"/>
          <path class="e01f63bf-b15f-4965-a1fd-686e1de00e0c" d="M184.2,182.26c36.09,31.09,3.45,44.61-26.66,41.66S148.11,151.18,184.2,182.26Z"/>
        </g>
        <g>
          <path class="e01f63bf-b15f-4965-a1fd-686e1de00e0c" d="M1432.71,262s8.33-66.24,51.49-16.65-40.81,55.15-78.94,43.1S1432.71,262,1432.71,262Z"/>
          <path class="e01f63bf-b15f-4965-a1fd-686e1de00e0c" d="M1515.31,204.76c36.09,31.09,3.45,44.61-26.66,41.66S1479.22,173.68,1515.31,204.76Z"/>
        </g>
        <g>
          <path class="bb7dae17-62d8-4d89-be5c-97ab34e04726" d="M824.09,1009.69s-53.13,14.86-57.3-8.9,43.94-15.34,64.34-4.41c-65-60.77-30.46-24.34-49.81-47s-8.33-50.09,24.5-18.54c27.91,33.7,36.12,43.52,36.12,43.52S815.76,919.46,803.79,889s.91-67.22,25.93-17.24c-.71-21.34-.8-23.43-.8-23.43s1.53,31.8-.83-4.93,18-29.56,18.3,26.83c6.53-25.83-2.68,4.87,7.89-23.94s31.56-22.12,21.3,32.52-6.93,38.91-6.93,38.91l-7.8,35.15,28.62-51.29c20.33-31.27,33.67-20.76,13.3,28.19-13.88,27.83-25.93,50.06-25.93,50.06s14.19-11.57,36.91-32.2,29.12,14.2,2.53,34.09c-33.51,9.6-92.19,28-92.19,28"/>
          <g>
            <path class="b102fda8-0c79-40ea-8ab1-d176871ca5e6" d="M859.09,983.32l47.18-87.75s-39.41,80.72-47.18,87.75"/>
            <path class="b102fda8-0c79-40ea-8ab1-d176871ca5e6" d="M849.38,950.45l17.56-108.34S856,934,849.38,950.45"/>
            <path class="b102fda8-0c79-40ea-8ab1-d176871ca5e6" d="M832.89,832.66s14.5,138.69,18.1,153.73c1.77-7.46-15.82-153-18.1-153.73"/>
            <path class="b102fda8-0c79-40ea-8ab1-d176871ca5e6" d="M850.81,977.69s-43.27-110.63-44.36-114.44,38.19,78.4,37.95,94.51"/>
            <path class="b102fda8-0c79-40ea-8ab1-d176871ca5e6" d="M855,915.52l14.44-19.08S856.29,907.81,855,915.52"/>
            <path class="b102fda8-0c79-40ea-8ab1-d176871ca5e6" d="M857.83,898.3s-6.08-24.15-6.83-26.73,6.9,15.65,6.83,26.73"/>
            <path class="b102fda8-0c79-40ea-8ab1-d176871ca5e6" d="M862,880.61S875.56,863,875.37,860s-11.65,17.6-13.41,20.66"/>
            <path class="b102fda8-0c79-40ea-8ab1-d176871ca5e6" d="M861.18,872.16l-5.09-19.76s5.78,10.09,5.09,19.76"/>
            <path class="b102fda8-0c79-40ea-8ab1-d176871ca5e6" d="M842.56,902.52c-.16-1.39,4.46-17.78,4.46-17.78s-3.5,2.83-4.62,16.39"/>
            <path class="b102fda8-0c79-40ea-8ab1-d176871ca5e6" d="M838.17,889.3s-6-13.4-6.16-12.74,4.6,1.9,6.16,12.74"/>
            <path class="b102fda8-0c79-40ea-8ab1-d176871ca5e6" d="M838.68,869.72l1.88-21.9s-3.53,8.43-1.88,21.9"/>
            <path class="b102fda8-0c79-40ea-8ab1-d176871ca5e6" d="M830.83,916.44s-3-30.15-2.9-31.54-1.6,16.65,2.9,31.54"/>
            <path class="b102fda8-0c79-40ea-8ab1-d176871ca5e6" d="M818.17,887.52s-3.81-15.75-3.63-21.82,3.64,16.43,3.63,21.82"/>
            <path class="b102fda8-0c79-40ea-8ab1-d176871ca5e6" d="M822.09,902.65l-12.72-7.49s6.39-.56,12.72,7.49"/>
          </g>
        </g>
        <g>
          <path class="bb7dae17-62d8-4d89-be5c-97ab34e04726" d="M564.77,937.54s-25.44-16.14-23.85-28.33,21.47,12,28.85,25.5c-19.77-54.36-9.86-23.66-15.1-41.85s3.54-25.52,13.41,2.32c7.4,26.68,9.59,34.49,9.59,34.49s-3.59-35.25-4.46-53.74,10.06-29.09,13.85,3.5c2.75-9.66,3-10.62,3-10.62s-3.89,14.6.35-2.52,12.16-5.26,4.17,19.58c6.58-8.55-1.87,1,6.9-7.14s17,3.76,4.67,23.34-8.63,14.11-8.63,14.11l-8.47,12.1L609,918c13.41-5,17.75,5.25,1.79,18-10.09,6.29-18.57,10.9-18.57,10.9s7.89,1,20.82,1.62,10.73,18.64-3.79,16c-16.08-10.08-44.46-27-44.46-27"/>
          <g>
            <path class="b102fda8-0c79-40ea-8ab1-d176871ca5e6" d="M584.37,922.35l23.27-40s-18,35.62-23.27,40"/>
            <path class="b102fda8-0c79-40ea-8ab1-d176871ca5e6" d="M594.06,863.65s-13.56,67-14.15,75.15c1.85-2.52,15-73.84,14.15-75.15"/>
            <path class="b102fda8-0c79-40ea-8ab1-d176871ca5e6" d="M581.09,934.91s-3.09-67-3-69.12,5.49,50.67,3.07,57.63"/>
            <path class="b102fda8-0c79-40ea-8ab1-d176871ca5e6" d="M557.37,885.53s14.64,48.71,16.86,53.26c0,0-14.54-52-16.86-53.26"/>
            <path class="b102fda8-0c79-40ea-8ab1-d176871ca5e6" d="M595.57,903.08s.8-13.19.84-14.64.78,9.81-.84,14.64"/>
            <path class="b102fda8-0c79-40ea-8ab1-d176871ca5e6" d="M599.92,897.08s8.49-1.91,8.85-3.35-7.64,2.76-8.85,3.35"/>
            <path class="b102fda8-0c79-40ea-8ab1-d176871ca5e6" d="M600.8,893l.6-10.84s1.08,6.89-.6,10.84"/>
            <path class="b102fda8-0c79-40ea-8ab1-d176871ca5e6" d="M588.27,898.42c.13-.68,4.51-5.9,4.51-5.9s-1.95-.26-4.38,5.22"/>
            <path class="b102fda8-0c79-40ea-8ab1-d176871ca5e6" d="M588.24,890.74s-.7-8.42-.87-8.21,1.74,2.8.87,8.21"/>
            <path class="b102fda8-0c79-40ea-8ab1-d176871ca5e6" d="M591.28,882.38l4-8.81s-2.76,2.2-4,8.81"/>
            <path class="b102fda8-0c79-40ea-8ab1-d176871ca5e6" d="M581.12,899.52s3-14.48,3.26-15.07a42.46,42.46,0,0,0-3.26,15.07"/>
            <path class="b102fda8-0c79-40ea-8ab1-d176871ca5e6" d="M579.72,881.44s.6-8.54,1.55-11.12-.77,8.76-1.55,11.12"/>
            <path class="b102fda8-0c79-40ea-8ab1-d176871ca5e6" d="M579.27,889.74l-4.5-8.71s2.88,2.48,4.5,8.71"/>
            <path class="b102fda8-0c79-40ea-8ab1-d176871ca5e6" d="M561.81,896.92s-1.46-9.52-1.29-11.52,2,5.91,1.29,11.52"/>
            <path class="b102fda8-0c79-40ea-8ab1-d176871ca5e6" d="M563.93,907.08l-6.42-7.79a20.29,20.29,0,0,1,6.42,7.79"/>
          </g>
        </g>
        <g class="e6c98329-378a-435c-be3d-d34f169f3d54">
          <path class="bb7dae17-62d8-4d89-be5c-97ab34e04726" d="M765.88,789.86s-16.13.07-16.71-7.3,13.42-1,19.16,3.93c-17.57-23.27-8.35-9.68-13.46-18s-1.09-15.5,7.76-3.49c7.34,12.24,9.5,15.82,9.5,15.82s-6.24-18.39-9-28.39,2.11-19.82,8.15-3c.37-6.38.4-7,.4-7s-.41,9.54-.11-1.52,6.16-7.28,4.69,9.43c2.64-7.12-.93,1.22,3-6.45s9.94-4,5.41,11.36-3.12,11-3.12,11L778.32,776l9.88-12.86c6.87-7.6,10.53-3.4,3.16,9.43-4.87,7.11-9.05,12.71-9.05,12.71s4.52-2.27,11.81-6.53,8.23,6.57-.18,10.29c-10.19.12-28.06.8-28.06.8"/>
          <g>
            <path class="b102fda8-0c79-40ea-8ab1-d176871ca5e6" d="M777,784.9l16.37-22.13S779.45,783.45,777,784.9"/>
            <path class="b102fda8-0c79-40ea-8ab1-d176871ca5e6" d="M775,774.38l8.17-30.64S777.39,770,775,774.38"/>
            <path class="b102fda8-0c79-40ea-8ab1-d176871ca5e6" d="M773.34,738.17s.49,42.24,1.14,47c.73-2.06-.49-46.57-1.14-47"/>
            <path class="b102fda8-0c79-40ea-8ab1-d176871ca5e6" d="M774.67,782.56s-9.78-36.27-10-37.48,9.16,26.31,8.64,31.06"/>
            <path class="b102fda8-0c79-40ea-8ab1-d176871ca5e6" d="M779.06,788.3s15-5.08,17.26-6.84-6.21,5.36-17.26,6.84"/>
            <path class="b102fda8-0c79-40ea-8ab1-d176871ca5e6" d="M755.49,763.48s14,21.95,15.82,23.7c0,0-14.36-23.81-15.82-23.7"/>
            <path class="b102fda8-0c79-40ea-8ab1-d176871ca5e6" d="M767.7,788.32s-16.37-4.1-16.73-4.62,15,3.21,16.73,4.62"/>
            <path class="b102fda8-0c79-40ea-8ab1-d176871ca5e6" d="M777.62,764.5l4.8-4.47s-4.22,2.29-4.8,4.47"/>
            <path class="b102fda8-0c79-40ea-8ab1-d176871ca5e6" d="M778.92,759.63s-1.14-7.64-1.29-8.47,1.61,5.2,1.29,8.47"/>
            <path class="b102fda8-0c79-40ea-8ab1-d176871ca5e6" d="M780.63,754.73s4.5-4.09,4.53-5-3.93,4.26-4.53,5"/>
            <path class="b102fda8-0c79-40ea-8ab1-d176871ca5e6" d="M780.63,752.17l-1-6.27a13.68,13.68,0,0,1,1,6.27"/>
            <path class="b102fda8-0c79-40ea-8ab1-d176871ca5e6" d="M780,780.78s1.82-8,2.4-8.78-1.95,7.44-2.4,8.78"/>
            <path class="b102fda8-0c79-40ea-8ab1-d176871ca5e6" d="M783.14,777.4l5.82-3a10.28,10.28,0,0,0-5.82,3"/>
            <path class="b102fda8-0c79-40ea-8ab1-d176871ca5e6" d="M787.88,770.14s.21-5.38.72-6.2-.2,5.5-.72,6.2"/>
            <path class="b102fda8-0c79-40ea-8ab1-d176871ca5e6" d="M790,767.66l3.77-2a5.58,5.58,0,0,1-3.77,2"/>
            <path class="b102fda8-0c79-40ea-8ab1-d176871ca5e6" d="M787.6,785.26s3.83-4.08,5-4.5-2.54,2.86-5,4.5"/>
            <path class="b102fda8-0c79-40ea-8ab1-d176871ca5e6" d="M789.45,785.26s6,.57,6.87,0-5.92-.4-6.87,0"/>
            <path class="b102fda8-0c79-40ea-8ab1-d176871ca5e6" d="M784.33,787.16l5.88,1.12s-3.9-1.65-5.88-1.12"/>
            <path class="b102fda8-0c79-40ea-8ab1-d176871ca5e6" d="M774.28,759.64c0-.43,1.81-4.9,1.81-4.9s-1.11.55-1.81,4.47"/>
            <path class="b102fda8-0c79-40ea-8ab1-d176871ca5e6" d="M773.35,755.37s-1.4-4.45-1.48-4.27a6.5,6.5,0,0,1,1.48,4.27"/>
            <path class="b102fda8-0c79-40ea-8ab1-d176871ca5e6" d="M774,749.61l1.15-6.33a12.83,12.83,0,0,0-1.15,6.33"/>
            <path class="b102fda8-0c79-40ea-8ab1-d176871ca5e6" d="M770.43,762.8s0-9.16,0-9.57a29.38,29.38,0,0,0,0,9.57"/>
            <path class="b102fda8-0c79-40ea-8ab1-d176871ca5e6" d="M767.48,753.22a42.7,42.7,0,0,1-.48-6.76c.22-1.78.63,5.16.48,6.76"/>
            <path class="b102fda8-0c79-40ea-8ab1-d176871ca5e6" d="M768.22,758l-3.56-3.25s1.91.35,3.56,3.25"/>
            <path class="b102fda8-0c79-40ea-8ab1-d176871ca5e6" d="M771.17,768.51l-3.45-2a5.11,5.11,0,0,1,3.45,2"/>
            <path class="b102fda8-0c79-40ea-8ab1-d176871ca5e6" d="M759.34,768.25a52.42,52.42,0,0,1-2.1-6c-.14-1.18,1.81,2.59,2.1,6"/>
            <path class="b102fda8-0c79-40ea-8ab1-d176871ca5e6" d="M761.75,773.16l-4.52-2a7,7,0,0,1,4.52,2"/>
            <path class="b102fda8-0c79-40ea-8ab1-d176871ca5e6" d="M764,775.33s-1.13-3.92-.91-5.88.52,4,.92,5.89"/>
            <path class="b102fda8-0c79-40ea-8ab1-d176871ca5e6" d="M766.94,780.06a49,49,0,0,1-.76-6.2c.08-1.53,1.23,4.43.76,6.2"/>
            <path class="b102fda8-0c79-40ea-8ab1-d176871ca5e6" d="M758,781.25l4.66,5.17s-1.9-.6-4.66-5.17"/>
            <path class="b102fda8-0c79-40ea-8ab1-d176871ca5e6" d="M755.83,784.61s-3.26-2.74-3.77-3.78,3.26,2.33,3.77,3.78"/>
            <path class="b102fda8-0c79-40ea-8ab1-d176871ca5e6" d="M759.9,786.32a34.61,34.61,0,0,1-5.29,1.4c-1,0,2.57-1.5,5.29-1.4"/>
          </g>
        </g>
        <g class="e6c98329-378a-435c-be3d-d34f169f3d54">
          <path class="bb7dae17-62d8-4d89-be5c-97ab34e04726" d="M1018,803.46s-16.13.07-16.71-7.3,13.42-1,19.16,3.93c-17.57-23.27-8.35-9.68-13.46-18s-1.09-15.5,7.76-3.49c7.34,12.24,9.5,15.82,9.5,15.82s-6.24-18.39-9-28.39,2.11-19.82,8.15-3c.37-6.38.4-7,.4-7s-.41,9.54-.11-1.52,6.16-7.28,4.69,9.43c2.64-7.12-.93,1.22,3-6.45s9.95-4,5.41,11.36-3.12,11-3.12,11l-3.27,9.78,9.88-12.86c6.87-7.6,10.53-3.4,3.16,9.43-4.87,7.11-9,12.71-9,12.71s4.52-2.27,11.81-6.53,8.23,6.57-.18,10.29c-10.18.12-28.06.8-28.06.8"/>
          <g>
            <path class="b102fda8-0c79-40ea-8ab1-d176871ca5e6" d="M1029,798.5l16.37-22.13s-13.88,20.68-16.37,22.13"/>
            <path class="b102fda8-0c79-40ea-8ab1-d176871ca5e6" d="M1027.07,788l8.17-30.64s-5.77,26.3-8.17,30.64"/>
            <path class="b102fda8-0c79-40ea-8ab1-d176871ca5e6" d="M1025.42,751.77s.49,42.24,1.14,47c.73-2.06-.49-46.57-1.14-47"/>
            <path class="b102fda8-0c79-40ea-8ab1-d176871ca5e6" d="M1026.75,796.16s-9.78-36.27-10-37.48,9.16,26.31,8.65,31.06"/>
            <path class="b102fda8-0c79-40ea-8ab1-d176871ca5e6" d="M1031.14,801.9s15-5.08,17.26-6.84-6.21,5.36-17.26,6.84"/>
            <path class="b102fda8-0c79-40ea-8ab1-d176871ca5e6" d="M1007.57,777.08s14,21.95,15.82,23.7c0,0-14.36-23.81-15.82-23.7"/>
            <path class="b102fda8-0c79-40ea-8ab1-d176871ca5e6" d="M1019.79,801.92s-16.38-4.1-16.74-4.61,15,3.2,16.74,4.61"/>
            <path class="b102fda8-0c79-40ea-8ab1-d176871ca5e6" d="M1029.7,778.1l4.8-4.47s-4.22,2.29-4.8,4.47"/>
            <path class="b102fda8-0c79-40ea-8ab1-d176871ca5e6" d="M1031,773.23s-1.14-7.64-1.29-8.47,1.61,5.2,1.29,8.47"/>
            <path class="b102fda8-0c79-40ea-8ab1-d176871ca5e6" d="M1032.71,768.33s4.5-4.09,4.53-5-3.93,4.26-4.53,5"/>
            <path class="b102fda8-0c79-40ea-8ab1-d176871ca5e6" d="M1032.71,765.77l-1-6.27a13.68,13.68,0,0,1,1,6.27"/>
            <path class="b102fda8-0c79-40ea-8ab1-d176871ca5e6" d="M1032.09,794.38s1.82-8,2.4-8.78-2,7.44-2.4,8.78"/>
            <path class="b102fda8-0c79-40ea-8ab1-d176871ca5e6" d="M1035.22,791l5.82-3a10.28,10.28,0,0,0-5.82,3"/>
            <path class="b102fda8-0c79-40ea-8ab1-d176871ca5e6" d="M1040,783.74s.21-5.38.72-6.2-.2,5.5-.72,6.2"/>
            <path class="b102fda8-0c79-40ea-8ab1-d176871ca5e6" d="M1042.08,781.26l3.77-2a5.58,5.58,0,0,1-3.77,2"/>
            <path class="b102fda8-0c79-40ea-8ab1-d176871ca5e6" d="M1039.68,798.86s3.83-4.07,5-4.5-2.54,2.86-5,4.5"/>
            <path class="b102fda8-0c79-40ea-8ab1-d176871ca5e6" d="M1041.53,798.86s6,.57,6.87,0-5.92-.4-6.87,0"/>
            <path class="b102fda8-0c79-40ea-8ab1-d176871ca5e6" d="M1036.42,800.76l5.87,1.12s-3.9-1.65-5.87-1.12"/>
            <path class="b102fda8-0c79-40ea-8ab1-d176871ca5e6" d="M1026.37,773.24c0-.43,1.8-4.9,1.8-4.9s-1.11.55-1.81,4.47"/>
            <path class="b102fda8-0c79-40ea-8ab1-d176871ca5e6" d="M1025.43,769s-1.4-4.45-1.48-4.27a6.5,6.5,0,0,1,1.48,4.27"/>
            <path class="b102fda8-0c79-40ea-8ab1-d176871ca5e6" d="M1026.12,763.22l1.15-6.34a12.85,12.85,0,0,0-1.15,6.34"/>
            <path class="b102fda8-0c79-40ea-8ab1-d176871ca5e6" d="M1022.51,776.4s0-9.16,0-9.57a29.38,29.38,0,0,0,0,9.57"/>
            <path class="b102fda8-0c79-40ea-8ab1-d176871ca5e6" d="M1019.56,766.82a42.7,42.7,0,0,1-.48-6.76c.22-1.78.63,5.16.48,6.76"/>
            <path class="b102fda8-0c79-40ea-8ab1-d176871ca5e6" d="M1020.3,771.61l-3.56-3.25s1.91.35,3.56,3.25"/>
            <path class="b102fda8-0c79-40ea-8ab1-d176871ca5e6" d="M1023.25,782.11l-3.45-2a5.11,5.11,0,0,1,3.45,2"/>
            <path class="b102fda8-0c79-40ea-8ab1-d176871ca5e6" d="M1011.43,781.85a52.12,52.12,0,0,1-2.11-6c-.14-1.18,1.81,2.59,2.11,6"/>
            <path class="b102fda8-0c79-40ea-8ab1-d176871ca5e6" d="M1013.83,786.76l-4.52-2a7,7,0,0,1,4.52,2"/>
            <path class="b102fda8-0c79-40ea-8ab1-d176871ca5e6" d="M1016.05,788.93s-1.13-3.92-.91-5.88.52,4.05.92,5.89"/>
            <path class="b102fda8-0c79-40ea-8ab1-d176871ca5e6" d="M1019,793.66a47.59,47.59,0,0,1-.75-6.2c.07-1.53,1.22,4.43.75,6.2"/>
            <path class="b102fda8-0c79-40ea-8ab1-d176871ca5e6" d="M1010,794.85l4.66,5.17s-1.9-.6-4.66-5.17"/>
            <path class="b102fda8-0c79-40ea-8ab1-d176871ca5e6" d="M1007.92,798.21s-3.27-2.74-3.78-3.78,3.26,2.33,3.78,3.78"/>
            <path class="b102fda8-0c79-40ea-8ab1-d176871ca5e6" d="M1012,799.92s-4.33,1.45-5.29,1.4,2.57-1.5,5.29-1.4"/>
          </g>
        </g>
        <g class="a8c169bf-81fb-4dc5-b730-eb7b0021b9ea">
          <path class="f0088e44-6c89-4e9b-8541-42f10cb602e2" d="M453.28,553.58s16.08-16.64,24.52,3.44,3.12,13.84-13.36,11.57S447.32,558,453.28,553.58Z"/>
          <path class="f0088e44-6c89-4e9b-8541-42f10cb602e2" d="M460.34,593s5.36-15.28,4.1-24.42c-1.54-11.21,1.37-4.17,1.37-4.17l.57,9.32L472,570s-6.27,4.27-5.15,11.92,3,11.17,3,11.17Z"/>
        </g>
      </g>
      <rect class="ea2ab83c-20ad-494e-8bf9-42d2237dbb67" x="-24.44" y="-14.12" width="1640.74" height="928.24"/>
    </g>
  </g>
</svg>
