<svg xmlns="http://www.w3.org/2000/svg" xmlns:xlink="http://www.w3.org/1999/xlink" width="1600" height="900" viewBox="0 0 1600 900">
  <defs>
    <style>
      .a971d189-8967-4c5c-bd68-df710465b615, .f480990a-47d8-4f91-ac22-27d5be43067f {
        fill: none;
      }

      .f7bcebd9-902e-499e-9028-c689dae43413 {
        isolation: isolate;
      }

      .a4b90e08-e9c2-4d81-ac40-6217af436209 {
        clip-path: url(#f42d7a9c-3e68-4d29-ac08-9000f11f37bd);
      }

      .b7a04f4e-3e6f-45c4-aa27-340b3c3b8f63 {
        fill: url(#b6deda6f-8cc7-4121-b2df-4a129b708348);
      }

      .a689e0e7-55e8-42af-93c3-dffafd1995d7 {
        clip-path: url(#a488a89d-52e1-4015-88ac-fddb624df73c);
      }

      .b6a6555b-1702-4a37-a4fa-c138ff4306ad {
        fill: url(#a4c4f271-b77c-47c6-ad41-9c085bd764c9);
      }

      .ffb0eb92-6c23-45ae-ac11-6096e29f2bd1 {
        fill: #472409;
        mix-blend-mode: color-burn;
        opacity: 0.25;
      }

      .adf23294-cb02-4b70-ac31-651308a45a4e {
        fill: #3db038;
      }

      .e11d39d3-5d31-49be-bef6-506b3493b642 {
        fill: #6fb738;
      }

      .be9720b8-a7a3-46c7-a916-fea64f4d1cf6 {
        fill: #95e053;
      }

      .ac108fae-8e04-4105-81b1-9dbd169fc8a0, .ff72094c-a6ef-4b85-8f34-915172652dbc {
        fill: #fff;
      }

      .ff72094c-a6ef-4b85-8f34-915172652dbc {
        opacity: 0.8;
      }

      .ecaeec46-f7c4-4302-b76c-2a27d7ab61c4 {
        clip-path: url(#af099888-0909-4b4f-97d5-1b178fdbfc70);
      }

      .ac108fae-8e04-4105-81b1-9dbd169fc8a0 {
        opacity: 0.4;
      }

      .fdff285c-7731-418e-ac34-ced9d81f4cc7 {
        fill: #4b6572;
      }

      .a7589dc7-2db2-4465-812e-301fde13fae5 {
        fill: #ad2333;
      }

      .e4bfd1d1-4d9d-43e3-a1d5-19d38d5eb5b2 {
        fill: #344f59;
      }

      .bd0f70c3-7a70-43c0-b001-653c507f3f8a {
        fill: url(#e9ef105e-4082-4259-8830-db85f8657462);
      }

      .b8847651-425f-4592-a835-a4daba1bccce {
        fill: #99999b;
      }

      .a6a1340c-6266-4d64-bd07-9e3e15353bdf {
        fill: #898a90;
      }

      .a78f830c-81d5-43f4-b042-92c69500f169, .f2aa1e6e-933b-4e14-89f1-2058c4d5d67a {
        fill: #71717b;
      }

      .f2aa1e6e-933b-4e14-89f1-2058c4d5d67a {
        mix-blend-mode: multiply;
        opacity: 0.2;
      }

      .a4c7871f-2518-47a7-b337-ba4f6e2046ce {
        fill: #7d97aa;
      }

      .b6a16366-03a7-430b-8908-f0e56e547a37 {
        fill: #9bbacb;
      }

      .a62bcfcf-45c8-4b3b-b08d-da081227bc2b, .b56facdc-fb5f-4675-956f-50595ecc05ef, .b6a16366-03a7-430b-8908-f0e56e547a37 {
        opacity: 0.5;
      }

      .eb320a0c-a754-45a9-8aa3-02a2f29a4567 {
        fill: #698392;
      }

      .aca338ab-a59a-4f73-97a4-df13a8f8f38e {
        fill: #95b3c4;
      }

      .e1d3bcbc-80ce-48e7-8d16-e5cfef0f10da {
        fill: #354957;
      }

      .f0f0dfcc-7540-4cb0-8d5f-b407bd1a20af {
        fill: #253946;
      }

      .b5d49a72-a17f-43a4-82af-1b911f9151f2 {
        fill: #dff2fc;
      }

      .eaf5e518-0baa-4d32-976c-9bd1ff45a679 {
        fill: #63c6cc;
      }

      .ea55c7ef-80d3-4ef6-9d3a-e2b45674e94a {
        fill: #8dd3db;
      }

      .a4db84da-7f99-4c2e-9ef3-eaa2b18fb60b {
        fill: #518784;
      }

      .bab2738c-de4c-468a-b7f9-3b1ea5f1737d {
        fill: #5f9b96;
      }

      .bad4e6f5-4b9d-4fb5-8831-9ee48b602678 {
        fill: #3e726d;
      }

      .b75a045c-6977-422a-99b1-9575be319521 {
        fill: #28524f;
      }

      .fb2ffc68-32ef-401a-b719-a92a63546f93 {
        fill: #2a3e5a;
      }

      .aa4cf8e5-2af7-432c-b55b-843383cbc15e {
        fill: #0e2539;
      }

      .a88294bd-56f4-476c-99d2-dbb0408370dc {
        fill: #41595d;
      }

      .bd9c87b5-7f61-48ce-9a1a-9e0bf9dc549f {
        fill: #2b4346;
      }

      .a7bb26e4-3177-4604-9245-0179a9345dcd {
        fill: #516a6f;
      }

      .a15e6895-9c3f-41f2-a93e-c00ce6e15442 {
        fill: #2a4446;
      }

      .f9bf5036-9ce8-4c75-8fcd-764b7af63e4f {
        fill: #3a5458;
      }

      .fd99a050-205d-49b4-9a0c-214dc414e72c {
        fill: #87d1d6;
      }

      .f37c8282-38dd-4971-97b4-f9455aaec0bb {
        fill: #304a4e;
      }

      .a1f71e59-45b6-4378-a429-987c00d8ffab {
        fill: #6b9295;
      }

      .f46e0b11-7651-467a-adc5-df6734deeba8 {
        fill: #607c80;
      }

      .a80013cc-f5c3-4165-9dcc-41d6639ff820 {
        fill: #526e6f;
      }

      .b265e2b7-028c-4ee7-bdda-3b6243057696 {
        fill: #64959b;
      }

      .f0261a96-1ecb-4acf-9eb6-f4474b28cdcd {
        fill: #48787a;
      }

      .b6fa57da-939d-4cfe-b15f-bccfe70e2c0b {
        fill: #649c9c;
      }

      .a6eea5aa-94bc-4313-b640-7ee2e93f5d7f {
        fill: #508786;
      }

      .ab81edb4-2736-4ef6-aaa5-ee4898736b83 {
        fill: #334b51;
      }

      .b0970e71-697f-4ea0-a8c9-a7b393357042 {
        fill: #243c42;
      }

      .f7fe79ee-ccec-430b-9755-f9a27be3d30e {
        fill: #152b31;
      }

      .f5b85046-047f-4c28-a1ca-858962b18cf8 {
        fill: #405d5d;
      }

      .e646ebc8-baf7-4918-9fef-fad6b6aaee46 {
        fill: #557879;
      }

      .b27240cb-21a9-40d2-bd35-c7841aa8606f {
        fill: #679394;
      }

      .a9a71dbf-73f8-457b-b67e-602bca2a3a08 {
        fill: #577f7f;
      }

      .a62bcfcf-45c8-4b3b-b08d-da081227bc2b, .f36357a8-90b1-44bf-a988-c500084a659c {
        fill: #1b3136;
      }

      .af83d3d8-a5a1-43fb-bc6b-e7ae3f56f46b {
        fill: #507a7c;
      }

      .a7626a7b-0299-4d72-99b8-62af3f1f6e37 {
        fill: #477172;
      }

      .aca05dc5-e1d5-4c2a-b11f-05b254dc5e0f {
        fill: #325959;
      }

      .a8a050c3-83c9-42e0-94f3-6403dbc1251d {
        fill: #568388;
      }

      .b98eda7d-62b1-49ec-a87f-f8f3f0d6b370 {
        fill: #183536;
      }

      .e01382a0-27a6-43a1-8b10-d0961cdbc415 {
        fill: #445b63;
      }

      .bc837cbb-a3e9-4770-9066-93c45b771356 {
        fill: #58747b;
      }

      .a621bfce-710a-4156-b231-a5af15f09fe3 {
        fill: #49646a;
        opacity: 0.6;
      }

      .e1400ba2-5a4a-4482-8d07-ad783e93cfa1 {
        fill: #01181f;
      }

      .bd2d56d4-866d-49a0-877e-a2177b92e71c {
        fill: #7ea5a6;
      }

      .b56facdc-fb5f-4675-956f-50595ecc05ef, .b8c71384-0753-4415-b4a4-77aadca47310 {
        fill: #85bdbc;
      }

      .b8ee9c50-6ab1-4e6b-87ca-c8e42455bccf {
        fill: #568b8b;
      }

      .a783ba76-fc46-4aec-b475-9837accda5e6 {
        fill: #437675;
      }

      .a493b149-bf48-4a30-ae68-35b5bb807237 {
        clip-path: url(#bf33d3af-c558-4637-8f18-8ab77d571d39);
      }

      .b49c10e5-3c43-4645-88f7-fe9826360b72 {
        fill: url(#e79046a0-1f0f-41ec-8d72-bb70503014f3);
      }

      .a3907b71-373c-46e8-af54-4734a2dc9c30 {
        fill: #bf987e;
      }

      .a1a4c599-1731-4bb4-a85b-7068278b372a {
        fill: #7d8a92;
      }

      .bad16bab-ea39-4d35-81fe-3424cf39b4dd {
        fill: #3a3a3a;
      }

      .f480990a-47d8-4f91-ac22-27d5be43067f {
        stroke: #4f3729;
        stroke-miterlimit: 10;
      }

      .f61900b9-adc5-4d81-9105-59815be9bf34 {
        fill: #bababa;
      }

      .aedb2c9c-ffed-472a-a5ee-761d9d22951d {
        fill: #ddd;
      }
    </style>
    <clipPath id="f42d7a9c-3e68-4d29-ac08-9000f11f37bd">
      <rect class="a971d189-8967-4c5c-bd68-df710465b615" y="-1000" width="1600" height="900"/>
    </clipPath>
    <linearGradient id="b6deda6f-8cc7-4121-b2df-4a129b708348" x1="805.8" y1="1259.25" x2="796.05" y2="-1881.12" gradientUnits="userSpaceOnUse">
      <stop offset="0.32" stop-color="#d3fff3"/>
      <stop offset="0.44" stop-color="#c4f5f1"/>
      <stop offset="0.68" stop-color="#9bdbec"/>
      <stop offset="0.93" stop-color="#68bae5"/>
    </linearGradient>
    <clipPath id="a488a89d-52e1-4015-88ac-fddb624df73c">
      <rect class="a971d189-8967-4c5c-bd68-df710465b615" x="-1700" width="1600" height="900"/>
    </clipPath>
    <linearGradient id="a4c4f271-b77c-47c6-ad41-9c085bd764c9" x1="-912.92" y1="-316.22" x2="-914.83" y2="824.26" gradientUnits="userSpaceOnUse">
      <stop offset="0.08" stop-color="#7b98ff"/>
      <stop offset="0.09" stop-color="#7e9dff"/>
      <stop offset="0.23" stop-color="#96c1ff"/>
      <stop offset="0.36" stop-color="#a7daff"/>
      <stop offset="0.47" stop-color="#b1eaff"/>
      <stop offset="0.56" stop-color="#b5efff"/>
    </linearGradient>
    <clipPath id="af099888-0909-4b4f-97d5-1b178fdbfc70">
      <rect class="a971d189-8967-4c5c-bd68-df710465b615" width="1600" height="900"/>
    </clipPath>
    <linearGradient id="e9ef105e-4082-4259-8830-db85f8657462" x1="800.56" y1="948.77" x2="800.56" y2="-123.94" gradientUnits="userSpaceOnUse">
      <stop offset="0" stop-color="#d5ebdd"/>
      <stop offset="0.22" stop-color="#d3eadc"/>
      <stop offset="0.34" stop-color="#c9e2d7"/>
      <stop offset="0.55" stop-color="#adcdc9"/>
      <stop offset="0.81" stop-color="#80aab2"/>
      <stop offset="1" stop-color="#5c8fa0"/>
    </linearGradient>
    <clipPath id="bf33d3af-c558-4637-8f18-8ab77d571d39">
      <rect class="a971d189-8967-4c5c-bd68-df710465b615" x="1700" width="1600" height="900"/>
    </clipPath>
    <linearGradient id="e79046a0-1f0f-41ec-8d72-bb70503014f3" x1="2499.48" y1="-119.36" x2="2498.09" y2="712.12" gradientUnits="userSpaceOnUse">
      <stop offset="0.09" stop-color="#a0cfff"/>
      <stop offset="0.33" stop-color="#a8dbff"/>
      <stop offset="0.79" stop-color="#b5efff"/>
    </linearGradient>
  </defs>
  <g class="f7bcebd9-902e-499e-9028-c689dae43413">
    <g id="e11e5758-d673-4a2c-be6d-9608df33239e" data-name="Layer 1">
      <g class="a4b90e08-e9c2-4d81-ac40-6217af436209">
        <path class="b7a04f4e-3e6f-45c4-aa27-340b3c3b8f63" d="M1622.22,30.05c-17.71,0-76-25.69-93.73-25.69-94.16,0-186,58.72-280.17,58.72-97.62,0-213.81,16.51-311.42,16.51C817.63,79.59,735.08-54.9,615.81-54.9H-18.52V-1118.52H1602.07Z"/>
      </g>
      <g class="a689e0e7-55e8-42af-93c3-dffafd1995d7">
        <g>
          <rect class="b6a6555b-1702-4a37-a4fa-c138ff4306ad" x="-2017" y="-10" width="2206" height="680.25"/>
          <path class="ffb0eb92-6c23-45ae-ac11-6096e29f2bd1" d="M200,483.88l.12,162.49-2190,1-.1-133,13.85.3.84,12.47h12.43l-.42-19.44,73.29,1.43v16.14l85.76.32,3.58-217.27,19-1.1,23,3.47v-2h-3.31v-2.19h2.7v-5.7h1.45v6.24h5v-5.13h1.86v5.32l4.16,1.1-.41,1.65h-1v1.47l3.94.37v11l14.28-1.11v-2h.84v1.65h3.1l0-19.08,16.78-.56v-2.2h1.66V294.2h-1.46v-2h5v8.07h1.25V303h10.55v-4.22h4.14v2.75h-1.43l.21,2.38,21.11,2-.19,28.44,12.86,1.27V339l2.28,2L-1656,494.2l14.1-.74,8.7.18.83-17.8,9.29-.74v-9.74l39.56-.38v-4l30-.21v-4h3.34l0-23.48,2.16-1.93V419.1h9v-9.36h3.7v.91h4.57V395.78l1,.73v2.95l2.49.36v1.1h3.11l.2-1.83,1.67-.37v1.84l4.33.18.63-1.66,2.49-.18.62,1.65,5,.18-.22-1.47,2.29.2v1.09h4.13v-2.2l1-.37.2-2.93h1.87l.42,5.5,5.17.18.21-4.23,1.26.19.6,4,3.74.91.2-5h.83l.21,5.14,3.92.56.83-1.48v-2l2.07.19.21,3.85-.82,1.1.2,8.63,6.84.36,1.24,8.63,1.06.18.83,1.46,3.72-.17.18-15.6,1.88.18.62,16.15,18.44.72-1.83,75.23h2.5v1.66l.84.56-.2,2.19-1.25.38-.4,16,2.48.55v2h-1.66l-.2,5.88,13.26-.19c-.63,0,.41,2.2.41,2.2l7.25.18-1,2.19-1.25.56h-1.85l.84,10.83,1.66.91v11.93h3.09l1.35-141.29,20.71-3.14v-8.44l23.82-3.14v-1.29h6.22l.83.93,56.53,2v9.36l22.8,1.46-.42-16.51,7.84-2.21,3.31-29.92,69.39.7,4.56,31.57,12.86.17-.23-3.48,2.29.17,2.25-25.32,9.33-1.1-.45-50.11,27.55.17,17.6,1.66,0-71.95,12.63-3.12h7V241.8h1.23v2.57l18.86-.56V240.5h1.24v2.94l11.19-.56v1.84h2.28v-1.66h14.1l17.18,5.14,23.61-1.49,6,2.57-2.17,151.58,16.77,2,.6-22.21,8.92.19,0-18.53,23.2-2.22-.65-24.78,2.9-1.47,11.82-1.1,0-24.42,2.28-1.09s10.56-1.48,9.93-1.48,30.63-20.92,30.63-20.92h6.22l30.87,20.52,1.47.37.41,1.11,9.73,1.45-.2,25.14,14.92,1.65-.17,41.3,29.8.53.84-7h1.45l.41,4.57h1.46l-.21,2.4,53.43,1.07.2,6.61,16.6-1.47.59-12.67,11.81-.37,4.55-10.28.41-4.78h2.68l1.06,3.86h4.53V358h5.2v1.09l28.16-2.94v-1.47h-1.44v-3.12H-682v4.77l7.25.19v-2l3.11-2.76,2.7.19v2.75l-1.66.19.83,2,1.66.18.63,3.86-.2,1.46,1.46-.17v3.48H-665v2.57h12.83l-1,77.82h-8.49l-.18,25,5,.37,0,30.28,4.36.17V483.63l2.48-.36.21-5.88,21.75,1.1v-1.84h21.94v1.64h9.54l.12-97.62,1.45-.93,2.71-.18.2-.93,2.08-.35.59-.74,6.42-.19.22-1.09,4.57-.2V365.23l7.23-3.12,44.55,1.26v-1.28h5v1.09l20.7-.19.64,15.06,18.64.17-.72,179.29,3.34-.2.12-122.21,1.46-.18.2-2.75,12.21.17v2.39h3.51v-1.48h12v1.29h2.08l-.46-63.69,17-6.25L-431,354l15.33-6.43,46.4.54V353l3.1-.17,3.92-1.29V349.9h1.66l1,.92,10.76-.21v-1.82h-1l-2.38-2.11,1.86-1.64,2.58-2.31h3.13V337h2.26v6.06l26.1-.39v-1.64H-314v2.39l3.51,1.28.21,2-2.7,3.68.43,8.25,2.07,1.11h5.18l-.22.73,1.89.19v12.1h10.75v-1.64l1.87-1.66,2.9,1.84.47,60.92,3.11.73v13.76l8.9.55-.2,14.49,3.94.55.41,7.53,2.28.73.21,28.07,1.46.19-.14,67.89.8-.18.64-1.83h6.83v1.46a.65.65,0,0,0,.62.73l.21,1.84,13.06-.19-.64-10.09s-2.28-2-3.52-2.2L-250,555h5v-1.29l4.76.18v.55l1.66.74.21.55h4.14l.42-.93a5.82,5.82,0,0,1,2.28-1.1c1.46-.36,2.26,1.48,2.26,1.48h4.77l-.62-11.19,2.49-.37-.24-43.13,3.95-3.12h13.24l.34-108.1,4.36-.18v-9.91l2.88.18.22,2,1.85-.36-.21-1.84,19.67.17,8.5-21.65.41-3.68.83-.73,1-5.88,1.24,5.88,1.25,1.09.63,3.32,7.47,22.55,46.79.91,6.23.18,6,4.22.43,22.56,1.87.38.83,1.82,1.87.2-.15,79.82H-77l9.32,5.5-.19,11.56,4.35.54-.22,11.2,7.69.18,0,33.39h3.7v-4.59l22-1.28v-7.89l1.88-1.66h2.89l.41-17.06,7.86-4.6h3.93V514h-2.08V499.84l10.37-4.95,46.2.52v14.86l-2.31,1.84L39,515H51.67l.21,7.16-1.23.74.8,1.27,14.73,10.46,8.49.18v16.33h9.94l0,40.37h17l-.08-108.08h16.77v-1.84h2.29v2h2.87V482h1.88v1.66h5.17v-3.11h1.24v2.93l19.47.72v-2.38l1.66-.55.63.55.4,1.47h2.91v-3.68h4.55v3.31h3.11v-2h5v1.83l.85-.18,2.9-2.22v3.13Z"/>
          <path class="adf23294-cb02-4b70-ac31-651308a45a4e" d="M167.86,641.53c-4.41-11-20.28-19.2-39.19-19.2a62.32,62.32,0,0,0-12,1.13,11.15,11.15,0,0,0,2.82-7.18c0-8.51-11-15.41-24.52-15.41a37.35,37.35,0,0,0-9.81,1.29c-.53-13.74-18.4-24.77-40.38-24.77-16,0-29.75,5.81-36.32,14.26-7-5.4-17.65-8.85-29.6-8.85-21.08,0-38.16,10.75-38.16,24a15.46,15.46,0,0,0,.84,5,35.75,35.75,0,0,0-12.89-2.3c-8.22,0-15.5,2.55-20,6.46a19.26,19.26,0,0,0,1.46-7.31C-89.8,592.3-110.92,579-137,579a69.61,69.61,0,0,0-23,3.77c-2-7.24-12-12.74-24.14-12.74a32.92,32.92,0,0,0-17.47,4.6c-12.08-8.24-29.39-13.41-48.61-13.41-21.52,0-40.63,6.47-52.7,16.48a33.66,33.66,0,0,0-16.26-3.89c-13.53,0-24.51,6.9-24.51,15.42a10.41,10.41,0,0,0,.37,2.66c-5.83-4.26-14.45-6.95-24.08-6.95-14.62,0-26.92,6.2-30.64,14.65-4.54-8.23-17-14.15-31.61-14.15a49.9,49.9,0,0,0-15.23,2.3,9.34,9.34,0,0,0,3.63-7c0-6.6-8.51-12-19-12a26.16,26.16,0,0,0-12.56,3c-5.69-5.41-15.46-9-26.55-9a43.94,43.94,0,0,0-20.93,5c-15-8.13-34.55-13-55.92-13-34.34,0-63.95,12.69-77.67,31-5.74-3.54-13.6-5.73-22.28-5.73-17.56,0-31.79,9-31.79,20a14.16,14.16,0,0,0,3.14,8.67,58.72,58.72,0,0,0-21-3.7c-18.15,0-33.48,7.56-38.48,18-4.92-4.52-13.18-7.49-22.56-7.49A37.39,37.39,0,0,0-805.34,620c-7.11-12.72-26.37-21.84-49-21.84-20.16,0-37.63,7.23-46.26,17.77A47.31,47.31,0,0,0-921,611.56c-13.6,0-25.28,5.1-30.52,12.42a61.51,61.51,0,0,0-14.32-1.65,62.32,62.32,0,0,0-12,1.13,11.15,11.15,0,0,0,2.82-7.18c0-8.51-11-15.41-24.52-15.41a37.35,37.35,0,0,0-9.81,1.29c-.53-13.74-18.4-24.77-40.38-24.77-16,0-29.75,5.81-36.32,14.26-7-5.4-17.65-8.85-29.6-8.85-21.08,0-38.16,10.75-38.16,24a15.46,15.46,0,0,0,.84,5,35.75,35.75,0,0,0-12.89-2.3c-8.22,0-15.5,2.55-20,6.46a19.26,19.26,0,0,0,1.46-7.31c0-16.37-21.12-29.65-47.17-29.65a69.61,69.61,0,0,0-23,3.77c-2-7.24-12-12.74-24.14-12.74a32.92,32.92,0,0,0-17.47,4.6c-12.08-8.24-29.39-13.41-48.61-13.41-21.52,0-40.63,6.47-52.7,16.48a33.69,33.69,0,0,0-16.26-3.89c-13.53,0-24.51,6.9-24.51,15.42a10.41,10.41,0,0,0,.37,2.66c-5.83-4.26-14.45-6.95-24.08-6.95-14.62,0-26.92,6.2-30.64,14.65-4.54-8.23-17-14.15-31.61-14.15a49.9,49.9,0,0,0-15.23,2.3,9.34,9.34,0,0,0,3.63-7c0-6.6-8.51-12-19-12a26.16,26.16,0,0,0-12.56,3c-5.69-5.41-15.46-9-26.55-9a43.94,43.94,0,0,0-20.93,5c-15-8.13-34.55-13-55.92-13-34.34,0-64,12.69-77.67,31-5.74-3.54-13.6-5.73-22.28-5.73-17.56,0-31.79,9-31.79,20a14.16,14.16,0,0,0,3.14,8.67,58.72,58.72,0,0,0-21-3.7c-18.15,0-33.48,7.56-38.48,18-4.92-4.52-13.18-7.49-22.56-7.49a37.39,37.39,0,0,0-18.54,4.56c-7.11-12.72-26.37-21.84-49-21.84-18.63,0-35,6.17-44.13,15.42v98.6H196V627.64C182.9,628.4,172,634,167.86,641.53Z"/>
          <rect class="e11d39d3-5d31-49be-bef6-506b3493b642" x="-2035" y="656.64" width="2250" height="257.36"/>
          <path class="be9720b8-a7a3-46c7-a916-fea64f4d1cf6" d="M203.49,716.93v23.39l-673.38-8.51S-34.95,725.08,203.49,716.93Z"/>
          <rect class="ff72094c-a6ef-4b85-8f34-915172652dbc" x="-2002" y="-10" width="2204" height="932"/>
        </g>
      </g>
      <g class="ecaeec46-f7c4-4302-b76c-2a27d7ab61c4">
        <g>
          <path class="ac108fae-8e04-4105-81b1-9dbd169fc8a0" d="M334.5,105.09h-218s-1.25-28.78,34-19c0,0-20.78-64.9,31.05-22,0,0-4.83-43,15.87-50s33.23,36,33.23,36,7.56-45,26.94-43.42c19,1.52,28.9,34.45,22.25,60.39,0,0,37.35-33.05,20.7,19.95C300.51,87.13,356.5,81,334.5,105.09Z"/>
          <path class="fdff285c-7731-418e-ac34-ced9d81f4cc7" d="M28.77,947.31c29,2.18,58-.73,86.88-2.9,30.46-2.28,60.87-2,91.36-1.49,67.39,1.12,134.73,4.31,202.09,6.92q11.75.46,23.48.85V835.79L289.46,712.34V835.79h-1.9L146.33,714V835.79L3.2,712.34V940.05q11.07,3.93,22.27,7C26.57,947.12,27.67,947.23,28.77,947.31Z"/>
          <polygon class="a7589dc7-2db2-4465-812e-301fde13fae5" points="289.45 736.75 432.58 862.44 432.58 835.79 289.45 712.34 289.45 736.75"/>
          <polygon class="a7589dc7-2db2-4465-812e-301fde13fae5" points="289.45 868.15 289.45 835.79 287.56 835.79 146.33 708.3 146.33 745.9 289.45 868.15"/>
          <polygon class="e4bfd1d1-4d9d-43e3-a1d5-19d38d5eb5b2" points="289.45 736.75 432.58 862.44 432.58 835.79 289.45 712.34 289.45 736.75"/>
          <polygon class="e4bfd1d1-4d9d-43e3-a1d5-19d38d5eb5b2" points="289.45 868.15 289.45 835.79 287.56 835.79 146.33 708.3 146.33 745.9 289.45 868.15"/>
          <polygon class="a7589dc7-2db2-4465-812e-301fde13fae5" points="289.45 837.42 138.01 705.3 138.01 691.81 289.45 823.91 289.45 837.42"/>
          <polygon class="a7589dc7-2db2-4465-812e-301fde13fae5" points="432.58 837.42 281.12 705.3 281.12 691.81 432.58 823.91 432.58 837.42"/>
          <g>
            <path class="bd0f70c3-7a70-43c0-b001-653c507f3f8a" d="M-97.42-17.75V946.84l4.37,1,3.64.25c32,1.9,64.12-.63,96.09-2.52,33.69-2,67.32-1.75,101-1.31,74.54,1,149,3.76,223.52,6,73.83,2.26,147.71,3.34,221.57,2.47,73-.87,146.19-3,218.94-9.84,36.14-3.39,72.27-7.27,108.54-8.7,43.51-1.72,86.16,1.63,129.17,9.12a91.94,91.94,0,0,1,18.69,7.88l2.34-.11c120.61-5.76,240.94-12.86,361.72-10.82,102.08,1.74,204.28,6.22,306.33,2.21V-17.75Z"/>
            <path class="ac108fae-8e04-4105-81b1-9dbd169fc8a0" d="M1627.41,198.76h-485.6s20.23-109.4,84.92-49.68c0,0,9.26-119.25,72.47-20.28,0,0-10-124.11,61-124C1423.65,5,1424,105.48,1424,105.48s37.18-82.43,80.52-20.45c22,31.43,5.85,80.05,5.85,80.05Z"/>
            <path class="ac108fae-8e04-4105-81b1-9dbd169fc8a0" d="M901.78,490.84H416.19s20.71-126.46,85-44.41c0,0,5.2-169.77,72.41-25.56,0,0-10.35-135,60.67-134.83,63.45.12,64.09,111.52,64.09,111.52s47.92-93.55,97.89-41.47c27.22,28.37-11.52,101.06-11.52,101.06Z"/>
            <path class="b8847651-425f-4592-a835-a4daba1bccce" d="M1485.75,830.48l-134,25.27-191.12-53-113,24.7L955,850.67,802.74,810.43,345.46,863.3,30.21,826.05l.1,121.36c25.5,2,51-.86,76.49-3,27.3-2.28,54.57-2,81.9-1.49,60.41,1.12,120.78,4.31,181.17,6.92,59.84,2.6,119.72,3.84,179.58,2.83,59.18-1,118.5-3.46,177.46-11.3,29.3-3.89,58.58-8.34,88-10,35.27-2,69.83,1.88,104.69,10.47a65.05,65.05,0,0,1,15.15,9.06l1.9-.13c97.76-6.61,195.29-14.77,293.19-12.42,85.35,2,170.81,7.46,256.13,2.06Z"/>
            <g>
              <path class="a6a1340c-6266-4d64-bd07-9e3e15353bdf" d="M1397.06,554l-5.66-1.59s.83-7.53-1.12-10.67c0,0-13.62.51-14.66-14,0,0-7.88-1.78-3.86-10.15,0,0-18.44,5.62-16-18.3,0,0-9.72-.14-8.19-10.93,0,0-19.2,12.74-21.63-13,0,0-10.16,1.9-7.32-11.55,0,0-6.16,4.31-9.9-1.05,0,0-5.88,8.28-10.87,0,0,0-22.38,13.58-24.84-15.59,0,0-23.94,1.48-15.53-29.4,0,0-15.15-6-9.68-17,0,0-12.28-8.63-3.85-18.34,0,0-1.78-22.88,19-16.66,0,0,13-15.4,26.21,1.7,0,0,10.51-7.42,15.92,7.05,0,0,5.51-1.91,7,5.4,0,0,14.21-3.35,18.72,14.32,0,0,14.46-5.45,18.36,13.78,0,0,14.28.12,13,21.35,0,0,6.32-.39,4.14,8.06,0,0,20.11,9.51,11.87,30.73,0,0,5.52-1.25,1.85,7.22,0,0,13.69-.9,12.47,20.77,0,0,15.76,4.42,10,18.77,0,0,12.47,14.72,3.27,23.8,0,0,.41,7.82-7,6.66Z"/>
              <path class="f2aa1e6e-933b-4e14-89f1-2058c4d5d67a" d="M1392.81,552.77l4.25,1.19s3-11.24,3.13-16c0,0,6.89-9.29.24-13.74,0,0,4.18-6.17-3-7.74,0,0,4.45-13.86-8.2-16.12,0,0,1.47-8.65-5.79-9.82,0,0,2.65-17.82-10.35-19.31,0,0,2.69-8.31-3.24-10.41,0,0,6.59-15.42-10.46-18.9,0,0,2.23-9.31-4.61-10.79,0,0,2.57-9.64-8-12.59,0,0-2.11-7.07-5.84-4.66,0,0-4.49-13.65-16.48-5.64,0,0-3.1-11.92-14.34-8.82,0,0,1.26-7.65-7.1-8.26,0,0,1.19-13.81-12-11.73,0,0-14.61-17.33-18.56-1.59,0,0-2.77-5.1-5.36,2.38,0,0-11.11-1.82-9,9.55,0,0-7.52,2.64-3.31,10.73,0,0-6.07,11.24,4.32,17.62,0,0-4.73,19.37,15.92,21.07,0,0,2.83,13.62,15.73,10.07,0,0,7.17,12.12,18.64-4.52,0,0-1.58,9.89,12.56,7.61,0,0-4.29,17.58,9.75,15.05,0,0-1.68,5.14,3.29,7,0,0,1.9,16.08,16.11,6.68,0,0,2.89,8.58,9.94,3.65,0,0-5.7,10.92,5.81,13.28,0,0-1.54,10.8,6,10.75,0,0-1,6.59,3.29,4.8,0,0-3.93,12.28,7.75,13.84,0,0-2.41,4.93,5.32,6.23,0,0-.56,6.64,5.1,6.61Z"/>
              <path class="a78f830c-81d5-43f4-b042-92c69500f169" d="M1392.81,552.77l4.25,1.19s1.77-15.47,1.58-18.12c0,0,3.51-4.19-.57-7.93,0,0,.83-4.08-1.82-5.69,0,0,4.63-14.68-6.16-15.11,0,0-2.82-4.68-6.59-3.57,0,0,3.72-5.87-.72-9.71,0,0,3.36-17.62-9.11-17.22,0,0,0-8.65-5.78-8.1,0,0,6.18-18.56-8.75-15.4,0,0,1.36-10-5.88-9.42,0,0,1.66-20.26-11.67-17.52,0,0-2.09-9.58-10.19-4.11,0,0-2.19-6.27-10.85-.06,0,0-4.36-11.59-14.72-2,0,0,2.35-10.56-3.41-13,0,0,4.23-19.53-7.59-16.81,0,0-8.82-11.53-13.18.19,0,0-12.25-9.47-11.71,7.51,0,0-8.84,1.41-3.71,9.75,0,0-7.59,10,2.34,16.2,0,0-.76,7.13,7.18,5,0,0-.43,14.12,15.67,10,0,0,5.78,8.1,10.62-.9,0,0,3.63,10.51,16.25-.2,0,0-1.69,9,7.85,9.11,0,0-.45,6.77,3.12,7.56,0,0-4,9.11,8.31,8,0,0-.72,9.41,4.8,7.1,0,0,.66,11.87,12.91,7.11,0,0,1.18,5.08,6.92,2.8,0,0-.92,11.4,6.69,11.81,0,0-4.56,8.22,2.26,9.7,0,0,.21,7,7.54,6.43,0,0-2.51,4.89,2.4,7.57,0,0-1.7,7.3,4.85,9.14,0,0-1.54,4.75,3.3,3.95,0,0,1.4,6.43,4.42,6.42Z"/>
            </g>
            <g>
              <path class="a6a1340c-6266-4d64-bd07-9e3e15353bdf" d="M1335.27,558h-5.08s-.64-6.59-2.87-8.79c0,0-11.45,3.67-14.94-8.42,0,0-7,.36-5.09-7.69,0,0-14.64,9.16-16.87-11.72,0,0-8.27,2.21-8.91-7.31,0,0-14,15.37-20.68-5.86,0,0-8.26,4-8.26-8.06,0,0-4.46,5.13-8.59,1.47,0,0-3.51,8.42-9.23,2.56,0,0-16.54,16.84-23.86-7.32,0,0-20,7-18.45-21.24,0,0-13.93-1.46-11.26-12.08,0,0-12-4.39-6.56-14.64,0,0-5.61-19,13.1-18.65,0,0,8.22-16.13,22.54-4.78,0,0,7.58-8.79,14.76,2.2,0,0,4.32-2.94,6.87,2.92,0,0,11.45-6.22,18.45,7.69,0,0,11.28-8.05,18.05,7.32,0,0,12.13-3.29,14.86,15,0,0,5.28-1.83,5,5.86,0,0,18.76,3.28,15.58,23.24,0,0,4.46-2.37,2.86,5.68,0,0,11.46-4,14.32,14.65,0,0,14.15,0,11.85,13.55,0,0,13.22,9.51,7,19.4,0,0,1.74,6.53-4.79,7.32Z"/>
              <path class="f2aa1e6e-933b-4e14-89f1-2058c4d5d67a" d="M1331.46,558h3.81s.55-10.25-.2-14.28c0,0,4.18-9.52-2.26-11.71,0,0,2.43-6.23-3.91-5.86,0,0,1.29-12.82-9.85-11.72,0,0-.32-7.69-6.67-7,0,0-1-15.74-12.26-13.91,0,0,.8-7.69-4.61-8.05,0,0,2.83-14.64-12.26-13.55,0,0,.21-8.42-5.85-8.05,0,0,.45-8.79-9-8.79,0,0-3.06-5.49-5.78-2.56,0,0-6.28-10.51-15-.86,0,0-4.78-9.38-13.75-4.08,0,0-.3-6.77-7.5-5.31,0,0-1.47-12-12.29-7.09,0,0-15.51-11.22-16,3.06,0,0-3.26-3.66-4.11,3.3,0,0-9.76,1.09-5.94,10.25,0,0-5.91,4-.89,9.88,0,0-3.13,11,6.83,13.91,0,0-.53,17.56,17.28,14.09,0,0,4.85,10.88,15.15,4.8,0,0,8.26,8.57,15-8.27,0,0,.42,8.77,12,3.47,0,0-.48,15.93,11,10.44,0,0-.49,4.76,4.05,5.13,0,0,4.5,13.18,14.86,1.83,0,0,4,6.59,9.09.73,0,0-2.87,10.62,7.3,9.89,0,0,.65,9.51,7,7.68,0,0,.32,5.84,3.67,3.29,0,0-1.13,11.36,9.06,9.89,0,0-1.17,4.76,5.62,4,0,0,.72,5.76,5.52,4.39Z"/>
              <path class="a78f830c-81d5-43f4-b042-92c69500f169" d="M1331.46,558h3.81s-1.27-13.55-1.9-15.74c0,0,2.23-4.4-1.91-6.6,0,0,0-3.65-2.56-4.39,0,0,1.29-13.54-7.94-11.35,0,0-3.24-3.3-6.22-1.46,0,0,2.08-5.86-2.36-8.06,0,0-.33-15.74-10.82-12.45,0,0-1.59-7.32-6.37-5.49,0,0,1.91-17.2-10.18-11,0,0-.63-8.79-6.67-6.59,0,0-2.23-17.57-13-12.08,0,0-3.51-7.62-9.39-1.07,0,0-3-4.79-9.2,2.53,0,0-5.78-8.78-12.84,1.84,0,0,.09-9.52-5.23-10.26,0,0,.08-17.57-9.47-12.44,0,0-9.54-7.69-11.14,3.29,0,0-12.08-5.12-8.58,9.15,0,0-7.25,3.29-1.4,9.16,0,0-4.64,10.25,4.9,13.17,0,0,.64,6.23,7,2.57,0,0,2.17,12.08,15.08,4.76,0,0,6.36,5.49,8.84-3.3,0,0,5,8.06,13.75-4,0,0,.18,8.06,8.29,5.86,0,0,.84,5.84,4,5.67,0,0-1.79,8.68,8.48,4.8,0,0,1.08,8.15,5.35,4.88,0,0,2.69,9.92,12.23,3,0,0,1.91,4,6.37.73,0,0,1.26,9.89,7.78,8.42,0,0-2.38,8.06,3.66,7.69,0,0,1.44,5.86,7.56,3.66,0,0-1.25,4.74,3.4,5.85,0,0-.14,6.6,5.74,6.6,0,0-.45,4.39,3.52,2.56,0,0,2.33,5.13,4.9,4.4Z"/>
            </g>
            <g>
              <g>
                <g>
                  <polygon class="a4c7871f-2518-47a7-b337-ba4f6e2046ce" points="1357.7 717.77 1308.3 717.77 1319.17 539.99 1346.83 539.99 1357.7 717.77"/>
                  <polygon class="b6a16366-03a7-430b-8908-f0e56e547a37" points="1339.32 539.99 1342.36 717.77 1353.46 717.77 1342.71 539.99 1339.32 539.99"/>
                  <polygon class="eb320a0c-a754-45a9-8aa3-02a2f29a4567" points="1332.57 539.99 1319.17 539.99 1308.3 717.77 1326.35 717.77 1332.57 539.99"/>
                  <polygon class="fdff285c-7731-418e-ac34-ced9d81f4cc7" points="1317.97 559.69 1348.03 559.69 1347.77 555.3 1318.24 555.3 1317.97 559.69"/>
                  <polygon class="fdff285c-7731-418e-ac34-ced9d81f4cc7" points="1315.83 594.81 1350.18 594.81 1349.91 590.42 1316.09 590.42 1315.83 594.81"/>
                  <polygon class="fdff285c-7731-418e-ac34-ced9d81f4cc7" points="1313.4 634.36 1352.6 634.36 1352.33 629.97 1313.67 629.97 1313.4 634.36"/>
                  <polygon class="fdff285c-7731-418e-ac34-ced9d81f4cc7" points="1311 673.7 1355.01 673.7 1354.74 669.31 1311.26 669.31 1311 673.7"/>
                  <polygon class="fdff285c-7731-418e-ac34-ced9d81f4cc7" points="1308.57 713.46 1357.44 713.46 1357.17 709.08 1308.83 709.08 1308.57 713.46"/>
                  <polygon class="aca338ab-a59a-4f73-97a4-df13a8f8f38e" points="1349.81 557.49 1349.81 557.49 1316.19 557.49 1316.19 557.49 1316.19 554.2 1316.19 554.2 1349.81 554.2 1349.81 554.2 1349.81 557.49"/>
                  <polygon class="aca338ab-a59a-4f73-97a4-df13a8f8f38e" points="1350.92 592.61 1350.92 592.61 1315.08 592.61 1315.08 592.61 1315.08 589.32 1315.08 589.32 1350.92 589.32 1350.92 589.32 1350.92 592.61"/>
                  <polygon class="aca338ab-a59a-4f73-97a4-df13a8f8f38e" points="1353.67 632.17 1353.67 632.17 1312.33 632.17 1312.33 632.17 1312.33 628.88 1312.33 628.88 1353.67 628.88 1353.67 628.88 1353.67 632.17"/>
                  <polygon class="aca338ab-a59a-4f73-97a4-df13a8f8f38e" points="1355.79 671.72 1355.79 671.72 1310.21 671.72 1310.21 671.72 1310.21 668.43 1310.21 668.43 1355.79 668.43 1355.79 668.43 1355.79 671.72"/>
                  <polygon class="aca338ab-a59a-4f73-97a4-df13a8f8f38e" points="1358.76 711.27 1358.76 711.27 1307.24 711.27 1307.24 711.27 1307.24 707.98 1307.24 707.98 1358.76 707.98 1358.76 707.98 1358.76 711.27"/>
                </g>
                <g>
                  <polygon class="a4c7871f-2518-47a7-b337-ba4f6e2046ce" points="1421.28 717.77 1371.88 717.77 1382.75 539.99 1410.4 539.99 1421.28 717.77"/>
                  <polygon class="b6a16366-03a7-430b-8908-f0e56e547a37" points="1402.9 539.99 1405.93 717.77 1417.04 717.77 1406.29 539.99 1402.9 539.99"/>
                  <polygon class="eb320a0c-a754-45a9-8aa3-02a2f29a4567" points="1396.14 539.99 1382.75 539.99 1371.88 717.77 1389.92 717.77 1396.14 539.99"/>
                  <polygon class="fdff285c-7731-418e-ac34-ced9d81f4cc7" points="1381.55 559.69 1411.61 559.69 1411.34 555.3 1381.81 555.3 1381.55 559.69"/>
                  <polygon class="fdff285c-7731-418e-ac34-ced9d81f4cc7" points="1379.4 594.81 1413.76 594.81 1413.49 590.42 1379.67 590.42 1379.4 594.81"/>
                  <polygon class="fdff285c-7731-418e-ac34-ced9d81f4cc7" points="1376.98 634.36 1416.17 634.36 1415.91 629.97 1377.25 629.97 1376.98 634.36"/>
                  <polygon class="fdff285c-7731-418e-ac34-ced9d81f4cc7" points="1374.57 673.7 1418.58 673.7 1418.31 669.31 1374.84 669.31 1374.57 673.7"/>
                  <polygon class="fdff285c-7731-418e-ac34-ced9d81f4cc7" points="1372.14 713.46 1421.01 713.46 1420.75 709.08 1372.41 709.08 1372.14 713.46"/>
                  <polygon class="aca338ab-a59a-4f73-97a4-df13a8f8f38e" points="1413.38 557.49 1413.38 557.49 1379.77 557.49 1379.77 557.49 1379.77 554.2 1379.77 554.2 1413.38 554.2 1413.38 554.2 1413.38 557.49"/>
                  <polygon class="aca338ab-a59a-4f73-97a4-df13a8f8f38e" points="1414.49 592.61 1414.49 592.61 1378.65 592.61 1378.65 592.61 1378.65 589.32 1378.65 589.32 1414.49 589.32 1414.49 589.32 1414.49 592.61"/>
                  <polygon class="aca338ab-a59a-4f73-97a4-df13a8f8f38e" points="1417.25 632.17 1417.25 632.17 1375.9 632.17 1375.9 632.17 1375.9 628.88 1375.9 628.88 1417.25 628.88 1417.25 628.88 1417.25 632.17"/>
                  <polygon class="aca338ab-a59a-4f73-97a4-df13a8f8f38e" points="1419.37 671.72 1419.37 671.72 1373.78 671.72 1373.78 671.72 1373.78 668.43 1373.78 668.43 1419.37 668.43 1419.37 668.43 1419.37 671.72"/>
                  <polygon class="aca338ab-a59a-4f73-97a4-df13a8f8f38e" points="1422.33 711.27 1422.33 711.27 1370.81 711.27 1370.81 711.27 1370.81 707.98 1370.81 707.98 1422.33 707.98 1422.33 707.98 1422.33 711.27"/>
                </g>
              </g>
              <g>
                <path class="e1d3bcbc-80ce-48e7-8d16-e5cfef0f10da" d="M1368.39,938.36c23,.49,46,1.19,69,1.87l-9.66-230.85-129-51.06-129,51.06-9.8,234.17C1229.37,939.63,1298.8,936.86,1368.39,938.36Z"/>
                <polygon class="f0f0dfcc-7540-4cb0-8d5f-b407bd1a20af" points="1428.74 742.52 1427.76 709.38 1298.75 658.32 1169.74 709.38 1168.75 742.52 1296.32 692.85 1428.74 742.52"/>
                <polygon class="a7589dc7-2db2-4465-812e-301fde13fae5" points="1437.69 727.39 1299.09 671.91 1154.95 727.39 1154.95 713.8 1299.09 658.32 1437.69 713.8 1437.69 727.39"/>
                <g>
                  <g>
                    <g>
                      <polygon class="b5d49a72-a17f-43a4-82af-1b911f9151f2" points="1247.22 871.77 1247.22 871.77 1187.7 871.77 1187.7 871.77 1187.7 799.26 1187.7 799.26 1247.22 799.26 1247.22 799.26 1247.22 871.77"/>
                      <polygon class="eaf5e518-0baa-4d32-976c-9bd1ff45a679" points="1243.39 867.11 1243.39 867.11 1191.52 867.11 1191.52 867.11 1191.52 803.92 1191.52 803.92 1243.39 803.92 1243.39 803.92 1243.39 867.11"/>
                      <g>
                        <polygon class="ea55c7ef-80d3-4ef6-9d3a-e2b45674e94a" points="1214.49 803.92 1191.52 852.24 1191.52 867.11 1192.56 867.11 1222.6 803.92 1214.49 803.92"/>
                        <polygon class="ea55c7ef-80d3-4ef6-9d3a-e2b45674e94a" points="1198.19 867.11 1219.11 867.11 1243.39 816.03 1243.39 803.92 1228.23 803.92 1198.19 867.11"/>
                      </g>
                    </g>
                    <rect class="b5d49a72-a17f-43a4-82af-1b911f9151f2" x="1190.07" y="827.63" width="54.78" height="3.15"/>
                    <rect class="b5d49a72-a17f-43a4-82af-1b911f9151f2" x="1215.26" y="799.26" width="4.11" height="31.52"/>
                  </g>
                  <g>
                    <g>
                      <polygon class="b5d49a72-a17f-43a4-82af-1b911f9151f2" points="1326.08 871.77 1326.08 871.77 1266.56 871.77 1266.56 871.77 1266.56 799.26 1266.56 799.26 1326.08 799.26 1326.08 799.26 1326.08 871.77"/>
                      <polygon class="eaf5e518-0baa-4d32-976c-9bd1ff45a679" points="1322.26 867.11 1322.26 867.11 1270.38 867.11 1270.38 867.11 1270.38 803.92 1270.38 803.92 1322.26 803.92 1322.26 803.92 1322.26 867.11"/>
                      <g>
                        <polygon class="ea55c7ef-80d3-4ef6-9d3a-e2b45674e94a" points="1293.35 803.92 1270.38 852.24 1270.38 867.11 1271.43 867.11 1301.47 803.92 1293.35 803.92"/>
                        <polygon class="ea55c7ef-80d3-4ef6-9d3a-e2b45674e94a" points="1277.05 867.11 1297.97 867.11 1322.26 816.03 1322.26 803.92 1307.09 803.92 1277.05 867.11"/>
                      </g>
                    </g>
                    <rect class="b5d49a72-a17f-43a4-82af-1b911f9151f2" x="1268.93" y="827.63" width="54.78" height="3.15"/>
                    <rect class="b5d49a72-a17f-43a4-82af-1b911f9151f2" x="1294.13" y="799.26" width="4.11" height="31.52"/>
                  </g>
                  <g>
                    <g>
                      <polygon class="b5d49a72-a17f-43a4-82af-1b911f9151f2" points="1404.94 871.77 1404.94 871.77 1345.41 871.77 1345.41 871.77 1345.41 799.26 1345.41 799.26 1404.94 799.26 1404.94 799.26 1404.94 871.77"/>
                      <polygon class="eaf5e518-0baa-4d32-976c-9bd1ff45a679" points="1401.11 867.11 1401.11 867.11 1349.24 867.11 1349.24 867.11 1349.24 803.92 1349.24 803.92 1401.11 803.92 1401.11 803.92 1401.11 867.11"/>
                      <g>
                        <polygon class="ea55c7ef-80d3-4ef6-9d3a-e2b45674e94a" points="1372.22 803.92 1349.24 852.24 1349.24 867.11 1350.3 867.11 1380.33 803.92 1372.22 803.92"/>
                        <polygon class="ea55c7ef-80d3-4ef6-9d3a-e2b45674e94a" points="1355.91 867.11 1376.83 867.11 1401.11 816.03 1401.11 803.92 1385.95 803.92 1355.91 867.11"/>
                      </g>
                    </g>
                    <rect class="b5d49a72-a17f-43a4-82af-1b911f9151f2" x="1347.79" y="827.63" width="54.78" height="3.15"/>
                    <rect class="b5d49a72-a17f-43a4-82af-1b911f9151f2" x="1372.99" y="799.26" width="4.1" height="31.52"/>
                  </g>
                </g>
              </g>
            </g>
            <g>
              <path class="a6a1340c-6266-4d64-bd07-9e3e15353bdf" d="M930.44,473.28H918.6s-1.47-18-6.66-24c0,0-26.65,10-34.79-23,0,0-16.29,1-11.84-21,0,0-34,25-39.24-32,0,0-19.24,6-20.72-20,0,0-32.57,42-48.11-16,0,0-19.25,11-19.25-22,0,0-10.37,14-20,4,0,0-8.14,23-21.46,7,0,0-38.49,46-55.52-20,0,0-46.63,19-42.94-58,0,0-32.41-4-26.19-33,0,0-27.84-12-15.25-40,0,0-13.08-51.8,30.47-50.88,0,0,19.13-44,52.43-13.07,0,0,17.64-24,34.36,6,0,0,10.06-8,16,8,0,0,26.65-17,42.94,21,0,0,26.25-22,42,20,0,0,28.24-9,34.57,41,0,0,12.3-5,11.54,16,0,0,43.66,9,36.25,63.44,0,0,10.37-6.47,6.67,15.51,0,0,26.64-11,33.31,40,0,0,32.92,0,27.56,37,0,0,30.76,26,16.41,53,0,0,4,17.83-11.16,20Z"/>
              <path class="f2aa1e6e-933b-4e14-89f1-2058c4d5d67a" d="M921.56,473.28h8.88s1.25-28-.49-39c0,0,9.73-26-5.25-32,0,0,5.66-17-9.1-16,0,0,3-35-22.91-32,0,0-.74-21-15.54-19,0,0-2.22-43-28.5-38,0,0,1.85-21-10.74-22,0,0,6.58-40-28.54-37,0,0,.52-23-13.6-22,0,0,1-24-21-24,0,0-7.11-15-13.45-7,0,0-14.6-28.68-34.89-2.35,0,0-11.11-25.59-32-11.12,0,0-.71-18.5-17.46-14.51,0,0-3.42-32.71-28.59-19.35,0,0-36.1-30.62-37.29,8.36,0,0-7.61-10-9.59,9,0,0-22.69,3-13.82,28,0,0-13.74,11-2.06,27,0,0-7.29,30,15.9,38,0,0-1.25,47.92,40.2,38.45,0,0,11.29,29.69,35.25,13.11,0,0,19.21,23.38,34.92-22.58,0,0,1,23.93,28,9.47,0,0-1.11,43.49,25.51,28.49,0,0-1.15,13,9.41,14,0,0,10.47,36,34.57,5,0,0,9.31,18,21.15,2,0,0-6.67,29,17,27,0,0,1.49,26,16.3,21,0,0,.73,15.94,8.5,9,0,0-2.63,31,21.08,27,0,0-2.7,13,13.09,11,0,0,1.68,15.73,12.84,12Z"/>
              <path class="a78f830c-81d5-43f4-b042-92c69500f169" d="M921.56,473.28h8.88s-3-37-4.44-43c0,0,5.19-12-4.44-18,0,0-.08-10-6-12,0,0,3-37-18.46-31,0,0-7.55-9-14.51-4,0,0,4.88-16-5.48-22,0,0-.73-43-25.17-34,0,0-3.7-20-14.8-15,0,0,4.44-47-23.69-30,0,0-1.48-24-15.54-18,0,0-5.19-48-30.35-33,0,0-8.15-20.79-21.84-2.9,0,0-6.94-13.08-21.41,6.91,0,0-13.45-24-29.88,5,0,0,.21-26-12.18-28,0,0,.18-48-22-34,0,0-22.21-21-25.91,9,0,0-28.12-14-20,25,0,0-16.85,9-3.24,25,0,0-10.82,28,11.39,36,0,0,1.48,17,16.28,7,0,0,5.05,33,35.1,13,0,0,14.8,15,20.57-9,0,0,11.57,22,32-11,0,0,.42,22,19.3,16,0,0,1.94,15.95,9.31,15.47,0,0-4.15,23.7,19.73,13.11,0,0,2.51,22.25,12.46,13.32,0,0,6.25,27.05,28.45,8.06,0,0,4.44,11,14.81,2,0,0,3,27,18.13,23,0,0-5.55,22,8.51,21,0,0,3.33,16,17.58,10,0,0-2.91,13,7.89,16,0,0-.3,18,13.39,18,0,0-1.06,12,8.18,7,0,0,5.44,14,11.4,12Z"/>
            </g>
            <g>
              <path class="a6a1340c-6266-4d64-bd07-9e3e15353bdf" d="M1095.05,497.25l-11.33-4.59s2.41-17.8-1.28-25.57c0,0-27.66-.73-28.43-35.5,0,0-15.81-5.36-6.88-24.69,0,0-37.93,10.72-30.77-45.85,0,0-19.72-1.72-15.6-27.18,0,0-40.13,27.57-42.68-34,0,0-20.78,3.06-13.75-28.53,0,0-12.91,9.38-20-3.92,0,0-12.69,18.86-22-1.63,0,0-46.66,29.1-48.92-40.68,0,0-48.71.1-28.79-72.16,0,0-30.2-16.41-18.07-41.75,0,0-24.12-22.29-6.1-44.2,0,0-1.51-54.69,40-36.91,0,0,27.7-34.78,53,7.81,0,0,22-16.14,31.62,19.07,0,0,11.34-3.76,13.6,13.85,0,0,29.14-5.93,36.66,36.76,0,0,29.83-10.87,36,35.44,0,0,29,2.33,24.39,52.65,0,0,12.84,0,7.65,19.78,0,0,39.91,25.52,21.22,74.83,0,0,11.31-2.18,3.09,17.44,0,0,27.85-.17,23.39,51.21,0,0,31.53,12.77,18.53,46.11,0,0,23.94,36.81,4.44,57.09,0,0,.08,18.65-14.93,14.82Z"/>
              <path class="f2aa1e6e-933b-4e14-89f1-2058c4d5d67a" d="M1086.55,493.8l8.5,3.45s7.15-26.31,7.83-37.52c0,0,14.85-21.1,1.78-32.67,0,0,9-14.07-5.32-18.84,0,0,10.32-32.34-15.13-39.52,0,0,3.76-20.38-10.85-24.21,0,0,7-42-19.21-47.43,0,0,6.24-19.38-5.6-25.21,0,0,14.8-35.75-19.47-46.49,0,0,5.38-21.82-8.35-26.34,0,0,6.1-22.57-15-31.1,0,0-3.62-17.12-11.4-11.92,0,0-7.87-33.13-32.91-15.79,0,0-5.2-28.82-28.28-23.06,0,0,3.26-18-13.63-20.67,0,0,3.69-32.66-23.27-29.63,0,0-28-43.32-37.49-6.45,0,0-5.16-12.53-11.1,4.89,0,0-22.39-5.93-19.19,21.44,0,0-15.51,5.2-7.72,25,0,0-13.36,25.89,7.14,42.54,0,0-11.4,45.42,30.32,52.43,0,0,4.49,32.81,31,26.22,0,0,13.43,29.86,38.24-8.07,0,0-4.13,23.31,24.77,19.91,0,0-10.34,41.22,18.37,37.2,0,0-3.88,12,6,17.05,0,0,2.37,38.52,32,18.2,0,0,5.08,20.83,19.82,10.11,0,0-12.55,25.17,10.56,32.45,0,0-4.11,25.45,11.14,26.42,0,0-2.69,15.54,6.24,11.89,0,0-9.12,28.67,14.44,34,0,0-5.36,11.39,10.2,15.61,0,0-1.75,15.71,9.75,16.46Z"/>
              <path class="a78f830c-81d5-43f4-b042-92c69500f169" d="M1086.55,493.8l8.5,3.45s5-36.56,4.9-42.88c0,0,7.51-9.47-.42-18.95,0,0,2-9.61-3.16-13.8,0,0,10.73-34.25-11.1-36.83,0,0-5.31-11.54-13-9.46,0,0,8.08-13.42-.57-23.18,0,0,8.44-41.45-16.87-42.31,0,0,.71-20.58-11-20.1,0,0,14.25-43.26-16.31-37.9,0,0,3.69-23.55-11.06-23.26,0,0,5.25-48-22-43.36,0,0-3.38-23.07-20.31-11.25,0,0-3.86-15.22-22-1.7,0,0-7.75-28.19-29.67-6.8,0,0,5.75-24.81-5.71-31.53,0,0,10.39-45.87-13.86-41.09,0,0-16.8-28.7-26.73-1.43,0,0-24-24.31-24.45,16.18,0,0-18.06,2.07-8.43,22.67,0,0-16.32,22.6,3.25,38.88,0,0-2.21,16.83,14.1,13,0,0-2.17,33.54,30.85,26.06,0,0,11,20.09,21.63-.64,0,0,6.4,25.54,33,1.88,0,0-4.27,21.23,15.09,22.8,0,0-1.53,16,5.61,18.43,0,0-9,21.09,16.12,20.22,0,0-2.33,22.27,9.1,17.59,0,0,.23,28.33,25.53,18.76,0,0,1.92,12.25,13.76,7.65,0,0-2.91,27,12.48,29.06,0,0-10,18.9,3.69,23.39,0,0-.22,16.61,14.7,16.4,0,0-5.54,11.26,4.16,18.35,0,0-4.12,17.13,9,22.45,0,0-3.56,11.07,6.35,9.86,0,0,2.23,15.52,8.36,15.92Z"/>
            </g>
            <g>
              <g>
                <path class="a4db84da-7f99-4c2e-9ef3-eaa2b18fb60b" d="M1039.22,950.91l2.11-.13c33.29-2,66.55-4.18,99.81-6.14l-17.65-510.42h-83.25L1022.68,942A74.56,74.56,0,0,1,1039.22,950.91Z"/>
                <path class="bab2738c-de4c-468a-b7f9-3b1ea5f1737d" d="M1133.76,945.08,1116,434.22h-9.42l7.05,512.08Z"/>
                <path class="bad4e6f5-4b9d-4fb5-8831-9ee48b602678" d="M1039.22,950.91l2.11-.13,16.85-1,8-515.53h-20.48l-21.5,508.4A74.88,74.88,0,0,1,1039.22,950.91Z"/>
                <rect class="b75a045c-6977-422a-99b1-9575be319521" x="1002.31" y="843.04" width="4.85" height="46.38"/>
                <rect class="b75a045c-6977-422a-99b1-9575be319521" x="1156.57" y="843.04" width="4.85" height="46.38"/>
                <rect class="b75a045c-6977-422a-99b1-9575be319521" x="1124.5" y="843.04" width="4.85" height="46.38"/>
                <rect class="b75a045c-6977-422a-99b1-9575be319521" x="1092.42" y="843.04" width="4.85" height="46.38"/>
                <rect class="b75a045c-6977-422a-99b1-9575be319521" x="1060.34" y="843.04" width="4.85" height="46.38"/>
                <rect class="b75a045c-6977-422a-99b1-9575be319521" x="1028.27" y="843.04" width="4.85" height="46.38"/>
              </g>
              <rect class="fb2ffc68-32ef-401a-b719-a92a63546f93" x="1002.31" y="877.31" width="159.1" height="24.24"/>
              <rect class="fb2ffc68-32ef-401a-b719-a92a63546f93" x="1002.31" y="843.04" width="159.1" height="8.46"/>
              <g>
                <g>
                  <rect class="b75a045c-6977-422a-99b1-9575be319521" x="1014.25" y="687.15" width="4.12" height="39.42"/>
                  <rect class="b75a045c-6977-422a-99b1-9575be319521" x="1145.36" y="687.15" width="4.12" height="39.42"/>
                  <rect class="b75a045c-6977-422a-99b1-9575be319521" x="1118.1" y="687.15" width="4.12" height="39.42"/>
                  <rect class="b75a045c-6977-422a-99b1-9575be319521" x="1090.83" y="687.15" width="4.12" height="39.42"/>
                  <rect class="b75a045c-6977-422a-99b1-9575be319521" x="1063.57" y="687.15" width="4.12" height="39.42"/>
                  <rect class="b75a045c-6977-422a-99b1-9575be319521" x="1036.31" y="687.15" width="4.12" height="39.42"/>
                </g>
                <rect class="aa4cf8e5-2af7-432c-b55b-843383cbc15e" x="1024.43" y="736.88" width="117.06" height="15.7"/>
                <rect class="fb2ffc68-32ef-401a-b719-a92a63546f93" x="1014.25" y="716.26" width="135.24" height="20.62"/>
                <rect class="fb2ffc68-32ef-401a-b719-a92a63546f93" x="1014.25" y="687.15" width="135.24" height="7.2"/>
              </g>
              <g>
                <g>
                  <rect class="b75a045c-6977-422a-99b1-9575be319521" x="1017.43" y="513.55" width="3.93" height="37.57"/>
                  <rect class="b75a045c-6977-422a-99b1-9575be319521" x="1142.38" y="513.55" width="3.93" height="37.57"/>
                  <rect class="b75a045c-6977-422a-99b1-9575be319521" x="1116.4" y="513.55" width="3.93" height="37.57"/>
                  <rect class="b75a045c-6977-422a-99b1-9575be319521" x="1090.41" y="513.55" width="3.92" height="37.57"/>
                  <rect class="b75a045c-6977-422a-99b1-9575be319521" x="1064.43" y="513.55" width="3.92" height="37.57"/>
                  <rect class="b75a045c-6977-422a-99b1-9575be319521" x="1038.45" y="513.55" width="3.92" height="37.57"/>
                </g>
                <rect class="aa4cf8e5-2af7-432c-b55b-843383cbc15e" x="1027.13" y="560.94" width="111.55" height="14.96"/>
                <rect class="fb2ffc68-32ef-401a-b719-a92a63546f93" x="1017.43" y="541.3" width="128.87" height="19.64"/>
                <rect class="fb2ffc68-32ef-401a-b719-a92a63546f93" x="1017.43" y="513.55" width="128.87" height="6.86"/>
              </g>
              <rect class="fb2ffc68-32ef-401a-b719-a92a63546f93" x="1029.98" y="414.24" width="104.4" height="38.11"/>
              <path class="a971d189-8967-4c5c-bd68-df710465b615" d="M1036.31,434.22c-5.82-.49-10.74-.49-16.48-.49-.82,0-1.64,1.11-1.64,2.22-9.83,107.34-18,209.14-27.87,316.48-4.92,59.76-10.65,117.3-14.89,175.62"/>
            </g>
            <g>
              <g>
                <path class="a4db84da-7f99-4c2e-9ef3-eaa2b18fb60b" d="M905.53,931.38a415.53,415.53,0,0,1,69.7,2.46L958,434.92H874.72l-17.3,500.5C873.43,933.67,889.46,932.19,905.53,931.38Z"/>
                <path class="bab2738c-de4c-468a-b7f9-3b1ea5f1737d" d="M967.8,933,950.48,434.92h-9.42l6.84,496.56Q957.86,932,967.8,933Z"/>
                <path class="bab2738c-de4c-468a-b7f9-3b1ea5f1737d" d="M940.8,931.16l-6.28-496.24h-9.88l-8,496.07Q928.78,930.72,940.8,931.16Z"/>
                <path class="bad4e6f5-4b9d-4fb5-8831-9ee48b602678" d="M893,932.15l7.74-497.23H880.21L859.05,935.25C870.34,934,881.64,932.94,893,932.15Z"/>
                <rect class="b75a045c-6977-422a-99b1-9575be319521" x="836.8" y="843.74" width="4.85" height="46.38"/>
                <rect class="b75a045c-6977-422a-99b1-9575be319521" x="991.05" y="843.74" width="4.85" height="46.38"/>
                <rect class="b75a045c-6977-422a-99b1-9575be319521" x="958.98" y="843.74" width="4.85" height="46.38"/>
                <rect class="b75a045c-6977-422a-99b1-9575be319521" x="926.9" y="843.74" width="4.84" height="46.38"/>
                <rect class="b75a045c-6977-422a-99b1-9575be319521" x="894.82" y="843.74" width="4.85" height="46.38"/>
                <rect class="b75a045c-6977-422a-99b1-9575be319521" x="862.75" y="843.74" width="4.85" height="46.38"/>
              </g>
              <rect class="fb2ffc68-32ef-401a-b719-a92a63546f93" x="836.8" y="877.99" width="159.1" height="24.25"/>
              <rect class="fb2ffc68-32ef-401a-b719-a92a63546f93" x="836.8" y="843.74" width="159.1" height="8.47"/>
              <g>
                <g>
                  <rect class="b75a045c-6977-422a-99b1-9575be319521" x="848.73" y="687.85" width="4.12" height="39.43"/>
                  <rect class="b75a045c-6977-422a-99b1-9575be319521" x="979.85" y="687.85" width="4.12" height="39.43"/>
                  <rect class="b75a045c-6977-422a-99b1-9575be319521" x="952.58" y="687.85" width="4.12" height="39.43"/>
                  <rect class="b75a045c-6977-422a-99b1-9575be319521" x="925.31" y="687.85" width="4.12" height="39.43"/>
                  <rect class="b75a045c-6977-422a-99b1-9575be319521" x="898.05" y="687.85" width="4.12" height="39.43"/>
                  <rect class="b75a045c-6977-422a-99b1-9575be319521" x="870.79" y="687.85" width="4.12" height="39.43"/>
                </g>
                <rect class="aa4cf8e5-2af7-432c-b55b-843383cbc15e" x="858.91" y="737.58" width="117.06" height="15.7"/>
                <rect class="fb2ffc68-32ef-401a-b719-a92a63546f93" x="848.73" y="716.96" width="135.23" height="20.62"/>
                <rect class="fb2ffc68-32ef-401a-b719-a92a63546f93" x="848.73" y="687.85" width="135.23" height="7.2"/>
              </g>
              <g>
                <g>
                  <rect class="b75a045c-6977-422a-99b1-9575be319521" x="851.91" y="514.25" width="3.93" height="37.57"/>
                  <rect class="b75a045c-6977-422a-99b1-9575be319521" x="976.86" y="514.25" width="3.93" height="37.57"/>
                  <rect class="b75a045c-6977-422a-99b1-9575be319521" x="950.88" y="514.25" width="3.93" height="37.57"/>
                  <rect class="b75a045c-6977-422a-99b1-9575be319521" x="924.9" y="514.25" width="3.92" height="37.57"/>
                  <rect class="b75a045c-6977-422a-99b1-9575be319521" x="898.91" y="514.25" width="3.93" height="37.57"/>
                  <rect class="b75a045c-6977-422a-99b1-9575be319521" x="872.93" y="514.25" width="3.93" height="37.57"/>
                </g>
                <rect class="aa4cf8e5-2af7-432c-b55b-843383cbc15e" x="861.61" y="561.64" width="111.55" height="14.97"/>
                <rect class="fb2ffc68-32ef-401a-b719-a92a63546f93" x="851.91" y="542" width="128.87" height="19.65"/>
                <rect class="fb2ffc68-32ef-401a-b719-a92a63546f93" x="851.91" y="514.25" width="128.87" height="6.85"/>
              </g>
              <rect class="fb2ffc68-32ef-401a-b719-a92a63546f93" x="864.46" y="414.94" width="104.41" height="38.1"/>
              <path class="a971d189-8967-4c5c-bd68-df710465b615" d="M870.79,434.92c-5.88-.08-12.44-1.19-18.18,1-2.46,37.62-5.73,74.14-9.83,112.87-1.64,16.6-1.64,32.09-4.1,48.69-.82,8.85-.82,18.81-1.64,27.67-2.46,25.45-4.1,49.79-7.38,75.24-.82,8.86-.82,18.82-1.64,27.67-4.1,34.3-5.74,67.5-9.83,101.8-3.28,35.42-5.74,69.72-8.85,105.13"/>
            </g>
            <g>
              <rect class="a88294bd-56f4-476c-99d2-dbb0408370dc" x="768.65" y="394.77" width="3.74" height="77.34"/>
              <rect class="a88294bd-56f4-476c-99d2-dbb0408370dc" x="733.78" y="339.84" width="3.32" height="132.26"/>
              <rect class="a88294bd-56f4-476c-99d2-dbb0408370dc" x="713.85" y="469.3" width="74.45" height="59.97"/>
              <rect class="bd9c87b5-7f61-48ce-9a1a-9e0bf9dc549f" x="713.85" y="469.3" width="19.92" height="59.97"/>
              <rect class="a7bb26e4-3177-4604-9245-0179a9345dcd" x="755.92" y="508.53" width="47.6" height="24.91"/>
              <rect class="a15e6895-9c3f-41f2-a93e-c00ce6e15442" x="755.92" y="508.53" width="18.19" height="24.91"/>
              <rect class="a7bb26e4-3177-4604-9245-0179a9345dcd" x="692.47" y="508.53" width="47.6" height="24.91"/>
              <rect class="a15e6895-9c3f-41f2-a93e-c00ce6e15442" x="692.47" y="508.53" width="18.19" height="24.91"/>
              <path class="a7bb26e4-3177-4604-9245-0179a9345dcd" d="M807.39,941.37q13.67-1.64,27.34-3.31l-16.2-404.61H661.61L644.86,952C699.1,950.62,753.38,947.81,807.39,941.37Z"/>
              <polygon class="f9bf5036-9ce8-4c75-8fcd-764b7af63e4f" points="819.61 560.34 818.53 533.45 661.61 533.45 660.54 560.34 819.61 560.34"/>
              <path class="a15e6895-9c3f-41f2-a93e-c00ce6e15442" d="M689.78,950.46l9.35-417H661.61L644.86,952Q667.32,951.42,689.78,950.46Z"/>
              <g>
                <rect class="eaf5e518-0baa-4d32-976c-9bd1ff45a679" x="706.53" y="614.15" width="104.75" height="28.57"/>
                <g>
                  <polygon class="fd99a050-205d-49b4-9a0c-214dc414e72c" points="729.56 642.73 753.8 642.73 771.05 614.15 746.8 614.15 729.56 642.73"/>
                  <polygon class="fd99a050-205d-49b4-9a0c-214dc414e72c" points="761.11 642.73 772.4 642.73 789.63 614.15 778.35 614.15 761.11 642.73"/>
                </g>
                <polygon class="f37c8282-38dd-4971-97b4-f9455aaec0bb" points="706.53 614.15 706.53 619 807.95 619 807.95 642.73 811.28 642.73 811.28 614.15 706.53 614.15"/>
                <g>
                  <rect class="a1f71e59-45b6-4378-a429-987c00d8ffab" x="727.97" y="619" width="2.77" height="23.72"/>
                  <rect class="a1f71e59-45b6-4378-a429-987c00d8ffab" x="758.14" y="619" width="2.77" height="23.72"/>
                  <rect class="a1f71e59-45b6-4378-a429-987c00d8ffab" x="788.31" y="619" width="2.76" height="23.72"/>
                </g>
              </g>
              <g>
                <rect class="eaf5e518-0baa-4d32-976c-9bd1ff45a679" x="706.53" y="654.16" width="104.75" height="28.58"/>
                <g>
                  <polygon class="fd99a050-205d-49b4-9a0c-214dc414e72c" points="729.56 682.74 753.8 682.74 771.05 654.16 746.8 654.16 729.56 682.74"/>
                  <polygon class="fd99a050-205d-49b4-9a0c-214dc414e72c" points="761.11 682.74 772.4 682.74 789.63 654.16 778.35 654.16 761.11 682.74"/>
                </g>
                <polygon class="f37c8282-38dd-4971-97b4-f9455aaec0bb" points="706.53 654.16 706.53 659.02 807.95 659.02 807.95 682.74 811.28 682.74 811.28 654.16 706.53 654.16"/>
                <g>
                  <rect class="a1f71e59-45b6-4378-a429-987c00d8ffab" x="727.97" y="659.02" width="2.77" height="23.72"/>
                  <rect class="a1f71e59-45b6-4378-a429-987c00d8ffab" x="758.14" y="659.02" width="2.77" height="23.72"/>
                  <rect class="a1f71e59-45b6-4378-a429-987c00d8ffab" x="788.31" y="659.02" width="2.76" height="23.72"/>
                </g>
              </g>
              <g>
                <rect class="eaf5e518-0baa-4d32-976c-9bd1ff45a679" x="706.53" y="694.17" width="104.75" height="28.57"/>
                <g>
                  <polygon class="fd99a050-205d-49b4-9a0c-214dc414e72c" points="729.56 722.74 753.8 722.74 771.05 694.17 746.8 694.17 729.56 722.74"/>
                  <polygon class="fd99a050-205d-49b4-9a0c-214dc414e72c" points="761.11 722.74 772.4 722.74 789.63 694.17 778.35 694.17 761.11 722.74"/>
                </g>
                <polygon class="f37c8282-38dd-4971-97b4-f9455aaec0bb" points="706.53 694.17 706.53 699.02 807.95 699.02 807.95 722.74 811.28 722.74 811.28 694.17 706.53 694.17"/>
                <g>
                  <rect class="a1f71e59-45b6-4378-a429-987c00d8ffab" x="727.97" y="699.02" width="2.77" height="23.72"/>
                  <rect class="a1f71e59-45b6-4378-a429-987c00d8ffab" x="758.14" y="699.02" width="2.77" height="23.72"/>
                  <rect class="a1f71e59-45b6-4378-a429-987c00d8ffab" x="788.31" y="699.02" width="2.76" height="23.72"/>
                </g>
              </g>
              <g>
                <rect class="eaf5e518-0baa-4d32-976c-9bd1ff45a679" x="706.53" y="734.17" width="104.75" height="28.58"/>
                <g>
                  <polygon class="fd99a050-205d-49b4-9a0c-214dc414e72c" points="729.56 762.75 753.8 762.75 771.05 734.17 746.8 734.17 729.56 762.75"/>
                  <polygon class="fd99a050-205d-49b4-9a0c-214dc414e72c" points="761.11 762.75 772.4 762.75 789.63 734.17 778.35 734.17 761.11 762.75"/>
                </g>
                <polygon class="f37c8282-38dd-4971-97b4-f9455aaec0bb" points="706.53 734.17 706.53 739.03 807.95 739.03 807.95 762.75 811.28 762.75 811.28 734.17 706.53 734.17"/>
                <g>
                  <rect class="a1f71e59-45b6-4378-a429-987c00d8ffab" x="727.97" y="739.03" width="2.77" height="23.72"/>
                  <rect class="a1f71e59-45b6-4378-a429-987c00d8ffab" x="758.14" y="739.03" width="2.77" height="23.72"/>
                  <rect class="a1f71e59-45b6-4378-a429-987c00d8ffab" x="788.31" y="739.03" width="2.76" height="23.72"/>
                </g>
              </g>
              <rect class="f46e0b11-7651-467a-adc5-df6734deeba8" x="657.81" y="529.27" width="164.81" height="13.45"/>
              <rect class="a80013cc-f5c3-4165-9dcc-41d6639ff820" x="657.81" y="535.99" width="164.81" height="6.73"/>
              <rect class="a88294bd-56f4-476c-99d2-dbb0408370dc" x="723.82" y="367.3" width="22.83" height="4.48"/>
              <rect class="a88294bd-56f4-476c-99d2-dbb0408370dc" x="716.27" y="386.92" width="38.34" height="4.48"/>
              <rect class="a88294bd-56f4-476c-99d2-dbb0408370dc" x="716.27" y="410.45" width="38.34" height="4.49"/>
              <rect class="a88294bd-56f4-476c-99d2-dbb0408370dc" x="751.91" y="426.71" width="37.22" height="4.49"/>
            </g>
            <path class="b265e2b7-028c-4ee7-bdda-3b6243057696" d="M672.76,664.9c5.27,0,9.54-10.27,9.54-22.95s-4.27-23-9.54-23h-3.43v45.9h3.43Z"/>
            <path class="f0261a96-1ecb-4acf-9eb6-f4474b28cdcd" d="M660.24,642c0,12.68,4.27,22.95,9.54,22.95s9.55-10.27,9.55-22.95-4.27-23-9.55-23S660.24,629.28,660.24,642Z"/>
            <path class="b6fa57da-939d-4cfe-b15f-bccfe70e2c0b" d="M622.24,659.17h47.54c4,0,7.17-7.7,7.17-17.22s-3.21-17.22-7.17-17.22H605s-15.22,2.61-18.54,19.8l-.31,266L621,906.83Z"/>
            <path class="a6eea5aa-94bc-4313-b640-7ee2e93f5d7f" d="M623.93,642.29s-15.23,2.62-18.54,19.81l-.29,246.43,15.87-1.7,1.27-247.66h47.54c3.92,0,7.09-7.53,7.16-16.88Z"/>
            <g>
              <rect class="ab81edb4-2736-4ef6-aaa5-ee4898736b83" x="471.76" y="463.7" width="5.39" height="234.74"/>
              <polygon class="b0970e71-697f-4ea0-a8c9-a7b393357042" points="489.67 695.58 459.23 695.58 456.74 810.88 492.17 810.88 489.67 695.58"/>
              <polygon class="f7fe79ee-ccec-430b-9755-f9a27be3d30e" points="490.06 713.66 489.67 695.58 459.23 695.58 458.84 713.66 490.06 713.66"/>
              <polygon class="f7fe79ee-ccec-430b-9755-f9a27be3d30e" points="469.61 695.58 459.23 695.58 456.74 810.88 472.1 810.88 469.61 695.58"/>
              <g>
                <g>
                  <polygon class="f5b85046-047f-4c28-a1ca-858962b18cf8" points="493 856.49 456.62 818.49 455.91 819.73 455.91 824.36 493 863.1 493 856.49"/>
                  <polygon class="f5b85046-047f-4c28-a1ca-858962b18cf8" points="493 821.81 492.43 820.82 455.91 858.98 455.91 865.6 493 826.85 493 821.81"/>
                </g>
                <g>
                  <polygon class="f5b85046-047f-4c28-a1ca-858962b18cf8" points="493 903.59 456.62 865.6 455.91 866.83 455.91 871.46 493 910.21 493 903.59"/>
                  <polygon class="f5b85046-047f-4c28-a1ca-858962b18cf8" points="493 868.92 492.43 867.93 455.91 906.08 455.91 912.7 493 873.96 493 868.92"/>
                </g>
                <path class="e646ebc8-baf7-4918-9fef-fad6b6aaee46" d="M474.45,951.9V817.14h-3.6V951.81Z"/>
                <g>
                  <path class="a1f71e59-45b6-4378-a429-987c00d8ffab" d="M459.23,951.52V809.1h-5V951.37Z"/>
                  <path class="a1f71e59-45b6-4378-a429-987c00d8ffab" d="M494.66,952.34V809.1h-5V952.24Z"/>
                </g>
                <rect class="ab81edb4-2736-4ef6-aaa5-ee4898736b83" x="450.93" y="804.61" width="47.05" height="12.53"/>
              </g>
              <rect class="ab81edb4-2736-4ef6-aaa5-ee4898736b83" x="456.74" y="692.5" width="36.26" height="8.57"/>
              <path class="b27240cb-21a9-40d2-bd35-c7841aa8606f" d="M481.86,462.2c0,5.52-3.32,10-7.41,10s-7.4-4.48-7.4-10,3.31-10,7.4-10S481.86,456.69,481.86,462.2Z"/>
              <path class="a9a71dbf-73f8-457b-b67e-602bca2a3a08" d="M477.15,467.15c-4.09,0-7.41-4.48-7.41-10a13.36,13.36,0,0,1,.35-3,11.38,11.38,0,0,0-3,8.06c0,5.52,3.31,10,7.4,10,3.31,0,6.11-2.94,7.05-7A6.17,6.17,0,0,1,477.15,467.15Z"/>
            </g>
            <g>
              <g>
                <g>
                  <polygon class="ab81edb4-2736-4ef6-aaa5-ee4898736b83" points="545.33 901.41 512.82 901.41 515.93 787.26 542.22 787.26 545.33 901.41"/>
                  <polygon class="a62bcfcf-45c8-4b3b-b08d-da081227bc2b" points="515.93 901.41 527.14 901.41 525.62 793.52 518.63 793.52 515.93 901.41"/>
                  <polygon class="f36357a8-90b1-44bf-a988-c500084a659c" points="531.71 901.41 519.53 901.41 523.54 791.93 528.26 791.93 531.71 901.41"/>
                  <rect class="f36357a8-90b1-44bf-a988-c500084a659c" x="515.93" y="787.26" width="26.29" height="7.66"/>
                  <g>
                    <g>
                      <polygon class="af83d3d8-a5a1-43fb-bc6b-e7ae3f56f46b" points="535.72 775.87 521.88 775.87 524.23 700.39 533.37 700.39 535.72 775.87"/>
                      <polygon class="af83d3d8-a5a1-43fb-bc6b-e7ae3f56f46b" points="533.51 705.25 532.72 679.75 524.88 679.75 524.08 705.25 533.51 705.25"/>
                      <polygon class="b27240cb-21a9-40d2-bd35-c7841aa8606f" points="531.85 708.8 533.51 705.25 532.72 679.75 531.85 679.75 531.85 708.8"/>
                      <polygon class="a7626a7b-0299-4d72-99b8-62af3f1f6e37" points="527.55 679.75 524.88 679.75 524.08 705.25 527.55 705.25 527.55 679.75"/>
                      <polygon class="aca05dc5-e1d5-4c2a-b11f-05b254dc5e0f" points="525.34 679.75 524.88 679.75 524.08 705.25 525.34 705.25 525.34 679.75"/>
                      <polygon class="aca05dc5-e1d5-4c2a-b11f-05b254dc5e0f" points="524.72 685.16 532.88 683.96 532.73 680.31 524.87 680.31 524.72 685.16"/>
                      <polygon class="a7626a7b-0299-4d72-99b8-62af3f1f6e37" points="527.97 700.39 524.23 700.39 521.88 775.87 527.97 775.87 527.97 700.39"/>
                      <polygon class="aca05dc5-e1d5-4c2a-b11f-05b254dc5e0f" points="525.27 700.39 524.23 700.39 521.88 775.87 524.17 775.87 525.27 700.39"/>
                      <polygon class="b27240cb-21a9-40d2-bd35-c7841aa8606f" points="530.06 700.39 531.35 775.87 535.72 775.87 533.37 700.39 530.06 700.39"/>
                      <rect class="a8a050c3-83c9-42e0-94f3-6403dbc1251d" x="519.53" y="772.88" width="18.54" height="12.33"/>
                      <rect class="a7626a7b-0299-4d72-99b8-62af3f1f6e37" x="519.53" y="772.88" width="6.09" height="12.33"/>
                      <rect class="aca05dc5-e1d5-4c2a-b11f-05b254dc5e0f" x="519.53" y="772.88" width="2.21" height="12.33"/>
                      <g>
                        <rect class="b98eda7d-62b1-49ec-a87f-f8f3f0d6b370" x="522.14" y="698.44" width="13.31" height="2.63"/>
                        <g>
                          <rect class="b98eda7d-62b1-49ec-a87f-f8f3f0d6b370" x="522.14" y="695.86" width="0.34" height="2.9"/>
                          <rect class="b98eda7d-62b1-49ec-a87f-f8f3f0d6b370" x="524" y="695.86" width="0.34" height="2.9"/>
                          <rect class="b98eda7d-62b1-49ec-a87f-f8f3f0d6b370" x="525.85" y="695.86" width="0.34" height="2.9"/>
                          <rect class="b98eda7d-62b1-49ec-a87f-f8f3f0d6b370" x="527.7" y="695.86" width="0.34" height="2.9"/>
                          <rect class="b98eda7d-62b1-49ec-a87f-f8f3f0d6b370" x="529.55" y="695.86" width="0.34" height="2.9"/>
                          <rect class="b98eda7d-62b1-49ec-a87f-f8f3f0d6b370" x="531.4" y="695.86" width="0.34" height="2.9"/>
                          <rect class="b98eda7d-62b1-49ec-a87f-f8f3f0d6b370" x="533.25" y="695.86" width="0.35" height="2.9"/>
                          <rect class="b98eda7d-62b1-49ec-a87f-f8f3f0d6b370" x="535.11" y="695.86" width="0.34" height="2.9"/>
                        </g>
                        <rect class="b98eda7d-62b1-49ec-a87f-f8f3f0d6b370" x="522.14" y="695.58" width="13.31" height="0.61"/>
                      </g>
                    </g>
                    <rect class="af83d3d8-a5a1-43fb-bc6b-e7ae3f56f46b" x="524" y="677.6" width="9.51" height="4.11"/>
                    <rect class="b27240cb-21a9-40d2-bd35-c7841aa8606f" x="524" y="677.6" width="9.51" height="1.5"/>
                  </g>
                  <path class="e01382a0-27a6-43a1-8b10-d0961cdbc415" d="M543.61,787.26c0,1.14-.69,2.06-1.53,2.06h-26c-.84,0-1.53-.92-1.53-2.06h0c0-1.13.69-2,1.53-2h26c.84,0,1.53.92,1.53,2Z"/>
                  <rect class="bc837cbb-a3e9-4770-9066-93c45b771356" x="532.64" y="785.21" width="6.85" height="4.11"/>
                  <path class="a621bfce-710a-4156-b231-a5af15f09fe3" d="M545.33,901.41l-2.89-106c-1.5.72-4,2.24-4.37,4.56-.49,3-2.74,85.16-3.18,101.44Z"/>
                  <polygon class="e1400ba2-5a4a-4482-8d07-ad783e93cfa1" points="515.42 806.14 542.74 806.14 542.7 804.61 515.46 804.61 515.42 806.14"/>
                  <polygon class="e1400ba2-5a4a-4482-8d07-ad783e93cfa1" points="514.79 829.11 543.36 829.11 543.32 827.59 514.84 827.59 514.79 829.11"/>
                  <polygon class="e1400ba2-5a4a-4482-8d07-ad783e93cfa1" points="514.16 852.09 543.99 852.09 543.95 850.57 514.2 850.57 514.16 852.09"/>
                  <polygon class="e1400ba2-5a4a-4482-8d07-ad783e93cfa1" points="513.53 875.06 544.62 875.06 544.58 873.54 513.58 873.54 513.53 875.06"/>
                  <polygon class="e1400ba2-5a4a-4482-8d07-ad783e93cfa1" points="512.91 898.05 545.24 898.05 545.2 896.52 512.95 896.52 512.91 898.05"/>
                </g>
                <g>
                  <polygon class="ab81edb4-2736-4ef6-aaa5-ee4898736b83" points="586.85 901.41 554.33 901.41 557.45 787.26 583.74 787.26 586.85 901.41"/>
                  <polygon class="a62bcfcf-45c8-4b3b-b08d-da081227bc2b" points="557.45 901.41 568.65 901.41 567.13 793.52 560.15 793.52 557.45 901.41"/>
                  <polygon class="f36357a8-90b1-44bf-a988-c500084a659c" points="573.22 901.41 561.04 901.41 565.05 791.93 569.77 791.93 573.22 901.41"/>
                  <rect class="f36357a8-90b1-44bf-a988-c500084a659c" x="557.45" y="787.26" width="26.29" height="7.66"/>
                  <g>
                    <g>
                      <polygon class="af83d3d8-a5a1-43fb-bc6b-e7ae3f56f46b" points="577.23 775.87 563.39 775.87 565.75 700.39 574.88 700.39 577.23 775.87"/>
                      <polygon class="af83d3d8-a5a1-43fb-bc6b-e7ae3f56f46b" points="575.02 705.25 574.23 679.75 566.4 679.75 565.61 705.25 575.02 705.25"/>
                      <polygon class="b27240cb-21a9-40d2-bd35-c7841aa8606f" points="573.36 708.8 575.02 705.25 574.23 679.75 573.36 679.75 573.36 708.8"/>
                      <polygon class="a7626a7b-0299-4d72-99b8-62af3f1f6e37" points="569.07 679.75 566.4 679.75 565.61 705.25 569.07 705.25 569.07 679.75"/>
                      <polygon class="aca05dc5-e1d5-4c2a-b11f-05b254dc5e0f" points="566.85 679.75 566.4 679.75 565.61 705.25 566.85 705.25 566.85 679.75"/>
                      <polygon class="aca05dc5-e1d5-4c2a-b11f-05b254dc5e0f" points="566.23 685.16 574.4 683.96 574.25 680.31 566.38 680.31 566.23 685.16"/>
                      <polygon class="a7626a7b-0299-4d72-99b8-62af3f1f6e37" points="569.49 700.39 565.75 700.39 563.39 775.87 569.49 775.87 569.49 700.39"/>
                      <polygon class="aca05dc5-e1d5-4c2a-b11f-05b254dc5e0f" points="566.78 700.39 565.75 700.39 563.39 775.87 565.68 775.87 566.78 700.39"/>
                      <polygon class="b27240cb-21a9-40d2-bd35-c7841aa8606f" points="571.57 700.39 572.87 775.87 577.23 775.87 574.88 700.39 571.57 700.39"/>
                      <rect class="a8a050c3-83c9-42e0-94f3-6403dbc1251d" x="561.04" y="772.88" width="18.54" height="12.33"/>
                      <rect class="a7626a7b-0299-4d72-99b8-62af3f1f6e37" x="561.04" y="772.88" width="6.09" height="12.33"/>
                      <rect class="aca05dc5-e1d5-4c2a-b11f-05b254dc5e0f" x="561.04" y="772.88" width="2.22" height="12.33"/>
                      <g>
                        <rect class="b98eda7d-62b1-49ec-a87f-f8f3f0d6b370" x="563.66" y="698.44" width="13.31" height="2.63"/>
                        <g>
                          <rect class="b98eda7d-62b1-49ec-a87f-f8f3f0d6b370" x="563.66" y="695.86" width="0.33" height="2.9"/>
                          <rect class="b98eda7d-62b1-49ec-a87f-f8f3f0d6b370" x="565.52" y="695.86" width="0.33" height="2.9"/>
                          <rect class="b98eda7d-62b1-49ec-a87f-f8f3f0d6b370" x="567.37" y="695.86" width="0.33" height="2.9"/>
                          <rect class="b98eda7d-62b1-49ec-a87f-f8f3f0d6b370" x="569.22" y="695.86" width="0.34" height="2.9"/>
                          <rect class="b98eda7d-62b1-49ec-a87f-f8f3f0d6b370" x="571.07" y="695.86" width="0.34" height="2.9"/>
                          <rect class="b98eda7d-62b1-49ec-a87f-f8f3f0d6b370" x="572.92" y="695.86" width="0.34" height="2.9"/>
                          <rect class="b98eda7d-62b1-49ec-a87f-f8f3f0d6b370" x="574.78" y="695.86" width="0.33" height="2.9"/>
                          <rect class="b98eda7d-62b1-49ec-a87f-f8f3f0d6b370" x="576.62" y="695.86" width="0.34" height="2.9"/>
                        </g>
                        <rect class="b98eda7d-62b1-49ec-a87f-f8f3f0d6b370" x="563.66" y="695.58" width="13.31" height="0.61"/>
                      </g>
                    </g>
                    <rect class="af83d3d8-a5a1-43fb-bc6b-e7ae3f56f46b" x="565.52" y="677.6" width="9.51" height="4.11"/>
                    <rect class="b27240cb-21a9-40d2-bd35-c7841aa8606f" x="565.52" y="677.6" width="9.51" height="1.5"/>
                  </g>
                  <path class="e01382a0-27a6-43a1-8b10-d0961cdbc415" d="M585.12,787.26c0,1.14-.68,2.06-1.52,2.06h-26c-.84,0-1.52-.92-1.52-2.06h0c0-1.13.68-2,1.52-2h26c.84,0,1.52.92,1.52,2Z"/>
                  <rect class="bc837cbb-a3e9-4770-9066-93c45b771356" x="574.15" y="785.21" width="6.85" height="4.11"/>
                  <path class="a621bfce-710a-4156-b231-a5af15f09fe3" d="M586.85,901.41l-2.89-106c-1.51.72-4,2.24-4.37,4.56-.51,3-2.74,85.16-3.18,101.44Z"/>
                  <polygon class="e1400ba2-5a4a-4482-8d07-ad783e93cfa1" points="556.93 806.14 584.25 806.14 584.21 804.61 556.97 804.61 556.93 806.14"/>
                  <polygon class="e1400ba2-5a4a-4482-8d07-ad783e93cfa1" points="556.3 829.11 584.88 829.11 584.84 827.59 556.34 827.59 556.3 829.11"/>
                  <polygon class="e1400ba2-5a4a-4482-8d07-ad783e93cfa1" points="555.68 852.09 585.5 852.09 585.46 850.57 555.71 850.57 555.68 852.09"/>
                  <polygon class="e1400ba2-5a4a-4482-8d07-ad783e93cfa1" points="555.05 875.06 586.13 875.06 586.09 873.54 555.09 873.54 555.05 875.06"/>
                  <polygon class="e1400ba2-5a4a-4482-8d07-ad783e93cfa1" points="554.42 898.05 586.76 898.05 586.72 896.52 554.46 896.52 554.42 898.05"/>
                </g>
              </g>
              <rect class="a1f71e59-45b6-4378-a429-987c00d8ffab" x="480.81" y="896.52" width="176.58" height="14.04"/>
              <rect class="bd2d56d4-866d-49a0-877e-a2177b92e71c" x="480.81" y="896.52" width="176.58" height="5.82"/>
            </g>
            <g>
              <path class="b6fa57da-939d-4cfe-b15f-bccfe70e2c0b" d="M807.39,941.37c22-2.62,44-5.5,66.07-7.6l-5.17-138.85H791.07l-5.55,148.85Q796.47,942.66,807.39,941.37Z"/>
              <path class="b56facdc-fb5f-4675-956f-50595ecc05ef" d="M873.46,933.77l-3.53-94.92-15.75,7.83-4.76,89.64Q861.44,934.94,873.46,933.77Z"/>
              <polygon class="b8ee9c50-6ab1-4e6b-87ca-c8e42455bccf" points="869.6 830.24 868.29 794.92 791.07 794.92 789.76 830.24 869.6 830.24"/>
              <path class="a783ba76-fc46-4aec-b475-9837accda5e6" d="M804.8,941.67l-2.11-143.82L791,796.25l-5.5,147.52Q795.16,942.8,804.8,941.67Z"/>
              <path class="b8c71384-0753-4415-b4a4-77aadca47310" d="M872.86,799.4c0,2.49-1.49,4.5-3.33,4.5H789.41c-1.83,0-3.32-2-3.32-4.5v-6.16c0-2.47,1.49-4.48,3.32-4.48h80.12c1.84,0,3.33,2,3.33,4.48Z"/>
              <path class="b8c71384-0753-4415-b4a4-77aadca47310" d="M872.86,866.1c0,1.45-.87,2.62-1.94,2.62H788c-1.07,0-1.94-1.17-1.94-2.62h0c0-1.44.87-2.61,1.94-2.61h82.89c1.07,0,1.94,1.17,1.94,2.61Z"/>
            </g>
            <rect class="ff72094c-a6ef-4b85-8f34-915172652dbc" x="-114.63" y="-15.54" width="1815.63" height="936.96"/>
          </g>
        </g>
        <rect class="a971d189-8967-4c5c-bd68-df710465b615" y="90" width="1600" height="720"/>
      </g>
      <g class="a493b149-bf48-4a30-ae68-35b5bb807237">
        <g>
          <g>
            <polyline class="b49c10e5-3c43-4645-88f7-fe9826360b72" points="1486.27 -36.99 3511.23 -36.99 3511.23 678.09 1486.27 678.09"/>
            <path class="ffb0eb92-6c23-45ae-ac11-6096e29f2bd1" d="M1508.94,470.3l67.34,1.73v19.38l78.79.39,3.3-261,17.48-1.33,21.14,4.17v-2.43h-3V228.6h2.48v-6.84h1.32v7.5h4.57v-6.16H1704v6.39l3.82,1.31-.37,2h-1v1.77l3.62.44v13.23l13.12-1.34v-2.43h.77v2h2.84V223.51l15.41-.67v-2.65h1.52v-6.4h-1.34v-2.41H1747v9.69h1.15v3.3h9.69v-5.07h3.8v3.3h-1.32l.19,2.87,19.4,2.43-.17,34.16,11.8,1.53v4l2.09,2.41L1791.29,454l13-.88,8,.21L1813,432l8.53-.89V419.39l36.35-.46v-4.84l27.59-.25V409h3.07V380.78l2-2.32V363.81h8.29V352.56h3.4v1.1h4.2V335.81l1,.87v3.54l2.3.44V342h2.85l.19-2.21,1.53-.44v2.21l4,.22.57-2,2.3-.22.56,2,4.57.21L1926,340l2.1.24v1.31h3.8v-2.65l1-.44.19-3.52h1.71l.39,6.61,4.75.21.2-5.07,1.15.22.55,4.85,3.43,1.1.19-5.95h.76l.19,6.16,3.61.68.76-1.77v-2.43l1.9.22.19,4.63-.75,1.32.18,10.36,6.29.44,1.14,10.36,1,.22.76,1.75,3.42-.21.17-18.74,1.72.22.58,19.4,16.94.87-1.68,90.37h2.29v2l.78.68-.19,2.63-1.15.45-.37,19.18,2.28.66v2.41h-1.52l-.19,7.06s11.73-.21,12.18-.23c-.57,0,.38,2.65.38,2.65l6.66.21-1,2.63-1.15.68h-1.7l.77,13,1.53,1.09v14.33H2005l1.24-169.72,19-3.77V346.53l21.88-3.77v-1.55h5.71l.77,1.11,51.94,2.39V356l20.95,1.76-.38-19.84,7.2-2.65,3-35.93,63.76.83,4.19,37.92,11.81.21-.21-4.18,2.11.2,2.06-30.42,8.58-1.32-.42-60.18,25.31.2,16.17,2-.05-86.42,11.61-3.75h6.47v-3.53h1.13v3.09l17.33-.67v-4h1.14v3.52l10.28-.66v2.21h2.09v-2h12.95l15.79,6.17,21.68-1.78,5.53,3.08-2,182.07,15.41,2.42.55-26.68,8.19.23V295.59l21.31-2.66-.59-29.76,2.66-1.77,10.86-1.32,0-29.33,2.09-1.31s9.71-1.78,9.13-1.78,28.15-25.13,28.15-25.13h5.71l28.36,24.65,1.35.44.38,1.33,8.94,1.75-.19,30.2,13.71,2-.16,49.6,27.38.64.78-8.38H2559l.38,5.5h1.34l-.18,2.88,49.08,1.28.19,7.94,15.25-1.76.54-15.22,10.85-.45,4.18-12.34.38-5.74h2.46l1,4.64h4.17v-1.1h4.77v1.31l25.88-3.54v-1.77H2678v-3.74h8.16v5.73l6.66.23v-2.44l2.85-3.31,2.48.22v3.3l-1.53.24.77,2.41,1.53.22.57,4.63-.18,1.75,1.34-.2v4.18h1.13v3.08h11.79l-.9,93.47h-7.8l-.17,30,4.55.45,0,36.37,4,.2V441.31l2.28-.44.19-7.06,20,1.32v-2.21h20.15v2h8.76l.11-117.25,1.33-1.11,2.49-.22.19-1.11,1.9-.43.55-.89,5.9-.22.2-1.32,4.2-.24v-13l6.64-3.75,40.94,1.51v-1.53h4.55v1.32l19-.23.59,18.08,17.13.21L2869.67,530l3.07-.23.11-146.8,1.34-.22.19-3.3,11.22.21v2.86h3.23v-1.77h11v1.55h1.92l-.43-76.49,15.61-7.51-.21-12.78,14.08-7.73,42.64.65v5.93l2.84-.2,3.61-1.55v-2h1.52l1,1.1,9.89-.24v-2.2h-1l-2.18-2.53,1.71-2,2.37-2.78h2.87v-6.82h2.08v7.28l24-.47v-2h2.1v2.87l3.23,1.54.19,2.41-2.48,4.42.4,9.91,1.9,1.33h4.76l-.2.88,1.73.21v14.55h9.87v-2l1.72-2,2.67,2.21.42,73.17,2.86.88V397l8.17.65-.18,17.41,3.62.66.38,9,2.09.87.2,33.73,1.34.22-.14,81.55.74-.22.59-2.19h6.27v1.75c0,.88.58.88.58.88l.19,2.2,12-.22-.58-12.12s-2.09-2.43-3.23-2.65L3083,527h4.56v-1.55l4.37.21v.66l1.53.89.19.66h3.8l.39-1.11a5,5,0,0,1,2.09-1.32c1.34-.44,2.08,1.77,2.08,1.77h4.38l-.57-13.44,2.29-.44-.22-51.81,3.63-3.75h12.17L3124,328l4-.23V315.84l2.64.21.2,2.43,1.7-.44-.19-2.21,18.07.21,7.81-26,.38-4.42.76-.87.93-7.06,1.15,7.06,1.15,1.31.58,4,6.86,27.09,43,1.09,5.73.21,5.51,5.07.4,27.1,1.72.46.76,2.19,1.72.23-.14,95.88H3242l8.57,6.6-.18,13.89,4,.66-.19,13.45,7.06.21,0,40.11h3.41v-5.51l20.17-1.55v-9.47l1.73-2h2.65l.38-20.5,7.22-5.53h3.62v-2h-1.92v-17l9.53-6,42.44.63v17.85l-2.11,2.21.2,3.52h11.61l.19,8.62-1.13.87L3360,490l13.53,12.56,7.8.21v19.62h9.13l0,48.48h15.61l-.07-129.82h15.4v-2.21h2.11v2.43h2.64v-2h1.73v2h4.74v-3.74h1.14v3.52l17.89.87v-2.87l1.53-.66.58.66.36,1.77h2.68v-4.42H3461v4h2.86V438h4.56v2.2l.78-.22,2.67-2.66V441l24.61.55.1,195.17-2012.11,1.3"/>
            <polyline class="a3907b71-373c-46e8-af54-4734a2dc9c30" points="1503.86 634.11 3498.36 637.58 3498.36 735.83 1483.51 735.83"/>
            <polyline class="a1a4c599-1731-4bb4-a85b-7068278b372a" points="1486.27 705.69 3503.7 711.21 3514.91 920.99 1486.27 920.99"/>
            <polyline class="bad16bab-ea39-4d35-81fe-3424cf39b4dd" points="1500.67 683.34 3496.52 691.02 3496.52 714.79 1500.06 706.02"/>
            <line class="f480990a-47d8-4f91-ac22-27d5be43067f" x1="3498.36" y1="671.38" x2="1506.49" y2="662.93"/>
            <polyline class="bad16bab-ea39-4d35-81fe-3424cf39b4dd" points="1507.11 634.32 3497.44 637.29 3497.44 646.47 1506.49 643.09"/>
            <polygon class="f61900b9-adc5-4d81-9105-59815be9bf34" points="1624.5 644.04 1624.5 634.45 1559.92 634.34 1559.92 643.88 1624.5 644.04"/>
            <polyline class="aedb2c9c-ffed-472a-a5ee-761d9d22951d" points="1459.31 807.54 1662.72 807.54 1674.72 803.11 1478.45 802.75"/>
            <rect class="a971d189-8967-4c5c-bd68-df710465b615" x="1508.33" y="5.2" width="1985.44" height="893.45"/>
          </g>
          <rect class="ff72094c-a6ef-4b85-8f34-915172652dbc" x="1488.44" y="-16.81" width="2023.12" height="933.63"/>
        </g>
      </g>
    </g>
  </g>
</svg>
