<?xml version="1.0" encoding="utf-8"?>
<!-- Generator: Adobe Illustrator 25.2.3, SVG Export Plug-In . SVG Version: 6.00 Build 0)  -->
<svg version="1.1" id="Layer_1" xmlns="http://www.w3.org/2000/svg" xmlns:xlink="http://www.w3.org/1999/xlink" x="0px" y="0px"
	 viewBox="0 0 1600 900" style="enable-background:new 0 0 1600 900;" xml:space="preserve">
<style type="text/css">
	.st0{clip-path:url(#SVGID_2_);}
	.st1{fill:#EC008C;}
	.st2{fill:#F400F4;}
	.st3{fill:#7AC943;}
	.st4{fill:#A62CA2;}
	.st5{fill:#29ABE2;}
	.st6{fill:#FF9CC2;}
	.st7{fill:#FBBE00;}
	.st8{fill:#581600;}
	.st9{fill:#F8AF00;}
	.st10{fill:#E84F35;}
	.st11{fill:#FFCD00;}
	.st12{fill:#4E3F87;}
	.st13{fill:#312782;}
	.st14{fill:#89D1F5;}
</style>
<g>
	<defs>
		<rect id="SVGID_1_" width="1600" height="900"/>
	</defs>
	<clipPath id="SVGID_2_">
		<use xlink:href="#SVGID_1_"  style="overflow:visible;"/>
	</clipPath>
	<g class="st0">
		<path class="st1" d="M872.1,763.2c6.6,0,13.3-5.3,13.5-12.2c0.3-7-6.1-11.6-12.6-11.6s-13.3,5.3-13.5,12.2
			C859.2,758.6,865.6,763.2,872.1,763.2L872.1,763.2z"/>
		<path class="st2" d="M1145.9,125.2c6,0,12-4.8,12.2-11s-5.5-10.5-11.4-10.5s-12,4.8-12.2,11C1134.3,121.1,1140,125.2,1145.9,125.2
			z"/>
		<path class="st3" d="M410.1,368c6,0,12-4.8,12.2-11s-5.5-10.5-11.4-10.5s-12,4.8-12.2,11S404.1,368,410.1,368z"/>
		<path class="st3" d="M1322.3,226.2c6,0,12-4.8,12.2-11c0.2-6.4-5.5-10.5-11.4-10.5s-12,4.8-12.2,11
			C1310.7,222,1316.4,226.2,1322.3,226.2z"/>
		<path class="st4" d="M871,283.2c6,0,12-4.8,12.2-11s-5.5-10.5-11.4-10.5s-12,4.8-12.2,11S865.1,283.2,871,283.2z"/>
		<path class="st2" d="M1323.2,387.5c6,0,12-4.8,12.2-11s-5.5-10.5-11.4-10.5s-12,4.8-12.2,11S1317.3,387.5,1323.2,387.5
			L1323.2,387.5z"/>
		<path class="st3" d="M716.6,741.7c6,0,12-4.8,12.2-11s-5.5-10.5-11.4-10.5s-12,4.8-12.2,11S710.7,741.7,716.6,741.7L716.6,741.7z"
			/>
		<path class="st3" d="M378.9,751.1c6,0,12-4.8,12.2-11s-5.5-10.5-11.4-10.5s-12,4.8-12.2,11S372.9,751.1,378.9,751.1L378.9,751.1z"
			/>
		<path class="st3" d="M384.9,407.1c2.9,0,5.3-2.1,5.6-5c0.1-2.9-2.5-4.8-5.2-4.8c-2.9,0-5.3,2.1-5.6,5
			C379.5,405.2,382.2,407.1,384.9,407.1L384.9,407.1z"/>
		<path class="st2" d="M1134.3,334.1c6,0,12-4.8,12.2-11s-5.5-10.5-11.4-10.5s-12,4.8-12.2,11S1128.4,334.1,1134.3,334.1z"/>
		<path class="st1" d="M1109.1,373.1c2.9,0,5.3-2.1,5.6-5c0.1-2.9-2.5-4.8-5.2-4.8c-2.9,0-5.3,2.1-5.6,5
			C1103.8,371.2,1106.4,373.1,1109.1,373.1z"/>
		<path class="st4" d="M198.1,376.2c2.9,0,5.3-2.1,5.6-5c0.1-2.9-2.5-4.8-5.2-4.8c-2.9,0-5.3,2.1-5.6,5
			C192.8,374.3,195.4,376.2,198.1,376.2z"/>
		<path class="st3" d="M188.4,607.4c2.9,0,5.3-2.1,5.6-5c0.1-2.9-2.5-4.8-5.2-4.8c-2.9,0-5.3,2.1-5.6,5
			C183,605.5,185.7,607.4,188.4,607.4z"/>
		<path class="st1" d="M182.8,298.8c-0.2,2.9,1.8,5.4,4.6,5.9c2.9,0.3,5-2.2,5.1-4.9c0.2-2.9-1.8-5.4-4.6-5.9
			C185,293.6,182.9,296.1,182.8,298.8z"/>
		<path class="st3" d="M794.6,460.3c2.9,0,5.3-2.1,5.6-5c0.1-2.9-2.5-4.8-5.2-4.8c-2.9,0-5.3,2.1-5.6,5
			C789.3,458.4,791.9,460.3,794.6,460.3L794.6,460.3z"/>
		<path class="st3" d="M532.7,484.5c2.9,0,5.3-2.1,5.6-5c0.1-2.9-2.5-4.8-5.2-4.8c-2.9,0-5.3,2.1-5.6,5
			C527.4,482.6,530,484.5,532.7,484.5z"/>
		<path class="st3" d="M882.2,323.4c2.9,0,5.3-2.1,5.6-5c0.1-2.9-2.5-4.8-5.2-4.8c-2.9,0-5.3,2.1-5.6,5
			C876.9,321.5,879.5,323.4,882.2,323.4z"/>
		<path class="st1" d="M426.8,775.6c2.9,0,5.3-2.1,5.6-5c0.1-2.9-2.5-4.8-5.2-4.8c-2.9,0-5.3,2.1-5.6,5
			C421.5,773.7,424.1,775.6,426.8,775.6z"/>
		<path class="st1" d="M483.9,98.3c2.9,0,5.3-2.1,5.6-5c0.1-2.9-2.5-4.8-5.2-4.8c-2.9,0-5.3,2.1-5.6,5
			C478.5,96.4,481.1,98.3,483.9,98.3z"/>
		<path class="st4" d="M681.1,717.4c2.9,0,5.3-2.1,5.6-5c0.1-2.9-2.5-4.8-5.2-4.8c-2.9,0-5.3,2.1-5.6,5
			C675.7,715.5,678.4,717.4,681.1,717.4z"/>
		<path class="st3" d="M1279.1,278.3c-6,0.8-11.3,6.2-10.8,12.4s6.8,9.7,12.6,9s11.3-6.2,10.8-12.4S1284.9,277.6,1279.1,278.3
			L1279.1,278.3z"/>
		<path class="st4" d="M1299.1,303.3c-2.7,0.3-5.2,2.8-4.9,5.7s3.1,4.5,5.8,4.1s5.2-2.8,4.9-5.7S1301.8,303,1299.1,303.3z"/>
		<path class="st3" d="M1272.2,359.9c-2.9,0.3-5,2.8-4.9,5.7c0.3,2.9,3.1,4.5,5.8,4.1c2.9-0.3,5-2.8,4.9-5.7
			C1277.8,361.2,1274.9,359.6,1272.2,359.9z"/>
		<path class="st1" d="M317.5,98.6c4.7-3.7,6.5-11.2,2.8-16.2s-10.8-4.9-15.5-1.2s-6.5,11.2-2.9,16.2S312.8,102.3,317.5,98.6
			L317.5,98.6z"/>
		<path class="st3" d="M287.5,87.5c2.3-1.8,2.8-5,1.3-7.4c-1.7-2.3-4.9-2.2-7.1-0.6s-3,5.1-1.3,7.4S285.4,89.2,287.5,87.5z"/>
		<path class="st4" d="M1242.7,75.2c3.1,1.6,7.5,0.7,9.3-2.5s-0.1-6.9-3.2-8.5s-7.5-0.7-9.3,2.5
			C1237.8,69.9,1239.6,73.6,1242.7,75.2z"/>
		<path class="st4" d="M1004.4,185.6c2.9,0,5.3-2.1,5.6-5c0.1-2.9-2.5-4.8-5.2-4.8c-2.9,0-5.3,2.1-5.6,5
			C999.1,183.7,1001.7,185.6,1004.4,185.6L1004.4,185.6z"/>
		<path class="st3" d="M607.3,229.7c3.9,0,7.8-3.1,8-7.1s-3.6-6.8-7.4-6.8s-7.8,3.1-8,7.1S603.5,229.7,607.3,229.7L607.3,229.7z"/>
		<path class="st3" d="M616,256.7c2.9,0,5.3-2.1,5.6-5c0.1-2.9-2.5-4.8-5.2-4.8s-5.5,2.2-5.6,5S613.3,256.7,616,256.7z"/>
		<path class="st5" d="M543.2,524c3.6,0,7.2-2.9,7.3-6.6s-3.3-6.3-6.8-6.3s-7.2,2.9-7.3,6.6S539.6,524,543.2,524z"/>
		<path class="st3" d="M177.1,431.2c3.6,0,7.2-2.9,7.3-6.6s-3.3-6.3-6.9-6.3s-7.2,2.9-7.3,6.6S173.5,431.2,177.1,431.2z"/>
		<path class="st3" d="M1284.8,144.3c2.9,0,5.3-2.1,5.6-5c0.1-2.9-2.5-4.8-5.2-4.8c-2.9,0-5.3,2.1-5.6,5
			C1279.5,142.4,1282.1,144.3,1284.8,144.3z"/>
		<path class="st3" d="M1170,85.2c2.9,0,5.3-2.1,5.6-5c0.1-2.9-2.5-4.8-5.2-4.8c-2.9,0-5.3,2.1-5.6,5
			C1164.7,83.3,1167.3,85.2,1170,85.2L1170,85.2z"/>
		<path class="st3" d="M989.3,159.2c6,0,12-4.8,12.2-11c0.2-6.4-5.5-10.5-11.4-10.5s-12,4.8-12.2,11
			C977.7,155.1,983.4,159.2,989.3,159.2z"/>
		<path class="st3" d="M274.2,186c3.6-16.1,4.5-29.6,8.9-45c3.4,9.9,12.5,43.9,12.5,43.9s35.1,3,44.9,4.1
			c-15.3,6.8-46.2,13.9-46.2,13.9s-4,22.4-9.4,42.1c-3.9-13.5-6.9-27.3-9-41.2c0,0-29.6-2.7-47.4-8.1
			C243.8,192.2,256.3,189.5,274.2,186z"/>
		<path class="st1" d="M210.9,225.4c1.5-6.6,1.8-12,3.6-18.3c1.4,4,5.1,17.9,5.1,17.9s14.3,1.2,18.3,1.7c-6.2,2.8-18.8,5.7-18.8,5.7
			s-1.6,9.1-3.8,17.1c-1.6-5.5-2.8-11.1-3.6-16.8c0,0-12.1-1.1-19.4-3.3C198.5,227.9,203.6,226.8,210.9,225.4z"/>
		<path class="st3" d="M438.3,63c1.5-6.6,1.8-12,3.6-18.3c1.4,4,5.1,17.9,5.1,17.9s14.3,1.2,18.3,1.7c-6.2,2.8-18.8,5.8-18.8,5.8
			s-1.6,9.1-3.8,17.2c-1.6-5.5-2.8-11.2-3.7-16.8c0,0-12-1.1-19.3-3.3C425.9,65.6,431,64.5,438.3,63z"/>
		<path class="st3" d="M517,233.5c1.1-4.9,1.4-9,2.7-13.7c1,3,3.8,13.4,3.8,13.4s10.7,0.9,13.7,1.3c-4.7,2.1-14.1,4.3-14.1,4.3
			s-1.2,6.8-2.9,12.9c-1.2-4.1-2.1-8.3-2.7-12.6c0,0-9-0.8-14.5-2.5C507.7,235.4,511.6,234.6,517,233.5z"/>
		<path class="st4" d="M799.4,82c1.5-6.6,1.8-12,3.6-18.3c1.4,4,5.1,17.9,5.1,17.9s14.3,1.2,18.3,1.7c-6.2,2.8-18.8,5.7-18.8,5.7
			s-1.6,9.1-3.8,17.1c-1.6-5.5-2.8-11.1-3.7-16.8c0,0-12-1.1-19.3-3.3C787,84.5,792.1,83.4,799.4,82z"/>
		<path class="st1" d="M1020.9,752.5c2.3-10.5,2.9-19.3,5.8-29.3c2.2,6.4,8.2,28.6,8.2,28.6s22.8,1.9,29.3,2.7
			c-10,4.4-30.1,9.1-30.1,9.1s-2.6,14.6-6.1,27.4c-2.5-8.8-4.5-17.8-5.8-26.8c0,0-19.3-1.8-30.9-5.3
			C1001.1,756.5,1009.3,754.8,1020.9,752.5z"/>
		<path class="st3" d="M1095.8,818.3c2.3-10.5,2.9-19.3,5.8-29.3c2.2,6.4,8.2,28.6,8.2,28.6s22.9,1.9,29.3,2.7
			c-10,4.4-30.1,9.1-30.1,9.1s-2.6,14.6-6.1,27.4c-2.5-8.8-4.5-17.7-5.9-26.8c0,0-19.3-1.8-30.9-5.3
			C1076,822.4,1084.2,820.6,1095.8,818.3z"/>
		<path class="st3" d="M1239.3,662.4c1.9-8.5,2.3-15.5,4.7-23.7c1.8,5.2,6.6,23.1,6.6,23.1s18.5,1.6,23.6,2.2
			c-8,3.6-24.3,7.3-24.3,7.3s-2.1,11.8-5,22.2c-2-7.1-3.6-14.4-4.7-21.7c0,0-15.6-1.4-25-4.2
			C1223.3,665.7,1229.9,664.3,1239.3,662.4z"/>
		<path class="st3" d="M368.1,812.5c3.3-10.2,4.7-18.8,8.5-28.5c1.6,6.6,5.4,29.1,5.4,29.1s22.4,4,28.7,5.4
			c-10.3,3.4-30.6,6.2-30.6,6.2s-4,14.2-8.6,26.5c-1.7-8.9-2.8-18-3.3-27.1c0,0-18.9-3.5-30.1-8.1
			C348.1,814.6,356.4,813.7,368.1,812.5z"/>
		<path class="st3" d="M197.9,144.5c2.2-10,2.8-18.3,5.5-27.9c2.1,6.1,7.8,27.3,7.8,27.3s21.8,1.8,27.9,2.6
			c-9.5,4.2-28.7,8.7-28.7,8.7s-2.5,13.9-5.8,26.1c-2.4-8.4-4.3-16.9-5.6-25.6c0,0-18.3-1.7-29.5-5
			C179,148.4,186.8,146.7,197.9,144.5z"/>
		<path class="st3" d="M1179.2,249.9c0.4-4.7-0.4-9.6-1.1-14.2c-0.3-2.7-0.7-5.4-1.2-8c7-1.9,14-3.8,21-5.6c0.8-0.3,1.3-1,1.5-1.8
			c0.1-1-0.4-2-1.4-2.5c-4.3-2.3-8.7-4.3-13.3-5.9c-2.6-1-5.3-2-7.9-3c0.2-2.6,0.3-5.2,0.4-7.8c0.4-5.2,0.4-10.3,0-15.5
			c-0.2-1.3-1.4-2.2-2.7-2c-0.6,0.1-1.1,0.4-1.4,0.8c-4.7,5.8-9.1,11.8-14.5,17c-7.5,0.1-14.9-0.7-22.4-0.9c-2.3-0.1-3.6,2.4-1.8,4
			c5.3,4.8,10.1,10.1,15.2,14.9c-4.7,5.7-9.2,11.6-13.6,17.6c-0.8,1-0.6,2.5,0.5,3.3c0.6,0.5,1.4,0.6,2.2,0.3
			c7.5-2.2,14.8-4.7,22-7.7c4.6,6.1,9.2,12.2,14.2,18C1176.2,252.3,1179.1,252.1,1179.2,249.9z M1160.8,228
			c-5.5,2.1-11.1,4.3-16.7,6.2c3.4-4.6,6.9-9.1,10.7-13.4c0.8-1,0.6-2.4-0.3-3.3c-4.3-3.9-8.3-8.1-12.4-12.2
			c6,0.3,11.9,0.8,17.9,0.6c0.6,0,1.2-0.3,1.5-0.8l0,0c4.1-4,8-8.4,11.5-13c0,2.7-0.1,5.5-0.3,8.2c-0.1,3.3-0.3,6.5-0.5,9.7
			c-0.1,1,0.4,2,1.4,2.5c3.1,1.1,6.1,2.3,9.1,3.5c2.6,1,5.3,2.1,7.9,3.2c-5.7,1.5-11.4,3-17.1,4.6c-1,0.4-1.6,1.4-1.5,2.4
			c0.5,3.2,1,6.4,1.4,9.7c0.3,2.3,0.6,4.6,0.8,6.9c-3.7-4.6-7.2-9.3-10.8-14C1162.9,228,1161.8,227.6,1160.8,228z"/>
		<path class="st1" d="M749.2,151.3c1.6-1.4,2.7-3.3,2.9-5.4l0.3-9.5c0-1.9,1-2.2,2.2-0.8l6.3,7.6c1.4,1.5,3.5,2.1,5.5,1.7l9.7-2.4
			c1.8-0.4,2.3,0.3,1.1,1.8l-5.5,6.7c-1.2,1.4-1.1,3.6,0.2,4.9l7.2,7c1.3,1.3,0.9,2.1-0.9,1.8l-10.3-1.6c-2-0.2-3.9,0.8-5,2.5
			l-5.7,9c-1,1.6-1.8,1.4-1.8-0.5l-0.3-10.9c0-1.9-1.5-3.4-3.4-3.5l-9.7-0.5c-1.8-0.1-2.1-1-0.6-2.1L749.2,151.3z"/>
		<path class="st2" d="M620,150.4c1.3-1.1,2.2-2.7,2.3-4.4l0.3-7.8c0-1.5,0.8-1.8,1.8-0.6l5.1,6.2c1.1,1.2,2.8,1.7,4.5,1.4l7.9-1.9
			c1.5-0.4,1.9,0.3,0.9,1.4l-4.5,5.5c-1,1.2-0.9,2.9,0.2,4l5.9,5.7c1.1,1.1,0.8,1.7-0.7,1.5l-8.4-1.3c-1.6-0.1-3.2,0.6-4.1,2
			l-4.6,7.4c-0.8,1.3-1.4,1.1-1.4-0.4l-0.2-8.9c0-1.5-1.2-2.8-2.8-2.9l-7.9-0.4c-1.5-0.1-1.7-0.8-0.5-1.7L620,150.4z"/>
		<path class="st5" d="M565.9,786.9c8.1-8.9,10.9-23.1,5-33.8c-2.8-5.1-7.7-8.7-13.4-10c-5.3-1-10.8,0-15.5,2.7
			c-9.7,5.5-16.9,18.3-10.5,28.8c3,4.7,8.2,7.7,13.8,7.8c6.3,0.1,12.2-3.2,15.3-8.6c1.8-3.2,2.2-6.9,1.3-10.4
			c-1.2-3.6-4.3-6.1-8.1-6.5c-4.2-0.5-8.2,1.7-10.1,5.5c-1.8,3.5-0.9,7.9,2.3,10.3c1.8,1.5,5.8-2.2,3.6-3.9c-1.9-1.4-2.5-4-1.3-6.1
			c0.4-0.6,1-1.1,1.7-1.2c1.3-0.2,2.6,0,3.8,0.6c4.6,2.2,4.3,8.7,1.8,12c-3.1,4-8.8,4.9-13.4,3c-5-2.1-8.3-6.9-8.5-12.2
			c0-2.5,0.6-5,1.7-7.3c1.1-2.1,2.5-4,4.2-5.5c3.5-3.2,8.1-5,12.9-4.8c5.4,0.2,10.1,3.6,13,8c3.2,4.9,3.8,11,3,16.7
			c-0.8,4.9-2.9,9.4-6.2,13.1c-0.7,0.8-1.3,2.3-0.1,3S565.1,787.8,565.9,786.9L565.9,786.9z"/>
		<path class="st4" d="M604.8,797.3c-11.7,6-20,19.4-18.1,32.7c0.9,6.3,4.5,11.9,9.8,15.4c5.1,3.1,11.1,4.2,16.9,3.2
			c12.1-1.8,24.3-12.1,21.8-25.4c-1.3-6-5.4-11-11.1-13.3c-6.4-2.5-13.7-1.4-19,2.9c-3,2.5-5,6.1-5.4,10c-0.2,4.1,2.1,7.9,5.7,9.7
			c4.1,2.1,9,1.4,12.4-1.7c3.2-2.9,3.9-7.7,1.6-11.4c-1.3-2.3-6.7,0-5.2,2.6c1.4,2.2,1,5.1-1,6.8c-0.6,0.5-1.4,0.7-2.2,0.6
			c-1.4-0.3-2.7-1-3.7-2.1c-3.8-4-1.1-10.5,2.8-12.9c4.7-2.9,10.9-1.6,14.8,2.1c4.3,4,5.8,10.2,3.9,15.8c-1,2.6-2.5,4.9-4.6,6.8
			c-1.9,1.7-4,3.1-6.4,4c-4.8,1.9-10.2,1.9-15-0.1c-5.5-2.3-8.9-7.6-10.2-13.2c-1.4-6.2,0.3-12.7,3.4-18.1c2.6-4.7,6.6-8.5,11.3-11
			c1-0.5,2.2-1.9,1.3-3S605.9,796.6,604.8,797.3L604.8,797.3z"/>
		<path class="st2" d="M327.8,563.4c14.4,4.8,32,0.8,41.5-11.5c4.4-5.8,6.2-13.3,4.7-20.5c-1.4-6.6-5.7-12.5-11.1-16.5
			c-11.3-8.4-29.6-10.1-38.5,2.6c-4,5.8-4.5,13.4-1.9,19.9c3.1,7.3,9.9,12.4,17.8,13.3c4.5,0.5,9-0.9,12.6-3.7
			c3.5-3.2,4.8-8.1,3.4-12.6c-1.6-5-6.1-8.6-11.4-8.8c-5-0.3-9.5,3-10.6,7.9c-0.8,2.9,5.4,5.5,6.4,2.2c0.7-2.9,3.4-4.9,6.4-4.6
			c0.9,0.1,1.7,0.6,2.2,1.3c0.9,1.4,1.4,3,1.3,4.7c-0.2,6.4-7.8,9.4-12.9,8.1c-6.2-1.6-10.1-7.6-10.2-13.9c-0.1-6.8,3.7-13,9.8-15.9
			c2.9-1.3,6.1-1.9,9.2-1.7c2.9,0.2,5.8,0.8,8.5,2c5.5,2.4,9.8,6.8,12.1,12.4c2.5,6.3,1,13.5-2.6,19c-4,6.2-10.7,10-17.6,11.9
			c-6,1.6-12.3,1.4-18.2-0.5c-1.3-0.4-3.3-0.3-3.5,1.4S326.4,562.9,327.8,563.4L327.8,563.4z"/>
		<path class="st1" d="M269.2,685.5c-5.3,5.5-7.2,14.4-3.7,21.3c1.7,3.3,4.7,5.6,8.3,6.5c3.4,0.7,6.9,0.2,9.9-1.5
			c6.2-3.3,11-11.2,7.1-18c-1.8-3-5.1-5-8.6-5.2c-4-0.2-7.7,1.8-9.8,5.2c-1.2,2-1.5,4.3-1,6.5c0.7,2.3,2.6,3.9,5,4.2
			c2.6,0.4,5.2-0.9,6.5-3.3c1.2-2.2,0.7-4.9-1.3-6.5c-1.1-1-3.7,1.3-2.4,2.4c1.2,0.9,1.5,2.6,0.7,3.9c-0.2,0.4-0.6,0.7-1.1,0.7
			c-0.8,0.1-1.7,0-2.4-0.4c-2.9-1.4-2.6-5.6-0.9-7.6c2.1-2.4,5.6-3.1,8.5-1.7c3.1,1.4,5.1,4.5,5.1,7.9c0,1.6-0.5,3.2-1.2,4.6
			c-0.7,1.3-1.6,2.5-2.7,3.4c-2.3,2-5.2,3-8.2,2.8c-3.4-0.4-6.4-2.3-8.1-5.3c-1.8-3.2-2.4-7-1.6-10.5c0.6-3.1,2-5.9,4.1-8.1
			c0.5-0.5,0.8-1.4,0.1-1.9C270.6,684.6,269.7,684.8,269.2,685.5L269.2,685.5z"/>
		<path class="st5" d="M361.8,449.9c-5.3,5.5-7.2,14.4-3.7,21.3c1.7,3.3,4.7,5.7,8.3,6.5c3.4,0.7,6.8,0.2,9.9-1.5
			c6.2-3.3,11-11.2,7.1-18c-1.8-3-5.1-5-8.6-5.1c-4-0.2-7.7,1.8-9.8,5.2c-1.2,2-1.5,4.3-1,6.5c0.7,2.3,2.6,3.9,5,4.2
			c2.6,0.4,5.2-0.9,6.5-3.3c1.2-2.2,0.7-4.9-1.3-6.5c-1.1-1-3.7,1.3-2.3,2.4c1.2,0.9,1.5,2.6,0.7,3.9c-0.2,0.4-0.6,0.7-1.1,0.7
			c-0.8,0.1-1.7,0-2.4-0.4c-2.8-1.4-2.6-5.5-0.9-7.6c2.1-2.4,5.6-3,8.5-1.6c3.1,1.4,5.1,4.5,5.1,7.9c0,1.6-0.4,3.2-1.2,4.5
			c-0.7,1.3-1.6,2.5-2.7,3.4c-2.3,2-5.2,3-8.2,2.8c-3.4-0.4-6.4-2.3-8.1-5.3c-1.8-3.2-2.4-7-1.6-10.5c0.6-3.1,2-5.9,4.1-8.1
			c0.5-0.5,0.8-1.4,0.1-1.9C363.3,449,362.4,449.3,361.8,449.9L361.8,449.9z"/>
		<path class="st1" d="M199.8,510.5c-2.1-1.3-5.2-0.9-7.2,0.3c-0.5,0.3-1,0.7-1.4,1.1c-0.5-0.6-1-1.3-1.3-2
			c-0.7-1.4-0.9-3.1-0.6-4.6c0-0.2,0.1-0.4,0.2-0.6c1.7,1.3,3.9,2.1,6.1,2.1c2.5,0,6.2-1.3,5.2-4.5c-0.9-2.6-4.5-2.8-6.7-2.5
			c-1.4,0.2-2.8,0.7-4.1,1.3c-1.1-1.8-1.6-4-1.4-6.2c0.5,0.3,1.1,0.5,1.6,0.7c3.2,1.3,7.2,1.5,10.1-0.7c2-1.5,2.6-4.3,0.7-6.1
			c-2.4-2.3-6.6-2.2-9.5-1.1c-1.7,0.7-3.2,1.9-4.2,3.4c-1.1-0.9-1.9-2-2.5-3.2c-0.5-1.1-3.3-0.3-2.8,0.8c0.9,2,2.4,3.7,4.2,4.9
			c-0.8,2.9-0.5,6,1.1,8.6c0.2,0.3,0.3,0.5,0.5,0.7c-0.4,0.5-0.7,1.1-0.9,1.7c-1,3.2-0.1,6.7,2.3,9c0.2,0.2,0.5,0.4,0.7,0.6
			c-1.7,4.4,0.6,10.8,3.3,14.1c0.7,0.9,3.4-0.1,2.6-1.2c-2.3-2.9-3.5-6.5-3.5-10.2c0-0.5,0.1-1,0.1-1.4c2.2,0.6,4.5,0.3,6.5-0.7
			c1-0.4,1.9-1.2,2.2-2.3C201.1,511.6,200.6,510.8,199.8,510.5z M190,491.2c1.6-2.1,4.5-2.9,7-2c2.1,0.6,3.2,2.9,1.6,4.5
			c-0.9,0.8-2.1,1.1-3.3,1c-1.8-0.2-3.5-0.7-5-1.6c-0.3-0.2-0.7-0.4-1-0.6C189.5,492,189.7,491.6,190,491.2z M191.4,502.4
			c1.6-0.9,4.6-1.6,6.2-0.2c0.3,0.3,0.5,0.7,0.6,1.2c0,0.2,0,0.4,0,0.6c0,0.2-0.1,0.2-0.2,0.4c0.2-0.2-0.1,0.1-0.1,0.1l0,0l-0.1,0
			h-0.1h-0.1l-0.3,0.1c-0.6,0.1-1.3,0.1-1.9,0c-1.5-0.2-3-1-4.1-2.1L191.4,502.4z M197.8,513.1c-0.2,0.1-0.5,0.3-0.7,0.3
			c-1.3,0.6-2.8,0.5-4.1-0.2c0.2-0.4,0.5-0.7,0.8-1c0.3-0.3,0.7-0.5,1.1-0.6c0.4-0.2,0.9-0.2,1.4-0.1c0.8,0,1.5,0.4,1.9,1
			c-0.1-0.1,0,0.2,0,0.1c0,0,0,0.1,0,0.1c0,0.1-0.1,0.2,0,0C198,513.1,198.1,513,197.8,513.1L197.8,513.1z"/>
		<path class="st1" d="M386,647.5c-2.1-1.3-5.2-0.9-7.2,0.3c-0.5,0.3-1,0.7-1.4,1.1c-0.5-0.6-1-1.3-1.3-2c-0.7-1.4-0.9-3.1-0.6-4.6
			c0-0.2,0.1-0.4,0.2-0.6c1.7,1.3,3.9,2.1,6.1,2.1c2.5,0,6.2-1.3,5.2-4.5c-0.9-2.6-4.5-2.8-6.7-2.5c-1.4,0.2-2.8,0.7-4.1,1.3
			c-0.4-0.7-0.8-1.4-1-2.2c-0.4-1.3-0.5-2.6-0.3-3.9c0.5,0.3,1.1,0.5,1.6,0.7c3.2,1.3,7.2,1.5,10.1-0.7c2-1.5,2.6-4.3,0.7-6.1
			c-2.4-2.3-6.6-2.2-9.5-1.1c-1.7,0.7-3.2,1.9-4.2,3.4c-1.1-0.9-1.9-2-2.5-3.2c-0.5-1.2-3.3-0.3-2.8,0.8c0.9,2,2.4,3.7,4.2,4.9
			c-0.8,2.9-0.4,6,1.1,8.6c0.1,0.3,0.3,0.5,0.5,0.8c-0.4,0.5-0.7,1.1-0.9,1.7c-1,3.2-0.1,6.7,2.3,9c0.2,0.2,0.5,0.4,0.7,0.6
			c-1.7,4.4,0.6,10.8,3.2,14.1c0.7,0.9,3.4-0.1,2.6-1.2c-2.3-2.9-3.5-6.5-3.5-10.2c0-0.5,0.1-1,0.1-1.4c2.2,0.6,4.5,0.3,6.5-0.7
			c1-0.4,1.9-1.2,2.2-2.3C387.2,648.6,386.8,647.8,386,647.5z M376.2,628.2c1.5-2.2,4.5-2.8,7-2c2.1,0.6,3.2,2.9,1.6,4.5
			c-0.9,0.8-2.1,1.1-3.3,1c-1.8-0.2-3.5-0.7-5-1.6c-0.3-0.2-0.7-0.4-1-0.6C375.6,629,375.9,628.6,376.2,628.2L376.2,628.2z
			 M377.5,639.4c1.6-0.9,4.6-1.7,6.2-0.2c0.3,0.3,0.5,0.7,0.6,1.2c0,0.2,0,0.4,0,0.7c0,0.2-0.1,0.2-0.2,0.4c0.2-0.2-0.1,0.1-0.1,0.1
			l0,0l-0.1,0h-0.1h-0.1l-0.3,0.1c-0.6,0.1-1.3,0.1-1.9,0c-1.5-0.3-3-1-4-2.1L377.5,639.4z M384,650.1c-0.2,0.1-0.5,0.3-0.7,0.3
			c-1.3,0.6-2.8,0.5-4-0.2c0.2-0.4,0.5-0.7,0.8-1c0.3-0.3,0.7-0.5,1.1-0.7c0.4-0.1,0.9-0.2,1.4-0.1c0.8,0,1.5,0.4,1.9,1
			c-0.1-0.1,0,0.2,0,0.1c0,0,0,0.1,0,0.1c0,0.1-0.1,0.2,0,0C384.2,650.1,384.3,650,384,650.1z"/>
		<circle class="st2" cx="383.5" cy="156" r="0"/>
		<path class="st2" d="M408.6,99.7c-1-1.2-2.7-1.5-4-0.7c-4.3,2.7-8.8,5.1-13.4,7.1c-5.3-3.3-11.4-5.2-17.6-5.5
			c-4.8-0.2-16.6,1.7-14.6,9.1c0.8,2.9,3.9,4.3,6.5,5.1c4.3,1.3,9.2,0.8,13.5,0.1c3.6-0.6,7.2-1.6,10.6-2.8c3.6,2.9,6.2,6.8,5,11.4
			c-0.5,2-1.4,3.8-2.6,5.5c-1.6-0.7-3.3-1.2-5.1-1.4c-3.2-0.5-6.5-0.5-9.8,0.1c-2.4,0.4-5.2,1.2-7,3c-2,2.1-1.9,4.7,0.1,6.8
			c2.6,2.5,6,3.9,9.6,3.9c4.4,0.1,8.6-1.9,12.1-4.8c3.2,4.5,3.9,10.4,1.8,15.5c-0.2,0.6-0.6,1.2-1,1.7c-2.3-2.8-5.6-4.5-9.5-3.8
			c-4.4,0.8-8.3,6.1-4.5,9.9c2.1,2.1,5.9,2,8.5,1.7c0.9-0.1,1.8-0.3,2.7-0.5c0.5,2,0.6,4,0.4,6.1c-0.6,7.2-3.9,13.8-5,20.9
			c-0.5,3.4,5.5,2.9,6-0.2c1.3-8.4,5.6-16.2,5.1-24.9c-0.1-1.5-0.4-3-1-4.5c0.5-0.4,1-0.8,1.4-1.3c4.5-4.9,5-12.1,3.1-18.2
			c-0.8-2.4-2-4.7-3.7-6.6c0.9-1.1,1.7-2.3,2.3-3.6c1.9-3.2,2.6-6.9,2-10.5c-0.8-3.3-2.6-6.3-5.1-8.6c4.1-1.9,8-4,11.8-6.4
			C408.6,102.5,409.6,101.1,408.6,99.7z M383.4,155.6C383.4,155.4,383.4,155.4,383.4,155.6z M386.5,156.6c-0.9,0.1-1.8,0-2.6-0.2
			c-0.1,0-0.2-0.1-0.3-0.1c0,0,0-0.1-0.2-0.2s0,0,0,0.1V156l0,0l0,0c0,0,0-0.1,0-0.1c0,0,0,0,0-0.1c0,0.1,0,0.1,0,0.2
			c0.4,0.3,0-0.3,0-0.2l0,0c0,0,0-0.1,0-0.1l0.1-0.2c-0.1,0.3,0,0,0.2-0.2c0,0,0.5-0.4,0.4-0.3h0.1l0,0l0.3-0.1h0.4
			c-0.9,0,0.9,0.3,0.3,0.1c0.3,0.1,1,0.4,1,0.4c0.5,0.3,1,0.7,1.4,1.2L386.5,156.6z M374.7,133.7L374.7,133.7L374.7,133.7z
			 M376.7,135.1c-0.6-0.4-1.1-0.8-1.6-1.3c-0.1-0.1-0.2-0.2-0.2-0.3l0,0c0.3-0.2,1-0.4,0.9-0.4c0.6-0.2,1.3-0.4,1.9-0.5
			c2.6-0.5,5.3-0.5,8-0.1c0.9,0.1,1.7,0.3,2.6,0.6c-2.2,1.8-4.9,2.9-7.8,3.1C379.1,136.2,377.8,135.8,376.7,135.1L376.7,135.1z
			 M377.5,110.1c-3.6,0.5-7.7,0.9-11.1-0.7c-0.4-0.2-0.8-0.4-1.1-0.7c0,0-0.4-0.6-0.4-0.5c0-0.1-0.1-0.2-0.1-0.3c0,0.1,0,0,0-0.1
			s0-0.1,0-0.1s0.5-0.6,0.1-0.2c0.3-0.3,0.7-0.6,1.1-0.7c0.6-0.3,1.1-0.5,1.7-0.6c1.9-0.5,3.9-0.6,5.9-0.5c3.5,0.3,6.9,1.2,10,2.7
			l0.5,0.2C381.9,109.2,379.7,109.7,377.5,110.1z"/>
		<path class="st1" d="M1218.4,603.1c-4.5-4.8-11.3-5-16.4-0.9c-3.1,2.6-5.1,6.2-5.8,10.1c-4.2-1.5-8.7-1.2-12.7,0.9
			c-5.9,3-8.6,10-6.3,16.2c2.1,6.3,8.4,9.5,14.4,11c6.2,1.6,12.6,1.9,18.9,2.3c0.3,0,0.5,0,0.8,0c1.5,0,3.1-0.8,3.5-2.1
			c0.1-0.1,0.1-0.2,0.1-0.3C1218.8,629,1228.5,613.7,1218.4,603.1z M1184.8,629.4c-1.3-2.1-1.9-4.5-1.6-6.9c0.2-2,1.3-3.7,2.9-4.9
			c1.3-0.9,2.8-1.2,4.3-1.1c2.5,0.3,4.7,1.5,6.4,3.3c1.9,1.8,6.2-0.2,5.8-2.9c-0.6-4.2,0.7-9.1,4-11.7c0.5-0.4,1-0.7,1.6-0.8
			c0.4-0.1,0.9-0.1,1.3,0c2.4,0.7,4.1,2.9,5.2,5c2.5,4.3,1,10.3-0.4,14.7s-3.4,8.9-5.1,13.3c-4.1-0.2-8.2-0.7-12.2-1.4
			C1192.5,635.2,1187.5,633.5,1184.8,629.4z"/>
		<path class="st5" d="M952.2,96.2c-10.8-2.6-30-6.1-32.7-18.6c-3.1-14.9,14.7-20.8,23.1-8.9c0-13.5,15-22.6,22.3-8.6
			C970.7,71,957.9,85.6,952.2,96.2z"/>
		<path class="st5" d="M1045.7,83.7c-2.5-6.8-7.5-18.4-1.7-24.4c7-7,16.5,0.5,13.1,9.3c7.3-4.8,17.6,0,12.7,8.9
			C1065.9,84.6,1053.4,82.9,1045.7,83.7z"/>
		<path class="st2" d="M812.7,855.1c-8.5,1.3-23.3,4.3-28.9-3.9c-6.5-9.8,4.6-19.1,14-13.1c-3.9-9.7,4.3-20.5,13.5-12.7
			C818.7,831.7,813.7,845.8,812.7,855.1z"/>
		<path class="st2" d="M626,493.6c-8.5,1.3-23.3,4.3-28.9-3.9c-6.5-9.8,4.6-19.1,14-13.1c-3.9-9.7,4.3-20.5,13.5-12.6
			C631.9,470.2,626.9,484.4,626,493.6z"/>
		<path class="st1" d="M722.7,822.2c-2.9-5.9-8.6-16.1-3.9-22.1c5.7-7.1,15.1-1.1,12.9,7.3c6.2-5.1,16.1-1.7,12.4,7
			C741.3,821.1,729.7,820.7,722.7,822.2z"/>
		<path class="st5" d="M742.2,768.2c-2.9-0.4-8.1-0.8-9.2-4c-1.2-3.9,3.3-5.9,5.9-3c-0.4-3.6,3.3-6.4,5.6-2.9
			C746.3,761,743.4,765.2,742.2,768.2z"/>
		<path class="st5" d="M292.1,443.5c-12.5-0.9-34.7-1.2-40.1-14.6c-6.3-16.2,12.6-26,24.2-14.4c-2.5-15.1,12.6-28.1,23.4-13.9
			C308,411.7,296.4,430.5,292.1,443.5z"/>
		<path class="st6" d="M292.1,443.5c-10.8-2.4-28.2-4.5-32.4-14.8c-4.8-12.4,11.1-16.4,20-7.5c-2-11.6,6.5-21.3,13.9-17.2
			C304.5,410,294.9,432.1,292.1,443.5z"/>
		<path class="st3" d="M1056.1,173.8c1.2-11.3,2.1-31.1,14.4-35.6c14.7-5.1,23,12.1,12.2,22.2c13.7-1.8,24.9,12.2,11.8,21.4
			C1084.1,189.1,1067.6,178,1056.1,173.8z"/>
		<path class="st6" d="M1056.1,173.8c2.5-9.6,4.9-25.2,14.3-28.6c11.3-4,14.4,10.4,6.1,18.2c10.5-1.4,18.9,6.5,15.1,13
			C1085.8,186,1066.2,176.7,1056.1,173.8z"/>
		<path class="st3" d="M892.4,739c-3.2-4.4-8.4-7.2-13.6-8.4c-9.2-2.2-18.8,0.5-25.5,7.2c-1.1,0.2-2.1,0.9-2.7,1.8
			c-0.5,1.2-0.9,2.4-1.3,3.7c-0.5,1-1,2-1.3,3c-0.2,0.6-0.4,1.2-0.6,1.8c-0.3,0.8,0.2,1.3,0.9,1.7c-0.1,3.3,0.5,6.6,1.9,9.6
			c2.7,5.5,7.4,9.8,13.2,12c6.1,2.3,12.8,2.1,18.8-0.5c6.5-2.9,11-9,12.9-15.8C896.8,749.5,895.8,743.6,892.4,739z M884.7,762.6
			c-0.7,0.9-1.5,1.8-2.4,2.5c-0.7,0.5-1.4,1-2.1,1.5c-1.5,0.9-3.2,1.4-5,1.5c-1.8,0.1-3.6,0-5.3-0.5c-2.1-0.5-4.1-1.4-5.8-2.7
			c-7.4-4.8-9.9-13.5-7.8-21.7c0.7-1.3,1.6-2.6,2.6-3.7c1.6-1.8,3.7-3.2,6-4.1h0.1l0.3-0.1c0.3-0.1,0.6-0.2,0.9-0.3
			c0.3-0.1,0.6-0.2,1-0.2l0.5-0.1c0.6-0.1,1.1-0.2,1.7-0.2h1h0.7c2.5,0,5,0.6,7.3,1.6c4.5,1.8,8,5.3,9.7,9.9
			C890,751.6,888.3,758.1,884.7,762.6L884.7,762.6z"/>
		<path class="st1" d="M1270.8,62.2c-5.2-7.2-13.7-11.9-22.3-13.8c-15.3-3.5-31.3,1-41.7,11.8c-2,0.5-3.7,1.5-4.3,3
			c-0.8,2-1.6,4-2.1,6c-0.8,1.6-1.6,3.2-2.2,4.9c-0.4,1-0.7,2-1,3c-0.4,1.3,0.4,2.2,1.5,2.7c-0.2,5.4,0.9,10.8,3.2,15.8
			c4.3,9.3,12.2,16,21.7,19.7c10,3.8,21,3.5,30.7-0.8c10.7-4.8,18.1-14.7,21.2-25.8C1278,79.6,1276.3,69.8,1270.8,62.2z M1258.2,101
			c-1.2,1.5-2.5,2.9-3.9,4.1c-1.1,0.9-2.3,1.7-3.5,2.4c-2.5,1.5-5.3,2.3-8.1,2.5c-2.9,0.2-5.9,0-8.7-0.8c-3.4-0.9-6.7-2.4-9.6-4.3
			c-12.2-7.9-16.3-22.2-12.8-35.5c1.2-2.2,2.6-4.2,4.3-6.1c2.7-3,6.1-5.3,9.9-6.7l0.1,0l0.4-0.1c0.5-0.2,1-0.3,1.5-0.5
			s1-0.3,1.5-0.4l0.9-0.2c0.9-0.1,1.9-0.3,2.8-0.3c0.5,0,1.1-0.1,1.6-0.1h0.5h0.7c4.1,0.1,8.2,0.9,12,2.5c6.8,2.7,13.3,8.6,16,16.2
			C1266.8,82.9,1264,93.5,1258.2,101z"/>
		<path class="st3" d="M652.1,86.4c-4.6-3.3-10.5-3.5-14.9,0.2c-0.3,0.2-0.5,0.6-0.7,0.9c-2.9,4.8-2.2,11.2,2.5,14.6
			c5.3,3.9,12.2,2,15.9-3.1C658.1,94.7,656,89.2,652.1,86.4z M649.9,96c-0.8,1.2-2.1,2-3.5,2.4c0.2-0.1-0.7,0.1-0.8,0.1h-0.3
			c-0.2,0-0.3,0-0.5-0.1c-0.2,0-0.4-0.1-0.6-0.2l-0.1-0.1c-0.2-0.1-1.2-0.6-1-0.5c-1.1-0.7-1.9-1.9-2.2-3.3
			c-0.1-0.6-0.1-1.2-0.1-1.7c0.1-0.8,0.4-1.5,0.8-2.2l0.5-0.3l0.3-0.1c0.1,0,0.2-0.1,0.3-0.1c0.1,0,0.9-0.2,0.8-0.2c0.3,0,0.6,0,1,0
			h0.3l0.4,0.1c0.4,0.1,0.8,0.2,1.1,0.3l0.1,0.1c0.2,0.1,0.3,0.1,0.5,0.2c0.4,0.2,0.9,0.4,1.3,0.7c-0.4-0.3,0.4,0.3,0.5,0.4
			c0.3,0.2,0.5,0.5,0.7,0.7c-0.2-0.2,0.3,0.5,0.4,0.6s0.3,0.7,0.3,0.7c0.1,0.2,0.1,0.4,0.2,0.7c-0.1-0.4,0,0.4,0,0.6
			C650.3,95.1,650.2,95.6,649.9,96z"/>
		<path class="st3" d="M929,462.3c-6.2-4.4-14.3-4.7-20.3,0.3c-0.4,0.3-0.7,0.8-0.9,1.3c-4,6.5-3,15.2,3.5,19.9
			c7.3,5.3,16.6,2.8,21.7-4.2C937.2,473.7,934.4,466.1,929,462.3z M926,475.4c-1.2,1.6-2.8,2.7-4.7,3.2c0.3-0.1-1,0.1-1.2,0.1h-0.4
			l-0.6-0.1c-0.3-0.1-0.5-0.1-0.8-0.2l-0.2-0.1c-0.3-0.1-1.6-0.9-1.3-0.7c-1.6-1-2.6-2.6-3-4.5c-0.1-0.8-0.1-1.6-0.1-2.4
			c0.2-1.1,0.6-2.1,1.1-3c0.3-0.2,0.6-0.4,0.7-0.5l0.3-0.2l0.5-0.2c0.2,0,1.2-0.3,1.1-0.3c0.4,0,0.9-0.1,1.3,0h0.4
			c0.2,0,0.3,0,0.5,0.1c0.5,0.1,1,0.2,1.5,0.4l0.2,0.1l0.7,0.3c0.6,0.3,1.2,0.6,1.7,1c-0.6-0.4,0.6,0.5,0.7,0.6c0.4,0.3,0.7,0.6,1,1
			c-0.3-0.3,0.5,0.7,0.5,0.8s0.5,0.9,0.5,0.9c0.1,0.3,0.2,0.6,0.3,0.9c-0.1-0.6,0,0.6,0,0.8C926.6,474.1,926.4,474.8,926,475.4
			L926,475.4z"/>
		<path class="st5" d="M349.7,299.5c-7.1,14.6-30.3,6.5-23.2-9.2S356.8,283.9,349.7,299.5z M318.7,295.7c-6.2,3.1-14,10.9-8.3,18.1
			c5.2,6.2,13.5,1.5,19.1-2.1c-1.3,6.2-1,17.1,7.3,16c7.8-0.5,10.4-10.6,9.3-17.1c13.5,17.6,24.3-8.8,9.8-12.4
			c15.5,4.7,15.5-18.1,0.5-14.5c14.5-4.6,1.6-25.9-13.5-9.8c-1.5-5.7-2.1-14-10.9-12.4c-8.3,1.5-8.5,10.4-4.4,16
			C312,268.5,300.1,290.3,318.7,295.7L318.7,295.7z"/>
		<path class="st4" d="M1323.5,576.1c-6.3,13.1-27.1,5.8-20.8-8.2S1329.8,562.2,1323.5,576.1z M1295.7,572.8
			c-5.6,2.8-12.5,9.7-7.4,16.2c4.6,5.6,12,1.4,17.2-1.8c-1.2,5.6-0.9,15.3,6.5,14.4c7-0.5,9.3-9.5,8.3-15.3
			c12.1,15.8,21.8-7.9,8.8-11.1c13.9,4.2,13.9-16.2,0.5-13c13-4.2,1.4-23.2-12.1-8.8c-1.4-5.1-1.9-12.5-9.7-11.1
			c-7.4,1.4-7.7,9.3-3.9,14.4C1289.7,548.4,1279,567.9,1295.7,572.8z"/>
		<path class="st5" d="M944.5,846.1c-3.8,7.9-16.3,3.5-12.5-4.9S948.3,837.8,944.5,846.1z M927.9,844.1c-3.3,1.7-7.5,5.8-4.5,9.7
			c2.8,3.3,7.2,0.8,10.3-1.1c-0.7,3.3-0.6,9.2,3.9,8.6c4.2-0.3,5.6-5.7,5-9.2c7.2,9.5,13.1-4.7,5.3-6.7c8.3,2.5,8.3-9.7,0.3-7.8
			c7.8-2.5,0.8-13.9-7.2-5.3c-0.8-3.1-1.1-7.5-5.8-6.7c-4.5,0.8-4.6,5.6-2.4,8.6C924.3,829.5,917.9,841.2,927.9,844.1L927.9,844.1z"
			/>
		<path class="st5" d="M728.3,66.9c-6.5,13.3-27.6,5.9-21.2-8.4S734.8,52.7,728.3,66.9z M700.1,63.4c-5.7,2.8-12.7,9.9-7.5,16.5
			c4.7,5.7,12.3,1.4,17.5-1.9c-1.2,5.7-0.9,15.6,6.6,14.6c7.1-0.5,9.4-9.7,8.5-15.6c12.3,16,22.2-8,9-11.3
			c14.2,4.3,14.2-16.5,0.5-13.2c13.2-4.3,1.4-23.6-12.3-9c-1.4-5.2-1.9-12.7-9.9-11.3c-7.5,1.4-7.8,9.4-4,14.6
			C693.9,38.7,683.1,58.5,700.1,63.4z"/>
		<path class="st1" d="M734,461.3c-2.9,6.1-12.5,2.7-9.6-3.8S736.9,454.8,734,461.3z M721.2,459.7c-2.6,1.3-5.8,4.5-3.4,7.5
			c2.2,2.6,5.6,0.6,7.9-0.9c-0.5,2.6-0.4,7.1,3,6.6c3.2-0.2,4.3-4.4,3.9-7.1c5.6,7.3,10.1-3.6,4.1-5.1c6.4,1.9,6.4-7.5,0.2-6
			c6-1.9,0.6-10.7-5.6-4.1c-0.6-2.4-0.9-5.8-4.5-5.1c-3.4,0.6-3.5,4.3-1.8,6.7C718.4,448.5,713.4,457.5,721.2,459.7L721.2,459.7z"/>
		<path class="st7" d="M135.3,78.3c0,0-2,19.8-2.1,24.3c0,0-12.3,2-17.3,3.2c0,0,9.8,6.8,15.9,9.8c0,0-2,15.2-2.3,19.3
			c5.6-4.6,10.3-10.1,14.1-16.3c0,0,13.2,5.1,18.1,7c0,0-5.6-13-6.3-15.8c0,0,7-8.3,10.6-13.7c0,0-14.4,1.6-18.5,2.3
			C147.6,98.4,135.7,78.7,135.3,78.3z"/>
		<path class="st8" d="M144.2,103.6c0.2,1-0.1,1.8-0.6,1.9s-1.1-0.6-1.4-1.5s0.1-1.8,0.6-1.9S144,102.7,144.2,103.6z"/>
		<path class="st8" d="M139.8,104.5c0.2,1-0.1,1.8-0.6,1.9s-1.1-0.6-1.4-1.5s0.1-1.8,0.6-1.9S139.6,103.5,139.8,104.5z"/>
		<path class="st8" d="M135,108.2c1.2,1.9,4.4,2.8,6.5,2.5c2.6-0.4,5.5-1.9,6.1-4.7c0-0.2-0.3-0.4-0.4-0.2c-1,2.2-3.1,3.7-5.5,4.2
			C139.2,110.6,137.3,109.1,135,108.2C135,108.2,135,108.2,135,108.2L135,108.2z"/>
		<path class="st1" d="M208,709.6c0,0,0.8-15.4,1.1-19.4c0,0,8.6,12.5,11,18.5c0,0,18.3,0.3,22,0.6c0,0-8.5,10-11.1,12.4
			c0,0,2.9,16.2,3.9,19.4c0,0-11.8-6.8-16.3-9.9c0,0-8.9,11-12,13.5c0,0-1.7-13.7-1.3-20.6c0,0-15.4-7.4-20.2-9.7
			C185.1,714.5,204.8,710.2,208,709.6z"/>
		<path class="st8" d="M214,717c0.2,0.9-0.1,1.8-0.6,1.8s-1-0.6-1.2-1.5s0.1-1.8,0.6-1.8S213.8,716.1,214,717z"/>
		<path class="st8" d="M217.1,716.8c0,0.9-0.3,1.7-0.8,1.8s-0.9-0.7-1-1.7s0.3-1.7,0.8-1.8S217.1,715.8,217.1,716.8z"/>
		<path class="st8" d="M209,719.9c0.4,2.7,3.9,4.2,6.3,3.9c2.6-0.4,4.9-2.2,5.8-4.7c0.1-0.3-0.4-0.6-0.6-0.3
			c-1.2,2.1-2.6,3.7-5.1,4.1c-2.9,0.5-4.4-1.4-6.4-3.1C209.1,719.8,209,719.8,209,719.9L209,719.9z"/>
		<path class="st7" d="M1275.4,682.5c-0.3,2.2-1.7,13.4-2.4,19.4c0,0-11.6,4-16.9,6.8l17.3,4.3c0,0,0.5,14.7,0.8,19
			c0,0,10.2-14.7,12.1-17.3c0,0,13.9,6.6,17.7,8.1c0,0-4.6-12.6-6.6-16.9c0,0,5.2-9,7-13.4c0,0-9.9,3-15.2,4.7
			c0,0-12.1-13.4-13.7-14.8L1275.4,682.5z"/>
		<path class="st8" d="M1282.1,704.4c0.3,0.8,0.2,1.6-0.2,1.8s-1-0.4-1.2-1.3s-0.2-1.6,0.2-1.8S1281.8,703.5,1282.1,704.4z"/>
		<path class="st8" d="M1285.7,703.3c0.2,0.9-0.1,1.6-0.5,1.7s-0.9-0.6-1-1.5s0.1-1.6,0.5-1.7S1285.5,702.5,1285.7,703.3z"/>
		<path class="st8" d="M1278,707c1.6,1.6,3.8,2.4,6,2.1c2.6-0.4,4.3-2.3,5.8-4.3c0.2-0.3-0.2-0.6-0.5-0.4c-1.5,1.7-2.8,3.3-5,3.9
			s-4.1-0.7-6.2-1.5C1278,706.8,1278,706.9,1278,707L1278,707z"/>
		<path class="st9" d="M112.6,640.7v28.6c0,0.3-0.2,0.5-0.5,0.5s-0.5-0.2-0.5-0.5l0,0v-28.6c0-0.3,0.2-0.5,0.5-0.5
			S112.6,640.4,112.6,640.7z"/>
		<path class="st9" d="M125.2,655.7c-9.3,0-18.6-0.5-27.9,0.8c-0.6,0.1-0.9-0.8-0.3-0.9c9.3-1.3,18.8-0.9,28.1-0.9
			c0.3,0,0.5,0.2,0.5,0.5S125.5,655.8,125.2,655.7L125.2,655.7z"/>
		<path class="st9" d="M104.4,646.1c2.6,6.7,10.6,9.9,15.3,14.9c0.4,0.5-0.3,1.2-0.7,0.7c-4.8-5.2-12.9-8.4-15.5-15.3
			C103.2,645.8,104.2,645.6,104.4,646.1L104.4,646.1z"/>
		<path class="st9" d="M120.4,647c-3.1,1.8-5.4,5.2-7.6,7.9c-2.5,3.1-4.8,6.4-7.2,9.6c-0.4,0.5-1.2,0-0.8-0.5
			c2.4-3.3,4.8-6.6,7.3-9.8c2.2-2.8,4.6-6.2,7.8-8.1c0.2-0.1,0.5,0,0.7,0.2C120.7,646.6,120.6,646.9,120.4,647z"/>
		<path class="st10" d="M123.1,688.7v20.3c0,0.2,0.2,0.3,0.4,0.3c0.1,0,0.3-0.1,0.3-0.3v-20.3c0-0.2-0.2-0.3-0.4-0.3
			C123.2,688.5,123.1,688.6,123.1,688.7z"/>
		<path class="st10" d="M114.1,699.5c6.6,0,13.3-0.4,19.9,0.6c0.4,0.1,0.6-0.6,0.2-0.7c-6.7-1-13.3-0.6-20-0.6
			c-0.2,0-0.3,0.2-0.3,0.4C113.8,699.3,114,699.4,114.1,699.5L114.1,699.5z"/>
		<path class="st10" d="M128.9,692.6c-1.8,4.8-7.6,7-10.9,10.6c-0.3,0.3,0.2,0.8,0.5,0.5c3.4-3.7,9.2-6,11.1-10.9
			C129.7,692.4,129.1,692.2,128.9,692.6z"/>
		<path class="st10" d="M117.5,693.2c2.2,1.3,3.8,3.7,5.4,5.6c1.8,2.2,3.4,4.5,5.1,6.8c0.3,0.3,0.9,0,0.6-0.3
			c-1.7-2.3-3.4-4.7-5.2-7c-1.6-2-3.3-4.4-5.5-5.8c-0.2-0.1-0.4,0-0.5,0.1C117.3,692.9,117.3,693.1,117.5,693.2L117.5,693.2z"/>
		<path class="st11" d="M271,801.8c0.4,4.6,0.7,9.8,0.7,14.8l0.6-0.1c2.5-4.1,5.8-7.2,8.6-11c0.3-0.1,0.6,0.1,0.8,0.3
			c-1.8,4.1-5.9,7.5-7.8,11.1c-0.7,1-1.8,1.8-2.1,2.7c5.7,0.1,12.2-0.6,17.3-0.5c-0.5,1.7-2.4,1.5-3.9,1.6
			c-4.1-0.1-7.5,0.6-11.7,0.4l-0.2,0.2c4,4.8,10,7.8,12.2,13.5c-0.2,0.2-0.4,0.3-0.7,0.3c-3.9-4.8-8.5-8.2-12.8-12.6
			c-0.4,6.9,0.8,13.5-0.2,20.7c-0.7-0.6-1.1-1.4-1.3-2.3c0-6.6-0.4-12.8-0.6-19.4l-1.3,1.4c-3.2,3.9-5,9.5-9.8,11.9l-0.3-0.1
			c0.2-1.5,2.1-2.3,2.7-3.9l6.3-9c-1.5-0.6-3.1,0-4.9,0c-3.1-0.4-6.3,0.3-9.4-0.6c-0.3-0.3-0.9-0.6-0.6-1.1c1.9-0.7,4,0.3,6.4,0.1
			c3.1-0.2,6.3-0.1,9.7-0.5c-4.1-3.9-8-7.9-11.6-12.2c0.5-0.9,1.5-0.1,1.9,0.3c3.5,3.6,6.8,7.2,10.7,10.5l0.2-0.4
			c-0.4-6.2-0.2-13-0.6-18.8C271.6,798.2,270.3,801.2,271,801.8z"/>
		<path class="st11" d="M325.5,600.8v31.3c0,0.3-0.2,0.5-0.5,0.5c-0.3,0-0.5-0.2-0.5-0.5v-31.3c0-0.3,0.2-0.5,0.5-0.5
			C325.3,600.2,325.5,600.5,325.5,600.8z"/>
		<path class="st11" d="M339.4,617.3c-10.2,0-20.4-0.5-30.6,0.9c-0.7,0.1-1-0.9-0.3-1c10.2-1.5,20.6-1,30.9-1c0.3,0,0.5,0.3,0.5,0.6
			C339.8,617.1,339.7,617.3,339.4,617.3L339.4,617.3z"/>
		<path class="st11" d="M316.6,606.8c2.8,7.4,11.6,10.8,16.8,16.3c0.5,0.5-0.3,1.3-0.8,0.8c-5.3-5.7-14.1-9.2-17-16.8
			C315.3,606.4,316.4,606.1,316.6,606.8L316.6,606.8z"/>
		<path class="st11" d="M334.1,607.7c-3.4,2-5.9,5.7-8.3,8.7c-2.7,3.4-5.3,7-7.8,10.5c-0.4,0.5-1.3,0-0.9-0.5
			c2.6-3.6,5.3-7.2,8-10.7c2.4-3.1,5.1-6.8,8.5-8.8c0.3-0.1,0.6-0.1,0.7,0.2C334.5,607.2,334.4,607.5,334.1,607.7L334.1,607.7
			L334.1,607.7z"/>
		<path class="st9" d="M1227.6,132.2v28.6c0,0.3-0.2,0.5-0.5,0.5s-0.5-0.2-0.5-0.5l0,0v-28.6c0-0.3,0.2-0.5,0.5-0.5
			S1227.6,131.9,1227.6,132.2z"/>
		<path class="st9" d="M1240.3,147.2c-9.3,0-18.6-0.5-27.9,0.8c-0.6,0.1-0.9-0.9-0.3-0.9c9.3-1.3,18.7-0.9,28.1-0.9
			c0.3,0,0.5,0.2,0.5,0.5S1240.5,147.3,1240.3,147.2L1240.3,147.2z"/>
		<path class="st9" d="M1219.4,137.6c2.6,6.7,10.6,9.9,15.3,14.9c0.4,0.5-0.3,1.1-0.7,0.7c-4.8-5.2-12.9-8.4-15.5-15.3
			C1218.3,137.3,1219.2,137.1,1219.4,137.6L1219.4,137.6z"/>
		<path class="st9" d="M1235.4,138.5c-3.1,1.8-5.4,5.2-7.6,7.9c-2.5,3.1-4.8,6.4-7.1,9.6c-0.4,0.5-1.2,0-0.8-0.5
			c2.4-3.3,4.8-6.6,7.3-9.8c2.2-2.8,4.6-6.2,7.8-8.1c0.2-0.1,0.5-0.1,0.7,0.2C1235.8,138,1235.7,138.3,1235.4,138.5L1235.4,138.5z"
			/>
		<path class="st10" d="M1238.1,180.2v20.4c0,0.2,0.2,0.3,0.4,0.3c0.1,0,0.3-0.1,0.3-0.3v-20.4c0-0.2-0.2-0.3-0.4-0.3
			C1238.3,180,1238.1,180.1,1238.1,180.2z"/>
		<path class="st10" d="M1229.1,191c6.6,0,13.3-0.4,19.9,0.6c0.4,0.1,0.6-0.6,0.2-0.7c-6.6-0.9-13.3-0.6-20-0.6
			c-0.2,0-0.3,0.2-0.3,0.4C1228.9,190.9,1229,191,1229.1,191L1229.1,191z"/>
		<path class="st10" d="M1243.9,184.1c-1.8,4.8-7.6,7-10.9,10.6c-0.3,0.3,0.2,0.8,0.5,0.5c3.4-3.7,9.2-6,11.1-10.9
			C1244.7,183.9,1244.1,183.7,1243.9,184.1L1243.9,184.1z"/>
		<path class="st10" d="M1232.5,184.7c2.2,1.3,3.8,3.7,5.4,5.6c1.8,2.2,3.4,4.5,5.1,6.8c0.3,0.4,0.9,0,0.6-0.4
			c-1.7-2.3-3.4-4.7-5.2-7c-1.6-2-3.3-4.4-5.5-5.8c-0.2-0.1-0.4,0-0.5,0.2C1232.3,184.4,1232.4,184.6,1232.5,184.7L1232.5,184.7z"/>
		<path class="st11" d="M1367.5,251.7c0.4,4.4,0.6,9.2,0.6,13.9l0.5-0.1c2.4-3.8,5.5-6.7,8.1-10.4c0.3-0.1,0.6,0,0.7,0.3
			c-1.7,3.8-5.5,7-7.4,10.5c-0.6,0.9-1.6,1.6-2,2.5c5.3,0.1,11.4-0.5,16.3-0.5c-0.4,1.6-2.3,1.4-3.6,1.5c-3.8-0.1-7,0.5-11,0.4
			l-0.2,0.2c3.7,4.5,9.4,7.4,11.4,12.6c-0.1,0.2-0.4,0.3-0.6,0.3c-3.6-4.5-8-7.7-12-11.8c-0.4,6.5,0.7,12.7-0.2,19.4
			c-0.6-0.6-1.1-1.3-1.2-2.2c0-6.2-0.4-12-0.6-18.2l-1.2,1.3c-3,3.6-4.7,8.9-9.2,11.2l-0.3-0.1c0.2-1.5,2-2.2,2.6-3.6l5.9-8.5
			c-1.4-0.5-2.9,0-4.6,0c-2.9-0.4-5.9,0.3-8.8-0.5c-0.3-0.3-0.8-0.5-0.6-1c1.8-0.6,3.7,0.3,6,0.1c2.9-0.2,5.9-0.1,9.1-0.5
			c-3.8-3.6-7.5-7.4-10.9-11.5c0.5-0.8,1.4-0.1,1.8,0.3c3.3,3.4,6.4,6.7,10,9.8l0.2-0.4c-0.4-5.8-0.2-12.2-0.6-17.6
			C1368,248.4,1366.8,251.2,1367.5,251.7z"/>
		<path class="st11" d="M29.5,270c0.4,4.6,0.7,9.8,0.7,14.8l0.6-0.1c2.5-4.1,5.8-7.2,8.6-11c0.3-0.1,0.6,0.1,0.8,0.3
			c-1.8,4.1-5.9,7.5-7.8,11.1c-0.7,1-1.7,1.7-2.1,2.7c5.7,0.1,12.2-0.6,17.3-0.5c-0.5,1.7-2.4,1.5-3.9,1.6
			c-4.1-0.1-7.5,0.6-11.7,0.4l-0.2,0.2c4,4.8,10,7.8,12.2,13.5c-0.2,0.2-0.4,0.3-0.7,0.3c-3.9-4.8-8.5-8.2-12.8-12.6
			c-0.4,6.9,0.8,13.5-0.2,20.7c-0.7-0.6-1.1-1.4-1.2-2.3c0-6.6-0.4-12.8-0.6-19.4l-1.3,1.4c-3.2,3.9-5,9.5-9.8,11.9l-0.3-0.1
			c0.2-1.5,2.1-2.3,2.7-3.9l6.3-9c-1.5-0.6-3.1,0-4.8,0c-3.1-0.4-6.3,0.3-9.4-0.6c-0.3-0.3-0.9-0.6-0.6-1.1c1.9-0.7,4,0.3,6.4,0.1
			c3.1-0.2,6.3-0.1,9.7-0.5c-4.1-3.9-8-7.9-11.6-12.2c0.5-0.9,1.4-0.1,1.9,0.3c3.5,3.6,6.8,7.2,10.7,10.5l0.2-0.4
			c-0.4-6.2-0.2-13-0.6-18.8C30,266.5,28.8,269.4,29.5,270z"/>
		<path class="st11" d="M1388.1,127.1v29.4c0,0.3-0.2,0.5-0.5,0.5s-0.5-0.2-0.5-0.5v-29.4c0-0.3,0.2-0.5,0.5-0.5
			S1388.1,126.8,1388.1,127.1z"/>
		<path class="st11" d="M1401.1,142.6c-9.6,0-19.2-0.5-28.7,0.9c-0.6,0.1-0.9-0.9-0.3-1c9.6-1.4,19.3-0.9,29-0.9
			c0.3,0,0.5,0.2,0.5,0.5S1401.4,142.5,1401.1,142.6L1401.1,142.6z"/>
		<path class="st11" d="M1379.7,132.7c2.7,6.9,10.9,10.1,15.7,15.4c0.4,0.5-0.3,1.2-0.7,0.7c-5-5.4-13.3-8.6-16-15.8
			C1378.5,132.4,1379.5,132.1,1379.7,132.7L1379.7,132.7z"/>
		<path class="st11" d="M1396.2,133.6c-3.2,1.9-5.6,5.3-7.8,8.1c-2.6,3.2-4.9,6.6-7.4,9.9c-0.4,0.5-1.2,0-0.9-0.5
			c2.5-3.4,4.9-6.8,7.5-10.1c2.3-2.9,4.8-6.4,8-8.3c0.2-0.1,0.5-0.1,0.7,0.2C1396.5,133.1,1396.4,133.4,1396.2,133.6L1396.2,133.6z"
			/>
		<path class="st12" d="M1380.5,595.7c3.5-2,10.4-3.5,11.8,0.5c1.8,4.8-6.1,6.2-10.5,4.3c2.3,1.3,6.8,5.8,4.7,8.5
			c-3,3.9-8.2-1.7-9.4-5c-0.9,4.8-7.2,13.6-10,5.9c-1.2-3.1,0.9-6.5,6.6-10.3c-5.7-2.2-10.2-6.9-6.9-10.5c2.2-2.4,8,1.7,9.8,5.5
			c-0.8-3.4,0.8-15.6,6.7-12.3C1388.4,585.1,1380.5,595.7,1380.5,595.7z"/>
		<path class="st13" d="M1243.9,765.1c0.4,3.4,0.8,7.1,1,10.8l0.4-0.1c1.7-3.1,4-5.4,5.9-8.4c0.2-0.1,0.4,0,0.6,0.2
			c-1.2,3-4.1,5.7-5.4,8.4c-0.6,0.6-1,1.3-1.5,2.1c4.2-0.1,8.9-0.8,12.7-0.9c-0.3,1.3-1.7,1.1-2.8,1.3c-3,0.1-5.4,0.7-8.6,0.7
			l-0.1,0.1c3.1,3.3,7.6,5.4,9.4,9.5c-0.1,0.2-0.3,0.3-0.5,0.2c-3-3.4-6.5-5.8-9.8-8.8c0,5,1,9.9,0.5,15.2c-0.5-0.4-0.9-1-1-1.7
			c-0.2-4.8-0.7-9.3-1.1-14.2l-0.9,1c-2.2,2.9-3.4,7.1-6.8,9l-0.2-0.1c0.1-1.1,1.5-1.8,1.8-2.9l4.3-6.8c-1.1-0.4-2.3,0.1-3.6,0.2
			c-2.3-0.2-4.6,0.4-6.9-0.1c-0.2-0.2-0.7-0.4-0.5-0.8c1.4-0.5,2.9,0.1,4.7-0.1c2.3-0.2,4.6-0.3,7.1-0.7c-3.1-2.7-6.1-5.5-8.9-8.5
			c0.3-0.7,1.1-0.1,1.4,0.2c2.7,2.5,5.2,5,8.1,7.3l0.1-0.3c-0.5-4.5-0.6-9.5-1-13.7C1244.3,762.5,1243.4,764.7,1243.9,765.1z"/>
		<path class="st14" d="M1376.4,726.7c0.3,3.5,0.5,7.3,0.5,11.1l0.4-0.1c1.9-3.1,4.4-5.4,6.5-8.3c0.2-0.1,0.5,0,0.6,0.2
			c-1.4,3.1-4.4,5.6-5.9,8.4c-0.5,0.7-1.3,1.3-1.6,2c4.3,0.1,9.2-0.4,13-0.4c-0.4,1.3-1.8,1.1-2.9,1.2c-3.1-0.1-5.6,0.4-8.8,0.3
			l-0.1,0.2c3,3.6,7.5,5.9,9.2,10.1c-0.1,0.2-0.3,0.2-0.5,0.2c-2.9-3.6-6.4-6.2-9.6-9.5c-0.3,5.2,0.6,10.2-0.2,15.6
			c-0.5-0.4-0.9-1.1-1-1.8c0-5-0.3-9.6-0.4-14.6l-1,1c-2.4,2.9-3.8,7.1-7.3,9l-0.2-0.1c0.1-1.2,1.6-1.7,2-2.9l4.7-6.8
			c-1.1-0.4-2.3,0-3.6,0c-2.3-0.3-4.7,0.2-7.1-0.4c-0.2-0.2-0.7-0.4-0.4-0.8c1.5-0.5,3,0.2,4.8,0.1c2.3-0.1,4.7-0.1,7.3-0.4
			c-3.1-2.9-6-6-8.7-9.2c0.4-0.7,1.1-0.1,1.4,0.2c2.6,2.7,5.1,5.4,8,7.9l0.2-0.3c-0.3-4.7-0.2-9.8-0.4-14.1
			C1376.8,724,1375.8,726.3,1376.4,726.7z"/>
		<path class="st14" d="M98.9,443.2c0.3,3.7,0.5,7.8,0.5,11.9l0.5-0.1c2-3.3,4.7-5.8,6.9-8.9c0.2,0,0.5,0,0.6,0.2
			c-1.5,3.3-4.7,6-6.3,8.9c-0.5,0.8-1.4,1.4-1.7,2.2c4.6,0.1,9.8-0.5,13.9-0.4c-0.4,1.4-1.9,1.2-3.1,1.3c-3.3-0.1-6,0.5-9.4,0.3
			l-0.1,0.2c3.2,3.8,8,6.3,9.8,10.8c-0.1,0.2-0.3,0.3-0.5,0.2c-3.1-3.9-6.8-6.6-10.2-10.1c-0.3,5.5,0.6,10.9-0.2,16.6
			c-0.6-0.5-0.9-1.1-1-1.9c0-5.3-0.3-10.2-0.5-15.5l-1,1.1c-2.6,3.1-4,7.6-7.8,9.5l-0.2-0.1c0.2-1.2,1.7-1.9,2.2-3.1l5-7.2
			c-1.2-0.5-2.5,0-3.9,0c-2.5-0.3-5,0.2-7.5-0.5c-0.2-0.2-0.7-0.5-0.5-0.9c1.6-0.5,3.2,0.2,5.1,0.1c2.5-0.1,5-0.1,7.8-0.4
			c-3.3-3.1-6.4-6.3-9.3-9.8c0.4-0.7,1.2-0.1,1.6,0.2c2.8,2.9,5.4,5.8,8.5,8.4l0.2-0.3c-0.3-5-0.2-10.4-0.5-15
			C99.4,440.3,98.3,442.8,98.9,443.2z"/>
		<path class="st14" d="M35,63.1c0.3,3.7,0.5,7.8,0.5,11.9l0.5-0.1c2-3.3,4.7-5.8,6.9-8.9c0.2-0.1,0.5,0,0.6,0.2
			c-1.5,3.3-4.7,6-6.3,8.9c-0.5,0.8-1.4,1.4-1.7,2.2c4.6,0.1,9.8-0.5,13.9-0.4c-0.4,1.4-1.9,1.2-3.1,1.3c-3.3-0.1-6,0.5-9.4,0.3
			l-0.2,0.2c3.2,3.8,8,6.3,9.8,10.8c-0.1,0.2-0.3,0.3-0.5,0.2c-3-3.9-6.8-6.6-10.2-10.1c-0.3,5.5,0.6,10.9-0.2,16.6
			c-0.6-0.5-0.9-1.1-1-1.9c0-5.3-0.3-10.2-0.5-15.5l-1,1.1c-2.6,3.1-4,7.6-7.8,9.5l-0.2-0.1c0.1-1.2,1.7-1.8,2.2-3.1l5-7.2
			c-1.2-0.5-2.5,0-3.9,0c-2.5-0.3-5,0.2-7.5-0.5c-0.2-0.2-0.7-0.5-0.5-0.9c1.6-0.5,3.2,0.2,5.1,0.1c2.5-0.2,5-0.1,7.8-0.4
			c-3.3-3.1-6.4-6.3-9.3-9.8c0.4-0.7,1.2-0.1,1.5,0.2c2.8,2.9,5.4,5.8,8.5,8.4l0.2-0.3c-0.3-5-0.2-10.4-0.5-15
			C35.5,60.3,34.5,62.7,35,63.1z"/>
		<path class="st14" d="M1356.6,432.9c0.3,3.7,0.5,7.8,0.5,11.9l0.5-0.1c2-3.3,4.7-5.8,6.9-8.9c0.2-0.1,0.5,0,0.6,0.2
			c-1.5,3.3-4.7,6-6.3,8.9c-0.5,0.8-1.4,1.4-1.7,2.2c4.6,0.1,9.8-0.5,13.9-0.4c-0.4,1.4-1.9,1.2-3.1,1.3c-3.3-0.1-6,0.5-9.4,0.3
			l-0.2,0.2c3.2,3.8,8,6.3,9.8,10.8c-0.1,0.2-0.3,0.3-0.5,0.2c-3.1-3.9-6.8-6.6-10.2-10.1c-0.3,5.5,0.6,10.9-0.2,16.6
			c-0.6-0.5-0.9-1.1-1-1.9c0-5.3-0.3-10.2-0.5-15.5l-1,1.1c-2.6,3.1-4,7.6-7.8,9.5l-0.2-0.1c0.2-1.2,1.7-1.9,2.2-3.1l5-7.2
			c-1.2-0.5-2.5,0-3.9,0c-2.5-0.3-5,0.2-7.5-0.5c-0.2-0.2-0.7-0.5-0.4-0.9c1.6-0.5,3.2,0.2,5.1,0.1c2.5-0.1,5-0.1,7.8-0.4
			c-3.3-3.1-6.4-6.3-9.3-9.8c0.4-0.7,1.2-0.1,1.6,0.2c2.8,2.9,5.4,5.7,8.5,8.4l0.2-0.3c-0.3-5-0.2-10.4-0.5-15
			C1357.1,430,1356.1,432.5,1356.6,432.9z"/>
		<path class="st3" d="M51.1,268.9c6,0,12-4.8,12.2-11c0.2-6.4-5.5-10.5-11.4-10.5s-12,4.8-12.2,11
			C39.5,264.8,45.2,268.9,51.1,268.9L51.1,268.9z"/>
		<path class="st2" d="M52,430.2c6,0,12-4.8,12.2-11s-5.5-10.5-11.4-10.5s-12,4.8-12.2,11C40.4,426.1,46.1,430.2,52,430.2z"/>
		<path class="st3" d="M1578.4,801.2c2.7,0,5.5-2.2,5.6-5s-2.5-4.8-5.2-4.8c-2.9,0-5.3,2.1-5.6,5
			C1573.1,799.3,1575.7,801.2,1578.4,801.2L1578.4,801.2z"/>
		<path class="st3" d="M1316.6,825.4c2.9,0,5.3-2.1,5.6-5c0.1-2.9-2.5-4.8-5.2-4.8c-2.9,0-5.3,2.1-5.6,5
			C1311.2,823.5,1313.9,825.4,1316.6,825.4z"/>
		<path class="st3" d="M7.9,321c-6,0.7-11.3,6.2-10.8,12.4s6.8,9.7,12.6,9s11.3-6.2,10.8-12.4S13.8,320.3,7.9,321z"/>
		<path class="st4" d="M27.9,346c-2.7,0.3-5.2,2.8-4.9,5.7s3.1,4.5,5.8,4.1s5.2-2.8,4.9-5.7S30.6,345.7,27.9,346z"/>
		<path class="st3" d="M1,402.6c-2.9,0.3-5,2.8-4.9,5.7c0.3,2.9,3.1,4.5,5.8,4.1c2.9-0.3,5-2.8,4.9-5.7C6.5,403.9,3.7,402.3,1,402.6
			L1,402.6z"/>
		<path class="st4" d="M1511.3,567.6c2.9,0,5.3-2.1,5.6-5c0.1-2.9-2.5-4.8-5.2-4.8c-2.9,0-5.3,2.1-5.6,5
			C1505.9,565.8,1508.5,567.6,1511.3,567.6z"/>
		<path class="st5" d="M1327,864.9c3.6,0,7.2-2.8,7.3-6.6s-3.3-6.3-6.8-6.3s-7.2,2.8-7.3,6.6S1323.5,864.9,1327,864.9z"/>
		<path class="st3" d="M13.6,187c2.9,0,5.3-2.1,5.6-5c0.1-2.9-2.5-4.8-5.2-4.8c-2.9,0-5.3,2.1-5.6,5C8.3,185.1,10.9,187,13.6,187
			L13.6,187z"/>
		<path class="st3" d="M1496.2,541.3c6,0,12-4.8,12.2-11c0.2-6.4-5.5-10.5-11.4-10.5s-12,4.8-12.2,11S1490.3,541.3,1496.2,541.3z"/>
		<path class="st4" d="M1574.2,197.3c1.5-6.6,1.8-12,3.6-18.3c1.4,4,5.1,17.9,5.1,17.9s14.3,1.2,18.3,1.7
			c-6.2,2.8-18.8,5.7-18.8,5.7s-1.7,9.1-3.8,17.1c-1.6-5.5-2.8-11.1-3.7-16.8c0,0-12-1.1-19.3-3.3
			C1561.8,199.9,1566.9,198.8,1574.2,197.3z"/>
		<path class="st3" d="M-31.9,705.1c1.9-8.5,2.4-15.5,4.7-23.7c1.8,5.2,6.6,23.1,6.6,23.1s18.5,1.6,23.6,2.2
			c-8,3.6-24.3,7.3-24.3,7.3s-2.1,11.8-5,22.2c-2-7.1-3.6-14.4-4.7-21.7c0,0-15.5-1.4-25-4.2C-47.9,708.4-41.3,707-31.9,705.1z"/>
		<path class="st1" d="M1523.9,266.6c1.6-1.3,2.7-3.3,2.9-5.4l0.3-9.5c0-1.9,1-2.2,2.2-0.8l6.3,7.6c1.4,1.5,3.5,2.1,5.4,1.7l9.7-2.4
			c1.8-0.5,2.3,0.4,1.1,1.8l-5.5,6.8c-1.2,1.4-1.1,3.5,0.2,4.8l7.2,7c1.3,1.3,0.9,2.1-0.9,1.8l-10.3-1.6c-2-0.2-3.9,0.8-5,2.5
			l-5.7,9c-1,1.6-1.8,1.4-1.8-0.5l-0.3-10.9c0-1.9-1.5-3.4-3.4-3.5l-9.7-0.5c-1.8-0.1-2.1-1-0.6-2.1L1523.9,266.6z"/>
		<path class="st5" d="M1459.1,478.3c-10.8-2.6-30-6.1-32.7-18.6c-3.1-14.9,14.7-20.7,23.1-8.9c0-13.5,15-22.6,22.3-8.6
			C1477.5,453.1,1464.7,467.6,1459.1,478.3z"/>
		<path class="st2" d="M1409.8,834.5c-8.5,1.3-23.3,4.3-28.9-3.9c-6.5-9.8,4.6-19.1,14-13.1c-3.9-9.7,4.3-20.5,13.5-12.7
			C1415.8,811.1,1410.8,825.3,1409.8,834.5z"/>
		<path class="st1" d="M-0.4,105c-5.2-7.2-13.7-11.9-22.3-13.9c-15.3-3.6-31.4,1-41.7,11.8c-2,0.5-3.7,1.5-4.3,3c-0.8,2-1.6,4-2.1,6
			c-0.8,1.6-1.6,3.2-2.2,4.9c-0.4,1-0.7,2-1,3c-0.4,1.3,0.4,2.2,1.5,2.7c-0.2,5.4,0.9,10.8,3.2,15.8c4.3,9.3,12.2,16,21.7,19.7
			c9.9,3.8,21,3.5,30.7-0.8c10.7-4.8,18.1-14.7,21.2-25.8C6.8,122.3,5.1,112.6-0.4,105z M-13,143.7c-1.2,1.5-2.5,2.9-3.9,4.1
			c-1.1,0.9-2.3,1.7-3.5,2.4c-2.5,1.5-5.3,2.3-8.1,2.5c-2.9,0.2-5.9,0-8.7-0.8c-3.4-0.9-6.7-2.4-9.6-4.3
			c-12.2-7.9-16.3-22.2-12.8-35.5c1.2-2.2,2.6-4.2,4.3-6.1c2.7-3,6.1-5.3,9.9-6.7h0.1l0.4-0.1c0.5-0.2,1-0.3,1.5-0.4s1-0.3,1.5-0.4
			l0.9-0.2c0.9-0.1,1.9-0.3,2.8-0.3c0.5,0,1.1-0.1,1.6-0.1h0.5h0.7c4.1,0.1,8.2,0.9,12,2.5c6.8,2.7,13.4,8.6,16,16.2
			C-4.4,125.6-7.2,136.2-13,143.7z"/>
		<path class="st4" d="M52.3,618.8c-6.3,13.1-27.1,5.8-20.8-8.3S58.6,604.9,52.3,618.8z M24.5,615.5c-5.5,2.8-12.5,9.7-7.4,16.2
			c4.6,5.6,12.1,1.4,17.1-1.8c-1.2,5.6-0.9,15.3,6.5,14.4c7-0.5,9.3-9.5,8.3-15.3c12.1,15.8,21.8-7.9,8.8-11.1
			c13.9,4.2,13.9-16.2,0.5-13c13-4.2,1.4-23.2-12.1-8.8c-1.4-5.1-1.8-12.5-9.7-11.1c-7.4,1.4-7.6,9.3-3.9,14.4
			C18.5,591.1,7.8,610.6,24.5,615.5z"/>
		<path class="st5" d="M9.9,604.9c-3.8,7.9-16.3,3.5-12.5-4.9S13.7,596.5,9.9,604.9z M-6.8,602.9c-3.3,1.7-7.5,5.8-4.4,9.7
			c2.8,3.3,7.2,0.8,10.3-1.1c-0.7,3.3-0.5,9.2,3.9,8.6c4.2-0.3,5.6-5.7,5-9.2c7.2,9.5,13.1-4.7,5.3-6.7c8.3,2.5,8.3-9.7,0.3-7.8
			c7.8-2.5,0.8-13.9-7.2-5.3c-0.8-3.1-1.1-7.5-5.8-6.7c-4.4,0.8-4.6,5.6-2.4,8.6C-10.4,588.3-16.8,600-6.8,602.9L-6.8,602.9z"/>
		<path class="st5" d="M1503,182.2c-6.5,13.3-27.6,5.9-21.2-8.4S1509.5,168,1503,182.2z M1474.8,178.8c-5.7,2.8-12.7,9.9-7.6,16.5
			c4.7,5.7,12.3,1.4,17.5-1.9c-1.2,5.7-0.9,15.6,6.6,14.6c7.1-0.5,9.4-9.7,8.5-15.6c12.3,16,22.2-8,9-11.3
			c14.2,4.3,14.2-16.5,0.5-13.2c13.2-4.3,1.4-23.6-12.3-9c-1.4-5.2-1.9-12.7-9.9-11.3c-7.6,1.4-7.8,9.4-4,14.6
			C1468.7,154,1457.8,173.9,1474.8,178.8L1474.8,178.8z"/>
		<path class="st1" d="M1517.8,802.2c-2.9,6.1-12.6,2.7-9.6-3.8S1520.8,795.7,1517.8,802.2z M1505,800.6c-2.6,1.3-5.8,4.5-3.4,7.5
			c2.2,2.6,5.6,0.6,7.9-0.9c-0.5,2.6-0.4,7.1,3,6.7c3.2-0.2,4.3-4.4,3.9-7.1c5.6,7.3,10.1-3.6,4.1-5.2c6.4,1.9,6.4-7.5,0.2-6
			c6-1.9,0.6-10.7-5.6-4.1c-0.7-2.4-0.9-5.8-4.5-5.2c-3.4,0.6-3.5,4.3-1.8,6.7C1502.2,789.4,1497.3,798.4,1505,800.6z"/>
		<path class="st7" d="M1571.8,62.2c0,0-2,19.8-2.1,24.3c0,0-12.3,2-17.3,3.2c0,0,9.8,6.8,15.9,9.8c0,0-2,15.2-2.2,19.3
			c5.6-4.6,10.3-10.1,14.1-16.3c0,0,13.2,5.1,18.1,7c0,0-5.6-13-6.3-15.8c0,0,7-8.3,10.6-13.7c0,0-14.4,1.6-18.5,2.3
			C1584.1,82.3,1572.2,62.6,1571.8,62.2z"/>
		<path class="st8" d="M1580.7,87.5c0.2,0.9-0.1,1.8-0.6,1.9s-1.2-0.6-1.4-1.5s0.1-1.8,0.6-1.9S1580.5,86.6,1580.7,87.5z"/>
		<path class="st8" d="M1576.3,88.4c0.2,1-0.1,1.8-0.6,1.9s-1.2-0.6-1.3-1.5s0.1-1.8,0.6-1.9S1576.1,87.4,1576.3,88.4z"/>
		<path class="st8" d="M1571.5,92.2c1.2,1.9,4.4,2.8,6.5,2.5c2.7-0.4,5.5-1.9,6.2-4.7c0-0.2-0.3-0.4-0.4-0.2c-1,2.2-3.1,3.7-5.5,4.2
			C1575.7,94.5,1573.8,93,1571.5,92.2C1571.6,92.1,1571.6,92.1,1571.5,92.2L1571.5,92.2z"/>
		<path class="st7" d="M4.3,725.2c-0.3,2.2-1.7,13.4-2.4,19.4c0,0-11.6,4-16.9,6.8c0,0,13.1,3.3,17.3,4.3c0,0,0.5,14.7,0.8,19
			c0,0,10.1-14.7,12.1-17.3c0,0,13.9,6.6,17.7,8.1c0,0-4.5-12.6-6.6-16.9c0,0,5.2-9,7-13.4c0,0-9.9,3-15.2,4.7
			c0,0-12.1-13.4-13.7-14.8L4.3,725.2z"/>
		<path class="st8" d="M11,747.1c0.3,0.8,0.2,1.6-0.2,1.8s-0.9-0.4-1.2-1.3s-0.2-1.6,0.2-1.8S10.6,746.2,11,747.1z"/>
		<path class="st8" d="M14.5,746c0.1,0.9-0.1,1.6-0.5,1.7s-0.9-0.6-1-1.5s0.1-1.6,0.5-1.7S14.3,745.2,14.5,746z"/>
		<path class="st8" d="M6.8,749.7c1.6,1.6,3.8,2.4,6,2.1c2.6-0.4,4.3-2.3,5.8-4.3c0.2-0.3-0.2-0.6-0.5-0.4c-1.5,1.7-2.8,3.3-5,3.9
			S9,750.3,7,749.5C6.8,749.4,6.8,749.6,6.8,749.7L6.8,749.7z"/>
		<path class="st9" d="M1549,624.6v28.6c0,0.3-0.2,0.5-0.5,0.5s-0.5-0.2-0.5-0.5v-28.6c0-0.3,0.2-0.5,0.5-0.5S1549,624.3,1549,624.6
			z"/>
		<path class="st9" d="M1561.7,639.6c-9.3,0-18.6-0.5-27.9,0.8c-0.6,0.1-0.9-0.8-0.3-0.9c9.3-1.3,18.8-0.9,28.1-0.9
			c0.3,0,0.5,0.2,0.5,0.5S1562,639.7,1561.7,639.6L1561.7,639.6z"/>
		<path class="st9" d="M1540.9,630c2.6,6.7,10.6,9.8,15.3,14.9c0.4,0.5-0.3,1.1-0.7,0.7c-4.8-5.2-12.9-8.4-15.5-15.3
			C1539.7,629.7,1540.7,629.4,1540.9,630L1540.9,630z"/>
		<path class="st9" d="M1556.9,630.9c-3.1,1.8-5.4,5.2-7.6,7.9c-2.5,3.1-4.8,6.4-7.2,9.6c-0.4,0.5-1.2,0-0.8-0.5
			c2.4-3.3,4.8-6.6,7.3-9.8c2.2-2.8,4.6-6.2,7.8-8.1c0.2-0.1,0.5,0,0.7,0.2C1557.2,630.5,1557.1,630.7,1556.9,630.9L1556.9,630.9z"
			/>
		<path class="st10" d="M1559.6,672.6V693c0,0.2,0.2,0.3,0.4,0.3c0.1,0,0.3-0.1,0.3-0.3v-20.4c0-0.2-0.2-0.3-0.4-0.3
			C1559.7,672.4,1559.6,672.5,1559.6,672.6z"/>
		<path class="st10" d="M1550.6,683.4c6.6,0,13.3-0.3,19.9,0.6c0.4,0.1,0.6-0.6,0.2-0.7c-6.7-1-13.3-0.6-20-0.6
			c-0.2,0-0.3,0.2-0.3,0.4C1550.3,683.2,1550.5,683.3,1550.6,683.4L1550.6,683.4z"/>
		<path class="st10" d="M1565.4,676.5c-1.8,4.8-7.6,7-10.9,10.6c-0.3,0.3,0.2,0.8,0.5,0.5c3.4-3.7,9.2-6,11.1-10.9
			C1566.2,676.3,1565.6,676.1,1565.4,676.5z"/>
		<path class="st10" d="M1554,677.1c2.2,1.3,3.8,3.7,5.4,5.6c1.8,2.2,3.4,4.5,5.1,6.8c0.3,0.3,0.9,0,0.6-0.3c-1.7-2.3-3.4-4.7-5.2-7
			c-1.6-2-3.3-4.4-5.5-5.8c-0.2-0.1-0.4,0-0.5,0.1C1553.8,676.8,1553.8,677,1554,677.1L1554,677.1L1554,677.1z"/>
		<path class="st11" d="M96.3,294.5c0.4,4.4,0.6,9.2,0.6,13.9l0.5-0.1c2.4-3.8,5.5-6.7,8.1-10.4c0.3-0.1,0.6,0,0.7,0.3
			c-1.7,3.8-5.5,7-7.4,10.5c-0.6,0.9-1.6,1.6-2,2.5c5.3,0.1,11.4-0.5,16.3-0.5c-0.4,1.6-2.3,1.4-3.6,1.5c-3.8-0.1-7,0.5-11,0.4
			l-0.2,0.2c3.7,4.5,9.4,7.4,11.4,12.6c-0.1,0.2-0.4,0.3-0.6,0.3c-3.6-4.5-8-7.7-12-11.8c-0.4,6.5,0.7,12.7-0.2,19.4
			c-0.6-0.6-1.1-1.3-1.2-2.2c0-6.2-0.4-12-0.6-18.2l-1.2,1.3c-3,3.6-4.7,8.9-9.2,11.2l-0.3-0.1c0.2-1.5,2-2.2,2.6-3.6l5.9-8.5
			c-1.4-0.5-2.9,0-4.6,0c-2.9-0.4-5.9,0.3-8.8-0.5c-0.3-0.3-0.8-0.5-0.6-1c1.8-0.6,3.7,0.3,6,0.1c2.9-0.2,5.9-0.1,9.1-0.5
			c-3.8-3.6-7.5-7.4-10.9-11.4c0.5-0.8,1.4-0.1,1.8,0.3c3.3,3.4,6.4,6.7,10,9.8l0.2-0.4c-0.4-5.8-0.2-12.2-0.6-17.6
			C96.8,291.1,95.6,293.9,96.3,294.5z"/>
		<path class="st11" d="M1466,253.9c0.4,4.6,0.7,9.8,0.7,14.8l0.6-0.1c2.5-4.1,5.8-7.2,8.6-11c0.3-0.1,0.6,0,0.8,0.3
			c-1.8,4.1-5.9,7.5-7.8,11.1c-0.7,1-1.7,1.7-2.1,2.7c5.7,0.1,12.2-0.6,17.3-0.5c-0.5,1.7-2.4,1.5-3.9,1.6
			c-4.1-0.1-7.4,0.6-11.7,0.4l-0.2,0.2c4,4.8,10,7.9,12.2,13.5c-0.1,0.2-0.4,0.3-0.7,0.3c-3.9-4.8-8.5-8.2-12.8-12.6
			c-0.4,6.9,0.8,13.5-0.2,20.7c-0.7-0.6-1.1-1.4-1.3-2.3c0-6.6-0.4-12.8-0.6-19.4l-1.3,1.4c-3.2,3.9-5,9.5-9.8,11.9l-0.3-0.1
			c0.2-1.6,2.1-2.3,2.7-3.9l6.3-9c-1.5-0.6-3.1,0-4.8,0c-3.1-0.4-6.3,0.3-9.4-0.6c-0.3-0.3-0.9-0.6-0.6-1.1c1.9-0.7,4,0.3,6.4,0.1
			c3.1-0.2,6.3-0.1,9.7-0.5c-4.1-3.9-8-7.9-11.6-12.2c0.5-0.9,1.5-0.1,1.9,0.3c3.5,3.6,6.8,7.2,10.7,10.5l0.2-0.4
			c-0.4-6.2-0.2-13-0.6-18.8C1466.5,250.4,1465.3,253.4,1466,253.9z"/>
		<path class="st11" d="M116.9,169.8v29.4c0,0.3-0.2,0.5-0.5,0.5s-0.5-0.2-0.5-0.5v-29.4c0-0.3,0.2-0.5,0.5-0.5
			S116.9,169.5,116.9,169.8z"/>
		<path class="st11" d="M129.9,185.3c-9.6,0-19.2-0.5-28.7,0.8c-0.6,0.1-0.9-0.9-0.3-1c9.6-1.4,19.3-0.9,29-0.9
			c0.3,0.1,0.5,0.3,0.4,0.6C130.3,185,130.2,185.2,129.9,185.3L129.9,185.3z"/>
		<path class="st11" d="M108.5,175.4c2.7,6.9,10.9,10.1,15.7,15.4c0.4,0.5-0.3,1.2-0.7,0.7c-5-5.4-13.3-8.6-16-15.8
			C107.3,175.1,108.3,174.8,108.5,175.4L108.5,175.4z"/>
		<path class="st11" d="M125,176.3c-3.2,1.9-5.6,5.3-7.8,8.1c-2.6,3.2-4.9,6.6-7.4,9.9c-0.4,0.5-1.2,0-0.9-0.5
			c2.5-3.4,4.9-6.8,7.5-10.1c2.3-2.9,4.8-6.4,8-8.3c0.2-0.1,0.5-0.1,0.7,0.2C125.3,175.8,125.2,176.1,125,176.3L125,176.3z"/>
		<path class="st12" d="M109.3,638.5c3.5-2,10.4-3.5,11.8,0.5c1.8,4.8-6.1,6.2-10.5,4.3c2.3,1.3,6.8,5.8,4.7,8.5
			c-3,3.9-8.2-1.7-9.4-5c-0.9,4.8-7.2,13.6-10,5.9c-1.2-3.2,0.9-6.5,6.6-10.3c-5.7-2.2-10.2-6.9-6.9-10.5c2.2-2.4,8,1.7,9.8,5.5
			c-0.8-3.4,0.8-15.6,6.7-12.3C117.2,627.8,109.3,638.5,109.3,638.5z"/>
		<path class="st14" d="M105.2,769.4c0.3,3.5,0.5,7.3,0.5,11.1l0.4-0.1c1.9-3.1,4.4-5.4,6.5-8.3c0.2,0,0.5,0,0.6,0.2
			c-1.4,3.1-4.4,5.6-5.9,8.4c-0.5,0.7-1.3,1.3-1.6,2c4.3,0.1,9.2-0.4,13-0.4c-0.4,1.3-1.8,1.1-2.9,1.2c-3.1-0.1-5.6,0.4-8.8,0.3
			l-0.1,0.2c3,3.6,7.5,5.9,9.2,10.1c-0.1,0.2-0.3,0.2-0.5,0.2c-2.9-3.6-6.4-6.2-9.6-9.5c-0.3,5.2,0.6,10.2-0.2,15.6
			c-0.5-0.4-0.9-1.1-1-1.8c0-5-0.3-9.6-0.4-14.6l-0.9,1c-2.4,2.9-3.8,7.1-7.3,9l-0.2-0.1c0.1-1.2,1.6-1.7,2-2.9l4.7-6.8
			c-1.1-0.4-2.3,0-3.6,0c-2.3-0.3-4.7,0.2-7.1-0.4c-0.2-0.2-0.7-0.4-0.4-0.8c1.5-0.5,3,0.2,4.8,0.1c2.3-0.1,4.7-0.1,7.3-0.4
			c-3.1-2.9-6-6-8.7-9.2c0.4-0.7,1.1-0.1,1.4,0.2c2.6,2.7,5.1,5.4,8,7.9l0.2-0.3c-0.3-4.7-0.2-9.8-0.4-14.1
			C105.6,766.7,104.7,769,105.2,769.4z"/>
		<path class="st14" d="M1535.4,427.1c0.3,3.7,0.5,7.8,0.5,11.9l0.5-0.1c2-3.3,4.7-5.8,6.9-8.9c0.2-0.1,0.5,0,0.6,0.2
			c-1.5,3.3-4.7,6-6.3,8.9c-0.6,0.7-1.2,1.4-1.7,2.2c4.6,0.1,9.8-0.5,13.9-0.4c-0.4,1.4-1.9,1.2-3.1,1.3c-3.3-0.1-6,0.5-9.4,0.3
			l-0.1,0.1c3.2,3.8,8,6.3,9.8,10.8c-0.1,0.2-0.3,0.3-0.5,0.2c-3.1-3.9-6.8-6.6-10.2-10.1c-0.3,5.5,0.6,10.9-0.2,16.6
			c-0.6-0.5-0.9-1.1-1-1.9c0-5.3-0.3-10.2-0.5-15.5l-1,1.1c-2.6,3.1-4,7.6-7.8,9.5l-0.2-0.1c0.2-1.2,1.7-1.9,2.2-3.1l5-7.2
			c-1.2-0.5-2.5,0-3.9,0c-2.5-0.3-5,0.2-7.5-0.5c-0.2-0.2-0.7-0.5-0.5-0.9c1.6-0.5,3.2,0.2,5.1,0.1c2.5-0.1,5-0.1,7.8-0.4
			c-3.3-3.1-6.4-6.3-9.3-9.8c0.4-0.7,1.2-0.1,1.6,0.2c2.8,2.9,5.4,5.7,8.5,8.4l0.2-0.3c-0.3-5-0.2-10.4-0.5-15
			C1535.8,424.2,1534.8,426.6,1535.4,427.1z"/>
		<path class="st14" d="M1471.5,47c0.3,3.7,0.5,7.8,0.5,11.9l0.5-0.1c2-3.3,4.7-5.8,6.9-8.9c0.2-0.1,0.5,0,0.6,0.2
			c-1.5,3.3-4.7,6-6.3,8.9c-0.6,0.7-1.2,1.4-1.7,2.2c4.6,0.1,9.8-0.5,13.9-0.4c-0.4,1.4-1.9,1.2-3.1,1.3c-3.3-0.1-6,0.5-9.4,0.3
			l-0.2,0.2c3.2,3.8,8,6.3,9.8,10.8c-0.1,0.2-0.3,0.3-0.5,0.2c-3.1-3.9-6.8-6.6-10.2-10.1c-0.3,5.5,0.6,10.9-0.2,16.6
			c-0.5-0.5-0.9-1.1-1-1.9c0-5.3-0.3-10.2-0.5-15.5l-1,1.1c-2.6,3.1-4,7.6-7.8,9.5l-0.2-0.1c0.2-1.2,1.7-1.8,2.2-3.1l5-7.2
			c-1.2-0.5-2.5,0-3.9,0c-2.5-0.3-5,0.2-7.5-0.5c-0.2-0.2-0.7-0.5-0.5-0.9c1.6-0.5,3.2,0.2,5.1,0.1c2.5-0.2,5-0.1,7.8-0.4
			c-3.3-3.1-6.4-6.3-9.3-9.8c0.4-0.7,1.2-0.1,1.6,0.2c2.8,2.9,5.4,5.7,8.5,8.4l0.2-0.3c-0.3-5-0.2-10.4-0.5-15
			C1472,44.2,1471,46.6,1471.5,47z"/>
		<path class="st14" d="M85.4,475.6c0.3,3.7,0.5,7.8,0.5,11.9l0.5-0.1c2-3.3,4.7-5.8,6.9-8.9c0.2-0.1,0.5,0,0.6,0.2
			c-1.5,3.3-4.7,6-6.3,8.9c-0.5,0.8-1.4,1.4-1.7,2.2c4.6,0.1,9.8-0.5,13.9-0.4c-0.4,1.4-1.9,1.2-3.1,1.3c-3.3-0.1-6,0.5-9.4,0.3
			l-0.2,0.1c3.2,3.8,8,6.3,9.8,10.8c-0.1,0.2-0.3,0.3-0.5,0.2c-3.1-3.9-6.8-6.6-10.2-10.1c-0.3,5.5,0.6,10.9-0.2,16.6
			c-0.6-0.5-0.9-1.1-1.1-1.8c0-5.3-0.3-10.2-0.5-15.5l-1,1.1c-2.6,3.1-4,7.6-7.8,9.5l-0.2-0.1c0.2-1.2,1.7-1.9,2.2-3.1l5-7.2
			c-1.2-0.5-2.5,0-3.9,0c-2.5-0.3-5,0.2-7.5-0.5c-0.2-0.2-0.7-0.5-0.5-0.9c1.6-0.5,3.2,0.2,5.1,0.1c2.5-0.1,5.1-0.1,7.8-0.4
			c-3.3-3.1-6.4-6.3-9.3-9.8c0.4-0.7,1.2-0.1,1.6,0.2c2.8,2.9,5.4,5.7,8.5,8.4l0.2-0.3c-0.3-5-0.2-10.4-0.5-15
			C85.9,472.8,84.9,475.2,85.4,475.6z"/>
	</g>
</g>
</svg>
