<svg id="e7ed13da-a713-44f5-a882-ef0164db9916" data-name="Layer 1" xmlns="http://www.w3.org/2000/svg" xmlns:xlink="http://www.w3.org/1999/xlink" width="462.9" height="482.5" viewBox="0 0 462.9 482.5">
  <defs>
    <style>
      .f6619bc5-33c5-4cf6-afa8-eae5863a0828 {
        fill: none;
      }

      .ed7292ff-11a2-4abf-b1b0-40f926a3e226 {
        opacity: 0.5;
      }

      .e41e5ed7-9c20-414e-9170-51e2b8143d00 {
        fill: url(#a0a52638-ce13-45ec-b394-ce4ae096ba44);
      }

      .a71c6fdf-aeb2-432e-b372-060c0437e707 {
        fill: #f9f4c5;
        stroke-miterlimit: 10;
        stroke-width: 6px;
        stroke: url(#b236bfee-e9ad-4a24-a61a-7aec77601339);
      }

      .e3cc0cc8-25e3-4422-b735-51cd53b008f3 {
        clip-path: url(#e1862af8-8df3-4179-b434-7c0b8ec5688c);
      }

      .ba200d27-eec6-48dd-82cf-a567770616a2 {
        opacity: 0.3;
      }

      .b6b9db2a-2dc9-4b62-bab0-7e46b9fd0f61 {
        fill: #161717;
      }

      .f8fc4b8c-6449-4738-b102-e7e456d0672f {
        fill: #246182;
      }

      .b7959501-6dd1-494b-86d8-5f70c7fb08d5 {
        fill: #282828;
      }

      .fe6053fa-8ac8-4c52-b69e-2b1d3b2bc7d8 {
        fill: #1f5266;
      }

      .a6124c51-9bc1-44ca-93c7-80db3b2393cd {
        fill: #f2f2f2;
        opacity: 0.4;
      }

      .bd70e42a-f254-4947-a1b8-9a3b0b6a5040 {
        opacity: 0.29;
      }

      .a258f0b8-392e-48b5-8cb3-60db78870625 {
        fill: #2d2c2c;
      }
    </style>
    <linearGradient id="a0a52638-ce13-45ec-b394-ce4ae096ba44" x1="52.73" y1="118.79" x2="402" y2="358.11" gradientUnits="userSpaceOnUse">
      <stop offset="0" stop-color="#9b81cf"/>
      <stop offset="1" stop-color="#3b139b"/>
    </linearGradient>
    <linearGradient id="b236bfee-e9ad-4a24-a61a-7aec77601339" x1="25.67" y1="241.25" x2="437.24" y2="241.25" gradientUnits="userSpaceOnUse">
      <stop offset="0" stop-color="#4c1da9"/>
      <stop offset="1" stop-color="#997ece"/>
    </linearGradient>
    <clipPath id="e1862af8-8df3-4179-b434-7c0b8ec5688c">
      <circle class="f6619bc5-33c5-4cf6-afa8-eae5863a0828" cx="235.46" cy="243.57" r="209.22"/>
    </clipPath>
  </defs>
  <g>
    <path class="ed7292ff-11a2-4abf-b1b0-40f926a3e226" d="M444.68,252.5a208.28,208.28,0,0,0-25.42-100,211.66,211.66,0,0,0-187.81-114c-116.9,0-211.67,94.78-211.67,211.68s94.77,211.68,211.67,211.68c3,0,5.93-.08,8.87-.2C353.63,459.07,444.68,366.42,444.68,252.5Z"/>
    <g>
      <g>
        <circle class="e41e5ed7-9c20-414e-9170-51e2b8143d00" cx="231.45" cy="241.25" r="211.68"/>
        <circle class="a71c6fdf-aeb2-432e-b372-060c0437e707" cx="231.45" cy="241.25" r="202.78"/>
      </g>
      <g class="e3cc0cc8-25e3-4422-b735-51cd53b008f3">
        <g>
          <polygon class="ba200d27-eec6-48dd-82cf-a567770616a2" points="308.3 415.72 306.62 393.91 175.05 388.98 152.27 414.94 308.3 415.72"/>
          <g>
            <g>
              <g>
                <g>
                  <rect class="b6b9db2a-2dc9-4b62-bab0-7e46b9fd0f61" x="158.41" y="106.12" width="148.19" height="285.75"/>
                  <path class="f8fc4b8c-6449-4738-b102-e7e456d0672f" d="M162.09,179.78H302c2.58,0,4.66,2.37,4.65,5.3l-.8,194.07H157.68a1.29,1.29,0,0,1-1.2-1.36V186.14C156.48,182.63,159,179.78,162.09,179.78Z"/>
                  <g>
                    <path class="f8fc4b8c-6449-4738-b102-e7e456d0672f" d="M158,75l149.53-.19-.44,95.68c0,3.25.15,6.4-3.61,5.81H164.28c-3.2,0-5.8-2.95-5.8-6.59Z"/>
                    <polygon class="b7959501-6dd1-494b-86d8-5f70c7fb08d5" points="171.22 412.57 181.35 397.67 282.98 396.61 290.62 412.82 293.85 391.87 168.89 391.87 171.22 412.57"/>
                    <path class="f8fc4b8c-6449-4738-b102-e7e456d0672f" d="M171.22,412.57l-14.74.25v-27H306.62v27h-16s1.94-11.31-7-15.42L177,398.4S171.11,402.48,171.22,412.57Z"/>
                    <path class="fe6053fa-8ac8-4c52-b69e-2b1d3b2bc7d8" d="M157.76,75.27s6.81-6.49,10.09-6.68l131.82-.8a4.71,4.71,0,0,1,3.74,1.78l4.14,5.25Z"/>
                  </g>
                </g>
                <path class="a6124c51-9bc1-44ca-93c7-80db3b2393cd" d="M156.48,378.89h6.09l-1.3-198.72-1.07,0a3.42,3.42,0,0,0-3.31,3.39Z"/>
                <path class="a6124c51-9bc1-44ca-93c7-80db3b2393cd" d="M164,176.31,161.37,75.18s-3.34.09-3.61.06l.73,95.09A6,6,0,0,0,164,176.31Z"/>
              </g>
              <g>
                <g class="bd70e42a-f254-4947-a1b8-9a3b0b6a5040">
                  <polygon class="a258f0b8-392e-48b5-8cb3-60db78870625" points="178.17 120.39 178.03 163.4 169.45 163.39 169.59 120.09 178.17 120.39"/>
                </g>
                <polygon class="a258f0b8-392e-48b5-8cb3-60db78870625" points="177.03 114.9 176.89 157.91 168.32 157.9 168.46 114.6 177.03 114.9"/>
              </g>
              <g>
                <g class="bd70e42a-f254-4947-a1b8-9a3b0b6a5040">
                  <polygon class="a258f0b8-392e-48b5-8cb3-60db78870625" points="178.17 215.91 178.03 279.46 169.45 279.44 169.59 215.46 178.17 215.91"/>
                </g>
                <polygon class="a258f0b8-392e-48b5-8cb3-60db78870625" points="177.03 207.79 176.89 271.35 168.32 271.33 168.46 207.35 177.03 207.79"/>
              </g>
            </g>
            <rect class="b6b9db2a-2dc9-4b62-bab0-7e46b9fd0f61" x="158.48" y="379.02" width="148.15" height="6.75"/>
          </g>
        </g>
      </g>
    </g>
  </g>
</svg>
