<svg id="b05d9471-2d2e-4e5d-82cd-6372ebc9109b" data-name="Layer 1" xmlns="http://www.w3.org/2000/svg" xmlns:xlink="http://www.w3.org/1999/xlink" width="610" height="611" viewBox="0 0 610 611">
  <defs>
    <style>
      .abaa1f9b-1b4f-4885-a5d2-ce63ec73fd18 {
        fill: none;
      }

      .bfefbbc9-768f-4838-8b19-abe12e7b7486 {
        clip-path: url(#a50e21b9-f2cf-45a2-91e5-dda73fe125e8);
      }

      .a70afadf-d86f-4fed-ac2f-d6d13a1736ef {
        fill: #799640;
        opacity: 0.46;
      }

      .e8a652ae-e22a-4a37-9048-092226d4583a {
        fill: url(#a261153e-8725-4edc-ba77-e241e9a71b00);
      }

      .ad4221dd-878c-4efe-9033-461a8f737603 {
        fill: #31d0e5;
        stroke-miterlimit: 10;
        stroke-width: 6px;
        stroke: url(#fbbc8672-781a-4ea8-9099-3534b6b1a7a9);
      }

      .b6ab34c8-b556-435c-959b-c59b82c74c05 {
        fill: #bcbec0;
      }

      .ffe5275e-7fdc-4616-9b54-b31d3c50e9e8 {
        fill: #58595b;
      }

      .e460b891-2793-4318-993a-ea6892619d71 {
        fill: #f7941e;
      }

      .b2092cc1-5446-4a1d-9490-c9ecdbc91623 {
        fill: #f17c29;
      }

      .bb68cc62-3d1f-484e-a24d-fff4e452ffda {
        fill: #e6e7e8;
      }

      .ef2398c8-9b28-408d-a0a4-b935c8ebf4d0 {
        fill: #474747;
      }

      .f318a527-e56c-444b-acf2-e8fa5c17b4da {
        fill: #fff;
      }

      .b4bb3dd1-2a02-4406-9f62-8080b8eb793e {
        fill: #414042;
      }

      .fb864ccb-cdf2-43f3-a5fb-107f94abafe4 {
        fill: #6d6e71;
      }

      .b87bda47-f84a-4e93-9f80-fd87f2246b28 {
        fill: #d1d3d4;
      }

      .a812c959-b1c6-41a9-91da-7022c70bb52a {
        fill: #f77c0c;
      }

      .a51c63ab-3394-4cda-8353-f5ab2e9c8e5d {
        fill: #3c2415;
      }

      .a566de24-7288-4eb6-939c-314658eeecb3 {
        fill: #fbb040;
      }

      .bd02f523-12ca-428a-96d5-db75ac1d865b {
        opacity: 0.5;
      }
    </style>
    <clipPath id="a50e21b9-f2cf-45a2-91e5-dda73fe125e8">
      <circle class="abaa1f9b-1b4f-4885-a5d2-ce63ec73fd18" cx="-355" cy="305.5" r="286.49"/>
    </clipPath>
    <linearGradient id="a261153e-8725-4edc-ba77-e241e9a71b00" x1="50.06" y1="130.82" x2="548.27" y2="472.19" gradientUnits="userSpaceOnUse">
      <stop offset="0" stop-color="#9b81cf"/>
      <stop offset="1" stop-color="#3b139b"/>
    </linearGradient>
    <linearGradient id="fbbc8672-781a-4ea8-9099-3534b6b1a7a9" x1="12.74" y1="305.5" x2="597.26" y2="305.5" gradientUnits="userSpaceOnUse">
      <stop offset="0" stop-color="#4c1da9"/>
      <stop offset="1" stop-color="#997ece"/>
    </linearGradient>
  </defs>
  <g class="bfefbbc9-768f-4838-8b19-abe12e7b7486">
    <path class="a70afadf-d86f-4fed-ac2f-d6d13a1736ef" d="M-284.22,657.23c-143.08-29-332-88.1-324.3-126.21S-408.1,422.64-34.08,479.9C110.17,502-141.14,686.18-284.22,657.23Z"/>
  </g>
  <g>
    <g>
      <circle class="e8a652ae-e22a-4a37-9048-092226d4583a" cx="305" cy="305.5" r="301.94"/>
      <circle class="ad4221dd-878c-4efe-9033-461a8f737603" cx="305" cy="305.5" r="289.26"/>
    </g>
    <g>
      <g>
        <path class="b6ab34c8-b556-435c-959b-c59b82c74c05" d="M399.61,383.34l-.64-.29c-19.08-8.3-39.39-14.66-56-27.26q-1.9-5-3.78-10.05c.85-.09,1.72-.17,2.59-.29A370.38,370.38,0,0,1,567,387.32c0,3.09-4.91,3.23-8,3.69a64.86,64.86,0,0,1-38.6-6.19c1.72,1.3,1.19,4.18-.58,5.42s-4.12,1.19-6.26.92a40,40,0,0,1-19.8-8.4q.19,2.82.38,5.64a84.75,84.75,0,0,1-38.37-10C437.33,382.92,418.3,385.47,399.61,383.34Z"/>
        <path class="ffe5275e-7fdc-4616-9b54-b31d3c50e9e8" d="M399.61,383.34l-.64-.29c-10-4.33-20.25-8.16-30.18-12.6,20.56,3.15,41.69,3.08,62.49,1.45,26.18-2.06,52.11-6.5,78.17-9.8A363.41,363.41,0,0,1,567,387.32c0,3.09-4.91,3.23-8,3.69a64.86,64.86,0,0,1-38.6-6.19c1.72,1.3,1.19,4.18-.58,5.42s-4.12,1.19-6.26.92a40,40,0,0,1-19.8-8.4q.19,2.82.38,5.64a84.75,84.75,0,0,1-38.37-10C437.33,382.92,418.3,385.47,399.61,383.34Z"/>
        <g>
          <path class="e460b891-2793-4318-993a-ea6892619d71" d="M204.24,371.11l-35.8-8.26c-1.71-.39-1-3,.73-2.63l35.8,8.25C206.68,368.87,206,371.5,204.24,371.11Z"/>
          <path class="e460b891-2793-4318-993a-ea6892619d71" d="M191.43,363.46a3.21,3.21,0,1,0,2.41,3.85A3.21,3.21,0,0,0,191.43,363.46Z"/>
          <path class="e460b891-2793-4318-993a-ea6892619d71" d="M171,362.17c.09-.39-10.35-9.43-13.1-11.8-.21-.18-.56-.07-.51.16l.55,2.71a3.26,3.26,0,0,1-2.39,3.7l-2.51.9a.21.21,0,0,0-.08.36l1.86,1.9a3.26,3.26,0,0,1,.53,4.37l-1.68,2.2c-.15.19.12.44.38.37C157.59,366.11,170.93,362.56,171,362.17Z"/>
          <g>
            <path class="b2092cc1-5446-4a1d-9490-c9ecdbc91623" d="M164.35,358.93l-8.25-2.22a3.43,3.43,0,0,0,1.75-1.92Z"/>
            <path class="b2092cc1-5446-4a1d-9490-c9ecdbc91623" d="M155.22,360.55l8.38,1.61L156,363A3.4,3.4,0,0,0,155.22,360.55Z"/>
          </g>
        </g>
        <path class="bb68cc62-3d1f-484e-a24d-fff4e452ffda" d="M168.15,151.46c-4.87-8.7-7-19.51-3.48-28.76a1,1,0,0,1,1.76-.14c1.24,2.18,1.47,3,4.27,5a65.08,65.08,0,0,1-6.87-51.64,1.3,1.3,0,0,1,2-.64c21.9,17.39,33.19,44.79,49.66,67.52,12.8,17.67,34,45.65,51.15,59.44,35.57,28.54,54.22,95.71,76.32,153.57,16.57,12.6,36.88,19,56,27.26s38.25,19.71,47.84,38.17c-2.16,1.93-16.6,7.85-21.33,7.23,5.71,5.95,5.82,4.14,10.62,10.85-24.08,5.33-44.64,7.55-69.26,9s-57.44-2.21-80-12.14c-32.24-14.18-55-37.72-77.85-64.53C193,368,171.17,359.93,155,354.39l-.13.1s-5.68-2-7.48-2.68c-4.36-1.63-6.82-2.52-8.6-3.74a4.88,4.88,0,0,1-1.56-1.54,1.92,1.92,0,0,1,0-2.07,2.58,2.58,0,0,1,2.46-.64,51,51,0,0,1,5.06.9c-2-1.42-2.18-1.18-4.21-2.61a10.56,10.56,0,0,1-3.17-3l0,0a2.28,2.28,0,0,1,2.68-3.26l3.13,1a.83.83,0,0,0,0-.15,40.78,40.78,0,0,1-9.84-9.24,8.59,8.59,0,0,1-1.78-3.44v0a2.66,2.66,0,0,1,3.26-3,18.35,18.35,0,0,1,5.54,1.84,2.54,2.54,0,0,1,0-.29,40.39,40.39,0,0,1-8.37-9.32,6.32,6.32,0,0,1-1.23-3c-.24-5,6.77-1.63,8.79-1a27.68,27.68,0,0,1-3.88-3.64,16.08,16.08,0,0,1-2.88-5.28,2.72,2.72,0,0,1,3.62-3.27,33.2,33.2,0,0,1,3.83,1.92v-.05l.64.43c3.18,1.84,6.6,4.12,7.87,5a16.27,16.27,0,0,1,1.67,1.28c21.43,13.95,44.26,28.28,64.69,42a401,401,0,0,1,52.6,4.31,142.86,142.86,0,0,1-39.72-68.82c-4.79-19.29-12.74-37.77-24.7-53.65a43.57,43.57,0,0,1-7-13.77,1.46,1.46,0,0,1,2-1.73l10,4.39a66.81,66.81,0,0,1-31.87-47.71,2,2,0,0,1,2.77-2.06,40.78,40.78,0,0,1,10,6.75C181.28,168.09,173.33,160.73,168.15,151.46Z"/>
        <g>
          <path class="bb68cc62-3d1f-484e-a24d-fff4e452ffda" d="M184.24,181.55a42.14,42.14,0,0,0-6.75-5c-.14-.58-.28-1.16-.41-1.74C179.43,177.09,181.84,179.33,184.24,181.55Z"/>
          <path class="bb68cc62-3d1f-484e-a24d-fff4e452ffda" d="M198.39,221.3c1.61,1.16,3.26,2.26,5,3.27L199,222.66C198.78,222.21,198.6,221.75,198.39,221.3Z"/>
          <path class="bb68cc62-3d1f-484e-a24d-fff4e452ffda" d="M135.41,328.78c0,.1,0,.2,0,.29a14.37,14.37,0,0,0-1.32-.64c-.28-.34-.57-.66-.84-1a13.32,13.32,0,0,1-1-1.54A37.57,37.57,0,0,0,135.41,328.78Z"/>
          <path class="bb68cc62-3d1f-484e-a24d-fff4e452ffda" d="M163,131.22c0-.76.08-1.51.18-2.26.81,1.65,1.69,3.27,2.65,4.84A11.59,11.59,0,0,1,163,131.22Z"/>
          <path class="bb68cc62-3d1f-484e-a24d-fff4e452ffda" d="M131.68,312.86a32.59,32.59,0,0,0,2.93,2.58c-.37-.12-.91-.33-1.53-.56-.4-.56-.82-1.1-1.19-1.68Z"/>
          <path class="ef2398c8-9b28-408d-a0a4-b935c8ebf4d0" d="M396.39,388.17c-19.09-8.3-43.58-13.52-60.15-26.12-22.1-57.86-46.09-121.21-76.32-153.58-15-16.1-38.35-41.76-51.15-59.43-16.15-22.29-25.72-48.58-46.79-66,.4-2.25-.71-4.94-.07-7.13a1.29,1.29,0,0,1,2-.64c21.91,17.39,33.2,44.79,49.67,67.52,12.79,17.67,34,45.65,51.15,59.44,35.56,28.54,54.22,95.71,76.32,153.57,16.56,12.6,36.88,19,56,27.26s38.24,19.7,47.84,38.17c-.82.73-.25.73-3.38,2C431.48,406.5,414.44,396,396.39,388.17Z"/>
        </g>
        <path class="f318a527-e56c-444b-acf2-e8fa5c17b4da" d="M398.49,407a10,10,0,1,0,11.69-7.92A10,10,0,0,0,398.49,407Z"/>
        <path class="b4bb3dd1-2a02-4406-9f62-8080b8eb793e" d="M400.79,407.48a7.64,7.64,0,1,0,8.95-6.06A7.65,7.65,0,0,0,400.79,407.48Z"/>
        <path class="f318a527-e56c-444b-acf2-e8fa5c17b4da" d="M412.26,404.07a1.91,1.91,0,1,0,2.24-1.52A1.91,1.91,0,0,0,412.26,404.07Z"/>
        <path class="fb864ccb-cdf2-43f3-a5fb-107f94abafe4" d="M165.12,127.71c1.24,2.17,1.47,3,4.27,5A65.14,65.14,0,0,1,162.53,81a1.3,1.3,0,0,1,2-.64c21.9,17.39,31.86,47.78,48.33,70.52,6.61,9.12,72.38,83.35,77,94.85,31.57,52.56,28,65,50.08,120-5.52-1-68.47-8.36-74-9.07a142.92,142.92,0,0,1-39.36-68.45c-4.79-19.29-12.74-37.78-24.7-53.65a43.67,43.67,0,0,1-7-13.77,1.45,1.45,0,0,1,2-1.73l10,4.38A66.81,66.81,0,0,1,175,175.74a2,2,0,0,1,2.78-2.05,40.87,40.87,0,0,1,10,6.74c-7.81-7.19-15.75-14.55-20.94-23.82-4.86-8.71-7-19.52-3.48-28.76A1,1,0,0,1,165.12,127.71Z"/>
        <g>
          <path class="bb68cc62-3d1f-484e-a24d-fff4e452ffda" d="M177.49,176.54c-.14-.58-.28-1.16-.41-1.74C177.21,175.38,177.35,176,177.49,176.54Z"/>
          <path class="bb68cc62-3d1f-484e-a24d-fff4e452ffda" d="M135.45,329.07a14.37,14.37,0,0,0-1.32-.64c-.28-.34-.57-.66-.84-1a13.32,13.32,0,0,1-1-1.54,37.57,37.57,0,0,0,3.15,2.9C135.42,328.88,135.44,329,135.45,329.07Z"/>
          <path class="bb68cc62-3d1f-484e-a24d-fff4e452ffda" d="M134.61,315.44c-.37-.12-.91-.33-1.53-.56-.4-.56-.82-1.1-1.19-1.68l-.21-.34A32.59,32.59,0,0,0,134.61,315.44Z"/>
          <path class="f318a527-e56c-444b-acf2-e8fa5c17b4da" d="M224.33,154.69l-.58-.76Z"/>
          <path class="f318a527-e56c-444b-acf2-e8fa5c17b4da" d="M221.34,150.7c-.16-.23-.34-.46-.5-.68Z"/>
          <path class="f318a527-e56c-444b-acf2-e8fa5c17b4da" d="M218.68,147.09l-.6-.82Z"/>
          <path class="f318a527-e56c-444b-acf2-e8fa5c17b4da" d="M230.75,163.08l-.76-1Z"/>
          <path class="f318a527-e56c-444b-acf2-e8fa5c17b4da" d="M237.57,171.63c-.31-.38-.62-.75-.92-1.13C237,170.88,237.26,171.25,237.57,171.63Z"/>
          <path class="f318a527-e56c-444b-acf2-e8fa5c17b4da" d="M234.1,167.33c-.27-.35-.55-.69-.82-1C233.55,166.64,233.83,167,234.1,167.33Z"/>
          <path class="f318a527-e56c-444b-acf2-e8fa5c17b4da" d="M227.5,158.88l-.7-.92Z"/>
          <path class="f318a527-e56c-444b-acf2-e8fa5c17b4da" d="M192.74,107A180.81,180.81,0,0,0,180.56,90,180.81,180.81,0,0,1,192.74,107Z"/>
          <path class="f318a527-e56c-444b-acf2-e8fa5c17b4da" d="M180.56,90c-1.67-2-3.41-4-5.21-5.9C177.15,86,178.89,87.91,180.56,90Z"/>
        </g>
        <g>
          <path class="e460b891-2793-4318-993a-ea6892619d71" d="M205.56,362.43l-32.91-16.34c-1.57-.79-.19-3.14,1.38-2.36l32.91,16.34C208.51,360.85,207.13,363.21,205.56,362.43Z"/>
          <path class="e460b891-2793-4318-993a-ea6892619d71" d="M194.9,352a3.21,3.21,0,1,0,1.45,4.31A3.21,3.21,0,0,0,194.9,352Z"/>
          <path class="e460b891-2793-4318-993a-ea6892619d71" d="M175.35,346c.18-.36-7.88-11.57-10-14.52-.17-.22-.53-.19-.54,0l-.09,2.76a3.27,3.27,0,0,1-3.19,3.05l-2.64.29a.21.21,0,0,0-.16.33l1.37,2.28a3.28,3.28,0,0,1-.51,4.38l-2.14,1.74c-.19.15,0,.46.29.45C161.37,346.76,175.17,346.4,175.35,346Z"/>
          <g>
            <path class="b2092cc1-5446-4a1d-9490-c9ecdbc91623" d="M169.61,341.34l-7.5-4.07a3.44,3.44,0,0,0,2.15-1.46Z"/>
            <path class="b2092cc1-5446-4a1d-9490-c9ecdbc91623" d="M160.36,340.79l7.78,3.52-7.65-.92A3.43,3.43,0,0,0,160.36,340.79Z"/>
          </g>
        </g>
        <g>
          <path class="b87bda47-f84a-4e93-9f80-fd87f2246b28" d="M205.45,365.39c-5.44-3.38,5.66,3,0,0Z"/>
          <path class="b87bda47-f84a-4e93-9f80-fd87f2246b28" d="M162.28,351.7c10,5.3,33.13,8.39,43.17,13.69,9.78,6.09,27.12,26.45,36.58,33,54.19,37.68,124.8,50.74,188.89,35a26.41,26.41,0,0,1,5.18,5.88c-24.08,5.33-44.64,7.55-69.26,9s-57.44-2.21-80-12.14c-32.24-14.18-55-37.72-77.85-64.53-12.66-2.89-29-8.55-43.28-13.54C166,356.45,161.73,353.31,162.28,351.7Z"/>
        </g>
        <path class="ffe5275e-7fdc-4616-9b54-b31d3c50e9e8" d="M137.26,346.53a1.92,1.92,0,0,1,0-2.07,2.58,2.58,0,0,1,2.46-.64,51,51,0,0,1,5.06.9c-2-1.42-2.18-1.18-4.21-2.61a10.56,10.56,0,0,1-3.17-3l0,0a2.28,2.28,0,0,1,2.68-3.26l3.13,1a.83.83,0,0,0,0-.15,40.78,40.78,0,0,1-9.84-9.24,8.59,8.59,0,0,1-1.78-3.44v0a2.66,2.66,0,0,1,3.26-3,18.35,18.35,0,0,1,5.54,1.84,2.54,2.54,0,0,1,0-.29,40.39,40.39,0,0,1-8.37-9.32,6.32,6.32,0,0,1-1.23-3c-.24-5,6.77-1.63,8.79-1a27.68,27.68,0,0,1-3.88-3.64,16.08,16.08,0,0,1-2.88-5.28,2.72,2.72,0,0,1,3.62-3.27,33.2,33.2,0,0,1,3.83,1.92v-.05l.64.43c3.18,1.84,6.6,4.12,7.87,5a16.27,16.27,0,0,1,1.67,1.28c10.11,6.58,20.53,13.25,30.86,19.9-2-.72-4-1.5-6-2.2-6.49-2.32-14.67-3.35-19.46,1.6-3.78,3.9-3.87,10.28-1.69,15.24s6.22,8.85,10.15,12.59l8.13,7.74c-6.12-2.11-12-4.2-17.33-6l-.13.1s-5.68-2-7.48-2.68c-4.36-1.63-6.82-2.52-8.6-3.74A4.88,4.88,0,0,1,137.26,346.53Z"/>
        <path class="e460b891-2793-4318-993a-ea6892619d71" d="M425.4,428.88c3.1,3.5,5.57,6.36,8.67,9.85l30.68,8.57a41,41,0,0,1,10.5,4c3.23,1.95,5.18,3.95,6.07,7.73,2.25-9.76-1.73-20.28-8.74-27S456,421.86,446.37,421C446.37,421,432.55,426.5,425.4,428.88Z"/>
        <path class="a812c959-b1c6-41a9-91da-7022c70bb52a" d="M426.93,429.18c7.15,3,14.88,4.41,22.45,6.18,8.62,2,17.38,4.66,24.29,10.31a29.23,29.23,0,0,1,8.11,10.57,22.53,22.53,0,0,1-.46,2.79c-.89-3.78-2.84-5.78-6.07-7.73a41,41,0,0,0-10.5-4l-30.68-8.57C431.1,435.39,429.75,432.48,426.93,429.18Z"/>
        <path class="a51c63ab-3394-4cda-8353-f5ab2e9c8e5d" d="M448.86,424.85a6,6,0,0,0,5-.15,9.23,9.23,0,0,0-4-1.59,2.1,2.1,0,0,0-1.22.09.88.88,0,0,0-.54,1A1.18,1.18,0,0,0,448.86,424.85Z"/>
        <path class="a566de24-7288-4eb6-939c-314658eeecb3" d="M471,432.6c-6.84-6.17-16.77-9.59-25.85-11.1l1.19-.47c9.59.83,19.2,4.18,26.21,11a31,31,0,0,1,9.07,17.87C478.9,443.57,476.11,437.19,471,432.6Z"/>
      </g>
      <g class="bd02f523-12ca-428a-96d5-db75ac1d865b">
        <g>
          <path class="f318a527-e56c-444b-acf2-e8fa5c17b4da" d="M85.46,208.48S97.59,176.75,130,207s-38.55,22-69.66,11S85.46,208.48,85.46,208.48Z"/>
          <path class="f318a527-e56c-444b-acf2-e8fa5c17b4da" d="M159.29,191c27.91,20.14-.56,22.56-25.62,17.14S131.37,170.82,159.29,191Z"/>
        </g>
        <g>
          <path class="f318a527-e56c-444b-acf2-e8fa5c17b4da" d="M478,260.7s12.13-31.72,44.55-1.48-38.55,22-69.66,11S478,260.7,478,260.7Z"/>
          <path class="f318a527-e56c-444b-acf2-e8fa5c17b4da" d="M551.81,243.18c27.91,20.14-.55,22.56-25.62,17.14S523.9,223,551.81,243.18Z"/>
        </g>
      </g>
    </g>
  </g>
</svg>
