<svg xmlns="http://www.w3.org/2000/svg" xmlns:xlink="http://www.w3.org/1999/xlink" width="250.26" height="250.26" viewBox="0 0 250.26 250.26">
  <defs>
    <style>
      .a9a90690-cdb9-4183-997f-c44b3ab969b4 {
        fill: none;
      }

      .ae3307f1-8050-4868-a4c5-b1b8ccdee0a0 {
        isolation: isolate;
      }

      .e159db39-7a57-4f47-9558-6ee2e8b3ce49 {
        clip-path: url(#b82ca689-447e-4d97-9809-17e7e48815c6);
      }

      .a72c1502-ffe9-42ab-aa24-93547c8094e9 {
        fill: #31d0e5;
      }

      .f8bb19f9-0bd3-4351-b9ba-30336ce39ef2 {
        opacity: 0.11;
      }

      .b33ef9ac-9144-4d9f-be1c-ea37bcac27d5 {
        fill: #fffdfe;
        stroke: #878787;
        stroke-miterlimit: 10;
        stroke-width: 9px;
        opacity: 0.6;
      }

      .a1d6dfc4-d2fb-4d93-b33f-f5c1c6d8d86e, .b034e91f-8674-4e6a-a1f8-fc4f957ab2e5, .b33ef9ac-9144-4d9f-be1c-ea37bcac27d5, .ba3ad2f6-f5ea-4d22-bd7e-7b031126d479, .bd494e0e-d27e-42ab-99bd-3bc6e18fffb1, .fb506194-8329-4db8-b1e6-25c486b7d2a0 {
        mix-blend-mode: multiply;
      }

      .b9bd3507-5fd6-4f27-9d18-c4bb8309e258 {
        fill: #cff6ff;
      }

      .b9b997e2-3ee5-434a-aee1-91d3ed2c523f {
        clip-path: url(#b374339f-7d76-41ba-8337-0e858eefd714);
      }

      .b47059ed-6705-461d-bc87-5e0444f5ec18 {
        fill: #8acb63;
      }

      .ba3ad2f6-f5ea-4d22-bd7e-7b031126d479 {
        fill: #cfcfcf;
      }

      .bd494e0e-d27e-42ab-99bd-3bc6e18fffb1 {
        fill: #e8e8e8;
      }

      .bac73d13-38f2-4404-befd-5dab8dd54293 {
        fill: #45b588;
      }

      .ad77354e-dfad-4cb1-a859-0d40d8bc33bd {
        fill: #1e845a;
      }

      .ef7d9d57-6024-4efb-b80a-bdcee0dd0965 {
        fill: #2c996f;
      }

      .b76b8e72-7015-4418-aefa-c5289d2cc639 {
        fill: #33a83b;
      }

      .ae15031d-042c-40dd-8f70-de54ab05e269 {
        fill: #68bc53;
      }

      .fb506194-8329-4db8-b1e6-25c486b7d2a0 {
        fill: #bfbfbf;
      }

      .ed38b3ab-a1ec-46bc-8a2f-e3fa92edd6d1 {
        fill: #1e8e1e;
      }

      .b5707107-322f-41e8-9bae-5b9e42587be6 {
        fill: #cfe589;
        mix-blend-mode: lighten;
      }

      .bb4a2fc2-ef44-4143-a956-a6bd2c474392 {
        fill: #0b6d4a;
      }

      .e71da6ef-0cf4-4ad6-aef8-7d5808b627e7 {
        fill: #2ba52e;
      }

      .bdd7e402-20d6-4dfe-af3a-6a7f826c6d65 {
        fill: #1b9b1b;
      }

      .a1d6dfc4-d2fb-4d93-b33f-f5c1c6d8d86e {
        fill: #d4d4d4;
      }

      .aa3a43da-927d-4f3d-858d-dc7ca37eecd7 {
        fill: url(#a9baf109-0664-4105-bcd5-9dc8f0912af7);
      }

      .a68ab112-aa6f-45ac-a65e-72d4ece18085 {
        fill: #3a512c;
      }

      .b74896ac-c429-4956-ac3d-0e6582c49d66 {
        fill: #961414;
      }

      .e60eec69-124b-4dd4-b401-664de9b8c996 {
        fill: #b22626;
      }

      .ba8efe2c-6170-48f7-9768-0baeabe3d870 {
        fill: #f7b24d;
      }

      .fc4f4e7d-995a-4627-a4cd-514f061c70d1 {
        fill: #422602;
      }

      .a1a75320-2404-4bfd-a46d-7aa642334aa0, .b0595589-706e-457c-8e6a-bc3d9d1344b5, .b4cf327f-116c-4070-a7d6-621750ac47a7 {
        fill: #fff;
      }

      .a1a75320-2404-4bfd-a46d-7aa642334aa0, .b0595589-706e-457c-8e6a-bc3d9d1344b5 {
        mix-blend-mode: overlay;
      }

      .b0595589-706e-457c-8e6a-bc3d9d1344b5 {
        opacity: 0.35;
      }

      .e5460c83-2319-46b9-baf0-2ec09edc44b8 {
        fill: #7c450e;
      }

      .f3b04f72-c77b-4c2d-9652-e90f83435587 {
        fill: #d3a7c4;
      }

      .b034e91f-8674-4e6a-a1f8-fc4f957ab2e5 {
        fill: #dbdbdb;
      }

      .bc354161-f2cc-4e33-a2a7-c686de0fda4d {
        fill: #cfbc9b;
      }

      .e3c6131f-fc44-40ef-b478-4ee11f080c25 {
        fill: #e0b8d1;
      }

      .b24b900e-f56d-4870-a4e4-3a61de648bd1 {
        fill: #decaa7;
      }

      .a1a75320-2404-4bfd-a46d-7aa642334aa0 {
        opacity: 0.3;
      }

      .b3ab56cc-8492-45ed-a0d4-5e98bccf360c {
        fill: #f7cbe6;
      }

      .b21d6086-303c-429b-8360-b6a8c59c4a0f {
        fill: #edddc3;
      }

      .ae45a21c-2c54-4402-9129-7363257e661d {
        fill: #f9d9ee;
      }

      .f52fbea8-d7ee-41f5-8a7c-074943f04052 {
        fill: #fae9ce;
      }
    </style>
    <clipPath id="b82ca689-447e-4d97-9809-17e7e48815c6">
      <ellipse class="a9a90690-cdb9-4183-997f-c44b3ab969b4" cx="542.29" cy="-355.5" rx="286.95" ry="286"/>
    </clipPath>
    <clipPath id="b374339f-7d76-41ba-8337-0e858eefd714">
      <circle class="a9a90690-cdb9-4183-997f-c44b3ab969b4" cx="125.43" cy="126.29" r="114.24"/>
    </clipPath>
    <linearGradient id="a9baf109-0664-4105-bcd5-9dc8f0912af7" x1="200.45" y1="126.75" x2="267.33" y2="237.45" gradientTransform="translate(-96.06 -43.19) rotate(-2.01)" gradientUnits="userSpaceOnUse">
      <stop offset="0" stop-color="#56b545"/>
      <stop offset="1" stop-color="#4cc173"/>
    </linearGradient>
  </defs>
  <g class="ae3307f1-8050-4868-a4c5-b1b8ccdee0a0">
    <g id="be5f00eb-582c-44f3-b4e2-1f39a7e4a8d7" data-name="Layer 1">
      <g class="e159db39-7a57-4f47-9558-6ee2e8b3ce49">
        <rect class="a72c1502-ffe9-42ab-aa24-93547c8094e9" x="178.98" y="-642.93" width="892.82" height="889.85"/>
        <path class="f8bb19f9-0bd3-4351-b9ba-30336ce39ef2" d="M512.77,116.08c.47,7.56-66.61,17.9-149.84,23.09s-151.08,3.26-151.55-4.3S278,117,361.21,111.78,512.29,108.51,512.77,116.08Z"/>
      </g>
      <g>
        <g>
          <circle class="b33ef9ac-9144-4d9f-be1c-ea37bcac27d5" cx="125.13" cy="125.13" r="116.99"/>
          <circle class="b9bd3507-5fd6-4f27-9d18-c4bb8309e258" cx="124.85" cy="125.71" r="114.82"/>
        </g>
        <g class="b9b997e2-3ee5-434a-aee1-91d3ed2c523f">
          <g id="b39763ac-6cf4-4872-9f3e-20a8308e78d8" data-name="30">
            <g>
              <path class="b47059ed-6705-461d-bc87-5e0444f5ec18" d="M124.33,65.35c-9.34-10.78-12.57-14-20.22-19.6L78.21,69.6c1.28,3.17,4,4.68,4.44,18.26,17.62,6.68,43.06,2.87,43.06,2.87l15,4.24S133.54,76,124.33,65.35Z"/>
              <path class="ba3ad2f6-f5ea-4d22-bd7e-7b031126d479" d="M110.44,66.13l-3.91,5.11C97,80.18,85.35,77.86,81.3,76.66a37.21,37.21,0,0,1,.87,4.77C100.23,83.32,107.9,71.8,110.44,66.13Z"/>
              <path class="bd494e0e-d27e-42ab-99bd-3bc6e18fffb1" d="M124.33,65.35c-2.84-3.27-5.11-5.85-7.11-8,6.13,9.48,11.7,20.23,12,25.52A6.29,6.29,0,0,0,136,84.22C133.08,78.13,129,70.69,124.33,65.35Z"/>
              <path class="b47059ed-6705-461d-bc87-5e0444f5ec18" d="M140.19,88.83c-3.31-1.61-6.34-4.44-9.12-7.64L82.78,82.88c-.16,1.36-15.29,39.7,28.88,76.7,16.7,14,37.05,12.38,41.38,7.64S148.46,92.83,140.19,88.83Z"/>
              <path class="bd494e0e-d27e-42ab-99bd-3bc6e18fffb1" d="M140.19,88.83c-4.35-2.11-8.23-6.33-11.67-10.76l-12.65-2c-8.92,4.16-12.71,20.69-8.25,23.5a57.34,57.34,0,0,0,.36,6.42,27.4,27.4,0,0,1,0,5.28c-.43,4.77.24,9,3,9.64.25.87.52,1.75.81,2.63,1.18,6.73,2.8,15,6.7,14.7,7.84,14.05-5.81,22.33-16.28,13a95.54,95.54,0,0,0,9.54,8.43C128.85,173,148.71,172,153,167.22S148.46,92.83,140.19,88.83Z"/>
              <g>
                <path class="bac73d13-38f2-4404-befd-5dab8dd54293" d="M150.24,182.15l-5,3.74.64,10.07,13.29,43.73s9.6,31.19,17.33,38C180.15,280.81,150.24,182.15,150.24,182.15Z"/>
                <path class="ad77354e-dfad-4cb1-a859-0d40d8bc33bd" d="M162.66,175.78l-7.41,5.57.95,15L176,261.51S190.3,308,201.82,318C207.21,322.76,162.66,175.78,162.66,175.78Z"/>
                <path class="ef7d9d57-6024-4efb-b80a-bdcee0dd0965" d="M170.49,180.77,164.84,185l.72,11.44,15.09,49.65s10.9,35.4,19.68,43.09C204.44,292.77,170.49,180.77,170.49,180.77Z"/>
                <path class="b76b8e72-7015-4418-aefa-c5289d2cc639" d="M170.2,220.14,167,246.81c2.72,7.28,16.27,46.16,21.47,44.71S173.72,230.63,170.2,220.14Z"/>
                <path class="ef7d9d57-6024-4efb-b80a-bdcee0dd0965" d="M159.46,173.76l-7.94,4.82c-.21.66,2,13.39,2.13,14.4s-2,18.6,4.81,36.66,21.28,42.22,21.91,35.88S159.46,173.76,159.46,173.76Z"/>
                <path class="b76b8e72-7015-4418-aefa-c5289d2cc639" d="M171.76,238.19c-1-6.54-3.39-12.55-4.88-19-.55-2.35-1-5.77-4.12-5.69-2.84.09-15.52-22-17-20l6.77,20.81c2.44,5.86,7,18.23,9.72,24,1.71,3.57,4.53,13.08,8.85,14.21C175.87,253.78,172.13,240.56,171.76,238.19Z"/>
                <path class="ae15031d-042c-40dd-8f70-de54ab05e269" d="M159.49,179.62c-1.11-5.41-1.43-10.15-7.94-7.47.4,6.14,2.14,12.64,3.6,18.63,2.54,10.5,3.74,21.37,5.42,32l1.67,2.64c.59,1.62,3.5,12.19,5.92,11.16S162.09,192.26,159.49,179.62Z"/>
                <path class="ae15031d-042c-40dd-8f70-de54ab05e269" d="M143.9,189.68c2.65,6.74,14.19,44.83,18.55,43.59s-3.4-36.52-6.09-45.19S143.9,189.68,143.9,189.68Z"/>
                <path class="b47059ed-6705-461d-bc87-5e0444f5ec18" d="M155.71,167.34c2.29,7.73,7.67,38.2,4.36,38.32s-7.06-12.78-8.15-17-5.81-21.7-5.81-21.7Z"/>
                <path class="b47059ed-6705-461d-bc87-5e0444f5ec18" d="M133.9,168.85c3.34,9,9.85,33,14.71,31.48s-.43-22.9-2-30.78S133.9,168.85,133.9,168.85Z"/>
              </g>
              <path class="fb506194-8329-4db8-b1e6-25c486b7d2a0" d="M161.24,177l-.82.61-1-3.85-1.16.7a5.31,5.31,0,0,0-1.4-2.32c-.44-2-.85-3.65-1.19-4.8l-8.57-.31c-1.64-2.18-4.83-1.64-7.48-.65.76,1.79,1.51,3.55,2.24,5.25l-.76-.13-5-.64c2.1,6.12,5,15.82,8,22.34l8.62,1.94a158.16,158.16,0,0,0,11.27,19.49,1,1,0,0,0,1.76-.95l-1.68-4.7a.93.93,0,0,0,1.34-1c-.11-.81-.24-1.69-.39-2.63,3.08,7.06,6.48,15,10.31,24a1,1,0,0,0,1.55.5C168.61,201.3,161.24,177,161.24,177Z"/>
              <g>
                <path class="ed38b3ab-a1ec-46bc-8a2f-e3fa92edd6d1" d="M141.49,135.76l-22-3.8c9.73,22.89,20.61,38.59,26.15,32.44S141.49,135.76,141.49,135.76Z"/>
                <path class="b5707107-322f-41e8-9bae-5b9e42587be6" d="M121.3,132.27l-.59-.11-.91.45c8.73,20.36,18.32,34.85,24.14,33a3,3,0,0,0-.15-1C135,165.07,126.71,144.68,121.3,132.27Z"/>
                <path class="bb4a2fc2-ef44-4143-a956-a6bd2c474392" d="M129.93,129.31q6.12-2.39,12.26-4.71C161,170.19,169.26,199.87,171,213.76a1.07,1.07,0,0,1-2.07.53C149.34,168.1,140.1,148.94,129.93,129.31Z"/>
                <path class="bb4a2fc2-ef44-4143-a956-a6bd2c474392" d="M146.87,143.58c4.09-1.58,8.17-3.16,12.27-4.71C177.9,184.46,186.21,214.14,188,228a1.07,1.07,0,0,1-2.06.53C166.28,182.38,157,163.22,146.87,143.58Z"/>
                <path class="e71da6ef-0cf4-4ad6-aef8-7d5808b627e7" d="M140.44,125.09q-6.54,2.58-13.06,5.19c18.33,49.47,33.32,78.84,42,91.05a1.15,1.15,0,0,0,2-1.09C153.33,169.69,146.69,147.91,140.44,125.09Z"/>
                <path class="b5707107-322f-41e8-9bae-5b9e42587be6" d="M133.84,143.34l-1.35.44c16,41.37,29,66.5,36.92,77.55a1.12,1.12,0,0,0,.94.52C158.26,204,138.23,155.62,133.84,143.34Z"/>
                <path class="bdd7e402-20d6-4dfe-af3a-6a7f826c6d65" d="M140.55,147.11q6.55-2.54,13.12-5c20.08,48.79,29,80.55,30.85,95.42a1.14,1.14,0,0,1-2.21.57C161.33,188.63,151.44,168.13,140.55,147.11Z"/>
                <path class="b5707107-322f-41e8-9bae-5b9e42587be6" d="M149.18,160.19l.08,4.14c8.23,16.76,17.65,37.45,33.05,73.73a1.28,1.28,0,0,0,.67.67C178.64,224.54,156.69,177.66,149.18,160.19Z"/>
                <path class="a1d6dfc4-d2fb-4d93-b33f-f5c1c6d8d86e" d="M149.39,142.61q-3.31-8.56-7.2-18l-1.7.65c0-.06,0-.11-.05-.16q-6.54,2.58-13.06,5.19l1.21,3.25L119.52,132c1.16,2.73,2.34,5.35,3.52,7.84a2.33,2.33,0,0,0,2.74,0s.19.75.59,1.86a13.15,13.15,0,0,0,4.5,6.2c.9,2.74,3,5.5,6.22,3.81,2,5.61,8.59,17.45,12.25,16.17,4.51,4.81,8.47,7.28,9.83,3.23,4,5.66,13.28,20.89,13.42,8.24a49.49,49.49,0,0,0-.93-8.23q-5.28-14.49-12.52-32.18C155.88,140.11,152.64,141.36,149.39,142.61Z"/>
                <path class="aa3a43da-927d-4f3d-858d-dc7ca37eecd7" d="M165.92,147.2c.05-4.15-1.17-8.24-2.34-12.25-1-3.56-1.92-6.7-2.72-9.3a138.47,138.47,0,0,0-11-26.52c0,.51-.06,1-.1,1.5h0c.05-.49.09-1,.1-1.5-6.55-11.73-14.6-20.42-24-23.46-5.81-1.84-12.66-1.82-15.94,6.49a20.18,20.18,0,0,0-1.09,6c-1,4.54-1.22,9.58.44,9.43q.08.84.21,1.71c-.26,2.92.11,7.7,1.64,9.25,0,1.53-.76,5.71.77,7.57.71,3.84,1.87,7.56,3.39,7.76.43,1.26.87,2.46,1.32,3.62,5.28,13.54,9.13,9.93,9.13,9.93s.19.74.59,1.85a13.15,13.15,0,0,0,4.5,6.2c.9,2.75,3,5.5,6.22,3.81,2,5.62,8.58,17.45,12.25,16.18,4.51,4.81,8.47,7.28,9.82,3.22,4,5.67,13.29,20.89,13.43,8.25C172.41,168.91,169,157.78,165.92,147.2Z"/>
                <path class="a1d6dfc4-d2fb-4d93-b33f-f5c1c6d8d86e" d="M163.83,174.28c-2.05-3-3.87-6.16-5.4-8.72-2.56,5.94-16.35-8-20.68-19-4.38,4.25-5-.41-5.26-2.78-2.45,2.23-3.82-2-6.54-8.64-1.84,1.78-3.75,1.4-5.76-.41,3.33,4.75,5.51,2.71,5.51,2.71s.19.74.59,1.85a13.15,13.15,0,0,0,4.5,6.2c.9,2.75,3,5.5,6.22,3.81,2,5.62,8.58,17.45,12.25,16.18,4.51,4.81,8.47,7.28,9.82,3.22,4,5.67,13.29,20.89,13.43,8.25-.1-8-3.5-19.17-6.59-29.75.05-4.15-1.17-8.24-2.34-12.25-1-3.56-1.92-6.7-2.72-9.3a138.47,138.47,0,0,0-11-26.52c0,.51-.06,1-.1,1.5h0c.05-.49.09-1,.1-1.5-6.55-11.73-14.6-20.42-24-23.46a22.45,22.45,0,0,0-3.54-.82c14.37,5.49,35.29,28.68,41.08,70.18-.42,2,6,18.06,7.2,28.07C171,176.77,165.9,177.33,163.83,174.28Z"/>
              </g>
              <path class="b47059ed-6705-461d-bc87-5e0444f5ec18" d="M68.89,44.55c-9.72,7-5.38,12.5-3,14.24l4.82,9.31c5.5,14.77,23.36,11.81,31.66,6.87,6.49-3.86,8.33-7.06,8.87-13.9a17.18,17.18,0,0,0-3.43-12.3C96.52,35,77.6,38.3,68.89,44.55Z"/>
              <path class="a68ab112-aa6f-45ac-a65e-72d4ece18085" d="M109,49.51h0c9.48,27.92-25.8,34.6-30.88,20l-5,3.13c9.21,12.18,32.4,4.9,37.46-5.56C111.92,64.42,113.15,53.47,109,49.51Z"/>
              <path class="ba3ad2f6-f5ea-4d22-bd7e-7b031126d479" d="M90.22,50.57c8.15-4.79-2.15-5.63-6-2.39-10.88,9.26-20.78,9.54-21.4,5.51a7.23,7.23,0,0,0,2.79,4.91,7.68,7.68,0,0,0,1.56.17l-1.08.47,4.59,8.86A15.73,15.73,0,0,0,78.28,77c4.08-3.48,3-8.33.75-13.63,1.36-1.86-1.67-5.12-6.08-6a54,54,0,0,1,6.65-2.91c5.38-1.58,8,1,8,1a10.5,10.5,0,0,0-1.45-2.8A7.78,7.78,0,0,0,90.22,50.57Z"/>
              <path class="b74896ac-c429-4956-ac3d-0e6582c49d66" d="M77.88,62.08l-6,1.88S66.6,66,68.43,70.73s10.13,4.41,11.37,2S79.41,64.69,77.88,62.08Z"/>
              <path class="e60eec69-124b-4dd4-b401-664de9b8c996" d="M76.79,65.89c2.5-2.92,2.41-4.07.35-5.77s-8.22-3.81-12.38-2.34c-1.16,4.81-1.55,19,8.63,21.87C71.94,76.26,69.76,74.12,76.79,65.89Z"/>
              <g>
                <path class="ba8efe2c-6170-48f7-9768-0baeabe3d870" d="M94.79,47.87a7,7,0,1,1-9.62,2.64A7,7,0,0,1,94.79,47.87Z"/>
                <path class="fc4f4e7d-995a-4627-a4cd-514f061c70d1" d="M94.41,49.73a4.28,4.28,0,1,1-5.85,1.6A4.27,4.27,0,0,1,94.41,49.73Z"/>
                <path class="b0595589-706e-457c-8e6a-bc3d9d1344b5" d="M92.1,59.57a7,7,0,0,0,3.12-2,5.84,5.84,0,0,0,1.52-3,6.18,6.18,0,0,0-.43-3.29,18.66,18.66,0,0,0-1.78-3.17,7.89,7.89,0,0,1,2.76,2.66,5.69,5.69,0,0,1,.85,4,5.78,5.78,0,0,1-2.21,3.58A5.15,5.15,0,0,1,92.1,59.57Z"/>
                <circle class="b4cf327f-116c-4070-a7d6-621750ac47a7" cx="90.18" cy="50.33" r="1.05"/>
              </g>
            </g>
            <g>
              <path class="e5460c83-2319-46b9-baf0-2ec09edc44b8" d="M102.59,167.87c29.65,4.11,38.71,6.23,27.51,37.55-5.31,14.86-42.22,32.32-35,56.09,8.77,29,28-16.38,28-16.38s37-39.47,22.45-73c-5.41-12.46-19.9-10.89-46.61-10.43C48.08,162.54,102.59,167.87,102.59,167.87Z"/>
              <g>
                <path class="e5460c83-2319-46b9-baf0-2ec09edc44b8" d="M88.49,164.15s-14.15,10.75-36.62,2.57c0,0,2.78,7.51,21.08,5.6C88.77,170.67,88.49,164.15,88.49,164.15Z"/>
                <path class="e5460c83-2319-46b9-baf0-2ec09edc44b8" d="M95.79,164.65s-7.54-10.86-25.14-9.77c0,0,3.63-4.85,16,.49C97.44,160,95.79,164.65,95.79,164.65Z"/>
                <path class="bb4a2fc2-ef44-4143-a956-a6bd2c474392" d="M69.9,143s-3.58,5.84,5.27,10.89C75.17,153.86,80.44,148.42,69.9,143Z"/>
                <path class="bb4a2fc2-ef44-4143-a956-a6bd2c474392" d="M60.18,149.15s.25,6.84,10.42,6.17C70.6,155.32,72,147.86,60.18,149.15Z"/>
                <path class="bb4a2fc2-ef44-4143-a956-a6bd2c474392" d="M44.92,163s.25,6.84,10.42,6.16C55.34,169.12,56.72,161.67,44.92,163Z"/>
                <path class="bb4a2fc2-ef44-4143-a956-a6bd2c474392" d="M49.27,177.86s6.51,2.14,9.4-7.63C58.67,170.23,52.16,166.35,49.27,177.86Z"/>
                <path class="bb4a2fc2-ef44-4143-a956-a6bd2c474392" d="M67.84,169.76s3.29-6-5.79-10.63C62.05,159.13,57.05,164.82,67.84,169.76Z"/>
              </g>
            </g>
            <g>
              <g>
                <path class="f3b04f72-c77b-4c2d-9652-e90f83435587" d="M114.83,161.64c-.52-1.1-2.09-1.2-4-.95a5.33,5.33,0,0,0-.56,0c-1.32.09-3.31.3-4.4.42a5,5,0,0,0-1.51.42l-4.42,2a1.26,1.26,0,0,0-.65,1.82,1.91,1.91,0,0,0,2.13.93,35.12,35.12,0,0,0,4.43-1.87,2.76,2.76,0,0,1,1.5-.28l3.45.33a7.4,7.4,0,0,1,1.54.32l1.94.62c0-.39.08-.8.15-1.19C115.23,164.08,115.44,162.93,114.83,161.64Z"/>
                <path class="b034e91f-8674-4e6a-a1f8-fc4f957ab2e5" d="M109.46,163.57a10.73,10.73,0,0,0-2.56-.66,3,3,0,0,0-1.09.48,17.26,17.26,0,0,0-1.6.83c-1.06.69-3.41,2.46-4.4.88l-.53.29a1.89,1.89,0,0,0,2.11.91,35.12,35.12,0,0,0,4.43-1.87,2.76,2.76,0,0,1,1.5-.28l3.45.33a7.4,7.4,0,0,1,1.54.32l1.94.62q0-.48.12-1A37.37,37.37,0,0,1,109.46,163.57Z"/>
                <path class="bc354161-f2cc-4e33-a2a7-c686de0fda4d" d="M100.44,165.15a.9.9,0,0,0-1.11-.64,3.75,3.75,0,0,0-2.55,3.1c-.11,1.94,3.1,2.39,3.1,2.39s-2.18-.89-1.56-2.64a2.1,2.1,0,0,1,1.54-1.3A.75.75,0,0,0,100.44,165.15Z"/>
                <g>
                  <path class="e3c6131f-fc44-40ef-b478-4ee11f080c25" d="M113.44,161.74a4.6,4.6,0,0,0-1.57,0c-1.29.25-2.18.63-3.24.9a5,5,0,0,0-1.44.61l-2.62,2a1.53,1.53,0,0,0-.19,2.17,1.9,1.9,0,0,0,2.23.65c1.28-.57,1.45-1.47,2.43-2.12a2.91,2.91,0,0,1,1.45-.48l2.41,0a6.39,6.39,0,0,1,1.57.11c5.94,1.23,6.26,1.49,7.29,1v0C125.82,164.5,117.94,162.56,113.44,161.74Z"/>
                  <path class="b034e91f-8674-4e6a-a1f8-fc4f957ab2e5" d="M122.87,165.46c-.82.94-11.61-.82-11.61-.82-.93-.2-1.09-.84-3.62,1.67a3.28,3.28,0,0,1-2.39.94l-1.14-.28v0c0,.07.06.15.1.23a1.77,1.77,0,0,0,.16.22,1.9,1.9,0,0,0,2.23.65c1.28-.57,1.45-1.47,2.43-2.12a2.91,2.91,0,0,1,1.45-.48l2.41,0a6.39,6.39,0,0,1,1.57.11l5.64,1.17a4.92,4.92,0,0,0,.67.07,2.55,2.55,0,0,0,1-.22v0C122.49,166.19,122.83,165.82,122.87,165.46Z"/>
                  <path class="b24b900e-f56d-4870-a4e4-3a61de648bd1" d="M106,166.87a1.12,1.12,0,0,0-1.3-.66,3.36,3.36,0,0,0-2,3.19,2.28,2.28,0,0,0,1.64,2.39,2.52,2.52,0,0,1-.15-2.58c.29-.82.56-1.2,1.12-1.34A.87.87,0,0,0,106,166.87Z"/>
                  <path class="a1a75320-2404-4bfd-a46d-7aa642334aa0" d="M110.39,163c-.28-.65-1.91,0-2.31.18a7.49,7.49,0,0,0-2.3,1.6l-.44.44c.42,1.9,2.78-.72,3.44-1.25C109.08,163.75,110.59,163.46,110.39,163Z"/>
                </g>
                <path class="a1a75320-2404-4bfd-a46d-7aa642334aa0" d="M104.8,162.27c-.79-.35-2,.46-2.67.8a3.09,3.09,0,0,0-1.2.71c-.28.4.11.93.57.62l.5-.21C102.65,164.13,104.8,163,104.8,162.27Z"/>
              </g>
              <g>
                <path class="b3ab56cc-8492-45ed-a0d4-5e98bccf360c" d="M129.93,153s1.94,5.38-3.68,6.88,5.62,1.81,5.62,1.81l5,.51-4-4.87Z"/>
                <path class="b3ab56cc-8492-45ed-a0d4-5e98bccf360c" d="M127.12,160.37c-.81-.92-2.34-.58-4.14.19a3.41,3.41,0,0,0-.55.14c-1.24.44-3.1,1.19-4.11,1.61a4.74,4.74,0,0,0-1.33.81l-3.7,3.17a1.26,1.26,0,0,0-.12,1.93,1.89,1.89,0,0,0,2.3.31,35.2,35.2,0,0,0,3.75-3,2.71,2.71,0,0,1,1.36-.68l3.41-.63a7,7,0,0,1,1.58-.12l2,.08c-.08-.4-.14-.8-.19-1.2C128.17,162.6,128.05,161.44,127.12,160.37Z"/>
                <path class="b034e91f-8674-4e6a-a1f8-fc4f957ab2e5" d="M122.48,163.7a10.57,10.57,0,0,0-2.64.06,3.08,3.08,0,0,0-.92.77c-.44.41-.91.78-1.31,1.23-.82,1-2.6,3.3-4,2.05l-.43.43a1.9,1.9,0,0,0,2.28.29,35.2,35.2,0,0,0,3.75-3,2.71,2.71,0,0,1,1.36-.68l3.41-.63a7,7,0,0,1,1.58-.12l2,.08c-.07-.33-.12-.66-.16-1A37.22,37.22,0,0,1,122.48,163.7Z"/>
                <path class="b21d6086-303c-429b-8360-b6a8c59c4a0f" d="M114.24,167.69a.9.9,0,0,0-1.24-.31,3.74,3.74,0,0,0-1.6,3.68c.43,1.89,3.63,1.44,3.63,1.44s-2.33-.26-2.22-2.1a2.1,2.1,0,0,1,1.12-1.68A.74.74,0,0,0,114.24,167.69Z"/>
                <g>
                  <path class="ae45a21c-2c54-4402-9129-7363257e661d" d="M125.81,160.85a4.45,4.45,0,0,0-1.51.44c-1.17.6-1.92,1.21-2.87,1.76a4.83,4.83,0,0,0-1.22,1l-2,2.64a1.52,1.52,0,0,0,.41,2.14,1.92,1.92,0,0,0,2.32,0c1.07-.91,1-1.82,1.76-2.72a2.7,2.7,0,0,1,1.26-.84l2.31-.7a7.4,7.4,0,0,1,1.54-.32c6.05-.44,6.43-.28,7.29-1l0,0C138.47,160.1,130.36,160.39,125.81,160.85Z"/>
                  <path class="b034e91f-8674-4e6a-a1f8-fc4f957ab2e5" d="M135.9,161.83c-.53,1.14-11.39,2.4-11.39,2.4-1,.06-1.28-.52-3,2.6a3.31,3.31,0,0,1-2,1.57l-1.17,0h0a1.56,1.56,0,0,0,.16.2,1.18,1.18,0,0,0,.22.17,1.92,1.92,0,0,0,2.32,0c1.07-.91,1-1.82,1.76-2.72a2.7,2.7,0,0,1,1.26-.84l2.31-.7a7.4,7.4,0,0,1,1.54-.32l5.74-.42a4.31,4.31,0,0,0,.67-.12,2.52,2.52,0,0,0,.88-.48l0,0C135.73,162.65,136,162.19,135.9,161.83Z"/>
                  <path class="f52fbea8-d7ee-41f5-8a7c-074943f04052" d="M120,167.82a1.13,1.13,0,0,0-1.43-.27,3.36,3.36,0,0,0-1,3.6,2.28,2.28,0,0,0,2.23,1.85s-1-.58-.85-2.43c.06-.88.21-1.31.71-1.6A.88.88,0,0,0,120,167.82Z"/>
                  <path class="a1a75320-2404-4bfd-a46d-7aa642334aa0" d="M123.22,162.9c-.44-.55-1.83.56-2.17.81a7.47,7.47,0,0,0-1.78,2.17l-.29.54c.93,1.71,2.47-1.45,3-2.14C122.17,164,123.54,163.28,123.22,162.9Z"/>
                </g>
                <path class="a1a75320-2404-4bfd-a46d-7aa642334aa0" d="M117.65,163.72c-.86-.11-1.8,1-2.36,1.5-.3.27-.82.63-1,1s.36.87.71.45l.43-.35C116.09,166.1,117.85,164.44,117.65,163.72Z"/>
              </g>
            </g>
          </g>
        </g>
      </g>
    </g>
  </g>
</svg>
