<svg id="f13b0d45-3c90-4f30-bd72-0ce627475cfd" data-name="Layer 1" xmlns="http://www.w3.org/2000/svg" xmlns:xlink="http://www.w3.org/1999/xlink" width="462.9" height="482.5" viewBox="0 0 462.9 482.5">
  <defs>
    <style>
      .a65b2684-06b4-45d1-b5aa-dad634d45ad3, .b2a0f576-0230-41aa-a0e7-4c96e4173794, .b8997b28-3fad-4cae-8eb6-24c4f9f4011d {
        fill: none;
      }

      .fca5228b-3b85-4a56-8e05-5f96c172096f {
        opacity: 0.5;
      }

      .b56d28cc-cb54-4787-945d-6a203f74d012 {
        fill: url(#f3b30541-f847-48a7-9302-b65788162687);
      }

      .b8ac4333-e45e-44ce-9414-57abc3f334a3 {
        fill: #31d0e5;
        stroke-width: 6px;
        stroke: url(#f1239991-c79d-419b-a085-c10b893048ee);
      }

      .ab23ae13-609c-4a99-ac36-939a5da5bc3d, .b2a0f576-0230-41aa-a0e7-4c96e4173794, .b8997b28-3fad-4cae-8eb6-24c4f9f4011d, .b8ac4333-e45e-44ce-9414-57abc3f334a3 {
        stroke-miterlimit: 10;
      }

      .eaffef45-d611-46b4-bf14-985a9e8ba342 {
        clip-path: url(#a7835151-93c0-44fd-b940-d8d5b13aa6cb);
      }

      .ab23ae13-609c-4a99-ac36-939a5da5bc3d, .f85ab90c-b0a8-42e7-bcfb-3c75ef20801f {
        fill: #fff;
      }

      .ab23ae13-609c-4a99-ac36-939a5da5bc3d, .b2a0f576-0230-41aa-a0e7-4c96e4173794 {
        stroke: #afafaf;
      }

      .eb9659ff-ce40-4ca3-a703-7f755a9b05cc {
        fill: #d8d8d8;
      }

      .b8997b28-3fad-4cae-8eb6-24c4f9f4011d {
        stroke: #d8d8d8;
      }

      .ff98302d-86b5-420d-b887-1d66a453074b {
        fill: #afafaf;
      }
    </style>
    <linearGradient id="f3b30541-f847-48a7-9302-b65788162687" x1="52.73" y1="118.79" x2="402" y2="358.11" gradientUnits="userSpaceOnUse">
      <stop offset="0" stop-color="#9b81cf"/>
      <stop offset="1" stop-color="#3b139b"/>
    </linearGradient>
    <linearGradient id="f1239991-c79d-419b-a085-c10b893048ee" x1="25.67" y1="241.25" x2="437.24" y2="241.25" gradientUnits="userSpaceOnUse">
      <stop offset="0" stop-color="#4c1da9"/>
      <stop offset="1" stop-color="#997ece"/>
    </linearGradient>
    <clipPath id="a7835151-93c0-44fd-b940-d8d5b13aa6cb">
      <ellipse class="a65b2684-06b4-45d1-b5aa-dad634d45ad3" cx="230.92" cy="244.41" rx="202.98" ry="202.7"/>
    </clipPath>
  </defs>
  <g>
    <g>
      <path class="fca5228b-3b85-4a56-8e05-5f96c172096f" d="M444.68,252.5a208.28,208.28,0,0,0-25.42-100,211.66,211.66,0,0,0-187.81-114c-116.9,0-211.67,94.78-211.67,211.68s94.77,211.68,211.67,211.68c3,0,5.93-.08,8.87-.2C353.63,459.07,444.68,366.42,444.68,252.5Z"/>
      <g>
        <circle class="b56d28cc-cb54-4787-945d-6a203f74d012" cx="231.45" cy="241.25" r="211.68"/>
        <circle class="b8ac4333-e45e-44ce-9414-57abc3f334a3" cx="231.45" cy="241.25" r="202.78"/>
      </g>
    </g>
    <g class="eaffef45-d611-46b4-bf14-985a9e8ba342">
      <g>
        <g>
          <path class="f85ab90c-b0a8-42e7-bcfb-3c75ef20801f" d="M72.66,191.09s5-22.84,30.63-5.74-24.28,19-47,14.85S72.66,191.09,72.66,191.09Z"/>
          <path class="f85ab90c-b0a8-42e7-bcfb-3c75ef20801f" d="M121.79,171.35c21.46,10.72,2,15.38-15.86,14.36S100.32,160.64,121.79,171.35Z"/>
        </g>
        <g>
          <path class="f85ab90c-b0a8-42e7-bcfb-3c75ef20801f" d="M352.2,285.55s4.95-22.83,30.62-5.74-24.27,19-46.95,14.86S352.2,285.55,352.2,285.55Z"/>
          <path class="f85ab90c-b0a8-42e7-bcfb-3c75ef20801f" d="M401.33,265.82c21.46,10.71,2.05,15.37-15.86,14.36S379.86,255.1,401.33,265.82Z"/>
        </g>
        <g>
          <g>
            <path class="ab23ae13-609c-4a99-ac36-939a5da5bc3d" d="M157.17,136.42,284,161s35.08.33,59.39-91.79L333.07-129,211.56-88.71,281.69-36.2C281.46-32.7,291.42-11.81,157.17,136.42Z"/>
            <path class="eb9659ff-ce40-4ca3-a703-7f755a9b05cc" d="M342.42,68.63l-10-196.83L213-88.23,282.13-36.8S310.29-15.49,342.42,68.63Z"/>
          </g>
          <g>
            <g>
              <line class="b8997b28-3fad-4cae-8eb6-24c4f9f4011d" x1="187.13" y1="125.25" x2="292.24" y2="144"/>
              <line class="b8997b28-3fad-4cae-8eb6-24c4f9f4011d" x1="195.71" y1="112.41" x2="303.4" y2="131.62"/>
              <line class="b8997b28-3fad-4cae-8eb6-24c4f9f4011d" x1="206.88" y1="100.7" x2="310.93" y2="119.26"/>
              <line class="b8997b28-3fad-4cae-8eb6-24c4f9f4011d" x1="224.8" y1="77.54" x2="320.65" y2="94.64"/>
              <line class="b8997b28-3fad-4cae-8eb6-24c4f9f4011d" x1="232.55" y1="64.8" x2="326.12" y2="83.02"/>
              <line class="b8997b28-3fad-4cae-8eb6-24c4f9f4011d" x1="214.94" y1="89.41" x2="317.03" y2="107.61"/>
              <line class="b8997b28-3fad-4cae-8eb6-24c4f9f4011d" x1="241.96" y1="53.19" x2="333.29" y2="69.48"/>
              <line class="b8997b28-3fad-4cae-8eb6-24c4f9f4011d" x1="250.55" y1="40.35" x2="337.99" y2="55.95"/>
              <line class="b8997b28-3fad-4cae-8eb6-24c4f9f4011d" x1="261.71" y1="28.64" x2="334.25" y2="41.58"/>
              <line class="b8997b28-3fad-4cae-8eb6-24c4f9f4011d" x1="279.64" y1="5.49" x2="332.49" y2="14.91"/>
              <line class="b8997b28-3fad-4cae-8eb6-24c4f9f4011d" x1="269.78" y1="17.35" x2="332.56" y2="28.54"/>
            </g>
            <path class="b2a0f576-0230-41aa-a0e7-4c96e4173794" d="M322.7.88s13.19-9.69,14.62-11"/>
          </g>
        </g>
        <path class="ff98302d-86b5-420d-b887-1d66a453074b" d="M259,232c56.49-30.14,100.15-83.72,118.5-145a229.59,229.59,0,0,0,6.74-28c.5-2.71,1.31-6.75,1.57-9.48.39-3.25,1.55-11.11,1.68-14.31.25-3.43.65-8.55.9-12,.07-4.47.31-12.37.33-16.82C388.5.89,388.5-7.44,388-12.87c-.25-3.32-.92-11-1.18-14.38l.91,9.57c.87,7.3,1.1,16.66,1.42,24,.06,4.41-.17,12.38-.22,16.85-.23,3.43-.6,8.56-.84,12-.12,3.16-1.24,11.09-1.62,14.36-.25,2.72-1,6.79-1.53,9.51a230,230,0,0,1-6.64,28.11C360.26,148.59,315.92,202.55,259,232Z"/>
        <path class="ff98302d-86b5-420d-b887-1d66a453074b" d="M110.44,142.05c38,30.68,88.62,48,137.39,40.1l7.25-1.3c2.48-.69,8.32-1.94,10.71-2.68,3.23-1.1,7.33-2.21,10.51-3.41a196.4,196.4,0,0,0,20.24-8.84c2-1.12,7.72-4.24,9.7-5.33,4.76-3,10.91-6.73,15.39-10.14l6-4.33-5.92,4.42c-4.42,3.5-10.52,7.32-15.24,10.42-2,1.11-7.6,4.31-9.66,5.46a197,197,0,0,1-20.24,9.06c-3.18,1.24-7.29,2.41-10.53,3.51-2.38.7-8.29,2.09-10.77,2.73L248,183.05c-49,8.18-100-9.48-137.54-41Z"/>
      </g>
    </g>
  </g>
</svg>
