<svg id="e4d091e0-2381-484f-944c-0368d5bb9103" data-name="Layer 1" xmlns="http://www.w3.org/2000/svg" xmlns:xlink="http://www.w3.org/1999/xlink" width="462.9" height="482.5" viewBox="0 0 462.9 482.5">
  <defs>
    <style>
      .f53918e3-8638-4d93-9ed5-1eddf0420c6f {
        opacity: 0.5;
      }

      .af3df4e7-1949-4d3e-829c-0e6bf843da95 {
        fill: url(#e16ff3be-f306-44a1-a18d-926f2736f6ad);
      }

      .b3b01885-4787-464f-aada-55f26aeff46d {
        fill: #31d0e5;
        stroke-width: 6px;
        stroke: url(#e6590a07-e31c-443f-883f-58de122bd385);
      }

      .a46fafb1-cf1a-4c64-a84c-ade07e2a702e, .ab1e2291-88d9-4a4d-8728-6bb58843b216, .b3b01885-4787-464f-aada-55f26aeff46d, .ed559ccd-3eb8-49dc-ae06-47aa2c9d3865 {
        stroke-miterlimit: 10;
      }

      .a46fafb1-cf1a-4c64-a84c-ade07e2a702e, .aaf98047-2960-4235-b4d1-cea5bf4a3d5f {
        fill: #fff;
      }

      .a46fafb1-cf1a-4c64-a84c-ade07e2a702e, .ab1e2291-88d9-4a4d-8728-6bb58843b216 {
        stroke: #afafaf;
      }

      .a0975308-6ea4-43c9-9ab6-b072cce9b144 {
        fill: #d8d8d8;
      }

      .ab1e2291-88d9-4a4d-8728-6bb58843b216, .ed559ccd-3eb8-49dc-ae06-47aa2c9d3865 {
        fill: none;
      }

      .ed559ccd-3eb8-49dc-ae06-47aa2c9d3865 {
        stroke: #d8d8d8;
      }

      .a787e52c-7392-4d97-85df-33e1f2ce2b02 {
        fill: #afafaf;
      }
    </style>
    <linearGradient id="e16ff3be-f306-44a1-a18d-926f2736f6ad" x1="52.73" y1="118.79" x2="402" y2="358.11" gradientUnits="userSpaceOnUse">
      <stop offset="0" stop-color="#9b81cf"/>
      <stop offset="1" stop-color="#3b139b"/>
    </linearGradient>
    <linearGradient id="e6590a07-e31c-443f-883f-58de122bd385" x1="25.67" y1="241.25" x2="437.24" y2="241.25" gradientUnits="userSpaceOnUse">
      <stop offset="0" stop-color="#4c1da9"/>
      <stop offset="1" stop-color="#997ece"/>
    </linearGradient>
  </defs>
  <g>
    <g>
      <path class="f53918e3-8638-4d93-9ed5-1eddf0420c6f" d="M444.68,252.5a208.28,208.28,0,0,0-25.42-100,211.66,211.66,0,0,0-187.81-114c-116.9,0-211.67,94.78-211.67,211.68s94.77,211.68,211.67,211.68c3,0,5.93-.08,8.87-.2C353.63,459.07,444.68,366.42,444.68,252.5Z"/>
      <g>
        <circle class="af3df4e7-1949-4d3e-829c-0e6bf843da95" cx="231.45" cy="241.25" r="211.68"/>
        <circle class="b3b01885-4787-464f-aada-55f26aeff46d" cx="231.45" cy="241.25" r="202.78"/>
      </g>
    </g>
    <g>
      <path class="aaf98047-2960-4235-b4d1-cea5bf4a3d5f" d="M80.12,172.15s4.95-22.85,30.6-5.75-24.25,19-46.91,14.87S80.12,172.15,80.12,172.15Z"/>
      <path class="aaf98047-2960-4235-b4d1-cea5bf4a3d5f" d="M129.2,152.4c21.45,10.72,2.06,15.38-15.83,14.37S107.76,141.68,129.2,152.4Z"/>
    </g>
    <g>
      <path class="aaf98047-2960-4235-b4d1-cea5bf4a3d5f" d="M359.39,266.66s4.95-22.85,30.59-5.75-24.24,19-46.91,14.86S359.39,266.66,359.39,266.66Z"/>
      <path class="aaf98047-2960-4235-b4d1-cea5bf4a3d5f" d="M408.47,246.91c21.44,10.72,2,15.38-15.84,14.37S387,236.19,408.47,246.91Z"/>
    </g>
    <g>
      <g>
        <path class="a46fafb1-cf1a-4c64-a84c-ade07e2a702e" d="M94.2,249.45,184.06,342s28.56,20.31,101.18-41.41L390.17,132.11,267.56,95.74,295,178.9C292.8,181.64,289,204.48,94.2,249.45Z"/>
        <path class="a0975308-6ea4-43c9-9ab6-b072cce9b144" d="M284.81,299.63,389.19,132.36,268.47,97l27.23,81.69S306.59,212.24,284.81,299.63Z"/>
      </g>
      <g>
        <g>
          <line class="ed559ccd-3eb8-49dc-ae06-47aa2c9d3865" x1="125.14" y1="257.4" x2="200.56" y2="332.82"/>
          <line class="ed559ccd-3eb8-49dc-ae06-47aa2c9d3865" x1="139.52" y1="251.76" x2="216.79" y2="329.04"/>
          <line class="ed559ccd-3eb8-49dc-ae06-47aa2c9d3865" x1="155.37" y1="248.53" x2="230.04" y2="323.19"/>
          <line class="ed559ccd-3eb8-49dc-ae06-47aa2c9d3865" x1="183.31" y1="239.76" x2="252.09" y2="308.54"/>
          <line class="ed559ccd-3eb8-49dc-ae06-47aa2c9d3865" x1="196.95" y1="233.73" x2="263.21" y2="302.13"/>
          <line class="ed559ccd-3eb8-49dc-ae06-47aa2c9d3865" x1="168.44" y1="243.86" x2="241.69" y2="317.12"/>
          <line class="ed559ccd-3eb8-49dc-ae06-47aa2c9d3865" x1="211.3" y1="229.57" x2="276.83" y2="295.11"/>
          <line class="ed559ccd-3eb8-49dc-ae06-47aa2c9d3865" x1="225.68" y1="223.94" x2="288.43" y2="286.69"/>
          <line class="ed559ccd-3eb8-49dc-ae06-47aa2c9d3865" x1="241.53" y1="220.7" x2="293.59" y2="272.76"/>
          <line class="ed559ccd-3eb8-49dc-ae06-47aa2c9d3865" x1="269.47" y1="211.94" x2="307.4" y2="249.87"/>
          <line class="ed559ccd-3eb8-49dc-ae06-47aa2c9d3865" x1="283.11" y1="205.91" x2="316.2" y2="236.88"/>
          <line class="ed559ccd-3eb8-49dc-ae06-47aa2c9d3865" x1="290.89" y1="197" x2="323.97" y2="227.98"/>
          <line class="ed559ccd-3eb8-49dc-ae06-47aa2c9d3865" x1="254.6" y1="216.04" x2="299.65" y2="261.09"/>
        </g>
        <path class="ab1e2291-88d9-4a4d-8728-6bb58843b216" d="M290.11,121.18s78.16,19.51,92.28,21.86"/>
        <path class="ab1e2291-88d9-4a4d-8728-6bb58843b216" d="M294.32,132.36s68.52,17.58,82.65,19.93"/>
        <path class="ab1e2291-88d9-4a4d-8728-6bb58843b216" d="M298.19,145.23S355.87,158,370,160.36"/>
        <path class="ab1e2291-88d9-4a4d-8728-6bb58843b216" d="M305,162s8.05,23.21,3,47.18h33.23s22.93-38.77,22-36.33C363,173.64,305,162,305,162Z"/>
        <path class="ab1e2291-88d9-4a4d-8728-6bb58843b216" d="M307.4,221.39s22.4-.42,24.34-.69"/>
        <path class="ab1e2291-88d9-4a4d-8728-6bb58843b216" d="M307.4,232.76s16.35-.43,18.28-.69"/>
      </g>
    </g>
    <path class="a787e52c-7392-4d97-85df-33e1f2ce2b02" d="M123,386c63.59,7.54,130-11.53,180.11-51.37a229.58,229.58,0,0,0,21.53-19.12c2-1.91,4.93-4.82,6.7-6.88l6.47-7.11c1.95-2.08,4.27-5.22,6.13-7.4,1.64-2.06,4.47-5.37,6-7.53,1.8-2.54,6.72-9.14,8.47-11.67,4-6.16,9.27-13.9,12.81-20.34l4.84-8.31c-1.64,3-5.53,9.75-7.1,12.56-2.62,4.76-7.33,11.69-10.2,16.33-2.46,3.65-7.22,10.07-9.81,13.7l-1.51,1.87c-2.88,3.47-6.16,7.85-9.13,11.19-1.26,1.42-7,7.7-8.06,8.95-2.34,2.57-6.05,6-8.5,8.54a254.93,254.93,0,0,1-33.58,27.35,244.79,244.79,0,0,1-107.54,39.49c-19.09,2.22-38.56,2.57-57.6-.25Z"/>
    <path class="a787e52c-7392-4d97-85df-33e1f2ce2b02" d="M52.68,227.38c13.55,46.84,45.13,90.05,89.67,111.4l6.68,3.07c2.44.85,7.94,3.16,10.32,3.92,3.27.94,7.27,2.37,10.56,3.2a196.39,196.39,0,0,0,21.65,4.3c2.28.23,8.75.93,11,1.17,5.63.24,12.79.71,18.42.47l7.37-.13L221,355c-5.62.34-12.8,0-18.45-.16l-11-1a196.63,196.63,0,0,1-21.78-4.12c-3.31-.8-7.35-2.19-10.64-3.14-2.35-.77-8-3-10.38-3.9L142,339.6c-44.81-21.26-76.54-64.92-89.27-112.22Z"/>
  </g>
</svg>
