<svg xmlns="http://www.w3.org/2000/svg" xmlns:xlink="http://www.w3.org/1999/xlink" width="462.9" height="482.5" viewBox="0 0 462.9 482.5">
  <defs>
    <style>
      .ba2744b4-d801-414a-bf0d-1714e9c7dad8 {
        fill: none;
      }

      .f4927016-06a5-4029-b369-b57393c31e13 {
        isolation: isolate;
      }

      .a9dd650b-0459-4cef-9a29-bd134039d53a, .ab83d621-2887-449b-b08f-97543a6ff98c {
        opacity: 0.5;
      }

      .e92e2417-ec5c-4d8f-96ad-9b6f27804006 {
        fill: url(#fe03be87-4655-4bf8-a3bd-fd31e13804f2);
      }

      .bd7f6c7c-05cc-4768-9937-5815c4c202d2 {
        fill: #31d0e5;
        stroke-width: 6px;
        stroke: url(#b7cee830-5fc5-4a9c-b74f-8e0aab145e5d);
      }

      .b67b8d62-6bfc-4cfd-af39-d244719c8649, .bd04080e-9abd-4f01-9b63-ce2b0bc365cf, .bd7f6c7c-05cc-4768-9937-5815c4c202d2 {
        stroke-miterlimit: 10;
      }

      .aa7d8a29-408d-4cbf-a70e-1d35fb3e0a36 {
        clip-path: url(#a42adcf1-e58d-4c6c-be92-c8a58a5c224b);
      }

      .b67b8d62-6bfc-4cfd-af39-d244719c8649 {
        fill: #41a022;
        stroke: #38841c;
        stroke-width: 0.5px;
      }

      .e39715df-9996-4d43-9765-2feb65b97545 {
        fill: #204910;
        opacity: 0.32;
      }

      .b2eeece7-9410-4e48-b10c-4e03c836e036 {
        fill: #8fc12f;
      }

      .b2eeece7-9410-4e48-b10c-4e03c836e036, .ef2017d6-5828-4ea3-adb1-54c2c3d43e7f {
        opacity: 0.51;
      }

      .f51cbccd-17d1-4ccd-8b25-91e2240ff543 {
        fill: #353535;
      }

      .bd04080e-9abd-4f01-9b63-ce2b0bc365cf {
        fill: #48bc28;
        stroke: #45a525;
      }

      .b0ab62f5-b121-461f-992f-775e2b5eedc2, .b65c3a29-d142-4ed7-84e2-a98e938deaf1 {
        fill: #b0e573;
      }

      .b0ab62f5-b121-461f-992f-775e2b5eedc2, .bf9d5e18-167d-439e-99d9-13797162cba9 {
        mix-blend-mode: screen;
      }

      .b0ab62f5-b121-461f-992f-775e2b5eedc2 {
        opacity: 0.69;
      }

      .ef2017d6-5828-4ea3-adb1-54c2c3d43e7f {
        fill: #b6f261;
      }

      .a691a17f-8bec-4f79-acf8-1671263c0d3d {
        clip-path: url(#a01587a4-79de-4f64-a54c-95d148b468ef);
      }

      .ed389f0f-08c1-40a8-95bf-db301a3c4825 {
        fill: #3fc416;
      }

      .f147ce84-3a00-4479-9952-55a2798f6e28 {
        fill: #00a6fd;
      }

      .b2bee398-93f3-4793-89a1-570d51372e92 {
        fill: #fb8000;
      }

      .e5a75d5b-f8b6-402f-91e2-1c448219cd2c {
        fill: #e53963;
      }

      .bf9d5e18-167d-439e-99d9-13797162cba9 {
        opacity: 0.2;
      }

      .ec504d97-a801-43d2-ab11-ba0649f44497 {
        fill: url(#ef1a8340-9d7f-4b7a-9db8-6b1bcce35f26);
      }

      .a9dd650b-0459-4cef-9a29-bd134039d53a {
        mix-blend-mode: multiply;
      }

      .b2969cd6-997c-4a28-a1ca-b1fc449e699e {
        fill: url(#a149c159-5dca-474e-9579-3157545fa656);
      }

      .aadfd2aa-fcc7-4dea-b3c7-c21b21fe1e9a {
        fill: url(#fd7cec2f-37d9-46f4-a080-8d8135086e35);
      }

      .aafd572c-ba1f-490d-8332-993526e27331 {
        clip-path: url(#ab588511-b518-4d7f-92b9-b715f9c0ed28);
      }

      .a8e4995c-2d78-495d-af40-0776d6abc9c8 {
        clip-path: url(#a52d9b49-3cd4-4cc2-84a4-14f1edbc7037);
      }

      .e3ce7938-8a32-45c7-ac7d-f93628f82584 {
        fill: url(#ff334210-9c43-4b25-b327-e10ac72ca0c5);
      }

      .aa06616f-4bea-46f2-a3d7-f069608135fd {
        fill: url(#ad05c3b4-9e4b-45bf-b20e-bbf04a483baf);
      }

      .fdca5664-3d96-4ebc-b3a0-bc3412e11062 {
        fill: url(#f0dd1487-8d4e-4b9e-a1d0-240b2240ab37);
      }

      .a89f519e-1b89-49cd-bf62-a71ec0012943 {
        fill: url(#e02ec07b-5c2d-4416-9e8e-063adb5cef31);
      }

      .ae7ab42b-8a5e-4721-85eb-1e1f032a327a {
        fill: url(#e8c2eef0-9ad2-404a-a482-cba431e7c49d);
      }

      .b70f6039-30f4-4f74-8265-7e7a1facfbb2 {
        fill: url(#a084f090-5c7d-4a43-8a63-39f62ae6f52d);
      }
    </style>
    <linearGradient id="fe03be87-4655-4bf8-a3bd-fd31e13804f2" x1="52.73" y1="118.79" x2="402" y2="358.11" gradientUnits="userSpaceOnUse">
      <stop offset="0" stop-color="#9b81cf"/>
      <stop offset="1" stop-color="#3b139b"/>
    </linearGradient>
    <linearGradient id="b7cee830-5fc5-4a9c-b74f-8e0aab145e5d" x1="25.67" y1="241.25" x2="437.24" y2="241.25" gradientUnits="userSpaceOnUse">
      <stop offset="0" stop-color="#4c1da9"/>
      <stop offset="1" stop-color="#997ece"/>
    </linearGradient>
    <clipPath id="a42adcf1-e58d-4c6c-be92-c8a58a5c224b">
      <circle class="ba2744b4-d801-414a-bf0d-1714e9c7dad8" cx="235.46" cy="243.57" r="209.22"/>
    </clipPath>
    <clipPath id="a01587a4-79de-4f64-a54c-95d148b468ef">
      <ellipse class="ba2744b4-d801-414a-bf0d-1714e9c7dad8" cx="233.9" cy="779.76" rx="205" ry="205.54"/>
    </clipPath>
    <linearGradient id="ef1a8340-9d7f-4b7a-9db8-6b1bcce35f26" x1="-5400.74" y1="-8729.49" x2="-5342.36" y2="-8729.49" gradientTransform="matrix(-1.8, -0.47, -0.47, 1.8, -13640.25, 13625.91)" gradientUnits="userSpaceOnUse">
      <stop offset="0" stop-color="#ff0a3b"/>
      <stop offset="0.67" stop-color="#ff576b"/>
      <stop offset="1" stop-color="#ff7880"/>
    </linearGradient>
    <linearGradient id="a149c159-5dca-474e-9579-3157545fa656" x1="-5357.86" y1="-8752.65" x2="-5357.21" y2="-8676.61" gradientTransform="matrix(-1.8, -0.47, -0.47, 1.8, -13640.25, 13625.91)" gradientUnits="userSpaceOnUse">
      <stop offset="0" stop-color="#cc8122"/>
      <stop offset="0.32" stop-color="#9e5e16"/>
      <stop offset="0.78" stop-color="#612f06"/>
      <stop offset="1" stop-color="#491c00"/>
    </linearGradient>
    <linearGradient id="fd7cec2f-37d9-46f4-a080-8d8135086e35" x1="-5400.74" y1="-8720.67" x2="-5314.33" y2="-8720.67" xlink:href="#a149c159-5dca-474e-9579-3157545fa656"/>
    <clipPath id="ab588511-b518-4d7f-92b9-b715f9c0ed28">
      <circle class="ba2744b4-d801-414a-bf0d-1714e9c7dad8" cx="47.03" cy="-317.42" r="248.73"/>
    </clipPath>
    <clipPath id="a52d9b49-3cd4-4cc2-84a4-14f1edbc7037">
      <rect class="ba2744b4-d801-414a-bf0d-1714e9c7dad8" x="-249.96" y="-623.27" width="835.66" height="582.35"/>
    </clipPath>
    <linearGradient id="ff334210-9c43-4b25-b327-e10ac72ca0c5" x1="-37.19" y1="-95.19" x2="-37.19" y2="7.73" gradientUnits="userSpaceOnUse">
      <stop offset="0" stop-color="#cea87c"/>
      <stop offset="1" stop-color="#a9865c"/>
    </linearGradient>
    <linearGradient id="ad05c3b4-9e4b-45bf-b20e-bbf04a483baf" x1="76.25" y1="-112.51" x2="76.25" y2="8" xlink:href="#ff334210-9c43-4b25-b327-e10ac72ca0c5"/>
    <linearGradient id="f0dd1487-8d4e-4b9e-a1d0-240b2240ab37" x1="305.15" y1="-103.22" x2="305.15" y2="7.85" xlink:href="#ff334210-9c43-4b25-b327-e10ac72ca0c5"/>
    <linearGradient id="e02ec07b-5c2d-4416-9e8e-063adb5cef31" x1="388.3" y1="-104.79" x2="388.3" y2="7.88" xlink:href="#ff334210-9c43-4b25-b327-e10ac72ca0c5"/>
    <linearGradient id="e8c2eef0-9ad2-404a-a482-cba431e7c49d" x1="440.29" y1="-106.75" x2="440.29" y2="7.91" xlink:href="#ff334210-9c43-4b25-b327-e10ac72ca0c5"/>
    <linearGradient id="a084f090-5c7d-4a43-8a63-39f62ae6f52d" x1="205.87" y1="-98.14" x2="205.87" y2="7.78" xlink:href="#ff334210-9c43-4b25-b327-e10ac72ca0c5"/>
  </defs>
  <g class="f4927016-06a5-4029-b369-b57393c31e13">
    <g id="a9eab313-0975-4e31-8ce4-30217d14cff5" data-name="Layer 1">
      <g>
        <path class="ab83d621-2887-449b-b08f-97543a6ff98c" d="M444.68,252.5a208.28,208.28,0,0,0-25.42-100,211.66,211.66,0,0,0-187.81-114c-116.9,0-211.67,94.78-211.67,211.68s94.77,211.68,211.67,211.68c3,0,5.93-.08,8.87-.2C353.63,459.07,444.68,366.42,444.68,252.5Z"/>
        <g>
          <g>
            <circle class="e92e2417-ec5c-4d8f-96ad-9b6f27804006" cx="231.45" cy="241.25" r="211.68"/>
            <circle class="bd7f6c7c-05cc-4768-9937-5815c4c202d2" cx="231.45" cy="241.25" r="202.78"/>
          </g>
          <g class="aa7d8a29-408d-4cbf-a70e-1d35fb3e0a36">
            <g>
              <g>
                <g>
                  <path class="b67b8d62-6bfc-4cfd-af39-d244719c8649" d="M107.36,279.64s-22.86-6.23-36.09,3.59L69.94,290s11.58-11.26,35.75-9.33Z"/>
                  <path class="e39715df-9996-4d43-9765-2feb65b97545" d="M69.94,290s11.22-11.6,35.75-9.33l.76-.47s-25.9-3.63-36.25,8.52Z"/>
                  <path class="b2eeece7-9410-4e48-b10c-4e03c836e036" d="M71.27,283.23s10.44-7.43,27.82-5.08c0,0-15.32-1.27-27.85,5.39Z"/>
                </g>
                <g>
                  <g>
                    <path class="ba2744b4-d801-414a-bf0d-1714e9c7dad8" d="M265.14,346.89l-.21,0a3.55,3.55,0,0,1-.49,0Z"/>
                    <path class="f51cbccd-17d1-4ccd-8b25-91e2240ff543" d="M266.48,346.51l.2,0c.14,0,.46,0,.3.23a1.07,1.07,0,0,1-.72.34,1.2,1.2,0,0,1-.2,0c-.13,0-.46,0-.3-.24a1,1,0,0,1,.72-.34l.2,0-.42.57-.2,0c-.14,0-.46,0-.3-.24A1,1,0,0,1,266.48,346.51Z"/>
                    <path class="bd04080e-9abd-4f01-9b63-ce2b0bc365cf" d="M145.57,322.16c-53.93-30.45-43.32-42.79-43.32-42.79-4.26-6.86,5.7-22.15,42.26-20.66,28,1.14,35.57,13.66,64.27,43.14,32.26,33.14,53,39.58,56.4,39.62C244.37,342.33,185.81,344.89,145.57,322.16Z"/>
                    <path class="b67b8d62-6bfc-4cfd-af39-d244719c8649" d="M79,308.9c-.46-13.26,11.63-27.29,23.29-29.53,0,0,6.87,29.32,59.46,47.95,43.46,15.4,82.16,15.13,103,14.28h.5c-14.66,1.42-40.1,20.63-74.34,29.73C121.1,389.87,79.6,327.52,79,308.9Z"/>
                  </g>
                  <g>
                    <path class="b0ab62f5-b121-461f-992f-775e2b5eedc2" d="M186,372.42s-.1-.12-.34-.28l-1.09-.74a30,30,0,0,1-4-3.43,50.26,50.26,0,0,1-5.37-6.6c-1.91-2.76-3.92-6.06-6.07-9.92-1.54-2.75-3.17-5.8-4.84-8.83s-3.37-6.05-5.1-8.72a38.31,38.31,0,0,0-5.14-6.54,16.18,16.18,0,0,0-2.07-1.7l-.36-.24-.26-.16-.22-.13.22.14.26.16.35.24a15.43,15.43,0,0,1,2,1.72,35.8,35.8,0,0,1,4.93,6.53c1.65,2.65,3.27,5.66,4.87,8.68s3.18,6.08,4.7,8.83a109.23,109.23,0,0,0,6.07,10,46.92,46.92,0,0,0,5.56,6.73,25.7,25.7,0,0,0,4.28,3.45c.52.32.92.54,1.19.67S186,372.44,186,372.42Z"/>
                    <path class="b0ab62f5-b121-461f-992f-775e2b5eedc2" d="M120.6,306.89c-.07.08.53.5,1.5,1.56a20.25,20.25,0,0,1,1.63,2.13,29.73,29.73,0,0,1,1.83,3.25,81.3,81.3,0,0,1,3.93,9.94c1.38,4.09,2.85,9,4.77,14.67a135.24,135.24,0,0,0,5,13,65,65,0,0,0,7.26,12.41,40.9,40.9,0,0,0,4.29,4.8,33.89,33.89,0,0,0,4.06,3.32c.6.43,1.18.78,1.66,1.09l1.3.75,1.12.57-1.11-.6L156.6,373c-.48-.33-1-.68-1.64-1.12a35.59,35.59,0,0,1-4-3.37,40.39,40.39,0,0,1-4.14-4.81,64.87,64.87,0,0,1-7-12.36c-1.93-4.41-3.5-8.89-4.84-12.93-1.87-5.7-3.32-10.57-4.72-14.68a73,73,0,0,0-4.07-10,28.23,28.23,0,0,0-2-3.31,17.39,17.39,0,0,0-1.83-2.17C121.33,307.16,120.63,306.84,120.6,306.89Z"/>
                    <path class="b0ab62f5-b121-461f-992f-775e2b5eedc2" d="M102.15,281.81c-.09.12.47.56,1,1.92a32.86,32.86,0,0,1,1.72,6.55c.56,3,1.13,7,1.85,11.77s1.61,10.56,3,17.22a126.22,126.22,0,0,0,4.16,15c.9,2.54,1.88,5,3,7.41a71.48,71.48,0,0,0,3.49,6.66,54.26,54.26,0,0,0,3.71,5.48,49.26,49.26,0,0,0,3.44,4c1,1.06,1.9,1.87,2.51,2.41s1,.82,1,.82-.33-.29-.93-.85-1.44-1.38-2.44-2.47a50.13,50.13,0,0,1-3.31-4.07,58.67,58.67,0,0,1-3.54-5.54,71.64,71.64,0,0,1-3.29-6.68c-1-2.38-2-4.86-2.78-7.39a137.8,137.8,0,0,1-3.91-15c-1.37-6.63-2.22-12.35-3-17.16s-1.34-8.73-2-11.8a25.16,25.16,0,0,0-2.13-6.66,4.73,4.73,0,0,0-1.06-1.39C102.37,281.83,102.18,281.77,102.15,281.81Z"/>
                    <path class="b0ab62f5-b121-461f-992f-775e2b5eedc2" d="M184.83,334.81s.29.24.86.7a22.17,22.17,0,0,1,2.38,2.3c1,1.08,2.14,2.48,3.47,4.23s2.86,3.82,4.68,6.26c1.3,1.73,2.78,3.65,4.37,5.55a53.83,53.83,0,0,0,5.06,5.35,32.39,32.39,0,0,0,2.57,2.11,21.83,21.83,0,0,0,2.3,1.45,17.3,17.3,0,0,0,1.61.77,4.38,4.38,0,0,0,.44.16l.15.06-.15-.06-.44-.18a15.12,15.12,0,0,1-1.59-.79,19.41,19.41,0,0,1-2.23-1.48,28.47,28.47,0,0,1-2.48-2.11A54.3,54.3,0,0,1,201,353.8c-1.53-1.89-3-3.81-4.24-5.53-1.8-2.44-3.31-4.52-4.66-6.28a55.08,55.08,0,0,0-3.58-4.28c-.53-.55-1-1-1.45-1.41a12.68,12.68,0,0,0-1.17-.92C185.21,334.92,184.85,334.77,184.83,334.81Z"/>
                    <path class="b0ab62f5-b121-461f-992f-775e2b5eedc2" d="M220.8,341.47c0,.08,0,.23.25.45s.22.27.38.43a7.67,7.67,0,0,1,.51.67,13,13,0,0,1,1.27,2.23c.45,1,.91,2.22,1.45,3.69a26.4,26.4,0,0,0,1.41,3.23,7.37,7.37,0,0,0,2.06,2.54,4.08,4.08,0,0,0,2.27.8h.42l.32,0,.27,0h-.57l-.41,0a4.06,4.06,0,0,1-2.12-1,7.78,7.78,0,0,1-1.83-2.64c-.49-1.06-.89-2.23-1.26-3.27-.52-1.48-1-2.75-1.44-3.75a9.92,9.92,0,0,0-1.39-2.27,4.5,4.5,0,0,0-.61-.62,4.68,4.68,0,0,0-.49-.33C221,341.42,220.85,341.4,220.8,341.47Z"/>
                    <path class="b0ab62f5-b121-461f-992f-775e2b5eedc2" d="M119.77,305.43c-.06.16.35.47,1.45.44a13.23,13.23,0,0,0,5.3-1.92,84.25,84.25,0,0,0,9.16-6.22c3.7-2.78,8-6.24,13.16-10a133.68,133.68,0,0,1,11.72-7.86,52,52,0,0,1,11.53-5.24,24,24,0,0,1,8.4-1.06,19.45,19.45,0,0,1,2.28.34l.8.18-.77-.24a17.61,17.61,0,0,0-2.25-.48,22.44,22.44,0,0,0-8.35.59,48.76,48.76,0,0,0-11.66,4.81,121.32,121.32,0,0,0-11.85,7.65c-5.16,3.73-9.52,7.18-13.19,9.95a107.64,107.64,0,0,1-9,6.3,19.56,19.56,0,0,1-5.09,2.32C120.34,305.24,119.84,305.23,119.77,305.43Z"/>
                    <path class="b0ab62f5-b121-461f-992f-775e2b5eedc2" d="M142.68,319.53c0,.06.17.07.46,0l.54-.1a4.67,4.67,0,0,0,.73-.21,19.44,19.44,0,0,0,4.68-2.46,60.18,60.18,0,0,0,6.91-5.61c2.68-2.41,5.7-5.38,9.41-8.7,1.31-1.19,2.72-2.41,4.2-3.63s3-2.41,4.66-3.52a48.08,48.08,0,0,1,5-3.05c.84-.47,1.72-.85,2.56-1.25.42-.2.86-.35,1.28-.52s.84-.36,1.27-.48c.85-.27,1.66-.56,2.48-.74L188,289c.4-.08.78-.13,1.16-.2l1.09-.18,1-.1,1-.09h.89c.57,0,1.08,0,1.53,0l1.13.08,1,.07-1-.11-1.14-.12c-.45,0-1,0-1.53-.05l-.9,0-1,.06-1.05.05-1.11.15-1.18.16-1.21.26c-.84.15-1.68.42-2.56.66-.44.12-.86.3-1.3.44s-.89.3-1.33.49c-.87.38-1.78.74-2.65,1.19a47.16,47.16,0,0,0-5.19,3c-1.68,1.09-3.29,2.27-4.82,3.46s-3,2.41-4.31,3.59c-3.77,3.31-6.82,6.27-9.47,8.67a77.64,77.64,0,0,1-6.7,5.63,29.66,29.66,0,0,1-4.3,2.66c-.24.14-.46.23-.65.32l-.47.23C142.77,319.37,142.65,319.47,142.68,319.53Z"/>
                    <path class="b0ab62f5-b121-461f-992f-775e2b5eedc2" d="M164.13,326.85c-.15.32.08.62.83.8a9.16,9.16,0,0,0,4.2-.83,59.92,59.92,0,0,0,8.43-4.37c3.54-2.11,7.83-4.9,12.74-7.88a105.92,105.92,0,0,1,10.86-5.91c3.58-1.64,6.85-2.54,9.35-2.48a6.71,6.71,0,0,1,5.15,2.26c.23.31.45.56.62.82s.29.53.39.73l.33.62s-.09-.26-.27-.72c-.09-.22-.19-.5-.32-.84s-.34-.59-.54-1a6.64,6.64,0,0,0-4.77-3.11c-2.39-.37-5.6.23-9.13,1.62A77.88,77.88,0,0,0,191.2,312c-4.9,2.87-9.17,5.6-12.69,7.71a95,95,0,0,1-8.39,4.63C165.94,326.32,164.5,326.11,164.13,326.85Z"/>
                    <path class="b0ab62f5-b121-461f-992f-775e2b5eedc2" d="M219.83,340.67c0,.11.23.19.71.22a7.48,7.48,0,0,0,2.2-.37,12.09,12.09,0,0,0,1.59-.61c.57-.28,1.18-.59,1.82-1,1.3-.76,2.73-1.74,4.47-2.77a32.9,32.9,0,0,1,4.11-2.11,27.32,27.32,0,0,1,4.42-1.39,31.11,31.11,0,0,1,3.54-.57c.44,0,.8-.07,1.05-.09l.38,0h-.38c-.24,0-.61,0-1.06,0a29.33,29.33,0,0,0-3.62.27,24.52,24.52,0,0,0-4.65,1.13,27.2,27.2,0,0,0-4.38,2c-1.82,1-3.28,2-4.52,2.74a22,22,0,0,1-3.13,1.59C220.69,340.33,219.82,340.4,219.83,340.67Z"/>
                    <path class="b0ab62f5-b121-461f-992f-775e2b5eedc2" d="M103.77,283.43c0,.15.44.31,1.45.42a16.09,16.09,0,0,0,4.66-.5,39.1,39.1,0,0,0,7.61-2.85c3-1.44,6.42-3.38,10.35-5.76,5.59-3.36,12.26-7.69,17.94-10.34,1.42-.68,2.77-1.23,4-1.7.62-.22,1.2-.43,1.75-.61l1.53-.43,1.27-.29c.37-.09.69-.12,1-.17l.81-.12-.82.08c-.26,0-.59,0-1,.11l-1.29.22-1.56.35-1.8.51c-1.25.42-2.65.9-4.1,1.52-5.85,2.41-12.72,6.49-18.33,9.76-3.95,2.31-7.36,4.2-10.29,5.63a48.94,48.94,0,0,1-7.34,2.93C105.68,283.31,103.8,283.06,103.77,283.43Z"/>
                    <path class="b0ab62f5-b121-461f-992f-775e2b5eedc2" d="M185.3,335.65c-.13.25.11.52.8.72a8.58,8.58,0,0,0,3.77-.44,47.18,47.18,0,0,0,7.42-3.15c3.09-1.55,6.83-3.62,11.12-5.82a84.19,84.19,0,0,1,9.54-4.28,20.58,20.58,0,0,1,8.36-1.51,7.31,7.31,0,0,1,4.82,2.21c.23.27.44.49.61.71s.29.46.4.64l.33.54s-.09-.22-.28-.61c-.09-.2-.21-.44-.34-.73s-.34-.52-.55-.83a7.24,7.24,0,0,0-4.52-2.9,17.42,17.42,0,0,0-8.22.81,62.34,62.34,0,0,0-9.5,3.87c-4.3,2.1-8,4.13-11.1,5.68a75.52,75.52,0,0,1-7.36,3.37C186.91,335.31,185.59,335.05,185.3,335.65Z"/>
                  </g>
                  <path class="b65c3a29-d142-4ed7-84e2-a98e938deaf1" d="M102.25,279.37c6.91,21.27,29.55,35,49.33,42.85,35.54,13.75,73.84,16.46,111.55,19.34-38.15,3-77.94.67-113.7-14.1-14.25-6.16-28-14.78-37.66-27.11-4.61-6.17-8.64-13.24-9.52-21Z"/>
                </g>
                <path class="ef2017d6-5828-4ea3-adb1-54c2c3d43e7f" d="M101.58,277.25s37.48-33.71,78.61-1.29c9.06,7.14,17.62,23.47,26.62,30.69,44.21,35.5,39,26.12,53.21,33.48,0,0-19.43-7.75-44.12-32,0,0-22-22.71-25.9-26.26-12.57-11.46-17.89-22.19-46.09-23.63C143.91,258.2,103.28,256.36,101.58,277.25Z"/>
                <path class="e39715df-9996-4d43-9765-2feb65b97545" d="M94.51,283.15S74.72,304,98,335.93c0,0,47,51.77,100.16,30.21,0,0,50-22.52,58.08-22.8,0,0-11.56,4.25-30.08,14.71,0,0-40.43,19.76-64.43,16.25,0,0-38.72,3.85-71.35-40C90.35,334.27,63.56,304.94,94.51,283.15Z"/>
              </g>
              <g>
                <g>
                  <path class="b67b8d62-6bfc-4cfd-af39-d244719c8649" d="M284.11,263.87s-14.53,6.81-17.06,17.68l2.29,4.08s1-10.89,14.37-20.49Z"/>
                  <path class="e39715df-9996-4d43-9765-2feb65b97545" d="M269.34,285.63s.71-10.91,14.37-20.49l.18-.57s-15,9.48-15,20.29Z"/>
                  <path class="b2eeece7-9410-4e48-b10c-4e03c836e036" d="M267.05,281.55s2.13-8.41,12.14-14.82c0,0-8.47,6.06-12,15Z"/>
                </g>
                <g>
                  <g>
                    <path class="ba2744b4-d801-414a-bf0d-1714e9c7dad8" d="M395.06,229.41l-.09.1c-.06.05-.14.13-.26.22Z"/>
                    <path class="f51cbccd-17d1-4ccd-8b25-91e2240ff543" d="M395.59,228.62l.09-.1c.07-.07.25-.19.26,0a.72.72,0,0,1-.22.49.47.47,0,0,1-.1.1c-.06.07-.24.2-.26,0a.71.71,0,0,1,.23-.49l.09-.1c0,.16,0,.32,0,.48l-.1.1c-.06.07-.24.19-.26,0A.73.73,0,0,1,395.59,228.62Z"/>
                    <path class="bd04080e-9abd-4f01-9b63-ce2b0bc365cf" d="M322.48,269.07c-41.19,7.92-41.13-3.1-41.13-3.1-5.2-1.67-6.77-13.93,12.76-29.2,15-11.69,24.36-8.54,52.11-5.9,31.18,3,44.72-2.81,46.49-4.28C382.34,236.16,353.23,263.16,322.48,269.07Z"/>
                    <path class="b67b8d62-6bfc-4cfd-af39-d244719c8649" d="M282.28,291.43c-6-6.65-6-19.19-.93-25.46,0,0,16.41,12.13,51.73-1.31,29.19-11.11,49.06-28.22,59.43-37.79l.25-.22c-6.95,7.17-11.66,28.24-25.34,48C339.54,314.76,290.78,300.76,282.28,291.43Z"/>
                  </g>
                  <g>
                    <path class="b0ab62f5-b121-461f-992f-775e2b5eedc2" d="M365.4,277.29s-.11,0-.3,0l-.89.1a21.05,21.05,0,0,1-3.56,0,33.56,33.56,0,0,1-5.67-1.06c-2.2-.58-4.68-1.41-7.49-2.46-2-.74-4.17-1.6-6.36-2.43s-4.39-1.65-6.46-2.26a25.65,25.65,0,0,0-5.52-1.13,10.36,10.36,0,0,0-1.82,0l-.28,0-.21,0-.17,0,.17,0,.21,0,.28,0a10.64,10.64,0,0,1,1.8,0,25.2,25.2,0,0,1,5.4,1.21c2,.65,4.18,1.49,6.33,2.35s4.3,1.75,6.29,2.5a75.66,75.66,0,0,0,7.52,2.5,31.47,31.47,0,0,0,5.82,1,17.37,17.37,0,0,0,3.72-.09,9,9,0,0,0,.91-.18C365.31,277.34,365.4,277.31,365.4,277.29Z"/>
                    <path class="b0ab62f5-b121-461f-992f-775e2b5eedc2" d="M302.89,272.13a11.65,11.65,0,0,0,1.47.15,13.63,13.63,0,0,1,1.77.39,19.79,19.79,0,0,1,2.37.87,55.27,55.27,0,0,1,6.39,3.41c2.5,1.51,5.4,3.38,8.89,5.48a91.07,91.07,0,0,0,8.3,4.49,43.8,43.8,0,0,0,9.19,3.23,26.87,26.87,0,0,0,4.32.59,22.55,22.55,0,0,0,3.55-.06c.5,0,.95-.12,1.34-.17l1-.18.83-.19-.83.17-1,.17c-.39,0-.83.11-1.33.14a22.87,22.87,0,0,1-3.52,0,27.61,27.61,0,0,1-4.25-.67,43.19,43.19,0,0,1-9-3.34c-2.93-1.43-5.71-3.05-8.17-4.55-3.46-2.12-6.35-4-8.87-5.5a48.5,48.5,0,0,0-6.51-3.4,17.15,17.15,0,0,0-2.48-.83,11,11,0,0,0-1.9-.32A3.55,3.55,0,0,0,302.89,272.13Z"/>
                    <path class="b0ab62f5-b121-461f-992f-775e2b5eedc2" d="M282.37,267.28c0,.1.49.08,1.38.53a23.35,23.35,0,0,1,3.76,2.63c1.62,1.32,3.63,3.1,6.12,5.27s5.46,4.74,9.12,7.55a86.87,86.87,0,0,0,8.73,5.93c1.58.92,3.18,1.78,4.78,2.53a48.65,48.65,0,0,0,4.72,1.91,37.67,37.67,0,0,0,4.32,1.2c1.33.28,2.53.45,3.53.56s1.81.13,2.36.14H332l-.85,0c-.55,0-1.35-.08-2.35-.2s-2.18-.34-3.49-.66a37.82,37.82,0,0,1-4.25-1.3,47.75,47.75,0,0,1-4.63-2c-1.57-.78-3.14-1.66-4.68-2.59a93.63,93.63,0,0,1-8.58-6c-3.62-2.82-6.56-5.4-9.06-7.56s-4.52-3.92-6.21-5.21a17,17,0,0,0-4-2.51,3.31,3.31,0,0,0-1.16-.25C282.5,267.19,282.37,267.24,282.37,267.28Z"/>
                    <path class="b0ab62f5-b121-461f-992f-775e2b5eedc2" d="M348.3,258.38a4.37,4.37,0,0,0,.76,0,14.79,14.79,0,0,1,2.23.14c1,.13,2.19.35,3.65.66s3.15.72,5.16,1.18c1.43.33,3,.67,4.69.95a37.29,37.29,0,0,0,4.95.55c.8,0,1.56,0,2.26,0a14.69,14.69,0,0,0,1.82-.26,10.68,10.68,0,0,0,1.17-.31l.3-.11.1,0-.1,0-.31.1c-.26.08-.66.19-1.16.29a12.38,12.38,0,0,1-1.81.21,17.93,17.93,0,0,1-2.2,0,37.87,37.87,0,0,1-4.85-.62c-1.62-.3-3.2-.67-4.61-1-2-.47-3.69-.88-5.16-1.19a35.73,35.73,0,0,0-3.73-.64,11.88,11.88,0,0,0-1.36-.09,7.7,7.7,0,0,0-1,0A2,2,0,0,0,348.3,258.38Z"/>
                    <path class="b0ab62f5-b121-461f-992f-775e2b5eedc2" d="M369.8,246.05c0,.06.11.1.32.12l.39.06a3.7,3.7,0,0,1,.55.12,8.74,8.74,0,0,1,1.64.6c.66.31,1.44.74,2.36,1.26a18.5,18.5,0,0,0,2.14,1,4.93,4.93,0,0,0,2.19.41,2.84,2.84,0,0,0,1.52-.58l.22-.18.15-.16.13-.13-.14.11-.16.14-.23.16a2.77,2.77,0,0,1-1.52.42,5.16,5.16,0,0,1-2.1-.56c-.73-.33-1.44-.76-2.09-1.13a27,27,0,0,0-2.39-1.31,6.82,6.82,0,0,0-1.71-.56,2.6,2.6,0,0,0-.59,0,2.15,2.15,0,0,0-.4,0C369.88,245.94,369.79,246,369.8,246.05Z"/>
                    <path class="b0ab62f5-b121-461f-992f-775e2b5eedc2" d="M301.83,271.74c0,.11.38.09.94-.4a9,9,0,0,0,1.89-3.32,54.86,54.86,0,0,0,2-7.23c.7-3.05,1.43-6.75,2.41-10.94a90.34,90.34,0,0,1,2.6-9.19,35.41,35.41,0,0,1,3.66-7.77,16.34,16.34,0,0,1,3.87-4.22,12.36,12.36,0,0,1,1.33-.83l.49-.26-.5.22a14.35,14.35,0,0,0-1.37.73,15.2,15.2,0,0,0-4.06,4,32.43,32.43,0,0,0-3.9,7.6,78.31,78.31,0,0,0-2.77,9.14c-1,4.19-1.77,7.88-2.45,10.92a72.36,72.36,0,0,1-1.88,7.2,13.32,13.32,0,0,1-1.61,3.43C302,271.39,301.78,271.61,301.83,271.74Z"/>
                    <path class="b0ab62f5-b121-461f-992f-775e2b5eedc2" d="M319.84,269s.12,0,.25-.19l.23-.29a4.54,4.54,0,0,0,.29-.43,13.81,13.81,0,0,0,1.33-3.32,40.38,40.38,0,0,0,1.11-5.93c.33-2.42.59-5.28,1-8.62.16-1.19.35-2.43.58-3.71s.51-2.58.86-3.87a34,34,0,0,1,1.25-3.77c.22-.61.51-1.19.77-1.76.13-.29.29-.56.43-.83s.28-.55.45-.8a16.21,16.21,0,0,1,1-1.47l.48-.67.51-.61q.24-.3.48-.57l.5-.51.45-.47.46-.4c.29-.25.54-.48.78-.67l.62-.46.53-.38-.54.36-.64.44c-.25.18-.51.4-.81.64l-.48.39-.48.46c-.17.15-.34.32-.52.49s-.33.36-.51.56l-.53.6-.52.66c-.37.45-.68,1-1,1.46-.17.26-.31.54-.48.81s-.32.54-.47.83c-.28.58-.59,1.16-.84,1.78a30.11,30.11,0,0,0-1.38,3.8c-.39,1.3-.7,2.62-1,3.91s-.47,2.55-.65,3.74c-.49,3.36-.77,6.23-1.08,8.63a55.16,55.16,0,0,1-1,5.84,20,20,0,0,1-1.06,3.26,4.07,4.07,0,0,1-.19.45,3.54,3.54,0,0,0-.14.33C319.82,268.86,319.8,269,319.84,269Z"/>
                    <path class="b0ab62f5-b121-461f-992f-775e2b5eedc2" d="M334.13,263.35c.05.23.31.29.78,0a6.21,6.21,0,0,0,1.8-2.27,41.73,41.73,0,0,0,2.44-6c.9-2.64,1.89-6,3.12-9.65a68,68,0,0,1,3-7.81,15.32,15.32,0,0,1,3.73-5.38,4.52,4.52,0,0,1,3.65-1.09l.68.14.52.21.45.18-.46-.25-.53-.3c-.21-.09-.44-.16-.7-.26a4.49,4.49,0,0,0-3.83.49,12.61,12.61,0,0,0-4,4.84,51.16,51.16,0,0,0-3.2,7.53c-1.27,3.63-2.28,6.92-3.17,9.55a63.42,63.42,0,0,1-2.3,6.07C334.82,262.28,334,262.81,334.13,263.35Z"/>
                    <path class="b0ab62f5-b121-461f-992f-775e2b5eedc2" d="M368.94,246.06c.05.06.2,0,.46-.2a5,5,0,0,0,1-1.15,8.5,8.5,0,0,0,.55-1c.17-.39.35-.83.51-1.31.34-1,.65-2.09,1.09-3.39a23.81,23.81,0,0,1,1.21-2.89,19.11,19.11,0,0,1,1.66-2.66,22.53,22.53,0,0,1,1.58-1.84c.21-.22.39-.39.51-.51l.18-.18-.2.16-.55.46a19.7,19.7,0,0,0-1.75,1.73,16.85,16.85,0,0,0-1.91,2.62,19.5,19.5,0,0,0-1.39,3c-.49,1.32-.82,2.46-1.13,3.39a14.19,14.19,0,0,1-.92,2.2C369.24,245.51,368.82,245.93,368.94,246.06Z"/>
                    <path class="b0ab62f5-b121-461f-992f-775e2b5eedc2" d="M283.92,267.4c.06.08.36,0,.94-.42a10.93,10.93,0,0,0,2.18-2.3,26.9,26.9,0,0,0,2.68-4.81c.91-2.06,1.83-4.56,2.82-7.51,1.41-4.19,3-9.35,4.73-13.21.43-1,.89-1.85,1.31-2.63l.64-1.08.6-.89.53-.71c.15-.21.31-.36.42-.5l.37-.43-.39.4c-.12.13-.29.29-.45.49l-.57.67c-.2.27-.41.56-.65.87l-.7,1c-.47.77-1,1.62-1.45,2.58a110.22,110.22,0,0,0-5.19,13.08c-1,2.93-2,5.39-2.85,7.42a32.87,32.87,0,0,1-2.5,4.73C284.86,266.5,283.77,267.19,283.92,267.4Z"/>
                    <path class="b0ab62f5-b121-461f-992f-775e2b5eedc2" d="M348.91,258.61c0,.19.29.23.73,0a5.62,5.62,0,0,0,1.75-1.88,31.88,31.88,0,0,0,2.45-4.88c.92-2.15,2-4.86,3.2-7.88a56.82,56.82,0,0,1,3-6.39,14.09,14.09,0,0,1,3.66-4.45,5,5,0,0,1,3.45-1c.24,0,.45.06.63.1l.49.15.41.14s-.15-.08-.42-.19l-.49-.23c-.19-.07-.41-.12-.65-.19a4.88,4.88,0,0,0-3.61.49,11.83,11.83,0,0,0-3.89,4,43.25,43.25,0,0,0-3.2,6.17c-1.3,3-2.33,5.64-3.24,7.79a50.87,50.87,0,0,1-2.33,5C349.59,257.73,348.8,258.18,348.91,258.61Z"/>
                  </g>
                  <path class="b65c3a29-d142-4ed7-84e2-a98e938deaf1" d="M281.35,266c17.87,9.64,40.78,1.82,58-6.18C357.83,251,374.6,239,391.69,227.53a178.06,178.06,0,0,1-23.07,21.08c-16.7,12.61-35.93,23.43-57.23,25.47-10.37.79-22.21-.67-30-8.11Z"/>
                </g>
                <path class="ef2017d6-5828-4ea3-adb1-54c2c3d43e7f" d="M280.08,265.17s4.57-33.84,40-35.14c7.81-.28,19.39,4.39,27.2,4.18,38.39-1.06,31.57-3.61,42.16-6.05,0,0-13.44,4.52-36.83,2.8,0,0-21.32-2.08-24.89-2.2-11.51-.4-19-3.61-34.15,8C293.59,236.77,271.8,253.64,280.08,265.17Z"/>
                <path class="e39715df-9996-4d43-9765-2feb65b97545" d="M279,271.32s-1.1,19.41,24.92,25.73c0,0,47,6.13,65-28.32,0,0,15.95-33.57,20-37.25a155.91,155.91,0,0,0-9.09,20.79s-12.2,27.93-26.13,36.65c0,0-18.31,19-54.4,10.61C299.28,299.53,272.59,296.14,279,271.32Z"/>
              </g>
              <g>
                <g>
                  <path class="b67b8d62-6bfc-4cfd-af39-d244719c8649" d="M206.44,170.8s-10.08,7.56-10.28,16.32l2.41,2.77s-.94-8.54,7.77-18Z"/>
                  <path class="e39715df-9996-4d43-9765-2feb65b97545" d="M198.57,189.89s-1.2-8.5,7.77-18l0-.47s-10,9.68-8.27,18Z"/>
                  <path class="b2eeece7-9410-4e48-b10c-4e03c836e036" d="M196.16,187.12s.29-6.81,7-13.34c0,0-5.54,6-6.84,13.45Z"/>
                </g>
                <g>
                  <g>
                    <path class="ba2744b4-d801-414a-bf0d-1714e9c7dad8" d="M286.24,126.54l-.06.09-.16.21Z"/>
                    <path class="f51cbccd-17d1-4ccd-8b25-91e2240ff543" d="M286.51,125.85l.06-.09c0-.07.16-.19.2-.05a.61.61,0,0,1-.09.41l-.06.09c0,.06-.16.19-.2.05a.58.58,0,0,1,.09-.41l.06-.09c0,.12.07.24.11.36l-.06.09c0,.06-.16.19-.2.05A.6.6,0,0,1,286.51,125.85Z"/>
                    <path class="bd04080e-9abd-4f01-9b63-ce2b0bc365cf" d="M236.78,168.65c-30.4,12.69-32.12,4.2-32.12,4.2-4.27-.45-7.44-9.63,5.14-24.49,9.63-11.39,17.36-10.47,39.11-12.88,24.46-2.72,33.94-9.32,35.06-10.73C277.53,133.76,259.47,159.18,236.78,168.65Z"/>
                    <path class="b67b8d62-6bfc-4cfd-af39-d244719c8649" d="M209.45,192.28c-5.72-4.14-7.66-13.8-4.79-19.43,0,0,14.56,6.7,39.56-9.29,20.67-13.21,33.2-29.55,39.65-38.56l.15-.21c-4.19,6.62-4.44,23.57-11.8,40.92C257.21,201.05,217.47,198.1,209.45,192.28Z"/>
                  </g>
                  <g>
                    <path class="b0ab62f5-b121-461f-992f-775e2b5eedc2" d="M271.09,168.1s-.08,0-.23.05l-.66.22a15.71,15.71,0,0,1-2.75.55,25.8,25.8,0,0,1-4.52.1c-1.79-.1-3.83-.34-6.15-.69l-5.29-.86c-1.81-.29-3.64-.56-5.32-.7a19.6,19.6,0,0,0-4.43,0,7.55,7.55,0,0,0-1.39.31l-.22.07-.15.06-.13.05.13-.05.15,0,.22-.07a7.88,7.88,0,0,1,1.38-.29,19.51,19.51,0,0,1,4.35.07c1.65.17,3.45.47,5.24.79s3.58.65,5.24.92a61.2,61.2,0,0,0,6.18.71,25.1,25.1,0,0,0,4.64-.13,14,14,0,0,0,2.85-.67,6.07,6.07,0,0,0,.66-.29C271,168.15,271.1,168.11,271.09,168.1Z"/>
                    <path class="b0ab62f5-b121-461f-992f-775e2b5eedc2" d="M222.21,174.14a8.29,8.29,0,0,0,1.15-.12,9.89,9.89,0,0,1,1.42,0,14,14,0,0,1,2,.29,42.64,42.64,0,0,1,5.45,1.6c2.17.75,4.69,1.73,7.72,2.79a69.82,69.82,0,0,0,7.1,2.12,34,34,0,0,0,7.58,1,22.76,22.76,0,0,0,3.41-.23,17.86,17.86,0,0,0,2.72-.62c.38-.11.72-.24,1-.34l.73-.3.61-.28-.61.26c-.2.09-.45.18-.74.29s-.63.22-1,.32a18.58,18.58,0,0,1-2.7.57,21.53,21.53,0,0,1-3.38.16,33.87,33.87,0,0,1-7.46-1.12c-2.48-.63-4.88-1.43-7-2.19-3-1.08-5.52-2.06-7.7-2.82a39.94,39.94,0,0,0-5.55-1.57,15.49,15.49,0,0,0-2-.24,9.75,9.75,0,0,0-1.51.06A2.73,2.73,0,0,0,222.21,174.14Z"/>
                    <path class="b0ab62f5-b121-461f-992f-775e2b5eedc2" d="M205.65,173.7c0,.07.39,0,1.14.19a17.21,17.21,0,0,1,3.32,1.42c1.46.75,3.28,1.79,5.55,3.06s5,2.78,8.22,4.35a68.62,68.62,0,0,0,7.66,3.17c1.36.45,2.73.85,4.08,1.17a35.31,35.31,0,0,0,3.94.71,30,30,0,0,0,3.51.24,27.61,27.61,0,0,0,2.8-.14c.79-.09,1.41-.19,1.84-.27l.65-.13-.65.11c-.43.07-1.06.15-1.84.22a27,27,0,0,1-2.79.06,30.75,30.75,0,0,1-3.48-.33,35.28,35.28,0,0,1-3.88-.8c-1.33-.35-2.68-.77-4-1.24a76,76,0,0,1-7.56-3.25c-3.24-1.6-5.92-3.11-8.18-4.37s-4.1-2.29-5.61-3a13.91,13.91,0,0,0-3.49-1.28,2.88,2.88,0,0,0-.93,0C205.73,173.61,205.65,173.67,205.65,173.7Z"/>
                    <path class="b0ab62f5-b121-461f-992f-775e2b5eedc2" d="M254.92,156.3a2.49,2.49,0,0,0,.58-.13,11.79,11.79,0,0,1,1.74-.25c.78-.06,1.74-.08,2.91-.07s2.54.05,4.16.08c1.15,0,2.44,0,3.75,0a28.79,28.79,0,0,0,3.9-.38,15.29,15.29,0,0,0,1.73-.39,9.5,9.5,0,0,0,1.36-.49c.38-.16.66-.32.85-.42l.21-.13.07,0-.07,0-.22.12a7.74,7.74,0,0,1-.85.41,11.81,11.81,0,0,1-1.35.45c-.52.14-1.1.26-1.7.36a29.57,29.57,0,0,1-3.82.29c-1.3,0-2.57,0-3.71,0-1.61,0-3-.09-4.16-.09a28.63,28.63,0,0,0-3,.1c-.4,0-.75.1-1.06.15a7.88,7.88,0,0,0-.77.19C255.09,156.18,254.91,156.28,254.92,156.3Z"/>
                    <path class="b0ab62f5-b121-461f-992f-775e2b5eedc2" d="M269.47,143.38s.11.06.27,0l.31,0c.13,0,.27,0,.45,0a8,8,0,0,1,1.35.2c.56.14,1.23.35,2,.6a14.08,14.08,0,0,0,1.81.46,3.93,3.93,0,0,0,1.75,0,2.2,2.2,0,0,0,1.07-.7,1,1,0,0,0,.14-.17l.1-.14.07-.12a.68.68,0,0,0-.08.11l-.11.13-.15.15a2.16,2.16,0,0,1-1.1.57,4.16,4.16,0,0,1-1.7-.09c-.61-.14-1.23-.35-1.79-.54a20.75,20.75,0,0,0-2.05-.62,5.23,5.23,0,0,0-1.4-.16,2,2,0,0,0-.46.06l-.3.09C269.52,143.28,269.46,143.33,269.47,143.38Z"/>
                    <path class="b0ab62f5-b121-461f-992f-775e2b5eedc2" d="M221.33,174c0,.08.31,0,.65-.46a7,7,0,0,0,.93-2.86,44.58,44.58,0,0,0,.38-5.87c.05-2.46,0-5.42.1-8.8a71.13,71.13,0,0,1,.53-7.49,27.74,27.74,0,0,1,1.57-6.55,12.92,12.92,0,0,1,2.3-3.87,10.32,10.32,0,0,1,.89-.85L229,137l-.36.25a10.19,10.19,0,0,0-.93.79,11.73,11.73,0,0,0-2.49,3.7,25.64,25.64,0,0,0-1.78,6.46,63.92,63.92,0,0,0-.67,7.48c-.12,3.38-.1,6.34-.13,8.79a58.31,58.31,0,0,1-.3,5.83,10.18,10.18,0,0,1-.69,2.9C221.43,173.71,221.27,173.92,221.33,174Z"/>
                    <path class="b0ab62f5-b121-461f-992f-775e2b5eedc2" d="M234.73,169s.09,0,.16-.19.08-.15.13-.26a2,2,0,0,0,.16-.38,10.51,10.51,0,0,0,.49-2.76,32.61,32.61,0,0,0-.09-4.74c-.14-1.91-.4-4.15-.58-6.79-.07-.94-.12-1.93-.15-2.95s0-2.06,0-3.11a28.53,28.53,0,0,1,.35-3.1c.08-.5.21-1,.32-1.48.05-.24.13-.47.2-.71s.12-.46.21-.68c.17-.45.31-.89.5-1.29l.27-.59c.09-.19.2-.37.29-.55s.18-.35.28-.52l.3-.47c.1-.14.19-.29.28-.43l.28-.38c.19-.24.34-.46.5-.64l.4-.45.34-.38-.35.36-.43.44c-.16.18-.32.4-.52.63l-.3.37-.29.43-.32.46c-.11.16-.2.34-.31.51l-.32.55c-.09.19-.19.39-.28.59a12.54,12.54,0,0,0-.56,1.29c-.1.23-.16.46-.24.69s-.17.48-.23.72c-.13.49-.27,1-.37,1.5a27.45,27.45,0,0,0-.45,3.15c-.09,1.06-.11,2.13-.12,3.16s0,2,.1,3c.16,2.66.4,4.91.54,6.81a41.12,41.12,0,0,1,.18,4.65,15.85,15.85,0,0,1-.29,2.68,3,3,0,0,1-.08.37c0,.11,0,.2-.05.27S234.7,169,234.73,169Z"/>
                    <path class="b0ab62f5-b121-461f-992f-775e2b5eedc2" d="M244.82,162.39c.08.17.28.17.61-.09a5,5,0,0,0,1-2,32.3,32.3,0,0,0,.92-5c.27-2.18.5-4.89.85-7.92a58.17,58.17,0,0,1,1.07-6.49,12,12,0,0,1,2-4.74,3.57,3.57,0,0,1,2.63-1.42h.54l.44.08.37.07-.39-.12-.46-.15-.58-.08a3.52,3.52,0,0,0-2.87,1,10.09,10.09,0,0,0-2.3,4.37,41.08,41.08,0,0,0-1.25,6.3c-.4,3-.65,5.68-.91,7.84s-.53,3.85-.8,5C245.18,161.46,244.63,162,244.82,162.39Z"/>
                    <path class="b0ab62f5-b121-461f-992f-775e2b5eedc2" d="M268.82,143.52c.05,0,.15,0,.32-.22a4,4,0,0,0,.57-1.05,6.82,6.82,0,0,0,.26-.86c.07-.33.14-.69.19-1.09.1-.79.16-1.71.29-2.78a18.83,18.83,0,0,1,.46-2.41,13.66,13.66,0,0,1,.86-2.31,16.55,16.55,0,0,1,.92-1.68c.12-.2.23-.36.3-.47l.11-.16-.12.15c-.08.1-.21.25-.35.44a15.93,15.93,0,0,0-1.07,1.61,13.78,13.78,0,0,0-1.05,2.32,15.47,15.47,0,0,0-.6,2.49c-.16,1.1-.23,2-.32,2.79a12,12,0,0,1-.36,1.84C269,143.05,268.7,143.44,268.82,143.52Z"/>
                    <path class="b0ab62f5-b121-461f-992f-775e2b5eedc2" d="M206.86,173.54c.06.06.28-.08.65-.47a8.45,8.45,0,0,0,1.32-2.12,21.67,21.67,0,0,0,1.29-4.13c.37-1.72.67-3.8,1-6.22.42-3.45.78-7.66,1.52-10.91.18-.82.39-1.57.59-2.24.11-.33.22-.64.32-.93s.22-.55.32-.79l.29-.62c.09-.19.18-.33.25-.46s.21-.38.21-.38l-.24.37c-.07.12-.17.26-.26.44l-.33.61-.36.77c-.12.29-.24.6-.38.92-.23.67-.49,1.41-.7,2.22a87.47,87.47,0,0,0-1.89,10.89q-.48,3.62-1,6.16a26.22,26.22,0,0,1-1.17,4C207.44,172.7,206.71,173.41,206.86,173.54Z"/>
                    <path class="b0ab62f5-b121-461f-992f-775e2b5eedc2" d="M255.43,156.38c.06.13.25.13.56-.1a4.65,4.65,0,0,0,1.05-1.73,26,26,0,0,0,1.1-4.14c.36-1.81.71-4,1.19-6.57a45.43,45.43,0,0,1,1.32-5.41,10.91,10.91,0,0,1,2.1-4,3.91,3.91,0,0,1,2.5-1.3,4.53,4.53,0,0,1,.5,0l.4,0,.34,0-.36-.09-.41-.09-.53,0a3.82,3.82,0,0,0-2.69.95,9.16,9.16,0,0,0-2.35,3.71,34,34,0,0,0-1.48,5.26c-.52,2.49-.89,4.71-1.24,6.51a41.16,41.16,0,0,1-1,4.19C255.81,155.59,255.27,156.06,255.43,156.38Z"/>
                  </g>
                  <path class="b65c3a29-d142-4ed7-84e2-a98e938deaf1" d="M204.66,172.85c15.48,4,31.13-5.62,43.19-14.54,12.8-9.72,23.83-21.45,35.49-32.67a126.41,126.41,0,0,1-14,20.24c-10.74,12.56-23.91,24-40.13,28.88-7.94,2.2-17.43,2.83-24.56-1.91Z"/>
                </g>
                <path class="ef2017d6-5828-4ea3-adb1-54c2c3d43e7f" d="M203.55,172.44s-1.9-26.75,25.15-33.42c6-1.47,15.61.27,21.58-1.15,29.35-7,23.7-7.82,31.45-11.4,0,0-9.61,5.63-27.87,8.06,0,0-16.72,1.81-19.49,2.29-8.92,1.53-15.16.26-25,11.63C209.39,148.45,195.34,164.9,203.55,172.44Z"/>
                <path class="e39715df-9996-4d43-9765-2feb65b97545" d="M203.72,177.34S206,192.44,227,193.13c0,0,37.09-2.8,45.42-32.17,0,0,6.89-28.36,9.41-31.84a121.83,121.83,0,0,0-3.66,17.44s-4.91,23.43-14.23,32.36c0,0-11,17.51-40.12,16.87C223.82,195.79,202.75,197.45,203.72,177.34Z"/>
              </g>
            </g>
          </g>
        </g>
      </g>
      <g class="a691a17f-8bec-4f79-acf8-1671263c0d3d">
        <g>
          <g>
            <path class="ed389f0f-08c1-40a8-95bf-db301a3c4825" d="M56.12,471.49a9.83,9.83,0,0,0-.83.67c-.25.23-.56.51-.88.85a12.57,12.57,0,0,0-1,1.23,11.75,11.75,0,0,0-1,1.63,8.31,8.31,0,0,0-.76,2.09,5.45,5.45,0,0,0-.14,1.23c0,.46,0,.79.07,1.17,0,.72.09,1.44.1,2.17a18.67,18.67,0,0,1-.09,2.13,8.83,8.83,0,0,1-.41,1.92,5.85,5.85,0,0,1-.83,1.59,8.59,8.59,0,0,1-1.17,1.23c-.84.71-1.62,1.27-2.15,1.69s-.82.67-.82.67.37-.12,1-.36c.31-.12.7-.26,1.13-.45a11.69,11.69,0,0,0,1.44-.7,7.81,7.81,0,0,0,1.6-1.18,6.24,6.24,0,0,0,1.3-1.88,8.35,8.35,0,0,0,.68-2.3,15.86,15.86,0,0,0,.16-2.38,22.42,22.42,0,0,0-.15-2.33l-.12-1a5.66,5.66,0,0,1,0-.92,8.38,8.38,0,0,1,.43-1.81,15.37,15.37,0,0,1,.66-1.63c.47-1,.94-1.82,1.27-2.39Z"/>
            <path class="f147ce84-3a00-4479-9952-55a2798f6e28" d="M56.08,471.32l-.41.08a8.57,8.57,0,0,0-1.14.3,10.25,10.25,0,0,0-1.7.7,8.38,8.38,0,0,0-2,1.39,7.15,7.15,0,0,0-1,1.07,6.09,6.09,0,0,0-.75,1.38,6.62,6.62,0,0,0-.38,3.35,10.41,10.41,0,0,0,1.05,3.34c.13.26.26.53.41.78l.42.72.83,1.47c.26.48.44.94.66,1.41s.35,1,.52,1.47a6.74,6.74,0,0,1,.17.75c.06.25.12.49.17.74s0,.49.07.74a3.58,3.58,0,0,1,0,.73c0,.24,0,.48,0,.71a5.36,5.36,0,0,1-.09.7,5.06,5.06,0,0,1-.1.68l-.18.65a3.35,3.35,0,0,1-.22.63l-.24.59a11.1,11.1,0,0,1-.59,1.08,7.38,7.38,0,0,1-.67.93,6.68,6.68,0,0,1-.68.79c-.23.24-.45.45-.67.64a6.41,6.41,0,0,1-.61.5l-.51.39-.4.25-.34.22h0a.17.17,0,0,0-.06.24.18.18,0,0,0,.22.07l.38-.14.47-.19.61-.3c.23-.11.46-.27.73-.43a6.48,6.48,0,0,0,.81-.58,8.23,8.23,0,0,0,.86-.75,9.94,9.94,0,0,0,.86-.95c.29-.35.52-.75.8-1.15l.34-.67a4,4,0,0,0,.3-.7l.27-.74c.09-.26.12-.53.19-.79a8.38,8.38,0,0,0,.21-1.66,4.94,4.94,0,0,0,0-.86c0-.29,0-.58,0-.87a17.55,17.55,0,0,0-.33-1.73c-.19-.55-.33-1.13-.56-1.68S53.31,485.5,53,485s-.56-1-.85-1.45l-.43-.72c-.15-.22-.25-.46-.38-.69a10.23,10.23,0,0,1-1-2.78,5.51,5.51,0,0,1,.11-2.63,5.82,5.82,0,0,1,1.2-2.1,8.8,8.8,0,0,1,1.62-1.43,12.26,12.26,0,0,1,1.47-.89,11,11,0,0,1,1.39-.63.19.19,0,0,0,.11-.23A.2.2,0,0,0,56.08,471.32Z"/>
            <path class="b2bee398-93f3-4793-89a1-570d51372e92" d="M56.07,471.32s-.14,0-.38.11a4.89,4.89,0,0,0-1,.47,5.35,5.35,0,0,0-1.29,1.16,6,6,0,0,0-1.07,2,8.35,8.35,0,0,0-.43,2.61,13,13,0,0,0,.25,2.89,23.84,23.84,0,0,0,.79,2.93,10.84,10.84,0,0,1,.51,2.75,6.94,6.94,0,0,1-.33,2.66,6.85,6.85,0,0,1-1.27,2.27,9.4,9.4,0,0,1-1.88,1.7,13.79,13.79,0,0,1-2,1.17,16,16,0,0,1-3.41,1.12c-.43.07-.77.12-1,.14h-.35a.18.18,0,0,0-.06.35h0a5.67,5.67,0,0,0,1.46.14,13.11,13.11,0,0,0,3.79-.65,12.47,12.47,0,0,0,2.38-1,9.76,9.76,0,0,0,2.35-1.84,8,8,0,0,0,1.71-2.78,8.77,8.77,0,0,0,.48-3.33,12.19,12.19,0,0,0-.64-3.21c-.16-.47-.31-.93-.47-1.39s-.27-.9-.39-1.34a15.27,15.27,0,0,1-.41-2.56,8.42,8.42,0,0,1,.13-2.28,5.94,5.94,0,0,1,.66-1.78,5.3,5.3,0,0,1,.92-1.17,4.94,4.94,0,0,1,.78-.59l.3-.17a.17.17,0,0,0,.1-.23A.19.19,0,0,0,56.07,471.32Z"/>
          </g>
          <polygon class="e5a75d5b-f8b6-402f-91e2-1c448219cd2c" points="54.65 471.12 111.9 568.75 210.16 511.87 152.92 414.24 54.65 471.12"/>
          <g class="bf9d5e18-167d-439e-99d9-13797162cba9">
            <path class="ec504d97-a801-43d2-ab11-ba0649f44497" d="M115.18,446.12a62.3,62.3,0,0,0,13.46,57.19c.32.37.64.73,1,1.08a63.41,63.41,0,0,0,61.15,18.71l19.4-11.23-57.24-97.63-32.73,18.94A62.81,62.81,0,0,0,115.18,446.12Z"/>
          </g>
          <g class="a9dd650b-0459-4cef-9a29-bd134039d53a">
            <path class="b2969cd6-997c-4a28-a1ca-b1fc449e699e" d="M131.73,491.57c-1,3.93-2.06,7.86-3.09,11.74-1.5,5.72-3,11.34-4.41,16.75-2.37,9.11-4.58,17.6-6.47,24.88l-4.52,17.61c-.72,2.88-1.24,4.92-1.49,5.94-.13.49-.19.74-.19.74l.39.11s.08-.26.22-.75c.27-1,.84-3,1.64-5.9l4.81-17.53c2-7.26,4.26-15.73,6.72-24.81,1.38-5.16,2.82-10.52,4.27-16,1.11-4.13,2.22-8.31,3.34-12.5,2.56-9.7,5.12-19.4,7.51-28.49s4.58-17.59,6.47-24.87l4.52-17.61c.86-3.43,1.43-5.68,1.62-6.42l-.15-.26-.26.15c-.2.74-.83,3-1.78,6.38l-4.81,17.53c-2,7.26-4.26,15.74-6.72,24.81S134.33,481.88,131.73,491.57Z"/>
            <path class="aadfd2aa-fcc7-4dea-b3c7-c21b21fe1e9a" d="M54.65,471.12l.78,1.33c54.12-18.24,115.34-2.18,153.34,40.23l1.39-.81L207,506.48a146.39,146.39,0,0,0-68.17-39.38,147.22,147.22,0,0,0-78.55.76Z"/>
          </g>
        </g>
      </g>
      <g class="aafd572c-ba1f-490d-8332-993526e27331">
        <g class="a8e4995c-2d78-495d-af40-0776d6abc9c8">
          <g>
            <path class="e3ce7938-8a32-45c7-ac7d-f93628f82584" d="M23-48.46,25.51-75a125.25,125.25,0,0,0-7.59,28.52,169.58,169.58,0,0,1-.79-23.74q-2.19,11.52-4.39,23Q11.84-61,10.93-74.73,9.3-62.19,7.67-49.64L6.44-90Q1.79-69-2.84-48.07-.56-67.79,1.71-87.51A107,107,0,0,0-11.36-52.57l4-28.49a78.23,78.23,0,0,0-9.51,25.35q2.13-19,5.72-37.93A127.19,127.19,0,0,0-21.39-54.37l-5.16-30.46q1.14,13.52,2.29,27a111.93,111.93,0,0,1-9.59-26.39q1.34,13.31,2.66,26.6L-36.32-73q-1.87,8.61-3.77,17.22a59.18,59.18,0,0,0,.88-16.9l-7.4,18.65L-44.48-73-53-59.58q2.79-10.48,5.56-21-6.8,11-13.61,22a84.7,84.7,0,0,0,9-29.68,105.79,105.79,0,0,1-15.67,26q3-10,6-20a65.86,65.86,0,0,0-10.4,17q.7-11,1.43-21.94a103.47,103.47,0,0,0-7.52,26,321.39,321.39,0,0,1-1.5-34.26A183.68,183.68,0,0,0-85.4-48.95a264.5,264.5,0,0,1-7.51-41.13,163.54,163.54,0,0,0,2.12,48.71,108.1,108.1,0,0,1-14.52-43.45c1.44,20.56,6.64,71.77,15.36,91H21.88c4.79-17.09,7.82-65.07,9-82.6A123.79,123.79,0,0,0,23-48.46Z"/>
            <path class="aa06616f-4bea-46f2-a3d7-f069608135fd" d="M148.76-77.47A52.8,52.8,0,0,0,137-48.3,92.57,92.57,0,0,1,143.64-79a65.14,65.14,0,0,0-12.21,31.41,173.17,173.17,0,0,1,5.65-33.63A52.48,52.48,0,0,0,126-49.87a155,155,0,0,1,1.62-36.94,111.49,111.49,0,0,0-5,39.21q-8.15-22.23-16.28-44.46,4.42,20.49,8.87,41L96.48-84.25A63.84,63.84,0,0,1,104.68-48,22.79,22.79,0,0,1,97.6-60.8q-.39,7.94-.77,15.87a97.21,97.21,0,0,1-3.16-21Q91.6-57,89.54-48.1a150.45,150.45,0,0,1,1.57-26.39,89,89,0,0,0-9.52,26A86.61,86.61,0,0,1,88.86-78,155.92,155.92,0,0,0,74-59,72.06,72.06,0,0,1,87.37-80.65C78.83-77.14,72-70.7,68.82-63.11A82.74,82.74,0,0,1,78.18-90a46.2,46.2,0,0,0-15.8,26.95q.45-14,.89-28a103.68,103.68,0,0,0-6.91,30.86A307.54,307.54,0,0,0,55-112.7q-1.85,17.22-3.68,34.44l-4-27.45q-1.76,19.14-3.49,38.27-.88-13.5-1.78-27a128.7,128.7,0,0,0-3.58,33.7,241.93,241.93,0,0,1-4.6-35.48,417.13,417.13,0,0,0-2.94,42.94,269.51,269.51,0,0,1-8.19-37.22l1.48,43.74A253.43,253.43,0,0,1,12-85,314.9,314.9,0,0,0,16-38.1,68.56,68.56,0,0,1,3.76-77.32C3.44-60.46,6.67-9.74,13.25,6.18H142.07C140.12-11.67,142.41-60.37,148.76-77.47Z"/>
            <path class="fdca5664-3d96-4ebc-b3a0-bc3412e11062" d="M351.93-49.22q3.79-11.91,7.58-23.83a62.59,62.59,0,0,0-13.16,23.3q2.31-16.48,4.64-33a62.67,62.67,0,0,0-8.6,28.25l1.73-40.26a155.62,155.62,0,0,0-4.42,44.26L331.24-92a134,134,0,0,0,2.94,44.14l-14-49.36c3.25,21.21,6.57,54.09,6.57,54.09l-5.16-20.57L319.3-45.43q-2.19-11.12-4.39-22.22a60.27,60.27,0,0,0-2,21.27A151.11,151.11,0,0,0,297.57-92.5a191,191,0,0,0,5.56,36.72,199.2,199.2,0,0,1-19.31-44.8,502.66,502.66,0,0,1,7.67,50.93Q283.6-73.84,275.72-98q2.89,25.41,5.77,50.82a440.43,440.43,0,0,1-14.84-56.19q2.4,28.64,4.82,57.29a223.29,223.29,0,0,1-11.9-52.48,256.39,256.39,0,0,0,7.53,61.92,152.64,152.64,0,0,1-16.39-48.91c2.53,19.44,6.32,74.27,11.36,91.76h89c4.39-12.71,7.26-59.58,8.54-72.78Q355.75-57.92,351.93-49.22Z"/>
            <path class="a89f519e-1b89-49cd-bf62-a71ec0012943" d="M429.53-77a276.65,276.65,0,0,0-19.39,33.13l14.27-34.74a143.55,143.55,0,0,0-20.64,33,282.85,282.85,0,0,1,12.51-36c-6.81,8.06-13.82,16.58-16.59,26.06q3.1-15.85,6.22-31.72A142.74,142.74,0,0,0,391.55-50q.12-21.12.23-42.24A242.06,242.06,0,0,0,385-54.89q-1.37-23.29-2.74-46.61a246.34,246.34,0,0,0-2.94,41.2Q375-82.51,372.81-105a426.15,426.15,0,0,0,.67,56.16q-4.62-23.9-9.25-47.79,1.09,28.2,2.21,56.38A225.7,225.7,0,0,1,347.08-92.7c3.2,19.27,6.41,79.61,9.61,98.88h57.9C413.34-12,421.51-60.08,429.53-77Z"/>
            <path class="ae7ab42b-8a5e-4721-85eb-1e1f032a327a" d="M485.86-64a82.74,82.74,0,0,0-15.73,18.48Q476.07-56,482-66.44a89.59,89.59,0,0,0-15.35,19.8q5.07-11.26,10.13-22.53a116.06,116.06,0,0,0-14.54,21.63l11.1-26A199.31,199.31,0,0,0,459.5-49.92q3.42-14,6.83-28a126.55,126.55,0,0,0-11.2,26q2.72-16.89,5.41-33.8a82.64,82.64,0,0,0-9.75,30.4,267.17,267.17,0,0,1,.8-41c-2.43,9.57-4.87,19.41-3.1,29.08q-3.71-20-9.37-39.72,1.26,16.32,2.51,32.65-4.19-15.37-8.36-30.75,2.73,17.22,5.45,34.43L430.83-85.3q-.54,8.37-1.09,16.73-1.58-12.68-3.13-25.35-1.08,15.61-2.17,31.22a239.58,239.58,0,0,1,.16-39.64,149.87,149.87,0,0,0-1.84,55.79,318.36,318.36,0,0,1-12-56.2c1.24,21.67,2.48,43.4,6.94,64.76l-23-54.13c8.21,22.3,15.23,75.45,21,98.3h58.88c-2.21-6.72-1.33-44.54,1.09-51.21S482-57.89,485.86-64Z"/>
            <path class="b70f6039-30f4-4f74-8265-7e7a1facfbb2" d="M258.69-10l20-79.15C270.53-72,262.33-27.25,254.14-10c6.28-18.28,11.11-64.41,14.43-83.24A296.89,296.89,0,0,1,255.4-49.4q3.19-24.45,6.37-48.91l-15.39,49.5Q247.69-72.2,249-95.57a304.21,304.21,0,0,1-9.67,50.16,190.09,190.09,0,0,0-10.64-44.95,135,135,0,0,1,5.37,49.72,119.48,119.48,0,0,0-17.87-40.09,166.61,166.61,0,0,1,10.71,39,155.48,155.48,0,0,0-15.57-30.52c6.8,10.85,11.25,50.06,13.09,62.24-4.3-10.37-10.34-47.53-17.89-56.47,6,9.47,10.39,46,13.15,56.47-4.88-10.51-12.44-46.5-22-54.36a133.32,133.32,0,0,1,12.66,26.55,191.62,191.62,0,0,0-18.46-22.95c4,7.73,8,43,12,50.76-6.33-7.74-12.65-43.07-19-50.82,3.56,8.4,7.12,42.43,10.69,50.82-5.86-8-12.46-41.31-19.73-48.46,4.5,8.89,9,39.57,13.5,48.46-5.7-8.08-11.39-38-17.08-46l8.83,46c-4.15-6.91-8.3-35.72-12.45-42.63L174.45-10l-7.77-31.21s-5-8.24-.28-33.43c0,0-5,23.54-5,30.84l-1.67-28-5.19,23.56a213.23,213.23,0,0,0,1.65-38.95A261.46,261.46,0,0,1,148.93-47q0-15.07-.08-30.15-1.46,19-2.92,38l-6.51-23.39c-.88,8.27-.8,44.2.22,52.46-.92-6.65-3.09-40.74-6.4-46.82a43.7,43.7,0,0,0-.18,14.61,47.12,47.12,0,0,0-4.33-11.69c1.34,8.78,2.68,49.19,4,60.11H256.4c8.87-18.6,17.74-65.59,26.62-82.05C274.91-61.87,266.8-24,258.69-10Z"/>
          </g>
        </g>
      </g>
    </g>
  </g>
</svg>
