<svg xmlns="http://www.w3.org/2000/svg" xmlns:xlink="http://www.w3.org/1999/xlink" width="535.9" height="534.84" viewBox="0 0 535.9 534.84">
  <defs>
    <style>
      .e8b35056-0755-487a-b90e-833231ff6705 {
        fill: none;
      }

      .fe0f8fd4-5d41-4188-8e62-18ccca2be98e {
        isolation: isolate;
      }

      .fe051568-59ba-40aa-bff3-3dd49d4b39c6 {
        fill: url(#b8729c59-6124-4f9b-8b4b-dc35a00269b4);
      }

      .ad25980c-3f4d-49ed-94fd-d2a3eb525955 {
        fill: #31d0e5;
        stroke-width: 6px;
        stroke: url(#b400c72e-f710-4ca0-8b7e-217dca2b4a87);
      }

      .ad25980c-3f4d-49ed-94fd-d2a3eb525955, .e728fd57-d636-430c-a3b9-7bf3be3f71db {
        stroke-miterlimit: 10;
      }

      .a7f7367a-b3dc-49dc-896a-fb2e28188be6 {
        clip-path: url(#ba65137d-92e6-4cf6-a3f4-f785658d6533);
      }

      .b1d489d9-0a4d-4b32-842f-9552f01723db {
        clip-path: url(#a40f57e8-e19f-4da1-a580-8e4f8746a0df);
      }

      .e728fd57-d636-430c-a3b9-7bf3be3f71db {
        fill: url(#f0e37255-1fb9-4865-b62e-193fb8d3b47a);
        stroke: url(#a6986403-ac2a-434f-9846-adca2d99bab5);
      }

      .bf714389-bdb0-4a87-a25d-774d4b956e09 {
        fill: url(#a43dc066-7c8b-41a9-acdf-83b5891b7876);
      }

      .a6dd23ff-cb18-415a-a3b2-4e32a08c000c {
        fill: url(#e866e6f8-c6f2-479c-9393-55c595906d86);
      }

      .a38df121-0acc-4974-92c7-49744fe1e23f {
        fill: url(#a4241899-5c0e-42a1-8251-856e3d81a01b);
      }

      .ae9051e2-6869-4ed1-92fc-1cc04c2d6e41 {
        fill: url(#a5398b22-4bca-4a8c-aa1e-5c20407c2d23);
      }

      .ebf40a6e-b170-4fb1-b39d-9e1d88a29d0d {
        fill: url(#e597ef2d-e624-4b0d-9bca-0fce4c8108d3);
      }

      .e1b863ea-b0b4-4079-a523-9b29558da763 {
        fill: url(#f0ee8f88-8387-4940-8017-e91f125770c7);
      }

      .f7cbac95-2d88-4f15-82a9-14ff795fe2ec {
        fill: url(#fa1af545-b4f9-42fe-9adc-b14404fabd0c);
      }

      .b814c5bc-a7be-48ad-a184-f86040196e16 {
        fill: url(#f23117b2-c5e2-4278-9cfd-db1d33920692);
      }

      .e842ca99-fac7-4569-a4df-caf9862dbc0f {
        fill: url(#adc1216a-40f8-4350-a519-cdc00a80f373);
      }

      .b62b443b-e06b-4810-bf7e-e71c3664383c {
        fill: url(#a1235fc9-b487-4fa1-8939-296d0d349810);
      }

      .b55e117b-5a3c-449e-ba05-92ec7d55719b {
        fill: url(#ef6cad31-0a6c-44b7-b190-d1080722a296);
      }

      .b1d41f86-1cfc-416d-98ef-f00a092da396 {
        fill: url(#a0036ace-d72f-4814-a4f5-87b371395292);
      }

      .bdb6cb56-caf2-4bab-b1fa-ad5183b70ada {
        fill: url(#a923815e-cec9-44ca-8302-33104c0b5947);
      }

      .aa2e6f51-df0d-416c-b40f-280d83634510, .ab2d6aef-eafd-425b-965a-e91667c008be, .ff4cf636-56b3-4759-8295-c227b3784101 {
        fill: #fff;
      }

      .ee00d26e-d643-4791-be9e-04ad706f7ca7, .ff4cf636-56b3-4759-8295-c227b3784101 {
        opacity: 0.4;
      }

      .aa2e6f51-df0d-416c-b40f-280d83634510 {
        opacity: 0.5;
      }

      .ab2d6aef-eafd-425b-965a-e91667c008be {
        opacity: 0.7;
      }

      .a2cdedda-a361-412b-a9ac-9bfda3e94547 {
        fill: url(#e19694bd-570d-4ba0-84f9-58701b3f2fce);
      }

      .bcc5aee4-2f20-42cd-a0c2-f2dade46e8e0 {
        fill: url(#b67c2c42-85a6-4d41-9a1b-38b882c08fdd);
      }

      .a26c5334-8332-4907-8ab2-d566c8e370e0 {
        fill: url(#b00d5ca3-886b-4573-beb4-bb69c044c79c);
      }

      .af8e64ce-1272-4182-b0dd-14ac4ae901f6 {
        fill: url(#a488167d-d865-493e-877b-153e6b3eb349);
      }

      .a67d3364-10d3-459e-bbf6-ab87878600d0 {
        fill: url(#a91cabd6-b8d5-4ac8-82de-fa97680b289b);
      }

      .a75952b3-ed74-4abd-9ab4-21beea73a323 {
        fill: url(#ac8dd985-fed7-4596-9662-a2f646f8103b);
      }

      .af2b06a7-30fc-4dcf-b078-5cdd54f39dd3 {
        fill: url(#be781204-7b09-4725-829f-8ddb64143b41);
      }

      .bdce21b0-563e-4168-ba0e-0da96d717825 {
        fill: url(#b277a1b2-0fcd-4618-ac50-8184a43c1041);
      }

      .e228f045-6a12-4ce1-83fa-7b861e557a79 {
        fill: url(#bfe19673-fabe-49d5-b7ae-1a14cee78fed);
      }

      .a705de12-dbaa-481b-8a47-36ca1f84ed9e {
        fill: url(#bda59e9e-1c76-4e68-bdbb-50b6b3961bd2);
      }

      .b6e4fa68-01ec-4c3c-b031-6a6c854b7af2 {
        fill: url(#af691da3-92da-4d3c-90b7-eef09f9b543d);
      }

      .fb22f936-4621-4d36-8aab-12d5bc463a4c {
        fill: url(#b06845c9-7e78-44e8-8609-084a089bd87b);
      }

      .ef37562e-f5fb-47bc-89c0-eb5a88486caa {
        fill: url(#f74c2b47-c5c5-4b75-8fa4-3793056f9245);
      }

      .b8e27f2d-7203-440d-9338-cf94659293f6 {
        fill: url(#facf29ba-c0e9-4d29-98da-7266489f8989);
      }

      .a27867d3-f216-4972-a147-64e4ee44c1bd {
        fill: url(#b4659e58-2c52-47b1-bfc1-5d40bc750622);
      }

      .a79e3ac6-7c6a-4e14-9b28-b280d475b909 {
        fill: url(#bcb5e3a0-4b55-4f39-8fd7-eb65786359f1);
      }

      .b1e4b36c-772f-4282-9894-c2a10f086682 {
        fill: url(#a553b55a-a783-4f3f-bca5-f8d53d6c9478);
      }

      .e1ea6b2f-b5bd-4297-9416-61e87928d972 {
        fill: url(#bede21c7-4724-4725-99c0-1f15baca9fc9);
      }

      .b2887bda-3763-4ca4-8941-7c1514c2bf48 {
        fill: url(#eb58e214-d1e9-42d5-9ded-4fde59385703);
      }

      .b2bda1d6-39d2-42f0-8ddf-313c6bafde7f {
        fill: url(#b0ea41c9-f0f0-4b7a-a50e-40b4aa9016b2);
      }

      .ea77cefb-719d-4d57-885c-e6c6498c262b {
        fill: url(#bec50bd0-d535-4fd3-8caa-e34e51ecc80c);
      }

      .b0f1217a-403d-41e2-9a64-b11ef50b67a6 {
        fill: url(#ef77496a-c0de-4822-befa-c774d49e8812);
      }

      .ec61fe45-98d6-423d-a3f2-dd519764ea2d {
        fill: url(#eae086af-8658-4b49-89b5-d43d170e5f5f);
      }

      .aa88ca63-d05a-4458-99db-19b339883c44 {
        fill: url(#ed89d027-9f49-4219-9726-392d4f77b76e);
      }

      .a0bca2a2-1064-4c74-b338-25506cf0b641 {
        fill: url(#a3e20a15-d8d9-4b47-b309-c52c3b03980e);
      }

      .f1bf8cec-06a9-4665-aa08-a9910433b996 {
        fill: url(#a0cfbb52-e236-40c5-b9bd-9ef01d7fa6cd);
      }

      .fdcd0f04-5189-471a-b958-d4980bf91203 {
        fill: url(#bf1eab72-5006-4464-80e9-54cfce0017b7);
      }

      .e625f372-fc5c-4678-9b23-235ecb596a41 {
        fill: url(#b95ca002-ddf0-4d39-aa3b-6b69b86804a3);
      }

      .f3f8f233-5362-44ac-8708-d9e7c0c1e3e7 {
        fill: url(#e76f8ded-fa77-4e89-9f4a-3d45596fb6e6);
      }

      .a78d24d5-5fa1-428b-8e71-2eeb37101a62 {
        clip-path: url(#a71e40b2-bb62-4431-a27a-de2ea4047862);
      }

      .f42a8b20-a3c9-4209-9f99-c8fa786737e4 {
        clip-path: url(#b7e23660-59d5-4796-9dfb-d5a07d4ed23f);
      }

      .ebcb2354-13c4-4a9f-92cf-289fe308cc92 {
        fill: url(#aff4b3b9-2108-49b5-9bc4-f8d2e96ee71e);
      }

      .a1113f81-18a3-4cbb-ab64-7901ebcac310 {
        fill: #452510;
        mix-blend-mode: color-burn;
        opacity: 0.25;
      }

      .f166ca41-11a6-422a-9bfc-23f04983e5ea {
        fill: #418046;
      }

      .b5564312-7aa0-4336-ba05-698458eee186 {
        fill: #6d7e99;
      }

      .e25af7b6-659e-42b3-9ba8-512caa66a1f3 {
        fill: #aba9a9;
      }

      .f024b20e-3898-4218-a8a3-97a0374b8002 {
        opacity: 0.61;
      }

      .e2a0843d-8e0d-4fda-bd2e-ea1b31cfa140 {
        fill: #3a3a3a;
      }

      .beba1240-b9e5-415b-bcb0-70b34a286657 {
        fill: #b9b9ba;
      }

      .a7000bf5-8ded-47a2-a71f-1a108c526fe2, .a76099ed-cf30-435f-b9ff-8f03599968f3, .a891ed1f-3283-44c8-86f5-f8e5669afede, .bab5e34b-f304-42d1-a131-f58c828d0ee7, .bea04686-9341-4b78-9df6-6419b1be0c97, .e60b5a99-fa90-4ebf-aeea-7ca64aabc607 {
        mix-blend-mode: multiply;
      }

      .a891ed1f-3283-44c8-86f5-f8e5669afede {
        opacity: 0.91;
      }

      .a6273323-1d30-4595-9c29-fb51b16fe31b {
        fill: #faac4b;
      }

      .a9452318-d6f4-4fbe-b157-1e94fba0fe58 {
        fill: #ec1e24;
      }

      .e60b5a99-fa90-4ebf-aeea-7ca64aabc607 {
        opacity: 0.86;
      }

      .eedda681-ebcf-49a7-9c8f-c0e195e4dd8e {
        fill: #ffd96c;
      }

      .a76099ed-cf30-435f-b9ff-8f03599968f3 {
        opacity: 0.77;
      }

      .a63a30e9-2929-47e4-a379-9f5369cc90a5 {
        fill: #f073a2;
      }

      .b4093f56-e24e-4c78-a2bb-5e7906e7e860 {
        fill: #1fa65b;
      }

      .bab5e34b-f304-42d1-a131-f58c828d0ee7 {
        opacity: 0.93;
      }

      .ea1adf3f-6b97-44aa-bbc3-5d9ab942d1c1 {
        fill: #ef4b4d;
      }

      .a7000bf5-8ded-47a2-a71f-1a108c526fe2 {
        opacity: 0.83;
      }

      .bea04686-9341-4b78-9df6-6419b1be0c97 {
        opacity: 0.79;
      }
    </style>
    <linearGradient id="b8729c59-6124-4f9b-8b4b-dc35a00269b4" x1="46.24" y1="115.5" x2="479.51" y2="412.39" gradientUnits="userSpaceOnUse">
      <stop offset="0" stop-color="#9b81cf"/>
      <stop offset="1" stop-color="#3b139b"/>
    </linearGradient>
    <linearGradient id="b400c72e-f710-4ca0-8b7e-217dca2b4a87" x1="13.39" y1="267.42" x2="522.51" y2="267.42" gradientUnits="userSpaceOnUse">
      <stop offset="0" stop-color="#4c1da9"/>
      <stop offset="1" stop-color="#997ece"/>
    </linearGradient>
    <clipPath id="ba65137d-92e6-4cf6-a3f4-f785658d6533">
      <circle class="e8b35056-0755-487a-b90e-833231ff6705" cx="267.95" cy="267.42" r="248.73"/>
    </clipPath>
    <clipPath id="a40f57e8-e19f-4da1-a580-8e4f8746a0df">
      <rect class="e8b35056-0755-487a-b90e-833231ff6705" x="-29.03" y="-38.43" width="835.66" height="582.35"/>
    </clipPath>
    <linearGradient id="f0e37255-1fb9-4865-b62e-193fb8d3b47a" x1="389.48" y1="533.98" x2="389.48" y2="-26.29" gradientTransform="translate(241.62 537.34) rotate(-90)" gradientUnits="userSpaceOnUse">
      <stop offset="0.24" stop-color="#b5efff"/>
      <stop offset="0.68" stop-color="#b4edff"/>
      <stop offset="0.84" stop-color="#afe6ff"/>
      <stop offset="0.95" stop-color="#a7dbff"/>
      <stop offset="1" stop-color="#a2d3ff"/>
    </linearGradient>
    <linearGradient id="a6986403-ac2a-434f-9846-adca2d99bab5" x1="-57.2" y1="147.86" x2="836.16" y2="147.86" gradientTransform="translate(241.62 537.34) rotate(-90)" gradientUnits="userSpaceOnUse">
      <stop offset="0" stop-color="#abe0ff"/>
      <stop offset="1"/>
    </linearGradient>
    <linearGradient id="a43dc066-7c8b-41a9-acdf-83b5891b7876" x1="386.53" y1="193.74" x2="386.53" y2="247.01" gradientUnits="userSpaceOnUse">
      <stop offset="0" stop-color="#c9d8d8"/>
      <stop offset="1" stop-color="#e1d6ba"/>
    </linearGradient>
    <linearGradient id="e866e6f8-c6f2-479c-9393-55c595906d86" x1="-6.27" y1="132.13" x2="-6.27" y2="218.61" xlink:href="#a43dc066-7c8b-41a9-acdf-83b5891b7876"/>
    <linearGradient id="a4241899-5c0e-42a1-8251-856e3d81a01b" x1="65.7" y1="153.5" x2="65.7" y2="222.5" xlink:href="#a43dc066-7c8b-41a9-acdf-83b5891b7876"/>
    <linearGradient id="a5398b22-4bca-4a8c-aa1e-5c20407c2d23" x1="22.35" y1="191.92" x2="22.35" y2="262.89" xlink:href="#a43dc066-7c8b-41a9-acdf-83b5891b7876"/>
    <linearGradient id="e597ef2d-e624-4b0d-9bca-0fce4c8108d3" x1="386.53" y1="244.42" x2="386.53" y2="474.3" gradientUnits="userSpaceOnUse">
      <stop offset="0" stop-color="#e5ddc9"/>
      <stop offset="1" stop-color="#a8b582"/>
    </linearGradient>
    <linearGradient id="f0ee8f88-8387-4940-8017-e91f125770c7" x1="411.12" y1="260.91" x2="1062.21" y2="260.91" gradientUnits="userSpaceOnUse">
      <stop offset="0" stop-color="#d8d0ba"/>
      <stop offset="1" stop-color="#bec3a6"/>
    </linearGradient>
    <linearGradient id="fa1af545-b4f9-42fe-9adc-b14404fabd0c" x1="470.58" y1="291.21" x2="1029.84" y2="291.21" gradientUnits="userSpaceOnUse">
      <stop offset="0" stop-color="#d8d0ba"/>
      <stop offset="1" stop-color="#acb58f"/>
    </linearGradient>
    <linearGradient id="f23117b2-c5e2-4278-9cfd-db1d33920692" x1="74.93" y1="265.6" x2="-82.81" y2="398.72" gradientUnits="userSpaceOnUse">
      <stop offset="0" stop-color="#d8d0ba"/>
      <stop offset="1" stop-color="#71675c"/>
    </linearGradient>
    <linearGradient id="adc1216a-40f8-4350-a519-cdc00a80f373" x1="174" y1="243.77" x2="174" y2="524.02" gradientUnits="userSpaceOnUse">
      <stop offset="0" stop-color="#d8d0ba"/>
      <stop offset="1" stop-color="#96a376"/>
    </linearGradient>
    <linearGradient id="a1235fc9-b487-4fa1-8939-296d0d349810" x1="56.37" y1="243.77" x2="56.37" y2="525.82" xlink:href="#adc1216a-40f8-4350-a519-cdc00a80f373"/>
    <linearGradient id="ef6cad31-0a6c-44b7-b190-d1080722a296" x1="571.51" y1="243.77" x2="571.51" y2="524.02" xlink:href="#adc1216a-40f8-4350-a519-cdc00a80f373"/>
    <linearGradient id="a0036ace-d72f-4814-a4f5-87b371395292" x1="426.28" y1="243.77" x2="426.28" y2="524.02" xlink:href="#f23117b2-c5e2-4278-9cfd-db1d33920692"/>
    <linearGradient id="a923815e-cec9-44ca-8302-33104c0b5947" x1="294.64" y1="248.12" x2="294.64" y2="524.7" xlink:href="#adc1216a-40f8-4350-a519-cdc00a80f373"/>
    <linearGradient id="e19694bd-570d-4ba0-84f9-58701b3f2fce" x1="160.13" y1="253.9" x2="160.13" y2="311.61" gradientUnits="userSpaceOnUse">
      <stop offset="0" stop-color="#ffca05"/>
      <stop offset="0.1" stop-color="#fdc50c"/>
      <stop offset="0.69" stop-color="#f0ab2f"/>
      <stop offset="1" stop-color="#eba13c"/>
    </linearGradient>
    <linearGradient id="b67c2c42-85a6-4d41-9a1b-38b882c08fdd" x1="162.23" y1="241.64" x2="162.23" y2="390.57" gradientUnits="userSpaceOnUse">
      <stop offset="0" stop-color="#fbae17"/>
      <stop offset="0.38" stop-color="#ec8823"/>
      <stop offset="0.78" stop-color="#df652f"/>
      <stop offset="1" stop-color="#da5833"/>
    </linearGradient>
    <linearGradient id="b00d5ca3-886b-4573-beb4-bb69c044c79c" x1="386.53" y1="354.15" x2="386.53" y2="419.98" xlink:href="#e19694bd-570d-4ba0-84f9-58701b3f2fce"/>
    <linearGradient id="a488167d-d865-493e-877b-153e6b3eb349" x1="386.53" y1="368.82" x2="386.53" y2="465.47" gradientUnits="userSpaceOnUse">
      <stop offset="0" stop-color="#f9a51a"/>
      <stop offset="0.22" stop-color="#f4991e"/>
      <stop offset="0.62" stop-color="#e87b28"/>
      <stop offset="1" stop-color="#da5833"/>
    </linearGradient>
    <linearGradient id="a91cabd6-b8d5-4ac8-82de-fa97680b289b" x1="13.07" y1="339.55" x2="13.07" y2="565.42" gradientUnits="userSpaceOnUse">
      <stop offset="0" stop-color="#544d45"/>
      <stop offset="0.39" stop-color="#564f46"/>
      <stop offset="0.58" stop-color="#5e5449"/>
      <stop offset="0.72" stop-color="#6b5e4d"/>
      <stop offset="0.85" stop-color="#7e6b54"/>
      <stop offset="0.96" stop-color="#957d5d"/>
      <stop offset="1" stop-color="#a18561"/>
    </linearGradient>
    <linearGradient id="ac8dd985-fed7-4596-9662-a2f646f8103b" x1="103.88" y1="403.9" x2="103.88" y2="564.43" xlink:href="#a91cabd6-b8d5-4ac8-82de-fa97680b289b"/>
    <linearGradient id="be781204-7b09-4725-829f-8ddb64143b41" x1="183.73" y1="392.64" x2="183.73" y2="564.6" xlink:href="#a91cabd6-b8d5-4ac8-82de-fa97680b289b"/>
    <linearGradient id="b277a1b2-0fcd-4618-ac50-8184a43c1041" x1="297.17" y1="367.36" x2="297.17" y2="564.99" xlink:href="#a91cabd6-b8d5-4ac8-82de-fa97680b289b"/>
    <linearGradient id="bfe19673-fabe-49d5-b7ae-1a14cee78fed" x1="526.07" y1="380.92" x2="526.07" y2="564.78" xlink:href="#a91cabd6-b8d5-4ac8-82de-fa97680b289b"/>
    <linearGradient id="bda59e9e-1c76-4e68-bdbb-50b6b3961bd2" x1="426.79" y1="388.34" x2="426.79" y2="564.67" xlink:href="#a91cabd6-b8d5-4ac8-82de-fa97680b289b"/>
    <linearGradient id="af691da3-92da-4d3c-90b7-eef09f9b543d" x1="17.26" y1="484.37" x2="17.26" y2="553.57" gradientUnits="userSpaceOnUse">
      <stop offset="0" stop-color="#a48761"/>
      <stop offset="1" stop-color="#544d45"/>
    </linearGradient>
    <linearGradient id="b06845c9-7e78-44e8-8609-084a089bd87b" x1="121.9" y1="474.97" x2="121.9" y2="546.06" xlink:href="#af691da3-92da-4d3c-90b7-eef09f9b543d"/>
    <linearGradient id="f74c2b47-c5c5-4b75-8fa4-3793056f9245" x1="181.6" y1="472.28" x2="181.6" y2="553.83" xlink:href="#af691da3-92da-4d3c-90b7-eef09f9b543d"/>
    <linearGradient id="facf29ba-c0e9-4d29-98da-7266489f8989" x1="478.48" y1="459.54" x2="478.48" y2="548.85" xlink:href="#af691da3-92da-4d3c-90b7-eef09f9b543d"/>
    <linearGradient id="b4659e58-2c52-47b1-bfc1-5d40bc750622" x1="255.89" y1="472.87" x2="255.89" y2="553.86" xlink:href="#af691da3-92da-4d3c-90b7-eef09f9b543d"/>
    <linearGradient id="bcb5e3a0-4b55-4f39-8fd7-eb65786359f1" x1="218.14" y1="493.11" x2="218.14" y2="554.99" xlink:href="#af691da3-92da-4d3c-90b7-eef09f9b543d"/>
    <linearGradient id="a553b55a-a783-4f3f-bca5-f8d53d6c9478" x1="309.74" y1="474" x2="309.74" y2="555.02" xlink:href="#af691da3-92da-4d3c-90b7-eef09f9b543d"/>
    <linearGradient id="bede21c7-4724-4725-99c0-1f15baca9fc9" x1="373" y1="503.8" x2="373" y2="554.89" gradientTransform="translate(30.5)" xlink:href="#af691da3-92da-4d3c-90b7-eef09f9b543d"/>
    <linearGradient id="eb58e214-d1e9-42d5-9ded-4fde59385703" x1="532.17" y1="418.93" x2="532.17" y2="564.9" xlink:href="#af691da3-92da-4d3c-90b7-eef09f9b543d"/>
    <linearGradient id="b0ea41c9-f0f0-4b7a-a50e-40b4aa9016b2" x1="13.07" y1="453.29" x2="13.07" y2="593.13" gradientUnits="userSpaceOnUse">
      <stop offset="0" stop-color="#cea87c"/>
      <stop offset="1" stop-color="#a9865c"/>
    </linearGradient>
    <linearGradient id="bec50bd0-d535-4fd3-8caa-e34e51ecc80c" x1="103.88" y1="497.36" x2="103.88" y2="592.46" xlink:href="#b0ea41c9-f0f0-4b7a-a50e-40b4aa9016b2"/>
    <linearGradient id="ef77496a-c0de-4822-befa-c774d49e8812" x1="183.73" y1="489.65" x2="183.73" y2="592.57" xlink:href="#b0ea41c9-f0f0-4b7a-a50e-40b4aa9016b2"/>
    <linearGradient id="eae086af-8658-4b49-89b5-d43d170e5f5f" x1="297.17" y1="472.34" x2="297.17" y2="592.84" xlink:href="#b0ea41c9-f0f0-4b7a-a50e-40b4aa9016b2"/>
    <linearGradient id="ed89d027-9f49-4219-9726-392d4f77b76e" x1="526.07" y1="481.62" x2="526.07" y2="592.7" xlink:href="#b0ea41c9-f0f0-4b7a-a50e-40b4aa9016b2"/>
    <linearGradient id="a3e20a15-d8d9-4b47-b309-c52c3b03980e" x1="426.79" y1="486.71" x2="426.79" y2="592.62" xlink:href="#b0ea41c9-f0f0-4b7a-a50e-40b4aa9016b2"/>
    <linearGradient id="a0cfbb52-e236-40c5-b9bd-9ef01d7fa6cd" x1="35.09" y1="149.31" x2="62.06" y2="122.32" gradientUnits="userSpaceOnUse">
      <stop offset="0.15" stop-color="#82cdd9"/>
      <stop offset="0.82" stop-color="#d7eef4"/>
    </linearGradient>
    <linearGradient id="bf1eab72-5006-4464-80e9-54cfce0017b7" x1="-1.5" y1="-167.03" x2="43.31" y2="-211.87" gradientTransform="matrix(0.92, -0.08, 0.09, 1, 26.1, 322.88)" gradientUnits="userSpaceOnUse">
      <stop offset="0.4" stop-color="#adcff1"/>
      <stop offset="0.51" stop-color="#b9d9f5"/>
      <stop offset="0.8" stop-color="#d2f0fc"/>
      <stop offset="0.98" stop-color="#dbf8ff"/>
    </linearGradient>
    <linearGradient id="b95ca002-ddf0-4d39-aa3b-6b69b86804a3" x1="222.1" y1="81.23" x2="255.23" y2="48.08" xlink:href="#a0cfbb52-e236-40c5-b9bd-9ef01d7fa6cd"/>
    <linearGradient id="e76f8ded-fa77-4e89-9f4a-3d45596fb6e6" x1="225.28" y1="-103.96" x2="280.75" y2="-159.47" gradientTransform="matrix(1.05, -0.1, 0.07, 0.8, -46.08, 189.04)" xlink:href="#bf1eab72-5006-4464-80e9-54cfce0017b7"/>
    <clipPath id="a71e40b2-bb62-4431-a27a-de2ea4047862">
      <circle class="e8b35056-0755-487a-b90e-833231ff6705" cx="-317.95" cy="267.42" r="248.72"/>
    </clipPath>
    <clipPath id="b7e23660-59d5-4796-9dfb-d5a07d4ed23f">
      <rect class="e8b35056-0755-487a-b90e-833231ff6705" x="-764.74" y="-4.39" width="948.95" height="533.78"/>
    </clipPath>
    <linearGradient id="aff4b3b9-2108-49b5-9bc4-f8d2e96ee71e" x1="-288.98" y1="-138.68" x2="-290.1" y2="527.97" gradientUnits="userSpaceOnUse">
      <stop offset="0.16" stop-color="#4f70b2"/>
      <stop offset="0.5" stop-color="#609aba"/>
      <stop offset="0.72" stop-color="#6ab2be"/>
    </linearGradient>
  </defs>
  <g class="fe0f8fd4-5d41-4188-8e62-18ccca2be98e">
    <g id="e0160e23-d44d-492c-995f-cc6cc085c16e" data-name="Layer 1">
      <g>
        <g>
          <circle class="fe051568-59ba-40aa-bff3-3dd49d4b39c6" cx="267.95" cy="267.42" r="262.59"/>
          <circle class="ad25980c-3f4d-49ed-94fd-d2a3eb525955" cx="267.95" cy="267.42" r="251.56"/>
        </g>
        <g class="a7f7367a-b3dc-49dc-896a-fb2e28188be6">
          <g class="b1d489d9-0a4d-4b32-842f-9552f01723db">
            <g>
              <rect class="e728fd57-d636-430c-a3b9-7bf3be3f71db" x="65.98" y="-298.32" width="647" height="892.36" transform="translate(537.34 -241.62) rotate(90)"/>
              <g>
                <path class="bf714389-bdb0-4a87-a25d-774d4b956e09" d="M273.35,202.54a1,1,0,0,1,.42.67,5,5,0,0,1,4.3-1.61,23.79,23.79,0,0,0,2.62.52,4,4,0,0,0,3.44-2.38c.29-.54.37-2,.71-2.33.64-.65,2.08-.15,2.87-.48,1.22-.5,2-1.92,3.26-2.36,1.66-.58,3,1.46,4.43.85,1-.43,1.1-2.19,1.78-3.23a4,4,0,0,1,1.94-1.37c1.91-.81,3.82.18,5.72-1.12a4.71,4.71,0,0,1,1.86-1c1.44-.16,2.68,1.89,4.08,1.46s1.83-3,3.24-3.38c1.07-.28,2,.88,2.58,2s1.12,2.48,2.14,2.92c2.35,1,4.78-3.56,6.95-2,.51.35.87,1,1.42,1.25.84.39,1.8-.39,2.17-1.41a8.28,8.28,0,0,0,.26-3.3l6.88,1a2.44,2.44,0,0,1,1.75.79c.51.67.5,1.75.95,2.49a1.92,1.92,0,0,0,2.58.59A9.21,9.21,0,0,0,344,189a2,2,0,0,1,1.36-.82c1.15,0,1.53,2,2.53,2.74,2.5,1.83,5.31-1.75,7.82,2a3.89,3.89,0,0,0,1.05,1.29,2,2,0,0,0,1.39.1,39.67,39.67,0,0,0,5.85-1.68,9.78,9.78,0,0,1,4.88-.8c-.54-.82,0-2.05.61-2.78s.75-1.19,1.48-1.61,1.73.2,2.49-.54c1-1,.49-3.37,1.6-4.14s2.52,1.23,3.83.85a9.15,9.15,0,0,0,.08-2.23c0-.75.54-1.61,1.11-1.37a1.18,1.18,0,0,1,.35-1.61c1.16-.64,1.87.7,2.95-.24s.9-3,2.67-3.56a9.52,9.52,0,0,1,2.83,6,2.85,2.85,0,0,0,.34,1.36c.76,1,2.17-.57,3.22-.08a8,8,0,0,0-.86,4.53c5.51-2.11,8.17,3.19,12.31,6a2.48,2.48,0,0,0,3.41-.3c.59-.74.93-2,1.76-2.09.62-.08,1.13.55,1.68.9a2.18,2.18,0,0,0,2.83-.52,3.7,3.7,0,0,0,.53-3.47,4.07,4.07,0,0,1,2.86-.51,2.19,2.19,0,0,1,1.26,2.73l4.8,2.53a3.18,3.18,0,0,1,1.17.9c.33.49.44,1.15.76,1.65,1,1.56,3.63,1.41,3.6,3.39,1.68-1.46,4.38-.35,5,2a18.32,18.32,0,0,1,6.11-3.79l1.56,3.56a11.76,11.76,0,0,0,5.42-3.24,8.17,8.17,0,0,1,1.27,5.82c1.47.72,3.16,1.75,3.39,3.69.48,4,4.42,5,7.25,6a4.25,4.25,0,0,0,2.82.25c2.62-1-.16-4.08,2.19-4.85,1.11-.36,4.75,2.77,5.28.07.14-.67-.23-1.39-.06-2.06.26-1,1.53-1,2.29-.4s1.54,1.43,2.42,1.22a4.27,4.27,0,0,1,.75-1.49,1,1,0,0,1,1.32-.21c.36.32.45.94.73,1.37.79,1.22,2.6.39,3.48,1.51.37.49-.5,2.47.68,2.86.53.17.86-.87,1.26-.91.68-.06.64-.3,1.53-.13,1.57.3,4,2.15,2.63,4.33,1.61.87,5.73,12.36,7.83,5.54.42-1.36,0-2.92.31-4.34s2.11-2.35,2.53-1a3,3,0,0,0,.69-2.55c.76,1.21,2.35.76,3.31-.2s1.7-2.32,2.84-2.9a1.83,1.83,0,0,1,2.59,1.88,5.19,5.19,0,0,0,5.36-1.39c.22.7.45,1.4.68,2.1a3.81,3.81,0,0,1,5.67.12c-.2-1.5,1.56-2,2.79-1.92,2.17.13,4.47-.09,6.25-1.62a4.43,4.43,0,0,1,8.7.05c1.56-.77,2.46-3.28,4.14-3.35.86,0,1.62.61,2.43.94a1.56,1.56,0,0,0,2.21-.82c-.19.66,10.17,2.79,11.27,3.07,1.48.38.1-.67,1.89.68,1,.73.8,1.94,2.11,2.22,1.09.24,1.73-.86,3-.12a31.84,31.84,0,0,1,2.35,2.4c.78.83,2.14,3.11,3.12,3.29.55.1,1.53-1.07,2.2-1.18,1.47-.23,1.44.26,2.58,1.07,2.1,1.49,2.56,1.81,4.74,1.5,1.74-.25,2.33-1.38,3.75,1.53,2.1-1.08,3.24-.9,5.09.39.7-1.38,2-1.23,3.27-.83,2.29.73,2,3.1,3.8,4,3.89,1.87,3.32-6.19,7.69-.76,1.25-.41,1.94-2.15,3.23-2.28,1.08-.11,1.73,1.1,2.68,1,1.35-.07,2.33-2.91,4.14-2.46,1.14.28,1.48,2.21,2.45,2.85,1.48,1,1.64.07,3.15-.18s2.75.42,4.22.67c2.43.42,2.67-1.54,4.65-1.64.94,0,1.59,1.76,2.44,2,.69.22,1.18-.15,1.83-.19,1.17-.08,2.17-.94,3.48-.83,1,.08,2.33,1.44,3.33,1,1.93-.94,2.62-7.55,5.58-5,.8-1.19,1-2.83,1.61-4.06,0,.05,2.3,2.58,2.92,2.21.88-.52.28-3.13,2-3.83a12.92,12.92,0,0,0-1.12-4l1.63-.28-1.46-1.63c-.18-1.66,1.07-3.32,2.42-3.21a2.71,2.71,0,0,1,.35-3.51,1.79,1.79,0,0,1,2.67,1.27c.58-.35.5-1.39.62-2.19a2.52,2.52,0,0,1,2-2.25,2.34,2.34,0,0,1,2.25,1.89,11.78,11.78,0,0,0,2,3l5.1,6.24,2.06-1.23a4.44,4.44,0,0,0,.64,1.53c-.9-1.34,3.37-2.94,4.64-1.47.5.57.83,2.23,1.29,3,1,1.58,2.42,2.21,3,4.28,1.79-2.06,1.68-4.28,4.23-3.43-.09,0,2.64,1.84,2.6,1.81.73.63,1.75,2.17,2.57,2.69,1.72,1.08,3.71.23,4.89,2.92.74-2.1,8-.22,9.9-.22.46,0,1-.84,1.44-.77,1.51.22,2.45,2.28,3.7,3.17,2.14,1.53,2.28.79,4.45.35,1.57-.32,4.22.11,5.77-.39,1.71-.56,2.85-2.38,4.68-3,2.67-.82,4.32-2,6.8-3.15,1.9-.88,5.7-2.51,7.05.15,1-1.06,2.15-3.88,3.65-4,1-.05,1.21,1.77,1.9,2.07,2.24,1,.37,1.8,2.88,1.51.85-.1,1.45-1.28,2.43-1.37,1.38-.13,2.08,1.67,3.49,1.82.92.1,1.7-1.25,2.73-1.05s1.9,2.37,2.9,2.05c.63-.21,1.82-4.24,2.29-5.08a4.32,4.32,0,0,0,1.67,3c2-1.56,3.79-1.12,5.85-1.46s3.94-1.7,6.08-1.66c2.65.05,9.58,2.22,11.5-1.19a18.36,18.36,0,0,1,.82-1.73c.36-.5,1.1-.69,1.4-.14a9.87,9.87,0,0,0,.79-4.56,5.94,5.94,0,0,1,2.78,0l-.09-2.09c.82-.77,2-.18,2.82.59s1.61,1.78,2.63,1.85c1.73.12,2.73-2.34,3.27-4.38a8.41,8.41,0,0,1,4.7,6,3.14,3.14,0,0,1,3.65-.82,10.72,10.72,0,0,1,3.32,2.5,7.08,7.08,0,0,0,5.42,2,14.64,14.64,0,0,1,2.27-.34c1.61.07,3.24,1.1,4.87,1.36,2.12.35,4.33.48,6.48.71.28,0,5.36.48,5.36.57V334.93H-59.65V207.54c0,1.78,10.87.22,11.91-.26,1.75-.83,2.64-2.49,4.18-3.55s4.64-1,4.9.64a5.57,5.57,0,0,1,2.78-3.84c1.65-.75,4.32.21,4,1.72,1-1.25,2.4-2.57,4.25-2.61s3.31,2.24,1.72,3a10,10,0,0,1,3.64-1.6,4.48,4.48,0,0,1,2.32,3.39,3.42,3.42,0,0,1,1.85.1,2.44,2.44,0,0,1,.23,1.81,3.19,3.19,0,0,1,3.34-.39c1.49.75,1.32,3.09,3.38,2.81,1-.14,2-.79,3-.89,1.4-.13,2.72.75,4.09,1.13a2.76,2.76,0,0,0,3.59-1.69,2.3,2.3,0,0,1,.49-3c-.73-.18-.95-1.53-.46-2.23a1.59,1.59,0,0,1,2.07-.41,5.66,5.66,0,0,1,1.74,1.71l2-.59,4.41,4.93c2.23.94,3.78,3.89,3.59,6.8a4.61,4.61,0,0,1,.1,4.83,4.56,4.56,0,0,1,3,.14l-.31,2c1.47.51,2.47,2.55,2.16,4.4a3.3,3.3,0,0,1,2.83,1.58c.26-1,1.59-.59,2.08.3s.79,2.14,1.62,2.46,1.49-.32,2.11-.89l4.3-4a3.39,3.39,0,0,1,.09-4.08,1.61,1.61,0,0,1-.72-1.19,2,2,0,0,1,.6-1.9c-1.2-.08-2.08-1.87-1.6-3.22L32,213.75c0-2.3,0-4.74,1-6.7s3.25-3.12,4.75-1.75c.91.83,1.46,2.47,2.6,2.56.64,0,1.24-.47,1.87-.44,1.3.06,1.85,2.09,1.87,3.7s0,3.56,1.1,4.41a2.47,2.47,0,0,1,2.11,2.14,3.06,3.06,0,0,1-1.18,3,4.47,4.47,0,0,1,1.75,3.17c2.65.25,5.12-3.06,4.7-6.31l2.65,2.08c-1.36-1.07,5.41-3.63,5.56-3.68,1.91-.66,3.23-3.07,5.33-2.92a4.89,4.89,0,0,0,1.61.08c.53-.15.81-.62,1.2-1a3.06,3.06,0,0,1,4,.3l.6-1.27a11.67,11.67,0,0,1,5.32.83c1.1-1.73,4.58-1.93,6-.35l3-2.68a5.61,5.61,0,0,1,2.78,2c-.27-2.11,3.11-3.08,5.7-3.32l1.55,2.12a2.29,2.29,0,0,1,1.77-2.61,3.14,3.14,0,0,1,3.39,1.14,9.06,9.06,0,0,1,7.73-1.19l-.09,1.7c1-.93,3.26-.35,3.42.88a5.26,5.26,0,0,1,3.37.22c-.7-.3,1.26-2.45,1.39-2.56a6.38,6.38,0,0,1,3.73-1.23c2.14-.13,4.1.8,6.25.7a8.83,8.83,0,0,0,.51,2.47c.34.78,1.06,1.37,1.75,1.16s1-1,1.57-1.48,1.52-.52,1.65.29l.7-2.55a2.75,2.75,0,0,0,4.2-.72c.34-.53.59-1.21,1.09-1.47.82-.42,1.67.6,2,1.61s.54,2.22,1.27,2.86a5.88,5.88,0,0,0,1.53.75,1.64,1.64,0,0,1,1,1.48c0,.61-.49,1.26-.19,1.76.19.33.6.31.93.21,2-.61,3.56-2.93,3.69-5.47,0,.83,3.23.26,3.66.44a5,5,0,0,1,2.49,4l2-.21c-.11,1.09-.22,2.18-.32,3.27,1.42-1,3.28-.06,4.48,1.34s2.11,3.22,3.51,4.3c.71.55,3.31,2.32,4.11,1.83a6.72,6.72,0,0,0,1.51-1.8c.48-.63,1.26-1.13,1.87-.71.44.3.62.94.91,1.43.92,1.57,2.79,1.61,4.32,1.24,3.17-.75,7.86-.16,8-5.86l2.88.32a2.77,2.77,0,0,1-.08-2.46,1.78,1.78,0,0,1,1.8-1.08c.59.1,1.28.51,1.71,0s.09-1.43,0-2.19a2.84,2.84,0,0,1,1.24-2.41,5.63,5.63,0,0,1,2.34-.74,2.6,2.6,0,0,1,1.23-3.28c.61-.33,1.33.53,1.89.2.77-.44.82-1.49,1.41-2.16,2.49-2.85,4.83.78,7.18-1.09.65-.52.85-1.92.17-2.41,2.76.65,5.59-.16,8.32-1a26.28,26.28,0,0,1,3.87-.94,4,4,0,0,1,2.91.47c.86.6,1.47,1.77,2.43,2,1.82.49,3-2.39,4.69-3.33,2.6-1.42,8.47,2.75,9.22,6a2,2,0,0,1,2.25-1.46,1.62,1.62,0,0,0,.15,2,2.16,2.16,0,0,0,1.71.58c2.12-.07,4.07-1.36,5.93-2.63,2.61-1.76,4.28,3.75,5.14,5.55,1.48-.24,2.58-1.75,3.82-2.77s3.22-1.39,4,.18a1.43,1.43,0,0,0,.49-1.6c1.68-.86,3.59-1.73,5.25-.83a5.58,5.58,0,0,0,1.33.68,5,5,0,0,0,1.87-.4A1.42,1.42,0,0,1,273.35,202.54Z"/>
                <g>
                  <path class="a6dd23ff-cb18-415a-a3b2-4e32a08c000c" d="M2.2,185.2a8.69,8.69,0,0,0,3.16,1.24c-.82-2.36-2.47-3.69-4-5.17,1.18-.11,2.38,0,3.53-.13-.62-2.13-3.21-1.53-3.76-3.67-.34-1.3,1.23-3.4,1.52-4.76A2.68,2.68,0,0,0-.19,173.9c-.69-1.48-.44-3.59-.47-5.38-1.35.33-1.69,2.51-2.45,4.07-.82-1.47-1.29-3.94-2.33-5.54A7.73,7.73,0,0,0-6,171,12.18,12.18,0,0,0-11.12,167a19,19,0,0,0,.2,5.54l.59.36c-1.71.14-3.51-.81-5.09,0a22.58,22.58,0,0,0,2,5.11c-1.74,1-3.49,1.91-4.5,4a2.21,2.21,0,0,0,2.91.55,36.41,36.41,0,0,1-1.6,4.65c.7-.05,1.43.48,2.07.48-.06,2.56-3.19,5.82-1.92,8.23,1-1,1.71-2.34,2.65-3.4-.12,2-.11,4-.05,6,.32-1,.9-2,1.17-3,.76,1.73.48,4.24,1.51,6.06a18.36,18.36,0,0,1,1-1.71,4.1,4.1,0,0,1,1.37,1.32,17.34,17.34,0,0,0,1.39-2.4v39.17h2.21V200a6.25,6.25,0,0,0,1.75,2.11,32,32,0,0,0,.49-6,45,45,0,0,1,3.3,3.06c.28-2.13-.75-4.94,0-6.89.88.32,1.58,1.37,2.38,1.93.73-1.54.24-3.78-.37-5.24a8.88,8.88,0,0,1,2.68.88C4.1,188.23,3.13,186.73,2.2,185.2Z"/>
                  <path class="a38df121-0acc-4974-92c7-49744fe1e23f" d="M72.47,195.84a6.8,6.8,0,0,0,2.51,1c-.65-1.88-2-2.94-3.17-4.12.94-.09,1.89,0,2.81-.11-.49-1.69-2.56-1.22-3-2.93-.27-1,1-2.71,1.21-3.79a2.14,2.14,0,0,0-2.28.94c-.54-1.17-.34-2.86-.37-4.28-1.07.26-1.35,2-2,3.24-.66-1.17-1-3.14-1.86-4.42a6.23,6.23,0,0,0-.42,3.17,9.64,9.64,0,0,0-4.11-3.24A14.8,14.8,0,0,0,62,185.7l.47.29c-1.36.12-2.79-.65-4.06,0A18.26,18.26,0,0,0,60,190.06c-1.39.8-2.79,1.52-3.59,3.17a1.76,1.76,0,0,0,2.32.44,31.17,31.17,0,0,1-1.27,3.71c.55,0,1.13.38,1.65.38-.05,2-2.55,4.64-1.54,6.57.8-.81,1.37-1.87,2.12-2.72-.1,1.6-.09,3.23,0,4.82.25-.8.72-1.57.93-2.42.61,1.38.39,3.38,1.2,4.83a15.32,15.32,0,0,1,.82-1.36,3.3,3.3,0,0,1,1.09,1.05,14.1,14.1,0,0,0,1.12-1.91v31.25h1.75V207.61a5,5,0,0,0,1.4,1.68,25,25,0,0,0,.39-4.82c1,.66,1.71,1.69,2.63,2.45.23-1.7-.59-3.94,0-5.5.7.26,1.26,1.09,1.9,1.54a5.66,5.66,0,0,0-.3-4.18,7.36,7.36,0,0,1,2.14.7C74,198.26,73.21,197.07,72.47,195.84Z"/>
                  <path class="ae9051e2-6869-4ed1-92fc-1cc04c2d6e41" d="M26.74,180.93c.51-.32,1.8.24,4.87,1.43-1.54-3-5-4.61-6.63-4.54.84-.84,1.61-1.77,2.43-2.64a5,5,0,0,0-4.68,1.08c-.43-1.75.47-4.16.76-5.91a9.37,9.37,0,0,0-3,4.87c-.81-1.64-3.92-2.48-5.5-2.36A5.79,5.79,0,0,0,18.44,176c-2-.31-.67.64.18,1.26a14.38,14.38,0,0,0-5.54,3.22c1.75-.09,2.44-.85,4.24-.78-1.47,2.5-3,3.1-4.07,6,1.42-.91,3-2.78,4.75-2.2-.42,3.32-3.21,6.09-4.43,9,1.5-.08,2.9-1.47,4.49-1.5-.41,1.82-1.24,5.67-2.65,6.7,1.22-.71,2.52-2,3.88-2.07-.25,2.58-1.53,4.85-1.84,7.37.65-1,1.57-3,2.58-3.31-.19,2.73.3,5.43.13,8.12.29-1.35.7-2.75,1.12-4.05.25-.77.48-1.82.76-2.87v37h2.21V199.18l0,.07c.64,2.22,1.74,4.52,2.21,6.79,0-2.37,0-4.75,0-7.11.48,1,1.07,1.93,1.46,2.94a21,21,0,0,0-1.81-9.58,19.13,19.13,0,0,0,2.49,2c0-3.42-1.48-5.23-1.67-8.5,1.31.55,3.09,2,4.36,2.54C30.84,186.28,28,182.33,26.74,180.93Z"/>
                </g>
              </g>
              <g>
                <polyline class="ebf40a6e-b170-4fb1-b39d-9e1d88a29d0d" points="832.71 551.5 832.71 236.65 -59.65 236.65 -59.65 551.5"/>
                <g>
                  <polygon class="e1b863ea-b0b4-4079-a523-9b29558da763" points="471.66 258.32 832.71 263.51 832.71 258.32 471.66 258.32"/>
                  <polygon class="f7cbac95-2d88-4f15-82a9-14ff795fe2ec" points="832.71 293.44 832.71 288.99 522.59 288.99 832.71 293.44"/>
                </g>
                <g>
                  <path class="b814c5bc-a7be-48ad-a184-f86040196e16" d="M94.46,250.43l-29.3,23.25-18.6,14.75a55.64,55.64,0,0,1-8.1,5.59c-2.62,1.41-5.74,1.77-8,4-.59.59-.82,1.49-1.4,2a21.56,21.56,0,0,1-3.15,1.58,18.94,18.94,0,0,0-7.43,8.17c-2.52-1.53-3.48,1.15-5,2.95a20.74,20.74,0,0,1-6.11,4.61C6,318,4.24,318.58,3,319.76s-1.66,3.57-3.09,4.6c-2.2,1.57-4.74.89-4.93,5.2-3.62,1.87-5.29,2.23-8,5.27-2.4,2.65-2.22,2-5.38,3.1a4.24,4.24,0,0,0-2.41,1.3c-.69.85-.48,1.76-1,2.72-1.29,2.24-2.24-.89-4.18.44-.34.23-4.23,1-4.23,7v13.08c1.45-1.3,3-2.25,4.51-3.39a12.66,12.66,0,0,0,2.68-2.69c.38-.55.78-1.87,1.18-2.28,1.61-1.66,4.54-1.66,6.3-3.08.9-.72.91-1.3,1.6-2.37,1-1.62,3.84-2.41,4.55-3.61s.47-2.78.58-4c.51.23,1.23.14,1.74.48.08-1.12.08-3.07,1.18-3.54,3.12,2.61,5-4.75,6.85-6a2.27,2.27,0,0,1,.17.86c1-1.07,1.79-3.4,2.82-4.84,1,.5.65,1.66.59,2.76,2.27-.59,4.55-2.61,6.18-4.32a40,40,0,0,0,4.84-5.52c.54-.82.88-2,1.73-1.88,1.07-1.13,1.71-2.82,2.69-4.1a4.91,4.91,0,0,0,.43,1.29c.84-2.95,4.32-4.72,6.5-6.42.39-.3,1-.43,1.39-.78,1.5-1.5,2.4-4.17,4.13-5.31a1.08,1.08,0,0,1,.29.51c3.13-1.36,5.16-5.17,7.9-7,.83-.55,2.22-1,3-1.54,12.15-7.89,22.9-19.37,33.89-29.16l22.9-20.39c1.21-1.09,2.4-2.27,3.67-3.28Z"/>
                  <path class="e842ca99-fac7-4569-a4df-caf9862dbc0f" d="M128.4,576.31q5-14.5,9.94-29l24.33-71.06,30.52-89.12c1.81-5.29,3.62-10.69,6.31-15.58,1.69-3.09,2.51-4.57,3.12-7.86.36-1.92,1.5-3.39,2-5.33.85-3.23.88-6.56,1.92-9.76a22.84,22.84,0,0,1,1.41,1.8c1-6-.12-12.8,3.06-18.13.42.85.52,2.15.94,3.11,1.71-2.53-.09-6.81,2-9.36a4.59,4.59,0,0,0,1.95,1.64c.52-2.22,1.77-4.18,2.35-6.37.65-2.47.57-5,1.28-7.59.92-3.28,1-7.3,2.54-10.32,2-4,2.78-8.57,4.15-12.78,1.69-5.2,3.54-10.34,5.31-15.5,3.66-10.68,6.76-21.84,11-32.26l0,.12q-3.92,9.52-7.84,19l-8.14,19.8c-1.57,3.81-2.84,8.11-4.85,11.67-1.59,2.82-4,5.14-5.47,8.06a14.92,14.92,0,0,0-.77,2.28,37.09,37.09,0,0,1-1.15,5.24c-.66,1.8-2.31,3.16-2.8,5-.18.71.18,1.5-.05,2.27-.55,1.84-3,2.07-3.79,3.69a12.82,12.82,0,0,0-.75,4.18c-.25,2.92-.09,7.45-1.52,10-1.54,2.78-3.94,4.95-4.76,8-1.08,4.09-4.5,6.32-5.78,10.55-.72,2.41-1.65,4.7-2.39,7.11-1.08,3.49-1.38,7.14-2.57,10.6-1.09,3.18-2.42,6.27-3.7,9.37l-8.14,19.8q-17.34,42.13-34.66,84.26-13.54,32.91-27.08,65.81-5.46,13.29-10.93,26.57Z"/>
                  <path class="b62b443b-e06b-4810-bf7e-e71c3664383c" d="M122.43,295.72c-3.07,4.36-6,9-9.64,12.82s-7.8,7.21-10.51,11.83c-.46.8-.18,1.72-.66,2.6-1.93,3.5-4.1,6.16-5.77,9.9a13.51,13.51,0,0,1-5.4,6.49c-5.41,3.48-12.93,8.51-16,14.8-.68,1.42-.63,3.11-1.11,4.43a13.36,13.36,0,0,1-5.51,6.49,13,13,0,0,0-4.72,4.66c-1.2,1.78-2.45,4.11-4,5.51-1.74,1.54-2.52,2-3.72,4.34-2.22,4.33-6.14,7.21-8.23,11.63-.75,1.58-1,3.49-2,4.87-1.31,1.79-3.65,2-5.37,3.2-3.4,2.44-2.5,5.12-3,9.12-1.24,9.58-5.47,16.46-10.67,23.84L9.87,455.31l-29.18,41.38L-45.06,533.2-47,536v30.27q10.34-16.14,20.65-32.29l64.8-101.38,19.05-29.79c2.61-4.08,5.65-7.39,7-12.15,1.78-6.12,3.17-12.38,4.65-18.59.25,2.21.56,5,1.72,6.65,2-3.34,2.48-12.68,5.71-13.9a7.59,7.59,0,0,0,.81,2.79c.64-1.75,1.14-4,2.36-5.27.19.35.43.42.74.19,1.46-3.7,2.39-8.1,5.37-10.45s4.9-3,7.37-7c2.89-4.63,6-8.82,8.19-13.88.76-1.73,1.15-3.81,2.35-5.22a28.8,28.8,0,0,1,.85,3.47c2-4.5,2.72-7.74,6-11.51a74.54,74.54,0,0,0,6.87-9.1q8.76-13.65,17.47-27.33L157.09,247c.88-1.37,1.71-2.82,2.65-4.15L148,259.49Q135.22,277.61,122.43,295.72Z"/>
                  <path class="b55e117b-5a3c-449e-ba05-92ec7d55719b" d="M726.8,576.31h-23l-5.09-5.9-49.41-57.29-37.84-43.88c-12.86-14.91-25.13-31.31-39.82-44.17a28.41,28.41,0,0,1-5.48-6.35c-1.45-2.24-2-5.35-3.55-7.39C561,409.13,558,408,556,406.07a10,10,0,0,1-1.45,1.6c-2.07-1.07-2.08-3.55-4-4.38-.19,1.47-.38,3.61-.71,4.95-1.17-2.56-5.56-15.86-9.59-12.78-3.42-1.69-6.07-24.09-11.62-14.15-1.16-3.49-2.65-10-5.2-12.41-1.26-1.21-1.94-1.31-3.16-2.6-1.66-1.76-2-4.43-3.88-6-3.62,3.91-4.11-7.87-6-7.84a8.91,8.91,0,0,1-1,3.92c-2.52-2.67-4.71-6.32-6.7-9.47-1-1.53-2.66-8.18-5.12-7.28-1.47-3.7-3.22-4.42-5.17-7.86a6.44,6.44,0,0,1-.72,1.58c-.83-1.89-5.34-11.84-6.79-11.58a9.39,9.39,0,0,0-.71,4.63c-.46-1.5-1.63-2.35-2.31-3.58-.84-1.53-1.35-3.35-2.21-4.92-5-9.17-13.11-16.66-19.8-24.43-14.51-16.83-28.54-34.39-43.65-50.62q23.07,24.8,46.16,49.57c3.92,4.21,7.56,8.76,12.31,11.91,4.34,2.86,6.82,7.89,11.37,10.46,6.51,3.67,8.22,10.72,13.23,16,2.38,2.52,5.1,3.73,7.68,5.9,2,1.68,1.84,3.94,3.31,5.33,1.23,1.16,2.91,1.19,4.31,2a15.94,15.94,0,0,1,3.95,3.91c2.1,2.49,3.37,5.6,5.48,8.11a29.29,29.29,0,0,1,4.65,7.31c1.17,2.58,3.45,3.92,5.7,5.22,2.62,1.51,2.35,1.55,3.68,4.21a15.41,15.41,0,0,0,3.45,4.55,1,1,0,0,1,1,.16,3.17,3.17,0,0,1,2.37,2.2c.69.58,1,1.15,1.75,1.64,3.15,2.15,2.62,1.92,4.91,5.84,2,3.48,4,9.14,6.91,11.55,3.27-1.85,4.19.79,7.16,2.5,2.79,1.6,5.76,2.48,8.48,4.3,2.9,1.94,4.9,4.93,6.65,8s2.12,6.14,3.7,9.06c4.27,7.91,11.59,13.33,17.49,19.68l21.74,23.34,40.09,43.05q27.47,29.49,54.92,59C719.8,568.8,725.09,576.31,726.8,576.31Z"/>
                  <path class="b1d41f86-1cfc-416d-98ef-f00a092da396" d="M499.28,576.31c-.48,0-2.61-5.95-2.82-6.44q-3.9-8.91-7.81-17.83l-19.83-45.3-12.4-28.32A225.72,225.72,0,0,1,447.25,453c-3-9.68-6.7-18.93-9.42-28.76a151,151,0,0,0-5.11-14.89c-.92-2.33-1.91-5.54-3.56-7.41-.85-1-2.13-1.4-3-2.3-1.34-1.35-1.3-2.5-2.13-4.07a15.48,15.48,0,0,0-2.73-3.6c-1-1.06-2.49-2.35-3.35-3.45-1.67-2.17-1.56-5.4-1.69-8.46-2.26-.06-2.22-4.37-2.59-6.11-.51-2.41-.76-4.36-2.12-6.26-1-1.43-2.38-2.31-3.24-3.9-2.38-4.41-2.24-10.68-5.28-14.43-2.31-2.85-3.92-2.26-4.61-6.35-.43-2.53-.35-3.5-1.38-5.73a32.58,32.58,0,0,0-2.83-4.72c-2.35-3.58-3.17-8.38-5.37-11.94-1.77-2.87-2.6-6.17-4.74-8.79-1-1.18-2.15-1.45-3-2.34-1.44-1.58-2.25-5.31-2.88-7.43-6.11-20.4-16.46-39.77-25-59.2,2.86,6.54,5,13.56,7.47,20.26,2.75,7.46,6.33,15,8.37,22.72,1.88,7.13,1.67,15.18,4.29,22.06.62-1.41.85-2.82,1.81-4.05a20.25,20.25,0,0,1,2.18,8.59c.11-.47.34-.92.46-1.4.1,1.41,0,3,.08,4.41.54-.4,1.35-.18,1.83-.4.69,2.16.41,6.08,1.78,7.6.44.48,1.68.31,2.28.92,1.85,1.83,1.67,7.53,2.05,10.07a68.7,68.7,0,0,1,.64,7.53,2.11,2.11,0,0,0,1.91-1.42c1.33,4.86,2.59,10.18,5.2,14.22.1.15,1,.38,1.29.74,1,1.3,1.1,3.05,1.43,4.63,1.13,5.55,1.39,11.26,2.6,16.79a2.75,2.75,0,0,0,1.75-2.24c1.21,3,1.4,6.65,1.68,9.89.63-.9,1.22-1.84,1.85-2.74,1.31,2.48,1,5.7,1.62,8.42s1,1.8,1.87,3.54a98,98,0,0,1,5.59,15.48c1.07,3.73,1.75,7.34,3,11,1.44,4.05,2.27,8.36,4.09,12.26s5.63,6.41,6.95,10.43c1.49,4.51,2.78,9.19,4.46,13.74l11,29.82q9.39,25.47,18.79,50.94l10.72,29.08c.27.73,3.28,10.64,3.93,10.64Z"/>
                  <path class="bdb6cb56-caf2-4bab-b1fa-ad5183b70ada" d="M306.62,391.76c-.24-2.82.66-5.66.36-8.51a48.07,48.07,0,0,0-1.87-5.66,19.56,19.56,0,0,0-.25-6.3,7.66,7.66,0,0,0-1.27,2c1.25-2.81.59-6.64.8-9.59.27-3.83,1.91-7.49,2.22-11.35a6.82,6.82,0,0,0-1.93.91c-2.19-1.89,2.38-8.67,1.44-11.29a5.72,5.72,0,0,0-1.54,1c.33-3.06,1-5.63.91-8.72a37.12,37.12,0,0,1,1-8.06c.48-2.44,2.34-6.51-1.42-5,0-1.33,1.21-7.75-1.23-7.24,0-4.58.43-9.08.44-13.7q.08-26.56.14-53.12c0,4.51-.65,9.13-1,13.62q-.87,12.18-1.75,24.35c-.28,4-.61,7.94-.89,11.9-.17,2.42.25,5.45-.82,7.67-.33.7-1.28,1.09-1.5,1.77-.35,1.1.37,2.25.44,3.29.24,3.07-1,5.72-1,8.92-.35-.12-.94,0-1.39-.18-1,2.24.48,3.91.81,5.91a6.83,6.83,0,0,1-.24,3.58c-.27,1.15-1.76,4.82.94,3.91,1.55,4.81-1.72,9.23-2.41,13.75-.78,5.12-1.57,10.22-2.77,15.29a12.82,12.82,0,0,0-.48,5.41c.16.83.83,1.42.86,2.48,0,2-1.7,4-2,6,1.51,2-.86,6.3-.62,9,.41,4.62-.13,6.26-1.72,10.91-.73,2.14-.58,1.94.05,3.66a30.45,30.45,0,0,1,1.33,6.57,22.51,22.51,0,0,0,1.79,5.1c1.35,3.41.6,7.58.1,11.1-.58,4.1-.8,8.29-1.1,12.45q-.94,13.32-1.91,26.65-1.76,24.68-3.53,49.35-2.33,32.44-4.64,64.9c0,.1-.06.83-.11,1.75h22.67l.15-58q.07-24.21.13-48.41,0-13.31.07-26.6c0-7.85,1.3-15.7,2.46-23.5.88-5.91,3-12.15,1.56-18A68.36,68.36,0,0,1,306.62,391.76Z"/>
                </g>
              </g>
              <g>
                <path class="ff4cf636-56b3-4759-8295-c227b3784101" d="M264-53.77c-1.84,3.34-3.73,9.35-1.61,13.16,3.28,5.9,9.85,2.87,14.81,3.31-.5,2.21-1,6.62-.34,8.81,2,6.43,7.34,2.73,12.56,2.42-.69,9.49,6,8.13,12.18,8.36-3.13,4.76-1.11,8.64,3.89,8.65-5.69,8.39,2.92,12,10.18,10.89-3.47,7.17,5.68,10.9,10.74,8.86a9.15,9.15,0,0,0,3,8c3.57,3,6.54.42,10.6-1.44.2,7.51,4.49,11.24,11,10.44-6,5.25-3.49,13.09,2.6,16.37-4.69,3.75.94,13.58,6.1,12.8-6.33,9.57,4,9.71,9.6,10.12-5.18,3-2.6,10.39.74,13.21-6.24,4.37-3.48,15.14-.51,20.92-10.28,1.62-9,20.29,0,23.3-4.56,7.17-8.17,9.79-7.59,20.33.39,7.11,2.58,11.29,8.3,14.73-8.76,14-1.37,28.85,13.37,28.48.15,9.22,7.3,17.39,15.8,10.37-1.34,11.67,10,15.7,17.54,9.35-.08,9.1,5.05,11.77,13.78,10.26-2.56,11.45,7.78,15.8,16.48,9.17-.76,9.82,11.95,10.7,17,5.87,2.09,8.82,11.82,5.62,16.56,3-.48,9.75,2.06,11.81,12.42,9.29-1,11.84,3.06,14.49,14.81,16.25-6.71,15.46,14.43,20.83,21.38,9.38.3,12.36,14.65,9.77,19.28,1.76,6.43,8.51,14.15-2.57,17.26-8.09,3.65,1.38,9.23.89,12.38-1.54.2,8.84,5.16,19.79,15.24,12.77-2,13.7,9,17.23,19.28,10.93-3.34,10.85,9.8,9.77,15.87,6.61-.9,2.93.39,4.79,2.6,7,9.41,9.22,22-2.69,24.26-13.25,4.77,6.4,24.71,4.23,23.48-7,5.37,6,19.74-4.33,19.66-11.84,2.29,10.15,23.14-5.94,25.32-9.74,2.51,11,19.29,5.56,24.4.69,9.42,9.4,19.41-3.2,18-14.3,4.91,7.89,17.94-9.08,19.79-12.89-1.18,8.3,11.21,8.12,15.9,6.62-1.56,7.53,10.85,11,15.6,9.24-1,7.31,7.57,10.54,15,9.75V-72.84H243.84C245.37-61.42,251.79-53,264-53.77Z"/>
                <path class="aa2e6f51-df0d-416c-b40f-280d83634510" d="M337.5-69.25c-3.89,5.11-2.34,9.41,1.51,13.27-3.55,4.46,1.75,14,6,11.57-2.46,2.38-2.76,14.66.91,13.07-2.45,1.75-7.89,6.8-7,11.67-3,1.17-6,2.24-7.53,6.19-.73,1.84-2.13,7.68.47,8.25-2.38-.37-4.78,1.61-5.8,4.49-.27.76-.39,8.29,1.07,7.35a6.18,6.18,0,0,0-2.83,3.11c-.68,2-.19,7.88,1.51,8.47-1.44,1.77-5.29,7.16-5.05,10.09-2.75-1.9-6.17,1.92-6.73,5.31-4,.59-8.87-.11-10.07,7-.29,1.73.24,4,.33,5.67-2.92,1-6.84,6-4.22,10.09-2.22-.32-5.29,3.47-5.51,6.49-1.75-.33-3.6,1.3-3.75,3.76-3.27-3.73-9.06.38-9.93,4.94-3.39-2.43-8.14-1.18-8.45,5-3.4-1.36-8.39,3.32-7.89,8.34-1.72-.26-3.67-.63-5.26.62s-1.53,4.77-2.69,6.06-3,.49-4.29,1.7c-2.31,2.23-1.24,5.5-3.83,7.29-.29.2-8.39,5.89-7,6.82-3.26-2.15-7.75.72-8.56,5.48-3,.08-5.73,3.38-6.13,7.35-2.29-1.49-5.59.94-6.33,4.22a4.25,4.25,0,0,0-5.73,1.16,3.51,3.51,0,0,0-4.26-.58,4.7,4.7,0,0,0-2,2.55c-.13.35-.68,3.36-.33,3.35a3.7,3.7,0,0,0-2.95,2c-.08-2.34-1.64-4.42-3.38-4.5s-3.4,1.85-3.6,4.18a3.11,3.11,0,0,0-4.22-1.45c-1.44.84-2.35,3.06-2.11,5.14-1.37-1-2.37-2.29-3.94-2-.51.1-4.12,2.63-3.59,3.63a4.49,4.49,0,0,0-4.51-2.66,5.43,5.43,0,0,0-3.87,4.09,3.86,3.86,0,0,0-4.29-1.83,5.41,5.41,0,0,0-3.26,4.16A4.47,4.47,0,0,0,163,141c-1.86,1.11-1.85,3.49-3.1,4.87s-2-1.17-3.47-1.93a4.65,4.65,0,0,0-3.42-.38c-2.34.69-4.26,3.42-4.65,6.6-2.15-1-4.79.58-5.64,3.43-1.37-4.46-7.16.84-6,5.14-.51-1.92-3-2.8-4.23-1.81-.92.73-2.57,6-1.18,6.87a5.6,5.6,0,0,0-7.58.85,12.14,12.14,0,0,0-2.76,9.21c-3-.76-6.06,3.21-5.63,7.27a6.1,6.1,0,0,0-6.06,3.1,11.34,11.34,0,0,0-1.62,5.73,12,12,0,0,0,.26,2.82c-3.34-.21-6.2,4.9-5.14,9.18-2.66-.37-5.1,3.6-4.34,7.05-2.46-.53-4.89,3-4.34,6.24-3.42-1.14-5.78,2.3-6.91,6.09a6.2,6.2,0,0,0-6.09,1.44c-.48.44-4.37,6-3.2,6.81-3.59-2.53-8.63.28-9.84,5.48-4.07-1.7-8.91,2.36-9.57,8a4.06,4.06,0,0,0-5.79.23,8.41,8.41,0,0,0-1.67,7.46c-3.42.37-6,5.61-5,10-1.79-.34-3.69,1.19-4.31,3.48a6.67,6.67,0,0,0,1.62,6.42c-9.34,12-16,27.88-18.81,44.88.17-1,4.81-26.94,27.6-51.44,1.36,1.12,3.74-.43,5-1.68a6.76,6.76,0,0,0,1.62-5.68c3.29.51,6.45-4,5.87-8.41.63,4.78,7.34-2.65,8.41-3.92,1.55,2.84,6,3,6.39-1.5,4,3.51,9.93,2.23,12.92-2.8,2.89,1.13,6.29-1.54,7-5.49,3.22,2.86,8.3-.2,8.87-5.33,5.33,1.39,11-5,10.92-12.31,4.7,3.23,11.27-1.32,12.08-8.34,4.32,1.12,8.77-4.83,8-10.67a4.53,4.53,0,0,0,6.19.29c1.87-1.55,2.93-4.67,2.59-7.59,3.91,3.52,10.12.11,11.09-6.1,2.18,2.41,6.09.41,6.54-3.34.58,1.77,2.08,2.9,3.51,2.63s2.64-1.9,2.84-3.82c1.4,2.43,3.87,3.65,6.1,3s4.12-3.14,4.65-6.13c1.12,3.68,4.32,6,7.21,5.15s5.15-4.65,5.08-8.63c1,2.1,2.92,3.28,4.74,2.88s3.37-2.36,3.8-4.77c-.36,2,5,3.24,5.81,3.22,2.2-.05,4-3.37,4.39-6.29,2,4.62,8.32,2.52,10.17-2.23,1.53,3.6,4.81,5.69,7.85,5,1.35,4,4.78,6.57,8,6-.23,6.34,5.65,11.41,9.82,8.48.44,4,2.76,7.42,5.64,8.4s6.15-.56,7.94-3.76c3.72,5.78,11.72,4.56,14.39-2.19,1.37,3.74,4.38,6.26,7.47,6.27s6.11-2.51,7.49-6.24c2.06,2.86,5.47,3.76,8.18,2.17s4.2-9.45,4.32-13.36c3.26,2.44,9,2.25,10.29-3.5,2.88,5.15,10.87,0,9.89-5.24,1.94,2.55,3.54,2.52,6,1.73,2-.65,7.66-4.85,6.54-8.4,4.55,6.21,11.59-1.61,12.44-8.26,4.57,2.89,10.26.55,11.91-7.58,5.88,2.82,6.89,1.79,12.08-2.82,4.38,7.16,16.43,3.83,16-6.6,3,8.2,10.76,4.08,11.31-4a9.16,9.16,0,0,0,6.82,4.24c5.7.15,5.44-4.75,6.89-10,7.77,6.6,17.2-.81,17.08-13,5.17,6.63,10.23-1.31,9.5-9.56,5.71,7.58,10.36-10.3,5.78-16.66,7.4,1.14,11.73-5.8,12.94-16,3.92.19,7.84,2.3,11.9.57,4.36-1.86,6.46-7.45,8.1-13.22,2.37,12.12,20.12,3.13,17.26-9.16,6.1,1,9.38,3.5,14.62-3.07,2.89-3.62,8-12,5.27-17.68C526,39.49,543.09,15.11,538.22,3c5.44,8.77,16.58-12.38,13.28-21,6.58,3.68,12.11-5.54,12.83-13.45.29-3.15,1.21-8.95-1-10.67,7.42,2,11.8-12,12.46-19.68a78.68,78.68,0,0,0-.18-11H332.2C333.17-70.46,334.82-68.91,337.5-69.25Z"/>
                <path class="ff4cf636-56b3-4759-8295-c227b3784101" d="M732.34-64.9c-4,4.76,2,14.92,6.69,12.32C736.28-50,736-37,740.05-38.65c-2.74,1.86-8.83,7.24-7.81,12.43-3.39,1.25-6.7,2.39-8.43,6.6-.81,2-2.38,8.18.53,8.78-2.66-.39-5.35,1.72-6.49,4.78-.3.81-.45,8.83,1.19,7.83a6.8,6.8,0,0,0-3.17,3.32c-.76,2.15-.2,8.39,1.69,9-1.61,1.88-5.92,7.62-5.65,10.75-3.08-2-6.91,2-7.54,5.65-4.51.62-9.93-.12-11.28,7.5-.32,1.85.27,4.22.37,6-3.27,1.07-7.66,6.35-4.73,10.75-2.49-.35-5.92,3.7-6.16,6.91-2-.35-4,1.38-4.21,4-3.66-4-10.15.41-11.12,5.27-3.8-2.59-9.12-1.26-9.46,5.32-3.81-1.45-9.4,3.54-8.84,8.89-1.93-.29-4.11-.67-5.89.65s-1.72,5.09-3,6.46-3.4.52-4.81,1.81c-2.59,2.37-1.38,5.85-4.29,7.76-.33.22-9.4,6.28-7.82,7.27-3.65-2.3-8.67.76-9.59,5.84-3.33.08-6.41,3.59-6.86,7.83-2.57-1.59-6.26,1-7.09,4.5a4.89,4.89,0,0,0-6.41,1.22,4.09,4.09,0,0,0-4.78-.61,5,5,0,0,0-2.22,2.71c-.15.38-.77,3.58-.38,3.57a4.17,4.17,0,0,0-3.3,2.1c-.09-2.49-1.84-4.71-3.78-4.79s-3.82,2-4,4.45a3.56,3.56,0,0,0-4.73-1.54c-1.6.88-2.62,3.25-2.36,5.47-1.53-1-2.65-2.44-4.41-2.1-.57.11-4.62,2.8-4,3.87a5.05,5.05,0,0,0-5-2.84,5.93,5.93,0,0,0-4.34,4.36,4.42,4.42,0,0,0-4.8-2,5.81,5.81,0,0,0-3.65,4.44,5.19,5.19,0,0,0-6.06-.73c-2.08,1.18-2.07,3.71-3.48,5.18s-2.24-1.24-3.89-2a5.3,5.3,0,0,0-3.82-.41c-2.62.73-4.78,3.64-5.21,7-2.41-1.1-5.37.62-6.32,3.65-1.53-4.75-8,.89-6.74,5.47-.57-2-3.33-3-4.74-1.92-1,.77-2.88,6.34-1.32,7.31a6.5,6.5,0,0,0-8.48.91,12.5,12.5,0,0,0-3.1,9.81c-3.33-.81-6.79,3.42-6.31,7.74a6.93,6.93,0,0,0-6.79,3.31,11.75,11.75,0,0,0-1.81,6.1,12,12,0,0,0,.3,3c-3.75-.22-7,5.22-5.77,9.78-3-.39-5.71,3.83-4.85,7.51-2.76-.56-5.48,3.15-4.87,6.64-3.82-1.21-6.47,2.46-7.74,6.5A7.18,7.18,0,0,0,443.5,232c-.55.47-4.9,6.37-3.59,7.25-4-2.69-9.66.3-11,5.83-4.56-1.81-10,2.52-10.72,8.56a4.71,4.71,0,0,0-6.48.24,8.62,8.62,0,0,0-1.87,8c-3.83.39-6.77,6-5.62,10.67-2-.36-4.13,1.27-4.83,3.71a6.92,6.92,0,0,0,1.82,6.84c-10.46,12.83-17.89,29.69-21.07,47.81.19-1,5.39-28.7,30.92-54.8,1.52,1.19,4.19-.46,5.64-1.79a7,7,0,0,0,1.81-6.05c3.69.54,7.23-4.27,6.58-8.95.7,5.09,8.22-2.83,9.42-4.18,1.74,3,6.78,3.19,7.15-1.6,4.5,3.74,11.13,2.37,14.48-3,3.24,1.22,7-1.63,7.81-5.84,3.6,3,9.29-.21,9.93-5.68,6,1.49,12.31-5.31,12.23-13.11,5.26,3.44,12.63-1.4,13.52-8.89,4.85,1.2,9.83-5.14,8.94-11.36a5.26,5.26,0,0,0,6.93.31c2.09-1.65,3.28-5,2.9-8.08,4.38,3.75,11.33.11,12.42-6.5,2.44,2.57,6.82.44,7.32-3.56a3.78,3.78,0,0,0,3.93,2.81c1.6-.29,3-2,3.19-4.08,1.56,2.6,4.33,3.9,6.83,3.21s4.61-3.34,5.2-6.53c1.26,3.92,4.85,6.36,8.09,5.48s5.76-4.95,5.68-9.19a5,5,0,0,0,5.31,3.08c2-.43,3.78-2.52,4.26-5.08-.4,2.14,5.59,3.44,6.5,3.42,2.47-.06,4.48-3.58,4.92-6.69,2.27,4.91,9.32,2.68,11.39-2.39,1.72,3.84,5.39,6.07,8.79,5.34,1.52,4.29,5.36,7,9,6.36-.25,6.74,6.33,12.14,11,9,.5,4.22,3.1,7.9,6.33,8.95s6.88-.6,8.88-4c4.17,6.15,13.13,4.85,16.13-2.33,1.53,4,4.9,6.66,8.36,6.67s6.85-2.67,8.39-6.64c2.31,3,6.13,4,9.16,2.31s4.71-10.07,4.84-14.24c3.65,2.6,10.08,2.4,11.52-3.72,3.23,5.48,12.18,0,11.08-5.59,2.18,2.72,4,2.69,6.73,1.85,2.26-.69,8.57-5.17,7.32-8.95,5.09,6.61,13-1.71,13.94-8.8,5.1,3.08,11.48.59,13.33-8.07,6.59,3,7.72,1.91,13.52-3,4.91,7.64,18.42,4.09,17.93-7,3.38,8.74,12.06,4.36,12.67-4.25,1.29,2.38,5,4.45,7.64,4.52,6.38.15,6.09-5.07,7.71-10.67,5.25,4.24,11.18,3,15-1.44v-201H728.12C728.11-70,729.77-67.35,732.34-64.9Z"/>
                <g>
                  <path class="ab2d6aef-eafd-425b-965a-e91667c008be" d="M695.71,218.05c-11.82,4.44-26.23-4.18-29.39-17.58-5.06,7.92-14.08,12.5-22.79,11.57.79,4.28-1.35,9-4.92,10.86A8.52,8.52,0,0,1,628,220.12c-3.54,6.34-10.47,10.14-17.16,9.4s-12.81-6-15.13-13c-13,9.05-32,5.08-41.13-8.58-5.77,7-16.44,8.26-23.38,2.66s-9.19-17.24-4.92-25.5c-8,2.58-15.84-9.67-11.05-17.19-7.61,5.74-19.64,1.47-22.84-8.11-3.53,8.49-14.44,11.83-21.39,6.55-1.39,9.77-13,15.63-20.58,10.35-2.6,5.17-8.14,8.31-13.44,7.63s-10.05-5.14-11.53-10.83c-8.19,6.84-22.19,3-24.3-8.17-.9,6.48-4.41,13-10.07,14.93s-12.87-3.11-12.23-9.63c-2.15,5.67-4.51,11.65-9.06,15.18s-12,3.21-14.59-2.22c1.4,5.2-1,11.33-5.43,13.7s-10.25.69-13.06-3.75c-1.9,5.28-7,8.92-12.14,8.63s-9.88-4.48-11.3-9.95c-1.51,7.4-11,10.95-16.23,6.07a14.07,14.07,0,0,1-2.35,14.37,10.86,10.86,0,0,1-13,2.33c-.24,5.79-3.89,11.22-8.81,13.13a12.65,12.65,0,0,1-14.27-4.17c-2.58,11.47-16.24,17.81-25.41,11.79A17.38,17.38,0,0,1,226.86,251c-7,5.29-14.17,0-21.46,3.9-6.47,3.46-11.49,9.59-15.51,16-8.21,13.16-13,28.83-16.89,44.13-6.74,26.82-7.11,55.73.26,82.45-16.64-38.32-16.14-85.27,1.31-123.15,4.53-9.83,10.29-19.8,9.78-30.83-.19-4.14-1.27-8.35-.31-12.36.86-3.61,4-6.25,7.34-5.84-1-4.3-1.5-8.74.47-12.92a13.17,13.17,0,0,1,10.8-7.68c-1.06-5-1.16-10.56,1.33-14.87s8.24-6.48,11.94-3.43a12.17,12.17,0,0,1,4.16-12.34,9.55,9.55,0,0,1,11.86.55,12.18,12.18,0,0,1,5.32-10.87,9.78,9.78,0,0,1,11.13.69c.66-4.28,5.23-6.73,9.07-6s7,3.88,9.48,7.21c.79-7.4,7.49-13.38,14.17-12.63a9.89,9.89,0,0,1-.22-11.16,7.65,7.65,0,0,1,9.81-2.44c-1.55-.87,7.91-10.79,9.37-11.57,5.44-2.91,12.59-.63,16.13,4.66,1.23-4.37,4.9-8.9,9-10.08s6.36,1.34,10.42,1.82c-2.14-5.29-1.92-11.65,1.6-16.19a12.33,12.33,0,0,1,14.37-4c-3-9.46,4.62-21,13.65-20.59a16,16,0,0,1,1.8-15.76,12.39,12.39,0,0,1,13.81-4.21,10.77,10.77,0,0,1-1.16-12.16,8.47,8.47,0,0,1,10.52-3.61c-2.52-7,.76-15.9,7-18.93-2.12,1-.58-10.64-.28-11.46a13.21,13.21,0,0,1,6.35-7.54c-7.48-7.89-4.94-25.21,6.16-27.52-3.67-8.43-1.61-19.47,4.77-25.58-12.74.33-23.55-15.48-19.82-29l.06-.56H832.71V223.8s-9.45,8.92-28.22,5.11c-22.92-4.66-20.38-21.16-20.38-21.16s-5.92,7.29-18.41,8.75-19.07-6.56-19.07-6.56a12.75,12.75,0,0,1-11.83,12.4c-6,.74-12.49-8-12.49-8s-2,13.13-15.12,13.13C699.27,227.45,695.71,218.05,695.71,218.05Z"/>
                  <g>
                    <path class="aa2e6f51-df0d-416c-b40f-280d83634510" d="M167.73,312.22h0Z"/>
                    <path class="aa2e6f51-df0d-416c-b40f-280d83634510" d="M167.73,312.23h0Z"/>
                    <path class="aa2e6f51-df0d-416c-b40f-280d83634510" d="M355.88-68c1.13,6,5.17,10.84,9.92,13.89s10.17,4.49,15.54,5.68a13,13,0,0,0,4.53,12.64,10.2,10.2,0,0,0,12.26-.15c2.27,10.32,13.95,16.59,22.65,12.15a22.12,22.12,0,0,0-1.33,21.87A11,11,0,0,0,415,8.39,10.21,10.21,0,0,0,422,16.85C415.35,22,408.54,30,406.25,38.6c-1.54-4.44-4.93-7.34-8.77-4.53-2,1.43-6.51,7.26-4.86,10.31a8.69,8.69,0,0,0-6.8-4.62,8.4,8.4,0,0,0-7.3,3.55,7.27,7.27,0,0,0-8-2.06,8.57,8.57,0,0,0-5,7.24,8.93,8.93,0,0,0-9.06.52,11.1,11.1,0,0,0-4.62,8.66A8.18,8.18,0,0,0,340.6,59a10.63,10.63,0,0,0-.32,12.45,9.49,9.49,0,0,0-8,6.8A11.06,11.06,0,0,0,334.89,89a12.93,12.93,0,0,0-7.11,10.19,13.78,13.78,0,0,0,4.46,11.9c-3.82,4.33-2.76,12.61,2,15.59-5.83,3.67-9.71,10.88-9.87,18.31a18.8,18.8,0,0,0-14.44,1.5c-1.52.87-9.64,10.24-9.95,10.18-6.85-1.46-14.29,4-15.81,11.51-7.48-2.74-16.5,3.77-17.27,12.47-6.65-3.86-16,.43-18.28,8.38-7.56-2.6-16.55,3.61-17.78,12.29a8.69,8.69,0,0,0-10.74.35A11.2,11.2,0,0,0,217,213.1c-6.35.55-11.23,8.57-9.31,15.31-3.34-.52-6.86,1.82-8,5.33a9,9,0,0,0,3,9.81c-17.37,18.44-29.69,42.65-35,68.67.23-1.09,8.71-41,51.28-78.7,2.54,1.71,7-.65,9.37-2.57a9.16,9.16,0,0,0,3-8.69c6.11.79,12-6.13,10.91-12.85,5.43,3.2,13.06.17,15.43-6.12-2,5.38,18.38-1.1,17.38-1.37,1.43.38,3.8,5.49,5.54,6.6a13,13,0,0,0,12.06.72c5.59-2.55,9.33-9.41,8.76-16.1,6.76,2,14.38-4.77,14.07-12.53,6.18,5.31,16.2,3.76,20.82-3.23,7.63,1.42,15.27-7.29,13.79-15.71a14.47,14.47,0,0,0,14.93,1,17.58,17.58,0,0,0,8.74-13.48,12,12,0,0,0,8.83,8.78,11,11,0,0,0,11-4.89c2.42,5.88,11,4.91,14.5-.25s3.37-12.21,3.1-18.67a13.32,13.32,0,0,0,13.52-5.56,17,17,0,0,0,1.57-15.91c4.94,2.19,12.5-.72,15.16-5.84.82,6.32,9.23,9.33,13.22,4.73a10.31,10.31,0,0,0,6.43,8.52,8.88,8.88,0,0,0,9.66-3c2.1,7,10.19,10.82,16.19,7.69.38,7.43,7.81,13.33,14.27,11.33,3.48,7.41,14.71,6.66,20,.71,2.07,5.7,8.89,8.54,13.83,5.76-3.13,7.64,2.13,17.85,9.65,18.72-3.82,4-3.62,11.66.39,15.38s10.87,2.55,13.7-2.33c6.49.12,12-7.72,10.42-14.7,6,3.49,14.38.71,17.69-5.89a44.07,44.07,0,0,0,22.12,2.3c-4.05,3.06-5.73,9.44-3.8,14.43s7.27,8,12.05,6.87c-2.82,7.64,1.57,17.48,8.75,19.63s15.43-3.91,16.46-12.08c7.13,3.6,16.44-4.85,14.66-13.33,8.22-.55,15.33-9.11,15.16-18.25a21.87,21.87,0,0,0,17.84,9.41c-1.46,5.67,1.21,12.29,6,14.87s11.12.82,14.24-4c1.15,8.54,7.14,16,14.64,18.3s16.09-.79,21-7.49c7.28,3.7,16.94-.29,20.26-8.38,1.62,6,6.48,10.75,12,11.79a14.84,14.84,0,0,0,14.83-6.8c1.09,4.95,5.09,8.93,9.64,9.61s9.34-2,11.57-6.45c2.76,4.71,11.81,9.13,18.33,9.16V-72.84H355.61A23.42,23.42,0,0,0,355.88-68Z"/>
                    <path class="aa2e6f51-df0d-416c-b40f-280d83634510" d="M167.73,312.24Z"/>
                  </g>
                </g>
              </g>
              <g>
                <g>
                  <g>
                    <path class="a2cdedda-a361-412b-a9ac-9bfda3e94547" d="M202.44,341a16.77,16.77,0,0,1-2.72-11c.49-4.92,3-9.13,4.51-13.72s1.74-10.69-1.44-13.71c-.91,3.46-2.2,7.73-5.24,9.16-2.08,1-3.6-.62-4-3a8,8,0,0,1-.12-1.72,12.82,12.82,0,0,1,2.62-6.83,66.71,66.71,0,0,0,4.13-5.76c3.26-5.85,2.86-13.78,1.08-20.55s-4.75-13-6.36-19.82-1.65-14.86,2-20.35c-6.85,4.33-11.25,14-10.72,23.48.32,5.64,2.21,11.07,2.05,16.72a22,22,0,0,1-3.11,10.77,11.83,11.83,0,0,1-6.18,5.33,6.66,6.66,0,0,1-7.14-2.15c-2.95-3.58-1.83-12-.59-16.34,1.49-5.29,4.13-10,5.58-15.3a36.86,36.86,0,0,0-1.57-23.77c-1.7-3.95-4.1-7.37-5.88-11.26-4.57-10-1.2-25,4.57-33.4-11.88,8.44-29,22.65-26.11,42.52.44,3,1.35,6,1.54,9.1.33,5.44-2.28,7.13-4.59,10.93a30.13,30.13,0,0,0-4,17.79c.25,2.9,1.33,4.7,2.1,7.31a44.39,44.39,0,0,1,1.37,10c.16,3.62-.06,6.86-2,9.77-1,1.51-2.53,2.63-4.1,2.44-2.48-.29-4-3.69-4.09-6.79s1-6,1.55-9.05a32,32,0,0,0-2.21-19c-2.64-5.7-7.07-10.09-12.14-12,4.65,4.11,5.44,12.46,4.06,19.33s-4.4,13.08-5.92,19.9c-1.67,7.48-1,13.29.11,20.82.82,5.77,1.61,11.9-.15,17.34-1,3.1-2.76,5.72-4,8.65s-2.07,6.53-1,9.58l92,2.39C206.58,345.62,204.1,343.41,202.44,341Z"/>
                    <path class="bcc5aee4-2f20-42cd-a0c2-f2dade46e8e0" d="M246.33,373.23c-3.32-9.64-9-18.53-9.25-29-.21-7.58,2.46-15.15,1.33-22.61-1-6.52-4.72-11.79-7.7-17.3s-5.37-12.5-3.36-18.66c-3.75.32-5.61,6.21-4.78,10.75.88,4.79,3.82,8.43,4.9,13.06.79,3.33.2,7.11-.56,10.45-1.69,7.45-6.8,13.79-13,15.25-8,1.89-16.8-4.7-19.15-14.41-1.4-5.75-1.36-13.82,1.62-18.86,1.44-2.42,3.34-4.43,4.54-7,2.54-5.5,1.49-12.53-.72-18.25s-5.47-10.74-7.51-16.56-2.63-13,.4-18.13c-5.59,5.3-8.54,14.57-7.37,23.18.79,5.72,3.23,11.08,3.21,16.88,0,7.26-4.43,14.14-10.13,15.83,1.87-9.24-.46-19.6-5.91-26.32-1.59-2-3.49-3.75-4.27-6.37-1-3.18,0-6.76,1.38-9.71s3.07-5.73,3.78-9c1.12-5.21-.57-10.75-2.9-15.31s-5.31-8.62-7.23-13.47-2.58-11-.18-15.46c-5.53,5.34-11.63,12.2-11,20.85.44,6.32,4.54,12,3.6,18.28-1,6.88-7.52,10.24-10.23,16.39-2.06,4.68-1.68,10.43-.63,15.6s2.72,10.2,3.07,15.51S147.33,300,143.72,303a7.56,7.56,0,0,1-11-1.93c-5.62-8,2.61-17.24,1.31-25.79a39.84,39.84,0,0,0-1.92-8.1c-.82-2.17-2.77-4.32-3.35-6.45a30.22,30.22,0,0,1-2,21c-8.09,15.88,4.59,31,.59,47.95-1.85,7.87-6.38,14.86-12.44,18.17-11.49,6.29-29.32-2.6-23.17-21,1.26-3.77,3.53-6.87,5.3-10.31s3.1-7.65,2.14-11.56c-.79-3.22-3-5.59-4.34-8.5s-1.61-7.34.75-9a22.47,22.47,0,0,0-5.45,5,10.39,10.39,0,0,0-1.9,7.76c.43,2.15,1.71,3.94,2.1,6.1.76,4.2-2,8-4.21,11.25a67.49,67.49,0,0,0-8.81,18.41c-2.79,9.05-3.21,15.48-1.44,24.95,5.57,29.77,22.59,58.2,44,73.48L231,439.64C247.48,425.34,254.21,396.14,246.33,373.23Z"/>
                  </g>
                  <path class="a26c5334-8332-4907-8ab2-d566c8e370e0" d="M-59.65,462.36H832.71V347.77a43,43,0,0,1-2.63-12.67c-.24-5.28.62-10.93-1.36-15.62-1.61-3.81-4.92-6.45-5.77-10.62-.66-3.25.34-6.6,1-9.85s.83-7.11-1.06-9.5c.47,2.78-.83,5.54-2.32,7.7s-3.27,4.12-4.11,6.76c-1.54,4.84.54,10.18.83,15.37.42,7.55-3,14.62-7,20.38-2,2.95-4.29,5.76-7.1,7.46s-6.26,2.15-9,.36c-3.3-2.12-3.74-6.24-4-10.37-.31-4.62-1.22-7.84-3.76-11.35-1.81-2.51-3.85-4.87-4.95-7.95s-1-7.16,1.14-9.26c-2.69,1.72-3.89,5.81-3.87,9.57s1,7.39,1.52,11.09.55,7.78-1.13,10.91c-1.93,3.59-5.55,5-8.42,7.46-5.91,5-5.27,13.55-10.15,20.08-2.41,3.22-5.1,6.29-8.39,7.94s-7.31,1.61-10.15-1-4.25-8-7.59-10.07c-4.6-2.87-11,1.52-15-2.49s-1.95-13.16-5.75-17.6c-1.72-2-4.2-2.5-6.47-3.28s-4.71-2.25-5.4-5c-1.09,2.26,0,5.22,1.39,7.15s3.3,3.45,4.29,5.78c2.32,5.46-1,13.07,2,18,3.34,5.44,11.69,2.81,14.47,8.72,1.56,3.34.34,7.62-1.37,10.85-5.32,10.08-15.4,16-25.07,14.62a24.72,24.72,0,0,1-14.6-8.19c-3.8-4.18-5.19-10.84-9-14.61s-10.46-3.59-12.38-9.22c-1.2-3.49.18-7.41.93-11.08,1.7-8.33-.12-17.62-4.7-24.06,2.54,4.06,1.94,10,.11,14.61s-4.68,8.48-6.63,13a39.26,39.26,0,0,0-2.87,11.42c-.3,3-.5,6.59-2.54,8.32-1.7,1.43-4,1-6,.43-3.53-.93-7.39-2.11-9.5-5.74-1.65-2.85-1.83-6.56-2.57-9.94-1.82-8.33-7.55-15.14-14.34-17.06a42.61,42.61,0,0,1,5,11.26c1,4.12.94,8.83-.92,12.46s-5.76,5.77-9,4.17a39,39,0,0,0,.49-9.76c-.39-3.24-1.74-6.47-4.07-8-1.93-1.26-4.38-1.32-6-3.2-1.35-1.61-1.66-4.18-1.41-6.49s.93-4.5,1.29-6.79c1-6.64-1.13-13.9-5.41-18.12a13.32,13.32,0,0,1,0,13.19c-1.45,2.3-3.6,3.8-5.09,6.07-2.93,4.48-2.7,10.84-3.76,16.46a29.58,29.58,0,0,1-7.71,15.11c-4.22,4.31-7.48,5.49-12.64,3.82-4.37-1.42-9.46-3.67-10.6-9.09-.94-4.42,1.29-9,.84-13.56a18.32,18.32,0,0,0-3.36-8.09c-1.56-2.38-3.29-4.7-4.23-7.54s-.93-6.43.77-8.67c-2.52.14-3.76,4.06-3.4,7.16s1.67,6,1.68,9.11c0,4.81-3,8.84-3.7,13.58-1.46,10.46,8.72,19,8,29.6-.38,5.45-4.08,10.27-8.45,11s-9-2.66-10.54-7.78c-1.23-4-.65-8.5-1-12.78-.57-7.37-4-14.31-9-18.27a26.47,26.47,0,0,1-3.44,22,23.83,23.83,0,0,1-16.65,10.17c-4.7.61-10.19-.64-12.61-5.67-2.06-4.27-1.19-9.8-2.48-14.52-1-3.55-3.09-6.4-4.68-9.58s-2.7-7.24-1.4-10.63c-3.63,1.53-4.8,7.17-4.81,11.93,0,4.27.49,9.06-1.32,12.92a37.52,37.52,0,0,1-5.87,8.83A19.4,19.4,0,0,1,453,396.11c-4.07-.17-8.58-2.37-10-7.1-.86-2.94-.45-6.57-2.16-8.87-1.41-1.9-3.94-2.34-4.92-4.62-.84-2-.11-4.35.32-6.52,1.24-6.2-.27-13.14-3.86-17.74.79,2.95-.41,6.15-1.94,8.62s-3.42,4.67-4.35,7.55c-2.17,6.68,1.54,14.27.47,21.35a15.28,15.28,0,0,1-6.68,10.48A15.73,15.73,0,0,1,409,401.31c-3.92-.59-8.19-2.87-9.43-7.52-1.12-4.17.56-9-.83-13-1.82-5.24-8-6.85-9.19-12.38-.85-4,1.45-7.87,2.87-11.63a29.34,29.34,0,0,0-1.17-22.91c1.68,4.12.14,9.19-2.11,12.87s-5.19,6.79-6.8,11c-1.79,4.6-1.74,9.95-2.82,14.88-2.95,13.51-16.11,23.61-27.08,18.59a8.77,8.77,0,0,1-5.24-5.69c-1.05-4.31,1.94-8.47,2.39-12.94.35-3.47-.86-6.89-2.29-9.91s-3.11-5.94-3.86-9.32-.32-7.46,1.91-9.62c-3.94,2.38-6.61,7.65-6.63,13.08,0,2.54.52,5,.69,7.56s-.07,5.28-1.38,7.23c-1.95,2.93-5.55,3.07-8.53,2.17-6.3-1.89-11.8-7.47-14.54-14.75a33.12,33.12,0,0,1-1.66-16.11c.7-4.91,2.86-8.71,3.11-13.78a39.55,39.55,0,0,0-1.95-14.31c-1.56-4.7-4.23-7.49-6.49-11.46a25.42,25.42,0,0,1,1.32,21c-1.6,4-4.23,7.34-5.48,11.54-2.49,8.35,1,17.51,1,26.41a30,30,0,0,1-5.91,17.88c-1.68,2.16-3.72,4-6.08,4.62a6,6,0,0,1-6.6-2.44c-1.7-2.53-1.67-6.19-1.19-9.42s1.32-6.48,1-9.73c-.5-4.55-3.22-8.14-5.62-11.63s-4.73-7.74-4.2-12.28c-.82,4.58.81,9.2,1.77,13.74s1,10.19-2.07,13c-3.34,3.08-8.19.87-12.14,2.46-7,2.81-8.81,16.09-16,17.7-4.76,1.06-9-3.81-11.67-8.82s-4.82-10.86-9.05-13.78c-3.29-2.27-7.92-3-9.19-7.4-1.35-4.67,2.35-9,3.86-13.59a15.72,15.72,0,0,0-1.82-13.37c-.1,4.13-3.13,7.14-6,9.17s-6.19,4-7.58,7.73c-1.82,4.9.39,10.6.11,16a14.9,14.9,0,0,1-5.4,11c-4.37,3.25-10.81,2.54-13.53-3.31-1.68-3.62-.65-8.45-2.26-12.13-2.95-6.74-12.33-5.17-15.37-11.85S173,330.88,172,323.2c-.5-3.89-2.79-7-4.56-10.28s-3.08-7.63-1.52-11.07c-3.51,1.82-3.7,7.92-2.72,12.48s2.51,9.67.56,13.72c-1.51,3.12-4.77,4.69-5.79,8.11-1.28,4.33,1.67,8.6,3.79,12.39,5.77,10.34,6,25,.49,35.55-2.74,5.29-7,9.68-12,10.58s-10.65-2.43-12.28-8.38.82-12.13,3.57-17.24,6-10.26,6.48-16.39c.69-10.19-7.34-17.08-6.17-27.07.43-3.75,1.42-7.5.93-11.24-.59-4.56-3.53-8.5-7.14-9.6a19.31,19.31,0,0,1,2.31,13.64c-1.1,5.46-4.72,10-5.22,15.64s.77,10.73-1.38,16.21c-1.84,4.7-6.14,8.3-10.21,6.94-2.64-.87-4.66-3.63-5.77-6.73a37.31,37.31,0,0,1-1.66-9.9c-.86-12.45-1.09-26.05-7.57-35.63,5.37,10,4.28,24.62-2.48,33.27-2.58,3.29-5.85,5.78-8,9.54-4.64,8.19-4.19,30.77-17.14,24.86-4.22-1.93-7-7.32-7.48-12.87a26.32,26.32,0,0,1,4-15.54c-4.17.84-7.14,5.6-8.68,10.48s-2.1,10.19-3.85,15c-3.35,9.1-11.65,15.42-19.61,13.75s-14.31-12.14-12.47-21.89c1.36-7.17,6.51-13.74,4.83-20.81-.82-3.46-3.15-6-4.65-9.11-3.42-7-1.89-17.08,3.35-22.09-3.44,1.62-7,3.29-9.76,6.24a15.12,15.12,0,0,0-4.17,12c.42,3.1,2,5.77,2.64,8.82,1.34,6.37-2.33,13.66-7.54,15S4.27,347.91,3.49,341.4c-.66-5.54,1.75-10.71,1.59-16.19-.15-5.19-2.44-9-3.85-13.72-1.36-4.52-.7-9.68.94-14.06s4.18-8.13,6.68-11.83C1.43,292.79-6,300.31-11.31,309.92c-6.12,11-9.16,26.77-6.17,39.82-8.57-2.57-14.72-15-14.92-25.4-.11-5.39,1-10.88,0-16.11s-4.32-9.58-6.3-14.52-2.24-12,1.5-15c-5.31,2.74-7,11-7.28,18.12s0,15-3.73,20.47c-1.94,2.89-4.77,4.75-6.54,7.8-4,6.92-1.49,18.4-3.3,26.56a58.83,58.83,0,0,1-1.59,5.79Z"/>
                  <path class="af8e64ce-1272-4182-b0dd-14ac4ae901f6" d="M832.71,331.36a29.38,29.38,0,0,0-4.53-3.64c-3.94-2.54-8.41-4.18-11.5-8.13-5.89-7.55-4.27-19.69-3.16-30.11s0-23.66-7.93-27.42c5.26,6.85,2.2,18.29-2.4,25.84S792.46,302.64,792,312.07c-.56,10.46,6.12,19.56,7,30,.79,9.6-4.11,19.53-11.4,22.92s-16.33-.18-20.6-8.25c-4.95-9.35-2.23-19.82-3.89-29.93-.85-5.2-1.62-10.09-3.54-14.9s-5.21-8.58-7-13.2c4,10,2.65,20.71-1.48,30.17-3.85,8.8-11.66,14.83-11.39,26,.32,12.59,11.44,21.33,12.68,33.83,1.22,12.19-7.16,22.25-14.79,30.11-5,5.15-12.36,10.42-17.41,5.33-4.33-4.37-3.14-12.82-5-19.34-2.45-8.51-9.86-12.9-14.91-19.41s-6.35-19.95.64-22.54c-7.2-6.15-17.34,2.12-20.61,12.18s-2.64,21.46-5.43,31.74S663,426.59,655.07,422.09c-7.79-4.4-8.1-17.54-9.83-27.93-2-12-7.39-23-8.75-35.18s3.65-27.19,13.52-28.4c-10.17-.72-18.53,10.11-23.1,21.4s-7.07,24-13.5,33.84-19.08,15.26-26.8,7c-6.55-7-5.6-18.68-10.36-26.88-2.26-3.88-5.27-6-6.6-10.9-.7-2.6-1.94-11.59.51-13.51-4.47,3.51-8.77,9.15-8.13,15.66.41,4.21,2.81,7.66,4.05,11.61,2.59,8.23-.74,16-.89,24.3a21.35,21.35,0,0,1-7.45,16.23,19,19,0,0,1-21,2.62c-7.76-3.87-13.1-12.32-17.39-20.88-2.13-4.24-4-8.52-6.42-12.47-2.72-4.44-2.18-10.14-1-15.34,1.61-6.94,4.53-12.19,3-19.51-1.38-6.47-4.51-9.95-8.16-14.4,3.22,3.93,3.45,10.51,1.74,15.7-2.87,8.75-12.35,15.29-10.93,26,.47,3.6,2.74,7,3.93,10.42,2.91,8.27,3.81,19-1.37,25.36-5,6.15-13.75,5.06-19.5,0s-9.22-13.14-12.5-20.89c-2.7-6.37-8.86-15.53-7.55-23.25a25.65,25.65,0,0,1,3.23-8,32.21,32.21,0,0,0,3.53-7.88c-2.74,2.68-5.91,4.58-8.92,6.77a25.21,25.21,0,0,0-7.85,8.41c-5,9.53,2.25,21.05,1.24,31.42-.88,9.16-7,16.54-14,19-3.12,1.11-7.11,1.68-9.84-1.09-2.37-2.41-1.94-6.8-2.77-10.13a57.5,57.5,0,0,0-7.16-16.78c-2.24-3.54-4-6.74-4.49-11.34-.32-2.93-.43-9.76,1.68-11.92-3.74,3.83-7.76,8.32-8.17,14.3-.25,3.57.86,7,1.72,10.45,1.76,6.95,1.66,15.09-1.86,21.16-3.08,5.31-8.57,9.33-13.92,7-6.79-2.9-9-13-11.74-21.27a23.54,23.54,0,0,0-7.1-11,10.2,10.2,0,0,1-3.91-9.5c.39-4.24,2.28-8,3.33-12.08a31.36,31.36,0,0,0-3-23.16c2,3.25,1.47,8.11-.36,11.53s-4.69,5.75-7.41,8.09-5.49,4.92-7,8.58c-1.78,4.35-1.51,9.55-.72,14.33s2.06,9.5,2.13,14.38-1.34,10.17-4.7,12.71a8.34,8.34,0,0,1-8.81.52c-2.82-1.4-5.16-4-7.08-7-3.46-5.29-1.86-8.54-1.88-14.26,0-5-1.49-10.41-3.13-14.9-3.41-9.39-9.37-17.45-16.93-21.86-7.13-4.17-15.87-5.8-20.6-13.62-3.49-5.78-3.84-13.5-6-20.19s-8.15-12.95-13.37-9.78c3.8.47,6.09,5.69,6.35,10.42s-.78,9.46-.39,14.17c1.36,16.39,17.88,23.3,24.81,37.36,6.59,13.37,2.29,32.95-8.67,40.76s-26.48,2.9-33.41-10.21c-2.08-3.94-3.63-8.8-5.24-13.06a30.14,30.14,0,0,1-1.63-14.8c.91-6.34,3.79-13,1.45-18.78a25.13,25.13,0,0,0-3.35-5.18,11.66,11.66,0,0,1-2.47-5.79c-.16-2.21,1-4.69,2.76-5-2-1-4.46.68-5.48,3.11s-1,5.31-.78,8a29.33,29.33,0,0,1,0,8.16c-2,9.48-13.56,11.73-15.71,21.17-1.21,5.31,1.09,10.74,2.06,16.12,1.37,7.56-.05,22.65-7.27,25-7,2.33-14.09-5.14-17.5-12.09-4.32-8.83-7.64-19.95-15.51-23.38-4.24-1.85-9.34-1.12-12.8-4.68-5.37-5.51-2.71-16.16.39-23.89s5.84-18.31.55-23.94c2.28,5.24-1.06,11.65-5,15.05-3.21,2.76-11.43,5.88-11,11.8.14,1.89.79,3.68,1,5.56s-.2,4.1-1.55,5-3.12,0-4-1.47a11.13,11.13,0,0,1-1.22-5.38,35.37,35.37,0,0,0-.35-5.65c-.66-3.23-2.85-5.92-5.46-6.72,2.44,2.23,2.62,6.66,2.13,10.36s-1.44,7.58-.43,11.13c1.12,4,4.34,6.33,6.41,9.65,3.58,5.76,4.41,16.54.89,22.52-5.11,8.69-16.56,7.12-23.16.14-2.62-2.77-9.84-12.21-8.22-17.05.88-2.64,3.65-3.16,5.57-4.76,2.72-2.27,3.6-7,2.57-10.9a15.27,15.27,0,0,0-6.51-8.74,27.72,27.72,0,0,1,.06,7.61c-.45,2.5-1.71,4.91-3.64,5.8-2.5,1.16-5.38-.59-7-3.22-3.13-5.14-3.63-11.48-2.23-17.42,1.2-5.06,3-9.93,3.56-15.16s-.58-11.18-4.1-14.15c1.45,3.64.36,8.17-1.69,11.34s-4.9,5.35-7.52,7.78-5.17,5.38-6.13,9.26c-1,4.1-.11,8.51-.23,12.8a24,24,0,0,1-6.35,15.94c-9.33,9.47-23.06,3.55-31.31-5.08-5.27-5.51-7.46-12.05-9-20.08-1.46-7.6,0-15-1.11-22.7-.83-5.54-3.83-11.14-8.32-12.07,2.16,4.15,4.4,9,3.32,13.74-.6,2.63-2.14,4.75-3.28,7.09-3,6.26-1.05,13.25-1.41,20-.28,5.22-.56,11.05-1.2,16.23-.49,4-1.92,8.06-4.53,10.56-5,4.82-12.8,2.3-17-3.54s-5.72-13.95-6.54-21.74c-1.24-11.68-1.07-32-14.14-32.7-4.28-.23-9.4,2.31-12.35-1.54-2.31-3-1.48-7.82-.87-11.91a52.58,52.58,0,0,0-2.12-25c-1.36-3.78-3.13-7.45-3.5-11.56-.34-3.73.51-7.44,1-11.14s.54-7.78-1.17-10.88a9.3,9.3,0,0,1-1,6.74c-1,2-2.45,3.64-3.57,5.57a21.93,21.93,0,0,0-2.54,13.73c.52,3.64,1.92,7.06,2.07,10.75.66,16.32-15.12,20.52-24.29,25.51a43.15,43.15,0,0,0-15.86,15.79V527.69H832.71Z"/>
                </g>
                <g>
                  <g>
                    <path class="a67d3364-10d3-459e-bbf6-ab87878600d0" d="M85.79,427.41a100.59,100.59,0,0,0-13.14,30.74q3.24-19.29,6.49-38.58l-11.46,30.8q3.36-26.79,6.73-53.59a134,134,0,0,0-9.92,48.11Q62.44,418.3,60.4,391.7a250.47,250.47,0,0,0-3.26,56.09q-1.68-29-3.38-58a411.38,411.38,0,0,0-.39,61.81l-10.2-45.75a326.2,326.2,0,0,0,4.87,41A432.41,432.41,0,0,0,31.72,395.3a480.85,480.85,0,0,0,3.78,55.41L23.68,405.24l.42,52.31a316.05,316.05,0,0,1-7.79-49.43l-5.94,31.36a230,230,0,0,1,4.47-60.28A225.75,225.75,0,0,0,2.21,421l9.94-51.25A217.61,217.61,0,0,0-8.64,413.46,562.44,562.44,0,0,1,6.71,350.62a274.92,274.92,0,0,0-21.34,56.2A273.19,273.19,0,0,1-2.22,352.63a162.77,162.77,0,0,0-21.14,48,342.79,342.79,0,0,1,8.08-57.69,168,168,0,0,0-10.91,43.4A249.1,249.1,0,0,1-31,339.18a241.34,241.34,0,0,0-2.66,50.2q-4.64-20.91-9.26-41.8a195.89,195.89,0,0,0,3.05,41.51q-7.52-19.17-15-38.35,4.4,18.84,8.8,37.67a132.4,132.4,0,0,0-13.61-31.36V562H77.28C76.88,538.75,79.78,449.45,85.79,427.41Z"/>
                    <path class="a75952b3-ed74-4abd-9ab4-21beea73a323" d="M137.74,471.37q3.18-18.21,6.37-36.4a257.82,257.82,0,0,0-9.56,33.35q1.56-17.81,3.13-35.61l-8.22,33.36q2.49-20.9,5-41.79a342.2,342.2,0,0,0-10.9,39.2l2.18-39.16a124.47,124.47,0,0,0-8,36.68l1.41-56.45a357.58,357.58,0,0,1-14.51,58.39l2.64-42.57Q101,441.18,96.59,462.71A527.38,527.38,0,0,1,92.1,405a540.75,540.75,0,0,0-4.81,57.23q-3.06-28.17-6.1-56.35a348.3,348.3,0,0,0-4.69,58.31q-3.31-26.26-6.61-52.54l-1.65,56.73a289.1,289.1,0,0,1-6.95-64.7c-2.57,30.7-1.69,128,2.61,158.38h71.19c5.7-18.31,10-103.23,12.81-122.54Q142.82,455.42,137.74,471.37Z"/>
                    <path class="af2b06a7-30fc-4dcf-b078-5cdd54f39dd3" d="M243.9,460.84l2.53-38.73a253.71,253.71,0,0,0-7.59,41.64c-.81-11.52-1.08-23.1-.79-34.66q-2.19,16.82-4.39,33.61-.9-20.1-1.81-40.21-1.64,18.31-3.26,36.63l-1.23-58.94-9.27,61.23q2.26-28.79,4.55-57.59a205,205,0,0,0-13.08,51l4-41.6a149.59,149.59,0,0,0-9.5,37q2.12-27.79,5.71-55.37a257.2,257.2,0,0,0-10.23,57.34l-5.16-44.48q1.15,19.74,2.29,39.47a216.39,216.39,0,0,1-9.59-38.54q1.34,19.43,2.66,38.84l-5.12-22.57-3.78,25.15a125.62,125.62,0,0,0,.88-24.68Q178,439,174.31,452.64l2.13-27.58q-4.29,9.76-8.56,19.55,2.77-15.32,5.56-30.63l-13.62,32.08a168.05,168.05,0,0,0,9-43.35,179.2,179.2,0,0,1-15.67,38q3-14.57,6-29.14a110.94,110.94,0,0,0-10.4,24.85q.72-16,1.43-32a205.78,205.78,0,0,0-7.51,38q-1.68-25-1.51-50a387.28,387.28,0,0,0-5.61,67.77,549.21,549.21,0,0,1-7.5-60.06,346.5,346.5,0,0,0,2.11,71.13,211.13,211.13,0,0,1-14.52-63.45c1.44,30,6.64,126.19,15.36,154.26H242.8c4.79-25,7.82-116.39,9-142A246.45,246.45,0,0,0,243.9,460.84Z"/>
                    <path class="bdce21b0-563e-4168-ba0e-0da96d717825" d="M369.68,418.49a99.29,99.29,0,0,0-11.8,42.58,188.89,188.89,0,0,1,6.69-44.78,123.62,123.62,0,0,0-12.22,45.86,362.12,362.12,0,0,1,5.65-49.1A101,101,0,0,0,347,458.78a329.32,329.32,0,0,1,1.62-53.94,233.37,233.37,0,0,0-4.94,57.26l-16.29-64.92q4.44,29.91,8.87,59.83L317.4,408.59a129.43,129.43,0,0,1,8.21,52.9,39.33,39.33,0,0,1-7.09-18.67q-.37,11.6-.77,23.18a203.22,203.22,0,0,1-3.16-30.63q-2.07,13-4.13,26A321.82,321.82,0,0,1,312,422.83a171.81,171.81,0,0,0-9.51,37.93,175.12,175.12,0,0,1,7.26-43.06,237.19,237.19,0,0,0-14.9,27.74,120.61,120.61,0,0,1,13.42-31.61c-8.55,5.14-15.36,14.54-18.56,25.62a161.24,161.24,0,0,1,9.36-39.28c-8.46,10.59-14.08,24.6-15.79,39.35q.44-20.47.89-40.94a211.49,211.49,0,0,0-6.92,45.07A654.86,654.86,0,0,0,275.94,367q-1.85,25.14-3.68,50.3l-4-40.09q-1.74,27.94-3.49,55.88L263,393.7a270.34,270.34,0,0,0-3.59,49.2,508.59,508.59,0,0,1-4.6-51.81q-2.58,31.26-2.94,62.71c-3.62-17.89-6.35-36.06-8.18-54.36l1.47,63.88a498.63,498.63,0,0,1-12.22-55.91,667.08,667.08,0,0,0,4,68.56,134.65,134.65,0,0,1-12.21-57.27c-.32,24.63,2.91,120.07,9.49,143.31H363C361.05,535.94,363.33,443.45,369.68,418.49Z"/>
                    <path class="e228f045-6a12-4ce1-83fa-7b861e557a79" d="M572.85,459.74q3.79-17.4,7.58-34.81a108.26,108.26,0,0,0-13.16,34q2.33-24.09,4.64-48.17a123.66,123.66,0,0,0-8.59,41.26l1.72-58.8a328.49,328.49,0,0,0-4.42,64.64l-8.46-60.65a283.7,283.7,0,0,0,2.94,64.46l-14-72.08c3.24,31,6.56,79,6.56,79l-5.16-30.05-2.28,26.7Q538,449,535.83,432.82a127.12,127.12,0,0,0-2,31.07,295.53,295.53,0,0,0-15.32-67.35,399.51,399.51,0,0,0,5.56,53.62,372,372,0,0,1-19.31-65.43q5.14,37,7.67,74.37-7.89-35.31-15.76-70.64,2.88,37.11,5.77,74.21c-6.2-27-11.16-54.38-14.85-82.05q2.42,41.82,4.82,83.65a455.82,455.82,0,0,1-11.89-76.63A538.25,538.25,0,0,0,488,478.06a298.57,298.57,0,0,1-16.39-71.42C474.16,435,478,536.47,483,562h89c4.39-18.56,7.26-108.38,8.54-127.66Q576.69,447.05,572.85,459.74Z"/>
                    <path class="a705de12-dbaa-481b-8a47-36ca1f84ed9e" d="M479.62,517l20-115.58c-8.19,25.15-16.38,90.43-24.58,115.58,6.28-26.69,11.11-94.05,14.43-121.55a589.69,589.69,0,0,1-13.16,64.06q3.18-35.72,6.37-71.43-7.71,36.13-15.4,72.28,1.31-34.14,2.62-68.28a630.15,630.15,0,0,1-9.67,73.25,386.63,386.63,0,0,0-10.64-65.64,284.05,284.05,0,0,1,5.37,72.6,221.08,221.08,0,0,0-17.87-58.53,333.69,333.69,0,0,1,10.71,56.91,279.06,279.06,0,0,0-15.56-44.56c6.79,15.84,11.25,73.1,13.09,90.89-4.31-15.15-10.35-69.41-17.9-82.46,6,13.82,10.4,67.17,13.15,82.46-4.88-15.35-12.43-67.91-22-79.38a243.52,243.52,0,0,1,12.67,38.77,289.57,289.57,0,0,0-18.47-33.52c4,11.28,8,62.84,12,74.13-6.32-11.31-12.65-62.9-19-74.21,3.56,12.26,7.13,62,10.69,74.21-5.86-11.73-12.46-60.33-19.73-70.77,4.5,13,9,57.78,13.5,70.77-5.69-11.81-11.39-55.43-17.08-67.24L402,517c-4.14-10.1-8.29-52.16-12.44-62.26L395.37,517l-7.77-45.59s-5-12-.27-48.81c0,0-5,34.38-5,45l-1.66-40.91-5.2,34.4a453.44,453.44,0,0,0,1.65-56.87A543,543,0,0,1,369.85,463q0-22-.08-44-1.45,27.78-2.92,55.56l-6.51-34.16c-.87,12.08-.8,64.54.23,76.61-.93-9.71-3.1-59.5-6.4-68.38a92.22,92.22,0,0,0-.19,21.33,90,90,0,0,0-4.33-17.06c1.34,12.82,2.68,93.2,4,109.15H477.32c8.87-27.16,17.74-117.15,26.62-141.19C495.83,441.27,487.72,496.52,479.62,517Z"/>
                  </g>
                  <g>
                    <path class="b6e4fa68-01ec-4c3c-b031-6a6c854b7af2" d="M-33.13,558.63-52.23,420c7.82,20.47,15.63,118.13,23.45,138.6-6-21.72-10.6-121.07-13.77-143.46A421.22,421.22,0,0,0-30,467.32q-3-29.07-6.08-58.15Q-28.72,438.6-21.38,468q-1.25-27.79-2.5-55.59a443.41,443.41,0,0,0,9.22,59.63A273.2,273.2,0,0,1-4.51,418.63a198.26,198.26,0,0,0-5.12,59.09,161.55,161.55,0,0,1,17-47.64A237,237,0,0,0-2.8,476.41,206.84,206.84,0,0,1,12,440.13C5.57,453,1.31,544.15-.44,558.63c4.1-12.33,9.87-101,17.07-111.64C11,458.24,6.71,546.19,4.09,558.63c4.65-12.49,11.86-99.79,21-109.13-5,10.06-10.83,45.53-13.86,56.44,5.23-9.54,12.9-43.54,19.39-52.17C26.8,463,23,549.45,19.19,558.63c6-9.2,12.07-95.71,18.11-104.92-3.4,10-6.8,94.95-10.2,104.92C32.69,549.09,39,465,45.92,456.51c-4.29,10.57-8.58,91.55-12.87,102.12C38.48,549,43.91,469,49.34,459.39l-8.43,99.24c4-8.22,7.91-87,11.87-95.19l-5.55,95.19L54.64,477s4.76-9.79.26-39.74c0,0,4.77,28,4.77,36.66l1.58-33.3,5,28a315.25,315.25,0,0,1-1.58-46.29,381,381,0,0,0,6.94,47.84q0-17.93.08-35.84,1.38,22.61,2.78,45.22l6.21-27.81c.83,9.84.76,97.06-.21,106.88.88-7.9,2.94-92.95,6.1-100.17a64.69,64.69,0,0,1,.18,17.36,64.2,64.2,0,0,1,4.13-13.89c-1.28,10.44-2.56,86.26-3.84,96.7H-30.94c-8.46-19.57-16.92-103.21-25.39-122.78C-48.59,452.49-40.86,542-33.13,558.63Z"/>
                    <path class="fb22f936-4621-4d36-8aab-12d5bc463a4c" d="M156.87,484.07l5.67-19.29a51.94,51.94,0,0,0-9.84,18.86q1.74-13.35,3.47-26.69a53.7,53.7,0,0,0-6.42,22.86L151,447.22a136.33,136.33,0,0,0-3.3,35.83q-3.16-16.82-6.32-33.62a117.28,117.28,0,0,0,2.19,35.73l-10.46-40C135.56,462.38,138,489,138,489q-1.92-8.33-3.86-16.65-.84,7.4-1.7,14.79-1.64-9-3.28-18a52.62,52.62,0,0,0-1.51,17.22A129.55,129.55,0,0,0,116.24,449a166,166,0,0,0,4.15,29.72A169,169,0,0,1,106,442.49q3.84,20.49,5.73,41.23-5.89-19.59-11.78-39.16,2.15,20.57,4.31,41.14a381.71,381.71,0,0,1-11.1-45.49l3.6,46.37a193.77,193.77,0,0,1-8.89-42.47,224.11,224.11,0,0,0,5.63,50.12A131,131,0,0,1,81.2,454.64c1.9,15.73,4.73,89.83,8.5,104h66.51c3.29-10.28,5.43-77.95,6.39-88.63Z"/>
                    <path class="ef37562e-f5fb-47bc-89c0-eb5a88486caa" d="M208.38,461.62a240,240,0,0,0-12.6,26.81l9.27-28.12A123.1,123.1,0,0,0,191.65,487a267.83,267.83,0,0,1,8.12-29.16c-4.42,6.53-9,13.42-10.78,21.1l4-25.68a133.5,133.5,0,0,0-9.33,30.2l.15-34.19a239.83,239.83,0,0,0-4.42,30.21q-.88-18.86-1.78-37.73a249.37,249.37,0,0,0-1.91,33.35q-2.76-18-4.21-36.16a428,428,0,0,0,.43,45.45q-3-19.33-6-38.68l1.44,45.64a213.33,213.33,0,0,1-12.58-42.48c2.08,15.6,4.16,94.16,6.25,109.76h37.6C197.86,543.93,203.16,475.28,208.38,461.62Z"/>
                    <path class="b8e27f2d-7203-440d-9338-cf94659293f6" d="M505.26,451.79a290.64,290.64,0,0,0-12.59,30.4l9.26-31.88a147.36,147.36,0,0,0-13.4,30.26,335.67,335.67,0,0,1,8.12-33.06c-4.42,7.4-9,15.21-10.78,23.92l4.05-29.11a166.33,166.33,0,0,0-9.33,34.24l.15-38.77a306.17,306.17,0,0,0-4.42,34.26q-.88-21.41-1.78-42.79a320.3,320.3,0,0,0-1.91,37.82q-2.76-20.4-4.21-41c-.66,17.17-.52,34.39.43,51.54q-3-21.93-6-43.86l1.44,51.75a266.71,266.71,0,0,1-12.58-48.16C453.78,455,455.87,541,458,558.63h37.6C494.74,542,500,467.28,505.26,451.79Z"/>
                    <path class="a27867d3-f216-4972-a147-64e4ee44c1bd" d="M285.49,472.07A65.63,65.63,0,0,0,275.27,487L283,470.13a72.61,72.61,0,0,0-10,16q3.3-9.12,6.58-18.24a98.71,98.71,0,0,0-9.44,17.51l7.2-21.05a175.51,175.51,0,0,0-9,19.12l4.44-22.66a117,117,0,0,0-7.28,21.06L269,454.54a79.39,79.39,0,0,0-6.33,24.6,270.15,270.15,0,0,1,.52-33.18c-1.58,7.75-3.16,15.71-2,23.54q-2.42-16.2-6.08-32.15l1.62,26.42-5.43-24.89,3.54,27.88q-2.55-6-5.12-11.9-.36,6.78-.71,13.55-1-10.26-2-20.53l-1.41,25.28a240.31,240.31,0,0,1,.1-32.09,151,151,0,0,0-1.2,45.16,314.49,314.49,0,0,1-7.79-45.49c.8,17.54,1.6,35.13,4.5,52.42l-14.92-43.82c5.33,18.06,9.89,90.8,13.66,109.29h38.24c-1.44-5.43-.86-65.77.71-71.17S283,477.05,285.49,472.07Z"/>
                    <path class="a79e3ac6-7c6a-4e14-9b28-b280d475b909" d="M245.64,490.52a48.22,48.22,0,0,0-9.49,10.58q3.58-6,7.18-11.94a51.25,51.25,0,0,0-9.26,11.33q3-6.45,6.11-12.9A66.42,66.42,0,0,0,231.41,500l6.69-14.88a113.64,113.64,0,0,0-8.37,13.52q2.07-8,4.13-16a70.41,70.41,0,0,0-6.76,14.88q1.64-9.66,3.26-19.34a45.78,45.78,0,0,0-5.88,17.4,144.74,144.74,0,0,1,.49-23.46c-1.47,5.48-2.95,11.1-1.87,16.64A232.16,232.16,0,0,0,217.44,466q.76,9.34,1.51,18.68l-5-17.59q1.65,9.84,3.29,19.7l-4.76-8.41-.66,9.58-1.89-14.51q-.64,8.94-1.31,17.87a129.28,129.28,0,0,1,.1-22.69,81.41,81.41,0,0,0-1.11,31.93,173.28,173.28,0,0,1-7.24-32.16c.74,12.4,1.49,24.84,4.18,37.06l-13.87-31c5,12.76,9.19,71.1,12.69,84.17h35.53c-1.34-3.84-.8-53.41.65-57.22A58.29,58.29,0,0,1,245.64,490.52Z"/>
                    <path class="b1e4b36c-772f-4282-9894-c2a10f086682" d="M274.67,515.76l-13.29-65.49c5.44,14.25,10.88,51.24,16.31,65.49-4.17-15.13-7.37-53.29-9.57-68.87a293.14,293.14,0,0,0,8.73,36.29q-2.1-20.24-4.22-40.47l10.22,41L281.11,445a308.36,308.36,0,0,0,6.41,41.5,190.5,190.5,0,0,1,7.07-37.19A138.06,138.06,0,0,0,291,490.42a112.43,112.43,0,0,1,11.87-33.16,164.8,164.8,0,0,0-7.11,32.25,143.32,143.32,0,0,1,10.33-25.25c-4.51,9-7.47,41.42-8.69,51.5,2.86-8.59,6.87-39.33,11.88-46.73-3.95,7.83-6.9,38.06-8.73,46.73,3.24-8.7,8.26-38.48,14.61-45a124.05,124.05,0,0,0-8.41,22,157.87,157.87,0,0,1,12.26-19c-2.65,6.4-5.3,35.61-7.95,42,4.21-6.41,8.41-35.64,12.61-42.05-2.37,6.94-4.73,35.1-7.1,42.05,3.89-6.65,8.27-34.18,13.1-40.1-3,7.36-6,32.74-9,40.1,3.78-6.69,7.56-31.41,11.34-38.1l-5.87,38.1c2.75-5.73,5.51-29.56,8.26-35.28l-3.86,35.28,5.15-25.83s3.32-6.82.19-27.66c0,0,3.31,19.48,3.31,25.52l1.11-23.18,3.45,19.49a219.41,219.41,0,0,1-1.1-32.22,264.33,264.33,0,0,0,4.83,33.29q0-12.46,0-24.94,1,15.74,1.94,31.47l4.32-19.35c.58,6.85.53,36.57-.15,43.41.61-5.51,2.05-33.72,4.25-38.74a44.42,44.42,0,0,1,.12,12.08,45.45,45.45,0,0,1,2.88-9.67c-.89,7.27-1.78,70.17-2.67,79.2H276.2c-5.89-15.38-11.78-83.73-17.67-97.35C263.91,472.86,269.29,504.17,274.67,515.76Z"/>
                    <path class="e1ea6b2f-b5bd-4297-9416-61e87928d972" d="M362.71,558.63,347.25,455.35c6.32,13.34,12.65,89.94,19,103.28-4.85-14.16-8.58-91.86-11.15-106.45a230,230,0,0,0,10.17,34l-4.92-37.9,11.89,38.35q-1-18.11-2-36.23a236.78,236.78,0,0,0,7.46,38.87,148,148,0,0,1,8.22-34.83A104.88,104.88,0,0,0,381.73,493a93,93,0,0,1,13.8-31.06,129.67,129.67,0,0,0-8.27,30.21,121.32,121.32,0,0,1,12-23.65c-5.24,8.41-8.69,80.74-10.11,90.18,3.32-8,8-78.78,13.82-85.71-4.6,7.33-8,77.6-10.15,85.71,3.76-8.14,9.6-78,17-84.08a103.51,103.51,0,0,0-9.78,20.58,148.08,148.08,0,0,1,14.25-17.79c-3.08,6-6.16,75.3-9.23,81.29,4.88-6,9.77-75.33,14.66-81.33-2.76,6.5-5.51,74.83-8.26,81.33,4.52-6.22,9.62-74,15.24-79.51-3.48,6.89-6.95,72.62-10.43,79.51,4.4-6.26,8.8-71.36,13.19-77.63l-6.82,77.63c3.2-5.36,6.41-69.63,9.61-75l-4.5,75,6-66.14s3.86-6.39.22-25.9c0,0,3.85,18.24,3.85,23.89l1.29-21.71,4,18.26a165.56,165.56,0,0,1-1.27-30.18A201.84,201.84,0,0,0,447.47,488l.06-23.37,2.25,29.48q2.52-9.06,5-18.13c.68,6.42.62,76.21-.17,82.61.71-5.15,2.39-73.52,4.94-78.24a33.88,33.88,0,0,1,.14,11.32,36.48,36.48,0,0,1,3.35-9c-1,6.8-2.07,69.17-3.11,76H364.48c-6.85-12.75-13.7-80.22-20.55-93C350.19,476.51,356.45,547.78,362.71,558.63Z"/>
                    <path class="b2887bda-3763-4ca4-8941-7c1514c2bf48" d="M572.79,476.47l1.71-25.31a160.9,160.9,0,0,0-5.12,27.21c-.55-7.53-.73-15.09-.54-22.64q-1.47,11-3,21.95-.61-13.12-1.22-26.27-1.11,12-2.2,23.93l-.84-38.5q-3.12,20-6.26,40,1.54-18.81,3.08-37.63a130.91,130.91,0,0,0-8.83,33.35Q551,459,552.3,445.37a95.6,95.6,0,0,0-6.41,24.18q1.43-18.15,3.85-36.18a162.94,162.94,0,0,0-6.9,37.47l-3.48-29.07q.76,12.9,1.54,25.79a138,138,0,0,1-6.48-25.18l1.8,25.38L532.76,453l-2.55,16.43a79,79,0,0,0,.6-16.12q-2.5,8.9-5,17.79l1.44-18q-2.89,6.39-5.78,12.77l3.75-20q-4.59,10.48-9.19,21a106.89,106.89,0,0,0,6.05-28.32,114.87,114.87,0,0,1-10.58,24.84l4-19a71.81,71.81,0,0,0-7,16.23q.48-10.45,1-20.93a130.63,130.63,0,0,0-5.07,24.81q-1.12-16.31-1-32.68A244.41,244.41,0,0,0,499.62,476a347.89,347.89,0,0,1-5.06-39.24A218,218,0,0,0,496,483.23a134,134,0,0,1-9.81-41.45c1,19.62,4.48,98.51,10.37,116.85h75.5c3.23-16.3,5.28-92.1,6.11-108.83A155.78,155.78,0,0,0,572.79,476.47Z"/>
                  </g>
                </g>
                <g>
                  <path class="b2bda1d6-39d2-42f0-8ddf-313c6bafde7f" d="M85.79,513.49a60.24,60.24,0,0,0-13.14,21q3.24-13.2,6.49-26.41L67.68,529.21q3.36-18.35,6.73-36.7a67.81,67.81,0,0,0-9.92,33Q62.44,507.25,60.4,489a118.53,118.53,0,0,0-3.26,38.41q-1.68-19.85-3.38-39.7a193.26,193.26,0,0,0-.39,42.33l-10.2-31.33A156.61,156.61,0,0,0,48,526.82a236.09,236.09,0,0,0-16.32-35.33,227.45,227.45,0,0,0,3.78,38L23.68,498.3l.42,35.82a154.45,154.45,0,0,1-7.79-33.84l-5.94,21.47a109.35,109.35,0,0,1,4.47-41.28,121.56,121.56,0,0,0-12.63,28.6L12.15,474a135.93,135.93,0,0,0-20.79,30,289.67,289.67,0,0,1,15.35-43,157.82,157.82,0,0,0-21.34,38.48A139.59,139.59,0,0,1-2.22,462.27a98.73,98.73,0,0,0-21.14,32.87,166.37,166.37,0,0,1,8.08-39.51,87.24,87.24,0,0,0-10.91,29.72A119.07,119.07,0,0,1-31,453.07a114,114,0,0,0-2.66,34.37q-4.64-14.31-9.26-28.63a93.07,93.07,0,0,0,3.05,28.44l-15-26.27,8.8,25.8a79.48,79.48,0,0,0-13.61-21.47V591H77.28C76.88,575.09,79.78,528.58,85.79,513.49Z"/>
                  <path class="ea77cefb-719d-4d57-885c-e6c6498c262b" d="M137.74,543.59q3.18-12.47,6.37-24.93a137.38,137.38,0,0,0-9.56,22.84q1.56-12.19,3.13-24.39L129.46,540q2.49-14.31,5-28.62a180.26,180.26,0,0,0-10.9,26.85l2.18-26.82a63.28,63.28,0,0,0-8,25.12l1.41-38.66a185,185,0,0,1-14.51,40l2.64-29.15a258.36,258.36,0,0,0-10.62,29,250,250,0,0,1-4.49-39.55,256.61,256.61,0,0,0-4.81,39.19q-3.06-19.29-6.1-38.59a165.36,165.36,0,0,0-4.69,39.93q-3.31-18-6.61-36l-1.65,38.85a138.69,138.69,0,0,1-6.95-44.31c-2.57,21-1.69,73,2.61,93.82h71.19c5.7-12.53,10-56,12.81-69.27Q142.82,532.67,137.74,543.59Z"/>
                  <path class="b0f1217a-403d-41e2-9a64-b11ef50b67a6" d="M243.9,536.38l2.53-26.53a125.91,125.91,0,0,0-7.59,28.52,171,171,0,0,1-.79-23.73q-2.19,11.5-4.39,23-.9-13.77-1.81-27.54-1.64,12.54-3.26,25.09l-1.23-40.36-9.27,41.93q2.26-19.71,4.55-39.44a106.8,106.8,0,0,0-13.08,34.95l4-28.49a78,78,0,0,0-9.5,25.34q2.12-19,5.71-37.92a127.4,127.4,0,0,0-10.23,39.27L194.37,500q1.15,13.51,2.29,27a112.16,112.16,0,0,1-9.59-26.4q1.34,13.3,2.66,26.6l-5.12-15.46L180.83,529a59.27,59.27,0,0,0,.88-16.91q-3.69,9.33-7.4,18.65l2.13-18.89-8.56,13.39q2.77-10.49,5.56-21l-13.62,22a84.76,84.76,0,0,0,9-29.69,105.6,105.6,0,0,1-15.67,26q3-10,6-19.95a65.75,65.75,0,0,0-10.4,17q.72-11,1.43-21.94a102.85,102.85,0,0,0-7.51,26,318.79,318.79,0,0,1-1.51-34.26,184.16,184.16,0,0,0-5.61,46.42,264.68,264.68,0,0,1-7.5-41.13,163.16,163.16,0,0,0,2.11,48.7A108,108,0,0,1,115.61,500c1.44,20.56,6.64,71.78,15.36,91H242.8c4.79-17.09,7.82-65.06,9-82.6A122.91,122.91,0,0,0,243.9,536.38Z"/>
                  <path class="ec61fe45-98d6-423d-a3f2-dd519764ea2d" d="M369.68,507.37a52.9,52.9,0,0,0-11.8,29.17,92.22,92.22,0,0,1,6.69-30.67,65.12,65.12,0,0,0-12.22,31.4A174,174,0,0,1,358,503.65,52.52,52.52,0,0,0,347,535,155,155,0,0,1,348.57,498a111.28,111.28,0,0,0-4.94,39.21l-16.29-44.46q4.44,20.49,8.87,41L317.4,500.6a63.82,63.82,0,0,1,8.21,36.22A22.74,22.74,0,0,1,318.52,524q-.37,7.94-.77,15.88a97.3,97.3,0,0,1-3.16-21q-2.07,8.89-4.13,17.8A151.48,151.48,0,0,1,312,510.35a89,89,0,0,0-9.51,26,86.36,86.36,0,0,1,7.26-29.48,155.83,155.83,0,0,0-14.9,19,72,72,0,0,1,13.42-21.64c-8.55,3.51-15.36,10-18.56,17.54a82.92,82.92,0,0,1,9.36-26.9,46.11,46.11,0,0,0-15.79,26.95q.44-14,.89-28a103.38,103.38,0,0,0-6.92,30.87,307.63,307.63,0,0,0-1.34-52.47q-1.85,17.22-3.68,34.45l-4-27.45q-1.74,19.13-3.49,38.26l-1.77-27a128.26,128.26,0,0,0-3.59,33.69,241.58,241.58,0,0,1-4.6-35.48,417.13,417.13,0,0,0-2.94,42.95,268.16,268.16,0,0,1-8.18-37.23l1.47,43.75a252.74,252.74,0,0,1-12.22-38.29,314.88,314.88,0,0,0,4,46.95,68.63,68.63,0,0,1-12.21-39.22c-.32,16.87,2.91,67.58,9.49,83.5H363C361.05,573.17,363.33,524.47,369.68,507.37Z"/>
                  <path class="aa88ca63-d05a-4458-99db-19b339883c44" d="M572.85,535.63q3.79-11.93,7.58-23.84a62.71,62.71,0,0,0-13.16,23.31q2.33-16.5,4.64-33a62.57,62.57,0,0,0-8.59,28.25L565,490.1a155.69,155.69,0,0,0-4.42,44.27l-8.46-41.54A134,134,0,0,0,555.1,537l-14-49.36c3.24,21.22,6.56,54.1,6.56,54.1l-5.16-20.58-2.28,18.28q-2.19-11.11-4.39-22.22a60.31,60.31,0,0,0-2,21.28,150.76,150.76,0,0,0-15.32-46.12,191.07,191.07,0,0,0,5.56,36.72,199.27,199.27,0,0,1-19.31-44.81,503.08,503.08,0,0,1,7.67,50.93q-7.89-24.2-15.76-48.38,2.88,25.41,5.77,50.82a442.14,442.14,0,0,1-14.85-56.19q2.42,28.65,4.82,57.29a222.77,222.77,0,0,1-11.89-52.48A255.88,255.88,0,0,0,488,548.17a152.64,152.64,0,0,1-16.39-48.91C474.16,518.7,478,573.53,483,591h89c4.39-12.71,7.26-59.58,8.54-72.78Q576.69,526.94,572.85,535.63Z"/>
                  <path class="a0bca2a2-1064-4c74-b338-25506cf0b641" d="M479.62,574.82l20-79.15c-8.19,17.22-16.38,61.93-24.58,79.15,6.28-18.28,11.11-64.41,14.43-83.24a296,296,0,0,1-13.16,43.87q3.18-24.47,6.37-48.92Q475,511.28,467.3,536q1.31-23.38,2.62-46.76a304.53,304.53,0,0,1-9.67,50.17,189.69,189.69,0,0,0-10.64-45A135.07,135.07,0,0,1,455,544.2a119.43,119.43,0,0,0-17.87-40.08,165.91,165.91,0,0,1,10.71,39,155.9,155.9,0,0,0-15.56-30.51c6.79,10.85,11.25,50,13.09,62.24-4.31-10.37-10.35-47.54-17.9-56.47,6,9.46,10.4,46,13.15,56.47-4.88-10.51-12.43-46.51-22-54.37A133.73,133.73,0,0,1,431.27,547a193.6,193.6,0,0,0-18.47-23c4,7.73,8,43,12,50.77-6.32-7.75-12.65-43.07-19-50.82,3.56,8.39,7.13,42.43,10.69,50.82-5.86-8-12.46-41.31-19.73-48.47,4.5,8.89,9,39.58,13.5,48.47-5.69-8.09-11.39-38-17.08-46.05L402,574.82c-4.14-6.92-8.29-35.72-12.44-42.64l5.82,42.64L387.6,543.6s-5-8.24-.27-33.43c0,0-5,23.54-5,30.84l-1.66-28-5.2,23.55a213.12,213.12,0,0,0,1.65-38.94,261.34,261.34,0,0,1-7.27,40.24q0-15.08-.08-30.15-1.45,19-2.92,38.05l-6.51-23.4c-.87,8.28-.8,44.2.23,52.47-.93-6.65-3.1-40.75-6.4-46.83A43.44,43.44,0,0,0,354,542.6a46.87,46.87,0,0,0-4.33-11.69c1.34,8.79,2.68,49.19,4,60.11H477.32c8.87-18.6,17.74-65.59,26.62-82C495.83,523,487.72,560.81,479.62,574.82Z"/>
                </g>
              </g>
              <rect class="e8b35056-0755-487a-b90e-833231ff6705" x="-29.03" y="-38.43" width="835.66" height="582.35"/>
              <g>
                <path class="f1bf8cec-06a9-4665-aa08-a9910433b996" d="M35.19,134.18s.52-4.43,7.08-7.45,12.09-4.66,17.79-1.17,4.49,11.41,3.28,12.35c-2.35,1.8-7.4,4.18-20.89,1.86C34.33,138.37,35.19,134.18,35.19,134.18Z"/>
                <path class="fdcd0f04-5189-471a-b958-d4980bf91203" d="M7.42,127.28S9,118.68,21,114.1s19.79-6.76,26.7,1.87,3.81,22.49-.91,24-24.47,2.14-36.51-4C10.23,136,5.93,133.28,7.42,127.28Z"/>
              </g>
              <g>
                <path class="e625f372-fc5c-4678-9b23-235ecb596a41" d="M220.76,62.23s.7-3.89,9.59-6.55,16.37-4.1,24.09-1,6.08,10,4.44,10.85c-3.18,1.59-10,3.68-28.3,1.64C219.59,65.91,220.76,62.23,220.76,62.23Z"/>
                <path class="f3f8f233-5362-44ac-8708-d9e7c0c1e3e7" d="M181.55,56.86s2.43-8.53,19.39-13.61,28-7.58,37.41.58,4.66,21.94-2,23.69-34.41,3.27-51.11-2.17C185.23,65.35,179.27,62.84,181.55,56.86Z"/>
              </g>
            </g>
          </g>
        </g>
      </g>
      <g class="a78d24d5-5fa1-428b-8e71-2eeb37101a62">
        <g class="f42a8b20-a3c9-4209-9f99-c8fa786737e4">
          <rect class="ebcb2354-13c4-4a9f-92cf-289fe308cc92" x="-764.02" y="-3.44" width="948.95" height="398.2"/>
          <path class="a1113f81-18a3-4cbb-ab64-7901ebcac310" d="M83,296.37l0,95.49-755.25.45,0-78.15,4.78.18.29,7.33h4.28l-.14-11.42,25.27.85v9.48l29.57.2L-607,193.09l6.56-.65,7.93,2v-1.19h-1.14V192h.93v-3.35h.49v3.67h1.71v-3h.64v3.13l1.44.64-.15,1h-.36v.87l1.36.21v6.47l4.93-.65v-1.19h.29v1h1.07V189.52l5.79-.33V187.9h.57v-3.13h-.5v-1.18h1.72v4.74h.44v1.61h3.63v-2.48h1.43v1.62h-.49l.07,1.4,7.28,1.19-.06,16.71,4.43.75v1.94l.79,1.18-.89,90.05,4.86-.43,3,.1.29-10.46,3.2-.43v-5.72l13.64-.23v-2.36l10.35-.12v-2.37h1.15v-13.8l.74-1.14v-7.17h3.11v-5.5h1.28v.54h1.58v-8.74l.36.43v1.73l.86.22v.64h1.07l.07-1.08.58-.21v1.08l1.49.1.22-1,.86-.11.21,1,1.71.11-.07-.86.79.11v.64h1.42V246l.36-.22.07-1.72h.65l.15,3.23,1.78.11.07-2.48.43.1.21,2.38,1.29.53.07-2.91h.28l.08,3,1.35.33.29-.87V246.3l.71.1.07,2.27-.28.64.07,5.07,2.36.22.43,5.07.36.1.29.86,1.28-.1.06-9.17.65.11L-491,261l6.36.43-.63,44.21h.86v1l.29.33-.07,1.28-.43.23-.14,9.38.86.32v1.18h-.57l-.07,3.46,4.57-.11c-.22,0,.14,1.29.14,1.29l2.5.11-.36,1.28-.43.33h-.64l.29,6.37.58.53v7h1.07l.45-83,7.15-1.84v-5l8.22-1.84v-.76h2.14l.29.54,19.49,1.18v5.5l7.86.86-.15-9.7,2.71-1.3,1.14-17.58,23.93.42,1.57,18.55,4.44.1-.08-2,.79.09.77-14.88,3.22-.64-.16-29.45,9.5.1,6.07,1,0-42.28,4.36-1.83h2.43V154h.43v1.51l6.5-.32v-2h.43V155l3.86-.32v1.08h.78v-1h4.86l5.93,3,8.14-.87,2.07,1.5-.74,89.08,5.79,1.18.2-13.05,3.08.11V224.85l8-1.3-.22-14.56,1-.87,4.07-.64V193.13l.78-.64s3.64-.87,3.43-.87,10.56-12.29,10.56-12.29h2.14L-289,191.39l.51.22.14.65,3.35.85-.06,14.78,5.14,1-.05,24.26,10.27.32.29-4.1h.5l.14,2.69h.51l-.07,1.41,18.42.63.07,3.88,5.73-.86.2-7.44,4.07-.22,1.57-6,.14-2.81h.93l.36,2.27h1.56v-.54h1.79V223l9.72-1.73v-.86h-.5v-1.83h3.06v2.8l2.5.11v-1.19l1.07-1.62.94.11v1.61l-.58.12.29,1.18.57.11.22,2.26-.07.86.5-.1v2.05h.42v1.51h4.43l-.34,45.73h-2.93l-.06,14.66,1.71.22v17.8l1.5.1V296.17l.85-.22.08-3.45,7.5.64v-1.08H-195v1h3.29l0-57.36.5-.54.94-.11.07-.55.71-.2.21-.44,2.21-.11.07-.64,1.58-.12v-6.36l2.49-1.83,15.37.74v-.75h1.72v.65l7.13-.12.22,8.85,6.43.1-.23,105.36,1.15-.12,0-71.81.5-.11.07-1.61,4.22.1v1.4h1.21v-.86H-141v.76h.72l-.17-37.42,5.86-3.68-.08-6.25,5.29-3.77,16,.32v2.9l1.07-.1,1.35-.76v-1h.58l.35.54,3.72-.12V217h-.36l-.82-1.24.64-1,.89-1.35h1.08v-3.34h.78v3.56l9-.23v-1h.79v1.4l1.21.76.07,1.17-.93,2.17.15,4.84.72.65h1.78l-.07.43.65.11v7.11H-87v-1l.64-1,1,1.08.16,35.8,1.08.43v8.09l3.07.32-.07,8.52,1.36.32.15,4.43.78.42.07,16.5.51.11,0,39.9.28-.11.22-1.07h2.35v.86c0,.42.22.42.22.42l.07,1.08,4.5-.11-.22-5.92s-.78-1.19-1.21-1.3l-.14-.75h1.71v-.76l1.64.11v.32l.57.44.08.32h1.42l.15-.55a1.9,1.9,0,0,1,.78-.64c.51-.22.78.86.78.86h1.65l-.22-6.58.86-.21-.08-25.35,1.36-1.83H-57l.11-63.52,1.5-.11v-5.82l1,.11.07,1.18.64-.21-.07-1.08,6.78.1L-44,222.2l.14-2.16.28-.43.35-3.46.43,3.46.43.64.22,1.95,2.58,13.25,16.13.54,2.15.1,2.07,2.48.15,13.26.65.22.28,1.08.65.11-.05,46.91h5l3.21,3.23-.06,6.79,1.5.32L-8,317.07l2.66.11V336.8H-4v-2.7l7.57-.75v-4.64l.65-1h1l.15-10L8,315H9.38v-1H8.66v-8.3l3.58-2.91,15.93.31v8.73L27.38,313l.07,1.72h4.36l.07,4.21-.42.43.28.75,5.08,6.15,2.93.11v9.59h3.43v23.72h5.86l0-63.51H54.8V295h.79v1.19h1v-1h.65v1H59v-1.83h.43v1.72l6.71.43v-1.4l.58-.33.21.32.14.87h1v-2.16h1.57v1.94h1.08V294.6h1.72v1.08l.29-.11,1-1.3v1.83Z"/>
          <path class="f166ca41-11a6-422a-9bfc-23f04983e5ea" d="M535.75,413.11c-1.1,1.34-2.28,2.64-3.52,3.89-.92.91-1.87,1.78-2.83,2.62H553Q544.39,416.31,535.75,413.11Z"/>
          <path class="f166ca41-11a6-422a-9bfc-23f04983e5ea" d="M194.43,413.47c-.19-.64-.34-1.28-.48-1.93-3-14.58-2.23-24,.34-38.65A96.26,96.26,0,0,1,199.2,356c.39-1.38.83-2.74,1.32-4.07v-.08c.41-2.56.85-5.2,1.44-7.81-5.54,1.59-9.62,7.09-9.62,13.64a15.06,15.06,0,0,0,.29,3,7.74,7.74,0,0,0-4.36-1.36,8.11,8.11,0,0,0-6.75,3.8,18.87,18.87,0,0,0,.49-4.29c0-9.63-7.14-17.43-16-17.43a14.81,14.81,0,0,0-7.78,2.22,8.54,8.54,0,0,0-8.17-7.49,7.91,7.91,0,0,0-5.9,2.7,21.51,21.51,0,0,0-16.44-7.88A21.73,21.73,0,0,0,110,340.61a7.88,7.88,0,0,0-5.5-2.28c-4.58,0-8.29,4.06-8.29,9.06a10.05,10.05,0,0,0,.12,1.56,10.37,10.37,0,0,0-8.14-4.08c-4.94,0-9.1,3.64-10.36,8.61a11.44,11.44,0,0,0-10.69-8.31A10.41,10.41,0,0,0,62,346.52a7.43,7.43,0,0,0,1.23-4.12c0-3.88-2.88-7-6.43-7a6.13,6.13,0,0,0-4.25,1.76,10.53,10.53,0,0,0-9-5.28,10.17,10.17,0,0,0-7.07,2.9,27.55,27.55,0,0,0-18.92-7.67c-11.61,0-21.62,7.46-26.26,18.23A10.25,10.25,0,0,0-16.27,342C-22.2,342-27,347.21-27,353.7A12.6,12.6,0,0,0-26,358.79,12.68,12.68,0,0,0-33,356.62c-6.13,0-11.32,4.44-13,10.55a9,9,0,0,0-7.63-4.4A8.82,8.82,0,0,0-60,365.45c-2.4-7.48-8.91-12.84-16.58-12.84a17.29,17.29,0,0,0-14.92,9.07v57.94H197A57.22,57.22,0,0,1,194.43,413.47Z"/>
          <rect class="b5564312-7aa0-4336-ba05-698458eee186" x="-770.11" y="395.94" width="954.27" height="171.89"/>
          <g class="ee00d26e-d643-4791-be9e-04ad706f7ca7">
            <path class="e25af7b6-659e-42b3-9ba8-512caa66a1f3" d="M66.44,236.86c-3.58-17.48-27.59-30.9-45-33.87,18.78-54.35,4.9-109.81-34.11-149.28-16.63-16.84-36.89-32.29-60.6-39.64s-47.54,6.22-59.52-19.39A116.79,116.79,0,0,0-175-54c-22-14.12-79.41-30.25-134.89,15.32-42.21-70-196.12-22-198.28,55.1C-523.33,14.65-546,22.66-562,42c-29.65,35.93-16.29,74.54,8,92.87-47.77,5.87-49.88,70.5-18.26,104.46-11.5,5.46-1.91,23.76,7.2,30.63-41.74,17.38-99.84,81.92-70.69,126.24,22.94,34.88,72.86,4.48,99-11.91,18.8-11.79,52.52-15.17,61.91,4.55,13.23,27.75-23.07,52.8,22.91,66,43.9,12.61,157.52-64.23,180.93-46.87,23,17,2.41,45.9-40.39,70.93-3.31,1.93-6.4,3.86-9.31,5.79l1.55,0c13.13-1,26.25-2.26,39.36-3.48,14.79-1.38,29.6-2.74,44.43-3.69a39.48,39.48,0,0,1,2.51-5.85,40,40,0,0,1,11-17.14,40,40,0,0,1,17.14-11,40.14,40.14,0,0,1,20.52-4.59c9.48,0,19-.14,28.45-.53l.3-2.27c0-.26.1-.52.16-.78a2.6,2.6,0,0,1,.15-.42l5.37-12.73.4-.71,8.33-10.78a1.81,1.81,0,0,1,.25-.3l.46-.44q5.4-4.16,10.78-8.33a2.2,2.2,0,0,1,.32-.21l.55-.31c2.2-.94,4.4-1.86,6.6-2.78s4.37-1.94,6.6-2.78c.21-.06.41-.13.62-.18a56.72,56.72,0,0,1,6.67-1.19,38.43,38.43,0,0,1,2.46-3.07,53.08,53.08,0,0,1,5.94-15c6.44-8.46,8.28-10.81,8.33-10.78s-3.47,3.37-3.52,7.92a9.79,9.79,0,0,0,2.67,6.87c2.73,2.62,5.42,1.24,10,3.78a18.89,18.89,0,0,1,5,4.16c3.1,3.09,12.81,3.55,41.36-7.56,2.66-8,7.68-18.58,17.63-22.87,13.7-5.9,26.69,4.23,33.28-2.21,5.19-5.07,7.62-14.62,3.5-31.84-1.07-4.43,11.18-9.2,17.27-6.12C60.47,329.9,72.89,268.29,66.44,236.86Z"/>
          </g>
          <g class="f024b20e-3898-4218-a8a3-97a0374b8002">
            <polygon class="e2a0843d-8e0d-4fda-bd2e-ea1b31cfa140" points="-775.37 396.61 201.19 398.45 201.19 404.14 -775.67 402.04 -775.37 396.61"/>
            <g>
              <polygon class="beba1240-b9e5-415b-bcb0-70b34a286657" points="1.73 403.86 1.73 398.03 -33.56 397.96 -33.56 403.74 1.73 403.86"/>
              <polygon class="beba1240-b9e5-415b-bcb0-70b34a286657" points="79.03 404.05 79.03 398.17 43.74 398.1 43.74 403.93 79.03 404.05"/>
              <polygon class="beba1240-b9e5-415b-bcb0-70b34a286657" points="160.35 404.24 160.35 398.31 125.06 398.25 125.06 404.12 160.35 404.24"/>
            </g>
          </g>
          <g>
            <g class="a891ed1f-3283-44c8-86f5-f8e5669afede">
              <polygon class="a6273323-1d30-4595-9c29-fb51b16fe31b" points="26.71 429.98 30.34 423.51 45.07 425.1 26.71 429.98"/>
            </g>
            <ellipse class="a9452318-d6f4-4fbe-b157-1e94fba0fe58" cx="5.15" cy="440.27" rx="5.34" ry="2.35"/>
            <g class="e60b5a99-fa90-4ebf-aeea-7ca64aabc607">
              <polygon class="eedda681-ebcf-49a7-9c8f-c0e195e4dd8e" points="33.16 427.88 25.46 433.47 12.76 430.09 33.16 427.88"/>
            </g>
            <g class="a76099ed-cf30-435f-b9ff-8f03599968f3">
              <polygon class="a63a30e9-2929-47e4-a379-9f5369cc90a5" points="91.94 419.26 91.83 424.81 79.22 424.76 91.94 419.26"/>
            </g>
            <ellipse class="a9452318-d6f4-4fbe-b157-1e94fba0fe58" cx="35.89" cy="408.65" rx="4.18" ry="1.84"/>
            <polygon class="a9452318-d6f4-4fbe-b157-1e94fba0fe58" points="45.2 433.16 48.98 429.55 56.65 431.33 45.2 433.16"/>
            <g class="a891ed1f-3283-44c8-86f5-f8e5669afede">
              <polygon class="b4093f56-e24e-4c78-a2bb-5e7906e7e860" points="14.53 478.5 19.24 476.98 22.7 479.05 14.53 478.5"/>
            </g>
            <g class="bab5e34b-f304-42d1-a131-f58c828d0ee7">
              <polygon class="ea1adf3f-6b97-44aa-bbc3-5d9ab942d1c1" points="66.44 452.33 57.84 454.23 53.53 450.45 66.44 452.33"/>
            </g>
            <g class="a7000bf5-8ded-47a2-a71f-1a108c526fe2">
              <polygon class="a9452318-d6f4-4fbe-b157-1e94fba0fe58" points="-6.24 412.81 4.18 412.07 5.87 416.65 -6.24 412.81"/>
            </g>
            <g class="bea04686-9341-4b78-9df6-6419b1be0c97">
              <ellipse class="a9452318-d6f4-4fbe-b157-1e94fba0fe58" cx="10.49" cy="462.86" rx="4.94" ry="2.17"/>
            </g>
            <g class="e60b5a99-fa90-4ebf-aeea-7ca64aabc607">
              <polygon class="ea1adf3f-6b97-44aa-bbc3-5d9ab942d1c1" points="42.22 450.69 46.79 444.66 59.63 446.81 42.22 450.69"/>
            </g>
          </g>
        </g>
      </g>
    </g>
  </g>
</svg>
