<svg id="b7899dbc-35cc-4f1c-863e-6182992d62b4" data-name="Layer 1" xmlns="http://www.w3.org/2000/svg" xmlns:xlink="http://www.w3.org/1999/xlink" width="610" height="611" viewBox="0 0 610 611">
  <defs>
    <style>
      .f4d92eb9-cd67-4027-8b0d-db423d8f8eea {
        fill: url(#a405d430-b65d-4b36-922f-245429b956e7);
      }

      .e79a0ad3-33e8-4bcd-9ced-ad79d043eab5 {
        fill: #31d0e5;
        stroke-miterlimit: 10;
        stroke-width: 6px;
        stroke: url(#a9a9f54b-f6c0-448f-b7b2-64a94d53d71c);
      }

      .b8e7d5aa-aaea-49dc-844e-6251d1284eac {
        fill: #f2f2f2;
      }

      .a221dde0-2bc4-400b-9ac5-8d42373fdd2f {
        fill: #616161;
      }

      .f102f0ce-fb1e-44ec-8d9e-3552587ce620 {
        fill: #474747;
      }

      .f3f7b2e4-5c7b-44bf-a558-7e8d404bb7a9 {
        fill: #858585;
      }

      .fb34c2b7-e9d0-4238-a6aa-98435c88a4ba {
        fill: url(#f565b276-cfa9-49c6-896d-e057c2c87a1d);
      }

      .bfc743df-8a05-47c4-88f4-f3f4ee34cdb5 {
        fill: #b5c2cc;
      }

      .e43d666a-eda2-4e42-bc4a-3da12ce3eefd {
        fill: url(#a251ef81-6d1d-404b-8c6c-3ab4f3bb1217);
      }

      .fde409e3-7f13-439a-b1c6-dbf90ac65894 {
        fill: #f4f4f4;
      }

      .fe98d417-e533-4e10-9898-97ffafc58a20 {
        fill: #428eea;
      }

      .b102b3ed-549d-4e1b-bbfd-93c619d3da62 {
        fill: url(#b0f9b136-0966-4360-b9b6-8eae29a00d1d);
      }

      .a172ce66-e72c-449d-84cc-9dd25ae95538 {
        fill: #0f7d99;
      }

      .aaccd2e0-85fb-420f-a1de-a1c866c1eb4d {
        fill: url(#ab955e27-a55c-43c7-8988-eb7ffc54702e);
      }

      .afc96e4b-c6c5-47ab-92a1-b64d09921867 {
        opacity: 0.3;
      }

      .b1882d4c-0a23-469f-9534-2c388910e354 {
        fill: #fff;
      }
    </style>
    <linearGradient id="a405d430-b65d-4b36-922f-245429b956e7" x1="50.06" y1="130.82" x2="548.27" y2="472.19" gradientUnits="userSpaceOnUse">
      <stop offset="0" stop-color="#9b81cf"/>
      <stop offset="1" stop-color="#3b139b"/>
    </linearGradient>
    <linearGradient id="a9a9f54b-f6c0-448f-b7b2-64a94d53d71c" x1="12.74" y1="305.5" x2="597.26" y2="305.5" gradientUnits="userSpaceOnUse">
      <stop offset="0" stop-color="#4c1da9"/>
      <stop offset="1" stop-color="#997ece"/>
    </linearGradient>
    <linearGradient id="f565b276-cfa9-49c6-896d-e057c2c87a1d" x1="323.19" y1="244.58" x2="323.19" y2="217.13" gradientTransform="translate(-23.28 134.86) rotate(2.28)" gradientUnits="userSpaceOnUse">
      <stop offset="0" stop-color="#949494"/>
      <stop offset="1" stop-color="#e6e6e6"/>
    </linearGradient>
    <linearGradient id="a251ef81-6d1d-404b-8c6c-3ab4f3bb1217" x1="464.26" y1="121.93" x2="464.26" y2="94.48" xlink:href="#f565b276-cfa9-49c6-896d-e057c2c87a1d"/>
    <linearGradient id="b0f9b136-0966-4360-b9b6-8eae29a00d1d" x1="2297.46" y1="-15.03" x2="2327.39" y2="-15.03" gradientTransform="matrix(-1, 0.1, 0.1, 1, 2524.12, 21.03)" gradientUnits="userSpaceOnUse">
      <stop offset="0" stop-color="#005c9c"/>
      <stop offset="1" stop-color="#0099c9"/>
    </linearGradient>
    <linearGradient id="ab955e27-a55c-43c7-8988-eb7ffc54702e" x1="2352.99" y1="27.22" x2="2440.34" y2="27.22" xlink:href="#b0f9b136-0966-4360-b9b6-8eae29a00d1d"/>
  </defs>
  <g>
    <g>
      <g>
        <circle class="f4d92eb9-cd67-4027-8b0d-db423d8f8eea" cx="305" cy="305.5" r="301.94"/>
        <circle class="e79a0ad3-33e8-4bcd-9ced-ad79d043eab5" cx="305" cy="305.5" r="289.26"/>
      </g>
      <g>
        <g>
          <path class="b8e7d5aa-aaea-49dc-844e-6251d1284eac" d="M244.27,364.77C241.32,381.33,274.41,392,289,392c6.46,0,12.89-18.93,6-24.77-8.41-7.16-37.6-14.54-37.6-14.54S241.44,357,244.27,364.77Z"/>
          <path class="a221dde0-2bc4-400b-9ac5-8d42373fdd2f" d="M283.69,378c-2.1,14.05,11.69,16,13.52,1.89C299.31,365.86,285.52,363.94,283.69,378Z"/>
          <path class="f102f0ce-fb1e-44ec-8d9e-3552587ce620" d="M292,368.13a4.35,4.35,0,0,1,.94.25c2.43,6.18.11,17.41-4.84,21.19C280.27,387.28,283.61,366.73,292,368.13Z"/>
          <path class="f3f7b2e4-5c7b-44bf-a558-7e8d404bb7a9" d="M283.74,377.7c-.6,4,2.76,4.49,3.28.46S284.27,373.66,283.74,377.7Z"/>
          <path class="fb34c2b7-e9d0-4238-a6aa-98435c88a4ba" d="M282.2,377.81c-2.55,17.13,14.25,19.48,16.5,2.3C301.25,363,284.45,360.63,282.2,377.81Zm1.49.21c1.84-14.08,15.62-12.16,13.52,1.89C295.38,394,281.59,392.07,283.69,378Z"/>
          <g>
            <path class="a221dde0-2bc4-400b-9ac5-8d42373fdd2f" d="M284.61,380.93c-.3,1.09-1,3.35-.26,4.39L285,381A1.33,1.33,0,0,1,284.61,380.93Z"/>
            <path class="a221dde0-2bc4-400b-9ac5-8d42373fdd2f" d="M286.26,380.25c0,.07-.1.13-.14.19l2.53,8.59c.23-.23.45-.47.67-.72Z"/>
            <path class="a221dde0-2bc4-400b-9ac5-8d42373fdd2f" d="M286.86,378.9l5.66,3.71c.13-.36.25-.72.36-1.09l-5.95-2.85C286.91,378.75,286.88,378.83,286.86,378.9Z"/>
            <path class="a221dde0-2bc4-400b-9ac5-8d42373fdd2f" d="M293.87,374.94l-6.79,2.39c0,.13,0,.26,0,.4l6.7-.77A20,20,0,0,0,293.87,374.94Z"/>
            <path class="a221dde0-2bc4-400b-9ac5-8d42373fdd2f" d="M292,368.13a4,4,0,0,0-.59,0l-4.62,7.58a2.22,2.22,0,0,1,.13.31l5.88-7.65A4.26,4.26,0,0,0,292,368.13Z"/>
          </g>
        </g>
        <path class="bfc743df-8a05-47c4-88f4-f3f4ee34cdb5" d="M257.42,352.72s-16,4.29-13.15,12c-.93,5.24,1.74,9.89,6.3,13.81,10.53-5.51,33.69-13.47,38.38-15.06C277.27,357.74,257.42,352.72,257.42,352.72Z"/>
        <g>
          <path class="b8e7d5aa-aaea-49dc-844e-6251d1284eac" d="M390.11,247.83c-2.19,17.08,33.26,29.4,44.72,27.26,6.35-1.19,12.88-18.93,6-24.77-8.42-7.16-37.6-14.54-37.6-14.54S387.28,240.08,390.11,247.83Z"/>
          <path class="a221dde0-2bc4-400b-9ac5-8d42373fdd2f" d="M429.52,261.08c-2.09,14.05,11.69,16,13.53,1.89C445.14,248.92,431.36,247,429.52,261.08Z"/>
          <path class="f102f0ce-fb1e-44ec-8d9e-3552587ce620" d="M437.8,251.19a4.28,4.28,0,0,1,.93.26c2.45,6.18.11,17.4-4.84,21.18C426.1,270.33,429.45,249.8,437.8,251.19Z"/>
          <path class="f3f7b2e4-5c7b-44bf-a558-7e8d404bb7a9" d="M429.57,260.76c-.6,4,2.76,4.5,3.29.46S430.1,256.72,429.57,260.76Z"/>
          <path class="e43d666a-eda2-4e42-bc4a-3da12ce3eefd" d="M428,260.87c-2.55,17.13,14.25,19.48,16.49,2.31C447.08,246.05,430.28,243.7,428,260.87Zm1.48.21c1.84-14.08,15.62-12.16,13.53,1.89C441.21,277.05,427.43,275.13,429.52,261.08Z"/>
          <g>
            <path class="a221dde0-2bc4-400b-9ac5-8d42373fdd2f" d="M430.45,264c-.3,1.09-1,3.35-.27,4.39l.6-4.28A1.17,1.17,0,0,1,430.45,264Z"/>
            <path class="a221dde0-2bc4-400b-9ac5-8d42373fdd2f" d="M432.09,263.31a1.33,1.33,0,0,1-.14.19l2.53,8.59a9,9,0,0,0,.67-.71Z"/>
            <path class="a221dde0-2bc4-400b-9ac5-8d42373fdd2f" d="M432.7,262l5.66,3.7c.13-.36.25-.72.35-1.09l-5.95-2.85Z"/>
            <path class="a221dde0-2bc4-400b-9ac5-8d42373fdd2f" d="M439.7,258l-6.79,2.39c0,.13,0,.26,0,.4l6.71-.78C439.66,259.34,439.7,258.66,439.7,258Z"/>
            <path class="a221dde0-2bc4-400b-9ac5-8d42373fdd2f" d="M437.8,251.19a4,4,0,0,0-.6,0l-4.61,7.58.12.31,5.88-7.64A3.54,3.54,0,0,0,437.8,251.19Z"/>
          </g>
        </g>
        <path class="fde409e3-7f13-439a-b1c6-dbf90ac65894" d="M365.69,338.89,70.15,418.81l-12.76-5,222.06-79c8.7-2.77,4.36-10.76,3.13-16.36Z"/>
        <polygon class="fe98d417-e533-4e10-9898-97ffafc58a20" points="57.39 413.78 70.15 418.81 365.69 338.89 365.27 341.91 70.31 420.17 57.17 415.37 57.39 413.78"/>
        <polygon class="b8e7d5aa-aaea-49dc-844e-6251d1284eac" points="351.17 277.41 379.92 256.56 455.42 161.53 470.51 161.25 404.47 284.85 351.17 277.41"/>
        <polygon class="fe98d417-e533-4e10-9898-97ffafc58a20" points="404.47 284.85 470.51 161.25 470.06 164.44 406.82 286.34 404.47 284.85"/>
        <polygon class="fde409e3-7f13-439a-b1c6-dbf90ac65894" points="207.81 248.84 233.58 206.99 229.41 206.4 193.46 238.13 207.81 248.84"/>
        <polygon class="b102b3ed-549d-4e1b-bbfd-93c619d3da62" points="233.58 206.99 233.92 207.81 208.52 249.38 207.81 248.84 233.58 206.99"/>
        <path class="b8e7d5aa-aaea-49dc-844e-6251d1284eac" d="M550.79,349.08c-44.62-55.09-89.36-54-184-73.43.64,3-219.13-45.63-195.41-18.14,28.86,46.89,81.94,56.74,109.05,64.71S449,366.06,509.35,374.41c16.46,2.27,31.59-5.92,37.37-9.07S556.49,358.18,550.79,349.08Z"/>
        <path class="a172ce66-e72c-449d-84cc-9dd25ae95538" d="M523.47,325.1c-.17.54-4.47,4.67-2.92,5.69l4.49,4.42s.77.87,1.5-.36c1-2.14,3.79-5.05,2.75-6.12C528.28,328.34,524.73,323.56,523.47,325.1Z"/>
        <path class="a172ce66-e72c-449d-84cc-9dd25ae95538" d="M517.1,331.79l-11.73,4.78a.71.71,0,0,0-.29,1.17c1.2.94,3.34,6.32,5.45,5.54L522.85,338s1.07-.49.41-1.33C522.38,336.13,518.33,330.51,517.1,331.79Z"/>
        <path class="a172ce66-e72c-449d-84cc-9dd25ae95538" d="M500.91,337.85l-2.91.21c-1.66,1,1.68,5.42,2.18,7.57a1.39,1.39,0,0,0,1.66.85c.75-.54,4.82-.73,4.22-2.31C504.79,342.28,502.66,337.39,500.91,337.85Z"/>
        <path class="fe98d417-e533-4e10-9898-97ffafc58a20" d="M229.76,259.48c-34.4,3-55.26-6.32-55.26-6.32l-53.44-91.24,10.1,1s60.15,71.33,69.88,79S232.12,258.36,229.76,259.48Z"/>
        <path class="a172ce66-e72c-449d-84cc-9dd25ae95538" d="M493.36,338c-1.57.34-7.6-1.72-7.83,1-.38,1.79-.46,5.39,1.54,5.31,1.07-.24,12.33,4.28,10.85.76C497.27,343.38,495.73,337.39,493.36,338Z"/>
        <path class="b8e7d5aa-aaea-49dc-844e-6251d1284eac" d="M121.06,161.92l26,44.44c12.36.83,22.19,8.83,29.72,10.91-20.45-23.11-46.37-53.83-46.37-53.83Z"/>
        <path class="b8e7d5aa-aaea-49dc-844e-6251d1284eac" d="M183.87,267.27c-4.91-3.91-10.43-11.77-10.43-11.77L98.1,286.4l5.3,1.9Z"/>
        <polygon class="aaccd2e0-85fb-420f-a1de-a1c866c1eb4d" points="98.1 286.4 103.4 288.3 183.87 267.27 183.71 268.46 104.16 288.87 98.02 286.97 98.1 286.4"/>
        <g>
          <path class="a172ce66-e72c-449d-84cc-9dd25ae95538" d="M442.85,342.93a1.8,1.8,0,0,0,1.87,1.75c2.49-.05,1.93-6.81-.53-6.44C442,338.38,442.77,341.51,442.85,342.93Z"/>
          <path class="a172ce66-e72c-449d-84cc-9dd25ae95538" d="M436.87,339c.16,1.42-.09,4.63,2.1,4.42,2.48-.06,1.93-6.81-.54-6.45A1.81,1.81,0,0,0,436.87,339Z"/>
          <path class="a172ce66-e72c-449d-84cc-9dd25ae95538" d="M431.12,337.76c.16,1.42-.1,4.63,2.09,4.41,2.49,0,1.94-6.81-.53-6.44A1.81,1.81,0,0,0,431.12,337.76Z"/>
          <path class="a172ce66-e72c-449d-84cc-9dd25ae95538" d="M425.37,336.51c.16,1.42-.1,4.62,2.09,4.41,2.49-.06,1.93-6.81-.54-6.45A1.81,1.81,0,0,0,425.37,336.51Z"/>
          <path class="a172ce66-e72c-449d-84cc-9dd25ae95538" d="M419.61,335.26c.16,1.42-.09,4.61,2.09,4.41,2.5-.05,1.93-6.81-.53-6.45A1.82,1.82,0,0,0,419.61,335.26Z"/>
          <path class="a172ce66-e72c-449d-84cc-9dd25ae95538" d="M413.86,334c.16,1.42-.1,4.62,2.09,4.41,2.49-.05,1.93-6.8-.54-6.44A1.81,1.81,0,0,0,413.86,334Z"/>
          <path class="a172ce66-e72c-449d-84cc-9dd25ae95538" d="M408.11,332.74c.16,1.42-.1,4.63,2.09,4.42,2.49-.05,1.94-6.82-.54-6.45A1.81,1.81,0,0,0,408.11,332.74Z"/>
          <path class="a172ce66-e72c-449d-84cc-9dd25ae95538" d="M402.35,331.49c.16,1.42-.1,4.62,2.09,4.41,2.5,0,1.94-6.8-.54-6.44A1.81,1.81,0,0,0,402.35,331.49Z"/>
          <path class="a172ce66-e72c-449d-84cc-9dd25ae95538" d="M396.6,330.24c.16,1.42-.1,4.62,2.09,4.41,2.49,0,1.93-6.8-.54-6.44A1.8,1.8,0,0,0,396.6,330.24Z"/>
          <path class="a172ce66-e72c-449d-84cc-9dd25ae95538" d="M390.84,329c.16,1.42-.09,4.62,2.09,4.42,2.5-.06,1.94-6.81-.53-6.45A1.81,1.81,0,0,0,390.84,329Z"/>
          <path class="a172ce66-e72c-449d-84cc-9dd25ae95538" d="M385.08,327.73c.17,1.42-.09,4.62,2.1,4.41,2.49-.05,1.94-6.8-.54-6.44A1.82,1.82,0,0,0,385.08,327.73Z"/>
          <path class="a172ce66-e72c-449d-84cc-9dd25ae95538" d="M379.33,326.48c.16,1.42-.09,4.61,2.09,4.41,2.5-.05,1.94-6.81-.53-6.45A1.82,1.82,0,0,0,379.33,326.48Z"/>
          <path class="a172ce66-e72c-449d-84cc-9dd25ae95538" d="M373.58,325.22c.16,1.42-.09,4.62,2.09,4.42,2.49-.06,1.94-6.81-.53-6.45A1.81,1.81,0,0,0,373.58,325.22Z"/>
          <path class="a172ce66-e72c-449d-84cc-9dd25ae95538" d="M367.83,324c.16,1.42-.1,4.62,2.09,4.41,2.49-.05,1.93-6.81-.53-6.44A1.8,1.8,0,0,0,367.83,324Z"/>
          <path class="a172ce66-e72c-449d-84cc-9dd25ae95538" d="M362.07,322.71c.16,1.42-.09,4.63,2.1,4.42,2.49-.05,1.93-6.82-.54-6.45A1.82,1.82,0,0,0,362.07,322.71Z"/>
          <path class="a172ce66-e72c-449d-84cc-9dd25ae95538" d="M356.32,321.46c.16,1.42-.09,4.62,2.09,4.41,2.49-.05,1.94-6.8-.53-6.44A1.81,1.81,0,0,0,356.32,321.46Z"/>
          <path class="a172ce66-e72c-449d-84cc-9dd25ae95538" d="M350.79,322.87a1.81,1.81,0,0,0,1.87,1.75c2.49-.05,1.93-6.81-.54-6.45C349.93,318.33,350.71,321.45,350.79,322.87Z"/>
          <path class="a172ce66-e72c-449d-84cc-9dd25ae95538" d="M331.16,318.7a1.82,1.82,0,0,0,1.88,1.75c2.49-.05,1.93-6.81-.54-6.44C330.31,314.16,331.09,317.28,331.16,318.7Z"/>
          <path class="a172ce66-e72c-449d-84cc-9dd25ae95538" d="M325.58,314.8c.16,1.41-.09,4.59,2.07,4.39,2.47-.05,1.91-6.77-.53-6.41A1.79,1.79,0,0,0,325.58,314.8Z"/>
          <path class="a172ce66-e72c-449d-84cc-9dd25ae95538" d="M320.21,313.56c.16,1.39-.09,4.57,2.06,4.36,2.44-.05,1.9-6.73-.54-6.37A1.79,1.79,0,0,0,320.21,313.56Z"/>
          <path class="a172ce66-e72c-449d-84cc-9dd25ae95538" d="M314.85,312.31c.16,1.38-.09,4.54,2,4.35,2.42-.06,1.87-6.69-.53-6.35A1.78,1.78,0,0,0,314.85,312.31Z"/>
          <path class="a172ce66-e72c-449d-84cc-9dd25ae95538" d="M309.48,311.07c.16,1.37-.09,4.51,2,4.32,2.39-.06,1.85-6.65-.53-6.31A1.78,1.78,0,0,0,309.48,311.07Z"/>
          <path class="a172ce66-e72c-449d-84cc-9dd25ae95538" d="M304.12,309.83c.16,1.36-.09,4.49,2,4.29,2.37-.05,1.83-6.61-.52-6.27A1.75,1.75,0,0,0,304.12,309.83Z"/>
          <path class="a172ce66-e72c-449d-84cc-9dd25ae95538" d="M298.75,308.59c.16,1.34-.09,4.46,2,4.27,2.34-.06,1.81-6.57-.52-6.24A1.74,1.74,0,0,0,298.75,308.59Z"/>
          <path class="a172ce66-e72c-449d-84cc-9dd25ae95538" d="M293.38,307.34c.16,1.33-.08,4.44,2,4.25,2.32-.06,1.79-6.52-.51-6.2A1.73,1.73,0,0,0,293.38,307.34Z"/>
          <path class="a172ce66-e72c-449d-84cc-9dd25ae95538" d="M288,306.1c.16,1.32-.09,4.41,1.94,4.22,2.29-.05,1.76-6.48-.51-6.16A1.71,1.71,0,0,0,288,306.1Z"/>
          <path class="a172ce66-e72c-449d-84cc-9dd25ae95538" d="M282.65,304.86c.16,1.3-.08,4.39,1.92,4.2,2.28-.05,1.74-6.45-.51-6.13A1.7,1.7,0,0,0,282.65,304.86Z"/>
          <path class="a172ce66-e72c-449d-84cc-9dd25ae95538" d="M277.29,303.62c.15,1.3-.09,4.35,1.9,4.17,2.25-.06,1.72-6.4-.51-6.09A1.69,1.69,0,0,0,277.29,303.62Z"/>
          <path class="a172ce66-e72c-449d-84cc-9dd25ae95538" d="M271.93,302.37c.15,1.29-.09,4.34,1.87,4.16,2.23-.07,1.7-6.36-.49-6.06A1.67,1.67,0,0,0,271.93,302.37Z"/>
          <path class="a172ce66-e72c-449d-84cc-9dd25ae95538" d="M266.56,301.13c.15,1.27-.09,4.31,1.86,4.13,2.2-.06,1.68-6.32-.5-6A1.66,1.66,0,0,0,266.56,301.13Z"/>
          <path class="a172ce66-e72c-449d-84cc-9dd25ae95538" d="M261.19,299.89c.16,1.25-.08,4.28,1.85,4.11,2.17-.07,1.65-6.29-.5-6A1.65,1.65,0,0,0,261.19,299.89Z"/>
          <path class="a172ce66-e72c-449d-84cc-9dd25ae95538" d="M255.83,298.64c.15,1.25-.08,4.26,1.82,4.09,2.14-.07,1.64-6.24-.49-6A1.64,1.64,0,0,0,255.83,298.64Z"/>
          <path class="a172ce66-e72c-449d-84cc-9dd25ae95538" d="M250.47,297.4c.14,1.24-.09,4.23,1.8,4.07,2.12-.07,1.61-6.21-.49-5.93A1.61,1.61,0,0,0,250.47,297.4Z"/>
          <path class="a172ce66-e72c-449d-84cc-9dd25ae95538" d="M245.1,296.16c.15,1.22-.08,4.21,1.78,4,2.1-.05,1.59-6.16-.49-5.87A1.6,1.6,0,0,0,245.1,296.16Z"/>
          <path class="a172ce66-e72c-449d-84cc-9dd25ae95538" d="M239.73,294.92c.15,1.21-.08,4.18,1.77,4,2.07-.07,1.57-6.12-.49-5.85A1.61,1.61,0,0,0,239.73,294.92Z"/>
          <path class="a172ce66-e72c-449d-84cc-9dd25ae95538" d="M234.37,293.67c.15,1.2-.08,4.15,1.74,4,2-.06,1.55-6.07-.48-5.8A1.57,1.57,0,0,0,234.37,293.67Z"/>
          <path class="a172ce66-e72c-449d-84cc-9dd25ae95538" d="M229,292.43c.14,1.19-.09,4.13,1.72,4,2-.08,1.53-6-.48-5.78A1.58,1.58,0,0,0,229,292.43Z"/>
          <path class="a172ce66-e72c-449d-84cc-9dd25ae95538" d="M223.64,291.19c.15,1.17-.08,4.1,1.71,3.94,2-.07,1.51-6-.48-5.74A1.56,1.56,0,0,0,223.64,291.19Z"/>
          <path class="a172ce66-e72c-449d-84cc-9dd25ae95538" d="M218.28,290c.14,1.16-.09,4.07,1.68,3.92,2-.08,1.49-6-.47-5.71A1.54,1.54,0,0,0,218.28,290Z"/>
          <path class="a172ce66-e72c-449d-84cc-9dd25ae95538" d="M213.1,291.05a1.54,1.54,0,0,0,1.48,1.55c1.94-.07,1.46-5.92-.48-5.67C212.36,287.07,213.06,289.9,213.1,291.05Z"/>
        </g>
        <path class="fe98d417-e533-4e10-9898-97ffafc58a20" d="M360.57,333.12C292,316.79,242.78,304.68,204,290.75l-.43.6c86.05,45.06,189.36,58.36,305.78,83.06,19.71,1.35,36.53-5.82,43.73-15C520.19,370.5,430.73,349.84,360.57,333.12Z"/>
      </g>
    </g>
    <g class="afc96e4b-c6c5-47ab-92a1-b64d09921867">
      <g>
        <path class="b1882d4c-0a23-469f-9534-2c388910e354" d="M237.11,111.44s12.13-31.73,44.55-1.49-38.56,22-69.67,11S237.11,111.44,237.11,111.44Z"/>
        <path class="b1882d4c-0a23-469f-9534-2c388910e354" d="M310.94,93.91c27.91,20.14-.56,22.56-25.62,17.14S283,73.77,310.94,93.91Z"/>
      </g>
      <g>
        <path class="b1882d4c-0a23-469f-9534-2c388910e354" d="M405.15,487.08s12.13-31.73,44.55-1.49-38.55,22-69.66,11S405.15,487.08,405.15,487.08Z"/>
        <path class="b1882d4c-0a23-469f-9534-2c388910e354" d="M479,469.56c27.91,20.14-.55,22.55-25.62,17.14S451.07,449.42,479,469.56Z"/>
      </g>
    </g>
  </g>
</svg>
