<svg xmlns="http://www.w3.org/2000/svg" xmlns:xlink="http://www.w3.org/1999/xlink" width="250.26" height="250.26" viewBox="0 0 250.26 250.26">
  <defs>
    <style>
      .afa562c1-621b-476e-aadc-5cadcb2b5d55 {
        mask: url(#a7e2da54-feb7-4c16-9735-5adec2aa27f3);
        filter: url(#f0bfdfe4-c0be-43e0-a587-528de48ba990);
      }

      .a25f1cb0-08d8-4a0a-81cc-1bbd506989b3, .a317d5f7-6958-4661-b362-20e0de4fcaef, .a58dc64d-73c5-4955-9d8d-d96ea080130c, .a6263467-46f2-4038-bd2e-879067feaa37, .a67af945-2d75-4cc6-97f3-a4a0a8433b65, .a88a5c7c-4dcc-4312-be22-a5b0fd35401c, .abddea41-7f6d-4224-9522-9435647e8a38, .ae861b43-b817-414f-8805-46f6f0911fdd, .bc487794-7e5c-4adf-9628-c85e73fdb71a, .bd1d292e-0f10-4d95-9a81-ea94161857f7, .bf1806d1-ee0b-40bf-901f-db8d894474a9, .e11bae78-bea4-48c4-89e1-1ff72bbf5b7a, .e770d2a6-fed1-4b01-a75f-dd3c6c271532, .ebefe5fc-b895-4a34-bd2f-5415570dd19c, .ec47af41-bbba-4eeb-9b2a-153e72a95dc0, .ef0a1bdb-f9d2-49d7-b34c-d38c9ba3e5d9, .f6b8ce95-cd14-4453-aab4-5c02131a8efa {
        mix-blend-mode: multiply;
      }

      .a58dc64d-73c5-4955-9d8d-d96ea080130c {
        fill: url(#afe8cd53-e2e8-4dab-bfb2-0c53b4c5ae4b);
      }

      .bd234ee8-1fd6-4e58-aa24-ac6feb44e806 {
        isolation: isolate;
      }

      .a6263467-46f2-4038-bd2e-879067feaa37 {
        fill: #fffdfe;
        stroke: #878787;
        stroke-width: 9px;
        opacity: 0.6;
      }

      .a2eaf32a-f661-463c-ac32-f63a9d3434d6, .a6263467-46f2-4038-bd2e-879067feaa37, .ac5b5c0f-a69e-4fc6-a609-5913969eed83, .acad02da-c33f-40f1-80ec-31f985c158c5, .b46a1dd8-a802-43f1-b23d-7c33da44217c, .b963237a-b44c-4445-bae2-dc609508cd3c, .bde7c06e-c79c-4578-9e1c-12c6c9165961, .e52f0d93-3838-4fc8-bc2a-1721db6b3af5, .e6c360a2-9dcd-4896-b9d1-0055de109657, .f215f1cd-f31e-434e-b9c5-269525316644, .f4b71b23-d1f7-4797-9143-f563ea525b56, .f58da9f2-d6f6-49a7-be0b-471dbd528d15 {
        stroke-miterlimit: 10;
      }

      .b46f9c32-a6ff-4cbe-a638-64aa913e1cb1 {
        fill: #cff6ff;
      }

      .affdabdb-dfe8-4fc0-be74-dd1b257bb297 {
        fill: #6d210f;
      }

      .f4b71b23-d1f7-4797-9143-f563ea525b56, .f58da9f2-d6f6-49a7-be0b-471dbd528d15 {
        fill: #983115;
        stroke: #6d210f;
      }

      .a2eaf32a-f661-463c-ac32-f63a9d3434d6 {
        fill: #afa794;
        stroke: #444036;
      }

      .a3a7fb47-c900-4740-b4bd-63194702e7e0, .e19f2217-7fb3-4bc9-a79e-2cbfe80969dc {
        fill: #7c6c69;
      }

      .bfc3ef8f-333d-4ee9-8480-e57a52f6142d, .e19f2217-7fb3-4bc9-a79e-2cbfe80969dc {
        opacity: 0.41;
      }

      .ad9d93d1-a9b1-4ba7-b39f-c621b6a305b0 {
        mask: url(#a5e77757-dd95-4968-b076-cbf6a6b30c9c);
      }

      .bd30308b-7838-44cf-8108-4e0513794577 {
        fill: #bcbcbc;
        mix-blend-mode: screen;
        opacity: 0.27;
      }

      .b963237a-b44c-4445-bae2-dc609508cd3c {
        fill: #93896f;
        stroke: #474338;
      }

      .b963237a-b44c-4445-bae2-dc609508cd3c, .bde7c06e-c79c-4578-9e1c-12c6c9165961 {
        stroke-width: 0.5px;
      }

      .a88a5c7c-4dcc-4312-be22-a5b0fd35401c {
        fill: url(#bde4e347-4400-4711-8ee2-53f4f5852105);
      }

      .ec47af41-bbba-4eeb-9b2a-153e72a95dc0 {
        opacity: 0.8;
        fill: url(#fc6a52ae-62ea-4d26-a6e1-2276fd59835a);
      }

      .a4496fcf-8bb9-4420-9282-dbf374db7c5e {
        fill: #231f20;
      }

      .b13b0453-c7e7-4da2-97dc-2fa7c0fd0a44, .bd1d292e-0f10-4d95-9a81-ea94161857f7, .e11bae78-bea4-48c4-89e1-1ff72bbf5b7a, .e770d2a6-fed1-4b01-a75f-dd3c6c271532, .ef0a1bdb-f9d2-49d7-b34c-d38c9ba3e5d9 {
        opacity: 0.5;
      }

      .ef0a1bdb-f9d2-49d7-b34c-d38c9ba3e5d9 {
        fill: url(#bdf9d269-13cf-4420-a290-663ca238d410);
      }

      .e770d2a6-fed1-4b01-a75f-dd3c6c271532 {
        fill: url(#a1cd196a-b21e-4bfc-9329-8ad2423b37d1);
      }

      .a1574141-4559-4529-9446-7750e8084ca5, .a1652f52-6d83-41c9-b676-e0009f951c9f, .aee99e6f-0d3c-4d71-8b0f-a02e8bb68bbb, .b13b0453-c7e7-4da2-97dc-2fa7c0fd0a44, .ba49055b-1adb-40bb-ad86-7c7d908bb4db, .bed6c214-bdd7-496a-a3a0-d06202e721c8, .bfc3ef8f-333d-4ee9-8480-e57a52f6142d {
        fill: #fff;
      }

      .bed6c214-bdd7-496a-a3a0-d06202e721c8 {
        opacity: 0.12;
      }

      .a317d5f7-6958-4661-b362-20e0de4fcaef {
        opacity: 0.43;
      }

      .a25f1cb0-08d8-4a0a-81cc-1bbd506989b3, .a67af945-2d75-4cc6-97f3-a4a0a8433b65, .abddea41-7f6d-4224-9522-9435647e8a38, .bc487794-7e5c-4adf-9628-c85e73fdb71a, .bf1806d1-ee0b-40bf-901f-db8d894474a9 {
        opacity: 0.4;
      }

      .abddea41-7f6d-4224-9522-9435647e8a38 {
        fill: url(#fcc2a520-7e72-4d9e-86df-589e2178f186);
      }

      .a25f1cb0-08d8-4a0a-81cc-1bbd506989b3 {
        fill: url(#b9d82f14-69bb-469c-8b2f-b596b078444a);
      }

      .a1652f52-6d83-41c9-b676-e0009f951c9f {
        opacity: 0.61;
      }

      .acad02da-c33f-40f1-80ec-31f985c158c5, .e6c360a2-9dcd-4896-b9d1-0055de109657, .f215f1cd-f31e-434e-b9c5-269525316644 {
        stroke: #621c0e;
        stroke-width: 0.27px;
      }

      .acad02da-c33f-40f1-80ec-31f985c158c5 {
        fill: url(#b65641d1-9486-4571-8273-adbf5fe7fefc);
      }

      .ae861b43-b817-414f-8805-46f6f0911fdd {
        fill: #621c0e;
        opacity: 0.33;
      }

      .a1574141-4559-4529-9446-7750e8084ca5 {
        opacity: 0.62;
      }

      .ea53d0d9-753e-4f1e-9002-aa8beb672140 {
        fill: url(#f1211516-13f2-41b2-8541-751efc7bd0e8);
      }

      .a65bc64a-6959-4ce0-bdd6-6f62c9c94216 {
        fill: #f2a866;
      }

      .f6b8ce95-cd14-4453-aab4-5c02131a8efa {
        fill: #6d6452;
      }

      .a9fac67b-08f1-4d89-a594-9c001d00cae7 {
        fill: url(#b6d63b5e-d5fe-4027-add9-2f4b0d3a23fd);
      }

      .badea5e1-2f9c-4e51-8318-affcf741448a {
        fill: #72684d;
      }

      .a67af945-2d75-4cc6-97f3-a4a0a8433b65 {
        fill: url(#bd1b9c6e-4fff-4e38-8882-2eca7bc36f90);
      }

      .bde7c06e-c79c-4578-9e1c-12c6c9165961 {
        fill: #e5d2d1;
        stroke: #3a3131;
      }

      .f4b71b23-d1f7-4797-9143-f563ea525b56 {
        stroke-width: 2px;
      }

      .bf1806d1-ee0b-40bf-901f-db8d894474a9 {
        fill: url(#e1c8cfac-9a31-45ba-92bd-ea6d98cb45ca);
      }

      .bc487794-7e5c-4adf-9628-c85e73fdb71a {
        fill: url(#f931da90-cf8f-4865-aa76-6c62687150b2);
      }

      .e52f0d93-3838-4fc8-bc2a-1721db6b3af5 {
        fill: #b7a680;
        stroke: #9b8579;
      }

      .ae1bb3d1-ecb8-4536-af82-f4148597c127, .e52f0d93-3838-4fc8-bc2a-1721db6b3af5 {
        opacity: 0.11;
      }

      .ae1bb3d1-ecb8-4536-af82-f4148597c127 {
        fill: #9b8579;
      }

      .b46a1dd8-a802-43f1-b23d-7c33da44217c {
        fill: #9cd3c8;
        stroke: #32544d;
      }

      .ba49055b-1adb-40bb-ad86-7c7d908bb4db {
        opacity: 0.32;
      }

      .f215f1cd-f31e-434e-b9c5-269525316644 {
        fill: url(#e1396646-e41f-4b59-9ed4-f2472f8a0fba);
      }

      .e6c360a2-9dcd-4896-b9d1-0055de109657 {
        fill: url(#aa7f1663-ca52-467f-a02c-9aa984cb7b94);
      }

      .ebefe5fc-b895-4a34-bd2f-5415570dd19c {
        opacity: 0.3;
        fill: url(#bb2562d7-e6d8-420f-b7ed-35de9609838c);
      }

      .ee2ed89d-92fd-4d4c-be31-3ccd05cde903 {
        fill: url(#bd3e4bea-abe7-49fe-a5a4-21028b7afac8);
      }

      .e11bae78-bea4-48c4-89e1-1ff72bbf5b7a {
        fill: url(#ba27bd24-4540-43f4-90e9-711e74de7eda);
      }

      .bd1d292e-0f10-4d95-9a81-ea94161857f7 {
        fill: url(#abf1836b-53fe-414b-b776-b0270034196b);
      }

      .eec6c07e-0cf1-426e-9ba1-45cdec571060 {
        fill: #e93a39;
      }

      .ac5b5c0f-a69e-4fc6-a609-5913969eed83 {
        fill: none;
        stroke: #938563;
        opacity: 0.57;
      }

      .b2a5e269-8d87-458c-807b-5d1b1900e1e8 {
        fill: #96948a;
        opacity: 0.18;
      }

      .bee831ba-b15b-44cf-8352-eb5f6444fab4, .f63e146a-c1e3-4a89-8dbe-71d3b8cd16c1 {
        fill: #97a1aa;
      }

      .f63e146a-c1e3-4a89-8dbe-71d3b8cd16c1 {
        opacity: 0.21;
      }

      .bee831ba-b15b-44cf-8352-eb5f6444fab4 {
        opacity: 0.37;
      }

      .b249dbec-5237-4341-b902-156ce385faf2 {
        filter: url(#b84cb74e-960f-4d8e-99ad-caecb3b0ce60);
      }
    </style>
    <filter id="b84cb74e-960f-4d8e-99ad-caecb3b0ce60" x="73.92" y="-8993" width="104.24" height="32766" filterUnits="userSpaceOnUse" color-interpolation-filters="sRGB">
      <feFlood flood-color="#fff" result="bg"/>
      <feBlend in="SourceGraphic" in2="bg"/>
    </filter>
    <mask id="a7e2da54-feb7-4c16-9735-5adec2aa27f3" x="73.92" y="-8993" width="104.24" height="32766" maskUnits="userSpaceOnUse">
      <g class="b249dbec-5237-4341-b902-156ce385faf2"/>
    </mask>
    <linearGradient id="afe8cd53-e2e8-4dab-bfb2-0c53b4c5ae4b" x1="204.11" y1="-541.47" x2="209.13" y2="-557.03" gradientTransform="matrix(0.62, -0.37, 0.53, 0.88, 286.31, 675.72)" gradientUnits="userSpaceOnUse">
      <stop offset="0" stop-color="#fff"/>
      <stop offset="1"/>
    </linearGradient>
    <filter id="f0bfdfe4-c0be-43e0-a587-528de48ba990" x="60.45" y="96.69" width="123.32" height="33.91" filterUnits="userSpaceOnUse" color-interpolation-filters="sRGB">
      <feFlood flood-color="#fff" result="bg"/>
      <feBlend in="SourceGraphic" in2="bg"/>
    </filter>
    <mask id="a5e77757-dd95-4968-b076-cbf6a6b30c9c" x="60.45" y="96.69" width="123.32" height="33.91" maskUnits="userSpaceOnUse">
      <g class="afa562c1-621b-476e-aadc-5cadcb2b5d55">
        <path class="a58dc64d-73c5-4955-9d8d-d96ea080130c" d="M76.53,128s24.64-10,30.92-12.13,17.59-5,33.33-6.48,37.38-3,37.38-3-2.67,3.81-2.94,10.78c-.07,2.06,2,7.35-5.64,7.41-22.27.19-91.3,6-93.59,6C73.27,130.62,73,129.64,76.53,128Z"/>
      </g>
    </mask>
    <linearGradient id="bde4e347-4400-4711-8ee2-53f4f5852105" x1="202.82" y1="52.54" x2="205.19" y2="51.69" gradientTransform="translate(-51.42 125.23) rotate(-4.19)" gradientUnits="userSpaceOnUse">
      <stop offset="0.19" stop-color="#72684d"/>
      <stop offset="0.65" stop-color="#bcb9b0"/>
      <stop offset="0.85" stop-color="#e2e1dd"/>
    </linearGradient>
    <linearGradient id="fc6a52ae-62ea-4d26-a6e1-2276fd59835a" x1="156.93" y1="179.24" x2="158.99" y2="180.06" gradientTransform="translate(9.79 -19.8) rotate(0.6)" gradientUnits="userSpaceOnUse">
      <stop offset="0.35" stop-color="#bcb9b0"/>
      <stop offset="0.89" stop-color="#72684d"/>
    </linearGradient>
    <radialGradient id="bdf9d269-13cf-4420-a290-663ca238d410" cx="153.89" cy="189.51" r="8.69" gradientTransform="translate(9.79 -19.8) rotate(0.6)" gradientUnits="userSpaceOnUse">
      <stop offset="0.38" stop-color="#5a5b5d"/>
      <stop offset="1" stop-color="#231f20"/>
    </radialGradient>
    <radialGradient id="a1cd196a-b21e-4bfc-9329-8ad2423b37d1" cx="153.89" cy="189.51" r="7.09" xlink:href="#bdf9d269-13cf-4420-a290-663ca238d410"/>
    <linearGradient id="fcc2a520-7e72-4d9e-86df-589e2178f186" x1="-328.24" y1="137.48" x2="-344.05" y2="150.17" gradientTransform="matrix(0.75, -0.02, 0.03, 0.99, 448.8, -25.29)" gradientUnits="userSpaceOnUse">
      <stop offset="0" stop-color="#bcb9b0"/>
      <stop offset="0.08" stop-color="#b2aea3"/>
      <stop offset="0.35" stop-color="#97907e"/>
      <stop offset="0.61" stop-color="#827a63"/>
      <stop offset="0.83" stop-color="#766d53"/>
      <stop offset="1" stop-color="#72684d"/>
    </linearGradient>
    <linearGradient id="b9d82f14-69bb-469c-8b2f-b596b078444a" x1="-495.84" y1="67.94" x2="-511.65" y2="80.63" gradientTransform="matrix(0.7, -0.02, 0.03, 0.9, 550.73, 46.6)" xlink:href="#fcc2a520-7e72-4d9e-86df-589e2178f186"/>
    <linearGradient id="b65641d1-9486-4571-8273-adbf5fe7fefc" x1="501.09" y1="-343.19" x2="484.4" y2="-302.35" gradientTransform="translate(-169.21 593.43) rotate(-18.95)" gradientUnits="userSpaceOnUse">
      <stop offset="0.53" stop-color="#b12f16"/>
      <stop offset="1" stop-color="#782615"/>
    </linearGradient>
    <linearGradient id="f1211516-13f2-41b2-8541-751efc7bd0e8" x1="727.7" y1="-544.26" x2="753.19" y2="-544.26" gradientTransform="translate(-167.88 997.48) rotate(-29.81)" xlink:href="#fc6a52ae-62ea-4d26-a6e1-2276fd59835a"/>
    <linearGradient id="b6d63b5e-d5fe-4027-add9-2f4b0d3a23fd" x1="758.43" y1="-600.85" x2="783.4" y2="-600.85" gradientTransform="translate(-167.88 997.48) rotate(-29.81)" xlink:href="#fc6a52ae-62ea-4d26-a6e1-2276fd59835a"/>
    <radialGradient id="bd1b9c6e-4fff-4e38-8882-2eca7bc36f90" cx="157.81" cy="1153.6" r="24.58" gradientTransform="matrix(0.99, 0.15, 0.14, -0.95, -97.66, 1211.03)" gradientUnits="userSpaceOnUse">
      <stop offset="0" stop-color="#f47a67"/>
      <stop offset="0.74" stop-color="#b12f16"/>
      <stop offset="1" stop-color="#4b1f15"/>
    </radialGradient>
    <radialGradient id="e1c8cfac-9a31-45ba-92bd-ea6d98cb45ca" cx="404.32" cy="-444.75" r="33.77" gradientTransform="matrix(0.93, -0.36, 0.36, 0.93, -175.77, 658.11)" xlink:href="#bd1b9c6e-4fff-4e38-8882-2eca7bc36f90"/>
    <radialGradient id="f931da90-cf8f-4865-aa76-6c62687150b2" cx="423.07" cy="-464.56" r="46.14" gradientTransform="matrix(0.93, -0.36, 0.36, 0.93, -175.77, 658.11)" xlink:href="#bd1b9c6e-4fff-4e38-8882-2eca7bc36f90"/>
    <linearGradient id="e1396646-e41f-4b59-9ed4-f2472f8a0fba" x1="113.38" y1="88.62" x2="166.91" y2="88.62" gradientTransform="matrix(1, 0, 0, 1, 0, 0)" xlink:href="#b65641d1-9486-4571-8273-adbf5fe7fefc"/>
    <linearGradient id="aa7f1663-ca52-467f-a02c-9aa984cb7b94" x1="155.19" y1="84.18" x2="173.1" y2="84.18" gradientTransform="matrix(1, 0, 0, 1, 0, 0)" xlink:href="#b65641d1-9486-4571-8273-adbf5fe7fefc"/>
    <linearGradient id="bb2562d7-e6d8-420f-b7ed-35de9609838c" x1="113.94" y1="88.62" x2="155.19" y2="88.62" gradientUnits="userSpaceOnUse">
      <stop offset="0" stop-color="#808624"/>
      <stop offset="0.53" stop-color="#2e3f0b"/>
      <stop offset="0.66" stop-color="#263809"/>
      <stop offset="0.88" stop-color="#0f2503"/>
      <stop offset="0.98" stop-color="#021a00"/>
    </linearGradient>
    <linearGradient id="bd3e4bea-abe7-49fe-a5a4-21028b7afac8" x1="331.37" y1="373.08" x2="326.23" y2="328.52" gradientTransform="translate(-153.33 -247.94) rotate(8.62)" gradientUnits="userSpaceOnUse">
      <stop offset="0" stop-color="#b63536"/>
      <stop offset="0.19" stop-color="#b13435"/>
      <stop offset="0.42" stop-color="#a13031"/>
      <stop offset="0.69" stop-color="#87292b"/>
      <stop offset="0.97" stop-color="#642022"/>
      <stop offset="1" stop-color="#5f1f21"/>
    </linearGradient>
    <linearGradient id="ba27bd24-4540-43f4-90e9-711e74de7eda" x1="335.75" y1="362.23" x2="331.83" y2="328.26" xlink:href="#bd3e4bea-abe7-49fe-a5a4-21028b7afac8"/>
    <linearGradient id="abf1836b-53fe-414b-b776-b0270034196b" x1="338.71" y1="360.87" x2="334.91" y2="327.94" xlink:href="#bd3e4bea-abe7-49fe-a5a4-21028b7afac8"/>
  </defs>
  <g class="bd234ee8-1fd6-4e58-aa24-ac6feb44e806">
    <g id="b82f8f7e-e53f-4316-ade4-ee8a9554fc71" data-name="Layer 1">
      <g>
        <g>
          <circle class="a6263467-46f2-4038-bd2e-879067feaa37" cx="125.13" cy="125.13" r="116.99"/>
          <circle class="b46f9c32-a6ff-4cbe-a638-64aa913e1cb1" cx="124.85" cy="125.71" r="114.82"/>
        </g>
        <g id="b3cf5fcd-5142-4186-aedb-41db11dd41d9" data-name="10C">
          <g>
            <g>
              <path class="affdabdb-dfe8-4fc0-be74-dd1b257bb297" d="M49.48,125.53s25.35-20.38,29.57-22.9,7-1.56,6.67.86-4.13,8.89-4.37,9.21S66,121.87,59.7,123.92,49.48,125.53,49.48,125.53Z"/>
              <path class="f58da9f2-d6f6-49a7-be0b-471dbd528d15" d="M48.84,124.77S74.2,104.4,78.41,101.88s7-1.56,6.67.86S81,111.63,80.71,112s-15.32,9.17-21.64,11.21S48.84,124.77,48.84,124.77Z"/>
            </g>
            <g>
              <path class="a2eaf32a-f661-463c-ac32-f63a9d3434d6" d="M43.1,146.57s-7.29-4.7-6.63-12.36c.26-3.05,1.81-9.47,5.56-13.35L62,118s16.88-4.58,22.31-5.89c12.18-2.94,34.7-6.75,52.28-9.62s32-4.4,38.9-5c8.93-.74,15.95-1.16,20.66,1.36,3.07,1.64,8,8.78,11,16.66.5,1.31,1.44,19.52,1,24.52-.42,5.37-3.88,12.28-8,13.59-5.95,1.93-16.71,2.5-22.92,2.54C170.66,156.17,43.1,146.57,43.1,146.57Z"/>
              <path class="e19f2217-7fb3-4bc9-a79e-2cbfe80969dc" d="M171.19,142.87c-32,.31-134.08-5.25-134.08-5.25s-2.77,2.69,5.66,8c1.9,1.21,31.66,3.89,61.64,5.86,31.81,2.1,64.21,4.36,64.21,4.36S198.71,157,201.43,153c7-10.35,7.33-26.47,7.33-26.47S195.73,142.62,171.19,142.87Z"/>
              <g class="ad9d93d1-a9b1-4ba7-b39f-c621b6a305b0">
                <path class="bd30308b-7838-44cf-8108-4e0513794577" d="M62.84,117.7s23.14-6,35.11-8.52c6.71-1.4,31.76-5.45,47.34-8.09,16.93-2.86,38.48-4.4,38.48-4.4S178.6,98.84,178,110c-.11,2.07,1.22,17.3-7.76,16.44-22.17-2.13-106.81-4.49-109.06-4.86S62.36,119,62.84,117.7Z"/>
              </g>
            </g>
            <g>
              <path class="b963237a-b44c-4445-bae2-dc609508cd3c" d="M159.47,172.65l-9.89-20.2,2.58-.69,9.07,18.91S162.2,173.48,159.47,172.65Z"/>
              <path class="a88a5c7c-4dcc-4312-be22-a5b0fd35401c" d="M161.23,170.67a7.32,7.32,0,0,0-1.09-2.09c.63,1.31.59,3.17-.89.61-.49-.86-2.82-5.54-3.91-8-.19-.44-.36-1.7.6-.41.4.53,1,1.31,1.4,1.82-.48-1-4.83-10.9-5.18-10.81l-2.58.69,9.89,20.2C162.18,173.48,161.24,170.71,161.23,170.67Z"/>
              <path class="b963237a-b44c-4445-bae2-dc609508cd3c" d="M161.09,171.35,169,150.27l2.27,1.4-7.48,19.6S162.36,173.9,161.09,171.35Z"/>
              <path class="ec47af41-bbba-4eeb-9b2a-153e72a95dc0" d="M169,150.27l-7.86,21.08c1.27,2.55,2.65-.08,2.65-.08l7.48-19.6Zm-1.43,7.42a119,119,0,0,1-5.05,13.21c-.22.5-1,.21-.6-.75a1.13,1.13,0,0,0,0-.18.29.29,0,0,1,0-.1c.84-4.12,3.14-7.77,4.34-11.75C167.23,155,167.69,157.16,167.52,157.69Z"/>
            </g>
            <g>
              <path class="a4496fcf-8bb9-4420-9282-dbf374db7c5e" d="M173.63,171.26a12.23,12.23,0,1,1-12.1-12.35A12.23,12.23,0,0,1,173.63,171.26Z"/>
              <path class="ef0a1bdb-f9d2-49d7-b34c-d38c9ba3e5d9" d="M170.37,171.4a8.69,8.69,0,1,1-8.59-8.78A8.69,8.69,0,0,1,170.37,171.4Z"/>
              <path class="e770d2a6-fed1-4b01-a75f-dd3c6c271532" d="M168.77,171.39a7.09,7.09,0,1,1-7-7.16A7.08,7.08,0,0,1,168.77,171.39Z"/>
              <path class="bed6c214-bdd7-496a-a3a0-d06202e721c8" d="M164.6,171.34a2.92,2.92,0,1,1-2.88-2.94A2.92,2.92,0,0,1,164.6,171.34Z"/>
            </g>
            <g>
              <path class="affdabdb-dfe8-4fc0-be74-dd1b257bb297" d="M63.65,135.47s-25.35,20.38-29.57,22.9-6.95,1.56-6.67-.86,4.13-8.89,4.38-9.21,15.32-9.17,21.64-11.22S63.65,135.47,63.65,135.47Z"/>
              <path class="f58da9f2-d6f6-49a7-be0b-471dbd528d15" d="M64.29,136.23S38.93,156.6,34.72,159.12s-6.95,1.56-6.67-.86,4.13-8.89,4.37-9.21,15.32-9.17,21.64-11.21S64.29,136.23,64.29,136.23Z"/>
            </g>
            <g class="a317d5f7-6958-4661-b362-20e0de4fcaef">
              <path class="a3a7fb47-c900-4740-b4bd-63194702e7e0" d="M50.81,124.9c4.61-.87,9.75-2.49,11.2-7.19l-.19.07L42,120.6A18.29,18.29,0,0,0,38.24,127,108.35,108.35,0,0,0,50.81,124.9Z"/>
            </g>
            <g>
              <path class="b963237a-b44c-4445-bae2-dc609508cd3c" d="M190.23,126.83c0,.36.06.72.1,1.09a54.72,54.72,0,0,0,1.53,8.41l8.8-12Z"/>
              <path class="b963237a-b44c-4445-bae2-dc609508cd3c" d="M190,117.62a65.37,65.37,0,0,0,.19,9.21l10.43-2.45Z"/>
              <path class="b963237a-b44c-4445-bae2-dc609508cd3c" d="M191.26,109.09a43.49,43.49,0,0,0-1.22,8.53l10.62,6.76Z"/>
              <path class="b963237a-b44c-4445-bae2-dc609508cd3c" d="M205.74,112.83c-1.75-5.72-4.19-9.83-6.74-11.17l1.66,22.72Z"/>
              <path class="b963237a-b44c-4445-bae2-dc609508cd3c" d="M199,101.66a3.62,3.62,0,0,0-2.42-.42,4.2,4.2,0,0,0-2,1.14l6.12,22Z"/>
              <path class="b963237a-b44c-4445-bae2-dc609508cd3c" d="M194.54,102.38c-1.38,1.32-2.5,3.66-3.28,6.71l9.4,15.29Z"/>
              <path class="b963237a-b44c-4445-bae2-dc609508cd3c" d="M197.27,148c1.52,1.86,3.12,2.92,4.65,3l-1.26-26.62Z"/>
              <path class="b963237a-b44c-4445-bae2-dc609508cd3c" d="M200.66,124.38l7.5,15.1a73.06,73.06,0,0,0-.15-15.09,61.64,61.64,0,0,0-2.27-11.56Z"/>
              <path class="b963237a-b44c-4445-bae2-dc609508cd3c" d="M206.28,147.36a26.8,26.8,0,0,0,1.88-7.88l-7.5-15.1Z"/>
              <path class="b963237a-b44c-4445-bae2-dc609508cd3c" d="M194.25,143a23.5,23.5,0,0,0,3,5l3.39-23.64Z"/>
              <path class="b963237a-b44c-4445-bae2-dc609508cd3c" d="M201.92,151a2.94,2.94,0,0,0,.78-.06c1.47-.29,2.66-1.57,3.58-3.58l-5.62-23Z"/>
              <path class="b963237a-b44c-4445-bae2-dc609508cd3c" d="M191.86,136.33a41.73,41.73,0,0,0,2.39,6.7l6.41-18.65Z"/>
            </g>
            <g>
              <path class="abddea41-7f6d-4224-9522-9435647e8a38" d="M206.22,125c.2,6.53-1.63,11.88-4.11,11.95s-4.66-5.16-4.87-11.69,1.63-11.87,4.11-11.94S206,118.45,206.22,125Z"/>
              <path class="a25f1cb0-08d8-4a0a-81cc-1bbd506989b3" d="M206.21,124.79c.19,5.94-1.53,10.81-3.83,10.88s-4.33-4.7-4.52-10.64,1.52-10.81,3.83-10.88S206,118.85,206.21,124.79Z"/>
              <path class="a1652f52-6d83-41c9-b676-e0009f951c9f" d="M197.76,133.32s-2.48-8.79-.64-17.43C197.12,115.89,194.38,122.32,197.76,133.32Z"/>
            </g>
            <g>
              <path class="acad02da-c33f-40f1-80ec-31f985c158c5" d="M201.31,150c-2.34,0-6.07-2.91-9.46-22-2.25-12.74.43-30.14,7.33-26.44-.1-.08-3-2.67-3.06-2.71-2.77-1.09-9.23-2.6-12.11-1.9-4.6,1.11-7.25,11.72-5.66,29.13,1.48,16.26,4.42,24.79,6.81,29.85a53.42,53.42,0,0,0,15.74-2.59c3.17-1,4.07-4.86,4.92-5.67C204.36,149.6,203.4,150,201.31,150Z"/>
              <path class="ae861b43-b817-414f-8805-46f6f0911fdd" d="M197.22,146.66c-1.26-2.25-3.57-9-6.07-22.28-.44,1.79-10.92.28-12.22-.23a3.58,3.58,0,0,1-.89-.48c1.45,15.11,3.61,25,7.12,32.24,6.6-.48,7.11.22,12.6-1.65a32.68,32.68,0,0,0,6.29-3.56C202.06,152.19,198.14,148.3,197.22,146.66Z"/>
              <path class="ae861b43-b817-414f-8805-46f6f0911fdd" d="M198.55,100.8c-2.18-2.6-7.29-4.11-14.61-4-1.69.78-3.37,2.69-4.45,6.15,3.11-1.3,9.67-2.56,14.07.6,1.79-2.38,3.43-2.93,5.38-2C198.83,101.47,199,101.37,198.55,100.8Z"/>
              <path class="a1574141-4559-4529-9446-7750e8084ca5" d="M191.37,135.44s-5.5-12.32-1.18-25C190.19,110.44,183.85,120.08,191.37,135.44Z"/>
            </g>
            <g id="ae0fd6c4-1516-4a17-a0d5-a928cfa5edfc" data-name="wings">
              <path class="ea53d0d9-753e-4f1e-9002-aa8beb672140" d="M201.64,133.68s-2.94,27.41-2.49,36.07,3.83,11.18,7.13,10.67,5.14-6.73,3.06-18.22-3.88-28.14-3.88-28.14Z"/>
              <path class="a65bc64a-6959-4ce0-bdd6-6f62c9c94216" d="M202.53,134s-1.91,27.5-1.29,36.07,2.78,10.24,5.95,9.79,4.83-6.54,2.58-17.94-4.31-27.89-4.31-27.89Z"/>
              <path class="aee99e6f-0d3c-4d71-8b0f-a02e8bb68bbb" d="M202.15,139.84s-.1,2.71-.26,6.77c-.08,2-.16,4.4-.26,6.94,0,1.27-.11,2.58-.14,3.91s-.08,2.69-.1,4-.07,2.71,0,4v2c0,.65,0,1.29.07,1.92,0,1.26.17,2.49.31,3.64a21.43,21.43,0,0,0,.67,3.18,7.24,7.24,0,0,0,1.23,2.42,3.29,3.29,0,0,0,1.73,1.12,4.88,4.88,0,0,0,1.36.13l.48,0-.48.06a4.6,4.6,0,0,1-1.38-.07,3.43,3.43,0,0,1-1.84-1.09,7.08,7.08,0,0,1-1.34-2.45,21.77,21.77,0,0,1-.75-3.22,34.07,34.07,0,0,1-.38-3.65l-.09-1.94c0-.66,0-1.32,0-2,0-1.34,0-2.69,0-4s.08-2.71.13-4,.1-2.65.16-3.92.13-2.49.2-3.66.14-2.26.2-3.27C201.91,142.54,202.15,139.84,202.15,139.84Z"/>
              <path class="f6b8ce95-cd14-4453-aab4-5c02131a8efa" d="M201.64,133.68s-2.94,27.41-2.49,36.07,3.83,11.18,7.13,10.67a2.93,2.93,0,0,0,1.42-.66,2.11,2.11,0,0,0,.43-.2c2.54-1.45,3.66-7.4,1.64-17.61-2.24-11.41-4.31-27.89-4.31-27.89Zm7.7,28.35a40.91,40.91,0,0,1,.88,12c-.32,2.67-1.14,4.51-2.31,5.18a1.69,1.69,0,0,1-.36.17l-.07,0-.06,0a3.19,3.19,0,0,1-.38.26,2.29,2.29,0,0,1-.83.29,4.16,4.16,0,0,1-3.39-.88c-1.86-1.52-3-4.75-3.22-9.37-.42-7.92,2.06-32,2.44-35.55l3,.3C205.38,136.93,207.29,151.66,209.34,162Z"/>
              <path class="a9fac67b-08f1-4d89-a594-9c001d00cae7" d="M201.36,116.38s-6.52-34.14-4.65-42.25c1.51-6.51,9.94-4.77,10.92,6.06s-2.56,35.12-2.56,35.12Z"/>
              <path class="a65bc64a-6959-4ce0-bdd6-6f62c9c94216" d="M202.41,115.81s-5.45-35-4.15-41.36S207,70.16,208,80.69,206,114.81,206,114.81Z"/>
              <path class="aee99e6f-0d3c-4d71-8b0f-a02e8bb68bbb" d="M201.35,108.64s-.11-.64-.29-1.75-.44-2.7-.72-4.61-.61-4.15-.91-6.54-.6-5-.87-7.52c-.13-1.29-.24-2.57-.34-3.84s-.19-2.51-.25-3.72-.09-2.38-.06-3.49c0-.55.05-1.1.07-1.62,0-.26.07-.52.1-.77l.06-.38.09-.35a5,5,0,0,1,1.27-2.34,3.19,3.19,0,0,1,.92-.64,3,3,0,0,1,.92-.23,3.26,3.26,0,0,1,1.3.16l.43.17-.44-.15a3.43,3.43,0,0,0-1.28-.09,2.87,2.87,0,0,0-.88.25,3.16,3.16,0,0,0-.85.65,4.93,4.93,0,0,0-1.15,2.27c0,.12-.05.24-.08.36s0,.24,0,.36-.07.5-.09.75c0,.52,0,1.05,0,1.6,0,1.11.07,2.27.13,3.47s.17,2.45.27,3.71.24,2.54.37,3.82c.25,2.56.53,5.12.82,7.52s.54,4.63.77,6.55C201,106.08,201.35,108.64,201.35,108.64Z"/>
              <path class="badea5e1-2f9c-4e51-8318-affcf741448a" d="M204.31,72c-1.74-1.68-3.82-2-5.39-1.15a5,5,0,0,0-2.21,3.32c-1.87,8.11,4.65,42.25,4.65,42.25l3.71-1.07,0-.27.84-.23s3.13-23.58,2.06-34.12C207.57,76.33,206,73.42,204.31,72Zm3.26,8.78c1,9.73-1.67,31-2,33.71l-.55.16-.28.08,0,.27-3,.85c-.78-4.17-6.27-34.17-4.56-41.57a4.47,4.47,0,0,1,2-3c1.45-.84,3.31-.42,4.86,1.08v0h0C205.9,73.88,207.19,77,207.57,80.74Z"/>
            </g>
            <g id="a2a79be0-a694-485b-8350-a944ea7e21fb" data-name="o1">
              <path class="f58da9f2-d6f6-49a7-be0b-471dbd528d15" d="M202.23,134.7s-4.65-3.58-4.12-11,5.09-9.27,6.28-9.1,15.11,1.28,16.68,9.15S206.57,136.32,202.23,134.7Z"/>
              <path class="a67af945-2d75-4cc6-97f3-a4a0a8433b65" d="M208,117.78c-2.64.41-4.74,2.76-6.32,4.85a10.31,10.31,0,0,0-2.11,4.75,4.45,4.45,0,0,0,.11,1.89,2.54,2.54,0,0,1-.69-2.08,12.12,12.12,0,0,1,1.75-9.07c.94-1.48,1.91-3.22,4.76-2.53s10.7,2.59,10.58,3.09S210.78,117.34,208,117.78Z"/>
              <path class="bfc3ef8f-333d-4ee9-8480-e57a52f6142d" d="M209.56,131.08s7.56,1.15,10.37-5.77C219.93,125.31,218.08,130,209.56,131.08Z"/>
            </g>
            <g id="bb60342a-c8f2-4847-a881-4619793c908d" data-name="button">
              <path class="bde7c06e-c79c-4578-9e1c-12c6c9165961" d="M187.18,153c.39.53.46,1.14.16,1.36s-.86,0-1.25-.56-.46-1.13-.16-1.36S186.79,152.44,187.18,153Z"/>
              <path class="bde7c06e-c79c-4578-9e1c-12c6c9165961" d="M183.7,143.6c.23.61.14,1.22-.21,1.35s-.82-.25-1.06-.87-.14-1.22.21-1.35S183.46,143,183.7,143.6Z"/>
              <path class="bde7c06e-c79c-4578-9e1c-12c6c9165961" d="M181.34,130.83c0,.65-.28,1.2-.65,1.2s-.69-.51-.7-1.17.27-1.2.64-1.21S181.32,130.17,181.34,130.83Z"/>
              <path class="bde7c06e-c79c-4578-9e1c-12c6c9165961" d="M180.61,119c-.07.65-.43,1.15-.8,1.1s-.61-.6-.54-1.25.43-1.15.8-1.11S180.69,118.35,180.61,119Z"/>
              <path class="bde7c06e-c79c-4578-9e1c-12c6c9165961" d="M181.51,107.76c0,.66-.38,1.17-.76,1.14s-.63-.58-.59-1.23.39-1.17.77-1.14S181.56,107.11,181.51,107.76Z"/>
              <path class="bde7c06e-c79c-4578-9e1c-12c6c9165961" d="M184.63,99.2c-.43.59-1,.93-1.21.76s-.06-.79.37-1.38,1-.93,1.21-.76S185.07,98.61,184.63,99.2Z"/>
            </g>
            <g>
              <path class="affdabdb-dfe8-4fc0-be74-dd1b257bb297" d="M66,136.57l-28.64,1.85s-12.23,16.19-13,18.92,1.25,6.61,5.22,5.72,9.65-3.57,18.21-9.27S65.92,136.07,66,136.57Z"/>
              <path class="f58da9f2-d6f6-49a7-be0b-471dbd528d15" d="M66,136.57l-29.7,1.72s-11.89,15.39-12.69,18.12,1.25,6.62,5.22,5.73,9.65-3.58,18.21-9.27S65.92,136.07,66,136.57Z"/>
            </g>
            <g>
              <path class="f4b71b23-d1f7-4797-9143-f563ea525b56" d="M38.92,124.5s-8.9-19-9.86-21.71-.46-5.39,2.85-6.73,5.88-.65,8.72,2.41,16,17.7,22.21,19.23c0,0,.16,1.45-4.44,2.33s-18.48,2.9-18.48,2.9A5.23,5.23,0,0,0,38.92,124.5Z"/>
              <path class="bf1806d1-ee0b-40bf-901f-db8d894474a9" d="M40.63,98.47c-2.84-3.06-5.41-3.76-8.72-2.41a4.87,4.87,0,0,0-3.08,3,3.07,3.07,0,0,1,1.8-1.56c2.26-.54,4-1.51,9.21,3.9,4.83,5,11,14.33,19.5,18.43,3.63-.88,3.5-2.13,3.5-2.13C56.61,116.17,43.47,101.53,40.63,98.47Z"/>
              <path class="bc487794-7e5c-4adf-9628-c85e73fdb71a" d="M53.33,120.54A35,35,0,0,1,37,112.41a24.1,24.1,0,0,1-6.79-9.84,10.49,10.49,0,0,1-.72-4.35,5.13,5.13,0,0,0-.47,5C30,106,38.92,125,38.92,125a5.23,5.23,0,0,1,1-1.57s11-1.6,16.66-2.57A17.09,17.09,0,0,1,53.33,120.54Z"/>
            </g>
            <path class="e52f0d93-3838-4fc8-bc2a-1721db6b3af5" d="M133.73,95.4s3.74,10.43,8.11,11.13-11.64,2.86-14.8,2.28-2.14-18,1.91-17.48S133.05,93.92,133.73,95.4Z"/>
            <path class="ae1bb3d1-ecb8-4536-af82-f4148597c127" d="M128.56,91.54a60.82,60.82,0,0,1,5.32,12.75s.27,3.77,8.52,2.61c0,0-2.43-.51-5.08-4s-4.08-9.23-5-10.13a4.49,4.49,0,0,0-3.44-1.28"/>
            <path class="b46a1dd8-a802-43f1-b23d-7c33da44217c" d="M112.2,106c.48,1.29,1.36,2.56,4.41,3.28s49.84-3.77,52-5.53c1.82-1.51,3.7-5.41,4-6.24.65-2.12-4.41-30.23-29.37-29.22C117.93,69.28,108.92,97,112.2,106Z"/>
            <polygon class="ba49055b-1adb-40bb-ad86-7c7d908bb4db" points="128.92 80.35 122.42 108.9 133.45 107.71 137.2 78.15 128.92 80.35"/>
            <polygon class="ba49055b-1adb-40bb-ad86-7c7d908bb4db" points="138.76 78.15 136.1 107.78 140.08 106.42 142.82 77.78 138.76 78.15"/>
            <path class="f215f1cd-f31e-434e-b9c5-269525316644" d="M156.08,70.77s-4.66,1.76-3.19,8.47c2.3,10.49,15.33,24.64,13.92,25s-1.82.16-2.54.55c0,0,.1-.18-2.27-4.56,0,0-6.57-10.08-10.1-18.55s-25.36-2.7-26.43,2.37c-.82,3.85-10.12,22.63-6.84,25.09,0,0-4.07.33-5.25-1.47,0,0,1.06,5.63,10.46-22.94,0,0-1.25-3.89-5.91-2.16,0,0,7.54-11.69,21-14A29.41,29.41,0,0,1,156.08,70.77Z"/>
            <path class="e6c360a2-9dcd-4896-b9d1-0055de109657" d="M155.19,71.38s7,4,10.2,8.58,5.63,11.35,6.89,17.62l.82-.18s-2.14-19.13-17-26.63A2.28,2.28,0,0,0,155.19,71.38Z"/>
            <path class="ebefe5fc-b895-4a34-bd2f-5415570dd19c" d="M120,79.84s4.63-4.94,7.85-6.88,10-5.27,15.31-4.86,8.68.83,12,2.29c0,0-5.89,2.37-1.5,13.67a12.25,12.25,0,0,0-12.76-7.92c-6.67.45-13.36,2.54-14.71,5.41a81.19,81.19,0,0,0-3.72,9.72c-2.09,6.07-5.35,12.68-5.18,15.26s1.31,2.56,1.31,2.56-3.23.52-4.69-1c0,0,1.55,1.35,3.14-4.48,1.41-5.12,5.67-12.25,6.94-20.57C124.23,81.63,122.62,79.5,120,79.84Z"/>
            <path class="b963237a-b44c-4445-bae2-dc609508cd3c" d="M112.2,105.82c.83,2.82,4,3.27,6.84,3.36,6.14.18,15.57-1.27,22.4-2,7.85-.88,26-2.5,26.77-3.58,2.88-4,4.07-6,4.07-6a6.56,6.56,0,0,1,1.52,0c-.45,1.17-.43,1-4.1,6.26-1.27,1.81-3.33,1.76-6.17,2.35-2.57.53-15.78,2.31-22.26,2.81-3.92.3-17,2.13-22.23,1.84C114.08,110.52,110.7,109.12,112.2,105.82Z"/>
            <g>
              <g>
                <path class="ee2ed89d-92fd-4d4c-be31-3ccd05cde903" d="M113.31,129.17c-2.73.05-2.73.05-5.78,4.41-2.59,3.71-17.31,21.31-18.41,24.78s-.87,8.71,4,9.28,26.58,3.27,33.75,3.33,11,1.49,14.12-8.82,9.22-23,8.69-27-2.24-6.74-7.36-7S116,129.11,113.31,129.17Z"/>
                <path class="e11bae78-bea4-48c4-89e1-1ff72bbf5b7a" d="M142.34,128.17c-5.13-.25-26.33,1.29-29,1-1.28-.16-2.71.51-5.78,4.24-1.5,1.83-4.11,5.69-7,9.23,3.49-5.51,8.72-7.11,24.31-7.18,17.7-.08,19.89,2.87,21.58,11.78,1.81-5.43,3.4-9.15,3.31-12.3C149.58,131,147.46,128.42,142.34,128.17Z"/>
                <path class="bd1d292e-0f10-4d95-9a81-ea94161857f7" d="M129.71,128.74c9.82-.06,16.12,2.28,20.07,8,0-.64-.06-1.25-.08-1.83-.12-3.93-2.24-6.47-7.36-6.72s-23.43.9-26.16,1-5.48.29-8.65,4.24a7.7,7.7,0,0,0-.69,1.79C109,130.92,121.31,128.8,129.71,128.74Z"/>
                <path class="eec6c07e-0cf1-426e-9ba1-45cdec571060" d="M141.3,160.1c-4.35,6.47-7.59,5.22-13.73,5.45-7.16.27-28.87-1.58-33.76-1.93-3.21-.23-4.44-2.55-4.62-5.11-.77,3.41-.19,7.83,4.27,8.35,4.89.56,26.64,2.41,33.75,3.32C141.3,172,141.31,160.51,141.3,160.1Z"/>
              </g>
              <path class="b13b0453-c7e7-4da2-97dc-2fa7c0fd0a44" d="M89.08,160.92a.94.94,0,0,0,0,.25,2.91,2.91,0,0,0,.17.66,3.18,3.18,0,0,0,.46.84,8.17,8.17,0,0,0,.79.76,6.33,6.33,0,0,0,2.37,1,19.75,19.75,0,0,0,3.17.3c2.34.11,5.07.48,8,.61l9.16.49c3.12.17,9.29.52,12.22.6,2,0,3.54-.07,4.22,0a23.7,23.7,0,0,0,4-.28,15.31,15.31,0,0,0,2.87-.91,11.1,11.1,0,0,0,3.07-2.5c.32-.49,1.24-1.54,1.24-1.54s-.67,1.43-1,1.89a11,11,0,0,1-3.11,2.9,9,9,0,0,1-3.35,1.05c-.58.08-3.12.38-3.79.39s-3.49.23-4.22.22c-1.47,0-10.67-.37-12.23-.44s-7.7-.54-9.17-.65-6.82-.89-8-1a17,17,0,0,1-3.19-.57,6.94,6.94,0,0,1-2.39-1.25,3.94,3.94,0,0,1-1.22-1.8,2.6,2.6,0,0,1-.15-.7A1.18,1.18,0,0,1,89.08,160.92Z"/>
              <line class="ac5b5c0f-a69e-4fc6-a609-5913969eed83" x1="144.52" y1="150.7" x2="97.82" y2="146.49"/>
            </g>
            <g>
              <ellipse class="b2a5e269-8d87-458c-807b-5d1b1900e1e8" cx="203.12" cy="124.57" rx="17.42" ry="56" transform="translate(-5.79 9.97) rotate(-2.77)"/>
              <g>
                <path class="f63e146a-c1e3-4a89-8dbe-71d3b8cd16c1" d="M215.25,97.87s-4.58-22.26-13-26.29c-6.88-3.28-14.55,9-15.23,38.49.24-6.68,3.8-32.66,11.24-34.13S214.39,93.75,215.25,97.87Z"/>
                <path class="bee831ba-b15b-44cf-8352-eb5f6444fab4" d="M219.39,139.86s-.94,23.92-7.7,34.79-17.84-.8-22.79-25c2.35,10.56,9,25,16.67,24.46C216,173.34,219.39,139.86,219.39,139.86Z"/>
              </g>
              <g>
                <path class="f63e146a-c1e3-4a89-8dbe-71d3b8cd16c1" d="M211.82,106.69s-3.35-16.26-9.53-19.21c-5-2.4-10.63,6.6-11.12,28.12.17-4.87,2.77-23.86,8.21-24.94S211.19,103.68,211.82,106.69Z"/>
                <path class="bee831ba-b15b-44cf-8352-eb5f6444fab4" d="M214.84,137.37s-.68,17.48-5.62,25.43-13-.59-16.65-18.26c1.71,7.71,6.6,18.28,12.17,17.86C212.34,161.83,214.84,137.37,214.84,137.37Z"/>
              </g>
              <path class="f63e146a-c1e3-4a89-8dbe-71d3b8cd16c1" d="M209.32,112.64s-.84-5.4-2.82-6.46c-1.62-.87-3.6,2-4.11,9.06.14-1.6,1.29-7.8,3.1-8.06S209.16,111.64,209.32,112.64Z"/>
            </g>
          </g>
        </g>
      </g>
    </g>
  </g>
</svg>
