<svg xmlns="http://www.w3.org/2000/svg" xmlns:xlink="http://www.w3.org/1999/xlink" width="462.9" height="482.5" viewBox="0 0 462.9 482.5">
  <defs>
    <style>
      .a7f23e5a-f28b-46b8-a711-0ef2173291dd, .e76766c3-5dae-47df-8522-ca150b10b885 {
        fill: none;
      }

      .adc3faaf-81ec-4516-ae29-c8ead705f4b2 {
        isolation: isolate;
      }

      .a41b046d-915b-4e2e-a234-d64574564152, .fc3abc1b-313d-4a41-b943-7d1c360b3e10 {
        opacity: 0.5;
      }

      .a83762f6-955c-4822-b968-21b575d8cee0 {
        fill: url(#f91f1db6-9b4d-4667-a8c7-97d158966ecb);
      }

      .a9acb2d0-5f81-4969-891d-34449a86e7d3 {
        fill: #31d0e5;
        stroke-width: 6px;
        stroke: url(#fb8ada7b-24ef-4c53-a5eb-4c872a2ee150);
      }

      .a9acb2d0-5f81-4969-891d-34449a86e7d3, .b396e403-b7f1-4e2b-87c2-a8f37cc73d25, .e76766c3-5dae-47df-8522-ca150b10b885 {
        stroke-miterlimit: 10;
      }

      .f1ce6ebf-9a4e-4d9b-bf38-489f911690ed {
        clip-path: url(#e0679d53-a780-4850-b529-6883c273c04b);
      }

      .a9ad1c4d-19bb-4118-b668-1645023c34a8 {
        fill: #3fc416;
      }

      .ae03d631-8e46-4c54-9a8b-a3c759da849e {
        fill: #0028ff;
      }

      .b9b90b08-9b5e-46c2-b624-fd831adba51c {
        fill: red;
      }

      .a929e6d6-b579-4f00-85bb-23958d95fb3c {
        fill: #00a6fd;
      }

      .b0a2f7ab-0a6d-4934-b1c4-7108567d61c5 {
        fill: #fb8000;
      }

      .a970f1b9-2a00-481e-9dcd-fe36455799e7 {
        fill: #020fe9;
      }

      .b396e403-b7f1-4e2b-87c2-a8f37cc73d25 {
        fill: #ff9906;
        stroke: #d6380d;
        stroke-width: 0.75px;
      }

      .a146af30-5def-42cf-860f-d27972bcc463 {
        mix-blend-mode: screen;
        opacity: 0.3;
      }

      .b43c2545-e47d-4b39-92c2-321c4b37b078 {
        fill: #ff7880;
      }

      .a41b046d-915b-4e2e-a234-d64574564152 {
        mix-blend-mode: multiply;
      }

      .a716739f-e15c-40fa-ba09-dba3df60e49e {
        fill: url(#b0bbb07b-6772-4e03-9a59-c09f98e702c9);
      }

      .fb69843f-4aa9-4925-ba54-fa21f50e4122 {
        fill: url(#acb496c2-8356-419b-b1b4-d02f5de94d9e);
      }

      .e76766c3-5dae-47df-8522-ca150b10b885 {
        stroke: #2f404f;
        stroke-width: 0.5px;
      }

      .aa6b16b7-380f-41a1-a829-bfc11d0f57b1 {
        fill: #00a3fd;
      }

      .a99f9107-962e-4abb-94ce-19254e47bcb4 {
        fill: #e53963;
      }

      .b4e90a98-3cef-47b2-a0af-81e88564ac07 {
        fill: url(#b14264c8-eb49-4051-8ab1-1a06b4fc9bc8);
      }
    </style>
    <linearGradient id="f91f1db6-9b4d-4667-a8c7-97d158966ecb" x1="52.73" y1="118.79" x2="402" y2="358.11" gradientUnits="userSpaceOnUse">
      <stop offset="0" stop-color="#9b81cf"/>
      <stop offset="1" stop-color="#3b139b"/>
    </linearGradient>
    <linearGradient id="fb8ada7b-24ef-4c53-a5eb-4c872a2ee150" x1="25.67" y1="241.25" x2="437.24" y2="241.25" gradientUnits="userSpaceOnUse">
      <stop offset="0" stop-color="#4c1da9"/>
      <stop offset="1" stop-color="#997ece"/>
    </linearGradient>
    <clipPath id="e0679d53-a780-4850-b529-6883c273c04b">
      <ellipse class="a7f23e5a-f28b-46b8-a711-0ef2173291dd" cx="233.9" cy="247.25" rx="205" ry="205.54"/>
    </clipPath>
    <linearGradient id="b0bbb07b-6772-4e03-9a59-c09f98e702c9" x1="-2073.09" y1="-5906.46" x2="-2072.19" y2="-5800.24" gradientTransform="matrix(-0.69, 0.33, 0.33, 0.69, 789.48, 4727.96)" gradientUnits="userSpaceOnUse">
      <stop offset="0" stop-color="#cc8122"/>
      <stop offset="0.32" stop-color="#9e5e16"/>
      <stop offset="0.78" stop-color="#612f06"/>
      <stop offset="1" stop-color="#491c00"/>
    </linearGradient>
    <linearGradient id="acb496c2-8356-419b-b1b4-d02f5de94d9e" x1="-2132.17" y1="-5861.69" x2="-2013.1" y2="-5861.69" xlink:href="#b0bbb07b-6772-4e03-9a59-c09f98e702c9"/>
    <linearGradient id="b14264c8-eb49-4051-8ab1-1a06b4fc9bc8" x1="-5357.86" y1="-9285.15" x2="-5357.21" y2="-9209.11" gradientTransform="matrix(-1.8, -0.47, -0.47, 1.8, -13892.92, 14051.35)" xlink:href="#b0bbb07b-6772-4e03-9a59-c09f98e702c9"/>
  </defs>
  <g class="adc3faaf-81ec-4516-ae29-c8ead705f4b2">
    <g id="a3aa08a3-e68b-45a5-b800-e24515ddac4f" data-name="Layer 1">
      <g>
        <path class="fc3abc1b-313d-4a41-b943-7d1c360b3e10" d="M444.68,252.5a208.28,208.28,0,0,0-25.42-100,211.66,211.66,0,0,0-187.81-114c-116.9,0-211.67,94.78-211.67,211.68s94.77,211.68,211.67,211.68c3,0,5.93-.08,8.87-.2C353.63,459.07,444.68,366.42,444.68,252.5Z"/>
        <g>
          <g>
            <circle class="a83762f6-955c-4822-b968-21b575d8cee0" cx="231.45" cy="241.25" r="211.68"/>
            <circle class="a9acb2d0-5f81-4969-891d-34449a86e7d3" cx="231.45" cy="241.25" r="202.78"/>
          </g>
          <g class="f1ce6ebf-9a4e-4d9b-bf38-489f911690ed">
            <g>
              <g>
                <g>
                  <path class="a9ad1c4d-19bb-4118-b668-1645023c34a8" d="M321.62,4.66l.4.45c.24.28.59.7,1,1.21.18.26.37.54.54.84a5.71,5.71,0,0,1,.43,1,3.1,3.1,0,0,1,.11.51c0,.2,0,.4.05.6,0,.44.09.88.16,1.33a8.87,8.87,0,0,0,.35,1.32,5,5,0,0,0,.61,1.22,3.53,3.53,0,0,0,.93.92,4.24,4.24,0,0,0,1,.49,6.22,6.22,0,0,0,.87.25l.67.13.59.09-.52-.29c-.34-.18-.83-.41-1.37-.72a5.17,5.17,0,0,1-.78-.57,3.14,3.14,0,0,1-.63-.8,4.63,4.63,0,0,1-.43-1,9,9,0,0,1-.28-1.19c-.07-.41-.12-.83-.18-1.24a6.18,6.18,0,0,0-.08-.66,3.59,3.59,0,0,0-.21-.68,4.91,4.91,0,0,0-.65-1.1,6.42,6.42,0,0,0-.74-.8,6.69,6.69,0,0,0-.7-.58,5.9,5.9,0,0,0-.58-.39A4.06,4.06,0,0,0,321.62,4.66Z"/>
                  <path class="ae03d631-8e46-4c54-9a8b-a3c759da849e" d="M321.62,4.76a7.84,7.84,0,0,1,.83.2,6.86,6.86,0,0,1,.91.35,5.12,5.12,0,0,1,1.05.63A3.4,3.4,0,0,1,325.29,7a3.18,3.18,0,0,1,.35,1.46,5.92,5.92,0,0,1-.26,1.68c0,.14-.08.29-.13.43l-.17.45-.31.91c-.09.32-.16.67-.24,1s-.09.68-.13,1,0,.68,0,1l.07.49a2.65,2.65,0,0,0,.09.49,4.6,4.6,0,0,0,.29.91,4,4,0,0,0,.19.43l.23.39a1.74,1.74,0,0,0,.24.36l.26.34c.19.19.37.4.56.56a5.55,5.55,0,0,0,.58.44,3.64,3.64,0,0,0,.55.33,2.66,2.66,0,0,0,.52.24,3.57,3.57,0,0,0,.44.17l.37.1.28.05.23.05a.1.1,0,0,0,.12-.09.1.1,0,0,0-.06-.11h0l-.21-.09-.25-.1-.33-.16a4.09,4.09,0,0,1-.39-.22c-.14-.08-.28-.18-.44-.29a4.66,4.66,0,0,1-.46-.37c-.16-.13-.31-.29-.47-.45s-.29-.36-.44-.54l-.19-.31a2.17,2.17,0,0,1-.19-.33l-.17-.35c-.06-.12-.08-.25-.13-.37a2.52,2.52,0,0,1-.12-.39l-.09-.4a2.7,2.7,0,0,1-.05-.41l0-.43c0-.14,0-.29,0-.43s0-.29,0-.44a8.48,8.48,0,0,1,.13-.88c.07-.29.12-.58.21-.87l.3-.92.16-.45c.06-.16.09-.32.14-.48a6.15,6.15,0,0,0,.22-2A3.89,3.89,0,0,0,326,6.57a3.49,3.49,0,0,0-.57-.69,3.59,3.59,0,0,0-.64-.5,5.1,5.1,0,0,0-1.26-.57,6.18,6.18,0,0,0-1-.21c-.28,0-.5,0-.66,0h-.23a.11.11,0,0,0-.1.11A.11.11,0,0,0,321.62,4.76Z"/>
                  <path class="b9b90b08-9b5e-46c2-b624-fd831adba51c" d="M321.61,4.76l.19.06a2.83,2.83,0,0,1,.49.25,2.88,2.88,0,0,1,.64.56,3.46,3.46,0,0,1,.55.93,5.13,5.13,0,0,1,.32,1.27,10.35,10.35,0,0,1,0,1.49,7,7,0,0,1-.07.79c0,.28-.07.56-.11.84a6.88,6.88,0,0,0,0,1.87,5.16,5.16,0,0,0,.62,1.83A4.72,4.72,0,0,0,325.51,16a5.67,5.67,0,0,0,1.5.78,6.86,6.86,0,0,0,1.43.34,7.41,7.41,0,0,0,2.16,0,3.18,3.18,0,0,0,.79-.24h0a.1.1,0,0,0-.07-.19l-.2,0a3.88,3.88,0,0,1-.56,0,8.7,8.7,0,0,1-2-.27,7.42,7.42,0,0,1-1.25-.43,5.39,5.39,0,0,1-1.22-.76,3.89,3.89,0,0,1-1.41-2.6,6.12,6.12,0,0,1,0-1.6,12.74,12.74,0,0,0,.13-1.74,8.2,8.2,0,0,0-.17-1.66,5.28,5.28,0,0,0-.52-1.43,3.56,3.56,0,0,0-.8-1,3.05,3.05,0,0,0-.84-.52,2.57,2.57,0,0,0-.6-.16l-.23,0a.11.11,0,0,0-.1.11A.11.11,0,0,0,321.61,4.76Z"/>
                  <g>
                    <path class="a9ad1c4d-19bb-4118-b668-1645023c34a8" d="M241.38,43.7a5,5,0,0,0-.11.6c0,.19-.05.43-.06.7a7,7,0,0,0,0,.91,5.52,5.52,0,0,0,.16,1.09,4.61,4.61,0,0,0,.44,1.2,3.54,3.54,0,0,0,.39.59c.17.2.31.33.46.48s.57.6.84.92a11.29,11.29,0,0,1,.75,1,4.75,4.75,0,0,1,.53,1,3.27,3.27,0,0,1,.22,1,5.18,5.18,0,0,1,0,1c-.1.62-.23,1.15-.3,1.53s-.11.6-.11.6l.3-.53c.09-.17.2-.37.32-.61a8.81,8.81,0,0,0,.36-.84,4.33,4.33,0,0,0,.24-1.11,3.45,3.45,0,0,0-.13-1.3,4.81,4.81,0,0,0-.55-1.25,8.22,8.22,0,0,0-.81-1.1c-.29-.34-.6-.66-.92-1l-.43-.4c-.12-.13-.22-.27-.33-.41a6,6,0,0,1-.48-.95,8.19,8.19,0,0,1-.31-1c-.16-.61-.27-1.14-.34-1.51S241.38,43.7,241.38,43.7Z"/>
                    <path class="a929e6d6-b579-4f00-85bb-23958d95fb3c" d="M241.3,43.64l-.15.19a4.61,4.61,0,0,0-.37.55,6.14,6.14,0,0,0-.47.93,4.59,4.59,0,0,0-.35,1.35,3.79,3.79,0,0,0,0,.83,4.17,4.17,0,0,0,.18.88,3.87,3.87,0,0,0,1.07,1.6A6.15,6.15,0,0,0,242.87,51c.15.06.3.14.46.19l.45.16.89.33c.29.12.54.25.81.37s.5.31.76.45.23.18.35.27l.34.26.3.29a2.13,2.13,0,0,1,.29.31l.25.32a2.37,2.37,0,0,1,.22.33c.07.12.15.22.21.34s.11.23.16.35a2.13,2.13,0,0,1,.14.35l.12.35c0,.24.11.46.14.69a5,5,0,0,1,.05.65,5.86,5.86,0,0,1-.05,1.12,4.12,4.12,0,0,1-.08.45c0,.13-.05.25-.08.36s0,.19-.07.26l-.07.22h0a.09.09,0,0,0,.06.12.09.09,0,0,0,.12-.05l.11-.2.14-.26.15-.35a4.15,4.15,0,0,0,.15-.46,4,4,0,0,0,.14-.55,6,6,0,0,0,.09-.65,5.87,5.87,0,0,0,0-.73c0-.26-.05-.52-.07-.8l-.1-.41a2.92,2.92,0,0,0-.13-.42l-.16-.43a4,4,0,0,0-.21-.41,5,5,0,0,0-.52-.81,2.73,2.73,0,0,0-.32-.37l-.34-.36c-.25-.21-.5-.44-.77-.63s-.56-.37-.86-.53-.62-.31-.93-.44l-.89-.32-.45-.15c-.15,0-.28-.11-.42-.16a5.76,5.76,0,0,1-1.45-.85,3.22,3.22,0,0,1-.92-1.18,3.49,3.49,0,0,1-.26-1.36,5.71,5.71,0,0,1,.17-1.23,7.2,7.2,0,0,1,.31-.93,6.63,6.63,0,0,1,.36-.79.11.11,0,0,0,0-.14A.11.11,0,0,0,241.3,43.64Z"/>
                    <path class="b0a2f7ab-0a6d-4934-b1c4-7108567d61c5" d="M241.3,43.65l-.13.18a3.09,3.09,0,0,0-.25.58,3.3,3.3,0,0,0,.15,2.25,5,5,0,0,0,.77,1.3A8.16,8.16,0,0,0,243,49.13a12.73,12.73,0,0,0,1.41,1,6,6,0,0,1,1.23,1,4.12,4.12,0,0,1,.84,1.28,4.36,4.36,0,0,1,.29,1.46,5.68,5.68,0,0,1-.18,1.44,8.46,8.46,0,0,1-.45,1.26,9,9,0,0,1-1,1.75,3.84,3.84,0,0,1-.38.43l-.14.14a.09.09,0,0,0,0,.14.1.1,0,0,0,.12,0h0a3,3,0,0,0,.68-.48,7.37,7.37,0,0,0,1.38-1.68,6.5,6.5,0,0,0,.64-1.35,5.76,5.76,0,0,0,.33-1.66,4.78,4.78,0,0,0-.29-1.85,5.21,5.21,0,0,0-1-1.63A6.71,6.71,0,0,0,245,49.24l-.71-.43c-.23-.14-.45-.29-.66-.44a9,9,0,0,1-1.12-1,5.23,5.23,0,0,1-.78-1,3.52,3.52,0,0,1-.37-1,2.77,2.77,0,0,1,0-.85,3.08,3.08,0,0,1,.11-.55.92.92,0,0,1,.07-.18.11.11,0,0,0-.05-.14A.1.1,0,0,0,241.3,43.65Z"/>
                  </g>
                  <path class="a929e6d6-b579-4f00-85bb-23958d95fb3c" d="M329.28,113.76l-.11-.12-.34-.35a16.54,16.54,0,0,0-1.41-1.25,22.35,22.35,0,0,0-2.42-1.63,35,35,0,0,0-3.36-1.68c-1.24-.57-2.62-1.09-4-1.69a29.52,29.52,0,0,1-4.25-2,12,12,0,0,1-1.9-1.41,8,8,0,0,1-.78-.86,7,7,0,0,1-.65-1,9.32,9.32,0,0,1-1-4.71,23.81,23.81,0,0,1,.75-5.13l.16-.66c.05-.22.1-.46.15-.69.09-.45.17-.9.24-1.36a22.6,22.6,0,0,0,.2-2.7,20.84,20.84,0,0,0-.53-5.08,22.58,22.58,0,0,0-1.45-4.3,24.59,24.59,0,0,0-1.85-3.32,25.22,25.22,0,0,0-1.75-2.32c-.53-.61-1-1.06-1.28-1.36l-.37-.34-.13-.11a.2.2,0,0,0-.28,0,.21.21,0,0,0,0,.28h0l.11.12.31.36c.27.33.65.81,1.1,1.45a25.14,25.14,0,0,1,1.49,2.39,23.38,23.38,0,0,1,1.53,3.31,21.68,21.68,0,0,1,1.13,4.12,20.76,20.76,0,0,1,0,7.19c-.08.42-.16.84-.26,1.25,0,.2-.09.39-.15.61l-.17.64A23.12,23.12,0,0,0,307,97a12.8,12.8,0,0,0,.22,2.95,10.9,10.9,0,0,0,.4,1.46,10.79,10.79,0,0,0,.63,1.38,11,11,0,0,0,.85,1.25,10.26,10.26,0,0,0,1,1.06,11.38,11.38,0,0,0,1.11.89,13.15,13.15,0,0,0,1.16.73,28.91,28.91,0,0,0,4.62,2l4.13,1.4c1.26.43,2.4.88,3.38,1.32A23.59,23.59,0,0,1,327,112.7c.67.39,1.17.74,1.51,1l.52.39a.22.22,0,0,0,.29,0A.2.2,0,0,0,329.28,113.76Z"/>
                  <path class="b0a2f7ab-0a6d-4934-b1c4-7108567d61c5" d="M302.31,69.68s.19.14.53.42.84.71,1.46,1.27,1.34,1.26,2.13,2.09a36.26,36.26,0,0,1,2.51,2.93,28.06,28.06,0,0,1,2.47,3.78c.38.71.74,1.44,1.06,2.21a19.25,19.25,0,0,1,1.31,4.94c.06.43.09.88.11,1.31l0,.35v.33c0,.22,0,.44,0,.67a21.67,21.67,0,0,1-.92,5.39c-.51,1.8-1.19,3.6-1.76,5.44a30,30,0,0,0-1.26,5.62,20.34,20.34,0,0,0,.18,5.43,23.59,23.59,0,0,0,1.3,4.63,30.63,30.63,0,0,0,1.68,3.64c.56,1.05,1.11,1.92,1.57,2.64.22.36.44.67.62.94l.48.69.4.56a.21.21,0,0,0,.29.05.21.21,0,0,0,.05-.27h0l-.33-.61c-.21-.39-.52-1-.9-1.72s-.82-1.66-1.28-2.73a35.92,35.92,0,0,1-1.36-3.63,24.1,24.1,0,0,1-1-4.42,18.94,18.94,0,0,1,.07-5,27.1,27.1,0,0,1,1.32-5.21c.6-1.77,1.3-3.57,1.87-5.48a28.22,28.22,0,0,0,.7-2.92,20.33,20.33,0,0,0,.3-3c0-.25,0-.5,0-.76v-.73c0-.51-.08-1-.15-1.49a18.6,18.6,0,0,0-.63-2.84,21.47,21.47,0,0,0-2.24-4.94,26,26,0,0,0-2.87-3.83,28.71,28.71,0,0,0-2.86-2.81,29.26,29.26,0,0,0-2.42-1.88c-.69-.49-1.26-.84-1.64-1.08s-.61-.34-.61-.34a.21.21,0,0,0-.28.09A.23.23,0,0,0,302.31,69.68Z"/>
                  <path class="a970f1b9-2a00-481e-9dcd-fe36455799e7" d="M302.32,69.11l0,0,.08.11c.07.1.17.25.29.46a12.67,12.67,0,0,1,.84,1.87,15.34,15.34,0,0,1,.7,3.11,18.87,18.87,0,0,1,0,4.12,25.69,25.69,0,0,1-1,4.78c-.27.82-.6,1.69-.86,2.67a15.46,15.46,0,0,0-.48,3,11.3,11.3,0,0,0,.3,3.25,10.1,10.1,0,0,0,1.36,3.08,13.22,13.22,0,0,0,2.19,2.52,22.21,22.21,0,0,0,2.6,2c1.8,1.16,3.67,2.1,5.43,3.08.88.49,1.73,1,2.52,1.5a12.12,12.12,0,0,1,1.13.82c.18.14.35.29.51.44l.06.06h0l0,0,.13.12.26.26.25.26.23.25c.15.17.3.32.44.5l.43.52.4.53a11.21,11.21,0,0,1,1.24,2.23,9.77,9.77,0,0,1,.68,4.59,19.45,19.45,0,0,1-.85,4c-.37,1.2-.74,2.24-1,3.11s-.51,1.56-.65,2l-.21.72a.21.21,0,0,0,.14.26.19.19,0,0,0,.24-.12h0l.29-.69c.19-.45.5-1.09.87-1.92s.86-1.84,1.34-3a18.18,18.18,0,0,0,1.22-4.23,11.7,11.7,0,0,0,.1-2.6,10.42,10.42,0,0,0-.59-2.75,13.29,13.29,0,0,0-1.32-2.64l-.42-.62c-.15-.21-.31-.4-.46-.6s-.33-.39-.49-.59l-.26-.3-.25-.26-.25-.27-.13-.13-.08-.09-.07-.07c-.19-.18-.39-.37-.59-.54a14.42,14.42,0,0,0-1.25-1c-.86-.6-1.75-1.14-2.65-1.65-1.79-1-3.61-2-5.28-3.06a14.19,14.19,0,0,1-4.23-3.86A8.94,8.94,0,0,1,304.08,92a9.26,9.26,0,0,1-.32-2.67,14,14,0,0,1,.34-2.67c.18-.85.47-1.72.71-2.62s.43-1.78.56-2.64a22.44,22.44,0,0,0,.25-2.51,19.92,19.92,0,0,0,0-2.33,17.75,17.75,0,0,0-.3-2.07,13.73,13.73,0,0,0-1.06-3.23,10.51,10.51,0,0,0-1.11-1.87,6.63,6.63,0,0,0-.5-.59.21.21,0,0,0-.29,0,.23.23,0,0,0,0,.27Z"/>
                  <g>
                    <polygon class="b396e403-b7f1-4e2b-87c2-a8f37cc73d25" points="240.62 44.08 301.01 65.54 322.2 4.38 261.81 -17.08 240.62 44.08"/>
                    <g class="a146af30-5def-42cf-860f-d27972bcc463">
                      <path class="b43c2545-e47d-4b39-92c2-321c4b37b078" d="M257.36,10.79a35.51,35.51,0,0,0,26.78,20l.81.11a35,35,0,0,0,19.78-3.27A35.4,35.4,0,0,0,318,16.46L322.2,4.38,261.81-17.08,254.75,3.29A36.51,36.51,0,0,0,257.36,10.79Z"/>
                    </g>
                    <g class="a41b046d-915b-4e2e-a234-d64574564152">
                      <path class="a716739f-e15c-40fa-ba09-dba3df60e49e" d="M281.15,24.52l3,6.27,4.26,8.94L294.77,53l4.54,9.36c.74,1.53,1.27,2.61,1.54,3.15.12.26.19.39.19.39l.21-.1-.19-.4L299.6,62.2l-4.38-9.44c-1.82-3.89-4-8.44-6.24-13.31-1.3-2.77-2.66-5.64-4-8.55-1.05-2.22-2.11-4.45-3.16-6.7L274.54,9C272.2,4.14,270-.38,268.17-4.26l-4.54-9.36L262-17l-.16-.06-.06.16c.19.4.74,1.6,1.59,3.44,1.05,2.28,2.56,5.53,4.37,9.44s4,8.44,6.24,13.31Z"/>
                      <path class="fb69843f-4aa9-4925-ba54-fa21f50e4122" d="M240.62,44.08l.82.3C257.92,16.4,290,.78,321.9,5.25l.3-.87L318.86,3.2a81.27,81.27,0,0,0-43.66,8,82.58,82.58,0,0,0-33.37,29.37Z"/>
                    </g>
                    <polygon class="b396e403-b7f1-4e2b-87c2-a8f37cc73d25" points="310.99 67.28 300.54 64.63 296.05 74.55 310.99 67.28"/>
                  </g>
                </g>
                <path class="e76766c3-5dae-47df-8522-ca150b10b885" d="M275.2,11.21c18.92,53.15,5.95,73,109.2,102"/>
              </g>
              <g>
                <g>
                  <path class="a9ad1c4d-19bb-4118-b668-1645023c34a8" d="M209.08-20.93s0,.38,0,1.05,0,1.61-.08,2.71a16.45,16.45,0,0,1-.24,1.74,8.05,8.05,0,0,1-.52,1.78,5.19,5.19,0,0,1-.43.81l-.62.85a21.93,21.93,0,0,0-1.29,2,16.39,16.39,0,0,0-1,2.15,8.6,8.6,0,0,0-.55,2.33,6.36,6.36,0,0,0,.2,2.28,7.88,7.88,0,0,0,.8,1.8,11.12,11.12,0,0,0,.91,1.32c.28.38.54.69.76,1,.43.51.69.8.69.8s-.13-.37-.38-1-.66-1.49-1-2.52a8.56,8.56,0,0,1-.41-1.64,6,6,0,0,1,.06-1.79,8.71,8.71,0,0,1,.6-1.88,20,20,0,0,1,1-1.89c.37-.63.77-1.24,1.17-1.84.21-.32.41-.59.64-1a5.86,5.86,0,0,0,.49-1.13,8.62,8.62,0,0,0,.38-2.2,11.78,11.78,0,0,0-.09-1.92,13.87,13.87,0,0,0-.29-1.57c-.11-.46-.23-.85-.34-1.17A9.77,9.77,0,0,0,209.08-20.93Z"/>
                  <path class="a929e6d6-b579-4f00-85bb-23958d95fb3c" d="M209-20.8a11.13,11.13,0,0,1,.89,1.23,11.48,11.48,0,0,1,.84,1.49,9,9,0,0,1,.7,2,5.6,5.6,0,0,1,0,2.41,5.65,5.65,0,0,1-1.21,2.34,10.16,10.16,0,0,1-2.25,1.93c-.23.14-.44.29-.67.41l-.74.41c-.48.29-1,.57-1.46.85s-1,.71-1.46,1.06-.88.8-1.32,1.19-.79.89-1.15,1.34l-.47.73a4.59,4.59,0,0,0-.43.74,9,9,0,0,0-.65,1.55c-.07.27-.18.52-.22.78s-.1.52-.14.78a3.92,3.92,0,0,0-.08.76c0,.25,0,.5,0,.74a12.11,12.11,0,0,0,.13,1.4,7.76,7.76,0,0,0,.27,1.24,7.59,7.59,0,0,0,.37,1.08,6.89,6.89,0,0,0,.42.9,6.76,6.76,0,0,0,.42.73c.15.21.27.4.38.57l.32.38.26.32a.18.18,0,0,0,.25,0,.19.19,0,0,0,.05-.23h0l-.19-.35c-.06-.12-.13-.26-.22-.42s-.16-.37-.26-.59A6.89,6.89,0,0,1,201,6.3a6.1,6.1,0,0,1-.27-.88,7.37,7.37,0,0,1-.2-1,8.15,8.15,0,0,1-.12-1.13c0-.4,0-.81,0-1.23l.09-.64a3.08,3.08,0,0,1,.12-.65c0-.21.11-.43.17-.65a5.69,5.69,0,0,1,.24-.65,5.17,5.17,0,0,1,.28-.64l.34-.64a4.48,4.48,0,0,1,.39-.61l.44-.61c.16-.19.34-.37.51-.56a6.77,6.77,0,0,1,.52-.56c.39-.34.76-.72,1.18-1s.82-.61,1.28-.9L207.45-7l.72-.43c.26-.14.5-.31.75-.47a11,11,0,0,0,2.57-2.39,6.61,6.61,0,0,0,1.33-3.11,6.31,6.31,0,0,0,0-1.56,7.47,7.47,0,0,0-.31-1.41,8.43,8.43,0,0,0-1.06-2.19A10.82,10.82,0,0,0,210.36-20a9.91,9.91,0,0,0-.84-.82c-.2-.18-.32-.27-.32-.27a.18.18,0,0,0-.25,0A.18.18,0,0,0,209-20.8Z"/>
                  <path class="b0a2f7ab-0a6d-4934-b1c4-7108567d61c5" d="M209-20.81l.18.29a5.42,5.42,0,0,1,.38.91,5.12,5.12,0,0,1,.22,1.47,5.71,5.71,0,0,1-.31,1.87,9,9,0,0,1-1,2,15.53,15.53,0,0,1-1.64,2c-.32.32-.65.65-1,1l-1.1,1a12.26,12.26,0,0,0-2.15,2.48,9,9,0,0,0-1.23,3.13,7.92,7.92,0,0,0,.11,3.26,9.63,9.63,0,0,0,1.13,2.74,11.58,11.58,0,0,0,1.55,2.09,12.68,12.68,0,0,0,3,2.42,5.51,5.51,0,0,0,1.34.6h0a.19.19,0,0,0,.22-.13.17.17,0,0,0-.1-.2l-.3-.19a9.06,9.06,0,0,1-.8-.61A15.59,15.59,0,0,1,205,2.7a14,14,0,0,1-1.2-2,9.53,9.53,0,0,1-.79-2.4,6.84,6.84,0,0,1,0-2.59,7.28,7.28,0,0,1,1-2.48,10.82,10.82,0,0,1,1.8-2.14A23,23,0,0,0,208-11.09a13.76,13.76,0,0,0,1.67-2.39,8.68,8.68,0,0,0,.92-2.49,6.21,6.21,0,0,0,.06-2.26,5.42,5.42,0,0,0-.55-1.64,4.77,4.77,0,0,0-.63-.9,2.84,2.84,0,0,0-.28-.28.18.18,0,0,0-.26,0A.18.18,0,0,0,209-20.81Z"/>
                  <path class="aa6b16b7-380f-41a1-a829-bfc11d0f57b1" d="M95.27,132.59l0-.3c0-.19,0-.47-.06-.85a28.61,28.61,0,0,0-.49-3.26,35.67,35.67,0,0,0-1.42-4.93,58.46,58.46,0,0,0-2.61-6.08c-1-2.19-2.32-4.46-3.56-6.87a55.29,55.29,0,0,1-3.43-7.57,20.6,20.6,0,0,1-1-4,14,14,0,0,1-.09-2,13.71,13.71,0,0,1,.22-2,16,16,0,0,1,4-7.4,41.27,41.27,0,0,1,6.84-6l1-.69c.32-.22.66-.49,1-.73.64-.5,1.27-1,1.87-1.54A39.12,39.12,0,0,0,100.88,75,36.17,36.17,0,0,0,106,67.62a39.39,39.39,0,0,0,2.92-7.37,42.72,42.72,0,0,0,1.29-6.52,45.18,45.18,0,0,0,.26-5.1c0-1.41-.1-2.51-.18-3.27,0-.37-.08-.66-.11-.86l0-.3a.35.35,0,0,0-.41-.29.34.34,0,0,0-.3.36v0s0,.09,0,.28,0,.47,0,.84c0,.73,0,1.81-.15,3.18a43.36,43.36,0,0,1-.7,4.89,41.19,41.19,0,0,1-1.69,6.13,38.52,38.52,0,0,1-3.17,6.75,35.28,35.28,0,0,1-8.22,9.53c-.57.46-1.16.92-1.76,1.36-.3.21-.57.42-.9.64l-1,.65a40.11,40.11,0,0,0-7.66,6.29A21.47,21.47,0,0,0,81.1,89a15.51,15.51,0,0,0-1.84,5A17.93,17.93,0,0,0,79,96.56a21.79,21.79,0,0,0,.16,2.58,23.6,23.6,0,0,0,.5,2.45c.22.79.47,1.56.75,2.3a51.34,51.34,0,0,0,4,7.92c1.42,2.33,2.75,4.54,4,6.58s2.24,3.91,3.08,5.62a46.05,46.05,0,0,1,1.91,4.53c.45,1.29.75,2.33.93,3s.27,1.11.27,1.11A.36.36,0,0,0,95,133,.37.37,0,0,0,95.27,132.59Z"/>
                  <path class="b9b90b08-9b5e-46c2-b624-fd831adba51c" d="M109,43.22s.09.4.23,1.17.34,1.91.53,3.35.39,3.21.51,5.22a65,65,0,0,1,.06,6.76,50.2,50.2,0,0,1-1,7.84c-.29,1.37-.64,2.75-1.08,4.14a33.08,33.08,0,0,1-3.84,8.07c-.42.63-.89,1.27-1.35,1.86l-.38.49-.37.44c-.23.28-.5.58-.76.87a37.86,37.86,0,0,1-7.37,6.11c-2.75,1.8-5.71,3.41-8.58,5.2a51,51,0,0,0-8.09,6,34.84,34.84,0,0,0-5.94,7.41A40.84,40.84,0,0,0,68,115.79a53.48,53.48,0,0,0-1.86,6.76c-.44,2-.69,3.82-.89,5.29-.1.74-.17,1.4-.23,2s-.11,1.06-.14,1.45c-.06.8-.09,1.22-.09,1.22a.35.35,0,0,0,.33.38.36.36,0,0,0,.38-.28h0s.09-.41.25-1.18.4-1.9.74-3.32.78-3.15,1.36-5.09a61.37,61.37,0,0,1,2.3-6.37,41.23,41.23,0,0,1,3.74-7,32.21,32.21,0,0,1,5.75-6.53,47.11,47.11,0,0,1,7.72-5.41c2.83-1.64,5.83-3.24,8.77-5.12a48.53,48.53,0,0,0,4.27-3.08,34.7,34.7,0,0,0,3.83-3.64c.29-.34.58-.66.87-1l.42-.51.38-.49c.54-.71,1-1.41,1.49-2.14a30.27,30.27,0,0,0,2.38-4.49,36.89,36.89,0,0,0,2.59-9.12,45.42,45.42,0,0,0,.49-8.37,52.75,52.75,0,0,0-.68-7c-.34-2.06-.74-3.83-1.12-5.28s-.75-2.55-1-3.31-.43-1.15-.43-1.15a.36.36,0,0,0-.69.21Z"/>
                  <path class="a9ad1c4d-19bb-4118-b668-1645023c34a8" d="M109.61,42.48v.08a1.21,1.21,0,0,0,0,.23c0,.21-.07.53-.14.93a20.24,20.24,0,0,1-1,3.46,25.12,25.12,0,0,1-2.58,4.93,32,32,0,0,1-4.7,5.47,43.83,43.83,0,0,1-6.83,5.15c-1.29.78-2.73,1.56-4.2,2.56a25.5,25.5,0,0,0-4.09,3.48,19.16,19.16,0,0,0-3.29,4.64,17.26,17.26,0,0,0-1.68,5.65,22.43,22.43,0,0,0,.11,5.85,36.87,36.87,0,0,0,1.26,5.59c1.12,3.6,2.57,7,3.84,10.3.63,1.66,1.24,3.28,1.71,4.88a24.29,24.29,0,0,1,.59,2.38c.08.4.14.79.19,1.17v.15s0,0,0,0v.12l0,.32.06.64,0,.63,0,.59a11.43,11.43,0,0,1,0,1.17c0,.4,0,.79,0,1.19l-.06,1.16a19.23,19.23,0,0,1-.86,4.37,16.81,16.81,0,0,1-4.3,6.87A33.81,33.81,0,0,1,78,130.83c-1.87,1.16-3.56,2.12-4.94,2.93s-2.47,1.48-3.2,1.94l-1.11.73a.35.35,0,0,0-.1.49.37.37,0,0,0,.46.13h0l1.17-.57c.77-.38,1.92-.89,3.37-1.56s3.25-1.45,5.26-2.5a32.18,32.18,0,0,0,6.47-4.21,20.29,20.29,0,0,0,3.09-3.34,17.79,17.79,0,0,0,2.33-4.33,22.42,22.42,0,0,0,1.22-5c0-.44.09-.87.14-1.31s0-.88.06-1.32,0-.9,0-1.35v-.69l0-.64,0-.64,0-.32v-.2l0-.18c0-.47-.1-.93-.18-1.39-.15-.93-.35-1.83-.58-2.72a50.56,50.56,0,0,0-1.71-5.22C88.37,96.15,87,92.81,86,89.44a24.9,24.9,0,0,1-1.33-10,15.06,15.06,0,0,1,1.26-4.56,15.9,15.9,0,0,1,2.6-3.9A23.73,23.73,0,0,1,92,67.86c1.21-.93,2.58-1.76,3.94-2.67a46.84,46.84,0,0,0,3.76-2.85,42.64,42.64,0,0,0,3.2-3.05,34.17,34.17,0,0,0,2.6-3.13,30.27,30.27,0,0,0,2-3.09,24.05,24.05,0,0,0,2.24-5.49,19,19,0,0,0,.62-3.76,9.51,9.51,0,0,0,0-1.36.36.36,0,0,0-.72,0Z"/>
                  <polygon class="a99f9107-962e-4abb-94ce-19254e47bcb4" points="54.65 -61.38 111.9 36.24 210.16 -20.63 152.92 -118.26 54.65 -61.38"/>
                  <g class="a41b046d-915b-4e2e-a234-d64574564152">
                    <path class="b4e90a98-3cef-47b2-a0af-81e88564ac07" d="M131.73-40.93c-1,3.93-2.06,7.86-3.09,11.74-1.5,5.71-3,11.34-4.41,16.75-2.37,9.1-4.58,17.59-6.47,24.87s-3.43,13.36-4.52,17.62C112.52,32.92,112,35,111.75,36c-.13.49-.19.75-.19.75l.39.1s.08-.25.22-.74c.27-1,.84-3,1.64-5.9l4.81-17.53c2-7.26,4.26-15.73,6.72-24.81,1.38-5.16,2.82-10.52,4.27-16,1.11-4.14,2.22-8.32,3.34-12.5,2.56-9.7,5.12-19.4,7.51-28.49S145-86.7,146.93-94s3.43-13.35,4.52-17.61c.86-3.43,1.43-5.67,1.62-6.41l-.15-.26-.26.15c-.2.74-.83,3-1.78,6.38L146.07-94.2c-2,7.26-4.26,15.73-6.72,24.81S134.33-50.62,131.73-40.93Z"/>
                  </g>
                  <polygon class="a99f9107-962e-4abb-94ce-19254e47bcb4" points="123.43 49.98 112.31 34.49 94.94 42.51 123.43 49.98"/>
                </g>
                <path class="e76766c3-5dae-47df-8522-ca150b10b885" d="M157.4,43.22c34,105,103,159,203.8,167,5.09.4,65.19,3,68.2,3"/>
              </g>
            </g>
          </g>
        </g>
      </g>
    </g>
  </g>
</svg>
