<svg id="fa5855df-67fb-41b0-b580-11aaf4ba4b73" data-name="Layer 1" xmlns="http://www.w3.org/2000/svg" xmlns:xlink="http://www.w3.org/1999/xlink" width="610" height="611" viewBox="0 0 610 611">
  <defs>
    <style>
      .aa288417-1bda-44b8-bd15-5735d81aefa3 {
        fill: none;
      }

      .a05f0457-e4b2-486a-9420-da062ddb0e53 {
        fill: url(#ab6d88aa-21d3-4979-abc8-02d6c28dd38d);
      }

      .aeff19cc-6310-4815-87b7-b1d94c0c0490, .ed3de964-de6a-4f8f-8e51-4b48557b52bf {
        fill: #31d0e5;
      }

      .aeff19cc-6310-4815-87b7-b1d94c0c0490, .f2f737c9-b3b6-4996-800f-4e7873cf3f74 {
        stroke-miterlimit: 10;
      }

      .aeff19cc-6310-4815-87b7-b1d94c0c0490 {
        stroke-width: 6px;
        stroke: url(#eab19523-b8ba-40b5-addb-b5b04560a85a);
      }

      .fa9a8218-fad6-4646-9bd2-13e7bb27e0b3 {
        fill: #ffb850;
      }

      .b2020de9-173d-4d22-b29d-74fbdf91f6e2 {
        fill: #ff9c0d;
      }

      .bed5a399-0c4c-43d5-92d6-78bcf690f641 {
        fill: #e0501b;
      }

      .baef5523-e5ba-4601-bc0c-9b9d7cd81ef1 {
        fill: #f28314;
      }

      .a4a601ca-f1da-4454-8210-4d3d4b542e99 {
        fill: #fff;
      }

      .bba17ab5-9c4e-47f7-b0f2-88c1e2406b95 {
        fill: #c74900;
      }

      .ec96167d-913a-4515-a284-fbb0b2e41cee {
        fill: #1f2163;
      }

      .ed6bf3e3-7633-48b9-bee7-8ac8cb65e436 {
        fill: #ffb76e;
      }

      .a6091aa2-63e5-44ad-ad5a-d277e579a497 {
        fill: #171a47;
      }

      .a9ec3d63-8bda-4516-98d2-270dbe701e67 {
        fill: #0f1480;
      }

      .b46e22a2-c08b-439b-ab1c-923b3585ee5c {
        fill: #3840a0;
      }

      .a603eac5-9740-4c54-b1a7-e0290b7fbe7c {
        fill: #111466;
      }

      .b8bf5fac-ba92-4ef7-8680-c8f741ec7505 {
        fill: #26297a;
      }

      .a5bbc7d4-c381-48e2-95db-b09bba472d7f {
        fill: #2e3192;
      }

      .a51ae4ff-95cc-4a9f-9dcc-3a8966ff7c4a {
        fill: #f7931e;
      }

      .ad4e1a06-0048-46b6-8792-32a50f5b8640, .fe92f830-ba61-45e6-8b20-908066fe9ebd {
        fill: #630f0f;
      }

      .f6d98ede-e6d1-4739-b94c-8c1171d9bba6, .fe92f830-ba61-45e6-8b20-908066fe9ebd {
        opacity: 0.4;
      }

      .f2f737c9-b3b6-4996-800f-4e7873cf3f74 {
        fill: #f4c9ab;
        stroke: #965e38;
        stroke-width: 0.25px;
      }

      .ad4e1a06-0048-46b6-8792-32a50f5b8640, .bb5bc9e1-c11c-4c8e-b2df-42bddb8616f3 {
        opacity: 0.3;
      }

      .b9dac764-bb6a-4dcd-8841-1aa53862d31f {
        fill: #3d3b3b;
      }

      .bff8d8ad-8128-43fb-9c1b-499995d82ca7 {
        fill: #ff2727;
      }

      .ad8e61f1-f337-4dcd-bfd8-a3bda9bc552a {
        fill: #565656;
      }

      .ab286d45-af4c-4814-9d34-cca0ae4a2b39, .f6d98ede-e6d1-4739-b94c-8c1171d9bba6 {
        fill: #766599;
      }

      .a03a1ea6-faab-473d-895c-7b2cce3a4f19 {
        fill: #ece3ff;
      }

      .e5c9ea1c-9fc6-49be-afee-f3f31afa7ded {
        opacity: 0.5;
      }

      .ba0428b2-f2b3-4256-a2a3-164e1acc187a {
        fill: #ffb680;
      }

      .ab2712da-ac90-4f65-8f5c-6357462eae39 {
        fill: #660f0f;
      }

      .a84c6cd6-af64-4e7b-88f6-13e0febe1768 {
        clip-path: url(#f5e5a5fe-c561-41ba-b59c-f4baa3eaf584);
      }
    </style>
    <linearGradient id="ab6d88aa-21d3-4979-abc8-02d6c28dd38d" x1="50.06" y1="130.82" x2="548.27" y2="472.19" gradientUnits="userSpaceOnUse">
      <stop offset="0" stop-color="#9b81cf"/>
      <stop offset="1" stop-color="#3b139b"/>
    </linearGradient>
    <linearGradient id="eab19523-b8ba-40b5-addb-b5b04560a85a" x1="12.74" y1="305.5" x2="597.26" y2="305.5" gradientUnits="userSpaceOnUse">
      <stop offset="0" stop-color="#4c1da9"/>
      <stop offset="1" stop-color="#997ece"/>
    </linearGradient>
    <clipPath id="f5e5a5fe-c561-41ba-b59c-f4baa3eaf584">
      <ellipse class="aa288417-1bda-44b8-bd15-5735d81aefa3" cx="964.4" cy="305.5" rx="286.95" ry="286"/>
    </clipPath>
  </defs>
  <g>
    <g>
      <circle class="a05f0457-e4b2-486a-9420-da062ddb0e53" cx="305" cy="305.5" r="301.94"/>
      <circle class="aeff19cc-6310-4815-87b7-b1d94c0c0490" cx="305" cy="305.5" r="289.26"/>
    </g>
    <g>
      <g>
        <g>
          <path class="fa9a8218-fad6-4646-9bd2-13e7bb27e0b3" d="M178.53,478.18,305,333,484.48,111S105.2,328.13,100.72,338.14,178.53,478.18,178.53,478.18Z"/>
          <path class="b2020de9-173d-4d22-b29d-74fbdf91f6e2" d="M118.65,353.2c2.72-6.07,160.39-75,269.34-122.08l96.62-119.48S105.33,328.78,100.85,338.79s77.81,140,77.81,140l5.51-6.32C165.65,442.8,115.25,360.79,118.65,353.2Z"/>
          <path class="bed5a399-0c4c-43d5-92d6-78bcf690f641" d="M271.51,367.13a.76.76,0,0,1-.5.11L102.6,344.36a.66.66,0,0,1-.6-.73.7.7,0,0,1,.8-.55L271.22,366a.66.66,0,0,1,.59.74A.65.65,0,0,1,271.51,367.13Z"/>
          <path class="bed5a399-0c4c-43d5-92d6-78bcf690f641" d="M228.94,415.38a.73.73,0,0,1-.74,0L103.38,351a.62.62,0,0,1-.27-.88.73.73,0,0,1,1-.25l124.82,64.38a.63.63,0,0,1,.28.88A.66.66,0,0,1,228.94,415.38Z"/>
          <path class="bed5a399-0c4c-43d5-92d6-78bcf690f641" d="M198.2,451.28a.75.75,0,0,1-.9-.09l-84.68-82.91a.62.62,0,0,1,0-.92.75.75,0,0,1,1,0l84.67,82.9a.62.62,0,0,1,0,.92Z"/>
          <path class="bed5a399-0c4c-43d5-92d6-78bcf690f641" d="M331.43,296.42a.86.86,0,0,1-.28.11l-215.52,33.2a.69.69,0,0,1-.8-.54.65.65,0,0,1,.57-.75l215.52-33.2a.7.7,0,0,1,.81.54A.64.64,0,0,1,331.43,296.42Z"/>
          <path class="bed5a399-0c4c-43d5-92d6-78bcf690f641" d="M371,246.92a.67.67,0,0,1-.21.09L156.13,303.87a.72.72,0,0,1-.87-.44.65.65,0,0,1,.48-.81l214.68-56.86a.71.71,0,0,1,.87.45A.63.63,0,0,1,371,246.92Z"/>
          <path class="bed5a399-0c4c-43d5-92d6-78bcf690f641" d="M411.81,194.34l-.13.07L204.52,273a.71.71,0,0,1-.91-.35.63.63,0,0,1,.38-.85l207.16-78.55a.71.71,0,0,1,.91.35A.61.61,0,0,1,411.81,194.34Z"/>
        </g>
        <g>
          <path class="bed5a399-0c4c-43d5-92d6-78bcf690f641" d="M152.36,415.63a1.86,1.86,0,0,1-1.79.11,1.56,1.56,0,0,1-.77-2.18c1.6-3,39.37-72.53,42.37-76.9S309,212.43,313.84,207.33a1.85,1.85,0,0,1,2.47-.15,1.55,1.55,0,0,1,.16,2.3C283.55,244.14,197.56,334.87,195.13,338.4S166.51,390,152.93,415A1.68,1.68,0,0,1,152.36,415.63Z"/>
          <path class="bed5a399-0c4c-43d5-92d6-78bcf690f641" d="M305.88,334.22a1.79,1.79,0,0,1-.95.28l-202.41,5.21a1.63,1.63,0,1,1-.09-3.24l202.4-5.21a1.69,1.69,0,0,1,1.8,1.57A1.58,1.58,0,0,1,305.88,334.22Z"/>
        </g>
        <g>
          <path class="baef5523-e5ba-4601-bc0c-9b9d7cd81ef1" d="M180.49,480.48l-.21.13a3.29,3.29,0,0,1-4.31-1.06c-.2-.32-20.29-32.34-39.84-65.31-40.06-67.57-38.95-73.18-38.47-75.58.42-2.15,1-5.08,62.28-42.27,31.95-19.39,76.32-45.6,131.89-77.9,94.6-55,190.16-109.3,191.11-109.85a3.3,3.3,0,0,1,4.34,1,2.78,2.78,0,0,1-1,4c-.93.53-94.28,53.59-187.74,107.88-160.13,93-191,114.33-194.64,118.5.17,2.4,3.94,14.35,38.2,72.08,19.39,32.67,39.16,64.2,39.36,64.52A2.79,2.79,0,0,1,180.49,480.48Zm-76.84-140.2Z"/>
          <path class="a4a601ca-f1da-4454-8210-4d3d4b542e99" d="M149.89,304.18c-16.84,10.73-34.25,20.74-49.87,33-.65.51.11,1.53.76,1,15.62-12.27,33-22.29,49.87-33C151.36,304.75,150.6,303.73,149.89,304.18Z"/>
          <path class="a4a601ca-f1da-4454-8210-4d3d4b542e99" d="M208.34,270.13A212.39,212.39,0,0,1,180.71,286c-8.73,4.2-16.06,10.22-24.64,14.57-.75.38,0,1.4.76,1a122.75,122.75,0,0,0,12.4-7.69,111.82,111.82,0,0,1,13.17-7.33,208.29,208.29,0,0,0,26.7-15.45C209.79,270.67,209,269.65,208.34,270.13Z"/>
          <path class="a4a601ca-f1da-4454-8210-4d3d4b542e99" d="M483.09,110.83c-7.12,4.37-15,7.39-22.38,11.42s-13.77,9.18-21.2,13c-.75.39,0,1.4.76,1,7.44-3.82,13.91-9,21.2-13s15.26-7,22.38-11.42C484.57,111.41,483.81,110.39,483.09,110.83Z"/>
          <path class="a4a601ca-f1da-4454-8210-4d3d4b542e99" d="M145.43,425c-6.77-13.66-15-26.62-22.58-39.89-3.74-6.53-7.33-13.16-10.48-20-1.6-3.45-3-7-4.7-10.41s-4.53-6.49-5.34-10.21c-.17-.78-1.5-.67-1.33.11.63,2.9,2.29,5.16,3.84,7.7a97.25,97.25,0,0,1,5.32,11.15c3.22,7.19,7,14.17,10.87,21.06,7.75,13.62,16.22,26.89,23.15,40.9C144.54,426.11,145.79,425.68,145.43,425Z"/>
        </g>
      </g>
      <g>
        <path class="bba17ab5-9c4e-47f7-b0f2-88c1e2406b95" d="M224,385.57h-.06a.31.31,0,0,1-.3-.34l5.81-50.09a.31.31,0,0,1,.26-.27.34.34,0,0,1,.36.15l17.37,28.43a.29.29,0,0,1-.12.42.35.35,0,0,1-.46-.11L230,336.15l-5.69,49.14A.34.34,0,0,1,224,385.57Z"/>
        <path class="bba17ab5-9c4e-47f7-b0f2-88c1e2406b95" d="M285,361.9a.38.38,0,0,1-.18,0l-55.2-26.43a.3.3,0,0,1-.15-.42.35.35,0,0,1,.45-.13l55.2,26.43a.29.29,0,0,1,.15.41A.35.35,0,0,1,285,361.9Z"/>
      </g>
      <g>
        <path class="ec96167d-913a-4515-a284-fbb0b2e41cee" d="M236.32,387.81c3.31,5.83,6,22.62,4.44,27.49-2.19,7-24.16,14.4-29.55,13.86-1.9-.19-2.13-3.43-.72-4.17,2-1.06,18.51-10.39,19.16-11.22,1.71-2.19-3.87-15-5.42-23.47C222.15,378.94,232.27,380.69,236.32,387.81Z"/>
        <path class="ed6bf3e3-7633-48b9-bee7-8ac8cb65e436" d="M208.61,424.84c-1.77.05-4.46,1.53-4.86,3.7s.19,4.92,1.59,5.14c1.69.27,1.4-2.68,3-3,3.22-.62,3.55-2.12,3.26-3.52A2.88,2.88,0,0,0,208.61,424.84Z"/>
      </g>
      <g>
        <g>
          <path class="ed6bf3e3-7633-48b9-bee7-8ac8cb65e436" d="M320.37,345.8c.75-1.64,2.84-5.41,3.11-6.11.47-1.15,4.11-.7,3.43,1.06s-1.51,4.28-2.1,5.66C324.08,348.1,320,346.73,320.37,345.8Z"/>
          <path class="a6091aa2-63e5-44ad-ad5a-d277e579a497" d="M323.3,339.88c-.47.06-1.47-2.67-.82-3.41s4.69-1.58,7.27-2c2-.35,5.49-1.05,5.22,0-.53,2.13-2.14,1.83-4.88,4.09-1.42,1.16-2.59,2.42-3.92,2.43C324.52,341,325.06,339.63,323.3,339.88Z"/>
        </g>
        <path class="a9ec3d63-8bda-4516-98d2-270dbe701e67" d="M272.75,390.33c8.54-.86,31.62-10.82,39.41-15.4s15.52-26.73,16.56-29.24c.76-1.83-5.16-5.13-9.3-2.63s-8.67,16.76-16.11,20.2-17.71,1.45-30.75,8C263.75,375.67,267.4,390.86,272.75,390.33Z"/>
      </g>
      <g>
        <g>
          <path class="ed6bf3e3-7633-48b9-bee7-8ac8cb65e436" d="M338.92,338.11c1.32-1.28,4.72-4.12,5.25-4.68.88-.92,4.11.7,2.79,2.12s-3,3.5-4.13,4.59C341.5,341.49,338.16,338.84,338.92,338.11Z"/>
          <path class="a6091aa2-63e5-44ad-ad5a-d277e579a497" d="M343.93,333.54c-.47-.09-.35-3,.56-3.45s5,.07,7.63.5c2,.33,5.57.84,4.89,1.76-1.32,1.82-2.72,1-6.18,2.21-1.79.62-3.38,1.41-4.64,1C344.64,335,345.68,333.89,343.93,333.54Z"/>
        </g>
        <path class="b46e22a2-c08b-439b-ab1c-923b3585ee5c" d="M282.32,382.66c8.54-.85,31.62-10.81,39.41-15.39s24.21-25.16,25.18-26.91-4.2-6.89-8.33-4.39-18.26,16.19-25.71,19.63-17.71,1.45-30.75,8C273.32,368,277,383.2,282.32,382.66Z"/>
        <path class="a603eac5-9740-4c54-b1a7-e0290b7fbe7c" d="M339.81,339.73c-3.16,3.42-6.37,6.8-9.73,10s-6.65,6.65-10.63,9c-8.31,4.88-19,5.33-27.86,9a.47.47,0,1,0,.35.87c9-3.65,19.69-4.12,28.08-9.06,3.72-2.2,6.92-5.44,10-8.35,3.68-3.5,7.16-7.16,10.59-10.86C341,339.87,340.23,339.27,339.81,339.73Z"/>
      </g>
      <g>
        <path class="b8bf5fac-ba92-4ef7-8680-c8f741ec7505" d="M224.38,385c1.63-4.57,10.05-14.69,19.08-19,6.49-3.1,33-2.75,38-3.91,8.15-1.88,6.14,25.29-6.76,28.22-21.64,4.91-36.65,9.78-43.34,5.87C225.92,393,223.73,386.84,224.38,385Z"/>
        <path class="ed6bf3e3-7633-48b9-bee7-8ac8cb65e436" d="M219.77,377s7.51,4,9.15,5.3c3.92,3.15,6.37-5,3.79-6.45a65.15,65.15,0,0,0-13.68-5.8Z"/>
        <path class="a5bbc7d4-c381-48e2-95db-b09bba472d7f" d="M226.83,381c2.84-.44-.26-5.08.29-7.86.41-2.07,3.78.72,6.28,0s3.77,8.63,0,11.74S225.39,381.18,226.83,381Z"/>
        <path class="a603eac5-9740-4c54-b1a7-e0290b7fbe7c" d="M235.19,377.45c.12,1.73-1.47,9.24-4.84,7.39a.47.47,0,1,0-.44.83c4.33,2.38,6.45-5.87,6.28-8.3C236.15,376.78,235.15,376.85,235.19,377.45Z"/>
        <path class="a603eac5-9740-4c54-b1a7-e0290b7fbe7c" d="M235.46,374.08c-.33-.51-1.15,0-.83.53a1.31,1.31,0,0,1,.21.59c.07.6,1.07.52,1-.07A2.51,2.51,0,0,0,235.46,374.08Z"/>
        <path class="a603eac5-9740-4c54-b1a7-e0290b7fbe7c" d="M252.5,386.42c-5.8.84-11.94,2-17.25-.81a.47.47,0,1,0-.43.83c5.55,3,11.66,1.79,17.76.9A.46.46,0,1,0,252.5,386.42Z"/>
      </g>
      <path class="a51ae4ff-95cc-4a9f-9dcc-3a8966ff7c4a" d="M287,361.35c-.4-.32-2.95-.81-3.48-.19A37.85,37.85,0,0,0,272,361c-5,.51-10,.82-15,1.11s-18.21.47-18.09,7.39c.13,7.28,10.8,9.4,16.8,9.83,9,.65,18.46.64,27.3-1.24a41.58,41.58,0,0,1-5.54,9c-9.27,3.21-19.12,4.91-28.87,6.4-4.38.67-9,1.22-13.42.5-3.91-.64-11.93-5.07-10.55-9.63.15-.51-.21-.75-.8.18-1.91,3,2.19,6.2,4.8,8.12,3.71,2.72,8.5,3,13.06,2.83,5.91-.28,11.81-1.52,17.61-2.58a134.11,134.11,0,0,0,16.87-4.06c-2.73,3.72,6.54-1.72,9.84-9.57C289.85,370.21,287.43,361.73,287,361.35ZM284.73,371a17.3,17.3,0,0,1-1.15,5.64c-7.52,1.72-15.25,1.75-22.95,1.6a49.8,49.8,0,0,1-10.91-1.08c-3.65-.9-10.17-3.63-9.4-8.08.72-4.13,7.8-4.91,11.43-5.35s7.55-.53,11.33-.74c6.87-.38,14-2.07,20.76-.5C284.28,363.6,284.78,365.73,284.73,371Z"/>
      <g>
        <path class="b46e22a2-c08b-439b-ab1c-923b3585ee5c" d="M250.8,364.19c7.1.48,24.94,6.29,29.85,12s-19.35,18.08-24,19.15c-1.85.42-2.89-2.85-2.1-4.16s13.52-9.56,13.42-10.59-12.19-1.14-20.58-4.65C236,371.25,242.15,363.61,250.8,364.19Z"/>
        <path class="b46e22a2-c08b-439b-ab1c-923b3585ee5c" d="M268.18,380.16c-.92-1.15-5.5-1.34-6.92-1.61a56,56,0,0,1-10.5-2.77c-.6-.24-1,.6-.44.84a64.32,64.32,0,0,0,11.84,3.05c1.09.21,2.18.41,3.26.67l1.07.26c1.15.09,1.17.45.05,1.06-1.05,1.88-4.3,3.64-6.09,4.88-.52.35.05,1.12.57.76C262.28,386.43,269.61,382,268.18,380.16Z"/>
      </g>
      <g>
        <path class="bed5a399-0c4c-43d5-92d6-78bcf690f641" d="M200.65,438.69a1.86,1.86,0,0,1-1.7.15,1.61,1.61,0,0,1-1-1.43L194,336.56a1.6,1.6,0,0,1,.87-1.46,1.9,1.9,0,0,1,1.81,0l76.59,44.15a1.6,1.6,0,0,1,.83,1.26,1.58,1.58,0,0,1-.62,1.36L200.79,438.6Zm-3-99.2L201.28,434l68.13-53.13Z"/>
        <path class="a4a601ca-f1da-4454-8210-4d3d4b542e99" d="M199.45,436.65h0a.64.64,0,0,1-.69-.59l-3.67-98.37a.67.67,0,0,1,1.33,0L200.06,436A.63.63,0,0,1,199.45,436.65Z"/>
        <path class="a4a601ca-f1da-4454-8210-4d3d4b542e99" d="M207.83,430.91a.72.72,0,0,1-.57-.21.6.6,0,0,1,.08-.88l42.23-33a.7.7,0,0,1,.94.07.59.59,0,0,1-.08.87l-42.22,33A.71.71,0,0,1,207.83,430.91Z"/>
      </g>
      <g>
        <path class="fe92f830-ba61-45e6-8b20-908066fe9ebd" d="M227.85,374.58c-1.24-.85-1.74,5.27-1.74,5.27a30.28,30.28,0,0,1,3.1,1.82,9.54,9.54,0,0,0,.84-3.53,5.3,5.3,0,0,0-.89-3.13A3.08,3.08,0,0,1,227.85,374.58Z"/>
        <path class="f2f737c9-b3b6-4996-800f-4e7873cf3f74" d="M226.85,383.25c-1.1,1.46-4.85,1.63-9.58-.14s-8.74-2.56-9.9-4.33S209,367,213.65,366s10,2.52,11.89,4.7c2.38,2.75,3.79,4.77,3.62,6.74A9.55,9.55,0,0,1,226.85,383.25Z"/>
        <path class="ad4e1a06-0048-46b6-8792-32a50f5b8640" d="M217.68,380.09a33,33,0,0,0,3.37,2.3c.8.34,1.36-2.18,1.36-2.18s-.71,1.59-1.62,1.29a15.27,15.27,0,0,1-2.93-2S217,379.22,217.68,380.09Z"/>
        <path class="ad4e1a06-0048-46b6-8792-32a50f5b8640" d="M220.79,366.52s0,0,0,0c-.46.46-2.41,3.92-3.06,5.07a2.86,2.86,0,0,0-2.24,0c-2.6,1.21-5.21,6.28-5.22,9.06l0,0c1.84.74,4.28,1.44,7,2.45a21.59,21.59,0,0,0,2.64.8c.88-1.4,1.31-3.73,1.77-5.72.35-1.49-.45-3.49-1.72-4.93.65-1.17,2.78-5,3-5.44C222.31,367.39,221.59,367,220.79,366.52Z"/>
        <path class="ad4e1a06-0048-46b6-8792-32a50f5b8640" d="M227.68,373.39a32.86,32.86,0,0,0-2.14-2.74c-1.89-2.18-7.26-5.72-11.89-4.7s-7.44,11.06-6.28,12.83c.61.94,2,1.6,3.95,2.28.72-.43,1.88-1.15,3.74-2.33,3.85-2.45,2.31-9.34,7-6.68C226.05,374.29,227.34,374,227.68,373.39Z"/>
        <path class="b9dac764-bb6a-4dcd-8841-1aa53862d31f" d="M209.77,381c-2.74,1.91-7.34.4-4.31-6.38s6.22-11.9,12.56-9.36,9.27,6.21,9.23,7.07-1,1.71-5.71-1-3.17,4.23-7,6.68S209.77,381,209.77,381Z"/>
        <g class="bb5bc9e1-c11c-4c8e-b2df-42bddb8616f3">
          <path class="bff8d8ad-8128-43fb-9c1b-499995d82ca7" d="M223.58,370.82c-1.6-.91-2.48-.69-3.09.06a4.8,4.8,0,0,1,1,.46c4.43,2.5,5.53,1.91,5.68,1.11A16.52,16.52,0,0,1,223.58,370.82Z"/>
          <path class="ad8e61f1-f337-4dcd-bfd8-a3bda9bc552a" d="M207.49,374.06c2-4.42,4-8.12,7-9.47-4.09.3-6.6,4.62-9,10-2.89,6.47,1.17,8.14,3.92,6.61C207.15,381.15,205.28,379,207.49,374.06Z"/>
        </g>
        <path class="ab286d45-af4c-4814-9d34-cca0ae4a2b39" d="M217.54,384.76c-1.49.14-6.72-1.15-7.77-3.32s2-8.81,5-10.21,6.9,3.6,6.21,6.57S219.74,384.55,217.54,384.76Z"/>
        <path class="a03a1ea6-faab-473d-895c-7b2cce3a4f19" d="M214.82,372.61c-1.76.82-4,5.12-5.11,8.53a2.27,2.27,0,0,0,.06.3c1,2.17,6.28,3.46,7.77,3.32a2.12,2.12,0,0,0,1-.38c.63-1.9,1.09-4.07,1.4-5.37C220.56,376.37,217.51,371.37,214.82,372.61Z"/>
        <path class="f6d98ede-e6d1-4739-b94c-8c1171d9bba6" d="M215,373.19c1.93-.89,4,1.43,4.84,3.78-.64-2.53-2.92-5.32-5-4.36-1.76.82-4,5.12-5.11,8.53a2.27,2.27,0,0,0,.06.3,1.33,1.33,0,0,0,.14.19C211,378.23,213.25,374,215,373.19Z"/>
        <g class="e5c9ea1c-9fc6-49be-afee-f3f31afa7ded">
          <path class="a4a601ca-f1da-4454-8210-4d3d4b542e99" d="M219.05,382.71l-6.85-7.11a25.23,25.23,0,0,0-1.48,2.89l6.22,6.26a4.15,4.15,0,0,0,.6,0,2.12,2.12,0,0,0,1-.38C218.73,383.84,218.9,383.28,219.05,382.71Z"/>
          <path class="a4a601ca-f1da-4454-8210-4d3d4b542e99" d="M214.05,373.17a7.83,7.83,0,0,0-1.08,1.26l6.39,7.07c.16-.62.29-1.18.4-1.7Z"/>
        </g>
        <path class="ab286d45-af4c-4814-9d34-cca0ae4a2b39" d="M216.82,371.62s2.73-4.92,3.28-5.47,2.35.87,2.21,1.23-3.22,5.85-3.22,5.85Z"/>
        <path class="ba0428b2-f2b3-4256-a2a3-164e1acc187a" d="M221,372.36c-1.55-1.08.69-3.17,2-2.33a36.65,36.65,0,0,1,3.15,3c.4.24-.76,1.44-2.26,1A8,8,0,0,1,221,372.36Z"/>
        <path class="ab2712da-ac90-4f65-8f5c-6357462eae39" d="M222.7,383.15c-.79-.16.17-1.85.59-2.22s1.35.18,1.09.84S223.56,383.34,222.7,383.15Z"/>
      </g>
      <g>
        <path class="f2f737c9-b3b6-4996-800f-4e7873cf3f74" d="M251.51,397.93a3.15,3.15,0,0,1,0,3.06,4.6,4.6,0,0,1-2.68,2l-1.21-3.47Z"/>
        <path class="f2f737c9-b3b6-4996-800f-4e7873cf3f74" d="M247.5,402.28a7.71,7.71,0,0,0-.3,2.71s.47,1.14,1.69.07a4.86,4.86,0,0,0,1.41-4.25"/>
        <g>
          <path class="f2f737c9-b3b6-4996-800f-4e7873cf3f74" d="M252.36,394.66a1.79,1.79,0,0,0-1.79-.78,6.24,6.24,0,0,0-2.51,1.14s-2.34,1.26-2.86,1.44a5.79,5.79,0,0,0-1.51.52,1.48,1.48,0,0,0-.56,2.18l0,0a4.56,4.56,0,0,0,1.71,3.57,1.84,1.84,0,0,0,2.11.54,1.18,1.18,0,0,0,.67-1.08s.47.34,1.58-.78l0-.29.33.15a3.27,3.27,0,0,0,1.57-1.22l.07-.28a3.94,3.94,0,0,0,1.84-.94,1.42,1.42,0,0,0,.22-2l-1.74,1.08s-1-.14-1.44-1.83"/>
          <path class="f2f737c9-b3b6-4996-800f-4e7873cf3f74" d="M247.87,402.28s-.54,0-2.19-2.16a2.54,2.54,0,0,1-.56-2.76"/>
          <path class="f2f737c9-b3b6-4996-800f-4e7873cf3f74" d="M249.24,401.15a5.84,5.84,0,0,1-2.41-4.18"/>
          <path class="f2f737c9-b3b6-4996-800f-4e7873cf3f74" d="M251.21,399.8l-.23-.17a7.16,7.16,0,0,1-2.38-3.28h0l.07-.64"/>
        </g>
      </g>
      <g>
        <path class="f2f737c9-b3b6-4996-800f-4e7873cf3f74" d="M213.92,427.31a3.75,3.75,0,0,0,2.88,1.86,5.42,5.42,0,0,0,3.59-1l-2.53-3.07Z"/>
        <path class="f2f737c9-b3b6-4996-800f-4e7873cf3f74" d="M220.58,426.61a9.85,9.85,0,0,1,2.75,1.37s.77,1.07-1,1.44a6.2,6.2,0,0,1-4.91-1.38"/>
        <g>
          <path class="f2f737c9-b3b6-4996-800f-4e7873cf3f74" d="M210.31,426.06a1.62,1.62,0,0,1,.39-1.93,6.94,6.94,0,0,1,2.65-1.39s2.67-1.16,3.16-1.49a6.85,6.85,0,0,1,1.45-.93,1.83,1.83,0,0,1,2.42.84v0a4.92,4.92,0,0,1,2.3,3.54,1.69,1.69,0,0,1-.82,2,1.49,1.49,0,0,1-1.45-.09s0,.59-1.73.84l-.28-.16-.08.36a3.87,3.87,0,0,1-2.13.57l-.31-.12a4.33,4.33,0,0,1-2,.95,1.7,1.7,0,0,1-2.06-1l2.12-.78s.5-.92-.82-2.28"/>
          <path class="f2f737c9-b3b6-4996-800f-4e7873cf3f74" d="M220.34,426.91s.31-.44-.67-3.08a2.94,2.94,0,0,0-2.25-2.1"/>
          <path class="f2f737c9-b3b6-4996-800f-4e7873cf3f74" d="M218.41,427.37s.16-2.25-2.44-4.47"/>
          <path class="f2f737c9-b3b6-4996-800f-4e7873cf3f74" d="M215.89,428.18l0-.29a7,7,0,0,0-1.6-3.91h0l-.65-.32"/>
        </g>
      </g>
    </g>
    <g class="bb5bc9e1-c11c-4c8e-b2df-42bddb8616f3">
      <g>
        <path class="a4a601ca-f1da-4454-8210-4d3d4b542e99" d="M85,232.51s15.74-36.64,44.76,4.3-41.08,21.23-71,3.72S85,232.51,85,232.51Z"/>
        <path class="a4a601ca-f1da-4454-8210-4d3d4b542e99" d="M160.9,221.46c25.66,28.13-3.11,27.15-27.59,17.18S135.25,193.33,160.9,221.46Z"/>
      </g>
      <g>
        <path class="a4a601ca-f1da-4454-8210-4d3d4b542e99" d="M472,349.26s15.75-36.64,44.77,4.3-41.09,21.24-71,3.73S472,349.26,472,349.26Z"/>
        <path class="a4a601ca-f1da-4454-8210-4d3d4b542e99" d="M547.92,338.21c25.66,28.14-3.11,27.15-27.59,17.19S522.26,310.08,547.92,338.21Z"/>
      </g>
    </g>
  </g>
  <g class="a84c6cd6-af64-4e7b-88f6-13e0febe1768">
    <rect class="ed3de964-de6a-4f8f-8e51-4b48557b52bf" x="601.09" y="18.07" width="892.82" height="889.85"/>
  </g>
</svg>
