<svg xmlns="http://www.w3.org/2000/svg" xmlns:xlink="http://www.w3.org/1999/xlink" width="535.9" height="534.84" viewBox="0 0 535.9 534.84">
  <defs>
    <style>
      .a4cc2a45-178d-44c4-ba57-485c3f02fe11, .a93bce2e-cb6e-4248-9bd3-5b6759f3c824, .b777409b-2caa-48af-a3e2-c669736409db, .be02cbf4-81c5-40e0-a1c8-e76b6c7d949f, .e5cba9e4-9171-4d04-b88f-ea53a9651624, .ef8334da-1c30-48dd-8346-0a3148404a0f {
        fill: none;
      }

      .a4cc2a45-178d-44c4-ba57-485c3f02fe11 {
        stroke: #231f20;
      }

      .a4cc2a45-178d-44c4-ba57-485c3f02fe11, .a93bce2e-cb6e-4248-9bd3-5b6759f3c824, .b777409b-2caa-48af-a3e2-c669736409db, .be02cbf4-81c5-40e0-a1c8-e76b6c7d949f, .e5cb002f-748e-4334-99c3-5b81da381273, .e5cba9e4-9171-4d04-b88f-ea53a9651624, .ed9bc2cb-f1cc-4ad6-8aff-c8075f602170 {
        stroke-miterlimit: 10;
      }

      .be26b277-28c5-4399-b77f-09bc2b3385a0 {
        isolation: isolate;
      }

      .fe112462-9966-40bf-8484-c8db128c3ebf {
        clip-path: url(#be874b43-2282-4247-810c-a81957a2baeb);
      }

      .ae1ddd0f-8a35-4b43-b1f4-5265c37b7c56, .e5cb002f-748e-4334-99c3-5b81da381273 {
        fill: #fff;
      }

      .e5cb002f-748e-4334-99c3-5b81da381273, .e5cba9e4-9171-4d04-b88f-ea53a9651624 {
        stroke: #afafaf;
      }

      .b13b28b3-b063-4e00-9ae8-323402150024 {
        fill: #d8d8d8;
      }

      .bc4abefe-8f32-4509-a3a1-a2bf4c80f5a9 {
        fill: url(#a50ff749-114e-43b5-9e2b-5ec97946a3e3);
      }

      .ed9bc2cb-f1cc-4ad6-8aff-c8075f602170 {
        fill: #31d0e5;
        stroke-width: 6px;
        stroke: url(#b9053a68-e148-4ef2-a19d-3e9f78eb09ea);
      }

      .e4e5e434-8a7d-4e7d-9e60-34fb8007b1ef {
        clip-path: url(#b81bdebb-5e66-493c-a42d-dc6f10415508);
      }

      .a79b7180-7a05-42a0-86e4-b4d6b5910cde {
        clip-path: url(#e7f86dbb-8fb4-4634-9a20-32703d369b41);
      }

      .f6ae3a5f-3c59-4fbc-b262-971ada15cfc2 {
        fill: url(#ad8f2b30-a7fd-489a-a5c0-041daa51f116);
      }

      .ae1ddd0f-8a35-4b43-b1f4-5265c37b7c56 {
        opacity: 0.4;
      }

      .fbae7fb9-fb69-4c51-93ac-e5e3a762ba54 {
        fill: #99999b;
      }

      .a5726f82-0325-4ebd-ac1e-144e24f1fa9d {
        fill: #4b6572;
      }

      .b7598ed5-3047-45eb-9b5e-e270ac5b8cd8 {
        fill: #ad2333;
      }

      .eab3610f-b6d1-41e4-8d80-ecbb0a15219e {
        fill: #344f59;
      }

      .a0ab1d9f-04db-4ecf-a4f8-734bd7aa72a6 {
        fill: #898a90;
      }

      .b9fb7055-22e5-4a24-8c13-1315725c8c00, .e46511e4-2c38-4948-b665-b755c707d4bb {
        fill: #71717b;
      }

      .e46511e4-2c38-4948-b665-b755c707d4bb {
        mix-blend-mode: multiply;
        opacity: 0.2;
      }

      .b3574ceb-f0df-4a88-8745-88e35dfff61a {
        fill: #354957;
      }

      .aef49a20-8b64-47f1-a183-c0d624da36b1 {
        fill: #253946;
      }

      .af37719a-909c-4214-8384-4f66d3ca7ce3 {
        fill: #dff2fc;
      }

      .f35e4a1d-4c8a-45d9-bffc-dc149b81e5f2 {
        fill: #63c6cc;
      }

      .fd74439a-0c22-484a-ba1c-afa9bb9d01c2 {
        fill: #8dd3db;
      }

      .ab4923c6-de65-441c-abeb-f145eb4e20e1 {
        fill: #518784;
      }

      .b03cd988-6149-46bb-a5dc-eb1737fa3b23 {
        fill: #5f9b96;
      }

      .b3f87ff5-9f3c-4af5-b389-048753ee454a {
        fill: #3e726d;
      }

      .a9b83d5f-4156-4c71-9780-e9e230d6667e {
        fill: #28524f;
      }

      .bd474cb4-23d7-4f30-ae53-127aca1f7d0a {
        fill: #0e2539;
      }

      .e748bf0d-281f-4635-ac32-d139aa075dec {
        fill: #2a3e5a;
      }

      .a93bce2e-cb6e-4248-9bd3-5b6759f3c824 {
        stroke: #2a3e5a;
        stroke-width: 15.86px;
      }

      .ba7b8d71-53fe-41ec-a207-444f81f99ea9 {
        fill: #41595d;
      }

      .a53b5614-7aa8-4633-ad3b-9ca71c98d87c {
        fill: #2b4346;
      }

      .a2afa727-f0c6-41f1-aa70-20579cfd9c72 {
        fill: #516a6f;
      }

      .a580395c-0c50-4423-8caa-dcf57729552f {
        fill: #2a4446;
      }

      .bf5dceb7-4d3b-4e71-a2cc-726a7a1bfcdc {
        fill: #3a5458;
      }

      .ba834134-284e-45bf-bf31-d8819f001723 {
        fill: #87d1d6;
      }

      .b4e8239c-ec91-4677-911c-08482e2e5404 {
        fill: #304a4e;
      }

      .ba221aa8-8ccf-4f36-a623-f54299e3187d {
        fill: #6b9295;
      }

      .b142b0af-88e5-4812-a7d3-c218694f5f67 {
        fill: #607c80;
      }

      .abbb22a0-3ded-4c5d-a7c1-401bcd532c29 {
        fill: #526e6f;
      }

      .e58ad7bf-c9a2-4211-8253-ee0ae5227e77 {
        fill: #64959b;
      }

      .b841984e-d182-46d0-8ea5-45f77059b98e {
        fill: #48787a;
      }

      .b568773b-79b8-4cdb-bb34-a5875181fb28 {
        fill: #649c9c;
      }

      .a23a6f20-dbcd-41d0-81e0-f4bf9db9d8f1 {
        fill: #508786;
      }

      .ba2be505-efb1-4b54-bffe-bb5d6773996a {
        fill: #334b51;
      }

      .bc42ca87-a1b9-41aa-9b94-2e7fb1c8eb88 {
        fill: #243c42;
      }

      .a882754e-9567-4e08-9205-9eac19a7ab5c {
        fill: #152b31;
      }

      .a8ac88dd-c9f3-4d2d-ae0d-c77add2edf38 {
        fill: #405d5d;
      }

      .a657e4c0-bf7d-45f7-a157-662009602755 {
        fill: #557879;
      }

      .e38a0364-5ca9-40de-9fac-7556067a4305 {
        fill: #679394;
      }

      .f501a94b-f0b3-4dcb-95f4-1f511429123c {
        fill: #577f7f;
      }

      .f7764210-7521-46de-8fbf-318f7c9e55dc, .ffbe0e27-c865-472e-854c-7ecbee83e7ac {
        fill: #1b3136;
      }

      .ab8b2cbe-5996-49de-ba3a-07b8b4bc96be, .ffbe0e27-c865-472e-854c-7ecbee83e7ac {
        opacity: 0.5;
      }

      .fccaf58e-709c-434e-970d-728ef93cc27e {
        fill: #507a7c;
      }

      .bb601c3d-63dc-4ca5-9b17-b6ce0fe58bbf {
        fill: #477172;
      }

      .aa4c4d8a-db7b-4bf3-98e7-da5e66fa018d {
        fill: #325959;
      }

      .acf43067-4063-4f49-82e9-f191d13713f1 {
        fill: #568388;
      }

      .a1f5aaa9-b9fe-49fd-a4aa-70ace8a0c4a4 {
        fill: #183536;
      }

      .a7b0af37-7d49-4881-8de8-17946d0c565e {
        fill: #445b63;
      }

      .bf4c27d5-ea49-4af5-878c-5854688719e4 {
        fill: #58747b;
      }

      .f4843210-6601-4ed1-9153-4387192e6b0a {
        fill: #49646a;
        opacity: 0.6;
      }

      .b1398eb4-092a-4fdb-a39f-3a4ae8ba3663 {
        fill: #01181f;
      }

      .f4f5e12b-dbb7-4406-b6a5-5961907b7b7d {
        fill: #466668;
      }

      .fea1204d-2bad-4b49-8cf5-0278a1581407 {
        fill: #7ea5a6;
      }

      .ab8b2cbe-5996-49de-ba3a-07b8b4bc96be, .fe690f7b-d07f-4088-ab15-7877a0863167 {
        fill: #85bdbc;
      }

      .f8905974-a921-429e-a6a3-b5e6e7b2058c {
        fill: #568b8b;
      }

      .b797743d-3068-48f9-831a-b83aa55be487 {
        fill: #437675;
      }

      .b2c36e16-c4e2-4302-9d9b-057d05cc4b9f {
        clip-path: url(#fa488fa3-d7e7-48b6-8662-85819b722622);
      }

      .a656526b-7a63-4045-bb67-d4f87ca53b23 {
        clip-path: url(#a9307166-d6cb-4200-9cbd-2cb2d3fd585e);
      }

      .ad25a3c2-8eb5-4190-ab5c-ee729dfc3eb1 {
        fill: url(#f8425ae7-a667-4984-a48c-df23f54d5780);
      }

      .a202c290-22a2-4f50-bee6-b5b7f2c34339 {
        fill: #472409;
        mix-blend-mode: color-burn;
        opacity: 0.25;
      }

      .a4afc7e4-559d-495d-a49f-ad055a1c355f {
        fill: #bf987e;
      }

      .b618ba84-a614-4b10-8d6f-7968539df8b3 {
        fill: #7d8a92;
      }

      .b1656f81-d0f5-41e6-b620-5f250f784126 {
        fill: #3a3a3a;
      }

      .f10ebfc8-1fb7-48e3-b0e2-7367cf62e3bb {
        fill: #bababa;
      }

      .be02cbf4-81c5-40e0-a1c8-e76b6c7d949f {
        stroke: #4f3729;
      }

      .a03c66b4-d379-4e16-9977-4f28117bebc8 {
        fill: url(#b743d491-823f-4990-836e-45f1886fb145);
      }

      .b809f68a-7f6b-4e8c-a2b2-203ef0617758 {
        fill: url(#b46d3661-a469-4679-81f2-b76ccefa2078);
      }

      .a29df9fa-6001-4283-b7af-bfb08e0b92df {
        fill: #ddd;
      }

      .f49e781b-9fd1-40a9-8124-76c34ec5bd07 {
        opacity: 0.6;
      }

      .ac52611d-dc94-4fd8-b7d3-77358a3642de {
        clip-path: url(#ec9351ee-925d-45dd-9c23-78a1ebb10a11);
      }

      .be42e4e8-2bf0-450a-8366-a901727aa39c {
        fill: #fffafc;
      }

      .a20b27c9-de1b-454d-94ff-95a0fc6f3463 {
        fill: #202d3b;
      }

      .b777409b-2caa-48af-a3e2-c669736409db {
        stroke: #202d3b;
      }

      .e7e25963-0956-4561-8b87-c3056260b2b1 {
        fill: #f4eb98;
      }

      .b3f204cf-900a-4267-bb10-e201f96a62d9 {
        opacity: 0.21;
      }

      .ea230c50-1437-4988-9e6c-32acffebdb8b {
        clip-path: url(#b6fc689c-8dd8-4db8-bc79-fcf184a9bc57);
      }

      .b1af5715-9aee-4924-9cea-30517ac90059 {
        clip-path: url(#a160dfa1-974e-4606-a385-03dbb011df66);
      }

      .b78005a0-61c7-4951-a27c-c52db93de9e9 {
        clip-path: url(#af681d58-7dee-48c7-9d5e-0e94154ad84c);
      }

      .e83e9067-e8f0-4dcc-9b50-1c2645e716c9 {
        fill: #787777;
      }

      .faaeb2d2-1350-4ec3-850e-621d630df170 {
        fill: #4d4d4f;
      }

      .bebbbcc2-2c19-4c51-9c9d-a6fb2c40973b {
        fill: #404041;
      }

      .eabc72de-a006-42dc-b844-540b0d939b4f {
        fill: #bec5cc;
      }

      .a8bdeede-5202-4038-af69-91f5bef6e896 {
        fill: #89929d;
      }

      .bd82af8d-c9bd-4940-9e57-417b736c73f1 {
        fill: #707985;
      }

      .b75636ce-ba4d-448d-a6fe-94a8a4a06c7d {
        fill: #d0dce0;
      }

      .a559f7aa-3295-4025-bfb7-e1c79faa6794 {
        fill: #dcdbe0;
      }
    </style>
    <clipPath id="be874b43-2282-4247-810c-a81957a2baeb">
      <ellipse class="ef8334da-1c30-48dd-8346-0a3148404a0f" cx="230.92" cy="829.26" rx="202.98" ry="202.7"/>
    </clipPath>
    <linearGradient id="a50ff749-114e-43b5-9e2b-5ec97946a3e3" x1="46.24" y1="115.5" x2="479.51" y2="412.39" gradientUnits="userSpaceOnUse">
      <stop offset="0" stop-color="#9b81cf"/>
      <stop offset="1" stop-color="#3b139b"/>
    </linearGradient>
    <linearGradient id="b9053a68-e148-4ef2-a19d-3e9f78eb09ea" x1="13.39" y1="267.42" x2="522.51" y2="267.42" gradientUnits="userSpaceOnUse">
      <stop offset="0" stop-color="#4c1da9"/>
      <stop offset="1" stop-color="#997ece"/>
    </linearGradient>
    <clipPath id="b81bdebb-5e66-493c-a42d-dc6f10415508">
      <circle class="ef8334da-1c30-48dd-8346-0a3148404a0f" cx="267.95" cy="267.42" r="248.47"/>
    </clipPath>
    <clipPath id="e7f86dbb-8fb4-4634-9a20-32703d369b41">
      <rect class="a4cc2a45-178d-44c4-ba57-485c3f02fe11" x="-120.27" y="-11.95" width="761.85" height="535.39"/>
    </clipPath>
    <linearGradient id="ad8f2b30-a7fd-489a-a5c0-041daa51f116" x1="263.97" y1="550.82" x2="263.97" y2="-82.49" gradientUnits="userSpaceOnUse">
      <stop offset="0.27" stop-color="#a0cfff"/>
      <stop offset="0.52" stop-color="#a8dbff"/>
      <stop offset="0.98" stop-color="#b5efff"/>
    </linearGradient>
    <clipPath id="fa488fa3-d7e7-48b6-8662-85819b722622">
      <circle class="ef8334da-1c30-48dd-8346-0a3148404a0f" cx="853.85" cy="267.42" r="248.58"/>
    </clipPath>
    <clipPath id="a9307166-d6cb-4200-9cbd-2cb2d3fd585e">
      <rect class="ef8334da-1c30-48dd-8346-0a3148404a0f" x="305.77" y="-47.76" width="1013.9" height="570.32"/>
    </clipPath>
    <linearGradient id="f8425ae7-a667-4984-a48c-df23f54d5780" x1="814.94" y1="-144.88" x2="814.09" y2="368.58" gradientUnits="userSpaceOnUse">
      <stop offset="0.09" stop-color="#a0cfff"/>
      <stop offset="0.33" stop-color="#a8dbff"/>
      <stop offset="0.79" stop-color="#b5efff"/>
    </linearGradient>
    <linearGradient id="b743d491-823f-4990-836e-45f1886fb145" x1="516.17" y1="89.24" x2="546.27" y2="59.13" gradientUnits="userSpaceOnUse">
      <stop offset="0.15" stop-color="#82cdd9"/>
      <stop offset="0.82" stop-color="#d7eef4"/>
    </linearGradient>
    <linearGradient id="b46d3661-a469-4679-81f2-b76ccefa2078" x1="339.33" y1="-392.92" x2="388.23" y2="-441.84" gradientTransform="matrix(0.92, -0.08, 0.09, 1, 209.45, 518.18)" gradientUnits="userSpaceOnUse">
      <stop offset="0.4" stop-color="#adcff1"/>
      <stop offset="0.51" stop-color="#b9d9f5"/>
      <stop offset="0.8" stop-color="#d2f0fc"/>
      <stop offset="0.98" stop-color="#dbf8ff"/>
    </linearGradient>
    <clipPath id="ec9351ee-925d-45dd-9c23-78a1ebb10a11">
      <rect class="ef8334da-1c30-48dd-8346-0a3148404a0f" x="524.79" y="317.1" width="0.4" height="49.69"/>
    </clipPath>
    <clipPath id="b6fc689c-8dd8-4db8-bc79-fcf184a9bc57">
      <rect class="ef8334da-1c30-48dd-8346-0a3148404a0f" x="511.92" y="208.95" width="2.27" height="3.32"/>
    </clipPath>
    <clipPath id="a160dfa1-974e-4606-a385-03dbb011df66">
      <rect class="ef8334da-1c30-48dd-8346-0a3148404a0f" x="514.04" y="212.95" width="2.6" height="1.92"/>
    </clipPath>
    <clipPath id="af681d58-7dee-48c7-9d5e-0e94154ad84c">
      <rect class="ef8334da-1c30-48dd-8346-0a3148404a0f" x="511.63" y="204.17" width="0.79" height="4.19"/>
    </clipPath>
  </defs>
  <g class="be26b277-28c5-4399-b77f-09bc2b3385a0">
    <g id="e720ae1e-7a88-4d6d-b368-d2c3e1c9c061" data-name="Layer 1">
      <g class="fe112462-9966-40bf-8484-c8db128c3ebf">
        <g>
          <g>
            <path class="e5cb002f-748e-4334-99c3-5b81da381273" d="M157.17,721.26,284,745.83s35.08.32,59.39-91.79L333.07,455.88,211.56,496.13l70.13,52.52C281.46,552.14,291.42,573,157.17,721.26Z"/>
            <path class="b13b28b3-b063-4e00-9ae8-323402150024" d="M342.42,653.47l-10-196.82-119.4,40L282.13,548S310.29,569.36,342.42,653.47Z"/>
          </g>
          <g>
            <path class="e5cba9e4-9171-4d04-b88f-ea53a9651624" d="M244.65,504.1s75.34-28.67,88.29-34.81"/>
            <path class="e5cba9e4-9171-4d04-b88f-ea53a9651624" d="M254.5,510.87s66.33-24.75,79.28-30.9"/>
            <path class="e5cba9e4-9171-4d04-b88f-ea53a9651624" d="M265,519.21s54.68-22.49,67.63-28.63"/>
            <path class="e5cba9e4-9171-4d04-b88f-ea53a9651624" d="M280.26,529.11s19.89,14.43,29.46,37l27.29-19s-3.36-44.89-2.69-42.38C334.52,505.47,280.26,529.11,280.26,529.11Z"/>
          </g>
        </g>
      </g>
      <g>
        <g>
          <circle class="bc4abefe-8f32-4509-a3a1-a2bf4c80f5a9" cx="267.95" cy="267.42" r="262.59"/>
          <circle class="ed9bc2cb-f1cc-4ad6-8aff-c8075f602170" cx="267.95" cy="267.42" r="251.56"/>
        </g>
        <g class="e4e5e434-8a7d-4e7d-9e60-34fb8007b1ef">
          <g>
            <g class="a79b7180-7a05-42a0-86e4-b4d6b5910cde">
              <g>
                <g>
                  <path class="f6ae3a5f-3c59-4fbc-b262-971ada15cfc2" d="M-132.47-19.8V549.68c.64.2,1.29.38,1.93.57l1.61.14c14.14,1.13,28.3-.37,42.42-1.48,14.87-1.18,29.72-1,44.61-.77,32.9.58,65.78,2.21,98.68,3.56,32.59,1.33,65.21,2,97.81,1.45,32.23-.51,64.54-1.78,96.66-5.81,16-2,31.91-4.29,47.92-5.13a202.21,202.21,0,0,1,57,5.38,35.93,35.93,0,0,1,8.25,4.66l1-.07c53.25-3.4,106.37-7.6,159.7-6.39,45.06,1,90.18,3.67,135.23,1.31V-19.8Z"/>
                  <path class="ae1ddd0f-8a35-4b43-b1f4-5265c37b7c56" d="M748,149.61H456.44s12.14-60.79,51-27.6c0,0,5.56-66.26,43.51-11.27,0,0-6-69,36.63-68.88,38.1.06,38.28,55.92,38.28,55.92S648.16,52,674.18,86.42c13.2,17.46,3.52,44.48,3.52,44.48Z"/>
                  <path class="ae1ddd0f-8a35-4b43-b1f4-5265c37b7c56" d="M192.74,320.23h-198s8.44-47.71,34.64-16.75c0,0,2.12-64.05,29.52-9.65,0,0-4.22-50.92,24.73-50.87C109.54,243,109.8,285,109.8,285s19.53-35.29,39.91-15.65c11.09,10.71-4.7,38.13-4.7,38.13Z"/>
                  <path class="fbae7fb9-fb69-4c51-93ac-e5e3a762ba54" d="M661,487.46,583.16,501l-111-28.49-65.61,13.28-53.88,12.48-88.44-21.63L-1.41,505.1l-183.13-20,.06,65.23c14.81,1.06,29.65-.46,44.43-1.61,15.86-1.23,31.7-1.07,47.58-.8,35.09.6,70.16,2.32,105.23,3.72,34.77,1.4,69.55,2.07,104.32,1.52,34.38-.53,68.84-1.86,103.09-6.07,17-2.1,34-4.49,51.1-5.37a220.08,220.08,0,0,1,60.82,5.63,38.39,38.39,0,0,1,8.8,4.87l1.1-.07c56.79-3.56,113.44-8,170.31-6.68,49.58,1.1,99.22,4,148.79,1.11Z"/>
                  <path class="a5726f82-0325-4ebd-ac1e-144e24f1fa9d" d="M-185.38,550.26c16.82,1.17,33.68-.39,50.47-1.56,17.69-1.23,35.36-1.07,53.07-.8,39.15.6,78.26,2.32,117.4,3.72q6.81.25,13.63.46V490.31L-33.95,424v66.36H-35l-82-65.49v65.49L-200.23,424V546.36c4.29,1.41,8.6,2.65,12.94,3.75C-186.65,550.16-186,550.22-185.38,550.26Z"/>
                  <polygon class="b7598ed5-3047-45eb-9b5e-e270ac5b8cd8" points="-33.95 437.07 49.19 504.64 49.19 490.31 -33.95 423.95 -33.95 437.07"/>
                  <polygon class="eab3610f-b6d1-41e4-8d80-ecbb0a15219e" points="-33.95 437.07 49.19 504.64 49.19 490.31 -33.95 423.95 -33.95 437.07"/>
                  <polygon class="b7598ed5-3047-45eb-9b5e-e270ac5b8cd8" points="49.19 491.19 -38.79 420.17 -38.79 412.91 49.19 483.93 49.19 491.19"/>
                  <g>
                    <path class="a0ab1d9f-04db-4ecf-a4f8-734bd7aa72a6" d="M609.45,338.81l-3.29-.86s.49-4.05-.65-5.73c0,0-7.91.27-8.51-7.55,0,0-4.58-1-2.25-5.46,0,0-10.71,3-9.29-9.84,0,0-5.65-.07-4.76-5.87,0,0-11.15,6.85-12.56-7,0,0-5.9,1-4.25-6.2,0,0-3.58,2.32-5.75-.57,0,0-3.42,4.45-6.32,0,0,0-13,7.3-14.43-8.39,0,0-13.9.8-9-15.8,0,0-8.8-3.21-5.62-9.12,0,0-7.14-4.63-2.24-9.86,0,0-1-12.3,11-8.95,0,0,7.53-8.28,15.23.91,0,0,6.1-4,9.24,3.79,0,0,3.2-1,4,2.91,0,0,8.26-1.81,10.88,7.69,0,0,8.4-2.92,10.66,7.41,0,0,8.3.07,7.56,11.48,0,0,3.67-.21,2.4,4.33,0,0,11.68,5.11,6.89,16.52,0,0,3.21-.67,1.08,3.88,0,0,8-.48,7.25,11.17,0,0,9.15,2.37,5.81,10.09,0,0,7.24,7.91,1.89,12.79,0,0,.24,4.2-4.09,3.58Z"/>
                    <path class="e46511e4-2c38-4948-b665-b755c707d4bb" d="M607,338.17l2.47.64s1.75-6.05,1.82-8.58c0,0,4-5,.14-7.39,0,0,2.43-3.32-1.73-4.16,0,0,2.59-7.45-4.76-8.66,0,0,.85-4.66-3.36-5.29,0,0,1.53-9.58-6-10.38,0,0,1.57-4.46-1.88-5.59,0,0,3.83-8.29-6.07-10.16,0,0,1.29-5-2.68-5.8,0,0,1.49-5.18-4.63-6.77,0,0-1.22-3.8-3.39-2.51,0,0-2.61-7.34-9.57-3,0,0-1.8-6.41-8.33-4.74,0,0,.73-4.11-4.13-4.44,0,0,.7-7.42-7-6.31,0,0-8.49-9.31-10.78-.85,0,0-1.61-2.74-3.11,1.28,0,0-6.46-1-5.25,5.14,0,0-4.37,1.41-1.92,5.76,0,0-3.53,6.05,2.51,9.47,0,0-2.76,10.42,9.24,11.33,0,0,1.65,7.32,9.14,5.42,0,0,4.16,6.51,10.83-2.44,0,0-.92,5.32,7.29,4.1,0,0-2.49,9.45,5.67,8.08a2.87,2.87,0,0,0,1.91,3.75s1.1,8.64,9.35,3.59c0,0,1.68,4.61,5.78,2,0,0-3.31,5.87,3.38,7.14,0,0-.9,5.8,3.47,5.78,0,0-.6,3.54,1.91,2.58,0,0-2.28,6.6,4.5,7.44,0,0-1.4,2.65,3.09,3.35,0,0-.32,3.57,3,3.55Z"/>
                    <path class="b9fb7055-22e5-4a24-8c13-1315725c8c00" d="M607,338.17l2.47.64s1-8.32.92-9.74a2.9,2.9,0,0,0-.33-4.27s.48-2.19-1.06-3.05c0,0,2.69-7.9-3.58-8.13,0,0-1.64-2.51-3.82-1.92,0,0,2.15-3.15-.43-5.22,0,0,2-9.47-5.29-9.26,0,0,0-4.65-3.36-4.35,0,0,3.59-10-5.08-8.28,0,0,.79-5.36-3.41-5.06,0,0,1-10.89-6.78-9.42,0,0-1.22-5.15-5.92-2.21,0,0-1.27-3.37-6.3,0,0,0-2.53-6.23-8.55-1.06,0,0,1.36-5.68-2-7,0,0,2.46-10.5-4.41-9,0,0-5.12-6.2-7.65.1,0,0-7.11-5.09-6.8,4,0,0-5.14.75-2.16,5.24,0,0-4.41,5.35,1.36,8.71,0,0-.44,3.83,4.17,2.7,0,0-.25,7.6,9.11,5.38,0,0,3.35,4.36,6.16-.48,0,0,2.11,5.65,9.44-.11,0,0-1,4.85,4.56,4.9,0,0-.26,3.64,1.81,4.06,0,0-2.33,4.9,4.83,4.3,0,0-.42,5,2.79,3.82,0,0,.38,6.38,7.5,3.81,0,0,.68,2.74,4,1.51,0,0-.53,6.13,3.88,6.35,0,0-2.64,4.42,1.32,5.21,0,0,.12,3.75,4.38,3.46a2.87,2.87,0,0,0,1.39,4.07s-1,3.92,2.82,4.91c0,0-.89,2.55,1.92,2.13,0,0,.81,3.45,2.57,3.45Z"/>
                  </g>
                  <g>
                    <path class="a0ab1d9f-04db-4ecf-a4f8-734bd7aa72a6" d="M573.56,341h-3s-.37-3.55-1.66-4.73c0,0-6.65,2-8.68-4.52,0,0-4.07.19-3-4.14,0,0-8.5,4.93-9.8-6.29,0,0-4.8,1.18-5.17-3.94,0,0-8.13,8.27-12-3.15,0,0-4.79,2.17-4.79-4.33,0,0-2.59,2.76-5,.79,0,0-2,4.53-5.36,1.38,0,0-9.61,9.05-13.86-3.94,0,0-11.64,3.74-10.72-11.42,0,0-8.09-.78-6.54-6.49,0,0-7-2.36-3.81-7.87,0,0-3.26-10.2,7.61-10,0,0,4.77-8.68,13.09-2.58,0,0,4.4-4.72,8.57,1.18,0,0,2.52-1.57,4,1.58,0,0,6.66-3.35,10.72,4.13,0,0,6.55-4.33,10.48,3.94,0,0,7-1.78,8.64,8.07,0,0,3.07-1,2.88,3.14,0,0,10.89,1.77,9,12.5,0,0,2.59-1.28,1.66,3.05,0,0,6.65-2.16,8.32,7.88,0,0,8.21,0,6.88,7.28,0,0,7.68,5.11,4.1,10.43a3,3,0,0,1-2.79,3.93Z"/>
                    <path class="e46511e4-2c38-4948-b665-b755c707d4bb" d="M571.34,341h2.22a47.49,47.49,0,0,0-.12-7.68s2.43-5.12-1.31-6.29c0,0,1.41-3.35-2.27-3.15,0,0,.74-6.89-5.73-6.3,0,0-.18-4.14-3.87-3.74,0,0-.56-8.46-7.12-7.48,0,0,.46-4.14-2.68-4.33,0,0,1.64-7.87-7.12-7.28,0,0,.12-4.53-3.4-4.33,0,0,.26-4.73-5.24-4.73,0,0-1.77-2.95-3.35-1.37,0,0-3.65-5.65-8.72-.47,0,0-2.77-5-8-2.19,0,0-.18-3.64-4.36-2.86,0,0-.85-6.44-7.14-3.81,0,0-9-6-9.31,1.65,0,0-1.89-2-2.39,1.77,0,0-5.66.59-3.45,5.51a3.27,3.27,0,0,0-.51,5.32s-1.82,5.9,4,7.47c0,0-.3,9.44,10,7.58,0,0,2.82,5.85,8.8,2.58,0,0,4.8,4.61,8.72-4.45,0,0,.25,4.72,7,1.87,0,0-.28,8.56,6.36,5.61a2.45,2.45,0,0,0,2.35,2.76s2.62,7.08,8.64,1c0,0,2.32,3.54,5.28.39,0,0-1.67,5.71,4.24,5.32,0,0,.38,5.11,4.07,4.13,0,0,.18,3.14,2.13,1.77,0,0-.66,6.1,5.26,5.32,0,0-.68,2.55,3.27,2.16,0,0,.41,3.1,3.2,2.36Z"/>
                    <path class="b9fb7055-22e5-4a24-8c13-1315725c8c00" d="M571.34,341h2.22s-.74-7.29-1.11-8.46a2.5,2.5,0,0,0-1.11-3.55s0-2-1.48-2.36c0,0,.74-7.28-4.61-6.1,0,0-1.89-1.77-3.62-.79,0,0,1.21-3.15-1.37-4.33,0,0-.19-8.46-6.28-6.69,0,0-.93-3.94-3.7-2.95,0,0,1.1-9.25-5.92-5.91,0,0-.37-4.72-3.87-3.54,0,0-1.3-9.44-7.58-6.49,0,0-2-4.1-5.46-.58,0,0-1.73-2.57-5.34,1.36,0,0-3.36-4.72-7.46,1,0,0,.05-5.12-3-5.51,0,0,.05-9.45-5.5-6.69,0,0-5.54-4.14-6.47,1.77,0,0-7-2.76-5,4.92,0,0-4.21,1.77-.82,4.92,0,0-2.69,5.51,2.85,7.08,0,0,.37,3.35,4.06,1.38,0,0,1.26,6.5,8.76,2.56,0,0,3.7,3,5.14-1.77,0,0,2.89,4.33,8-2.17,0,0,.11,4.33,4.82,3.15,0,0,.49,3.14,2.33,3,0,0-1,4.66,4.92,2.58,0,0,.63,4.38,3.12,2.62,0,0,1.56,5.33,7.1,1.59,0,0,1.11,2.17,3.7.4,0,0,.73,5.31,4.52,4.52,0,0-1.38,4.33,2.13,4.13,0,0,.83,3.15,4.39,2a2.46,2.46,0,0,0,2,3.15s-.08,3.55,3.33,3.55c0,0-.25,2.36,2,1.37,0,0,1.36,2.76,2.85,2.37Z"/>
                  </g>
                  <g>
                    <path class="b3574ceb-f0df-4a88-8745-88e35dfff61a" d="M592.79,545.45c13.37.26,26.73.64,40.1,1l-5.61-124.1-74.94-27.45L477.4,422.36l-5.69,125.88C512,546.13,552.37,544.64,592.79,545.45Z"/>
                    <polygon class="aef49a20-8b64-47f1-a183-c0d624da36b1" points="627.86 440.17 627.28 422.36 552.34 394.91 477.4 422.36 476.83 440.17 550.93 413.47 627.86 440.17"/>
                    <polygon class="b7598ed5-3047-45eb-9b5e-e270ac5b8cd8" points="633.05 432.04 552.54 402.21 468.81 432.04 468.81 424.73 552.54 394.91 633.05 424.73 633.05 432.04"/>
                    <g>
                      <g>
                        <g>
                          <polygon class="af37719a-909c-4214-8384-4f66d3ca7ce3" points="522.41 509.65 522.41 509.65 487.83 509.65 487.83 509.65 487.83 470.68 487.83 470.68 522.41 470.68 522.41 470.68 522.41 509.65"/>
                          <polygon class="f35e4a1d-4c8a-45d9-bffc-dc149b81e5f2" points="520.19 507.15 520.19 507.15 490.05 507.15 490.05 507.15 490.05 473.18 490.05 473.18 520.19 473.18 520.19 473.18 520.19 507.15"/>
                          <g>
                            <polygon class="fd74439a-0c22-484a-ba1c-afa9bb9d01c2" points="503.4 473.18 490.05 499.15 490.05 507.15 490.66 507.15 508.11 473.18 503.4 473.18"/>
                            <polygon class="fd74439a-0c22-484a-ba1c-afa9bb9d01c2" points="493.93 507.15 506.08 507.15 520.19 479.69 520.19 473.18 511.38 473.18 493.93 507.15"/>
                          </g>
                        </g>
                        <rect class="af37719a-909c-4214-8384-4f66d3ca7ce3" x="489.21" y="485.93" width="31.82" height="1.69"/>
                        <rect class="af37719a-909c-4214-8384-4f66d3ca7ce3" x="503.85" y="470.67" width="2.39" height="16.95"/>
                      </g>
                      <g>
                        <g>
                          <polygon class="af37719a-909c-4214-8384-4f66d3ca7ce3" points="568.22 509.65 568.22 509.65 533.64 509.65 533.64 509.65 533.64 470.68 533.64 470.68 568.22 470.68 568.22 470.68 568.22 509.65"/>
                          <polygon class="f35e4a1d-4c8a-45d9-bffc-dc149b81e5f2" points="566 507.15 566 507.15 535.87 507.15 535.87 507.15 535.87 473.18 535.87 473.18 566 473.18 566 473.18 566 507.15"/>
                          <polygon class="fd74439a-0c22-484a-ba1c-afa9bb9d01c2" points="549.21 473.18 535.87 499.15 535.87 507.15 536.48 507.15 553.92 473.18 549.21 473.18"/>
                        </g>
                        <rect class="af37719a-909c-4214-8384-4f66d3ca7ce3" x="535.02" y="485.93" width="31.82" height="1.69"/>
                      </g>
                    </g>
                  </g>
                  <g>
                    <path class="a0ab1d9f-04db-4ecf-a4f8-734bd7aa72a6" d="M334.15,295.43H323.8s-1.29-13.49-5.83-18c0,0-23.3,7.52-30.42-17.24,0,0-14.23.75-10.34-15.75,0,0-29.77,18.75-34.3-24,0,0-16.83,4.5-18.12-15,0,0-28.48,31.49-42.07-12,0,0-16.82,8.24-16.82-16.5,0,0-9.06,10.5-17.47,3,0,0-7.12,17.25-18.77,5.25,0,0-33.65,34.49-48.53-15,0,0-40.77,14.25-37.54-43.48,0,0-28.33-3-22.9-24.74,0,0-24.34-9-13.33-30C7.36,72-4.08,33.18,34,33.87c0,0,16.72-33,45.84-9.81,0,0,15.42-18,30,4.5,0,0,8.79-6,14,6,0,0,23.3-12.74,37.54,15.75,0,0,22.95-16.5,36.71,15,0,0,24.69-6.75,30.22,30.74,0,0,10.75-3.75,10.09,12,0,0,38.17,6.72,31.7,47.59,0,0,9.06-4.86,5.82,11.63,0,0,23.29-8.22,29.12,30,0,0,28.78,0,24.09,27.74,0,0,26.9,19.48,14.35,39.73,0,0,3.54,13.38-9.75,15Z"/>
                    <path class="e46511e4-2c38-4948-b665-b755c707d4bb" d="M326.39,295.43h7.76s1.09-21-.43-29.24c0,0,8.5-19.49-4.6-24,0,0,5-12.74-7.95-12,0,0,2.62-26.23-20-24,0,0-.64-15.74-13.59-14.24,0,0-1.93-32.24-24.91-28.49,0,0,1.62-15.74-9.38-16.49,0,0,5.75-30-25-27.73,0,0,.46-17.25-11.89-16.5,0,0,.92-18-18.33-18,0,0-6.21-11.25-11.76-5.25,0,0-12.76-21.51-30.5-1.76,0,0-9.71-19.2-28-8.34,0,0-.62-13.89-15.26-10.89,0,0-3-24.54-25-14.52,0,0-31.55-23-32.6,6.28,0,0-6.65-7.5-8.38,6.74,0,0-19.84,2.25-12.08,21,0,0-12,8.25-1.8,20.24,0,0-6.37,22.5,13.9,28.49,0,0-1.1,36,35.15,28.85,0,0,9.86,22.27,30.81,9.83,0,0,16.79,17.54,30.52-16.94,0,0,.88,18,24.45,7.11,0,0-1,32.62,22.3,21.37,0,0-1,9.75,8.22,10.5,0,0,9.16,27,30.22,3.75,0,0,8.14,13.49,18.49,1.5,0,0-5.83,21.74,14.88,20.24,0,0,1.29,19.49,14.24,15.75,0,0,.64,11.95,7.44,6.72,0,0-2.3,23.26,18.42,20.26,0,0-2.36,9.75,11.45,8.25,0,0,1.46,11.8,11.22,9Z"/>
                    <path class="b9fb7055-22e5-4a24-8c13-1315725c8c00" d="M326.39,295.43h7.76s-2.59-27.73-3.88-32.23c0,0,4.53-9-3.88-13.5,0,0-.07-7.49-5.22-9,0,0,2.62-27.74-16.14-23.24,0,0-6.59-6.75-12.68-3,0,0,4.26-12-4.8-16.49,0,0-.63-32.24-22-25.5,0,0-3.23-15-12.93-11.24,0,0,3.87-35.23-20.72-22.49,0,0-1.29-18-13.59-13.49,0,0-4.53-36-26.53-24.74,0,0-7.11-15.6-19.09-2.17,0,0-6.07-9.82-18.72,5.18,0,0-11.75-18-26.12,3.74,0,0,.19-19.49-10.65-21,0,0,.17-36-19.25-25.49,0,0-19.41-15.74-22.65,6.75,0,0-24.59-10.5-17.47,18.74,0,0-14.74,6.75-2.84,18.74,0,0-9.46,21,10,27,0,0,1.29,12.74,14.24,5.25,0,0,4.41,24.73,30.68,9.74,0,0,12.94,11.25,18-6.75,0,0,10.12,16.49,28-8.24,0,0,.37,16.49,16.87,12,0,0,1.7,12,8.14,11.61,0,0-3.63,17.78,17.25,9.83,0,0,2.2,16.69,10.89,10,0,0,5.46,20.3,24.88,6,0,0,3.88,8.25,12.94,1.5,0,0,2.59,20.25,15.85,17.25,0,0-4.85,16.49,7.45,15.74,0,0,2.9,12,15.36,7.49,0,0-2.54,9.72,6.9,12,0,0-.26,13.52,11.71,13.52,0,0-.93,9,7.15,5.24,0,0,4.75,10.5,10,9Z"/>
                  </g>
                  <g>
                    <path class="a0ab1d9f-04db-4ecf-a4f8-734bd7aa72a6" d="M434,308.32l-6.82-3.45s1-11.37-1.42-16.54c0,0-16.37-1.67-17.72-24.12,0,0-9.49-4.14-4.71-16.22,0,0-22.15,5.27-19.37-30.89,0,0-11.7-2-9.92-18.2,0,0-23,16-26.11-23.76,0,0-12.21,1.07-8.87-19,0,0-7.39,5.49-11.92-3.39,0,0-7,11.6-13.08-2,0,0-26.84,16.73-30-28.35,0,0-28.79-2.05-18.87-47.78,0,0-18.28-11.88-11.76-27.7,0,0-14.83-15.41-4.75-28.76,0,0-2.29-35.32,22.71-22.06,0,0,15.48-21.21,31.55,7.34,0,0,12.59-9.45,19.19,13.67,0,0,6.61-1.94,8.4,9.52,0,0,17.08-2.57,22.62,25.28,0,0,17.36-5.71,22.18,24.41,0,0,17.19,2.77,15.78,35,0,0,7.59.54,5,13.08,0,0,24.25,18.18,14.47,49.16,0,0,6.63-.91,2.27,11.38,0,0,16.47,1.1,15.15,34,0,0,19,9.6,12.15,30.53,0,0,15.1,24.78,4.09,37,0,0,.53,12-8.45,8.91Z"/>
                    <path class="e46511e4-2c38-4948-b665-b755c707d4bb" d="M428.9,305.73l5.12,2.59s3.55-16.65,3.66-23.85c0,0,8.24-13,.21-21,0,0,5-8.68-3.63-12.38,0,0,5.27-20.4-10-26.14,0,0,1.7-13-7-16.07,0,0,3.07-26.79-12.58-31.42,0,0,3.19-12.22-4-16.49,0,0,7.83-22.41-12.7-30.82,0,0,2.61-13.84-5.62-17.34,0,0,3-14.29-9.66-20.7,0,0-2.58-11.2-7-8.19,0,0-5.51-21.7-19.87-11.6,0,0-3.82-18.81-17.32-16.09,0,0,1.47-11.47-8.59-13.92,0,0,1.34-20.9-14.52-20.11,0,0-17.7-29.15-22.34-5.79,0,0-3.37-8.3-6.44,2.67,0,0-13.38-4.8-10.79,13,0,0-9,2.68-3.92,15.81,0,0-7.24,16.11,5.31,27.74,0,0-5.57,28.78,19.28,35.11,0,0,3.5,21.35,19,18.25,0,0,8.7,19.83,22.4-3.55,0,0-1.84,14.85,15.16,13.92,0,0-5.05,26.12,11.82,24.77,0,0-2,7.57,4,11.26,0,0,2.39,24.94,19.42,13.12,0,0,3.54,13.65,12,7.39,0,0-6.77,15.67,7.08,21.37,0,0-1.77,16.23,7.27,17.52,0,0-1.19,9.9,4,7.93,0,0-4.65,18.09,9.41,22.58,0,0-2.87,7.11,6.44,10.5,0,0-.63,10.06,6.19,11Z"/>
                    <path class="b9fb7055-22e5-4a24-8c13-1315725c8c00" d="M428.9,305.73l5.12,2.59s2-23.35,1.79-27.43a10.34,10.34,0,0,0-.74-12.24s1-6.1-2.22-9c0,0,5.47-21.62-7.51-24.23,0,0-3.44-7.67-7.95-6.66,0,0,4.43-8.3-.94-15,0,0,3.93-26.36-11.06-28,0,0-.11-13.24-7-13.43,0,0,7.32-27.28-10.62-25.15,0,0,1.58-15-7.13-15.48,0,0,1.87-30.69-14.16-28.9,0,0-2.58-15-12.29-8.14,0,0-2.68-10-13.05-2.05,0,0-5.31-18.51-17.72-5.67,0,0,2.76-15.74-4.19-20.57,0,0,5-29.12-9.25-27.09,0,0-10.67-19.24-15.84-2.09,0,0-14.79-16.71-14,9.37,0,0-10.63.55-4.4,14.25,0,0-9.07,13.86,2.92,25.2,0,0-.87,10.76,8.67,9,0,0-.42,21.53,18.92,18.13,0,0,7,13.44,12.77.53,0,0,4.44,16.75,19.54,2.65,0,0-2,13.5,9.51,15.35,0,0-.49,10.27,3.79,12.13,0,0-4.78,13.2,10.06,13.73,0,0-.81,14.26,5.83,11.73,0,0,.86,18.28,15.58,13.2,0,0,1.44,8,8.33,5.54,0,0-1,17.28,8.12,19.27,0,0-5.42,11.75,2.79,15.24,0,0,.3,10.7,9.11,11.21,0,0-3,7,2.93,12,0,0-2,10.87,5.9,14.87,0,0-1.82,7,4,6.63,0,0,1.72,10.1,5.35,10.63Z"/>
                  </g>
                  <g>
                    <g>
                      <path class="ab4923c6-de65-441c-abeb-f145eb4e20e1" d="M401.58,552.2l1.23-.07c19.34-1.09,38.66-2.25,58-3.31L450.54,274.44H402.17L392,547.4A44.88,44.88,0,0,1,401.58,552.2Z"/>
                      <path class="b03cd988-6149-46bb-a5dc-eb1737fa3b23" d="M456.5,549.06,446.18,274.44h-5.46l4.09,275.28Z"/>
                      <path class="b3f87ff5-9f3c-4af5-b389-048753ee454a" d="M401.58,552.2l1.23-.07,9.79-.56,4.66-277.13H405.37l-12.49,273.3A44.68,44.68,0,0,1,401.58,552.2Z"/>
                      <rect class="a9b83d5f-4156-4c71-9780-e9e230d6667e" x="380.15" y="494.21" width="2.82" height="24.93"/>
                      <rect class="a9b83d5f-4156-4c71-9780-e9e230d6667e" x="469.75" y="494.21" width="2.82" height="24.93"/>
                      <rect class="a9b83d5f-4156-4c71-9780-e9e230d6667e" x="451.12" y="494.21" width="2.81" height="24.93"/>
                      <rect class="a9b83d5f-4156-4c71-9780-e9e230d6667e" x="432.49" y="494.21" width="2.82" height="24.93"/>
                      <rect class="a9b83d5f-4156-4c71-9780-e9e230d6667e" x="413.85" y="494.21" width="2.82" height="24.93"/>
                      <rect class="a9b83d5f-4156-4c71-9780-e9e230d6667e" x="395.22" y="494.21" width="2.81" height="24.93"/>
                    </g>
                    <rect class="bd474cb4-23d7-4f30-ae53-127aca1f7d0a" x="387.1" y="525.66" width="80" height="9.93"/>
                    <rect class="e748bf0d-281f-4635-ac32-d139aa075dec" x="380.15" y="512.63" width="92.42" height="13.03"/>
                    <rect class="e748bf0d-281f-4635-ac32-d139aa075dec" x="380.15" y="494.21" width="92.42" height="4.55"/>
                    <g>
                      <g>
                        <rect class="a9b83d5f-4156-4c71-9780-e9e230d6667e" x="387.08" y="410.41" width="2.4" height="21.19"/>
                        <rect class="a9b83d5f-4156-4c71-9780-e9e230d6667e" x="463.24" y="410.41" width="2.4" height="21.19"/>
                        <rect class="a9b83d5f-4156-4c71-9780-e9e230d6667e" x="447.4" y="410.41" width="2.4" height="21.19"/>
                        <rect class="a9b83d5f-4156-4c71-9780-e9e230d6667e" x="431.56" y="410.41" width="2.4" height="21.19"/>
                        <rect class="a9b83d5f-4156-4c71-9780-e9e230d6667e" x="415.73" y="410.41" width="2.39" height="21.19"/>
                        <rect class="a9b83d5f-4156-4c71-9780-e9e230d6667e" x="399.89" y="410.41" width="2.39" height="21.19"/>
                      </g>
                      <rect class="bd474cb4-23d7-4f30-ae53-127aca1f7d0a" x="392.99" y="437.14" width="68" height="8.44"/>
                      <rect class="e748bf0d-281f-4635-ac32-d139aa075dec" x="387.08" y="426.06" width="78.56" height="11.08"/>
                      <rect class="e748bf0d-281f-4635-ac32-d139aa075dec" x="387.08" y="410.41" width="78.56" height="3.87"/>
                    </g>
                    <g>
                      <g>
                        <rect class="a9b83d5f-4156-4c71-9780-e9e230d6667e" x="388.93" y="317.08" width="2.28" height="20.2"/>
                        <rect class="a9b83d5f-4156-4c71-9780-e9e230d6667e" x="461.51" y="317.08" width="2.28" height="20.2"/>
                        <rect class="a9b83d5f-4156-4c71-9780-e9e230d6667e" x="446.41" y="317.08" width="2.28" height="20.2"/>
                        <rect class="a9b83d5f-4156-4c71-9780-e9e230d6667e" x="431.32" y="317.08" width="2.28" height="20.2"/>
                        <rect class="a9b83d5f-4156-4c71-9780-e9e230d6667e" x="416.23" y="317.08" width="2.28" height="20.2"/>
                        <rect class="a9b83d5f-4156-4c71-9780-e9e230d6667e" x="401.14" y="317.08" width="2.28" height="20.2"/>
                      </g>
                      <rect class="bd474cb4-23d7-4f30-ae53-127aca1f7d0a" x="394.56" y="342.56" width="64.8" height="8.04"/>
                      <rect class="e748bf0d-281f-4635-ac32-d139aa075dec" x="388.93" y="332" width="74.86" height="10.56"/>
                      <rect class="e748bf0d-281f-4635-ac32-d139aa075dec" x="388.93" y="317.08" width="74.86" height="3.69"/>
                    </g>
                    <rect class="e748bf0d-281f-4635-ac32-d139aa075dec" x="396.22" y="263.7" width="60.65" height="20.49"/>
                    <path class="a93bce2e-cb6e-4248-9bd3-5b6759f3c824" d="M399.89,274.44c-3.38-.26-6.24-.26-9.57-.26a1.18,1.18,0,0,0-.95,1.19c-5.71,57.7-10.48,112.43-16.19,170.13-2.86,32.12-6.19,63.06-8.65,94.4"/>
                  </g>
                  <g>
                    <g>
                      <path class="ab4923c6-de65-441c-abeb-f145eb4e20e1" d="M323.92,541.7A260.23,260.23,0,0,1,364.41,543l-10-268.21H306L296,543.87C305.28,542.93,314.59,542.13,323.92,541.7Z"/>
                      <path class="b03cd988-6149-46bb-a5dc-eb1737fa3b23" d="M360.1,542.58,350,274.81h-5.47l4,266.94Q354.33,542,360.1,542.58Z"/>
                      <path class="b03cd988-6149-46bb-a5dc-eb1737fa3b23" d="M344.42,541.58l-3.66-266.77H335L330.4,541.49Q337.43,541.34,344.42,541.58Z"/>
                      <path class="b3f87ff5-9f3c-4af5-b389-048753ee454a" d="M316.62,542.11l4.5-267.3h-11.9l-12.3,269C303.48,543.12,310.05,542.54,316.62,542.11Z"/>
                      <rect class="a9b83d5f-4156-4c71-9780-e9e230d6667e" x="284" y="494.59" width="2.82" height="24.93"/>
                      <rect class="a9b83d5f-4156-4c71-9780-e9e230d6667e" x="373.6" y="494.59" width="2.82" height="24.93"/>
                      <rect class="a9b83d5f-4156-4c71-9780-e9e230d6667e" x="354.97" y="494.59" width="2.81" height="24.93"/>
                      <rect class="a9b83d5f-4156-4c71-9780-e9e230d6667e" x="336.34" y="494.59" width="2.81" height="24.93"/>
                      <rect class="a9b83d5f-4156-4c71-9780-e9e230d6667e" x="317.71" y="494.59" width="2.82" height="24.93"/>
                      <rect class="a9b83d5f-4156-4c71-9780-e9e230d6667e" x="299.07" y="494.59" width="2.82" height="24.93"/>
                    </g>
                    <rect class="bd474cb4-23d7-4f30-ae53-127aca1f7d0a" x="290.96" y="526.04" width="80" height="9.94"/>
                    <rect class="e748bf0d-281f-4635-ac32-d139aa075dec" x="284" y="513" width="92.42" height="13.04"/>
                    <rect class="e748bf0d-281f-4635-ac32-d139aa075dec" x="284" y="494.59" width="92.42" height="4.55"/>
                    <g>
                      <g>
                        <rect class="a9b83d5f-4156-4c71-9780-e9e230d6667e" x="290.93" y="410.78" width="2.39" height="21.2"/>
                        <rect class="a9b83d5f-4156-4c71-9780-e9e230d6667e" x="367.09" y="410.78" width="2.39" height="21.2"/>
                        <rect class="a9b83d5f-4156-4c71-9780-e9e230d6667e" x="351.26" y="410.78" width="2.39" height="21.2"/>
                        <rect class="a9b83d5f-4156-4c71-9780-e9e230d6667e" x="335.42" y="410.78" width="2.4" height="21.2"/>
                        <rect class="a9b83d5f-4156-4c71-9780-e9e230d6667e" x="319.58" y="410.78" width="2.39" height="21.2"/>
                        <rect class="a9b83d5f-4156-4c71-9780-e9e230d6667e" x="303.74" y="410.78" width="2.39" height="21.2"/>
                      </g>
                      <rect class="bd474cb4-23d7-4f30-ae53-127aca1f7d0a" x="296.84" y="437.52" width="68" height="8.44"/>
                      <rect class="e748bf0d-281f-4635-ac32-d139aa075dec" x="290.93" y="426.43" width="78.56" height="11.08"/>
                      <rect class="e748bf0d-281f-4635-ac32-d139aa075dec" x="290.93" y="410.78" width="78.56" height="3.87"/>
                    </g>
                    <g>
                      <g>
                        <rect class="a9b83d5f-4156-4c71-9780-e9e230d6667e" x="292.78" y="317.46" width="2.28" height="20.2"/>
                        <rect class="a9b83d5f-4156-4c71-9780-e9e230d6667e" x="365.36" y="317.46" width="2.28" height="20.2"/>
                        <rect class="a9b83d5f-4156-4c71-9780-e9e230d6667e" x="350.27" y="317.46" width="2.28" height="20.2"/>
                        <rect class="a9b83d5f-4156-4c71-9780-e9e230d6667e" x="335.18" y="317.46" width="2.28" height="20.2"/>
                        <rect class="a9b83d5f-4156-4c71-9780-e9e230d6667e" x="320.08" y="317.46" width="2.28" height="20.2"/>
                        <rect class="a9b83d5f-4156-4c71-9780-e9e230d6667e" x="304.99" y="317.46" width="2.28" height="20.2"/>
                      </g>
                      <rect class="bd474cb4-23d7-4f30-ae53-127aca1f7d0a" x="298.41" y="342.94" width="64.8" height="8.04"/>
                      <rect class="e748bf0d-281f-4635-ac32-d139aa075dec" x="292.78" y="332.37" width="74.86" height="10.56"/>
                      <rect class="e748bf0d-281f-4635-ac32-d139aa075dec" x="292.78" y="317.46" width="74.86" height="3.68"/>
                    </g>
                    <rect class="e748bf0d-281f-4635-ac32-d139aa075dec" x="300.07" y="264.07" width="60.65" height="20.48"/>
                    <path class="a93bce2e-cb6e-4248-9bd3-5b6759f3c824" d="M303.74,274.81c-3.41,0-7.22-.63-10.55.56-1.43,20.22-3.34,39.85-5.72,60.67-1,8.93-1,17.25-2.38,26.18-.47,4.76-.47,10.11-.95,14.87-1.43,13.68-2.38,26.77-4.29,40.45-.47,4.76-.47,10.11-1,14.87-2.38,18.44-3.33,36.29-5.71,54.73-1.91,19-3.34,37.48-5.14,56.52"/>
                  </g>
                  <g>
                    <rect class="ba7b8d71-53fe-41ec-a207-444f81f99ea9" x="244.41" y="253.23" width="2.17" height="41.57"/>
                    <rect class="ba7b8d71-53fe-41ec-a207-444f81f99ea9" x="224.15" y="223.7" width="1.93" height="71.1"/>
                    <rect class="ba7b8d71-53fe-41ec-a207-444f81f99ea9" x="212.58" y="293.3" width="43.25" height="32.24"/>
                    <rect class="a53b5614-7aa8-4633-ad3b-9ca71c98d87c" x="212.58" y="293.3" width="11.57" height="32.24"/>
                    <rect class="a2afa727-f0c6-41f1-aa70-20579cfd9c72" x="237.02" y="314.39" width="27.65" height="13.39"/>
                    <rect class="a580395c-0c50-4423-8caa-dcf57729552f" x="237.02" y="314.39" width="10.56" height="13.39"/>
                    <rect class="a2afa727-f0c6-41f1-aa70-20579cfd9c72" x="200.16" y="314.39" width="27.65" height="13.39"/>
                    <rect class="a580395c-0c50-4423-8caa-dcf57729552f" x="200.16" y="314.39" width="10.56" height="13.39"/>
                    <path class="a2afa727-f0c6-41f1-aa70-20579cfd9c72" d="M266.92,547.07l15.88-1.78-9.41-217.51H182.24l-9.74,225C204,552,235.54,550.53,266.92,547.07Z"/>
                    <polygon class="bf5dceb7-4d3b-4e71-a2cc-726a7a1bfcdc" points="274.01 342.24 273.39 327.78 182.24 327.78 181.61 342.24 274.01 342.24"/>
                    <path class="a580395c-0c50-4423-8caa-dcf57729552f" d="M198.6,552,204,327.78H182.24l-9.74,225Q185.55,552.47,198.6,552Z"/>
                    <g>
                      <rect class="f35e4a1d-4c8a-45d9-bffc-dc149b81e5f2" x="208.33" y="371.17" width="60.85" height="15.36"/>
                      <g>
                        <polygon class="ba834134-284e-45bf-bf31-d8819f001723" points="221.71 386.52 235.79 386.52 245.8 371.17 231.72 371.17 221.71 386.52"/>
                        <polygon class="ba834134-284e-45bf-bf31-d8819f001723" points="240.03 386.52 246.59 386.52 256.6 371.17 250.05 371.17 240.03 386.52"/>
                      </g>
                      <polygon class="b4e8239c-ec91-4677-911c-08482e2e5404" points="208.33 371.17 208.33 373.77 267.24 373.77 267.24 386.52 269.17 386.52 269.17 371.17 208.33 371.17"/>
                      <g>
                        <rect class="ba221aa8-8ccf-4f36-a623-f54299e3187d" x="220.78" y="373.77" width="1.61" height="12.75"/>
                        <rect class="ba221aa8-8ccf-4f36-a623-f54299e3187d" x="238.31" y="373.77" width="1.61" height="12.75"/>
                        <rect class="ba221aa8-8ccf-4f36-a623-f54299e3187d" x="255.83" y="373.77" width="1.6" height="12.75"/>
                      </g>
                    </g>
                    <g>
                      <rect class="f35e4a1d-4c8a-45d9-bffc-dc149b81e5f2" x="208.33" y="392.67" width="60.85" height="15.37"/>
                      <g>
                        <polygon class="ba834134-284e-45bf-bf31-d8819f001723" points="221.71 408.04 235.79 408.04 245.8 392.67 231.72 392.67 221.71 408.04"/>
                        <polygon class="ba834134-284e-45bf-bf31-d8819f001723" points="240.03 408.04 246.59 408.04 256.6 392.67 250.05 392.67 240.03 408.04"/>
                      </g>
                      <polygon class="b4e8239c-ec91-4677-911c-08482e2e5404" points="208.33 392.67 208.33 395.28 267.24 395.28 267.24 408.04 269.17 408.04 269.17 392.67 208.33 392.67"/>
                      <g>
                        <rect class="ba221aa8-8ccf-4f36-a623-f54299e3187d" x="220.78" y="395.28" width="1.61" height="12.75"/>
                        <rect class="ba221aa8-8ccf-4f36-a623-f54299e3187d" x="238.31" y="395.28" width="1.61" height="12.75"/>
                        <rect class="ba221aa8-8ccf-4f36-a623-f54299e3187d" x="255.83" y="395.28" width="1.6" height="12.75"/>
                      </g>
                    </g>
                    <g>
                      <rect class="f35e4a1d-4c8a-45d9-bffc-dc149b81e5f2" x="208.33" y="414.18" width="60.85" height="15.36"/>
                      <g>
                        <polygon class="ba834134-284e-45bf-bf31-d8819f001723" points="221.71 429.54 235.79 429.54 245.8 414.18 231.72 414.18 221.71 429.54"/>
                        <polygon class="ba834134-284e-45bf-bf31-d8819f001723" points="240.03 429.54 246.59 429.54 256.6 414.18 250.05 414.18 240.03 429.54"/>
                      </g>
                      <polygon class="b4e8239c-ec91-4677-911c-08482e2e5404" points="208.33 414.18 208.33 416.79 267.24 416.79 267.24 429.54 269.17 429.54 269.17 414.18 208.33 414.18"/>
                      <g>
                        <rect class="ba221aa8-8ccf-4f36-a623-f54299e3187d" x="220.78" y="416.79" width="1.61" height="12.75"/>
                        <rect class="ba221aa8-8ccf-4f36-a623-f54299e3187d" x="238.31" y="416.79" width="1.61" height="12.75"/>
                        <rect class="ba221aa8-8ccf-4f36-a623-f54299e3187d" x="255.83" y="416.79" width="1.6" height="12.75"/>
                      </g>
                    </g>
                    <g>
                      <rect class="f35e4a1d-4c8a-45d9-bffc-dc149b81e5f2" x="208.33" y="435.68" width="60.85" height="15.36"/>
                      <g>
                        <polygon class="ba834134-284e-45bf-bf31-d8819f001723" points="221.71 451.05 235.79 451.05 245.8 435.68 231.72 435.68 221.71 451.05"/>
                        <polygon class="ba834134-284e-45bf-bf31-d8819f001723" points="240.03 451.05 246.59 451.05 256.6 435.68 250.05 435.68 240.03 451.05"/>
                      </g>
                      <polygon class="b4e8239c-ec91-4677-911c-08482e2e5404" points="208.33 435.68 208.33 438.29 267.24 438.29 267.24 451.05 269.17 451.05 269.17 435.68 208.33 435.68"/>
                      <g>
                        <rect class="ba221aa8-8ccf-4f36-a623-f54299e3187d" x="220.78" y="438.29" width="1.61" height="12.75"/>
                        <rect class="ba221aa8-8ccf-4f36-a623-f54299e3187d" x="238.31" y="438.29" width="1.61" height="12.75"/>
                        <rect class="ba221aa8-8ccf-4f36-a623-f54299e3187d" x="255.83" y="438.29" width="1.6" height="12.75"/>
                      </g>
                    </g>
                    <rect class="b142b0af-88e5-4812-a7d3-c218694f5f67" x="180.03" y="325.53" width="95.74" height="7.23"/>
                    <rect class="abbb22a0-3ded-4c5d-a7c1-401bcd532c29" x="180.03" y="329.15" width="95.74" height="3.62"/>
                    <rect class="ba7b8d71-53fe-41ec-a207-444f81f99ea9" x="218.37" y="238.47" width="13.26" height="2.41"/>
                    <rect class="ba7b8d71-53fe-41ec-a207-444f81f99ea9" x="213.99" y="249.01" width="22.27" height="2.41"/>
                    <rect class="ba7b8d71-53fe-41ec-a207-444f81f99ea9" x="213.99" y="261.66" width="22.27" height="2.41"/>
                    <rect class="ba7b8d71-53fe-41ec-a207-444f81f99ea9" x="234.69" y="270.4" width="21.62" height="2.41"/>
                  </g>
                  <path class="e58ad7bf-c9a2-4211-8253-ee0ae5227e77" d="M188.71,398.44c3.06,0,5.54-5.52,5.54-12.33s-2.48-12.34-5.54-12.34h-2v24.67h2Z"/>
                  <path class="b841984e-d182-46d0-8ea5-45f77059b98e" d="M181.44,386.11c0,6.81,2.48,12.33,5.54,12.33s5.55-5.52,5.55-12.33S190,373.77,187,373.77,181.44,379.3,181.44,386.11Z"/>
                  <path class="b568773b-79b8-4cdb-bb34-a5875181fb28" d="M159.37,395.36H187c2.3,0,4.16-4.14,4.16-9.25s-1.86-9.26-4.16-9.26H149.33s-8.84,1.4-10.77,10.65l-.18,143,20.24-2Z"/>
                  <path class="a23a6f20-dbcd-41d0-81e0-f4bf9db9d8f1" d="M160.34,386.29s-8.84,1.41-10.77,10.65l-.16,132.47,9.21-.91.75-133.14H187c2.27,0,4.12-4,4.16-9.07Z"/>
                  <g>
                    <rect class="ba2be505-efb1-4b54-bffe-bb5d6773996a" x="71.95" y="290.28" width="3.13" height="126.19"/>
                    <polygon class="bc42ca87-a1b9-41aa-9b94-2e7fb1c8eb88" points="82.35 414.94 64.67 414.94 63.23 476.92 83.81 476.92 82.35 414.94"/>
                    <polygon class="a882754e-9567-4e08-9205-9eac19a7ab5c" points="82.58 424.66 82.35 414.94 64.67 414.94 64.44 424.66 82.58 424.66"/>
                    <polygon class="a882754e-9567-4e08-9205-9eac19a7ab5c" points="70.7 414.94 64.67 414.94 63.23 476.92 72.15 476.92 70.7 414.94"/>
                    <g>
                      <g>
                        <polygon class="a8ac88dd-c9f3-4d2d-ae0d-c77add2edf38" points="84.29 501.44 63.16 481.01 62.74 481.68 62.74 484.17 84.29 504.99 84.29 501.44"/>
                        <polygon class="a8ac88dd-c9f3-4d2d-ae0d-c77add2edf38" points="84.29 482.79 83.96 482.26 62.74 502.78 62.74 506.33 84.29 485.5 84.29 482.79"/>
                      </g>
                      <g>
                        <polygon class="a8ac88dd-c9f3-4d2d-ae0d-c77add2edf38" points="84.29 526.76 63.16 506.33 62.74 507 62.74 509.49 84.29 530.32 84.29 526.76"/>
                        <polygon class="a8ac88dd-c9f3-4d2d-ae0d-c77add2edf38" points="84.29 508.12 83.96 507.59 62.74 528.1 62.74 531.65 84.29 510.83 84.29 508.12"/>
                      </g>
                      <g>
                        <path class="a8ac88dd-c9f3-4d2d-ae0d-c77add2edf38" d="M84.29,553v-.87L63.16,531.65l-.42.67v2.49L81.46,552.9Z"/>
                        <path class="a8ac88dd-c9f3-4d2d-ae0d-c77add2edf38" d="M67.29,552.59l17-16.44v-2.71l-.33-.53L63.7,552.5Z"/>
                      </g>
                      <path class="a657e4c0-bf7d-45f7-a157-662009602755" d="M73.51,552.73V480.28H71.43v72.4Z"/>
                      <g>
                        <path class="ba221aa8-8ccf-4f36-a623-f54299e3187d" d="M64.67,552.53V476H61.78v76.48Z"/>
                        <path class="ba221aa8-8ccf-4f36-a623-f54299e3187d" d="M85.25,553V476h-2.9v76.95Z"/>
                      </g>
                      <rect class="ba2be505-efb1-4b54-bffe-bb5d6773996a" x="59.85" y="473.55" width="27.33" height="6.74"/>
                    </g>
                    <rect class="ba2be505-efb1-4b54-bffe-bb5d6773996a" x="63.23" y="413.28" width="21.06" height="4.61"/>
                    <path class="e38a0364-5ca9-40de-9fac-7556067a4305" d="M77.82,289.48c0,3-1.93,5.37-4.31,5.37s-4.29-2.4-4.29-5.37,1.92-5.37,4.29-5.37S77.82,286.52,77.82,289.48Z"/>
                    <path class="f501a94b-f0b3-4dcb-95f4-1f511429123c" d="M75.08,292.14c-2.37,0-4.3-2.41-4.3-5.37a6.48,6.48,0,0,1,.2-1.62,5.84,5.84,0,0,0-1.76,4.33c0,3,1.92,5.37,4.29,5.37,1.93,0,3.55-1.57,4.1-3.75A3.73,3.73,0,0,1,75.08,292.14Z"/>
                  </g>
                  <g>
                    <g>
                      <g>
                        <polygon class="ba2be505-efb1-4b54-bffe-bb5d6773996a" points="114.69 525.59 95.8 525.59 97.61 464.22 112.88 464.22 114.69 525.59"/>
                        <polygon class="ffbe0e27-c865-472e-854c-7ecbee83e7ac" points="97.61 525.59 104.12 525.59 103.24 467.59 99.18 467.59 97.61 525.59"/>
                        <polygon class="f7764210-7521-46de-8fbf-318f7c9e55dc" points="106.77 525.59 99.7 525.59 102.03 466.74 104.77 466.74 106.77 525.59"/>
                        <rect class="f7764210-7521-46de-8fbf-318f7c9e55dc" x="97.61" y="464.22" width="15.27" height="4.12"/>
                        <g>
                          <g>
                            <polygon class="fccaf58e-709c-434e-970d-728ef93cc27e" points="109.11 458.1 101.07 458.1 102.43 417.52 107.74 417.52 109.11 458.1"/>
                            <polygon class="fccaf58e-709c-434e-970d-728ef93cc27e" points="107.82 420.14 107.36 406.43 102.81 406.43 102.34 420.14 107.82 420.14"/>
                            <polygon class="e38a0364-5ca9-40de-9fac-7556067a4305" points="106.86 422.04 107.82 420.14 107.36 406.43 106.86 406.43 106.86 422.04"/>
                            <polygon class="bb601c3d-63dc-4ca5-9b17-b6ce0fe58bbf" points="104.36 406.43 102.81 406.43 102.34 420.14 104.36 420.14 104.36 406.43"/>
                            <polygon class="aa4c4d8a-db7b-4bf3-98e7-da5e66fa018d" points="103.08 406.43 102.81 406.43 102.34 420.14 103.08 420.14 103.08 406.43"/>
                            <polygon class="aa4c4d8a-db7b-4bf3-98e7-da5e66fa018d" points="102.71 409.34 107.46 408.69 107.37 406.73 102.8 406.73 102.71 409.34"/>
                            <polygon class="bb601c3d-63dc-4ca5-9b17-b6ce0fe58bbf" points="104.6 417.52 102.43 417.52 101.07 458.1 104.6 458.1 104.6 417.52"/>
                            <polygon class="aa4c4d8a-db7b-4bf3-98e7-da5e66fa018d" points="103.04 417.52 102.43 417.52 101.07 458.1 102.39 458.1 103.04 417.52"/>
                            <polygon class="e38a0364-5ca9-40de-9fac-7556067a4305" points="105.82 417.52 106.56 458.1 109.11 458.1 107.74 417.52 105.82 417.52"/>
                            <rect class="acf43067-4063-4f49-82e9-f191d13713f1" x="99.7" y="456.49" width="10.77" height="6.63"/>
                            <rect class="bb601c3d-63dc-4ca5-9b17-b6ce0fe58bbf" x="99.7" y="456.49" width="3.54" height="6.63"/>
                            <rect class="aa4c4d8a-db7b-4bf3-98e7-da5e66fa018d" x="99.7" y="456.49" width="1.29" height="6.63"/>
                            <g>
                              <rect class="a1f5aaa9-b9fe-49fd-a4aa-70ace8a0c4a4" x="101.22" y="416.47" width="7.73" height="1.41"/>
                              <g>
                                <rect class="a1f5aaa9-b9fe-49fd-a4aa-70ace8a0c4a4" x="101.22" y="415.09" width="0.2" height="1.56"/>
                                <rect class="a1f5aaa9-b9fe-49fd-a4aa-70ace8a0c4a4" x="102.3" y="415.09" width="0.2" height="1.56"/>
                                <rect class="a1f5aaa9-b9fe-49fd-a4aa-70ace8a0c4a4" x="103.37" y="415.09" width="0.2" height="1.56"/>
                                <rect class="a1f5aaa9-b9fe-49fd-a4aa-70ace8a0c4a4" x="104.45" y="415.09" width="0.2" height="1.56"/>
                                <rect class="a1f5aaa9-b9fe-49fd-a4aa-70ace8a0c4a4" x="105.52" y="415.09" width="0.2" height="1.56"/>
                                <rect class="a1f5aaa9-b9fe-49fd-a4aa-70ace8a0c4a4" x="106.6" y="415.09" width="0.2" height="1.56"/>
                                <rect class="a1f5aaa9-b9fe-49fd-a4aa-70ace8a0c4a4" x="107.67" y="415.09" width="0.2" height="1.56"/>
                                <rect class="a1f5aaa9-b9fe-49fd-a4aa-70ace8a0c4a4" x="108.75" y="415.09" width="0.2" height="1.56"/>
                              </g>
                              <rect class="a1f5aaa9-b9fe-49fd-a4aa-70ace8a0c4a4" x="101.22" y="414.94" width="7.73" height="0.33"/>
                            </g>
                          </g>
                          <rect class="fccaf58e-709c-434e-970d-728ef93cc27e" x="102.3" y="405.27" width="5.52" height="2.21"/>
                          <rect class="e38a0364-5ca9-40de-9fac-7556067a4305" x="102.3" y="405.27" width="5.52" height="0.81"/>
                        </g>
                        <path class="a7b0af37-7d49-4881-8de8-17946d0c565e" d="M113.69,464.22a1,1,0,0,1-.89,1.11H97.69a1,1,0,0,1-.89-1.11h0a1,1,0,0,1,.89-1.1H112.8a1,1,0,0,1,.89,1.1Z"/>
                        <rect class="bf4c27d5-ea49-4af5-878c-5854688719e4" x="107.32" y="463.12" width="3.98" height="2.21"/>
                        <path class="f4843210-6601-4ed1-9153-4387192e6b0a" d="M114.69,525.59l-1.68-57c-.87.38-2.32,1.2-2.54,2.44-.29,1.63-1.59,45.79-1.84,54.54Z"/>
                        <polygon class="b1398eb4-092a-4fdb-a39f-3a4ae8ba3663" points="97.31 474.37 113.18 474.37 113.16 473.55 97.33 473.55 97.31 474.37"/>
                        <polygon class="b1398eb4-092a-4fdb-a39f-3a4ae8ba3663" points="96.95 486.72 113.54 486.72 113.52 485.9 96.97 485.9 96.95 486.72"/>
                        <polygon class="b1398eb4-092a-4fdb-a39f-3a4ae8ba3663" points="96.58 499.07 113.91 499.07 113.88 498.26 96.61 498.26 96.58 499.07"/>
                        <polygon class="b1398eb4-092a-4fdb-a39f-3a4ae8ba3663" points="96.22 511.42 114.27 511.42 114.25 510.6 96.25 510.6 96.22 511.42"/>
                        <polygon class="b1398eb4-092a-4fdb-a39f-3a4ae8ba3663" points="95.86 523.78 114.64 523.78 114.61 522.96 95.88 522.96 95.86 523.78"/>
                      </g>
                      <g>
                        <polygon class="ba2be505-efb1-4b54-bffe-bb5d6773996a" points="138.81 525.59 119.91 525.59 121.72 464.22 137 464.22 138.81 525.59"/>
                        <polygon class="ffbe0e27-c865-472e-854c-7ecbee83e7ac" points="121.72 525.59 128.24 525.59 127.35 467.59 123.3 467.59 121.72 525.59"/>
                        <polygon class="f7764210-7521-46de-8fbf-318f7c9e55dc" points="130.89 525.59 123.81 525.59 126.15 466.74 128.88 466.74 130.89 525.59"/>
                        <rect class="f7764210-7521-46de-8fbf-318f7c9e55dc" x="121.73" y="464.22" width="15.27" height="4.12"/>
                        <g>
                          <g>
                            <polygon class="fccaf58e-709c-434e-970d-728ef93cc27e" points="133.22 458.1 125.18 458.1 126.55 417.52 131.85 417.52 133.22 458.1"/>
                            <polygon class="fccaf58e-709c-434e-970d-728ef93cc27e" points="131.94 420.14 131.48 406.43 126.93 406.43 126.47 420.14 131.94 420.14"/>
                            <polygon class="e38a0364-5ca9-40de-9fac-7556067a4305" points="130.97 422.04 131.94 420.14 131.48 406.43 130.97 406.43 130.97 422.04"/>
                            <polygon class="bb601c3d-63dc-4ca5-9b17-b6ce0fe58bbf" points="128.48 406.43 126.93 406.43 126.47 420.14 128.48 420.14 128.48 406.43"/>
                            <polygon class="aa4c4d8a-db7b-4bf3-98e7-da5e66fa018d" points="127.19 406.43 126.93 406.43 126.47 420.14 127.19 420.14 127.19 406.43"/>
                            <polygon class="aa4c4d8a-db7b-4bf3-98e7-da5e66fa018d" points="126.83 409.34 131.57 408.69 131.49 406.73 126.92 406.73 126.83 409.34"/>
                            <polygon class="bb601c3d-63dc-4ca5-9b17-b6ce0fe58bbf" points="128.72 417.52 126.55 417.52 125.18 458.1 128.72 458.1 128.72 417.52"/>
                            <polygon class="aa4c4d8a-db7b-4bf3-98e7-da5e66fa018d" points="127.15 417.52 126.55 417.52 125.18 458.1 126.51 458.1 127.15 417.52"/>
                            <polygon class="e38a0364-5ca9-40de-9fac-7556067a4305" points="129.93 417.52 130.69 458.1 133.22 458.1 131.85 417.52 129.93 417.52"/>
                            <rect class="acf43067-4063-4f49-82e9-f191d13713f1" x="123.81" y="456.49" width="10.77" height="6.63"/>
                            <rect class="bb601c3d-63dc-4ca5-9b17-b6ce0fe58bbf" x="123.81" y="456.49" width="3.54" height="6.63"/>
                            <rect class="aa4c4d8a-db7b-4bf3-98e7-da5e66fa018d" x="123.81" y="456.49" width="1.29" height="6.63"/>
                            <g>
                              <rect class="a1f5aaa9-b9fe-49fd-a4aa-70ace8a0c4a4" x="125.34" y="416.47" width="7.73" height="1.41"/>
                              <g>
                                <rect class="a1f5aaa9-b9fe-49fd-a4aa-70ace8a0c4a4" x="125.34" y="415.09" width="0.19" height="1.56"/>
                                <rect class="a1f5aaa9-b9fe-49fd-a4aa-70ace8a0c4a4" x="126.41" y="415.09" width="0.19" height="1.56"/>
                                <rect class="a1f5aaa9-b9fe-49fd-a4aa-70ace8a0c4a4" x="127.49" y="415.09" width="0.19" height="1.56"/>
                                <rect class="a1f5aaa9-b9fe-49fd-a4aa-70ace8a0c4a4" x="128.56" y="415.09" width="0.2" height="1.56"/>
                                <rect class="a1f5aaa9-b9fe-49fd-a4aa-70ace8a0c4a4" x="129.64" y="415.09" width="0.2" height="1.56"/>
                                <rect class="a1f5aaa9-b9fe-49fd-a4aa-70ace8a0c4a4" x="130.72" y="415.09" width="0.2" height="1.56"/>
                                <rect class="a1f5aaa9-b9fe-49fd-a4aa-70ace8a0c4a4" x="131.79" y="415.09" width="0.19" height="1.56"/>
                                <rect class="a1f5aaa9-b9fe-49fd-a4aa-70ace8a0c4a4" x="132.87" y="415.09" width="0.2" height="1.56"/>
                              </g>
                              <rect class="a1f5aaa9-b9fe-49fd-a4aa-70ace8a0c4a4" x="125.34" y="414.94" width="7.73" height="0.33"/>
                            </g>
                          </g>
                          <rect class="fccaf58e-709c-434e-970d-728ef93cc27e" x="126.41" y="405.27" width="5.52" height="2.21"/>
                          <rect class="e38a0364-5ca9-40de-9fac-7556067a4305" x="126.41" y="405.27" width="5.52" height="0.81"/>
                        </g>
                        <path class="a7b0af37-7d49-4881-8de8-17946d0c565e" d="M137.8,464.22a1,1,0,0,1-.88,1.11H121.81a1,1,0,0,1-.89-1.11h0a1,1,0,0,1,.89-1.1h15.11a1,1,0,0,1,.88,1.1Z"/>
                        <rect class="bf4c27d5-ea49-4af5-878c-5854688719e4" x="131.43" y="463.12" width="3.98" height="2.21"/>
                        <path class="f4843210-6601-4ed1-9153-4387192e6b0a" d="M138.8,525.59l-1.67-57c-.88.38-2.32,1.2-2.54,2.44-.3,1.63-1.59,45.79-1.85,54.54Z"/>
                        <polygon class="b1398eb4-092a-4fdb-a39f-3a4ae8ba3663" points="121.42 474.37 137.3 474.37 137.27 473.55 121.45 473.55 121.42 474.37"/>
                        <polygon class="b1398eb4-092a-4fdb-a39f-3a4ae8ba3663" points="121.06 486.72 137.66 486.72 137.64 485.9 121.08 485.9 121.06 486.72"/>
                        <polygon class="b1398eb4-092a-4fdb-a39f-3a4ae8ba3663" points="120.7 499.07 138.03 499.07 138 498.26 120.72 498.26 120.7 499.07"/>
                        <polygon class="b1398eb4-092a-4fdb-a39f-3a4ae8ba3663" points="120.34 511.42 138.39 511.42 138.36 510.6 120.36 510.6 120.34 511.42"/>
                        <polygon class="b1398eb4-092a-4fdb-a39f-3a4ae8ba3663" points="119.97 523.78 138.75 523.78 138.73 522.96 119.99 522.96 119.97 523.78"/>
                      </g>
                    </g>
                    <rect class="f4f5e12b-dbb7-4406-b6a5-5961907b7b7d" x="80.11" y="526.73" width="96.79" height="9"/>
                    <rect class="ba221aa8-8ccf-4f36-a623-f54299e3187d" x="77.21" y="522.96" width="102.57" height="7.55"/>
                    <rect class="fea1204d-2bad-4b49-8cf5-0278a1581407" x="77.21" y="522.96" width="102.57" height="3.13"/>
                  </g>
                  <g>
                    <path class="b568773b-79b8-4cdb-bb34-a5875181fb28" d="M266.92,547.07c12.79-1.41,25.57-3,38.38-4.09l-3-74.64H257.44l-3.23,80Q260.57,547.76,266.92,547.07Z"/>
                    <path class="ab8b2cbe-5996-49de-ba3a-07b8b4bc96be" d="M305.3,543l-2.06-51-9.15,4.21-2.76,48.19Q298.32,543.62,305.3,543Z"/>
                    <polygon class="f8905974-a921-429e-a6a3-b5e6e7b2058c" points="303.06 487.32 302.29 468.34 257.44 468.34 256.68 487.32 303.06 487.32"/>
                    <path class="b797743d-3068-48f9-831a-b83aa55be487" d="M265.41,547.23l-1.22-77.31-6.78-.86-3.19,79.3Q259.82,547.84,265.41,547.23Z"/>
                    <path class="fe690f7b-d07f-4088-ab15-7877a0863167" d="M305,470.75a2.22,2.22,0,0,1-1.94,2.42H256.47a2.21,2.21,0,0,1-1.92-2.42v-3.31a2.21,2.21,0,0,1,1.92-2.41H303a2.22,2.22,0,0,1,1.94,2.41Z"/>
                    <path class="fe690f7b-d07f-4088-ab15-7877a0863167" d="M305,506.6a1.3,1.3,0,0,1-1.13,1.41H255.67a1.29,1.29,0,0,1-1.12-1.41h0a1.28,1.28,0,0,1,1.12-1.4h48.15a1.29,1.29,0,0,1,1.13,1.4Z"/>
                  </g>
                </g>
                <rect class="ef8334da-1c30-48dd-8346-0a3148404a0f" x="-119.16" y="-6.6" width="761.85" height="535.39"/>
              </g>
            </g>
            <rect class="a4cc2a45-178d-44c4-ba57-485c3f02fe11" x="-120.27" y="-11.95" width="761.85" height="535.39"/>
          </g>
        </g>
      </g>
      <g class="b2c36e16-c4e2-4302-9d9b-057d05cc4b9f">
        <g class="a656526b-7a63-4045-bb67-d4f87ca53b23">
          <g>
            <polyline class="ad25a3c2-8eb5-4190-ab5c-ee729dfc3eb1" points="294.07 -94.19 1334.91 -94.19 1334.91 347.74 294.07 347.74"/>
            <path class="a202c290-22a2-4f50-bee6-b5b7f2c34339" d="M308.09,252.25l34.83.81v9.05l40.76.19,1.69-121.86,9-.62,10.94,2v-1.14h-1.58V139.4h1.28v-3.19h.69v3.5h2.37v-2.88H409v3l2,.62-.19.92h-.5v.83l1.87.2v6.18l6.78-.62V146.8h.41v.93h1.47V137l8-.31v-1.24h.79v-3h-.69v-1.12h2.37v4.52h.6v1.54h5v-2.37h2v1.54h-.68l.1,1.34,10,1.14L448.19,155l6.1.71v1.86l1.08,1.12-1.23,85.95,6.7-.42,4.13.1.4-10,4.41-.41V228.5l18.8-.22V226l14.27-.11v-2.26h1.59V210.47l1-1.08v-6.84h4.28V197.3h1.76v.51h2.17v-8.34l.5.41v1.66l1.18.2v.61h1.48l.1-1,.79-.2v1l2.06.1.3-.93,1.18-.1.29.93,2.37.1-.11-.83,1.09.11v.62h2v-1.23l.5-.21.1-1.64h.89l.2,3.08,2.45.1.1-2.36.6.1.29,2.26,1.77.52.1-2.78h.39l.1,2.88,1.87.31.39-.83v-1.13l1,.1.09,2.17-.38.61.09,4.84,3.25.2.59,4.84.5.11.4.81,1.77-.09.08-8.75.9.1.29,9.06,8.77.4-.87,42.2h1.19v.93l.4.31-.1,1.23-.59.21-.19,9,1.18.3v1.13h-.79l-.1,3.3,6.31-.11c-.3,0,.19,1.24.19,1.24l3.45.1-.5,1.23-.59.31h-.88l.4,6.08.79.51v6.69h1.47l.64-79.24,9.84-1.76v-4.73l11.32-1.76V192h3l.4.51,26.86,1.13v5.24l10.83.83-.2-9.27,3.73-1.23,1.57-16.78,33,.39,2.17,17.71,6.11.1-.11-2,1.09.1L676,174.57l4.43-.61-.22-28.1,13.1.09,8.36.94,0-40.36,6-1.75H711v-1.64h.58v1.45l9-.32v-1.85h.59v1.64l5.32-.31v1h1.08v-.93h6.7l8.17,2.88,11.22-.83,2.85,1.44-1,85,8,1.13.29-12.46,4.23.11v-10.4l11-1.24-.31-13.9,1.38-.82,5.61-.62V140.46l1.08-.62s5-.83,4.72-.83S806,127.28,806,127.28h2.95l14.67,11.51.7.21.2.62,4.62.82-.09,14.1,7.09.92L836,178.62l14.16.3.4-3.91h.69l.19,2.57h.7l-.1,1.34,25.39.61.1,3.7,7.89-.82.28-7.11,5.61-.2,2.16-5.77.2-2.68H895l.5,2.16h2.16v-.51h2.47v.61l13.38-1.65v-.82h-.68v-1.75H917v2.67l3.45.11v-1.14l1.47-1.54,1.28.1v1.54l-.79.11.4,1.13.79.1.3,2.16-.1.82.7-.09v2h.58v1.44h6.1l-.46,43.64h-4l-.09,14,2.35.22,0,17,2.07.09V238.79l1.18-.21.1-3.29,10.34.61v-1H953.1v.92h4.53l.06-54.75.68-.52,1.29-.1.1-.52,1-.2.29-.42,3.05-.1.1-.62,2.17-.11v-6.06l3.43-1.75,21.18.7v-.71h2.35v.61l9.83-.11.31,8.45,8.86.1L1012,280.23l1.59-.11,0-68.54.7-.11.09-1.54,5.8.1v1.34h1.67v-.83h5.7v.72h1l-.22-35.72,8.07-3.5-.1-6,7.28-3.6,22.05.3v2.77l1.47-.09,1.86-.73v-.92h.79l.49.51,5.12-.11v-1h-.49l-1.13-1.19.88-.92,1.23-1.29h1.48v-3.19h1.07V160l12.4-.22v-.92h1.09v1.34l1.67.72.1,1.12-1.28,2.07.2,4.62,1,.62h2.46l-.11.41.9.11v6.79H1102v-.92l.89-.93,1.38,1,.22,34.17,1.48.41v7.72l4.23.31-.09,8.13,1.87.3.2,4.23,1.08.41.1,15.74.7.11-.07,38.08.38-.11.31-1h3.24v.82c0,.41.3.41.3.41l.1,1,6.21-.11-.31-5.66s-1.08-1.13-1.67-1.23l-.19-.72h2.35v-.72l2.26.1v.31l.8.41.09.31h2l.2-.52a2.67,2.67,0,0,1,1.08-.62c.7-.2,1.08.83,1.08.83h2.27l-.3-6.28,1.19-.21-.12-24.19,1.87-1.74h6.3l.15-60.62,2.07-.11v-5.55l1.37.1.1,1.13.88-.2-.1-1,9.35.09,4-12.14.19-2.06.4-.41.48-3.3.59,3.3.6.61.3,1.86,3.55,12.65,22.24.51,3,.1,2.85,2.37.21,12.65.88.21.4,1,.89.11-.07,44.77h6.89l4.43,3.09-.09,6.48,2.06.31-.1,6.28,3.66.1v18.73h1.76V275l10.43-.72v-4.42l.89-.93H1229l.2-9.57,3.73-2.58h1.88v-.92h-1v-7.93l4.93-2.78,22,.3v8.33l-1.09,1,.1,1.65h6l.1,4-.58.41.38.71,7,5.87,4,.1v9.16h4.73v22.64h8.08l0-60.61h8v-1h1.09v1.13h1.37v-.93h.89v.93h2.46v-1.75h.59v1.65l9.25.4v-1.33l.79-.31.3.31.19.82h1.38v-2.06h2.17v1.86h1.47v-1.13h2.36v1l.4-.1,1.38-1.24v1.75l12.73.26.06,91.13-1040.83.48"/>
            <polyline class="a4afc7e4-559d-495d-a49f-ad055a1c355f" points="297.77 327.44 1344.57 329.14 1344.57 377.23 287.09 377.23"/>
            <polyline class="b618ba84-a614-4b10-8d6f-7968539df8b3" points="297.77 361.84 1346.18 366.27 1352.01 534.75 297.77 534.75"/>
            <polyline class="b1656f81-d0f5-41e6-b620-5f250f784126" points="300.47 350.43 1355.45 354.35 1355.45 366.49 300.14 362.01"/>
            <polygon class="f10ebfc8-1fb7-48e3-b0e2-7367cf62e3bb" points="507.88 363.28 507.88 351.06 470.18 351.06 470.18 363.01 507.88 363.28"/>
            <polygon class="f10ebfc8-1fb7-48e3-b0e2-7367cf62e3bb" points="430.64 363.28 430.64 351.06 392.94 351.06 392.94 363.01 430.64 363.28"/>
            <polygon class="f10ebfc8-1fb7-48e3-b0e2-7367cf62e3bb" points="353.41 363.28 353.41 351.06 315.71 351.06 315.71 363.01 353.41 363.28"/>
            <line class="be02cbf4-81c5-40e0-a1c8-e76b6c7d949f" x1="1339.11" y1="344.32" x2="305.24" y2="340"/>
            <polyline class="b1656f81-d0f5-41e6-b620-5f250f784126" points="306.08 326.66 1349.48 328.18 1349.48 332.87 305.76 331.14"/>
            <g>
              <polygon class="f10ebfc8-1fb7-48e3-b0e2-7367cf62e3bb" points="374.65 331.15 374.65 326.93 336.95 326.89 336.95 331.08 374.65 331.15"/>
              <polygon class="f10ebfc8-1fb7-48e3-b0e2-7367cf62e3bb" points="457.25 331.23 457.25 327.04 419.55 326.99 419.55 331.21 457.25 331.23"/>
              <polygon class="f10ebfc8-1fb7-48e3-b0e2-7367cf62e3bb" points="544.13 331.37 544.13 327.14 506.43 327.1 506.43 331.28 544.13 331.37"/>
            </g>
            <g>
              <path class="a03c66b4-d379-4e16-9977-4f28117bebc8" d="M515.53,72.13s.61-4.21,8.35-7.09,14.25-4.44,21-1.11,5.29,10.86,3.87,11.75c-2.77,1.72-8.73,4-24.64,1.77C514.51,76.12,515.53,72.13,515.53,72.13Z"/>
              <path class="b809f68a-7f6b-4e8c-a2b2-203ef0617758" d="M482.78,65.56s1.82-8.18,16-12.54,23.33-6.43,31.48,1.78,4.5,21.4-1.06,22.88-28.86,2-43.06-3.78A7,7,0,0,1,482.78,65.56Z"/>
            </g>
            <g>
              <polyline class="a29df9fa-6001-4283-b7af-bfb08e0b92df" points="287.82 413.85 428.05 413.85 436.33 411.59 301.01 411.41"/>
              <polygon class="a29df9fa-6001-4283-b7af-bfb08e0b92df" points="493.13 413.85 633.37 413.85 641.64 411.59 506.33 411.41 493.13 413.85"/>
            </g>
            <g>
              <g class="f49e781b-9fd1-40a9-8124-76c34ec5bd07">
                <g class="ac52611d-dc94-4fd8-b7d3-77358a3642de">
                  <polygon class="be42e4e8-2bf0-450a-8366-a901727aa39c" points="524.8 366.74 524.98 366.8 525.19 317.23 524.79 317.1 524.8 366.74"/>
                </g>
              </g>
              <path class="a20b27c9-de1b-454d-94ff-95a0fc6f3463" d="M535.39,365c0,2.1-3.9,2.93-8.51,2.93s-8.17-.83-8.17-2.93,3.73-3.81,8.34-3.81S535.39,362.9,535.39,365Z"/>
              <g>
                <path class="a20b27c9-de1b-454d-94ff-95a0fc6f3463" d="M528.12,227.88a15.09,15.09,0,0,0,.2-2.13,3.83,3.83,0,0,0-.55-2l-.3-.39a3.51,3.51,0,0,0,.39-4.22,3,3,0,0,0,.73-1.81,3.66,3.66,0,0,0-.73-1.75,4,4,0,0,1,.67-1,4.11,4.11,0,0,1,1.25-.88,5.57,5.57,0,0,1-1.43-1.65,4.57,4.57,0,0,1-.58-2c0-.39,0-.71,0-.71a1.24,1.24,0,0,0,.55-.81,1.73,1.73,0,0,0-.22-1s1.13-.68,1.25-1.2a1.47,1.47,0,0,0-.49-1.49,5.47,5.47,0,0,0-3.85,0,1.47,1.47,0,0,0-.49,1.49c.12.52,1.24,1.2,1.24,1.2a1.76,1.76,0,0,0-.21,1,1.24,1.24,0,0,0,.55.81s0,.32,0,.71a4.57,4.57,0,0,1-.58,2,5.73,5.73,0,0,1-1.43,1.65,3.15,3.15,0,0,1,1.34.78,2.4,2.4,0,0,1,.58,1.07,3.66,3.66,0,0,0-.73,1.75,3,3,0,0,0,.73,1.81,3.51,3.51,0,0,0,.39,4.22l-.3.39a3.83,3.83,0,0,0-.55,2,12.61,12.61,0,0,0,.2,2.13c-.69.2-1.15.57-1.15,1s.48.82,1.21,1v5.34h-.53v2.29h.57V319H528V237.52h.58v-2.29h-.53v-5.34c.72-.2,1.21-.58,1.21-1S528.81,228.08,528.12,227.88Z"/>
                <path class="a20b27c9-de1b-454d-94ff-95a0fc6f3463" d="M513.1,226.54a.1.1,0,0,1-.1,0,2.8,2.8,0,0,0-2.86-.09.12.12,0,0,1-.17,0,.15.15,0,0,1,0-.19,2.36,2.36,0,0,1,1.56-.43h0a2.3,2.3,0,0,1,1.67.53.15.15,0,0,1,0,.19Z"/>
                <g>
                  <path class="a20b27c9-de1b-454d-94ff-95a0fc6f3463" d="M523.45,216.39a1.19,1.19,0,0,0-.71.8,1.08,1.08,0,0,0,.13.95.22.22,0,0,0,.33.06.28.28,0,0,0,.06-.37.56.56,0,0,1-.06-.48.72.72,0,0,1,.41-.47.94.94,0,0,1,1.07.47,2.11,2.11,0,0,1,.18,1.43,1.54,1.54,0,0,1-.36.72,1.48,1.48,0,0,1-1.39.52,2.81,2.81,0,0,1-2.37-3.1,4.94,4.94,0,0,1,.23-1.17,5.6,5.6,0,0,0,.22-.94,3.32,3.32,0,0,0,0-1.4,6.58,6.58,0,0,0,2.91.67l.51,0a.32.32,0,0,0,.28-.35.3.3,0,0,0-.32-.3,5.18,5.18,0,0,1-5.1-2.51,14.8,14.8,0,0,1-.64-1.79A14.2,14.2,0,0,0,518,207c-1-1.87-3.27-2.57-5.75-1.79a.34.34,0,0,0-.21.4.31.31,0,0,0,.38.22c1.76-.55,4-.45,5,1.5a13.5,13.5,0,0,1,.74,2,14.21,14.21,0,0,0,.68,1.89,4.37,4.37,0,0,0,.68,1,1.14,1.14,0,0,0-.87.5,1.1,1.1,0,0,0,.11,1.39.23.23,0,0,0,.34,0,.27.27,0,0,0,0-.37c-.22-.2-.09-.58,0-.68a.87.87,0,0,1,1.12-.17c.47.35.61.91.46,1.87a7.23,7.23,0,0,1-.2.87,5,5,0,0,0-.26,1.3,3.32,3.32,0,0,0,2.79,3.64l.32,0a2,2,0,0,0,1.49-.7,2.12,2.12,0,0,0,.49-1,2.59,2.59,0,0,0-.25-1.81A1.42,1.42,0,0,0,523.45,216.39Z"/>
                  <path class="a20b27c9-de1b-454d-94ff-95a0fc6f3463" d="M541.49,205.19c-2.48-.78-4.74-.08-5.75,1.79a13.16,13.16,0,0,0-.78,2.11,14.8,14.8,0,0,1-.64,1.79,5.18,5.18,0,0,1-5.1,2.51.3.3,0,0,0-.32.3.3.3,0,0,0,.28.34,4.18,4.18,0,0,0,.51,0,6.71,6.71,0,0,0,2.91-.66,3.5,3.5,0,0,0,0,1.4,6.8,6.8,0,0,0,.23.94,4.94,4.94,0,0,1,.23,1.17,2.82,2.82,0,0,1-2.37,3.1,1.48,1.48,0,0,1-1.39-.52,1.54,1.54,0,0,1-.36-.72,2,2,0,0,1,.18-1.43,1,1,0,0,1,1.07-.48.71.71,0,0,1,.4.47.54.54,0,0,1,0,.49.27.27,0,0,0,0,.36.23.23,0,0,0,.34,0,1.12,1.12,0,0,0,.13-1,1.23,1.23,0,0,0-.71-.81,1.44,1.44,0,0,0-1.64.69,2.58,2.58,0,0,0-.25,1.81,2.17,2.17,0,0,0,.49,1,2,2,0,0,0,1.49.7l.31,0a3.31,3.31,0,0,0,2.8-3.63,5.45,5.45,0,0,0-.26-1.3c-.08-.3-.16-.58-.21-.87-.14-1,0-1.52.47-1.87a.87.87,0,0,1,1.12.16c.07.11.21.49,0,.69a.26.26,0,0,0,0,.36.23.23,0,0,0,.34,0,1.1,1.1,0,0,0,.11-1.39,1.15,1.15,0,0,0-.87-.5,4.22,4.22,0,0,0,.68-1,13.91,13.91,0,0,0,.69-1.88,12.53,12.53,0,0,1,.73-2c1.05-1.95,3.29-2.05,5.05-1.5a.29.29,0,0,0,.37-.22A.32.32,0,0,0,541.49,205.19Z"/>
                </g>
                <g>
                  <path class="a20b27c9-de1b-454d-94ff-95a0fc6f3463" d="M512.74,206.2a6.2,6.2,0,0,1-1.19,2.92,6.2,6.2,0,0,1-1.19-2.92,1.5,1.5,0,1,1,2.38,0"/>
                  <ellipse class="b777409b-2caa-48af-a3e2-c669736409db" cx="511.59" cy="203.29" rx="0.46" ry="0.49"/>
                  <path class="e7e25963-0956-4561-8b87-c3056260b2b1" d="M511.4,214a8.38,8.38,0,0,1,2.72.26,5.83,5.83,0,0,1,1.53.64l-.11,6.54s.14,1.2.11,1.33-2.8,4-2.8,4-1.31,0-1.76,0a2.14,2.14,0,0,1-1.4-.92c-.32-.47-2.09-3.39-2.09-3.39s-.06-7.75-.05-7.84,3.85-.64,3.85-.64"/>
                  <path class="a20b27c9-de1b-454d-94ff-95a0fc6f3463" d="M514.62,213.13a5.5,5.5,0,0,0-.47-2.45,3.22,3.22,0,0,0-2.24-2.09c-.94-.23-2,.32-2.74,2.14s-.45,2.51-.45,2.51Z"/>
                  <path class="a20b27c9-de1b-454d-94ff-95a0fc6f3463" d="M511.57,212.11a11.21,11.21,0,0,0-5.26.95,4.93,4.93,0,0,0,.36,1.18,3,3,0,0,0,.56.73l.09,0c0,1.21,0,2.36,0,3.48,0,1.44,0,2.81.05,4.13a.3.3,0,0,0,.1.2,30.74,30.74,0,0,0,2.26,3.55l.27.4a2.12,2.12,0,0,0,1.6,1.2,1.6,1.6,0,0,0,1-.4.25.25,0,0,0,.1-.08l0,0a1.84,1.84,0,0,0,.38-.5,41,41,0,0,0,2.72-3.89.23.23,0,0,0,.07-.18c-.08-2.94,0-5.51.09-7.63l.08,0a8.32,8.32,0,0,0,.68-1.21,4.18,4.18,0,0,0,.21-1A17.78,17.78,0,0,0,511.57,212.11Zm-1.69,6.19c0-1.31,0-2.67.08-3.72a19.06,19.06,0,0,1,2-.06,17.81,17.81,0,0,1,2,.2c-.16,2.3-.22,5.38-.15,7.61a18.31,18.31,0,0,0-4-.2C509.85,221.06,509.86,219.66,509.88,218.3Zm-2.07.13c0-1.14,0-2.33,0-3.57.45-.08,1.13-.18,1.92-.26,0,1.05-.06,2.39-.08,3.7s0,2.77-.08,3.84a15.81,15.81,0,0,0-1.7.24C507.8,221.12,507.81,219.81,507.81,218.43Zm.14,4.19c.54-.1,1.09-.17,1.65-.22.17.6,1.08,2.76,1.46,3.64a2.69,2.69,0,0,0-.83.11l-.1-.14C509.49,225.07,508.19,223.18,508,222.62Zm3.56,3.42h-.18c-.39-.88-1.27-3-1.48-3.65a18.19,18.19,0,0,1,3.94.19c-.27.68-1.24,2.63-1.68,3.48C511.91,226,511.71,226,511.51,226Zm1.45.21a1.8,1.8,0,0,0-.59-.16c.44-.86,1.42-2.83,1.66-3.46.43.07.86.16,1.3.26C515,223.47,513.84,225.07,513,226.25Zm2.54-11.14c-.14,2.09-.18,4.63-.1,7.53-.45-.11-.89-.2-1.34-.27-.06-2.21,0-5.3.15-7.6a11.63,11.63,0,0,1,1.3.29A.43.43,0,0,0,515.5,215.11Z"/>
                  <g>
                    <g class="b3f204cf-900a-4267-bb10-e201f96a62d9">
                      <g class="ea230c50-1437-4988-9e6c-32acffebdb8b">
                        <path class="be42e4e8-2bf0-450a-8366-a901727aa39c" d="M511.92,209a3,3,0,0,1,1.58,1.27,6.28,6.28,0,0,1,.69,2.05l-.81-.14a5,5,0,0,0-.55-2,6.3,6.3,0,0,0-.91-1.13"/>
                      </g>
                    </g>
                    <g class="b3f204cf-900a-4267-bb10-e201f96a62d9">
                      <g class="b1af5715-9aee-4924-9cea-30517ac90059">
                        <path class="be42e4e8-2bf0-450a-8366-a901727aa39c" d="M516.63,213.11a4.07,4.07,0,0,1-.28.95,6.56,6.56,0,0,1-.42.81l-1.32-.28c-.31-.07-.57-.1-.57-.1a4.6,4.6,0,0,0,1.36-.56,2.74,2.74,0,0,0,.74-1Z"/>
                      </g>
                    </g>
                    <g class="b3f204cf-900a-4267-bb10-e201f96a62d9">
                      <g class="b78005a0-61c7-4951-a27c-c52db93de9e9">
                        <path class="be42e4e8-2bf0-450a-8366-a901727aa39c" d="M511.63,204.17a3,3,0,0,1,.79,1.79,7.53,7.53,0,0,1-.65,2.4,13.71,13.71,0,0,0,.31-2.2,7.26,7.26,0,0,0-.45-2"/>
                      </g>
                    </g>
                  </g>
                </g>
              </g>
              <path class="a20b27c9-de1b-454d-94ff-95a0fc6f3463" d="M530.77,361.6c0,2.82-1.74,5.1-3.89,5.1h0c-2.15,0-3.89-2.28-3.89-5.1V310.77c0-2.82,1.74-5.1,3.89-5.1h0c2.15,0,3.89,2.28,3.89,5.1Z"/>
            </g>
            <polyline class="ef8334da-1c30-48dd-8346-0a3148404a0f" points="314.32 -52.23 1328.22 -52.23 1328.22 518.09 314.32 518.09"/>
            <polyline class="ef8334da-1c30-48dd-8346-0a3148404a0f" points="314.32 -52.23 1328.22 -52.23 1328.22 518.09 314.32 518.09"/>
            <rect class="ef8334da-1c30-48dd-8346-0a3148404a0f" x="305.77" y="-47.76" width="1013.9" height="570.32"/>
            <g>
              <path class="e83e9067-e8f0-4dcc-9b50-1c2645e716c9" d="M615.39,400.75c-73.17,0-132.48,1.12-132.48,2.5s59.31,2.5,132.48,2.5,132.49-1.12,132.49-2.5S688.56,400.75,615.39,400.75Z"/>
              <g>
                <g>
                  <g>
                    <path class="faaeb2d2-1350-4ec3-850e-621d630df170" d="M528.42,353c-9.89,0-20.84,4-25.27,14-1.6,3.61-1.78,6.13-1.72,15.13H488.62s1.12,5.25,3.95,5.66l19.05,1.82,44.44-2.09s-.36-14.9-3.23-20.69C547.72,356.5,536.92,353,528.42,353Z"/>
                    <g>
                      <path class="bebbbcc2-2c19-4c51-9c9d-a6fb2c40973b" d="M527.89,361a21.34,21.34,0,1,0,21.34,21.34A21.34,21.34,0,0,0,527.89,361Z"/>
                      <path class="eabc72de-a006-42dc-b844-540b0d939b4f" d="M527.89,368.22A14.09,14.09,0,1,0,542,382.31,14.09,14.09,0,0,0,527.89,368.22Z"/>
                      <path class="faaeb2d2-1350-4ec3-850e-621d630df170" d="M527.89,377.67a4.64,4.64,0,1,0,4.64,4.64A4.65,4.65,0,0,0,527.89,377.67Z"/>
                      <g>
                        <path class="faaeb2d2-1350-4ec3-850e-621d630df170" d="M527.93,388c-1.56,0-3.46,6-3.16,6.06a11.33,11.33,0,0,0,3.16.44A11.64,11.64,0,0,0,531,394C531.23,394,529.54,388,527.93,388Z"/>
                        <path class="faaeb2d2-1350-4ec3-850e-621d630df170" d="M527.85,370.16a11.25,11.25,0,0,0-3.09.42c-.21.06,1.48,6.08,3.09,6.08s3.46-6,3.16-6.06A11.38,11.38,0,0,0,527.85,370.16Z"/>
                      </g>
                      <g>
                        <path class="faaeb2d2-1350-4ec3-850e-621d630df170" d="M516.24,385.66a11.2,11.2,0,0,0,1.25,2.93,11.69,11.69,0,0,0,2,2.44c.16.15,4.45-4.4,3.62-5.78S516.16,385.36,516.24,385.66Z"/>
                        <path class="faaeb2d2-1350-4ec3-850e-621d630df170" d="M536.34,373.59c-.17-.15-4.45,4.4-3.62,5.78s6.9-.11,6.82-.41a11.2,11.2,0,0,0-1.25-2.93A11.43,11.43,0,0,0,536.34,373.59Z"/>
                      </g>
                      <g>
                        <path class="faaeb2d2-1350-4ec3-850e-621d630df170" d="M532.83,385.05c-.76,1.36,3.52,5.94,3.74,5.72a11.37,11.37,0,0,0,3.07-5.44C539.7,385.12,533.63,383.64,532.83,385.05Z"/>
                        <path class="faaeb2d2-1350-4ec3-850e-621d630df170" d="M519.21,373.85a11.59,11.59,0,0,0-1.93,2.53,11.38,11.38,0,0,0-1.15,2.91c0,.21,6,1.69,6.82.28S519.43,373.63,519.21,373.85Z"/>
                      </g>
                    </g>
                  </g>
                  <path class="a8bdeede-5202-4038-af69-91f5bef6e896" d="M741,364a3.78,3.78,0,0,0-1.78-3.41l-2.89-2.14c-.34-6.31,0-15.3-2.14-24s-8.2-24.19-8.2-24.19a2.29,2.29,0,0,0,.82-2.25c-.22-.82-8.78-2.07-10.16-2.29a136.6,136.6,0,0,0-14.32-1.16c-2.44-.12-4.89-.23-7.33-.32H630c-38.6,0-46,3.12-51,6.36-8.15,5.35-28.21,19.67-28.21,19.67-4.9,2.43-13.39,3.31-13.4,3.31A346,346,0,0,0,497,339.84c-6.19,1.41-10.33,3.43-12.6,9.49-1.58,4.22-2.65,8.26-4.16,12.62,0,0-.62,1.25-.62,5.41,0,0,2.8,18.53,6.22,18.53l15.21.08s.45-11.77,2.14-16.19c3.7-9.64,13.43-15.82,24-15.82,10.25,0,19.82,5.63,23.58,15,1.61,4,2.68,10.43,3.59,16.93l.08.51a1.75,1.75,0,0,0,1.81,1.43H658.38c1.51,0,1.46-1.22,1.43-1.81-.47-8.69,1.15-14.88,2.34-17.89,3.51-8.86,12.72-14.12,22.66-14.12,11.1,0,22.05,7,24.59,17.1.66,2.63,2.37,10.81,2.37,10.81.06.83.34,1.3.85,1.52a3,3,0,0,0,1.42.11l18.8-2.73c6.12-.72,8.13-4.61,8.13-14.16C741,366.61,740.94,364.65,741,364Z"/>
                  <path class="bd82af8d-c9bd-4940-9e57-417b736c73f1" d="M479.66,367.36s.26,1.7.71,4.08h22.36a16,16,0,0,1,.5-1.66,23.74,23.74,0,0,1,5.2-8.06l-28.22.41A17.15,17.15,0,0,0,479.66,367.36Z"/>
                  <path class="bd82af8d-c9bd-4940-9e57-417b736c73f1" d="M547.41,331.57a60.62,60.62,0,0,1-10,2A346,346,0,0,0,497,339.84l-1.23.3a5.28,5.28,0,0,0,3.74.73c16.28-3.64,51.33-6.24,51.33-6.24A7.58,7.58,0,0,0,547.41,331.57Z"/>
                  <path class="ef8334da-1c30-48dd-8346-0a3148404a0f" d="M508.43,361.72l37.2-.53a26.84,26.84,0,0,0-37.2.53Z"/>
                </g>
                <path class="b75636ce-ba4d-448d-a6fe-94a8a4a06c7d" d="M482.41,359.69l9.43-.79c3.29-2.25,6.81-14.83,6.81-14.83L492,345.14C486.94,346,484.63,353,482.41,359.69Z"/>
                <path class="a559f7aa-3295-4025-bfb7-e1c79faa6794" d="M486.48,375.76c-.47,0-.87.44-1.13,1.08a5,5,0,0,0-.43,2.61c.14,1.85,1,3.29,2,3.22.48,0,.88-.44,1.14-1.07a5.2,5.2,0,0,0,.43-2.62C488.31,377.13,487.43,375.69,486.48,375.76Z"/>
              </g>
            </g>
          </g>
        </g>
      </g>
    </g>
  </g>
</svg>
