<svg id="b85e2053-844c-45ee-944b-9bf8d9c1655b" data-name="Layer 1" xmlns="http://www.w3.org/2000/svg" xmlns:xlink="http://www.w3.org/1999/xlink" width="462.9" height="482.5" viewBox="0 0 462.9 482.5">
  <defs>
    <style>
      .ec100461-7c7a-4ac8-be76-0e0876d28002 {
        fill: none;
      }

      .e42658e8-d7e1-49ae-aaf0-320bb76fc227 {
        clip-path: url(#a5834c13-0075-4d27-8435-c4b99d7d3f1b);
      }

      .acdb3f53-b4f5-41f3-bc13-17f4548d31b6 {
        fill: #31d0e5;
      }

      .a7f3b1d9-61d8-4ad7-862d-d3513a7b43c6 {
        fill: #6b9e13;
      }

      .e73f93c6-2463-43d8-9876-f39076f4198a {
        fill: lime;
      }
    </style>
    <clipPath id="a5834c13-0075-4d27-8435-c4b99d7d3f1b">
      <ellipse class="ec100461-7c7a-4ac8-be76-0e0876d28002" cx="-282.28" cy="237.25" rx="199.5" ry="200"/>
    </clipPath>
  </defs>
  <g class="e42658e8-d7e1-49ae-aaf0-320bb76fc227">
    <rect class="acdb3f53-b4f5-41f3-bc13-17f4548d31b6" x="-629" y="21.87" width="656.9" height="303.36"/>
    <path class="a7f3b1d9-61d8-4ad7-862d-d3513a7b43c6" d="M-585.82,330.85c-1.77,1.85,610.78,1.8,610.78,1.8S10.14,288.36-36.12,309.9c0,0-21.11-29.32-69.16,3,0,0-41.74-21.23-66.53,1.07,0,0-5.27-9.5-13-7,0,0-19.53-11.15-29.45,5.37,0,0-19.83-8.26-26.34,4.55,0,0-45.92-12.93-85.87,2.76,0,0-13.51-16.94-26.32.87,0,0-27.81-13.09-47.17,2.18,0,0-10.27-9.39-20.3.86,0,0-13-13.58-35.12-.16,0,0-14.63-17.19-39.47,1.21,0,0-13.5-20.44-40.8,1.23C-535.67,325.82-564.81,308.91-585.82,330.85Z"/>
  </g>
  <path class="e73f93c6-2463-43d8-9876-f39076f4198a" d="M391.74,81A226.68,226.68,0,0,0,71.17,401.54,226.68,226.68,0,0,0,391.74,81Zm-160.29,372c-116.9,0-211.67-94.77-211.67-211.68S114.55,29.58,231.45,29.58s211.68,94.77,211.68,211.67S348.36,452.93,231.45,452.93Z"/>
</svg>
