<svg xmlns="http://www.w3.org/2000/svg" xmlns:xlink="http://www.w3.org/1999/xlink" width="462.9" height="482.5" viewBox="0 0 462.9 482.5">
  <defs>
    <style>
      .e8acd763-f2c7-487c-a83f-57909c01c10e {
        fill: none;
      }

      .ae6be7e8-6ab4-453d-bb4e-8411190f1504 {
        isolation: isolate;
      }

      .f729d69d-54b8-4eca-b242-42e74f52554b {
        opacity: 0.5;
      }

      .fce92dcf-685b-4b78-a9b3-e3c8b91e2954 {
        fill: url(#bd294077-8c8a-4b1b-9f1a-6a14dd3dc495);
      }

      .ae8e96b7-b9e6-4dfd-a69a-4a26e277edf1 {
        fill: #31d0e5;
        stroke-width: 6px;
        stroke: url(#f331b600-cc46-453f-804a-f58de19cea09);
      }

      .a2c04547-d278-480c-99ad-60c69972d3ea, .a7745674-fb85-4769-a1ff-1b12b69cc46a, .ae8e96b7-b9e6-4dfd-a69a-4a26e277edf1 {
        stroke-miterlimit: 10;
      }

      .a47a8e70-bae5-4759-8df6-46ea99f4a434 {
        clip-path: url(#f4471c2c-39b6-4118-9501-c188a9b5cdad);
      }

      .a7745674-fb85-4769-a1ff-1b12b69cc46a {
        fill: #41a022;
        stroke: #38841c;
        stroke-width: 0.5px;
      }

      .f2e416ec-d390-49b2-a7e0-9412f0d43e47 {
        fill: #204910;
        opacity: 0.32;
      }

      .b1454498-5fd9-4d48-814b-f752ad0b68f5 {
        fill: #8fc12f;
      }

      .a144f42d-a827-434e-92eb-02895bf74579, .b1454498-5fd9-4d48-814b-f752ad0b68f5 {
        opacity: 0.51;
      }

      .b8e1d24b-91d9-4f82-852d-3a8d5b19fff2 {
        fill: #353535;
      }

      .a2c04547-d278-480c-99ad-60c69972d3ea {
        fill: #48bc28;
        stroke: #45a525;
      }

      .bf3542eb-5b21-414b-b987-4d6c81b0a7b5, .e1697460-7ca6-4456-8558-d179f964a327 {
        fill: #b0e573;
      }

      .bf3542eb-5b21-414b-b987-4d6c81b0a7b5 {
        mix-blend-mode: screen;
        opacity: 0.69;
      }

      .a144f42d-a827-434e-92eb-02895bf74579 {
        fill: #b6f261;
      }
    </style>
    <linearGradient id="bd294077-8c8a-4b1b-9f1a-6a14dd3dc495" x1="52.73" y1="118.79" x2="402" y2="358.11" gradientUnits="userSpaceOnUse">
      <stop offset="0" stop-color="#9b81cf"/>
      <stop offset="1" stop-color="#3b139b"/>
    </linearGradient>
    <linearGradient id="f331b600-cc46-453f-804a-f58de19cea09" x1="25.67" y1="241.25" x2="437.24" y2="241.25" gradientUnits="userSpaceOnUse">
      <stop offset="0" stop-color="#4c1da9"/>
      <stop offset="1" stop-color="#997ece"/>
    </linearGradient>
    <clipPath id="f4471c2c-39b6-4118-9501-c188a9b5cdad">
      <ellipse class="e8acd763-f2c7-487c-a83f-57909c01c10e" cx="230.39" cy="247.25" rx="204.16" ry="205.54"/>
    </clipPath>
  </defs>
  <g class="ae6be7e8-6ab4-453d-bb4e-8411190f1504">
    <g id="bb927bd1-2752-4a1b-8c39-3d4496d1a969" data-name="Layer 1">
      <g>
        <path class="f729d69d-54b8-4eca-b242-42e74f52554b" d="M444.68,252.5a208.28,208.28,0,0,0-25.42-100,211.66,211.66,0,0,0-187.81-114c-116.9,0-211.67,94.78-211.67,211.68s94.77,211.68,211.67,211.68c3,0,5.93-.08,8.87-.2C353.63,459.07,444.68,366.42,444.68,252.5Z"/>
        <g>
          <g>
            <circle class="fce92dcf-685b-4b78-a9b3-e3c8b91e2954" cx="231.45" cy="241.25" r="211.68"/>
            <circle class="ae8e96b7-b9e6-4dfd-a69a-4a26e277edf1" cx="231.45" cy="241.25" r="202.78"/>
          </g>
          <g class="a47a8e70-bae5-4759-8df6-46ea99f4a434">
            <g>
              <g>
                <g>
                  <path class="a7745674-fb85-4769-a1ff-1b12b69cc46a" d="M178.71,194.74s-22.41,5.73-28.93,20.53l2.13,6.43s4.43-15.23,25.89-25.27Z"/>
                  <path class="f2e416ec-d390-49b2-a7e0-9412f0d43e47" d="M151.91,221.7s4-15.35,25.89-25.27l.41-.76s-23.74,9.42-26.7,24.81Z"/>
                  <path class="b1454498-5fd9-4d48-814b-f752ad0b68f5" d="M149.78,215.27s5.3-11.41,21.19-17.81c0,0-13.62,6.33-21.07,18.08Z"/>
                </g>
                <g>
                  <g>
                    <path class="e8acd763-f2c7-487c-a83f-57909c01c10e" d="M345,175.91l-.16.12-.42.24Z"/>
                    <path class="b8e1d24b-91d9-4f82-852d-3a8d5b19fff2" d="M346,174.93l.16-.11c.11-.08.4-.21.37.05a1.09,1.09,0,0,1-.45.64l-.16.12c-.11.07-.4.21-.37-.06a1,1,0,0,1,.45-.64l.16-.11c0,.23-.05.46-.08.69l-.16.12c-.11.08-.4.2-.37-.06A1,1,0,0,1,346,174.93Z"/>
                    <path class="a2c04547-d278-480c-99ad-60c69972d3ea" d="M231.59,212.61c-60.43,0-57.35-15.63-57.35-15.63-6.91-3.81-5.81-21.7,26-38.11,24.34-12.58,36.78-5.53,75.32,5.79,43.32,12.73,64,8.2,66.93,6.6C325.19,182.05,276.69,212.57,231.59,212.61Z"/>
                    <path class="a7745674-fb85-4769-a1ff-1b12b69cc46a" d="M168.65,233.49c-6.76-11.11-3.24-29,5.59-36.51,0,0,19.93,21.74,73.54,12.23,44.31-7.86,77-26.81,94.31-37.61a4.11,4.11,0,0,0,.42-.24c-11.77,8.31-24.14,37-48.84,61.38C243.35,282.34,178.14,249.1,168.65,233.49Z"/>
                  </g>
                  <g>
                    <path class="bf3542eb-5b21-414b-b987-4d6c81b0a7b5" d="M290.08,236s-.14-.05-.43-.08-.7-.05-1.27-.1a28.82,28.82,0,0,1-5-1,48.63,48.63,0,0,1-7.74-3.05c-3-1.43-6.23-3.29-9.92-5.55-2.63-1.6-5.48-3.42-8.35-5.2s-5.77-3.54-8.52-5a37,37,0,0,0-7.51-3.1,14.84,14.84,0,0,0-2.57-.46l-.42,0h0l.41,0a14.83,14.83,0,0,1,2.54.49,35.46,35.46,0,0,1,7.32,3.2c2.68,1.47,5.5,3.26,8.31,5.07s5.61,3.66,8.23,5.28a107.38,107.38,0,0,0,10,5.6,45.81,45.81,0,0,0,7.95,3.06,24.41,24.41,0,0,0,5.29.88c.6,0,1,0,1.34,0S290.08,236,290.08,236Z"/>
                    <path class="bf3542eb-5b21-414b-b987-4d6c81b0a7b5" d="M203,211.63a19,19,0,0,0,2,.61,18.58,18.58,0,0,1,2.41,1,29,29,0,0,1,3.12,1.88,80.76,80.76,0,0,1,8.1,6.6c3.14,2.83,6.73,6.28,11.11,10.23a133.77,133.77,0,0,0,10.52,8.67,63,63,0,0,0,12.13,7.09,38.37,38.37,0,0,0,5.94,2,32.21,32.21,0,0,0,5.05.88c.71.08,1.37.09,1.94.13s1.06,0,1.46,0l1.22,0-1.22,0c-.4,0-.89,0-1.46,0s-1.21-.07-1.93-.16a33.35,33.35,0,0,1-5-1,39.85,39.85,0,0,1-5.83-2.11,63,63,0,0,1-11.84-7.21c-3.76-2.84-7.25-5.91-10.33-8.72-4.32-4-7.9-7.42-11.06-10.26a71.59,71.59,0,0,0-8.28-6.61,27.08,27.08,0,0,0-3.29-1.86,15.28,15.28,0,0,0-2.59-1A4.79,4.79,0,0,0,203,211.63Z"/>
                    <path class="bf3542eb-5b21-414b-b987-4d6c81b0a7b5" d="M175.33,199.12c0,.13.67.24,1.79,1.13a32.9,32.9,0,0,1,4.61,4.77c1.94,2.33,4.3,5.4,7.23,9.17s6.44,8.25,10.86,13.25a125.81,125.81,0,0,0,10.75,10.83c2,1.73,4,3.39,6.08,4.9a68.46,68.46,0,0,0,6.16,4,55.53,55.53,0,0,0,5.78,2.89,50.08,50.08,0,0,0,4.85,1.76c1.39.4,2.52.68,3.29.84l1.21.24-1.2-.28c-.77-.18-1.88-.49-3.26-.93a48.74,48.74,0,0,1-4.77-1.88,54.84,54.84,0,0,1-5.66-3,67.25,67.25,0,0,1-6-4.13c-2-1.53-4-3.21-5.92-5a136.32,136.32,0,0,1-10.51-10.9c-4.35-5-7.82-9.49-10.77-13.24s-5.33-6.82-7.37-9.13a24.78,24.78,0,0,0-5-4.66,5.13,5.13,0,0,0-1.57-.68C175.52,199,175.33,199.06,175.33,199.12Z"/>
                    <path class="bf3542eb-5b21-414b-b987-4d6c81b0a7b5" d="M271,204.42a5.45,5.45,0,0,0,1.08.19,22,22,0,0,1,3.12.82c1.35.44,3,1.09,5,1.93s4.26,1.89,7,3.09c1.94.85,4.11,1.78,6.38,2.63a54,54,0,0,0,6.86,2.13,30,30,0,0,0,3.2.56,20,20,0,0,0,2.65.13,15.51,15.51,0,0,0,1.74-.12l.45-.07.15,0-.15,0-.46.06a12.44,12.44,0,0,1-1.73.09,20.08,20.08,0,0,1-2.61-.18,29,29,0,0,1-3.12-.61,52.76,52.76,0,0,1-6.69-2.2c-2.21-.88-4.34-1.82-6.26-2.68-2.69-1.21-5-2.27-7-3.11a50.59,50.59,0,0,0-5.11-1.93,18.92,18.92,0,0,0-1.91-.5,13.34,13.34,0,0,0-1.43-.23A3.17,3.17,0,0,0,271,204.42Z"/>
                    <path class="bf3542eb-5b21-414b-b987-4d6c81b0a7b5" d="M304.77,192.72q0,.14.42.27c.14,0,.32.12.53.18s.47.18.76.32a13.88,13.88,0,0,1,2.15,1.3c.85.62,1.83,1.46,3,2.45a27.47,27.47,0,0,0,2.75,2.08,7.28,7.28,0,0,0,3,1.18,4,4,0,0,0,2.31-.42l.36-.2.26-.18.22-.15-.23.13-.26.15-.37.16a4,4,0,0,1-2.27.19,7.64,7.64,0,0,1-2.82-1.37c-.93-.67-1.83-1.47-2.65-2.19-1.14-1-2.14-1.88-3-2.51a9.67,9.67,0,0,0-2.27-1.27,5.17,5.17,0,0,0-.81-.23,3.47,3.47,0,0,0-.58-.05C304.91,192.58,304.77,192.64,304.77,192.72Z"/>
                    <path class="bf3542eb-5b21-414b-b987-4d6c81b0a7b5" d="M201.64,210.78c0,.17.52.24,1.44-.32a12.87,12.87,0,0,0,3.58-4.21,81.64,81.64,0,0,0,4.79-9.75c1.81-4.16,3.84-9.23,6.37-14.93A134.57,134.57,0,0,1,224,169.19a51.07,51.07,0,0,1,7.28-10.06,23.56,23.56,0,0,1,6.63-5,19.44,19.44,0,0,1,2.1-.82l.77-.23-.78.17a20.28,20.28,0,0,0-2.14.67A22,22,0,0,0,231,158.5a47.66,47.66,0,0,0-7.59,9.76,116.44,116.44,0,0,0-6.38,12.27c-2.6,5.69-4.64,10.74-6.43,14.89a103,103,0,0,1-4.62,9.73,19.61,19.61,0,0,1-3.2,4.46C202,210.34,201.61,210.58,201.64,210.78Z"/>
                    <path class="bf3542eb-5b21-414b-b987-4d6c81b0a7b5" d="M227.87,211.76s.18,0,.4-.21.25-.2.41-.34a6.88,6.88,0,0,0,.53-.54,20,20,0,0,0,2.79-4.36,60.49,60.49,0,0,0,3.17-8.15c1.12-3.36,2.26-7.36,3.8-12,.55-1.65,1.17-3.37,1.83-5.13s1.42-3.53,2.27-5.27a48.92,48.92,0,0,1,2.78-5c.49-.81,1.05-1.55,1.57-2.3.26-.38.57-.72.84-1.07s.54-.7.85-1c.59-.64,1.14-1.28,1.75-1.83l.87-.82c.29-.26.59-.49.88-.73s.56-.47.84-.68l.84-.59.77-.54.75-.45c.48-.27.9-.54,1.29-.74l1-.48.85-.41-.86.37-1,.45c-.4.18-.84.44-1.33.69L255,161l-.8.52-.87.55c-.29.21-.57.44-.88.67l-.92.7-.91.81c-.64.54-1.22,1.17-1.85,1.8-.32.32-.59.67-.89,1s-.62.69-.9,1.06c-.56.75-1.15,1.5-1.67,2.3a45.32,45.32,0,0,0-3,5.05c-.9,1.74-1.69,3.54-2.43,5.29s-1.37,3.5-1.93,5.16c-1.62,4.65-2.78,8.66-3.88,12a75.6,75.6,0,0,1-3,8,28.3,28.3,0,0,1-2.37,4.36c-.14.24-.28.42-.4.59a4.34,4.34,0,0,0-.28.42C227.87,211.58,227.82,211.71,227.87,211.76Z"/>
                    <path class="bf3542eb-5b21-414b-b987-4d6c81b0a7b5" d="M249.61,207.64c0,.34.37.49,1.09.28a8.92,8.92,0,0,0,3.17-2.75,58.83,58.83,0,0,0,5.06-7.81c2-3.52,4.29-8,7-12.9a101.52,101.52,0,0,1,6.39-10.3c2.25-3.13,4.59-5.49,6.75-6.65a6.45,6.45,0,0,1,5.45-.55c.35.15.66.25.92.39s.5.31.68.44l.58.38s-.2-.19-.57-.49l-.68-.57c-.26-.18-.57-.34-.91-.56a6.46,6.46,0,0,0-5.55-.35c-2.21.84-4.65,2.9-7,5.81a76,76,0,0,0-6.57,9.85c-2.78,4.82-5.1,9.23-7.07,12.73a89.89,89.89,0,0,1-4.9,8C250.89,206.31,249.57,206.83,249.61,207.64Z"/>
                    <path class="bf3542eb-5b21-414b-b987-4d6c81b0a7b5" d="M303.55,192.51c.06.09.29.05.71-.16A7.14,7.14,0,0,0,306,191a11.62,11.62,0,0,0,1.05-1.29c.35-.51.72-1.08,1.08-1.72.73-1.27,1.48-2.81,2.46-4.53a33.11,33.11,0,0,1,2.48-3.79,26.86,26.86,0,0,1,3.08-3.33,33.76,33.76,0,0,1,2.73-2.2c.36-.25.66-.44.85-.58l.31-.21-.32.18-.9.5a27.9,27.9,0,0,0-2.94,2,24.23,24.23,0,0,0-3.42,3.21,26.64,26.64,0,0,0-2.77,3.82c-1,1.75-1.82,3.29-2.52,4.52a21.16,21.16,0,0,1-1.89,2.88C304.12,191.8,303.41,192.28,303.55,192.51Z"/>
                    <path class="bf3542eb-5b21-414b-b987-4d6c81b0a7b5" d="M177.48,199.71c.06.14.53,0,1.44-.34a15.88,15.88,0,0,0,3.71-2.68,38.55,38.55,0,0,0,5.1-6.13c1.84-2.67,3.82-6,6-9.92,3.13-5.58,6.72-12.51,10.27-17.52.87-1.27,1.76-2.4,2.57-3.39.42-.49.82-.95,1.2-1.36s.76-.78,1.09-1.12l.94-.86c.27-.25.53-.43.73-.6l.63-.51-.66.47c-.2.15-.48.32-.76.56l-1,.81c-.35.33-.74.68-1.16,1.06s-.82.84-1.27,1.31c-.87,1-1.82,2-2.76,3.28-3.81,4.88-7.68,11.7-10.88,17.21-2.24,3.89-4.23,7.15-6,9.79a47,47,0,0,1-4.83,6C179.05,198.69,177.33,199.38,177.48,199.71Z"/>
                    <path class="bf3542eb-5b21-414b-b987-4d6c81b0a7b5" d="M271.81,204.92c0,.28.35.4,1,.23a8.25,8.25,0,0,0,3-2.21,46.51,46.51,0,0,0,4.79-6.27c1.88-2.82,4.06-6.41,6.65-10.36a82.73,82.73,0,0,1,6-8.27,20,20,0,0,1,6.38-5.34,7,7,0,0,1,5.15-.44c.32.12.62.2.87.31l.64.35.54.31s-.19-.15-.54-.39l-.63-.46c-.25-.15-.54-.28-.87-.45a7,7,0,0,0-5.23-.28,17,17,0,0,0-6.59,4.66,61.22,61.22,0,0,0-6.21,7.91c-2.64,3.88-4.83,7.41-6.69,10.22a70.6,70.6,0,0,1-4.64,6.44C273,203.85,271.78,204.27,271.81,204.92Z"/>
                  </g>
                  <path class="e1697460-7ca6-4456-8558-d179f964a327" d="M174.24,197c16.11,14.8,41.87,15.62,62.48,12.72,36.81-5.45,70.61-21.66,104-37.38-30.89,21-65.81,38.32-103.32,43-15.08,1.63-30.92.89-45.06-5-6.88-3-13.69-7.17-18.13-13.34Z"/>
                </g>
                <path class="a144f42d-a827-434e-92eb-02895bf74579" d="M172.65,195.49s15.64-47,66.14-39.14c11.13,1.73,26.25,11.54,37.36,13.37,54.6,9,45.65,3.48,61.28,2.88,0,0-20.23,2.77-52.86-6,0,0-29.6-8.77-34.62-9.93-16.18-3.71-25.86-10.31-50.5,2.1C199.45,158.72,164.06,176.81,172.65,195.49Z"/>
                <path class="f2e416ec-d390-49b2-a7e0-9412f0d43e47" d="M169.48,204s-6.81,27.35,28.3,43.45c0,0,64.78,21.53,99.59-22.63,0,0,31.66-43.45,38.37-47.59,0,0-7.78,9.23-18.49,27.13,0,0-24.84,36.45-46.9,45.07,0,0-31,22-79.84.28C190.51,249.67,153.67,237.56,169.48,204Z"/>
              </g>
              <g>
                <g>
                  <path class="a7745674-fb85-4769-a1ff-1b12b69cc46a" d="M321.25,95.75s-9.08,12.85-6,23.37l3.91,2.38s-4.35-9.82,2.35-24.48Z"/>
                  <path class="f2e416ec-d390-49b2-a7e0-9412f0d43e47" d="M319.16,121.5s-4.65-9.67,2.35-24.48l-.12-.57s-8.15,15.34-3,24.59Z"/>
                  <path class="b1454498-5fd9-4d48-814b-f752ad0b68f5" d="M315.25,119.12s-2.23-8.23,3.19-18.55c0,0-4.28,9.28-3,18.63Z"/>
                </g>
                <g>
                  <g>
                    <path class="e8acd763-f2c7-487c-a83f-57909c01c10e" d="M398.91,12.61l0,.13c0,.07-.06.18-.11.31C398.82,12.9,398.87,12.76,398.91,12.61Z"/>
                    <path class="b8e1d24b-91d9-4f82-852d-3a8d5b19fff2" d="M399,11.68l0-.13c0-.09.12-.28.22-.14a.7.7,0,0,1,0,.53.28.28,0,0,1,0,.13c0,.09-.11.29-.21.14a.7.7,0,0,1,0-.53.61.61,0,0,0,0-.13c.09.13.18.26.26.39a.61.61,0,0,1,0,.13c0,.09-.11.29-.21.14A.7.7,0,0,1,399,11.68Z"/>
                    <path class="a2c04547-d278-480c-99ad-60c69972d3ea" d="M356.33,81.63c-31.18,26.7-36.42,17.25-36.42,17.25-5.22,1.08-12.44-8.64-3.19-31.14,7.09-17.24,16.58-19.09,41.41-30.26,27.91-12.55,36.63-24,37.43-26.14C391.35,24.53,379.6,61.7,356.33,81.63Z"/>
                    <path class="a7745674-fb85-4769-a1ff-1b12b69cc46a" d="M332.93,120.2c-8.33-2.76-14.28-13.53-13-21.32,0,0,19.76,2.43,43.3-26.15,19.46-23.62,28.1-47.86,32.31-61a2,2,0,0,0,.11-.31c-2.45,9.48,3.67,29.78,1.52,53.25C392.77,112.44,344.63,124.06,332.93,120.2Z"/>
                  </g>
                  <g>
                    <path class="bf3542eb-5b21-414b-b987-4d6c81b0a7b5" d="M396.73,67.89s-.1,0-.26.15-.38.29-.7.51a19.94,19.94,0,0,1-3,1.71,32.38,32.38,0,0,1-5.32,1.84,76.7,76.7,0,0,1-7.54,1.52c-2.05.33-4.32.65-6.57,1s-4.52.72-6.58,1.19a24.48,24.48,0,0,0-5.23,1.71,10,10,0,0,0-1.52.9l-.23.17-.16.13-.13.11.13-.11.16-.13.23-.16a11,11,0,0,1,1.53-.87A24.51,24.51,0,0,1,366.67,76c2-.42,4.26-.74,6.5-1s4.49-.59,6.54-.91a72.3,72.3,0,0,0,7.59-1.5,30.94,30.94,0,0,0,5.44-1.93,16.76,16.76,0,0,0,3.11-1.88c.32-.26.55-.45.69-.59S396.74,67.91,396.73,67.89Z"/>
                    <path class="bf3542eb-5b21-414b-b987-4d6c81b0a7b5" d="M341.17,93.73s.43-.22,1.31-.59a12.9,12.9,0,0,1,1.69-.52,18.4,18.4,0,0,1,2.44-.41,56,56,0,0,1,7.06-.17c2.85.08,6.21.28,10.19.38a87.42,87.42,0,0,0,9.2-.17,42.14,42.14,0,0,0,9.35-1.69,26.78,26.78,0,0,0,4-1.57,23.19,23.19,0,0,0,3-1.78c.41-.27.75-.56,1.06-.79l.76-.64c.39-.37.61-.56.61-.56l-.62.55-.77.62c-.31.23-.66.5-1.07.77a22.09,22.09,0,0,1-3,1.7,27.56,27.56,0,0,1-3.93,1.49,42.46,42.46,0,0,1-9.25,1.5c-3.18.2-6.32.15-9.13.06-4-.14-7.31-.35-10.18-.41a46.78,46.78,0,0,0-7.15.24,17.19,17.19,0,0,0-2.51.49,10.37,10.37,0,0,0-1.76.65C341.5,93.33,341.14,93.69,341.17,93.73Z"/>
                    <path class="bf3542eb-5b21-414b-b987-4d6c81b0a7b5" d="M321.41,99.5c0,.08.45-.17,1.42-.21a22.64,22.64,0,0,1,4.46.43c2,.35,4.57.89,7.72,1.54s6.92,1.42,11.38,2a84.14,84.14,0,0,0,10.27.85c1.78,0,3.55,0,5.27-.16a43.22,43.22,0,0,0,4.93-.65,36.43,36.43,0,0,0,4.24-1.06,31.09,31.09,0,0,0,3.27-1.23c.89-.4,1.59-.76,2.07-1l.72-.4-.73.38c-.48.25-1.19.58-2.09,1a34.33,34.33,0,0,1-3.29,1.13,36.91,36.91,0,0,1-4.24.94,45.81,45.81,0,0,1-4.89.52c-1.71.09-3.46.11-5.22.05a90.56,90.56,0,0,1-10.18-1c-4.43-.67-8.17-1.45-11.32-2.09s-5.73-1.16-7.78-1.45a16.75,16.75,0,0,0-4.62-.2,3.14,3.14,0,0,0-1.11.35C321.47,99.37,321.39,99.47,321.41,99.5Z"/>
                    <path class="bf3542eb-5b21-414b-b987-4d6c81b0a7b5" d="M373.12,60s.22-.12.64-.38a14.55,14.55,0,0,1,2-.95c.9-.37,2-.77,3.42-1.2s3-.91,4.95-1.49c1.37-.42,2.9-.9,4.44-1.46A36,36,0,0,0,393,52.59a19.26,19.26,0,0,0,1.89-1.12,14.12,14.12,0,0,0,1.43-1.11,9.46,9.46,0,0,0,.84-.83l.21-.23.06-.08-.07.08-.21.23a10.25,10.25,0,0,1-.85.81,14,14,0,0,1-1.43,1.06A21.49,21.49,0,0,1,393,52.46a35.54,35.54,0,0,1-4.42,1.81c-1.52.53-3,1-4.4,1.38-1.92.57-3.55,1-4.95,1.47s-2.55.86-3.47,1.26c-.46.2-.87.4-1.21.59a8.72,8.72,0,0,0-.84.51C373.28,59.79,373.1,60,373.12,60Z"/>
                    <path class="bf3542eb-5b21-414b-b987-4d6c81b0a7b5" d="M385.45,39.06s.15,0,.33-.05l.36-.14c.15,0,.32-.12.53-.17a8.65,8.65,0,0,1,1.68-.28c.71-.05,1.58-.06,2.61-.06a18.77,18.77,0,0,0,2.33-.14,4.88,4.88,0,0,0,2-.7,2.8,2.8,0,0,0,1-1.24c0-.1.07-.18.1-.26s0-.15.05-.21l.05-.17-.06.16c0,.06-.05.12-.07.2l-.13.24a2.67,2.67,0,0,1-1.08,1.1,5.07,5.07,0,0,1-2,.54,22.84,22.84,0,0,1-2.33,0,24.61,24.61,0,0,0-2.65,0,6.73,6.73,0,0,0-1.72.34,3.81,3.81,0,0,0-.53.25,1.77,1.77,0,0,0-.32.23C385.46,38.92,385.42,39,385.45,39.06Z"/>
                    <path class="bf3542eb-5b21-414b-b987-4d6c81b0a7b5" d="M340.07,93.91c.09.07.37-.11.61-.81a8.78,8.78,0,0,0,0-3.75,55.57,55.57,0,0,0-1.77-7.15c-.88-2.94-2-6.46-3.21-10.51a88.77,88.77,0,0,1-2.21-9.13,34.84,34.84,0,0,1-.63-8.4,16.27,16.27,0,0,1,1.26-5.49,12.09,12.09,0,0,1,.73-1.35l.29-.46-.32.43a13.59,13.59,0,0,0-.81,1.29,14.93,14.93,0,0,0-1.54,5.36,32.08,32.08,0,0,0,.34,8.38,79.19,79.19,0,0,0,2,9.16C336,75.56,337.14,79.07,338,82a69.22,69.22,0,0,1,1.85,7.07,13.12,13.12,0,0,1,.29,3.71C340.09,93.51,340,93.82,340.07,93.91Z"/>
                    <path class="bf3542eb-5b21-414b-b987-4d6c81b0a7b5" d="M354,82.83s.08-.09.12-.28,0-.21.06-.36a3.77,3.77,0,0,0,0-.51,13.38,13.38,0,0,0-.46-3.48,41,41,0,0,0-1.91-5.61c-.89-2.23-2-4.8-3.26-7.87-.44-1.09-.87-2.25-1.29-3.46s-.8-2.45-1.13-3.72a34.35,34.35,0,0,1-.75-3.82c-.1-.63-.14-1.27-.19-1.89,0-.3,0-.61,0-.92s0-.6,0-.9c0-.59,0-1.16.11-1.72,0-.27.06-.54.08-.8s.1-.52.14-.77.09-.49.14-.72.12-.46.18-.67.11-.43.16-.63.14-.38.19-.56c.13-.35.23-.68.35-1l.3-.69.27-.59-.29.58-.33.68c-.13.27-.24.59-.38.94-.07.18-.15.37-.22.56s-.12.41-.19.62-.13.44-.2.67-.11.48-.16.73-.12.51-.17.78l-.12.81c-.1.56-.12,1.15-.17,1.75,0,.31,0,.61,0,.92s0,.62,0,.94c0,.63.05,1.28.13,1.93a31.45,31.45,0,0,0,.66,3.92c.29,1.3.67,2.57,1.05,3.81s.82,2.41,1.25,3.51c1.19,3.12,2.33,5.7,3.22,7.9a53,53,0,0,1,2,5.48,20.82,20.82,0,0,1,.67,3.3c0,.18,0,.34,0,.48a2.45,2.45,0,0,0,0,.34C354,82.74,354,82.83,354,82.83Z"/>
                    <path class="bf3542eb-5b21-414b-b987-4d6c81b0a7b5" d="M363.47,71.11c.16.16.41.09.69-.34A6.17,6.17,0,0,0,364.6,68a40.11,40.11,0,0,0-.79-6.27c-.51-2.7-1.26-6-2-9.77a68.88,68.88,0,0,1-1.19-8.14,15.1,15.1,0,0,1,.59-6.41,4.4,4.4,0,0,1,2.57-2.69c.25-.08.45-.16.65-.21l.54-.07.47-.06h-1.11c-.22,0-.44.07-.71.11a4.42,4.42,0,0,0-3,2.27,12.58,12.58,0,0,0-1.07,6.08,52.41,52.41,0,0,0,.9,8c.67,3.72,1.39,7,1.9,9.69a63,63,0,0,1,1,6.3C363.55,69.86,363.1,70.71,363.47,71.11Z"/>
                    <path class="bf3542eb-5b21-414b-b987-4d6c81b0a7b5" d="M384.73,39.48c.07,0,.17-.09.3-.39a4.91,4.91,0,0,0,.27-1.46,6.2,6.2,0,0,0,0-1.13,12.79,12.79,0,0,0-.19-1.37c-.17-1-.46-2.1-.7-3.42a23.56,23.56,0,0,1-.37-3.05,19.13,19.13,0,0,1,.14-3.08,20.59,20.59,0,0,1,.46-2.34c.07-.29.14-.52.18-.68a2.46,2.46,0,0,1,.07-.24l-.09.23c-.06.15-.15.38-.25.66a20,20,0,0,0-.65,2.32,16.5,16.5,0,0,0-.37,3.17,18,18,0,0,0,.24,3.19c.22,1.37.49,2.5.67,3.45a15.38,15.38,0,0,1,.28,2.32C384.72,38.87,384.56,39.43,384.73,39.48Z"/>
                    <path class="bf3542eb-5b21-414b-b987-4d6c81b0a7b5" d="M322.78,98.86c.09,0,.29-.21.59-.82a10.48,10.48,0,0,0,.75-3,25.83,25.83,0,0,0,0-5.41c-.21-2.19-.63-4.78-1.21-7.78-.81-4.26-2-9.42-2.33-13.58-.1-1-.13-2-.15-2.89,0-.43,0-.85,0-1.23s.05-.73.07-1.06.08-.6.12-.85.08-.46.11-.64l.11-.54-.14.53c0,.17-.11.38-.15.63s-.1.54-.16.86-.08.67-.13,1-.06.8-.09,1.24c0,.88-.05,1.86,0,2.91A110.54,110.54,0,0,0,322,82c.54,3,.93,5.56,1.15,7.72a32.8,32.8,0,0,1,.15,5.25C323.14,97.64,322.55,98.75,322.78,98.86Z"/>
                    <path class="bf3542eb-5b21-414b-b987-4d6c81b0a7b5" d="M373.75,59.9c.13.14.35.06.63-.33a5.77,5.77,0,0,0,.59-2.46,32.51,32.51,0,0,0-.27-5.35c-.25-2.29-.69-5.1-1.07-8.29a56.24,56.24,0,0,1-.49-6.94,13.88,13.88,0,0,1,1-5.57,4.81,4.81,0,0,1,2.47-2.5c.22-.08.4-.17.58-.22a4.63,4.63,0,0,1,.48-.1l.42-.09-.45,0-.53,0-.64.16a4.79,4.79,0,0,0-2.83,2.16,11.67,11.67,0,0,0-1.37,5.32,42.41,42.41,0,0,0,.24,6.82c.33,3.17.74,6,1,8.23a51.58,51.58,0,0,1,.41,5.37C373.91,58.82,373.45,59.58,373.75,59.9Z"/>
                  </g>
                  <path class="e1697460-7ca6-4456-8558-d179f964a327" d="M319.91,98.88c19.82-.42,35.56-18.33,46.24-33.42,11.47-16.51,20-34.78,29-52.82a174.54,174.54,0,0,1-9.39,29.14c-8.09,18.84-19.19,37.39-36.33,49.47C341,97,330.18,101.48,319.91,98.88Z"/>
                </g>
                <path class="a144f42d-a827-434e-92eb-02895bf74579" d="M318.45,98.81s-12.38-31.15,17.1-49.4c6.49-4,18.58-5.63,25.11-9.6,32.09-19.47,25.08-18.35,32.9-25.56,0,0-9.25,10.36-29.93,20.21,0,0-19.11,8.54-22.2,10.16-10,5.23-17.85,6.09-25.16,23.37C316.27,68,305.87,93,318.45,98.81Z"/>
                <path class="f2e416ec-d390-49b2-a7e0-9412f0d43e47" d="M320.5,104.58s8.39,17.13,33.53,9.94c0,0,42.83-17.48,41.57-55.64,0,0-2.58-36.42-.92-41.51A153.47,153.47,0,0,0,397,39.53s3.05,29.79-4.59,44c0,0-6.43,25.07-41.09,35.39C351.27,118.9,327,128.91,320.5,104.58Z"/>
              </g>
              <g>
                <g>
                  <path class="a7745674-fb85-4769-a1ff-1b12b69cc46a" d="M210.56,53.74s-4.93,11.34-.89,18.93l3.38,1.21S208.14,67,211,54.68Z"/>
                  <path class="f2e416ec-d390-49b2-a7e0-9412f0d43e47" d="M213.05,73.88s-5.11-6.69-2.08-19.2l-.19-.43s-3.82,13.12,1.63,19.4Z"/>
                  <path class="b1454498-5fd9-4d48-814b-f752ad0b68f5" d="M209.67,72.67s-3-6-.5-14.77c0,0-1.81,7.82.65,14.81Z"/>
                </g>
                <g>
                  <g>
                    <path class="a2c04547-d278-480c-99ad-60c69972d3ea" d="M235.29,37.23C215.57,62.78,210,56.36,210,56.36c-3.84,1.68-10.94-4.64-7.4-23.43,2.71-14.39,9.71-17.35,27-29.93C249.12-11.16,254-21.39,254.28-23.14,253.14-12.31,250,18.16,235.29,37.23Z"/>
                    <path class="a7745674-fb85-4769-a1ff-1b12b69cc46a" d="M223.43,70.66c-6.84-.78-13.13-8.1-13.4-14.3,0,0,15.58-1.32,29.14-27.08C250.37,8,253.17-12,254.3-22.87c0-.11,0-.2,0-.26C254-15.44,261.89-.82,264,17.57,268.21,55.05,233,71.74,223.43,70.66Z"/>
                  </g>
                  <g>
                    <path class="bf3542eb-5b21-414b-b987-4d6c81b0a7b5" d="M264.17,20.16s-.07,0-.17.15l-.46.51a15.57,15.57,0,0,1-2.07,1.8,25.8,25.8,0,0,1-3.8,2.28c-1.56.78-3.4,1.56-5.55,2.38-1.53.58-3.22,1.2-4.9,1.82s-3.36,1.29-4.86,2a19.19,19.19,0,0,0-3.75,2.16,8,8,0,0,0-1,.93l-.15.17a.91.91,0,0,0-.1.13l-.09.1.09-.1.1-.12.15-.17a8.23,8.23,0,0,1,1-.91,19,19,0,0,1,3.72-2.05c1.49-.65,3.16-1.26,4.83-1.85s3.36-1.18,4.89-1.76a57.41,57.41,0,0,0,5.59-2.37,25.59,25.59,0,0,0,3.88-2.36,14.13,14.13,0,0,0,2.1-1.95c.2-.25.34-.44.43-.57S264.18,20.17,264.17,20.16Z"/>
                    <path class="bf3542eb-5b21-414b-b987-4d6c81b0a7b5" d="M225.56,49a10,10,0,0,0,.91-.65,10.51,10.51,0,0,1,1.22-.68,13.78,13.78,0,0,1,1.81-.7,42.06,42.06,0,0,1,5.4-1.27c2.2-.41,4.82-.79,7.89-1.35a70.2,70.2,0,0,0,7.05-1.62,33.49,33.49,0,0,0,6.93-2.8,22.89,22.89,0,0,0,2.79-1.85,18,18,0,0,0,2-1.85c.27-.28.49-.55.69-.78l.48-.61.38-.54-.39.53-.49.6c-.21.23-.43.49-.7.77a19.3,19.3,0,0,1-2,1.79,21.6,21.6,0,0,1-2.79,1.77,33.21,33.21,0,0,1-6.87,2.65c-2.41.66-4.83,1.13-7,1.52-3.06.53-5.68.91-7.89,1.32a37.09,37.09,0,0,0-5.47,1.34,14.53,14.53,0,0,0-1.85.78,8.93,8.93,0,0,0-1.25.78C225.75,48.62,225.53,49,225.56,49Z"/>
                    <path class="bf3542eb-5b21-414b-b987-4d6c81b0a7b5" d="M211.28,56.6c.05,0,.32-.2,1.06-.39a17.67,17.67,0,0,1,3.5-.39c1.6-.06,3.65,0,6.18-.06s5.54,0,9.08-.26a64.69,64.69,0,0,0,8-1c1.37-.27,2.72-.59,4-1a37,37,0,0,0,3.69-1.29,31.05,31.05,0,0,0,3.1-1.5,27.1,27.1,0,0,0,2.31-1.48c.62-.45,1.11-.84,1.43-1.11l.49-.43-.5.41c-.33.27-.82.64-1.46,1.08a26.88,26.88,0,0,1-2.34,1.39A28.48,28.48,0,0,1,246.76,52a35.3,35.3,0,0,1-3.68,1.19c-1.3.35-2.65.64-4,.88a73.37,73.37,0,0,1-8,.88c-3.51.2-6.51.2-9,.22s-4.59,0-6.21.13a12.94,12.94,0,0,0-3.58.6,2.46,2.46,0,0,0-.8.44C211.31,56.49,211.26,56.58,211.28,56.6Z"/>
                    <path class="bf3542eb-5b21-414b-b987-4d6c81b0a7b5" d="M244.76,17.89s.15-.13.43-.39a11,11,0,0,1,1.36-1.05C247.18,16,248,15.53,249,15s2.18-1.19,3.57-2c1-.54,2.08-1.15,3.18-1.83A30.15,30.15,0,0,0,258.87,9a16.51,16.51,0,0,0,1.28-1.17,11.12,11.12,0,0,0,.92-1.07,8.79,8.79,0,0,0,.51-.78c.06-.09.09-.16.12-.21a.46.46,0,0,0,0-.08l0,.08-.12.21c-.12.18-.29.45-.53.76a11.35,11.35,0,0,1-.93,1,16.1,16.1,0,0,1-1.27,1.13,29.63,29.63,0,0,1-3.11,2.1c-1.09.65-2.18,1.24-3.16,1.77-1.39.74-2.57,1.36-3.58,1.93s-1.82,1.07-2.47,1.52c-.32.23-.6.45-.83.65a7.69,7.69,0,0,0-.56.53A1.8,1.8,0,0,0,244.76,17.89Z"/>
                    <path class="bf3542eb-5b21-414b-b987-4d6c81b0a7b5" d="M224.74,49.29c.08,0,.27-.14.34-.71a6.74,6.74,0,0,0-.59-2.89,41.2,41.2,0,0,0-2.5-5.21c-1.14-2.13-2.59-4.64-4.14-7.57a72.79,72.79,0,0,1-3.15-6.66,27.59,27.59,0,0,1-1.81-6.36,12.66,12.66,0,0,1,.09-4.42,9,9,0,0,1,.35-1.16l.15-.4-.18.38c-.11.26-.26.63-.42,1.13a11.74,11.74,0,0,0-.33,4.36,25.77,25.77,0,0,0,1.59,6.39,63,63,0,0,0,3,6.72c1.52,3,3,5.47,4.11,7.58a55.33,55.33,0,0,1,2.55,5.13,10.27,10.27,0,0,1,.81,2.81C224.69,49,224.65,49.24,224.74,49.29Z"/>
                    <path class="bf3542eb-5b21-414b-b987-4d6c81b0a7b5" d="M233.72,38.52s.05-.08.05-.23,0-.17,0-.29a2.29,2.29,0,0,0-.06-.4,10.28,10.28,0,0,0-.9-2.6,33,33,0,0,0-2.36-4c-1-1.56-2.33-3.35-3.76-5.52-.51-.77-1-1.59-1.54-2.45s-1-1.75-1.46-2.68a27.65,27.65,0,0,1-1.19-2.82c-.17-.47-.3-.95-.44-1.42-.07-.23-.12-.47-.17-.7s-.12-.46-.15-.69c-.07-.46-.16-.9-.19-1.34,0-.21,0-.43-.06-.63s0-.42,0-.62,0-.39,0-.57l0-.55,0-.5c0-.16,0-.32.06-.47s.07-.55.11-.78.09-.43.13-.59c.07-.32.1-.49.1-.49l-.12.49-.15.58c0,.23-.09.49-.14.78s-.06.31-.08.47,0,.33,0,.51,0,.36-.05.55,0,.38,0,.58,0,.41,0,.62,0,.43,0,.65c0,.45.09.9.14,1.37,0,.24.09.47.13.71s.09.49.15.72c.13.49.25,1,.41,1.47a25.32,25.32,0,0,0,1.13,2.91c.43,1,.92,1.87,1.41,2.75s1,1.73,1.52,2.51c1.42,2.2,2.7,4,3.74,5.55a42.19,42.19,0,0,1,2.38,3.9,15.2,15.2,0,0,1,1,2.42c0,.14.08.26.11.36s.06.19.09.26S233.69,38.53,233.72,38.52Z"/>
                    <path class="bf3542eb-5b21-414b-b987-4d6c81b0a7b5" d="M239.11,28c.15.1.32,0,.47-.37a4.78,4.78,0,0,0-.11-2.24,31,31,0,0,0-1.6-4.69c-.82-2-1.92-4.42-3.08-7.18a55.61,55.61,0,0,1-2.21-6.07,12,12,0,0,1-.57-5,3.48,3.48,0,0,1,1.55-2.49A4.68,4.68,0,0,1,234-.33l.4-.15.35-.12-.39.08-.46.1-.53.21a3.44,3.44,0,0,0-2,2.23,9.85,9.85,0,0,0,.14,4.85,41.4,41.4,0,0,0,2,6c1.11,2.75,2.18,5.17,3,7.15a47.91,47.91,0,0,1,1.74,4.69C239,27,238.76,27.74,239.11,28Z"/>
                    <path class="bf3542eb-5b21-414b-b987-4d6c81b0a7b5" d="M250.43.25c.06,0,.11-.11.16-.35a3.86,3.86,0,0,0,0-1.17,5.76,5.76,0,0,0-.19-.87c-.1-.31-.22-.65-.37-1-.29-.72-.68-1.54-1.08-2.52A19,19,0,0,1,248.16-8a14.25,14.25,0,0,1-.38-2.39,17.77,17.77,0,0,1,0-1.88c0-.23,0-.42,0-.55s0-.19,0-.19l0,.19c0,.13-.05.31-.08.54a16.61,16.61,0,0,0-.14,1.9,13,13,0,0,0,.23,2.49,15,15,0,0,0,.68,2.42c.39,1,.78,1.84,1.07,2.54a10.62,10.62,0,0,1,.58,1.74C250.32-.22,250.29.23,250.43.25Z"/>
                    <path class="bf3542eb-5b21-414b-b987-4d6c81b0a7b5" d="M212.23,55.88c.08,0,.2-.2.33-.72a8.61,8.61,0,0,0,.1-2.44,21.64,21.64,0,0,0-.89-4.16c-.52-1.65-1.25-3.57-2.17-5.79-1.31-3.14-3-6.92-4-10.06-.24-.78-.42-1.53-.57-2.2-.06-.33-.12-.65-.17-1s-.08-.57-.11-.82,0-.48,0-.68,0-.37,0-.51v-.43s0,.15,0,.43,0,.31,0,.51,0,.43,0,.68,0,.53.06.84.08.62.13,1c.12.68.26,1.44.47,2.24A84.7,84.7,0,0,0,209,43c.89,2.22,1.6,4.13,2.11,5.75a25.38,25.38,0,0,1,.95,4C212.32,54.89,212,55.84,212.23,55.88Z"/>
                    <path class="bf3542eb-5b21-414b-b987-4d6c81b0a7b5" d="M245.23,17.72c.12.08.28,0,.43-.36a4.37,4.37,0,0,0,.06-2,25.75,25.75,0,0,0-1.05-4.07c-.56-1.72-1.34-3.81-2.15-6.2a43.35,43.35,0,0,1-1.47-5.26,10.55,10.55,0,0,1-.14-4.43,3.83,3.83,0,0,1,1.49-2.33c.16-.09.29-.19.42-.26l.35-.15.31-.14-.34.1-.4.12-.47.22a3.82,3.82,0,0,0-1.83,2.12,9.2,9.2,0,0,0-.21,4.31,34.07,34.07,0,0,0,1.27,5.21c.76,2.38,1.52,4.46,2.08,6.17a39.11,39.11,0,0,1,1.17,4.06C245.18,16.86,245,17.52,245.23,17.72Z"/>
                  </g>
                  <path class="e1697460-7ca6-4456-8558-d179f964a327" d="M210,56.36c15.07-4.1,23.73-20,29.65-33.4,6.19-14.5,9.93-29.83,14.49-45A123,123,0,0,1,252.08,2c-3.06,15.91-8.71,32.08-20.18,44.1C226.21,51.81,218.42,57,210,56.36Z"/>
                </g>
                <path class="a144f42d-a827-434e-92eb-02895bf74579" d="M208.89,56.54s-14.47-21.95,5.3-40.74c4.35-4.14,13.39-7.32,17.78-11.42,21.58-20.15,16.37-18.15,21.23-25,0,0-5.46,9.46-19.8,20.37,0,0-13.33,9.64-15.45,11.39-6.84,5.62-12.75,7.55-15.63,22C202.32,33.2,198.3,54.07,208.89,56.54Z"/>
                <path class="f2e416ec-d390-49b2-a7e0-9412f0d43e47" d="M211.39,60.65s9.18,11.82,27.36,2.24c0,0,30.16-20.34,23.12-49.48,0,0-7.78-27.58-7.31-31.77a120.07,120.07,0,0,0,5.27,16.68s7.08,22.41,3.46,34.55c0,0-1,20.31-26,33.83C237.32,66.7,220.23,78.32,211.39,60.65Z"/>
              </g>
            </g>
          </g>
        </g>
      </g>
    </g>
  </g>
</svg>
