<svg xmlns="http://www.w3.org/2000/svg" xmlns:xlink="http://www.w3.org/1999/xlink" width="462.9" height="482.5" viewBox="0 0 462.9 482.5">
  <defs>
    <style>
      .bccc09c0-0979-4a5f-894c-2bec71f52df4, .ecaccc87-c984-4eaa-8c34-7a81fde5eed8 {
        fill: none;
      }

      .abc5c579-4ea8-4da1-a690-97d3c6e11819 {
        isolation: isolate;
      }

      .e270ffda-bce8-45d5-aef9-dd4b258d0b7b, .f66e87c7-c01f-48cb-ae4f-cea45f3f0654 {
        opacity: 0.5;
      }

      .aa0b4bdf-b341-4997-9ce7-fb3c23456406 {
        fill: url(#aa2a78d1-78c0-464e-9b29-b614f565c40c);
      }

      .eefca9bf-f06c-4229-a995-b513033e5cd7 {
        fill: #31d0e5;
        stroke-width: 6px;
        stroke: url(#b582c5a3-26ed-4f0a-b198-b4014cde5800);
      }

      .b265436e-efd8-4e13-8bce-1bc232a91dd1, .ecaccc87-c984-4eaa-8c34-7a81fde5eed8, .eefca9bf-f06c-4229-a995-b513033e5cd7 {
        stroke-miterlimit: 10;
      }

      .bc7c5197-8d16-4a36-a32b-968a119c7e46 {
        clip-path: url(#af7cc4b9-5e7d-4d5d-b8d4-e9ca56d06679);
      }

      .e57f9390-5fe5-4d0c-843c-afe83e2e14e9 {
        fill: #3fc416;
      }

      .f3e03de7-b7a7-4b10-8180-43477dc46bb4 {
        fill: #0028ff;
      }

      .e4fd35ad-f2c9-4101-a73f-e144cf7c020f {
        fill: red;
      }

      .a642686f-ad79-4bfe-9994-3670d52ad24e {
        fill: #00a6fd;
      }

      .f16bbe12-b617-4c56-872e-c976291aaa0a {
        fill: #fb8000;
      }

      .a443fcaa-4a01-4790-a617-e0a73e9e61ef {
        fill: #020fe9;
      }

      .b265436e-efd8-4e13-8bce-1bc232a91dd1 {
        fill: #ff9906;
        stroke: #d6380d;
        stroke-width: 0.75px;
      }

      .a3f7e198-35ea-4ca3-b3d0-cc3f5bce73f0, .b6971cd6-f5c4-42ec-bcbd-2a61b4958d8f {
        mix-blend-mode: screen;
      }

      .a3f7e198-35ea-4ca3-b3d0-cc3f5bce73f0 {
        opacity: 0.3;
      }

      .b2d9711e-9ccf-4d5b-b7f4-cd33e8bb2b67 {
        fill: #ff7880;
      }

      .f66e87c7-c01f-48cb-ae4f-cea45f3f0654 {
        mix-blend-mode: multiply;
      }

      .b8616209-f29f-4560-9c59-568c424f3928 {
        fill: url(#b8ebe0a6-7096-462d-9d95-09caca09d230);
      }

      .bbab08e9-c686-489a-8431-686671367829 {
        fill: url(#b1ff4984-153c-407d-862d-0a1a55e60fb8);
      }

      .ecaccc87-c984-4eaa-8c34-7a81fde5eed8 {
        stroke: #2f404f;
        stroke-width: 0.5px;
      }

      .a5a18ea5-02cb-441e-8f9b-860ee1a7738d {
        fill: #00a3fd;
      }

      .fe96ae62-c247-4c02-a47a-d900edda7b15 {
        fill: #e53963;
      }

      .b6971cd6-f5c4-42ec-bcbd-2a61b4958d8f {
        opacity: 0.2;
      }

      .bf80c6fc-a132-4a27-a409-a480a3f0ed30 {
        fill: url(#aec8af20-df49-4602-9d84-d7bacc791388);
      }

      .e1527a6a-acff-46d9-a04d-12cc1073020c {
        fill: url(#fd8bd2db-b03e-4617-aa78-0b1200125221);
      }

      .aa1e17f5-cd9f-4d7b-9170-a6a4f1400aa3 {
        fill: url(#b5c53c69-0d97-4623-967c-be4de65ba1fd);
      }
    </style>
    <linearGradient id="aa2a78d1-78c0-464e-9b29-b614f565c40c" x1="52.73" y1="118.79" x2="402" y2="358.11" gradientUnits="userSpaceOnUse">
      <stop offset="0" stop-color="#9b81cf"/>
      <stop offset="1" stop-color="#3b139b"/>
    </linearGradient>
    <linearGradient id="b582c5a3-26ed-4f0a-b198-b4014cde5800" x1="25.67" y1="241.25" x2="437.24" y2="241.25" gradientUnits="userSpaceOnUse">
      <stop offset="0" stop-color="#4c1da9"/>
      <stop offset="1" stop-color="#997ece"/>
    </linearGradient>
    <clipPath id="af7cc4b9-5e7d-4d5d-b8d4-e9ca56d06679">
      <ellipse class="bccc09c0-0979-4a5f-894c-2bec71f52df4" cx="235.46" cy="246.75" rx="209.22" ry="206.04"/>
    </clipPath>
    <linearGradient id="b8ebe0a6-7096-462d-9d95-09caca09d230" x1="173.97" y1="-6352.79" x2="174.89" y2="-6244.48" gradientTransform="matrix(-0.69, 0.33, 0.33, 0.69, 2519.81, 4389.41)" gradientUnits="userSpaceOnUse">
      <stop offset="0" stop-color="#cc8122"/>
      <stop offset="0.32" stop-color="#9e5e16"/>
      <stop offset="0.78" stop-color="#612f06"/>
      <stop offset="1" stop-color="#491c00"/>
    </linearGradient>
    <linearGradient id="b1ff4984-153c-407d-862d-0a1a55e60fb8" x1="110.2" y1="-6306.37" x2="238.69" y2="-6306.37" xlink:href="#b8ebe0a6-7096-462d-9d95-09caca09d230"/>
    <linearGradient id="aec8af20-df49-4602-9d84-d7bacc791388" x1="-3872.34" y1="-9074.77" x2="-3809.14" y2="-9074.77" gradientTransform="matrix(-1.8, -0.47, -0.47, 1.8, -11021.73, 14538.08)" gradientUnits="userSpaceOnUse">
      <stop offset="0" stop-color="#ff0a3b"/>
      <stop offset="0.67" stop-color="#ff576b"/>
      <stop offset="1" stop-color="#ff7880"/>
    </linearGradient>
    <linearGradient id="fd8bd2db-b03e-4617-aa78-0b1200125221" x1="-3825.54" y1="-9097.93" x2="-3824.89" y2="-9021.22" gradientTransform="matrix(-1.8, -0.47, -0.47, 1.8, -11021.73, 14538.08)" xlink:href="#b8ebe0a6-7096-462d-9d95-09caca09d230"/>
    <linearGradient id="b5c53c69-0d97-4623-967c-be4de65ba1fd" x1="-3872.34" y1="-9065.19" x2="-3778.07" y2="-9065.19" gradientTransform="matrix(-1.8, -0.47, -0.47, 1.8, -11021.73, 14538.08)" xlink:href="#b8ebe0a6-7096-462d-9d95-09caca09d230"/>
  </defs>
  <g class="abc5c579-4ea8-4da1-a690-97d3c6e11819">
    <g id="ec689c33-74dc-49a1-b21f-a9367a34d78b" data-name="Layer 1">
      <g>
        <path class="e270ffda-bce8-45d5-aef9-dd4b258d0b7b" d="M444.68,252.5a208.28,208.28,0,0,0-25.42-100,211.66,211.66,0,0,0-187.81-114c-116.9,0-211.67,94.78-211.67,211.68s94.77,211.68,211.67,211.68c3,0,5.93-.08,8.87-.2C353.63,459.07,444.68,366.42,444.68,252.5Z"/>
        <g>
          <g>
            <circle class="aa0b4bdf-b341-4997-9ce7-fb3c23456406" cx="231.45" cy="241.25" r="211.68"/>
            <circle class="eefca9bf-f06c-4229-a995-b513033e5cd7" cx="231.45" cy="241.25" r="202.78"/>
          </g>
          <g class="bc7c5197-8d16-4a36-a32b-968a119c7e46">
            <g>
              <g>
                <g>
                  <path class="e57f9390-5fe5-4d0c-843c-afe83e2e14e9" d="M365.61,101.84l.44.46c.27.28.64.7,1.05,1.21a9.72,9.72,0,0,1,.59.85,4.35,4.35,0,0,1,.47,1,2.47,2.47,0,0,1,.13.52c0,.2,0,.4,0,.6a12.13,12.13,0,0,0,.18,1.33,8,8,0,0,0,.38,1.33,4.58,4.58,0,0,0,.68,1.22,3.66,3.66,0,0,0,1,.92,5.55,5.55,0,0,0,1.1.5c.35.11.68.18,1,.24s.53.1.74.13l.65.09-.58-.29c-.37-.17-.91-.41-1.5-.72a5.74,5.74,0,0,1-.85-.57,3.36,3.36,0,0,1-.7-.8,5,5,0,0,1-.47-1,10.89,10.89,0,0,1-.3-1.19c-.08-.41-.14-.83-.2-1.24,0-.21,0-.4-.09-.66a3.11,3.11,0,0,0-.23-.69,4.46,4.46,0,0,0-.71-1.09,6.19,6.19,0,0,0-.81-.81,8.17,8.17,0,0,0-.77-.58c-.24-.16-.46-.29-.64-.39A6.07,6.07,0,0,0,365.61,101.84Z"/>
                  <path class="f3e03de7-b7a7-4b10-8180-43477dc46bb4" d="M365.61,102a6.61,6.61,0,0,1,.91.2,8.13,8.13,0,0,1,1,.35,5.72,5.72,0,0,1,1.15.63,3.4,3.4,0,0,1,1,1.06,3,3,0,0,1,.38,1.47,5.35,5.35,0,0,1-.29,1.68,3.59,3.59,0,0,1-.14.43l-.18.45c-.12.31-.23.61-.35.91s-.17.68-.26,1-.09.68-.14,1,0,.68,0,1l.07.5a3.71,3.71,0,0,0,.1.48,4.77,4.77,0,0,0,.32.92c.07.14.13.29.21.42s.17.27.25.4a1.88,1.88,0,0,0,.27.36l.28.34c.22.19.4.4.62.56a4.81,4.81,0,0,0,.63.44,5.41,5.41,0,0,0,.61.34c.2.09.38.18.56.24a4.6,4.6,0,0,0,.49.16l.41.11.3,0,.26,0a.1.1,0,0,0,.12-.08.11.11,0,0,0-.06-.12h0l-.23-.08-.28-.1-.35-.16a3.65,3.65,0,0,1-.43-.23,3.07,3.07,0,0,1-.48-.29,4.09,4.09,0,0,1-.51-.37,4.22,4.22,0,0,1-.51-.45c-.18-.16-.32-.36-.49-.54l-.21-.31a2.3,2.3,0,0,1-.21-.33l-.18-.35c-.06-.12-.1-.25-.15-.37s-.1-.25-.13-.39l-.09-.4a3.07,3.07,0,0,1-.07-.42l0-.42c0-.15,0-.29,0-.44a3.23,3.23,0,0,1,0-.44c.05-.29.07-.6.14-.89s.14-.57.24-.87l.33-.91.17-.46a3.86,3.86,0,0,0,.16-.48,5.66,5.66,0,0,0,.24-2,3.5,3.5,0,0,0-.62-1.85,3.45,3.45,0,0,0-.61-.7,4.4,4.4,0,0,0-.71-.5,6,6,0,0,0-1.38-.57,6.49,6.49,0,0,0-1.12-.21,5.74,5.74,0,0,0-.72-.05h-.26a.11.11,0,0,0-.11.11A.11.11,0,0,0,365.61,102Z"/>
                  <path class="e4fd35ad-f2c9-4101-a73f-e144cf7c020f" d="M365.6,102a1,1,0,0,1,.2.06,2.67,2.67,0,0,1,.55.25,3.26,3.26,0,0,1,.69.56,3.33,3.33,0,0,1,.61.93A4.56,4.56,0,0,1,368,105a9.17,9.17,0,0,1,.05,1.5c0,.26,0,.53-.08.8l-.12.83a6.23,6.23,0,0,0,0,1.88,4.73,4.73,0,0,0,.68,1.83,4.83,4.83,0,0,0,1.36,1.38,6.32,6.32,0,0,0,1.64.79,8.23,8.23,0,0,0,1.57.34,8.44,8.44,0,0,0,2.37-.05,3.56,3.56,0,0,0,.87-.23h0a.11.11,0,0,0,.05-.14.14.14,0,0,0-.13-.06l-.21,0-.62,0a10.18,10.18,0,0,1-2.2-.26,9.9,9.9,0,0,1-1.38-.43,6.6,6.6,0,0,1-1.34-.76,4.18,4.18,0,0,1-1-1.15,3.91,3.91,0,0,1-.52-1.47,5.71,5.71,0,0,1,0-1.6,11.23,11.23,0,0,0,.13-1.74,7.41,7.41,0,0,0-.18-1.66,4.56,4.56,0,0,0-.57-1.43,3.5,3.5,0,0,0-.88-1,3.24,3.24,0,0,0-.92-.52,3.19,3.19,0,0,0-.66-.16l-.25,0a.11.11,0,0,0-.11.11A.11.11,0,0,0,365.6,102Z"/>
                  <g>
                    <path class="e57f9390-5fe5-4d0c-843c-afe83e2e14e9" d="M277.59,141a4.5,4.5,0,0,0-.13.6c0,.2,0,.43-.07.7s0,.58,0,.92a6.79,6.79,0,0,0,.18,1.1,4.5,4.5,0,0,0,.48,1.19,3.41,3.41,0,0,0,.43.59c.19.2.34.33.51.49s.62.6.92.91a11.89,11.89,0,0,1,.81,1,4.88,4.88,0,0,1,.59,1,3.33,3.33,0,0,1,.25,1,5.16,5.16,0,0,1-.06,1c-.1.62-.25,1.16-.32,1.53s-.12.6-.12.6l.32-.53c.1-.17.23-.37.36-.61a8.46,8.46,0,0,0,.39-.84,4.51,4.51,0,0,0,.27-1.11,3.32,3.32,0,0,0-.14-1.31,4.67,4.67,0,0,0-.61-1.25,8.58,8.58,0,0,0-.88-1.11c-.33-.34-.67-.66-1-1l-.48-.41a4.79,4.79,0,0,1-.36-.41,5.52,5.52,0,0,1-.52-.95,9.48,9.48,0,0,1-.35-1c-.18-.61-.29-1.15-.37-1.52S277.59,141,277.59,141Z"/>
                    <path class="a642686f-ad79-4bfe-9994-3670d52ad24e" d="M277.49,140.92l-.16.19a5.18,5.18,0,0,0-.41.55,7.06,7.06,0,0,0-.52.94A4.57,4.57,0,0,0,276,144a3.79,3.79,0,0,0,0,.83,3.59,3.59,0,0,0,.2.88,3.89,3.89,0,0,0,1.18,1.61,6.67,6.67,0,0,0,1.83,1.07c.17.06.34.14.51.19l.49.16,1,.33c.31.12.59.25.88.38s.56.3.84.45.25.18.38.26l.38.26.33.3a2.22,2.22,0,0,1,.31.3l.28.32c.1.11.16.23.25.34a4,4,0,0,1,.22.34l.18.35a1.54,1.54,0,0,1,.15.35l.13.35a6.63,6.63,0,0,1,.15.69,6.91,6.91,0,0,1,.06,1.25,4.08,4.08,0,0,1-.06.53,2.79,2.79,0,0,1-.08.45c0,.13-.06.25-.08.36s-.07.19-.09.26l-.07.22h0a.12.12,0,0,0,.08.13.13.13,0,0,0,.13,0s0-.08.12-.21l.15-.26.16-.35a4.05,4.05,0,0,0,.17-.46c.06-.17.1-.36.15-.56a5.92,5.92,0,0,0,.1-.65,4.36,4.36,0,0,0,0-.73,7.84,7.84,0,0,0-.09-.8l-.11-.41a2.07,2.07,0,0,0-.14-.42c-.06-.14-.11-.29-.17-.43s-.15-.27-.23-.42a5.33,5.33,0,0,0-.57-.8,3.06,3.06,0,0,0-.35-.37l-.37-.37c-.28-.21-.56-.43-.86-.63s-.61-.37-.94-.53-.68-.31-1-.44l-1-.32-.49-.15-.45-.16a6.4,6.4,0,0,1-1.6-.85,3.12,3.12,0,0,1-1-1.19,3.18,3.18,0,0,1-.29-1.36,5.05,5.05,0,0,1,.18-1.23,8.86,8.86,0,0,1,.34-.94,6,6,0,0,1,.4-.79.1.1,0,0,0,0-.14A.16.16,0,0,0,277.49,140.92Z"/>
                    <path class="f16bbe12-b617-4c56-872e-c976291aaa0a" d="M277.49,140.93a1.12,1.12,0,0,0-.14.19,2.55,2.55,0,0,0-.27.57,2.66,2.66,0,0,0-.14,1,3.3,3.3,0,0,0,.3,1.27,4.84,4.84,0,0,0,.85,1.3,7.65,7.65,0,0,0,1.29,1.17,15.74,15.74,0,0,0,1.55,1,6.37,6.37,0,0,1,1.34,1,3.93,3.93,0,0,1,.92,1.29,3.52,3.52,0,0,1,.32,1.46,5.33,5.33,0,0,1-.2,1.44,7.62,7.62,0,0,1-.49,1.27,9,9,0,0,1-1.15,1.75c-.17.19-.31.34-.41.43a1.21,1.21,0,0,1-.16.14.09.09,0,0,0,0,.14.11.11,0,0,0,.13,0h0a3.41,3.41,0,0,0,.74-.48,7.73,7.73,0,0,0,1.52-1.69,7.31,7.31,0,0,0,.69-1.34,5.58,5.58,0,0,0,.37-1.68,4.49,4.49,0,0,0-.32-1.85,5.16,5.16,0,0,0-1.12-1.63,7.49,7.49,0,0,0-1.59-1.17l-.78-.43-.72-.45a9.7,9.7,0,0,1-1.24-1,5,5,0,0,1-.85-1,3.41,3.41,0,0,1-.41-1,2.83,2.83,0,0,1,0-.86,3.35,3.35,0,0,1,.12-.55l.08-.18a.11.11,0,0,0-.05-.14A.12.12,0,0,0,277.49,140.93Z"/>
                  </g>
                  <path class="a642686f-ad79-4bfe-9994-3670d52ad24e" d="M374,211.21l-.12-.12c-.09-.08-.2-.2-.37-.35a18,18,0,0,0-1.55-1.25,22.47,22.47,0,0,0-2.65-1.63,37,37,0,0,0-3.68-1.69c-1.37-.57-2.89-1.09-4.44-1.69a36.91,36.91,0,0,1-4.67-2,13.27,13.27,0,0,1-2.07-1.42,10.1,10.1,0,0,1-.87-.86,8.2,8.2,0,0,1-.71-1,8.75,8.75,0,0,1-1.1-4.72,22.27,22.27,0,0,1,.81-5.15l.18-.66c.06-.22.11-.46.17-.69.1-.46.19-.91.26-1.37a20.75,20.75,0,0,0,.22-2.7,19.48,19.48,0,0,0-.57-5.09,21,21,0,0,0-1.6-4.31,23.06,23.06,0,0,0-2-3.33,25.76,25.76,0,0,0-1.92-2.33c-.58-.61-1.07-1.06-1.41-1.36l-.4-.34-.14-.11a.22.22,0,0,0-.31,0,.19.19,0,0,0,0,.27h0l.12.12.34.36c.29.32.71.81,1.21,1.45a26.36,26.36,0,0,1,1.64,2.4A24.24,24.24,0,0,1,350,175a20.78,20.78,0,0,1,1.23,4.13,19.36,19.36,0,0,1,.3,4.73,19.73,19.73,0,0,1-.32,2.49c-.09.41-.18.83-.28,1.24-.06.21-.1.4-.17.62l-.19.64a21.54,21.54,0,0,0-1.07,5.59,11.43,11.43,0,0,0,.24,3,9.11,9.11,0,0,0,.44,1.46,10,10,0,0,0,.69,1.39,10.39,10.39,0,0,0,.93,1.25,12.55,12.55,0,0,0,1.12,1.07c.39.32.8.61,1.22.89s.85.5,1.28.72a32,32,0,0,0,5.06,2l4.53,1.4c1.39.44,2.63.89,3.71,1.32s2,.89,2.73,1.28,1.29.74,1.66,1l.57.39a.22.22,0,0,0,.31-.05A.18.18,0,0,0,374,211.21Z"/>
                  <path class="f16bbe12-b617-4c56-872e-c976291aaa0a" d="M344.43,167l.58.43c.38.28.92.71,1.6,1.27s1.47,1.26,2.34,2.1a38.23,38.23,0,0,1,2.75,2.93,28.7,28.7,0,0,1,2.71,3.79c.41.71.81,1.44,1.16,2.21a19.07,19.07,0,0,1,.89,2.4,15.76,15.76,0,0,1,.55,2.56c.06.43.1.88.12,1.31l0,.36v.33c0,.21,0,.44,0,.66a20.21,20.21,0,0,1-1,5.41c-.57,1.8-1.31,3.6-1.94,5.45a27.06,27.06,0,0,0-1.38,5.63,18.58,18.58,0,0,0,.2,5.45,21.94,21.94,0,0,0,1.42,4.64,31.67,31.67,0,0,0,1.85,3.65c.61,1.05,1.22,1.93,1.72,2.64.24.36.48.68.68.95l.52.69.45.56a.22.22,0,0,0,.31.05.2.2,0,0,0,.06-.27h0s-.13-.21-.36-.61-.58-1-1-1.73-.9-1.66-1.41-2.73a33,33,0,0,1-1.49-3.64,21.76,21.76,0,0,1-1.05-4.43,17.44,17.44,0,0,1,.07-5,25.78,25.78,0,0,1,1.45-5.23c.67-1.77,1.43-3.58,2.05-5.49a24.26,24.26,0,0,0,.77-2.93,18,18,0,0,0,.33-3c0-.26,0-.5,0-.76v-.74a14.44,14.44,0,0,0-.17-1.49,15.2,15.2,0,0,0-.69-2.85,20.78,20.78,0,0,0-2.45-5,26.39,26.39,0,0,0-3.15-3.84,30.7,30.7,0,0,0-3.14-2.81,30.13,30.13,0,0,0-2.65-1.89c-.76-.5-1.38-.85-1.81-1.08l-.67-.35a.24.24,0,0,0-.3.09A.2.2,0,0,0,344.43,167Z"/>
                  <path class="a443fcaa-4a01-4790-a617-e0a73e9e61ef" d="M344.43,166.46l0,0,.09.11.31.46a10.6,10.6,0,0,1,.92,1.88,13.76,13.76,0,0,1,.78,3.12,17.28,17.28,0,0,1,0,4.13,23.43,23.43,0,0,1-1.13,4.79c-.29.82-.66,1.69-.94,2.68a13.61,13.61,0,0,0-.52,3,10.38,10.38,0,0,0,.32,3.25,9.6,9.6,0,0,0,1.49,3.09,13.38,13.38,0,0,0,2.41,2.52,23,23,0,0,0,2.85,2c2,1.16,4,2.11,6,3.08,1,.5,1.9,1,2.77,1.51A13.83,13.83,0,0,1,361,203l.56.44.07.06h0l0,0,0,0,.14.13.29.26.28.26.24.25a5.78,5.78,0,0,1,.49.5l.47.52c.15.18.29.36.44.53a10.73,10.73,0,0,1,1.36,2.24,9.07,9.07,0,0,1,.75,4.6,17.69,17.69,0,0,1-.94,4.05c-.41,1.2-.81,2.24-1.13,3.11s-.56,1.56-.72,2l-.23.72a.2.2,0,0,0,.15.26.21.21,0,0,0,.26-.12h0l.32-.69c.21-.45.54-1.1.95-1.93s.94-1.84,1.47-3a17.78,17.78,0,0,0,1.34-4.24,11.2,11.2,0,0,0,.11-2.61,9.65,9.65,0,0,0-.66-2.76,12.39,12.39,0,0,0-1.44-2.64l-.46-.62c-.16-.21-.34-.4-.5-.61s-.36-.39-.55-.59l-.28-.29-.27-.27-.28-.27-.14-.13-.08-.08L363,202c-.21-.19-.43-.38-.65-.55a16.17,16.17,0,0,0-1.37-1c-.94-.61-1.92-1.15-2.9-1.66-2-1-4-2-5.8-3.06a15.38,15.38,0,0,1-4.65-3.87,8.5,8.5,0,0,1-1.24-2.46,8.66,8.66,0,0,1-.35-2.68,12.63,12.63,0,0,1,.37-2.67c.2-.86.51-1.73.78-2.63s.47-1.78.62-2.64a23,23,0,0,0,.27-2.52,16.5,16.5,0,0,0-.36-4.42,13.08,13.08,0,0,0-1.17-3.23,10.07,10.07,0,0,0-1.22-1.87,6.32,6.32,0,0,0-.55-.6.23.23,0,0,0-.31,0,.18.18,0,0,0,0,.26Z"/>
                  <g>
                    <polygon class="b265436e-efd8-4e13-8bce-1bc232a91dd1" points="276.74 141.37 343 162.88 366.24 101.57 299.99 80.06 276.74 141.37"/>
                    <g class="a3f7e198-35ea-4ca3-b3d0-cc3f5bce73f0">
                      <path class="b2d9711e-9ccf-4d5b-b7f4-cd33e8bb2b67" d="M295.11,108c5.81,11.19,17,18.34,29.38,20l.89.11a41.51,41.51,0,0,0,21.71-3.28,38.31,38.31,0,0,0,14.56-11.19l4.59-12.11L300,80.06l-7.74,20.41A34.16,34.16,0,0,0,295.11,108Z"/>
                    </g>
                    <g class="f66e87c7-c01f-48cb-ae4f-cea45f3f0654">
                      <path class="b8616209-f29f-4560-9c59-568c424f3928" d="M321.21,121.75q1.65,3.16,3.28,6.29l4.68,9,7,13.29,5,9.38,1.69,3.15.21.4.23-.1-.2-.41c-.28-.54-.83-1.64-1.61-3.19l-4.8-9.45-6.84-13.35c-1.44-2.77-2.92-5.65-4.43-8.57l-3.47-6.71-8-15.25L307,92.9l-5-9.38-1.82-3.41-.18,0-.06.16,1.74,3.45,4.8,9.45c2,3.91,4.34,8.47,6.85,13.35S318.52,116.55,321.21,121.75Z"/>
                      <path class="bbab08e9-c686-489a-8431-686671367829" d="M276.74,141.37l.91.29c18.08-28,53.31-43.7,88.26-39.22l.33-.87-3.66-1.19a96.62,96.62,0,0,0-47.9,8,88.62,88.62,0,0,0-36.6,29.44Z"/>
                    </g>
                    <polygon class="b265436e-efd8-4e13-8bce-1bc232a91dd1" points="353.95 164.62 342.48 161.96 337.55 171.91 353.95 164.62"/>
                  </g>
                </g>
                <path class="ecaccc87-c984-4eaa-8c34-7a81fde5eed8" d="M314.68,108.41C335.44,161.7,353.4,237.22,427.4,279.22"/>
              </g>
              <g>
                <g>
                  <path class="e57f9390-5fe5-4d0c-843c-afe83e2e14e9" d="M242.14,76.2s0,.38,0,1,0,1.61-.09,2.71a17.26,17.26,0,0,1-.26,1.75,8,8,0,0,1-.58,1.79,5,5,0,0,1-.47.81l-.68.84c-.5.63-1,1.28-1.41,2a14.85,14.85,0,0,0-1.14,2.16,8,8,0,0,0-.61,2.33,5.71,5.71,0,0,0,.22,2.28A7.7,7.7,0,0,0,238,95.7,14.61,14.61,0,0,0,239,97c.31.38.6.69.84,1,.47.51.76.8.76.8s-.14-.37-.42-1-.72-1.5-1.13-2.52a7.51,7.51,0,0,1-.44-1.66,5.17,5.17,0,0,1,.06-1.79,8,8,0,0,1,.66-1.88,18.32,18.32,0,0,1,1.08-1.9c.4-.63.84-1.24,1.27-1.84.24-.32.45-.59.71-1a6.21,6.21,0,0,0,.54-1.14,7.86,7.86,0,0,0,.41-2.2,10.67,10.67,0,0,0-.1-1.92,10.22,10.22,0,0,0-.32-1.58,9.65,9.65,0,0,0-.37-1.17A7.7,7.7,0,0,0,242.14,76.2Z"/>
                  <path class="a642686f-ad79-4bfe-9994-3670d52ad24e" d="M242,76.33a10.09,10.09,0,0,1,1,1.22,14.08,14.08,0,0,1,.93,1.51,8.31,8.31,0,0,1,.76,2,5.34,5.34,0,0,1,0,2.42,5.56,5.56,0,0,1-1.32,2.35,11.08,11.08,0,0,1-2.48,1.93c-.25.14-.48.29-.74.42l-.8.41-1.6.85c-.53.32-1.08.71-1.61,1.06s-1,.8-1.45,1.19-.86.89-1.26,1.35l-.52.73a4.85,4.85,0,0,0-.47.74,8.35,8.35,0,0,0-.71,1.56,7,7,0,0,0-.24.78c-.06.26-.11.52-.16.78a4.92,4.92,0,0,0-.09.76c0,.25,0,.5,0,.74,0,.49,0,1,.14,1.4a9.14,9.14,0,0,0,.3,1.25,9,9,0,0,0,.41,1.08,9.08,9.08,0,0,0,.93,1.64l.41.56.35.39.29.32a.19.19,0,0,0,.27,0,.15.15,0,0,0,.05-.22h0l-.2-.36-.25-.42-.28-.58a5.69,5.69,0,0,1-.3-.74,6.64,6.64,0,0,1-.29-.89,6.1,6.1,0,0,1-.23-1,10.18,10.18,0,0,1-.13-1.14c0-.4,0-.81,0-1.23,0-.21.07-.42.1-.64a3.74,3.74,0,0,1,.13-.65c.07-.21.13-.43.19-.65a6,6,0,0,1,.27-.65,4.71,4.71,0,0,1,.3-.65l.37-.63a4.37,4.37,0,0,1,.44-.62l.47-.61.56-.56c.2-.19.36-.4.57-.57.44-.33.84-.71,1.3-1s.9-.61,1.41-.9l1.58-.88.8-.42c.28-.14.55-.32.81-.48a11.3,11.3,0,0,0,2.83-2.39,6.41,6.41,0,0,0,1.46-3.11,5.94,5.94,0,0,0,0-1.57A7.46,7.46,0,0,0,246,80.8a8.06,8.06,0,0,0-1.16-2.19,10.93,10.93,0,0,0-1.24-1.45,8.69,8.69,0,0,0-.92-.82c-.22-.18-.35-.27-.35-.27a.21.21,0,0,0-.28,0A.17.17,0,0,0,242,76.33Z"/>
                  <path class="f16bbe12-b617-4c56-872e-c976291aaa0a" d="M242,76.32s.07.09.2.29a6.07,6.07,0,0,1,.42.9,4.87,4.87,0,0,1,.24,1.48,5.6,5.6,0,0,1-.34,1.88,8.42,8.42,0,0,1-1.11,2,15.8,15.8,0,0,1-1.8,2c-.35.33-.71.66-1.1,1l-1.2,1A12.4,12.4,0,0,0,235,89.39a8.53,8.53,0,0,0-1.36,3.14,7.43,7.43,0,0,0,.13,3.26A9.19,9.19,0,0,0,235,98.54a12.58,12.58,0,0,0,1.71,2.09,13.63,13.63,0,0,0,3.26,2.43,6.42,6.42,0,0,0,1.47.6h0a.2.2,0,0,0,.24-.13.18.18,0,0,0-.11-.2l-.33-.18a10.61,10.61,0,0,1-.87-.62,16,16,0,0,1-2.65-2.65,14.37,14.37,0,0,1-1.32-2,9,9,0,0,1-.86-2.41,6.33,6.33,0,0,1,0-2.6,6.88,6.88,0,0,1,1.14-2.48,11.14,11.14,0,0,1,2-2.15A25.38,25.38,0,0,0,241,86.06a14.33,14.33,0,0,0,1.82-2.4,7.92,7.92,0,0,0,1-2.49,5.67,5.67,0,0,0,.07-2.27,5.12,5.12,0,0,0-.61-1.64,4.32,4.32,0,0,0-.69-.91,3.57,3.57,0,0,0-.31-.28.23.23,0,0,0-.28,0A.17.17,0,0,0,242,76.32Z"/>
                  <g>
                    <path class="e57f9390-5fe5-4d0c-843c-afe83e2e14e9" d="M74.34,36a7.45,7.45,0,0,0-.91.67,10.68,10.68,0,0,0-1,.85,12.68,12.68,0,0,0-1.13,1.23A11.09,11.09,0,0,0,70.2,40.4a7.75,7.75,0,0,0-.84,2.1,5.45,5.45,0,0,0-.15,1.23c0,.46.05.79.08,1.17,0,.72.1,1.45.11,2.18a16.44,16.44,0,0,1-.1,2.13,7.78,7.78,0,0,1-.45,1.93,5.54,5.54,0,0,1-.91,1.59A8.37,8.37,0,0,1,66.65,54c-.91.72-1.77,1.28-2.35,1.69s-.9.67-.9.67L64.49,56c.35-.12.77-.26,1.25-.45a16.81,16.81,0,0,0,1.58-.71,8.83,8.83,0,0,0,1.75-1.18,6.29,6.29,0,0,0,1.43-1.89,7.83,7.83,0,0,0,.74-2.3,13.67,13.67,0,0,0,.18-2.39,22.41,22.41,0,0,0-.17-2.33c0-.35-.09-.7-.13-1a4.75,4.75,0,0,1,0-.92A8.12,8.12,0,0,1,71.62,41a16.33,16.33,0,0,1,.73-1.63c.52-1,1-1.82,1.39-2.4Z"/>
                    <path class="a642686f-ad79-4bfe-9994-3670d52ad24e" d="M74.29,35.84l-.45.08c-.29.06-.72.14-1.25.3a12.29,12.29,0,0,0-1.87.71,9.19,9.19,0,0,0-2.2,1.39,7.67,7.67,0,0,0-1.06,1.07,6.24,6.24,0,0,0-1.23,4.74,10,10,0,0,0,1.15,3.35c.15.26.28.53.45.78l.46.73.91,1.47c.28.48.48.94.73,1.42s.38,1,.57,1.47c.09.25.12.5.19.75s.13.49.18.74,0,.49.08.74a3,3,0,0,1,0,.73c0,.24,0,.48,0,.72a4.06,4.06,0,0,1-.09.7c0,.23,0,.46-.11.68l-.2.66a2.75,2.75,0,0,1-.24.62c-.08.2-.17.4-.26.6a11.44,11.44,0,0,1-.65,1.08,8.83,8.83,0,0,1-.73.93,11.25,11.25,0,0,1-1.48,1.43,6.63,6.63,0,0,1-.67.51l-.56.38-.45.26-.37.21h0a.17.17,0,0,0-.06.25.2.2,0,0,0,.23.07l.43-.15.51-.18.67-.3c.26-.11.51-.27.8-.43a7.2,7.2,0,0,0,.89-.59,8.89,8.89,0,0,0,.95-.75,10.73,10.73,0,0,0,.94-1c.31-.34.57-.75.88-1.15.12-.21.24-.44.36-.66a3.85,3.85,0,0,0,.34-.71c.1-.24.19-.49.29-.74a7.69,7.69,0,0,0,.21-.79,8.4,8.4,0,0,0,.23-1.67,4.12,4.12,0,0,0,0-.86c0-.29,0-.58,0-.87-.1-.57-.2-1.16-.36-1.73s-.37-1.13-.62-1.69-.53-1.13-.82-1.64L70,48.09l-.48-.72c-.16-.22-.27-.46-.41-.69A9.74,9.74,0,0,1,68,43.89a5.16,5.16,0,0,1,.13-2.63,5.62,5.62,0,0,1,1.31-2.1,9.22,9.22,0,0,1,1.78-1.44,14,14,0,0,1,1.62-.9,15.07,15.07,0,0,1,1.52-.63.18.18,0,0,0,.12-.23A.22.22,0,0,0,74.29,35.84Z"/>
                    <path class="f16bbe12-b617-4c56-872e-c976291aaa0a" d="M74.28,35.85a2.75,2.75,0,0,0-.42.1,5.59,5.59,0,0,0-1.09.48,5.71,5.71,0,0,0-1.42,1.16,6.12,6.12,0,0,0-1.18,2,7.92,7.92,0,0,0-.47,2.62,11.61,11.61,0,0,0,.29,2.9,21.51,21.51,0,0,0,.86,2.94,10.12,10.12,0,0,1,.56,2.75A6.49,6.49,0,0,1,71,53.47a6.93,6.93,0,0,1-1.38,2.28,10.47,10.47,0,0,1-2.07,1.7,15.53,15.53,0,0,1-2.24,1.17,18.82,18.82,0,0,1-3.74,1.12,9.61,9.61,0,0,1-1.1.14,2.87,2.87,0,0,1-.39,0,.19.19,0,0,0-.2.17.16.16,0,0,0,.14.18h0a6.66,6.66,0,0,0,1.61.13,15.27,15.27,0,0,0,4.15-.65,14.33,14.33,0,0,0,2.62-1A11.12,11.12,0,0,0,71,56.83a8,8,0,0,0,1.88-2.78,8.16,8.16,0,0,0,.52-3.34,11.23,11.23,0,0,0-.7-3.22l-.51-1.39c-.16-.45-.3-.9-.43-1.34a15.67,15.67,0,0,1-.46-2.57,8.39,8.39,0,0,1,.15-2.28,5.69,5.69,0,0,1,.72-1.79,5.49,5.49,0,0,1,1-1.17,6.35,6.35,0,0,1,.85-.6,2.76,2.76,0,0,1,.33-.16A.18.18,0,0,0,74.5,36,.2.2,0,0,0,74.28,35.85Z"/>
                  </g>
                  <path class="a5a18ea5-02cb-441e-8f9b-860ee1a7738d" d="M117.28,230.08s0-.09,0-.29,0-.48-.07-.85a26.41,26.41,0,0,0-.54-3.27,33.79,33.79,0,0,0-1.55-4.94,56.12,56.12,0,0,0-2.88-6.1c-1.14-2.19-2.53-4.47-3.89-6.88a53.22,53.22,0,0,1-3.77-7.6,19.45,19.45,0,0,1-1-4.05,12.68,12.68,0,0,1-.1-2,12.38,12.38,0,0,1,.24-2,15.66,15.66,0,0,1,4.39-7.42,44,44,0,0,1,7.51-6l1.06-.69,1.08-.74c.71-.5,1.4-1,2.05-1.54a40.93,40.93,0,0,0,3.68-3.35A36.16,36.16,0,0,0,129,165a37.47,37.47,0,0,0,3.21-7.39,38,38,0,0,0,1.7-11.64c0-1.42-.12-2.52-.2-3.28-.05-.38-.09-.67-.12-.86l-.05-.3a.39.39,0,0,0-.45-.3.38.38,0,0,0-.34.37h0s0,.1,0,.28,0,.48,0,.84a31.31,31.31,0,0,1-.17,3.19,37.28,37.28,0,0,1-.77,4.9,39.43,39.43,0,0,1-1.85,6.15,36.91,36.91,0,0,1-9,13.36,37.7,37.7,0,0,1-3.52,3c-.63.46-1.28.92-1.93,1.36-.34.21-.64.42-1,.64l-1.06.65a43.82,43.82,0,0,0-8.41,6.31,22.13,22.13,0,0,0-3.35,4.17,17,17,0,0,0-1.24,2.4,16.54,16.54,0,0,0-.78,2.57,14.62,14.62,0,0,0-.3,2.63,17,17,0,0,0,.18,2.58,19.37,19.37,0,0,0,.54,2.45,23.29,23.29,0,0,0,.82,2.31,49.75,49.75,0,0,0,4.38,7.94l4.38,6.59c1.33,2,2.45,3.93,3.37,5.64a43.26,43.26,0,0,1,2.1,4.54c.5,1.3.82,2.34,1,3l.29,1.12a.41.41,0,0,0,.48.27A.36.36,0,0,0,117.28,230.08Z"/>
                  <path class="e4fd35ad-f2c9-4101-a73f-e144cf7c020f" d="M132.31,140.5s.09.41.25,1.18.37,1.9.58,3.35.43,3.22.56,5.24a60.06,60.06,0,0,1,.06,6.77,45.79,45.79,0,0,1-1.06,7.87,42.43,42.43,0,0,1-1.18,4.14,32,32,0,0,1-4.22,8.09c-.46.64-1,1.27-1.48,1.86l-.42.49-.4.44c-.26.29-.55.59-.83.88a41.23,41.23,0,0,1-8.1,6.13c-3,1.8-6.25,3.41-9.41,5.2a56.67,56.67,0,0,0-8.87,6,36.15,36.15,0,0,0-6.52,7.43,39.18,39.18,0,0,0-3.86,7.64,52.2,52.2,0,0,0-2,6.78c-.48,2-.75,3.84-1,5.31-.11.74-.19,1.4-.25,2s-.11,1.06-.15,1.46c-.07.79-.1,1.22-.1,1.22a.36.36,0,0,0,.36.38.39.39,0,0,0,.42-.28h0s.09-.41.27-1.18.44-1.91.81-3.34.86-3.15,1.5-5.09a58.23,58.23,0,0,1,2.52-6.39,40.57,40.57,0,0,1,4.11-7,33.73,33.73,0,0,1,6.3-6.55,52.35,52.35,0,0,1,8.48-5.41c3.1-1.65,6.39-3.26,9.61-5.14A53.26,53.26,0,0,0,123,186.9a35.9,35.9,0,0,0,4.21-3.65c.32-.33.64-.65,1-1l.46-.51.42-.49c.6-.71,1.13-1.42,1.64-2.15a30.06,30.06,0,0,0,2.61-4.49,34.51,34.51,0,0,0,2.84-9.15,42.54,42.54,0,0,0,.54-8.39,49.41,49.41,0,0,0-.75-7,51.43,51.43,0,0,0-1.23-5.28c-.42-1.45-.82-2.57-1.11-3.33s-.47-1.15-.47-1.15a.42.42,0,0,0-.52-.2A.36.36,0,0,0,132.31,140.5Z"/>
                  <path class="e57f9390-5fe5-4d0c-843c-afe83e2e14e9" d="M133,139.76v.08s0,.13,0,.23-.07.53-.15.94a18.88,18.88,0,0,1-1.09,3.46,24.55,24.55,0,0,1-2.83,4.94,33.21,33.21,0,0,1-5.16,5.48,48.28,48.28,0,0,1-7.5,5.17c-1.41.79-3,1.56-4.6,2.57a27.74,27.74,0,0,0-4.49,3.48,19.45,19.45,0,0,0-3.61,4.66,16,16,0,0,0-1.84,5.65,21,21,0,0,0,.11,5.87,34.85,34.85,0,0,0,1.39,5.61c1.23,3.61,2.83,7,4.22,10.32.69,1.66,1.35,3.29,1.87,4.9.26.8.48,1.6.65,2.38.08.4.15.79.2,1.17l0,.15s0,0,0,0v.12l0,.32.06.64,0,.64,0,.59c0,.39,0,.78,0,1.18s0,.79,0,1.18,0,.78-.08,1.16a17.84,17.84,0,0,1-.93,4.39,16.87,16.87,0,0,1-4.72,6.89,37,37,0,0,1-6.31,4.39c-2,1.16-3.9,2.13-5.42,2.94s-2.7,1.49-3.51,2l-1.21.72a.34.34,0,0,0-.12.5.43.43,0,0,0,.51.13h0L89.9,234c.84-.37,2.1-.88,3.69-1.56s3.56-1.45,5.76-2.5a35.42,35.42,0,0,0,7.1-4.22,21.07,21.07,0,0,0,3.4-3.35A17.83,17.83,0,0,0,112.4,218a20.67,20.67,0,0,0,1.35-5c0-.43.09-.87.14-1.31s0-.88.07-1.32,0-.9,0-1.36v-.68l0-.64,0-.65,0-.32,0-.2,0-.18c0-.47-.11-.93-.19-1.4a27.6,27.6,0,0,0-.65-2.72,49.14,49.14,0,0,0-1.86-5.23c-1.4-3.41-2.92-6.76-4-10.14a23.16,23.16,0,0,1-1.46-10,14.16,14.16,0,0,1,1.38-4.57,16.17,16.17,0,0,1,2.86-3.91,25.42,25.42,0,0,1,3.84-3.16c1.33-.93,2.84-1.76,4.33-2.68a49.82,49.82,0,0,0,4.12-2.86,44.68,44.68,0,0,0,3.51-3,35.35,35.35,0,0,0,2.85-3.14,30,30,0,0,0,2.15-3.1,22.62,22.62,0,0,0,2.45-5.5,16.76,16.76,0,0,0,.69-3.76,9.62,9.62,0,0,0,0-1.37.38.38,0,0,0-.43-.32.37.37,0,0,0-.36.33Z"/>
                  <polygon class="fe96ae62-c247-4c02-a47a-d900edda7b15" points="72.72 35.64 135.53 133.51 243.33 76.5 180.53 -21.37 72.72 35.64"/>
                  <g class="b6971cd6-f5c4-42ec-bcbd-2a61b4958d8f">
                    <path class="bf80c6fc-a132-4a27-a409-a480a3f0ed30" d="M139.13,10.58c-6.08,20.92.21,42.16,14.76,57.34L155,69A70.48,70.48,0,0,0,188.4,87.36a75.8,75.8,0,0,0,33.65.39l21.28-11.26-62.8-97.86-35.9,19A59.36,59.36,0,0,0,139.13,10.58Z"/>
                  </g>
                  <g class="f66e87c7-c01f-48cb-ae4f-cea45f3f0654">
                    <path class="e1527a6a-acff-46d9-a04d-12cc1073020c" d="M157.29,56.15q-1.69,5.91-3.4,11.77c-1.64,5.72-3.27,11.36-4.83,16.79-2.6,9.12-5,17.63-7.1,24.93s-3.76,13.39-5,17.65c-.8,2.89-1.37,4.93-1.65,6-.14.49-.21.75-.21.75l.44.1s.08-.25.23-.75l1.8-5.91c1.28-4.24,3.1-10.3,5.28-17.57L150.28,85c1.51-5.18,3.09-10.55,4.68-16,1.21-4.15,2.44-8.34,3.67-12.53,2.8-9.73,5.61-19.45,8.24-28.56S171.88,10.27,174,3s3.76-13.39,4.95-17.65c1-3.44,1.58-5.69,1.78-6.43l-.16-.26-.28.15c-.23.74-.91,3-1.95,6.39C177-10.59,175.21-4.53,173,2.75s-4.68,15.77-7.37,24.87S160.14,46.43,157.29,56.15Z"/>
                    <path class="aa1e17f5-cd9f-4d7b-9170-a6a4f1400aa3" d="M72.72,35.64,73.58,37C133,18.7,200.11,34.79,241.81,77.3l1.52-.81-3.46-5.4c-20.19-19-45.89-32.55-74.8-39.47a176.14,176.14,0,0,0-86.17.76Z"/>
                  </g>
                  <polygon class="fe96ae62-c247-4c02-a47a-d900edda7b15" points="148.18 147.28 135.98 131.75 116.92 139.79 148.18 147.28"/>
                </g>
                <path class="ecaccc87-c984-4eaa-8c34-7a81fde5eed8" d="M167.44,38.36c-19,103.59,56,202.86,244,289.86"/>
              </g>
            </g>
          </g>
        </g>
      </g>
    </g>
  </g>
</svg>
