<svg id="e962a460-3349-45d6-910d-c5c9a4b3251b" data-name="Layer 1" xmlns="http://www.w3.org/2000/svg" xmlns:xlink="http://www.w3.org/1999/xlink" width="462.9" height="482.5" viewBox="0 0 462.9 482.5">
  <defs>
    <style>
      .b3145f5b-4395-4e93-a87e-6579c2597c44, .bfe740e0-c997-4db5-a959-bf1154fe44c3, .f5fb21e1-b456-49a6-b1c1-0dd7924f3caf {
        fill: none;
      }

      .b7d79df6-6034-446e-807c-6fe117afbb05 {
        opacity: 0.5;
      }

      .e7d53615-a63c-40ba-b333-c0f3e06fc17f {
        fill: url(#e07597a8-1746-4127-9554-9b42381f7c4b);
      }

      .a71293c4-0db0-452f-b7a6-35e1674afa4a {
        fill: #31d0e5;
        stroke-width: 6px;
        stroke: url(#f5fe277e-0460-4075-9f2b-9d8b7929bc8a);
      }

      .a71293c4-0db0-452f-b7a6-35e1674afa4a, .b1ac64f2-008b-427b-8020-6be6be5b0bd0, .bfe740e0-c997-4db5-a959-bf1154fe44c3, .f5fb21e1-b456-49a6-b1c1-0dd7924f3caf {
        stroke-miterlimit: 10;
      }

      .b3cc0712-dc03-4023-8395-4fbdf2badd1e {
        clip-path: url(#fb824656-e7da-4ccd-9ec5-70aba636d82b);
      }

      .b1022cc4-0601-4552-8438-ae6c8352ffc2, .b1ac64f2-008b-427b-8020-6be6be5b0bd0 {
        fill: #fff;
      }

      .b1ac64f2-008b-427b-8020-6be6be5b0bd0, .f5fb21e1-b456-49a6-b1c1-0dd7924f3caf {
        stroke: #afafaf;
      }

      .e1b64d72-38ff-46ec-8d29-b92cc2785337 {
        fill: #d8d8d8;
      }

      .bfe740e0-c997-4db5-a959-bf1154fe44c3 {
        stroke: #d8d8d8;
      }

      .b6129057-07e1-4514-9c8a-6d5cde591b3e {
        fill: #afafaf;
      }
    </style>
    <linearGradient id="e07597a8-1746-4127-9554-9b42381f7c4b" x1="52.73" y1="118.79" x2="402" y2="358.11" gradientUnits="userSpaceOnUse">
      <stop offset="0" stop-color="#9b81cf"/>
      <stop offset="1" stop-color="#3b139b"/>
    </linearGradient>
    <linearGradient id="f5fe277e-0460-4075-9f2b-9d8b7929bc8a" x1="25.67" y1="241.25" x2="437.24" y2="241.25" gradientUnits="userSpaceOnUse">
      <stop offset="0" stop-color="#4c1da9"/>
      <stop offset="1" stop-color="#997ece"/>
    </linearGradient>
    <clipPath id="fb824656-e7da-4ccd-9ec5-70aba636d82b">
      <circle class="b3145f5b-4395-4e93-a87e-6579c2597c44" cx="228.84" cy="243.15" r="202.78"/>
    </clipPath>
  </defs>
  <g>
    <g>
      <path class="b7d79df6-6034-446e-807c-6fe117afbb05" d="M444.68,252.5a208.28,208.28,0,0,0-25.42-100,211.66,211.66,0,0,0-187.81-114c-116.9,0-211.67,94.78-211.67,211.68s94.77,211.68,211.67,211.68c3,0,5.93-.08,8.87-.2C353.63,459.07,444.68,366.42,444.68,252.5Z"/>
      <g>
        <circle class="e7d53615-a63c-40ba-b333-c0f3e06fc17f" cx="231.45" cy="241.25" r="211.68"/>
        <circle class="a71293c4-0db0-452f-b7a6-35e1674afa4a" cx="231.45" cy="241.25" r="202.78"/>
      </g>
    </g>
    <g class="b3cc0712-dc03-4023-8395-4fbdf2badd1e">
      <g>
        <g>
          <path class="b1022cc4-0601-4552-8438-ae6c8352ffc2" d="M75.13,184.41s3.45-23.12,30.16-7.73-23,20.56-45.84,17.9S75.13,184.41,75.13,184.41Z"/>
          <path class="b1022cc4-0601-4552-8438-ae6c8352ffc2" d="M122.82,161.5c22.1,9.29,3.05,15.21-14.87,15.37S100.72,152.21,122.82,161.5Z"/>
        </g>
        <g>
          <path class="b1022cc4-0601-4552-8438-ae6c8352ffc2" d="M360,260.45s3.44-23.12,30.15-7.73-22.95,20.57-45.83,17.9S360,260.45,360,260.45Z"/>
          <path class="b1022cc4-0601-4552-8438-ae6c8352ffc2" d="M407.66,237.54c22.1,9.3,3.06,15.22-14.86,15.37S385.56,228.25,407.66,237.54Z"/>
        </g>
        <g>
          <g>
            <path class="b1ac64f2-008b-427b-8020-6be6be5b0bd0" d="M130.76,151.8l101.38,79.79s31,16.32,94.77-54.52l81.56-181L282.11-23.63l38.26,78.77C318.57,58.14,317.86,81.28,130.76,151.8Z"/>
            <path class="e1b64d72-38ff-46ec-8d29-b92cc2785337" d="M326.35,176.14,407.53-3.53l-124.36-19L321,54.8S336.31,86.63,326.35,176.14Z"/>
          </g>
          <g>
            <g>
              <line class="bfe740e0-c997-4db5-a959-bf1154fe44c3" x1="162.48" y1="155.55" x2="247.28" y2="220.26"/>
              <line class="bfe740e0-c997-4db5-a959-bf1154fe44c3" x1="175.98" y1="148.05" x2="262.86" y2="214.35"/>
              <line class="bfe740e0-c997-4db5-a959-bf1154fe44c3" x1="191.26" y1="142.73" x2="275.2" y2="206.79"/>
              <line class="bfe740e0-c997-4db5-a959-bf1154fe44c3" x1="217.78" y1="130.32" x2="295.11" y2="189.33"/>
              <line class="bfe740e0-c997-4db5-a959-bf1154fe44c3" x1="230.5" y1="122.53" x2="305.28" y2="181.5"/>
              <line class="bfe740e0-c997-4db5-a959-bf1154fe44c3" x1="203.59" y1="136.37" x2="285.95" y2="199.22"/>
              <line class="bfe740e0-c997-4db5-a959-bf1154fe44c3" x1="244.17" y1="116.5" x2="317.85" y2="172.73"/>
              <line class="bfe740e0-c997-4db5-a959-bf1154fe44c3" x1="257.67" y1="109" x2="328.22" y2="162.84"/>
              <line class="bfe740e0-c997-4db5-a959-bf1154fe44c3" x1="272.95" y1="103.69" x2="331.47" y2="148.35"/>
              <line class="bfe740e0-c997-4db5-a959-bf1154fe44c3" x1="299.47" y1="91.28" x2="342.11" y2="123.82"/>
              <line class="bfe740e0-c997-4db5-a959-bf1154fe44c3" x1="312.19" y1="83.48" x2="349.11" y2="109.78"/>
              <line class="bfe740e0-c997-4db5-a959-bf1154fe44c3" x1="318.71" y1="73.62" x2="355.63" y2="99.92"/>
              <line class="bfe740e0-c997-4db5-a959-bf1154fe44c3" x1="285.28" y1="97.32" x2="335.93" y2="135.98"/>
            </g>
            <path class="f5fb21e1-b456-49a6-b1c1-0dd7924f3caf" d="M307.85-1.42s80,8.93,94.37,9.38"/>
            <path class="f5fb21e1-b456-49a6-b1c1-0dd7924f3caf" d="M313.5,9.1s70.26,8.29,84.57,8.75"/>
            <path class="f5fb21e1-b456-49a6-b1c1-0dd7924f3caf" d="M319.05,21.34s58.87,5,73.19,5.44"/>
            <path class="f5fb21e1-b456-49a6-b1c1-0dd7924f3caf" d="M328,37.1S339.11,59,337.3,83.45L370.23,79s17.57-41.47,17-38.93C387.07,40.87,328,37.1,328,37.1Z"/>
            <path class="f5fb21e1-b456-49a6-b1c1-0dd7924f3caf" d="M338.32,95.6s22.15-3.4,24-3.93"/>
            <path class="f5fb21e1-b456-49a6-b1c1-0dd7924f3caf" d="M339.83,106.86s16.15-2.59,18-3.12"/>
          </g>
        </g>
        <path class="b6129057-07e1-4514-9c8a-6d5cde591b3e" d="M133.4,324.92c63.6,7.54,130-11.52,180.11-51.36a229.7,229.7,0,0,0,21.54-19.12c2-1.92,4.92-4.82,6.7-6.89l6.46-7.11c2-2.07,4.28-5.21,6.13-7.4,1.64-2,4.47-5.37,6-7.53,1.8-2.54,6.72-9.13,8.48-11.66,4-6.17,9.27-13.9,12.81-20.34l4.84-8.32c-1.65,3-5.53,9.75-7.1,12.57-2.63,4.76-7.33,11.69-10.2,16.33-2.47,3.65-7.23,10.06-9.81,13.7l-1.51,1.87c-2.88,3.47-6.17,7.84-9.14,11.19-1.25,1.42-6.95,7.7-8.06,8.94-2.34,2.57-6.05,6-8.49,8.54a256.32,256.32,0,0,1-33.58,27.36A244.82,244.82,0,0,1,191,325.17c-19.08,2.23-38.56,2.57-57.6-.25Z"/>
        <path class="b6129057-07e1-4514-9c8a-6d5cde591b3e" d="M63.06,166.28c13.55,46.84,45.14,90,89.67,111.39l6.69,3.08c2.43.85,7.93,3.16,10.31,3.91,3.28.95,7.27,2.37,10.56,3.2a196.89,196.89,0,0,0,21.65,4.31c2.28.23,8.76.93,11,1.17,5.63.24,12.8.71,18.42.46l7.38-.13-7.37.25c-5.63.34-12.81,0-18.45-.16-2.25-.21-8.69-.8-11-1a198.35,198.35,0,0,1-21.77-4.12c-3.31-.8-7.35-2.19-10.64-3.14-2.35-.78-8-3-10.39-3.91l-6.73-3.07c-44.82-21.25-76.55-64.92-89.28-112.21Z"/>
      </g>
    </g>
  </g>
</svg>
