<svg xmlns="http://www.w3.org/2000/svg" xmlns:xlink="http://www.w3.org/1999/xlink" width="250.26" height="250.26" viewBox="0 0 250.26 250.26">
  <defs>
    <style>
      .bbd31c39-79d8-4615-bab3-3eddaa705bc4 {
        fill: none;
      }

      .a9423319-8465-4895-b854-b1cdecf9fe90 {
        isolation: isolate;
      }

      .b01d3703-0ad8-4e5c-9b76-7bd27ab4edc5 {
        clip-path: url(#af48fb6e-20eb-4884-9193-9e062e6a7e50);
      }

      .f4f040b9-1edc-43f4-b46f-028d041e3fcc {
        fill: #31d0e5;
      }

      .a0bb9fcb-27da-4202-aa2e-689e70c33d2d {
        opacity: 0.11;
      }

      .e4c839f4-51f1-4917-8aa9-8b28c3fddbcd {
        fill: #fad2c6;
        stroke: #453423;
      }

      .a49d0d81-fa0f-4f98-aea0-bfb3217342bc, .e4c839f4-51f1-4917-8aa9-8b28c3fddbcd, .f7daa79b-a98e-4250-b514-3239d4f2a97b {
        stroke-miterlimit: 10;
      }

      .a21ecbb7-79e5-4ffc-92c7-7e95f0a038bb {
        fill: #fcf6b4;
      }

      .f2d0823d-b1b4-4e54-9011-758e841c55b5 {
        fill: #f93d77;
      }

      .b7f62e9f-11f2-4082-bb65-ac8c569a2837 {
        fill: #b22651;
      }

      .b9a027f5-75c8-4dbe-8e7b-8c1ea8c29edd {
        fill: #d2dae5;
      }

      .a49d0d81-fa0f-4f98-aea0-bfb3217342bc {
        fill: #224966;
        stroke: #1e1e1e;
        stroke-width: 0.25px;
      }

      .f7daa79b-a98e-4250-b514-3239d4f2a97b {
        fill: #fffdfe;
        stroke: #878787;
        stroke-width: 9px;
        opacity: 0.6;
      }

      .a97c0a2a-7679-428f-b54e-94668125617c, .af3de440-408a-462a-b57a-10ea6268ea5d, .f7daa79b-a98e-4250-b514-3239d4f2a97b {
        mix-blend-mode: multiply;
      }

      .a048c2c6-6f07-4e3c-b6e9-a56306cb9f65 {
        fill: #cff6ff;
      }

      .e7de5a1c-a40f-4ed7-969e-d0fb915750db {
        fill: #985d2b;
      }

      .a4efd55d-2b78-49dc-95dd-54f7c5934901 {
        fill: #030408;
      }

      .e382ba74-c00f-476c-98db-b9210e3df00b, .e4bfb4d3-c627-41cd-950f-ec73e5984a72 {
        fill: #543005;
      }

      .f1035cab-736c-4be1-8923-2db165f74ca5 {
        fill: #1f1816;
      }

      .f780254f-fbed-43bc-aaca-eebdf1949c94 {
        fill: #e6b72a;
      }

      .a7860ec1-7201-4d21-91e2-7454927b1e73, .f16b8105-e862-49cb-adb2-29bb19fc968e {
        fill: #e6cc7c;
      }

      .a7860ec1-7201-4d21-91e2-7454927b1e73, .e4bfb4d3-c627-41cd-950f-ec73e5984a72, .f16b8105-e862-49cb-adb2-29bb19fc968e, .f2d10bb3-8bfc-4846-b664-86d9d0e57d68 {
        mix-blend-mode: screen;
      }

      .a7860ec1-7201-4d21-91e2-7454927b1e73 {
        opacity: 0.18;
      }

      .a97c0a2a-7679-428f-b54e-94668125617c {
        opacity: 0.14;
      }

      .f16b8105-e862-49cb-adb2-29bb19fc968e {
        opacity: 0.5;
      }

      .aa13a185-b1df-4bdb-b3f4-eea428f60ccd {
        fill: #e0b01b;
      }

      .a015d558-e907-412c-b81b-0b93bd9e00eb, .aca5377e-3505-4ad6-870e-1865c9a56903, .b8df573f-a1eb-48f3-b333-400bd1ea09b3, .f292dc1b-2ec3-48b4-97a1-9c8d48750c6d {
        opacity: 0.52;
      }

      .a015d558-e907-412c-b81b-0b93bd9e00eb {
        fill: url(#f4f8350a-5427-4ebb-9b5f-1bf0c3beb4f1);
      }

      .aca5377e-3505-4ad6-870e-1865c9a56903 {
        fill: url(#b2b1e0af-e3c6-440e-bbfa-3a6f6419a7f1);
      }

      .ebba8a8c-9e1a-454b-9594-f869f8c3c30b {
        fill: #c67620;
      }

      .ae0e2b4c-20c7-426e-99dd-9346de55439c {
        fill: #000c14;
      }

      .f9e7469d-cd3a-4975-ae9b-3149ebc8e233 {
        fill: #2e1e11;
      }

      .bc3bbbb4-65e5-4f7a-948c-69e375500083 {
        fill: #120402;
      }

      .e4bfb4d3-c627-41cd-950f-ec73e5984a72 {
        opacity: 0.15;
      }

      .e35a484e-0e65-4ac9-a803-806f3a8b901f, .fc240b3e-574a-4042-aaa5-55b16ff32a72 {
        fill: #fff;
      }

      .fc240b3e-574a-4042-aaa5-55b16ff32a72 {
        opacity: 0.09;
      }

      .f292dc1b-2ec3-48b4-97a1-9c8d48750c6d {
        fill: url(#e15ed1ab-7997-48ae-a80e-0ecf8c96bd5a);
      }

      .b8df573f-a1eb-48f3-b333-400bd1ea09b3 {
        fill: url(#f56806cf-7e74-41d8-98d6-621cfd48050e);
      }

      .accfe9d2-4675-486e-aeb2-f3bb508e91bc {
        fill: #8c570a;
      }

      .bf01c66f-2191-44fe-8ee8-e0cb3b4704ea {
        fill: #331d03;
      }

      .f2d10bb3-8bfc-4846-b664-86d9d0e57d68 {
        opacity: 0.43;
      }

      .af3de440-408a-462a-b57a-10ea6268ea5d {
        opacity: 0.21;
      }

      .e35a484e-0e65-4ac9-a803-806f3a8b901f {
        opacity: 0.72;
      }

      .aae5c992-fb8f-4c66-95ef-4c125a5d61f6 {
        clip-path: url(#a1c02304-bf45-4233-97ba-c1cb510f883b);
      }

      .a46b2959-70ea-4e2f-9fac-257373fc8a30 {
        fill: url(#a1e47e35-604c-431a-b527-e9be1e1b89a6);
      }

      .be198548-a731-4bd2-9041-9f46650b63b8 {
        fill: #472409;
        mix-blend-mode: color-burn;
        opacity: 0.25;
      }
    </style>
    <clipPath id="af48fb6e-20eb-4884-9193-9e062e6a7e50">
      <ellipse class="bbd31c39-79d8-4615-bab3-3eddaa705bc4" cx="242.02" cy="-355.5" rx="286.95" ry="286"/>
    </clipPath>
    <linearGradient id="f4f8350a-5427-4ebb-9b5f-1bf0c3beb4f1" data-name="  14" x1="-231.34" y1="1240.18" x2="-254.75" y2="1163.55" gradientTransform="translate(-1025.24 -229.69) rotate(-86.15)" gradientUnits="userSpaceOnUse">
      <stop offset="0" stop-color="#e6d7be"/>
      <stop offset="1" stop-color="#8c744d"/>
    </linearGradient>
    <linearGradient id="b2b1e0af-e3c6-440e-bbfa-3a6f6419a7f1" x1="-254.71" y1="1215.34" x2="-252.7" y2="1168.08" xlink:href="#f4f8350a-5427-4ebb-9b5f-1bf0c3beb4f1"/>
    <linearGradient id="e15ed1ab-7997-48ae-a80e-0ecf8c96bd5a" x1="-394.74" y1="975.61" x2="-418.23" y2="898.72" gradientTransform="translate(-98.34 -864.99) rotate(-36.98)" xlink:href="#f4f8350a-5427-4ebb-9b5f-1bf0c3beb4f1"/>
    <linearGradient id="f56806cf-7e74-41d8-98d6-621cfd48050e" x1="-417.99" y1="950.74" x2="-415.97" y2="903.17" gradientTransform="translate(-98.34 -864.99) rotate(-36.98)" xlink:href="#f4f8350a-5427-4ebb-9b5f-1bf0c3beb4f1"/>
    <clipPath id="a1c02304-bf45-4233-97ba-c1cb510f883b">
      <circle class="bbd31c39-79d8-4615-bab3-3eddaa705bc4" cx="568.21" cy="267.42" r="248.9"/>
    </clipPath>
    <linearGradient id="a1e47e35-604c-431a-b527-e9be1e1b89a6" x1="587.09" y1="-161.97" x2="586.01" y2="488.49" gradientUnits="userSpaceOnUse">
      <stop offset="0.14" stop-color="#a2a2a5"/>
      <stop offset="0.15" stop-color="#a3a6a9"/>
      <stop offset="0.21" stop-color="#a9bcc4"/>
      <stop offset="0.28" stop-color="#adcfda"/>
      <stop offset="0.36" stop-color="#b1ddeb"/>
      <stop offset="0.46" stop-color="#b3e8f6"/>
      <stop offset="0.61" stop-color="#b5edfd"/>
      <stop offset="1" stop-color="#b5efff"/>
    </linearGradient>
  </defs>
  <g class="a9423319-8465-4895-b854-b1cdecf9fe90">
    <g id="b30bb5c1-7870-490e-9285-5fecbe1894f9" data-name="Layer 1">
      <g class="b01d3703-0ad8-4e5c-9b76-7bd27ab4edc5">
        <rect class="f4f040b9-1edc-43f4-b46f-028d041e3fcc" x="-121.28" y="-642.93" width="892.82" height="889.85"/>
        <g>
          <path class="a0bb9fcb-27da-4202-aa2e-689e70c33d2d" d="M212.5,116.08c.48,7.56-66.61,17.9-149.83,23.09s-151.08,3.26-151.56-4.3S-22.28,117,61,111.78,212,108.51,212.5,116.08Z"/>
          <path class="e4c839f4-51f1-4917-8aa9-8b28c3fddbcd" d="M148.14,58.41c.78-25.06,2.59-61.73,4.28-93.75.14-2.52-1-18-5.37-29L110.23-38.81c1.2,35.47,3.63,76,4.76,99.29Z"/>
          <path class="a21ecbb7-79e5-4ffc-92c7-7e95f0a038bb" d="M114,96.6c.12,1.31,39.2.94,39.19-.66,0-12.84.25-30.59.2-38.69l-41.63,1.18C113,73,113.18,88.21,114,96.6Z"/>
          <g>
            <path class="f2d0823d-b1b4-4e54-9011-758e841c55b5" d="M163.34,78.57c-.75-2.84-2.19-6.41-3.33-9.7-.84-2.43-19.07-1.1-18.78,4.84.07,1.52.19,2.86.36,4.07-3.12.2-6.51.33-10.1.34a132.54,132.54,0,0,1-19.76-1.24c.22,9.41,1.76,25.63,2.06,36.08,0,0,82.54,16,94.48-.3C211.64,108.07,190.1,89.55,163.34,78.57Z"/>
            <path class="b7f62e9f-11f2-4082-bb65-ac8c569a2837" d="M113.49,106.41c.13,2.32.24,4.56.3,6.55,0,0,82.54,16,94.48-.3a2.74,2.74,0,0,0,0-2.71C186.17,117.55,134,109.88,113.49,106.41Z"/>
            <path class="b9a027f5-75c8-4dbe-8e7b-8c1ea8c29edd" d="M169.21,81.32c.63.13,1.21-.4,1.29-1.22a1.58,1.58,0,0,0-1-1.76c-4.81-1.11-10.15,2.07-13,7.78a1.86,1.86,0,0,0,.34,2.1,1,1,0,0,0,.66.27,1.06,1.06,0,0,0,.92-.65C160.84,83.06,165.26,80.36,169.21,81.32Zm6.48,3.49c.62.12,1.16-.56,1.18-1.39a1.47,1.47,0,0,0-1.09-1.62c-5-.52-9.81,2.21-13.13,7.44a1.87,1.87,0,0,0,.17,2.13,1,1,0,0,0,.76.37,1,1,0,0,0,.84-.51C168.34,85.06,173.16,84.55,175.69,84.81Zm6.94.85c-4.55-.8-10.17,2.23-13.7,7.35a1.87,1.87,0,0,0,.1,2.13,1,1,0,0,0,.8.42,1,1,0,0,0,.81-.48c3.07-4.45,7.93-7.17,11.77-6.43.65.13,1.19-.47,1.24-1.3A1.52,1.52,0,0,0,182.63,85.66Z"/>
          </g>
          <g>
            <path class="a21ecbb7-79e5-4ffc-92c7-7e95f0a038bb" d="M41.21,105.74c0,1.2,49.14-3.7,49.35-5.17,1.71-11.88,4.51-28.36,5.56-35.85L43.63,70.66C43.22,84,41.39,98.06,41.21,105.74Z"/>
            <g>
              <path class="f2d0823d-b1b4-4e54-9011-758e841c55b5" d="M104.52,80.15c-.18-2.71-1-6.14-1.55-9.28-.4-2.32-23.46-2-24.7,3.59a35.63,35.63,0,0,0-.64,3.84c-3.94,0-8.2,0-12.67-.2a209.68,209.68,0,0,1-24.28-2.17c-2.26,8.84-4.7,24.15-7.13,34,0,0,98.54,19.23,117.79,4.54C156.77,110.32,134.9,91.82,104.52,80.15Z"/>
              <path class="b7f62e9f-11f2-4082-bb65-ac8c569a2837" d="M34.94,103.74c-.46,2.19-.92,4.3-1.39,6.17,0,0,98.54,19.23,117.79,4.54a2.25,2.25,0,0,0,.71-2.55C122.49,117.92,59.54,108.05,34.94,103.74Z"/>
              <path class="b9a027f5-75c8-4dbe-8e7b-8c1ea8c29edd" d="M111.09,83A1.83,1.83,0,0,0,113,82a1.17,1.17,0,0,0-.73-1.7C106.61,79,99.1,81.67,94,86.89a1.38,1.38,0,0,0-.14,2,1.2,1.2,0,0,0,.75.28A1.77,1.77,0,0,0,96,88.6C100.2,84.24,106.43,81.92,111.09,83Zm7.13,3.61a1.81,1.81,0,0,0,1.86-1.25,1.14,1.14,0,0,0-.94-1.57c-6.12-.75-12.81,1.57-18.35,6.31a1.46,1.46,0,0,0-.36,2,1.12,1.12,0,0,0,.85.39,1.78,1.78,0,0,0,1.19-.44C109,86.49,115.14,86.27,118.22,86.64Zm8.42,1.15c-5.45-1-13.27,1.58-19,6.2a1.49,1.49,0,0,0-.44,2,1.17,1.17,0,0,0,.88.43,1.77,1.77,0,0,0,1.14-.4c5-4,11.8-6.34,16.38-5.44a1.8,1.8,0,0,0,1.91-1.16A1.15,1.15,0,0,0,126.64,87.79Z"/>
            </g>
          </g>
          <path class="e4c839f4-51f1-4917-8aa9-8b28c3fddbcd" d="M85.51,67.14c.62-28.53,2.21-70.26,3.71-106.69C89.34-42.43,88-60,83.51-72.66L46-43.81C47.5-3.42,50.28,42.68,51.6,69.25Z"/>
        </g>
        <path class="a49d0d81-fa0f-4f98-aea0-bfb3217342bc" d="M21.55-38.8C51.13,8.05,138,24.53,178-15c0,0-15-73.82-19.38-113.94,7.76,5.72-62.81-8.8-101.47-28.42C41.88-136.22,34.18-81.35,21.55-38.8Z"/>
      </g>
      <g>
        <g>
          <circle class="f7daa79b-a98e-4250-b514-3239d4f2a97b" cx="125.13" cy="125.13" r="116.99"/>
          <circle class="a048c2c6-6f07-4e3c-b6e9-a56306cb9f65" cx="124.85" cy="125.71" r="114.82"/>
        </g>
        <g>
          <g>
            <path class="e7de5a1c-a40f-4ed7-969e-d0fb915750db" d="M157.19,173.57a9.42,9.42,0,0,1,1.22.18,3.15,3.15,0,0,0,1,.06,26,26,0,0,0-5.78-1.3c-1.94-.29-2.43-1-3.23-2.67-.62-1.25-1.25-2.49-1.87-3.73-.21-.41-2.17-1-2.08-.34a8.57,8.57,0,0,0,2.63,5.28,5,5,0,0,0,1.46,1.34,7.13,7.13,0,0,0,2.22,1,8.6,8.6,0,0,1,2.37.14,7.33,7.33,0,0,1,2.73,1.08,12,12,0,0,0,1.41.76A11.69,11.69,0,0,0,157.19,173.57Z"/>
            <path class="a4efd55d-2b78-49dc-95dd-54f7c5934901" d="M145.61,168.25c-1.74-.94-2.65-3.21-3.26-5a32.87,32.87,0,0,1-1.41-7.8c-.19-2-.6-4.11-.81-6.16-.47-1.39-.63-3.12,1.41-3.1s2.61,2.18,3.13,3.77c1.14,3.46,2.31,6.91,3.47,10.37.67,2,1.88,4.84.85,6.94A2.32,2.32,0,0,1,145.61,168.25Z"/>
          </g>
          <path class="e382ba74-c00f-476c-98db-b9210e3df00b" d="M122.23,123c-5.23,8.42-25.58,8.39-31.25-.71s-6.13-20.5,1.27-26.72A14.28,14.28,0,0,1,96.81,93c7.45-2.53,17.21.27,22.15,5a20.58,20.58,0,0,1,1.65,1.75,20.15,20.15,0,0,1,4.66,11.06S127.46,114.56,122.23,123Z"/>
          <path class="a4efd55d-2b78-49dc-95dd-54f7c5934901" d="M103.25,129a10.69,10.69,0,0,1-5.84,1.72c-4.42,0-7.22-3.64-6.77-8,.14-1.37.55-3.61,2-4.16-.25-.63.55-1.36,1-.76a18,18,0,0,1,2.19,3.35c.53,1.12.65,2.67,1.29,3.66,2.14,3.34,4.57-.86,6.73.73C105.3,126.59,104.29,128.29,103.25,129Z"/>
          <path class="a4efd55d-2b78-49dc-95dd-54f7c5934901" d="M118.19,128.91c-.82,2.47-4.82,11.69-8.46,8.62-2-1.66-2.55-4.27-2.69-6.72-.08-1.25,0-2.62.79-3.26.21-1.06.77-2,1.65-1.63a13.56,13.56,0,0,1,1.84,1.87c.26.24.73,1.28.9,1.32,1.13.3,1.79-3,2.14-3.65.61-1.18,2.22-3,3.69-2S118.61,127.62,118.19,128.91Z"/>
          <g>
            <g>
              <g>
                <path class="f1035cab-736c-4be1-8923-2db165f74ca5" d="M177.36,178.48a2.61,2.61,0,0,1-2.24,1.28,11.78,11.78,0,0,1-4.81-.85,37.19,37.19,0,0,1-5.92-2.76c-.64-.36-1.31-.75-2-1.17a86.38,86.38,0,0,1-9.46-6.86c-.55-.46-1.11-.92-1.66-1.41a125,125,0,0,1-9.34-8.94l-.89-1c-2.8-3-5.62-6.34-8.4-9.94-.27-.34-.53-.68-.79-1-2-2.66-4-5.47-6-8.43-5.86-10-6.34-16.74-5.92-20.29q.08-.61.18-1.11a7.36,7.36,0,0,1,.59-1.89,18.63,18.63,0,0,1,9.53-2.33c3.72,0,9,1,13.9,2.22,3.28.8,6.38,2.64,9.89,4.33.85.41,1.69.84,2.54,1.31a47.13,47.13,0,0,1,6.21,4.08,46,46,0,0,1,8,8,44.92,44.92,0,0,1,8.13,16.48,47.65,47.65,0,0,1,1.39,8.6,50.08,50.08,0,0,1,0,6.93,58.36,58.36,0,0,1-.7,5.86c-.12.68-.25,1.37-.4,2.06q-.6,2.82-1.5,5.73C177.6,177.73,177.48,178.11,177.36,178.48Z"/>
                <path class="f780254f-fbed-43bc-aaca-eebdf1949c94" d="M179.21,171.63c-.83.41-1.7.75-2.55,1.09a60,60,0,0,1-6.13,1.77c-2,.5-4,1-6,1.62l-.15,0c-.64-.36-1.31-.75-2-1.17.53-.21,1.06-.42,1.59-.65a49.15,49.15,0,0,0,5.31-2.72c1.7-1,3.33-2.13,4.9-3.28.78-.59,1.57-1.15,2.31-1.78a21.22,21.22,0,0,1,2.32-1.7A12.34,12.34,0,0,0,180,164l.32-.29A56.59,56.59,0,0,1,179.21,171.63Z"/>
                <path class="f780254f-fbed-43bc-aaca-eebdf1949c94" d="M180.31,156.78c-.38.34-.76.66-1.15,1a30.12,30.12,0,0,1-5.5,3.5,54.73,54.73,0,0,1-6,2.42,123,123,0,0,1-12.2,3.55c-1,.21-2,.42-3,.61l-1.72-1.44c1.35-.47,2.68-1,4-1.51a57.17,57.17,0,0,0,10.54-5.64c3.22-2.27,6.16-4.73,9-7.21l2.1-1.91c.69-.65,1.43-1.24,2.17-1.85l.23-.17A46.86,46.86,0,0,1,180.31,156.78Z"/>
                <path class="f780254f-fbed-43bc-aaca-eebdf1949c94" d="M175.14,138.41a12,12,0,0,1-1.65,2.11c-.36.41-.76.79-1.13,1.19s-.74.8-1.16,1.16a45.53,45.53,0,0,1-5.06,4.07,63.62,63.62,0,0,1-5.5,3.31,103.59,103.59,0,0,1-11.44,5.13l-1.45.53-1.46.5c-1,.33-1.94.66-2.93,1l-1.42.41-.89-1,1.84-.9c.9-.46,1.78-1,2.66-1.44l1.32-.74,1.29-.76c1.71-1,3.37-2.1,5-3.25s3.13-2.37,4.62-3.62,2.85-2.63,4.21-4c.65-.71,1.32-1.38,1.93-2.12.31-.36.65-.7.95-1.07l.9-1.09c.32-.36.59-.75.88-1.12s.59-.74.85-1.14l.8-1.16c.28-.39.51-.8.79-1.18a5.87,5.87,0,0,1,1.72-1.55A44.31,44.31,0,0,1,175.14,138.41Z"/>
                <path class="f780254f-fbed-43bc-aaca-eebdf1949c94" d="M159.46,129.05a42.15,42.15,0,0,1-4.66,4.6,63.1,63.1,0,0,1-5.18,3.85c-.89.59-1.78,1.17-2.68,1.72-.43.29-.88.57-1.33.83s-.9.55-1.35.8c-.89.56-1.79,1.07-2.7,1.58l-1.35.76-1.37.72c-1.83,1-3.68,1.85-5.55,2.7l-.64.27c-.27-.34-.53-.68-.79-1l.82-.55q2.5-1.73,4.82-3.68l1.14-1,1.1-1c.72-.7,1.43-1.39,2.11-2.11a52,52,0,0,0,3.83-4.47q1.74-2.34,3.26-4.74c1-1.63,1.9-3.25,2.72-4.9.23-.4.41-.82.61-1.24s.41-.81.56-1.25a7.2,7.2,0,0,1,1.11-2.47l.1-.11c.85.41,1.69.84,2.54,1.31a47.13,47.13,0,0,1,6.21,4.08C162.28,125.87,160.75,127.43,159.46,129.05Z"/>
              </g>
              <path class="a7860ec1-7201-4d21-91e2-7454927b1e73" d="M177.71,177.36c-.73-2.34-1.44-4.69-2.23-7-2.84-8.37-5.77-16.72-9.94-24.53s-9.39-14.85-16.2-20.29c-5.41-4.3-11.86-7-17-11.47-.54.14-1.5-.16-1.61-.72a2,2,0,0,0-.08-.22,55.17,55.17,0,0,1,13.17,1.55A52.83,52.83,0,0,1,154,118.35c.85.41,1.69.84,2.54,1.31a47.13,47.13,0,0,1,6.21,4.08,46,46,0,0,1,8,8,44.92,44.92,0,0,1,8.13,16.48,47.65,47.65,0,0,1,1.39,8.6,50.08,50.08,0,0,1,0,6.93,58.36,58.36,0,0,1-.7,5.86c-.12.68-.25,1.37-.4,2.06Q178.61,174.45,177.71,177.36Z"/>
              <path class="a7860ec1-7201-4d21-91e2-7454927b1e73" d="M179.61,169.57c-.49-2.88-.88-5.78-1.47-8.6-2.94-14.15-9.24-27.17-20.44-36.47a146,146,0,0,0-13.92-9.83A52.83,52.83,0,0,1,154,118.35c.85.41,1.69.84,2.54,1.31a47.13,47.13,0,0,1,6.21,4.08,46,46,0,0,1,8,8,44.92,44.92,0,0,1,8.13,16.48,47.65,47.65,0,0,1,1.39,8.6,50.08,50.08,0,0,1,0,6.93A58.36,58.36,0,0,1,179.61,169.57Z"/>
              <g class="a97c0a2a-7679-428f-b54e-94668125617c">
                <path class="f1035cab-736c-4be1-8923-2db165f74ca5" d="M175.12,179.76c-2.31.23-6.07-1-10.73-3.61-.64-.36-1.31-.75-2-1.17a86.38,86.38,0,0,1-9.46-6.86c-.55-.46-1.11-.92-1.66-1.41a125,125,0,0,1-9.34-8.94l-.89-1c-2.8-3-5.62-6.34-8.4-9.94-.27-.34-.53-.68-.79-1-2-2.66-4-5.47-6-8.43-6.54-11.18-6.37-18.26-5.74-21.4,3.33,3,6.91,5.75,10.18,8.59,9.42,8.16,16.95,18.53,24.85,28.14q5.21,6.31,10.38,12.65a73.74,73.74,0,0,1,8.37,11.78C174.34,178,174.75,178.86,175.12,179.76Z"/>
              </g>
              <g class="a97c0a2a-7679-428f-b54e-94668125617c">
                <path class="f1035cab-736c-4be1-8923-2db165f74ca5" d="M170.31,178.91a37.19,37.19,0,0,1-5.92-2.76c-.64-.36-1.31-.75-2-1.17a86.38,86.38,0,0,1-9.46-6.86c-.55-.46-1.11-.92-1.66-1.41a125,125,0,0,1-9.34-8.94l-.89-1c-2.8-3-5.62-6.34-8.4-9.94-.27-.34-.53-.68-.79-1-2-2.66-4-5.47-6-8.43-5.86-10-6.34-16.74-5.92-20.29,3.58,6.45,8.87,12,14,17.11,3.41,3.4,6.87,6.77,10,10.42A78.53,78.53,0,0,1,151.92,156a74.62,74.62,0,0,0,7.52,10.79c2.7,3.11,5.59,6,8.3,9.14C168.36,176.65,169.3,177.69,170.31,178.91Z"/>
              </g>
            </g>
            <path class="f16b8105-e862-49cb-adb2-29bb19fc968e" d="M177.26,157.68a3,3,0,0,1-4.07-.18,13.71,13.71,0,0,1-2.17-3.75c-.6-1.2-1.18-2.42-1.73-3.65a12.62,12.62,0,0,1-1.31-4.61,4.41,4.41,0,0,1,.17-4.32,4,4,0,0,1,4.46-1.35c4.22,1.21,6,7.17,6.21,11C178.94,152.9,179,156.21,177.26,157.68Z"/>
          </g>
          <path class="aa13a185-b1df-4bdb-b3f4-eea428f60ccd" d="M127.15,108.69l.47-.35c.22-.16-.25-.38-.75-.53l.29-.3a.15.15,0,0,0,0-.23,1.08,1.08,0,0,0-.42-.22l-.1,0h0l.55-.45c.23-.19-.3-.42-.83-.57l.2-.18c.18-.16-.13-.34-.55-.48a1,1,0,0,1,.17-.1c.16-.11-.09-.27-.46-.42l.43-.33c.2-.14-.21-.36-.7-.53l.06,0c.11-.07-.06-.2-.35-.34.34-.21.15-.45-.19-.61a.16.16,0,0,0,0-.13.93.93,0,0,0-.49-.36c.22-.12.43-.24.65-.34l.28-.14c.29-.14.21-.34,0-.52a1.82,1.82,0,0,0-.8-.33l.64-.37a.47.47,0,0,0,.16-.15c.22-.38-.89-.8-1.23-.69l-.91.28c.09-.17,0-.32-.22-.44l.49-.37a.38.38,0,0,0,.11-.11c.14-.17,0-.33-.13-.46a1.89,1.89,0,0,0-.69-.25.31.31,0,0,0-.09-.37,1.12,1.12,0,0,0-.48-.27c.18-.23-.12-.44-.48-.55a1.79,1.79,0,0,0-.58-.08,1.59,1.59,0,0,0-.27-.12l0,0,.19-.4.06-.13c.17-.34-.32-.57-.78-.64l-.11,0a1.63,1.63,0,0,0-1.07-.33c-.27-.22-.55-.44-.84-.65,0-.09.1-.18.16-.27.25-.43-.3-.71-.8-.78,0-.51-1-.7-1.34-.54a1.41,1.41,0,0,0-.83-.26v-.3c0-.29-.65-.45-.89-.32a.85.85,0,0,0-.41-.23c0-.15-.07-.3-.12-.47a.74.74,0,0,0-.94-.32,2.68,2.68,0,0,0,.07-.27c.12-.46-.86-.6-1.11-.38L112,91c0-.15,0-.31,0-.47,0-.33-.9-.56-1.06-.28l-.12.23a.71.71,0,0,0-.5.1c-.16.12-.3.25-.45.37l0-.56c0-.3-.51-.41-.81-.34,0-.42-.87-.72-1.16-.41a0,0,0,0,0,0,0c0-.34-.84-.55-1-.27l-.17.22c-.28-.21-.84-.3-1-.06s-.28.43-.41.64a1.09,1.09,0,0,0-.79-.16c0-.06,0-.11,0-.18,0-.36-.91-.59-1.19-.38-.29-.23-.86-.36-1,0,0,0,0,.09,0,.13a.81.81,0,0,0-.27-.11c-.13-.27-.93-.61-1-.18,0,.16-.09.32-.13.47-.2-.06-.42-.06-.5.09l-.15-.49c-.09-.27-.82-.54-.93-.16a4.48,4.48,0,0,1-.3.87l-.36-.77c-.12-.24-.8-.42-.9-.09l-.18.62c-.21-.2-.8-.27-.8.07a4.14,4.14,0,0,1,0,.8l-.08-.13c-.1-.17-.64-.35-.73-.07s-.16.59-.23.89c0-.08-.09-.16-.14-.24s-.79-.41-.81-.08,0,.49,0,.74c-.08-.19-.16-.38-.23-.6s-1-.45-.87-.08l.12.46c-.25-.17-.81-.2-.73.1a5.22,5.22,0,0,0,.45,1.13c.05.1.09.21.13.31l0,0a5.63,5.63,0,0,0-.84-1l-.11-.15c0-.08-.35-.12-.28,0a2.12,2.12,0,0,1,.11.21,3.53,3.53,0,0,0,.45.94,14,14,0,0,0-1.44-1.67s-.29-.1-.25,0c.36.77.77,1.55,1.21,2.32a3.25,3.25,0,0,0-.9-.61h0c-.2-.06-.49,0-.41.26a.52.52,0,0,0,.06.13c-.29,0-.58.07-.3.3l.38.3c-.21,0-.37.07-.23.25a2.23,2.23,0,0,0,.19.24c-.29-.06-.66,0-.49.25a.26.26,0,0,0,0,.09h0c-.24-.22-.47-.43-.71-.63s-1-.22-.66.15.49.51.74.75l-.52-.25c-.16-.08-1-.09-.7.25.17.19.34.37.52.55-.42,0-.86.09-.45.44l.39.33a2.56,2.56,0,0,1-.11.24H89c-.33,0-.61.28-.3.55,0,0,0,0,0,0-.47,0-.7.3-.46.55-.25.09-.35.3-.14.5a4.89,4.89,0,0,0-.71.23c-.3.12-.07.46.11.56l.33.16c-.06.13.1.3.25.39v0l-.4.19c-.31.15-.07.35.22.49l0,0c-.13.12-.07.24.08.33l-.35.29c-.17.13-.18.24-.11.34-.24.15-.19.31,0,.44l-.29.26c-.23.21,0,.39.3.52l-.15.12c-.17.13-.09.27.07.39a1.61,1.61,0,0,0,.26.15l-.16.13a.18.18,0,0,0,0,.3.73.73,0,0,0-.25.12.32.32,0,0,0-.08.09c-.38,0-.8.23-.42.58a.39.39,0,0,0,0,.14.22.22,0,0,0,0,.33.24.24,0,0,0,0,.27c-.37,0-.58.29-.12.51l.26.12.08,0-.09.09c-.13.12-.25.24-.38.38s.24.14.33.14h0c.14,0,.31-.09.49-.14,0,0,0,.07,0,.11a1.07,1.07,0,0,0-.21.38c-.06.07.14.14.3.17v0a1,1,0,0,0-.15.14s.06.11.2.15l0,.26-.75.82-.09.09s0,.09.1.13a1.06,1.06,0,0,0,.37.1,1.51,1.51,0,0,0,.6.21h0c-.31.25-.62.5-.91.76l-.36.32s0,.11.13.17a1.83,1.83,0,0,0,.28.1,1.48,1.48,0,0,0,.36.06l-.31.33h0s0,.08,0,.12a1.45,1.45,0,0,0,.39.17l-.31.38,0,0s0,.07,0,.1a1.24,1.24,0,0,0,.23.11l-.17.24-.52.72c-.06.08.1.17.32.24l-.74.82c-.1.11.18.26.51.36l-.4.53c-.1.13.43.3.85.37l-.17.27c-.09.15.36.3.77.37l-.41.72c-.08.14.37.31.78.38-.13.25-.27.49-.4.73s.51.36,1,.42l-.27.37c-.08.1.25.24.61.34l-.47.6c-.11.15.66.41,1.13.46l-.17.21c0,.06.07.14.25.22L90,120l.11,0-.06.06-.42.52c-.11.13.38.3.84.4l.12,0-.12.15-.35.37c-.12.13.11.26.42.36l.12,0,.06,0c0,.12.32.24.62.32l-.35.57a.13.13,0,0,0,0,.06.2.2,0,0,0,.09.1,2.2,2.2,0,0,0,.62.25l.23,0-.13.17-.21.26c-.09.12.4.32.87.43v0c-.1.24.91.58,1.41.57l-.09.15c-.06.08.34.31.78.45,0,.13,0,.25,0,.38s0,.2.21.31l.21.1a3.51,3.51,0,0,0,.72.21,2.28,2.28,0,0,0,.79.31l-.14.35c-.1.22.76.55,1.34.59a2.28,2.28,0,0,0,1.16.52s0,.07,0,.11c-.1.52,2,1,2.27.59a1.58,1.58,0,0,1,.12-.15,2.74,2.74,0,0,0,.81.32c.4.09.78.08.86-.1a3,3,0,0,1,.15-.36,3.16,3.16,0,0,0,.83.21,1.84,1.84,0,0,0,1.13.59H105c0,.34.87.67,1.55.76a2.63,2.63,0,0,0,.48,0c.19,0,.33-.07.38-.17l.14-.23c.69.2,1.46.29,1.46,0v-.2c.63.22,1.39.33,1.48,0a3,3,0,0,1,.12-.43v0c.51.13,1,.15,1.1-.13a.05.05,0,0,1,0,0l.09-.15c.73.3,1.79.52,1.89.13a4.74,4.74,0,0,1,.16-.65c.63.18,1.26.28,1.27,0a1.62,1.62,0,0,1,0-.49c.61.16,1.28.26,1.27,0a3.25,3.25,0,0,1,0-.47c.67.21,1.55.39,1.58,0l.06-.62a.31.31,0,0,1,0-.1c.18,0,.36.08.53.1.34.05.62,0,.65-.17s0-.21,0-.31c.54.13,1.12.22,1.1,0s0-.65-.07-1l.15,0,.36.07a2.14,2.14,0,0,0,.61,0c.08,0,.12,0,.12-.11a5.08,5.08,0,0,0-.15-1l.35,0h.09c.16,0,.6.06.54-.2l-.09-.4-.09-.43.07,0a2.85,2.85,0,0,0,.85.09.38.38,0,0,0,.18-.06.16.16,0,0,0,0-.09s0,0,0,0c-.15-.44-.29-.87-.44-1.3l.17,0h.37c.2,0,.46,0,.39-.21l-.36-1.12c.21,0,.43,0,.67,0s.42,0,.35-.22l-.21-.58a1.81,1.81,0,0,0,.76-.18,1,1,0,0,0,.16-.12c.24-.23.25-.6-.16-1.14a1.32,1.32,0,0,0,.38-.16c.52-.32.53-1-.21-1.49l.32-.13c.15-.07.29-.13.43-.21l.06,0c.16-.08.31-.17.47-.27l.13-.09c.24-.15-.24-.37-.71-.52a6.68,6.68,0,0,0,.79-.52c.18-.13-.08-.3-.4-.43l-.19-.07.25-.16q.27-.16.54-.36a.13.13,0,0,0,0-.06c0-.11-.16-.23-.44-.34l-.1,0,.12-.07.49-.27.07,0c.22-.12-.24-.33-.68-.49l.59-.32c.24-.13-.41-.37-1-.53l0,0,.72-.53c.19-.13-.15-.3-.56-.43l.71-.54c.13-.09,0-.22-.29-.33l1.11-.79C128,109,127.59,108.84,127.15,108.69ZM103.24,92l.14,0a.65.65,0,0,0,.34,0l.11,0q.51,0,1,.06l.12.06a1,1,0,0,0,.62.06l.09,0c.7.07,1.41.15,2.12.2a1.5,1.5,0,0,0,.74.18.38.38,0,0,0,.09.18,1.12,1.12,0,0,0,1.16.29.25.25,0,0,0,.12-.11l.06-.09a1.2,1.2,0,0,0,.41.19,1.28,1.28,0,0,0,.69.27.3.3,0,0,0,.11.17,1.34,1.34,0,0,0,.26.19,1.39,1.39,0,0,0,1.13.33.63.63,0,0,0,.22-.09l.08.05a.83.83,0,0,0-.07.13,2.12,2.12,0,0,1-.11.21c-.27.54,1.2.87,1.54.53a1.1,1.1,0,0,0,.32.11l-.06.12c-.22.55,1,.78,1.41.58l.09-.06h0a1.22,1.22,0,0,0,.24.1l-.06.15-.15.37c-.12.3.21.53.6.64l-.08.21a.32.32,0,0,0,0,.3,1,1,0,0,0,.63.31,1.47,1.47,0,0,0,.74,0l.07,0a.23.23,0,0,0,.07.07,1.41,1.41,0,0,0,.59.27.38.38,0,0,0,0,.33.82.82,0,0,0,.29.22,1.21,1.21,0,0,0,.32.11.47.47,0,0,0,.16.15l-.09.08h0a.14.14,0,0,0,0,.18l-.14.15-.1.12a.31.31,0,0,0-.09.21h0a4.15,4.15,0,0,0-.43.3c-.16.13,0,.28.27.39l0,.05-.25.22,0,.06h0c-.32.23-.65.45-1,.69s.48.48.58.52a5.84,5.84,0,0,0-1,.12,4.42,4.42,0,0,0-.81.23,8.56,8.56,0,0,0-1.44.67l-.71.42-.76.46c-.19.12-.39.24-.6.35l-.36.2a7.41,7.41,0,0,1-1.2.5l-.31.09-.09,0-.27.06c-4.2.87-7.8-.91-11.45-2.64-.37-.76-.75-1.52-1.16-2.26a2.05,2.05,0,0,0-1.3-.56l-.52-.77a1.21,1.21,0,0,0-.45-.27l.12-.3c.07-.15-.35-.28-.44-.15l-.07.12,0,0v0l0-1a13.14,13.14,0,0,1,3-3.86.91.91,0,0,0,.43,0A36.11,36.11,0,0,1,102.77,92l.18,0Zm-5.85-.75.1,0c0,.07.05.14.08.2l-.3.15C97.31,91.46,97.36,91.33,97.39,91.2Zm-1,.58a.63.63,0,0,0,.27.14l-.34.22C96.35,92,96.38,91.9,96.4,91.78Z"/>
          <g>
            <path class="a015d558-e907-412c-b81b-0b93bd9e00eb" d="M193.72,76.59c21.43,3.83,5.08,11.67-4.37,19.76S173,100.73,155,100.16s-32,1.47-35.26.38l-5-1.18-.3-.07s.17-.12.55-.34l.18-.11.6-.35a140.43,140.43,0,0,1,17.71-8.06C147.22,85.08,172.29,72.76,193.72,76.59Z"/>
            <path class="aca5377e-3505-4ad6-870e-1865c9a56903" d="M183.5,100.08a.89.89,0,0,1,.05.91c-1.39,3.32-6.78,6.81-11.72,9s-12.61,2.18-19.41,2.25c0,0-11.09-1.13-16.18-4.08-3.2-1.85-10.39-4.72-15.26-6.6h0l-1.3-.5c-2-.78-3.46-1.29-3.6-1.35h0s36.78-.91,46.07-.84H164l2.78,0C174.24,98.63,182.34,98.3,183.5,100.08Z"/>
            <g>
              <g>
                <path class="ebba8a8c-9e1a-454b-9594-f869f8c3c30b" d="M150.91,84.77a.09.09,0,0,1,0,.15c-1.1,1.1-2.23,2.17-3.4,3.23l-.05,0c-.16.16-.33.31-.5.46-1,.91-2.05,1.82-3.13,2.7-.83.67-1.68,1.35-2.57,2-.24.18-.5.35-.75.51s-.44.3-.67.44a11.39,11.39,0,0,1-1.16.63c-.22.08-.43.17-.65.24l-.23.07-.42.13-.09,0c-.85.24-1.7.41-2.56.57-1.79.32-3.58.55-5.37.75s-3.59.37-5.39.52c-2.48.19-4.47,1-6.66,1.46A13.15,13.15,0,0,1,115,99l.18-.11.6-.35c1.21-.32,2.26-.77,2.77-.92a31,31,0,0,1,5.33-1.15c1.79-.13,3.58-.28,5.36-.46s3.55-.4,5.3-.7c.87-.15,1.74-.31,2.57-.53l.61-.17.58-.21a8.34,8.34,0,0,0,1.07-.55,39.49,39.49,0,0,0,4-2.8q1.66-1.29,3.24-2.64a.28.28,0,0,0,.08-.06h0c1.36-1.15,2.69-2.32,4-3.5A.17.17,0,0,1,150.91,84.77Z"/>
                <path class="ebba8a8c-9e1a-454b-9594-f869f8c3c30b" d="M156.74,82.23a6.75,6.75,0,0,0,1.31.46,10.76,10.76,0,0,0,1.4.23,13.86,13.86,0,0,0,2.88,0l.72-.09.71-.12,1.39-.3c.94-.22,1.88-.43,2.82-.62,3.78-.79,7.58-1.47,11.39-2.11,1.91-.32,3.82-.63,5.74-.9s3.89-.37,5.78-.63a6.1,6.1,0,0,0,1.32-.3.36.36,0,0,0,.14-.09s0,0-.06-.07a2.09,2.09,0,0,0-.52-.28,13.55,13.55,0,0,0-1.32-.42l-.68-.18-.69-.15a15.73,15.73,0,0,0-2.83-.33,7.69,7.69,0,0,0-2.77.39h0a.13.13,0,0,1-.15,0,.08.08,0,0,1,0-.12,8,8,0,0,1,2.9-.51,15.1,15.1,0,0,1,2.94.28l.71.15.7.17A13.86,13.86,0,0,1,192,77a2.7,2.7,0,0,1,.67.35.39.39,0,0,1,.16.44.7.7,0,0,1-.36.31,6.34,6.34,0,0,1-1.48.35c-1.94.27-3.88.37-5.79.64s-3.82.56-5.72.87-3.81.63-5.71,1-3.8.67-5.69,1c-.94.19-1.88.38-2.82.59l-1.42.29-.73.11c-.24,0-.48,0-.73.08a14.35,14.35,0,0,1-2.93,0A9.5,9.5,0,0,1,158,82.8a6.32,6.32,0,0,1-1.32-.5s0,0,0-.06a.08.08,0,0,1,.08,0Z"/>
                <path class="ebba8a8c-9e1a-454b-9594-f869f8c3c30b" d="M147,88.28l4.69-.71,2.36-.34c.78-.11,1.57-.22,2.37-.3.19,0,.41,0,.62,0l.59.06c.4,0,.79.1,1.19.17a8.75,8.75,0,0,1,1.15.27,3.32,3.32,0,0,1,.55.22.84.84,0,0,1,.23.18.62.62,0,0,1,.14.23A2.67,2.67,0,0,1,161,89a4.62,4.62,0,0,1-.11.91,2.17,2.17,0,0,1-.07.24l0,.07-.08.06-.14.08-.52.23L159,91l-1.08.38c-.19.07-.37.12-.57.18l-.14,0-.18,0-.29,0-2.36.31-4.71.63c-3.14.41-6.27.86-9.4,1.3a.27.27,0,0,1-.31-.17c0-.11.07-.21.21-.23l9.45-1.23,4.72-.62,2.36-.3.29,0,.1,0,.12,0,.54-.17,1.08-.38,1-.41.5-.22.09,0s0,0,0,0,0,0,0,0a1,1,0,0,0,.05-.2,4.13,4.13,0,0,0,.11-.86,2.31,2.31,0,0,0-.09-.84.45.45,0,0,0-.23-.26,2.45,2.45,0,0,0-.46-.19,7.66,7.66,0,0,0-1.1-.25c-.38-.07-.77-.12-1.15-.16L157,87.2h-.26l-.28,0c-1.55.16-3.12.42-4.68.67s-3.11.51-4.66.78h0a.27.27,0,0,1-.32-.15c0-.11.05-.22.2-.24Z"/>
                <path class="ebba8a8c-9e1a-454b-9594-f869f8c3c30b" d="M159.65,83.11l-3,4-.14-.3a8.75,8.75,0,0,0,.86.3c.3.1.6.17.89.25l.91.2c.31,0,.62.11.94.13H160q3-.34,6-.73c2-.26,4-.51,5.93-.87.24,0,.48-.09.71-.15a1.5,1.5,0,0,0,.3-.1h0s0,0,0,0v0l-.07-.06a3.21,3.21,0,0,0-.62-.25q-.34-.12-.69-.21c-.94-.26-1.9-.48-2.87-.69s-1.93-.4-2.91-.62a13.48,13.48,0,0,1-2.73-1,.08.08,0,0,1,0-.12.16.16,0,0,1,.16,0,12.86,12.86,0,0,0,2.69,1c1,.21,1.95.39,2.91.59s1.94.42,2.9.67q.36.09.72.21a3.46,3.46,0,0,1,.7.29.48.48,0,0,1,.18.15l0,.08a.44.44,0,0,1,0,.1s0,.06-.06.08l-.07,0a2.3,2.3,0,0,1-.39.14c-.24.06-.49.12-.74.16-2,.38-4,.65-5.94.93s-4,.54-6,.79H160a8.25,8.25,0,0,0-1.73-.6,9.59,9.59,0,0,0-1.87-.28l-.33-.09.19-.21,3.28-3.8a.07.07,0,0,1,.09,0S159.67,83.09,159.65,83.11Z"/>
                <path class="ebba8a8c-9e1a-454b-9594-f869f8c3c30b" d="M137.54,94.92c.09.1.19.2.27.3a6.64,6.64,0,0,1,.64.89,2.73,2.73,0,0,1,.26.71.88.88,0,0,1-.24.82l0,0a1.14,1.14,0,0,1-.43.24,2.42,2.42,0,0,1-.48.1c-.31.06-.59.08-.88.11-.58.07-1.15.11-1.73.16-2.29.18-4.59.33-6.89.47l-6.89.4c-2.12.12-4.24.23-6.37.21l-.3-.07s.17-.12.55-.34l.18-.11c.71-.07,1.42-.13,2.13-.17,1.25-.09,2.5-.15,3.75-.21l6.9-.36c2.29-.12,4.59-.24,6.88-.39.57,0,1.15-.07,1.71-.12.28,0,.58,0,.83-.08a1,1,0,0,0,.59-.18.48.48,0,0,0,.12-.45,1.79,1.79,0,0,0-.2-.59,6.28,6.28,0,0,0-.6-.92l-.18-.21h0a.18.18,0,0,1,.07-.28A.31.31,0,0,1,137.54,94.92Z"/>
                <path class="ebba8a8c-9e1a-454b-9594-f869f8c3c30b" d="M184.26,83.72c0-.36-.29-.62-.76-.79-1.59-.58-5.14-2-6.58-2.51l-.63-.24h0l-.16-.06-.05.09-.23.41L173,85.55l-.14.25,0,0-.14.26H173l8.22.28.59,0,0,0,0,0,0,0,.46-.3C183.08,85.53,184.34,84.53,184.26,83.72Zm-2.59,2.21-8.17-.28,2.81-5c.94.36,5.23,2,7,2.68.29.11.45.24.46.4C183.86,84.34,182.55,85.39,181.67,85.93Z"/>
                <path class="ebba8a8c-9e1a-454b-9594-f869f8c3c30b" d="M157.4,95.43l-.17-.32c-.07-.12-.16-.25-.25-.38a19.87,19.87,0,0,0-2.7-2.84l-.28-.25,0,0-.06-.06-.26.1-1.38.52L138.7,97.25l-1.58.6.95,0,19.22.83,0,0,0-.1s.05-.13.11-.31A4.24,4.24,0,0,0,157.4,95.43Zm-3.59-3.35A20.53,20.53,0,0,1,156.6,95a1,1,0,0,1,.08.11,4.23,4.23,0,0,1,.3.52,3.83,3.83,0,0,1,0,2.63l-17.58-.77Z"/>
                <path class="ebba8a8c-9e1a-454b-9594-f869f8c3c30b" d="M198.18,84.22a8.84,8.84,0,0,1-3.28,2.33,8.42,8.42,0,0,1-2.12.58,10.54,10.54,0,0,1-1.13.1c-.37,0-.76,0-1.12,0-2.95-.23-5.9-.51-8.84-.82l.26-.08c-1.44,1.52-2.89,3-4.45,4.5-.39.36-.78.72-1.2,1.07-.21.18-.42.35-.65.52l-.36.24a1.79,1.79,0,0,1-.46.22c-.35.07-.63.1-.93.15l-.89.12-1.79.24c-4.78.62-9.55,1.21-14.33,1.8a.24.24,0,0,1-.29-.16c0-.12.07-.22.22-.24,4.77-.59,9.55-1.18,14.31-1.8l1.79-.24.89-.12c.29,0,.61-.09.85-.14a1.71,1.71,0,0,0,.31-.15,3.62,3.62,0,0,0,.32-.22c.22-.16.42-.32.63-.49.4-.35.8-.7,1.18-1.06,1.54-1.45,3-3,4.42-4.48l.09-.09h.17q4.36.56,8.78,1l1.09.06a10,10,0,0,0,1.09-.07,8.12,8.12,0,0,0,2.09-.53,8.82,8.82,0,0,0,3.32-2.24h0A0,0,0,0,1,198.18,84.22Z"/>
                <path class="ebba8a8c-9e1a-454b-9594-f869f8c3c30b" d="M187.13,93.46a7.14,7.14,0,0,1-2.83,1.79,6.29,6.29,0,0,1-1.73.31,6.56,6.56,0,0,1-.89,0c-.15,0-.3,0-.44-.06l-.43-.1a27,27,0,0,1-3.26-1.06,20.77,20.77,0,0,1-3-1.49.18.18,0,0,1-.05-.28.25.25,0,0,1,.33-.05h0a19.42,19.42,0,0,0,2.9,1.52,25.89,25.89,0,0,0,3.17,1.13l.41.1a2.83,2.83,0,0,0,.42.07,4.74,4.74,0,0,0,.84.05,5.68,5.68,0,0,0,1.69-.26,6.89,6.89,0,0,0,2.83-1.69,0,0,0,0,1,0,0A0,0,0,0,1,187.13,93.46Z"/>
                <path class="ebba8a8c-9e1a-454b-9594-f869f8c3c30b" d="M174.49,99.74q-4.32-.46-8.66-.8c-1.44-.11-2.89-.19-4.34-.25a39.09,39.09,0,0,0-4.33,0,.26.26,0,0,1-.29-.19c0-.11.1-.21.24-.22a40.43,40.43,0,0,1,4.41.08c1.45.08,2.9.19,4.35.32q4.33.41,8.64.95s.07,0,.06.07S174.53,99.75,174.49,99.74Z"/>
              </g>
              <path class="ebba8a8c-9e1a-454b-9594-f869f8c3c30b" d="M122.53,101.3c1.44.2,3.66.49,5,.75s2.65.53,4,.82,2.66.59,4,.92c.72.18,1.45.36,2.17.56l1.67.46a49.43,49.43,0,0,1,7.46,2.71c1.17.57,2.27,1.18,3.4,1.78l1.66.93.81.5c.14.08.27.17.4.26l.2.15.11.1,0,0v0l0,0v.07a.17.17,0,0,1,0,.07.25.25,0,0,1-.12.13.39.39,0,0,1-.18,0c-.13,0-.23-.08-.24-.18l0,0-.18-.12-.39-.24-.82-.45c-.55-.3-1.12-.59-1.68-.88-1.14-.58-2.29-1.15-3.44-1.69a48.09,48.09,0,0,0-7.37-2.54c-2.55-.7-5.15-1.32-7.76-1.88-1.31-.28-2.63-.54-3.95-.8s-3.41-.79-4.15-.92l-2.12-.39h0l-1.3-.5A16.39,16.39,0,0,1,122.53,101.3Z"/>
              <path class="ebba8a8c-9e1a-454b-9594-f869f8c3c30b" d="M159.41,109.14l-9.88-5.68.17,0c-2.43.22-4.87.39-7.31.56l-3.66.22a18.85,18.85,0,0,1-3.68,0c-.14,0-.24-.13-.21-.24a.23.23,0,0,1,.18-.16,18.7,18.7,0,0,1,3.65-.39l3.66-.17c2.45-.1,4.89-.2,7.34-.23h.11l.07,0,9.73,5.83a.1.1,0,0,1,0,.15A.17.17,0,0,1,159.41,109.14Z"/>
              <path class="ebba8a8c-9e1a-454b-9594-f869f8c3c30b" d="M170.73,105.76c-3.53-1.17-7.07-2.3-10.67-3.32-.9-.26-1.8-.5-2.71-.73L156,101.4a9.43,9.43,0,0,0-1.37-.2,1.6,1.6,0,0,0-.31,0l-.05,0h0l-.15.07-.61.31-1.21.62-2.43,1.24a.3.3,0,0,1-.36-.06.18.18,0,0,1,.08-.28h0l2.44-1.21,1.22-.6.61-.3L154,101l.14,0,.12,0a1.87,1.87,0,0,1,.41,0,9.54,9.54,0,0,1,1.45.23l1.38.33c.91.24,1.81.5,2.71.76,3.58,1.08,7.1,2.25,10.61,3.47a0,0,0,0,1,0,.07S170.76,105.77,170.73,105.76Z"/>
            </g>
          </g>
          <path class="ae0e2b4c-20c7-426e-99dd-9346de55439c" d="M71.19,98.85c0,.06-.23,0-.25,0a13.73,13.73,0,0,1-1.07-1.22,25.3,25.3,0,0,0-2.22-2.7,4,4,0,0,0-3.11-1.42,11.16,11.16,0,0,0-2,.65c-1.44.52-2.82,1.13-4.18,1.78s-2.48,1.24-3.74,1.88a9.94,9.94,0,0,1-3.59,1,3.56,3.56,0,0,1-1.13,0A4.35,4.35,0,0,1,46,96.32c-.14-.31,1.65-.12,1.89.33A2.63,2.63,0,0,0,50.75,98c2.24-.37,5-2.33,6.41-3,1.12-.51,2.33-1.09,3.56-1.56a13.85,13.85,0,0,1,3.17-.86c2.54-.33,5.49,1.65,6.72,4.11A5,5,0,0,1,71.19,98.85Z"/>
          <path class="f9e7469d-cd3a-4975-ae9b-3149ebc8e233" d="M86.8,110.25a3,3,0,0,1-.25.25c-.52.53-1.07,1-1.65,1.57-3.72,3.35-10.46,6.32-16.21,7.9-.73.21-1.44.38-2.12.54-3.8.85-6.87,1-7.86,0s-.84-2.82.09-5.48c1.2-3.45,3.86-8.13,7.7-13.24,1-1.38,2.17-2.79,3.37-4.22l.74-.87,1.62-1.84c.57-.63,1.14-1.2,1.69-1.71.28-.26.55-.5.83-.73,6.19-5.23,11.27-3.58,14-1.86a12,12,0,0,1,1.93,1.51l.28.29c.12.23.24.46.35.69a13.29,13.29,0,0,1,.92,2.47C93.57,100.65,91.31,105.61,86.8,110.25Z"/>
          <path class="bc3bbbb4-65e5-4f7a-948c-69e375500083" d="M83.59,99c-1.49-.85-5-1.85-8.31,1.66s-7,8.64-5.83,10.35,9.71,0,13.08-4.49S85.07,99.81,83.59,99Z"/>
          <path class="e4bfb4d3-c627-41cd-950f-ec73e5984a72" d="M81.89,100.77A5.23,5.23,0,0,0,75.28,102c-2.63,2.76-5.57,6.79-4.6,8.15s7.75.07,10.42-3.47S83.08,101.45,81.89,100.77Z"/>
          <path class="fc240b3e-574a-4042-aaa5-55b16ff32a72" d="M74.81,107.68a2.27,2.27,0,0,0-2.59-.23c-1,.69-2,1.78-1.63,2.35s3.07.78,4-.16S75.29,108,74.81,107.68Z"/>
          <g>
            <path class="e7de5a1c-a40f-4ed7-969e-d0fb915750db" d="M106.68,142.38c0-.12.3-.12.38-.06a4.71,4.71,0,0,1,.6.58l.09,0c1.23.77,1.43,2.17,2.16,3.37a2.48,2.48,0,0,0,.64.81,1.82,1.82,0,0,0,1.54.06c.63-.37,1.14-.59,1.82-.92a13.61,13.61,0,0,1,1.33-.69c0,.54-1.65,1.45-2.18,1.89.68-.27,1.37-.39,1.9-.64.1,0,1.52-.6,1.32-.43-1.43,1.28-4.53,3-6.52,2.19a3.79,3.79,0,0,1-1.79-1.87C107.29,145.44,106.27,143.83,106.68,142.38Z"/>
            <path class="a4efd55d-2b78-49dc-95dd-54f7c5934901" d="M110.4,127.43a54.31,54.31,0,0,1,.26,8.26c-.08,2.05,0,4.36-.8,6.29-.47,1.21-1.54,2.69-3,2.37s-1.88-2.3-2-3.65A52.34,52.34,0,0,1,105.4,127c.08-.75-.27-.77-.15-1s.48.39.64.11.09-.52.14-.78a.51.51,0,0,1,.78-.35,1.92,1.92,0,0,1,2-.38C110,124.92,110.26,126.32,110.4,127.43Z"/>
            <path class="a4efd55d-2b78-49dc-95dd-54f7c5934901" d="M110.86,114.48c1.06,2.65,2.31,5.25,2,8.19-.22,1.86-.77,3.92-2.85,4.19-1.28.16-2.77-.12-4.07-.06a2.75,2.75,0,0,1-1.94-.42c-1.8-1.36-.81-5.09-.7-6.91s.23-3.54.34-5.31a23.34,23.34,0,0,1,.33-4.18,2.42,2.42,0,0,1,1.52-1.76,2.16,2.16,0,0,1,1.7,0C109.4,109,110.09,112.54,110.86,114.48Z"/>
            <path class="e4bfb4d3-c627-41cd-950f-ec73e5984a72" d="M109.48,118c.18,1.4.94,3.71.38,5.09s-4.67,2.31-5.37.65c-.15-.35,0-.61.07-.94.22-1.22.68-2.39.88-3.63.26-1.64,0-3.41.31-5a2,2,0,0,1,.42-1.89,1.42,1.42,0,0,1,2.1.29C109.41,113.79,109.28,116.38,109.48,118Z"/>
            <path class="e4bfb4d3-c627-41cd-950f-ec73e5984a72" d="M109.18,134.58a21.48,21.48,0,0,1-1.43,5.9.73.73,0,0,1-.64.35c-1.67-.41-1.25-2.33-1.13-3.7a39.79,39.79,0,0,1,.64-4.82,2.29,2.29,0,0,1,.3-2.13,1.33,1.33,0,0,1,1.75-.26C109.73,130.75,109.28,133.43,109.18,134.58Z"/>
          </g>
          <path class="e7de5a1c-a40f-4ed7-969e-d0fb915750db" d="M141.47,169.84a11.06,11.06,0,0,0,3.15,4.46,7.44,7.44,0,0,0,2.26,1.4c1.51.59,3.53.34,4.51,1.83a2.33,2.33,0,0,0,1.4.41c-.19-.39-1.13-.83-1.32-1.22a.41.41,0,0,1-.05-.19,11.2,11.2,0,0,0,2,.27,6.3,6.3,0,0,0,1-.1,4.86,4.86,0,0,0,.85-.34c.13-.07-1-.29-1.52-.21-1.65.18-2-.86-3.13-1.53a4.08,4.08,0,0,0-2-.53,4.36,4.36,0,0,1-3.43-1.75c-.39-.8-.79-1.6-1.22-2.38a6,6,0,0,0-1.17-2.06c-.11-.11-.44-.23-.46-.12C141.06,167.27,141.22,169,141.47,169.84Z"/>
          <path class="a4efd55d-2b78-49dc-95dd-54f7c5934901" d="M134.91,151.86a17.18,17.18,0,0,0,1.09,6.58q1.31,4,2.6,7.92c.49,1.5,1,3.15,2.48,3.95a2.05,2.05,0,0,0,3.09-1.13c.69-1.85-.24-4.6-.55-6.48-.37-2.23-.79-4.46-1.34-6.66a8.15,8.15,0,0,0-1.82-3.81c-.19-.37-.39-.73-.58-1.07-.63-1.13-1.51-3.21-3.06-3.27C134.91,147.81,135,150.57,134.91,151.86Z"/>
          <path class="a4efd55d-2b78-49dc-95dd-54f7c5934901" d="M128.07,124.77a22.77,22.77,0,0,0,.64,5.39c.37,1.85.74,3.71.93,5.59a24.51,24.51,0,0,1-.29,6.57,15.32,15.32,0,0,0-.28,4.82c.48,3.19,3,4.39,5.9,4.88,2.51.43,7.35,1,9.15-1.42,1-1.39.59-3.35.26-4.91-.39-1.8-.91-3.54-1.44-5.3a62,62,0,0,0-3-7.89c-.18-.57-.38-1.14-.59-1.72-1.15-3.08-3.18-8.79-6.38-10.31C131.18,119.87,128.21,121.93,128.07,124.77Z"/>
          <path class="e4bfb4d3-c627-41cd-950f-ec73e5984a72" d="M130.9,125.81c.53,3.3,1.48,6.59,2.22,9.86.38,1.68.76,3.35,1.13,5a19.86,19.86,0,0,0,1.16,4.24,4,4,0,0,0,3.43,2.47c2.29-.07,2.55-2.7,2.25-4.44a79,79,0,0,0-2.73-9.53c-.82-2.65-1.44-5.71-2.66-8.25a3.62,3.62,0,0,0-2.75-2.72C130.93,122.19,130.66,124.26,130.9,125.81Z"/>
          <path class="a4efd55d-2b78-49dc-95dd-54f7c5934901" d="M130.36,124.78a43.21,43.21,0,0,1-8.33,4.5c-2.06.86-4.31,1.86-6.59,1.74-1.15-.06-4.11-.63-4-2.26.06-1,.85-1.61,1.88-2,1.35-1,4-.94,5.37-1.28a34,34,0,0,0,8.87-3.54c1.54-.88,3-2.17,4.8-1.31C134.91,121.8,131.45,124,130.36,124.78Z"/>
          <g>
            <path class="f292dc1b-2ec3-48b4-97a1-9c8d48750c6d" d="M177,144.66c11.14,18.89-5.41,11.51-17.66,9.58s-14-9.67-25.31-23.79-22-23.51-23.34-26.71l-2.36-4.57-.15-.28.61.2.21.07.65.23a141.08,141.08,0,0,1,17.61,8.27C140.26,114.65,165.88,125.77,177,144.66Z"/>
            <path class="b8df573f-a1eb-48f3-b333-400bd1ea09b3" d="M152.75,152.2a.91.91,0,0,1-.65.64c-3.4,1.11-9.53-.74-14.38-3.11s-9.87-8.22-14.37-13.37c0,0-6.4-9.22-7.52-15-.71-3.65-3.25-11-5-16h0v0L110.3,104c-.75-2.08-1.29-3.49-1.34-3.63h0S133.68,127.87,139.7,135l1.25,1.47,1.85,2.09C147.78,144.18,153.32,150.15,152.75,152.2Z"/>
            <g>
              <g>
                <path class="ebba8a8c-9e1a-454b-9594-f869f8c3c30b" d="M142.9,117.27c0,.07,0,.12-.1.11-1.54-.12-3.09-.29-4.64-.49h-.07l-.66-.09c-1.36-.17-2.71-.37-4.07-.62-1.05-.2-2.11-.41-3.17-.67q-.44-.1-.87-.24c-.25-.07-.51-.14-.76-.23a8.75,8.75,0,0,1-1.24-.48l-.6-.33-.21-.13-.37-.24-.08-.06c-.73-.49-1.41-1-2.09-1.58-1.41-1.16-2.75-2.38-4.07-3.62s-2.63-2.5-3.91-3.78c-1.77-1.77-3.69-2.76-5.45-4.14a13.37,13.37,0,0,1-1.73-1.58l.21.07.65.23c1,.71,2,1.22,2.5,1.51a31.71,31.71,0,0,1,4.34,3.32c1.28,1.29,2.56,2.56,3.86,3.8s2.62,2.46,4,3.6c.68.56,1.37,1.13,2.08,1.62l.53.35.53.31a9.37,9.37,0,0,0,1.12.46,39.27,39.27,0,0,0,4.71,1.22c1.36.28,2.72.53,4.08.76h.12c1.75.28,3.49.54,5.24.77A.17.17,0,0,1,142.9,117.27Z"/>
                <path class="ebba8a8c-9e1a-454b-9594-f869f8c3c30b" d="M148.62,120.07a7,7,0,0,0,.51,1.3,9.87,9.87,0,0,0,.75,1.23,13.56,13.56,0,0,0,1.91,2.17c.17.17.35.34.53.49l.55.46c.38.3.76.59,1.15.87.77.57,1.54,1.16,2.3,1.75,3.06,2.37,6.06,4.83,9,7.33,1.49,1.25,3,2.51,4.43,3.8s2.81,2.74,4.25,4a5.43,5.43,0,0,0,1.08.81c.09.05.16.06.16.05s0,0,0-.09a2.13,2.13,0,0,0-.13-.58c-.15-.42-.34-.86-.54-1.28l-.31-.64-.34-.63a17.15,17.15,0,0,0-1.61-2.38,8,8,0,0,0-2.1-1.86h0s-.09-.09-.07-.14a.08.08,0,0,1,.12,0,7.75,7.75,0,0,1,2.28,1.88,15.59,15.59,0,0,1,1.7,2.43l.36.64.33.65a12.2,12.2,0,0,1,.59,1.33,2.5,2.5,0,0,1,.17.74.38.38,0,0,1-.22.41.62.62,0,0,1-.46-.07,6.39,6.39,0,0,1-1.23-.9c-1.48-1.31-2.82-2.73-4.27-4s-2.91-2.55-4.39-3.81-3-2.5-4.46-3.73-3-2.46-4.5-3.66c-.75-.61-1.51-1.2-2.28-1.78-.38-.29-.77-.59-1.15-.9l-.55-.48c-.19-.16-.36-.34-.54-.51a14.67,14.67,0,0,1-1.91-2.25,10.69,10.69,0,0,1-.73-1.27,5.54,5.54,0,0,1-.49-1.34,0,0,0,0,1,0,0s.05,0,.06.06Z"/>
                <path class="ebba8a8c-9e1a-454b-9594-f869f8c3c30b" d="M137.6,116.41l3.51,3,1.76,1.53c.58.51,1.16,1,1.72,1.56a3,3,0,0,1,.41.45c.12.15.23.32.34.48.22.32.43.65.62,1a9.22,9.22,0,0,1,.54,1,2.62,2.62,0,0,1,.18.56.93.93,0,0,1,0,.29.85.85,0,0,1-.09.24,2.58,2.58,0,0,1-.62.69,5.6,5.6,0,0,1-.76.51,1,1,0,0,1-.21.1l-.08,0h-.1l-.14,0-.51-.24-1-.51c-.33-.18-.66-.36-1-.56l-.49-.3-.12-.08-.13-.11-.22-.19-1.73-1.54-3.47-3.08c-2.3-2.06-4.64-4.09-7-6.13a.25.25,0,0,1-.08-.33.2.2,0,0,1,.31,0l6.93,6.2,3.47,3.1,1.73,1.55.22.19.07.06.1.07.47.29,1,.55c.32.17.65.35,1,.51a5.11,5.11,0,0,0,.48.22l.09,0h0l.19-.09a5.63,5.63,0,0,0,.72-.48,2.32,2.32,0,0,0,.56-.62.44.44,0,0,0,.06-.34,3.63,3.63,0,0,0-.16-.46,8.32,8.32,0,0,0-.51-1c-.19-.32-.39-.64-.61-1l-.33-.47c0-.07-.11-.12-.16-.19l-.2-.19c-1.1-1-2.3-2-3.47-3l-3.55-3h0a.28.28,0,0,1-.09-.34c.06-.1.2-.1.31,0Z"/>
                <path class="ebba8a8c-9e1a-454b-9594-f869f8c3c30b" d="M149.86,122.87l-4.89.33.13-.3a9,9,0,0,0,.34.86c.12.28.26.56.4.84s.29.55.44.83.33.54.51.8l-.07-.09,4.45,4.09c1.49,1.34,3,2.7,4.52,4,.19.15.39.31.58.44a1.88,1.88,0,0,0,.27.17h0a.51.51,0,0,0,0-.09,3.17,3.17,0,0,0-.21-.64c-.09-.22-.19-.44-.29-.67-.42-.88-.89-1.76-1.36-2.64s-1-1.73-1.44-2.63a14.57,14.57,0,0,1-1-2.75c0-.06,0-.11.07-.11a.14.14,0,0,1,.12.1,13.92,13.92,0,0,0,1,2.7c.47.86,1,1.73,1.46,2.61s1,1.75,1.4,2.65c.1.23.21.45.31.68a4.16,4.16,0,0,1,.24.73.48.48,0,0,1,0,.24.25.25,0,0,1,0,.07l-.08.05s-.07,0-.11,0l-.07,0a2.69,2.69,0,0,1-.35-.21c-.22-.15-.41-.3-.61-.46-1.58-1.26-3.08-2.6-4.58-3.94s-3-2.68-4.49-4l-.07-.09a8.43,8.43,0,0,0-.68-1.72,10.54,10.54,0,0,0-1-1.61l-.15-.31h.28l5,0a.07.07,0,0,1,.07.06S149.89,122.87,149.86,122.87Z"/>
                <path class="ebba8a8c-9e1a-454b-9594-f869f8c3c30b" d="M126.56,113.68c0,.14,0,.28,0,.41a5.55,5.55,0,0,1-.25,1.07,2.21,2.21,0,0,1-.35.66.87.87,0,0,1-.78.35h0a1.35,1.35,0,0,1-.47-.18,2,2,0,0,1-.38-.3c-.24-.2-.45-.4-.66-.6-.43-.4-.83-.81-1.25-1.22q-2.44-2.46-4.86-5l-4.8-5c-1.48-1.54-2.94-3.08-4.32-4.72l-.15-.28.61.2.21.07c.51.49,1,1,1.52,1.51.88.9,1.75,1.82,2.61,2.74l4.77,5c1.6,1.68,3.19,3.36,4.79,5,.41.4.81.82,1.22,1.22.2.2.41.41.6.58a.92.92,0,0,0,.52.33.46.46,0,0,0,.42-.2,1.93,1.93,0,0,0,.3-.53,5.09,5.09,0,0,0,.29-1.07,2.56,2.56,0,0,0,0-.27h0a.18.18,0,0,1,.26-.13A.3.3,0,0,1,126.56,113.68Z"/>
                <path class="ebba8a8c-9e1a-454b-9594-f869f8c3c30b" d="M165.59,141c-.2-.52-.46-1.24-.75-2-.61-1.67-1.32-3.65-1.67-4.64l-.23-.64v0l-.06-.16-.11,0-.45.08-4.18.83-1.34.27-.29.05h0l-.28.06.17.21,5.16,6.47.37.46H162l.08,0,.44.12a7.26,7.26,0,0,0,1,.21h.07a2.36,2.36,0,0,0,1.92-.28A1,1,0,0,0,165.59,141Zm-.43.77c-.26.29-1.08.24-1.89.08a6.88,6.88,0,0,1-.84-.2l-.28-.08L157,135.12l1.44-.28,4.13-.82c.25.71,1.17,3.3,1.91,5.33l.67,1.8C165.27,141.44,165.27,141.65,165.16,141.76Z"/>
                <path class="ebba8a8c-9e1a-454b-9594-f869f8c3c30b" d="M129.62,121.57l-.5-.63-3.15-4a3.42,3.42,0,0,1-.43.21l3.18,4,.57.74,1.63,2.07a2.18,2.18,0,0,1,.16-.53Zm10.16,2.93V124l-.24-.13-1.28-.71-11.76-6.54-.92-.51-.21-.12-1.27-.71.59.76.5.63.35.46,3.18,4,.57.74,1.63,2.07.21.27,3.14,4,2.36,3h0l.11,0,.29-.11h0c.14-.07.33-.16.54-.28a4,4,0,0,0,1.28-1.18,3.3,3.3,0,0,0,.26-.45,2.2,2.2,0,0,0,.13-.34,4.38,4.38,0,0,0,.13-.43A21.18,21.18,0,0,0,139.78,124.5Zm-2.29,5.86a5.57,5.57,0,0,1-.71.37L131.49,124l-.41-.52-1.46-1.88-.5-.63-3.15-4-.11-.13.17.1,6.27,3.48,2.18,1.22,4.84,2.69a21.33,21.33,0,0,1-.34,4,1,1,0,0,0,0,.14,4.21,4.21,0,0,1-.19.57.41.41,0,0,0-.05.09A3.42,3.42,0,0,1,137.49,130.36Z"/>
                <path class="ebba8a8c-9e1a-454b-9594-f869f8c3c30b" d="M174.22,153.06a8.7,8.7,0,0,1-3.89-1,8.38,8.38,0,0,1-1.82-1.24,10.07,10.07,0,0,1-.81-.79c-.24-.3-.49-.59-.71-.89q-2.62-3.61-5.16-7.29l.23.14c-2.08-.1-4.16-.23-6.27-.46-.53-.06-1.06-.13-1.6-.22-.26,0-.53-.09-.81-.16L153,141a1.71,1.71,0,0,1-.47-.21c-.28-.21-.48-.4-.72-.61l-.67-.6-1.35-1.21q-5.37-4.87-10.72-9.77a.29.29,0,0,1-.07-.34.22.22,0,0,1,.32,0q5.36,4.89,10.71,9.76l1.35,1.21.67.6c.22.2.47.42.66.57a1.74,1.74,0,0,0,.32.13l.37.11q.39.09.78.15c.52.09,1,.16,1.57.22,2.09.23,4.17.35,6.24.45h.13l.1.14q2.43,3.72,5,7.37c.21.31.44.59.66.88s.49.55.77.79a8.48,8.48,0,0,0,1.75,1.25,9,9,0,0,0,3.86,1.08h0S174.23,153.06,174.22,153.06Z"/>
                <path class="ebba8a8c-9e1a-454b-9594-f869f8c3c30b" d="M160.82,151.64a7.74,7.74,0,0,1-3.35-1.21,7.55,7.55,0,0,1-1.47-1.25,7.25,7.25,0,0,1-.6-.77,4.81,4.81,0,0,1-.27-.41l-.24-.42a32.62,32.62,0,0,1-1.52-3.45,23.52,23.52,0,0,1-1.05-3.54.17.17,0,0,1,.18-.22.32.32,0,0,1,.27.25v0a23.78,23.78,0,0,0,.93,3.44,33.71,33.71,0,0,0,1.41,3.42l.22.41c.07.14.17.26.25.39a5.85,5.85,0,0,0,.56.75,7.46,7.46,0,0,0,1.39,1.25,7.67,7.67,0,0,0,3.27,1.27,0,0,0,0,1,0,0S160.83,151.64,160.82,151.64Z"/>
                <path class="ebba8a8c-9e1a-454b-9594-f869f8c3c30b" d="M147.11,145.09c-1.65-2.4-3.33-4.79-5.06-7.14-.86-1.18-1.75-2.34-2.65-3.49a42.89,42.89,0,0,0-2.83-3.31.26.26,0,0,1,0-.34.23.23,0,0,1,.32,0,41.38,41.38,0,0,1,2.83,3.42c.89,1.16,1.75,2.35,2.6,3.54q2.53,3.57,4.94,7.23a.06.06,0,0,1,0,.08A.07.07,0,0,1,147.11,145.09Z"/>
              </g>
              <path class="ebba8a8c-9e1a-454b-9594-f869f8c3c30b" d="M112,106.37c.79,1.24,2,3.12,2.7,4.31s1.33,2.37,2,3.56,1.29,2.42,1.9,3.64c.34.67.68,1.35,1,2,.25.52.5,1,.74,1.58a48.91,48.91,0,0,1,2.85,7.48c.33,1.26.6,2.5.89,3.76.13.62.27,1.25.39,1.88.06.31.11.63.16.94a3.93,3.93,0,0,1,.06.48,2,2,0,0,1,0,.25.74.74,0,0,1,0,.15v.06l0,0,0,0,0,0-.06,0a.25.25,0,0,1-.17,0,.33.33,0,0,1-.14-.12.22.22,0,0,1,0-.3.43.43,0,0,1,0-.05,1.83,1.83,0,0,0,0-.21c0-.15-.05-.29-.08-.45-.06-.31-.12-.61-.19-.92-.14-.62-.29-1.25-.45-1.87-.31-1.24-.63-2.5-1-3.73a49.83,49.83,0,0,0-2.92-7.3c-1.14-2.41-2.37-4.8-3.67-7.16-.64-1.19-1.3-2.36-2-3.54s-1.63-3.12-2-3.78l-1.1-1.88h0v0L110.3,104A15.74,15.74,0,0,1,112,106.37Z"/>
              <path class="ebba8a8c-9e1a-454b-9594-f869f8c3c30b" d="M130.22,139.71,128,128.43l.08.16c-1.76-1.71-3.48-3.47-5.2-5.22l-2.56-2.66a19,19,0,0,1-2.41-2.8c-.08-.13-.06-.27,0-.32a.24.24,0,0,1,.24,0,19.51,19.51,0,0,1,2.68,2.54l2.52,2.69c1.67,1.8,3.34,3.61,5,5.46l.07.07,0,.08,2,11.26c0,.07,0,.13-.1.12A.15.15,0,0,1,130.22,139.71Z"/>
              <path class="ebba8a8c-9e1a-454b-9594-f869f8c3c30b" d="M140.14,146.15c-1.43-3.46-2.9-6.91-4.48-10.33-.4-.85-.8-1.7-1.23-2.55-.22-.42-.43-.83-.67-1.25a10.71,10.71,0,0,0-.74-1.18l-.2-.23,0,0,0,0-.16-.06-.63-.27-1.25-.52-2.52-1a.33.33,0,0,1-.19-.32.18.18,0,0,1,.26-.12h0l2.5,1.08,1.25.54.62.27.16.07.12.07.1.08a2.49,2.49,0,0,1,.27.31,9.25,9.25,0,0,1,.77,1.26c.23.42.45.85.66,1.27.42.86.81,1.71,1.2,2.57,1.54,3.44,3,6.91,4.34,10.38,0,0,0,.07,0,.07S140.16,146.18,140.14,146.15Z"/>
            </g>
          </g>
          <path class="e7de5a1c-a40f-4ed7-969e-d0fb915750db" d="M89.74,136.33a.3.3,0,0,1,.22.08,2,2,0,0,1,1.22-.91c.13,0,.26.21.27.31a4.37,4.37,0,0,1-.29,2.07,4.49,4.49,0,0,0-.25,1.59c0,.18,0,.36,0,.55a6.87,6.87,0,0,0,.25,1c.1.34-.11.48.23.78a12.3,12.3,0,0,0,3.09.71c.16,0,1.14.11.86.19a8.57,8.57,0,0,1-2.81.24c.66.27,1.44.44,1.84.6s1.12.33,1.09.34c-.76.41-2.94-.1-3.71-.44a4.12,4.12,0,0,1-2.47-3.05C89.11,139.62,88.38,136.4,89.74,136.33Z"/>
          <path class="a4efd55d-2b78-49dc-95dd-54f7c5934901" d="M98.19,114.43a31.55,31.55,0,0,1-.39,9c-.38,1.67-1.24,3.3-3.12,3.3-1.63,0-4.49-.51-5.21-2.25-.85-2.06.57-4.93,1.15-6.84.75-2.51,1.26-5.79,3-7.86a2,2,0,0,1,2.08-1.06,3.84,3.84,0,0,1,.82.31C97.9,109.89,98.07,112.74,98.19,114.43Z"/>
          <path class="e4bfb4d3-c627-41cd-950f-ec73e5984a72" d="M96,117.79c-.21,1.58-.23,3.44-1.06,4.84-1.06,1.79-3.89,2.45-4.43-.14-.33-1.61.63-3.44,1.19-4.9a36.12,36.12,0,0,1,1.9-4.22c.27-1.2,1.2-2.77,2.32-1.81C97.28,112.69,96.21,116.41,96,117.79Z"/>
          <path class="e4bfb4d3-c627-41cd-950f-ec73e5984a72" d="M93.24,127.91c-.6,2.09-1.17,4.2-1.79,6.27-.19.64-.49,1.6-1.34,1.62-1,0-.72-2.35-.65-3a8,8,0,0,1,1.87-4.25s.19-.1.18-.06l-.12.27a3.58,3.58,0,0,1,1.57-.91S93.28,127.78,93.24,127.91Z"/>
          <path class="a4efd55d-2b78-49dc-95dd-54f7c5934901" d="M94.8,123.41c.46,1.76-.09,4-.42,5.74a28.85,28.85,0,0,1-2.06,6.49c-.41.92-1.47,2.29-2.77,2-1.1-.25-1.19-1.15-1.31-2.09-.5-4,1.63-8.76,3.36-12.4a2.5,2.5,0,0,1,.32-.68l.21-.42a.54.54,0,0,1,.84-.22C94,121.69,94.58,122.55,94.8,123.41Z"/>
          <path class="accfe9d2-4675-486e-aeb2-f3bb508e91bc" d="M108.81,106.41a.13.13,0,0,0,0-.06,1.41,1.41,0,0,0,1.15.36c.12,0,.28-.09.26-.24v0c.08,0,.13-.09.12-.21l0-.22.64.47c.14.1.83.15.63-.2l0,0c.2,0,.48,0,.5-.13l.62.39c.17.09.79.08.66-.18.13,0,.2-.15.07-.32l-.18-.24c.18,0,.54,0,.57-.09.09,0,.19,0,.18,0s0-.1,0-.16l0,0c.16,0,.3,0,.23-.12l0-.1h.06l.07,0c.06,0,.38.13.42,0s.18,0,.16-.09-.06-.22-.1-.33a2.42,2.42,0,0,0,.48.13c.09,0,.16,0,.16-.09s.12,0,.1-.1-.12-.38-.18-.57l0,0c.07.06.6.21.55,0a3.65,3.65,0,0,0-.13-.5c.19,0,.4,0,.34-.07l-.15-.28s0,0,0,0c.23,0,.54.1.47-.08l-.13-.3,0-.06c.06-.06,0-.13-.15-.19v0a.94.94,0,0,0,.9-.08.09.09,0,0,0,0-.1,1.24,1.24,0,0,0,0-.16c.22.05.49.06.43-.12l-.06-.15.26,0c.06,0,.44,0,.36-.16s-.12-.27-.19-.4l.22,0c.1,0,.3,0,.35-.11a.76.76,0,0,0-.06-.67l.37,0c.11,0,.34-.06.22-.21a3.34,3.34,0,0,0-.21-.28h0c.06,0,.4,0,.34-.15-.14-.33-.52-.53-.06-.56.17,0,.31-.09.15-.24s.12-.63.18-.75-.07-.15-.17-.2c.08-.12.11-.18.22-.38s0-.11-.1-.15h0c.22-.15-.15-.34-.29-.28l-.09,0c.17-.11.35-.23.53-.33s-.14-.34-.29-.28l-.51.21a.29.29,0,0,0-.33-.11l-.12,0c.08-.09,0-.2-.15-.25l.13-.07c.2-.12-.14-.35-.29-.28l-.65.3.34-.27c.16-.13,0-.27-.18-.29l.06,0c.13-.09,0-.2-.1-.25a1.13,1.13,0,0,0-.45-.19l0,0,.06-.06a.16.16,0,0,0-.11-.27.78.78,0,0,0-.73.2c.1-.07.05-.16,0-.22l.06-.06c.16-.14-.09-.31-.23-.28l-.85.21.11-.15c.11-.14-.08-.25-.23-.25l.13-.24c.12-.22-.22-.32-.36-.23l-.16.11v0c.13-.21-.25-.35-.38-.24a.38.38,0,0,0-.29-.07c0-.09,0-.19.08-.29s-.33-.32-.45-.15l0,0a.19.19,0,0,0-.13.07l-.11.22a3.82,3.82,0,0,1,.09-.44c.05-.2-.31-.3-.42-.15s-.23.33-.34.49c0-.14,0-.29,0-.43a.2.2,0,0,0-.14-.21c0-.08,0-.16,0-.24s-.31-.32-.42-.15l-.23.37c0-.08,0-.15,0-.22s-.17-.22-.32-.22v-.2c0-.22-.41-.27-.48-.07s-.1.25-.15.37l0-.32c0-.12-.2-.22-.34-.2v-.17c0-.15-.25-.25-.4-.18v-.09c0-.2-.4-.3-.49-.13l0,0v-.24c0-.2-.39-.26-.46-.07a3.21,3.21,0,0,1-.29.65l-.08-.52c0-.17-.37-.31-.46-.12s-.14.29-.2.43c0-.16-.06-.32-.1-.47s-.3-.26-.39-.1,0,0,0,.06a.83.83,0,0,1,0-.15c0-.11-.28-.18-.35-.06s-.1.21-.14.31l0-.23c0-.17-.34-.24-.41-.06l0,.14h0v-.11a.25.25,0,0,0-.41-.11l0-.15c0-.08-.13-.15-.24-.17l0-.14c0-.19-.42-.25-.42,0a1.42,1.42,0,0,1-.08.62.17.17,0,0,0-.06.06l-.11-.47c0-.17-.33-.26-.41-.06l-.22.58-.12-.41c0-.13-.35-.19-.39,0l0,.18v0c0-.13-.28-.23-.37-.1,0-.14-.1-.29-.16-.43s-.37-.18-.37,0V91l-.1-.27c0-.1-.34-.18-.37,0l0,.23c-.07-.11-.36-.12-.34.05a1,1,0,0,1,0,.24.18.18,0,0,0-.16.07l0,.06a2.18,2.18,0,0,1-.11-.27c0-.12-.34-.17-.35,0v.24h-.06l-.16-.31c0-.1-.35-.17-.33,0l0,.34-.19-.29c-.06-.08-.35-.11-.31,0a3.47,3.47,0,0,1,.08.52l-.18,0a3,3,0,0,1-.17-.36c0-.11-.33-.16-.32,0l0,.36L100,91.2c0-.1-.32-.16-.31,0l0,.85-.36-.55c0-.08-.29-.1-.28,0l0,.4-.09-.2c0-.1-.3-.14-.29,0l0,.43-.06-.12c0-.09-.31-.14-.28,0a1.73,1.73,0,0,1,0,.32h0l-.09-.17c0-.1-.31-.12-.27,0a1.67,1.67,0,0,1,.08.32.84.84,0,0,0-.24-.07.94.94,0,0,1-.1-.23c0-.09-.3-.12-.27,0l.1.44h0a2.86,2.86,0,0,1-.24-.42c-.06-.09-.31-.11-.25.05a3.06,3.06,0,0,1,.15.53.27.27,0,0,0-.12,0,1.67,1.67,0,0,1-.08-.2c0-.08-.27-.11-.25,0l.07.5a2.52,2.52,0,0,1-.15-.33c0-.08-.26-.1-.23,0l.06.26s0,0,0,0l0,.1,0,.18a5.88,5.88,0,0,0-.36-.51c0-.06-.23-.06-.18,0s.11.2.18.32-.09,0-.07.05l.15.29L96,93.27s0,0,0,0l.57.78c-.1-.1-.21-.21-.3-.32s-.4-.12-.32,0l.2.3c-.11,0-.3,0-.24.06l.15.24-.27-.23c-.07-.06-.43-.08-.28,0l0,0c-.1,0-.2,0-.14.06l0,0c.15.17.31.32.47.47l0,0-.17-.17s0,0,0,0-.38-.09-.29,0a2.61,2.61,0,0,0,.32.34s0,.05,0,.08l-.07.19-.17-.11s-.35-.07-.26,0a4.59,4.59,0,0,1,.33.52v0a.2.2,0,0,0,.08.17l0,.06-.45-.44c-.05-.06-.35-.07-.27,0l.21.24c-.08,0-.16,0-.11.06a.46.46,0,0,0,.07.07v0l-.17-.19c-.06-.07-.37-.1-.29,0s.32.37.49.59l-.11,0L94.59,96c-.07-.06-.41-.08-.27,0l.19.16s0,0,0,.08a1.94,1.94,0,0,0,.6.41l0,.07a4.75,4.75,0,0,1-.59-.35s-.35-.07-.26,0a6,6,0,0,1,.54.59l.16.18s0,0,0,.07l-.08,0c-.11-.11-.23-.23-.36-.34s-.34-.06-.26,0,.22.2.32.29l.1.11-.36-.26s-.34-.08-.25,0c.2.25.44.49.64.75,0,0,0,.06,0,.1a5.82,5.82,0,0,1-.45-.4s-.26,0-.19,0a5.27,5.27,0,0,0,.55.51h-.25c-.15,0-.2.14-.06.19l.2,0s0,.06,0,.11a2.64,2.64,0,0,0,.37.32c-.1,0-.18.1-.07.17l.43.28s0,0,0,.09a.22.22,0,0,0-.08,0c-.21,0,0,.2.07.21l-.06.09c-.13,0-.13.16,0,.2s.44.14.67.19l-.82.13c-.2,0-.06.21.07.22l.65,0-.62.15c-.18,0,0,.21.11.21.24,0,.49,0,.73,0l-.12,0c-.16,0,0,.18.08.21l-.21.07c-.26.11.06.34.22.31H96a.31.31,0,0,0,.18,0h.05a.5.5,0,0,0,.27.14.2.2,0,0,0,0,.09.09.09,0,0,0,0,.07l-.22.12c-.32.15.29.47.52.36l0,0c0,.14.29.22.42.23l-.12.1c-.21.14,0,.3.2.37l0,0c-.21.15,0,.32.21.38,0,.21.48.35.65.31l.16,0h0c-.17.24.18.42.44.44-.08.24.52.4.67.34l.19-.07c.06.14.34.21.55.22,0,.23.59.3.75.22l.07,0-.05.1c-.15.33.57.43.74.32l0,0v.09c0,.32.43.43.69.31l0,.14c-.07.32.44.44.7.32a.62.62,0,0,0,.66,0l0,0c.15.21.59.31.71.09l.14-.22s0,.07,0,.11c-.06.22.25.38.5.38,0,.3.56.48.75.24a.1.1,0,0,1,0,0c.19.15.58.16.68-.06l0-.08,0,.14a.49.49,0,0,0,.72.2c.21.16.58.21.67-.05"/>
          <path class="bf01c66f-2191-44fe-8ee8-e0cb3b4704ea" d="M115.49,101.38c-3.56,3.54-9.39,3.59-13.76,1-1.82-1.09-3.81-2.83-3.9-5.06-.1-2.48,2.15-4.1,4.35-4.6a13.34,13.34,0,0,1,7.36.58,18.12,18.12,0,0,1,2.84,1.37,13.89,13.89,0,0,1,3.73,2.27C117.82,98.35,116.73,100.15,115.49,101.38Z"/>
          <path class="e4bfb4d3-c627-41cd-950f-ec73e5984a72" d="M114.27,100.44c-2.94,2.93-7.77,3-11.39.79-1.5-.9-3.15-2.34-3.22-4.19-.09-2.05,1.77-3.39,3.6-3.8a11,11,0,0,1,6.09.48,14.92,14.92,0,0,1,2.35,1.13,11.51,11.51,0,0,1,3.09,1.88C116.2,97.93,115.3,99.41,114.27,100.44Z"/>
          <path class="e4bfb4d3-c627-41cd-950f-ec73e5984a72" d="M113.09,99.1c-2.27,2.26-6,2.29-8.77.61-1.16-.69-2.42-1.8-2.48-3.22-.07-1.58,1.37-2.61,2.77-2.93a8.47,8.47,0,0,1,4.69.37,11.6,11.6,0,0,1,1.81.87,9.05,9.05,0,0,1,2.38,1.44C114.58,97.17,113.88,98.31,113.09,99.1Z"/>
          <g class="f2d10bb3-8bfc-4846-b664-86d9d0e57d68">
            <path class="f9e7469d-cd3a-4975-ae9b-3149ebc8e233" d="M88.77,90.57a17.84,17.84,0,0,1-3,2.07c-2.2,1.28-4.49,2.36-6.67,3.68-4.41,2.67-8.56,6-11,10.71a17.12,17.12,0,0,0-2,7.3,23.14,23.14,0,0,0,.39,4,8.54,8.54,0,0,1,0,2.2c-3.8.85-6.87,1-7.86,0-2.41-2.32,2.06-12.16,11.16-22.94l.74-.87,1.62-1.84c.57-.63,1.14-1.2,1.69-1.71.28-.26.55-.5.83-.73C80.94,87.2,86,88.85,88.77,90.57Z"/>
          </g>
          <path class="ae0e2b4c-20c7-426e-99dd-9346de55439c" d="M74.86,94.65c-.16-3.08-.29-6.17-.47-9.25a4.21,4.21,0,0,0-2-3.7c-1-.78-2.09-1.53-3.14-2.29s-2.62-1.56-3.38-2.65c-1.27-1.81.18-4.06.24-6,0-.26-.57-.39-.74-.24A5,5,0,0,0,63.62,75c.22,2.09,2.05,3.06,3.6,4.15,2.23,1.57,5.78,3.13,6.16,6.08s.42,6.24.62,9.33C74,94.79,74.88,95,74.86,94.65Z"/>
          <g class="f2d10bb3-8bfc-4846-b664-86d9d0e57d68">
            <path class="f9e7469d-cd3a-4975-ae9b-3149ebc8e233" d="M66.58,102.75c-.21.7-.46,1.39-.71,2.07-.52,1.43-1.07,2.85-1.67,4.24s-1.21,2.7-1.86,4c-.34.68-.69,1.35-1.05,2-.22.43-.46,1.05-.91,1.29-.76.41-1.28-.57-1.58-1.35,1.2-3.45,3.86-8.13,7.7-13.24A.92.92,0,0,1,66.58,102.75Z"/>
          </g>
          <g class="af3de440-408a-462a-b57a-10ea6268ea5d">
            <path class="f9e7469d-cd3a-4975-ae9b-3149ebc8e233" d="M92.25,95.53a13.29,13.29,0,0,0-.92-2.47c-.11-.23-.23-.46-.35-.69l-.28-.29a12.82,12.82,0,0,0-3.4,2,5.5,5.5,0,0,0-2,3.86c-.06.86,0,1.73.06,2.59a18.65,18.65,0,0,1-.13,2.48,10,10,0,0,1-5.34,8.1,22.31,22.31,0,0,1-4.51,2.11,24.49,24.49,0,0,1-2.51.68c-.7.14-1.4.22-2.1.36-1.19.25-2.4.77-2.68,2.1a5.82,5.82,0,0,0,.65,3.62c5.75-1.58,12.49-4.55,16.21-7.9.58-.52,1.13-1,1.65-1.57a3,3,0,0,0,.25-.25C91.31,105.61,93.57,100.65,92.25,95.53Z"/>
            <ellipse class="e35a484e-0e65-4ac9-a803-806f3a8b901f" cx="79.42" cy="101.38" rx="1.18" ry="1.2"/>
          </g>
          <circle class="a048c2c6-6f07-4e3c-b6e9-a56306cb9f65" cx="80.27" cy="102.24" r="0.86"/>
        </g>
      </g>
      <g class="aae5c992-fb8f-4c66-95ef-4c125a5d61f6">
        <rect class="a46b2959-70ea-4e2f-9fac-257373fc8a30" x="201.34" y="12.27" width="770.27" height="388.79"/>
        <path class="be198548-a731-4bd2-9041-9f46650b63b8" d="M971.59,318.47l0,72-770.27.34,0-59,4.87.13.29,5.54h4.37l-.15-8.62,25.78.64v7.16l30.16.15,1.25-96.35,6.69-.49,8.09,1.54v-.89h-1.16v-1h1v-2.53H283V240h1.75v-2.28h.65V240l1.46.48-.15.74h-.36v.65l1.38.16V247l5-.5v-.89H293v.73h1.09v-8.46l5.9-.25v-1h.58v-2.37h-.51v-.89h1.75v3.58h.44v1.22H306v-1.88h1.46v1.22H307l.08,1.06,7.42.9-.06,12.61,4.52.57v1.46l.8.89-.91,67.95,5-.32,3.06.08.29-7.9,3.27-.33v-4.31l13.91-.17V308.2l10.56-.09v-1.78H356V295.91l.76-.86v-5.41H360v-4.15h1.31v.41h1.6v-6.59l.36.32v1.31l.88.16v.48h1.09l.07-.81.59-.16v.81l1.52.08.22-.73.88-.08.22.73,1.75.08-.08-.65.81.08v.49h1.45v-1l.37-.16.07-1.3h.65l.15,2.44,1.82.08.08-1.87.44.08.21,1.79,1.31.4.07-2.19h.3l.07,2.27,1.38.25.29-.65v-.9l.73.08.07,1.71-.28.49.07,3.82,2.4.17.44,3.82.37.08.29.65,1.31-.08.06-6.91.67.08.22,7.16,6.48.32L392,325.43h.88v.73l.3.25-.07,1-.44.17-.14,7.08.87.24v.89h-.59l-.07,2.61,4.67-.08c-.22,0,.14,1,.14,1l2.55.08-.36,1-.44.25h-.65l.29,4.81.59.4v5.29h1.09l.46-62.65,7.29-1.39v-3.74l8.37-1.39v-.58h2.19l.29.41,19.89.89v4.15l8,.65-.15-7.32,2.76-1,1.16-13.27,24.41.32,1.6,14,4.52.08-.07-1.54.8.07.79-11.23,3.28-.48-.16-22.22,9.69.08,6.19.73,0-31.9,4.44-1.38h2.48v-1.3h.43v1.14l6.63-.24v-1.47h.44v1.3l3.93-.25v.82h.8v-.74h5l6.05,2.28,8.3-.65,2.11,1.13-.75,67.22,5.9.89.21-9.85,3.13.09V264.5l8.15-1-.22-11,1-.65,4.15-.49V240.56l.8-.48s3.71-.66,3.49-.66,10.77-9.27,10.77-9.27h2.19l10.86,9.1.52.16.14.49,3.42.65-.07,11.15,5.25.73-.06,18.31,10.49.24.29-3.09h.51l.14,2h.52l-.07,1.06,18.79.48.07,2.93,5.84-.65.2-5.62,4.15-.17L644,263.4l.14-2.12H645l.37,1.71H647v-.41h1.83v.49l9.9-1.31v-.65h-.5v-1.38h3.13v2.11l2.55.09V261l1.09-1.22,1,.08v1.22l-.58.08.29.89.59.08.22,1.72-.07.64.51-.07V266h.43v1.14h4.52l-.34,34.5h-3l-.06,11.07,1.74.16v13.43l1.53.07v-8.05l.87-.16.08-2.61,7.65.49v-.81h7.71v.73h3.36l0-43.28.5-.42,1-.08.07-.41.73-.15.21-.33,2.26-.08.07-.49,1.61-.09v-4.79l2.55-1.39,15.67.56v-.56h1.74v.48l7.28-.08.23,6.67,6.56.08-.25,79.5,1.18-.09,0-54.19.52-.08.07-1.22,4.29.08v1.06H739V296h4.22v.58h.73l-.16-28.24,6-2.78-.08-4.71L755,258l16.32.24v2.19l1.08-.08,1.38-.57V259h.59l.36.41,3.79-.09v-.81h-.37l-.83-.94.65-.73.91-1H780v-2.52h.79V256l9.18-.17v-.73h.81v1.05l1.24.58.07.89-1,1.63.15,3.65.73.5h1.82l-.07.33.66.08v5.37h3.78v-.73l.66-.74,1,.82.17,27,1.09.33V302l3.13.24-.06,6.43,1.38.24.15,3.34.8.32.07,12.45.52.09,0,30.1.28-.08.23-.81H810V355c0,.32.22.32.22.32l.07.82,4.6-.09-.23-4.47s-.8-.9-1.24-1l-.14-.56H815v-.58l1.68.08v.25l.58.33.07.24h1.46l.15-.41a1.9,1.9,0,0,1,.8-.49c.51-.16.8.66.8.66h1.67l-.22-5,.88-.16-.09-19.13,1.39-1.38h4.66L829,276.5l1.54-.09V272l1,.08.08.9.65-.16-.07-.82,6.92.08,3-9.6.14-1.63.29-.33.36-2.6.44,2.6.44.49.22,1.47,2.63,10,16.45.4,2.19.08,2.11,1.88.16,10,.66.17.29.81.66.08,0,35.4h5.09l3.28,2.43-.06,5.13,1.53.24-.08,5,2.71.08V349h1.3v-2l7.72-.57v-3.5l.66-.73h1l.15-7.57,2.76-2h1.39v-.73h-.74v-6.26l3.65-2.2,16.25.24v6.58l-.81.82.08,1.3h4.44l.07,3.18-.43.32.29.57,5.18,4.64,3,.08v7.24H931v17.9h6l0-47.92h5.89v-.81h.81v.9h1v-.73h.66v.73h1.82V317h.43v1.3l6.85.32v-1l.59-.25.22.25.14.65h1v-1.63H958V318h1.09v-.89h1.74v.81l.3-.08,1-1v1.39Z"/>
        <rect class="bbd31c39-79d8-4615-bab3-3eddaa705bc4" x="227.7" y="108.42" width="729.26" height="399.08"/>
      </g>
    </g>
  </g>
</svg>
