<svg id="aac282ee-59aa-4eb5-b973-e477cdc61787" data-name="Layer 1" xmlns="http://www.w3.org/2000/svg" xmlns:xlink="http://www.w3.org/1999/xlink" width="462.9" height="482.5" viewBox="0 0 462.9 482.5">
  <defs>
    <style>
      .a9d9b8a3-a0b1-4fe7-807e-f2367e8c3316 {
        fill: none;
      }

      .ed4f8073-7336-4e62-94b8-3219186af5c4 {
        opacity: 0.5;
      }

      .a136199b-5b16-42df-bec8-f6a8125dffcc {
        fill: url(#ae96eda1-a083-419d-b069-658bc3ae3881);
      }

      .a39121b3-3956-4d5e-b7e0-35edca11a5e6, .bdf3723b-4dfc-4413-b5a6-377cde45fd3b {
        fill: #31d0e5;
      }

      .a39121b3-3956-4d5e-b7e0-35edca11a5e6 {
        stroke-miterlimit: 10;
        stroke-width: 6px;
        stroke: url(#ab61908f-4346-4573-9052-ec8a6ca06059);
      }

      .e7dcc151-2ace-4639-accc-33b2c4b31972 {
        clip-path: url(#ead9e312-c52f-485f-b742-d32da11942da);
      }

      .ab8501d3-13e1-41cb-b900-9209a2fbb6a6 {
        fill: #d3a102;
      }

      .e66ed26a-2432-46da-957e-7ef0ec97e123 {
        fill: #6b9e13;
      }

      .b6c0f6ba-afa0-4449-b407-c9225efedcfa {
        fill: #754c28;
      }

      .b4514b77-1636-4df0-b6fd-6556afb2b28f {
        fill: #a07f52;
      }

      .ed307f46-97f7-4925-8cfe-0a861018ac8f {
        fill: #542d19;
      }

      .bdc6d2c1-1d72-4935-b805-5e0b2b4503bd {
        fill: #83ba19;
      }

      .e54b2182-c03c-467f-8d92-3a5ba6c86aae {
        fill: #4e770e;
      }

      .aa20eb39-7eec-4f56-983e-c5772b478b20 {
        fill: #40630a;
      }
    </style>
    <linearGradient id="ae96eda1-a083-419d-b069-658bc3ae3881" x1="51.95" y1="114.32" x2="401.22" y2="353.64" gradientUnits="userSpaceOnUse">
      <stop offset="0" stop-color="#9b81cf"/>
      <stop offset="1" stop-color="#3b139b"/>
    </linearGradient>
    <linearGradient id="ab61908f-4346-4573-9052-ec8a6ca06059" x1="24.89" y1="236.79" x2="436.46" y2="236.79" gradientUnits="userSpaceOnUse">
      <stop offset="0" stop-color="#4c1da9"/>
      <stop offset="1" stop-color="#997ece"/>
    </linearGradient>
    <clipPath id="ead9e312-c52f-485f-b742-d32da11942da">
      <ellipse class="a9d9b8a3-a0b1-4fe7-807e-f2367e8c3316" cx="230.63" cy="237.25" rx="199.5" ry="200"/>
    </clipPath>
  </defs>
  <g>
    <g>
      <path class="ed4f8073-7336-4e62-94b8-3219186af5c4" d="M443.9,248a208.27,208.27,0,0,0-25.42-100A211.64,211.64,0,0,0,230.68,34C113.77,34,19,128.81,19,245.72s94.77,211.67,211.68,211.67c3,0,5.92-.07,8.87-.2C352.85,454.61,443.9,362,443.9,248Z"/>
      <g>
        <circle class="a136199b-5b16-42df-bec8-f6a8125dffcc" cx="230.68" cy="236.79" r="211.68"/>
        <circle class="a39121b3-3956-4d5e-b7e0-35edca11a5e6" cx="230.68" cy="236.79" r="202.78"/>
      </g>
    </g>
    <g class="e7dcc151-2ace-4639-accc-33b2c4b31972">
      <rect class="ab8501d3-13e1-41cb-b900-9209a2fbb6a6" x="-66.68" y="184.31" width="576.56" height="254.54"/>
      <rect class="bdf3723b-4dfc-4413-b5a6-377cde45fd3b" x="-116.09" y="21.87" width="656.9" height="303.36"/>
      <path class="e66ed26a-2432-46da-957e-7ef0ec97e123" d="M-72.92,330.85c-1.77,1.85,610.78,1.8,610.78,1.8S523,288.36,476.78,309.9c0,0-21.1-29.32-69.16,3,0,0-41.73-21.23-66.53,1.07,0,0-5.27-9.5-13-7,0,0-19.52-11.15-29.44,5.37,0,0-19.84-8.26-26.35,4.55,0,0-45.92-12.93-85.86,2.76,0,0-13.51-16.94-26.33.87,0,0-27.81-13.09-47.16,2.18,0,0-10.27-9.39-20.31.86,0,0-13-13.58-35.12-.16,0,0-14.62-17.19-39.47,1.21,0,0-13.49-20.44-40.8,1.23C-22.77,325.82-51.91,308.91-72.92,330.85Z"/>
      <g>
        <path class="b6c0f6ba-afa0-4449-b407-c9225efedcfa" d="M217.76,334.07c.25-8.22-1.49-23.9-3-35.11-.49-3.68-3-12.07-5.74-19.63-1-2.7-2-5.29-3-7.53-2-4.62-17.17-5.39-26.63-8.62-12.19-4.16-19.56-18.52-19.56-18.52l7.57-5.09s8.5,15.2,15,16.41,16.32,3,21.45,3.49c20.31,1.8,17.81-34.14,17.81-34.14l8.84.24s-5,30.8-4.68,40.13c.33,10.85,8.57,25.2,11.84,22h0a3.61,3.61,0,0,0,.8-1.45c.54-1.68,3.41-4,4.45-8.38,3.6-15.11,9.33-41.25,9.33-41.25l8.33-.16s-4,17.43-7.47,34.67c2.48-.45,12.59-2.6,20.71-8.55,9.32-6.83,15.93-17.67,15.93-17.67h7.78S285,262.46,277.22,268.45s-22.25,7.72-25.91,15.24a6.35,6.35,0,0,1-.91,1.5c-2.61,14.89-5.54,28.7-6.05,33.44-1.24,11.46,5,37.36,8.19,44.59s18.89,14.44,25.59,14.94c2.63.19,5.63,1.61,8.31,3.26h0a55.33,55.33,0,0,1,7.59,5.7H149.45s14.16-5.47,19.21-8,19.54-4,32.6-9.71S217.52,342.3,217.76,334.07Z"/>
        <path class="b4514b77-1636-4df0-b6fd-6556afb2b28f" d="M219.81,340.6a67.12,67.12,0,0,0,1.83-6.81c1.15-4.58.3-10.73,1-10.92.28-.08,1.07,4.4,1.07,11.35,0,3.12-1.59,9.34-1.12,10.22.19.37-.05,6.4-.17,9.58,0,1.06-1.07,3.36-1.17,4.17-.3,2.58.78,2.74.49,4-.36,1.6-7.27,8.29-8.54,8.29-.6,0,3.3-3.05,3.82-6.94.58-4.39,3-11.45,2.2-11.54s-3.85,9.89-4.08,11.37-1.36,4.8-7.75,7.52-13.27,4.68-15.11,7-19.31.25-21,1.23-6.45,1.73-6.45,1.73h0c1.51-.65,2.86-1.26,3.85-1.74,5.06-2.49,19.54-4,32.61-9.7s16.25-27.16,16.5-35.37c.23-7.59-1.24-21.51-2.63-32.43a88.08,88.08,0,0,1,4.67,17.76C220.91,328,220,336.42,219.81,340.6Z"/>
        <path class="ed307f46-97f7-4925-8cfe-0a861018ac8f" d="M237.74,287.71c0,.2-.84,4.35-5.5,3.2-3.38-.84-8.08-8-10.5-12a47.32,47.32,0,0,1-12.7.42c-1-2.7-2-5.29-3-7.53-2-4.62-17.17-5.39-26.63-8.62-12.19-4.16-19.56-18.52-19.56-18.52l7.57-5.09s8.5,15.2,15,16.41,16.32,3,21.45,3.49c20.31,1.8,17.81-34.14,17.81-34.14l8.84.24s-5,30.8-4.68,40.13C226.23,276.55,234.47,290.9,237.74,287.71Z"/>
        <path class="ed307f46-97f7-4925-8cfe-0a861018ac8f" d="M278.13,378.16c2.63.19,5.63,1.61,8.31,3.26l-3.67-1a43.37,43.37,0,0,0-12.49-.39c-4,.67-13.67-2.19-19-4.83s-4.14-5.45-6-12-3.65-8.66-4.54-9.56-.68-3-1.4-6.17-.84-21.17-.79-26.62a58.37,58.37,0,0,1,1.29-13c1-5.17,4.09-21.62,4.42-23.47.15-.77.75-3.19,1.43-5.78-1.78-.52-1.32,0-2.61-.74,3.6-15.11,9.33-41.25,9.33-41.25l8.33-.16s-4,17.43-7.47,34.67c2.48-.45,12.59-2.6,20.71-8.55,9.32-6.83,15.93-17.67,15.93-17.67h7.78S285,262.46,277.22,268.45s-22.25,7.72-25.91,15.24a6.35,6.35,0,0,1-.91,1.5c-2.61,14.89-5.54,28.7-6.05,33.44-1.24,11.46,5,37.36,8.19,44.59S271.43,377.66,278.13,378.16Z"/>
        <path class="e66ed26a-2432-46da-957e-7ef0ec97e123" d="M126.26,208.83c-12.15-7.09-21.58-37.05-.14-40.51,0,0-3.06-18.43,16.7-13.68,0,0,9.44-32,29.14-15.14,0,0,29.23-38.64,45.18-11,0,0,.84-9.26,13.24-3.09,0,0,26.66-26.88,32.47-2.27,0,0,60.87-1.14,41.53,35.87,0,0,19.1-6.17,15.82,19.79,0,0,19.88,11.33,18.54,25.58s-15,17.17-24.27,23.24c-8.79,5.75-41-19.57-76.38-23.32C188.8,199.09,133.33,213,126.26,208.83Z"/>
        <path class="bdc6d2c1-1d72-4935-b805-5e0b2b4503bd" d="M253.8,112.83c-14.23,3.9-20,17.61-20,17.61-7.94-4-15.1,2.78-15.1,2.78s-4.52-5-15.33-5.88c-7.83-.64-20.9,10.67-26.18,15.81a17.69,17.69,0,0,1,2.64,3.21,35.5,35.5,0,0,1,2.53,5.75,43.49,43.49,0,0,0-9.21-7.45c-3.6-2.11-8.26-3.45-11.2-3.36-7.28.23-11.35,20-11.35,20s-6.3-6.3-13.48-3.21-4.14,11.55-4.14,11.55c-16.44,1.31-17,20.05-16.46,27.19-5.25-11.38-5-26.19,9.64-28.56,0,0-3.06-18.43,16.7-13.68,0,0,9.44-32,29.14-15.14,0,0,29.22-38.64,45.18-11,0,0,.84-9.26,13.24-3.09C230.38,125.42,243.91,111.78,253.8,112.83Z"/>
        <path class="e54b2182-c03c-467f-8d92-3a5ba6c86aae" d="M338.74,204.39c-1.34,14.25-15,17.17-24.27,23.24-6.17,4-51.55-6-51.55-6s-12.38,8.49-25.62,5.53S222.66,213,222.66,213s-92.5-.85-98.54-4.38c-5.82-3.38-10.52-12-11.49-20.39l1.87,1.09s73.76,16.76,91.1,17.42,23.57-12.58,23.57-12.58,38.78,8,45.42-12.36c0,0,24.85-.46,9.31-13.79,0,0,25.74-13.95,19.5-33.65,5.25,5.31,7,13.13,1,24.63,0,0,19.1-6.18,15.81,19.79C320.19,178.81,340.08,190.14,338.74,204.39Z"/>
        <path class="aa20eb39-7eec-4f56-983e-c5772b478b20" d="M328.63,185c-9,12.61-29.14,30.95-48.4,40-9.55-1.73-17.32-3.46-17.32-3.46a40.51,40.51,0,0,1-14,5.6,30.59,30.59,0,0,1-11.69-8.48L241.14,205c5.5,1.34,11.15,4.41,15.49-1.91,15.21,0,22.53-13.81,22.53-13.81s16.84,6.64,29.22-5.77c11.38-11.41,9.18-20,4.56-24.53,4.59,1.49,9,6.29,7.26,19.84A55.15,55.15,0,0,1,328.63,185Z"/>
        <path class="e66ed26a-2432-46da-957e-7ef0ec97e123" d="M184.79,243.88c-.09,0-1.14,3.6-8.51,6.07s-27-1.47-27-1.47-9.65,7.23-17.41,5.27-7-9.55-7-9.55-10.27,3.14-18.36-4.61c0,0-20.48,4.08-25.46-5.54s12.09-19.53,12.09-19.53-12.77-4-7.22-12.15S106,192.48,106,192.48s-8.88-21.42,30.78-11.81a50.83,50.83,0,0,1,36.27-16c23.07-.27,18.86,13.89,18.86,13.89s28.3-7.14,31,12.56c0,0,26.44,1.17,12.11,12.65,0,0,18,.68,15.58,15.65S229.43,230,229.43,230s1,12.41-10.4,11.82S206,236.91,206,236.91,198.22,257.26,184.79,243.88Z"/>
        <path class="e54b2182-c03c-467f-8d92-3a5ba6c86aae" d="M250.58,219.46c-2.42,15-21.15,10.55-21.15,10.55s1,12.41-10.4,11.82S206,236.91,206,236.91s-7.74,20.35-21.17,7c-.1,0-1.18,3.61-8.51,6.07s-27-1.47-27-1.47-9.65,7.23-17.41,5.27-7-9.55-7-9.55-10.27,3.14-18.37-4.61c0,0-14.92,3-22.38-2.15,8,2.92,21.62-.4,25.83-8.43,0,0,6.3,7.81,18.74,2.71,0,0,20.67,7.38,30.42-8.55,0,0,6.89,2.61,11.39-2.63,0,0,28,14.58,33.68-8.5,0,0,17.6-4.12,2.65-17.4,0,0,7-2.7,7.64-8.22.66-5.37-1.28-7.39-1.38-7.49a14.25,14.25,0,0,1,9.77,12.23s26.46,1.17,12.12,12.65C235,203.81,253,204.48,250.58,219.46Z"/>
        <path class="e54b2182-c03c-467f-8d92-3a5ba6c86aae" d="M191.92,178.6h0l-8.31,4.89c9.64-9.23,0-17.52,0-17.52h0C194.43,169.34,192,178.23,191.92,178.6Z"/>
        <path class="bdc6d2c1-1d72-4935-b805-5e0b2b4503bd" d="M143.63,182.86a35.49,35.49,0,0,1,28.31-18.12,50.78,50.78,0,0,0-35.15,15.92C97.13,171.06,106,192.48,106,192.48s-14.53,1.74-20.07,9.89,7.22,12.15,7.22,12.15-14.08,8.17-12.94,16.87c0,0,2.8-12.78,21.33-15.48,0,0-8.22-5.57-4.52-12s18.22-7.09,18.22-7.09-3.16-9.84,5.8-13.07,30.19,3.18,30.19,3.18A49.79,49.79,0,0,0,143.63,182.86Z"/>
        <path class="bdc6d2c1-1d72-4935-b805-5e0b2b4503bd" d="M140.19,209c.3-.52-7.78-3.24-12.63,1.16s-1.43,12-1.43,12,.06-5.68,3.6-9.43S139.89,209.53,140.19,209Z"/>
        <path class="bdc6d2c1-1d72-4935-b805-5e0b2b4503bd" d="M211.84,159.11c.53-.27-4.77-7-11.23-5.9s-7.7,9.28-7.7,9.28,3.12-4.74,8.14-6S211.3,159.39,211.84,159.11Z"/>
        <path class="bdc6d2c1-1d72-4935-b805-5e0b2b4503bd" d="M264.62,156.53s.94-9.12-5.92-13-14.44,2-14.44,2,7-1.47,12.63,1.13S264.62,156.53,264.62,156.53Z"/>
        <path class="aa20eb39-7eec-4f56-983e-c5772b478b20" d="M250.58,219.46c-2.42,15-21.15,10.55-21.15,10.55s1,12.41-10.4,11.83S206,236.91,206,236.91s-7.74,20.34-21.17,7c-.1,0-1.18,3.61-8.51,6.07s-27-1.47-27-1.47-9.66,7.23-17.41,5.27-7-9.55-7-9.55a20.14,20.14,0,0,1-14.81-1.93.25.25,0,0,1,0-.06s9.76,2.41,16.64-4.12c0,0,.31,9,9,8.72S149.88,240,149.88,240s14.71,10.68,27.52-2.38c0,0,15.2,8,23.12-7,0,0,19.9,8.89,21.22-7,18.63-2.52,6.3-17.07,6.3-17.07s4.22-5.41-.43-8.49a16.27,16.27,0,0,0-8.63-2.93,14.93,14.93,0,0,0-1.6-13.92,14.29,14.29,0,0,1,5.51,9.95s26.45,1.17,12.11,12.65C235,203.81,253,204.48,250.58,219.46Z"/>
        <path class="e66ed26a-2432-46da-957e-7ef0ec97e123" d="M284.23,192.78s-21.21-3.55-21.47,18c0,0-21.78.78-20.56,17.24s21.66,14.84,21.66,14.84,6.79,16.54,26.77,5.77c0,0,4.47,7.43,16.92-.24,0,0,13.9,9.63,23.93,7.3s12.28-8.93,12.28-8.93,5.22,4.32,10.06,1.4a14.26,14.26,0,0,0,6.14-7.7s10.22-.57,11.8-9.09-11.9-17.49-11.9-17.49c9.86-13.17-12.09-14.54-12.09-14.54s5.1-11.87-13.32-9.23C331.35,180.64,311.14,167.27,284.23,192.78Z"/>
        <path class="e54b2182-c03c-467f-8d92-3a5ba6c86aae" d="M371.75,231.39c-1.57,8.52-11.79,9.09-11.79,9.09a14.26,14.26,0,0,1-6.14,7.7c-4.84,2.92-10.06-1.4-10.06-1.4s-2.26,6.6-12.28,8.94-23.93-7.3-23.93-7.3c-12.45,7.66-16.91.24-16.91.24-20,10.76-26.78-5.78-26.78-5.78s-16.49,1.31-20.73-10.35c0,0,7.63,10.84,23.44,4.05,0,0,13.17,8.74,23.71,1.59,0,0,7.36,9.8,18.1,1.08,0,0,22.36,8.72,24.11-8.82,0,0,12.24,2.61,6.65-9.2,0,0,8.1-8.38-.2-17.49,0,0,10.11-6.21,6.86-12.57,4.34,2.66,2,8.19,2,8.19s22,1.37,12.1,14.54C359.86,213.9,373.34,222.88,371.75,231.39Z"/>
        <path class="bdc6d2c1-1d72-4935-b805-5e0b2b4503bd" d="M312.3,178.13a41,41,0,0,0-24.71,19.07c-13.33-.78-17.54,8.06-18.78,14.31a20,20,0,0,1,9,5.55,41,41,0,0,0-21.66-1.91c-12.32,2.18-14,12.89-14,12.89-1.22-16.46,20.56-17.23,20.56-17.23.26-21.59,21.47-18,21.47-18C294.84,182.72,304.41,178.71,312.3,178.13Z"/>
        <path class="bdc6d2c1-1d72-4935-b805-5e0b2b4503bd" d="M314.83,206.13c.51-.32-5.34-6.53-11.69-4.93s-6.89,9.9-6.89,9.9,2.72-5,7.61-6.62S314.31,206.45,314.83,206.13Z"/>
        <path class="aa20eb39-7eec-4f56-983e-c5772b478b20" d="M371.76,231.39c-1.58,8.52-11.8,9.09-11.8,9.09a14.26,14.26,0,0,1-6.14,7.7c-4.84,2.92-10.06-1.4-10.06-1.4s-2.25,6.6-12.28,8.94-23.93-7.3-23.93-7.3c-12.45,7.66-16.91.24-16.91.24-16.22,8.73-23.75-.51-26-4.31a5.56,5.56,0,0,1,.44.49c7.61,9.25,24.82-.72,24.82-.72,4.83,4.76,16.65.32,16.65.32,27.63,12.16,34.42-5,34.42-5,9.14,2.61,15.49-2.53,17.55-10.17s-7.26-14.37-7.26-14.37,5.47-2.25,6-7.46a7,7,0,0,0-3.62-7.13c5.69,1.47,12.61,5,6.23,13.56C359.86,213.9,373.34,222.88,371.76,231.39Z"/>
      </g>
    </g>
  </g>
</svg>
