<svg id="ea05bf42-b6f8-4a2d-927d-caad88a4cb70" data-name="Layer 1" xmlns="http://www.w3.org/2000/svg" xmlns:xlink="http://www.w3.org/1999/xlink" width="462.9" height="482.5" viewBox="0 0 462.9 482.5">
  <defs>
    <style>
      .e9c75fa1-3d7c-4bc8-9dec-f91c48a40134 {
        opacity: 0.5;
      }

      .b3870467-3170-46c8-87d3-1674e5ec0ea5 {
        fill: url(#eb2dce44-2a05-43dc-87bf-80e8d96d5779);
      }

      .a44390f7-67ce-4e4f-a994-53073ba6792e {
        fill: #e2a333;
        stroke-miterlimit: 10;
        stroke-width: 6px;
        stroke: url(#a1222daa-0422-478e-a8ac-b5b69b4cadf8);
      }

      .f2c823b5-a9e3-475c-b886-d84da5428c48 {
        opacity: 0.25;
      }

      .ab755ed1-dae5-4c37-a48d-5fb9442df554 {
        fill: #606b7a;
      }

      .f5ed17cc-7906-4f53-81d4-12f7cd1001a2 {
        fill: #56606e;
      }

      .e8899a6f-3e94-4f79-bdc8-4af31bae47d0 {
        fill: #858c96;
      }

      .b5b1a123-f9b9-4211-adca-f1f9d3afbac6 {
        fill: #9ba3ae;
      }

      .b01f6228-e0e1-40f9-8ffa-fae8c3808fe0 {
        fill: #9199a3;
      }

      .a58be2a0-a472-46b4-b089-0e8ec7a49757 {
        fill: #868d96;
      }

      .bab93f70-5e6c-46b4-8f59-ae6a9e5a920c {
        fill: #828891;
      }

      .a53d1d37-405c-47c0-8555-ed126ee14db8 {
        fill: #8d949e;
      }

      .fd36632e-5be2-415d-a4e4-2c27099a0d42 {
        fill: #667282;
      }

      .a6c5ecfb-be8f-4546-872e-397fd2f136a2 {
        fill: #5e6978;
      }

      .ae5ef982-d7b8-412e-8c18-1ee62ef47fee {
        fill: #d0dbeb;
      }

      .eb271218-bccc-44fd-8467-761527a8c4df {
        fill: #444c57;
      }

      .bb8c257f-7bc6-4fb7-800f-e23a50c2e8a2 {
        fill: #5a6573;
      }

      .f01209f7-622f-4c61-9239-470e6969d280 {
        fill: #848d99;
      }

      .b3876262-2392-4d54-b5c5-d7cadbfd545d {
        fill: #b1bac7;
      }

      .a65b574c-2449-442c-b471-62823c82e115 {
        fill: #a8b1bd;
      }

      .e33b552b-b8c8-4f40-90ad-3d4f1a206761 {
        fill: #778291;
      }

      .b372756e-9c45-442a-8921-230fd401c47a {
        fill: #69727d;
      }

      .f8032b7a-beed-4ea8-945c-6238c51f21d7 {
        fill: #525b69;
      }

      .bf8222b5-ba99-4507-a2e9-9c982ec044fb {
        fill: #a6aeba;
      }

      .e51f5a76-3826-43b7-bb9d-493c5bb4a686 {
        fill: #656e78;
      }

      .b4b89999-1f99-439a-99b0-b4c857c03868 {
        fill: #949ba6;
      }

      .ae6f068e-1e04-411e-a667-523b8f387d21 {
        fill: #586370;
      }

      .b6febcd8-dd8a-4f6e-952c-c16d275ca585 {
        fill: #6d7782;
      }

      .f28cbb52-1509-45a8-8d96-4a3d8f55ccf8 {
        fill: #7a8391;
      }

      .b8de55ba-eba3-412d-9f7d-8d188547865c {
        fill: #b8c0cf;
      }

      .bd3e050b-f1c3-428b-a3a7-8b9103526972 {
        fill: #c1c9d9;
      }

      .a67ee38c-f8cb-4cad-80bb-718d90948dae {
        fill: #5e6770;
      }

      .aadab512-9fa0-4a72-bd50-03737ed5bbcd {
        fill: #4e5864;
      }

      .af7af330-1ed6-49ac-b051-068669d66094 {
        fill: #545e6b;
      }

      .ee3869d2-b3eb-4572-a893-cd8ca5c4ccda {
        fill: #3f4953;
      }

      .e55cb9fb-98ee-4903-acbb-db9808389974 {
        fill: #4e5a66;
      }

      .acd065b5-4e67-4261-b469-dc7bd84f77b6 {
        fill: #8e96a1;
      }

      .e1dc6085-e9ff-48c4-9f8a-beedf5f16b24 {
        fill: #969da8;
      }

      .b45ddb34-a0b2-4e2e-be87-6b0ef4bf09ab {
        fill: #767c85;
      }

      .b72a2ef7-f9e2-4c03-b23f-dee22cbfe924 {
        fill: #ccd7e6;
      }

      .fd69ad7c-ea34-49dd-9561-1507d518d556 {
        fill: #aab3bf;
      }

      .e4cb1c9f-dc0a-45d2-934e-6991aaad9f8e {
        fill: #a9b1bf;
      }

      .ae90ddf1-5a79-41fc-be20-6a9e5177f3e2 {
        fill: #868e96;
      }

      .b1f732e8-912f-4205-b11b-88a62cc4e605 {
        fill: #a4acba;
      }

      .fad1c7d5-2bfd-482e-9961-70b406b07104 {
        fill: #7e888f;
      }

      .f69c5bee-facf-46e4-9d0e-83eed505b2f2 {
        fill: #c0c9d9;
      }
    </style>
    <linearGradient id="eb2dce44-2a05-43dc-87bf-80e8d96d5779" x1="52.73" y1="118.79" x2="402" y2="358.11" gradientUnits="userSpaceOnUse">
      <stop offset="0" stop-color="#9b81cf"/>
      <stop offset="1" stop-color="#3b139b"/>
    </linearGradient>
    <linearGradient id="a1222daa-0422-478e-a8ac-b5b69b4cadf8" x1="25.67" y1="241.25" x2="437.24" y2="241.25" gradientUnits="userSpaceOnUse">
      <stop offset="0" stop-color="#4c1da9"/>
      <stop offset="1" stop-color="#997ece"/>
    </linearGradient>
  </defs>
  <g>
    <path class="e9c75fa1-3d7c-4bc8-9dec-f91c48a40134" d="M444.68,252.5a208.28,208.28,0,0,0-25.42-100,211.66,211.66,0,0,0-187.81-114c-116.9,0-211.67,94.78-211.67,211.68s94.77,211.68,211.67,211.68c3,0,5.93-.08,8.87-.2C353.63,459.07,444.68,366.42,444.68,252.5Z"/>
    <g>
      <g>
        <circle class="b3870467-3170-46c8-87d3-1674e5ec0ea5" cx="231.45" cy="241.25" r="211.68"/>
        <circle class="a44390f7-67ce-4e4f-a994-53073ba6792e" cx="231.45" cy="241.25" r="202.78"/>
      </g>
      <g>
        <path class="f2c823b5-a9e3-475c-b886-d84da5428c48" d="M389,265l-1-17.62,1.71-9.7-2.22-5.84h0l-1.92-5-6.06-2.36h0l-6-2.32-11.45-6.19-7-4.65h-3.8l-.88.72a58.58,58.58,0,0,0-21.86-.76l-1.64.27v-8.14L321,153.25h0l-6.46-4.63-4-2.9,1.9-12V115.07l-13.55,8.32,13.55-8.32s-5.87-12.26-6.33-13.64-19.89,0-24.1-.24c-2-.11-7.33,1.29-12.31,2.77l-.43.13-1.41.43-1.39.43c-4,1.25-7.15,2.33-7.17,2.34h0l-5.3,3.64-7.64,22.8.1,2.08-8.68,1.55h0L197,156.91h0l-7.29,27.92-14.64-2H159.18l-10.29-3.12-14.34-2L110.37,195.9l-4.48,12.15-3.33,23.88-6.14-3.84L79.64,231,68,242.72l-19.35,1.39-3.38,7.38L43.52,257v5.76l2.82,5,4.09,7.41.82.64-.65,3.89L51.8,288l-1.2,14.43,5.23,9.81,5.78,6.28,16,2.49L96,318.55l41.14,3.25L158,320.05,154.64,328l.37,3.52-1.59,4.35.73,2.48.37,3,3.54.65,11.11,1.18,3.18-.08,5.73-.15,8.79.52,5.44.33,11.05-.62,7.18-1.46,3.38-.69-2.28,9.17,11.7,7.53h27.29l8.48-.57,26-.44,21-.88,30.88-2.38,15-1,12.67-2.26,28.27-15.55ZM308,170.34l-6.39,3.3h0l6.4-3.3,4.7-6.15Z"/>
        <g>
          <g>
            <path class="ab755ed1-dae5-4c37-a48d-5fb9442df554" d="M198.66,210.64,183,229.12l-10.74,10.21-6.41,20.16,2.57,2.73,2.39,5.37v21.49s-1.2,3.46-2.39,4.29-4.78,1.23-4.78,1.23l15.78,14,15.17-75.8Z"/>
            <polygon class="f5ed17cc-7906-4f53-81d4-12f7cd1001a2" points="158.23 294.83 134.05 295.94 115.09 302.5 99.68 308.57 140.82 311.82 179.39 308.57 163.61 294.6 158.23 294.83"/>
            <polygon class="e8899a6f-3e94-4f79-bdc8-4af31bae47d0" points="104.83 301.56 113.6 289.08 99.68 285.18 90.08 278.05 79.17 271.24 74.69 267.59 65.25 257.14 65.25 257.14 57.59 249.48 54.24 269.7 55.43 278.05 54.24 292.47 59.46 302.29 65.25 308.57 81.26 311.05 99.68 308.57 104.83 301.56 104.83 301.56"/>
            <polygon class="b5b1a123-f9b9-4211-adca-f1f9d3afbac6" points="130.13 190.94 143.77 190.39 158.97 197.94 158.97 197.94 161.48 199.09 173.28 202.55 198.44 209.04 199.09 184.34 199.09 175.62 178.74 172.85 162.82 172.85 152.52 169.73 138.19 167.78 114.01 185.91 130.13 190.94"/>
            <polygon class="b01f6228-e0e1-40f9-8ffa-fae8c3808fe0" points="199.49 209.53 216.4 199.49 224.72 194.39 218.75 187.62 199.09 175.62 199.09 184.34 199.49 209.53"/>
            <path class="a58be2a0-a472-46b4-b089-0e8ec7a49757" d="M224.72,194.39l-8.32,5.1h0l-16.92,10.88,3,14.52,7.32,31.5-4.46-19.21,5,18.82h0l2.09-1.43c.25-.17,7.44-5.77,7.44-5.77l11.79.68h1.05l2.09-25.78Z"/>
            <polygon class="bab93f70-5e6c-46b4-8f59-ae6a9e5a920c" points="220.41 249.82 212.5 254.57 212.5 254.57 210.41 256 209.23 274.1 209.84 256.39 208.05 308.57 224.72 306.29 232.78 249.48 231.73 249.48 220.41 249.82"/>
            <polygon class="a53d1d37-405c-47c0-8555-ed126ee14db8" points="115.09 302.5 133.56 294.19 158.23 294.83 158.23 294.83 163.61 294.6 161.48 273.13 148.88 280 132.76 285.23 114.01 289.69 104.83 301.56 99.68 308.57 115.09 302.5 115.09 302.5"/>
            <polygon class="b5b1a123-f9b9-4211-adca-f1f9d3afbac6" points="75.19 266.01 78.97 269.19 90.08 278.05 90.08 278.05 99.68 285.18 114.01 288.45 132.76 285.23 148.88 280 161.48 273.13 139.53 259.35 130.19 245.27 109.53 234.35 105.95 223.69 74.84 235.99 57.59 249.48 65.25 257.14 75.19 266.01"/>
            <polygon class="ab755ed1-dae5-4c37-a48d-5fb9442df554" points="198.72 210.35 173.28 202.55 173.28 202.55 161.48 199.09 139.53 259.35 145.83 254.57 152.52 256.96 163.61 257.14 165.82 259.49 172.23 239.33 182.97 229.12 198.66 210.64 198.72 210.35"/>
            <polygon class="ab755ed1-dae5-4c37-a48d-5fb9442df554" points="129.9 191.42 119.32 187.57 130.13 190.94 114.01 185.91 109.53 198.06 105.95 223.69 109.53 234.35 129.9 191.42"/>
            <polygon class="fd36632e-5be2-415d-a4e4-2c27099a0d42" points="143.39 191.64 142.84 191.42 129.9 191.42 129.9 191.42 109.53 234.35 130.19 245.27 143.39 191.64"/>
            <polygon class="a6c5ecfb-be8f-4546-872e-397fd2f136a2" points="161.48 199.09 158.97 197.94 143.39 191.64 130.19 245.27 139.53 259.35 161.48 199.09"/>
            <polygon class="a6c5ecfb-be8f-4546-872e-397fd2f136a2" points="202.53 224.89 202.53 224.89 199.33 211.91 198.6 223.41 198.6 223.41 195.51 305.68 208.05 308.57 209.84 256.39 202.53 224.89"/>
            <polygon class="fd36632e-5be2-415d-a4e4-2c27099a0d42" points="198.99 210.99 194.56 232.77 194.56 232.77 179.39 308.57 195.51 305.68 198.6 223.41 198.99 210.99"/>
            <polygon class="ae5ef982-d7b8-412e-8c18-1ee62ef47fee" points="114.01 288.45 99.68 285.18 113.6 289.08 104.83 301.56 104.83 301.56 114.01 289.69 132.76 285.23 114.01 288.45"/>
            <polygon class="ae5ef982-d7b8-412e-8c18-1ee62ef47fee" points="78.97 269.19 75.19 266.01 65.25 257.14 65.25 257.14 74.69 267.59 79.17 271.24 90.08 278.05 90.08 278.05 78.97 269.19"/>
            <polygon class="ae5ef982-d7b8-412e-8c18-1ee62ef47fee" points="142.84 191.42 143.39 191.64 158.97 197.94 158.97 197.94 143.77 190.39 130.13 190.94 119.32 187.57 129.9 191.42 129.9 191.42 142.84 191.42"/>
            <polygon class="ae5ef982-d7b8-412e-8c18-1ee62ef47fee" points="199.09 184.34 198.44 209.04 173.28 202.55 173.28 202.55 198.72 210.35 198.66 210.64 194.56 232.77 194.56 232.77 198.99 210.99 198.6 223.41 198.6 223.41 199.33 211.91 202.53 224.89 202.53 224.89 199.49 210.37 216.41 199.49 216.4 199.49 199.49 209.53 199.09 184.34"/>
            <polygon class="eb271218-bccc-44fd-8467-761527a8c4df" points="133.56 294.19 115.09 302.5 115.09 302.5 134.05 295.94 158.23 294.83 158.23 294.83 133.56 294.19"/>
            <path class="ae5ef982-d7b8-412e-8c18-1ee62ef47fee" d="M220.41,249.82l11.32-.34-11.79-.68s-7.19,5.6-7.44,5.77h0Z"/>
            <polygon class="ae5ef982-d7b8-412e-8c18-1ee62ef47fee" points="210.41 256 210.41 256 205.38 237.18 209.84 256.39 209.23 274.1 210.41 256"/>
            <path class="bb8c257f-7bc6-4fb7-800f-e23a50c2e8a2" d="M152.52,257l-6.69-2.39-6.29,4.78,21.94,13.78,2.13,21.47s3.58-.41,4.78-1.23,2.39-4.29,2.39-4.29V267.59l-2.39-5.37-2.57-2.73-2.21-2.35Z"/>
          </g>
          <g>
            <polygon class="f01209f7-622f-4c61-9239-470e6969d280" points="215.65 275.95 218.03 261.31 218.03 261.31 218.95 251.04 221.43 204.34 209.17 182.36 208.38 181.13 200.67 146.92 191.18 183.26 188.81 207.69 183.47 233.35 178.72 256.87 178.72 283.74 190.21 310.04 200.33 297.6 215.65 275.95"/>
            <path class="b3876262-2392-4d54-b5c5-d7cadbfd545d" d="M244.16,136.78h0l6.24,19.91L283.88,169l6.17,1.71,15.15-7.09,6.4-3.29,4.7-6.16,8.35-10.94h0l-6.45-4.64c-1.46.73-2.74,1.28-2.74,1.28l-6.31-3.12-7.9-3.13H277.07l-8.41-2.34-4-8.09-23.26,4.15h0Z"/>
            <polygon class="a6c5ecfb-be8f-4546-872e-397fd2f136a2" points="287.38 268.67 264.34 268.67 238.53 273.77 234.55 274.85 225.73 276.22 225.73 276.22 216.57 278.85 200.33 297.6 200.33 297.6 190.21 310.04 216.57 313.67 279.83 313.67 287.38 268.67 287.38 268.67"/>
            <polygon class="f5ed17cc-7906-4f53-81d4-12f7cd1001a2" points="324.65 223.58 307.45 255.03 287.38 268.67 279.83 313.67 299.14 305.73 313.97 291.07 324.65 272.75 324.65 242.21 330.58 221.44 330.58 193.34 324.65 223.58"/>
            <path class="a65b574c-2449-442c-b471-62823c82e115" d="M209.17,182.36h0l14.19,20.3,8.72-14.2h0l.45-.79h0l16.59-31-5-19.91-2.75-9.41h0l-40.74,19.54h0l7.71,34.21Zm17.6-31.62-8,23.14a.14.14,0,0,1,0,.07l0-.07c.5-1.52,6.55-23.75,6.55-23.75l10.93-17.56Z"/>
            <polygon class="e33b552b-b8c8-4f40-90ad-3d4f1a206761" points="264.74 266.64 287.72 266.64 292.58 209.25 295.29 188.46 289.75 171.81 283.74 169 283.74 169 249.99 157.51 232.53 187.67 232.08 188.46 224.1 204.95 218.95 251.04 218.95 251.04 218.03 261.31 217.28 276.22 225.73 276.22 234.55 274.85 238.53 273.77 238.53 273.77 264.74 266.64"/>
            <path class="b372756e-9c45-442a-8921-230fd401c47a" d="M316.3,154.2l-4.7,6.16-6.4,3.29-14.36,8,4.45,16.85-2.71,20.79-4.86,57.39L307.45,255l17.2-31.45,5.93-30.24-5.93-50.08h0ZM299,241.87c.57,1-.82,4.37-.82,4.37l-3.56,14.16-3.19.91s2.44-11.48,2.44-12.19.34-6.31.86-6.64,2.2-11.3,2.2-11.3l2.86.78S298.43,240.88,299,241.87Z"/>
            <polygon class="ae5ef982-d7b8-412e-8c18-1ee62ef47fee" points="283.74 169 283.88 169.03 250.4 156.69 244.16 136.78 244.16 136.78 249.12 156.69 232.53 187.67 232.53 187.67 249.99 157.51 283.74 169"/>
            <polygon class="ae5ef982-d7b8-412e-8c18-1ee62ef47fee" points="283.74 169 283.74 169 289.75 171.81 295.29 188.46 290.84 171.61 305.2 163.65 305.2 163.65 290.05 170.74 283.88 169.03 283.74 169"/>
            <polygon class="ae5ef982-d7b8-412e-8c18-1ee62ef47fee" points="224.1 204.95 232.08 188.46 232.08 188.46 223.36 202.66 209.17 182.36 209.17 182.36 221.43 204.34 218.95 251.04 218.95 251.04 224.1 204.95"/>
            <polygon class="ae5ef982-d7b8-412e-8c18-1ee62ef47fee" points="218.03 261.31 218.03 261.31 215.65 275.95 200.33 297.6 200.33 297.6 216.57 278.85 225.73 276.22 225.73 276.22 217.28 276.22 218.03 261.31"/>
            <path class="ae5ef982-d7b8-412e-8c18-1ee62ef47fee" d="M218.78,173.88l0,.07A.14.14,0,0,0,218.78,173.88Z"/>
            <path class="ae5ef982-d7b8-412e-8c18-1ee62ef47fee" d="M218.78,173.88l8-23.14,9.49-18.17-10.93,17.56S219.28,172.36,218.78,173.88Z"/>
            <polygon class="f8032b7a-beed-4ea8-945c-6238c51f21d7" points="264.74 266.64 238.53 273.77 238.53 273.77 264.34 268.67 287.38 268.67 287.38 268.67 307.45 255.03 287.72 266.64 264.74 266.64"/>
            <path class="bf8222b5-ba99-4507-a2e9-9c982ec044fb" d="M277.07,133.65h24.18l7.9,3.13,6.31,3.12s1.28-.55,2.74-1.28l-19.06-13.69-30.36-2.44-4.11.73,4,8.09Z"/>
            <path class="e51f5a76-3826-43b7-bb9d-493c5bb4a686" d="M296.93,231.18s-1.68,11-2.2,11.3-.86,5.94-.86,6.64-2.44,12.19-2.44,12.19l3.19-.91,3.56-14.16s1.39-3.38.82-4.37.79-9.91.79-9.91Z"/>
          </g>
          <g>
            <polygon class="ab755ed1-dae5-4c37-a48d-5fb9442df554" points="214.17 331.73 221.16 330.31 206.99 333.18 214.17 331.73"/>
            <polygon class="ab755ed1-dae5-4c37-a48d-5fb9442df554" points="166.65 305.69 162.43 308.16 166.04 306.05 166.65 305.69"/>
            <path class="ab755ed1-dae5-4c37-a48d-5fb9442df554" d="M197.72,329.66c.12-.27.61-1.18.61-1.18l.88-1.68.34-1.19.82-1.47.52-1.15.85-1.24,1.35-2.48,1.46-3.27,1.35-1.17v-2.42h-1.53l-4.24.15-5.68-1-3.76,0-6.16-1.14-1.42-.33h0l-3.57-.69-6.46.18-3.32.17,1.58,2.68-.16,4.94,1.63,5.86-1.3,4.66,1.3,3.18v2.13l3.17-.08,1.55-2.7,1.38-4.14,4.2,1.09s1.26,3.13,1.42,3.29,2.45,2.63,2.45,2.63l-5.26-.32,8.79.53,5.43.32s.68-1.86.74-2.25A13.47,13.47,0,0,1,197.72,329.66Z"/>
            <polygon class="ab755ed1-dae5-4c37-a48d-5fb9442df554" points="227.99 301.52 228.04 301.57 222.87 303.04 219.45 305 217.49 306.62 213.88 308.04 213.3 312.41 214.16 315.36 214.56 316.39 219.37 317.68 223.97 320.67 227.99 324.81 229.74 318.81 232.23 313.52 232.88 307.98 227.99 301.52"/>
            <polygon class="b5b1a123-f9b9-4211-adca-f1f9d3afbac6" points="184.41 305.05 182.28 306.24 181.76 306.57 180.01 309.19 183.11 310.07 184.53 310.4 191.3 311.28 194.97 311.28 200.4 312.31 204.37 312.41 205.9 312.41 208.76 310.1 210.82 309.01 213.47 308.05 206.02 308.27 201.03 307.12 201.03 307.12 196.4 306.17 191.3 304.22 191.3 304.22 189.53 303.59 187.71 304.07 184.41 305.05"/>
            <polygon class="b4b89999-1f99-439a-99b0-b4c857c03868" points="173.08 309.56 173.08 309.56 179.36 309.06 181.76 306.57 182.28 306.24 182.28 306.24 183.88 305 176.85 303.87 184.53 304.83 187.71 304.07 187.71 304.07 189.53 303.59 180.06 302.34 173.78 301.52 170.77 303.28 166.65 305.69 166.04 306.05 162.43 308.16 169.76 309.73 173.08 309.56"/>
            <path class="ae6f068e-1e04-411e-a667-523b8f387d21" d="M219.37,317.68l-4.81-1.29-.4-1h0l-1.28-2.95.83-4.36-2.89,1-2.06,1.09-2.86,2.31v2.42L204.55,316l-1.46,3.27-1.35,2.48-.85,1.24-.52,1.15-.82,1.47-.34,1.19-.88,1.68s-.49.91-.61,1.18a13.47,13.47,0,0,0-1,1.89c-.06.39-.74,2.25-.74,2.25l11.05-.62,14.17-2.87,6.83-5.5-4-4.14Z"/>
            <polygon class="ae6f068e-1e04-411e-a667-523b8f387d21" points="171.51 327.87 172.81 323.21 171.18 317.35 171.34 312.41 169.76 309.73 162.43 308.16 158.28 317.99 158.65 321.51 157.06 325.87 157.79 328.35 158.16 331.35 161.7 332.01 172.81 333.18 172.81 331.05 171.51 327.87"/>
            <polygon class="a65b574c-2449-442c-b471-62823c82e115" points="196.68 305.99 201.03 307.12 206.02 308.27 213.83 307.93 217.49 306.62 219.45 305 222.87 303.04 227.59 301.55 220.86 300.55 227.99 301.52 211.88 299.33 206.99 301.52 202.27 301.91 194.95 301.52 189.53 303.59 191.3 304.22 196.68 305.99"/>
            <polygon class="ae5ef982-d7b8-412e-8c18-1ee62ef47fee" points="213.83 307.93 206.02 308.27 213.47 308.05 210.82 309.01 213.71 308.05 212.88 312.41 214.16 315.36 214.16 315.36 213.3 312.41 213.88 308.04 217.49 306.62 213.83 307.93"/>
            <polygon class="ae5ef982-d7b8-412e-8c18-1ee62ef47fee" points="191.3 304.22 191.3 304.22 196.4 306.17 201.03 307.12 201.03 307.12 196.68 305.99 191.3 304.22"/>
            <polygon class="ae5ef982-d7b8-412e-8c18-1ee62ef47fee" points="194.97 311.28 191.3 311.28 184.53 310.4 190.69 311.54 194.45 311.57 200.13 312.56 204.37 312.41 200.4 312.31 194.97 311.28"/>
            <polygon class="ae5ef982-d7b8-412e-8c18-1ee62ef47fee" points="181.76 306.57 179.36 309.06 173.08 309.56 173.08 309.56 179.54 309.38 183.11 310.07 183.11 310.07 180.01 309.19 181.76 306.57"/>
            <polygon class="ae5ef982-d7b8-412e-8c18-1ee62ef47fee" points="227.59 301.55 222.87 303.04 228.04 301.57 227.99 301.52 220.86 300.55 227.59 301.55"/>
            <polygon class="ae5ef982-d7b8-412e-8c18-1ee62ef47fee" points="187.71 304.07 187.71 304.07 184.53 304.83 176.85 303.87 183.88 305 182.28 306.24 182.28 306.24 184.41 305.05 187.71 304.07"/>
            <path class="f5ed17cc-7906-4f53-81d4-12f7cd1001a2" d="M184.53,330.64c-.16-.16-1.42-3.29-1.42-3.29l-.11,0-4-1.05-.74,2,.68-2-1.38,4.14L176,333.1h0l5.74-.15,5.26.32S184.69,330.79,184.53,330.64Z"/>
            <polygon class="ae5ef982-d7b8-412e-8c18-1ee62ef47fee" points="178.97 326.32 183 327.37 183.07 327.34 183.11 327.35 178.91 326.26 178.23 328.3 178.97 326.32"/>
            <polygon class="ae5ef982-d7b8-412e-8c18-1ee62ef47fee" points="183 327.37 183.11 327.35 183.07 327.34 183 327.37"/>
          </g>
          <g>
            <polygon class="f01209f7-622f-4c61-9239-470e6969d280" points="256.04 129.94 259.87 122.81 266.32 114.73 266.11 114.52 263.71 100.97 262.93 97.3 262.93 97.3 262.93 97.3 257.63 100.94 249.99 123.75 251.55 125.46 256.04 129.94"/>
            <path class="a65b574c-2449-442c-b471-62823c82e115" d="M263.71,101v0L267,114l9.85,11.33h0l2.45,2.66h0l4.74,4.83,11.69-12.67h0l5.23-5.82,1.53-.94,13.55-8.32s-5.87-12.26-6.33-13.64-19.89,0-24.11-.24c-2-.11-7.33,1.29-12.3,2.78l2.31,4.7-2.74-4.57-1.42.42c2.23,4.49,4.28,8.56,5.07,10-.95-1.46-3.73-5.55-6.46-9.56-4,1.24-7.14,2.32-7.16,2.33h0Zm30.36-3.67,2.4-5.06a35.92,35.92,0,0,1,5.37-.41c2.6,0,5.36.52,5.79.41l3,4.45,3,7.76L310,107.92l-6.64,3.16h-3.9l-2.73-1.32-2.35-2.54L293,102.48Zm-17.19,7.78a2.88,2.88,0,0,1-.31-.53C276.82,104.94,276.93,105.13,276.88,105.08Z"/>
            <path class="b6febcd8-dd8a-4f6e-952c-c16d275ca585" d="M301,114.34l-5.23,5.82-11.42,13.28-2,14.13-.95,8.05,6-1.39,2.95-7V143.2c0-.3.79-5.46.79-5.46l1.81-2.8.84-1.78-.39,3.26-1.58,2.13-.19,3.44-.49,3v3l-2.84,6.11-.9.11,21.46-2.73,3.9-7.11,3.28-20.64V105.08l-13.55,8.32Z"/>
            <polygon class="f28cbb52-1509-45a8-8d96-4a3d8f55ccf8" points="282.31 148.01 283.75 133.33 279.33 128 276.88 125.33 266.32 114.73 259.87 122.81 256.34 130.35 257.38 140.33 257.38 140.33 258.16 146.06 266.58 155.62 281.42 155.62 282.37 147.57 282.31 148.01"/>
            <polygon class="ae5ef982-d7b8-412e-8c18-1ee62ef47fee" points="267.03 114.01 263.71 100.94 263.71 100.97 266.11 114.52 266.32 114.73 276.88 125.33 276.88 125.33 267.03 114.01"/>
            <polygon class="ae5ef982-d7b8-412e-8c18-1ee62ef47fee" points="284.07 132.83 279.33 128 279.33 128 283.75 133.33 282.31 148.01 282.37 147.57 284.34 133.44 295.76 120.16 295.76 120.16 284.07 132.83"/>
            <path class="b8de55ba-eba3-412d-9f7d-8d188547865c" d="M294.6,97.74l1.11-3.27-1,3.25,2.48,2.16,3.38,3.2,2.76,2.87,4.18-2.64,5-1.74,1.12,2.88-3-7.76-3-4.45c-.43.11-3.19-.38-5.79-.41a35.92,35.92,0,0,0-5.37.41l-1.87,5.5Zm7.94-2.56a11.65,11.65,0,0,0,2.67,1.89s-1.15.29-1.52.09a6.28,6.28,0,0,1-2.2-2.61S301.8,94.3,302.54,95.18Z"/>
            <polygon class="f01209f7-622f-4c61-9239-470e6969d280" points="296.72 109.76 299.45 111.08 303.35 111.08 303.35 109.79 303.26 106.15 300.59 103.08 297.21 99.88 294.73 98.07 293.46 101.09 294.6 97.74 294.6 97.74 292.98 102.48 294.37 107.22 296.72 109.76"/>
            <path class="f28cbb52-1509-45a8-8d96-4a3d8f55ccf8" d="M307.53,103.31l-4.07,2.86s-.11,3.35-.11,3.62v1.29l6.64-3.16,3.68-3.47-1.12-2.88Z"/>
            <polygon class="bd3e050b-f1c3-428b-a3a7-8b9103526972" points="296.47 92.24 294.06 97.3 292.98 102.48 294.6 97.74 296.47 92.24"/>
            <path class="a67ee38c-f8cb-4cad-80bb-718d90948dae" d="M291.17,148v-3l.49-3,.19-3.44,1.58-2.13.39-3.26-.84,1.78-1.81,2.8s-.79,5.16-.79,5.46v4.05l-2.95,7,.9-.11Z"/>
            <path class="b3876262-2392-4d54-b5c5-d7cadbfd545d" d="M271.48,94.53l-1.39.44c2.73,4,5.51,8.1,6.46,9.56C275.76,103.09,273.71,99,271.48,94.53Z"/>
            <path class="b3876262-2392-4d54-b5c5-d7cadbfd545d" d="M273.33,94l-.43.13,2.74,4.57Z"/>
            <path class="a67ee38c-f8cb-4cad-80bb-718d90948dae" d="M276.57,104.55a2.88,2.88,0,0,0,.31.53C276.93,105.13,276.82,104.94,276.57,104.55Z"/>
            <path class="ae5ef982-d7b8-412e-8c18-1ee62ef47fee" d="M307.53,103.31,303.35,106l-2.76-2.87,2.67,3.07.09,3.64c0-.27.11-3.62.11-3.62Z"/>
            <polygon class="ae5ef982-d7b8-412e-8c18-1ee62ef47fee" points="295.71 94.47 294.6 97.74 293.46 101.09 294.73 98.07 297.21 99.88 294.73 97.72 295.71 94.47"/>
            <path class="ae5ef982-d7b8-412e-8c18-1ee62ef47fee" d="M303.69,97.16c.37.2,1.52-.09,1.52-.09a11.65,11.65,0,0,1-2.67-1.89c-.74-.88-1.05-.63-1.05-.63A6.28,6.28,0,0,0,303.69,97.16Z"/>
            <polygon class="b6febcd8-dd8a-4f6e-952c-c16d275ca585" points="255.77 130.53 251.55 125.46 251.55 125.46 249.99 123.75 250.65 137.75 258.16 146.06 257.38 140.33 255.77 130.53"/>
            <polygon class="ae5ef982-d7b8-412e-8c18-1ee62ef47fee" points="251.55 125.46 251.55 125.46 255.77 130.53 257.38 140.33 257.38 140.33 256.34 130.35 259.87 122.81 256.04 129.94 251.55 125.46"/>
          </g>
          <g>
            <path class="b5b1a123-f9b9-4211-adca-f1f9d3afbac6" d="M242.6,253.78l2,7.63h0l3.27,10.39,13.64.67h68.63l25.14-.44L370,258.49h0l21.71-21.15-9.26-.84-14.13,5.86-8.89-3.76-6.82-9.21-11.09-3-7.38-7.93,1.69-5.66,3.5-4.6,1.28-1h0l3.11-2.42,7.79-.77,2.6-2.09a58.74,58.74,0,0,0-21.85-.75c-7.26,1-16.89,4.24-27.21,8.45-11,4.47-22.68,10.07-33.13,15.36-4.51,2.28-8.8,4.51-12.68,6.57h0L240.07,242.8Zm90.12-4.39,6.33,1.38h5.61l5.39-1.38h5.57l6.34.25,8-1.26,11.41-1-2.07,2L370,250.64l-3.63,1.76H350.05l-4.91,1.75h-6.09l-7.55-2.37-5.85-2.38-8.77-2Z"/>
            <polygon class="b5b1a123-f9b9-4211-adca-f1f9d3afbac6" points="348.37 208.52 348.37 208.52 348.37 208.52 348.37 208.52"/>
            <polygon class="aadab512-9fa0-4a72-bd50-03737ed5bbcd" points="331.5 251.78 339.05 254.15 345.14 254.15 350.05 252.4 355.62 252.4 361.23 252.4 366.34 252.4 369.97 250.64 379.31 249.4 381.38 247.38 369.97 248.38 361.96 249.64 355.62 249.39 350.05 249.39 344.66 250.77 339.05 250.77 332.72 249.39 316.88 247.38 325.65 249.4 331.5 251.78"/>
            <polygon class="af7af330-1ed6-49ac-b051-068669d66094" points="359.19 310.1 358.55 301.57 357.72 293.37 355.62 273.78 330.12 272.47 261.49 272.47 248.13 273.01 245.23 281.53 255.34 305.22 261.65 319.34 262.23 335.94 262.75 347.17 288.74 346.73 309.69 345.85 340.58 343.46 355.62 342.46 368.29 340.2 362.44 323.31 359.19 310.1"/>
            <polygon class="e8899a6f-3e94-4f79-bdc8-4af31bae47d0" points="233.31 329.92 236.11 322.39 238.55 311.48 243.99 294.42 243.99 285.17 243.99 285.17 244.01 285.08 247.16 272.68 244.58 261.41 242.6 253.78 242.62 253.85 239.83 243.18 236.06 252.68 239.64 242.36 234.04 258.49 229.41 278.72 223.56 301.57 218.93 325.53 215.28 340.2 226.97 347.73 231.36 337.19 233.31 329.92"/>
            <polygon class="aadab512-9fa0-4a72-bd50-03737ed5bbcd" points="392.67 254.96 391.68 237.34 369.97 258.49 356.54 272.97 357.72 293.37 357.72 293.37 358.55 301.57 359.19 310.1 362.44 323.31 368.29 340.2 396.55 324.65 392.67 254.96"/>
            <polygon class="ae5ef982-d7b8-412e-8c18-1ee62ef47fee" points="355.26 272.03 330.12 272.47 355.62 273.78 357.72 293.37 357.72 293.37 356.54 272.97 369.97 258.49 369.97 258.49 355.26 272.03"/>
            <polygon class="aadab512-9fa0-4a72-bd50-03737ed5bbcd" points="262.23 335.94 261.05 319.38 255.34 305.22 255.34 305.22 245.23 281.53 243.99 285.17 244.01 285.08 243.99 285.17 243.99 285.17 243.99 294.42 238.55 311.48 236.11 322.39 233.31 329.92 231.36 337.19 226.97 347.73 254.26 347.73 262.75 347.17 262.23 335.94 262.23 335.94"/>
            <polygon class="ae5ef982-d7b8-412e-8c18-1ee62ef47fee" points="244.58 261.41 244.58 261.41 247.16 272.68 244.01 285.08 243.99 285.17 245.23 281.53 248.13 273.01 261.49 272.47 247.85 271.8 244.58 261.41"/>
            <polygon class="ae5ef982-d7b8-412e-8c18-1ee62ef47fee" points="261.05 319.38 262.23 335.94 262.23 335.94 261.65 319.34 255.34 305.22 255.34 305.22 261.05 319.38"/>
            <polygon class="ee3869d2-b3eb-4572-a893-cd8ca5c4ccda" points="380.51 228.81 380.22 225.93 374.98 229.39 371 237.02 371 237.02 368.29 242.36 382.42 236.5 380.47 232.77 380.51 228.81"/>
            <polygon class="e55cb9fb-98ee-4903-acbb-db9808389974" points="389.17 216.9 389.16 216.89 384.78 222.96 387.79 218.79 384.87 223.06 381.59 225.03 380.69 225.62 380.69 225.62 380.22 225.93 380.51 228.81 380.47 232.77 382.42 236.5 391.68 237.34 393.39 227.64 389.25 216.77 391.16 221.81 389.17 216.9"/>
            <polygon class="a65b574c-2449-442c-b471-62823c82e115" points="354.71 212.01 354.81 212.06 354.79 212.05 354.71 212.01"/>
            <polygon class="a65b574c-2449-442c-b471-62823c82e115" points="343.69 204.83 349.15 204.29 343.9 204.89 348.37 208.52 348.37 208.52 350.58 209.74 350.58 209.74 353.14 210.92 354.97 211.92 355.78 212.4 357.36 213.7 359.26 215.23 362.38 217.67 365.75 220.32 367.87 222.38 368.78 223.46 368.92 223.6 368.92 223.6 374.87 229.28 380.69 225.62 381.59 225.03 381.59 225.03 384.78 222.96 389.16 216.89 383.19 214.41 389.25 216.77 377.23 212.09 365.77 205.9 358.77 201.25 354.97 201.25 354.08 201.97 351.48 204.06 343.69 204.83"/>
            <polygon class="ae5ef982-d7b8-412e-8c18-1ee62ef47fee" points="340.58 207.25 340.58 207.25 343.69 204.83 340.58 207.25"/>
            <polygon class="ae5ef982-d7b8-412e-8c18-1ee62ef47fee" points="348.37 208.52 343.9 204.89 349.15 204.29 343.69 204.83 348.37 208.52 348.37 208.52"/>
            <polygon class="ae5ef982-d7b8-412e-8c18-1ee62ef47fee" points="384.87 223.06 387.79 218.79 384.78 222.96 381.59 225.03 381.59 225.03 384.87 223.06"/>
            <polygon class="ae5ef982-d7b8-412e-8c18-1ee62ef47fee" points="389.16 216.89 389.17 216.9 391.16 221.81 389.25 216.77 383.19 214.41 389.16 216.89"/>
            <path class="acd065b5-4e67-4261-b469-dc7bd84f77b6" d="M374.72,229.45l-5.8-5.85-.14-.14h0s-1.2-1.1-1.26-1.13-1.93-1.81-1.93-1.81l-3.33-2.62-3.15-2.49-1.77-1.4-.32,2.42-.77,2.36-1.24,3-.49,2.3-.91,2.89-1,2.39,6.82,9.21,8.89,3.76L371,237Z"/>
            <polygon class="e1dc6085-e9ff-48c4-9f8a-beedf5f16b24" points="346.52 220.95 348.15 218.19 353.33 211.28 353 211.11 350.58 209.74 348.37 208.52 348.37 208.52 343.69 204.83 340.58 207.25 339.3 208.24 335.8 212.84 334.11 218.5 341.49 226.43 343.28 224.55 346.52 220.95"/>
            <polygon class="b45ddb34-a0b2-4e2e-be87-6b0ef4bf09ab" points="354.52 224.11 355.01 221.81 356.25 218.79 357.02 216.43 357.34 214.01 357.27 213.95 355.68 212.61 354.81 212.06 354.71 212.01 353.33 211.28 348.15 218.19 346.52 220.95 343.28 224.55 341.49 226.43 352.58 229.39 353.61 227 354.52 224.11"/>
            <path class="ae5ef982-d7b8-412e-8c18-1ee62ef47fee" d="M353.33,211.28l1.38.73.08,0h0l.87.55,1.59,1.34.07.06,1.77,1.4,3.15,2.49,3.33,2.62s1.87,1.79,1.93,1.81,1.26,1.13,1.26,1.13h0l-.92-1.08-2.11-2-3.37-2.66-3.12-2.44-1.9-1.53-1.58-1.3-.81-.48-1.83-1-2.56-1.18h0l2.42,1.37Z"/>
            <polygon class="b72a2ef7-f9e2-4c03-b23f-dee22cbfe924" points="374.72 229.45 371 237.02 371 237.02 374.98 229.39 380.22 225.93 380.69 225.62 380.69 225.62 374.87 229.28 368.92 223.6 368.92 223.6 374.72 229.45"/>
            <path class="ae5ef982-d7b8-412e-8c18-1ee62ef47fee" d="M239.83,243.18l2.79,10.67,0-.07-2.53-11,19.13-11.19c-11.38,6-19.29,10.6-19.55,10.75h0l-3.58,10.32Z"/>
          </g>
          <g>
            <polygon class="fd69ad7c-ea34-49dd-9561-1507d518d556" points="55.62 236.91 60.16 240.29 62.44 246.24 62.96 247.38 63.87 251.94 64.28 253.47 67.89 258.27 76.07 258.64 87.22 257.19 85.1 257.46 76.07 254.25 70.17 246 66.51 241.94 71.84 246 77.11 252.79 87.22 257.19 94.97 252.96 83.28 247.89 82.74 247.37 82.74 247.37 74.1 239.05 64.08 241.94 52.29 234.12 55.62 236.91 55.62 236.91"/>
            <polygon class="fd69ad7c-ea34-49dd-9561-1507d518d556" points="59.84 269.69 62.7 274.38 59.84 269.69 59.84 269.69"/>
            <polygon class="e4cb1c9f-dc0a-45d2-934e-6991aaad9f8e" points="66.98 258.49 64.28 253.47 63.87 251.94 63.87 251.94 62.7 247.46 62.09 246.24 59.83 240.48 55.62 236.91 52.29 234.12 48.9 241.5 47.16 247.02 47.16 252.79 49.98 257.77 54.07 265.17 59.84 269.69 59.84 269.69 62.7 274.38 64.33 269.03 66.98 258.49"/>
            <polygon class="ae90ddf1-5a79-41fc-be20-6a9e5177f3e2" points="87.22 257.19 76.07 258.64 67.5 259.36 64.33 269.03 64.33 269.03 62.7 274.38 75.79 274.38 88.49 270.26 94.97 267.87 94.97 252.96 87.22 257.19"/>
            <polygon class="b1f732e8-912f-4205-b11b-88a62cc4e605" points="124.74 239.05 116.16 228.17 113.16 230.49 113.16 230.49 104.28 237.7 110.32 248.22 123.18 265.52 128.4 265.52 124.74 239.05"/>
            <polygon class="fad1c7d5-2bfd-482e-9961-70b406b07104" points="110.32 248.22 103.86 238.38 99.44 245.29 94.97 252.96 94.97 267.87 123.18 265.52 110.32 248.22"/>
            <polygon class="b5b1a123-f9b9-4211-adca-f1f9d3afbac6" points="83.28 226.83 74.68 239.6 74.1 239.05 82.74 247.37 84.22 240.58 83.28 247.89 94.97 252.96 99.44 245.29 99.44 245.29 103.33 237.7 97.51 229.88 83.28 221.02 71.64 232.74 74.1 239.05 83.28 226.83"/>
            <polygon class="fd69ad7c-ea34-49dd-9561-1507d518d556" points="74.1 239.05 71.64 232.74 52.29 234.12 64.08 241.94 74.1 239.05"/>
            <polygon class="f69c5bee-facf-46e4-9d0e-83eed505b2f2" points="103.86 237.18 113.16 230.49 116.16 228.17 100.05 218.11 83.28 221.02 97.51 229.88 103.86 237.18"/>
            <polygon class="ae5ef982-d7b8-412e-8c18-1ee62ef47fee" points="64.28 253.47 66.98 258.49 64.33 269.03 64.33 269.03 67.5 259.36 76.07 258.64 67.89 258.27 64.28 253.47"/>
            <polygon class="ae5ef982-d7b8-412e-8c18-1ee62ef47fee" points="97.51 229.88 103.33 237.7 99.44 245.29 99.44 245.29 103.86 238.38 110.32 248.22 104.28 237.7 113.16 230.49 113.16 230.49 103.86 237.18 97.51 229.88"/>
            <polygon class="ae5ef982-d7b8-412e-8c18-1ee62ef47fee" points="62.44 246.24 60.16 240.29 55.62 236.91 55.62 236.91 59.83 240.48 62.09 246.24 62.7 247.46 63.87 251.94 63.87 251.94 62.96 247.38 62.44 246.24"/>
            <polygon class="ae5ef982-d7b8-412e-8c18-1ee62ef47fee" points="71.84 246 66.51 241.94 70.17 246 76.07 254.25 85.1 257.46 87.22 257.19 77.11 252.79 71.84 246"/>
            <polygon class="ae5ef982-d7b8-412e-8c18-1ee62ef47fee" points="83.28 226.83 74.1 239.05 74.68 239.6 83.28 226.83"/>
            <polygon class="ae5ef982-d7b8-412e-8c18-1ee62ef47fee" points="82.74 247.37 82.74 247.37 83.28 247.89 84.22 240.58 82.74 247.37"/>
          </g>
        </g>
      </g>
    </g>
  </g>
</svg>
