<svg xmlns="http://www.w3.org/2000/svg" width="250.26" height="250.26" viewBox="0 0 250.26 250.26">
  <defs>
    <style>
      .e22546b6-b9b8-44b2-8041-c694ceea9d01 {
        isolation: isolate;
      }

      .b4fb77bd-66f5-4350-bf86-f424579829bc {
        fill: #fffdfe;
        stroke: #878787;
        stroke-miterlimit: 10;
        stroke-width: 9px;
        mix-blend-mode: multiply;
        opacity: 0.6;
      }

      .e9051a25-69e8-4031-adb4-8f3f9c23edaf {
        fill: #cff6ff;
      }

      .fffcd288-7d2e-47f1-a887-661330188f71 {
        fill: #130000;
      }

      .a11f6536-a43b-4ffc-b756-e6ec3a75032d {
        fill: #ef6ca8;
      }

      .fd844204-7fe4-4ca2-9de5-69b859aecd69 {
        fill: #c63e82;
      }

      .bf81b354-cca7-4f37-a4de-81e760e96d28 {
        fill: #fffefa;
      }

      .ecf14ce4-bba1-400b-b34f-154222f9674e {
        fill: #44261b;
      }
    </style>
  </defs>
  <g class="e22546b6-b9b8-44b2-8041-c694ceea9d01">
    <g id="a19f04a8-859e-4517-854b-6b3c2938d12f" data-name="Layer 1">
      <g>
        <g>
          <circle class="b4fb77bd-66f5-4350-bf86-f424579829bc" cx="125.13" cy="125.13" r="116.99"/>
          <circle class="e9051a25-69e8-4031-adb4-8f3f9c23edaf" cx="124.85" cy="125.71" r="114.82"/>
        </g>
        <g>
          <polygon class="fffcd288-7d2e-47f1-a887-661330188f71" points="120.24 194.32 122.45 186.34 121.92 186.19 120.24 192.25 120.24 186.27 119.68 186.27 119.68 192.39 117.97 186.19 117.43 186.34 119.7 194.51 119.94 194.44 120.19 194.51 120.21 194.43 120.24 194.43 120.24 194.32"/>
          <polygon class="fffcd288-7d2e-47f1-a887-661330188f71" points="130.62 194.32 132.83 186.34 132.3 186.19 130.62 192.25 130.62 186.27 130.06 186.27 130.06 192.39 128.34 186.19 127.81 186.34 130.08 194.51 130.32 194.44 130.57 194.51 130.59 194.43 130.62 194.43 130.62 194.32"/>
          <g>
            <path class="a11f6536-a43b-4ffc-b756-e6ec3a75032d" d="M131.23,37.32c-3.1,0-5.29.17-6.1.24s-3-.23-6.09-.24c-16.83,0-60.7,4-60.7,48.51,0,37.72,38,78.29,56.79,96.11h20c18.84-17.82,56.79-58.39,56.79-96.11C191.92,41.37,148.05,37.27,131.23,37.32Z"/>
            <g>
              <g>
                <path class="fd844204-7fe4-4ca2-9de5-69b859aecd69" d="M76.44,125.3a.23.23,0,0,0-.31-.1.22.22,0,0,0-.1.3l.48,1a.23.23,0,0,0,.21.13l.1,0a.23.23,0,0,0,.1-.31Z"/>
                <path class="fd844204-7fe4-4ca2-9de5-69b859aecd69" d="M74.27,120.66a.23.23,0,1,0-.41.19c.14.33.29.67.45,1a.22.22,0,0,0,.21.14.16.16,0,0,0,.09,0,.22.22,0,0,0,.11-.3Z"/>
                <path class="fd844204-7fe4-4ca2-9de5-69b859aecd69" d="M77.58,127.6a.22.22,0,0,0-.31-.1.22.22,0,0,0-.1.3c.17.33.33.66.5,1a.23.23,0,0,0,.41-.21Z"/>
                <path class="fd844204-7fe4-4ca2-9de5-69b859aecd69" d="M75.34,123a.24.24,0,0,0-.31-.11.23.23,0,0,0-.11.3c.16.34.31.67.47,1a.23.23,0,0,0,.21.13l.1,0a.23.23,0,0,0,.1-.31Z"/>
                <path class="fd844204-7fe4-4ca2-9de5-69b859aecd69" d="M73.25,118.31a.23.23,0,0,0-.3-.12.22.22,0,0,0-.12.3c.14.34.29.67.43,1a.24.24,0,0,0,.21.14l.09,0a.22.22,0,0,0,.12-.3C73.54,119,73.39,118.65,73.25,118.31Z"/>
                <path class="fd844204-7fe4-4ca2-9de5-69b859aecd69" d="M78.75,129.87a.23.23,0,1,0-.4.22l.51,1a.22.22,0,0,0,.21.12.19.19,0,0,0,.1,0,.23.23,0,0,0,.1-.31C79.09,130.52,78.92,130.2,78.75,129.87Z"/>
                <path class="fd844204-7fe4-4ca2-9de5-69b859aecd69" d="M81.2,134.37a.22.22,0,0,0-.31-.08.23.23,0,0,0-.09.31l.54,1a.23.23,0,0,0,.2.11.27.27,0,0,0,.12,0,.24.24,0,0,0,.08-.31Z"/>
                <path class="fd844204-7fe4-4ca2-9de5-69b859aecd69" d="M82.47,136.6a.22.22,0,0,0-.31-.08.23.23,0,0,0-.09.31l.55.95a.26.26,0,0,0,.21.11l.11,0a.22.22,0,0,0,.08-.31Z"/>
                <path class="fd844204-7fe4-4ca2-9de5-69b859aecd69" d="M80,132.13a.23.23,0,1,0-.4.22l.53,1a.24.24,0,0,0,.2.12l.11,0a.23.23,0,0,0,.09-.31Z"/>
                <path class="fd844204-7fe4-4ca2-9de5-69b859aecd69" d="M83.76,138.81a.22.22,0,0,0-.31-.08.23.23,0,0,0-.08.31l.57,1a.23.23,0,0,0,.19.11.19.19,0,0,0,.12,0,.23.23,0,0,0,.08-.31Z"/>
                <path class="fd844204-7fe4-4ca2-9de5-69b859aecd69" d="M69.2,107.34c-.11-.35-.22-.7-.32-1a.23.23,0,0,0-.29-.15.22.22,0,0,0-.15.28c.1.35.21.7.32,1a.23.23,0,0,0,.22.17h.07A.23.23,0,0,0,69.2,107.34Z"/>
                <path class="fd844204-7fe4-4ca2-9de5-69b859aecd69" d="M68.47,104.89c-.11-.36-.2-.71-.3-1.06a.22.22,0,0,0-.28-.16.23.23,0,0,0-.16.28L68,105a.22.22,0,0,0,.21.17h.07A.24.24,0,0,0,68.47,104.89Z"/>
                <path class="fd844204-7fe4-4ca2-9de5-69b859aecd69" d="M67.2,99.93c-.08-.36-.16-.72-.23-1.07a.23.23,0,0,0-.27-.18.23.23,0,0,0-.18.27c.08.36.15.72.24,1.08a.23.23,0,0,0,.22.18h0A.23.23,0,0,0,67.2,99.93Z"/>
                <path class="fd844204-7fe4-4ca2-9de5-69b859aecd69" d="M69.64,108.73a.24.24,0,0,0-.29-.15.23.23,0,0,0-.14.29c.11.35.23.7.34,1a.25.25,0,0,0,.22.15h.07a.22.22,0,0,0,.15-.29Z"/>
                <path class="fd844204-7fe4-4ca2-9de5-69b859aecd69" d="M67.8,102.41l-.27-1.06a.22.22,0,0,0-.27-.17.24.24,0,0,0-.17.28l.27,1.07a.23.23,0,0,0,.22.17h0A.22.22,0,0,0,67.8,102.41Z"/>
                <path class="fd844204-7fe4-4ca2-9de5-69b859aecd69" d="M71.34,113.56a.22.22,0,0,0-.42.16c.12.34.26.69.39,1a.23.23,0,0,0,.21.15l.09,0a.24.24,0,0,0,.13-.3C71.6,114.24,71.47,113.9,71.34,113.56Z"/>
                <path class="fd844204-7fe4-4ca2-9de5-69b859aecd69" d="M72.27,116a.22.22,0,0,0-.29-.13.22.22,0,0,0-.13.3c.13.34.27.67.41,1a.26.26,0,0,0,.21.14l.09,0a.23.23,0,0,0,.13-.3Z"/>
                <path class="fd844204-7fe4-4ca2-9de5-69b859aecd69" d="M70.47,111.15a.23.23,0,0,0-.29-.13.22.22,0,0,0-.15.29c.13.34.25.69.38,1a.22.22,0,0,0,.21.16l.08,0a.23.23,0,0,0,.14-.29C70.71,111.84,70.59,111.5,70.47,111.15Z"/>
                <path class="fd844204-7fe4-4ca2-9de5-69b859aecd69" d="M69.89,58.35a.23.23,0,0,0-.3.13l-.42,1a.23.23,0,0,0,.13.29.13.13,0,0,0,.08,0,.23.23,0,0,0,.22-.14c.13-.34.27-.68.41-1A.23.23,0,0,0,69.89,58.35Z"/>
                <path class="fd844204-7fe4-4ca2-9de5-69b859aecd69" d="M96.52,158a.22.22,0,0,0-.32-.05.23.23,0,0,0,0,.32l.65.88a.26.26,0,0,0,.19.1.24.24,0,0,0,.13-.05.23.23,0,0,0,0-.32Z"/>
                <path class="fd844204-7fe4-4ca2-9de5-69b859aecd69" d="M98,160.06a.23.23,0,0,0-.32-.05.23.23,0,0,0,0,.32l.66.88a.21.21,0,0,0,.18.09.23.23,0,0,0,.14,0,.23.23,0,0,0,0-.32Z"/>
                <path class="fd844204-7fe4-4ca2-9de5-69b859aecd69" d="M85.09,141a.24.24,0,0,0-.32-.08.23.23,0,0,0-.07.32l.57.93a.23.23,0,0,0,.2.11.27.27,0,0,0,.12,0,.24.24,0,0,0,.07-.32Z"/>
                <path class="fd844204-7fe4-4ca2-9de5-69b859aecd69" d="M95,155.92a.24.24,0,0,0-.32,0,.23.23,0,0,0-.06.32l.65.89a.22.22,0,0,0,.18.1.24.24,0,0,0,.14-.05.23.23,0,0,0,0-.32C95.44,156.52,95.23,156.22,95,155.92Z"/>
                <path class="fd844204-7fe4-4ca2-9de5-69b859aecd69" d="M66.68,97.42c-.07-.36-.14-.72-.2-1.07a.23.23,0,0,0-.26-.19.23.23,0,0,0-.19.27c.06.36.13.72.2,1.08a.23.23,0,0,0,.23.18h0A.23.23,0,0,0,66.68,97.42Z"/>
                <path class="fd844204-7fe4-4ca2-9de5-69b859aecd69" d="M86.43,143.17a.22.22,0,0,0-.31-.07.23.23,0,0,0-.08.31c.2.31.4.62.59.93a.23.23,0,0,0,.19.11.2.2,0,0,0,.13,0,.24.24,0,0,0,.07-.31Z"/>
                <path class="fd844204-7fe4-4ca2-9de5-69b859aecd69" d="M89.2,147.48a.23.23,0,0,0-.32-.07.24.24,0,0,0-.06.32l.61.92a.23.23,0,0,0,.19.1.19.19,0,0,0,.12,0,.23.23,0,0,0,.07-.32C89.6,148.09,89.4,147.78,89.2,147.48Z"/>
                <path class="fd844204-7fe4-4ca2-9de5-69b859aecd69" d="M87.8,145.33a.22.22,0,0,0-.31-.07.23.23,0,0,0-.07.32c.2.3.39.61.6.92a.21.21,0,0,0,.19.1.27.27,0,0,0,.12,0,.23.23,0,0,0,.07-.32Z"/>
                <path class="fd844204-7fe4-4ca2-9de5-69b859aecd69" d="M93.53,153.83a.23.23,0,0,0-.37.27l.63.89a.23.23,0,0,0,.19.1.22.22,0,0,0,.13,0,.23.23,0,0,0,0-.32Z"/>
                <path class="fd844204-7fe4-4ca2-9de5-69b859aecd69" d="M90.62,149.61a.23.23,0,0,0-.32-.06.24.24,0,0,0-.06.32l.62.91a.24.24,0,0,0,.19.1.33.33,0,0,0,.13,0,.24.24,0,0,0,.06-.32Z"/>
                <path class="fd844204-7fe4-4ca2-9de5-69b859aecd69" d="M92.07,151.73a.23.23,0,0,0-.32-.06.23.23,0,0,0-.06.32l.62.9a.23.23,0,0,0,.19.1.2.2,0,0,0,.13,0,.23.23,0,0,0,.06-.32Z"/>
                <path class="fd844204-7fe4-4ca2-9de5-69b859aecd69" d="M181.6,58.26a.23.23,0,0,0,.21.13.15.15,0,0,0,.09,0,.22.22,0,0,0,.12-.3c-.14-.34-.3-.67-.45-1a.23.23,0,0,0-.3-.11.23.23,0,0,0-.11.31C181.31,57.59,181.46,57.92,181.6,58.26Z"/>
                <path class="fd844204-7fe4-4ca2-9de5-69b859aecd69" d="M182.56,60.62a.21.21,0,0,0,.21.15h.08a.24.24,0,0,0,.14-.3c-.13-.34-.26-.69-.4-1a.23.23,0,1,0-.43.17C182.3,59.94,182.43,60.28,182.56,60.62Z"/>
                <path class="fd844204-7fe4-4ca2-9de5-69b859aecd69" d="M186.08,77c0,.36.06.73.08,1.09a.24.24,0,0,0,.23.22h0a.22.22,0,0,0,.21-.24l-.09-1.1a.23.23,0,0,0-.25-.21A.22.22,0,0,0,186.08,77Z"/>
                <path class="fd844204-7fe4-4ca2-9de5-69b859aecd69" d="M185.81,74.45c0,.36.09.72.13,1.09a.23.23,0,0,0,.22.2h0a.23.23,0,0,0,.2-.25l-.12-1.1a.23.23,0,0,0-.46.06Z"/>
                <path class="fd844204-7fe4-4ca2-9de5-69b859aecd69" d="M186.26,79.54c0,.36,0,.73.05,1.1a.24.24,0,0,0,.23.22h0a.24.24,0,0,0,.22-.24l-.06-1.1a.23.23,0,0,0-.24-.22A.23.23,0,0,0,186.26,79.54Z"/>
                <path class="fd844204-7fe4-4ca2-9de5-69b859aecd69" d="M186.59,81.86h0a.24.24,0,0,0-.23.24c0,.36,0,.73,0,1.09a.24.24,0,0,0,.23.23h0a.22.22,0,0,0,.22-.23c0-.37,0-.74,0-1.1A.23.23,0,0,0,186.59,81.86Z"/>
                <path class="fd844204-7fe4-4ca2-9de5-69b859aecd69" d="M185.46,71.92c0,.35.11.72.16,1.08a.24.24,0,0,0,.23.2h0a.22.22,0,0,0,.19-.26c0-.36-.1-.72-.16-1.09a.23.23,0,0,0-.26-.19A.23.23,0,0,0,185.46,71.92Z"/>
                <path class="fd844204-7fe4-4ca2-9de5-69b859aecd69" d="M183.81,64.43c.1.35.2.7.29,1.06a.24.24,0,0,0,.23.17h.06a.23.23,0,0,0,.16-.28l-.3-1.06a.22.22,0,0,0-.28-.16A.23.23,0,0,0,183.81,64.43Z"/>
                <path class="fd844204-7fe4-4ca2-9de5-69b859aecd69" d="M183.39,63a.24.24,0,0,0,.22.16h.06a.24.24,0,0,0,.16-.29l-.35-1a.23.23,0,0,0-.29-.14.22.22,0,0,0-.14.29C183.16,62.34,183.28,62.69,183.39,63Z"/>
                <path class="fd844204-7fe4-4ca2-9de5-69b859aecd69" d="M184.47,66.9l.24,1.07a.23.23,0,0,0,.22.18h0a.22.22,0,0,0,.18-.27c-.08-.36-.16-.72-.25-1.07a.23.23,0,0,0-.28-.17A.22.22,0,0,0,184.47,66.9Z"/>
                <path class="fd844204-7fe4-4ca2-9de5-69b859aecd69" d="M185,69.4c.07.35.14.71.2,1.07a.23.23,0,0,0,.23.19h0a.23.23,0,0,0,.19-.27l-.21-1.08a.23.23,0,0,0-.27-.18A.23.23,0,0,0,185,69.4Z"/>
                <path class="fd844204-7fe4-4ca2-9de5-69b859aecd69" d="M65.16,85h0a.22.22,0,0,0,.23-.22v-1.1a.21.21,0,0,0-.22-.23h0a.22.22,0,0,0-.23.22c0,.33,0,.65,0,1v.13A.23.23,0,0,0,65.16,85Z"/>
                <path class="fd844204-7fe4-4ca2-9de5-69b859aecd69" d="M65.46,77.27h0a.24.24,0,0,0,.23-.21c0-.37.06-.73.1-1.09a.23.23,0,0,0-.46,0c0,.37-.07.73-.1,1.1A.23.23,0,0,0,65.46,77.27Z"/>
                <path class="fd844204-7fe4-4ca2-9de5-69b859aecd69" d="M65.28,79.83h0a.24.24,0,0,0,.23-.22l.06-1.09a.23.23,0,0,0-.21-.25.22.22,0,0,0-.24.22c0,.36,0,.73-.07,1.1A.23.23,0,0,0,65.28,79.83Z"/>
                <path class="fd844204-7fe4-4ca2-9de5-69b859aecd69" d="M66.49,69.65h.05a.23.23,0,0,0,.22-.18c.07-.36.15-.72.22-1.08a.23.23,0,0,0-.17-.27.22.22,0,0,0-.27.18c-.08.35-.16.71-.23,1.08A.24.24,0,0,0,66.49,69.65Z"/>
                <path class="fd844204-7fe4-4ca2-9de5-69b859aecd69" d="M66.05,72.17h0a.23.23,0,0,0,.23-.2q.08-.54.18-1.08a.23.23,0,0,0-.19-.26.23.23,0,0,0-.27.18l-.18,1.09A.24.24,0,0,0,66.05,72.17Z"/>
                <path class="fd844204-7fe4-4ca2-9de5-69b859aecd69" d="M65.19,82.39h0a.22.22,0,0,0,.23-.22c0-.37,0-.74,0-1.1a.24.24,0,0,0-.22-.24.23.23,0,0,0-.24.22c0,.37,0,.74,0,1.11A.23.23,0,0,0,65.19,82.39Z"/>
                <path class="fd844204-7fe4-4ca2-9de5-69b859aecd69" d="M65.71,74.72h0a.24.24,0,0,0,.23-.2c0-.37.09-.73.14-1.09a.24.24,0,0,0-.2-.26.23.23,0,0,0-.26.2c-.05.36-.09.72-.14,1.09A.24.24,0,0,0,65.71,74.72Z"/>
                <path class="fd844204-7fe4-4ca2-9de5-69b859aecd69" d="M65.41,90.08a.23.23,0,0,0,.21-.25l-.09-1.09a.23.23,0,1,0-.45,0c0,.36,0,.73.08,1.1a.23.23,0,0,0,.23.21Z"/>
                <path class="fd844204-7fe4-4ca2-9de5-69b859aecd69" d="M65.68,92.63a.23.23,0,0,0,.2-.26l-.12-1.09a.23.23,0,0,0-.46,0c0,.37.08.73.13,1.1a.23.23,0,0,0,.22.2Z"/>
                <path class="fd844204-7fe4-4ca2-9de5-69b859aecd69" d="M65.23,87.52a.23.23,0,0,0,.22-.24c0-.37,0-.73,0-1.1a.23.23,0,0,0-.23-.22.24.24,0,0,0-.23.24c0,.36,0,.73,0,1.1a.22.22,0,0,0,.22.22Z"/>
                <path class="fd844204-7fe4-4ca2-9de5-69b859aecd69" d="M66.24,94.9c-.06-.36-.11-.72-.17-1.08a.22.22,0,0,0-.25-.19.22.22,0,0,0-.2.26c0,.36.11.72.17,1.09a.22.22,0,0,0,.22.19h0A.24.24,0,0,0,66.24,94.9Z"/>
                <path class="fd844204-7fe4-4ca2-9de5-69b859aecd69" d="M71.42,55.13l.11,0a.22.22,0,0,0,.2-.12c.17-.32.35-.64.53-1a.23.23,0,0,0-.09-.31.24.24,0,0,0-.32.09c-.18.32-.35.64-.52,1A.23.23,0,0,0,71.42,55.13Z"/>
                <path class="fd844204-7fe4-4ca2-9de5-69b859aecd69" d="M67.67,64.66h.07A.23.23,0,0,0,68,64.5c.1-.35.2-.7.31-1a.24.24,0,0,0-.15-.29.25.25,0,0,0-.29.16c-.11.34-.21.7-.32,1.05A.25.25,0,0,0,67.67,64.66Z"/>
                <path class="fd844204-7fe4-4ca2-9de5-69b859aecd69" d="M68.43,62.21h.07a.23.23,0,0,0,.22-.16c.11-.34.24-.69.36-1a.23.23,0,0,0-.14-.29.21.21,0,0,0-.29.13l-.37,1.05A.24.24,0,0,0,68.43,62.21Z"/>
                <path class="fd844204-7fe4-4ca2-9de5-69b859aecd69" d="M67,67.14h0a.25.25,0,0,0,.23-.18c.08-.36.17-.71.26-1.06a.23.23,0,0,0-.16-.28.23.23,0,0,0-.28.16c-.1.36-.18.71-.27,1.07A.23.23,0,0,0,67,67.14Z"/>
                <path class="fd844204-7fe4-4ca2-9de5-69b859aecd69" d="M70.3,57.43a.15.15,0,0,0,.09,0,.23.23,0,0,0,.21-.13l.47-1A.24.24,0,0,0,71,56a.23.23,0,0,0-.3.11l-.48,1A.23.23,0,0,0,70.3,57.43Z"/>
                <path class="fd844204-7fe4-4ca2-9de5-69b859aecd69" d="M166.46,141.82a.23.23,0,0,0-.31.08c-.2.31-.39.62-.58.93a.23.23,0,0,0,.07.32l.12,0a.21.21,0,0,0,.19-.1l.59-.94A.24.24,0,0,0,166.46,141.82Z"/>
                <path class="fd844204-7fe4-4ca2-9de5-69b859aecd69" d="M171.64,132.94a.22.22,0,0,0-.31.1l-.53,1a.23.23,0,0,0,.09.31.2.2,0,0,0,.11,0,.24.24,0,0,0,.2-.12c.18-.32.36-.64.53-1A.24.24,0,0,0,171.64,132.94Z"/>
                <path class="fd844204-7fe4-4ca2-9de5-69b859aecd69" d="M169.11,137.41a.23.23,0,0,0-.31.08c-.19.32-.37.64-.56.95a.23.23,0,0,0,.08.32.27.27,0,0,0,.12,0,.23.23,0,0,0,.19-.11c.19-.32.38-.64.56-1A.22.22,0,0,0,169.11,137.41Z"/>
                <path class="fd844204-7fe4-4ca2-9de5-69b859aecd69" d="M167.8,139.62a.24.24,0,0,0-.31.08l-.57,1a.22.22,0,0,0,.07.31l.12,0a.24.24,0,0,0,.2-.11l.57-.94A.23.23,0,0,0,167.8,139.62Z"/>
                <path class="fd844204-7fe4-4ca2-9de5-69b859aecd69" d="M170.39,135.18a.23.23,0,0,0-.31.09c-.18.31-.35.62-.53.92l0,0a.21.21,0,0,0,.1.29.19.19,0,0,0,.1,0,.26.26,0,0,0,.22-.13l.53-.92A.24.24,0,0,0,170.39,135.18Z"/>
                <path class="fd844204-7fe4-4ca2-9de5-69b859aecd69" d="M172.86,130.69a.23.23,0,0,0-.31.09c-.17.32-.34.65-.52,1a.23.23,0,0,0,.09.31l.11,0a.26.26,0,0,0,.21-.12c.17-.33.34-.65.52-1A.23.23,0,0,0,172.86,130.69Z"/>
                <path class="fd844204-7fe4-4ca2-9de5-69b859aecd69" d="M174.05,128.41a.24.24,0,0,0-.31.1l-.51,1a.24.24,0,0,0,.1.31.22.22,0,0,0,.11,0,.22.22,0,0,0,.2-.12l.51-1A.23.23,0,0,0,174.05,128.41Z"/>
                <path class="fd844204-7fe4-4ca2-9de5-69b859aecd69" d="M175.2,126.12a.24.24,0,0,0-.31.11l-.49,1a.24.24,0,0,0,.1.31l.11,0a.22.22,0,0,0,.2-.13l.49-1A.22.22,0,0,0,175.2,126.12Z"/>
                <path class="fd844204-7fe4-4ca2-9de5-69b859aecd69" d="M159.11,152.61l-.63.9a.23.23,0,0,0,.06.32.2.2,0,0,0,.13,0,.23.23,0,0,0,.19-.1l.63-.9a.23.23,0,0,0-.38-.26Z"/>
                <path class="fd844204-7fe4-4ca2-9de5-69b859aecd69" d="M157.64,154.71l-.64.89a.22.22,0,0,0,.05.32.24.24,0,0,0,.14.05.22.22,0,0,0,.18-.1l.64-.9a.23.23,0,0,0,0-.32A.24.24,0,0,0,157.64,154.71Z"/>
                <path class="fd844204-7fe4-4ca2-9de5-69b859aecd69" d="M156.14,156.79l-.64.89a.22.22,0,0,0,.05.32.2.2,0,0,0,.13,0,.25.25,0,0,0,.19-.09l.65-.89a.23.23,0,0,0-.06-.32A.24.24,0,0,0,156.14,156.79Z"/>
                <path class="fd844204-7fe4-4ca2-9de5-69b859aecd69" d="M163.72,146.16a.23.23,0,0,0-.32.07l-.6.92a.23.23,0,0,0,.07.32.27.27,0,0,0,.12,0,.21.21,0,0,0,.19-.1l.61-.92A.25.25,0,0,0,163.72,146.16Z"/>
                <path class="fd844204-7fe4-4ca2-9de5-69b859aecd69" d="M165.1,144a.24.24,0,0,0-.32.07l-.58.93a.24.24,0,0,0,.06.32.31.31,0,0,0,.13,0,.24.24,0,0,0,.19-.1c.2-.31.4-.62.59-.93A.23.23,0,0,0,165.1,144Z"/>
                <path class="fd844204-7fe4-4ca2-9de5-69b859aecd69" d="M162.31,148.31a.24.24,0,0,0-.32.06c-.2.31-.4.61-.61.91a.24.24,0,0,0,.06.32.22.22,0,0,0,.13,0,.21.21,0,0,0,.19-.1c.21-.3.41-.61.62-.92A.22.22,0,0,0,162.31,148.31Z"/>
                <path class="fd844204-7fe4-4ca2-9de5-69b859aecd69" d="M160.56,150.5l-.62.91a.22.22,0,0,0,.06.31.22.22,0,0,0,.13,0,.22.22,0,0,0,.19-.1l.62-.9a.23.23,0,0,0-.38-.26Z"/>
                <path class="fd844204-7fe4-4ca2-9de5-69b859aecd69" d="M185.82,94.65a.22.22,0,0,0-.26.19l-.18,1.08a.23.23,0,0,0,.19.26h0a.22.22,0,0,0,.22-.19l.18-1.09A.23.23,0,0,0,185.82,94.65Z"/>
                <path class="fd844204-7fe4-4ca2-9de5-69b859aecd69" d="M176.32,123.81a.24.24,0,0,0-.31.11c-.15.33-.31.66-.47,1a.23.23,0,0,0,.1.31l.1,0a.23.23,0,0,0,.21-.13l.48-1A.24.24,0,0,0,176.32,123.81Z"/>
                <path class="fd844204-7fe4-4ca2-9de5-69b859aecd69" d="M184.87,99.69a.23.23,0,0,0-.27.17c-.08.35-.16.71-.25,1.07a.23.23,0,0,0,.17.27h.06a.23.23,0,0,0,.22-.18c.08-.36.17-.71.25-1.07A.23.23,0,0,0,184.87,99.69Z"/>
                <path class="fd844204-7fe4-4ca2-9de5-69b859aecd69" d="M183.62,104.66a.23.23,0,0,0-.28.16l-.3,1.05a.23.23,0,0,0,.15.29h.06a.23.23,0,0,0,.22-.17c.11-.35.21-.7.31-1.06A.24.24,0,0,0,183.62,104.66Z"/>
                <path class="fd844204-7fe4-4ca2-9de5-69b859aecd69" d="M184.28,102.18a.24.24,0,0,0-.28.17l-.27,1.06a.22.22,0,0,0,.16.28H184a.23.23,0,0,0,.22-.17c.1-.36.19-.71.28-1.07A.24.24,0,0,0,184.28,102.18Z"/>
                <path class="fd844204-7fe4-4ca2-9de5-69b859aecd69" d="M186.58,87a.22.22,0,0,0-.24.22l-.06,1.09a.23.23,0,0,0,.21.25h0a.24.24,0,0,0,.23-.22l.06-1.1A.24.24,0,0,0,186.58,87Z"/>
                <path class="fd844204-7fe4-4ca2-9de5-69b859aecd69" d="M186.62,84.43h0a.23.23,0,0,0-.23.23c0,.36,0,.72,0,1.09a.23.23,0,0,0,.23.23h0a.22.22,0,0,0,.23-.22c0-.37,0-.74,0-1.1A.23.23,0,0,0,186.62,84.43Z"/>
                <path class="fd844204-7fe4-4ca2-9de5-69b859aecd69" d="M186.17,92.1a.24.24,0,0,0-.26.2c0,.37-.09.73-.14,1.09a.23.23,0,0,0,.2.26h0a.23.23,0,0,0,.23-.2c.05-.36.09-.73.14-1.09A.24.24,0,0,0,186.17,92.1Z"/>
                <path class="fd844204-7fe4-4ca2-9de5-69b859aecd69" d="M182.9,107.12a.23.23,0,0,0-.29.15l-.33,1a.23.23,0,0,0,.15.29h.07a.22.22,0,0,0,.21-.16c.12-.35.23-.7.34-1A.23.23,0,0,0,182.9,107.12Z"/>
                <path class="fd844204-7fe4-4ca2-9de5-69b859aecd69" d="M186.42,89.55a.24.24,0,0,0-.25.21c0,.36-.06.73-.1,1.09a.23.23,0,0,0,.21.25h0a.22.22,0,0,0,.23-.2c0-.37.07-.74.1-1.1A.23.23,0,0,0,186.42,89.55Z"/>
                <path class="fd844204-7fe4-4ca2-9de5-69b859aecd69" d="M185.39,97.17a.23.23,0,0,0-.27.19l-.21,1.07a.22.22,0,0,0,.17.27h0a.22.22,0,0,0,.22-.19c.08-.36.15-.72.22-1.08A.24.24,0,0,0,185.39,97.17Z"/>
                <path class="fd844204-7fe4-4ca2-9de5-69b859aecd69" d="M177.4,121.49a.22.22,0,0,0-.31.11l-.46,1a.23.23,0,0,0,.12.3.15.15,0,0,0,.09,0,.23.23,0,0,0,.21-.13c.15-.34.31-.67.46-1A.23.23,0,0,0,177.4,121.49Z"/>
                <path class="fd844204-7fe4-4ca2-9de5-69b859aecd69" d="M179.42,116.77a.24.24,0,0,0-.3.13c-.13.34-.27.67-.42,1a.23.23,0,0,0,.13.3l.08,0a.23.23,0,0,0,.22-.14l.42-1A.23.23,0,0,0,179.42,116.77Z"/>
                <path class="fd844204-7fe4-4ca2-9de5-69b859aecd69" d="M182.11,109.56a.23.23,0,0,0-.29.15c-.12.34-.23.69-.36,1a.25.25,0,0,0,.14.3h.08a.24.24,0,0,0,.22-.15c.12-.35.24-.7.35-1.05A.22.22,0,0,0,182.11,109.56Z"/>
                <path class="fd844204-7fe4-4ca2-9de5-69b859aecd69" d="M178.43,119.14a.23.23,0,0,0-.3.12c-.14.33-.29.67-.44,1a.24.24,0,0,0,.12.31h.09a.23.23,0,0,0,.21-.13c.15-.34.3-.67.44-1A.22.22,0,0,0,178.43,119.14Z"/>
                <path class="fd844204-7fe4-4ca2-9de5-69b859aecd69" d="M181.27,112a.23.23,0,0,0-.3.13c-.12.34-.25.69-.38,1a.24.24,0,0,0,.14.3h.08a.21.21,0,0,0,.21-.15c.13-.34.26-.69.38-1A.21.21,0,0,0,181.27,112Z"/>
                <path class="fd844204-7fe4-4ca2-9de5-69b859aecd69" d="M180.37,114.39a.23.23,0,0,0-.3.13c-.13.34-.26.68-.4,1a.24.24,0,0,0,.13.3l.09,0a.24.24,0,0,0,.21-.15c.14-.34.27-.68.4-1A.22.22,0,0,0,180.37,114.39Z"/>
                <path class="fd844204-7fe4-4ca2-9de5-69b859aecd69" d="M152.62,162.16a.23.23,0,0,0,.18-.09l.66-.88a.23.23,0,0,0-.36-.28c-.22.3-.44.59-.67.88C152.36,161.89,152.57,162.16,152.62,162.16Z"/>
                <path class="fd844204-7fe4-4ca2-9de5-69b859aecd69" d="M154.63,158.86l-.65.88a.22.22,0,0,0,0,.32.24.24,0,0,0,.14.05.21.21,0,0,0,.18-.09l.66-.89a.23.23,0,0,0-.37-.27Z"/>
              </g>
              <path class="bf81b354-cca7-4f37-a4de-81e760e96d28" d="M125.89,34.21c-5-.78-58.65-7.87-58.65,50.39,0,32.06,27.52,71,50.22,96.11h16.87c22.7-25.08,50.22-64.05,50.22-96.11C184.55,26.34,130.87,33.43,125.89,34.21Z"/>
            </g>
            <g>
              <path class="a11f6536-a43b-4ffc-b756-e6ec3a75032d" d="M125.89,29.76c-4.14-.8-42.24-6.49-42.24,54.84,0,31.79,23,75.37,37.15,97.34H131c14.14-22,37.15-65.55,37.15-97.34C168.14,23.27,130,29,125.89,29.76Z"/>
              <g>
                <path class="fd844204-7fe4-4ca2-9de5-69b859aecd69" d="M94.37,45.64a.28.28,0,0,0,.13,0,.23.23,0,0,0,.19-.1l.6-.91a.23.23,0,1,0-.37-.26c-.21.3-.41.61-.62.92A.25.25,0,0,0,94.37,45.64Z"/>
                <path class="fd844204-7fe4-4ca2-9de5-69b859aecd69" d="M105.52,35.17l.11,0,1-.51a.22.22,0,0,0,.1-.3.22.22,0,0,0-.3-.11c-.33.16-.66.34-1,.51a.23.23,0,0,0-.09.31A.22.22,0,0,0,105.52,35.17Z"/>
                <path class="fd844204-7fe4-4ca2-9de5-69b859aecd69" d="M107.83,34.05l.09,0c.34-.15.67-.28,1-.41a.23.23,0,0,0-.17-.43l-1,.42a.23.23,0,0,0,.09.44Z"/>
                <path class="fd844204-7fe4-4ca2-9de5-69b859aecd69" d="M86,90.34a.23.23,0,0,0,.21-.25c0-.37-.05-.73-.08-1.09a.23.23,0,0,0-.24-.22.24.24,0,0,0-.22.25c0,.36,0,.73.08,1.1a.23.23,0,0,0,.23.21Z"/>
                <path class="fd844204-7fe4-4ca2-9de5-69b859aecd69" d="M96,43.57a.21.21,0,0,0,.18-.09c.22-.3.45-.58.67-.87a.22.22,0,1,0-.35-.28c-.23.28-.46.57-.68.87a.22.22,0,0,0,0,.32A.24.24,0,0,0,96,43.57Z"/>
                <path class="fd844204-7fe4-4ca2-9de5-69b859aecd69" d="M101.27,38a.2.2,0,0,0,.14-.06l.86-.67a.23.23,0,0,0,0-.32.23.23,0,0,0-.32,0c-.29.22-.59.44-.88.68a.23.23,0,0,0,0,.32A.23.23,0,0,0,101.27,38Z"/>
                <path class="fd844204-7fe4-4ca2-9de5-69b859aecd69" d="M99.35,39.72a.27.27,0,0,0,.16-.06c.26-.26.53-.5.79-.74a.23.23,0,0,0,0-.33.22.22,0,0,0-.32,0q-.41.36-.81.75a.22.22,0,0,0,0,.32A.23.23,0,0,0,99.35,39.72Z"/>
                <path class="fd844204-7fe4-4ca2-9de5-69b859aecd69" d="M112.69,32.44h0l1.07-.23a.24.24,0,0,0,.18-.27.23.23,0,0,0-.27-.18q-.54.11-1.08.24a.22.22,0,0,0-.17.27A.22.22,0,0,0,112.69,32.44Z"/>
                <path class="fd844204-7fe4-4ca2-9de5-69b859aecd69" d="M110.22,33.14h.08c.35-.12.69-.23,1-.33a.22.22,0,0,0,.15-.28.23.23,0,0,0-.28-.16l-1.06.33A.23.23,0,0,0,110,33,.22.22,0,0,0,110.22,33.14Z"/>
                <path class="fd844204-7fe4-4ca2-9de5-69b859aecd69" d="M93.07,47.84a.2.2,0,0,0,.11,0,.22.22,0,0,0,.2-.12l.54-.94a.23.23,0,0,0-.08-.32.23.23,0,0,0-.31.08c-.19.32-.37.64-.55,1A.23.23,0,0,0,93.07,47.84Z"/>
                <path class="fd844204-7fe4-4ca2-9de5-69b859aecd69" d="M110.87,161a.23.23,0,0,0-.09.31l.53,1a.22.22,0,0,0,.2.12l.11,0a.23.23,0,0,0,.09-.31l-.53-1A.23.23,0,0,0,110.87,161Z"/>
                <path class="fd844204-7fe4-4ca2-9de5-69b859aecd69" d="M112.55,164.55a.23.23,0,0,0,.2.11.22.22,0,0,0,.11,0,.24.24,0,0,0,.09-.32l-.54-1a.23.23,0,1,0-.4.22Z"/>
                <path class="fd844204-7fe4-4ca2-9de5-69b859aecd69" d="M86.58,69.86h0a.24.24,0,0,0,.23-.2c0-.37.09-.73.14-1.09a.23.23,0,1,0-.45-.06l-.15,1.09A.24.24,0,0,0,86.58,69.86Z"/>
                <path class="fd844204-7fe4-4ca2-9de5-69b859aecd69" d="M85.91,77.52h0a.23.23,0,0,0,.23-.22c0-.36,0-.73.07-1.09A.23.23,0,0,0,86,76a.22.22,0,0,0-.24.21c0,.36-.05.73-.07,1.1A.23.23,0,0,0,85.91,77.52Z"/>
                <path class="fd844204-7fe4-4ca2-9de5-69b859aecd69" d="M85.8,80.08h0a.23.23,0,0,0,.23-.22c0-.36,0-.73,0-1.09a.23.23,0,1,0-.46,0c0,.36,0,.73,0,1.1A.22.22,0,0,0,85.8,80.08Z"/>
                <path class="fd844204-7fe4-4ca2-9de5-69b859aecd69" d="M86.3,72.41h0a.23.23,0,0,0,.23-.21c0-.36.07-.73.11-1.09a.21.21,0,0,0-.2-.25.23.23,0,0,0-.25.2l-.12,1.1A.24.24,0,0,0,86.3,72.41Z"/>
                <path class="fd844204-7fe4-4ca2-9de5-69b859aecd69" d="M86.07,75h0a.23.23,0,0,0,.23-.21l.09-1.09a.23.23,0,0,0-.46,0l-.09,1.1A.23.23,0,0,0,86.07,75Z"/>
                <path class="fd844204-7fe4-4ca2-9de5-69b859aecd69" d="M91.9,50.13l.1,0a.23.23,0,0,0,.21-.13c.16-.33.32-.66.49-1a.24.24,0,0,0-.1-.31.23.23,0,0,0-.31.1c-.17.33-.33.66-.49,1A.23.23,0,0,0,91.9,50.13Z"/>
                <path class="fd844204-7fe4-4ca2-9de5-69b859aecd69" d="M85.73,85.21h0A.23.23,0,0,0,86,85V83.89a.23.23,0,0,0-.23-.23h0a.22.22,0,0,0-.23.22V85A.22.22,0,0,0,85.73,85.21Z"/>
                <path class="fd844204-7fe4-4ca2-9de5-69b859aecd69" d="M85.74,82.65h0a.22.22,0,0,0,.22-.23c0-.36,0-.73,0-1.09a.22.22,0,0,0-.22-.24.23.23,0,0,0-.23.23l0,1.1A.23.23,0,0,0,85.74,82.65Z"/>
                <path class="fd844204-7fe4-4ca2-9de5-69b859aecd69" d="M85.8,87.78a.23.23,0,0,0,.22-.24c0-.37,0-.73,0-1.1a.22.22,0,0,0-.23-.22.23.23,0,0,0-.23.24c0,.36,0,.73,0,1.1a.22.22,0,0,0,.22.22Z"/>
                <path class="fd844204-7fe4-4ca2-9de5-69b859aecd69" d="M90,54.87l.08,0a.22.22,0,0,0,.21-.16l.38-1a.23.23,0,0,0-.13-.3.25.25,0,0,0-.3.13l-.38,1A.23.23,0,0,0,90,54.87Z"/>
                <path class="fd844204-7fe4-4ca2-9de5-69b859aecd69" d="M90.87,52.48H91a.23.23,0,0,0,.21-.14c.14-.34.28-.67.43-1a.23.23,0,0,0-.12-.31.23.23,0,0,0-.3.12c-.15.34-.29.67-.43,1A.23.23,0,0,0,90.87,52.48Z"/>
                <path class="fd844204-7fe4-4ca2-9de5-69b859aecd69" d="M89.16,57.31h.07a.22.22,0,0,0,.22-.16l.33-1a.23.23,0,0,0-.14-.29.23.23,0,0,0-.29.14c-.12.35-.23.7-.34,1.05A.24.24,0,0,0,89.16,57.31Z"/>
                <path class="fd844204-7fe4-4ca2-9de5-69b859aecd69" d="M86.94,67.32h0a.24.24,0,0,0,.23-.19c0-.37.11-.73.17-1.09a.23.23,0,0,0-.18-.26.23.23,0,0,0-.27.19c-.06.36-.12.72-.17,1.09A.22.22,0,0,0,86.94,67.32Z"/>
                <path class="fd844204-7fe4-4ca2-9de5-69b859aecd69" d="M87.36,64.79h0a.22.22,0,0,0,.22-.19l.21-1.07a.22.22,0,0,0-.18-.27.23.23,0,0,0-.27.18l-.21,1.08A.24.24,0,0,0,87.36,64.79Z"/>
                <path class="fd844204-7fe4-4ca2-9de5-69b859aecd69" d="M88.47,59.78h.06a.23.23,0,0,0,.22-.17c.09-.36.19-.71.29-1.06a.23.23,0,0,0-.16-.28.22.22,0,0,0-.28.16c-.1.35-.2.7-.29,1.06A.23.23,0,0,0,88.47,59.78Z"/>
                <path class="fd844204-7fe4-4ca2-9de5-69b859aecd69" d="M87.87,62.27h0a.23.23,0,0,0,.23-.18L88.39,61a.23.23,0,1,0-.44-.1c-.09.35-.17.71-.25,1.07A.22.22,0,0,0,87.87,62.27Z"/>
                <path class="fd844204-7fe4-4ca2-9de5-69b859aecd69" d="M103.33,36.5a.22.22,0,0,0,.13,0l.92-.59a.22.22,0,0,0,.07-.31.23.23,0,0,0-.31-.08l-.94.6a.24.24,0,0,0-.06.32A.22.22,0,0,0,103.33,36.5Z"/>
                <path class="fd844204-7fe4-4ca2-9de5-69b859aecd69" d="M162.79,58.71c.1.34.19.7.29,1a.21.21,0,0,0,.22.17h0a.23.23,0,0,0,.17-.28c-.09-.36-.19-.72-.29-1.07a.23.23,0,0,0-.28-.16A.23.23,0,0,0,162.79,58.71Z"/>
                <path class="fd844204-7fe4-4ca2-9de5-69b859aecd69" d="M157.18,45.69a.23.23,0,0,0,.19.11.22.22,0,0,0,.13,0,.22.22,0,0,0,.06-.31c-.19-.32-.4-.62-.6-.93a.24.24,0,0,0-.32-.06.23.23,0,0,0-.06.32Z"/>
                <path class="fd844204-7fe4-4ca2-9de5-69b859aecd69" d="M161.58,54.88a.25.25,0,0,0,.22.15h.08a.25.25,0,0,0,.14-.3c-.13-.35-.25-.69-.38-1a.24.24,0,0,0-.3-.14.23.23,0,0,0-.13.3C161.34,54.19,161.46,54.53,161.58,54.88Z"/>
                <path class="fd844204-7fe4-4ca2-9de5-69b859aecd69" d="M163.43,61.18l.24,1.07a.23.23,0,0,0,.23.18h0a.23.23,0,0,0,.17-.27c-.08-.36-.16-.72-.25-1.08a.23.23,0,0,0-.27-.17A.23.23,0,0,0,163.43,61.18Z"/>
                <path class="fd844204-7fe4-4ca2-9de5-69b859aecd69" d="M162.38,57.3a.23.23,0,0,0,.22.17h.07a.23.23,0,0,0,.15-.29l-.33-1.05a.23.23,0,1,0-.44.14Z"/>
                <path class="fd844204-7fe4-4ca2-9de5-69b859aecd69" d="M160.67,52.49a.23.23,0,0,0,.21.14H161a.24.24,0,0,0,.13-.3c-.14-.35-.29-.69-.43-1a.23.23,0,0,0-.42.18Z"/>
                <path class="fd844204-7fe4-4ca2-9de5-69b859aecd69" d="M158.48,47.89a.23.23,0,0,0,.2.11.2.2,0,0,0,.11,0,.24.24,0,0,0,.09-.32l-.54-1a.23.23,0,1,0-.4.24C158.12,47.25,158.3,47.56,158.48,47.89Z"/>
                <path class="fd844204-7fe4-4ca2-9de5-69b859aecd69" d="M159.64,50.16a.23.23,0,0,0,.21.13l.1,0a.25.25,0,0,0,.11-.31c-.16-.34-.33-.67-.49-1a.23.23,0,0,0-.31-.1.24.24,0,0,0-.1.31Z"/>
                <path class="fd844204-7fe4-4ca2-9de5-69b859aecd69" d="M164,63.68c.08.35.15.71.21,1.07a.24.24,0,0,0,.23.19h0a.23.23,0,0,0,.18-.27q-.09-.54-.21-1.08a.22.22,0,0,0-.27-.18A.23.23,0,0,0,164,63.68Z"/>
                <path class="fd844204-7fe4-4ca2-9de5-69b859aecd69" d="M165.58,76.36c0,.36,0,.73.07,1.1a.21.21,0,0,0,.22.21h0a.22.22,0,0,0,.21-.24l-.06-1.1a.24.24,0,0,0-.25-.21A.22.22,0,0,0,165.58,76.36Z"/>
                <path class="fd844204-7fe4-4ca2-9de5-69b859aecd69" d="M165.93,78.68a.22.22,0,0,0-.21.24c0,.36,0,.73,0,1.09a.23.23,0,0,0,.23.23h0a.23.23,0,0,0,.22-.24c0-.37,0-.74,0-1.1A.22.22,0,0,0,165.93,78.68Z"/>
                <path class="fd844204-7fe4-4ca2-9de5-69b859aecd69" d="M166,81.24h0a.23.23,0,0,0-.22.24c0,.36,0,.73,0,1.09a.23.23,0,0,0,.23.23h0a.23.23,0,0,0,.23-.23c0-.37,0-.74,0-1.1A.24.24,0,0,0,166,81.24Z"/>
                <path class="fd844204-7fe4-4ca2-9de5-69b859aecd69" d="M164.44,66.19c.06.36.12.72.17,1.08a.23.23,0,0,0,.23.2h0a.22.22,0,0,0,.19-.27c-.05-.36-.11-.72-.17-1.08a.23.23,0,1,0-.45.07Z"/>
                <path class="fd844204-7fe4-4ca2-9de5-69b859aecd69" d="M164.82,68.72c.06.36.1.72.15,1.09a.23.23,0,0,0,.22.2h0a.23.23,0,0,0,.19-.26c0-.37-.09-.73-.14-1.09a.23.23,0,0,0-.26-.2A.24.24,0,0,0,164.82,68.72Z"/>
                <path class="fd844204-7fe4-4ca2-9de5-69b859aecd69" d="M165.14,71.26c0,.36.08.73.11,1.09a.24.24,0,0,0,.23.21h0a.24.24,0,0,0,.2-.25c0-.37-.07-.74-.11-1.1a.23.23,0,0,0-.46.05Z"/>
                <path class="fd844204-7fe4-4ca2-9de5-69b859aecd69" d="M165.39,73.81l.09,1.09a.23.23,0,0,0,.23.21h0a.23.23,0,0,0,.22-.24l-.09-1.1a.23.23,0,0,0-.25-.21A.23.23,0,0,0,165.39,73.81Z"/>
                <path class="fd844204-7fe4-4ca2-9de5-69b859aecd69" d="M138.12,32.23c.36.07.71.15,1.07.24h.05a.24.24,0,0,0,.23-.17.25.25,0,0,0-.17-.28l-1.09-.24A.21.21,0,0,0,138,32,.23.23,0,0,0,138.12,32.23Z"/>
                <path class="fd844204-7fe4-4ca2-9de5-69b859aecd69" d="M139.3,163.5l-.53,1a.22.22,0,0,0,.08.31l.12,0a.2.2,0,0,0,.19-.12l.54-1a.23.23,0,0,0-.4-.22Z"/>
                <path class="fd844204-7fe4-4ca2-9de5-69b859aecd69" d="M150.49,38.07a.27.27,0,0,0,.14,0,.23.23,0,0,0,.18-.08.24.24,0,0,0,0-.33l-.87-.68a.22.22,0,0,0-.32,0,.22.22,0,0,0,0,.32Z"/>
                <path class="fd844204-7fe4-4ca2-9de5-69b859aecd69" d="M147.54,36c.3.19.61.39.91.6a.22.22,0,0,0,.13,0,.23.23,0,0,0,.13-.42q-.47-.31-.93-.6a.22.22,0,1,0-.24.38Z"/>
                <path class="fd844204-7fe4-4ca2-9de5-69b859aecd69" d="M152.39,39.76a.22.22,0,0,0,.32,0,.22.22,0,0,0,0-.32c-.27-.26-.54-.52-.81-.76a.24.24,0,0,0-.33,0,.25.25,0,0,0,0,.33Z"/>
                <path class="fd844204-7fe4-4ca2-9de5-69b859aecd69" d="M143,33.67l1,.42.09,0a.23.23,0,0,0,.09-.44l-1-.42a.23.23,0,0,0-.3.12A.22.22,0,0,0,143,33.67Z"/>
                <path class="fd844204-7fe4-4ca2-9de5-69b859aecd69" d="M140.59,32.84l1,.33.08,0a.24.24,0,0,0,.21-.16.23.23,0,0,0-.14-.29l-1.06-.33a.22.22,0,1,0-.13.43Z"/>
                <path class="fd844204-7fe4-4ca2-9de5-69b859aecd69" d="M145.32,34.71l1,.51a.2.2,0,0,0,.11,0,.24.24,0,0,0,.2-.12.23.23,0,0,0-.09-.31l-1-.52a.23.23,0,0,0-.31.1A.23.23,0,0,0,145.32,34.71Z"/>
                <path class="fd844204-7fe4-4ca2-9de5-69b859aecd69" d="M155.73,43.6a.25.25,0,0,0,.19.09.24.24,0,0,0,.13,0,.22.22,0,0,0,0-.32c-.22-.29-.44-.59-.68-.87a.22.22,0,1,0-.35.28C155.29,43,155.51,43.3,155.73,43.6Z"/>
                <path class="fd844204-7fe4-4ca2-9de5-69b859aecd69" d="M142.06,158.9a.24.24,0,0,0-.32.09l-.51,1a.23.23,0,0,0,.2.34.24.24,0,0,0,.2-.12l.52-1A.23.23,0,0,0,142.06,158.9Z"/>
                <path class="fd844204-7fe4-4ca2-9de5-69b859aecd69" d="M86.22,92.89a.22.22,0,0,0,.2-.25c0-.37-.07-.73-.11-1.09a.23.23,0,1,0-.46,0l.12,1.1a.22.22,0,0,0,.22.2Z"/>
                <path class="fd844204-7fe4-4ca2-9de5-69b859aecd69" d="M153.13,135.74a.22.22,0,0,0-.3.12l-.43,1a.22.22,0,0,0,.12.3l.09,0a.24.24,0,0,0,.21-.14l.43-1A.23.23,0,0,0,153.13,135.74Z"/>
                <path class="fd844204-7fe4-4ca2-9de5-69b859aecd69" d="M154.12,133.37a.22.22,0,0,0-.3.13l-.42,1a.22.22,0,0,0,.12.3l.09,0a.24.24,0,0,0,.21-.14l.42-1A.23.23,0,0,0,154.12,133.37Z"/>
                <path class="fd844204-7fe4-4ca2-9de5-69b859aecd69" d="M154.48,41.31c-.24-.28-.49-.55-.74-.82a.22.22,0,0,0-.32,0,.22.22,0,0,0,0,.32l.73.81a.19.19,0,0,0,.17.08.27.27,0,0,0,.15,0A.25.25,0,0,0,154.48,41.31Z"/>
                <path class="fd844204-7fe4-4ca2-9de5-69b859aecd69" d="M157.81,123.81a.24.24,0,0,0-.3.14c-.12.34-.24.69-.37,1a.24.24,0,0,0,.13.3h.08a.24.24,0,0,0,.22-.15l.37-1A.23.23,0,0,0,157.81,123.81Z"/>
                <path class="fd844204-7fe4-4ca2-9de5-69b859aecd69" d="M156,128.62a.21.21,0,0,0-.29.13l-.4,1a.23.23,0,0,0,.13.3h.08a.22.22,0,0,0,.21-.14c.14-.34.27-.68.4-1A.23.23,0,0,0,156,128.62Z"/>
                <path class="fd844204-7fe4-4ca2-9de5-69b859aecd69" d="M158.66,121.39a.23.23,0,0,0-.29.14l-.36,1a.23.23,0,0,0,.14.29l.07,0a.22.22,0,0,0,.22-.16l.36-1A.23.23,0,0,0,158.66,121.39Z"/>
                <path class="fd844204-7fe4-4ca2-9de5-69b859aecd69" d="M156.92,126.22a.23.23,0,0,0-.29.14l-.39,1a.25.25,0,0,0,.13.3h.08a.23.23,0,0,0,.22-.14l.39-1A.24.24,0,0,0,156.92,126.22Z"/>
                <path class="fd844204-7fe4-4ca2-9de5-69b859aecd69" d="M147.84,147.45a.23.23,0,0,0-.31.1l-.47,1a.23.23,0,0,0,.1.31l.1,0a.23.23,0,0,0,.21-.13l.48-1A.23.23,0,0,0,147.84,147.45Z"/>
                <path class="fd844204-7fe4-4ca2-9de5-69b859aecd69" d="M146.72,149.75a.25.25,0,0,0-.31.11l-.48,1a.22.22,0,0,0,.1.3.19.19,0,0,0,.1,0,.23.23,0,0,0,.21-.13l.48-1A.23.23,0,0,0,146.72,149.75Z"/>
                <path class="fd844204-7fe4-4ca2-9de5-69b859aecd69" d="M145.58,152.05a.22.22,0,0,0-.3.11c-.17.32-.33.65-.5,1a.23.23,0,0,0,.1.31l.1,0a.22.22,0,0,0,.21-.12l.49-1A.22.22,0,0,0,145.58,152.05Z"/>
                <path class="fd844204-7fe4-4ca2-9de5-69b859aecd69" d="M151.08,140.44a.23.23,0,0,0-.3.12l-.45,1a.23.23,0,0,0,.11.31l.1,0a.21.21,0,0,0,.2-.14l.46-1A.23.23,0,0,0,151.08,140.44Z"/>
                <path class="fd844204-7fe4-4ca2-9de5-69b859aecd69" d="M148.94,145.12a.22.22,0,0,0-.3.11c-.16.33-.31.66-.47,1a.21.21,0,0,0,.11.3.15.15,0,0,0,.09,0,.23.23,0,0,0,.21-.13c.16-.33.31-.66.47-1A.21.21,0,0,0,148.94,145.12Z"/>
                <path class="fd844204-7fe4-4ca2-9de5-69b859aecd69" d="M152.12,138.09a.25.25,0,0,0-.31.12c-.14.34-.29.67-.44,1a.24.24,0,0,0,.12.3l.09,0a.23.23,0,0,0,.21-.14l.45-1A.25.25,0,0,0,152.12,138.09Z"/>
                <path class="fd844204-7fe4-4ca2-9de5-69b859aecd69" d="M150,142.78a.23.23,0,0,0-.3.12c-.16.33-.31.66-.46,1a.21.21,0,0,0,.11.3.16.16,0,0,0,.1,0,.22.22,0,0,0,.2-.13c.16-.33.31-.67.46-1A.23.23,0,0,0,150,142.78Z"/>
                <path class="fd844204-7fe4-4ca2-9de5-69b859aecd69" d="M163.64,104.14a.24.24,0,0,0-.28.18l-.24,1.07a.22.22,0,0,0,.17.27h.05a.22.22,0,0,0,.22-.18c.09-.36.17-.71.25-1.07A.23.23,0,0,0,163.64,104.14Z"/>
                <path class="fd844204-7fe4-4ca2-9de5-69b859aecd69" d="M165.71,91.49a.23.23,0,0,0-.25.21c0,.36-.07.72-.11,1.09a.22.22,0,0,0,.2.25h0a.22.22,0,0,0,.22-.2l.12-1.1A.23.23,0,0,0,165.71,91.49Z"/>
                <path class="fd844204-7fe4-4ca2-9de5-69b859aecd69" d="M159.48,119a.24.24,0,0,0-.29.15c-.11.34-.23.69-.35,1a.23.23,0,0,0,.15.29h.07a.23.23,0,0,0,.22-.15c.12-.35.23-.7.35-1A.23.23,0,0,0,159.48,119Z"/>
                <path class="fd844204-7fe4-4ca2-9de5-69b859aecd69" d="M165.07,96.58a.23.23,0,0,0-.26.19c-.05.36-.11.73-.17,1.09a.23.23,0,0,0,.19.26h0a.23.23,0,0,0,.23-.2l.18-1.08A.24.24,0,0,0,165.07,96.58Z"/>
                <path class="fd844204-7fe4-4ca2-9de5-69b859aecd69" d="M165.92,88.94a.22.22,0,0,0-.24.21l-.09,1.09a.24.24,0,0,0,.21.25h0a.23.23,0,0,0,.23-.21c0-.37.06-.74.08-1.1A.21.21,0,0,0,165.92,88.94Z"/>
                <path class="fd844204-7fe4-4ca2-9de5-69b859aecd69" d="M166.29,84a.23.23,0,0,0-.23-.23h0a.23.23,0,0,0-.23.23v1.09a.24.24,0,0,0,.23.24h0a.24.24,0,0,0,.23-.23V84Z"/>
                <path class="fd844204-7fe4-4ca2-9de5-69b859aecd69" d="M164.65,99.11a.23.23,0,0,0-.26.19c-.07.36-.13.72-.2,1.08a.23.23,0,0,0,.18.27h0a.24.24,0,0,0,.23-.19c.07-.36.13-.72.2-1.08A.24.24,0,0,0,164.65,99.11Z"/>
                <path class="fd844204-7fe4-4ca2-9de5-69b859aecd69" d="M166,86.37a.23.23,0,0,0-.24.22c0,.37,0,.73,0,1.1a.22.22,0,0,0,.21.24h0a.22.22,0,0,0,.22-.22c0-.37,0-.74,0-1.1A.24.24,0,0,0,166,86.37Z"/>
                <path class="fd844204-7fe4-4ca2-9de5-69b859aecd69" d="M165.43,94a.24.24,0,0,0-.26.2c0,.36-.09.72-.14,1.09a.23.23,0,0,0,.19.26h0a.22.22,0,0,0,.23-.2l.15-1.09A.23.23,0,0,0,165.43,94Z"/>
                <path class="fd844204-7fe4-4ca2-9de5-69b859aecd69" d="M161,114.07a.23.23,0,0,0-.29.15c-.1.35-.21.7-.32,1a.23.23,0,0,0,.15.29h.07a.22.22,0,0,0,.22-.16c.11-.35.22-.71.32-1.06A.22.22,0,0,0,161,114.07Z"/>
                <path class="fd844204-7fe4-4ca2-9de5-69b859aecd69" d="M164.17,101.64a.23.23,0,0,0-.27.17c-.07.36-.15.72-.22,1.08a.23.23,0,0,0,.17.27h.05a.22.22,0,0,0,.22-.19c.08-.36.16-.72.23-1.07A.22.22,0,0,0,164.17,101.64Z"/>
                <path class="fd844204-7fe4-4ca2-9de5-69b859aecd69" d="M161.74,111.6a.24.24,0,0,0-.28.16l-.3,1.06a.22.22,0,0,0,.15.28h.07a.22.22,0,0,0,.22-.16l.3-1.06A.24.24,0,0,0,161.74,111.6Z"/>
                <path class="fd844204-7fe4-4ca2-9de5-69b859aecd69" d="M160.27,116.52a.22.22,0,0,0-.28.15c-.11.35-.23.7-.34,1a.22.22,0,0,0,.15.28l.07,0a.24.24,0,0,0,.22-.16l.33-1A.23.23,0,0,0,160.27,116.52Z"/>
                <path class="fd844204-7fe4-4ca2-9de5-69b859aecd69" d="M144.42,154.34a.23.23,0,0,0-.3.1l-.51,1a.24.24,0,0,0,.1.31.2.2,0,0,0,.11,0,.23.23,0,0,0,.2-.13c.17-.32.34-.65.5-1A.22.22,0,0,0,144.42,154.34Z"/>
                <path class="fd844204-7fe4-4ca2-9de5-69b859aecd69" d="M162.42,109.13a.23.23,0,0,0-.28.16c-.1.36-.19.71-.29,1.06a.23.23,0,0,0,.16.28h.06a.23.23,0,0,0,.22-.17c.1-.35.2-.71.29-1.06A.22.22,0,0,0,162.42,109.13Z"/>
                <path class="fd844204-7fe4-4ca2-9de5-69b859aecd69" d="M163.05,106.64a.24.24,0,0,0-.28.17c-.08.35-.17.71-.26,1.06a.23.23,0,0,0,.16.28h.06A.23.23,0,0,0,163,108l.27-1.07A.24.24,0,0,0,163.05,106.64Z"/>
                <path class="fd844204-7fe4-4ca2-9de5-69b859aecd69" d="M155.08,131a.23.23,0,0,0-.3.13c-.14.34-.27.68-.41,1a.23.23,0,0,0,.12.3l.09,0a.22.22,0,0,0,.21-.14c.14-.34.28-.68.41-1A.23.23,0,0,0,155.08,131Z"/>
                <path class="fd844204-7fe4-4ca2-9de5-69b859aecd69" d="M92.09,117.57l-.33-1a.23.23,0,0,0-.29-.14.22.22,0,0,0-.15.28l.33,1a.22.22,0,0,0,.22.16h.07A.23.23,0,0,0,92.09,117.57Z"/>
                <path class="fd844204-7fe4-4ca2-9de5-69b859aecd69" d="M91.32,115.13c-.11-.35-.21-.7-.32-1a.22.22,0,0,0-.28-.16.24.24,0,0,0-.16.29c.11.35.21.7.32,1.05a.22.22,0,0,0,.22.16h.07A.22.22,0,0,0,91.32,115.13Z"/>
                <path class="fd844204-7fe4-4ca2-9de5-69b859aecd69" d="M92.54,119a.22.22,0,0,0-.29-.14.23.23,0,0,0-.14.29c.12.34.23.69.35,1a.22.22,0,0,0,.22.16l.07,0a.23.23,0,0,0,.14-.29C92.77,119.66,92.66,119.31,92.54,119Z"/>
                <path class="fd844204-7fe4-4ca2-9de5-69b859aecd69" d="M143.25,156.62a.24.24,0,0,0-.31.1l-.51,1a.22.22,0,0,0,.1.31l.1,0a.22.22,0,0,0,.2-.12l.52-1A.23.23,0,0,0,143.25,156.62Z"/>
                <path class="fd844204-7fe4-4ca2-9de5-69b859aecd69" d="M96,128.61a.21.21,0,0,0-.29-.13.22.22,0,0,0-.13.29c.13.35.26.69.4,1a.22.22,0,0,0,.21.14h.08a.23.23,0,0,0,.13-.3C96.28,129.29,96.15,129,96,128.61Z"/>
                <path class="fd844204-7fe4-4ca2-9de5-69b859aecd69" d="M93.37,121.39a.23.23,0,0,0-.44.15c.12.35.24.69.37,1a.23.23,0,0,0,.21.15h.08a.23.23,0,0,0,.14-.29Z"/>
                <path class="fd844204-7fe4-4ca2-9de5-69b859aecd69" d="M94.22,123.81a.23.23,0,1,0-.43.15c.12.35.25.69.38,1a.23.23,0,0,0,.21.15l.08,0a.23.23,0,0,0,.14-.29C94.47,124.49,94.34,124.15,94.22,123.81Z"/>
                <path class="fd844204-7fe4-4ca2-9de5-69b859aecd69" d="M95.1,126.21a.22.22,0,0,0-.42.16c.12.35.25.69.38,1a.25.25,0,0,0,.22.15h.08a.23.23,0,0,0,.13-.3Z"/>
                <path class="fd844204-7fe4-4ca2-9de5-69b859aecd69" d="M89.9,110.2c-.1-.35-.2-.7-.29-1.06a.23.23,0,0,0-.28-.16.22.22,0,0,0-.16.28c.09.36.18.71.28,1.06a.22.22,0,0,0,.22.17h.06A.24.24,0,0,0,89.9,110.2Z"/>
                <path class="fd844204-7fe4-4ca2-9de5-69b859aecd69" d="M87.57,100.23c-.06-.36-.13-.72-.2-1.08a.23.23,0,0,0-.26-.19.24.24,0,0,0-.19.27c.07.36.13.72.2,1.08a.24.24,0,0,0,.23.19h0A.23.23,0,0,0,87.57,100.23Z"/>
                <path class="fd844204-7fe4-4ca2-9de5-69b859aecd69" d="M86.54,95.44a.23.23,0,0,0,.2-.26l-.15-1.09a.23.23,0,0,0-.25-.2.23.23,0,0,0-.2.26c0,.36.09.72.14,1.09a.23.23,0,0,0,.23.2Z"/>
                <path class="fd844204-7fe4-4ca2-9de5-69b859aecd69" d="M87.12,97.71c-.06-.36-.11-.73-.17-1.09a.23.23,0,0,0-.26-.19.23.23,0,0,0-.19.26c0,.37.11.73.17,1.09a.24.24,0,0,0,.23.19h0A.23.23,0,0,0,87.12,97.71Z"/>
                <path class="fd844204-7fe4-4ca2-9de5-69b859aecd69" d="M89.24,107.73c-.09-.36-.18-.71-.26-1.07a.23.23,0,0,0-.45.11l.27,1.07A.23.23,0,0,0,89,108h.06A.22.22,0,0,0,89.24,107.73Z"/>
                <path class="fd844204-7fe4-4ca2-9de5-69b859aecd69" d="M88.08,102.74c-.08-.36-.15-.72-.23-1.08a.21.21,0,0,0-.26-.17.22.22,0,0,0-.18.27c.07.35.14.71.22,1.07a.23.23,0,0,0,.22.19h.05A.24.24,0,0,0,88.08,102.74Z"/>
                <path class="fd844204-7fe4-4ca2-9de5-69b859aecd69" d="M88.63,105.24l-.24-1.07a.24.24,0,0,0-.27-.18.24.24,0,0,0-.18.28c.08.36.17.71.25,1.07a.22.22,0,0,0,.22.18h0A.22.22,0,0,0,88.63,105.24Z"/>
                <path class="fd844204-7fe4-4ca2-9de5-69b859aecd69" d="M90.59,112.67q-.16-.53-.3-1a.23.23,0,0,0-.45.12c.1.35.21.7.31,1.06a.22.22,0,0,0,.22.16h.06A.23.23,0,0,0,90.59,112.67Z"/>
                <path class="fd844204-7fe4-4ca2-9de5-69b859aecd69" d="M106.44,152a.22.22,0,0,0-.3-.1.22.22,0,0,0-.1.31l.49,1a.22.22,0,0,0,.2.12l.1,0a.24.24,0,0,0,.11-.31Z"/>
                <path class="fd844204-7fe4-4ca2-9de5-69b859aecd69" d="M97,131a.23.23,0,0,0-.3-.12.22.22,0,0,0-.12.29c.13.34.27.69.41,1a.24.24,0,0,0,.21.14l.09,0a.23.23,0,0,0,.12-.3C97.23,131.67,97.09,131.33,97,131Z"/>
                <path class="fd844204-7fe4-4ca2-9de5-69b859aecd69" d="M104.19,147.43a.23.23,0,0,0-.3-.11.23.23,0,0,0-.11.31l.48,1a.23.23,0,0,0,.2.13.17.17,0,0,0,.1,0,.22.22,0,0,0,.11-.3Z"/>
                <path class="fd844204-7fe4-4ca2-9de5-69b859aecd69" d="M107.6,154.31a.22.22,0,0,0-.31-.1.23.23,0,0,0-.1.31l.51,1a.23.23,0,0,0,.2.13.19.19,0,0,0,.1,0,.22.22,0,0,0,.1-.31Z"/>
                <path class="fd844204-7fe4-4ca2-9de5-69b859aecd69" d="M108.78,156.59a.22.22,0,0,0-.31-.1.22.22,0,0,0-.1.31l.51,1a.22.22,0,0,0,.2.12.22.22,0,0,0,.11,0,.24.24,0,0,0,.1-.31C109.11,157.24,108.94,156.91,108.78,156.59Z"/>
                <path class="fd844204-7fe4-4ca2-9de5-69b859aecd69" d="M140.84,161.16a.23.23,0,0,0-.31.09l-.53,1a.23.23,0,0,0,.09.31l.11,0a.22.22,0,0,0,.21-.12l.52-1A.23.23,0,0,0,140.84,161.16Z"/>
                <path class="fd844204-7fe4-4ca2-9de5-69b859aecd69" d="M110.28,160.16a.2.2,0,0,0,.11,0,.22.22,0,0,0,.1-.31c-.18-.32-.35-.64-.52-1a.22.22,0,0,0-.31-.1.23.23,0,0,0-.09.31l.51,1A.22.22,0,0,0,110.28,160.16Z"/>
                <path class="fd844204-7fe4-4ca2-9de5-69b859aecd69" d="M105.31,149.73a.23.23,0,0,0-.31-.1.22.22,0,0,0-.1.3l.48,1a.23.23,0,0,0,.21.13.19.19,0,0,0,.1,0,.22.22,0,0,0,.1-.3Z"/>
                <path class="fd844204-7fe4-4ca2-9de5-69b859aecd69" d="M98.91,135.74a.23.23,0,0,0-.3-.12.23.23,0,0,0-.12.3l.43,1a.24.24,0,0,0,.21.14l.09,0a.23.23,0,0,0,.12-.3Z"/>
                <path class="fd844204-7fe4-4ca2-9de5-69b859aecd69" d="M97.92,133.37a.24.24,0,0,0-.3-.13.24.24,0,0,0-.13.3l.43,1a.23.23,0,0,0,.21.15l.09,0a.24.24,0,0,0,.12-.3Z"/>
                <path class="fd844204-7fe4-4ca2-9de5-69b859aecd69" d="M97.75,41.5l.73-.81a.22.22,0,0,0,0-.32.22.22,0,0,0-.32,0c-.25.27-.5.54-.74.82a.22.22,0,0,0,0,.32.2.2,0,0,0,.15.06A.25.25,0,0,0,97.75,41.5Z"/>
                <path class="fd844204-7fe4-4ca2-9de5-69b859aecd69" d="M101,140.45a.23.23,0,0,0-.3-.11.22.22,0,0,0-.12.3l.45,1a.25.25,0,0,0,.22.13l.09,0a.23.23,0,0,0,.11-.3Z"/>
                <path class="fd844204-7fe4-4ca2-9de5-69b859aecd69" d="M102,142.79a.23.23,0,0,0-.3-.11.23.23,0,0,0-.12.3c.15.34.31.67.46,1a.22.22,0,0,0,.21.13.18.18,0,0,0,.1,0,.23.23,0,0,0,.11-.3C102.32,143.46,102.17,143.12,102,142.79Z"/>
                <path class="fd844204-7fe4-4ca2-9de5-69b859aecd69" d="M103.1,145.12a.23.23,0,0,0-.31-.11.23.23,0,0,0-.11.3l.47,1a.23.23,0,0,0,.21.13l.1,0a.22.22,0,0,0,.1-.3Z"/>
                <path class="fd844204-7fe4-4ca2-9de5-69b859aecd69" d="M99.93,138.1a.24.24,0,0,0-.31-.11.23.23,0,0,0-.12.3l.45,1a.23.23,0,0,0,.21.13.15.15,0,0,0,.09,0,.22.22,0,0,0,.12-.3C100.22,138.78,100.07,138.44,99.93,138.1Z"/>
              </g>
            </g>
            <g>
              <path class="fd844204-7fe4-4ca2-9de5-69b859aecd69" d="M104.17,74.44h0a.24.24,0,0,0,.23-.22c0-.37,0-.74,0-1.1a.23.23,0,0,0-.22-.24.23.23,0,0,0-.24.22c0,.36,0,.73,0,1.1A.24.24,0,0,0,104.17,74.44Z"/>
              <path class="fd844204-7fe4-4ca2-9de5-69b859aecd69" d="M104.08,77h0a.22.22,0,0,0,.23-.22c0-.37,0-.73,0-1.1a.23.23,0,1,0-.46,0c0,.37,0,.74,0,1.1A.23.23,0,0,0,104.08,77Z"/>
              <path class="fd844204-7fe4-4ca2-9de5-69b859aecd69" d="M104.29,71.88h0a.24.24,0,0,0,.23-.22l.06-1.1a.23.23,0,0,0-.21-.24.23.23,0,0,0-.25.21l-.06,1.1A.23.23,0,0,0,104.29,71.88Z"/>
              <path class="fd844204-7fe4-4ca2-9de5-69b859aecd69" d="M104,82.13h0a.23.23,0,0,0,.23-.23c0-.36,0-.73,0-1.1a.23.23,0,0,0-.23-.23.24.24,0,0,0-.23.23c0,.36,0,.73,0,1.1A.23.23,0,0,0,104,82.13Z"/>
              <path class="fd844204-7fe4-4ca2-9de5-69b859aecd69" d="M107.32,49h.05a.23.23,0,0,0,.22-.17l.27-1.06a.23.23,0,0,0-.45-.12c-.09.35-.18.71-.26,1.07A.23.23,0,0,0,107.32,49Z"/>
              <path class="fd844204-7fe4-4ca2-9de5-69b859aecd69" d="M104.45,69.31h0a.24.24,0,0,0,.23-.22c0-.37,0-.73.08-1.09a.24.24,0,0,0-.22-.25.23.23,0,0,0-.24.21c0,.37,0,.73-.08,1.1A.22.22,0,0,0,104.45,69.31Z"/>
              <path class="fd844204-7fe4-4ca2-9de5-69b859aecd69" d="M104,87.26h0a.23.23,0,0,0,.23-.23c0-.37,0-.73,0-1.1a.23.23,0,0,0-.23-.23h0a.23.23,0,0,0-.23.23c0,.37,0,.74,0,1.11A.22.22,0,0,0,104,87.26Z"/>
              <path class="fd844204-7fe4-4ca2-9de5-69b859aecd69" d="M104,79.56h0a.22.22,0,0,0,.23-.22l0-1.1a.23.23,0,0,0-.22-.23.24.24,0,0,0-.24.22c0,.37,0,.73,0,1.1A.21.21,0,0,0,104,79.56Z"/>
              <path class="fd844204-7fe4-4ca2-9de5-69b859aecd69" d="M104.65,66.76h0a.23.23,0,0,0,.23-.21c0-.37.07-.73.1-1.1a.22.22,0,0,0-.21-.24.23.23,0,0,0-.25.2l-.09,1.1A.22.22,0,0,0,104.65,66.76Z"/>
              <path class="fd844204-7fe4-4ca2-9de5-69b859aecd69" d="M106.76,51.52h0a.24.24,0,0,0,.23-.19c.07-.36.15-.71.23-1.07a.23.23,0,0,0-.17-.27.23.23,0,0,0-.28.17c-.08.36-.16.72-.23,1.08A.23.23,0,0,0,106.76,51.52Z"/>
              <path class="fd844204-7fe4-4ca2-9de5-69b859aecd69" d="M105.84,56.57h0a.22.22,0,0,0,.22-.19q.09-.56.18-1.08a.23.23,0,0,0-.19-.27.23.23,0,0,0-.26.19l-.18,1.09A.23.23,0,0,0,105.84,56.57Z"/>
              <path class="fd844204-7fe4-4ca2-9de5-69b859aecd69" d="M106.27,54h0a.22.22,0,0,0,.22-.19l.21-1.07a.23.23,0,0,0-.18-.27.22.22,0,0,0-.27.18l-.21,1.08A.23.23,0,0,0,106.27,54Z"/>
              <path class="fd844204-7fe4-4ca2-9de5-69b859aecd69" d="M104.88,64.2h0a.22.22,0,0,0,.23-.2c0-.37.07-.73.11-1.09a.24.24,0,0,0-.2-.26.23.23,0,0,0-.25.21L104.67,64A.23.23,0,0,0,104.88,64.2Z"/>
              <path class="fd844204-7fe4-4ca2-9de5-69b859aecd69" d="M105.15,61.65h0a.23.23,0,0,0,.23-.2c0-.36.08-.73.13-1.09a.23.23,0,0,0-.2-.25.23.23,0,0,0-.26.19c0,.37-.09.73-.13,1.1A.23.23,0,0,0,105.15,61.65Z"/>
              <path class="fd844204-7fe4-4ca2-9de5-69b859aecd69" d="M105.47,59.11h0a.23.23,0,0,0,.23-.2l.15-1.09a.23.23,0,1,0-.45-.06c-.05.36-.11.72-.15,1.09A.23.23,0,0,0,105.47,59.11Z"/>
              <path class="fd844204-7fe4-4ca2-9de5-69b859aecd69" d="M104,84.7h0a.23.23,0,0,0,.22-.23c0-.37,0-.74,0-1.1a.23.23,0,0,0-.23-.23h0a.23.23,0,0,0-.23.23v1.1A.24.24,0,0,0,104,84.7Z"/>
              <path class="fd844204-7fe4-4ca2-9de5-69b859aecd69" d="M105.76,110.3a.24.24,0,0,0,.2-.26l-.15-1.09a.23.23,0,0,0-.45.06c0,.37.09.73.14,1.09a.23.23,0,0,0,.23.2Z"/>
              <path class="fd844204-7fe4-4ca2-9de5-69b859aecd69" d="M106.48,115.37a.23.23,0,0,0,.2-.26c-.06-.36-.11-.72-.17-1.08a.23.23,0,0,0-.26-.2.23.23,0,0,0-.19.26c0,.37.11.73.16,1.09a.24.24,0,0,0,.23.19Z"/>
              <path class="fd844204-7fe4-4ca2-9de5-69b859aecd69" d="M106.11,112.84a.23.23,0,0,0,.19-.26l-.15-1.09a.23.23,0,0,0-.45.07l.15,1.09a.22.22,0,0,0,.23.19Z"/>
              <path class="fd844204-7fe4-4ca2-9de5-69b859aecd69" d="M107.07,117.63c-.06-.35-.11-.72-.17-1.08a.23.23,0,0,0-.26-.19.23.23,0,0,0-.19.27c0,.36.11.72.17,1.08a.24.24,0,0,0,.23.19h0A.23.23,0,0,0,107.07,117.63Z"/>
              <path class="fd844204-7fe4-4ca2-9de5-69b859aecd69" d="M108.41,125.21c-.07-.36-.14-.72-.2-1.08a.23.23,0,0,0-.27-.18.22.22,0,0,0-.18.26c.06.37.13.73.2,1.09a.23.23,0,0,0,.22.18h0A.24.24,0,0,0,108.41,125.21Z"/>
              <path class="fd844204-7fe4-4ca2-9de5-69b859aecd69" d="M107.94,122.69c-.06-.36-.13-.72-.19-1.08a.24.24,0,0,0-.27-.19.22.22,0,0,0-.18.27c.06.36.12.72.19,1.08a.24.24,0,0,0,.23.19h0A.23.23,0,0,0,107.94,122.69Z"/>
              <path class="fd844204-7fe4-4ca2-9de5-69b859aecd69" d="M107.5,120.16c-.07-.36-.13-.72-.19-1.08a.23.23,0,0,0-.26-.19.23.23,0,0,0-.19.27l.18,1.08a.24.24,0,0,0,.23.19h0A.24.24,0,0,0,107.5,120.16Z"/>
              <path class="fd844204-7fe4-4ca2-9de5-69b859aecd69" d="M105.44,107.76a.23.23,0,0,0,.19-.26l-.12-1.09a.23.23,0,0,0-.26-.2.23.23,0,0,0-.2.25c0,.37.09.73.13,1.1a.23.23,0,0,0,.23.2Z"/>
              <path class="fd844204-7fe4-4ca2-9de5-69b859aecd69" d="M104.26,95a.24.24,0,0,0,.22-.24l-.06-1.1a.24.24,0,0,0-.24-.22.24.24,0,0,0-.22.25l.06,1.09a.23.23,0,0,0,.23.22Z"/>
              <path class="fd844204-7fe4-4ca2-9de5-69b859aecd69" d="M104.12,92.4h0a.24.24,0,0,0,.22-.24c0-.37,0-.73,0-1.1a.23.23,0,0,0-.24-.22.24.24,0,0,0-.22.24c0,.37,0,.73,0,1.1A.23.23,0,0,0,104.12,92.4Z"/>
              <path class="fd844204-7fe4-4ca2-9de5-69b859aecd69" d="M104,89.83h0a.22.22,0,0,0,.22-.23l0-1.1a.23.23,0,1,0-.45,0c0,.36,0,.73,0,1.1A.22.22,0,0,0,104,89.83Z"/>
              <path class="fd844204-7fe4-4ca2-9de5-69b859aecd69" d="M104.43,97.52a.24.24,0,0,0,.22-.24c0-.37-.06-.73-.08-1.1a.22.22,0,0,0-.24-.21.22.22,0,0,0-.22.24c0,.37,0,.73.08,1.1a.23.23,0,0,0,.23.21Z"/>
              <path class="fd844204-7fe4-4ca2-9de5-69b859aecd69" d="M105.14,105.21a.23.23,0,0,0,.2-.26l-.12-1.09a.21.21,0,0,0-.25-.2.23.23,0,0,0-.2.25l.12,1.09a.23.23,0,0,0,.22.21Z"/>
              <path class="fd844204-7fe4-4ca2-9de5-69b859aecd69" d="M104.64,100.09a.23.23,0,0,0,.21-.25c0-.37-.07-.73-.09-1.1a.23.23,0,0,0-.25-.21.23.23,0,0,0-.21.25l.09,1.1a.23.23,0,0,0,.23.21Z"/>
              <path class="fd844204-7fe4-4ca2-9de5-69b859aecd69" d="M104.87,102.65a.23.23,0,0,0,.21-.25c0-.37-.07-.73-.1-1.1a.24.24,0,0,0-.25-.2.22.22,0,0,0-.21.24c0,.37.07.74.1,1.1a.23.23,0,0,0,.23.21Z"/>
              <path class="fd844204-7fe4-4ca2-9de5-69b859aecd69" d="M145.78,57c.05.36.1.72.16,1.09a.22.22,0,0,0,.22.19h0a.23.23,0,0,0,.19-.26c0-.36-.11-.73-.16-1.09a.23.23,0,0,0-.26-.19A.23.23,0,0,0,145.78,57Z"/>
              <path class="fd844204-7fe4-4ca2-9de5-69b859aecd69" d="M146.14,59.51c.05.36.09.72.14,1.08a.23.23,0,0,0,.23.21h0a.22.22,0,0,0,.2-.25c0-.37-.09-.73-.14-1.09a.22.22,0,0,0-.25-.2A.23.23,0,0,0,146.14,59.51Z"/>
              <path class="fd844204-7fe4-4ca2-9de5-69b859aecd69" d="M146.45,62.05l.12,1.09a.22.22,0,0,0,.23.2h0a.23.23,0,0,0,.21-.25L146.91,62a.23.23,0,1,0-.46,0Z"/>
              <path class="fd844204-7fe4-4ca2-9de5-69b859aecd69" d="M145.36,54.45c.06.35.13.71.19,1.08a.22.22,0,0,0,.22.19h0a.24.24,0,0,0,.19-.27c-.06-.36-.13-.73-.19-1.08a.23.23,0,1,0-.45.08Z"/>
              <path class="fd844204-7fe4-4ca2-9de5-69b859aecd69" d="M146.72,64.6c0,.36.07.72.1,1.09a.23.23,0,0,0,.23.21h0a.25.25,0,0,0,.21-.25c0-.37-.07-.74-.11-1.1a.22.22,0,0,0-.25-.2A.23.23,0,0,0,146.72,64.6Z"/>
              <path class="fd844204-7fe4-4ca2-9de5-69b859aecd69" d="M144.33,49.43c.09.35.17.71.25,1.07a.22.22,0,0,0,.22.18h0a.22.22,0,0,0,.17-.28c-.07-.36-.16-.72-.24-1.07a.23.23,0,0,0-.27-.17A.23.23,0,0,0,144.33,49.43Z"/>
              <path class="fd844204-7fe4-4ca2-9de5-69b859aecd69" d="M144.88,51.93l.21,1.08a.23.23,0,0,0,.23.18h0a.22.22,0,0,0,.18-.27c-.06-.36-.14-.72-.21-1.08a.24.24,0,0,0-.27-.18A.23.23,0,0,0,144.88,51.93Z"/>
              <path class="fd844204-7fe4-4ca2-9de5-69b859aecd69" d="M147.62,74.58a.24.24,0,0,0-.22.24c0,.36,0,.73,0,1.1a.24.24,0,0,0,.23.22h0a.23.23,0,0,0,.22-.24c0-.37,0-.74,0-1.1A.22.22,0,0,0,147.62,74.58Z"/>
              <path class="fd844204-7fe4-4ca2-9de5-69b859aecd69" d="M147.72,77.14h0a.24.24,0,0,0-.23.24l0,1.1a.24.24,0,0,0,.23.22h0a.22.22,0,0,0,.22-.23l0-1.1A.23.23,0,0,0,147.72,77.14Z"/>
              <path class="fd844204-7fe4-4ca2-9de5-69b859aecd69" d="M108,46.53H108a.23.23,0,0,0,.22-.17c.1-.35.2-.7.31-1a.23.23,0,0,0-.16-.28.22.22,0,0,0-.28.15c-.1.35-.21.7-.31,1.06A.23.23,0,0,0,108,46.53Z"/>
              <path class="fd844204-7fe4-4ca2-9de5-69b859aecd69" d="M147.82,82.27h0a.24.24,0,0,0-.23.24c0,.36,0,.73,0,1.09a.23.23,0,0,0,.23.23h0a.23.23,0,0,0,.23-.23c0-.37,0-.73,0-1.1A.23.23,0,0,0,147.82,82.27Z"/>
              <path class="fd844204-7fe4-4ca2-9de5-69b859aecd69" d="M147.78,79.71a.22.22,0,0,0-.22.23V81a.24.24,0,0,0,.23.23h0A.24.24,0,0,0,148,81l0-1.1A.22.22,0,0,0,147.78,79.71Z"/>
              <path class="fd844204-7fe4-4ca2-9de5-69b859aecd69" d="M147.13,69.7c0,.37.05.73.07,1.1a.23.23,0,0,0,.23.21h0a.23.23,0,0,0,.22-.24c0-.37,0-.73-.07-1.1a.23.23,0,0,0-.25-.21A.23.23,0,0,0,147.13,69.7Z"/>
              <path class="fd844204-7fe4-4ca2-9de5-69b859aecd69" d="M143.71,47c.1.35.19.71.28,1.06a.22.22,0,0,0,.22.18h.06a.23.23,0,0,0,.16-.28c-.09-.36-.18-.72-.28-1.07a.23.23,0,1,0-.44.12Z"/>
              <path class="fd844204-7fe4-4ca2-9de5-69b859aecd69" d="M147.28,72.26l.06,1.1a.22.22,0,0,0,.23.21h0a.23.23,0,0,0,.22-.24l-.06-1.09a.23.23,0,1,0-.46,0Z"/>
              <path class="fd844204-7fe4-4ca2-9de5-69b859aecd69" d="M146.94,67.15l.09,1.09a.23.23,0,0,0,.23.21h0a.22.22,0,0,0,.21-.24c0-.37,0-.74-.08-1.1a.23.23,0,0,0-.25-.21A.23.23,0,0,0,146.94,67.15Z"/>
              <path class="fd844204-7fe4-4ca2-9de5-69b859aecd69" d="M112.78,34.69a.19.19,0,0,0,.12,0,.21.21,0,0,0,.19-.11c.2-.32.39-.62.59-.92a.24.24,0,0,0-.06-.32.23.23,0,0,0-.32.07q-.3.45-.6.93A.23.23,0,0,0,112.78,34.69Z"/>
              <path class="fd844204-7fe4-4ca2-9de5-69b859aecd69" d="M108.9,127.73l-.21-1.08a.23.23,0,0,0-.27-.18.22.22,0,0,0-.18.27l.21,1.08a.23.23,0,0,0,.23.18h0A.23.23,0,0,0,108.9,127.73Z"/>
              <path class="fd844204-7fe4-4ca2-9de5-69b859aecd69" d="M110.45,39.26a.16.16,0,0,0,.09,0,.24.24,0,0,0,.22-.14c.14-.33.29-.67.45-1a.24.24,0,0,0-.12-.31.23.23,0,0,0-.3.11l-.45,1A.22.22,0,0,0,110.45,39.26Z"/>
              <path class="fd844204-7fe4-4ca2-9de5-69b859aecd69" d="M108.68,44.07h.07a.22.22,0,0,0,.22-.16c.11-.35.23-.69.34-1a.24.24,0,0,0-.14-.3.23.23,0,0,0-.29.15c-.12.34-.24.69-.35,1A.23.23,0,0,0,108.68,44.07Z"/>
              <path class="fd844204-7fe4-4ca2-9de5-69b859aecd69" d="M109.51,41.65h.08a.23.23,0,0,0,.21-.15c.13-.34.26-.68.4-1a.25.25,0,0,0-.13-.3.24.24,0,0,0-.3.13c-.13.34-.27.68-.4,1A.24.24,0,0,0,109.51,41.65Z"/>
              <path class="fd844204-7fe4-4ca2-9de5-69b859aecd69" d="M141.68,40.71a.22.22,0,0,0,.21.14H142a.23.23,0,0,0,.13-.3c-.13-.35-.27-.69-.41-1a.24.24,0,0,0-.3-.13.23.23,0,0,0-.12.31Z"/>
              <path class="fd844204-7fe4-4ca2-9de5-69b859aecd69" d="M140.68,38.36a.23.23,0,0,0,.21.13.15.15,0,0,0,.09,0,.23.23,0,0,0,.12-.3l-.48-1a.23.23,0,0,0-.31-.1.23.23,0,0,0-.1.3Z"/>
              <path class="fd844204-7fe4-4ca2-9de5-69b859aecd69" d="M143,44.5c.11.34.21.69.32,1a.22.22,0,0,0,.22.16h.06a.23.23,0,0,0,.16-.28c-.11-.36-.21-.71-.32-1.06a.23.23,0,0,0-.44.14Z"/>
              <path class="fd844204-7fe4-4ca2-9de5-69b859aecd69" d="M142.55,43.11a.23.23,0,0,0,.22.15h.07A.23.23,0,0,0,143,43c-.12-.35-.25-.7-.37-1a.23.23,0,0,0-.29-.14.23.23,0,0,0-.14.29Z"/>
              <path class="fd844204-7fe4-4ca2-9de5-69b859aecd69" d="M139.1,35.3c.15.26.3.52.44.78a.22.22,0,0,0,.2.12.2.2,0,0,0,.11,0,.23.23,0,0,0,.09-.31c-.14-.27-.29-.53-.45-.8l-.09-.16a.23.23,0,0,0-.32-.08.23.23,0,0,0-.08.31Z"/>
              <path class="fd844204-7fe4-4ca2-9de5-69b859aecd69" d="M138.23,33.9a.26.26,0,0,0,.2.1.19.19,0,0,0,.12,0,.23.23,0,0,0,.07-.31c-.21-.32-.42-.63-.63-.92a.23.23,0,0,0-.37.27C137.82,33.29,138,33.59,138.23,33.9Z"/>
              <path class="fd844204-7fe4-4ca2-9de5-69b859aecd69" d="M111.54,36.94a.18.18,0,0,0,.1,0,.22.22,0,0,0,.21-.12q.25-.5.51-1a.24.24,0,0,0-.09-.32.23.23,0,0,0-.31.09c-.18.32-.35.65-.52,1A.22.22,0,0,0,111.54,36.94Z"/>
              <path class="fd844204-7fe4-4ca2-9de5-69b859aecd69" d="M141.44,135.65a.24.24,0,0,0-.28.18l-.24,1.07a.22.22,0,0,0,.17.27h0a.22.22,0,0,0,.22-.18l.25-1.07A.25.25,0,0,0,141.44,135.65Z"/>
              <path class="fd844204-7fe4-4ca2-9de5-69b859aecd69" d="M140.86,138.16a.22.22,0,0,0-.27.17l-.26,1.07a.23.23,0,0,0,.17.27h.06a.23.23,0,0,0,.22-.18l.25-1.07A.22.22,0,0,0,140.86,138.16Z"/>
              <path class="fd844204-7fe4-4ca2-9de5-69b859aecd69" d="M134.85,160.45a.24.24,0,0,0-.28.16c-.11.35-.22.7-.32,1a.22.22,0,0,0,.15.28h.06a.22.22,0,0,0,.22-.16c.11-.35.22-.69.33-1A.24.24,0,0,0,134.85,160.45Z"/>
              <path class="fd844204-7fe4-4ca2-9de5-69b859aecd69" d="M144,123.09a.22.22,0,0,0-.27.18c-.07.36-.13.72-.2,1.08a.24.24,0,0,0,.18.27h.05a.23.23,0,0,0,.22-.19c.07-.36.13-.72.2-1.08A.23.23,0,0,0,144,123.09Z"/>
              <path class="fd844204-7fe4-4ca2-9de5-69b859aecd69" d="M143.54,125.61a.22.22,0,0,0-.27.18l-.21,1.08a.23.23,0,0,0,.18.27h0a.23.23,0,0,0,.23-.18l.21-1.08A.23.23,0,0,0,143.54,125.61Z"/>
              <path class="fd844204-7fe4-4ca2-9de5-69b859aecd69" d="M140.27,140.65a.23.23,0,0,0-.28.17c-.09.36-.17.71-.26,1.07a.23.23,0,0,0,.17.28h0a.23.23,0,0,0,.22-.17c.09-.36.18-.71.26-1.07A.23.23,0,0,0,140.27,140.65Z"/>
              <path class="fd844204-7fe4-4ca2-9de5-69b859aecd69" d="M142.53,130.64a.23.23,0,0,0-.28.18c-.07.36-.15.71-.22,1.07a.22.22,0,0,0,.17.27h.05a.22.22,0,0,0,.22-.18c.08-.36.16-.72.23-1.08A.23.23,0,0,0,142.53,130.64Z"/>
              <path class="fd844204-7fe4-4ca2-9de5-69b859aecd69" d="M143,128.13a.22.22,0,0,0-.27.17l-.22,1.08a.23.23,0,0,0,.18.27h.05a.23.23,0,0,0,.22-.19l.22-1.07A.22.22,0,0,0,143,128.13Z"/>
              <path class="fd844204-7fe4-4ca2-9de5-69b859aecd69" d="M136.32,155.53a.24.24,0,0,0-.29.16l-.31,1.06a.24.24,0,0,0,.16.28h.06a.23.23,0,0,0,.22-.17l.31-1.05A.23.23,0,0,0,136.32,155.53Z"/>
              <path class="fd844204-7fe4-4ca2-9de5-69b859aecd69" d="M135.59,158a.22.22,0,0,0-.28.15l-.32,1a.24.24,0,0,0,.16.29h.06a.22.22,0,0,0,.22-.16l.32-1.06A.22.22,0,0,0,135.59,158Z"/>
              <path class="fd844204-7fe4-4ca2-9de5-69b859aecd69" d="M137,153.07a.22.22,0,0,0-.28.15l-.3,1.06a.22.22,0,0,0,.15.28h.07a.22.22,0,0,0,.22-.16l.3-1.06A.23.23,0,0,0,137,153.07Z"/>
              <path class="fd844204-7fe4-4ca2-9de5-69b859aecd69" d="M137.7,150.59a.24.24,0,0,0-.28.16c-.09.36-.19.71-.29,1.06a.23.23,0,0,0,.16.28h.06a.22.22,0,0,0,.22-.16c.1-.36.2-.71.29-1.07A.22.22,0,0,0,137.7,150.59Z"/>
              <path class="fd844204-7fe4-4ca2-9de5-69b859aecd69" d="M139,145.63a.23.23,0,0,0-.28.17l-.28,1.06a.24.24,0,0,0,.17.28h.06a.23.23,0,0,0,.22-.17l.28-1.07A.24.24,0,0,0,139,145.63Z"/>
              <path class="fd844204-7fe4-4ca2-9de5-69b859aecd69" d="M139.65,143.14a.23.23,0,0,0-.27.17l-.27,1.07a.21.21,0,0,0,.16.27h.06a.23.23,0,0,0,.22-.17l.27-1.07A.23.23,0,0,0,139.65,143.14Z"/>
              <path class="fd844204-7fe4-4ca2-9de5-69b859aecd69" d="M138.37,148.11a.23.23,0,0,0-.28.17l-.28,1.06a.22.22,0,0,0,.16.28H138a.23.23,0,0,0,.22-.17c.1-.36.19-.71.28-1.07A.23.23,0,0,0,138.37,148.11Z"/>
              <path class="fd844204-7fe4-4ca2-9de5-69b859aecd69" d="M142,133.15a.22.22,0,0,0-.27.17l-.24,1.08a.23.23,0,0,0,.17.27h0a.25.25,0,0,0,.23-.18l.24-1.08A.24.24,0,0,0,142,133.15Z"/>
              <path class="fd844204-7fe4-4ca2-9de5-69b859aecd69" d="M147.65,92.53a.24.24,0,0,0-.24.22c0,.36,0,.73,0,1.09a.23.23,0,0,0,.22.24h0a.23.23,0,0,0,.23-.22c0-.36,0-.73.05-1.09A.22.22,0,0,0,147.65,92.53Z"/>
              <path class="fd844204-7fe4-4ca2-9de5-69b859aecd69" d="M147.14,100.19a.25.25,0,0,0-.25.21l-.09,1.1a.22.22,0,0,0,.2.24h0a.23.23,0,0,0,.23-.21c0-.37.07-.73.1-1.1A.23.23,0,0,0,147.14,100.19Z"/>
              <path class="fd844204-7fe4-4ca2-9de5-69b859aecd69" d="M147.35,97.64a.22.22,0,0,0-.25.21c0,.36,0,.73-.08,1.09a.23.23,0,0,0,.2.25h0a.23.23,0,0,0,.22-.21l.09-1.1A.23.23,0,0,0,147.35,97.64Z"/>
              <path class="fd844204-7fe4-4ca2-9de5-69b859aecd69" d="M147.52,95.08a.23.23,0,0,0-.24.22c0,.36-.05.73-.08,1.09a.24.24,0,0,0,.22.25h0a.24.24,0,0,0,.23-.22c0-.36.05-.73.07-1.09A.23.23,0,0,0,147.52,95.08Z"/>
              <path class="fd844204-7fe4-4ca2-9de5-69b859aecd69" d="M147.75,90a.22.22,0,0,0-.23.22c0,.37,0,.73,0,1.1a.23.23,0,0,0,.22.24h0a.22.22,0,0,0,.23-.22c0-.37,0-.74,0-1.1A.22.22,0,0,0,147.75,90Z"/>
              <path class="fd844204-7fe4-4ca2-9de5-69b859aecd69" d="M147.83,84.84h0a.23.23,0,0,0-.23.23v1.1a.23.23,0,0,0,.22.23h0a.24.24,0,0,0,.23-.23v-1.1A.23.23,0,0,0,147.83,84.84Z"/>
              <path class="fd844204-7fe4-4ca2-9de5-69b859aecd69" d="M147.81,87.4h0a.23.23,0,0,0-.23.23c0,.37,0,.73,0,1.1a.22.22,0,0,0,.22.23h0a.22.22,0,0,0,.23-.22l0-1.1A.24.24,0,0,0,147.81,87.4Z"/>
              <path class="fd844204-7fe4-4ca2-9de5-69b859aecd69" d="M146.34,107.86a.21.21,0,0,0-.25.2c-.05.36-.1.73-.14,1.09a.23.23,0,0,0,.2.26h0a.23.23,0,0,0,.22-.2c0-.37.09-.73.14-1.1A.22.22,0,0,0,146.34,107.86Z"/>
              <path class="fd844204-7fe4-4ca2-9de5-69b859aecd69" d="M145.66,113a.23.23,0,0,0-.26.19l-.15,1.09a.23.23,0,0,0,.19.26h0a.23.23,0,0,0,.23-.2l.16-1.08A.23.23,0,0,0,145.66,113Z"/>
              <path class="fd844204-7fe4-4ca2-9de5-69b859aecd69" d="M145.28,115.49a.23.23,0,0,0-.26.2l-.17,1.08a.23.23,0,0,0,.19.26h0a.24.24,0,0,0,.23-.2l.17-1.08A.24.24,0,0,0,145.28,115.49Z"/>
              <path class="fd844204-7fe4-4ca2-9de5-69b859aecd69" d="M144.88,118a.23.23,0,0,0-.26.19l-.18,1.08a.22.22,0,0,0,.19.26h0a.22.22,0,0,0,.22-.19l.18-1.09A.23.23,0,0,0,144.88,118Z"/>
              <path class="fd844204-7fe4-4ca2-9de5-69b859aecd69" d="M144.46,120.56a.23.23,0,0,0-.27.18c-.06.37-.12.73-.19,1.09a.23.23,0,0,0,.19.26h0a.22.22,0,0,0,.22-.19c.06-.36.13-.72.19-1.09A.23.23,0,0,0,144.46,120.56Z"/>
              <path class="fd844204-7fe4-4ca2-9de5-69b859aecd69" d="M146.64,105.3a.23.23,0,0,0-.25.2c0,.37-.09.73-.13,1.1a.23.23,0,0,0,.2.25h0a.22.22,0,0,0,.22-.2c0-.36.09-.73.13-1.09A.23.23,0,0,0,146.64,105.3Z"/>
              <path class="fd844204-7fe4-4ca2-9de5-69b859aecd69" d="M146,110.41a.22.22,0,0,0-.26.2l-.15,1.09a.23.23,0,0,0,.19.26h0a.22.22,0,0,0,.22-.2l.15-1.09A.23.23,0,0,0,146,110.41Z"/>
              <path class="fd844204-7fe4-4ca2-9de5-69b859aecd69" d="M146.9,102.75a.24.24,0,0,0-.25.2c0,.37-.07.73-.11,1.1a.23.23,0,0,0,.21.25h0a.23.23,0,0,0,.23-.2c0-.37.07-.74.11-1.1A.23.23,0,0,0,146.9,102.75Z"/>
              <path class="fd844204-7fe4-4ca2-9de5-69b859aecd69" d="M111.66,140.25c-.09-.36-.17-.71-.26-1.07a.22.22,0,0,0-.27-.17.23.23,0,0,0-.17.27c.08.36.17.72.25,1.07a.23.23,0,0,0,.23.18h0A.23.23,0,0,0,111.66,140.25Z"/>
              <path class="fd844204-7fe4-4ca2-9de5-69b859aecd69" d="M116.31,157.59c-.1-.35-.21-.7-.31-1.06a.22.22,0,0,0-.28-.15.23.23,0,0,0-.16.28l.31,1.06a.24.24,0,0,0,.22.16h.07A.22.22,0,0,0,116.31,157.59Z"/>
              <path class="fd844204-7fe4-4ca2-9de5-69b859aecd69" d="M114.21,150.18l-.29-1.06a.23.23,0,1,0-.44.12l.29,1.06a.21.21,0,0,0,.22.17h.06A.23.23,0,0,0,114.21,150.18Z"/>
              <path class="fd844204-7fe4-4ca2-9de5-69b859aecd69" d="M114.89,152.66l-.29-1.06a.23.23,0,0,0-.28-.16.22.22,0,0,0-.16.28l.29,1.06a.23.23,0,0,0,.22.17h.06A.23.23,0,0,0,114.89,152.66Z"/>
              <path class="fd844204-7fe4-4ca2-9de5-69b859aecd69" d="M115.59,155.12l-.3-1.05a.23.23,0,1,0-.44.12l.3,1.06a.23.23,0,0,0,.22.17h.07A.23.23,0,0,0,115.59,155.12Z"/>
              <path class="fd844204-7fe4-4ca2-9de5-69b859aecd69" d="M118.57,164.94l-.33-1.05a.24.24,0,0,0-.29-.15.24.24,0,0,0-.15.29l.34,1.05a.22.22,0,0,0,.22.16h.07A.23.23,0,0,0,118.57,164.94Z"/>
              <path class="fd844204-7fe4-4ca2-9de5-69b859aecd69" d="M117.8,162.49l-.32-1.05a.24.24,0,0,0-.29-.15.23.23,0,0,0-.15.29l.32,1a.24.24,0,0,0,.22.16h.07A.23.23,0,0,0,117.8,162.49Z"/>
              <path class="fd844204-7fe4-4ca2-9de5-69b859aecd69" d="M117.05,160l-.32-1a.23.23,0,0,0-.29-.15.22.22,0,0,0-.15.28l.32,1.06a.24.24,0,0,0,.22.16h.06A.24.24,0,0,0,117.05,160Z"/>
              <path class="fd844204-7fe4-4ca2-9de5-69b859aecd69" d="M109.41,130.24c-.07-.36-.15-.72-.22-1.08a.24.24,0,0,0-.27-.18.23.23,0,0,0-.18.27c.08.36.15.72.22,1.08a.24.24,0,0,0,.23.19h0A.23.23,0,0,0,109.41,130.24Z"/>
              <path class="fd844204-7fe4-4ca2-9de5-69b859aecd69" d="M111.07,137.75l-.25-1.07a.23.23,0,0,0-.27-.17.23.23,0,0,0-.18.27l.25,1.08a.24.24,0,0,0,.23.17h.05A.24.24,0,0,0,111.07,137.75Z"/>
              <path class="fd844204-7fe4-4ca2-9de5-69b859aecd69" d="M110.5,135.25l-.24-1.07A.25.25,0,0,0,110,134a.23.23,0,0,0-.17.28l.24,1.07a.22.22,0,0,0,.22.18h0A.24.24,0,0,0,110.5,135.25Z"/>
              <path class="fd844204-7fe4-4ca2-9de5-69b859aecd69" d="M113.54,147.71l-.27-1.07a.24.24,0,0,0-.29-.16.23.23,0,0,0-.16.28l.28,1.06a.22.22,0,0,0,.22.17h.06A.23.23,0,0,0,113.54,147.71Z"/>
              <path class="fd844204-7fe4-4ca2-9de5-69b859aecd69" d="M109.94,132.75l-.23-1.08a.22.22,0,0,0-.27-.17.23.23,0,0,0-.18.27l.24,1.07a.22.22,0,0,0,.22.18h0A.23.23,0,0,0,109.94,132.75Z"/>
              <path class="fd844204-7fe4-4ca2-9de5-69b859aecd69" d="M112.9,145.22l-.27-1.06a.23.23,0,1,0-.45.11l.27,1.07a.24.24,0,0,0,.23.17h0A.22.22,0,0,0,112.9,145.22Z"/>
              <path class="fd844204-7fe4-4ca2-9de5-69b859aecd69" d="M112.27,142.74l-.27-1.07a.22.22,0,0,0-.27-.17.24.24,0,0,0-.17.28l.27,1.07a.22.22,0,0,0,.22.17h0A.23.23,0,0,0,112.27,142.74Z"/>
              <path class="fd844204-7fe4-4ca2-9de5-69b859aecd69" d="M134.1,162.91a.23.23,0,0,0-.29.15l-.33,1.05a.22.22,0,0,0,.15.28h.07a.22.22,0,0,0,.21-.16c.12-.34.23-.69.34-1.05A.23.23,0,0,0,134.1,162.91Z"/>
            </g>
            <path class="bf81b354-cca7-4f37-a4de-81e760e96d28" d="M126.26,179c3.89-9.3,19.49-54.16,19.49-94,0-56.33-16.94-57.21-19.86-57C123,27.76,106,28.64,106,85c0,39.83,15.61,84.69,19.49,94v1.75l.37-.87.37.87Z"/>
          </g>
          <g>
            <path class="fd844204-7fe4-4ca2-9de5-69b859aecd69" d="M115.65,187c4.48.09,14.49.09,19,0a3.19,3.19,0,0,0,2.3-1.28c2.66-4,11.21-16.64,16.94-23.15a129,129,0,0,1-28.72,3.31,151.26,151.26,0,0,1-28.71-3.31c5.42,6.16,14.22,19.11,16.93,23.15A3.18,3.18,0,0,0,115.65,187Z"/>
            <g>
              <path class="a11f6536-a43b-4ffc-b756-e6ec3a75032d" d="M102,166.38a.25.25,0,0,1-.19-.09l-.33-.43a.23.23,0,0,1,0-.26.24.24,0,0,1,.24-.11l.54.09a.24.24,0,0,1,.19.27.24.24,0,0,1-.24.19.21.21,0,0,1-.06.29A.18.18,0,0,1,102,166.38Z"/>
              <path class="a11f6536-a43b-4ffc-b756-e6ec3a75032d" d="M125.13,168.2h-.61a.23.23,0,0,1-.23-.23.23.23,0,0,1,.23-.23h1.12a.23.23,0,0,1,.23.23.23.23,0,0,1-.23.23Zm2,0a.22.22,0,0,1-.23-.22.24.24,0,0,1,.22-.24l1.12,0a.25.25,0,0,1,.24.22.24.24,0,0,1-.22.24l-1.13,0Zm-4.12,0h0l-1.13,0a.24.24,0,0,1-.22-.24.23.23,0,0,1,.24-.22l1.12,0a.22.22,0,0,1,.22.23A.23.23,0,0,1,123,168.18Zm6.73-.07a.22.22,0,0,1-.22-.22.23.23,0,0,1,.22-.24l1.12-.05a.23.23,0,0,1,.23.22.22.22,0,0,1-.21.24l-1.13.05Zm-9.34,0h0l-1.13-.06a.23.23,0,0,1-.21-.24.22.22,0,0,1,.24-.22l1.12.06a.22.22,0,0,1,.21.24A.22.22,0,0,1,120.41,168.09Zm12-.11a.23.23,0,0,1-.23-.21.22.22,0,0,1,.22-.24l1.11-.08a.24.24,0,0,1,.25.22.23.23,0,0,1-.21.24l-1.12.07Zm-14.58,0h0l-1.12-.08a.23.23,0,1,1,0-.46l1.12.08a.23.23,0,0,1,0,.46ZM135,167.8a.24.24,0,0,1-.23-.21.23.23,0,0,1,.22-.24l1.11-.1a.24.24,0,0,1,.25.21.23.23,0,0,1-.21.25l-1.12.09Zm-19.8-.07h0l-1.12-.1a.23.23,0,0,1-.21-.25.25.25,0,0,1,.25-.21l1.12.11a.23.23,0,0,1,0,.45Zm22.41-.16a.24.24,0,0,1-.23-.2.23.23,0,0,1,.21-.25l1.11-.12a.23.23,0,0,1,.26.2.24.24,0,0,1-.21.26l-1.12.11Zm-25-.09h0l-1.12-.12a.24.24,0,0,1-.2-.26.24.24,0,0,1,.25-.2l1.12.13a.22.22,0,0,1,.2.25A.23.23,0,0,1,112.57,167.48Zm27.63-.19a.23.23,0,0,1,0-.46l1.11-.13a.23.23,0,1,1,.06.45l-1.12.14ZM110,167.18h0l-1.11-.14a.23.23,0,0,1-.2-.26.24.24,0,0,1,.26-.2l1.11.15a.23.23,0,0,1,.2.25A.23.23,0,0,1,110,167.18Zm32.82-.22a.22.22,0,0,1-.22-.2.23.23,0,0,1,.19-.26l1.11-.15a.23.23,0,0,1,.26.19.23.23,0,0,1-.19.26l-1.12.16Zm-35.41-.12h0l-1.11-.16a.23.23,0,0,1-.19-.26.22.22,0,0,1,.26-.19l1.11.16a.23.23,0,0,1,0,.45Zm38-.26a.22.22,0,0,1-.22-.19.24.24,0,0,1,.19-.27l1.1-.17a.23.23,0,0,1,.27.19.23.23,0,0,1-.19.26l-1.11.18Zm-40.6-.12h0l-1.11-.18a.23.23,0,0,1-.19-.26.23.23,0,0,1,.26-.19l1.11.18a.22.22,0,0,1,.19.26A.23.23,0,0,1,104.78,166.46Z"/>
              <path class="a11f6536-a43b-4ffc-b756-e6ec3a75032d" d="M148.17,166.49a.24.24,0,0,1-.14-.05.23.23,0,0,1-.06-.29h0a.23.23,0,0,1-.22-.19.23.23,0,0,1,.19-.26l.53-.1a.21.21,0,0,1,.24.11.23.23,0,0,1,0,.26l-.34.43A.21.21,0,0,1,148.17,166.49Z"/>
              <path class="a11f6536-a43b-4ffc-b756-e6ec3a75032d" d="M125.59,185.22H124.5a.23.23,0,1,1,0-.45h1.09a.23.23,0,1,1,0,.45Zm1.46,0a.23.23,0,0,1-.23-.23.24.24,0,0,1,.23-.23h1.1a.23.23,0,0,1,0,.46Zm-4,0h-1.09a.23.23,0,1,1,0-.46H123a.23.23,0,0,1,.23.23A.23.23,0,0,1,123,185.22Zm6.58,0a.23.23,0,1,1,0-.45h1.09a.23.23,0,0,1,.23.23.23.23,0,0,1-.22.23Zm-9.13,0h-1.1a.24.24,0,0,1-.23-.24.23.23,0,0,1,.23-.22h1.1a.24.24,0,0,1,.23.24A.23.23,0,0,1,120.48,185.21Zm11.69,0a.22.22,0,0,1-.23-.22.22.22,0,0,1,.22-.23l1.1,0a.22.22,0,0,1,.23.23.23.23,0,0,1-.23.23Zm-14.25,0h-1.1a.23.23,0,0,1,0-.46h1.09a.23.23,0,0,1,.23.24A.23.23,0,0,1,117.92,185.19Zm16.8-.07a.25.25,0,0,1-.22-.15.24.24,0,0,1,.13-.3,1.12,1.12,0,0,0,.37-.23l.29-.43a.22.22,0,0,1,.32-.06.22.22,0,0,1,.06.31l-.3.45a1.48,1.48,0,0,1-.57.39ZM115.39,185a.2.2,0,0,1-.11,0,1.1,1.1,0,0,1-.39-.3l-.4-.59a.23.23,0,1,1,.38-.26l.39.59a1.47,1.47,0,0,0,.24.16.23.23,0,0,1,.09.31A.22.22,0,0,1,115.39,185Zm20.9-1.89a.19.19,0,0,1-.12,0,.23.23,0,0,1-.07-.32l.62-.91a.23.23,0,0,1,.38.26l-.62.91A.23.23,0,0,1,136.29,183.15ZM113.86,183a.26.26,0,0,1-.19-.1l-.61-.91a.23.23,0,0,1,.06-.32.24.24,0,0,1,.32.06l.61.91a.23.23,0,0,1-.06.32A.2.2,0,0,1,113.86,183Zm23.87-2a.2.2,0,0,1-.13,0,.23.23,0,0,1-.06-.32l.62-.9a.23.23,0,0,1,.32-.06.24.24,0,0,1,.06.32l-.62.9A.23.23,0,0,1,137.73,181Zm-25.31-.13a.26.26,0,0,1-.19-.1l-.62-.91a.24.24,0,0,1,.06-.32.24.24,0,0,1,.32.06l.62.91a.22.22,0,0,1-.06.31A.21.21,0,0,1,112.42,180.9Zm26.75-2a.19.19,0,0,1-.12,0,.23.23,0,0,1-.06-.32l.62-.9a.23.23,0,0,1,.38.26l-.63.9A.21.21,0,0,1,139.17,178.92Zm-28.2-.13a.26.26,0,0,1-.19-.1l-.62-.9a.23.23,0,1,1,.37-.26l.63.9a.23.23,0,0,1-.06.32A.2.2,0,0,1,111,178.79Zm29.66-2a.22.22,0,0,1-.13,0,.23.23,0,0,1-.05-.32l.63-.9a.22.22,0,0,1,.32-.05.23.23,0,0,1,0,.32l-.63.89A.21.21,0,0,1,140.63,176.82Zm-31.12-.13a.23.23,0,0,1-.19-.1l-.63-.89a.23.23,0,0,1,.38-.27l.63.9a.24.24,0,0,1-.06.32A.2.2,0,0,1,109.51,176.69Zm32.59-2a.22.22,0,0,1-.13,0,.24.24,0,0,1-.05-.32l.64-.9a.22.22,0,0,1,.31-.05.23.23,0,0,1,.06.32l-.64.89A.21.21,0,0,1,142.1,174.73ZM108,174.6a.2.2,0,0,1-.18-.1l-.64-.89a.23.23,0,0,1,.06-.32.24.24,0,0,1,.32.05l.63.9a.24.24,0,0,1,0,.32A.23.23,0,0,1,108,174.6Zm35.56-1.95a.24.24,0,0,1-.13-.05.22.22,0,0,1-.05-.32l.64-.89a.23.23,0,0,1,.32,0,.23.23,0,0,1,0,.32l-.64.89A.26.26,0,0,1,143.59,172.65Zm-37-.13a.23.23,0,0,1-.19-.1l-.64-.88a.25.25,0,0,1,0-.33.23.23,0,0,1,.32.06l.64.89a.23.23,0,0,1,0,.32A.33.33,0,0,1,106.55,172.52Zm38.55-1.94a.24.24,0,0,1-.14-.05.23.23,0,0,1-.05-.32l.65-.88a.24.24,0,0,1,.32-.05.23.23,0,0,1,.05.32c-.21.3-.43.59-.65.88A.2.2,0,0,1,145.1,170.58ZM105,170.45a.2.2,0,0,1-.18-.1l-.65-.88a.22.22,0,0,1,.05-.32.24.24,0,0,1,.32,0l.65.88a.23.23,0,0,1,0,.32A.24.24,0,0,1,105,170.45Zm41.58-1.93a.23.23,0,0,1-.14,0,.23.23,0,0,1,0-.32l.66-.88a.23.23,0,0,1,.36.28q-.32.44-.66.87A.21.21,0,0,1,146.62,168.52Zm-43.1-.13a.21.21,0,0,1-.18-.09l-.66-.88a.23.23,0,0,1,0-.32.23.23,0,0,1,.32.05l.66.87a.24.24,0,0,1,0,.33A.23.23,0,0,1,103.52,168.39Z"/>
            </g>
          </g>
          <path class="fffcd288-7d2e-47f1-a887-661330188f71" d="M133.73,203.7l-1.49-6.47a.92.92,0,0,0-.91-.92h-12.4a.92.92,0,0,0-.91.92l-1.48,6.47a.64.64,0,0,1-1.28,0l1.48-8.72a.92.92,0,0,1,.92-.92h15a.92.92,0,0,1,.91.92L135,203.7a.64.64,0,1,1-1.27,0Z"/>
          <path class="ecf14ce4-bba1-400b-b34f-154222f9674e" d="M138.17,202.75a99.9,99.9,0,0,1-13,.74,99.84,99.84,0,0,1-12.95-.74,1.5,1.5,0,0,0-1.8,1.52v14.44a1.8,1.8,0,0,0,0,.22,6.4,6.4,0,0,0,6.48,5.81h16.51a6.4,6.4,0,0,0,6.48-5.81,1.8,1.8,0,0,0,0-.22V204.28A1.51,1.51,0,0,0,138.17,202.75Z"/>
          <rect class="a11f6536-a43b-4ffc-b756-e6ec3a75032d" x="119.56" y="194.06" width="11.14" height="2.25"/>
        </g>
      </g>
    </g>
  </g>
</svg>
