<svg id="f6961e73-ca6c-473e-b6ce-be1570cbb697" data-name="Layer 1" xmlns="http://www.w3.org/2000/svg" xmlns:xlink="http://www.w3.org/1999/xlink" width="462.9" height="482.5" viewBox="0 0 462.9 482.5">
  <defs>
    <style>
      .e72baca8-dc8f-4084-a8b0-497af776a21d {
        fill: none;
      }

      .b7158150-f1f9-4bcf-947d-a4a28c61c1b3 {
        opacity: 0.5;
      }

      .e3cf52bd-42af-4824-8d95-ae512fcc2b52 {
        fill: url(#a5ef609c-d81a-4416-a1b2-1b2824c7155f);
      }

      .bb06e167-8b4b-45bc-a1dc-611108eecd09 {
        fill: #31d0e5;
        stroke-miterlimit: 10;
        stroke-width: 6px;
        stroke: url(#a416caf7-6804-4f5b-bcb3-124012d6df2a);
      }

      .e0d24e05-aa05-414c-a0a8-47272d319e62 {
        clip-path: url(#b94162a2-bc89-4d9f-a9e9-d402542c451f);
      }

      .ace1cab9-9b6e-4f54-a650-e70c2aa7b959 {
        opacity: 0.25;
      }

      .a94c04a9-d4fa-4874-b242-bd4dbcb36378 {
        fill: #ee6101;
      }

      .bdaac2ba-eea2-4c83-9449-ff88201f9c31 {
        fill: #cc3a00;
      }

      .e1dd88e4-07ae-4c12-964b-9008e0011e87 {
        fill: #ff8b22;
      }

      .b825b3e5-aa52-4d6c-80cb-13f3c2848c37 {
        fill: #e28d00;
      }

      .b88a889e-78c8-415b-97c1-df3d298fd1cc {
        fill: #e84d00;
      }

      .b3e4e5df-540e-4269-ba47-d43d3899007d {
        fill: #fff;
      }

      .a7ffe3da-1c9e-416c-ad61-9e3649670dea {
        fill: #ffcea6;
      }
    </style>
    <linearGradient id="a5ef609c-d81a-4416-a1b2-1b2824c7155f" x1="52.73" y1="118.79" x2="402" y2="358.11" gradientUnits="userSpaceOnUse">
      <stop offset="0" stop-color="#9b81cf"/>
      <stop offset="1" stop-color="#3b139b"/>
    </linearGradient>
    <linearGradient id="a416caf7-6804-4f5b-bcb3-124012d6df2a" x1="25.67" y1="241.25" x2="437.24" y2="241.25" gradientUnits="userSpaceOnUse">
      <stop offset="0" stop-color="#4c1da9"/>
      <stop offset="1" stop-color="#997ece"/>
    </linearGradient>
    <clipPath id="b94162a2-bc89-4d9f-a9e9-d402542c451f">
      <circle class="e72baca8-dc8f-4084-a8b0-497af776a21d" cx="235.46" cy="243.57" r="209.22"/>
    </clipPath>
  </defs>
  <g>
    <path class="b7158150-f1f9-4bcf-947d-a4a28c61c1b3" d="M444.68,252.5a208.28,208.28,0,0,0-25.42-100,211.66,211.66,0,0,0-187.81-114c-116.9,0-211.67,94.78-211.67,211.68s94.77,211.68,211.67,211.68c3,0,5.93-.08,8.87-.2C353.63,459.07,444.68,366.42,444.68,252.5Z"/>
    <g>
      <g>
        <circle class="e3cf52bd-42af-4824-8d95-ae512fcc2b52" cx="231.45" cy="241.25" r="211.68"/>
        <circle class="bb06e167-8b4b-45bc-a1dc-611108eecd09" cx="231.45" cy="241.25" r="202.78"/>
      </g>
      <g class="e0d24e05-aa05-414c-a0a8-47272d319e62">
        <g>
          <path class="ace1cab9-9b6e-4f54-a650-e70c2aa7b959" d="M148.57,329.83,125.9,392.26a7,7,0,0,0,6.37,9.46H329.56a7,7,0,0,0,6.62-8.63l-15.45-66.78a6.85,6.85,0,0,0-6.8-5.38l-159.16,4.35A6.83,6.83,0,0,0,148.57,329.83Z"/>
          <g>
            <path class="a94c04a9-d4fa-4874-b242-bd4dbcb36378" d="M331.4,82.84c-74.25-29-136.91-27.59-197,0-13.16,6,27,161.12,27,161.12L194,241l.64,0h.43l.64,0L304.39,244S344.79,88.06,331.4,82.84Z"/>
            <path class="bdaac2ba-eea2-4c83-9449-ff88201f9c31" d="M169.4,245.85s3.11-38.67-.23-50.49c-4.65-16.51-8.11-22.74-21.3-27.67-11.76-4.39-44.59-4.6-54.75,8.37s-6.22,25.13-3,30.38,9.14,11.46,21.42,10.22c3.33,12.07,6.6,37.32,6.83,48C126,263.54,169.4,245.85,169.4,245.85Z"/>
            <path class="a94c04a9-d4fa-4874-b242-bd4dbcb36378" d="M124.82,264.24s-6.37-48.07-10.62-53.78c-6.9.29-14-1.31-17.89-7.55s-3.78-16.83,2-21.43c7.58-6.07,17.26-4.75,24.87.5,8.34,5.74,13.35,18.55,14.71,40.23,1.71,27.1,3.49,36.78,3.49,36.78Z"/>
            <path class="bdaac2ba-eea2-4c83-9449-ff88201f9c31" d="M298.13,245.85s-3.11-38.67.23-50.49c4.65-16.51,8.11-22.74,21.3-27.67,11.76-4.39,44.59-4.6,54.75,8.37s6.22,25.13,3,30.38S368.3,217.9,356,216.66c-3.33,12.07-6.59,37.32-6.82,48C341.58,263.54,298.13,245.85,298.13,245.85Z"/>
            <path class="a94c04a9-d4fa-4874-b242-bd4dbcb36378" d="M342.72,264.24s6.36-48.07,10.61-53.78c6.9.29,13.95-1.31,17.9-7.55s3.77-16.83-2-21.43c-7.58-6.07-17.25-4.75-24.87.5-8.34,5.74-13.34,18.55-14.71,40.23-1.7,27.1-3.49,36.78-3.49,36.78Z"/>
            <path class="e1dd88e4-07ae-4c12-964b-9008e0011e87" d="M361.61,277.05c-3.34-11.16-14.34-17.73-32.24-24.63S303,240.27,296,239.61c-6.55-.62-116.51-.62-123.06,0-7,.66-15.47,5.91-33.36,12.81s-28.9,13.47-32.24,24.63c-2.26,7.55.09,34.81,2.51,42.69a21.47,21.47,0,0,0,14.26,13.8c4.85,1.31,215.87,1.31,220.72,0a21.43,21.43,0,0,0,14.25-13.8C361.52,311.86,363.86,284.6,361.61,277.05Z"/>
            <path class="b825b3e5-aa52-4d6c-80cb-13f3c2848c37" d="M330.64,367.33c8.52-20.56,6.09-44,6.09-44H307.44s-2.43,23.44,6.1,44c3.37.14,3.56-.06,3.56-.06s1.3,2.52-.52,4.2-4,3.82-4,8.15c.1,4.6,2.24,6.24,3.8,7.3.22,2,1.52,10.87,1.52,11.74h8.29c0-.87,1.3-9.78,1.53-11.74a8.34,8.34,0,0,0,3.79-7.3c.06-4.17-2.14-6.46-4-8.15s-.51-4.2-.51-4.2S327.27,367.47,330.64,367.33Z"/>
            <path class="b825b3e5-aa52-4d6c-80cb-13f3c2848c37" d="M153.26,367.33c8.53-20.56,6.1-44,6.1-44H130.07s-2.43,23.44,6.09,44c3.37.14,3.57-.06,3.57-.06s1.29,2.52-.52,4.2-4,3.82-4,8.15c.09,4.6,2.24,6.24,3.79,7.3.23,2,1.52,10.87,1.53,11.74h8.29c0-.87,1.3-9.78,1.52-11.74a8.34,8.34,0,0,0,3.8-7.3c.06-4.17-2.15-6.46-4-8.15s-.52-4.2-.52-4.2S149.89,367.47,153.26,367.33Z"/>
            <path class="b88a889e-78c8-415b-97c1-df3d298fd1cc" d="M361.61,277.05c-.83-2.79-2.52-7.53-5.61-7.55-65.52-.43-177.52-.43-243,0-3.09,0-4.78,4.76-5.61,7.55-2.26,7.55.09,34.81,2.51,42.69a21.47,21.47,0,0,0,14.26,13.8c4.85,1.31,215.87,1.31,220.72,0a21.43,21.43,0,0,0,14.25-13.8C361.52,311.86,363.86,284.6,361.61,277.05Z"/>
            <path class="b3e4e5df-540e-4269-ba47-d43d3899007d" d="M166,206.83,160,192.49c-1.42-3.46-3.32-6.76-2.61-7.51s13.54-.9,20.58.37,21.43,1,26.28,0A138.71,138.71,0,0,0,220,181c2.11-.9,2.64-2,3.7-1.31s1.05,4.61.84,7.51,1.38,14.72,3.17,20.43,4.33,14.72,5.38,15.62,3.27,6.11,3.06,7.21,3.17,2.71,3.91,3.81,2.53,2.9,2.32,3.9,1,.91-3.49,1.8-19,2.21-21,2.61-13.08.6-13.08.6l-19.42-7.31Z"/>
            <path class="a7ffe3da-1c9e-416c-ad61-9e3649670dea" d="M170,204.83c8-.4,18.26-.8,24.59-2.1s7.16-2.59,9.87-2.39c.51,0,.89-.52,1,6.09s2.11,21.63,5,26.84,8,9.41,8,10.91-1.06,2.51-4,2.7-20.79,2.11-24.59,2.41-14.88,1.3-18.79,2.2-5.27,1.5-5.69,1-.56-6.61-1.11-11c-.76-6-4.33-16.82-5.91-20.93s-5.42-12.3-6-13.87C150.72,202,162,205.23,170,204.83Z"/>
          </g>
        </g>
      </g>
    </g>
  </g>
</svg>
