<svg xmlns="http://www.w3.org/2000/svg" xmlns:xlink="http://www.w3.org/1999/xlink" width="462.9" height="482.5" viewBox="0 0 462.9 482.5">
  <defs>
    <style>
      .a9dd7fc8-be72-45a8-8a4d-5b77ee0842b4 {
        fill: none;
      }

      .be98780f-6165-492c-9eac-f8d20f87aa01 {
        isolation: isolate;
      }

      .a660d81d-7839-4fad-8f02-3b1d9cbf9afb {
        opacity: 0.5;
      }

      .bbecbd9e-c5af-4ea6-8bf4-71284aa6a7fb {
        fill: url(#f46a3ebf-1bab-490d-b24c-88b8ccc17232);
      }

      .e8fb8513-5c3b-4717-9b83-1fa1fd637d18 {
        fill: #f9f4c5;
        stroke-miterlimit: 10;
        stroke-width: 6px;
        stroke: url(#ad24ea9f-0087-4643-83ce-78a9cae66574);
      }

      .b71b3c43-684e-450d-84f7-6b1f5371f3c0 {
        clip-path: url(#ab2ccdbd-20e3-41d7-8990-74a0b23f4b92);
      }

      .b89e2020-a436-4869-8321-c2a06458f8cd, .bd1093b1-e37b-46d1-b181-0a9d89b75f0e {
        fill: #2d3443;
      }

      .b89e2020-a436-4869-8321-c2a06458f8cd, .ff92e136-9592-4b14-8871-34fb1a48a83e {
        mix-blend-mode: screen;
      }

      .b89e2020-a436-4869-8321-c2a06458f8cd {
        opacity: 0.33;
      }

      .ec2b97c1-11aa-4319-af2b-bba93fae3662 {
        fill: #3b4350;
      }

      .a7c31b5d-529e-46fa-b4cc-db29182d7e98 {
        fill: #fff;
      }

      .a4296cdf-7186-496b-ab25-09a98a71c15d, .afd7b3c7-6b21-4ce3-a4a9-605c3cf82e1a, .ff92e136-9592-4b14-8871-34fb1a48a83e {
        fill: #e6e5e7;
      }

      .afd7b3c7-6b21-4ce3-a4a9-605c3cf82e1a {
        mix-blend-mode: multiply;
      }
    </style>
    <linearGradient id="f46a3ebf-1bab-490d-b24c-88b8ccc17232" x1="52.73" y1="118.79" x2="402" y2="358.11" gradientUnits="userSpaceOnUse">
      <stop offset="0" stop-color="#9b81cf"/>
      <stop offset="1" stop-color="#3b139b"/>
    </linearGradient>
    <linearGradient id="ad24ea9f-0087-4643-83ce-78a9cae66574" x1="25.67" y1="241.25" x2="437.24" y2="241.25" gradientUnits="userSpaceOnUse">
      <stop offset="0" stop-color="#4c1da9"/>
      <stop offset="1" stop-color="#997ece"/>
    </linearGradient>
    <clipPath id="ab2ccdbd-20e3-41d7-8990-74a0b23f4b92">
      <circle class="a9dd7fc8-be72-45a8-8a4d-5b77ee0842b4" cx="235.46" cy="243.57" r="209.22"/>
    </clipPath>
  </defs>
  <g class="be98780f-6165-492c-9eac-f8d20f87aa01">
    <g id="a9ab6278-bb3d-4e0a-b095-a9070e44c683" data-name="Layer 1">
      <g>
        <path class="a660d81d-7839-4fad-8f02-3b1d9cbf9afb" d="M444.68,252.5a208.28,208.28,0,0,0-25.42-100,211.66,211.66,0,0,0-187.81-114c-116.9,0-211.67,94.78-211.67,211.68s94.77,211.68,211.67,211.68c3,0,5.93-.08,8.87-.2C353.63,459.07,444.68,366.42,444.68,252.5Z"/>
        <g>
          <g>
            <circle class="bbecbd9e-c5af-4ea6-8bf4-71284aa6a7fb" cx="231.45" cy="241.25" r="211.68"/>
            <circle class="e8fb8513-5c3b-4717-9b83-1fa1fd637d18" cx="231.45" cy="241.25" r="202.78"/>
          </g>
          <g class="b71b3c43-684e-450d-84f7-6b1f5371f3c0">
            <g>
              <path class="bd1093b1-e37b-46d1-b181-0a9d89b75f0e" d="M109.64,117.26V257.09c0,7,6.32,12.68,14,12.68H344.9a14.55,14.55,0,0,0,11.53-5.44,11.78,11.78,0,0,0,2.52-7.24V117.26c0-7-6.32-12.67-14.05-12.67H123.68C116,104.59,109.64,110.3,109.64,117.26Z"/>
              <path class="b89e2020-a436-4869-8321-c2a06458f8cd" d="M182.72,104.59,356.43,264.33a11.78,11.78,0,0,0,2.52-7.24V117.26c0-7-6.32-12.67-14.05-12.67Z"/>
              <path class="ec2b97c1-11aa-4319-af2b-bba93fae3662" d="M118.88,117.26V257.1c0,1.61,2.06,3.43,4.8,3.43H344.9c2.75,0,4.8-1.82,4.8-3.43V117.26c0-1.62-2.05-3.42-4.8-3.42H123.68C120.94,113.84,118.88,115.64,118.88,117.26Z"/>
              <path class="a7c31b5d-529e-46fa-b4cc-db29182d7e98" d="M81.89,329l20.94-46.71c2.69-6,9.08-10.7,14.33-10.7H351.42c5.24,0,11.66,4.71,14.35,10.7L386.71,329c2.24,5,2.38,9.57.73,12.45a6.16,6.16,0,0,1-5.74,3.17H86.88a6.22,6.22,0,0,1-5.75-3.17C79.5,338.56,79.66,334,81.89,329Z"/>
              <path class="a7c31b5d-529e-46fa-b4cc-db29182d7e98" d="M388.53,337.46a9,9,0,0,1-1.09,4,6.16,6.16,0,0,1-5.74,3.17H86.88a6.22,6.22,0,0,1-5.75-3.17,9.12,9.12,0,0,1-1.06-4Z"/>
              <polygon class="a4296cdf-7186-496b-ab25-09a98a71c15d" points="120.74 279.9 347.85 279.9 362.01 314.28 106.58 314.28 120.74 279.9"/>
              <polygon class="a4296cdf-7186-496b-ab25-09a98a71c15d" points="208.4 316 234.29 316 260.19 316 264.46 335.04 234.29 335.04 204.13 335.04 208.4 316"/>
              <path class="bd1093b1-e37b-46d1-b181-0a9d89b75f0e" d="M234.29,341.45H387.44a6.16,6.16,0,0,1-5.74,3.17H86.88a6.22,6.22,0,0,1-5.75-3.17Z"/>
              <g>
                <g>
                  <rect class="a4296cdf-7186-496b-ab25-09a98a71c15d" x="324.88" y="266.69" width="13.14" height="10.36" transform="translate(662.9 543.74) rotate(-180)"/>
                  <rect class="ff92e136-9592-4b14-8871-34fb1a48a83e" x="324.88" y="266.69" width="13.14" height="2.38" transform="translate(662.9 535.76) rotate(-180)"/>
                  <rect class="afd7b3c7-6b21-4ce3-a4a9-605c3cf82e1a" x="324.88" y="274.67" width="13.14" height="2.38" transform="translate(662.9 551.73) rotate(-180)"/>
                </g>
                <g>
                  <rect class="a4296cdf-7186-496b-ab25-09a98a71c15d" x="130.57" y="266.69" width="13.14" height="10.36" transform="translate(274.27 543.74) rotate(-180)"/>
                  <rect class="ff92e136-9592-4b14-8871-34fb1a48a83e" x="130.57" y="266.69" width="13.14" height="2.38" transform="translate(274.27 535.76) rotate(-180)"/>
                  <rect class="afd7b3c7-6b21-4ce3-a4a9-605c3cf82e1a" x="130.57" y="274.67" width="13.14" height="2.38" transform="translate(274.27 551.73) rotate(-180)"/>
                </g>
              </g>
              <circle class="a7c31b5d-529e-46fa-b4cc-db29182d7e98" cx="234.3" cy="109.15" r="1.61"/>
              <g>
                <path class="bd1093b1-e37b-46d1-b181-0a9d89b75f0e" d="M315.77,301.82c-7.73,0-7.26-.3-6.45,2.5s0,2.62,8.5,2.62c8.17,0,7.24.19,6.4-2.46a.3.3,0,0,0,0-.1C323.14,301.5,324.26,301.84,315.77,301.82Z"/>
                <path class="bd1093b1-e37b-46d1-b181-0a9d89b75f0e" d="M309.15,289.6c8,0,7.25.34,6.39-2.28-.79-2.39,0-2.08-7.34-2.07-7.88,0-7.27-.41-6.57,2.26C302.27,290,301.94,289.54,309.15,289.6Z"/>
                <path class="bd1093b1-e37b-46d1-b181-0a9d89b75f0e" d="M323.79,295.14c8,0,7.38.35,6.34-2.39-.92-2.41-.24-2.17-7.42-2.15-8.47,0-7.62-.4-6.74,2.47C316.72,295.51,316.4,295.1,323.79,295.14Z"/>
                <path class="bd1093b1-e37b-46d1-b181-0a9d89b75f0e" d="M306.06,300.85c7.87,0,7.23.39,6.4-2.43s-.08-2.42-7.69-2.41c-8.11,0-7.52-.44-6.8,2.55C298.64,301.32,298,300.8,306.06,300.85Z"/>
                <path class="bd1093b1-e37b-46d1-b181-0a9d89b75f0e" d="M350.55,313.27c7.54,0,7.58.5,6.17-2.51s-.86-2.56-9-2.58-7.4-.31-6.25,2.42C342.79,313.69,341.36,313.23,350.55,313.27Z"/>
                <path class="bd1093b1-e37b-46d1-b181-0a9d89b75f0e" d="M306.17,290.59c-7.54.06-7.31-.47-6.59,2.33.68,2.63.46,2.21,7.28,2.21,8.79,0,7.77.38,6.88-2.51C313,290.34,313.86,290.61,306.17,290.59Z"/>
                <path class="bd1093b1-e37b-46d1-b181-0a9d89b75f0e" d="M293.14,289.6c7.83,0,7.06.34,6.34-2.23-.67-2.41.56-2.16-7.53-2.11-7,0-6.79-.43-6.19,2.19S285.32,289.57,293.14,289.6Z"/>
                <path class="bd1093b1-e37b-46d1-b181-0a9d89b75f0e" d="M244,312.87c11.07,0,22.14,0,33.22,0,2.9,0,4.06-.31,3.72-1.32a16.2,16.2,0,0,1-.53-2.78c-.1-.72-1.06-1-3.25-1q-26.9,0-53.8,0c-4.38,0-8.76,0-13.14,0-2.14,0-3.15.28-3.17,1a13.06,13.06,0,0,1-.32,2.89c-.24.91.82,1.22,3.44,1.21C221.43,312.85,232.7,312.87,244,312.87Z"/>
                <path class="bd1093b1-e37b-46d1-b181-0a9d89b75f0e" d="M134.68,301.42c-5.27,0-10.54,0-15.79,0-2.21,0-3.36.28-3.64,1.06a26.39,26.39,0,0,1-1.38,3c-.36.7.43,1,2.4,1h33.4c2.2,0,3.08-.38,3.24-1.1a15.9,15.9,0,0,1,.89-2.85c.38-.86-.47-1.21-3-1.19C145.4,301.44,140,301.41,134.68,301.42Z"/>
                <path class="bd1093b1-e37b-46d1-b181-0a9d89b75f0e" d="M339.31,301.42c-3.5,0-7,0-10.51,0-2.32,0-3.35.27-3,1.1a21.92,21.92,0,0,1,1,2.94c.22.73,1.26,1.08,3.38,1.08h22c2,0,2.8-.32,2.49-1-.49-1.09-1-2.17-1.47-3.25-.29-.61-1.37-.88-3.17-.88C346.52,301.43,342.91,301.42,339.31,301.42Z"/>
                <path class="bd1093b1-e37b-46d1-b181-0a9d89b75f0e" d="M130.46,300.44c3.7,0,7.39,0,11.08,0,1.77,0,2.85-.2,3.06-.85.34-1.06.71-2.11,1.08-3.15.21-.6-.6-.86-2.38-.86H120.69c-1.61,0-2.63.21-2.88.79-.48,1.07-1,2.15-1.47,3.24-.29.6.49.82,2.17.82C122.5,300.43,126.48,300.44,130.46,300.44Z"/>
                <path class="bd1093b1-e37b-46d1-b181-0a9d89b75f0e" d="M340.36,295.63c-2.29,0-4.58,0-6.88,0-1.87,0-2.83.23-2.58.9.4,1,.8,2.09,1.17,3.15.23.63,1.32.9,3.07.9H350c1.79,0,2.57-.3,2.28-.92-.49-1.06-.94-2.11-1.43-3.15-.28-.59-1.3-.88-3.08-.87Z"/>
                <path class="bd1093b1-e37b-46d1-b181-0a9d89b75f0e" d="M131.29,284.73h-6c-1.68,0-2.64.24-2.88.79-.39.94-.82,1.87-1.3,2.82-.29.57.5.81,2.19.81h12.88c1.59,0,2.49-.25,2.68-.77.35-1,.73-1.95,1.13-2.91.22-.51-.51-.74-2.06-.74Z"/>
                <path class="bd1093b1-e37b-46d1-b181-0a9d89b75f0e" d="M193.79,312.87c2.13,0,4.27,0,6.39,0s3.27-.21,3.28-1a21.65,21.65,0,0,1,.36-3.1c.12-.66-.52-1-2.64-1q-6.87,0-13.74,0c-1.84,0-2.89.25-3,.89-.22,1.09-.42,2.19-.64,3.3-.14.66.79.94,2.68.92C188.91,312.85,191.35,312.87,193.79,312.87Z"/>
                <path class="bd1093b1-e37b-46d1-b181-0a9d89b75f0e" d="M294.12,312.87c2.24,0,4.47,0,6.71,0,2,0,2.94-.27,2.73-1-.32-1.08-.58-2.14-.85-3.2-.16-.62-1.08-.93-3-.92h-14c-1.74,0-2.5.26-2.38.86.23,1.09.46,2.19.61,3.3.09.65.94,1,2.89.94C289.24,312.85,291.69,312.86,294.12,312.87Z"/>
                <path class="bd1093b1-e37b-46d1-b181-0a9d89b75f0e" d="M342.27,294.85c9,0,8.27.44,6.92-2.58-.91-2-.93-2-7.2-2H334.7c-1.86,0-2.64.27-2.37.88.43,1,.79,1.95,1.18,2.93.21.53,1.12.81,2.77.8Z"/>
                <path class="bd1093b1-e37b-46d1-b181-0a9d89b75f0e" d="M265.32,301.41c-7.79,0-7.21-.28-6.94,2.5s-.65,2.63,8,2.63c7.94,0,7.29.16,6.92-2.48S274,301.32,265.32,301.41Z"/>
                <path class="bd1093b1-e37b-46d1-b181-0a9d89b75f0e" d="M173.46,303.9c-.64,2.94-1.29,2.62,7.07,2.64s7.24.16,7.71-2.55c.5-2.87,1.39-2.58-7-2.57C173.72,301.43,174.13,301,173.46,303.9Z"/>
                <path class="bd1093b1-e37b-46d1-b181-0a9d89b75f0e" d="M248.52,301.41c-7.51,0-7.26-.37-7.16,2.49s-.61,2.63,7.77,2.64,7.3.19,7.07-2.55S257,301.43,248.52,301.41Z"/>
                <path class="bd1093b1-e37b-46d1-b181-0a9d89b75f0e" d="M190.42,304c-.43,2.71-1.22,2.56,7,2.56,8.39,0,7.64.25,7.94-2.67.25-2.51,1-2.5-6.89-2.43h-.29C189.91,301.35,190.94,301.26,190.42,304Z"/>
                <path class="bd1093b1-e37b-46d1-b181-0a9d89b75f0e" d="M215.05,301.41c-7.15.06-7.26-.49-7.57,2.57-.28,2.81-.8,2.55,7.36,2.55,7.33,0,7.33,0,7.45-2.58C222.42,301,222.78,301.46,215.05,301.41Z"/>
                <path class="bd1093b1-e37b-46d1-b181-0a9d89b75f0e" d="M290,303.94c-.7-2.84.55-2.51-7.8-2.52-7.23,0-7.26,0-6.81,2.48.5,2.79-.8,2.64,8.07,2.64C291.85,306.53,290.5,306.71,290,303.94Z"/>
                <path class="bd1093b1-e37b-46d1-b181-0a9d89b75f0e" d="M331.61,312.87c8.67,0,7.8.4,6.63-2.59s-.09-2.51-8.29-2.51-7.88-.44-6.85,2.59S323.36,312.82,331.61,312.87Z"/>
                <path class="bd1093b1-e37b-46d1-b181-0a9d89b75f0e" d="M201.78,292.44c-.26,2.61-1.21,2.29,6.64,2.28,8.19,0,7.36.43,7.61-2.42.21-2.43.51-2.09-6.29-2.12h-.85C201.17,290.21,202.2,289.88,201.78,292.44Z"/>
                <path class="bd1093b1-e37b-46d1-b181-0a9d89b75f0e" d="M176.72,290.18c-7.7,0-6.95-.37-7.64,2.27s-1.09,2.26,6.38,2.28c7.88,0,7.34.27,7.86-2.39C183.8,289.87,184.62,290.21,176.72,290.18Z"/>
                <path class="bd1093b1-e37b-46d1-b181-0a9d89b75f0e" d="M244.81,289.19c7.68,0,7,.32,6.76-2.16s.82-2.19-6.95-2.19-7-.38-7,2.23C237.61,289.53,237.3,289.17,244.81,289.19Z"/>
                <path class="bd1093b1-e37b-46d1-b181-0a9d89b75f0e" d="M154.71,300.45c8.26-.05,7,.4,7.87-2.5.76-2.66,1.52-2.33-6.15-2.36h-3.15c-4.29,0-4.42.05-4.94,1.55-.26.75-.44,1.5-.76,2.26s.42,1.12,2.76,1.05C151.8,300.41,153.25,300.45,154.71,300.45Z"/>
                <path class="bd1093b1-e37b-46d1-b181-0a9d89b75f0e" d="M189.07,295.61h-1.42c-5.53,0-5.65-.4-6.14,2-.13.65-.24,1.31-.39,2s.62.84,2.33.83c3.1,0,6.2,0,9.31,0,1.89,0,2.91-.27,3-1a13.26,13.26,0,0,1,.45-2.64c.27-.89-.53-1.36-3.39-1.25-1.23,0-2.48,0-3.71,0Z"/>
                <path class="bd1093b1-e37b-46d1-b181-0a9d89b75f0e" d="M136.52,292.44c-1,2.6-1.75,2.29,6.06,2.28,8.1,0,7.22.44,8.22-2.43.85-2.44,1-2.08-5.74-2.11h-.56C136.47,290.21,137.62,289.86,136.52,292.44Z"/>
                <path class="bd1093b1-e37b-46d1-b181-0a9d89b75f0e" d="M180.27,289.19c7.66,0,6.88.32,7.34-2.16s1.29-2.19-6.41-2.19-6.88-.37-7.58,2.24S172.83,289.16,180.27,289.19Z"/>
                <path class="bd1093b1-e37b-46d1-b181-0a9d89b75f0e" d="M255.42,300.45c8.2-.05,7.44.43,7.15-2.55-.25-2.63.16-2.31-7-2.3-8.68,0-7.66-.39-7.52,2.56C248.17,300.83,247.35,300.41,255.42,300.45Z"/>
                <path class="bd1093b1-e37b-46d1-b181-0a9d89b75f0e" d="M322.69,300.45c8-.05,7.46.44,6.43-2.48-1-2.74-.41-2.37-8-2.37-8.1,0-7.4-.36-6.52,2.5S314.49,300.41,322.69,300.45Z"/>
                <path class="bd1093b1-e37b-46d1-b181-0a9d89b75f0e" d="M173.84,312.87c8.54,0,7.33.37,7.92-2.54s1.63-2.56-6.85-2.55c-7.87,0-7.43-.5-8.22,2.54S165.67,312.81,173.84,312.87Z"/>
                <path class="bd1093b1-e37b-46d1-b181-0a9d89b75f0e" d="M276.1,284.83c-7.58,0-6.74-.31-6.4,2.15s-.47,2.21,7.36,2.2c7.26,0,7.14.44,6.59-2.14S283.86,284.88,276.1,284.83Z"/>
                <path class="bd1093b1-e37b-46d1-b181-0a9d89b75f0e" d="M325.67,289.19c7.28,0,7,.32,6-2.12s-.16-2.23-7.93-2.23c-7.36,0-6.95-.35-6.1,2.12S317.71,289.16,325.67,289.19Z"/>
                <path class="bd1093b1-e37b-46d1-b181-0a9d89b75f0e" d="M253.63,286.93c.24,2.62-.49,2.25,7.41,2.26,7.51,0,6.94.33,6.59-2.19s.43-2.13-7.24-2.17h-.28C253,284.87,253.47,284.5,253.63,286.93Z"/>
                <path class="bd1093b1-e37b-46d1-b181-0a9d89b75f0e" d="M196.45,289.19c7.48,0,6.89.35,7.19-2.17s.93-2.18-6.6-2.18-6.87-.36-7.34,2.16S188.72,289.16,196.45,289.19Z"/>
                <path class="bd1093b1-e37b-46d1-b181-0a9d89b75f0e" d="M283.38,292.42c.62,2.65-.53,2.31,7.6,2.3,7.53,0,7.36.46,6.64-2.31s-.23-2.19-7.55-2.23h-.28C282,290.21,283,289.88,283.38,292.42Z"/>
                <path class="bd1093b1-e37b-46d1-b181-0a9d89b75f0e" d="M274.41,294.73c7.95,0,7.34.4,6.83-2.38-.45-2.49,0-2.17-6.95-2.16-8.65,0-7.54-.38-7.22,2.47C267.34,295,266.76,294.7,274.41,294.73Z"/>
                <path class="bd1093b1-e37b-46d1-b181-0a9d89b75f0e" d="M257.94,294.73c8.1,0,7.27.35,7-2.38-.28-2.43.37-2.17-6.82-2.16-8.41,0-7.52-.43-7.38,2.48C250.82,295.13,250.57,294.69,257.94,294.73Z"/>
                <path class="bd1093b1-e37b-46d1-b181-0a9d89b75f0e" d="M241.91,294.73c7.55,0,6.81.27,6.64-2.15-.2-2.76,1-2.38-7.59-2.39-6.65,0-6.66-.38-6.62,2.16C234.39,295.23,233.87,294.67,241.91,294.73Z"/>
                <path class="bd1093b1-e37b-46d1-b181-0a9d89b75f0e" d="M192.05,294.73c8.15,0,7.22.36,7.62-2.37.36-2.48,1-2.18-6.49-2.17-8.13,0-7.22-.39-7.77,2.37S184.74,294.67,192.05,294.73Z"/>
                <path class="bd1093b1-e37b-46d1-b181-0a9d89b75f0e" d="M307.06,303.89c-.85-2.75.35-2.47-7.83-2.47-8.37,0-7.33-.27-6.71,2.53s-.68,2.59,7.72,2.59C309.06,306.53,307.73,306.78,307.06,303.89Z"/>
                <path class="bd1093b1-e37b-46d1-b181-0a9d89b75f0e" d="M119.41,292.46c-1.11,2.57-2,2.27,5.94,2.26s7.19.46,8.34-2.35c1.06-2.57,1.08-2.15-5.94-2.19h-.28C119.46,290.21,120.69,289.89,119.41,292.46Z"/>
                <path class="bd1093b1-e37b-46d1-b181-0a9d89b75f0e" d="M238.75,300.45c8,0,7.27.4,7.15-2.4s.64-2.45-7.55-2.45c-7.45,0-7-.37-7,2.31C231.33,300.89,230.51,300.4,238.75,300.45Z"/>
                <path class="bd1093b1-e37b-46d1-b181-0a9d89b75f0e" d="M171.5,300.45c8.08-.05,7.17.42,7.8-2.49.59-2.71,1.17-2.36-6.61-2.36s-7.2-.4-7.94,2.4S163.4,300.4,171.5,300.45Z"/>
                <path class="bd1093b1-e37b-46d1-b181-0a9d89b75f0e" d="M239.12,304c-.17-2.86,1.12-2.54-7.56-2.55-7.88,0-6.92-.21-7,2.35-.07,3.06-1.57,2.75,8,2.77C240.44,306.55,239,306.62,239.12,304Z"/>
                <path class="bd1093b1-e37b-46d1-b181-0a9d89b75f0e" d="M156.6,304c-.7,2.77-2,2.55,6.79,2.56,8.36,0,7.13.13,7.74-2.48.69-2.94,1.9-2.64-6.9-2.64C156.24,301.41,157.54,301.18,156.6,304Z"/>
                <path class="bd1093b1-e37b-46d1-b181-0a9d89b75f0e" d="M313.81,312.87c8.8,0,7.78.37,6.83-2.66-.87-2.79-.16-2.45-8-2.43-8.27,0-7.89-.53-7,2.66C306.23,312.85,306.24,312.85,313.81,312.87Z"/>
                <path class="bd1093b1-e37b-46d1-b181-0a9d89b75f0e" d="M271.29,295.6c-7.76,0-6.75-.31-6.53,2.33,0,.27.05.53.09.79.28,1.89-.48,1.62,5.53,1.82,2.1.07,4.23-.05,6.35-.06,1.89,0,2.81-.25,2.62-1a17.18,17.18,0,0,1-.54-3c-.07-.67-1.05-.92-2.94-.9C274.35,295.61,272.82,295.6,271.29,295.6Z"/>
                <path class="bd1093b1-e37b-46d1-b181-0a9d89b75f0e" d="M149.16,284.83c-7.43,0-6.44-.27-7.36,2.12s-1.74,2.24,6.13,2.24,6.68.34,7.56-2.17C156.25,284.83,156.22,284.83,149.16,284.83Z"/>
                <path class="bd1093b1-e37b-46d1-b181-0a9d89b75f0e" d="M214.87,298.09c-.1,2.72-1.2,2.33,6.85,2.35,7.41,0,7.44,0,7.46-2.52s.88-2.32-6.88-2.32C213.92,295.6,215.19,295.24,214.87,298.09Z"/>
                <path class="bd1093b1-e37b-46d1-b181-0a9d89b75f0e" d="M198.14,298.09c0,2.65-1.72,2.34,6.44,2.34,8.93,0,7.57.44,7.87-2.51.27-2.65,1-2.32-6.7-2.32C197.47,295.61,198.64,295.22,198.14,298.09Z"/>
                <path class="bd1093b1-e37b-46d1-b181-0a9d89b75f0e" d="M221.78,287c-.06,2.54-1,2.21,6.94,2.21,7.71,0,6.78.34,6.76-2.19s1-2.16-6.9-2.16C221,284.84,222,284.53,221.78,287Z"/>
                <path class="bd1093b1-e37b-46d1-b181-0a9d89b75f0e" d="M218.13,292.47c-.09,2.58-1.07,2.26,6.83,2.25,8.27,0,7.16.36,7.21-2.36.05-2.46.88-2.15-6.67-2.18h-.28C217.29,290.21,218.39,289.87,218.13,292.47Z"/>
                <path class="bd1093b1-e37b-46d1-b181-0a9d89b75f0e" d="M152.89,292.44c-.77,2.64-1.74,2.28,6.46,2.28,7.92,0,6.82.34,7.56-2.28s1.33-2.24-6.47-2.25S153.82,289.88,152.89,292.44Z"/>
                <path class="bd1093b1-e37b-46d1-b181-0a9d89b75f0e" d="M205.73,287c-.24,2.54-1,2.21,6.83,2.21,7.66,0,6.67.32,6.87-2.11.18-2.25.14-2.26-6.74-2.24C205.12,284.85,206.1,284.53,205.73,287Z"/>
                <path class="bd1093b1-e37b-46d1-b181-0a9d89b75f0e" d="M281.51,298.07c.64,2.75-.7,2.35,7.33,2.37,7.49,0,7.51,0,6.87-2.59s.26-2.25-7.08-2.26h-.28C281.06,295.6,281.06,295.6,281.51,298.07Z"/>
                <path class="bd1093b1-e37b-46d1-b181-0a9d89b75f0e" d="M165.06,284.83c-7.45,0-6.47-.27-7.21,2.1-.8,2.58-1.7,2.25,6.45,2.26,7.64,0,6.64.19,7.23-2.16C172.17,284.49,173.16,284.87,165.06,284.83Z"/>
                <path class="bd1093b1-e37b-46d1-b181-0a9d89b75f0e" d="M334.39,287c1.06,2.57.41,2.19,8,2.21,5.65,0,5.65,0,4.81-1.79-.29-.62-.6-1.23-.92-1.84s-1.11-.74-2.72-.73c-2.28,0-4.57,0-6.87,0s-3.22.28-2.78,1A6.93,6.93,0,0,1,334.39,287Z"/>
                <path class="bd1093b1-e37b-46d1-b181-0a9d89b75f0e" d="M145.94,283.74h2.74c4,0,5.37-.49,4.63-1.85a3.35,3.35,0,0,0-1.89-.55c-3.06-.06-6.16,0-9.24,0-2.33,0-2.42.61-2.57,1.14s-.92,1.24,1.66,1.27c1.55,0,3.11,0,4.67,0Z"/>
                <path class="bd1093b1-e37b-46d1-b181-0a9d89b75f0e" d="M322.14,283.74h3.3c3.35,0,3.4-.09,3.14-1.25-.21-.92-1.38-1.24-3.93-1.19s-5.08,0-7.63,0-2.43.58-2.23,1.21.29,1.26,2.95,1.22C319.2,283.72,320.67,283.74,322.14,283.74Z"/>
                <path class="bd1093b1-e37b-46d1-b181-0a9d89b75f0e" d="M258,283.74h3c3.72,0,4-.14,3.8-1.41-.11-.7-.85-1.05-3-1-2.8,0-5.61,0-8.42,0-2.66,0-2.31.66-2.31,1.26s.06,1.19,2.53,1.16c1.46,0,2.92,0,4.39,0Z"/>
                <path class="bd1093b1-e37b-46d1-b181-0a9d89b75f0e" d="M290,283.74h3c3.68,0,5.06-.79,3.32-1.95a5.68,5.68,0,0,0-2.17-.45c-3,0-6,0-9,0-2.67,0-2.29.65-2.17,1.26s.12,1.26,2.88,1.15c1.34-.06,2.74,0,4.11,0Z"/>
                <path class="bd1093b1-e37b-46d1-b181-0a9d89b75f0e" d="M194,283.74h3.3c3.38,0,3.42-.07,3.73-1.25.24-.91-.69-1.25-3.31-1.19-2.45.06-4.91.05-7.35,0-2.66,0-3,.52-3.11,1.22s-.22,1.32,2.62,1.23c1.37,0,2.75,0,4.12,0Z"/>
                <path class="bd1093b1-e37b-46d1-b181-0a9d89b75f0e" d="M162,283.74h2.75c4.07,0,5.1-.39,4.49-1.79a2.8,2.8,0,0,0-1.77-.6c-3.15-.07-6.34-.05-9.52,0-2.52,0-2.31.71-2.5,1.25s-.48,1.15,1.87,1.15H162Z"/>
                <path class="bd1093b1-e37b-46d1-b181-0a9d89b75f0e" d="M177.9,283.74h3c3.86,0,4-.07,4.24-1.39.16-.78-.64-1.08-2.87-1.05-2.72,0-5.44,0-8.16,0s-2.59.66-2.76,1.25-.39,1.21,2.14,1.18c1.46,0,2.92,0,4.39,0Z"/>
                <path class="bd1093b1-e37b-46d1-b181-0a9d89b75f0e" d="M274.11,283.74h3c3.6,0,3.83-.11,3.68-1.34-.1-.75-1-1.11-3.22-1.08-2.7,0-5.41,0-8.12,0s-2.52.57-2.44,1.21.09,1.25,2.72,1.22c1.46,0,2.92,0,4.38,0Z"/>
                <path class="bd1093b1-e37b-46d1-b181-0a9d89b75f0e" d="M339,283.74h2.75c3.65,0,4.88-.77,3-1.94a6.14,6.14,0,0,0-2.22-.46c-3.09,0-6.17,0-9.23,0-2.71,0-1.79.76-1.68,1.33s.5,1.1,2.76,1.08c1.55,0,3.11,0,4.66,0Z"/>
                <path class="bd1093b1-e37b-46d1-b181-0a9d89b75f0e" d="M242.19,283.74h2.74c3.68,0,5.15-.76,3.67-1.94a4.8,4.8,0,0,0-2-.46c-3.07,0-6.15,0-9.23,0-2.7,0-2.08.76-2.17,1.32s.1,1.11,2.37,1.09c1.55,0,3.11,0,4.66,0Z"/>
                <path class="bd1093b1-e37b-46d1-b181-0a9d89b75f0e" d="M306.11,283.74h3.29c3.34,0,3.44-.1,3.24-1.24-.15-.91-1.23-1.26-3.82-1.2s-5.05,0-7.59,0-2.46.58-2.31,1.2.13,1.27,2.82,1.23C303.19,283.72,304.65,283.74,306.11,283.74Z"/>
                <path class="bd1093b1-e37b-46d1-b181-0a9d89b75f0e" d="M129.89,283.74h3c3.44,0,5.45-.94,4.24-2a3.76,3.76,0,0,0-1.76-.4c-3,0-6.13,0-9.22,0-2.71,0-2.45.74-2.76,1.31s-.49,1.12,1.83,1.11h4.66Z"/>
                <path class="bd1093b1-e37b-46d1-b181-0a9d89b75f0e" d="M136.07,310.15c1.2,0,2.41,0,3.6,0,2.35,0,4.06-.12,4.44-1.16s-.93-1.28-3.58-1.25-5.55,0-8.32,0c-2.26,0-3,.46-3.25,1.13s-.19,1.24,2.32,1.24h4.79Z"/>
                <path class="bd1093b1-e37b-46d1-b181-0a9d89b75f0e" d="M210.12,283.74h2.74c3.92,0,4-.08,4.09-1.47,0-.66-.59-1-2.62-1-2.8,0-5.6,0-8.39,0s-2.52.62-2.61,1.23-.24,1.25,2.42,1.2c1.46,0,2.92,0,4.37,0Z"/>
                <path class="bd1093b1-e37b-46d1-b181-0a9d89b75f0e" d="M226,283.74h2.48c4.12,0,5.34-.55,4.13-1.92a4,4,0,0,0-1.92-.48c-3.08,0-6.17,0-9.26,0-2.55,0-2.09.71-2.16,1.25s-.34,1.15,2.06,1.15H226Z"/>
                <path class="bd1093b1-e37b-46d1-b181-0a9d89b75f0e" d="M135.15,312.86h3.66c3.77,0,4.92-.4,4.47-1.65-.1-.28-1.1-.67-1.86-.68-3.48-.08-7-.07-10.56,0-2.5,0-2.62.69-2.89,1.29s-.14,1.06,2,1.06h5.18Z"/>
                <path class="bd1093b1-e37b-46d1-b181-0a9d89b75f0e" d="M118.31,312.86c1.32,0,2.66,0,4,0,2.41.07,3.91-.17,4.33-1.13s-.59-1.3-3.3-1.26-5.64,0-8.45,0-3.21.57-3.58,1.3.19,1.12,2.49,1.08C115.28,312.83,116.79,312.86,118.31,312.86Z"/>
                <path class="bd1093b1-e37b-46d1-b181-0a9d89b75f0e" d="M153.33,312.86h3.34c3.77,0,4.59-.26,4.27-1.54-.08-.32-1.27-.77-2.13-.79-3.26-.1-6.59,0-9.9,0-2.66,0-2.8.65-3,1.3s.09,1.09,2.32,1.07c1.72,0,3.43,0,5.15,0Z"/>
              </g>
            </g>
          </g>
        </g>
      </g>
    </g>
  </g>
</svg>
