<svg xmlns="http://www.w3.org/2000/svg" xmlns:xlink="http://www.w3.org/1999/xlink" width="250.26" height="250.26" viewBox="0 0 250.26 250.26">
  <defs>
    <style>
      .aee945cc-6ca1-477c-bb19-70714b042ae0, .b949f526-1a7d-4016-b01f-4d71811e7a2f, .ba6c8e44-d39b-4d8a-9b35-f48ec5290f72, .ba739683-f09e-43cf-a7fa-672911634f00, .ec0c05df-bbc9-4944-9eb7-e8bc00f8e06c {
        fill: none;
      }

      .b1dc29b1-a65b-4b21-a45c-a4e95625b165 {
        isolation: isolate;
      }

      .b633db4f-e61d-4c9b-b3d2-9c4f1fbf8b91 {
        clip-path: url(#e2975545-d327-496e-aac5-8890dfb6c7d7);
      }

      .a71b9d1d-449f-4298-8605-6c23a770519a {
        fill: #c5db7f;
      }

      .ad569899-9be6-4ca5-beae-fccecff51b12 {
        fill: #fffdfe;
        stroke: #878787;
        stroke-width: 9px;
        mix-blend-mode: multiply;
        opacity: 0.6;
      }

      .a1a069a6-7cec-4349-b5f9-8a81b0a330f4, .a5065ae0-10f9-448d-b20d-2d15390926dc, .a60769d8-603b-4ba5-87e2-e54c4d244230, .aa3dc07b-e9e0-41fa-8a98-b1601f62d101, .ab4289a2-8e79-4368-a847-ff1e2e160bad, .ad569899-9be6-4ca5-beae-fccecff51b12, .ae22efd0-781c-4312-abe0-d656b3d9b00b, .b5b02806-6276-486c-ac42-96db5bb90d6e, .b949f526-1a7d-4016-b01f-4d71811e7a2f, .ba6c8e44-d39b-4d8a-9b35-f48ec5290f72, .ba739683-f09e-43cf-a7fa-672911634f00, .bbabcba1-9257-484d-8417-6d1202b630d3, .e17f8fcd-7cfa-4d76-b34b-bff2de3958d0, .e679eb56-8cbf-4ae8-8eb1-e29f49b14624, .ea5f85da-8054-461f-921f-d43a00ded25b, .ec0c05df-bbc9-4944-9eb7-e8bc00f8e06c, .ec960f33-5db9-469b-af04-e9e54b10c243, .fbe3f5d4-1e83-4b35-bd38-002643367bc8 {
        stroke-miterlimit: 10;
      }

      .bf92a806-8c75-49e3-8b93-d297f8269d70 {
        fill: #cff6ff;
      }

      .bc23efa6-281f-48a1-bfcb-e61eef08c958 {
        clip-path: url(#b648c387-7a7e-4b7a-b7df-9e5161d4d95b);
      }

      .ec493284-8dc9-4db8-9ea8-7508f7077dcb {
        fill: #4c2d12;
      }

      .ea5f85da-8054-461f-921f-d43a00ded25b {
        fill: #d8a576;
      }

      .a5065ae0-10f9-448d-b20d-2d15390926dc, .ea5f85da-8054-461f-921f-d43a00ded25b {
        stroke: #8c5f3a;
      }

      .a1a069a6-7cec-4349-b5f9-8a81b0a330f4, .a5065ae0-10f9-448d-b20d-2d15390926dc, .a60769d8-603b-4ba5-87e2-e54c4d244230, .aa3dc07b-e9e0-41fa-8a98-b1601f62d101, .ab4289a2-8e79-4368-a847-ff1e2e160bad, .ae22efd0-781c-4312-abe0-d656b3d9b00b, .b949f526-1a7d-4016-b01f-4d71811e7a2f, .bbabcba1-9257-484d-8417-6d1202b630d3, .e17f8fcd-7cfa-4d76-b34b-bff2de3958d0, .e679eb56-8cbf-4ae8-8eb1-e29f49b14624, .ea5f85da-8054-461f-921f-d43a00ded25b, .ec0c05df-bbc9-4944-9eb7-e8bc00f8e06c, .ec960f33-5db9-469b-af04-e9e54b10c243, .fbe3f5d4-1e83-4b35-bd38-002643367bc8 {
        stroke-width: 0.5px;
      }

      .b75faab4-7a05-4024-8b7d-1c592130abc0 {
        fill: #b88556;
      }

      .e679eb56-8cbf-4ae8-8eb1-e29f49b14624 {
        fill: #6f361b;
        stroke: #492212;
      }

      .ea616f8f-6c7f-49b8-ad6b-f9065cfad1ed {
        fill: #5c2c15;
      }

      .bbabcba1-9257-484d-8417-6d1202b630d3 {
        fill: #b78552;
      }

      .bbabcba1-9257-484d-8417-6d1202b630d3, .ec0c05df-bbc9-4944-9eb7-e8bc00f8e06c {
        stroke: #8e613c;
      }

      .eb7ee5c2-f9d5-461a-99d6-bbdb24d7494d {
        fill: #d7a777;
      }

      .ab4289a2-8e79-4368-a847-ff1e2e160bad {
        fill: #eacbac;
        stroke: #aa754d;
      }

      .fdf8e448-eeee-4a3c-9a54-af1ce06972f4 {
        fill: #fbe9dd;
      }

      .af50ca00-fd8a-4821-81d4-e26397ec243c {
        fill: #eed1af;
      }

      .ba739683-f09e-43cf-a7fa-672911634f00 {
        stroke: #d8a982;
      }

      .e17f8fcd-7cfa-4d76-b34b-bff2de3958d0 {
        fill: #823d1e;
        stroke: #542513;
      }

      .ae22efd0-781c-4312-abe0-d656b3d9b00b {
        fill: #843f21;
        stroke: #492012;
      }

      .e82bea6d-50bb-4942-80b6-53d9c00d2d01 {
        opacity: 0.69;
      }

      .e00814e3-161b-4dfc-a2f7-49bdc249e1b0 {
        fill: #441e0e;
      }

      .b949f526-1a7d-4016-b01f-4d71811e7a2f {
        stroke: #310600;
      }

      .f95d6b89-6235-4566-9102-696cc78fc0bd {
        fill: #e2b78d;
      }

      .efe0e8ae-46b5-40b0-b26e-2ae35ca53a23 {
        fill: #572912;
        opacity: 0.72;
      }

      .aa3dc07b-e9e0-41fa-8a98-b1601f62d101 {
        fill: #844123;
        stroke: #421c0d;
      }

      .e7bf7fe0-7ca6-4cea-8862-b2ae20276196 {
        fill: #ce8261;
        opacity: 0.33;
      }

      .ae0fb9d8-110c-4dd1-92dc-b429258fa841 {
        fill: #6d321b;
      }

      .e4752e24-c079-4578-adda-a840130980fd, .fbe3f5d4-1e83-4b35-bd38-002643367bc8 {
        fill: #fdecdc;
      }

      .ba6c8e44-d39b-4d8a-9b35-f48ec5290f72 {
        stroke: #a4693f;
      }

      .a5f31205-48bd-4dea-8d02-41e1a9628b44 {
        fill: #fffcf9;
      }

      .b9bb1864-365f-44ca-9431-e5d94e572583 {
        fill: #e8caa8;
      }

      .ec960f33-5db9-469b-af04-e9e54b10c243 {
        fill: #7f3f0f;
        stroke: #3f290f;
      }

      .b05885fc-3b3e-434e-b7ab-6c2b60cccdad {
        fill: #ffe23e;
      }

      .aee9ba15-2871-47db-9c80-d38bf5fa051c {
        fill: #e8b121;
      }

      .b5b02806-6276-486c-ac42-96db5bb90d6e {
        fill: #22130e;
        stroke: #f48d11;
      }

      .f72b0311-d726-4c2d-b4b8-16c3a80110a6 {
        fill: #fff;
      }

      .b98dcf1c-39af-4df2-bc2c-9ac20dbeaa0b {
        fill: #796a65;
      }

      .a1a069a6-7cec-4349-b5f9-8a81b0a330f4 {
        fill: #f0a532;
        stroke: #d68922;
      }

      .b4143b4e-ab20-4bdf-82bf-32d84a0e2244 {
        fill: #fac52b;
      }

      .a60769d8-603b-4ba5-87e2-e54c4d244230 {
        fill: #d19e6f;
        stroke: #91613a;
      }

      .f1a71167-1f75-4fb4-9e0d-f4e3f1139543 {
        fill: #bc895a;
      }

      .fbe3f5d4-1e83-4b35-bd38-002643367bc8 {
        stroke: #9e6c44;
      }

      .ab1796b3-6d77-4161-81e5-c9f1f0fcb562 {
        fill: #e9caae;
      }

      .a5065ae0-10f9-448d-b20d-2d15390926dc {
        fill: #d9a677;
      }
    </style>
    <clipPath id="e2975545-d327-496e-aac5-8890dfb6c7d7">
      <circle class="aee945cc-6ca1-477c-bb19-70714b042ae0" cx="305" cy="-355.5" r="286.49"/>
    </clipPath>
    <clipPath id="b648c387-7a7e-4b7a-b7df-9e5161d4d95b">
      <circle class="aee945cc-6ca1-477c-bb19-70714b042ae0" cx="124.85" cy="125.71" r="114.82"/>
    </clipPath>
  </defs>
  <g class="b1dc29b1-a65b-4b21-a45c-a4e95625b165">
    <g id="a21cc936-4910-429b-9733-adfb10b4eb5d" data-name="Layer 1">
      <g class="b633db4f-e61d-4c9b-b3d2-9c4f1fbf8b91">
        <path class="a71b9d1d-449f-4298-8605-6c23a770519a" d="M82.55,11S499.27-309.24-119.57-287"/>
      </g>
      <g>
        <g>
          <circle class="ad569899-9be6-4ca5-beae-fccecff51b12" cx="125.13" cy="125.13" r="116.99"/>
          <circle class="bf92a806-8c75-49e3-8b93-d297f8269d70" cx="124.85" cy="125.71" r="114.82"/>
        </g>
        <g class="bc23efa6-281f-48a1-bfcb-e61eef08c958">
          <path class="ec493284-8dc9-4db8-9ea8-7508f7077dcb" d="M65.11,223.45c.21-.29,62.55-19.49,116,2.84l13.48-7.76s-45.71-38-143-3.53Z"/>
          <g id="a8e15466-f404-485a-8406-b3b2e5c8f379" data-name="12">
            <g>
              <g>
                <g>
                  <g>
                    <path class="ea5f85da-8054-461f-921f-d43a00ded25b" d="M164.88,82a13.4,13.4,0,0,0,5.44-10.26s-.87,2.3-2.72,2.49c0,0,1.75-.15,2.72-7.89,0,0,1.08-3.79,3.42-5,0,0-1-.63-3.53,1.41a16.27,16.27,0,0,1,5.79-8.1l-9.29.48-11.45,12,.23,4.8S163,77.75,164.88,82Z"/>
                    <path class="b75faab4-7a05-4024-8b7d-1c592130abc0" d="M160.45,76.44s5.52-2.36,8-12.18l-1.89,2S168.7,56.67,175,54.8l-8.59.8-7.73,8.66-1.94,8.56Z"/>
                  </g>
                  <g>
                    <path class="e679eb56-8cbf-4ae8-8eb1-e29f49b14624" d="M146.29,66.26s3-7.09,10.4-8.43c0,0-2.16,1.79-2.49,3.52,0,0,9.59-10.49,22.48-6.87,0,0-10.12,1.06-16.23,9.66,0,0,2.73-.9,3.68,0,0,0-3.55,1.14-4.39,4,0,0,1.77-1.1,2.83-.45,0,0-3.74,3.07-3.52,7C159.05,74.79,150.87,67.93,146.29,66.26Z"/>
                    <path class="ea616f8f-6c7f-49b8-ad6b-f9065cfad1ed" d="M148.84,67.82s.45-4.47,3.68-4.86v3.8S158.83,55.21,175,54.48c0,0-13.5,5.08-14.5,9.66,0,0,3.23-.73,3.68,0,0,0-3.81,1.23-4.39,4,0,0,2.16-.84,2.83-.45,0,0-4,3.07-3.52,7C159.05,74.79,151.8,68.43,148.84,67.82Z"/>
                  </g>
                </g>
                <g>
                  <g>
                    <path class="ea5f85da-8054-461f-921f-d43a00ded25b" d="M84.81,82.38a13.4,13.4,0,0,1-5.44-10.26s.87,2.3,2.72,2.49c0,0-1.76-.15-2.72-7.89,0,0-1.08-3.79-3.42-5,0,0,1-.63,3.53,1.42A16.23,16.23,0,0,0,73.69,55l9.29.47,11.45,12L94.2,72.3S86.64,78.18,84.81,82.38Z"/>
                    <path class="b75faab4-7a05-4024-8b7d-1c592130abc0" d="M89.24,76.87s-5.52-2.35-8-12.18l1.9,2S81,57.1,74.74,55.23l8.59.8,7.73,8.66L93,73.25Z"/>
                  </g>
                  <g>
                    <path class="e679eb56-8cbf-4ae8-8eb1-e29f49b14624" d="M103.4,66.69s-3-7.09-10.4-8.43c0,0,2.16,1.79,2.49,3.52,0,0-9.59-10.49-22.48-6.86,0,0,10.11,1.06,16.23,9.65,0,0-2.73-.9-3.68.05,0,0,3.54,1.14,4.39,4,0,0-1.77-1.1-2.83-.45,0,0,3.74,3.07,3.52,7C90.64,75.22,98.82,68.36,103.4,66.69Z"/>
                    <path class="ea616f8f-6c7f-49b8-ad6b-f9065cfad1ed" d="M100.85,68.25s-.45-4.46-3.68-4.85v3.79S90.86,55.64,74.74,54.92c0,0,13.5,5.07,14.5,9.65,0,0-3.23-.73-3.68.05,0,0,3.8,1.23,4.39,4,0,0-2.16-.84-2.83-.45,0,0,4,3.07,3.52,7C90.64,75.22,97.89,68.86,100.85,68.25Z"/>
                  </g>
                </g>
              </g>
              <g>
                <g>
                  <path class="bbabcba1-9257-484d-8417-6d1202b630d3" d="M96.27,196.12l23.42,4s.37,2.3,10.7,2l22.23-4.24L160,153.78l-10.49-16.51L93.74,140,83.4,149.91Z"/>
                  <path class="ec0c05df-bbc9-4944-9eb7-e8bc00f8e06c" d="M129.13,202.2s-6.9,1.11-5.12-5.14"/>
                </g>
                <path class="eb7ee5c2-f9d5-461a-99d6-bbdb24d7494d" d="M99.86,148.51s3.24,5.23,6.3,5c0,0-.75-1.59-.56-2.18,0,0,3,6.79,8.6,7.19a4.46,4.46,0,0,1-1.46-2.94,13.47,13.47,0,0,0,5.58,4.17s5.47,1.66,5.58,4.24c0,0,1.29-1-.43-3.22,0,0,2.27.75,1.72,4.56,0,0,4.46-.72,7.42-6.07,0,0,.89.36-.56,2.33,0,0,3.07.23,6.19-5.29a2.88,2.88,0,0,1-.33,2.06s4-3.15,4.4-5.42a5.67,5.67,0,0,1-.72,3s4.85-5.86,7.42,2.42c0,0,5.21,17.89-5.36,28.53,0,0-5.43,6.47-17-.75,0,0-2.28-2.08-6,.3,0,0-12.73,8.11-20.78-9.6C99.86,176.83,94.52,165.12,99.86,148.51Z"/>
              </g>
              <g>
                <path class="ab4289a2-8e79-4368-a847-ff1e2e160bad" d="M122.08,116l-25.8,13s-.44,15.73,4.3,18.41a14.24,14.24,0,0,1-.72-3.94s-.09,3.91,5.94,7.17a4.05,4.05,0,0,1,.11-3.82s-.61,6,7.84,8.62a4.49,4.49,0,0,1-1.14-4.37s.6,3.78,6.5,6.12c0,0,4.12,1.41,4.87,3.38,0,0,.07-3.41-2.64-4.53,0,0,3.9.4,4.09,5.63,0,0,.18.21.85-.46,0,0,2.35.89,4.76-2.94,0,0,1.68-3.59,2.31-3.69a3.51,3.51,0,0,1-.67,3.69,5.74,5.74,0,0,0,3.72-3.24s1.71-2.06,2.34-1.74l-.55,1.41s2.9-1.12,4.5-6.1a5,5,0,0,1-.67,3.57s4.46-2.75,5.24-7.16a7.72,7.72,0,0,1,0,3s2.45-1.14,3.4-8.23l-3.29-12.37Z"/>
                <g>
                  <path class="fdf8e448-eeee-4a3c-9a54-af1ce06972f4" d="M122.86,124.77s1.45,5.07,3.87,0c0,0,5.1,7.43,16.18,8.21,0,0,7.22,4-2.68,14.73l2.24-.17a33.33,33.33,0,0,1-7.52,3.93s-4.76,2.17-4.84,5l-.07-2.52s-1.82.06-3.24,3a9,9,0,0,0-5.23-6.06,4.87,4.87,0,0,1,1.33,3.17,17.42,17.42,0,0,0-7.87-3.36,27.42,27.42,0,0,1-7.81-3.62H109s-8.79-3-5.08-13.77A26.81,26.81,0,0,0,122.86,124.77Z"/>
                  <g>
                    <g>
                      <path class="af50ca00-fd8a-4821-81d4-e26397ec243c" d="M104,136.69a11,11,0,0,0,3.36,6.63s2.87,5.33,6.14,5.77c0,0-4.76-4.36-5.15-7.42C108.34,141.67,105.57,141.52,104,136.69Z"/>
                      <path class="af50ca00-fd8a-4821-81d4-e26397ec243c" d="M120.64,144.36a5.21,5.21,0,0,1-.66-2.42s-1.09.09-2.39-4.8C117.59,137.14,117.79,143.11,120.64,144.36Z"/>
                      <path class="af50ca00-fd8a-4821-81d4-e26397ec243c" d="M127.56,149.09s.28,3.53-.62,4.28a4.66,4.66,0,0,0,3.05-4.86s3-3.2.55-9.34c0,0,.2,7.12-1.11,8.32l-.2,0a10.65,10.65,0,0,1-1.3,4.47Z"/>
                      <path class="af50ca00-fd8a-4821-81d4-e26397ec243c" d="M139.87,144.36s.32,1.57-.4,2.1A12.6,12.6,0,0,0,143.65,136S142.59,142.27,139.87,144.36Z"/>
                    </g>
                    <g>
                      <path class="ba739683-f09e-43cf-a7fa-672911634f00" d="M117.43,136.5s1,4.52,2.61,5.77c0,0-1.1-5.7.6-10.26"/>
                      <path class="ba739683-f09e-43cf-a7fa-672911634f00" d="M104,135.58s.39,4.95,4.35,6.09"/>
                      <path class="ba739683-f09e-43cf-a7fa-672911634f00" d="M107.17,136.5s.61,7.66,4.74,10.6c0,0-2-1.86-1.17-6.23"/>
                      <path class="ba739683-f09e-43cf-a7fa-672911634f00" d="M126.69,143.76a47.87,47.87,0,0,1,1.31,8s1.37-2,1.15-6.81"/>
                      <path class="ba739683-f09e-43cf-a7fa-672911634f00" d="M130.43,138.79s.61,6.41-1,8.59"/>
                      <path class="ba739683-f09e-43cf-a7fa-672911634f00" d="M140.25,139.17s1.12,3.74-1.28,6c0,0,4-2.68,4.68-10.39"/>
                    </g>
                  </g>
                </g>
              </g>
              <g>
                <g>
                  <g>
                    <g>
                      <path class="e17f8fcd-7cfa-4d76-b34b-bff2de3958d0" d="M71.07,150.53S67.92,171.11,76.22,186c0,0,3.78,9.56,7.49,5.9L78.6,173.21Z"/>
                      <path class="ea616f8f-6c7f-49b8-ad6b-f9065cfad1ed" d="M74.17,168.45s-.75,9,8,24.25a1.36,1.36,0,0,0,1.54-1.09l-8.17-22.05Z"/>
                    </g>
                    <g>
                      <path class="e17f8fcd-7cfa-4d76-b34b-bff2de3958d0" d="M75.88,169.36S75.43,184,89.2,198.78c0,0,3.76,3.27,4.3-1L83,167Z"/>
                      <path class="ea616f8f-6c7f-49b8-ad6b-f9065cfad1ed" d="M93.5,198.7s-1.15,2.35-3.45.23c0,0-9.1-17.69-8.27-28.65l2.73,1.34S89.81,189.67,93.5,198.7Z"/>
                    </g>
                    <g>
                      <path class="e17f8fcd-7cfa-4d76-b34b-bff2de3958d0" d="M84.17,166.76s-.32,16.63,7.19,28.08c0,0,6.16,12.26,10.14,7.54l-1.06-5.77s-4.84-9.28-6.36-33.79l-8.73-1.24Z"/>
                      <path class="ea616f8f-6c7f-49b8-ad6b-f9065cfad1ed" d="M90.05,165.63s1.12,24.05,10.81,36.22l.64-2.55-1.22-3s-3.64-7.92-6.21-33l-2.95-1.79Z"/>
                    </g>
                  </g>
                  <g>
                    <path class="ae22efd0-781c-4312-abe0-d656b3d9b00b" d="M85.8,123.8s-9.31,4.94-8.2,12.42c0,0-4.62,2.17-4.1,8.7,0,0-5.56,5.64-.57,13.14,0,0-2.37,4.16.57,10.14a4.23,4.23,0,0,0,5.1,2.27s1.79-1.39,1.7-3.06c0,0,.64,5,4.47,5.07,0,0,3.34.26,4.26-5.24,0,0,3.89.83,5.21-5.58a13.51,13.51,0,0,0,0-6.09s3.42-1,3.25-9.18c0,0,2.2-1.85,2.2-7.09,0,0,2.68-4.9,1.52-9.89Z"/>
                    <g class="e82bea6d-50bb-4942-80b6-53d9c00d2d01">
                      <g>
                        <path class="e00814e3-161b-4dfc-a2f7-49bdc249e1b0" d="M77.48,134.28s.11,5.28,3.91,2.09C81.39,136.37,76.81,142.09,77.48,134.28Z"/>
                        <path class="e00814e3-161b-4dfc-a2f7-49bdc249e1b0" d="M81.39,133.17s1.78,4.13,4.94.52C86.33,133.69,82.58,139.34,81.39,133.17Z"/>
                        <path class="e00814e3-161b-4dfc-a2f7-49bdc249e1b0" d="M86.52,133.86s1,1,2.55-.39C89.07,133.47,87,136.2,86.52,133.86Z"/>
                        <path class="e00814e3-161b-4dfc-a2f7-49bdc249e1b0" d="M84.73,137.43s1.82,2.87,4.86-.7C89.59,136.73,86.71,142.14,84.73,137.43Z"/>
                        <path class="e00814e3-161b-4dfc-a2f7-49bdc249e1b0" d="M92.8,137.68a2.07,2.07,0,0,0,3.48.86S93.35,141.83,92.8,137.68Z"/>
                        <path class="e00814e3-161b-4dfc-a2f7-49bdc249e1b0" d="M94.89,141.25s2.4,1.45,4.46-1.62C99.35,139.63,98.29,143.87,94.89,141.25Z"/>
                        <path class="e00814e3-161b-4dfc-a2f7-49bdc249e1b0" d="M87.16,141.14s2.59,5.44,7.14.41C94.3,141.55,89.53,149.59,87.16,141.14Z"/>
                        <path class="e00814e3-161b-4dfc-a2f7-49bdc249e1b0" d="M90.73,146.86s3.54,3.51,7.11-1.65l1-1.45s-.89,4.29-4.49,5.58C94.3,149.34,91.29,149.62,90.73,146.86Z"/>
                        <path class="e00814e3-161b-4dfc-a2f7-49bdc249e1b0" d="M81.57,147.75s3.42,6.92,8-1.08c0,0-1.21,6.62-6.53,4.39A7,7,0,0,1,81.57,147.75Z"/>
                        <path class="e00814e3-161b-4dfc-a2f7-49bdc249e1b0" d="M78.09,140.87s1.73,5.73,6.17,1.8l1.32-1.14a6.28,6.28,0,0,1-4.89,3.62A3.79,3.79,0,0,1,78.09,140.87Z"/>
                        <path class="e00814e3-161b-4dfc-a2f7-49bdc249e1b0" d="M73.46,143.26s-.12,6.36,3.28,6.91c0,0,2.72.72,4.31-2.42,0,0,0,2.48-3.79,4.07C77.26,151.82,72.52,152.43,73.46,143.26Z"/>
                        <path class="e00814e3-161b-4dfc-a2f7-49bdc249e1b0" d="M77.79,154.08s3.46,5.19,7.42,0c0,0-2.76,6.08-6.75,1.9A3.58,3.58,0,0,1,77.79,154.08Z"/>
                        <path class="e00814e3-161b-4dfc-a2f7-49bdc249e1b0" d="M87.94,153s4.77,6.92,8.79-1.31c0,0-.92,5.86-5.5,5.55A5,5,0,0,1,87.94,153Z"/>
                        <path class="e00814e3-161b-4dfc-a2f7-49bdc249e1b0" d="M70.81,152.13s.81,7.11,5.42,6.52c0,0,2.06-.05,2.7-.69,0,0-2.07,4.21-5.59,2A9.69,9.69,0,0,1,70.81,152.13Z"/>
                        <path class="e00814e3-161b-4dfc-a2f7-49bdc249e1b0" d="M80.83,160s4.88,5.16,8.37-1.62c0,0-1.09,5.44-5.58,5A6.34,6.34,0,0,1,80.83,160Z"/>
                        <path class="e00814e3-161b-4dfc-a2f7-49bdc249e1b0" d="M75.19,163s3.07,5.08,7.51,1.82c0,0-2.18,4.43-5.78,1.23C76.92,166.08,75.3,164.15,75.19,163Z"/>
                        <path class="e00814e3-161b-4dfc-a2f7-49bdc249e1b0" d="M72,162.37s1.06,10.2,7.83,6.47c0,0,.06,3.34-4.15,2.7C75.67,171.54,71.4,169.9,72,162.37Z"/>
                        <path class="e00814e3-161b-4dfc-a2f7-49bdc249e1b0" d="M80.12,169.36s4,5.61,8.09.56c0,0-.95,4.74-5.51,3.32A7.82,7.82,0,0,1,80.12,169.36Z"/>
                        <path class="e00814e3-161b-4dfc-a2f7-49bdc249e1b0" d="M85.53,165s4.62,5.76,8.2-2.79a7.2,7.2,0,0,1-2.84,5.56S87.65,169.67,85.53,165Z"/>
                      </g>
                    </g>
                    <g>
                      <path class="b949f526-1a7d-4016-b01f-4d71811e7a2f" d="M77.66,133.46s-.88,7,4,2"/>
                      <path class="b949f526-1a7d-4016-b01f-4d71811e7a2f" d="M81.72,132s0,3.82,2.93,2.89a5.5,5.5,0,0,0,2-2s.65,2.27,2.92-.49"/>
                      <path class="b949f526-1a7d-4016-b01f-4d71811e7a2f" d="M84.71,135.48s.3,3.67,3.36,2.61a5.57,5.57,0,0,0,2-2.73"/>
                      <path class="b949f526-1a7d-4016-b01f-4d71811e7a2f" d="M92.88,136.36s.51,4.44,4,1.22"/>
                      <path class="b949f526-1a7d-4016-b01f-4d71811e7a2f" d="M94.88,140a3,3,0,0,0,5-1"/>
                      <path class="b949f526-1a7d-4016-b01f-4d71811e7a2f" d="M87.38,139.82s.79,5.94,4.72,3.65a8.4,8.4,0,0,0,2.76-3.15"/>
                      <path class="b949f526-1a7d-4016-b01f-4d71811e7a2f" d="M78.23,138.86s-.6,4.82,3.07,5.28c0,0,3.21,0,4.83-3.94"/>
                      <path class="b949f526-1a7d-4016-b01f-4d71811e7a2f" d="M73.56,143.14s-.74,6.43,3.07,7.54c0,0,2.92.86,5-3.77"/>
                      <path class="b949f526-1a7d-4016-b01f-4d71811e7a2f" d="M81.65,146s.58,5.13,3.9,4.44c0,0,3.18.45,4.5-4.85"/>
                      <path class="b949f526-1a7d-4016-b01f-4d71811e7a2f" d="M90.82,144.92s.2,3.85,4,3.39a8.42,8.42,0,0,0,2.8-2.16"/>
                      <path class="b949f526-1a7d-4016-b01f-4d71811e7a2f" d="M87.94,151.15s.18,4.45,4.24,5.25a4.52,4.52,0,0,0,2.6-1.19"/>
                      <path class="b949f526-1a7d-4016-b01f-4d71811e7a2f" d="M77.65,151.15s-.37,4.84,4,5.25c0,0,3.25.43,4.27-5.09"/>
                      <path class="b949f526-1a7d-4016-b01f-4d71811e7a2f" d="M71,151.56a10.33,10.33,0,0,0,3,7.67s3.77,1.79,5.72-2.83"/>
                      <path class="b949f526-1a7d-4016-b01f-4d71811e7a2f" d="M80.46,156.4s.16,5,4.05,6c0,0,3.71.86,5.54-6.24"/>
                      <path class="b949f526-1a7d-4016-b01f-4d71811e7a2f" d="M75,160s.16,4.83,4.33,6.17c0,0,2.56.44,4.56-3.44"/>
                      <path class="b949f526-1a7d-4016-b01f-4d71811e7a2f" d="M85.26,162.77S86.83,168.42,91,167a7.5,7.5,0,0,0,3.23-5.1"/>
                    </g>
                    <g>
                      <path class="f95d6b89-6235-4566-9102-696cc78fc0bd" d="M77.82,133.13s.11,5.28,3.9,2.08C81.72,135.21,77.15,140.94,77.82,133.13Z"/>
                      <path class="f95d6b89-6235-4566-9102-696cc78fc0bd" d="M81.72,132s1.79,4.13,5,.53C86.67,132.54,82.92,138.19,81.72,132Z"/>
                      <path class="f95d6b89-6235-4566-9102-696cc78fc0bd" d="M86.86,132.7s1,1,2.55-.39C89.41,132.31,87.36,135.05,86.86,132.7Z"/>
                      <path class="f95d6b89-6235-4566-9102-696cc78fc0bd" d="M85.07,136.27s1.82,2.88,4.86-.69C89.93,135.58,87.05,141,85.07,136.27Z"/>
                      <path class="f95d6b89-6235-4566-9102-696cc78fc0bd" d="M93.13,136.52a2.08,2.08,0,0,0,3.49.87S93.69,140.68,93.13,136.52Z"/>
                      <path class="f95d6b89-6235-4566-9102-696cc78fc0bd" d="M95.23,140.1s2.4,1.45,4.46-1.62C99.69,138.48,98.63,142.72,95.23,140.1Z"/>
                      <path class="f95d6b89-6235-4566-9102-696cc78fc0bd" d="M87.5,140s2.59,5.44,7.14.42C94.64,140.4,89.87,148.44,87.5,140Z"/>
                      <path class="f95d6b89-6235-4566-9102-696cc78fc0bd" d="M91.07,145.7s3.54,3.52,7.11-1.64l.95-1.45s-.89,4.29-4.49,5.57C94.64,148.18,91.63,148.46,91.07,145.7Z"/>
                      <path class="f95d6b89-6235-4566-9102-696cc78fc0bd" d="M81.91,146.59s3.42,6.92,8-1.07c0,0-1.21,6.62-6.53,4.39A7,7,0,0,1,81.91,146.59Z"/>
                      <path class="f95d6b89-6235-4566-9102-696cc78fc0bd" d="M78.43,139.71s1.73,5.74,6.17,1.81l1.32-1.15A6.28,6.28,0,0,1,81,144,3.81,3.81,0,0,1,78.43,139.71Z"/>
                      <path class="f95d6b89-6235-4566-9102-696cc78fc0bd" d="M73.8,142.1s-.12,6.36,3.28,6.92c0,0,2.72.72,4.31-2.43,0,0,0,2.49-3.79,4.08C77.6,150.67,72.85,151.28,73.8,142.1Z"/>
                      <path class="f95d6b89-6235-4566-9102-696cc78fc0bd" d="M78.13,152.93s3.46,5.19,7.42,0c0,0-2.77,6.08-6.75,1.89A3.51,3.51,0,0,1,78.13,152.93Z"/>
                      <path class="f95d6b89-6235-4566-9102-696cc78fc0bd" d="M88.28,151.87s4.77,6.92,8.79-1.31c0,0-.92,5.85-5.5,5.55A5,5,0,0,1,88.28,151.87Z"/>
                      <path class="f95d6b89-6235-4566-9102-696cc78fc0bd" d="M71.15,151s.81,7.12,5.41,6.53c0,0,2.07-.05,2.71-.7,0,0-2.07,4.22-5.59,2A9.72,9.72,0,0,1,71.15,151Z"/>
                      <path class="f95d6b89-6235-4566-9102-696cc78fc0bd" d="M81.17,158.81s4.88,5.16,8.37-1.61c0,0-1.09,5.43-5.58,5A6.33,6.33,0,0,1,81.17,158.81Z"/>
                      <path class="f95d6b89-6235-4566-9102-696cc78fc0bd" d="M75.53,161.88S78.6,167,83,163.69c0,0-2.18,4.44-5.78,1.23C77.26,164.92,75.64,163,75.53,161.88Z"/>
                      <path class="f95d6b89-6235-4566-9102-696cc78fc0bd" d="M72.32,161.21s1.06,10.21,7.84,6.47c0,0,.06,3.35-4.15,2.71C76,170.39,71.74,168.74,72.32,161.21Z"/>
                      <path class="f95d6b89-6235-4566-9102-696cc78fc0bd" d="M80.46,168.2s4,5.62,8.09.56c0,0-1,4.74-5.51,3.33A7.82,7.82,0,0,1,80.46,168.2Z"/>
                      <path class="f95d6b89-6235-4566-9102-696cc78fc0bd" d="M85.87,163.82s4.61,5.76,8.2-2.79a7.2,7.2,0,0,1-2.84,5.56S88,168.52,85.87,163.82Z"/>
                    </g>
                  </g>
                </g>
                <path class="efe0e8ae-46b5-40b0-b26e-2ae35ca53a23" d="M83.55,125.54l6.38,5.66s-1.27-2.07-1.1-3.13c0,0,4.73,6.06,12.52,5.1v-3.94L87.8,122.94A10.2,10.2,0,0,0,83.55,125.54Z"/>
              </g>
              <g>
                <g>
                  <g>
                    <g>
                      <path class="e17f8fcd-7cfa-4d76-b34b-bff2de3958d0" d="M178.16,150.69s3.16,20.58-5.14,35.46c0,0-3.78,9.55-7.49,5.89l5.11-18.67Z"/>
                      <path class="ea616f8f-6c7f-49b8-ad6b-f9065cfad1ed" d="M175.07,168.62s.75,9-8,24.25a1.36,1.36,0,0,1-1.53-1.09l8.17-22.06Z"/>
                    </g>
                    <g>
                      <path class="e17f8fcd-7cfa-4d76-b34b-bff2de3958d0" d="M173.36,169.52S173.81,184.14,160,199c0,0-3.76,3.27-4.3-1l10.46-30.83Z"/>
                      <path class="ea616f8f-6c7f-49b8-ad6b-f9065cfad1ed" d="M155.74,198.87s1.14,2.34,3.44.22c0,0,9.11-17.68,8.28-28.64l-2.73,1.34S159.42,189.83,155.74,198.87Z"/>
                    </g>
                    <g>
                      <path class="e17f8fcd-7cfa-4d76-b34b-bff2de3958d0" d="M165.07,166.93s.32,16.62-7.19,28.08c0,0-6.16,12.25-10.15,7.54l1.07-5.77s4.83-9.29,6.36-33.8l8.72-1.23Z"/>
                      <path class="ea616f8f-6c7f-49b8-ad6b-f9065cfad1ed" d="M159.18,165.8s-1.11,24-10.8,36.22l-.65-2.55,1.23-2.95s3.63-7.92,6.2-33l3-1.78Z"/>
                    </g>
                  </g>
                  <g>
                    <path class="ae22efd0-781c-4312-abe0-d656b3d9b00b" d="M163.44,124s9.31,4.94,8.2,12.41c0,0,4.62,2.18,4.09,8.71,0,0,5.56,5.64.58,13.14,0,0,2.37,4.15-.58,10.14a4.22,4.22,0,0,1-5.09,2.27s-1.79-1.39-1.71-3.07c0,0-.64,5.05-4.46,5.08,0,0-3.35.25-4.27-5.24,0,0-3.88.83-5.2-5.58a13.38,13.38,0,0,1,0-6.1s-3.43-1-3.25-9.17c0,0-2.2-1.86-2.2-7.1,0,0-2.68-4.9-1.53-9.88Z"/>
                    <g class="e82bea6d-50bb-4942-80b6-53d9c00d2d01">
                      <g>
                        <path class="e00814e3-161b-4dfc-a2f7-49bdc249e1b0" d="M171.76,134.45s-.12,5.28-3.91,2.08C167.85,136.53,172.43,142.26,171.76,134.45Z"/>
                        <path class="e00814e3-161b-4dfc-a2f7-49bdc249e1b0" d="M167.85,133.33s-1.78,4.13-4.95.53C162.9,133.86,166.66,139.51,167.85,133.33Z"/>
                        <path class="e00814e3-161b-4dfc-a2f7-49bdc249e1b0" d="M162.72,134s-1,1-2.55-.39C160.17,133.63,162.22,136.37,162.72,134Z"/>
                        <path class="e00814e3-161b-4dfc-a2f7-49bdc249e1b0" d="M164.5,137.59s-1.81,2.88-4.85-.69C159.65,136.9,162.52,142.31,164.5,137.59Z"/>
                        <path class="e00814e3-161b-4dfc-a2f7-49bdc249e1b0" d="M156.44,137.84a2.08,2.08,0,0,1-3.49.87S155.88,142,156.44,137.84Z"/>
                        <path class="e00814e3-161b-4dfc-a2f7-49bdc249e1b0" d="M154.35,141.41s-2.4,1.46-4.46-1.61C149.89,139.8,151,144,154.35,141.41Z"/>
                        <path class="e00814e3-161b-4dfc-a2f7-49bdc249e1b0" d="M162.08,141.3s-2.6,5.44-7.15.42C154.93,141.72,159.71,149.76,162.08,141.3Z"/>
                        <path class="e00814e3-161b-4dfc-a2f7-49bdc249e1b0" d="M158.51,147s-3.55,3.52-7.12-1.64l-.95-1.45s.9,4.29,4.49,5.57C154.93,149.5,158,149.78,158.51,147Z"/>
                        <path class="e00814e3-161b-4dfc-a2f7-49bdc249e1b0" d="M167.66,147.91s-3.42,6.92-8-1.07c0,0,1.21,6.62,6.53,4.38A6.9,6.9,0,0,0,167.66,147.91Z"/>
                        <path class="e00814e3-161b-4dfc-a2f7-49bdc249e1b0" d="M171.14,141s-1.73,5.74-6.16,1.81l-1.32-1.15a6.26,6.26,0,0,0,4.89,3.63A3.8,3.8,0,0,0,171.14,141Z"/>
                        <path class="e00814e3-161b-4dfc-a2f7-49bdc249e1b0" d="M175.77,143.42s.12,6.36-3.27,6.92c0,0-2.72.72-4.31-2.43,0,0,0,2.49,3.79,4.08C172,152,176.72,152.6,175.77,143.42Z"/>
                        <path class="e00814e3-161b-4dfc-a2f7-49bdc249e1b0" d="M171.45,154.25s-3.46,5.19-7.42,0c0,0,2.76,6.08,6.75,1.89A3.61,3.61,0,0,0,171.45,154.25Z"/>
                        <path class="e00814e3-161b-4dfc-a2f7-49bdc249e1b0" d="M161.3,153.19s-4.78,6.91-8.79-1.31c0,0,.92,5.85,5.49,5.55A5,5,0,0,0,161.3,153.19Z"/>
                        <path class="e00814e3-161b-4dfc-a2f7-49bdc249e1b0" d="M178.42,152.29s-.81,7.12-5.41,6.53c0,0-2.06,0-2.7-.7,0,0,2.07,4.22,5.59,2A9.66,9.66,0,0,0,178.42,152.29Z"/>
                        <path class="e00814e3-161b-4dfc-a2f7-49bdc249e1b0" d="M168.41,160.13s-4.88,5.16-8.37-1.62c0,0,1.09,5.44,5.58,5A6.38,6.38,0,0,0,168.41,160.13Z"/>
                        <path class="e00814e3-161b-4dfc-a2f7-49bdc249e1b0" d="M174,163.2s-3.07,5.08-7.5,1.81c0,0,2.18,4.44,5.77,1.23C172.31,166.24,173.93,164.32,174,163.2Z"/>
                        <path class="e00814e3-161b-4dfc-a2f7-49bdc249e1b0" d="M177.25,162.53s-1.06,10.21-7.84,6.47c0,0,0,3.35,4.16,2.71C173.57,171.71,177.84,170.06,177.25,162.53Z"/>
                        <path class="e00814e3-161b-4dfc-a2f7-49bdc249e1b0" d="M169.12,169.52s-4,5.62-8.09.56c0,0,.94,4.74,5.51,3.33A7.88,7.88,0,0,0,169.12,169.52Z"/>
                        <path class="e00814e3-161b-4dfc-a2f7-49bdc249e1b0" d="M163.7,165.14s-4.61,5.76-8.2-2.79a7.19,7.19,0,0,0,2.85,5.56S161.58,169.84,163.7,165.14Z"/>
                      </g>
                    </g>
                    <g>
                      <path class="b949f526-1a7d-4016-b01f-4d71811e7a2f" d="M171.58,133.62s.88,7-4,2"/>
                      <path class="b949f526-1a7d-4016-b01f-4d71811e7a2f" d="M167.51,132.18s0,3.82-2.93,2.89a5.67,5.67,0,0,1-2-2s-.64,2.27-2.91-.49"/>
                      <path class="b949f526-1a7d-4016-b01f-4d71811e7a2f" d="M164.53,135.65s-.31,3.67-3.36,2.61a5.55,5.55,0,0,1-2-2.73"/>
                      <path class="b949f526-1a7d-4016-b01f-4d71811e7a2f" d="M156.35,136.52s-.5,4.45-4,1.22"/>
                      <path class="b949f526-1a7d-4016-b01f-4d71811e7a2f" d="M154.36,140.15s-2.94,2.79-5-1"/>
                      <path class="b949f526-1a7d-4016-b01f-4d71811e7a2f" d="M161.86,140s-.79,5.94-4.73,3.66a8.49,8.49,0,0,1-2.76-3.15"/>
                      <path class="b949f526-1a7d-4016-b01f-4d71811e7a2f" d="M171,139s.59,4.81-3.07,5.28c0,0-3.22,0-4.84-3.95"/>
                      <path class="b949f526-1a7d-4016-b01f-4d71811e7a2f" d="M175.68,143.3s.74,6.44-3.07,7.54c0,0-2.92.87-5-3.77"/>
                      <path class="b949f526-1a7d-4016-b01f-4d71811e7a2f" d="M167.59,146.19s-.58,5.13-3.9,4.44c0,0-3.18.45-4.51-4.85"/>
                      <path class="b949f526-1a7d-4016-b01f-4d71811e7a2f" d="M158.42,145.09s-.21,3.85-4,3.38a8.44,8.44,0,0,1-2.8-2.15"/>
                      <path class="b949f526-1a7d-4016-b01f-4d71811e7a2f" d="M161.3,151.32s-.19,4.44-4.24,5.24a4.43,4.43,0,0,1-2.6-1.19"/>
                      <path class="b949f526-1a7d-4016-b01f-4d71811e7a2f" d="M171.58,151.32s.38,4.83-4,5.24c0,0-3.25.44-4.27-5.08"/>
                      <path class="b949f526-1a7d-4016-b01f-4d71811e7a2f" d="M178.28,151.73a10.32,10.32,0,0,1-3,7.67s-3.76,1.79-5.71-2.83"/>
                      <path class="b949f526-1a7d-4016-b01f-4d71811e7a2f" d="M168.78,156.56s-.16,5-4.05,6c0,0-3.72.86-5.55-6.23"/>
                      <path class="b949f526-1a7d-4016-b01f-4d71811e7a2f" d="M174.29,160.21s-.17,4.82-4.34,6.16c0,0-2.55.45-4.56-3.43"/>
                      <path class="b949f526-1a7d-4016-b01f-4d71811e7a2f" d="M164,162.94s-1.57,5.65-5.73,4.21a7.56,7.56,0,0,1-3.24-5.1"/>
                    </g>
                    <g>
                      <path class="f95d6b89-6235-4566-9102-696cc78fc0bd" d="M171.42,133.3s-.11,5.28-3.91,2.08C167.51,135.38,172.09,141.11,171.42,133.3Z"/>
                      <path class="f95d6b89-6235-4566-9102-696cc78fc0bd" d="M167.51,132.18s-1.78,4.13-4.95.52C162.56,132.7,166.32,138.36,167.51,132.18Z"/>
                      <path class="f95d6b89-6235-4566-9102-696cc78fc0bd" d="M162.38,132.87s-1,1-2.55-.39C159.83,132.48,161.88,135.21,162.38,132.87Z"/>
                      <path class="f95d6b89-6235-4566-9102-696cc78fc0bd" d="M164.16,136.44s-1.81,2.87-4.85-.7C159.31,135.74,162.18,141.15,164.16,136.44Z"/>
                      <path class="f95d6b89-6235-4566-9102-696cc78fc0bd" d="M156.1,136.69a2.07,2.07,0,0,1-3.48.87S155.54,140.85,156.1,136.69Z"/>
                      <path class="f95d6b89-6235-4566-9102-696cc78fc0bd" d="M154,140.26s-2.4,1.45-4.46-1.62C149.55,138.64,150.61,142.88,154,140.26Z"/>
                      <path class="f95d6b89-6235-4566-9102-696cc78fc0bd" d="M161.74,140.15s-2.6,5.44-7.14.42C154.6,140.57,159.37,148.6,161.74,140.15Z"/>
                      <path class="f95d6b89-6235-4566-9102-696cc78fc0bd" d="M158.17,145.87s-3.55,3.51-7.12-1.65l-1-1.45s.9,4.3,4.5,5.58C154.6,148.35,157.61,148.63,158.17,145.87Z"/>
                      <path class="f95d6b89-6235-4566-9102-696cc78fc0bd" d="M167.33,146.76s-3.43,6.92-8-1.08c0,0,1.21,6.62,6.53,4.39A7,7,0,0,0,167.33,146.76Z"/>
                      <path class="f95d6b89-6235-4566-9102-696cc78fc0bd" d="M170.8,139.88s-1.73,5.74-6.16,1.8l-1.32-1.14a6.28,6.28,0,0,0,4.89,3.63A3.8,3.8,0,0,0,170.8,139.88Z"/>
                      <path class="f95d6b89-6235-4566-9102-696cc78fc0bd" d="M175.43,142.27s.12,6.36-3.27,6.92c0,0-2.72.72-4.31-2.43,0,0,0,2.48,3.79,4.07C171.64,150.83,176.38,151.45,175.43,142.27Z"/>
                      <path class="f95d6b89-6235-4566-9102-696cc78fc0bd" d="M171.11,153.09s-3.46,5.19-7.42,0c0,0,2.76,6.09,6.75,1.9A3.68,3.68,0,0,0,171.11,153.09Z"/>
                      <path class="f95d6b89-6235-4566-9102-696cc78fc0bd" d="M161,152s-4.77,6.92-8.79-1.31c0,0,.92,5.86,5.49,5.55A5,5,0,0,0,161,152Z"/>
                      <path class="f95d6b89-6235-4566-9102-696cc78fc0bd" d="M178.08,151.14s-.8,7.11-5.41,6.53c0,0-2.06-.06-2.7-.7,0,0,2.07,4.21,5.59,2A9.66,9.66,0,0,0,178.08,151.14Z"/>
                      <path class="f95d6b89-6235-4566-9102-696cc78fc0bd" d="M168.07,159s-4.88,5.16-8.37-1.62c0,0,1.09,5.44,5.58,5A6.38,6.38,0,0,0,168.07,159Z"/>
                      <path class="f95d6b89-6235-4566-9102-696cc78fc0bd" d="M173.7,162.05s-3.06,5.08-7.5,1.81c0,0,2.18,4.44,5.78,1.23C172,165.09,173.59,163.16,173.7,162.05Z"/>
                      <path class="f95d6b89-6235-4566-9102-696cc78fc0bd" d="M176.91,161.38s-1.06,10.21-7.84,6.47c0,0,0,3.35,4.16,2.71C173.23,170.56,177.5,168.91,176.91,161.38Z"/>
                      <path class="f95d6b89-6235-4566-9102-696cc78fc0bd" d="M168.78,168.37s-4,5.62-8.09.56c0,0,.95,4.74,5.51,3.33A7.88,7.88,0,0,0,168.78,168.37Z"/>
                      <path class="f95d6b89-6235-4566-9102-696cc78fc0bd" d="M163.36,164s-4.61,5.77-8.2-2.79a7.19,7.19,0,0,0,2.85,5.56S161.24,168.69,163.36,164Z"/>
                    </g>
                  </g>
                </g>
                <path class="efe0e8ae-46b5-40b0-b26e-2ae35ca53a23" d="M165.69,125.71l-6.38,5.65s1.26-2.06,1.1-3.12c0,0-4.73,6.06-12.52,5.09v-3.94l13.55-6.28A10.2,10.2,0,0,1,165.69,125.71Z"/>
              </g>
              <path class="aa3dc07b-e9e0-41fa-8a98-b1601f62d101" d="M77.08,101.4s.93-27.67,34.7-38.6c0,0,31.59-9.9,53.1,19.15a40.07,40.07,0,0,1,7.45,19.45l-2.09-2.53s6.63,17-10.07,28.79l.53-2.73s-5.89,7.34-18.23,5.42A24.73,24.73,0,0,1,125.6,121l-1.12-1.52s-5.71,12.17-23.21,11.26c0,0-7.69.19-12.72-5.62a4.16,4.16,0,0,0,1.15,2.81S79.64,123.63,78,110.17c0,0-1.12-6.34.93-11.31A4,4,0,0,0,77.08,101.4Z"/>
              <path class="e7bf7fe0-7ca6-4cea-8862-b2ae20276196" d="M77.36,99s12.88-48.74,64.11-34.91C141.47,64.05,100.43,49.93,77.36,99Z"/>
              <path class="ae0fb9d8-110c-4dd1-92dc-b429258fa841" d="M78,109.44s2.86,10,8.36,12.5l-1.7-2.53S109.51,134,119.44,110l-11.9-29.09-3.77-2.79S118.69,80.73,123.35,96c0,0,1.31,3.69,3,0,0,0,4.33-15.63,19.93-18l-5.54,4.62,16.17-5.12s-2.9-7.33-6.38-8.71c0,0,19.11,10,21.57,32.26l-1.9-2.18s6.47,16.83-10,28.88l.6-2.89s-10.61,12-29.15,1.63c0,0-8.13-5.28-6.42-8a27.08,27.08,0,0,1-13.42,10.86s-16,4.85-23.27-4.53c0,0,.17,2.45,1,3C89.53,127.74,79.75,123.42,78,109.44Z"/>
              <g>
                <g>
                  <g>
                    <path class="e4752e24-c079-4578-adda-a840130980fd" d="M105.16,80.72,92.55,79.16s-2.79,1.1-2.85,3.78c0,0-6.13,2.82-2.73,10,0,0-5.75,5.37-.06,10.89,0,0-1.06,8,8,8.7,0,0,1.62,5.8,10.15,2.85,0,0,6.92,3.29,10.38-3.52,0,0,6.75-2.34,5.16-10.15,0,0,2.77-3-1.26-6.58S105.16,80.72,105.16,80.72Z"/>
                    <g>
                      <path class="ba6c8e44-d39b-4d8a-9b35-f48ec5290f72" d="M89.54,82.53s-.17,2.49,2.82,4.81"/>
                      <path class="ba6c8e44-d39b-4d8a-9b35-f48ec5290f72" d="M89.44,82.83s-6.79,4.71-1.94,10.76A4.31,4.31,0,0,0,90.65,95"/>
                      <path class="ba6c8e44-d39b-4d8a-9b35-f48ec5290f72" d="M87,93.21s-5.67,5.15-.09,10.65c0,0,3.32,1.9,6.25,0"/>
                      <path class="ba6c8e44-d39b-4d8a-9b35-f48ec5290f72" d="M87,104s-1.46,6.25,5.65,8.21c0,0,3.79.75,5.89-1.79"/>
                      <path class="ba6c8e44-d39b-4d8a-9b35-f48ec5290f72" d="M94.89,112.39s3.35,7.45,10.85,2.43a7.39,7.39,0,0,0,2.07-3.43"/>
                      <path class="ba6c8e44-d39b-4d8a-9b35-f48ec5290f72" d="M105.12,115.33s6.43,3.52,10.33-3.63a11.06,11.06,0,0,0,.56-4"/>
                      <path class="ba6c8e44-d39b-4d8a-9b35-f48ec5290f72" d="M115.42,111.86s6.66-1.33,5.36-9.9c0,0-.56-1.43-1.38-1.8"/>
                      <path class="ba6c8e44-d39b-4d8a-9b35-f48ec5290f72" d="M120.85,101.88s2.33-1.7-1.41-4.88"/>
                    </g>
                    <g>
                      <path class="a5f31205-48bd-4dea-8d02-41e1a9628b44" d="M89.37,83.16a7.47,7.47,0,0,0,.5,1.62s-5,3.38-.71,9.61c0,0-4.35-1.43-2.79-7.34A9,9,0,0,1,89.37,83.16Z"/>
                      <path class="a5f31205-48bd-4dea-8d02-41e1a9628b44" d="M88.2,94.47a3.18,3.18,0,0,1-1.13-1s-5.12,4.69-.41,9.71c0,0,1.94,2.22,5.69.9,0,0-5.16,1.21-5.75-3.07A6.48,6.48,0,0,1,88.2,94.47Z"/>
                      <path class="a5f31205-48bd-4dea-8d02-41e1a9628b44" d="M87.22,104.28l1.58.42s-.85,7.39,7.79,6.94a6.91,6.91,0,0,1-5.1,0S86.13,109.47,87.22,104.28Z"/>
                      <path class="a5f31205-48bd-4dea-8d02-41e1a9628b44" d="M95.16,112.47s.74-.17,1.67-.46c0,0,2.29,7.55,10,1.14a6.32,6.32,0,0,1-3.93,2.93S98.12,118.09,95.16,112.47Z"/>
                      <path class="a5f31205-48bd-4dea-8d02-41e1a9628b44" d="M105.48,115.29a5.45,5.45,0,0,0,1-1s7.25,3.26,9.29-5.81a7.39,7.39,0,0,1-3.52,6.47A7.06,7.06,0,0,1,105.48,115.29Z"/>
                      <path class="a5f31205-48bd-4dea-8d02-41e1a9628b44" d="M115.73,111.56s7.39-2.31,4.32-10.6c0,0,1.65,6.5-4,9.62Z"/>
                    </g>
                  </g>
                  <g>
                    <circle class="b9bb1864-365f-44ca-9431-e5d94e572583" cx="105.47" cy="95.76" r="14.2"/>
                    <g>
                      <g>
                        <circle class="ec960f33-5db9-469b-af04-e9e54b10c243" cx="105.4" cy="95.97" r="12.53"/>
                        <circle class="b05885fc-3b3e-434e-b7ab-6c2b60cccdad" cx="105.4" cy="95.93" r="10.88"/>
                        <path class="aee9ba15-2871-47db-9c80-d38bf5fa051c" d="M115.08,100.89a10.5,10.5,0,0,0,.19-2,10.88,10.88,0,0,0-20.56-5,10.88,10.88,0,0,1,21.57,2A10.72,10.72,0,0,1,115.08,100.89Z"/>
                      </g>
                      <g>
                        <circle class="b5b02806-6276-486c-ac42-96db5bb90d6e" cx="105.59" cy="95.93" r="6.19"/>
                        <circle class="f72b0311-d726-4c2d-b4b8-16c3a80110a6" cx="103.05" cy="92.62" r="1.78"/>
                        <circle class="f72b0311-d726-4c2d-b4b8-16c3a80110a6" cx="105.47" cy="95.95" r="0.8"/>
                        <path class="b98dcf1c-39af-4df2-bc2c-9ac20dbeaa0b" d="M104.67,100.79a7,7,0,0,0,5.73-4S109.88,102,104.67,100.79Z"/>
                      </g>
                    </g>
                  </g>
                  <g>
                    <path class="e4752e24-c079-4578-adda-a840130980fd" d="M144.12,80.57,156.73,79s2.79,1.1,2.84,3.78c0,0,6.14,2.83,2.74,10,0,0,5.75,5.37.05,10.89,0,0,1.06,8-8,8.71,0,0-1.62,5.8-10.15,2.84,0,0-6.92,3.29-10.38-3.51,0,0-6.75-2.35-5.16-10.16,0,0-2.77-3,1.25-6.58S144.12,80.57,144.12,80.57Z"/>
                    <g>
                      <path class="ba6c8e44-d39b-4d8a-9b35-f48ec5290f72" d="M159.74,82.37s.17,2.49-2.82,4.82"/>
                      <path class="ba6c8e44-d39b-4d8a-9b35-f48ec5290f72" d="M159.84,82.67s6.79,4.71,1.94,10.77a4.35,4.35,0,0,1-3.15,1.42"/>
                      <path class="ba6c8e44-d39b-4d8a-9b35-f48ec5290f72" d="M162.28,93.06s5.66,5.15.08,10.64c0,0-3.32,1.9-6.24,0"/>
                      <path class="ba6c8e44-d39b-4d8a-9b35-f48ec5290f72" d="M162.27,103.86s1.46,6.26-5.65,8.21c0,0-3.8.75-5.89-1.78"/>
                      <path class="ba6c8e44-d39b-4d8a-9b35-f48ec5290f72" d="M154.39,112.24s-3.35,7.45-10.86,2.42a7.41,7.41,0,0,1-2.06-3.43"/>
                      <path class="ba6c8e44-d39b-4d8a-9b35-f48ec5290f72" d="M144.15,115.18s-6.43,3.51-10.32-3.64a11,11,0,0,1-.56-4"/>
                      <path class="ba6c8e44-d39b-4d8a-9b35-f48ec5290f72" d="M133.85,111.7s-6.66-1.32-5.35-9.9c0,0,.56-1.43,1.38-1.79"/>
                      <path class="ba6c8e44-d39b-4d8a-9b35-f48ec5290f72" d="M128.43,101.72s-2.33-1.7,1.41-4.88"/>
                    </g>
                    <g>
                      <path class="a5f31205-48bd-4dea-8d02-41e1a9628b44" d="M159.91,83a7.47,7.47,0,0,1-.5,1.62s5,3.39.7,9.62c0,0,4.36-1.44,2.79-7.35A8.92,8.92,0,0,0,159.91,83Z"/>
                      <path class="a5f31205-48bd-4dea-8d02-41e1a9628b44" d="M161.08,94.31a3,3,0,0,0,1.13-1s5.12,4.7.41,9.72c0,0-1.94,2.21-5.7.89,0,0,5.17,1.22,5.76-3.06A6.49,6.49,0,0,0,161.08,94.31Z"/>
                      <path class="a5f31205-48bd-4dea-8d02-41e1a9628b44" d="M162.06,104.12l-1.58.42s.85,7.39-7.8,6.94a6.88,6.88,0,0,0,5.11,0S163.15,109.31,162.06,104.12Z"/>
                      <path class="a5f31205-48bd-4dea-8d02-41e1a9628b44" d="M154.12,112.31s-.74-.17-1.67-.45c0,0-2.29,7.55-10,1.13a6.32,6.32,0,0,0,3.94,2.93S151.15,117.94,154.12,112.31Z"/>
                      <path class="a5f31205-48bd-4dea-8d02-41e1a9628b44" d="M143.8,115.13a5.45,5.45,0,0,1-1-1s-7.25,3.27-9.3-5.81a7.41,7.41,0,0,0,3.53,6.47A7.06,7.06,0,0,0,143.8,115.13Z"/>
                      <path class="a5f31205-48bd-4dea-8d02-41e1a9628b44" d="M133.55,111.41s-7.39-2.32-4.33-10.6c0,0-1.64,6.49,4,9.61Z"/>
                    </g>
                  </g>
                  <g>
                    <circle class="b9bb1864-365f-44ca-9431-e5d94e572583" cx="144.35" cy="95.97" r="14.2"/>
                    <g>
                      <g>
                        <circle class="ec960f33-5db9-469b-af04-e9e54b10c243" cx="144.16" cy="95.97" r="12.53"/>
                        <circle class="b05885fc-3b3e-434e-b7ab-6c2b60cccdad" cx="144.16" cy="95.93" r="10.88"/>
                        <path class="aee9ba15-2871-47db-9c80-d38bf5fa051c" d="M153.84,100.89a11.35,11.35,0,0,0,.19-2,10.88,10.88,0,0,0-20.56-5,10.88,10.88,0,0,1,21.56,2A10.71,10.71,0,0,1,153.84,100.89Z"/>
                      </g>
                      <g>
                        <circle class="b5b02806-6276-486c-ac42-96db5bb90d6e" cx="144.35" cy="95.93" r="6.19"/>
                        <circle class="f72b0311-d726-4c2d-b4b8-16c3a80110a6" cx="141.8" cy="92.62" r="1.78"/>
                        <circle class="f72b0311-d726-4c2d-b4b8-16c3a80110a6" cx="144.23" cy="95.95" r="0.8"/>
                        <path class="b98dcf1c-39af-4df2-bc2c-9ac20dbeaa0b" d="M143.43,100.79a7,7,0,0,0,5.73-4S148.64,102,143.43,100.79Z"/>
                      </g>
                    </g>
                  </g>
                  <g>
                    <path class="a1a069a6-7cec-4349-b5f9-8a81b0a330f4" d="M124.56,124.21s4.37-3.48,4.35-13.13c0,0-.14-5-4.35-4.48,0,0-3.82-.75-4.52,4.55C120,111.15,119.76,119.35,124.56,124.21Z"/>
                    <path class="b4143b4e-ab20-4bdf-82bf-32d84a0e2244" d="M124.54,122.38s3.47-3.12,3.46-11.77c0,0-.11-4.48-3.46-4,0,0-3-.68-3.59,4.08C121,110.68,120.73,118,124.54,122.38Z"/>
                    <path class="a5f31205-48bd-4dea-8d02-41e1a9628b44" d="M124.09,106.65l.59,14.76.52-14.76S124.91,106.46,124.09,106.65Z"/>
                  </g>
                </g>
                <g>
                  <path class="a60769d8-603b-4ba5-87e2-e54c4d244230" d="M126.73,102.11S126.28,85,147,77.66c0,0-3,1.71-2.62,3.2,0,0,.69-2.64,9.73-3.2,0,0,3.49-.18,4.91-2.27,0,0,.39,1.68-1.87,2.61,0,0,12.17.33,14.48-2.87,0,0-3.65,5.06-12.2,6.14a11.53,11.53,0,0,0,3.53.71s-2.21,1.29-9.3-.78a5.17,5.17,0,0,0,4.32,2.23s-.6,1-9.19.82c0,0-4.61-.15-5.91,1.45A4.6,4.6,0,0,1,147,86.81S137,84.26,126.73,102.11Z"/>
                  <path class="f1a71167-1f75-4fb4-9e0d-f4e3f1139543" d="M126.73,102.11s.74-9.78,12.16-15.14c0,0-1.89-.53-2.9.22,0,0,4.2-5.39,15.21-5a3.26,3.26,0,0,0-2.75-1.49s2.54-1.37,12.32-1c0,0,6.09-.59,8.47-2.53,0,0-3.49,3.3-10.19,4.09,0,0,3,1.07,3.61.71,0,0-1.13,1.25-9.17-.88a4.47,4.47,0,0,0,4.19,2.37s-.08,1-9,.85c0,0-4-.2-5.78,1.32a4.76,4.76,0,0,1,4.05,1.19S136.65,84.3,126.73,102.11Z"/>
                </g>
                <g>
                  <path class="a60769d8-603b-4ba5-87e2-e54c4d244230" d="M122.86,102.11s.45-17.16-20.23-24.45c0,0,3,1.71,2.62,3.2,0,0-.69-2.64-9.73-3.2,0,0-3.49-.18-4.91-2.27,0,0-.39,1.68,1.87,2.61,0,0-12.17.33-14.47-2.87,0,0,3.64,5.06,12.19,6.14a11.53,11.53,0,0,1-3.53.71s2.21,1.29,9.3-.78a5.16,5.16,0,0,1-4.31,2.23s.59,1,9.18.82c0,0,4.61-.15,5.92,1.45a4.62,4.62,0,0,0-4.17,1.11S112.6,84.26,122.86,102.11Z"/>
                  <path class="f1a71167-1f75-4fb4-9e0d-f4e3f1139543" d="M122.86,102.11S122.12,92.33,110.7,87c0,0,1.9-.53,2.9.22,0,0-4.2-5.39-15.21-5a3.26,3.26,0,0,1,2.75-1.49s-2.54-1.37-12.32-1c0,0-6.09-.59-8.47-2.53,0,0,3.49,3.3,10.19,4.09,0,0-3,1.07-3.61.71,0,0,1.13,1.25,9.18-.88a4.49,4.49,0,0,1-4.19,2.37s.07,1,9,.85c0,0,4-.2,5.78,1.32a4.73,4.73,0,0,0-4,1.19S112.94,84.3,122.86,102.11Z"/>
                </g>
              </g>
              <g>
                <g>
                  <ellipse class="fbe3f5d4-1e83-4b35-bd38-002643367bc8" cx="102.65" cy="201.85" rx="4.76" ry="6.34"/>
                  <path class="ab1796b3-6d77-4161-81e5-c9f1f0fcb562" d="M99.17,205.49s2.9.86,3.64-1.11c0,0-.55-5.84,1.75-8.26l1.08.71s1.32,8.41-.41,10.41C105.23,207.24,101,210.29,99.17,205.49Z"/>
                  <path class="a5065ae0-10f9-448d-b20d-2d15390926dc" d="M101,206.5s1-1.89,2.61,0c0,0,.67,3.46-1.44,4.09C102.19,210.59,100.3,209.45,101,206.5Z"/>
                </g>
                <g>
                  <ellipse class="fbe3f5d4-1e83-4b35-bd38-002643367bc8" cx="109" cy="202.2" rx="5.27" ry="7.38"/>
                  <path class="ab1796b3-6d77-4161-81e5-c9f1f0fcb562" d="M105.23,206.35s4,2.71,4.17-.69c0,0-.63-6.34,2.34-9.54a1.8,1.8,0,0,1,1,1.37s1.89,10.6-2.15,11.52A4.24,4.24,0,0,1,105.23,206.35Z"/>
                  <path class="a5065ae0-10f9-448d-b20d-2d15390926dc" d="M107.26,206.65s1.23-2.23,3.09,0c0,0,.78,4.09-1.71,4.83C108.64,211.48,106.41,210.14,107.26,206.65Z"/>
                </g>
                <g>
                  <ellipse class="fbe3f5d4-1e83-4b35-bd38-002643367bc8" cx="115.36" cy="202.79" rx="4.76" ry="6.34"/>
                  <path class="ab1796b3-6d77-4161-81e5-c9f1f0fcb562" d="M120.12,202.79c0,3.51-2.12,6.22-4.76,6.22a3.84,3.84,0,0,1-3.38-2,6.75,6.75,0,0,0,2.22.49c2.63,0,4.12-2.19,4.12-5.69,0-2-.25-3.84-1.34-5C118.81,197.71,120.12,200.05,120.12,202.79Z"/>
                  <path class="a5065ae0-10f9-448d-b20d-2d15390926dc" d="M113.86,206.31s1.23-2.23,3.09,0c0,0,.78,4.09-1.71,4.83C115.24,211.14,113,209.81,113.86,206.31Z"/>
                </g>
              </g>
              <g>
                <g>
                  <ellipse class="fbe3f5d4-1e83-4b35-bd38-002643367bc8" cx="146.61" cy="201.85" rx="4.76" ry="6.34"/>
                  <path class="ab1796b3-6d77-4161-81e5-c9f1f0fcb562" d="M144.16,197.08s1.89,1.4,2.39,7.62c0,0,2.77,1,3.36-2.63,0,0,.67-3.89-1.13-5.72,0,0,2.74,1.71,2.48,6.33,0,0-.48,4.35-3.71,5.25,0,0-2.6.41-3.75-1.14Z"/>
                  <path class="a5065ae0-10f9-448d-b20d-2d15390926dc" d="M148.23,206.5s-1-1.89-2.61,0c0,0-.66,3.46,1.45,4.09C147.07,210.59,149,209.45,148.23,206.5Z"/>
                </g>
                <g>
                  <ellipse class="fbe3f5d4-1e83-4b35-bd38-002643367bc8" cx="140.25" cy="202.2" rx="5.27" ry="7.38"/>
                  <path class="ab1796b3-6d77-4161-81e5-c9f1f0fcb562" d="M136.61,197.46s3.64,1.6,2.27,8.43c0,0,4.35,2.21,4.91-3.46,0,0,.85-4.49-1.31-6.68,0,0,3.32,2.17,2.83,7.4,0,0-.48,5.22-4.35,6.3a4.86,4.86,0,0,1-4-1.65Z"/>
                  <path class="a5065ae0-10f9-448d-b20d-2d15390926dc" d="M142,206.65s-1.23-2.23-3.08,0c0,0-.79,4.09,1.71,4.83C140.62,211.48,142.85,210.14,142,206.65Z"/>
                </g>
                <g>
                  <ellipse class="fbe3f5d4-1e83-4b35-bd38-002643367bc8" cx="133.89" cy="202.79" rx="4.76" ry="6.34"/>
                  <path class="ab1796b3-6d77-4161-81e5-c9f1f0fcb562" d="M138.53,202.79c0,3.51-2.13,6.22-4.76,6.22a3.83,3.83,0,0,1-3.38-2,6.64,6.64,0,0,0,2.21.49c2.63,0,4.13-2.19,4.13-5.69,0-2-.26-3.84-1.34-5C137.22,197.71,138.53,200.05,138.53,202.79Z"/>
                  <path class="a5065ae0-10f9-448d-b20d-2d15390926dc" d="M135.39,206.31s-1.22-2.23-3.08,0c0,0-.78,4.09,1.71,4.83C134,211.14,136.25,209.81,135.39,206.31Z"/>
                </g>
              </g>
            </g>
          </g>
        </g>
      </g>
    </g>
  </g>
</svg>
