<svg xmlns="http://www.w3.org/2000/svg" width="250.26" height="250.26" viewBox="0 0 250.26 250.26">
  <defs>
    <style>
      .f52f3bee-1ab4-4768-9421-881d5512173e {
        isolation: isolate;
      }

      .bf4a9558-d807-4106-b161-05a0de5b1728 {
        fill: #fffdfe;
        stroke: #878787;
        stroke-width: 9px;
        mix-blend-mode: multiply;
        opacity: 0.6;
      }

      .a1f6f91e-ccb1-4133-b02d-e753bf1b461a, .b54a89d1-1505-414e-afa6-f2f384c21075, .b8242232-0d2c-4d05-aa55-0f3793b613b3, .bf4a9558-d807-4106-b161-05a0de5b1728, .ee78f650-47c9-49d1-b978-9fb173ecafef, .f0773b29-4f8b-41b2-a616-d52346b2b1f0 {
        stroke-miterlimit: 10;
      }

      .a0df6afd-330c-4713-bb2f-ab8b5c8d070c {
        fill: #cff6ff;
      }

      .b3242db7-1069-4226-b406-54fe98101bd2 {
        fill: #657585;
      }

      .b318fc4c-8473-45bf-bc18-33b5a5b3a9f6 {
        fill: #8da1b2;
      }

      .a35a9b6d-6d66-4fcc-87d5-8fa4837a0a2c {
        fill: #353c42;
      }

      .b7d35ef0-afb1-4795-aa2e-09bd2f1262fa {
        fill: #434b4f;
      }

      .aed014ed-d666-4fef-b182-61078ca05b43 {
        fill: #515c60;
      }

      .ee508192-eef8-408e-823e-656fe32998d0 {
        fill: #53616d;
      }

      .b54a89d1-1505-414e-afa6-f2f384c21075 {
        fill: #f15d2a;
        stroke: #ad492f;
      }

      .f0773b29-4f8b-41b2-a616-d52346b2b1f0 {
        fill: #00acd4;
        stroke: #1e6d7a;
      }

      .a9f908c4-5486-4025-9e84-1f832459b457 {
        fill: #81cbeb;
      }

      .a949d0e2-57e2-4010-81dc-1226be1fa8aa {
        fill: #4a4b7d;
      }

      .aa1d4377-f150-469b-99f3-4f7e3e0c3e1b, .b8242232-0d2c-4d05-aa55-0f3793b613b3, .ee78f650-47c9-49d1-b978-9fb173ecafef {
        fill: #a9c0e4;
      }

      .a1f6f91e-ccb1-4133-b02d-e753bf1b461a, .b8242232-0d2c-4d05-aa55-0f3793b613b3, .ee78f650-47c9-49d1-b978-9fb173ecafef {
        stroke: #4a4b7d;
      }

      .b8242232-0d2c-4d05-aa55-0f3793b613b3 {
        stroke-width: 4px;
      }

      .ee78f650-47c9-49d1-b978-9fb173ecafef {
        stroke-width: 3px;
      }

      .a6326b06-0d55-4ad9-86ed-ab21fb3f6642 {
        fill: #59e1ef;
      }

      .ae74a5ca-4b76-44ed-9a54-ef091c60f1b7 {
        fill: #fc7e5b;
      }

      .b141a945-9650-4dbc-af5a-4617752edbc3 {
        fill: #c5d4ea;
      }

      .a1f6f91e-ccb1-4133-b02d-e753bf1b461a {
        fill: none;
        stroke-width: 6px;
      }
    </style>
  </defs>
  <g class="f52f3bee-1ab4-4768-9421-881d5512173e">
    <g id="f7d794eb-9cee-40b8-a5b9-1ff67f8be755" data-name="Layer 1">
      <g>
        <g>
          <circle class="bf4a9558-d807-4106-b161-05a0de5b1728" cx="125.13" cy="125.13" r="116.99"/>
          <circle class="a0df6afd-330c-4713-bb2f-ab8b5c8d070c" cx="124.85" cy="125.71" r="114.82"/>
        </g>
        <g id="b72d5ec5-acb6-4cf8-90a1-477c7be6cd1a" data-name="10A">
          <g>
            <g>
              <path class="b3242db7-1069-4226-b406-54fe98101bd2" d="M116.45,166.93c1.7.68,12,.39,17.56-.29,1.65-.2,2.08-.48,2.47-.88,3.12-3.13,1.31-9.34-3.09-11.39-.91-.07.11-2.08-1.87-1.5-6.09,1.75-15.67,5.75-15.67,5.75a3.91,3.91,0,0,0-1.56,3.53A6.73,6.73,0,0,0,116.45,166.93Z"/>
              <path class="b318fc4c-8473-45bf-bc18-33b5a5b3a9f6" d="M125.71,154.89s-1.84,1.83-1.06,6.32,3.12,5.93,3.12,5.93a28.74,28.74,0,0,0,3.68-.08,21.38,21.38,0,0,0,3.85-.6c0-.44-1.39-13.58-1.39-13.58a2.83,2.83,0,0,0-1.61-.23c-.55.11-1.24.26-2,.48A18.76,18.76,0,0,0,125.71,154.89Z"/>
              <path class="a35a9b6d-6d66-4fcc-87d5-8fa4837a0a2c" d="M138,158.61c.81,3.59-.44,6.93-2.79,7.46s-4.91-1.95-5.72-5.54.44-6.92,2.79-7.45S137.23,155,138,158.61Z"/>
              <g>
                <path class="b7d35ef0-afb1-4795-aa2e-09bd2f1262fa" d="M132.47,157.68a10.8,10.8,0,0,1-.6-2.92c0-1,1.19-1.21,2,.25a3,3,0,0,0-.48,2.42C133.18,157.82,132.47,157.68,132.47,157.68Z"/>
                <path class="b7d35ef0-afb1-4795-aa2e-09bd2f1262fa" d="M133.46,157.53a6.26,6.26,0,0,1,.7-2.35c.47-.55,1.64.48,1.77,2.16a1.3,1.3,0,0,0-1.51,1C134.07,158.33,133.46,157.53,133.46,157.53Z"/>
                <path class="b7d35ef0-afb1-4795-aa2e-09bd2f1262fa" d="M134.46,158.44s.94-.85,1.67-.69,1.34,1.95.73,3.08c-.24-.34-1.23-1.33-1.83-1A4,4,0,0,1,134.46,158.44Z"/>
                <path class="b7d35ef0-afb1-4795-aa2e-09bd2f1262fa" d="M135,160a4.65,4.65,0,0,1,1.87,1.28c.57.77.42,2.53-.65,2.59-.07-.46-.59-2.05-1.31-2.43A3,3,0,0,1,135,160Z"/>
                <path class="b7d35ef0-afb1-4795-aa2e-09bd2f1262fa" d="M134.85,161.49a9.91,9.91,0,0,1,1.2,2.66c.21,1-.69,1.94-1.72.89a4.27,4.27,0,0,0-.18-2.77C134.22,161.75,134.85,161.49,134.85,161.49Z"/>
                <path class="b7d35ef0-afb1-4795-aa2e-09bd2f1262fa" d="M134.06,162.22a9.12,9.12,0,0,1,0,2.81c-.25.83-1.49.45-2-1.21a1.94,1.94,0,0,0,1-1.85C133.35,161.73,134.06,162.22,134.06,162.22Z"/>
                <path class="b7d35ef0-afb1-4795-aa2e-09bd2f1262fa" d="M133,161.85s-.58,1.41-1.23,1.67-1.6-1.24-1.36-2.76c.28.22,1.35.66,1.76-.07C132.54,160.84,133,161.85,133,161.85Z"/>
                <path class="b7d35ef0-afb1-4795-aa2e-09bd2f1262fa" d="M132.16,160.55a2.74,2.74,0,0,1-1.88-.25c-.66-.46-1-2.35-.09-3,.18.42,1,1.77,1.69,1.74A4,4,0,0,1,132.16,160.55Z"/>
                <path class="b7d35ef0-afb1-4795-aa2e-09bd2f1262fa" d="M131.93,158.93a7.3,7.3,0,0,1-1.66-2.05c-.42-.95.11-2.39,1.23-1.9a4.75,4.75,0,0,0,.83,2.75A2.09,2.09,0,0,1,131.93,158.93Z"/>
                <path class="aed014ed-d666-4fef-b182-61078ca05b43" d="M135,159.44c-.37-1.37-1.34-2.3-2.17-2.07s-1.19,1.51-.81,2.88,1.34,2.29,2.16,2.07S135.34,160.8,135,159.44Z"/>
              </g>
              <path class="ee508192-eef8-408e-823e-656fe32998d0" d="M132.25,152.61c-2.53.55-3.9,4.1-3.06,7.92s3.57,6.47,6.1,5.91,3.9-4.1,3.07-7.92S134.78,152.05,132.25,152.61Zm5.5,6c.72,3.31-.39,6.37-2.49,6.83s-4.4-1.85-5.12-5.16.38-6.37,2.48-6.83S137,155.34,137.75,158.65Z"/>
            </g>
            <g>
              <path class="b3242db7-1069-4226-b406-54fe98101bd2" d="M105.48,175c1.7.67,12,.38,17.56-.3,1.65-.2,2.08-.48,2.47-.87,3.13-3.14,1.32-9.35-3.09-11.39-.91-.08.12-2.08-1.87-1.51-6.09,1.75-15.67,5.75-15.67,5.75a3.89,3.89,0,0,0-1.55,3.53A6.78,6.78,0,0,0,105.48,175Z"/>
              <path class="b318fc4c-8473-45bf-bc18-33b5a5b3a9f6" d="M114.74,162.91s-1.84,1.83-1.06,6.32,3.12,5.94,3.12,5.94a30.77,30.77,0,0,0,3.69-.09,21.36,21.36,0,0,0,3.84-.6c0-.44-1.39-13.58-1.39-13.58a2.83,2.83,0,0,0-1.61-.23c-.55.11-1.24.26-2,.48A19,19,0,0,0,114.74,162.91Z"/>
              <path class="a35a9b6d-6d66-4fcc-87d5-8fa4837a0a2c" d="M127.07,166.63c.82,3.59-.43,6.93-2.78,7.46s-4.92-2-5.73-5.54.44-6.92,2.79-7.45S126.26,163,127.07,166.63Z"/>
              <g>
                <path class="b7d35ef0-afb1-4795-aa2e-09bd2f1262fa" d="M121.5,165.7a10.52,10.52,0,0,1-.59-2.91c0-1,1.18-1.22,2,.24a3,3,0,0,0-.49,2.43C122.21,165.85,121.5,165.7,121.5,165.7Z"/>
                <path class="b7d35ef0-afb1-4795-aa2e-09bd2f1262fa" d="M122.49,165.55a6.14,6.14,0,0,1,.71-2.35c.46-.55,1.64.48,1.76,2.16a1.29,1.29,0,0,0-1.5,1C123.1,166.36,122.49,165.55,122.49,165.55Z"/>
                <path class="b7d35ef0-afb1-4795-aa2e-09bd2f1262fa" d="M123.49,166.46s.94-.84,1.68-.69,1.34,1.95.72,3.08c-.24-.34-1.23-1.33-1.82-.95A3.92,3.92,0,0,1,123.49,166.46Z"/>
                <path class="b7d35ef0-afb1-4795-aa2e-09bd2f1262fa" d="M124,168a4.61,4.61,0,0,1,1.87,1.29c.57.76.42,2.52-.64,2.58-.08-.45-.59-2-1.31-2.43A3.08,3.08,0,0,1,124,168Z"/>
                <path class="b7d35ef0-afb1-4795-aa2e-09bd2f1262fa" d="M123.88,169.51a10.11,10.11,0,0,1,1.21,2.67c.2,1-.7,1.93-1.73.88a4.21,4.21,0,0,0-.18-2.77C123.25,169.77,123.88,169.51,123.88,169.51Z"/>
                <path class="b7d35ef0-afb1-4795-aa2e-09bd2f1262fa" d="M123.09,170.24a9.12,9.12,0,0,1,0,2.81c-.25.83-1.49.46-2-1.21a1.91,1.91,0,0,0,1-1.85C122.38,169.76,123.09,170.24,123.09,170.24Z"/>
                <path class="b7d35ef0-afb1-4795-aa2e-09bd2f1262fa" d="M122,169.87s-.58,1.41-1.23,1.67-1.6-1.24-1.36-2.76c.28.22,1.36.66,1.76-.07C121.57,168.87,122,169.87,122,169.87Z"/>
                <path class="b7d35ef0-afb1-4795-aa2e-09bd2f1262fa" d="M121.19,168.58a2.8,2.8,0,0,1-1.88-.25c-.66-.47-1-2.36-.08-3,.17.42,1,1.77,1.68,1.74A3.85,3.85,0,0,1,121.19,168.58Z"/>
                <path class="b7d35ef0-afb1-4795-aa2e-09bd2f1262fa" d="M121,167a7.15,7.15,0,0,1-1.65-2c-.43-1,.11-2.39,1.22-1.9a4.82,4.82,0,0,0,.83,2.75A2,2,0,0,1,121,167Z"/>
                <path class="aed014ed-d666-4fef-b182-61078ca05b43" d="M124,167.46c-.37-1.37-1.34-2.3-2.16-2.07s-1.19,1.51-.82,2.88,1.34,2.29,2.16,2.07S124.37,168.83,124,167.46Z"/>
              </g>
              <path class="ee508192-eef8-408e-823e-656fe32998d0" d="M121.29,160.63c-2.53.55-3.91,4.1-3.07,7.92s3.57,6.47,6.1,5.91,3.91-4.1,3.07-7.92S123.82,160.07,121.29,160.63Zm5.49,6c.73,3.32-.39,6.37-2.49,6.84s-4.39-1.85-5.12-5.17.39-6.37,2.49-6.83S126.05,163.36,126.78,166.67Z"/>
            </g>
            <path class="b54a89d1-1505-414e-afa6-f2f384c21075" d="M130.44,97.78c-.19-.63,2.46-17.29,4.46-18.9s15.46-4.82,17.42-3.22,9,13.4,8.07,14S131.37,100.72,130.44,97.78Z"/>
            <path class="b54a89d1-1505-414e-afa6-f2f384c21075" d="M55.41,134.44c-.49-.67,8.31-10.35,8.31-10.35s6.76-.92,8.55,1.72c1,2.4,1.1,9.07,1.1,9.07S60.48,141.29,55.41,134.44Z"/>
            <path class="f0773b29-4f8b-41b2-a616-d52346b2b1f0" d="M51.59,148.7s-24.85-19.85-24.11-25.35c1.42-1.94,7.43-3.85,9.27-3.23,1,1.67,20.16,15.66,22.5,15s59.39-34.6,91.79-45.69c23.47-7,34-5,39.88-2.57C196.05,89,204.23,92.1,209.47,99c2.07-.56,3.28,1.46,4.23,2.88,1.27,1.6,1.88,26.37,1.88,26.37s-5,7.36-39.21,17.8c-20.84,3.82-43.72,5.36-44.9,5.12s-32.94-1.55-32.94-1.55-31.2,2.56-33.56,2.09C61.5,151.3,53.14,151.17,51.59,148.7Z"/>
            <path class="a9f908c4-5486-4025-9e84-1f832459b457" d="M56.42,149.9s104.69-1,152.12-20.64a57,57,0,0,1,7-1s-4.42,9.34-39.21,17.8c-20.59,5-43.72,5.36-44.9,5.12s-32.94-1.55-32.94-1.55S67.41,152.11,65,151.9C61.1,151.57,57.39,151.42,56.42,149.9Z"/>
            <path class="b54a89d1-1505-414e-afa6-f2f384c21075" d="M209.47,99s-6.58,4.48-7,14.8,2.89,17.83,10.71,16.91,16.87-13.6,16.8-18.92S219.71,99.06,209.47,99Z"/>
            <path class="b54a89d1-1505-414e-afa6-f2f384c21075" d="M67,175.44s-4.14,4.94-.89,6.8c2.83,2,13.13,5.12,22.57,2.24,6.43-2.67,57.78-38.61,61.23-44.43,2.64-4.84-2.91-7.29-5.81-7.87s-19.41-4.1-33.17,3.62C105.74,141.47,77.75,166.87,67,175.44Z"/>
            <path class="b54a89d1-1505-414e-afa6-f2f384c21075" d="M47.17,143.33c.29-.19,19.16-5.45,19.56-2.68-.76,1-16.59,15.71-19,17.51s-10.61,3.82-10.65.26C38.3,156.47,47.17,143.33,47.17,143.33Z"/>
            <path class="a949d0e2-57e2-4010-81dc-1226be1fa8aa" d="M195.38,89.14s-10.27,8.26-11.55,11.67.69,7.21,4.12,10.45,5.57,3.92,8.67,1.54,10-8.79,12.2-14C208.79,97.25,197.64,88.59,195.38,89.14Z"/>
            <path class="aa1d4377-f150-469b-99f3-4f7e3e0c3e1b" d="M196,89.62s-9.8,8.16-10.95,11.23.62,6.5,3.71,9.42,5,3.53,7.82,1.39,9.62-8.5,11.63-13.17C208.16,97.06,198,89.33,196,89.62Z"/>
            <rect class="b8242232-0d2c-4d05-aa55-0f3793b613b3" x="166.8" y="104.88" width="14.39" height="10" rx="3.08" transform="translate(-22.76 49.6) rotate(-15.24)"/>
            <rect class="b8242232-0d2c-4d05-aa55-0f3793b613b3" x="150.21" y="109.44" width="14.04" height="9.77" rx="3.01" transform="translate(-24.52 45.35) rotate(-15.24)"/>
            <rect class="b8242232-0d2c-4d05-aa55-0f3793b613b3" x="134.45" y="113.93" width="13.41" height="9.33" rx="2.87" transform="translate(-26.21 41.28) rotate(-15.24)"/>
            <rect class="b8242232-0d2c-4d05-aa55-0f3793b613b3" x="119.76" y="118.07" width="12.69" height="8.83" rx="2.72" transform="translate(-27.76 37.46) rotate(-15.24)"/>
            <rect class="ee78f650-47c9-49d1-b978-9fb173ecafef" x="105.69" y="122.36" width="11.7" height="8.14" rx="2.51" transform="translate(-29.31 33.76) rotate(-15.24)"/>
            <rect class="ee78f650-47c9-49d1-b978-9fb173ecafef" x="92.24" y="126.29" width="10.84" height="7.54" rx="2.32" transform="translate(-30.75 30.24) rotate(-15.24)"/>
            <rect class="ee78f650-47c9-49d1-b978-9fb173ecafef" x="79.38" y="129.79" width="10.84" height="7.54" rx="2.32" transform="translate(-32.13 26.99) rotate(-15.24)"/>
            <path class="a6326b06-0d55-4ad9-86ed-ab21fb3f6642" d="M194.38,90S174,68.67,88.66,121.88c0,0,38.31-19.64,59.92-27.55C178.16,83.5,194.38,90,194.38,90Z"/>
            <path class="a6326b06-0d55-4ad9-86ed-ab21fb3f6642" d="M28.46,124.2c4.65-3.1,2.44-2.75,8.13-2.9,1.61.37,12.34,12.19,21.83,14.88-3.71.79-10-2.44-17.06-8.27C30.73,119.1,33.11,121.1,28.46,124.2Z"/>
            <path class="ae74a5ca-4b76-44ed-9a54-ef091c60f1b7" d="M206.89,104.49s15.53-2.63,21.23,8c0-5.08-5.78-11.76-17.52-12.78C206.79,101.48,206.89,104.49,206.89,104.49Z"/>
            <path class="ae74a5ca-4b76-44ed-9a54-ef091c60f1b7" d="M129.46,133.07s13.33-1.32,11.29,3.22S92.67,178.88,85,181,65,179.18,65,179.18s6.93,7.64,22.57,3.38c5.57-2.64,62.18-45,60.87-47.19S139.57,131,129.46,133.07Z"/>
            <path class="ae74a5ca-4b76-44ed-9a54-ef091c60f1b7" d="M136.76,78.83S150.14,75,152,76.2s6.23,11.42,6.23,11.42l-2.95.36s-1.51-9.43-5.7-10.36S136.76,78.83,136.76,78.83Z"/>
            <path class="ae74a5ca-4b76-44ed-9a54-ef091c60f1b7" d="M60.46,141a.8.8,0,0,1,.39,1.43c-.92,1.09-13,14.2-15.35,15.11s-7.76.76-7.76.76,2.12,2.12,7.66.29c4.27-1.55,20.47-17.48,19.92-17.87S60.46,141,60.46,141Z"/>
            <path class="ae74a5ca-4b76-44ed-9a54-ef091c60f1b7" d="M64.9,125.05s5.07.24,5.19,1.31-3.77,4.9-3.77,4.9l3.89-2.54s2.18-2.65,1-3.18S68.11,124.6,64.9,125.05Z"/>
            <path class="b141a945-9650-4dbc-af5a-4617752edbc3" d="M197.12,90.85s5.86,3.26,5.56,8.07-6.31,12.33-8.8,12.87c1.69.54,13.11-10.33,12.33-13.66C205.16,94.74,198.15,91,197.12,90.85Z"/>
            <path class="a1f6f91e-ccb1-4133-b02d-e753bf1b461a" d="M190.78,93.65s8.36,6.49,12.65,12.25"/>
          </g>
        </g>
      </g>
    </g>
  </g>
</svg>
