<svg id="f83cb41c-eac8-49fa-9bbc-690349c88902" data-name="Layer 1" xmlns="http://www.w3.org/2000/svg" xmlns:xlink="http://www.w3.org/1999/xlink" width="462.9" height="482.5" viewBox="0 0 462.9 482.5">
  <defs>
    <style>
      .b2cce12c-5c18-40fa-82bc-55057dbf552a, .bde53a6f-dc01-4896-84ce-9b0f9e6d2e54 {
        fill: none;
      }

      .bf4456bb-af31-44f1-9e30-e203a8da58ba {
        fill: #ff3040;
      }

      .abc50c64-5c4c-45c9-b2c3-e84e637d4361, .f76e4577-af8a-40b4-a531-e22ed6a95580 {
        fill: #162c30;
      }

      .a6f3a6ac-5f38-4dcb-aa00-53a83f45b9e2 {
        opacity: 0.5;
      }

      .b29c692e-498b-40f3-9b28-b39bc5ae582d {
        fill: url(#b6595377-61be-4b07-bd1c-8fbefcc9baf3);
      }

      .b5ac2d70-97f0-4b82-bc59-68c7cf3ecfc4 {
        fill: #f9f4c5;
        stroke-miterlimit: 10;
        stroke-width: 6px;
        stroke: url(#afabf4d1-64fb-49ec-8bf4-36bae25f11f8);
      }

      .a817997c-789f-4b37-8eb3-8647d675814c {
        clip-path: url(#acf08074-0924-4d49-915a-f37d4264eb6f);
      }

      .abd02556-58af-4105-af20-e41f9c25961f, .adc5324a-93a0-4806-8605-8d3308bcde05 {
        opacity: 0.2;
      }

      .a4dae1df-414b-4da3-b44a-778df9348681, .bbe4a5ad-3cab-4f91-b722-abd61fc02954 {
        fill: #f0f2f8;
      }

      .ef30822c-68df-4ffb-b72e-4670a0528c47 {
        fill: #a6b3c6;
      }

      .bab3ac78-d017-41d5-a83a-568998747f4a {
        clip-path: url(#e9cbb83c-92cc-4c05-8b18-01a179840fef);
      }

      .aa28564a-3c22-43f0-a904-e2d0e3c8bd88 {
        fill: #231f20;
        opacity: 0.15;
      }

      .efaa00d5-5c1f-48ed-b65d-fed66d24f72d {
        fill: #151717;
      }

      .ae050207-298b-4e00-815c-bb12269a3df2 {
        clip-path: url(#b7a53ee5-26b3-4d28-a941-877fb5803ac4);
      }

      .b0a81509-25f1-4e06-8f4b-898ffdae1eb6, .ed7ea7a3-245b-4852-886f-068e03b635b2 {
        fill: #fff;
      }

      .b0a81509-25f1-4e06-8f4b-898ffdae1eb6 {
        opacity: 0.4;
      }

      .adc5324a-93a0-4806-8605-8d3308bcde05 {
        fill: #610024;
      }

      .bbe4a5ad-3cab-4f91-b722-abd61fc02954, .f76e4577-af8a-40b4-a531-e22ed6a95580 {
        fill-rule: evenodd;
      }

      .fb4fa695-d4db-4bdb-9e26-bb8846933b2f {
        fill: #d0d2d3;
      }

      .ee136da8-6f9b-48a6-b92a-c61de6017008 {
        clip-path: url(#a7c4ed21-4b41-4787-b697-1145a243e2e4);
      }

      .a02c5595-6a96-45c1-8547-daac9556306e {
        fill: #647a7a;
      }

      .a47f83ff-5d9a-49b9-bb5b-018623b52dc0 {
        clip-path: url(#a9ac777b-efdb-40cb-a607-16bdcbc65239);
      }

      .bde53a6f-dc01-4896-84ce-9b0f9e6d2e54 {
        stroke: #404041;
        stroke-linejoin: round;
        stroke-width: 1.2px;
      }

      .bf60b46e-3cf4-4252-a195-a042fd80a563 {
        clip-path: url(#eb8815a6-46d2-4feb-95fd-ff83ccad7472);
      }

      .e39eb7b5-a40c-4efe-8493-920244f56726 {
        clip-path: url(#fec63c63-8ba1-44d5-a046-27bd20ca00b0);
      }

      .a87a33d2-02d0-4e68-8474-480554591d7f {
        clip-path: url(#ff38c5a2-0600-4959-8d18-6b6a67c831cd);
      }

      .e6de9aad-4841-4caf-a88b-ebfdcf69c0b1 {
        fill: #d3a102;
      }

      .ba50565b-0e9e-468c-86f7-4def829637b3 {
        fill: #31d0e5;
      }

      .ade4525c-bb84-4c83-887a-6f8ab5a46c39 {
        fill: #6b9e13;
      }
    </style>
    <linearGradient id="b6595377-61be-4b07-bd1c-8fbefcc9baf3" x1="52.73" y1="118.79" x2="402" y2="358.11" gradientUnits="userSpaceOnUse">
      <stop offset="0" stop-color="#9b81cf"/>
      <stop offset="1" stop-color="#3b139b"/>
    </linearGradient>
    <linearGradient id="afabf4d1-64fb-49ec-8bf4-36bae25f11f8" x1="25.67" y1="241.25" x2="437.24" y2="241.25" gradientUnits="userSpaceOnUse">
      <stop offset="0" stop-color="#4c1da9"/>
      <stop offset="1" stop-color="#997ece"/>
    </linearGradient>
    <clipPath id="acf08074-0924-4d49-915a-f37d4264eb6f">
      <circle class="b2cce12c-5c18-40fa-82bc-55057dbf552a" cx="235.46" cy="243.57" r="209.22"/>
    </clipPath>
    <clipPath id="e9cbb83c-92cc-4c05-8b18-01a179840fef">
      <path class="bf4456bb-af31-44f1-9e30-e203a8da58ba" d="M137.77,193.36c2.14,1.35,1.95,6.48,3.4,9.46,0,0,2.47,1.88,1.46,3.3a2.51,2.51,0,0,1-2.49,1.17,6.19,6.19,0,0,1-2.39-2,52.78,52.78,0,0,1-8.16-1.93c-3.42-1.16-5.07-7-3.85-10.05C126.75,190.79,134.5,191.3,137.77,193.36Z"/>
    </clipPath>
    <clipPath id="b7a53ee5-26b3-4d28-a941-877fb5803ac4">
      <path class="bf4456bb-af31-44f1-9e30-e203a8da58ba" d="M387.18,260.86l.06-6.31s-.59-23.48-10.16-23c-7.87.41-11.18,10.14-13.61,20.9-2.05,9-3.41,22.68-8.39,23.44-10.69,1.63-23.62,3.86-34.71,5.54s-28.77,6.42-28.77,6.42c1.62-18.7-1.66-56.51-17.8-55.68-14.93.77-20.23,28.67-23,60.27-3.32,1.88-33.3,3.48-47,3.48-14.59,0-84.07-2.27-92.72-3.31s-14.84-1.52-19.19-11c-7.14-15.53-6.54-29.85-5.24-35.4,2.39-10.14,5-28.25,42.23-42.22,1.25-.47,7.73-.1,9.1-.41C166,178.17,196.6,158.4,221.74,155c24.51-3.33,64.22-5,93.66-6.21,19.87-.83,39.48,9.94,56.25,29.8,5.9,4.66,10.19,7.77,10.19,7.77s7.71,32.75,9.1,35.23C392.72,224.74,390.74,257.23,387.18,260.86Z"/>
    </clipPath>
    <clipPath id="a7c4ed21-4b41-4787-b697-1145a243e2e4">
      <path class="abc50c64-5c4c-45c9-b2c3-e84e637d4361" d="M133,204c30.22.52,102.87-1.45,125.53-3.93,14.28-22.77,30-47.91,56.92-51.33-39.33.62-73.22,2.46-94,4.66C200.94,155.61,161.83,177.34,133,204Z"/>
    </clipPath>
    <clipPath id="a9ac777b-efdb-40cb-a607-16bdcbc65239">
      <path class="abc50c64-5c4c-45c9-b2c3-e84e637d4361" d="M270.75,202.18c42-3.73,90.31-14.35,96.6-16.14,2.53-.73,2.64-2.18,3.68-6.52-15.53-18.63-39.28-26.39-50.87-25.15C287.87,157.83,270.75,202.18,270.75,202.18Z"/>
    </clipPath>
    <clipPath id="eb8815a6-46d2-4feb-95fd-ff83ccad7472">
      <path class="bf4456bb-af31-44f1-9e30-e203a8da58ba" d="M287.68,190.64c-3.28,1.46-7.05,7.24-9.27,10.47,0,0-3.78,2-2.24,3.56a4.55,4.55,0,0,0,3.81,1.27,9.52,9.52,0,0,0,3.66-2.17,105.82,105.82,0,0,0,12.49-2.09c5.25-1.25,7.61-7.1,7.58-10.75C303.69,188.31,292.69,188.42,287.68,190.64Z"/>
    </clipPath>
    <clipPath id="fec63c63-8ba1-44d5-a046-27bd20ca00b0">
      <path class="b2cce12c-5c18-40fa-82bc-55057dbf552a" d="M261.05,246.59s-6.36,12.89-7.75,24.34a178.12,178.12,0,0,0-1.05,23.35L250.82,298l-2.65,2.69,11.76,18.94,34.19-3.09,9.59-57.64-21.86-18.14-17-.85Z"/>
    </clipPath>
    <clipPath id="ff38c5a2-0600-4959-8d18-6b6a67c831cd">
      <ellipse class="b2cce12c-5c18-40fa-82bc-55057dbf552a" cx="743.53" cy="237.25" rx="199.5" ry="200"/>
    </clipPath>
  </defs>
  <g>
    <path class="a6f3a6ac-5f38-4dcb-aa00-53a83f45b9e2" d="M444.68,252.5a208.28,208.28,0,0,0-25.42-100,211.66,211.66,0,0,0-187.81-114c-116.9,0-211.67,94.78-211.67,211.68s94.77,211.68,211.67,211.68c3,0,5.93-.08,8.87-.2C353.63,459.07,444.68,366.42,444.68,252.5Z"/>
    <g>
      <g>
        <circle class="b29c692e-498b-40f3-9b28-b39bc5ae582d" cx="231.45" cy="241.25" r="211.68"/>
        <circle class="b5ac2d70-97f0-4b82-bc59-68c7cf3ecfc4" cx="231.45" cy="241.25" r="202.78"/>
      </g>
      <g class="a817997c-789f-4b37-8eb3-8647d675814c">
        <g>
          <path class="abd02556-58af-4105-af20-e41f9c25961f" d="M411.9,287.29c.81.1,1.81.79-3.4,2.19-28,7.52-103.38,25.13-132.09,31.57-34.93,7.82-60,8.56-88.81,8.56s-115.31-7.77-128.42-10,13.13-10.3,47.34-15.62c36.21-5.64,186.19-25.58,186.19-25.58S407.4,286.74,411.9,287.29Z"/>
          <g>
            <g>
              <ellipse class="abc50c64-5c4c-45c9-b2c3-e84e637d4361" cx="120.87" cy="274.35" rx="23.7" ry="32.39"/>
              <polygon class="abc50c64-5c4c-45c9-b2c3-e84e637d4361" points="120.62 241.96 134.85 241.96 133.22 307.76 120.62 306.74 120.62 241.96"/>
            </g>
            <g>
              <ellipse class="abc50c64-5c4c-45c9-b2c3-e84e637d4361" cx="133.59" cy="274.96" rx="22.82" ry="32.79"/>
              <ellipse class="a4dae1df-414b-4da3-b44a-778df9348681" cx="135.06" cy="274.96" rx="16.82" ry="25.1"/>
              <ellipse class="abc50c64-5c4c-45c9-b2c3-e84e637d4361" cx="135.42" cy="274.96" rx="14.8" ry="22.6"/>
              <polygon class="a4dae1df-414b-4da3-b44a-778df9348681" points="137.46 250.65 135.75 271.1 149.69 263.69 150.86 268.02 136.33 275.81 147.81 289.71 145.86 293.5 133.87 279.21 127.44 296.74 124.64 293.58 130.79 275.76 118.85 270.71 119.73 265.59 131.4 270.76 133.07 250.39 137.46 250.65"/>
              <path class="ef30822c-68df-4ffb-b72e-4670a0528c47" d="M128.79,275c0,4,2.18,7.26,4.87,7.26s4.86-3.25,4.86-7.26-2.18-7.26-4.86-7.26S128.79,271,128.79,275Z"/>
              <path class="a4dae1df-414b-4da3-b44a-778df9348681" d="M130.43,275c0,1.91,1,3.46,2.32,3.46s2.32-1.55,2.32-3.46-1-3.46-2.32-3.46S130.43,273.05,130.43,275Z"/>
            </g>
          </g>
          <g>
            <path class="bf4456bb-af31-44f1-9e30-e203a8da58ba" d="M137.77,193.36c2.14,1.35,1.95,6.48,3.4,9.46,0,0,2.47,1.88,1.46,3.3a2.51,2.51,0,0,1-2.49,1.17,6.19,6.19,0,0,1-2.39-2,52.78,52.78,0,0,1-8.16-1.93c-3.42-1.16-5.07-7-3.85-10.05C126.75,190.79,134.5,191.3,137.77,193.36Z"/>
            <g class="bab3ac78-d017-41d5-a83a-568998747f4a">
              <path class="aa28564a-3c22-43f0-a904-e2d0e3c8bd88" d="M138.14,192.41c1.18,5.77,3.71,11.6-4.22,9.1-4.28-1.34-5.87-2.64-8.1-6.76a26.31,26.31,0,0,1-2.35-7.93l-.78,16.85,18.06,4.5,1.88-1.32L141,204l.1-2.45Z"/>
            </g>
          </g>
          <path class="efaa00d5-5c1f-48ed-b65d-fed66d24f72d" d="M387.18,260.86,357.69,275,290.1,287.87l-47.94-1.61-77.39-3.87,22.54-58.14,196.8,5.09a133.71,133.71,0,0,0,2.78,13.79C388.82,250.62,387.18,260.86,387.18,260.86Z"/>
          <g>
            <ellipse class="abc50c64-5c4c-45c9-b2c3-e84e637d4361" cx="256" cy="278.83" rx="24.7" ry="35.7"/>
            <polygon class="abc50c64-5c4c-45c9-b2c3-e84e637d4361" points="256 243.13 272.84 243.13 270.92 315.67 256 314.54 256 243.13"/>
          </g>
          <g>
            <path class="abc50c64-5c4c-45c9-b2c3-e84e637d4361" d="M351.44,264.79c0,14.92,4.82,27,10.76,27s10.75-12.09,10.75-27-4.81-27-10.75-27S351.44,249.88,351.44,264.79Z"/>
            <polygon class="abc50c64-5c4c-45c9-b2c3-e84e637d4361" points="362.2 237.79 375.71 237.79 375.96 292.46 362.2 291.8 362.2 237.79"/>
            <path class="abc50c64-5c4c-45c9-b2c3-e84e637d4361" d="M364.79,265.13c0,15.09,5,27.33,11.17,27.33s11.18-12.24,11.18-27.33-5-27.34-11.18-27.34S364.79,250,364.79,265.13Z"/>
            <path class="a4dae1df-414b-4da3-b44a-778df9348681" d="M368.45,265.13c0,11.55,3.69,20.93,8.23,20.93s8.24-9.38,8.24-20.93-3.69-20.94-8.24-20.94S368.45,253.57,368.45,265.13Z"/>
            <path class="abc50c64-5c4c-45c9-b2c3-e84e637d4361" d="M369.61,265.13c0,10.4,3.25,18.84,7.25,18.84s7.25-8.44,7.25-18.84-3.25-18.85-7.25-18.85S369.61,254.72,369.61,265.13Z"/>
            <polygon class="a4dae1df-414b-4da3-b44a-778df9348681" points="377.86 244.85 376.4 261.91 383.85 255.73 384.42 259.34 376.68 265.83 382.93 277.42 381.97 280.59 375.48 268.67 372.95 283.29 371.58 280.65 373.97 265.79 368.75 261.58 369.18 257.31 374.27 261.62 375.71 244.64 377.86 244.85"/>
            <path class="a4dae1df-414b-4da3-b44a-778df9348681" d="M373.1,265.13c0,3.34,1.06,6.05,2.38,6.05s2.38-2.71,2.38-6.05-1.06-6.06-2.38-6.06S373.1,261.78,373.1,265.13Z"/>
            <path class="ef30822c-68df-4ffb-b72e-4670a0528c47" d="M373.44,265.13c0,1.59.51,2.88,1.13,2.88s1.14-1.29,1.14-2.88-.51-2.89-1.14-2.89S373.44,263.53,373.44,265.13Z"/>
          </g>
          <g>
            <path class="bf4456bb-af31-44f1-9e30-e203a8da58ba" d="M387.18,260.86l.06-6.31s-.59-23.48-10.16-23c-7.87.41-11.18,10.14-13.61,20.9-2.05,9-3.41,22.68-8.39,23.44-10.69,1.63-23.62,3.86-34.71,5.54s-28.77,6.42-28.77,6.42c1.62-18.7-1.66-56.51-17.8-55.68-14.93.77-20.23,28.67-23,60.27-3.32,1.88-33.3,3.48-47,3.48-14.59,0-84.07-2.27-92.72-3.31s-14.84-1.52-19.19-11c-7.14-15.53-6.54-29.85-5.24-35.4,2.39-10.14,5-28.25,42.23-42.22,1.25-.47,7.73-.1,9.1-.41C166,178.17,196.6,158.4,221.74,155c24.51-3.33,64.22-5,93.66-6.21,19.87-.83,39.48,9.94,56.25,29.8,5.9,4.66,10.19,7.77,10.19,7.77s7.71,32.75,9.1,35.23C392.72,224.74,390.74,257.23,387.18,260.86Z"/>
            <g class="ae050207-298b-4e00-815c-bb12269a3df2">
              <path class="b0a81509-25f1-4e06-8f4b-898ffdae1eb6" d="M122.5,201.77c-35.6,10.34-13.9,20.57,10.35,21.52,46.83,1.84,125.63-23.18,125.63-23.18Z"/>
              <path class="adc5324a-93a0-4806-8605-8d3308bcde05" d="M249,299.25s-.62-31.05,5.17-49.88c4.3-14,10.7-23,21.12-23.18,12.83-.21,23.38,32.08,16.14,62.3C289,298.32,249,299.25,249,299.25Z"/>
              <path class="adc5324a-93a0-4806-8605-8d3308bcde05" d="M357.53,279.52s2-25.34,5.49-36.17c3.1-9.49,8.25-15.9,15-16,8.36-.15,13.26,23.57,8.54,45.22C385.06,279.59,357.53,279.52,357.53,279.52Z"/>
              <path class="b0a81509-25f1-4e06-8f4b-898ffdae1eb6" d="M270.75,202.18l95.05-19.4,6.2-3.89L382.25,186c-.73,1.33-5.83,5.1-9.16,6.05-21.11,6-69.42,13.46-86.93,16h0L282.1,204l-5.93.71,4.35,4.17C263.69,210.93,243.8,211.92,270.75,202.18Z"/>
            </g>
          </g>
          <path class="b0a81509-25f1-4e06-8f4b-898ffdae1eb6" d="M329.28,267.52c-13.73,2.34-32.87,6.22-28.78,7.68s20.79-2.38,31.66-4.63C358.12,265.18,370.2,260.56,329.28,267.52Z"/>
          <path class="abc50c64-5c4c-45c9-b2c3-e84e637d4361" d="M247.3,298a7.31,7.31,0,0,0,3.52-5.49s-32.29,4-35.13,2.11c-9.07-5.95-21.69-17.36-43.31-18.06-11-.35-69.13-2.49-76-2.18s.15,22.64,6.68,23.45c16.39,2,74.31,4.76,88.79,4.34C206.18,301.71,247.3,298,247.3,298Z"/>
          <g>
            <polygon class="f76e4577-af8a-40b4-a531-e22ed6a95580" points="371.27 197.01 363.04 199.32 363.56 197.2 371.79 194.89 371.27 197.01"/>
            <polygon class="bbe4a5ad-3cab-4f91-b722-abd61fc02954" points="371.2 196.66 362.97 198.98 363.49 196.86 371.72 194.54 371.2 196.66"/>
          </g>
          <g>
            <polygon class="f76e4577-af8a-40b4-a531-e22ed6a95580" points="336.24 205.76 324.82 207.87 325.6 205.49 337.02 203.38 336.24 205.76"/>
            <polygon class="bbe4a5ad-3cab-4f91-b722-abd61fc02954" points="336.19 205.36 324.77 207.47 325.55 205.1 336.97 202.99 336.19 205.36"/>
          </g>
          <path class="fb4fa695-d4db-4bdb-9e26-bb8846933b2f" d="M133.48,230.83c-1.47,1.44-3.54,1.72-4.62.62s-.76-3.16.72-4.6,3.54-1.71,4.62-.61S135,229.39,133.48,230.83Z"/>
          <path class="adc5324a-93a0-4806-8605-8d3308bcde05" d="M291.35,226.13c3.66,15.79,5.87,44.4,11.63,43.63,7-.93,42.27-7.51,46.83-8.75s10.22-24.79,14-34.41c3.52-8.9,15.73-28.35,23.59,18.22,1,5.72,1.32-11.77.83-18-1-13.25-4.61-19.26-39.84-16C335.63,212,289.22,216.94,291.35,226.13Z"/>
          <path class="adc5324a-93a0-4806-8605-8d3308bcde05" d="M248.6,239.1c2.89-6.3-6-6.25-26.55,8.1-12.59,8.79-27.26,18.33-19.94,24.29,5.9,4.8,17.69,11.5,26.09,11.1s9.64-4.79,10.5-8.7C239.8,268.89,245.7,245.4,248.6,239.1Z"/>
          <path class="adc5324a-93a0-4806-8605-8d3308bcde05" d="M108.63,240.81c10.53-.32,31.26.23,43.67.44,15.85.26,28.21,4.57,39.33,14,5.59,4.76-16.76,7.85-40.46,7.92-15.41.05-33.84-.47-44.4-1.09s-22.55,0-20.08-6.21A23.81,23.81,0,0,1,108.63,240.81Z"/>
          <g>
            <path class="abc50c64-5c4c-45c9-b2c3-e84e637d4361" d="M133,204c30.22.52,102.87-1.45,125.53-3.93,14.28-22.77,30-47.91,56.92-51.33-39.33.62-73.22,2.46-94,4.66C200.94,155.61,161.83,177.34,133,204Z"/>
            <g class="ee136da8-6f9b-48a6-b92a-c61de6017008">
              <path class="a02c5595-6a96-45c1-8547-daac9556306e" d="M134.82,205c58.05-41.6,156.26-51.53,180.68-56.5-39.32.62-60.58,1.73-81.34,3.73C203,155.2,163.69,178.27,134.82,205Z"/>
            </g>
          </g>
          <path class="abc50c64-5c4c-45c9-b2c3-e84e637d4361" d="M360.21,268.62s-17.27,4-33.22,7.34c-14.9,3.11-22.77,5.28-35.14,8.39a30.8,30.8,0,0,1-1.7,3.2l-.2,1.3s32.12-7,42.06-8.44c18.84-2.69,24.14-3.05,25.61-4.55S360.21,268.62,360.21,268.62Z"/>
          <g>
            <path class="abc50c64-5c4c-45c9-b2c3-e84e637d4361" d="M270.75,202.18c42-3.73,90.31-14.35,96.6-16.14,2.53-.73,2.64-2.18,3.68-6.52-15.53-18.63-39.28-26.39-50.87-25.15C287.87,157.83,270.75,202.18,270.75,202.18Z"/>
            <g class="a47f83ff-5d9a-49b9-bb5b-018623b52dc0">
              <path class="a02c5595-6a96-45c1-8547-daac9556306e" d="M271.52,199.7s22.79-28.15,56.09-29c26.07-.65,43.42,7.49,43.42,7.49s-1.41-30.67-32.45-30.67-53,7-58.37,17S271.52,199.7,271.52,199.7Z"/>
            </g>
          </g>
          <path class="abc50c64-5c4c-45c9-b2c3-e84e637d4361" d="M322.7,154.24a22.57,22.57,0,0,0-2.54.13c-32.29,3.46-49.41,47.81-49.41,47.81,42-3.73,90.31-14.35,96.6-16.14,2.53-.73,2.64-2.18,3.68-6.52C356.57,162.16,335,154.24,322.7,154.24Zm44.75,28.94c-.09.17-.16.29-.78.47-3,.85-16.62,4-34.67,7.29-14.76,2.73-36.29,6.31-57.3,8.37A114.46,114.46,0,0,1,285.36,181a73.57,73.57,0,0,1,14.95-15.74c6.44-4.86,13.2-7.7,20.11-8.44a20.4,20.4,0,0,1,2.28-.12c6.27,0,14.39,2.15,22.28,5.9a71.88,71.88,0,0,1,23.34,17.55A14.8,14.8,0,0,1,367.45,183.18Z"/>
          <g>
            <path class="bde53a6f-dc01-4896-84ce-9b0f9e6d2e54" d="M322.8,154.37l9.53,39,6.76,6.07c1.09,23.6,1,47.6-2.32,63.39-.77,3.66,3.1,6.37,3.1,6.37s-.31,9-6.21,10.71"/>
            <path class="bde53a6f-dc01-4896-84ce-9b0f9e6d2e54" d="M362.1,170.69,367.35,186l5.74,6.05s.84,15.16.23,19.64,1.19,7.9,1.48,10.61a42.38,42.38,0,0,1,.2,9.59"/>
            <path class="bde53a6f-dc01-4896-84ce-9b0f9e6d2e54" d="M279.55,201.31l6.61,6.77c8.07,21.88,11.23,55.5,12.27,61.57a24.79,24.79,0,0,0,2.17,6.73s.86,8.74-4.81,11.33"/>
            <path class="bde53a6f-dc01-4896-84ce-9b0f9e6d2e54" d="M231.61,213.5s26.57-8.22,39.14-11.32"/>
            <path class="bde53a6f-dc01-4896-84ce-9b0f9e6d2e54" d="M258.48,200.11c2.69,2.48,2.9,4.55,2.9,4.55"/>
            <path class="bde53a6f-dc01-4896-84ce-9b0f9e6d2e54" d="M181.78,233.71s-37.94,1.77-51.39,1.56-31.85-2-31.85-2"/>
            <path class="bde53a6f-dc01-4896-84ce-9b0f9e6d2e54" d="M228.76,224.73s13.68-.48,21.34,3.22a57.39,57.39,0,0,1,10.8,6.59l3.12,3.25"/>
          </g>
          <g>
            <path class="bf4456bb-af31-44f1-9e30-e203a8da58ba" d="M287.68,190.64c-3.28,1.46-7.05,7.24-9.27,10.47,0,0-3.78,2-2.24,3.56a4.55,4.55,0,0,0,3.81,1.27,9.52,9.52,0,0,0,3.66-2.17,105.82,105.82,0,0,0,12.49-2.09c5.25-1.25,7.61-7.1,7.58-10.75C303.69,188.31,292.69,188.42,287.68,190.64Z"/>
            <g class="bf60b46e-3cf4-4252-a195-a042fd80a563">
              <path class="aa28564a-3c22-43f0-a904-e2d0e3c8bd88" d="M286.24,191.28c-4.7,6.55-8.88,11.11,3.28,8.41,6.54-1.45,9-2.86,12.39-7.31a22.55,22.55,0,0,0,3.6-8.58L306.7,202l-27.65,4.87-2.88-1.43,2.43-3.12-.15-2.65Z"/>
            </g>
          </g>
          <path class="ed7ea7a3-245b-4852-886f-068e03b635b2" d="M171.14,234.13s7.57-7.25,22.35-11.07,44.71-11.18,44.71-11.18-5.47,15.44-22.34,18.51S171.14,234.13,171.14,234.13Z"/>
          <path class="ed7ea7a3-245b-4852-886f-068e03b635b2" d="M103,233.77s-10.14,0-9.52-5,9.31-10.55,9.31-10.55S101.62,226.68,103,233.77Z"/>
          <g class="e39eb7b5-a40c-4efe-8493-920244f56726">
            <g>
              <ellipse class="abc50c64-5c4c-45c9-b2c3-e84e637d4361" cx="271.46" cy="279.51" rx="25.15" ry="36.14"/>
              <ellipse class="a4dae1df-414b-4da3-b44a-778df9348681" cx="273.08" cy="279.51" rx="18.54" ry="27.67"/>
              <ellipse class="abc50c64-5c4c-45c9-b2c3-e84e637d4361" cx="273.47" cy="279.51" rx="16.32" ry="24.91"/>
              <polygon class="a4dae1df-414b-4da3-b44a-778df9348681" points="275.73 252.71 273.84 275.25 289.2 267.08 290.49 271.86 274.48 280.44 287.13 295.76 284.98 299.95 271.76 284.19 264.67 303.52 261.58 300.04 268.37 280.39 255.2 274.82 256.18 269.18 269.05 274.88 270.88 252.42 275.73 252.71"/>
              <ellipse class="a4dae1df-414b-4da3-b44a-778df9348681" cx="271.53" cy="279.51" rx="5.36" ry="8.01"/>
              <path class="ef30822c-68df-4ffb-b72e-4670a0528c47" d="M268,279.51c0,2.1,1.15,3.81,2.56,3.81s2.55-1.71,2.55-3.81-1.14-3.82-2.55-3.82S268,277.4,268,279.51Z"/>
            </g>
          </g>
        </g>
      </g>
    </g>
  </g>
  <g class="a87a33d2-02d0-4e68-8474-480554591d7f">
    <rect class="e6de9aad-4841-4caf-a88b-ebfdcf69c0b1" x="446.22" y="184.31" width="576.56" height="254.54"/>
    <rect class="ba50565b-0e9e-468c-86f7-4def829637b3" x="396.81" y="21.87" width="656.9" height="303.36"/>
    <path class="ade4525c-bb84-4c83-887a-6f8ab5a46c39" d="M440,330.85c-1.76,1.85,610.79,1.8,610.79,1.8S1036,288.36,989.69,309.9c0,0-21.11-29.32-69.16,3,0,0-41.74-21.23-66.53,1.07,0,0-5.27-9.5-13-7,0,0-19.53-11.15-29.45,5.37,0,0-19.83-8.26-26.34,4.55,0,0-45.92-12.93-85.87,2.76,0,0-13.51-16.94-26.32.87,0,0-27.81-13.09-47.17,2.18,0,0-10.27-9.39-20.3.86,0,0-13-13.58-35.12-.16,0,0-14.63-17.19-39.47,1.21,0,0-13.5-20.44-40.8,1.23C490.14,325.82,461,308.91,440,330.85Z"/>
  </g>
</svg>
