<svg id="e6653f6d-2849-47c4-8ea4-a2930f875ed3" data-name="Layer 1" xmlns="http://www.w3.org/2000/svg" xmlns:xlink="http://www.w3.org/1999/xlink" width="462.9" height="482.5" viewBox="0 0 462.9 482.5">
  <defs>
    <style>
      .aa54a267-879f-408b-bdd3-8d17405a61c7 {
        fill: none;
      }

      .f78262a9-d7c2-402b-a449-a1fa8fa59b47 {
        opacity: 0.5;
      }

      .a0de6d05-759a-4dbc-9c69-d440412bf378 {
        fill: url(#e21f207f-6eea-405a-9d80-6329328fd142);
      }

      .e1f81422-2ba9-49da-9170-bf8eb0c55b0b {
        fill: #31d0e5;
        stroke-miterlimit: 10;
        stroke-width: 6px;
        stroke: url(#a2d49098-e4d9-423a-a593-3ae1a1987f1f);
      }

      .b9cfd2fa-a6c2-436c-b2f3-9d78c9f8fe0b {
        clip-path: url(#e5ff9cde-255f-4f81-8190-d288b03cf802);
      }

      .f20e0c10-9aea-4ee5-bdd7-6e42ef4d8b92 {
        opacity: 0.25;
      }

      .b7435d08-c11b-4263-b25f-a5573b36b610 {
        fill: #ee6101;
      }

      .b6ce1ee5-0a21-4d33-9688-fee2b859297f {
        fill: #cc3a00;
      }

      .b6449325-1d83-4f0f-8433-43568196ff96 {
        fill: #ff8b22;
      }

      .eb80aab6-efb2-4101-afa2-642d69d6ad5a {
        fill: #e28d00;
      }

      .b03504e1-d602-4ce4-b1b0-869e4b56b022 {
        fill: #e84d00;
      }

      .e7b6a8ab-128a-45d4-a6f1-e42f79f49fe6 {
        fill: #fff;
      }

      .a03f7571-42d8-42f5-a6c3-791117483f05 {
        fill: #ffcea6;
      }

      .b25c1375-6a3b-44d2-ab38-7acd223f3d21 {
        clip-path: url(#bb74195d-4960-49a1-9aba-6071413df33e);
      }

      .e6c4e28b-77e4-4f5c-b74e-76617180cf61 {
        clip-path: url(#b614fa94-6c1d-4c47-b76d-209025e35868);
      }

      .bf5bb209-080f-4c4f-96e7-d7ab79e18096 {
        fill: url(#b5149ba9-ba95-402c-baf4-6aaa1ec2ad3c);
      }

      .a43d6e60-5a04-4939-9ca9-176c64309e1b {
        fill: url(#b75a4bb6-baa3-40d8-afe9-24a2d09df4a2);
      }

      .a6c6970f-ed51-40da-95a5-5f45e3e8ca8b {
        fill: url(#b7d90dc5-267c-4f2c-b26c-bb504716d727);
      }
    </style>
    <linearGradient id="e21f207f-6eea-405a-9d80-6329328fd142" x1="52.73" y1="118.79" x2="402" y2="358.11" gradientUnits="userSpaceOnUse">
      <stop offset="0" stop-color="#9b81cf"/>
      <stop offset="1" stop-color="#3b139b"/>
    </linearGradient>
    <linearGradient id="a2d49098-e4d9-423a-a593-3ae1a1987f1f" x1="25.67" y1="241.25" x2="437.24" y2="241.25" gradientUnits="userSpaceOnUse">
      <stop offset="0" stop-color="#4c1da9"/>
      <stop offset="1" stop-color="#997ece"/>
    </linearGradient>
    <clipPath id="e5ff9cde-255f-4f81-8190-d288b03cf802">
      <circle class="aa54a267-879f-408b-bdd3-8d17405a61c7" cx="235.46" cy="243.57" r="209.22"/>
    </clipPath>
    <clipPath id="bb74195d-4960-49a1-9aba-6071413df33e">
      <circle class="aa54a267-879f-408b-bdd3-8d17405a61c7" cx="559.93" cy="-317.42" r="248.73"/>
    </clipPath>
    <clipPath id="b614fa94-6c1d-4c47-b76d-209025e35868">
      <rect class="aa54a267-879f-408b-bdd3-8d17405a61c7" x="262.95" y="-623.27" width="835.66" height="582.35"/>
    </clipPath>
    <linearGradient id="b5149ba9-ba95-402c-baf4-6aaa1ec2ad3c" x1="305.05" y1="-131.55" x2="305.05" y2="8.29" gradientUnits="userSpaceOnUse">
      <stop offset="0" stop-color="#cea87c"/>
      <stop offset="1" stop-color="#a9865c"/>
    </linearGradient>
    <linearGradient id="b75a4bb6-baa3-40d8-afe9-24a2d09df4a2" x1="395.86" y1="-87.49" x2="395.86" y2="7.61" xlink:href="#b5149ba9-ba95-402c-baf4-6aaa1ec2ad3c"/>
    <linearGradient id="b7d90dc5-267c-4f2c-b26c-bb504716d727" x1="475.71" y1="-95.19" x2="475.71" y2="7.73" xlink:href="#b5149ba9-ba95-402c-baf4-6aaa1ec2ad3c"/>
  </defs>
  <g>
    <path class="f78262a9-d7c2-402b-a449-a1fa8fa59b47" d="M444.68,252.5a208.28,208.28,0,0,0-25.42-100,211.66,211.66,0,0,0-187.81-114c-116.9,0-211.67,94.78-211.67,211.68s94.77,211.68,211.67,211.68c3,0,5.93-.08,8.87-.2C353.63,459.07,444.68,366.42,444.68,252.5Z"/>
    <g>
      <g>
        <circle class="a0de6d05-759a-4dbc-9c69-d440412bf378" cx="231.45" cy="241.25" r="211.68"/>
        <circle class="e1f81422-2ba9-49da-9170-bf8eb0c55b0b" cx="231.45" cy="241.25" r="202.78"/>
      </g>
      <g class="b9cfd2fa-a6c2-436c-b2f3-9d78c9f8fe0b">
        <g>
          <path class="f20e0c10-9aea-4ee5-bdd7-6e42ef4d8b92" d="M148.57,329.83,125.9,392.26a7,7,0,0,0,6.37,9.46H329.56a7,7,0,0,0,6.62-8.63l-15.45-66.78a6.85,6.85,0,0,0-6.8-5.38l-159.16,4.35A6.83,6.83,0,0,0,148.57,329.83Z"/>
          <g>
            <path class="b7435d08-c11b-4263-b25f-a5573b36b610" d="M331.4,82.84c-74.25-29-136.91-27.59-197,0-13.16,6,27,161.12,27,161.12L194,241l.64,0h.43l.64,0L304.39,244S344.79,88.06,331.4,82.84Z"/>
            <path class="b6ce1ee5-0a21-4d33-9688-fee2b859297f" d="M169.4,245.85s3.11-38.67-.23-50.49c-4.65-16.51-8.11-22.74-21.3-27.67-11.76-4.39-44.59-4.6-54.75,8.37s-6.22,25.13-3,30.38,9.14,11.46,21.42,10.22c3.33,12.07,6.6,37.32,6.83,48C126,263.54,169.4,245.85,169.4,245.85Z"/>
            <path class="b7435d08-c11b-4263-b25f-a5573b36b610" d="M124.82,264.24s-6.37-48.07-10.62-53.78c-6.9.29-14-1.31-17.89-7.55s-3.78-16.83,2-21.43c7.58-6.07,17.26-4.75,24.87.5,8.34,5.74,13.35,18.55,14.71,40.23,1.71,27.1,3.49,36.78,3.49,36.78Z"/>
            <path class="b6ce1ee5-0a21-4d33-9688-fee2b859297f" d="M298.13,245.85s-3.11-38.67.23-50.49c4.65-16.51,8.11-22.74,21.3-27.67,11.76-4.39,44.59-4.6,54.75,8.37s6.22,25.13,3,30.38S368.3,217.9,356,216.66c-3.33,12.07-6.59,37.32-6.82,48C341.58,263.54,298.13,245.85,298.13,245.85Z"/>
            <path class="b7435d08-c11b-4263-b25f-a5573b36b610" d="M342.72,264.24s6.36-48.07,10.61-53.78c6.9.29,13.95-1.31,17.9-7.55s3.77-16.83-2-21.43c-7.58-6.07-17.25-4.75-24.87.5-8.34,5.74-13.34,18.55-14.71,40.23-1.7,27.1-3.49,36.78-3.49,36.78Z"/>
            <path class="b6449325-1d83-4f0f-8433-43568196ff96" d="M361.61,277.05c-3.34-11.16-14.34-17.73-32.24-24.63S303,240.27,296,239.61c-6.55-.62-116.51-.62-123.06,0-7,.66-15.47,5.91-33.36,12.81s-28.9,13.47-32.24,24.63c-2.26,7.55.09,34.81,2.51,42.69a21.47,21.47,0,0,0,14.26,13.8c4.85,1.31,215.87,1.31,220.72,0a21.43,21.43,0,0,0,14.25-13.8C361.52,311.86,363.86,284.6,361.61,277.05Z"/>
            <path class="eb80aab6-efb2-4101-afa2-642d69d6ad5a" d="M330.64,367.33c8.52-20.56,6.09-44,6.09-44H307.44s-2.43,23.44,6.1,44c3.37.14,3.56-.06,3.56-.06s1.3,2.52-.52,4.2-4,3.82-4,8.15c.1,4.6,2.24,6.24,3.8,7.3.22,2,1.52,10.87,1.52,11.74h8.29c0-.87,1.3-9.78,1.53-11.74a8.34,8.34,0,0,0,3.79-7.3c.06-4.17-2.14-6.46-4-8.15s-.51-4.2-.51-4.2S327.27,367.47,330.64,367.33Z"/>
            <path class="eb80aab6-efb2-4101-afa2-642d69d6ad5a" d="M153.26,367.33c8.53-20.56,6.1-44,6.1-44H130.07s-2.43,23.44,6.09,44c3.37.14,3.57-.06,3.57-.06s1.29,2.52-.52,4.2-4,3.82-4,8.15c.09,4.6,2.24,6.24,3.79,7.3.23,2,1.52,10.87,1.53,11.74h8.29c0-.87,1.3-9.78,1.52-11.74a8.34,8.34,0,0,0,3.8-7.3c.06-4.17-2.15-6.46-4-8.15s-.52-4.2-.52-4.2S149.89,367.47,153.26,367.33Z"/>
            <path class="b03504e1-d602-4ce4-b1b0-869e4b56b022" d="M361.61,277.05c-.83-2.79-2.52-7.53-5.61-7.55-65.52-.43-177.52-.43-243,0-3.09,0-4.78,4.76-5.61,7.55-2.26,7.55.09,34.81,2.51,42.69a21.47,21.47,0,0,0,14.26,13.8c4.85,1.31,215.87,1.31,220.72,0a21.43,21.43,0,0,0,14.25-13.8C361.52,311.86,363.86,284.6,361.61,277.05Z"/>
            <path class="e7b6a8ab-128a-45d4-a6f1-e42f79f49fe6" d="M166,206.83,160,192.49c-1.42-3.46-3.32-6.76-2.61-7.51s13.54-.9,20.58.37,21.43,1,26.28,0A138.71,138.71,0,0,0,220,181c2.11-.9,2.64-2,3.7-1.31s1.05,4.61.84,7.51,1.38,14.72,3.17,20.43,4.33,14.72,5.38,15.62,3.27,6.11,3.06,7.21,3.17,2.71,3.91,3.81,2.53,2.9,2.32,3.9,1,.91-3.49,1.8-19,2.21-21,2.61-13.08.6-13.08.6l-19.42-7.31Z"/>
            <path class="a03f7571-42d8-42f5-a6c3-791117483f05" d="M170,204.83c8-.4,18.26-.8,24.59-2.1s7.16-2.59,9.87-2.39c.51,0,.89-.52,1,6.09s2.11,21.63,5,26.84,8,9.41,8,10.91-1.06,2.51-4,2.7-20.79,2.11-24.59,2.41-14.88,1.3-18.79,2.2-5.27,1.5-5.69,1-.56-6.61-1.11-11c-.76-6-4.33-16.82-5.91-20.93s-5.42-12.3-6-13.87C150.72,202,162,205.23,170,204.83Z"/>
          </g>
        </g>
      </g>
    </g>
  </g>
  <g class="b25c1375-6a3b-44d2-ab38-7acd223f3d21">
    <g class="e6c4e28b-77e4-4f5c-b74e-76617180cf61">
      <g>
        <path class="bf5bb209-080f-4c4f-96e7-d7ab79e18096" d="M377.77-71.36a60.43,60.43,0,0,0-13.14,21q3.24-13.2,6.49-26.41L359.66-55.63Q363-74,366.4-92.33a67.71,67.71,0,0,0-9.93,32.94q-2-18.21-4.09-36.42a118.24,118.24,0,0,0-3.25,38.41l-3.39-39.7a193.26,193.26,0,0,0-.39,42.33L335.15-86.1A157.81,157.81,0,0,0,340-58,234.18,234.18,0,0,0,323.7-93.35a226.51,226.51,0,0,0,3.79,37.95Q321.58-71,315.66-86.54l.42,35.82a154.53,154.53,0,0,1-7.79-33.85l-5.94,21.48a109.35,109.35,0,0,1,4.47-41.28,121.12,121.12,0,0,0-12.62,28.6l9.93-35.11a135.94,135.94,0,0,0-20.78,30,288.49,288.49,0,0,1,15.34-43,157.64,157.64,0,0,0-21.34,38.48,140.19,140.19,0,0,1,12.41-37.11A98.63,98.63,0,0,0,268.62-89.7a166.37,166.37,0,0,1,8.08-39.51,87.16,87.16,0,0,0-10.91,29.72A119.2,119.2,0,0,1,261-131.78a114.38,114.38,0,0,0-2.66,34.38q-4.63-14.32-9.26-28.63a93.31,93.31,0,0,0,3.05,28.43q-7.52-13.12-15-26.26,4.4,12.9,8.81,25.79a80.07,80.07,0,0,0-13.62-21.47V6.18H369.26C368.87-9.75,371.76-56.26,377.77-71.36Z"/>
        <path class="a43d6e60-5a04-4939-9ca9-176c64309e1b" d="M429.72-41.26q3.18-12.45,6.37-24.92a137.87,137.87,0,0,0-9.56,22.84q1.58-12.19,3.13-24.39l-8.21,22.85L426.4-73.5a181.22,181.22,0,0,0-10.9,26.84l2.18-26.81a63.11,63.11,0,0,0-8,25.12L411.07-87a184.71,184.71,0,0,1-14.52,40l2.64-29.15a261.82,261.82,0,0,0-10.62,29,249.88,249.88,0,0,1-4.49-39.55,256.89,256.89,0,0,0-4.81,39.2q-3-19.3-6.1-38.59a165.36,165.36,0,0,0-4.69,39.93q-3.3-18-6.61-36-.83,19.43-1.64,38.86a138.42,138.42,0,0,1-7-44.31c-2.58,21-1.7,73,2.61,93.82h71.19c5.69-12.54,10-56.06,12.8-69.28Z"/>
        <path class="a6c6970f-ed51-40da-95a5-5f45e3e8ca8b" d="M535.88-48.46,538.41-75a125.77,125.77,0,0,0-7.59,28.52A171.12,171.12,0,0,1,530-70.21l-4.38,23q-.92-13.77-1.82-27.54-1.62,12.54-3.25,25.09-.63-20.19-1.24-40.37l-9.27,41.94q2.27-19.73,4.55-39.44a107,107,0,0,0-13.08,34.94l4-28.49A78.2,78.2,0,0,0,496-55.71q2.12-19,5.71-37.93a127.47,127.47,0,0,0-10.23,39.27q-2.58-15.23-5.15-30.46l2.28,27a111.93,111.93,0,0,1-9.59-26.39q1.33,13.31,2.66,26.6L476.59-73l-3.78,17.22a59.55,59.55,0,0,0,.89-16.9l-7.41,18.65L468.42-73q-4.28,6.69-8.56,13.39,2.77-10.48,5.56-21l-13.62,22a84.93,84.93,0,0,0,9-29.68,106.13,106.13,0,0,1-15.68,26q3-10,6-20a65.86,65.86,0,0,0-10.4,17q.72-11,1.43-21.94a103,103,0,0,0-7.51,26,321.4,321.4,0,0,1-1.51-34.26,184.13,184.13,0,0,0-5.61,46.41A264.47,264.47,0,0,1,420-90.08a162.88,162.88,0,0,0,2.12,48.71A107.94,107.94,0,0,1,407.6-84.82C409-64.26,414.23-13,423,6.18H534.78c4.79-17.09,7.82-65.07,9.05-82.6A122.76,122.76,0,0,0,535.88-48.46Z"/>
      </g>
    </g>
  </g>
</svg>
