<svg id="a0a2ddf5-c7cb-4bc2-a16a-ec5dafec61c4" data-name="Layer 1" xmlns="http://www.w3.org/2000/svg" xmlns:xlink="http://www.w3.org/1999/xlink" width="462.9" height="482.5" viewBox="0 0 462.9 482.5">
  <defs>
    <style>
      .ebf811f6-ec76-4885-acf2-3c8011f996fb {
        opacity: 0.5;
      }

      .ac06fb8d-e075-479e-b93e-778faa7aa7a4 {
        fill: url(#b23d403d-ed7d-4b25-b64a-29872cccb126);
      }

      .e7ba6ce7-19dd-4b5d-88f7-c5be6dc23e70 {
        fill: #31d0e5;
        stroke-miterlimit: 10;
        stroke-width: 6px;
        stroke: url(#fcbd1e71-50a9-4242-b98e-8fecbcf02663);
      }

      .fa0ea89f-3639-41af-871b-aa084a67e905 {
        fill: #fff;
      }
    </style>
    <linearGradient id="b23d403d-ed7d-4b25-b64a-29872cccb126" x1="52.73" y1="118.79" x2="402" y2="358.11" gradientUnits="userSpaceOnUse">
      <stop offset="0" stop-color="#9b81cf"/>
      <stop offset="1" stop-color="#3b139b"/>
    </linearGradient>
    <linearGradient id="fcbd1e71-50a9-4242-b98e-8fecbcf02663" x1="25.67" y1="241.25" x2="437.24" y2="241.25" gradientUnits="userSpaceOnUse">
      <stop offset="0" stop-color="#4c1da9"/>
      <stop offset="1" stop-color="#997ece"/>
    </linearGradient>
  </defs>
  <g>
    <g>
      <path class="ebf811f6-ec76-4885-acf2-3c8011f996fb" d="M444.68,252.5a208.28,208.28,0,0,0-25.42-100,211.66,211.66,0,0,0-187.81-114c-116.9,0-211.67,94.78-211.67,211.68s94.77,211.68,211.67,211.68c3,0,5.93-.08,8.87-.2C353.63,459.07,444.68,366.42,444.68,252.5Z"/>
      <g>
        <circle class="ac06fb8d-e075-479e-b93e-778faa7aa7a4" cx="231.45" cy="241.25" r="211.68"/>
        <circle class="e7ba6ce7-19dd-4b5d-88f7-c5be6dc23e70" cx="231.45" cy="241.25" r="202.78"/>
      </g>
    </g>
    <g>
      <g>
        <path class="fa0ea89f-3639-41af-871b-aa084a67e905" d="M74.26,157.13s3.06-23.17,30-8.22-22.61,20.93-45.54,18.65S74.26,157.13,74.26,157.13Z"/>
        <path class="fa0ea89f-3639-41af-871b-aa084a67e905" d="M121.56,133.44c22.25,8.93,3.3,15.17-14.61,15.61S99.31,124.51,121.56,133.44Z"/>
      </g>
      <g>
        <path class="fa0ea89f-3639-41af-871b-aa084a67e905" d="M360.31,228.5s3.07-23.17,30-8.22-22.61,20.93-45.54,18.64S360.31,228.5,360.31,228.5Z"/>
        <path class="fa0ea89f-3639-41af-871b-aa084a67e905" d="M407.62,204.81c22.24,8.93,3.3,15.16-14.62,15.61S385.37,195.88,407.62,204.81Z"/>
      </g>
    </g>
  </g>
</svg>
