<svg xmlns="http://www.w3.org/2000/svg" xmlns:xlink="http://www.w3.org/1999/xlink" width="250.26" height="250.26" viewBox="0 0 250.26 250.26">
  <defs>
    <style>
      .b5e4c175-89c4-4496-8cd2-00014a894bbb {
        fill: none;
      }

      .eedfa5b9-5f6a-48d0-8433-9de9b455a0b1 {
        isolation: isolate;
      }

      .ad7f2f57-1004-495a-b408-f34bc225402b {
        clip-path: url(#fdc82b9d-c0e6-41e7-864e-916d0438f83d);
      }

      .bb5027a4-99d2-48ee-8873-6262b1b5ec0f {
        fill: #fffdfe;
        stroke: #878787;
        stroke-width: 9px;
        mix-blend-mode: multiply;
        opacity: 0.6;
      }

      .a589930c-61b9-4284-85d8-8a37715c245d, .affaa9b9-d618-444c-b42e-fd11aedfe50e, .b4fd0e1f-7977-4f14-b268-edbc947d72b5, .bb5027a4-99d2-48ee-8873-6262b1b5ec0f, .bbab6ee1-8bdb-4093-aed4-47a3069d4639, .be4cba73-cd9e-4a4a-8a3c-1d7345c43037, .f7d7d0f1-5aa6-4d97-bf7a-ebaf30a0bee0 {
        stroke-miterlimit: 10;
      }

      .ae9e9dc5-ad8b-4368-b0c3-100be978ca18 {
        fill: #cff6ff;
      }

      .aab41e0e-6e4f-41a9-b05a-be2822cc3b01, .ad5cf2ad-6f49-44a1-b773-f3759445aa47 {
        fill: #96948a;
      }

      .ad5cf2ad-6f49-44a1-b773-f3759445aa47 {
        opacity: 0.18;
      }

      .a198fd3e-b7b4-4712-a980-9e91375bcaac, .bea618fa-4c59-417e-9edf-9874f96f2a72 {
        fill: #97a1aa;
      }

      .bea618fa-4c59-417e-9edf-9874f96f2a72 {
        opacity: 0.21;
      }

      .a198fd3e-b7b4-4712-a980-9e91375bcaac {
        opacity: 0.37;
      }

      .e8223163-c6ee-4e64-bb88-097b5b019d4a {
        fill: #66625a;
      }

      .be4cba73-cd9e-4a4a-8a3c-1d7345c43037, .e46249cb-17dc-447f-ac28-280e01ae1b8c, .e5437cf7-ad86-40b7-a139-d815968fd12a {
        fill: #3e6a84;
      }

      .e888b5e4-116d-4cc8-9654-603d84c6d1dd {
        fill: #7a7a79;
      }

      .e4862886-7059-4a8d-8c4e-9a8b72adceec {
        fill: #cccbca;
      }

      .a6be2576-04d4-47b8-83ca-4ef25f847c70 {
        fill: #7a6c53;
      }

      .f7d7d0f1-5aa6-4d97-bf7a-ebaf30a0bee0 {
        fill: #6d7e8f;
      }

      .affaa9b9-d618-444c-b42e-fd11aedfe50e, .bbab6ee1-8bdb-4093-aed4-47a3069d4639, .be4cba73-cd9e-4a4a-8a3c-1d7345c43037, .f7d7d0f1-5aa6-4d97-bf7a-ebaf30a0bee0 {
        stroke: #706c42;
      }

      .aab41e0e-6e4f-41a9-b05a-be2822cc3b01 {
        opacity: 0.73;
      }

      .b0369bf8-3c9f-44fa-b28f-99e74ab01592 {
        fill: #9eacb7;
      }

      .affaa9b9-d618-444c-b42e-fd11aedfe50e {
        fill: url(#a60424f8-4536-4597-9702-0615bdcf240c);
      }

      .e5437cf7-ad86-40b7-a139-d815968fd12a {
        opacity: 0.51;
      }

      .ea128fbc-66ab-4c59-a563-179499ee19dd {
        fill: #c48d02;
        opacity: 0.5;
      }

      .a589930c-61b9-4284-85d8-8a37715c245d, .ad3bf68a-7864-4833-9ab9-71e321d980dc, .b4fd0e1f-7977-4f14-b268-edbc947d72b5 {
        fill: #7bc3d6;
      }

      .a589930c-61b9-4284-85d8-8a37715c245d, .b4fd0e1f-7977-4f14-b268-edbc947d72b5 {
        stroke: #605545;
      }

      .a589930c-61b9-4284-85d8-8a37715c245d {
        stroke-width: 6px;
      }

      .bbab6ee1-8bdb-4093-aed4-47a3069d4639 {
        fill: #5f6e7d;
      }

      .a1463e46-e1e4-402a-8fc7-ab9c9d1f69ca {
        fill: #605545;
      }

      .b4fd0e1f-7977-4f14-b268-edbc947d72b5 {
        stroke-width: 5px;
      }

      .ec1ce0c3-b7fd-43a2-bcb9-274bf3f7f44f {
        fill: #ededed;
        opacity: 0.42;
      }

      .e5675a53-46b9-406a-b7cb-6ddbf5122b22 {
        fill: #ede9da;
      }

      .f0d220f4-95cf-4bcb-9453-810631aa6908 {
        fill: #284756;
      }

      .b8bab3f9-6ab3-4e8e-9fec-75636bb6b96c {
        fill: #7d909e;
      }

      .a61eaa0b-ff13-4104-96a8-26ddc61bcf07 {
        fill: #84a1af;
      }

      .b3a769b7-7c4f-4e6c-b343-50161967d9a9 {
        fill: url(#a64d75e8-5de7-48ec-b7e3-35920b149101);
      }

      .ab34c737-9362-442a-b965-a038344ca4bd {
        fill: #dfeaef;
        opacity: 0.35;
      }
    </style>
    <clipPath id="fdc82b9d-c0e6-41e7-864e-916d0438f83d">
      <circle class="b5e4c175-89c4-4496-8cd2-00014a894bbb" cx="4.74" cy="-355.5" r="286.49"/>
    </clipPath>
    <linearGradient id="a60424f8-4536-4597-9702-0615bdcf240c" x1="3942.57" y1="537.92" x2="3880.59" y2="430.57" gradientTransform="matrix(-0.99, -0.12, -0.12, 0.99, 4046.58, 152.42)" gradientUnits="userSpaceOnUse">
      <stop offset="0" stop-color="#febe10"/>
      <stop offset="0.2" stop-color="#fcbf16"/>
      <stop offset="0.48" stop-color="#f8c328"/>
      <stop offset="0.81" stop-color="#f0c845"/>
      <stop offset="1" stop-color="#eacc5a"/>
    </linearGradient>
    <linearGradient id="a64d75e8-5de7-48ec-b7e3-35920b149101" x1="3871.93" y1="453.16" x2="3921.68" y2="453.16" xlink:href="#a60424f8-4536-4597-9702-0615bdcf240c"/>
  </defs>
  <g class="eedfa5b9-5f6a-48d0-8433-9de9b455a0b1">
    <g id="ecf7b0e3-c2eb-4cbd-b83b-f9f910c29d6e" data-name="Layer 1">
      <g>
        <g>
          <circle class="bb5027a4-99d2-48ee-8873-6262b1b5ec0f" cx="125.13" cy="125.13" r="116.99"/>
          <circle class="ae9e9dc5-ad8b-4368-b0c3-100be978ca18" cx="124.85" cy="125.71" r="114.82"/>
        </g>
        <g id="e726697b-fc70-4ffb-b3d7-05a4c235dd9e" data-name="9">
          <g>
            <g>
              <ellipse class="ad5cf2ad-6f49-44a1-b773-f3759445aa47" cx="128.23" cy="91.37" rx="35.11" ry="82.99" transform="matrix(0.02, -1, 1, 0.02, 34.51, 217.89)"/>
              <g>
                <path class="bea618fa-4c59-417e-9edf-9874f96f2a72" d="M166.36,119.11s33.41-6.44,40.28-23c5.6-13.44-11.76-30.41-55.23-35.44,9.84,1.31,47.86,11.7,49.23,26.87S172.55,117.89,166.36,119.11Z"/>
                <path class="a198fd3e-b7b4-4712-a980-9e91375bcaac" d="M103.85,122.2s-35.25-4.88-50.59-19.84,3.12-35.78,39.41-42.73C76.81,63,54.7,74.69,54.72,90.11,54.74,111.14,103.85,122.2,103.85,122.2Z"/>
              </g>
              <g>
                <path class="bea618fa-4c59-417e-9edf-9874f96f2a72" d="M153.7,111.11s24.4-4.71,29.43-16.78c4.09-9.82-8.6-22.22-40.36-25.9,7.19,1,35,8.55,36,19.63S158.22,110.22,153.7,111.11Z"/>
                <path class="a198fd3e-b7b4-4712-a980-9e91375bcaac" d="M108,113.36s-25.76-3.56-37-14.49,2.29-26.15,28.8-31.22c-11.59,2.48-27.74,11-27.73,22.27C72.14,105.28,108,113.36,108,113.36Z"/>
              </g>
              <path class="bea618fa-4c59-417e-9edf-9874f96f2a72" d="M145.42,105.54s8-1.54,9.68-5.51c1.35-3.23-2.83-7.31-13.27-8.52,2.36.31,11.5,2.81,11.83,6.46S146.91,105.25,145.42,105.54Z"/>
              <path class="a198fd3e-b7b4-4712-a980-9e91375bcaac" d="M130.4,106.29s-8.48-1.18-12.16-4.77.75-8.6,9.47-10.27c-3.81.82-9.13,3.62-9.12,7.33C118.59,103.63,130.4,106.29,130.4,106.29Z"/>
            </g>
            <path class="e8223163-c6ee-4e64-bb88-097b5b019d4a" d="M143.26,93.38s68.39-21.45,70.41-21.7c2.45.31,8.63,13.6,7.73,18.78-.72,1.67-74.8,7.45-74.8,7.45l-.15,1.24s63.18,16.8,68.28,18.32c1.94,2.63-7.54,9.9-11.6,10.2-1.16-.85-61-25-61-25l-9.56-.86s-49.63,6.36-53.88,6.08c-4-.25-16.21-5.31-17.48-7.23,1.33-.59,67.69-3.18,67.69-3.18l-1-.93s-83-26.15-84.37-27.08c-1.36-1.18,6.07-15.28,11.86-15.31,4.25.28,75.67,38.12,76.44,38C134.53,92.17,141.24,92.12,143.26,93.38Z"/>
            <path class="e46249cb-17dc-447f-ac28-280e01ae1b8c" d="M143.17,94.06s68.4-21.45,70.41-21.7c2.46.31,8.63,13.6,7.73,18.78-.71,1.67-74.79,7.45-74.79,7.45l-.16,1.24s63.19,16.8,68.29,18.32c1.93,2.63-7.54,9.9-11.61,10.2-1.15-.85-61-25-61-25l-9.57-.86s-49.63,6.36-53.87,6.08c-4-.25-16.22-5.31-17.49-7.23,1.34-.59,67.69-3.18,67.69-3.18l-1-.93S44.78,71,43.38,70.1C42,68.92,49.45,54.82,55.25,54.79c4.25.28,75.67,38.12,76.44,38C134.44,92.85,141.16,92.8,143.17,94.06Z"/>
            <path class="e888b5e4-116d-4cc8-9654-603d84c6d1dd" d="M125.39,97c.48-3.89,6.2-6,12.5-5.25s11.27,4.28,10.8,8c-.39,3.15-5.93,4.15-12.23,3.36S125,100.1,125.39,97Z"/>
            <path class="e4862886-7059-4a8d-8c4e-9a8b72adceec" d="M125.58,97.49c.39-3.15,5.82-5.06,12.12-4.27s11.09,4,10.69,7.13-5.82,5.06-12.12,4.27S125.18,100.64,125.58,97.49Z"/>
            <path class="e888b5e4-116d-4cc8-9654-603d84c6d1dd" d="M138.66,111.51l1.57-12.46a5.64,5.64,0,0,0-5.85-1.11c-.38.63-2.73,13.9-2.73,13.9S138.38,113.82,138.66,111.51Z"/>
            <path class="e4862886-7059-4a8d-8c4e-9a8b72adceec" d="M138.39,109.69c-.23,1.88-6,.23-6,.23,1.3-7.23,1.45-10,2.27-11.32a5.11,5.11,0,0,1,5,.94s-2.91-1-3.69-.23-2,5.24-.49,6.24,3.13.91,3.36.59Z"/>
            <path class="a6be2576-04d4-47b8-83ca-4ef25f847c70" d="M129,95.76c0-.37.56-.61,1.16-.53s1,.43,1,.8-.57.6-1.16.53S129,96.12,129,95.76Z"/>
            <path class="a6be2576-04d4-47b8-83ca-4ef25f847c70" d="M129.06,101c0-.37.56-.6,1.16-.53s1,.43,1,.8-.57.61-1.16.53S129,101.37,129.06,101Z"/>
            <path class="a6be2576-04d4-47b8-83ca-4ef25f847c70" d="M144.08,97.34c0-.37.57-.6,1.16-.53s1,.43,1,.8-.57.61-1.16.53S144,97.71,144.08,97.34Z"/>
            <path class="a6be2576-04d4-47b8-83ca-4ef25f847c70" d="M143.25,102.45c0-.37.56-.6,1.16-.53s1,.43,1,.8-.57.6-1.16.53S143.2,102.82,143.25,102.45Z"/>
            <path class="f7d7d0f1-5aa6-4d97-bf7a-ebaf30a0bee0" d="M169.05,165.69s6.42,14.28,6.15,21.89a26.12,26.12,0,0,0,3.81-.33,3.63,3.63,0,0,0,3.41-2.26c1.67-1.35,4.31.1,3.36,2.17s-2.86,2.39-4.76,3-47.31,2.46-49.51,2-6.57-2.57-6.11-4.26c.68-1.36,2.65-1.17,3.47-.19s2.87,1.6,5.24,1.71,7.23-.16,7.23-.16-.92-12.59-7.76-22.53c1.23-.85,4-.82,4-.82s5.95,13,7.38,23.11c4.4-.13,26.72-1.16,26.72-1.16s.22-12.76-8-22.38C165.86,164.22,167.32,163.47,169.05,165.69Z"/>
            <ellipse class="aab41e0e-6e4f-41a9-b05a-be2822cc3b01" cx="52.75" cy="137.36" rx="18.11" ry="11.16" transform="translate(-90.1 172.62) rotate(-82.86)"/>
            <path class="b0369bf8-3c9f-44fa-b28f-99e74ab01592" d="M138,168.78s4.72,13.3,6.43,19.55C143.45,186.32,144.11,180.13,138,168.78Z"/>
            <path class="be4cba73-cd9e-4a4a-8a3c-1d7345c43037" d="M168,123.25s-4.89-11-20.26-7.5c5.72-1.5.39-5.81-4.81-7.26-3.31-.92-31.11-6.52-49.54,16.47C105.56,129.3,167.75,124.88,168,123.25Z"/>
            <path class="affaa9b9-d618-444c-b42e-fd11aedfe50e" d="M189.79,139c-.58-.06-8.89-14.24-13.69-16.34s-11.23-3.88-46.54-2.46c-20.71.84-24.21-.22-35,1.7-5.63,1-14.59,6.71-14.59,6.71s-37.55,6.54-38.49,5.1,1.2-12.09-4.82-27.55c-1.31-3.36-4.4-4.81-6.68-1.81-5.25,6.88,4.27,28.08,3.56,32.87-.65,4.43-13.75,18.28-10.71,24.14,1.65,3.17,5,1.92,8.17-.85,3.93-3.45,4.8-13.67,9.19-16.53,9.75-6.35,35.69-6.3,45,.76,4.58,3.48,9.53,15.7,15.32,18.86s21.49,4.76,47.73,4.11,52.36-.89,55-10C205.21,150.74,203,140.37,189.79,139Z"/>
            <polygon class="e5437cf7-ad86-40b7-a139-d815968fd12a" points="30.84 103.43 36.56 137.21 22.55 160.61 23.76 162.54 38.27 137.43 32.4 102.73 30.84 103.43"/>
            <path class="ea128fbc-66ab-4c59-a563-179499ee19dd" d="M190.42,161c-23.1,1.84-55.64,2.76-79.9-1-14.18-.15-21.85-11.68-21.85-11.68s6.07,11.94,11.86,15.1,21.5,4.76,47.73,4.11c21.61-.53,41.09-.46,48.94-4.79,0,0,1.77-1.19-.35-1.84S190.42,161,190.42,161Z"/>
            <path class="a589930c-61b9-4284-85d8-8a37715c245d" d="M143.76,126.12c3.21,1.55,3.21,15.1,2.52,17.23-.81,2.49-9.23,1.21-11.52-.26-1.71-1.1-1.82-11.45.58-15.78C136.29,125.59,141.9,125.23,143.76,126.12Z"/>
            <path class="bbab6ee1-8bdb-4093-aed4-47a3069d4639" d="M144.79,161.56c-.23.44-12.89,5.38-12.91,18.3,4,.25,15.42.13,16.59-1.12,1.49-1.21,2.91-5.86,4.88-5.5s3,.67,2.14,2.24-3.33,6.46-6.12,7.29S95,185,92.33,185c-3.08-.89-5.9-5.77-5.53-7.74.76-1.08,1.69-1.34,2.38-.08.66,1.42,1.52,3.88,3.82,4.34s9.48.18,9.48.18,0-13.91,9.21-22.83a4,4,0,0,1,3.82-.42c.75.38-.3,1.91-.63,2.08-1.07.54-9.33,7.28-9.67,20.67,7-.47,23.92-.74,23.92-.74s-1.14-13.27,12.79-21.64C145.83,156.47,145.9,159.35,144.79,161.56Z"/>
            <path class="a1463e46-e1e4-402a-8fc7-ab9c9d1f69ca" d="M179.61,126s-12.51-4.1-24.86-2c-1.54,1.93-1.26,15,.91,15.73,0,0,7.43-2.43,22.47-1.91,7.68.14,12,1.58,11.66,1.17,0,0-3.44-5.18-6.93-9.57C181.91,128.21,180.44,126.11,179.61,126Z"/>
            <path class="ad3bf68a-7864-4833-9ab9-71e321d980dc" d="M181.47,127.63s4.78,6.28,7.53,10.24c-.47-.06-9.43-1.14-9.69-1.49-1.09-1.48-3.91-6.27-4.37-10C174.88,125.85,181.14,127.52,181.47,127.63Z"/>
            <path class="ad3bf68a-7864-4833-9ab9-71e321d980dc" d="M171.67,125.81c2.14,1.79,4.35,7.48,4,10.41-.08.65-13.43.77-18.44,1.3-2.66.28-2.64-10.35-1.16-12C156.94,124.77,169.65,124.12,171.67,125.81Z"/>
            <path class="b4fd0e1f-7977-4f14-b268-edbc947d72b5" d="M114.26,138.39a2.5,2.5,0,0,0,2.17,2.79l5.41,1.11a2.51,2.51,0,0,0,2.79-2.17L126,129.19a2.5,2.5,0,0,0-2.17-2.79l-5.58.28a2.5,2.5,0,0,0-2.79,2.17Z"/>
            <path class="b4fd0e1f-7977-4f14-b268-edbc947d72b5" d="M100,137.42a2.27,2.27,0,0,0,2,2.55l4.94,1a2.28,2.28,0,0,0,2.55-2l1.25-10a2.28,2.28,0,0,0-2-2.55l-5.1.26a2.28,2.28,0,0,0-2.55,2Z"/>
            <path class="ec1ce0c3-b7fd-43a2-bcb9-274bf3f7f44f" d="M212.94,72.52c-1,.28-59.77,19.3-59.77,19.3S210,75.5,212.33,76,221,86.92,221,86.92,216.74,73,212.94,72.52Z"/>
            <path class="ec1ce0c3-b7fd-43a2-bcb9-274bf3f7f44f" d="M121.89,87.9s-64.55-33-66.64-33.11-9.09,5.13-11.78,14.63C44.89,65,52.21,57.62,55.7,58.06S121.89,87.9,121.89,87.9Z"/>
            <path class="ec1ce0c3-b7fd-43a2-bcb9-274bf3f7f44f" d="M122.61,98.54c-.72-.16-59.8,2.55-59.8,2.55s-2.31,1.84,13.22,6.4c-4.11-1.23-9.53-5.22-7.63-5.22S122.61,98.54,122.61,98.54Z"/>
            <path class="ec1ce0c3-b7fd-43a2-bcb9-274bf3f7f44f" d="M207.11,125.18s8.62-6,6.58-7.31c-1.5-1.11-63.76-16.58-63.76-16.58s59,14.77,59.82,18S207.11,125.18,207.11,125.18Z"/>
            <path class="e5675a53-46b9-406a-b7cb-6ddbf5122b22" d="M62.32,130.06s-1.32-7.49-6.39-9.57c-4.12-1.69-9.85,1.48-12.37,10.74.63-2.09,4.72-10,9.54-9.74S62.07,128.67,62.32,130.06Z"/>
            <path class="e5675a53-46b9-406a-b7cb-6ddbf5122b22" d="M62,143.75s-2.3,7.48-7.35,10.28S43.39,152.08,42,144c.73,3.57,3.94,8.79,8.81,9.33C57.42,154,62,143.75,62,143.75Z"/>
            <path class="ea128fbc-66ab-4c59-a563-179499ee19dd" d="M178.64,124.63s-2.26-3.23-12.34-4.42c-14.21-1.68-27.11-.1-38-.1-26.1,0-36.39,1.85-36.81,2.82,2.56.13,38.22-1.44,48.2-1.13C147.13,122,171.18,121.94,178.64,124.63Z"/>
            <path class="ea128fbc-66ab-4c59-a563-179499ee19dd" d="M202.14,146.37s-2.42-6.61-16-7.92c-12.32-1.19-26.28.09-28.05.92C161.5,138.29,190.28,138.53,202.14,146.37Z"/>
            <path class="ea128fbc-66ab-4c59-a563-179499ee19dd" d="M80,128.59s2,2.95.09,4c-6,3.23-38.62,1.4-38.62,1.4S55.05,133.19,80,128.59Z"/>
            <path class="ea128fbc-66ab-4c59-a563-179499ee19dd" d="M37,106.94a66.58,66.58,0,0,1,3.86,16.35c.53,6.3-.07,10.29.66,10.4-1.76-.12-2,.32-3.62-9.42-1.61-10-1.51-12.7-3.83-16.32-1.41-2.2-5.15-1.35-5.15-1.35a6.32,6.32,0,0,1,2-3.17C32.58,102.2,35.38,102.45,37,106.94Z"/>
            <path class="f0d220f4-95cf-4bcb-9453-810631aa6908" d="M161.53,118.3c.47.43-5.83-2.68-9.92-2.13C152.44,115.21,158.68,115.75,161.53,118.3Z"/>
            <path class="f0d220f4-95cf-4bcb-9453-810631aa6908" d="M149.3,113s-4.08-4.23-16.64-4.78-24.59,4.37-31.2,9.65c3.05-2.24,17.8-9,30.63-7.82C143,110.43,149.3,113,149.3,113Z"/>
            <path class="b8bab3f9-6ab3-4e8e-9fec-75636bb6b96c" d="M144.74,159s-12.68,5.67-14,19.42C129.56,175.3,133,162.23,144.74,159Z"/>
            <path class="b8bab3f9-6ab3-4e8e-9fec-75636bb6b96c" d="M114.13,159.56s-10.36,7.21-10,20.13C102.52,176,106.51,161.51,114.13,159.56Z"/>
            <path class="b8bab3f9-6ab3-4e8e-9fec-75636bb6b96c" d="M154.62,174.39s-2.39,6.66-7,7.44-53.15,2.87-55.32,2.41S87.52,178,87.52,178s3,5.15,6.41,5.16,51.26-2.3,53.28-2.67C151.19,179.87,154.62,174.39,154.62,174.39Z"/>
            <path class="b0369bf8-3c9f-44fa-b28f-99e74ab01592" d="M168.94,167.14s6.4,12.28,5.16,19.35C173.91,185.16,170.52,169.7,168.94,167.14Z"/>
            <path class="b0369bf8-3c9f-44fa-b28f-99e74ab01592" d="M184.79,185.23s-1.64,3.55-5.13,4.12c-3.65.59-45.72,2.25-48.07,1.88s-4.7-2.16-4.9-3.37c.36.87,3.29,3,8.67,2.56s41.77-2.15,43.72-2.17S184.79,185.23,184.79,185.23Z"/>
            <path class="e46249cb-17dc-447f-ac28-280e01ae1b8c" d="M203.64,150.54s-70.77,5.15-116.49-3.87L89.57,150s30.81,7.43,114.28,3.18Z"/>
            <path class="a61eaa0b-ff13-4104-96a8-26ddc61bcf07" d="M203.81,152.57S134.7,157.36,88.9,149l-.23-.75s38.71,8.09,115,3.15Z"/>
            <polygon class="b3a769b7-7c4f-4e6c-b343-50161967d9a9" points="149.01 115.27 99.48 118.58 98.33 119.61 143.9 116.13 147.71 115.75 149.01 115.27"/>
            <path class="ab34c737-9362-442a-b965-a038344ca4bd" d="M175.59,134.31l-17-9.32-2.57.49,19.6,10.74S175.66,134.73,175.59,134.31Z"/>
            <path class="ab34c737-9362-442a-b965-a038344ca4bd" d="M124.59,137.45l-6.21-10.27-1.11.14,7,11.92A9.15,9.15,0,0,0,124.59,137.45Z"/>
            <path class="ab34c737-9362-442a-b965-a038344ca4bd" d="M124.09,140.34l-7.19-12.86-.6.47,6.93,13.57S124.16,140.71,124.09,140.34Z"/>
            <path class="ab34c737-9362-442a-b965-a038344ca4bd" d="M109.31,137.3l-5.5-10.18-1,.16L109,139.1A9.38,9.38,0,0,0,109.31,137.3Z"/>
            <path class="ab34c737-9362-442a-b965-a038344ca4bd" d="M108.94,139.24l-6.47-11.8-.55.43,6.24,12.45S109,139.58,108.94,139.24Z"/>
            <path class="ab34c737-9362-442a-b965-a038344ca4bd" d="M143.71,143.41l-7.6-15.52-.39.58,6.93,15.37S143.76,143.82,143.71,143.41Z"/>
            <path class="ab34c737-9362-442a-b965-a038344ca4bd" d="M187.26,135.13l-9.76-8.41-1.44-.37,12.25,10.53A6.89,6.89,0,0,1,187.26,135.13Z"/>
            <path class="ab34c737-9362-442a-b965-a038344ca4bd" d="M188.21,137.66l-13-11.39-.14,1.1,11.71,10.12S188.23,138.07,188.21,137.66Z"/>
            <path class="ab34c737-9362-442a-b965-a038344ca4bd" d="M173.37,136.58l-17.87-9.42-.38,1.68L171,136.71S173.44,137,173.37,136.58Z"/>
          </g>
        </g>
      </g>
    </g>
  </g>
</svg>
