<svg xmlns="http://www.w3.org/2000/svg" xmlns:xlink="http://www.w3.org/1999/xlink" width="462.9" height="482.5" viewBox="0 0 462.9 482.5">
  <defs>
    <style>
      .b12082fa-cc6e-4221-bc1a-4c6aa8c0f171, .fd019b2a-7346-437e-94dc-7f6135bd1d2a {
        fill: none;
      }

      .b798b19f-6e6f-42a1-84c1-2767075c4026 {
        isolation: isolate;
      }

      .f7447523-24cd-4170-ac01-6a4362d8f830, .ff60a607-dbc3-44e2-8950-52d23cc2fe95 {
        opacity: 0.5;
      }

      .fb1e2b77-2c77-4991-be58-7398f7ad5a6c {
        fill: url(#f037168b-099f-4b2e-9e9f-8fafb283afc7);
      }

      .ab4d5a86-cc81-4a1b-9674-325b388028d3 {
        fill: #31d0e5;
        stroke-width: 6px;
        stroke: url(#e36bbe4f-4f78-41dc-ad73-6d6bc636fe23);
      }

      .ab4d5a86-cc81-4a1b-9674-325b388028d3, .ec005064-5dda-46d3-a6ea-f7c39673a0d5, .fd019b2a-7346-437e-94dc-7f6135bd1d2a {
        stroke-miterlimit: 10;
      }

      .aa4591de-0c6a-436f-8e20-8d1061a801a8 {
        clip-path: url(#f95f6fbd-949e-478b-bb0a-11e908af6c49);
      }

      .ae49e456-73cb-43a0-9961-c2bf282cb02c {
        fill: #3fc416;
      }

      .b35d903b-a53a-42c6-aeed-3b972a7234e5 {
        fill: #0028ff;
      }

      .e81f3629-1de3-4d40-b174-462d0ae93dec {
        fill: red;
      }

      .e53b07bc-f651-4b38-89cc-d8ab802cb4ad {
        fill: #00a6fd;
      }

      .aa5fbb75-089a-4b88-8330-c2689afd4964 {
        fill: #fb8000;
      }

      .e6eb3eee-d7ff-4ce1-842d-6f6c7fb2c8a2 {
        fill: #020fe9;
      }

      .ec005064-5dda-46d3-a6ea-f7c39673a0d5 {
        fill: #ff9906;
        stroke: #d6380d;
        stroke-width: 0.75px;
      }

      .ae4db81e-26d4-4792-999f-4e0b5aa59648, .fcd29c25-2efd-4caa-934e-3740cab561aa {
        mix-blend-mode: screen;
      }

      .ae4db81e-26d4-4792-999f-4e0b5aa59648 {
        opacity: 0.3;
      }

      .f3d8b53a-2174-43dd-89b5-cfb5cfc299cb {
        fill: #ff7880;
      }

      .ff60a607-dbc3-44e2-8950-52d23cc2fe95 {
        mix-blend-mode: multiply;
      }

      .b531e2db-b927-47ba-9f90-d0a1b61faa95 {
        fill: url(#bf7ce9d9-4618-497d-9742-bdee1990b0a6);
      }

      .f1770809-d32c-4b77-9693-84bcdcc2eaa1 {
        fill: url(#e92577ef-3ae8-4196-b4e3-40b9aadd0de2);
      }

      .fd019b2a-7346-437e-94dc-7f6135bd1d2a {
        stroke: #2f404f;
        stroke-width: 0.5px;
      }

      .f01a9698-67c9-4897-a1e7-3b67aa7faaf9 {
        fill: #00a3fd;
      }

      .baafc515-dd6f-4c04-8ff2-910726e8519d {
        fill: #e53963;
      }

      .fcd29c25-2efd-4caa-934e-3740cab561aa {
        opacity: 0.2;
      }

      .a7af5813-2c1c-4aec-8d26-a8e7c20cbb70 {
        fill: url(#bf5bffbc-3399-43a6-b465-3ec6c3146ea4);
      }

      .f603a5b9-2924-4ea5-9042-6abc8a96ef48 {
        fill: url(#a3d24362-594f-47c4-9ab9-d8604ad54d8b);
      }

      .ef660eab-f925-4613-b98d-caac0df58df4 {
        fill: url(#a308952c-3d04-4471-af8f-b7b5cdecc0a2);
      }
    </style>
    <linearGradient id="f037168b-099f-4b2e-9e9f-8fafb283afc7" x1="52.73" y1="118.79" x2="402" y2="358.11" gradientUnits="userSpaceOnUse">
      <stop offset="0" stop-color="#9b81cf"/>
      <stop offset="1" stop-color="#3b139b"/>
    </linearGradient>
    <linearGradient id="e36bbe4f-4f78-41dc-ad73-6d6bc636fe23" x1="25.67" y1="241.25" x2="437.24" y2="241.25" gradientUnits="userSpaceOnUse">
      <stop offset="0" stop-color="#4c1da9"/>
      <stop offset="1" stop-color="#997ece"/>
    </linearGradient>
    <clipPath id="f95f6fbd-949e-478b-bb0a-11e908af6c49">
      <circle class="b12082fa-cc6e-4221-bc1a-4c6aa8c0f171" cx="235.46" cy="243.57" r="209.22"/>
    </clipPath>
    <linearGradient id="bf7ce9d9-4618-497d-9742-bdee1990b0a6" x1="2449.47" y1="-6826.02" x2="2450.39" y2="-6717.84" gradientTransform="matrix(-0.69, 0.33, 0.33, 0.69, 4250.15, 4050.87)" gradientUnits="userSpaceOnUse">
      <stop offset="0" stop-color="#cc8122"/>
      <stop offset="0.32" stop-color="#9e5e16"/>
      <stop offset="0.78" stop-color="#612f06"/>
      <stop offset="1" stop-color="#491c00"/>
    </linearGradient>
    <linearGradient id="e92577ef-3ae8-4196-b4e3-40b9aadd0de2" x1="2389.21" y1="-6780.46" x2="2510.67" y2="-6780.46" xlink:href="#bf7ce9d9-4618-497d-9742-bdee1990b0a6"/>
    <linearGradient id="bf5bffbc-3399-43a6-b465-3ec6c3146ea4" x1="-2334" y1="-8892.33" x2="-2274.44" y2="-8892.33" gradientTransform="matrix(-1.8, -0.47, -0.47, 1.8, -8150.54, 15024.81)" gradientUnits="userSpaceOnUse">
      <stop offset="0" stop-color="#ff0a3b"/>
      <stop offset="0.67" stop-color="#ff576b"/>
      <stop offset="1" stop-color="#ff7880"/>
    </linearGradient>
    <linearGradient id="a3d24362-594f-47c4-9ab9-d8604ad54d8b" x1="-2290.24" y1="-8915.91" x2="-2289.59" y2="-8838.49" gradientTransform="matrix(-1.8, -0.47, -0.47, 1.8, -8150.54, 15024.81)" xlink:href="#bf7ce9d9-4618-497d-9742-bdee1990b0a6"/>
    <linearGradient id="a308952c-3d04-4471-af8f-b7b5cdecc0a2" x1="-2334" y1="-8883.33" x2="-2245.82" y2="-8883.33" gradientTransform="matrix(-1.8, -0.47, -0.47, 1.8, -8150.54, 15024.81)" xlink:href="#bf7ce9d9-4618-497d-9742-bdee1990b0a6"/>
  </defs>
  <g class="b798b19f-6e6f-42a1-84c1-2767075c4026">
    <g id="a6131e08-5fd1-4155-855e-76a4cf6bd35e" data-name="Layer 1">
      <g>
        <path class="f7447523-24cd-4170-ac01-6a4362d8f830" d="M444.68,252.5a208.28,208.28,0,0,0-25.42-100,211.66,211.66,0,0,0-187.81-114c-116.9,0-211.67,94.78-211.67,211.68s94.77,211.68,211.67,211.68c3,0,5.93-.08,8.87-.2C353.63,459.07,444.68,366.42,444.68,252.5Z"/>
        <g>
          <g>
            <circle class="fb1e2b77-2c77-4991-be58-7398f7ad5a6c" cx="231.45" cy="241.25" r="211.68"/>
            <circle class="ab4d5a86-cc81-4a1b-9674-325b388028d3" cx="231.45" cy="241.25" r="202.78"/>
          </g>
          <g class="aa4591de-0c6a-436f-8e20-8d1061a801a8">
            <g>
              <g>
                <g>
                  <path class="ae49e456-73cb-43a0-9961-c2bf282cb02c" d="M373.86,188.91l.4.45c.26.3.61.72,1,1.24a9.8,9.8,0,0,1,.54.86,4.4,4.4,0,0,1,.44,1,3.25,3.25,0,0,1,.12.52c0,.2,0,.41,0,.61a12.45,12.45,0,0,0,.17,1.35,7.88,7.88,0,0,0,.35,1.35,4.68,4.68,0,0,0,.63,1.24,3.65,3.65,0,0,0,.94.94,4.41,4.41,0,0,0,1,.5,6.43,6.43,0,0,0,.89.25c.26.06.49.1.69.13.38.07.6.09.6.09l-.54-.29c-.34-.18-.85-.41-1.39-.73a4.77,4.77,0,0,1-.8-.58,3.53,3.53,0,0,1-.64-.82,4.81,4.81,0,0,1-.44-1.06,8.91,8.91,0,0,1-.28-1.21c-.08-.42-.13-.84-.19-1.26,0-.22,0-.41-.08-.67a4.3,4.3,0,0,0-.21-.69,5.25,5.25,0,0,0-.66-1.12,6.81,6.81,0,0,0-.76-.82,8.2,8.2,0,0,0-.72-.59c-.22-.16-.42-.29-.59-.39A3.36,3.36,0,0,0,373.86,188.91Z"/>
                  <path class="b35d903b-a53a-42c6-aeed-3b972a7234e5" d="M373.86,189a7.23,7.23,0,0,1,.84.21,6.53,6.53,0,0,1,.93.35,5.5,5.5,0,0,1,1.07.64,3.32,3.32,0,0,1,.91,1.08,3.27,3.27,0,0,1,.35,1.49,6.12,6.12,0,0,1-.26,1.71c-.05.14-.08.29-.14.43l-.17.46c-.1.31-.21.62-.32.93s-.16.68-.24,1-.09.69-.13,1,0,.69,0,1l.06.51a2.84,2.84,0,0,0,.1.49,4.79,4.79,0,0,0,.29.93,4.28,4.28,0,0,0,.2.43l.23.4a3,3,0,0,0,.25.37l.26.34a7.73,7.73,0,0,0,.58.57,4.55,4.55,0,0,0,.58.45,5,5,0,0,0,.57.34,4.14,4.14,0,0,0,.53.25,3.52,3.52,0,0,0,.45.16l.38.11.28.05.24.05a.11.11,0,0,0,.12-.09.09.09,0,0,0-.07-.11h0l-.21-.08-.25-.11-.34-.16a4.09,4.09,0,0,1-.39-.22,2.93,2.93,0,0,1-.45-.3,3.8,3.8,0,0,1-.47-.37,5.16,5.16,0,0,1-.48-.46c-.16-.17-.3-.37-.45-.56l-.2-.31a2.27,2.27,0,0,1-.19-.34,3.78,3.78,0,0,1-.17-.35c-.06-.12-.09-.25-.14-.38a2.52,2.52,0,0,1-.12-.39l-.09-.41a3,3,0,0,1-.06-.42l0-.43c0-.15,0-.3,0-.45a3.27,3.27,0,0,1,0-.44c0-.3.07-.61.13-.9s.13-.58.23-.89l.3-.93.16-.46c.06-.16.1-.33.15-.49a6.33,6.33,0,0,0,.22-2,3.75,3.75,0,0,0-.58-1.88,3.35,3.35,0,0,0-.57-.71,3.89,3.89,0,0,0-.66-.51,4.91,4.91,0,0,0-1.28-.58,6.58,6.58,0,0,0-1-.21,5,5,0,0,0-.67,0h-.24a.1.1,0,0,0-.1.11A.11.11,0,0,0,373.86,189Z"/>
                  <path class="e81f3629-1de3-4d40-b174-462d0ae93dec" d="M373.85,189l.19.06a3.05,3.05,0,0,1,.5.26,2.55,2.55,0,0,1,.65.57,3.24,3.24,0,0,1,.57.95,5.21,5.21,0,0,1,.32,1.28,9.46,9.46,0,0,1,.05,1.52c0,.27,0,.54-.08.81s-.07.56-.11.85a7.18,7.18,0,0,0,0,1.91,5.32,5.32,0,0,0,.63,1.86,4.77,4.77,0,0,0,1.27,1.4,5.62,5.62,0,0,0,1.53.8,7,7,0,0,0,1.46.34,7.35,7.35,0,0,0,2.2,0,3.38,3.38,0,0,0,.81-.24h0a.11.11,0,0,0,.05-.14.11.11,0,0,0-.12-.06l-.2,0-.58,0a9,9,0,0,1-2.05-.26,8.19,8.19,0,0,1-1.28-.45,5.22,5.22,0,0,1-1.24-.77,4,4,0,0,1-1-1.16,4.4,4.4,0,0,1-.47-1.49,6.35,6.35,0,0,1,0-1.63,13.05,13.05,0,0,0,.13-1.77,8.32,8.32,0,0,0-.17-1.68,5.06,5.06,0,0,0-.53-1.46,3.57,3.57,0,0,0-.82-1,2.9,2.9,0,0,0-.86-.52,2.29,2.29,0,0,0-.61-.17l-.23,0a.1.1,0,0,0-.1.11A.1.1,0,0,0,373.85,189Z"/>
                  <g>
                    <path class="ae49e456-73cb-43a0-9961-c2bf282cb02c" d="M292,228.65a5,5,0,0,0-.11.61,6.08,6.08,0,0,0-.07.71c0,.28,0,.59,0,.93A6.6,6.6,0,0,0,292,232a4.77,4.77,0,0,0,.45,1.22,3.3,3.3,0,0,0,.4.6c.18.2.32.33.47.49.29.31.59.61.86.93a11.24,11.24,0,0,1,.76,1,4.72,4.72,0,0,1,.54,1,3.13,3.13,0,0,1,.23,1,4.63,4.63,0,0,1-.05,1c-.09.63-.23,1.17-.3,1.55s-.11.61-.11.61.12-.19.3-.53c.1-.18.21-.38.33-.63a9,9,0,0,0,.37-.85,5.09,5.09,0,0,0,.25-1.13,3.83,3.83,0,0,0-.13-1.33,5.56,5.56,0,0,0-.57-1.27,8.25,8.25,0,0,0-.82-1.12c-.3-.34-.62-.67-.94-1l-.44-.41a3.2,3.2,0,0,1-.33-.42,4.69,4.69,0,0,1-.5-1c-.13-.33-.23-.66-.32-1-.16-.62-.27-1.16-.34-1.54S292,228.65,292,228.65Z"/>
                    <path class="e53b07bc-f651-4b38-89cc-d8ab802cb4ad" d="M291.89,228.59l-.16.19a6.79,6.79,0,0,0-.86,1.51,5.14,5.14,0,0,0-.36,1.38,5.65,5.65,0,0,0,0,.83,3.71,3.71,0,0,0,.19.9,3.91,3.91,0,0,0,1.09,1.63,6.19,6.19,0,0,0,1.72,1.09c.15.06.31.14.47.19l.45.16.91.35c.3.11.55.25.83.37s.51.31.77.46.24.18.36.27.24.17.35.27l.31.3a2.13,2.13,0,0,1,.29.31c.09.1.17.21.26.32a4,4,0,0,1,.23.34,4,4,0,0,1,.2.35c.06.12.12.23.17.35a2.67,2.67,0,0,1,.14.36l.12.35a6.83,6.83,0,0,1,.14.71,3.85,3.85,0,0,1,.06.66,4.14,4.14,0,0,1,0,.61,4.08,4.08,0,0,1-.06.53,3,3,0,0,1-.07.46l-.08.36c0,.11-.06.19-.08.27l-.07.22h0a.1.1,0,0,0,.07.13.12.12,0,0,0,.12-.05l.11-.21c0-.07.08-.16.14-.26l.15-.36c.06-.14.1-.3.16-.47a3.06,3.06,0,0,0,.13-.56,4.55,4.55,0,0,0,.1-.66c0-.24,0-.49,0-.75s-.06-.53-.08-.81l-.11-.42a2.3,2.3,0,0,0-.12-.43c-.06-.14-.11-.28-.17-.43a4.11,4.11,0,0,0-.21-.42,6,6,0,0,0-.53-.82,3,3,0,0,0-.33-.38l-.34-.36c-.26-.22-.52-.45-.8-.65s-.57-.37-.87-.53-.64-.32-.94-.45l-.92-.33-.46-.15c-.15-.05-.28-.11-.42-.17a5.59,5.59,0,0,1-1.49-.86,3.26,3.26,0,0,1-.93-1.21,3.39,3.39,0,0,1-.27-1.38,5.9,5.9,0,0,1,.17-1.25,9.7,9.7,0,0,1,.31-1,7.24,7.24,0,0,1,.37-.8.1.1,0,0,0,0-.14A.09.09,0,0,0,291.89,228.59Z"/>
                    <path class="aa5fbb75-089a-4b88-8330-c2689afd4964" d="M291.88,228.59a2.05,2.05,0,0,0-.12.2,2.31,2.31,0,0,0-.26.58,3,3,0,0,0-.13,1,3.49,3.49,0,0,0,.28,1.29,5,5,0,0,0,.79,1.33,8.45,8.45,0,0,0,1.2,1.19,13.18,13.18,0,0,0,1.44,1,6.24,6.24,0,0,1,1.25,1,4.31,4.31,0,0,1,.86,1.31,4,4,0,0,1,.29,1.48,5.48,5.48,0,0,1-.18,1.47,7.71,7.71,0,0,1-.46,1.28,9.41,9.41,0,0,1-1.07,1.79c-.16.19-.29.34-.38.43l-.15.14a.1.1,0,0,0,0,.15.1.1,0,0,0,.12,0h0a3.48,3.48,0,0,0,.69-.49,7.51,7.51,0,0,0,1.41-1.72,7.16,7.16,0,0,0,.65-1.36,5.77,5.77,0,0,0,.34-1.7,4.75,4.75,0,0,0-.3-1.88,5.12,5.12,0,0,0-1-1.66,7,7,0,0,0-1.48-1.19l-.73-.44c-.23-.14-.45-.29-.67-.45a9.26,9.26,0,0,1-1.14-1,5.09,5.09,0,0,1-.8-1.06,3.67,3.67,0,0,1-.38-1,2.9,2.9,0,0,1,0-.87,2.53,2.53,0,0,1,.12-.56,1.52,1.52,0,0,1,.07-.18.11.11,0,0,0-.05-.14A.11.11,0,0,0,291.88,228.59Z"/>
                  </g>
                  <path class="e53b07bc-f651-4b38-89cc-d8ab802cb4ad" d="M381.68,300l-.12-.12-.35-.36a14.91,14.91,0,0,0-1.44-1.26,20,20,0,0,0-2.46-1.66,33.14,33.14,0,0,0-3.43-1.72c-1.27-.58-2.68-1.11-4.12-1.71a31.34,31.34,0,0,1-4.34-2.08,12,12,0,0,1-1.94-1.43,11.13,11.13,0,0,1-.8-.88,8.39,8.39,0,0,1-.66-1,9.51,9.51,0,0,1-1-4.79,24.11,24.11,0,0,1,.76-5.23l.16-.67c.06-.22.11-.47.16-.7.09-.46.18-.92.24-1.38a21.62,21.62,0,0,0,.21-2.75,21.09,21.09,0,0,0-.54-5.17,23.19,23.19,0,0,0-1.48-4.38,25.48,25.48,0,0,0-1.89-3.38,26,26,0,0,0-1.79-2.36c-.54-.62-1-1.08-1.31-1.39-.15-.15-.28-.26-.37-.34l-.13-.11a.2.2,0,0,0-.29,0,.21.21,0,0,0,0,.28h0l.11.12.32.37c.27.33.66.82,1.12,1.48a24.56,24.56,0,0,1,1.53,2.43,25.88,25.88,0,0,1,1.56,3.36,22.75,22.75,0,0,1,1.15,4.2,20.81,20.81,0,0,1,0,7.32c-.08.43-.16.85-.26,1.27-.06.21-.1.41-.16.63l-.18.65a23.94,23.94,0,0,0-1,5.68,13.23,13.23,0,0,0,.22,3,11.36,11.36,0,0,0,.41,1.49,10.45,10.45,0,0,0,.65,1.4,9.13,9.13,0,0,0,.86,1.27,10.72,10.72,0,0,0,1,1.09,13.93,13.93,0,0,0,1.13.9,13.72,13.72,0,0,0,1.19.74,30.47,30.47,0,0,0,4.71,2l4.22,1.42c1.29.44,2.44.9,3.45,1.34s1.85.9,2.54,1.29,1.2.76,1.54,1l.54.4a.19.19,0,0,0,.28,0A.2.2,0,0,0,381.68,300Z"/>
                  <path class="aa5fbb75-089a-4b88-8330-c2689afd4964" d="M354.15,255.09l.54.43c.36.29.86.73,1.49,1.29s1.37,1.28,2.18,2.14a37.79,37.79,0,0,1,2.56,3,29.47,29.47,0,0,1,2.52,3.85c.38.71.75,1.46,1.08,2.24a18.91,18.91,0,0,1,.83,2.44,18.54,18.54,0,0,1,.51,2.59c.06.44.09.9.11,1.34l0,.36v.33c0,.22,0,.45,0,.68a22,22,0,0,1-.94,5.49c-.52,1.83-1.21,3.66-1.8,5.53A30.42,30.42,0,0,0,362,292.5a21.08,21.08,0,0,0,.18,5.53,24.93,24.93,0,0,0,1.32,4.71,32.62,32.62,0,0,0,1.73,3.71c.57,1.07,1.13,2,1.59,2.69.23.36.45.68.64,1s.35.51.49.7l.41.57a.21.21,0,0,0,.35-.22h0l-.34-.61c-.22-.41-.53-1-.92-1.76s-.84-1.69-1.31-2.77a37.28,37.28,0,0,1-1.39-3.7,24.8,24.8,0,0,1-1-4.5,19.18,19.18,0,0,1,.06-5.07,28.36,28.36,0,0,1,1.35-5.31c.62-1.79,1.33-3.63,1.91-5.57a26.92,26.92,0,0,0,.71-3,19.71,19.71,0,0,0,.31-3.06c0-.25,0-.51,0-.77v-.39l0-.36c0-.52-.08-1-.15-1.51a17.86,17.86,0,0,0-.64-2.89,22.07,22.07,0,0,0-2.29-5,26.92,26.92,0,0,0-2.93-3.91,32.59,32.59,0,0,0-5.38-4.77c-.71-.5-1.29-.85-1.69-1.09s-.62-.35-.62-.35a.21.21,0,0,0-.28.09A.22.22,0,0,0,354.15,255.09Z"/>
                  <path class="e6eb3eee-d7ff-4ce1-842d-6f6c7fb2c8a2" d="M354.16,254.52l0,0,.08.12c.07.1.17.25.29.46a11,11,0,0,1,.86,1.91,14.89,14.89,0,0,1,.73,3.17,18.93,18.93,0,0,1,0,4.19,26.67,26.67,0,0,1-1.05,4.87c-.27.83-.62,1.72-.88,2.71a14.66,14.66,0,0,0-.48,3.09,11.29,11.29,0,0,0,.3,3.3,10.13,10.13,0,0,0,1.38,3.14,13.41,13.41,0,0,0,2.24,2.56,21.75,21.75,0,0,0,2.65,2c1.84,1.18,3.75,2.14,5.55,3.13.89.5,1.76,1,2.57,1.53.41.27.79.55,1.15.84a5.59,5.59,0,0,1,.52.45l.06.05s0,0,0,0v0l0,0,.14.14.26.26.26.26.23.25c.15.17.31.33.46.51l.43.54.41.54a11.3,11.3,0,0,1,1.27,2.26,10,10,0,0,1,.69,4.68,19.47,19.47,0,0,1-.87,4.11c-.38,1.21-.76,2.28-1.06,3.16s-.52,1.59-.66,2.07-.22.73-.22.73a.21.21,0,0,0,.14.26.21.21,0,0,0,.25-.11h0l.3-.7c.19-.45.5-1.11.89-2s.87-1.86,1.36-3.08a18.86,18.86,0,0,0,1.25-4.31,12.13,12.13,0,0,0,.1-2.65,10.91,10.91,0,0,0-.61-2.8,13.24,13.24,0,0,0-1.34-2.69l-.43-.63c-.15-.21-.31-.4-.47-.61s-.33-.4-.5-.6l-.26-.3-.26-.27-.26-.27-.13-.14-.08-.08-.07-.07c-.2-.2-.4-.38-.6-.56-.41-.35-.84-.68-1.28-1a30.19,30.19,0,0,0-2.7-1.67c-1.83-1-3.69-2-5.39-3.12a14.38,14.38,0,0,1-4.32-3.93,8.88,8.88,0,0,1-1.16-2.5,9.19,9.19,0,0,1-.32-2.71,13.77,13.77,0,0,1,.34-2.72c.18-.87.47-1.75.72-2.67s.44-1.8.58-2.68.22-1.73.25-2.56a18.52,18.52,0,0,0,0-2.37,16.48,16.48,0,0,0-.3-2.11,13.84,13.84,0,0,0-1.08-3.28,10.7,10.7,0,0,0-1.13-1.9,5.49,5.49,0,0,0-.52-.61.21.21,0,0,0-.29,0,.21.21,0,0,0,0,.28Z"/>
                  <g>
                    <polygon class="ec005064-5dda-46d3-a6ea-f7c39673a0d5" points="291.19 229.04 352.82 250.89 374.45 188.63 312.81 166.78 291.19 229.04"/>
                    <g class="ae4db81e-26d4-4792-999f-4e0b5aa59648">
                      <path class="f3d8b53a-2174-43dd-89b5-cfb5cfc299cb" d="M308.27,195.15A36.22,36.22,0,0,0,335.6,215.5c.28.05.55.09.83.12a35.83,35.83,0,0,0,20.2-3.33,36.25,36.25,0,0,0,13.55-11.37l4.27-12.29-61.64-21.85-7.2,20.73A37.08,37.08,0,0,0,308.27,195.15Z"/>
                    </g>
                    <g class="ff60a607-dbc3-44e2-8950-52d23cc2fe95">
                      <path class="b531e2db-b927-47ba-9f90-d0a1b61faa95" d="M332.55,209.12l3.05,6.38,4.36,9.11,6.49,13.49c1.92,3.94,3.52,7.22,4.63,9.52l1.58,3.21.19.4.22-.1s-.07-.14-.19-.41l-1.5-3.24c-1.07-2.32-2.61-5.63-4.47-9.61l-6.36-13.55c-1.33-2.81-2.71-5.74-4.12-8.7-1.07-2.26-2.15-4.53-3.22-6.82-2.53-5.27-5-10.54-7.41-15.48s-4.59-9.55-6.5-13.49-3.51-7.23-4.63-9.53c-.9-1.85-1.5-3.06-1.69-3.46l-.17-.06-.05.16,1.61,3.51,4.47,9.6c1.87,4,4,8.6,6.37,13.56Z"/>
                      <path class="f1770809-d32c-4b77-9693-84bcdcc2eaa1" d="M291.19,229l.84.3c16.82-28.48,49.6-44.38,82.11-39.83l.31-.88L371,187.42a83.2,83.2,0,0,0-44.56,8.16,84.19,84.19,0,0,0-34.05,29.89Z"/>
                    </g>
                    <polygon class="ec005064-5dda-46d3-a6ea-f7c39673a0d5" points="363.01 252.65 352.34 249.95 347.76 260.06 363.01 252.65"/>
                  </g>
                </g>
                <path class="fd019b2a-7346-437e-94dc-7f6135bd1d2a" d="M326.48,195.58c19.31,54.1,40.81,108.46,71.42,157.48"/>
              </g>
              <g>
                <g>
                  <path class="ae49e456-73cb-43a0-9961-c2bf282cb02c" d="M259,162.86s0,.39,0,1.07,0,1.64-.08,2.76a17,17,0,0,1-.24,1.77,9,9,0,0,1-.54,1.81,4.69,4.69,0,0,1-.44.83l-.63.86c-.46.63-.9,1.3-1.31,2a13.88,13.88,0,0,0-1.07,2.19,8.44,8.44,0,0,0-.56,2.37,6.28,6.28,0,0,0,.21,2.31,8,8,0,0,0,.81,1.84,13,13,0,0,0,.93,1.35c.28.38.56.69.77,1,.44.52.71.81.71.81s-.13-.37-.39-1-.67-1.52-1.05-2.56a8.42,8.42,0,0,1-.41-1.68,5.59,5.59,0,0,1,.06-1.82,8.46,8.46,0,0,1,.61-1.91,18.65,18.65,0,0,1,1-1.93c.38-.64.79-1.26,1.19-1.87.22-.33.42-.6.65-1a6.51,6.51,0,0,0,.51-1.16,8.41,8.41,0,0,0,.38-2.24,12.87,12.87,0,0,0-.39-3.55,12.3,12.3,0,0,0-.34-1.19A10.36,10.36,0,0,0,259,162.86Z"/>
                  <path class="e53b07bc-f651-4b38-89cc-d8ab802cb4ad" d="M258.87,163a13.4,13.4,0,0,1,.91,1.25,12.68,12.68,0,0,1,.86,1.53,8.9,8.9,0,0,1,.71,2.08,5.63,5.63,0,0,1,0,2.45,5.48,5.48,0,0,1-1.22,2.38,10.4,10.4,0,0,1-2.31,2c-.22.14-.44.29-.68.42l-.75.42-1.49.86c-.49.32-1,.72-1.49,1.08s-.91.81-1.35,1.21-.8.9-1.17,1.36c-.17.25-.33.5-.49.75a5.08,5.08,0,0,0-.44.75,8.23,8.23,0,0,0-.65,1.58,5.88,5.88,0,0,0-.23.79l-.15.8a4,4,0,0,0-.08.77c0,.26,0,.51,0,.76,0,.49,0,1,.13,1.41a9.14,9.14,0,0,0,.28,1.27,10.11,10.11,0,0,0,.38,1.1,7.9,7.9,0,0,0,.43.92,8.09,8.09,0,0,0,.43.74c.15.22.27.41.39.57l.32.4.27.32a.19.19,0,0,0,.26,0,.18.18,0,0,0,0-.23h0s-.06-.13-.19-.36l-.23-.43c-.07-.17-.16-.37-.26-.59a7.25,7.25,0,0,1-.28-.76,8.08,8.08,0,0,1-.27-.9,7.81,7.81,0,0,1-.21-1,10.58,10.58,0,0,1-.12-1.16c0-.4,0-.82,0-1.25l.09-.65a3.82,3.82,0,0,1,.12-.66l.18-.66a5.26,5.26,0,0,1,.25-.66,5.44,5.44,0,0,1,.28-.66l.35-.64a3.52,3.52,0,0,1,.4-.63c.15-.2.29-.41.44-.62l.52-.57a7.15,7.15,0,0,1,.53-.57c.41-.35.78-.73,1.21-1s.83-.62,1.31-.92l1.47-.88.74-.43c.27-.15.51-.33.76-.49a11.27,11.27,0,0,0,2.63-2.43,6.83,6.83,0,0,0,1.36-3.16,6.15,6.15,0,0,0,0-1.6,7,7,0,0,0-.31-1.42,8.42,8.42,0,0,0-1.08-2.23,12.22,12.22,0,0,0-1.15-1.47,10.42,10.42,0,0,0-.86-.84l-.33-.27a.19.19,0,0,0-.26,0A.18.18,0,0,0,258.87,163Z"/>
                  <path class="aa5fbb75-089a-4b88-8330-c2689afd4964" d="M258.86,163a3.24,3.24,0,0,1,.19.29,6.47,6.47,0,0,1,.39.92,5.7,5.7,0,0,1,.23,1.5,5.87,5.87,0,0,1-.32,1.9,9.13,9.13,0,0,1-1,2.08,16.33,16.33,0,0,1-1.68,2.06c-.32.34-.66.67-1,1l-1.12,1a12.16,12.16,0,0,0-2.19,2.53,8.87,8.87,0,0,0-1.26,3.18,8.21,8.21,0,0,0,.11,3.32,9.86,9.86,0,0,0,1.15,2.79,12.18,12.18,0,0,0,1.59,2.13,12.87,12.87,0,0,0,3,2.46,5.58,5.58,0,0,0,1.37.61h0a.19.19,0,0,0,.23-.13.18.18,0,0,0-.1-.21,2.26,2.26,0,0,1-.3-.18,8.38,8.38,0,0,1-.82-.63,15.79,15.79,0,0,1-2.46-2.69,14.44,14.44,0,0,1-1.23-2,10.29,10.29,0,0,1-.81-2.44,7.16,7.16,0,0,1,0-2.65,7,7,0,0,1,1.06-2.52,10.86,10.86,0,0,1,1.84-2.17,23.93,23.93,0,0,0,2.18-2.21,13.34,13.34,0,0,0,1.7-2.43,8.68,8.68,0,0,0,.94-2.53,6.21,6.21,0,0,0,.06-2.3,5.62,5.62,0,0,0-.56-1.67,4.25,4.25,0,0,0-.65-.92,2.84,2.84,0,0,0-.28-.28.18.18,0,0,0-.26,0A.18.18,0,0,0,258.86,163Z"/>
                  <g>
                    <path class="ae49e456-73cb-43a0-9961-c2bf282cb02c" d="M102.89,122.06a8.88,8.88,0,0,0-.85.68,11.71,11.71,0,0,0-.89.87,11.87,11.87,0,0,0-1.06,1.25,11.16,11.16,0,0,0-1,1.65,8.78,8.78,0,0,0-.78,2.13,6.4,6.4,0,0,0-.14,1.26c0,.46,0,.8.07,1.19,0,.73.1,1.47.1,2.21a19.23,19.23,0,0,1-.08,2.16,9.07,9.07,0,0,1-.42,2,6.08,6.08,0,0,1-.85,1.62,8.93,8.93,0,0,1-1.2,1.25c-.85.73-1.65,1.3-2.19,1.72s-.84.68-.84.68.38-.12,1-.36c.32-.12.72-.26,1.16-.46a14.79,14.79,0,0,0,1.47-.71A8.16,8.16,0,0,0,98,140,6.46,6.46,0,0,0,99.32,138a9,9,0,0,0,.69-2.34,14.06,14.06,0,0,0,.16-2.42,23,23,0,0,0-.15-2.37l-.12-1.06a4.85,4.85,0,0,1,0-.93,8.89,8.89,0,0,1,.43-1.85,15.74,15.74,0,0,1,.68-1.65c.48-1,1-1.85,1.3-2.44Z"/>
                    <path class="e53b07bc-f651-4b38-89cc-d8ab802cb4ad" d="M102.85,121.89l-.42.07c-.27.06-.67.15-1.17.31a12,12,0,0,0-1.73.71,9,9,0,0,0-2,1.42,7.34,7.34,0,0,0-1,1.08,7.07,7.07,0,0,0-.77,1.41,6.63,6.63,0,0,0-.38,3.41,10.53,10.53,0,0,0,1.07,3.4,8.73,8.73,0,0,0,.42.8l.43.73.84,1.49c.26.49.45,1,.68,1.44s.35,1,.53,1.5c.08.25.11.51.17.76s.13.5.17.75,0,.51.08.76a3.68,3.68,0,0,1,0,.74c0,.24,0,.49,0,.73a5.71,5.71,0,0,1-.08.71c0,.23-.05.47-.11.69l-.18.67a4.7,4.7,0,0,1-.22.63l-.25.61c-.21.37-.37.76-.6,1.09a8.89,8.89,0,0,1-.68.95,8,8,0,0,1-.7.8,6.75,6.75,0,0,1-.68.65c-.22.19-.42.38-.62.52l-.53.39-.41.26-.34.22h0a.19.19,0,0,0-.06.25.2.2,0,0,0,.23.07l.39-.15.48-.19.62-.31c.24-.11.47-.27.74-.43a7.07,7.07,0,0,0,.83-.59,10.1,10.1,0,0,0,.88-.77,7.48,7.48,0,0,0,.87-1,13.39,13.39,0,0,0,.82-1.17l.35-.67a5.2,5.2,0,0,0,.31-.72l.27-.76c.09-.25.13-.53.2-.8a8.49,8.49,0,0,0,.21-1.69,5.06,5.06,0,0,0,0-.87c0-.3,0-.59,0-.89-.09-.58-.19-1.18-.34-1.76s-.34-1.15-.57-1.71-.49-1.15-.76-1.67l-.87-1.48-.44-.73a7.87,7.87,0,0,1-.39-.7,10.39,10.39,0,0,1-1-2.83,5.6,5.6,0,0,1,.11-2.68,5.82,5.82,0,0,1,1.22-2.13,9.15,9.15,0,0,1,1.66-1.46,12.28,12.28,0,0,1,1.5-.91,13.4,13.4,0,0,1,1.41-.64.19.19,0,0,0,.12-.23A.17.17,0,0,0,102.85,121.89Z"/>
                    <path class="aa5fbb75-089a-4b88-8330-c2689afd4964" d="M102.84,121.89a3.61,3.61,0,0,0-.39.11,4.39,4.39,0,0,0-1,.48,5.35,5.35,0,0,0-1.32,1.18,5.94,5.94,0,0,0-1.09,2,8.38,8.38,0,0,0-.44,2.66,13.65,13.65,0,0,0,.26,3,25.16,25.16,0,0,0,.8,3,10.73,10.73,0,0,1,.52,2.79,7,7,0,0,1-1.63,5,10.38,10.38,0,0,1-1.91,1.73A14.84,14.84,0,0,1,94.53,145a16.23,16.23,0,0,1-3.48,1.14,8.45,8.45,0,0,1-1,.14,2.43,2.43,0,0,1-.36,0,.19.19,0,0,0-.19.18.17.17,0,0,0,.13.18h0a5.36,5.36,0,0,0,1.49.14,12.91,12.91,0,0,0,3.86-.66,12.18,12.18,0,0,0,2.44-1.07,10.13,10.13,0,0,0,2.4-1.87,8.32,8.32,0,0,0,1.74-2.83A8.89,8.89,0,0,0,102,137a12.65,12.65,0,0,0-.65-3.27l-.48-1.41c-.15-.46-.28-.91-.4-1.36a15.88,15.88,0,0,1-.42-2.61,8.7,8.7,0,0,1,.13-2.32,5.94,5.94,0,0,1,.68-1.81,5.25,5.25,0,0,1,.94-1.19,5.32,5.32,0,0,1,.79-.61,2.87,2.87,0,0,1,.31-.16.18.18,0,0,0,.1-.24A.18.18,0,0,0,102.84,121.89Z"/>
                  </g>
                  <path class="f01a9698-67c9-4897-a1e7-3b67aa7faaf9" d="M142.84,319.13v-.3c0-.19,0-.48-.07-.87a28.13,28.13,0,0,0-.5-3.32,35.77,35.77,0,0,0-1.44-5,62,62,0,0,0-2.67-6.2c-1.07-2.22-2.37-4.53-3.63-7a55.51,55.51,0,0,1-3.5-7.71,21.45,21.45,0,0,1-1-4.12,17.92,17.92,0,0,1-.09-2.07,14.27,14.27,0,0,1,.23-2.06,16.26,16.26,0,0,1,4.08-7.53,41.63,41.63,0,0,1,7-6.07l1-.71c.32-.22.67-.49,1-.74.66-.51,1.3-1,1.91-1.56a40.77,40.77,0,0,0,3.42-3.41,36.43,36.43,0,0,0,5.17-7.47,39.55,39.55,0,0,0,3-7.5,43.39,43.39,0,0,0,1.31-6.65,44.35,44.35,0,0,0,.27-5.18c0-1.44-.11-2.56-.19-3.33,0-.38-.08-.67-.11-.87l0-.31a.36.36,0,0,0-.42-.3.38.38,0,0,0-.31.37v0s0,.1,0,.29,0,.47,0,.85c0,.75,0,1.85-.16,3.24a42.8,42.8,0,0,1-.71,5,41.25,41.25,0,0,1-1.73,6.24,38.56,38.56,0,0,1-3.23,6.88,36.79,36.79,0,0,1-5.11,6.69,36.36,36.36,0,0,1-3.28,3c-.58.46-1.18.93-1.79,1.38-.31.21-.59.43-.93.65l-1,.66a41,41,0,0,0-7.82,6.4,22.74,22.74,0,0,0-3.12,4.24,17.55,17.55,0,0,0-1.15,2.44,17.9,17.9,0,0,0-.73,2.6,18.61,18.61,0,0,0-.28,2.67,18.8,18.8,0,0,0,.17,2.62,22.11,22.11,0,0,0,.5,2.5c.23.8.48,1.59.77,2.34a51.83,51.83,0,0,0,4.07,8.06l4.07,6.7c1.24,2.06,2.29,4,3.14,5.72a45.89,45.89,0,0,1,2,4.62c.46,1.31.76,2.37.94,3.08l.28,1.14a.37.37,0,0,0,.72-.11Z"/>
                  <path class="e81f3629-1de3-4d40-b174-462d0ae93dec" d="M156.82,228.16s.09.41.24,1.19.34,1.94.54,3.41.39,3.27.51,5.32a64.55,64.55,0,0,1,.06,6.88,51,51,0,0,1-1,8c-.3,1.39-.66,2.8-1.11,4.21a33.38,33.38,0,0,1-1.65,4.19,34.22,34.22,0,0,1-2.27,4c-.43.64-.9,1.29-1.37,1.89l-.39.49-.38.45c-.24.3-.51.59-.77.89a38.74,38.74,0,0,1-7.53,6.22c-2.8,1.84-5.82,3.47-8.76,5.29a51.78,51.78,0,0,0-8.25,6.13,35.84,35.84,0,0,0-6.07,7.53,42,42,0,0,0-3.59,7.77,55.35,55.35,0,0,0-1.89,6.88c-.45,2.07-.71,3.89-.91,5.39-.11.75-.18,1.42-.24,2s-.11,1.08-.14,1.49c-.06.8-.09,1.23-.09,1.23a.36.36,0,0,0,.33.39.37.37,0,0,0,.39-.29h0l.26-1.21c.15-.78.41-1.93.75-3.38s.8-3.2,1.39-5.18a63.18,63.18,0,0,1,2.35-6.49,41.72,41.72,0,0,1,3.82-7.08,32.81,32.81,0,0,1,5.86-6.65,48.64,48.64,0,0,1,7.89-5.5c2.88-1.68,6-3.3,8.94-5.22a48.36,48.36,0,0,0,4.36-3.13,34.3,34.3,0,0,0,3.91-3.71c.3-.34.59-.66.88-1l.43-.53.39-.49c.56-.73,1.05-1.44,1.53-2.18a31.34,31.34,0,0,0,2.42-4.57,37.49,37.49,0,0,0,2.65-9.28,46.18,46.18,0,0,0,.5-8.52,52.8,52.8,0,0,0-.7-7.12c-.34-2.1-.75-3.9-1.14-5.37s-.76-2.6-1-3.37-.44-1.18-.44-1.18a.37.37,0,0,0-.48-.19A.35.35,0,0,0,156.82,228.16Z"/>
                  <path class="ae49e456-73cb-43a0-9961-c2bf282cb02c" d="M157.48,227.41v.08a1.21,1.21,0,0,0,0,.23c0,.22-.07.54-.14.95a20.34,20.34,0,0,1-1,3.52,26.67,26.67,0,0,1-2.63,5,33.33,33.33,0,0,1-4.8,5.57,45.7,45.7,0,0,1-7,5.24c-1.31.8-2.78,1.59-4.28,2.61a26,26,0,0,0-4.18,3.54,20,20,0,0,0-3.36,4.72,17.37,17.37,0,0,0-1.7,5.75,22.84,22.84,0,0,0,.1,6,38.21,38.21,0,0,0,1.29,5.69c1.15,3.67,2.63,7.12,3.92,10.48.65,1.69,1.26,3.34,1.75,5q.36,1.23.6,2.43c.08.4.14.79.19,1.19l0,.14s0,0,0,0v.12l0,.32.05.65.06.65,0,.6c0,.4,0,.79,0,1.19s0,.81,0,1.21-.05.79-.07,1.18a19.83,19.83,0,0,1-.87,4.45,17.1,17.1,0,0,1-4.4,7,34.59,34.59,0,0,1-5.86,4.46c-1.91,1.18-3.63,2.16-5,3s-2.52,1.5-3.26,2l-1.14.74a.35.35,0,0,0-.1.5.36.36,0,0,0,.47.13h0l1.2-.59c.79-.38,2-.9,3.44-1.58s3.31-1.48,5.36-2.54a33.13,33.13,0,0,0,6.61-4.3,20.6,20.6,0,0,0,3.16-3.39,18.44,18.44,0,0,0,2.37-4.41,22.65,22.65,0,0,0,1.25-5.1c0-.44.09-.88.14-1.33s0-.89.06-1.34,0-.92,0-1.38V297l0-.66,0-.65,0-.32v-.21l0-.18c0-.48-.1-.95-.18-1.42-.15-.94-.36-1.86-.6-2.77a52.32,52.32,0,0,0-1.74-5.31c-1.29-3.46-2.71-6.86-3.74-10.29A25.44,25.44,0,0,1,132,265.06a15.23,15.23,0,0,1,1.29-4.64,16.52,16.52,0,0,1,2.66-4,24.15,24.15,0,0,1,3.57-3.21c1.24-.94,2.64-1.78,4-2.72s2.65-1.89,3.84-2.9a40.46,40.46,0,0,0,3.26-3.11,31.41,31.41,0,0,0,4.66-6.32,24.65,24.65,0,0,0,2.28-5.59,17.75,17.75,0,0,0,.63-3.82,9.93,9.93,0,0,0,0-1.39.37.37,0,0,0-.4-.33.36.36,0,0,0-.33.34Z"/>
                  <polygon class="baafc515-dd6f-4c04-8ff2-910726e8519d" points="101.39 121.68 159.82 221.06 260.11 163.16 201.68 63.79 101.39 121.68"/>
                  <g class="fcd29c25-2efd-4caa-934e-3740cab561aa">
                    <path class="a7af5813-2c1c-4aec-8d26-a8e7c20cbb70" d="M163.17,96.23a63.3,63.3,0,0,0,13.73,58.22l1,1.1a64.86,64.86,0,0,0,62.41,19l19.81-11.44L201.68,63.79l-33.4,19.28A62.85,62.85,0,0,0,163.17,96.23Z"/>
                  </g>
                  <g class="ff60a607-dbc3-44e2-8950-52d23cc2fe95">
                    <path class="f603a5b9-2924-4ea5-9042-6abc8a96ef48" d="M180.06,142.5c-1.06,4-2.11,8-3.16,11.95-1.53,5.82-3,11.55-4.5,17.05-2.41,9.27-4.67,17.91-6.6,25.32s-3.5,13.6-4.61,17.93c-.74,2.93-1.27,5-1.53,6.05-.13.49-.19.75-.19.75l.4.11s.08-.26.22-.76c.28-1,.86-3.09,1.67-6,1.19-4.31,2.88-10.46,4.92-17.85s4.34-16,6.86-25.25c1.4-5.26,2.87-10.71,4.35-16.25,1.13-4.21,2.27-8.46,3.42-12.72,2.6-9.88,5.21-19.75,7.66-29s4.67-17.92,6.6-25.32,3.5-13.6,4.61-17.93l1.65-6.53-.15-.26-.26.15c-.21.75-.85,3-1.81,6.49-1.19,4.31-2.88,10.46-4.92,17.85l-6.86,25.25C185.35,122.77,182.71,132.64,180.06,142.5Z"/>
                    <path class="ef660eab-f925-4613-b98d-caac0df58df4" d="M101.39,121.68l.8,1.36c55.23-18.57,117.71-2.23,156.5,41l1.42-.83-3.23-5.48A149.4,149.4,0,0,0,187.3,117.6a150.45,150.45,0,0,0-80.16.76Z"/>
                  </g>
                  <polygon class="baafc515-dd6f-4c04-8ff2-910726e8519d" points="171.59 235.04 160.23 219.27 142.51 227.44 171.59 235.04"/>
                </g>
                <path class="fd019b2a-7346-437e-94dc-7f6135bd1d2a" d="M185.34,124.66C184,229.44,201.07,336.71,262.77,428.15c1.31,3.31,3.76,6.56,6.25,9.57"/>
              </g>
            </g>
          </g>
        </g>
      </g>
    </g>
  </g>
</svg>
