<svg id="aa0bb7b3-45ea-4fca-9fb2-bc2cd43ad90a" data-name="Layer 1" xmlns="http://www.w3.org/2000/svg" xmlns:xlink="http://www.w3.org/1999/xlink" width="462.9" height="482.5" viewBox="0 0 462.9 482.5">
  <defs>
    <style>
      .b21f5512-bfda-40c7-98c1-a6bca9b70616 {
        fill: none;
      }

      .a39651ad-cc36-4be9-bb4b-ee52b3c41a86, .b556033d-8ab4-4ff8-87d4-ee2facaa6d74 {
        opacity: 0.5;
      }

      .f4c7e55d-149f-4f0f-b796-085f97b39d36 {
        fill: url(#fcba1f16-6aac-4d8c-90ec-48dc6fc086db);
      }

      .aec6f139-f442-41a8-a00b-8760cfffa5ae, .edabc5bc-59b3-42ab-a49f-7a53cfd70ff8 {
        fill: #31d0e5;
      }

      .edabc5bc-59b3-42ab-a49f-7a53cfd70ff8 {
        stroke-miterlimit: 10;
        stroke-width: 6px;
        stroke: url(#ee3b7af1-d196-4bb5-bb47-f897f03c6c48);
      }

      .aacb2efa-787a-477b-acdf-fbb635da9361 {
        clip-path: url(#eff1f4b3-66e6-43d5-b05b-988e71dd0364);
      }

      .e03ccb3c-fedc-4d42-ba94-93176cb26cbc {
        fill: #fff;
      }

      .f0097c65-67fa-419c-805f-02e8065f6618 {
        fill: #bcbec0;
      }

      .b2074972-fab2-4fa3-86d0-e59c27811d57 {
        fill: #58595b;
      }

      .ac788bde-4c83-4462-93ef-bfe7512b9ffb {
        fill: #f7941e;
      }

      .a8ccca8c-b424-48fd-9ebd-144a29941eaa {
        fill: #f17c29;
      }

      .a054028b-a175-4d43-a6c4-85555f28576b {
        fill: #e6e7e8;
      }

      .ff78b7c1-8ef1-405b-a55d-e680551c1758 {
        fill: #474747;
      }

      .a4b0bbf7-5ff7-447b-b439-e785a27fd411 {
        fill: #414042;
      }

      .fa75f433-f250-4c5d-87f1-f20ae0319572 {
        fill: #6d6e71;
      }

      .b2720515-2fa0-4002-b1fd-9a8e5720361d {
        fill: #d1d3d4;
      }

      .a11f8f3e-6849-431a-9a95-a3a72eeefd5f {
        fill: #f77c0c;
      }

      .ba014a78-c8aa-4c5e-bb50-e4577765ae29 {
        fill: #3c2415;
      }

      .b1950333-2180-447c-985f-731f7dc644f3 {
        fill: #fbb040;
      }

      .bca1e1b9-82b7-4d86-b9c6-e76126329b42 {
        clip-path: url(#fae1eb29-50cf-4c7c-aa01-e60635f4a006);
      }

      .a49fddad-0da1-4393-9e4f-fd90744a4bb6 {
        fill: #6b9e13;
      }

      .abab4105-b454-48a8-acbd-52c0888db256 {
        clip-path: url(#fdd437fb-6b3f-43bb-9a9a-f7dc0821f926);
      }

      .a64227a4-4b8c-401a-9a81-646b309dff99 {
        fill: #d3a102;
      }
    </style>
    <linearGradient id="fcba1f16-6aac-4d8c-90ec-48dc6fc086db" x1="52.73" y1="118.79" x2="402" y2="358.11" gradientUnits="userSpaceOnUse">
      <stop offset="0" stop-color="#9b81cf"/>
      <stop offset="1" stop-color="#3b139b"/>
    </linearGradient>
    <linearGradient id="ee3b7af1-d196-4bb5-bb47-f897f03c6c48" x1="25.67" y1="241.25" x2="437.24" y2="241.25" gradientUnits="userSpaceOnUse">
      <stop offset="0" stop-color="#4c1da9"/>
      <stop offset="1" stop-color="#997ece"/>
    </linearGradient>
    <clipPath id="eff1f4b3-66e6-43d5-b05b-988e71dd0364">
      <circle class="b21f5512-bfda-40c7-98c1-a6bca9b70616" cx="235.46" cy="243.57" r="209.22"/>
    </clipPath>
    <clipPath id="fae1eb29-50cf-4c7c-aa01-e60635f4a006">
      <ellipse class="b21f5512-bfda-40c7-98c1-a6bca9b70616" cx="-282.28" cy="237.25" rx="199.5" ry="200"/>
    </clipPath>
    <clipPath id="fdd437fb-6b3f-43bb-9a9a-f7dc0821f926">
      <ellipse class="b21f5512-bfda-40c7-98c1-a6bca9b70616" cx="743.53" cy="237.25" rx="199.5" ry="200"/>
    </clipPath>
  </defs>
  <g>
    <path class="a39651ad-cc36-4be9-bb4b-ee52b3c41a86" d="M444.68,252.5a208.28,208.28,0,0,0-25.42-100,211.66,211.66,0,0,0-187.81-114c-116.9,0-211.67,94.78-211.67,211.68s94.77,211.68,211.67,211.68c3,0,5.93-.08,8.87-.2C353.63,459.07,444.68,366.42,444.68,252.5Z"/>
    <g>
      <g>
        <circle class="f4c7e55d-149f-4f0f-b796-085f97b39d36" cx="231.45" cy="241.25" r="211.68"/>
        <circle class="edabc5bc-59b3-42ab-a49f-7a53cfd70ff8" cx="231.45" cy="241.25" r="202.78"/>
      </g>
      <g class="aacb2efa-787a-477b-acdf-fbb635da9361">
        <g>
          <g class="b556033d-8ab4-4ff8-87d4-ee2facaa6d74">
            <g>
              <path class="e03ccb3c-fedc-4d42-ba94-93176cb26cbc" d="M61.78,216.62s5.22-24.5,32.29-6.16S68.48,230.85,44.56,226.4,61.78,216.62,61.78,216.62Z"/>
              <path class="e03ccb3c-fedc-4d42-ba94-93176cb26cbc" d="M113.58,195.44c22.63,11.5,2.16,16.5-16.72,15.41S91,183.94,113.58,195.44Z"/>
            </g>
            <g>
              <path class="e03ccb3c-fedc-4d42-ba94-93176cb26cbc" d="M353.73,210S359,185.46,386,203.8s-25.59,20.4-49.5,15.94S353.73,210,353.73,210Z"/>
              <path class="e03ccb3c-fedc-4d42-ba94-93176cb26cbc" d="M405.53,188.79c22.63,11.49,2.17,16.5-16.72,15.4S382.9,177.29,405.53,188.79Z"/>
            </g>
          </g>
          <g>
            <path class="f0097c65-67fa-419c-805f-02e8065f6618" d="M292.52,315.21l-.45-.2c-13.27-5.86-27.4-10.36-38.93-19.27q-1.32-3.53-2.62-7.1c.59-.07,1.19-.12,1.8-.21A254.16,254.16,0,0,1,408.91,318c0,2.18-3.41,2.28-5.53,2.6a44.45,44.45,0,0,1-26.86-4.37c1.2.92.83,3-.4,3.83a6.08,6.08,0,0,1-4.35.65A27.33,27.33,0,0,1,358,314.8c.08,1.33.17,2.66.26,4a58.21,58.21,0,0,1-26.69-7.1C318.76,314.92,305.52,316.72,292.52,315.21Z"/>
            <path class="b2074972-fab2-4fa3-86d0-e59c27811d57" d="M292.52,315.21l-.45-.2c-6.93-3.06-14.09-5.76-21-8.9,14.3,2.22,29,2.17,43.46,1,18.22-1.45,36.26-4.59,54.38-6.93a250.83,250.83,0,0,1,40,17.83c0,2.18-3.41,2.28-5.53,2.6a44.45,44.45,0,0,1-26.86-4.37c1.2.92.83,3-.4,3.83a6.08,6.08,0,0,1-4.35.65A27.33,27.33,0,0,1,358,314.8c.08,1.33.17,2.66.26,4a58.21,58.21,0,0,1-26.69-7.1C318.76,314.92,305.52,316.72,292.52,315.21Z"/>
            <g>
              <path class="ac788bde-4c83-4462-93ef-bfe7512b9ffb" d="M156.62,306.57l-24.91-5.84c-1.19-.28-.68-2.14.51-1.86l24.9,5.84C158.32,305,157.81,306.85,156.62,306.57Z"/>
              <path class="ac788bde-4c83-4462-93ef-bfe7512b9ffb" d="M147.71,301.16a2.23,2.23,0,0,0-2.68,1.7,2.28,2.28,0,0,0,1.67,2.73,2.24,2.24,0,0,0,2.68-1.71A2.27,2.27,0,0,0,147.71,301.16Z"/>
              <path class="ac788bde-4c83-4462-93ef-bfe7512b9ffb" d="M133.51,300.25c.06-.28-7.2-6.66-9.11-8.34-.15-.13-.39-.05-.36.12l.38,1.91a2.31,2.31,0,0,1-1.66,2.62l-1.74.63a.15.15,0,0,0-.06.25l1.3,1.35a2.34,2.34,0,0,1,.36,3.09l-1.17,1.55c-.1.13.09.31.27.26C124.16,303,133.45,300.53,133.51,300.25Z"/>
              <g>
                <path class="a8ccca8c-b424-48fd-9ebd-144a29941eaa" d="M128.87,298l-5.74-1.57a2.38,2.38,0,0,0,1.22-1.36Z"/>
                <path class="a8ccca8c-b424-48fd-9ebd-144a29941eaa" d="M122.52,299.1l5.83,1.14-5.32.63A2.49,2.49,0,0,0,122.52,299.1Z"/>
              </g>
            </g>
            <path class="a054028b-a175-4d43-a6c4-85555f28576b" d="M131.51,151.31c-3.38-6.15-4.85-13.8-2.42-20.33a.67.67,0,0,1,1.22-.1,7.94,7.94,0,0,0,3,3.52,46.7,46.7,0,0,1-4.77-36.5.9.9,0,0,1,1.42-.46c15.24,12.29,23.09,31.66,34.54,47.73,8.91,12.49,23.63,32.27,35.59,42,24.74,20.18,37.71,67.66,53.08,108.56,11.53,8.91,25.66,13.41,38.93,19.27s26.6,13.93,33.28,27c-1.5,1.37-11.55,5.55-14.84,5.12,4,4.2,4.05,2.92,7.39,7.66-16.75,3.77-31,5.34-48.18,6.37s-40-1.56-55.66-8.58c-22.42-10-38.25-26.67-54.14-45.61-11.11-2.58-26.3-8.28-37.53-12.2l-.1.07s-3.94-1.42-5.2-1.89a29.84,29.84,0,0,1-6-2.65A3.38,3.38,0,0,1,110,289.2a1.37,1.37,0,0,1,0-1.47,1.79,1.79,0,0,1,1.71-.45c1.72.23,2,.33,3.53.64-1.41-1-1.53-.84-2.93-1.85a7.36,7.36,0,0,1-2.21-2.09l0,0a1.6,1.6,0,0,1,1.87-2.3l2.18.67,0-.1a28.29,28.29,0,0,1-6.84-6.53,6.26,6.26,0,0,1-1.25-2.43v0a1.87,1.87,0,0,1,2.26-2.11,12.76,12.76,0,0,1,3.86,1.31l0-.2a28.82,28.82,0,0,1-5.82-6.59,4.46,4.46,0,0,1-.85-2.15c-.17-3.52,4.71-1.15,6.11-.7a19,19,0,0,1-2.7-2.57,11.22,11.22,0,0,1-2-3.73,1.9,1.9,0,0,1,2.52-2.31,21.83,21.83,0,0,1,2.66,1.36v0l.45.3c2.21,1.31,4.59,2.91,5.48,3.52a13.67,13.67,0,0,1,1.16.9c14.9,9.86,30.79,20,45,29.72a275,275,0,0,1,36.59,3,101.36,101.36,0,0,1-27.62-48.64c-3.34-13.63-8.87-26.7-17.19-37.92a31.09,31.09,0,0,1-4.85-9.74,1,1,0,0,1,1.37-1.22l7,3.1a47.26,47.26,0,0,1-22.17-33.72,1.38,1.38,0,0,1,1.93-1.46,28.2,28.2,0,0,1,6.94,4.77C140.64,163.06,135.12,157.86,131.51,151.31Z"/>
            <g>
              <path class="a054028b-a175-4d43-a6c4-85555f28576b" d="M142.7,172.57A28.79,28.79,0,0,0,138,169c-.1-.41-.2-.82-.28-1.24C139.36,169.43,141,171,142.7,172.57Z"/>
              <path class="a054028b-a175-4d43-a6c4-85555f28576b" d="M152.55,200.67c1.12.82,2.27,1.6,3.46,2.31l-3-1.35C152.82,201.32,152.69,201,152.55,200.67Z"/>
              <path class="a054028b-a175-4d43-a6c4-85555f28576b" d="M108.74,276.65l0,.21a9.86,9.86,0,0,0-.92-.46c-.19-.24-.4-.47-.58-.71a9.78,9.78,0,0,1-.72-1.09A26.55,26.55,0,0,0,108.74,276.65Z"/>
              <path class="a054028b-a175-4d43-a6c4-85555f28576b" d="M127.94,137c0-.54.06-1.07.13-1.6.57,1.17,1.17,2.31,1.84,3.43A8.36,8.36,0,0,1,127.94,137Z"/>
              <path class="a054028b-a175-4d43-a6c4-85555f28576b" d="M106.15,265.39a23.89,23.89,0,0,0,2,1.83l-1.06-.4c-.28-.39-.57-.78-.83-1.18Z"/>
              <path class="ff78b7c1-8ef1-405b-a55d-e680551c1758" d="M290.28,318.63c-13.28-5.87-30.32-9.56-41.84-18.46-15.37-40.9-32.07-85.68-53.09-108.56-10.46-11.38-26.68-29.52-35.58-42-11.23-15.76-17.89-34.34-32.55-46.66.28-1.59-.49-3.49,0-5a.9.9,0,0,1,1.42-.46c15.24,12.29,23.09,31.66,34.55,47.73,8.9,12.49,23.62,32.27,35.58,42,24.74,20.18,37.72,67.66,53.09,108.56,11.52,8.91,25.65,13.41,38.93,19.27s26.6,13.93,33.27,27c-.56.52-.17.52-2.35,1.43C314.69,331.58,302.83,324.18,290.28,318.63Z"/>
            </g>
            <path class="e03ccb3c-fedc-4d42-ba94-93176cb26cbc" d="M291.74,332a7,7,0,0,0,5.51,8.26,7,7,0,0,0,8.13-5.59,7.06,7.06,0,0,0-5.51-8.27A7,7,0,0,0,291.74,332Z"/>
            <path class="a4b0bbf7-5ff7-447b-b439-e785a27fd411" d="M293.33,332.28a5.41,5.41,0,0,0,4.22,6.33,5.33,5.33,0,0,0,6.23-4.29,5.4,5.4,0,0,0-4.22-6.33A5.34,5.34,0,0,0,293.33,332.28Z"/>
            <path class="e03ccb3c-fedc-4d42-ba94-93176cb26cbc" d="M301.31,329.87a1.36,1.36,0,0,0,1.06,1.58,1.34,1.34,0,0,0,1.56-1.07,1.36,1.36,0,0,0-1.06-1.59A1.34,1.34,0,0,0,301.31,329.87Z"/>
            <path class="fa75f433-f250-4c5d-87f1-f20ae0319572" d="M129.41,134.52a7.91,7.91,0,0,0,3,3.52,46.68,46.68,0,0,1-4.78-36.51.9.9,0,0,1,1.42-.45c15.24,12.29,22.16,33.77,33.62,49.84,4.6,6.45,50.35,58.92,53.56,67.05,22,37.15,19.46,45.94,34.83,84.8-3.84-.7-47.62-5.9-51.49-6.41A101.38,101.38,0,0,1,172.17,248c-3.34-13.64-8.87-26.71-17.18-37.93a30.75,30.75,0,0,1-4.86-9.73,1,1,0,0,1,1.38-1.22l7,3.1a47.28,47.28,0,0,1-22.17-33.73,1.37,1.37,0,0,1,1.93-1.45,28.2,28.2,0,0,1,6.94,4.77c-5.44-5.09-11-10.29-14.57-16.85-3.38-6.15-4.85-13.79-2.42-20.32A.68.68,0,0,1,129.41,134.52Z"/>
            <g>
              <path class="a054028b-a175-4d43-a6c4-85555f28576b" d="M138,169c-.1-.41-.2-.82-.28-1.24C137.81,168.22,137.91,168.63,138,169Z"/>
              <path class="a054028b-a175-4d43-a6c4-85555f28576b" d="M108.77,276.86a9.86,9.86,0,0,0-.92-.46c-.19-.24-.4-.47-.58-.71a9.78,9.78,0,0,1-.72-1.09,26.55,26.55,0,0,0,2.19,2Z"/>
              <path class="a054028b-a175-4d43-a6c4-85555f28576b" d="M108.18,267.22l-1.06-.4c-.28-.39-.57-.78-.83-1.18l-.14-.25A23.89,23.89,0,0,0,108.18,267.22Z"/>
              <path class="e03ccb3c-fedc-4d42-ba94-93176cb26cbc" d="M170.59,153.59l-.4-.54Z"/>
              <path class="e03ccb3c-fedc-4d42-ba94-93176cb26cbc" d="M168.51,150.77l-.35-.48Z"/>
              <path class="e03ccb3c-fedc-4d42-ba94-93176cb26cbc" d="M166.66,148.21l-.42-.57Z"/>
              <path class="e03ccb3c-fedc-4d42-ba94-93176cb26cbc" d="M175.06,159.52l-.53-.69Z"/>
              <path class="e03ccb3c-fedc-4d42-ba94-93176cb26cbc" d="M179.8,165.56l-.64-.79Z"/>
              <path class="e03ccb3c-fedc-4d42-ba94-93176cb26cbc" d="M177.39,162.52c-.19-.24-.39-.48-.57-.73C177,162,177.2,162.28,177.39,162.52Z"/>
              <path class="e03ccb3c-fedc-4d42-ba94-93176cb26cbc" d="M172.8,156.55l-.49-.65Z"/>
              <path class="e03ccb3c-fedc-4d42-ba94-93176cb26cbc" d="M148.62,119.89a128.23,128.23,0,0,0-8.48-12.06A128.23,128.23,0,0,1,148.62,119.89Z"/>
              <path class="e03ccb3c-fedc-4d42-ba94-93176cb26cbc" d="M140.14,107.83c-1.15-1.44-2.37-2.82-3.62-4.17C137.77,105,139,106.39,140.14,107.83Z"/>
            </g>
            <g>
              <path class="ac788bde-4c83-4462-93ef-bfe7512b9ffb" d="M157.53,300.43l-22.89-11.55c-1.09-.55-.13-2.21,1-1.66l22.89,11.55C159.59,299.32,158.63,301,157.53,300.43Z"/>
              <path class="ac788bde-4c83-4462-93ef-bfe7512b9ffb" d="M150.12,293.08a2.23,2.23,0,0,0-3,1,2.28,2.28,0,0,0,1,3,2.21,2.21,0,0,0,3-1A2.29,2.29,0,0,0,150.12,293.08Z"/>
              <path class="ac788bde-4c83-4462-93ef-bfe7512b9ffb" d="M136.52,288.85c.13-.25-5.48-8.18-7-10.26-.11-.16-.36-.14-.37,0l-.07,1.95a2.28,2.28,0,0,1-2.21,2.15l-1.84.21a.14.14,0,0,0-.11.23l1,1.61a2.34,2.34,0,0,1-.35,3.1l-1.49,1.23c-.13.1,0,.32.2.32C126.8,289.36,136.4,289.1,136.52,288.85Z"/>
              <g>
                <path class="a8ccca8c-b424-48fd-9ebd-144a29941eaa" d="M132.53,285.53l-5.22-2.88a2.37,2.37,0,0,0,1.49-1Z"/>
                <path class="a8ccca8c-b424-48fd-9ebd-144a29941eaa" d="M126.09,285.14l5.42,2.48-5.32-.65A2.44,2.44,0,0,0,126.09,285.14Z"/>
              </g>
            </g>
            <g>
              <path class="b2720515-2fa0-4002-b1fd-9a8e5720361d" d="M157.46,302.53c-3.79-2.39,3.94,2.12,0,0Z"/>
              <path class="b2720515-2fa0-4002-b1fd-9a8e5720361d" d="M127.43,292.85c7,3.75,23,5.93,30,9.68,6.8,4.3,18.86,18.7,25.44,23.35,37.7,26.63,86.82,35.86,131.4,24.73a19,19,0,0,1,3.6,4.16c-16.75,3.77-31,5.34-48.18,6.37s-40-1.56-55.66-8.58c-22.42-10-38.25-26.67-54.14-45.61-8.81-2.05-20.18-6.05-30.11-9.58C130,296.21,127.05,294,127.43,292.85Z"/>
            </g>
            <path class="b2074972-fab2-4fa3-86d0-e59c27811d57" d="M110,289.2a1.37,1.37,0,0,1,0-1.47,1.79,1.79,0,0,1,1.71-.45c1.72.23,2,.33,3.53.64-1.41-1-1.53-.84-2.93-1.85a7.36,7.36,0,0,1-2.21-2.09l0,0a1.6,1.6,0,0,1,1.87-2.3l2.18.67,0-.1a28.29,28.29,0,0,1-6.84-6.53,6.26,6.26,0,0,1-1.25-2.43v0a1.87,1.87,0,0,1,2.26-2.11,12.76,12.76,0,0,1,3.86,1.31l0-.2a28.82,28.82,0,0,1-5.82-6.59,4.46,4.46,0,0,1-.85-2.15c-.17-3.52,4.71-1.15,6.11-.7a19,19,0,0,1-2.7-2.57,11.22,11.22,0,0,1-2-3.73,1.9,1.9,0,0,1,2.52-2.31,21.83,21.83,0,0,1,2.66,1.36v0l.45.3c2.21,1.31,4.59,2.91,5.48,3.52a13.67,13.67,0,0,1,1.16.9c7,4.66,14.28,9.37,21.47,14.07-1.4-.51-2.78-1.06-4.15-1.56-4.52-1.64-10.2-2.36-13.54,1.13-2.63,2.76-2.69,7.27-1.17,10.78s4.32,6.25,7,8.89l5.66,5.48c-4.25-1.5-8.37-3-12-4.26l-.1.07s-3.94-1.42-5.2-1.89a29.84,29.84,0,0,1-6-2.65A3.38,3.38,0,0,1,110,289.2Z"/>
            <path class="ac788bde-4c83-4462-93ef-bfe7512b9ffb" d="M310.46,347.41c2.15,2.47,3.87,4.49,6,7l21.34,6.06a28.4,28.4,0,0,1,7.3,2.82c2.25,1.39,3.61,2.8,4.23,5.47,1.56-6.9-1.21-14.33-6.09-19.12s-11.56-7.16-18.23-7.74C325,341.86,315.43,345.72,310.46,347.41Z"/>
            <path class="a11f8f3e-6849-431a-9a95-a3a72eeefd5f" d="M311.52,347.62c5,2.11,10.35,3.12,15.62,4.37,6,1.43,12.08,3.29,16.89,7.29a20.62,20.62,0,0,1,5.64,7.46,19.37,19.37,0,0,1-.31,2c-.62-2.67-2-4.08-4.23-5.47a28.4,28.4,0,0,0-7.3-2.82l-21.34-6.06C314.42,352,313.48,350,311.52,347.62Z"/>
            <path class="ba014a78-c8aa-4c5e-bb50-e4577765ae29" d="M326.78,344.56a4.09,4.09,0,0,0,3.5-.11,6.31,6.31,0,0,0-2.79-1.12,1.53,1.53,0,0,0-.85.06.65.65,0,0,0-.38.71A.88.88,0,0,0,326.78,344.56Z"/>
            <path class="b1950333-2180-447c-985f-731f7dc644f3" d="M342.19,350c-4.75-4.37-11.66-6.78-18-7.85l.83-.33c6.67.58,13.36,2.95,18.23,7.74a22,22,0,0,1,6.31,12.63C347.67,357.79,345.73,353.28,342.19,350Z"/>
          </g>
        </g>
      </g>
    </g>
  </g>
  <g class="bca1e1b9-82b7-4d86-b9c6-e76126329b42">
    <rect class="aec6f139-f442-41a8-a00b-8760cfffa5ae" x="-629" y="21.87" width="656.9" height="303.36"/>
    <path class="a49fddad-0da1-4393-9e4f-fd90744a4bb6" d="M-585.82,330.85c-1.77,1.85,610.78,1.8,610.78,1.8S10.14,288.36-36.12,309.9c0,0-21.11-29.32-69.16,3,0,0-41.74-21.23-66.53,1.07,0,0-5.27-9.5-13-7,0,0-19.53-11.15-29.45,5.37,0,0-19.83-8.26-26.34,4.55,0,0-45.92-12.93-85.87,2.76,0,0-13.51-16.94-26.32.87,0,0-27.81-13.09-47.17,2.18,0,0-10.27-9.39-20.3.86,0,0-13-13.58-35.12-.16,0,0-14.63-17.19-39.47,1.21,0,0-13.5-20.44-40.8,1.23C-535.67,325.82-564.81,308.91-585.82,330.85Z"/>
  </g>
  <g class="abab4105-b454-48a8-acbd-52c0888db256">
    <rect class="a64227a4-4b8c-401a-9a81-646b309dff99" x="446.22" y="184.31" width="576.56" height="254.54"/>
    <rect class="aec6f139-f442-41a8-a00b-8760cfffa5ae" x="396.81" y="21.87" width="656.9" height="303.36"/>
    <path class="a49fddad-0da1-4393-9e4f-fd90744a4bb6" d="M440,330.85c-1.76,1.85,610.79,1.8,610.79,1.8S1036,288.36,989.69,309.9c0,0-21.11-29.32-69.16,3,0,0-41.74-21.23-66.53,1.07,0,0-5.27-9.5-13-7,0,0-19.53-11.15-29.45,5.37,0,0-19.83-8.26-26.34,4.55,0,0-45.92-12.93-85.87,2.76,0,0-13.51-16.94-26.32.87,0,0-27.81-13.09-47.17,2.18,0,0-10.27-9.39-20.3.86,0,0-13-13.58-35.12-.16,0,0-14.63-17.19-39.47,1.21,0,0-13.5-20.44-40.8,1.23C490.14,325.82,461,308.91,440,330.85Z"/>
  </g>
</svg>
