<svg xmlns="http://www.w3.org/2000/svg" xmlns:xlink="http://www.w3.org/1999/xlink" width="462.9" height="482.5" viewBox="0 0 462.9 482.5">
  <defs>
    <style>
      .e9b2e97d-233f-4e62-8672-287cbcf70b28 {
        fill: none;
      }

      .e56a8f2e-6b2d-468b-9341-10bb7f65b5cc {
        isolation: isolate;
      }

      .b19e7d09-2e30-4796-9507-f42eb884fbd4 {
        opacity: 0.5;
      }

      .e2f10409-e049-4f80-afe0-92d120693ba7 {
        fill: url(#a9399dcd-fba8-4352-8e9d-1ae719b751a7);
      }

      .e24c12e9-ffaa-4982-9696-602da593f9b7 {
        fill: #31d0e5;
        stroke-width: 6px;
        stroke: url(#a13c41bc-4094-4b9b-bc54-4e1d09d96ee7);
      }

      .aa3e19f5-7abc-44ff-b0e8-6950a374b9e9, .b8099a9f-f93d-4bc8-ae2e-77d73a7ed2d5, .e24c12e9-ffaa-4982-9696-602da593f9b7 {
        stroke-miterlimit: 10;
      }

      .ab94def9-4b44-458b-a9a1-e7ee83bd590c {
        clip-path: url(#bd34d1ae-326b-47f0-bbbb-7770a1c496bc);
      }

      .b8099a9f-f93d-4bc8-ae2e-77d73a7ed2d5 {
        fill: #41a022;
        stroke: #38841c;
        stroke-width: 0.5px;
      }

      .f6cff7f3-18b0-4659-b9b6-9a998b14656a {
        fill: #204910;
        opacity: 0.32;
      }

      .e4925e5d-1957-4299-b0a8-3714383487e7 {
        fill: #8fc12f;
      }

      .a5eb8a57-e377-48c8-a0bf-3c11fea1cc7e, .e4925e5d-1957-4299-b0a8-3714383487e7 {
        opacity: 0.51;
      }

      .f8e6a01b-5767-40cb-9197-09762a4aa5b1 {
        fill: #353535;
      }

      .aa3e19f5-7abc-44ff-b0e8-6950a374b9e9 {
        fill: #48bc28;
        stroke: #45a525;
      }

      .bfab38a6-3d14-42c8-8837-582926bc6bc7, .bff2fafc-cb14-4e1b-9e0f-be8b98b3a5be {
        fill: #b0e573;
      }

      .bff2fafc-cb14-4e1b-9e0f-be8b98b3a5be {
        mix-blend-mode: screen;
        opacity: 0.69;
      }

      .a5eb8a57-e377-48c8-a0bf-3c11fea1cc7e {
        fill: #b6f261;
      }
    </style>
    <linearGradient id="a9399dcd-fba8-4352-8e9d-1ae719b751a7" x1="52.73" y1="118.79" x2="402" y2="358.11" gradientUnits="userSpaceOnUse">
      <stop offset="0" stop-color="#9b81cf"/>
      <stop offset="1" stop-color="#3b139b"/>
    </linearGradient>
    <linearGradient id="a13c41bc-4094-4b9b-bc54-4e1d09d96ee7" x1="25.67" y1="241.25" x2="437.24" y2="241.25" gradientUnits="userSpaceOnUse">
      <stop offset="0" stop-color="#4c1da9"/>
      <stop offset="1" stop-color="#997ece"/>
    </linearGradient>
    <clipPath id="bd34d1ae-326b-47f0-bbbb-7770a1c496bc">
      <ellipse class="e9b2e97d-233f-4e62-8672-287cbcf70b28" cx="223.39" cy="243.57" rx="197.16" ry="209.22"/>
    </clipPath>
  </defs>
  <g class="e56a8f2e-6b2d-468b-9341-10bb7f65b5cc">
    <g id="b0dd12c0-d8a5-44e2-9b35-07795d80eeba" data-name="Layer 1">
      <g>
        <path class="b19e7d09-2e30-4796-9507-f42eb884fbd4" d="M444.68,252.5a208.28,208.28,0,0,0-25.42-100,211.66,211.66,0,0,0-187.81-114c-116.9,0-211.67,94.78-211.67,211.68s94.77,211.68,211.67,211.68c3,0,5.93-.08,8.87-.2C353.63,459.07,444.68,366.42,444.68,252.5Z"/>
        <g>
          <g>
            <circle class="e2f10409-e049-4f80-afe0-92d120693ba7" cx="231.45" cy="241.25" r="211.68"/>
            <circle class="e24c12e9-ffaa-4982-9696-602da593f9b7" cx="231.45" cy="241.25" r="202.78"/>
          </g>
          <g class="ab94def9-4b44-458b-a9a1-e7ee83bd590c">
            <g>
              <g>
                <g>
                  <path class="b8099a9f-f93d-4bc8-ae2e-77d73a7ed2d5" d="M189.78,148.19s-18.35,13.49-19.28,29.95l4.09,5.37s-1.11-16.11,14.94-33.38Z"/>
                  <path class="f6cff7f3-18b0-4659-b9b6-9a998b14656a" d="M174.59,183.51s-1.57-16.06,14.94-33.38l.11-.88s-18.31,17.5-15.82,33.24Z"/>
                  <path class="e4925e5d-1957-4299-b0a8-3714383487e7" d="M170.5,178.14s1-12.78,13.2-24.58c0,0-10.2,10.92-13,24.79Z"/>
                </g>
                <g>
                  <g>
                    <path class="e9b2e97d-233f-4e62-8672-287cbcf70b28" d="M333.94,70.62c0,.06-.07.12-.11.17a4.19,4.19,0,0,1-.3.39C333.67,71,333.8,70.81,333.94,70.62Z"/>
                    <path class="f8e6a01b-5767-40cb-9197-09762a4aa5b1" d="M334.47,69.35l.11-.17c.07-.11.29-.34.35-.08a1.06,1.06,0,0,1-.19.77l-.1.17c-.07.11-.29.34-.36.08a1.16,1.16,0,0,1,.19-.77,1.63,1.63,0,0,0,.11-.17c.05.23.11.47.16.69l-.1.17c-.07.12-.29.34-.36.08A1.22,1.22,0,0,1,334.47,69.35Z"/>
                    <path class="aa3e19f5-7abc-44ff-b0e8-6950a374b9e9" d="M243.62,146.28c-54.65,21.7-57.13,5.65-57.13,5.65C179,150.78,174,133.32,197.2,106.28c17.8-20.72,31.42-18.45,70.08-21.47,43.47-3.39,60.69-15.13,62.77-17.7C318.06,83.59,284.42,130.08,243.62,146.28Z"/>
                    <path class="b8099a9f-f93d-4bc8-ae2e-77d73a7ed2d5" d="M193.69,188.75c-9.85-8.17-12.65-26.46-7.2-36.82,0,0,25.33,13.59,70.64-14.69,37.46-23.38,60.72-53.19,72.71-69.67a4.19,4.19,0,0,0,.3-.39c-7.86,12.15-9.42,44-23.6,76C277.65,208.56,207.51,200.24,193.69,188.75Z"/>
                  </g>
                  <g>
                    <path class="bff2fafc-cb14-4e1b-9e0f-be8b98b3a5be" d="M304.4,147.64s-.15,0-.41.08l-1.2.36a26.85,26.85,0,0,1-4.89.85,44.12,44.12,0,0,1-8-.14A106.31,106.31,0,0,1,279,147.07c-2.91-.6-6.1-1.3-9.3-2s-6.4-1.31-9.38-1.7a33.5,33.5,0,0,0-7.84-.27,13.3,13.3,0,0,0-2.48.49l-.39.12-.27.1-.23.09.23-.08.28-.1.38-.11a13.15,13.15,0,0,1,2.46-.44,32.71,32.71,0,0,1,7.7.42c2.92.45,6.07,1.14,9.22,1.86s6.31,1.48,9.21,2.08a99,99,0,0,0,10.9,1.78,42.93,42.93,0,0,0,8.22.07,22.61,22.61,0,0,0,5.08-1.06c.55-.2.95-.35,1.21-.48S304.41,147.66,304.4,147.64Z"/>
                    <path class="bff2fafc-cb14-4e1b-9e0f-be8b98b3a5be" d="M217.47,155.58c0,.09.68-.09,2-.15a17.13,17.13,0,0,1,2.52.13,26.12,26.12,0,0,1,3.46.68,73.24,73.24,0,0,1,9.55,3.39c3.79,1.57,8.19,3.57,13.48,5.77a119.82,119.82,0,0,0,12.42,4.49,56.87,56.87,0,0,0,13.35,2.42,35.11,35.11,0,0,0,6.06-.19,30.61,30.61,0,0,0,4.86-1c.68-.18,1.28-.4,1.8-.58s1-.37,1.32-.51c.71-.32,1.1-.48,1.1-.48l-1.11.46-1.32.48c-.53.16-1.13.37-1.81.54a30.39,30.39,0,0,1-4.82.87,35.93,35.93,0,0,1-6,.07,57.26,57.26,0,0,1-13.13-2.63A130.83,130.83,0,0,1,249,164.76c-5.25-2.22-9.64-4.25-13.45-5.82a66.5,66.5,0,0,0-9.72-3.34,24.45,24.45,0,0,0-3.59-.59,14.74,14.74,0,0,0-2.68,0A4.32,4.32,0,0,0,217.47,155.58Z"/>
                    <path class="bff2fafc-cb14-4e1b-9e0f-be8b98b3a5be" d="M188.19,153.58c0,.14.69,0,2,.44a30,30,0,0,1,5.77,2.9c2.54,1.52,5.7,3.6,9.62,6.15s8.59,5.55,14.27,8.74a117.68,117.68,0,0,0,13.36,6.48c2.37.94,4.77,1.79,7.14,2.48a60.72,60.72,0,0,0,6.92,1.62,49.33,49.33,0,0,0,6.2.69,46.74,46.74,0,0,0,5-.06c1.39-.11,2.5-.26,3.26-.38l1.17-.2-1.17.16c-.77.1-1.88.21-3.27.28a44.69,44.69,0,0,1-4.94-.09,48.37,48.37,0,0,1-6.14-.85,60.4,60.4,0,0,1-6.82-1.78c-2.33-.75-4.69-1.63-7-2.62a127.35,127.35,0,0,1-13.17-6.63c-5.61-3.21-10.25-6.24-14.18-8.77s-7.11-4.58-9.73-6.06a23.36,23.36,0,0,0-6.09-2.65,4.63,4.63,0,0,0-1.65-.08C188.34,153.42,188.18,153.52,188.19,153.58Z"/>
                    <path class="bff2fafc-cb14-4e1b-9e0f-be8b98b3a5be" d="M276.55,124.34a4.84,4.84,0,0,0,1-.2,19.06,19.06,0,0,1,3.1-.34c1.37-.07,3.08,0,5.15.06s4.49.27,7.36.44c2,.12,4.31.22,6.65.23a48.88,48.88,0,0,0,6.92-.44,28.17,28.17,0,0,0,3.09-.61,19.22,19.22,0,0,0,2.44-.82c.67-.29,1.18-.56,1.53-.75l.38-.22.13-.08-.13.07-.39.22a13.36,13.36,0,0,1-1.54.71,18.9,18.9,0,0,1-2.42.76,25.67,25.67,0,0,1-3,.54,48.89,48.89,0,0,1-6.79.29c-2.29,0-4.54-.18-6.56-.31-2.85-.19-5.27-.38-7.35-.47a51.18,51.18,0,0,0-5.26,0c-.72,0-1.35.12-1.9.21a11,11,0,0,0-1.37.29A2.85,2.85,0,0,0,276.55,124.34Z"/>
                    <path class="bff2fafc-cb14-4e1b-9e0f-be8b98b3a5be" d="M303.16,101.09c0,.08.18.11.47.1.14,0,.33,0,.55,0s.48,0,.78,0a11.15,11.15,0,0,1,2.38.47c1,.28,2.16.73,3.54,1.25a23.32,23.32,0,0,0,3.19,1,6.45,6.45,0,0,0,3.08.06,3.8,3.8,0,0,0,2-1.23l.26-.31.18-.27.14-.22-.16.2a2.79,2.79,0,0,1-.19.24l-.28.28a3.74,3.74,0,0,1-2,1,7,7,0,0,1-3-.3,29.67,29.67,0,0,1-3.13-1.14c-1.37-.55-2.57-1-3.58-1.31a8.7,8.7,0,0,0-2.47-.39,4.73,4.73,0,0,0-.82.07,4.61,4.61,0,0,0-.54.16C303.24,100.9,303.13,101,303.16,101.09Z"/>
                    <path class="bff2fafc-cb14-4e1b-9e0f-be8b98b3a5be" d="M215.92,155.27c.07.15.54,0,1.19-.82a13.72,13.72,0,0,0,1.83-5.3,87.17,87.17,0,0,0,1.06-11c.24-4.61.38-10.17.75-16.51.28-4.51.69-9.42,1.43-14a54.7,54.7,0,0,1,3.21-12.2,24.29,24.29,0,0,1,4.33-7.11,19.17,19.17,0,0,1,1.63-1.53l.61-.5-.64.44a18.72,18.72,0,0,0-1.71,1.41A22.33,22.33,0,0,0,225,94.88a50.1,50.1,0,0,0-3.59,12,123.3,123.3,0,0,0-1.67,14c-.43,6.34-.59,11.9-.82,16.49s-.49,8.25-.91,10.94a20.76,20.76,0,0,1-1.4,5.4C216.12,154.71,215.82,155.09,215.92,155.27Z"/>
                    <path class="bff2fafc-cb14-4e1b-9e0f-be8b98b3a5be" d="M240,146.8c.06,0,.16-.09.3-.34s.15-.28.25-.48a4.31,4.31,0,0,0,.3-.7,21.24,21.24,0,0,0,1.06-5.16,65.44,65.44,0,0,0,.14-8.9c-.12-3.6-.43-7.83-.58-12.8-.07-1.77-.08-3.63-.07-5.55s.1-3.87.28-5.84a52.4,52.4,0,0,1,.83-5.79c.17-.94.42-1.86.65-2.76.11-.45.27-.88.4-1.32s.25-.86.43-1.27c.32-.83.6-1.64,1-2.38l.5-1.09.56-1c.18-.33.35-.65.53-1l.56-.87.52-.79.53-.69c.34-.44.63-.84.92-1.17l.74-.82.63-.7-.65.67-.78.79c-.3.32-.61.72-1,1.14l-.56.68-.55.78c-.2.27-.39.56-.6.85s-.37.61-.57.94-.4.66-.6,1l-.55,1.09c-.4.74-.71,1.55-1.07,2.38-.18.42-.31.85-.47,1.29s-.32.87-.45,1.33c-.26.91-.55,1.84-.75,2.79a51.55,51.55,0,0,0-1,5.88c-.23,2-.34,4-.42,5.92s-.06,3.83,0,5.61c.1,5,.39,9.26.52,12.83a84.09,84.09,0,0,1,0,8.75,32.37,32.37,0,0,1-.69,5,7,7,0,0,1-.16.71c-.05.2-.09.36-.12.5S239.92,146.78,240,146.8Z"/>
                    <path class="bff2fafc-cb14-4e1b-9e0f-be8b98b3a5be" d="M258.26,135.08c.13.32.5.34,1.08-.12a9.45,9.45,0,0,0,2-3.76,62.85,62.85,0,0,0,1.95-9.26c.63-4.07,1.21-9.15,2-14.82A109.64,109.64,0,0,1,267.6,95a23.42,23.42,0,0,1,3.87-8.75,6.19,6.19,0,0,1,4.76-2.49c.36,0,.67,0,1,0s.55.12.76.17l.65.15-.68-.26-.8-.3c-.3-.08-.63-.12-1-.2A6,6,0,0,0,271,85c-1.71,1.6-3.23,4.44-4.36,8A81,81,0,0,0,264,104.81c-.9,5.6-1.51,10.63-2.12,14.67s-1.18,7.18-1.75,9.41C259,133.35,258,134.32,258.26,135.08Z"/>
                    <path class="bff2fafc-cb14-4e1b-9e0f-be8b98b3a5be" d="M302,101.32c.08.07.27,0,.58-.41A7.38,7.38,0,0,0,303.65,99a11.37,11.37,0,0,0,.51-1.61c.15-.61.29-1.28.41-2,.23-1.48.39-3.21.7-5.21a35.13,35.13,0,0,1,1-4.5,26.86,26.86,0,0,1,1.67-4.28,31.57,31.57,0,0,1,1.73-3.07c.24-.38.44-.67.58-.87l.2-.3-.23.28-.65.8a30.59,30.59,0,0,0-2,3,24.68,24.68,0,0,0-2,4.29,28.22,28.22,0,0,0-1.23,4.63c-.36,2-.54,3.79-.76,5.22a23.79,23.79,0,0,1-.74,3.42C302.26,100.44,301.79,101.15,302,101.32Z"/>
                    <path class="bff2fafc-cb14-4e1b-9e0f-be8b98b3a5be" d="M190.35,153.37c.09.11.49-.14,1.18-.84a16.67,16.67,0,0,0,2.46-3.88,41.15,41.15,0,0,0,2.55-7.67c.78-3.22,1.46-7.09,2.13-11.63,1-6.44,1.87-14.33,3.4-20.39.37-1.52.79-2.91,1.2-4.15.22-.61.42-1.2.62-1.73s.43-1,.61-1.45l.57-1.16c.16-.34.33-.6.46-.84l.4-.7-.44.68c-.13.22-.33.47-.5.81l-.63,1.12c-.2.44-.44.91-.69,1.43s-.46,1.09-.71,1.7c-.47,1.23-1,2.6-1.39,4.11-1.81,6-3,13.92-4.08,20.32-.72,4.51-1.43,8.34-2.17,11.5a49.24,49.24,0,0,1-2.34,7.5C191.42,151.83,190.09,153.11,190.35,153.37Z"/>
                    <path class="bff2fafc-cb14-4e1b-9e0f-be8b98b3a5be" d="M277.44,124.53c.1.26.44.25,1-.15a8.66,8.66,0,0,0,2-3.17,49.51,49.51,0,0,0,2.22-7.7c.76-3.37,1.53-7.57,2.55-12.27a86.23,86.23,0,0,1,2.69-10,20.79,20.79,0,0,1,4-7.38,6.74,6.74,0,0,1,4.51-2.27c.33,0,.62,0,.89,0s.51.08.7.11l.59.09-.62-.18-.73-.2c-.27-.06-.58-.07-.93-.12a6.58,6.58,0,0,0-4.83,1.6,17.49,17.49,0,0,0-4.4,6.81,65.62,65.62,0,0,0-3,9.77c-1.09,4.64-1.88,8.8-2.63,12.15a76.88,76.88,0,0,1-2,7.8C278.17,123.08,277.18,123.92,277.44,124.53Z"/>
                  </g>
                  <path class="bfab38a6-3d14-42c8-8837-582926bc6bc7" d="M186.49,151.93c26.54,11,58.38-6.83,79.41-22.64,23.26-17.61,43.14-39.13,63-60.56C305.41,103.81,271.4,142,230,155c-13.88,4.09-31,5.31-43.53-3Z"/>
                </g>
                <path class="a5eb8a57-e377-48c8-a0bf-3c11fea1cc7e" d="M184.56,151.08s-1.61-50.39,46.71-61c10.64-2.34,27.61,1.6,38.28-.64C322,78.38,312,76.37,326,70.19c0,0-17.37,9.9-49.86,13.18,0,0-29.72,2.24-34.65,2.94-15.88,2.26-26.85-.57-45,20.1C196.47,106.41,170.51,136.34,184.56,151.08Z"/>
                <path class="f6cff7f3-18b0-4659-b9b6-9a998b14656a" d="M184.53,160.29s3,28.53,40.18,31.29c0,0,65.84-2.68,82.51-57.27,0,0,14.07-52.79,18.74-59.14,0,0-3.94,11.59-7.62,32.5,0,0-10.24,43.67-27.31,59.79,0,0-20.7,32.12-72.14,28.89C218.89,196.35,181.5,198,184.53,160.29Z"/>
              </g>
              <g>
                <g>
                  <path class="b8099a9f-f93d-4bc8-ae2e-77d73a7ed2d5" d="M285.53,2.7s-3.9,15.51,2.42,24.43l4.33.88s-7.23-7.81-6.08-24.19Z"/>
                  <path class="f6cff7f3-18b0-4659-b9b6-9a998b14656a" d="M292.28,28s-7.45-7.56-6.08-24.19l-.3-.5s-2.23,17.55,5.56,24.52Z"/>
                  <path class="e4925e5d-1957-4299-b0a8-3714383487e7" d="M288,27.13s-4.78-7-3.34-18.82c0,0-.76,10.38,3.53,18.84Z"/>
                </g>
                <g>
                  <g>
                    <path class="aa3e19f5-7abc-44ff-b0e8-6950a374b9e9" d="M312.54-23.34c-19.25,36.64-27.16,29.5-27.16,29.5C281,9.07,271.22,2.38,272-22.39c.63-19,8.6-24.14,27.31-43.69,21-22,25.08-36,25.1-38.35C325.07-90.34,326.91-50.69,312.54-23.34Z"/>
                    <path class="b8099a9f-f93d-4bc8-ae2e-77d73a7ed2d5" d="M304.31,21.83c-8.47.36-17.47-7.78-18.93-15.67,0,0,18.69-4.76,30.4-40.45,9.68-29.5,9.37-55.71,8.75-69.81a3,3,0,0,0,0-.33c1,9.92,13.31,27.08,19.24,50.24C355.84-7,316.19,21.32,304.31,21.83Z"/>
                  </g>
                  <g>
                    <path class="bff2fafc-cb14-4e1b-9e0f-be8b98b3a5be" d="M286.94,6.22c.07.06.35-.32,1.21-.7a20,20,0,0,1,4.18-1.19c1.94-.4,4.43-.79,7.51-1.3s6.73-1.13,11-2.13A78.26,78.26,0,0,0,320.39-2c1.62-.62,3.21-1.3,4.72-2a43.49,43.49,0,0,0,4.24-2.38,36.37,36.37,0,0,0,3.49-2.54c1-.84,1.85-1.64,2.54-2.34s1.19-1.3,1.53-1.72l.52-.64-.54.63c-.35.4-.88,1-1.57,1.66a32.76,32.76,0,0,1-2.59,2.25,34.72,34.72,0,0,1-3.52,2.42A44.56,44.56,0,0,1,325-4.41c-1.52.69-3.1,1.33-4.71,1.91A86.25,86.25,0,0,1,310.71.2c-4.23,1-7.88,1.55-10.95,2.07s-5.57,1-7.52,1.4A16.08,16.08,0,0,0,288,5.14a3.2,3.2,0,0,0-.88.73C287,6.07,286.91,6.2,286.94,6.22Z"/>
                    <path class="bff2fafc-cb14-4e1b-9e0f-be8b98b3a5be" d="M288,5.12c.1,0,.2-.3.26-1A11.11,11.11,0,0,0,287.89,1,27.38,27.38,0,0,0,286-4.17c-.93-2-2.18-4.33-3.71-7-2.16-3.77-4.95-8.27-6.66-12.11-.44-1-.8-1.87-1.1-2.7-.14-.42-.28-.81-.39-1.18s-.2-.73-.29-1-.13-.61-.18-.86-.08-.47-.11-.65c-.06-.35-.09-.55-.09-.55s0,.2.06.56c0,.17,0,.4.07.65s.09.55.14.87.15.68.24,1.06.21.78.33,1.21c.27.85.58,1.79,1,2.77a115.35,115.35,0,0,0,6.29,12.39c1.49,2.66,2.71,5,3.63,7a32.67,32.67,0,0,1,1.9,5C287.88,3.82,287.72,5.1,288,5.12Z"/>
                  </g>
                  <path class="bfab38a6-3d14-42c8-8837-582926bc6bc7" d="M285.38,6.16c14-5.7,21.54-21.08,26.46-34.52,8.22-24,9.92-49.48,12.67-74.69,2.6,20.51,2.05,41.47-2.66,61.71C318.71-28.65,313.8-16,305.19-5.95,300-.17,293.3,5.27,285.38,6.16Z"/>
                </g>
                <path class="a5eb8a57-e377-48c8-a0bf-3c11fea1cc7e" d="M284,6.62s-21.65-25.26-1.1-53.24c4.52-6.16,14.91-12,19.49-18.15,22.51-30.08,16.54-26.49,21.19-36.17,0,0-4.88,13.2-20.3,30,0,0-14.42,15-16.67,17.64-7.27,8.56-14.1,12.2-14.92,31.31C271.72-22,270.69,5.55,284,6.62Z"/>
                <path class="f6cff7f3-18b0-4659-b9b6-9a998b14656a" d="M287.82,11.39s13.34,13.33,33.67-2.54c0,0,32.89-32,18.94-68,0,0-14.55-33.8-14.76-39.26A161.47,161.47,0,0,0,335.16-78s12.76,27.31,10.61,43.58c0,0,2.58,26.21-25.31,48.48C320.46,14,301.84,32.28,287.82,11.39Z"/>
              </g>
              <g>
                <g>
                  <path class="b8099a9f-f93d-4bc8-ae2e-77d73a7ed2d5" d="M171.3,2.31s-.66,12.59,5.54,18.38l3.47-.07S173.57,15.85,172,3.06Z"/>
                  <path class="f6cff7f3-18b0-4659-b9b6-9a998b14656a" d="M180.31,20.62S173.44,16.08,172,3.06l-.31-.34s.94,13.88,8,17.91Z"/>
                  <path class="e4925e5d-1957-4299-b0a8-3714383487e7" d="M176.84,20.69s-4.74-4.61-5.41-13.91c0,0,1,8.11,5.57,13.89Z"/>
                </g>
                <g>
                  <g>
                    <path class="aa3e19f5-7abc-44ff-b0e8-6950a374b9e9" d="M188.14-22.3C178.86,9.14,171.7,5,171.7,5c-2.91,3-11.45-.5-14.56-19.69-2.38-14.7,3-20,14.41-38.23,12.86-20.48,13.84-32,13.51-33.75C187.66-75.94,195.06-45.76,188.14-22.3Z"/>
                    <path class="b8099a9f-f93d-4bc8-ae2e-77d73a7ed2d5" d="M188.62,13.83c-6.45,1.71-14.6-3-16.92-8.83,0,0,13.65-6.84,17.27-36.27,3-24.33-1.2-44.43-3.8-55.16l0-.26c2.23,7.47,14.32,18.57,22.37,35.37C223.9-17.11,197.68,11.42,188.62,13.83Z"/>
                  </g>
                  <g>
                    <path class="bff2fafc-cb14-4e1b-9e0f-be8b98b3a5be" d="M172.91,4.78c.06,0,.22-.31.83-.75a16.43,16.43,0,0,1,3-1.62c1.43-.64,3.29-1.36,5.58-2.28s5-2,8.12-3.5A62.81,62.81,0,0,0,197.4-7.2c1.15-.75,2.27-1.54,3.32-2.37a36.89,36.89,0,0,0,2.9-2.55,31.84,31.84,0,0,0,2.3-2.54c.65-.82,1.18-1.59,1.6-2.24s.72-1.2.91-1.58l.31-.58-.32.57c-.21.37-.53.9-1,1.55a24.6,24.6,0,0,1-1.65,2.17,29.12,29.12,0,0,1-2.34,2.46,34.81,34.81,0,0,1-2.93,2.45c-1.06.8-2.18,1.56-3.33,2.27a67.29,67.29,0,0,1-6.93,3.7c-3.11,1.46-5.82,2.53-8.1,3.46S178,1.24,176.6,1.92a12.67,12.67,0,0,0-3,1.85,2.57,2.57,0,0,0-.57.71C172.9,4.66,172.89,4.77,172.91,4.78Z"/>
                    <path class="bff2fafc-cb14-4e1b-9e0f-be8b98b3a5be" d="M173.53,3.76c.08,0,.11-.27.05-.81a8.35,8.35,0,0,0-.73-2.36,21.16,21.16,0,0,0-2.2-3.65c-1-1.39-2.33-3-3.9-4.74-2.24-2.53-5.06-5.52-6.95-8.18-.49-.66-.9-1.31-1.26-1.89l-.48-.85c-.13-.27-.26-.52-.37-.74l-.27-.63c-.09-.18-.13-.35-.19-.48l-.14-.41s0,.15.12.42a4.52,4.52,0,0,0,.16.49l.24.64c.1.24.22.5.34.78s.28.56.44.87c.33.61.71,1.28,1.17,2a86,86,0,0,0,6.71,8.45c1.54,1.8,2.83,3.36,3.83,4.73A24.07,24.07,0,0,1,172.31.86C173.27,2.78,173.35,3.78,173.53,3.76Z"/>
                  </g>
                  <path class="bfab38a6-3d14-42c8-8837-582926bc6bc7" d="M171.7,5c14.72-10.91,15.86-37.58,15.61-54.54-.18-12.08-1.48-24-2-36.08,7.89,22.46,11.81,49.88,2.87,72.59l-1.27,2.89c-.8,1.61-1.84,3.24-2.75,4.8-.39.54-2,2.61-2.4,3.15-2.77,3.08-6,6-10.07,7.19Z"/>
                </g>
                <path class="a5eb8a57-e377-48c8-a0bf-3c11fea1cc7e" d="M170.73,5.58s-20.45-15.75-8.88-40.75c2.56-5.5,9.66-11.78,12.26-17.26,12.76-26.95,8.72-23.18,10.83-31.41,0,0-1.76,11-11.08,26.52,0,0-8.82,14-10.16,16.39-4.29,7.82-9,11.78-6.74,26.61C157-14.32,160.32,7,170.73,5.58Z"/>
                <path class="f6cff7f3-18b0-4659-b9b6-9a998b14656a" d="M174.37,8.61s12.27,8,25.51-7.68c0,0,20.45-30.2,4.31-55.47,0,0-16.29-23.52-17.28-27.68a121.65,121.65,0,0,0,10.37,14S211.21-49.37,212-36.5c0,0,5.94,19.72-12.15,41.58C199.86,5.08,188.3,22.28,174.37,8.61Z"/>
              </g>
            </g>
          </g>
        </g>
      </g>
    </g>
  </g>
</svg>
