<svg id="be96e9fe-8093-4f05-9ffa-41e11c7c3e4d" data-name="Layer 1" xmlns="http://www.w3.org/2000/svg" xmlns:xlink="http://www.w3.org/1999/xlink" width="462.9" height="482.5" viewBox="0 0 462.9 482.5">
  <defs>
    <style>
      .b510a563-115b-49a1-8372-57cf29301ea5 {
        fill: none;
      }

      .fc9a6b94-6769-424c-ac11-daacd98c1c9c {
        opacity: 0.5;
      }

      .bc444005-0f8a-4d97-99a2-50abb81c3d02 {
        fill: url(#e286121b-f8d3-4865-97b8-cba5f394241f);
      }

      .a87cbcac-f19b-4a63-9fc0-db51f9ea1562 {
        fill: #31d0e5;
        stroke-miterlimit: 10;
        stroke-width: 6px;
        stroke: url(#a00dadf1-fc9d-4425-b51a-65e355e94063);
      }

      .bf26d7ad-b7da-4bf1-ab36-2372a48bd94b {
        clip-path: url(#fe4e45f9-2d9f-435f-9cb3-dc393cc4e637);
      }

      .b62a2bc7-cee6-41d0-9d6e-bdf13bdd1947 {
        opacity: 0.25;
      }

      .fbf92d7d-a208-4275-be8d-4094e0d1067f {
        fill: #ee6101;
      }

      .b99b72ce-18e8-41df-bb8c-20572f74a521 {
        fill: #cc3a00;
      }

      .bc9b4b4c-f891-4154-b892-bb8634604e09 {
        fill: #ff8b22;
      }

      .b52c52e4-58d1-473e-9eea-e02becfb8a9b {
        fill: #e28d00;
      }

      .a76802c5-4bb5-47c8-adbc-de8a9eb0f261 {
        fill: #e84d00;
      }

      .b1e592b6-8879-4edd-9701-9b36a2850e01 {
        fill: #fff;
      }

      .aee02427-e8eb-4e3c-bc80-07218ec447bf {
        fill: #ffcea6;
      }

      .fdd56c7a-5e72-4eef-8eb2-07537d2500a5 {
        clip-path: url(#a513f61b-0c15-4ad5-b636-58b66eadfab7);
      }

      .a0c8a214-70f2-4b35-9ad8-52bba9636ab2 {
        clip-path: url(#a01ee786-c65c-44b8-ac05-bd0f5c0ca9e5);
      }

      .b470aa0d-cbf3-4f2e-8c16-abb1e67e06e5 {
        fill: url(#e6068e6e-78dc-42b4-84ea-5a67b3da5876);
      }
    </style>
    <linearGradient id="e286121b-f8d3-4865-97b8-cba5f394241f" x1="52.73" y1="118.79" x2="402" y2="358.11" gradientUnits="userSpaceOnUse">
      <stop offset="0" stop-color="#9b81cf"/>
      <stop offset="1" stop-color="#3b139b"/>
    </linearGradient>
    <linearGradient id="a00dadf1-fc9d-4425-b51a-65e355e94063" x1="25.67" y1="241.25" x2="437.24" y2="241.25" gradientUnits="userSpaceOnUse">
      <stop offset="0" stop-color="#4c1da9"/>
      <stop offset="1" stop-color="#997ece"/>
    </linearGradient>
    <clipPath id="fe4e45f9-2d9f-435f-9cb3-dc393cc4e637">
      <circle class="b510a563-115b-49a1-8372-57cf29301ea5" cx="235.46" cy="243.57" r="209.22"/>
    </clipPath>
    <clipPath id="a513f61b-0c15-4ad5-b636-58b66eadfab7">
      <circle class="b510a563-115b-49a1-8372-57cf29301ea5" cx="-465.88" cy="-317.42" r="248.73"/>
    </clipPath>
    <clipPath id="a01ee786-c65c-44b8-ac05-bd0f5c0ca9e5">
      <rect class="b510a563-115b-49a1-8372-57cf29301ea5" x="-762.86" y="-623.27" width="835.66" height="582.35"/>
    </clipPath>
    <linearGradient id="e6068e6e-78dc-42b4-84ea-5a67b3da5876" x1="25.46" y1="-131.55" x2="25.46" y2="8.29" gradientUnits="userSpaceOnUse">
      <stop offset="0" stop-color="#cea87c"/>
      <stop offset="1" stop-color="#a9865c"/>
    </linearGradient>
  </defs>
  <g>
    <path class="fc9a6b94-6769-424c-ac11-daacd98c1c9c" d="M444.68,252.5a208.28,208.28,0,0,0-25.42-100,211.66,211.66,0,0,0-187.81-114c-116.9,0-211.67,94.78-211.67,211.68s94.77,211.68,211.67,211.68c3,0,5.93-.08,8.87-.2C353.63,459.07,444.68,366.42,444.68,252.5Z"/>
    <g>
      <g>
        <circle class="bc444005-0f8a-4d97-99a2-50abb81c3d02" cx="231.45" cy="241.25" r="211.68"/>
        <circle class="a87cbcac-f19b-4a63-9fc0-db51f9ea1562" cx="231.45" cy="241.25" r="202.78"/>
      </g>
      <g class="bf26d7ad-b7da-4bf1-ab36-2372a48bd94b">
        <g>
          <path class="b62a2bc7-cee6-41d0-9d6e-bdf13bdd1947" d="M148.57,329.83,125.9,392.26a7,7,0,0,0,6.37,9.46H329.56a7,7,0,0,0,6.62-8.63l-15.45-66.78a6.85,6.85,0,0,0-6.8-5.38l-159.16,4.35A6.83,6.83,0,0,0,148.57,329.83Z"/>
          <g>
            <path class="fbf92d7d-a208-4275-be8d-4094e0d1067f" d="M331.4,82.84c-74.25-29-136.91-27.59-197,0-13.16,6,27,161.12,27,161.12L194,241l.64,0h.43l.64,0L304.39,244S344.79,88.06,331.4,82.84Z"/>
            <path class="b99b72ce-18e8-41df-bb8c-20572f74a521" d="M169.4,245.85s3.11-38.67-.23-50.49c-4.65-16.51-8.11-22.74-21.3-27.67-11.76-4.39-44.59-4.6-54.75,8.37s-6.22,25.13-3,30.38,9.14,11.46,21.42,10.22c3.33,12.07,6.6,37.32,6.83,48C126,263.54,169.4,245.85,169.4,245.85Z"/>
            <path class="fbf92d7d-a208-4275-be8d-4094e0d1067f" d="M124.82,264.24s-6.37-48.07-10.62-53.78c-6.9.29-14-1.31-17.89-7.55s-3.78-16.83,2-21.43c7.58-6.07,17.26-4.75,24.87.5,8.34,5.74,13.35,18.55,14.71,40.23,1.71,27.1,3.49,36.78,3.49,36.78Z"/>
            <path class="b99b72ce-18e8-41df-bb8c-20572f74a521" d="M298.13,245.85s-3.11-38.67.23-50.49c4.65-16.51,8.11-22.74,21.3-27.67,11.76-4.39,44.59-4.6,54.75,8.37s6.22,25.13,3,30.38S368.3,217.9,356,216.66c-3.33,12.07-6.59,37.32-6.82,48C341.58,263.54,298.13,245.85,298.13,245.85Z"/>
            <path class="fbf92d7d-a208-4275-be8d-4094e0d1067f" d="M342.72,264.24s6.36-48.07,10.61-53.78c6.9.29,13.95-1.31,17.9-7.55s3.77-16.83-2-21.43c-7.58-6.07-17.25-4.75-24.87.5-8.34,5.74-13.34,18.55-14.71,40.23-1.7,27.1-3.49,36.78-3.49,36.78Z"/>
            <path class="bc9b4b4c-f891-4154-b892-bb8634604e09" d="M361.61,277.05c-3.34-11.16-14.34-17.73-32.24-24.63S303,240.27,296,239.61c-6.55-.62-116.51-.62-123.06,0-7,.66-15.47,5.91-33.36,12.81s-28.9,13.47-32.24,24.63c-2.26,7.55.09,34.81,2.51,42.69a21.47,21.47,0,0,0,14.26,13.8c4.85,1.31,215.87,1.31,220.72,0a21.43,21.43,0,0,0,14.25-13.8C361.52,311.86,363.86,284.6,361.61,277.05Z"/>
            <path class="b52c52e4-58d1-473e-9eea-e02becfb8a9b" d="M330.64,367.33c8.52-20.56,6.09-44,6.09-44H307.44s-2.43,23.44,6.1,44c3.37.14,3.56-.06,3.56-.06s1.3,2.52-.52,4.2-4,3.82-4,8.15c.1,4.6,2.24,6.24,3.8,7.3.22,2,1.52,10.87,1.52,11.74h8.29c0-.87,1.3-9.78,1.53-11.74a8.34,8.34,0,0,0,3.79-7.3c.06-4.17-2.14-6.46-4-8.15s-.51-4.2-.51-4.2S327.27,367.47,330.64,367.33Z"/>
            <path class="b52c52e4-58d1-473e-9eea-e02becfb8a9b" d="M153.26,367.33c8.53-20.56,6.1-44,6.1-44H130.07s-2.43,23.44,6.09,44c3.37.14,3.57-.06,3.57-.06s1.29,2.52-.52,4.2-4,3.82-4,8.15c.09,4.6,2.24,6.24,3.79,7.3.23,2,1.52,10.87,1.53,11.74h8.29c0-.87,1.3-9.78,1.52-11.74a8.34,8.34,0,0,0,3.8-7.3c.06-4.17-2.15-6.46-4-8.15s-.52-4.2-.52-4.2S149.89,367.47,153.26,367.33Z"/>
            <path class="a76802c5-4bb5-47c8-adbc-de8a9eb0f261" d="M361.61,277.05c-.83-2.79-2.52-7.53-5.61-7.55-65.52-.43-177.52-.43-243,0-3.09,0-4.78,4.76-5.61,7.55-2.26,7.55.09,34.81,2.51,42.69a21.47,21.47,0,0,0,14.26,13.8c4.85,1.31,215.87,1.31,220.72,0a21.43,21.43,0,0,0,14.25-13.8C361.52,311.86,363.86,284.6,361.61,277.05Z"/>
            <path class="b1e592b6-8879-4edd-9701-9b36a2850e01" d="M166,206.83,160,192.49c-1.42-3.46-3.32-6.76-2.61-7.51s13.54-.9,20.58.37,21.43,1,26.28,0A138.71,138.71,0,0,0,220,181c2.11-.9,2.64-2,3.7-1.31s1.05,4.61.84,7.51,1.38,14.72,3.17,20.43,4.33,14.72,5.38,15.62,3.27,6.11,3.06,7.21,3.17,2.71,3.91,3.81,2.53,2.9,2.32,3.9,1,.91-3.49,1.8-19,2.21-21,2.61-13.08.6-13.08.6l-19.42-7.31Z"/>
            <path class="aee02427-e8eb-4e3c-bc80-07218ec447bf" d="M170,204.83c8-.4,18.26-.8,24.59-2.1s7.16-2.59,9.87-2.39c.51,0,.89-.52,1,6.09s2.11,21.63,5,26.84,8,9.41,8,10.91-1.06,2.51-4,2.7-20.79,2.11-24.59,2.41-14.88,1.3-18.79,2.2-5.27,1.5-5.69,1-.56-6.61-1.11-11c-.76-6-4.33-16.82-5.91-20.93s-5.42-12.3-6-13.87C150.72,202,162,205.23,170,204.83Z"/>
          </g>
        </g>
      </g>
    </g>
  </g>
  <g class="fdd56c7a-5e72-4eef-8eb2-07537d2500a5">
    <g class="a0c8a214-70f2-4b35-9ad8-52bba9636ab2">
      <path class="b470aa0d-cbf3-4f2e-8c16-abb1e67e06e5" d="M83.86-98.07q4.4-12.9,8.8-25.79-7.5,13.13-15,26.26a93,93,0,0,0,3-28.43q-4.62,14.31-9.26,28.63a114.06,114.06,0,0,0-2.66-34.38A118.81,118.81,0,0,1,64-99.49,87.16,87.16,0,0,0,53.1-129.21,166.37,166.37,0,0,1,61.18-89.7,98.47,98.47,0,0,0,40-122.57,139.47,139.47,0,0,1,52.45-85.46a157.64,157.64,0,0,0-21.34-38.48,289.67,289.67,0,0,1,15.35,43,136,136,0,0,0-20.79-30l9.94,35.11A121.56,121.56,0,0,0,23-104.37a109.35,109.35,0,0,1,4.47,41.28L21.51-84.57a154.53,154.53,0,0,1-7.79,33.85l.42-35.82L2.32-55.4A227.55,227.55,0,0,0,6.1-93.35,235.17,235.17,0,0,0-10.22-58,156.92,156.92,0,0,0-5.35-86.1l-10.2,31.33a193.26,193.26,0,0,0-.39-42.33q-1.7,19.84-3.38,39.7a118.53,118.53,0,0,0-3.26-38.41q-2,18.21-4.09,36.42a67.8,67.8,0,0,0-9.92-32.94q3.36,18.35,6.73,36.7L-41.32-76.72q3.26,13.2,6.49,26.41A60.28,60.28,0,0,0-48-71.36c6,15.1,8.91,61.61,8.51,77.54H98.88V-121.11A80.42,80.42,0,0,0,83.86-98.07Z"/>
    </g>
  </g>
</svg>
