<svg id="b1daf0ec-9f77-4990-9682-d0645d54773c" data-name="Layer 1" xmlns="http://www.w3.org/2000/svg" xmlns:xlink="http://www.w3.org/1999/xlink" width="462.9" height="482.5" viewBox="0 0 462.9 482.5">
  <defs>
    <style>
      .a553ff44-1e87-41a5-b358-87c07767d049, .b0dca62b-fcc5-4856-8202-d299f53b5ec1 {
        fill: none;
      }

      .ec259428-0e2e-4e0a-80a1-784e54c1bfd1 {
        opacity: 0.5;
      }

      .f1505c87-2dca-44da-9767-702e73fd2f3f {
        fill: url(#a7088423-c270-4152-96ba-a42d509bff9e);
      }

      .b2abfe02-5f9c-4e3a-8786-d56c53a23c61 {
        fill: #31d0e5;
        stroke-width: 6px;
        stroke: url(#f29020c9-3b44-41ba-86a8-5b5b6422b76a);
      }

      .a553ff44-1e87-41a5-b358-87c07767d049, .b2abfe02-5f9c-4e3a-8786-d56c53a23c61 {
        stroke-miterlimit: 10;
      }

      .a5720664-1c0d-44f3-ba62-6f958c40f84b {
        clip-path: url(#f6e9fdc3-9b37-4eba-bd59-6e7307562d75);
      }

      .a553ff44-1e87-41a5-b358-87c07767d049 {
        stroke: #262211;
        stroke-width: 0.75px;
      }

      .f0b20e9a-1684-44b0-8b7a-82b3e3b2e5ad {
        fill: #ffd23f;
      }

      .fe8ce32a-fabd-4621-be11-339029819886 {
        opacity: 0.1;
      }

      .be1139c5-3215-42a4-b886-cb9a0300cc22 {
        fill: #fff;
      }

      .a0ba408b-9c96-4e96-916f-3a7f6639852a {
        fill: #e53963;
      }

      .f280614b-600a-444a-a3d0-821e91fe412d {
        fill: #9e4ac6;
      }
    </style>
    <linearGradient id="a7088423-c270-4152-96ba-a42d509bff9e" x1="52.73" y1="118.79" x2="402" y2="358.11" gradientUnits="userSpaceOnUse">
      <stop offset="0" stop-color="#9b81cf"/>
      <stop offset="1" stop-color="#3b139b"/>
    </linearGradient>
    <linearGradient id="f29020c9-3b44-41ba-86a8-5b5b6422b76a" x1="25.67" y1="241.25" x2="437.24" y2="241.25" gradientUnits="userSpaceOnUse">
      <stop offset="0" stop-color="#4c1da9"/>
      <stop offset="1" stop-color="#997ece"/>
    </linearGradient>
    <clipPath id="f6e9fdc3-9b37-4eba-bd59-6e7307562d75">
      <circle class="b0dca62b-fcc5-4856-8202-d299f53b5ec1" cx="235.46" cy="243.57" r="209.22"/>
    </clipPath>
  </defs>
  <g>
    <path class="ec259428-0e2e-4e0a-80a1-784e54c1bfd1" d="M444.68,252.5a208.28,208.28,0,0,0-25.42-100,211.66,211.66,0,0,0-187.81-114c-116.9,0-211.67,94.78-211.67,211.68s94.77,211.68,211.67,211.68c3,0,5.93-.08,8.87-.2C353.63,459.07,444.68,366.42,444.68,252.5Z"/>
    <g>
      <g>
        <circle class="f1505c87-2dca-44da-9767-702e73fd2f3f" cx="231.45" cy="241.25" r="211.68"/>
        <circle class="b2abfe02-5f9c-4e3a-8786-d56c53a23c61" cx="231.45" cy="241.25" r="202.78"/>
      </g>
      <g class="a5720664-1c0d-44f3-ba62-6f958c40f84b">
        <g>
          <path class="a553ff44-1e87-41a5-b358-87c07767d049" d="M244.09,269.33s8.25,25.71-14.87,59.09c-15.81,22.83-39.23,89.71,8.09,112.44"/>
          <path class="a553ff44-1e87-41a5-b358-87c07767d049" d="M318.08,239.25s11.31,27-15.16,57.14-96.09,107.52-57.79,144"/>
          <path class="a553ff44-1e87-41a5-b358-87c07767d049" d="M122.09,409.93c-10.48-2.5-19.53-34.75-16.06-48.27"/>
          <g>
            <path class="f0b20e9a-1684-44b0-8b7a-82b3e3b2e5ad" d="M166,265A59.79,59.79,0,0,0,151,233.9c-9-9.83-19.75-16.53-33.31-18.42a51.83,51.83,0,0,0-32.59,5.62,69.44,69.44,0,0,0-9.86,6.68,58.69,58.69,0,0,0-18,24.85c-5.21,13.29-5.43,27-2.69,40.73a86.9,86.9,0,0,0,20.91,42.11,48.12,48.12,0,0,0,25.91,14.87c2.16.47,2.23.93,1.13,2.58-1.66,2.49-3.12,5.1-4.75,7.79l8.23,1h1.42c1.25-.07,2.5-.34,3.71.36a1.84,1.84,0,0,0,2.26-.12c.64-.69,0-1.43-.33-2.17-1.07-2.62-2-5.29-3-7.93,3.19-1.25,6.65-.72,9.93-1.69a53.91,53.91,0,0,0,31.22-23.44C163.18,307.83,169.77,287.69,166,265Zm-77.3,62.44"/>
            <path class="fe8ce32a-fabd-4621-be11-339029819886" d="M110.1,351.8c-1.09-1.64.77-1.76,1.34-2.12,14.31-9.05,22.12-22.88,28-38.05a74,74,0,0,0,5.44-30.05c-.68-16.17-5.88-30.55-17.57-42.38-8.74-8.84-18.81-14.73-31-17-2.55-.48-5.08-.13-7.61-.33-1.21-.09-2.58.46-3.56-.76a51.83,51.83,0,0,1,32.59-5.62c13.56,1.89,24.34,8.59,33.31,18.42A59.79,59.79,0,0,1,166,265c3.82,22.7-2.77,42.84-14.7,61.68A53.91,53.91,0,0,1,120,350.11C116.75,351.08,113.29,350.55,110.1,351.8Z"/>
            <g>
              <path class="be1139c5-3215-42a4-b886-cb9a0300cc22" d="M88.65,327.43c-3.24-1.62-5.72-4.29-8-7a66.92,66.92,0,0,1-14.62-31c-2.33-12.46-.44-24.38,3.85-36.08.59-1.6,1.52-1.55,3-1.16,1.82.48,1.61,1.29,1.21,2.68a68.91,68.91,0,0,0-2.66,20c.19,10.63,1.77,21.2,5.78,31.22A116.82,116.82,0,0,0,88.65,327.43Z"/>
              <path class="be1139c5-3215-42a4-b886-cb9a0300cc22" d="M73.36,244.66c-.14-2,.9-2.62,2.71-2.66,2.2-.06,2.86,1.27,2.76,3a2.53,2.53,0,0,1-3,2.52C74.17,247.36,73,246.53,73.36,244.66Z"/>
            </g>
          </g>
          <g>
            <path class="a0ba408b-9c96-4e96-916f-3a7f6639852a" d="M378.06,142.6a59.85,59.85,0,0,0-14.91-31.09c-9-9.83-19.75-16.53-33.31-18.41a51.87,51.87,0,0,0-32.6,5.62,69.08,69.08,0,0,0-9.85,6.68,58.74,58.74,0,0,0-18,24.85c-5.2,13.28-5.42,27-2.68,40.72a86.77,86.77,0,0,0,20.91,42.11A48.1,48.1,0,0,0,313.54,228c2.16.47,2.23.92,1.13,2.58-1.66,2.48-3.13,5.09-4.76,7.78l8.23,1h1.43c1.25-.06,2.5-.34,3.71.36a1.83,1.83,0,0,0,2.26-.11c.64-.69,0-1.43-.34-2.18-1.06-2.61-2-5.28-3-7.93,3.19-1.25,6.65-.71,9.93-1.69a53.9,53.9,0,0,0,31.22-23.43C375.3,185.44,381.89,165.31,378.06,142.6Z"/>
            <path class="fe8ce32a-fabd-4621-be11-339029819886" d="M322.22,229.41c-1.09-1.64.77-1.75,1.34-2.11,14.31-9.05,22.11-22.88,28-38.06A74,74,0,0,0,357,159.19c-.68-16.16-5.88-30.54-17.57-42.38-8.74-8.83-18.81-14.72-31-17-2.55-.47-5.08-.13-7.61-.32-1.21-.09-2.59.46-3.57-.76a51.87,51.87,0,0,1,32.6-5.62c13.56,1.88,24.34,8.58,33.31,18.41a59.85,59.85,0,0,1,14.91,31.09c3.83,22.71-2.76,42.84-14.69,61.69a53.9,53.9,0,0,1-31.22,23.43C328.87,228.7,325.41,228.16,322.22,229.41Z"/>
            <g>
              <path class="be1139c5-3215-42a4-b886-cb9a0300cc22" d="M300.77,205c-3.24-1.61-5.72-4.29-8-7a66.91,66.91,0,0,1-14.62-31c-2.34-12.45-.44-24.37,3.85-36.08.59-1.6,1.51-1.55,3-1.16,1.81.48,1.61,1.29,1.21,2.69a68.57,68.57,0,0,0-2.66,20c.19,10.63,1.77,21.19,5.78,31.22A117.06,117.06,0,0,0,300.77,205Z"/>
              <path class="be1139c5-3215-42a4-b886-cb9a0300cc22" d="M285.48,122.28c-.15-2,.9-2.62,2.71-2.67,2.2,0,2.86,1.27,2.76,3a2.54,2.54,0,0,1-3,2.52C286.28,125,285.14,124.14,285.48,122.28Z"/>
            </g>
          </g>
          <g>
            <path class="f280614b-600a-444a-a3d0-821e91fe412d" d="M296.25,197.48a59.87,59.87,0,0,0-14.92-31.09c-9-9.83-19.74-16.52-33.31-18.41a51.84,51.84,0,0,0-32.59,5.62,68,68,0,0,0-9.85,6.68,58.63,58.63,0,0,0-18,24.85c-5.2,13.28-5.43,27-2.68,40.73a86.72,86.72,0,0,0,20.9,42.1,48.08,48.08,0,0,0,25.91,14.88c2.16.47,2.23.93,1.13,2.58-1.65,2.48-3.12,5.09-4.75,7.78l8.23.95h1.42c1.25-.06,2.5-.33,3.71.36a1.84,1.84,0,0,0,2.27-.11c.63-.69,0-1.43-.34-2.17-1.06-2.62-2-5.29-3-7.94,3.19-1.25,6.66-.71,9.94-1.68a54,54,0,0,0,31.21-23.44C293.48,240.32,300.08,220.19,296.25,197.48ZM219,259.92"/>
            <path class="fe8ce32a-fabd-4621-be11-339029819886" d="M240.4,284.29c-1.09-1.64.77-1.75,1.34-2.11,14.31-9.05,22.12-22.88,28-38.05a74.07,74.07,0,0,0,5.45-30.06c-.68-16.16-5.88-30.54-17.58-42.37-8.73-8.84-18.81-14.73-31-17-2.55-.48-5.07-.13-7.6-.33-1.22-.09-2.59.46-3.57-.76A51.84,51.84,0,0,1,248,148c13.57,1.89,24.35,8.58,33.31,18.41a59.87,59.87,0,0,1,14.92,31.09c3.83,22.71-2.77,42.84-14.7,61.69a54,54,0,0,1-31.21,23.44C247.06,283.58,243.59,283,240.4,284.29Z"/>
            <g>
              <path class="be1139c5-3215-42a4-b886-cb9a0300cc22" d="M219,259.92c-3.23-1.61-5.72-4.29-8-7a66.84,66.84,0,0,1-14.63-31c-2.33-12.46-.44-24.38,3.86-36.09.58-1.6,1.51-1.54,3-1.15,1.82.47,1.61,1.29,1.21,2.68a69.25,69.25,0,0,0-2.66,20c.19,10.63,1.77,21.2,5.78,31.22A117.68,117.68,0,0,0,219,259.92Z"/>
              <path class="be1139c5-3215-42a4-b886-cb9a0300cc22" d="M203.66,177.16c-.14-2,.9-2.62,2.72-2.66,2.19-.06,2.85,1.26,2.75,3a2.53,2.53,0,0,1-3,2.52C204.47,179.85,203.32,179,203.66,177.16Z"/>
            </g>
          </g>
        </g>
      </g>
    </g>
  </g>
</svg>
