<svg xmlns="http://www.w3.org/2000/svg" xmlns:xlink="http://www.w3.org/1999/xlink" width="250.26" height="250.26" viewBox="0 0 250.26 250.26">
  <defs>
    <style>
      .e29f6126-043f-4429-a505-fe31822c8027 {
        fill: none;
      }

      .a697262d-30e8-41d7-9f33-dcd4a76c65f5 {
        isolation: isolate;
      }

      .f7869e0e-978e-47a5-a08e-86bbc5cc04fb {
        fill: #fffdfe;
        stroke: #878787;
        stroke-width: 9px;
        mix-blend-mode: multiply;
        opacity: 0.6;
      }

      .a1c2c796-ad2b-478a-9282-48031d8d6060, .a6a0b7d0-d856-4fd3-b5fe-f5af2ce3c6b8, .af3c01e9-a649-4c82-93c0-6ed0c3ea5d47, .b0e8542b-eb79-4211-b7d9-b90304c68722, .b97e5273-a901-4000-869b-e883b991171a, .b9e24c95-3b68-4ad1-a2f4-ac6de2244ad6, .bbb3d6a8-352b-4aa5-ad08-c2bbf1903aea, .be183340-5071-40d5-83a6-90aeaae6c404, .eb48ba33-f0d8-4c6f-a58a-e3ea96f3792c, .f7127d3e-c9a3-4049-aeef-1927e4c18ec5, .f7869e0e-978e-47a5-a08e-86bbc5cc04fb {
        stroke-miterlimit: 10;
      }

      .ade34f47-d0d6-4f6d-9e84-267b914c6050 {
        fill: #cff6ff;
      }

      .b8e0413f-55bd-4ce8-989c-8a266b114996 {
        clip-path: url(#b8a7bf4b-fad9-40ae-a9d4-cd336d455e82);
      }

      .b25dbfee-c107-45b6-899e-c673e8100cab {
        fill: #4c2d12;
      }

      .a1c2c796-ad2b-478a-9282-48031d8d6060 {
        fill: #442315;
        stroke: #231109;
      }

      .a1c2c796-ad2b-478a-9282-48031d8d6060, .a6a0b7d0-d856-4fd3-b5fe-f5af2ce3c6b8, .b0e8542b-eb79-4211-b7d9-b90304c68722, .b97e5273-a901-4000-869b-e883b991171a, .b9e24c95-3b68-4ad1-a2f4-ac6de2244ad6, .bbb3d6a8-352b-4aa5-ad08-c2bbf1903aea, .be183340-5071-40d5-83a6-90aeaae6c404, .eb48ba33-f0d8-4c6f-a58a-e3ea96f3792c, .f7127d3e-c9a3-4049-aeef-1927e4c18ec5 {
        stroke-width: 0.5px;
      }

      .b9e24c95-3b68-4ad1-a2f4-ac6de2244ad6, .f7127d3e-c9a3-4049-aeef-1927e4c18ec5 {
        fill: #c6882b;
      }

      .b9e24c95-3b68-4ad1-a2f4-ac6de2244ad6 {
        stroke: #a06920;
      }

      .a6a0b7d0-d856-4fd3-b5fe-f5af2ce3c6b8, .f134c9ab-33ce-4413-9072-c06e799458a2 {
        fill: #260c01;
      }

      .a6a0b7d0-d856-4fd3-b5fe-f5af2ce3c6b8 {
        stroke: #160601;
      }

      .ba48ff84-495f-4cac-8bcd-c88b86ad7079 {
        fill: #e0c1b8;
      }

      .b97e5273-a901-4000-869b-e883b991171a, .eb48ba33-f0d8-4c6f-a58a-e3ea96f3792c, .f8bccd0e-a3e7-490e-b758-be7861cf4b15 {
        fill: #f9e4dc;
      }

      .b97e5273-a901-4000-869b-e883b991171a {
        stroke: #e2ad9c;
      }

      .f517ae27-f2f5-4a1e-94f0-126f5afe0f96 {
        fill: #3b2314;
      }

      .ee325036-e41c-4294-8099-b34289f8cdf0 {
        fill: #f5daab;
      }

      .be183340-5071-40d5-83a6-90aeaae6c404, .f7127d3e-c9a3-4049-aeef-1927e4c18ec5 {
        stroke: #ce8024;
      }

      .bfc818e8-b5d9-46d8-8c2d-bc4b7ae7e447 {
        fill: #25130a;
      }

      .af3c01e9-a649-4c82-93c0-6ed0c3ea5d47, .b0e8542b-eb79-4211-b7d9-b90304c68722, .be183340-5071-40d5-83a6-90aeaae6c404 {
        fill: #faaf40;
      }

      .b5f02be8-4f85-4afc-b2ce-7046ce128333, .bc29cc09-60a9-4182-bd3a-2d082ff38ea8 {
        fill: #fff;
      }

      .b5f02be8-4f85-4afc-b2ce-7046ce128333 {
        mix-blend-mode: overlay;
        opacity: 0.5;
      }

      .ac195f25-e2fc-4ea6-91cb-e61c9d412d45 {
        fill: #f4eae6;
      }

      .eb48ba33-f0d8-4c6f-a58a-e3ea96f3792c {
        stroke: #9b857e;
      }

      .bbb3d6a8-352b-4aa5-ad08-c2bbf1903aea, .be3a3e16-a5b2-407a-95c1-9ba06bfd1867 {
        fill: #3f1c0f;
      }

      .bbb3d6a8-352b-4aa5-ad08-c2bbf1903aea {
        stroke: #2d120a;
      }

      .b0e8542b-eb79-4211-b7d9-b90304c68722 {
        stroke: #c67f22;
      }

      .af3c01e9-a649-4c82-93c0-6ed0c3ea5d47 {
        stroke: #c4791e;
        stroke-width: 0.25px;
      }

      .b1c7aea0-9f33-427d-8846-483022f34b6b {
        fill: #ebd0c7;
      }

      .bdddf7f0-cd66-4b3e-a835-c7c993e18cda {
        fill: #351a11;
      }

      .be90f093-6d18-424e-8924-8549985fb682 {
        fill: #2b110c;
        opacity: 0.63;
      }

      .f267c5eb-1f65-4aa9-a198-02922b0fb235 {
        fill: #633627;
      }

      .e2a48755-daa1-4612-982c-96e245bd41ba {
        fill: #603b30;
      }

      .f8bccd0e-a3e7-490e-b758-be7861cf4b15 {
        opacity: 0.13;
      }

      .ab9e1314-d400-4df0-9ead-ab5c4510629d {
        fill: #441c0e;
      }
    </style>
    <clipPath id="b8a7bf4b-fad9-40ae-a9d4-cd336d455e82">
      <circle class="e29f6126-043f-4429-a505-fe31822c8027" cx="124.85" cy="125.71" r="114.82"/>
    </clipPath>
  </defs>
  <g class="a697262d-30e8-41d7-9f33-dcd4a76c65f5">
    <g id="b0882774-641d-42a9-9342-ceb429283171" data-name="Layer 1">
      <g>
        <g>
          <circle class="f7869e0e-978e-47a5-a08e-86bbc5cc04fb" cx="125.13" cy="125.13" r="116.99"/>
          <circle class="ade34f47-d0d6-4f6d-9e84-267b914c6050" cx="124.85" cy="125.71" r="114.82"/>
        </g>
        <g class="b8e0413f-55bd-4ce8-989c-8a266b114996">
          <path class="b25dbfee-c107-45b6-899e-c673e8100cab" d="M44.52,208.92s62.86-26.78,147.81,15.23l-25.7,11s-52.85-35.29-110.19-16.32Z"/>
          <g id="f82ece56-0b7d-490d-99a7-a788915aae25" data-name="21">
            <g>
              <g>
                <path class="a1c2c796-ad2b-478a-9282-48031d8d6060" d="M63.34,73.43S53.06,71.69,49,81.28s8.18,52.91,17.07,58.43c0,0,5.83.32,16.47,10Z"/>
                <path class="b9e24c95-3b68-4ad1-a2f4-ac6de2244ad6" d="M96.74,178.91s1,8.13-.06,9.51S85.88,199.62,85,200.16s-10.07,22.39,8,4.42c.28-.29,5.58-.93,5.58-.93a13.87,13.87,0,0,1,3,.4c5.22,1.37,4.82-3.31,4.82-3.31s-.76-2.55-1.15-4.65a13.5,13.5,0,0,1-.12-3.53c-.06-.83-.33-2.93.46-3.58s.68-4.89.76-6C107.77,165.11,96.74,178.91,96.74,178.91Z"/>
                <path class="a6a0b7d0-d856-4fd3-b5fe-f5af2ce3c6b8" d="M71.91,63.45l-3.78,5.72s-7,2.67-8.08,4.49S49.36,113.47,68,133.43a69,69,0,0,0,7.62,9.39c4.19,4.2,14.86,11.49,19.78,34.77l1.35,1.32,1.46-1.75,2.7,1.46,2.22-2s4.74,1.56,4.79,1.56-1.26-1.81-1.26-1.81l.95-2.66s3.54-4,1.63-7.67c0,0,2.65.76,2.14.08s-2.38-3.61-2.38-3.61l2-2.27-.29-4.23s.24-1.2,2.94-2.09,6.22,1.22,7.08,2.1,2.24.08,2.24.08,20.14,35.6,26.7,34.41c2.1-.39.44-37.71.44-37.71s-4.35-10.6-4.55-13.42l3.39-.59S133.89,96,133,95.36s-10.39-22-10.39-22Z"/>
                <g>
                  <path class="ba48ff84-495f-4cac-8bcd-c88b86ad7079" d="M76.16,39A96.34,96.34,0,0,0,63.57,59.49l4.56-4-1.62,3.76S63,63.28,62.42,67l2.3-2.23s-4,8.75-3.22,13.13l4.1-9a42.51,42.51,0,0,0-.08,7.36l8.4-9.8S78.65,52.33,78.63,52,76.16,39,76.16,39Z"/>
                  <path class="b97e5273-a901-4000-869b-e883b991171a" d="M67.6,85c-.46,1.61,7.08-1.25,7.08-1.25a5.8,5.8,0,0,0-.07,2.84c1-.26,4.75-5.22,4.75-5.22l-.76,5,1.78-1.44c0,.06,0,.13,0,.2-.24,3.08-.37,5.07-.37,5.07,2.06-1.65,3.91-7.07,4.64-9.45-1.09,3.92-.68,5.49-.68,5.49,1.2-.76,4.93-5.17,4.93-5.17.25,1.88.94,4,1.42,2.88s1.57-4.82,1.57-4.82l2.46,6.64,3-2.74c4.58-4.1,9.8-7.28,9.34-6.43s-5.86,7.56-5.28,8.09,7.16-1.37,7.28-1.44.81-1.9.11,0-.64,8.31-.18,7.66,4.84-5.22,4.84-5.22c2.09,5.37,7.76,7.68,7.76,7.68-1.34-.46-5.78-9.67-5-9l.17.18a25.05,25.05,0,0,1,2.24,3.87s0-1.85,0-2.08a18.83,18.83,0,0,0,2.1,1.25c-1.42-1.49-1.6-5.1-1.6-5.11l0,0c2.66,1.48,3.41,5,3.41,5,.27-1.77.46-3,.46-3a14.79,14.79,0,0,0,2.81,2.25l-2-3.21C118.23,73.11,113.68,63,113.13,61.22c.92-1.54.93-14.81,5.1-18,1.86-.2,8.28-.88,11.33-1.1,0,0-8-3.11-8.23-3.1a6.9,6.9,0,0,0-.84.56c0-1.79,1.21,2.56.25.46l1.92-2.16s4.45-5-1.37-10.07c-9.35-8.14-22.35-5.21-22.35-5.21-12.67,1.8-28.12,15.37-28.12,15.37l6.77-.37a18.48,18.48,0,0,0-9,3.35l3.09-1L70.6,41.75h3.17C71.16,43.16,64,48.27,64,48.27c.36.41,4.57-.92,4.57-.92-1.38.86-3.4,3.88-3.4,3.88,3.23-3.51,9-4.22,9-4.22-3.41,2.32-5.68,8.54-5.68,8.54.57-.55,6.14-3.69,6.14-3.69-6.61,6.78-7.5,11.88-7.5,11.88a35,35,0,0,1,7.53-8.14c-2.82,3.53-4.58,16.24-5.14,17.21a45.65,45.65,0,0,1-4.2,4.32l1.53,1S69.3,76.62,69.05,77a37.59,37.59,0,0,1-3.12,2.78s3.28-1,2.76-.42S64,81,64,81l5.82-.84a9.9,9.9,0,0,0-1,1.35c0,.2,1.85-.35,1.85-.35C70.19,84.14,67.73,84.55,67.6,85Zm51.49-2.56-.12-.06.11.06Zm-.58-.31.32.17Zm-.58-.3.4.21Z"/>
                  <path class="ba48ff84-495f-4cac-8bcd-c88b86ad7079" d="M100.25,66.28c1-1.51,5.32-6.12,7.07-6.75a14.31,14.31,0,0,0,0,3.74l0,1c1.31-.74,2.12-1.07,1.94-.78-.4.65-.94,6-.44,6.41s2-1.29,2.14-1.35.71-1.45.09,0-.61,6.36-.21,5.86,4.24-4,4.24-4c1.78,4.1,6.69,5.82,6.69,5.82-1.16-.34-5-7.35-4.25-6.8l.15.13a18.22,18.22,0,0,1,1.91,2.95s.05-1.42,0-1.59a16.85,16.85,0,0,0,1.82.94c-1.22-1.13-1.35-3.89-1.36-3.9l0,0A6.08,6.08,0,0,1,123,71.74l.43-2.34s-5.9-7.36-8.77-15.29c0,0,1.4-9.26,6.66-11.25.6-.22,7.6-.83,8-.78L131,42s-7-2.32-7.13-2.31a5.59,5.59,0,0,0-.73.44,10.43,10.43,0,0,0-1.36-4.63l.58-.57-1.62-2.09-.43-4.25-1.3-.7.06.78-.19.09s-1.15.45-.82.92c0,0-7.4-8.91-27.82,3.37,0,0-2.6,2.35-3.08,4s0,.38,0,.38l4.68-.71s-2.08,4-2.65,11.43a23.4,23.4,0,0,1,3.49-2.21s-1.85,10.46-.74,16.22c0,0,4.82-4.38,7-5.42C98.94,56.66,100.14,64,100.25,66.28Zm19.65,1.59.09,0h0Zm-.9-.41.35.16Z"/>
                  <g>
                    <path class="f517ae27-f2f5-4a1e-94f0-126f5afe0f96" d="M117.19,30.32c-7.22-1.6-8.81-3.49-13-2.72-2.6.49-3.35,8.68,2.29,9.32s7.12-3.52,6.32-6c0,0-.22-.84,1.44-.54C115.32,30.57,117.62,30.42,117.19,30.32Z"/>
                    <path class="ee325036-e41c-4294-8099-b34289f8cdf0" d="M112.24,32.79c0,2.21-2.49,3.39-5.06,3.44A4.06,4.06,0,0,1,103,32.08c0-2.21.5-3.77,3.07-3.82S112.19,30.58,112.24,32.79Z"/>
                    <path class="f517ae27-f2f5-4a1e-94f0-126f5afe0f96" d="M110.09,32.12a2.23,2.23,0,1,1-2.28-2.19A2.23,2.23,0,0,1,110.09,32.12Z"/>
                  </g>
                  <path class="ba48ff84-495f-4cac-8bcd-c88b86ad7079" d="M73.88,66.52c.15-.13,4.71-11.33,8.38-14.93a11.78,11.78,0,0,1,3.28,1.29c.64.62-9,10.16-10.44,13.17,0,0,4-4.12,5.91-4.83,0,0-4.88,4.32-7,9.27a8.74,8.74,0,0,1,.19-3.11c.4-.86,0-.12-.48.23s-2,4-2,4S71.88,68.26,73.88,66.52Z"/>
                  <path class="f7127d3e-c9a3-4049-aeef-1927e4c18ec5" d="M117.62,36.78c.69-1,2.34-.68,4-.05l-.13-.22s1.89-2.64,3.79-1.81,11,8.25,11,8.25-2.5-1.37-8-.84c0,0-14.85-2.76-21.46-2.3a1.19,1.19,0,0,1-.58-1C106.25,38.08,116,39,117.62,36.78Z"/>
                  <path class="bfc818e8-b5d9-46d8-8c2d-bc4b7ae7e447" d="M133.12,41A98.28,98.28,0,0,0,107,39.22l-.12-.19A101.83,101.83,0,0,1,133.12,41Z"/>
                  <path class="be183340-5071-40d5-83a6-90aeaae6c404" d="M117.62,36.78s1.06-8.16,3.67-9,11.7,1.36,15.23,6.44c4.07,5.86,2.25,14.33,1.06,15.3s-1,.7-.91-.45c0-.37.15-5.22-1.12-6.47s-3.93-1.28-8.12-4.09S117.62,36.78,117.62,36.78Z"/>
                  <path class="bfc818e8-b5d9-46d8-8c2d-bc4b7ae7e447" d="M124.66,31.76s-2,.49-2.32,1.37-.26,1.07-.26,1.07a10.09,10.09,0,0,0,2.07-1.56C124.48,32.11,124.66,31.76,124.66,31.76Z"/>
                  <path class="b5f02be8-4f85-4afc-b2ce-7046ce128333" d="M121.29,27.77c2.6-.85,11.7,1.36,15.23,6.44,4.07,5.86,2.25,14.33,1.06,15.3-.59.49-.84.66-.94.57a15.07,15.07,0,0,0-1.54-13.23,16.55,16.55,0,0,0-8.83-6.38,19.51,19.51,0,0,1,4.16.89c-1.46-1.09-8-3.76-9.5-2.87s-3,6.85-3,6.85l0,.73-.17.68-.2,0S118.68,28.62,121.29,27.77Z"/>
                  <path class="ac195f25-e2fc-4ea6-91cb-e61c9d412d45" d="M113.39,53.09a13.79,13.79,0,0,1,.81,6l-1-1.61a4.53,4.53,0,0,1,.2,2.94,5.59,5.59,0,0,1-1-1.94c-.15-.88,0,1.67-1.18,3.13a5,5,0,0,1-.65-3.45,17.71,17.71,0,0,1,2.06-4.38c.28-.22.26,1,.26,1S113.52,53.63,113.39,53.09Z"/>
                  <path class="ac195f25-e2fc-4ea6-91cb-e61c9d412d45" d="M124,42s-15.59,7.69-17.33,11.6c0,0,4.43-6.37,3.41-5.43l-2.27,2s2.31-5.09,7.25-6.32S122.55,42.28,124,42Z"/>
                </g>
                <path class="eb48ba33-f0d8-4c6f-a58a-e3ea96f3792c" d="M149.84,179.23s13.46,3.32,21.16-1.47c0,0,2-2,2.07-4.16,0,0,.06,7.56,20.09,6.87,0,0-7.33-13.66-13.18-19.63,0,0,5,4.14,4.16,2.07s-6.48-8.29-11.73-12.41-10.64-10.37-12.56-10.71-10.3-2.11-11.75.82-3.18,12-3.18,12Z"/>
                <path class="ba48ff84-495f-4cac-8bcd-c88b86ad7079" d="M157.86,140c.53.18,14.85,18.59,12.47,22.65,0,0-5.67.67-10.58-5.59h0l5.75,6.15s5.84,7.62-4.39,10.81c-5.07,1.59-14.05,1.81-18-3.41s-2.66-15.23-2.7-18.41.89-11.82,2-11.86S148.79,136.9,157.86,140Z"/>
                <path class="bfc818e8-b5d9-46d8-8c2d-bc4b7ae7e447" d="M122.85,141s-4.16,27.45-.07,43.19c.1.39.21.78.32,1.16l.75-1.95,1.31,7.41a14.58,14.58,0,0,1,3.66-3.44s4.33,4.95,4.38,5.66,1.32-3.16,1.32-3.16,3.13,5.92,3.49,6,1.1-2.79,2.13-6.64l1.74,1.18,3.34-4.61-.44,3.82,1.4-1.87.2,2.82,1.06-1.73s2.26,2,2.24,1.62,7.42-30.79-5.2-51a2.68,2.68,0,0,1-2.07-.84l0,2.24-4.15-2-3,2.22-6.37-1.56-.87,1-.54-.95-.33,2L125,139.39S123,139.67,122.85,141Z"/>
                <path class="bbb3d6a8-352b-4aa5-ad08-c2bbf1903aea" d="M126.22,185.89a16.37,16.37,0,0,0-1.52-1.68l-.08-.16a65.19,65.19,0,0,1-2.35-6.14c.15-2.84,1-5.76,1-8.56-.11-4.43,1.13-8.59,1.53-13a76.84,76.84,0,0,0,.12-8.85,33.06,33.06,0,0,1,.07-5.07l.4.27a3.18,3.18,0,0,0,2.87-.35c2.32-1.66,3.07-.55,5.34-.22a6.77,6.77,0,0,0,3.72-.47c1.1-.42,3.23.53,4.52.34.92-.14,1.75-1.11,2.67-1.07a2,2,0,0,0,.81-.13,42.69,42.69,0,0,1,2.15,4.34c8.4,19.75,2.24,45,2.26,45.31s-2.24-1.62-2.24-1.62l-1.06,1.73-.2-2.82-1.4,1.87.44-3.82-3.34,4.61-1.74-1.18c-1,3.85-1.77,6.74-2.13,6.64s-3.49-6-3.49-6-1.27,3.86-1.32,3.16-4.38-5.66-4.38-5.66a10.77,10.77,0,0,0-1.31,1A10.53,10.53,0,0,0,126.22,185.89Z"/>
                <path class="f134c9ab-33ce-4413-9072-c06e799458a2" d="M128.92,187.48l-.1-.11a14.58,14.58,0,0,0-3.66,3.44l-1.31-7.41-.75,1.95c-.11-.38-.22-.77-.32-1.16-4.09-15.74.07-43.19.07-43.19.19-1.33,2.13-1.61,2.13-1.61l2.17,2.33.33-2,.54.95.87-1,6.37,1.56,3-2.22,1.92-1.25,2.19,1c.66.9,2.08-2.42,2.08-2.42.59,1,1.13,5.19,1.64,6.18s1.75,4,2,4.41a.14.14,0,0,1,0,.06l-3.87-4.23-1.15,2.21-2.5-2-.67,2.17-6.38-1.68s-.48,21.41-.56,19.08c0-.49-3.34-8.92-3.24-9.21s-.12-1.64-.1.29.36,18.79,1.53,22c0,0-1.9-1.63-2.12-1.84.6.54,1.18,7,1.78,10.49l-2.35-3.14.32,4.58Z"/>
                <path class="b0e8542b-eb79-4211-b7d9-b90304c68722" d="M126,186.56l-2.49,8.32s-.79-.3-1.66.83a3.27,3.27,0,0,1-1.62,1.29h0c-.46.15-8.73-3.17-10.93.76,0,0-1.3,3.4-.52,6.06s8.43-.94,9.75-2.45c0,0-10.32,8.75-7.69,13.41,0,0-.27,3,3.84,2.57a4.72,4.72,0,0,0,4.51-3.92,15.82,15.82,0,0,0,2.13-4.16c.35-1.81,5.85-5.9,5.85-5.9s3.28,3.08,4.32,4.42,1.59,2.37,4.22,1.25,1.93-2.86,1.32-3.17-4.6-3.34-4.6-3.34a6.3,6.3,0,0,0-.9-2.65c-.79-1.25.2-6.35,1.08-7.85s-1.39-6.9-2.24-7.19S126,186.56,126,186.56Z"/>
                <path class="b9e24c95-3b68-4ad1-a2f4-ac6de2244ad6" d="M84.73,202.46s-2,4.23-6,3.18c0,0-1.43-3.64,2.83-4.18s5.77,0,5.77,0Z"/>
                <path class="af3c01e9-a649-4c82-93c0-6ed0c3ea5d47" d="M93.25,199.8s.81-.85-.8.68-4.37,5.91-4.56,7.4-.6,2.52-2.65,2.66-2.39-.3-2.53-3.19,2.1-4.57,2.76-5.33a22.42,22.42,0,0,1,2.06-2.2,5.23,5.23,0,0,1,4.38-.95C94.13,199.3,93.25,199.8,93.25,199.8Z"/>
                <path class="af3c01e9-a649-4c82-93c0-6ed0c3ea5d47" d="M102.11,198.48c-.19-.06-3.63-2-5.08.11a7.81,7.81,0,0,0-.82,6c.27,1.28.56,3,1.81,3.18s2,.81,2.61-1.66,2.34-4.53,2.31-5A23.05,23.05,0,0,0,102.11,198.48Z"/>
                <path class="f134c9ab-33ce-4413-9072-c06e799458a2" d="M99.42,207.33s-1.16-1-1.94-.25-2.6,2.93-.43,6a2.39,2.39,0,0,0,2,.53A2.88,2.88,0,0,1,97.87,211c0-2,.36-2,.59-2.11S99.83,208.54,99.42,207.33Z"/>
                <path class="f134c9ab-33ce-4413-9072-c06e799458a2" d="M134.6,208.05s2.23,1.51,0,7.92a7.18,7.18,0,0,0,2.6-2.17c.79-1.29,2.6-5.85-.51-7.23S134.6,208.05,134.6,208.05Z"/>
                <path class="f134c9ab-33ce-4413-9072-c06e799458a2" d="M111,203.14a10.94,10.94,0,0,0-1.25,7.41s-1.94-.63-2.67-4.42,1.24-5.82,2.58-6.2S111.61,201.88,111,203.14Z"/>
                <path class="f134c9ab-33ce-4413-9072-c06e799458a2" d="M114.18,216.72a11,11,0,0,0-.3,7.51s-2-.38-3.21-4,.5-5.93,1.77-6.48S114.63,215.4,114.18,216.72Z"/>
                <path class="f134c9ab-33ce-4413-9072-c06e799458a2" d="M85,210.77s-.29-1.8-1.46-1.56-.87,2.18-.14,3.68,2.68,3.2,4.31,2.43a3.21,3.21,0,0,1-2-1.41A3.68,3.68,0,0,1,85,210.77Z"/>
                <path class="f134c9ab-33ce-4413-9072-c06e799458a2" d="M79.51,206.08s1.3-1.27.44-2.09-2.29.55-3.1,2-1.08,4,.49,4.92a3.24,3.24,0,0,1,0-2.48A3.69,3.69,0,0,1,79.51,206.08Z"/>
                <path class="b1c7aea0-9f33-427d-8846-483022f34b6b" d="M173.19,174.22s-2.76-7.52-3.14-9.86c0,0,10.93,13.69,17.35,15.76C187.4,180.12,175.2,180,173.19,174.22Z"/>
                <path class="b1c7aea0-9f33-427d-8846-483022f34b6b" d="M184.22,163.38s-2.93-4.29-7.12-6c0,0,2.07,2.58,2.88,3.45S183.29,163.72,184.22,163.38Z"/>
                <path class="a1c2c796-ad2b-478a-9282-48031d8d6060" d="M122.09,69.05s25.22-.9,39.85,22.65a64.52,64.52,0,0,1,6.41,20.81s6.75,9.22,5.91,10.46,1,10.32-.2,17.25a13.5,13.5,0,0,1,2.05,9.31s-1.35.83-1.09,8a13.55,13.55,0,0,1-3.49-6s-1.41,8.6-8.68-5.07c0,0-.25,9.89-10.19-4.39,0,0-7-6.22-12.57-11.26,0,0-12.88-6.43-18.87-13.81,0,0-10.29-15.47-13.46-26.76S103.13,64.79,122.09,69.05Z"/>
                <path class="be3a3e16-a5b2-407a-95c1-9ba06bfd1867" d="M103.81,160.23l-1,.07,4-4.8,1-1.84,2.85,2.31.29,4.23-2,2.27s1.86,2.94,2.38,3.61-2.14-.08-2.14-.08c1.91,3.64-1.63,7.67-1.63,7.67l-.95,2.66s1.3,1.8,1.26,1.81-4.79-1.56-4.79-1.56l-.47.44-1.37-.93-.25-3.62-.3-4.32.54-1.39Z"/>
                <path class="bdddf7f0-cd66-4b3e-a835-c7c993e18cda" d="M122.09,69.05s25.22-.9,39.85,22.65a64.52,64.52,0,0,1,6.41,20.81s6.75,9.22,5.91,10.46,1,10.32-.2,17.25a13.5,13.5,0,0,1,2.05,9.31s-1.35.83-1.09,8a13.55,13.55,0,0,1-3.49-6s-1.35,8.2-8.2-4.19l-.26-3.78s3.78,9.83,5.94,5.87c0,0,3.94,2.48,4.28-.91s.78-5.14-.53-7.7c-.37-.71.39-4.28.56-7.78.11-2.32-1.08-10.49-1.08-10.49s-3.31-7.24-4.56-8.38-3.47-40.67-44.25-43.68c0,0-13.25-3.65-15.41,2.31,0,0-.34-.08-.81-.24C109.19,68.94,113.57,67.13,122.09,69.05Z"/>
                <path class="be90f093-6d18-424e-8924-8549985fb682" d="M137,112.72a32,32,0,0,0,4.18,6.43c1.82,2.18,4.15,4.9,7.2,5.1h.14a2,2,0,0,0,2.59-1.45,8.23,8.23,0,0,0,.33-2.66c3,4.61,6.93,9.2,9.88,7.78a1.78,1.78,0,0,0,1.91-1.53,13.9,13.9,0,0,0-.71-5.31,5.9,5.9,0,0,0,2.22,1.67,2.49,2.49,0,0,0,3.52-2.21,7.08,7.08,0,0,0-.47-3,26,26,0,0,1,2.82,5.13c1,2.68-1.12,1.76-1.12,1.76,1.13,3.47,3.71,8.78,2,9.61s-5.25-5.84-5.25-5.84a44.27,44.27,0,0,1,2.7,11.31,1.94,1.94,0,0,0-.06.59c0,.26,0,.53,0,.8a1.44,1.44,0,0,0,0,.24c0,.1,0,.21,0,.31l-.06.2-.05,0c-2.05,1-11.46-12-11.46-12a15.34,15.34,0,0,1,1.05,7.46c-4.28,2.07-15.56-13.62-15.56-13.62.83,3.13-.91,3.34-.91,3.34-4.81-3-11.88-17.78-11.88-17.78C136.47,115.72,137.14,114.07,137,112.72Z"/>
                <path class="f267c5eb-1f65-4aa9-a198-02922b0fb235" d="M134.26,107.58a32,32,0,0,0,4.18,6.43c1.82,2.18,4.14,4.9,7.19,5.1h.15a2,2,0,0,0,2.59-1.45,8.52,8.52,0,0,0,.32-2.66c3,4.61,6.93,9.2,9.88,7.78a1.8,1.8,0,0,0,1.92-1.53,14.12,14.12,0,0,0-.71-5.31,5.82,5.82,0,0,0,2.22,1.67,2.5,2.5,0,0,0,3.52-2.21,7.24,7.24,0,0,0-.47-3,26.48,26.48,0,0,1,2.82,5.13c1,2.68-1.12,1.76-1.12,1.76,1.12,3.47,3.71,8.78,2,9.61S163.5,123,163.5,123a44.16,44.16,0,0,1,2.69,11.31,2.32,2.32,0,0,0-.06.59c0,.26,0,.53,0,.8,0,0,0,.16,0,.24s0,.21-.05.31l0,.2-.05,0c-2.06,1-11.46-12-11.46-12a15.48,15.48,0,0,1,1.05,7.46C151.3,134.06,140,118.37,140,118.37c.84,3.13-.91,3.34-.91,3.34-4.8-3-11.87-17.78-11.87-17.78C133.68,110.58,134.35,108.93,134.26,107.58Z"/>
                <path class="f267c5eb-1f65-4aa9-a198-02922b0fb235" d="M106.72,116.48s-3.31,5.14-3.83,4.4c-.39-.56-1.45-10.76-1.45-10.76L99.83,124.4s-2.61.29-4.14-5.29c-.06-.21-.11-.43-.17-.67-1.5-6.27-.3,10.65-.87,12s-7.27-17.19-6.14-12.56c.16.66,1.83,10,.67,10.82s-6.87-9.92-7.92-16.58c0,0,.11,12.3,1.09,17.19.05.24.1.47.15.68,1.13,4.29-4.55-4.29-5.48-7.53,0,0,1.33,13.49,8.86,21A54.66,54.66,0,0,1,84,137.91c-.06-.83,7.28,6.22,13.9,9.66,0,0-.33-1.63-1.37-5.46,0,0,8.91,6.83,10.93,8.69,0,0-.76-9.16-2.21-11.42,0,0,3.15,3.76,3.9,6.37a3.61,3.61,0,0,1,.15,1c-.06,2.48.1-7.45-.71-10.47,0,0,3.31,1.9,3.37,4.49,0,0-.38-10.48-5.4-24.9"/>
                <path class="be3a3e16-a5b2-407a-95c1-9ba06bfd1867" d="M105.35,111.72s-3.32,5.13-3.83,4.4c-.39-.57-1.46-10.77-1.46-10.77l-1.6,14.29s-2.61.29-4.14-5.29l-.18-.67c-1.5-6.28-.29,10.65-.86,12S86,108.47,87.14,113.1c.16.66,1.83,10,.67,10.82s-6.87-9.91-7.93-16.57c0,0,.11,12.29,1.09,17.18,0,.25.1.48.16.68,1.12,4.29-4.55-4.29-5.49-7.53,0,0,1.34,13.49,8.87,21a54.39,54.39,0,0,1-1.89-5.54c-.05-.82,7.29,6.23,13.91,9.66,0,0-.33-1.63-1.38-5.45,0,0,8.91,6.82,10.93,8.69,0,0-.75-9.16-2.21-11.42,0,0,3.15,3.75,3.9,6.36a3.32,3.32,0,0,1,.16,1c-.07,2.49.09-7.45-.72-10.46,0,0,3.31,1.89,3.37,4.49,0,0-.37-10.49-5.39-24.9"/>
                <path class="e2a48755-daa1-4612-982c-96e245bd41ba" d="M59.73,73.72A12.07,12.07,0,0,0,49,82s-3.35,20.28,14.47,55.25c0,0-16.27-43-12.52-54.94C51,82.29,50.32,78.63,59.73,73.72Z"/>
                <path class="f8bccd0e-a3e7-490e-b758-be7861cf4b15" d="M108,72.77s-5.58,15.66,14.74,43.87c0,0,9.42,10,17.5,12.43L153,141.26s5.81,9.25,9,7.91c0,0-2.54,3-9.1-7.2L140,130.49s-12.13-6.08-18.79-13.52c0,0-19.35-27.82-14-44.44Z"/>
                <path class="ab9e1314-d400-4df0-9ead-ab5c4510629d" d="M58.47,111.9s7,16.46,10.86,19.12c0,0,5.87,9.14,9.53,11.74,0,0,15,10.7,18.41,35.61L95.93,177s-2.24-19.78-15.8-31.69c0,0-9.71-7.47-11.61-12.46C68.52,132.89,60.59,123.23,58.47,111.9Z"/>
              </g>
              <path class="bc29cc09-60a9-4182-bd3a-2d082ff38ea8" d="M108.71,30.79a.67.67,0,0,0,.71.62.66.66,0,0,0,.61-.71.65.65,0,0,0-.7-.61A.66.66,0,0,0,108.71,30.79Z"/>
            </g>
          </g>
        </g>
      </g>
    </g>
  </g>
</svg>
