<svg id="b3f67654-ab8a-4dc1-b66b-5eeca93e44fb" data-name="Layer 1" xmlns="http://www.w3.org/2000/svg" xmlns:xlink="http://www.w3.org/1999/xlink" width="610" height="611" viewBox="0 0 610 611">
  <defs>
    <style>
      .a9c6b66e-3958-495b-bc8c-5f9fcade8902, .fab2b97a-4277-4ff4-9014-c8070c677de8 {
        fill: none;
      }

      .b2891a62-4b2e-4872-86d1-a817e40cf475 {
        clip-path: url(#ad4fb9cd-4609-4835-92d8-e66dd090c804);
      }

      .b9ef22c9-168c-4ae6-bff6-de4b721db084 {
        fill: #98bc5c;
      }

      .b890381d-65a9-4091-8fe5-fe29673ef0e7 {
        fill: url(#ef6b4e2a-94f4-4cf8-95a7-19b7e8ce4ea6);
      }

      .af696673-58a2-4c3c-906f-959d727f8d58, .ef063a6d-7d0a-4931-a0d8-20d25f3d5e30 {
        fill: #31d0e5;
      }

      .a9c6b66e-3958-495b-bc8c-5f9fcade8902, .ef063a6d-7d0a-4931-a0d8-20d25f3d5e30 {
        stroke-miterlimit: 10;
      }

      .ef063a6d-7d0a-4931-a0d8-20d25f3d5e30 {
        stroke-width: 6px;
        stroke: url(#e5c25752-ad29-4dda-ad95-e57db2f050f1);
      }

      .ad264bce-e22b-47e4-85c3-7a8b44f8df5e {
        clip-path: url(#efbd29e7-bebb-41b1-9c0f-f71e6a83eeb1);
      }

      .b5ebef97-ca40-4f22-991e-1d604864c526 {
        fill: #c5db7f;
      }

      .b7943613-efbc-4b3d-a390-e71effaf001b {
        opacity: 0.14;
      }

      .a4d985c8-8e89-4728-9a09-cb8c42e6de3f {
        opacity: 0.66;
      }

      .aa6db37d-d1b2-43a3-b3bc-ca81f574d834 {
        fill: #fff;
      }

      .f4e8eff5-e659-4840-81b4-fa39ee53792c {
        opacity: 0.45;
      }

      .fceede52-e94e-41b5-bd88-74623402792a {
        fill: #77c9b0;
      }

      .a9c6b66e-3958-495b-bc8c-5f9fcade8902 {
        stroke: #262211;
        stroke-width: 0.75px;
      }

      .af04623d-7e0d-45b6-8e2c-80610ed07159 {
        fill: #ffd23f;
      }

      .ec4b9475-8fc4-4075-bb62-8f576d1acb65 {
        opacity: 0.1;
      }

      .ac416bfb-82bf-4f91-8136-fbcd2dc045bf {
        fill: #e53963;
      }

      .b5c66f79-7dd5-48af-a7bf-9bc7ec072fe0 {
        fill: #9e4ac6;
      }

      .e73475c8-7c6e-4b48-9c0f-fdc59465cb8c {
        clip-path: url(#e03800fe-cd3c-4775-a740-57463b8dbbcb);
      }
    </style>
    <clipPath id="ad4fb9cd-4609-4835-92d8-e66dd090c804">
      <ellipse class="fab2b97a-4277-4ff4-9014-c8070c677de8" cx="-355" cy="305.5" rx="286.63" ry="286.33"/>
    </clipPath>
    <linearGradient id="ef6b4e2a-94f4-4cf8-95a7-19b7e8ce4ea6" x1="50.06" y1="130.82" x2="548.27" y2="472.19" gradientUnits="userSpaceOnUse">
      <stop offset="0" stop-color="#9b81cf"/>
      <stop offset="1" stop-color="#3b139b"/>
    </linearGradient>
    <linearGradient id="e5c25752-ad29-4dda-ad95-e57db2f050f1" x1="12.74" y1="305.5" x2="597.26" y2="305.5" gradientUnits="userSpaceOnUse">
      <stop offset="0" stop-color="#4c1da9"/>
      <stop offset="1" stop-color="#997ece"/>
    </linearGradient>
    <clipPath id="efbd29e7-bebb-41b1-9c0f-f71e6a83eeb1">
      <ellipse class="fab2b97a-4277-4ff4-9014-c8070c677de8" cx="305" cy="305.5" rx="286.97" ry="286.68"/>
    </clipPath>
    <clipPath id="e03800fe-cd3c-4775-a740-57463b8dbbcb">
      <circle class="fab2b97a-4277-4ff4-9014-c8070c677de8" cx="965" cy="305.5" r="286.21"/>
    </clipPath>
  </defs>
  <g class="b2891a62-4b2e-4872-86d1-a817e40cf475">
    <path class="b9ef22c9-168c-4ae6-bff6-de4b721db084" d="M-254,729.83c-156.2,0-366.93-24.78-366.93-71.73S-433.82,481.82-29.41,460C126.57,451.63-97.83,729.83-254,729.83Z"/>
  </g>
  <g>
    <g>
      <circle class="b890381d-65a9-4091-8fe5-fe29673ef0e7" cx="305" cy="305.5" r="301.94"/>
      <circle class="ef063a6d-7d0a-4931-a0d8-20d25f3d5e30" cx="305" cy="305.5" r="289.26"/>
    </g>
    <ellipse class="fab2b97a-4277-4ff4-9014-c8070c677de8" cx="305" cy="305.5" rx="291.66" ry="291.34"/>
    <g class="ad264bce-e22b-47e4-85c3-7a8b44f8df5e">
      <g>
        <g>
          <path class="af696673-58a2-4c3c-906f-959d727f8d58" d="M629.3,267.77c0,153.77-145.23,278.42-324.38,278.42S-35.27,435-35.27,281.25,125.78-10.64,304.92-10.64,629.3,114,629.3,267.77Z"/>
          <path class="b5ebef97-ca40-4f22-991e-1d604864c526" d="M122.63,788.16S555.08,452.32-87.12,475.67"/>
          <path class="b9ef22c9-168c-4ae6-bff6-de4b721db084" d="M409.71,715.28C250.89,715.28,36.64,690,36.64,642s190.27-180.13,601.44-202.4C796.67,431,568.52,715.28,409.71,715.28Z"/>
          <ellipse class="b7943613-efbc-4b3d-a390-e71effaf001b" cx="239.57" cy="607.33" rx="57.42" ry="13.39" transform="translate(-51.66 23.01) rotate(-4.96)"/>
          <ellipse class="b7943613-efbc-4b3d-a390-e71effaf001b" cx="484.04" cy="614.94" rx="57.43" ry="13.62" transform="translate(-91.7 84.87) rotate(-9.16)"/>
          <ellipse class="b7943613-efbc-4b3d-a390-e71effaf001b" cx="153.4" cy="577.55" rx="34.68" ry="9.2" transform="matrix(0.99, -0.13, 0.13, 0.99, -71.31, 23.83)"/>
          <g class="a4d985c8-8e89-4728-9a09-cb8c42e6de3f">
            <g>
              <path class="aa6db37d-d1b2-43a3-b3bc-ca81f574d834" d="M95.58,165s7.44-34.62,46-8.7-36.41,28.82-70.44,22.52S95.58,165,95.58,165Z"/>
              <path class="aa6db37d-d1b2-43a3-b3bc-ca81f574d834" d="M169.28,135c32.2,16.25,3.08,23.32-23.78,21.78S137.08,118.8,169.28,135Z"/>
            </g>
            <g>
              <path class="aa6db37d-d1b2-43a3-b3bc-ca81f574d834" d="M514.92,308.22s7.43-34.63,45.94-8.71S524.45,328.34,490.42,322,514.92,308.22,514.92,308.22Z"/>
              <path class="aa6db37d-d1b2-43a3-b3bc-ca81f574d834" d="M588.62,278.29c32.2,16.25,3.08,23.32-23.78,21.77S556.42,262,588.62,278.29Z"/>
            </g>
          </g>
          <g class="f4e8eff5-e659-4840-81b4-fa39ee53792c">
            <path class="fceede52-e94e-41b5-bd88-74623402792a" d="M65.34,458.9s14.35-8.7,21.88,1.8,2.79,7.23-11.91,6.05S60,461.22,65.34,458.9Z"/>
            <path class="fceede52-e94e-41b5-bd88-74623402792a" d="M71.64,479.51s4.79-8,3.67-12.76c-1.38-5.86,1.21-2.18,1.21-2.18l.51,4.87,5-2s-5.6,2.23-4.6,6.23a14.45,14.45,0,0,0,2.68,5.84Z"/>
          </g>
        </g>
        <g>
          <path class="a9c6b66e-3958-495b-bc8c-5f9fcade8902" d="M311.46,327.27s3.33,44.37-32.57,110.63c-24.55,45.3-69.26,172.18-18.75,201.23"/>
          <path class="a9c6b66e-3958-495b-bc8c-5f9fcade8902" d="M419.08,255.3s9.92,48.47-32.57,110.62S232.65,588.12,277.62,648.81"/>
          <path class="a9c6b66e-3958-495b-bc8c-5f9fcade8902" d="M260.14,639.13c-59.2-16.19-129.31-165.06-116.73-222.9"/>
          <g>
            <path class="af04623d-7e0d-45b6-8e2c-80610ed07159" d="M221.4,289.23A78.9,78.9,0,0,0,202,248.39c-11.67-12.91-25.69-21.71-43.35-24.19-15-2.12-29.09.17-42.42,7.38a90,90,0,0,0-12.82,8.77A77.13,77.13,0,0,0,80,273c-6.77,17.45-7.06,35.43-3.49,53.5,4.12,20.84,13,39.54,27.2,55.32a62.53,62.53,0,0,0,33.73,19.55c2.81.61,2.9,1.21,1.47,3.38-2.16,3.26-4.07,6.69-6.19,10.23l10.71,1.25h1.85c1.63-.08,3.26-.44,4.84.48a2.36,2.36,0,0,0,2.94-.15c.83-.91,0-1.88-.44-2.86-1.38-3.43-2.6-6.94-3.89-10.42,4.15-1.64,8.67-.93,12.93-2.21,17.37-5.21,31-15.43,40.63-30.79C217.79,345.51,226.38,319.06,221.4,289.23Zm-100.6,82"/>
            <path class="ec4b9475-8fc4-4075-bb62-8f576d1acb65" d="M148.72,403.27c-1.42-2.15,1-2.3,1.74-2.77,18.63-11.89,28.78-30.06,36.48-50,4.88-12.67,7.65-25.91,7.08-39.48-.88-21.24-7.65-40.13-22.87-55.68C159.78,243.75,146.67,236,130.76,233c-3.32-.63-6.61-.17-9.9-.43-1.59-.12-3.37.6-4.65-1,13.33-7.21,27.37-9.5,42.42-7.38,17.66,2.48,31.68,11.28,43.35,24.19a78.9,78.9,0,0,1,19.42,40.84c5,29.83-3.61,56.28-19.13,81-9.63,15.36-23.26,25.58-40.63,30.79C157.38,402.34,152.86,401.63,148.72,403.27Z"/>
            <g>
              <path class="aa6db37d-d1b2-43a3-b3bc-ca81f574d834" d="M120.8,371.26c-4.21-2.12-7.44-5.64-10.4-9.21a88.35,88.35,0,0,1-19-40.76c-3-16.37-.57-32,5-47.4.76-2.1,2-2,3.9-1.52,2.36.62,2.09,1.69,1.57,3.52a91.19,91.19,0,0,0-3.46,26.27c.24,14,2.31,27.85,7.52,41A154.69,154.69,0,0,0,120.8,371.26Z"/>
              <path class="aa6db37d-d1b2-43a3-b3bc-ca81f574d834" d="M100.9,262.53c-.19-2.67,1.17-3.44,3.53-3.5,2.86-.07,3.72,1.67,3.59,4a3.31,3.31,0,0,1-3.93,3.31C102,266.07,100.46,265,100.9,262.53Z"/>
            </g>
          </g>
          <g>
            <path class="ac416bfb-82bf-4f91-8136-fbcd2dc045bf" d="M497.46,128.45a78.89,78.89,0,0,0-19.41-40.84C466.38,74.7,452.35,65.9,434.7,63.42c-15.05-2.11-29.1.17-42.42,7.38a89.76,89.76,0,0,0-12.82,8.78A77.06,77.06,0,0,0,356,112.22c-6.77,17.45-7.06,35.44-3.49,53.51,4.12,20.83,13,39.53,27.21,55.31a62.47,62.47,0,0,0,33.73,19.55c2.81.61,2.9,1.21,1.46,3.38-2.15,3.27-4.06,6.7-6.18,10.23l10.71,1.25h1.85c1.63-.08,3.25-.44,4.83.47a2.37,2.37,0,0,0,2.95-.15c.82-.91-.05-1.87-.44-2.85-1.38-3.44-2.61-6.94-3.89-10.42,4.15-1.65,8.66-.94,12.93-2.22,17.37-5.21,31-15.43,40.63-30.79C493.86,184.73,502.45,158.29,497.46,128.45Z"/>
            <path class="ec4b9475-8fc4-4075-bb62-8f576d1acb65" d="M424.78,242.5c-1.42-2.16,1-2.31,1.75-2.78,18.62-11.89,28.78-30.06,36.47-50,4.89-12.67,7.66-25.91,7.09-39.48-.89-21.24-7.65-40.13-22.87-55.67C435.85,83,422.73,75.23,406.82,72.23c-3.32-.63-6.61-.17-9.9-.43-1.58-.12-3.37.61-4.64-1,13.32-7.21,27.37-9.49,42.42-7.38,17.65,2.48,31.68,11.28,43.35,24.19a78.89,78.89,0,0,1,19.41,40.84c5,29.84-3.6,56.28-19.12,81-9.63,15.36-23.26,25.58-40.63,30.79C433.44,241.56,428.93,240.85,424.78,242.5Z"/>
            <g>
              <path class="aa6db37d-d1b2-43a3-b3bc-ca81f574d834" d="M396.87,210.48c-4.22-2.12-7.45-5.63-10.4-9.21a88.25,88.25,0,0,1-19-40.76c-3-16.36-.58-32,5-47.4.77-2.1,2-2,3.9-1.52,2.37.63,2.1,1.69,1.58,3.52a91.25,91.25,0,0,0-3.46,26.28c.24,14,2.3,27.84,7.52,41A153.75,153.75,0,0,0,396.87,210.48Z"/>
              <path class="aa6db37d-d1b2-43a3-b3bc-ca81f574d834" d="M377,101.76c-.19-2.68,1.16-3.45,3.53-3.5,2.86-.08,3.71,1.66,3.58,3.94a3.29,3.29,0,0,1-3.92,3.31C378,105.29,376.53,104.2,377,101.76Z"/>
            </g>
          </g>
          <g>
            <path class="b5c66f79-7dd5-48af-a7bf-9bc7ec072fe0" d="M391,200.55a78.89,78.89,0,0,0-19.41-40.84c-11.67-12.91-25.7-21.71-43.36-24.19-15-2.11-29.09.17-42.41,7.38A88.15,88.15,0,0,0,273,151.68a77.06,77.06,0,0,0-23.42,32.64c-6.77,17.45-7.06,35.43-3.49,53.5,4.12,20.84,13,39.54,27.21,55.32A62.48,62.48,0,0,0,307,312.69c2.81.61,2.9,1.21,1.47,3.38-2.15,3.27-4.06,6.69-6.18,10.23L313,327.55h1.85c1.63-.09,3.25-.45,4.83.47a2.35,2.35,0,0,0,2.94-.15c.83-.91,0-1.88-.43-2.86-1.39-3.43-2.61-6.94-3.89-10.42,4.15-1.64,8.66-.93,12.93-2.21,17.36-5.21,31-15.43,40.62-30.79C387.38,256.83,396,230.38,391,200.55Zm-100.6,82"/>
            <path class="ec4b9475-8fc4-4075-bb62-8f576d1acb65" d="M318.3,314.59c-1.42-2.15,1-2.3,1.75-2.77,18.62-11.89,28.78-30.06,36.47-50,4.89-12.67,7.65-25.91,7.09-39.48-.89-21.24-7.65-40.13-22.88-55.68-11.36-11.6-24.48-19.34-40.39-22.34-3.32-.63-6.61-.17-9.9-.43-1.58-.12-3.37.6-4.64-1,13.32-7.21,27.37-9.49,42.41-7.38,17.66,2.48,31.69,11.28,43.36,24.19A78.89,78.89,0,0,1,391,200.55c5,29.83-3.6,56.28-19.13,81-9.62,15.36-23.26,25.58-40.62,30.79C327,313.66,322.45,313,318.3,314.59Z"/>
            <g>
              <path class="aa6db37d-d1b2-43a3-b3bc-ca81f574d834" d="M290.38,282.58c-4.21-2.12-7.44-5.64-10.39-9.21a88.27,88.27,0,0,1-19-40.76c-3-16.37-.57-32,5-47.4.77-2.1,2-2,3.9-1.52,2.36.63,2.1,1.69,1.58,3.52A90.84,90.84,0,0,0,268,213.48c.24,14,2.3,27.85,7.52,41A154.32,154.32,0,0,0,290.38,282.58Z"/>
              <path class="aa6db37d-d1b2-43a3-b3bc-ca81f574d834" d="M270.48,173.85c-.18-2.67,1.17-3.44,3.54-3.5,2.86-.07,3.71,1.67,3.58,4a3.3,3.3,0,0,1-3.92,3.31C271.53,177.39,270,176.3,270.48,173.85Z"/>
            </g>
          </g>
        </g>
      </g>
    </g>
  </g>
  <g class="e73475c8-7c6e-4b48-9c0f-fdc59465cb8c">
    <path class="b5ebef97-ca40-4f22-991e-1d604864c526" d="M793,804s411.75-327.68-199.71-304.9"/>
  </g>
</svg>
