<svg id="a8f31f92-1d1f-4023-97cf-b0839600147b" data-name="Layer 1" xmlns="http://www.w3.org/2000/svg" xmlns:xlink="http://www.w3.org/1999/xlink" width="610" height="611" viewBox="0 0 610 611">
  <defs>
    <style>
      .ffb47a0b-70ef-4976-8511-86fd33af1ddb {
        mask: url(#b3fa1688-1dbb-4b48-b951-064f7dab6a1f);
        filter: url(#b9429de1-79f7-45c5-9bcb-41a1ab42f2d5);
      }

      .b3de4ec9-4086-4099-b398-fae8474a358a {
        mix-blend-mode: multiply;
        fill: url(#a313a84f-d969-45a0-83be-b331bf8bf9e4);
      }

      .e5aad049-175d-4c5d-9f80-b3c3fc436750 {
        fill: none;
      }

      .e3b1538c-d950-44b0-9bef-a94b55994c3c {
        clip-path: url(#eedb288c-5f0a-48b2-bd97-95e4d157977e);
      }

      .b6120ede-623f-47fe-93df-455e26d3eccb, .bfea37b6-2ef5-41b7-8f5f-b2e5d9000ea9 {
        fill: #31d0e5;
      }

      .eee3d104-f6d1-4eb3-a984-36aac0ad599c {
        mask: url(#f9c4fbee-d9c7-446d-8fa8-a3b07c60c913);
      }

      .b12cc79c-6e91-4e42-8307-7d858ab66db6 {
        fill: url(#e8dfc08e-12ec-48f0-9af7-b42a7ba3fc5d);
      }

      .feab6cdb-10eb-4582-b364-f43fb67d3c98 {
        fill: url(#e7bdb4e3-a512-4a8b-8a15-54d7fd914d4f);
      }

      .acd094e0-21c7-4d47-8773-fbbfb28ae565, .b6120ede-623f-47fe-93df-455e26d3eccb, .befccb4f-f185-430d-b86c-f75c40760eaf, .e08828c3-9aca-4e1a-a0e0-3efc37be60d5, .f316bccd-d077-4d5f-af45-6541f92ffccd {
        stroke-miterlimit: 10;
      }

      .b6120ede-623f-47fe-93df-455e26d3eccb {
        stroke-width: 6px;
        stroke: url(#ff4ec039-6acd-417b-9fe7-51898d932a75);
      }

      .a9c6cfe1-6709-44f2-9392-242a23aa887d {
        clip-path: url(#ee9965ce-65fb-4faa-aa50-864f84c03196);
      }

      .efc66948-822f-46a4-9872-340148cc2cb2 {
        fill: #c5db7f;
      }

      .a829709b-f743-445e-8339-cca7ca6c9e35 {
        fill: #98bc5c;
      }

      .bb800102-3194-4810-9bbd-6c1d5c1edda8 {
        opacity: 0.14;
      }

      .ebd9a8c3-746d-4223-b368-4daaaca4c443 {
        opacity: 0.3;
      }

      .aca89e5e-896f-4406-bdf8-f4b382495069 {
        fill: #fff;
      }

      .bbcb5ba1-d691-4106-bad9-3650118dc786 {
        opacity: 0.45;
      }

      .a672e31b-bba9-4365-9e2a-ded0c781fe47 {
        fill: #77c9b0;
      }

      .acd094e0-21c7-4d47-8773-fbbfb28ae565, .befccb4f-f185-430d-b86c-f75c40760eaf, .e08828c3-9aca-4e1a-a0e0-3efc37be60d5, .f316bccd-d077-4d5f-af45-6541f92ffccd {
        stroke: #a1a8a7;
      }

      .acd094e0-21c7-4d47-8773-fbbfb28ae565 {
        fill: url(#bd4dcca7-e4ed-494b-81c6-2a68b77b62a5);
      }

      .b09c91cf-0295-48fd-a738-d504df7f6100 {
        fill: #ad9e9e;
      }

      .befccb4f-f185-430d-b86c-f75c40760eaf {
        fill: url(#a5d6d4df-347c-42e0-8dc4-de86475db99e);
      }

      .e08828c3-9aca-4e1a-a0e0-3efc37be60d5 {
        fill: url(#fc6b1887-88fe-4554-9336-c29fcd933cb9);
      }

      .f316bccd-d077-4d5f-af45-6541f92ffccd {
        fill: url(#bc4952b9-20b6-46cc-b53f-04813e6c540f);
      }

      .b1a73d19-4e9a-4606-a7c4-920fa1c95694 {
        clip-path: url(#b562b542-cc2c-4e86-b645-27892a086727);
      }

      .abd39703-da09-43f0-9ec6-ff6b98195077 {
        filter: url(#e0c15da7-ca0d-47b5-9abe-6b0c0c6b4782);
      }
    </style>
    <filter id="e0c15da7-ca0d-47b5-9abe-6b0c0c6b4782" x="-37.1" y="-9654" width="86.35" height="32766" filterUnits="userSpaceOnUse" color-interpolation-filters="sRGB">
      <feFlood flood-color="#fff" result="bg"/>
      <feBlend in="SourceGraphic" in2="bg"/>
    </filter>
    <mask id="b3fa1688-1dbb-4b48-b951-064f7dab6a1f" x="-37.1" y="-9654" width="86.35" height="32766" maskUnits="userSpaceOnUse">
      <g class="abd39703-da09-43f0-9ec6-ff6b98195077"/>
    </mask>
    <radialGradient id="a313a84f-d969-45a0-83be-b331bf8bf9e4" cx="-542.09" cy="896.91" r="6.56" gradientTransform="translate(2197.01 -3630.77) scale(4.07 4.23)" gradientUnits="userSpaceOnUse">
      <stop offset="0.24" stop-color="#999"/>
      <stop offset="0.34" stop-color="#8d8d8d"/>
      <stop offset="0.51" stop-color="#6f6f6f"/>
      <stop offset="0.75" stop-color="#3c3c3c"/>
      <stop offset="0.99"/>
    </radialGradient>
    <clipPath id="eedb288c-5f0a-48b2-bd97-95e4d157977e">
      <ellipse class="e5aad049-175d-4c5d-9f80-b3c3fc436750" cx="-355.6" cy="305.5" rx="286.95" ry="286"/>
    </clipPath>
    <filter id="b9429de1-79f7-45c5-9bcb-41a1ab42f2d5" x="-37.1" y="147.05" width="86.35" height="89.67" filterUnits="userSpaceOnUse" color-interpolation-filters="sRGB">
      <feFlood flood-color="#fff" result="bg"/>
      <feBlend in="SourceGraphic" in2="bg"/>
    </filter>
    <mask id="f9c4fbee-d9c7-446d-8fa8-a3b07c60c913" x="-37.1" y="147.05" width="86.35" height="89.67" maskUnits="userSpaceOnUse">
      <g class="ffb47a0b-70ef-4976-8511-86fd33af1ddb">
        <ellipse class="b3de4ec9-4086-4099-b398-fae8474a358a" cx="6.07" cy="191.89" rx="43.17" ry="44.84"/>
      </g>
    </mask>
    <radialGradient id="e8dfc08e-12ec-48f0-9af7-b42a7ba3fc5d" cx="-542.09" cy="896.91" r="6.56" gradientTransform="translate(2197.01 -3630.77) scale(4.07 4.23)" gradientUnits="userSpaceOnUse">
      <stop offset="0.24" stop-color="#fff"/>
      <stop offset="0.99" stop-color="#fff"/>
    </radialGradient>
    <linearGradient id="e7bdb4e3-a512-4a8b-8a15-54d7fd914d4f" x1="50.06" y1="130.82" x2="548.27" y2="472.19" gradientUnits="userSpaceOnUse">
      <stop offset="0" stop-color="#9b81cf"/>
      <stop offset="1" stop-color="#3b139b"/>
    </linearGradient>
    <linearGradient id="ff4ec039-6acd-417b-9fe7-51898d932a75" x1="12.74" y1="305.5" x2="597.26" y2="305.5" gradientUnits="userSpaceOnUse">
      <stop offset="0" stop-color="#4c1da9"/>
      <stop offset="1" stop-color="#997ece"/>
    </linearGradient>
    <clipPath id="ee9965ce-65fb-4faa-aa50-864f84c03196">
      <ellipse class="e5aad049-175d-4c5d-9f80-b3c3fc436750" cx="305" cy="305.5" rx="286.63" ry="286.33"/>
    </clipPath>
    <linearGradient id="bd4dcca7-e4ed-494b-81c6-2a68b77b62a5" x1="400.43" y1="2474.35" x2="400.43" y2="2309.71" gradientTransform="translate(-1923.99 921.7) rotate(-99.09)" gradientUnits="userSpaceOnUse">
      <stop offset="0" stop-color="#fff"/>
      <stop offset="0.44" stop-color="#fefefd"/>
      <stop offset="0.6" stop-color="#fbfaf6"/>
      <stop offset="0.71" stop-color="#f6f4eb"/>
      <stop offset="0.8" stop-color="#efebda"/>
      <stop offset="0.88" stop-color="#e5e0c4"/>
      <stop offset="0.95" stop-color="#d9d2a9"/>
      <stop offset="1" stop-color="#cfc692"/>
    </linearGradient>
    <linearGradient id="a5d6d4df-347c-42e0-8dc4-de86475db99e" x1="502.23" y1="748.52" x2="637.64" y2="748.52" gradientTransform="translate(-546.95 -124.77) rotate(-19.01)" xlink:href="#bd4dcca7-e4ed-494b-81c6-2a68b77b62a5"/>
    <linearGradient id="fc6b1887-88fe-4554-9336-c29fcd933cb9" x1="-1046.67" y1="-69.16" x2="-849.64" y2="-69.16" gradientTransform="matrix(-0.92, -0.39, -0.39, 0.92, -647.96, -132.9)" xlink:href="#bd4dcca7-e4ed-494b-81c6-2a68b77b62a5"/>
    <linearGradient id="bc4952b9-20b6-46cc-b53f-04813e6c540f" x1="-428.76" y1="2931.98" x2="-315.48" y2="2931.98" gradientTransform="translate(-1722.73 2347.47) rotate(-140.67)" xlink:href="#bd4dcca7-e4ed-494b-81c6-2a68b77b62a5"/>
    <clipPath id="b562b542-cc2c-4e86-b645-27892a086727">
      <ellipse class="e5aad049-175d-4c5d-9f80-b3c3fc436750" cx="965" cy="305.5" rx="286.97" ry="286.68"/>
    </clipPath>
  </defs>
  <g class="e3b1538c-d950-44b0-9bef-a94b55994c3c">
    <rect class="bfea37b6-2ef5-41b7-8f5f-b2e5d9000ea9" x="-718.91" y="18.07" width="892.82" height="889.85"/>
    <g class="eee3d104-f6d1-4eb3-a984-36aac0ad599c">
      <ellipse class="b12cc79c-6e91-4e42-8307-7d858ab66db6" cx="6.07" cy="191.89" rx="43.17" ry="44.84"/>
    </g>
  </g>
  <g>
    <g>
      <circle class="feab6cdb-10eb-4582-b364-f43fb67d3c98" cx="305" cy="305.5" r="301.94"/>
      <circle class="b6120ede-623f-47fe-93df-455e26d3eccb" cx="305" cy="305.5" r="289.26"/>
    </g>
    <g class="a9c6cfe1-6709-44f2-9392-242a23aa887d">
      <g>
        <g>
          <path class="bfea37b6-2ef5-41b7-8f5f-b2e5d9000ea9" d="M622,283c0,155.37-142.84,281.33-319,281.33S-31.69,452-31.69,296.63,126.71,1.68,302.91,1.68,622,127.63,622,283Z"/>
          <path class="efc66948-822f-46a4-9872-340148cc2cb2" d="M123.62,801.14S549,472.48-82.69,495.34"/>
          <path class="a829709b-f743-445e-8339-cca7ca6c9e35" d="M406,729.83C249.77,729.83,39,705.05,39,658.1S226.18,481.82,630.59,460C786.57,451.63,562.17,729.83,406,729.83Z"/>
          <ellipse class="bb800102-3194-4810-9bbd-6c1d5c1edda8" cx="238.63" cy="624.17" rx="56.47" ry="13.1" transform="translate(-52.83 22.85) rotate(-4.94)"/>
          <ellipse class="bb800102-3194-4810-9bbd-6c1d5c1edda8" cx="153.87" cy="595.03" rx="34.1" ry="9" transform="translate(-73.09 23.87) rotate(-7.17)"/>
          <g class="ebd9a8c3-746d-4223-b368-4daaaca4c443">
            <g>
              <path class="aca89e5e-896f-4406-bdf8-f4b382495069" d="M97,191.28s7.31-33.89,45.19-8.52-35.81,28.21-69.28,22S97,191.28,97,191.28Z"/>
              <path class="aca89e5e-896f-4406-bdf8-f4b382495069" d="M169.5,162c31.67,15.9,3,22.82-23.4,21.31S137.82,146.09,169.5,162Z"/>
            </g>
            <g>
              <path class="aca89e5e-896f-4406-bdf8-f4b382495069" d="M509.45,331.46s7.31-33.88,45.19-8.52S518.83,351.15,485.36,345,509.45,331.46,509.45,331.46Z"/>
              <path class="aca89e5e-896f-4406-bdf8-f4b382495069" d="M581.94,302.17c31.67,15.9,3,22.82-23.4,21.31S550.27,286.27,581.94,302.17Z"/>
            </g>
          </g>
          <g class="bbcb5ba1-d691-4106-bad9-3650118dc786">
            <path class="a672e31b-bba9-4365-9e2a-ded0c781fe47" d="M67.26,478.92s14.12-8.51,21.53,1.76,2.73,7.08-11.72,5.92S62,481.19,67.26,478.92Z"/>
            <path class="a672e31b-bba9-4365-9e2a-ded0c781fe47" d="M73.46,499.1s4.71-7.82,3.61-12.5c-1.36-5.73,1.19-2.13,1.19-2.13l.5,4.77,4.95-1.93s-5.5,2.19-4.51,6.1a14,14,0,0,0,2.63,5.72Z"/>
          </g>
        </g>
        <g>
          <g>
            <path class="acd094e0-21c7-4d47-8773-fbbfb28ae565" d="M297.46,132.51s.09,8.1-7.26,8.54c0,0,6.08,2.43,8.61-3.78,0,0-3.93,9.36,2.63,17.06a10,10,0,0,1,3.49-7.3s-2.23,8.59,1.18,14.41a11.7,11.7,0,0,1,2.12-9.5s-.84,5.12,1.26,7.95c0,0-.8-4.18,1.55-6.87,0,0-1.5,6.54,2.79,11.22,0,0-1.34-3.84-.72-6.61,0,0,2.17,11.47,20.2,20.08,26.56,12.69,33.46,4.74,43.81,9.71.69.51-2.63-4.6-2.15-7.63,0,0,1.81,4.59,6,6.5a19.5,19.5,0,0,1-2.61-7.41,15.38,15.38,0,0,0,7.82,5.89s-2.67-2.17-3.49-7.41a15.16,15.16,0,0,0,8.1,5.45,25.88,25.88,0,0,1-5.24-7.13,23.47,23.47,0,0,0,9.79,5.22A27.84,27.84,0,0,1,388.5,174s5.11,5.4,11.13,5.24c0,0-5.17-2.93-7.95-7.14,0,0,6.12,5.55,10.29,6.16,0,0,21.28-4.19,38.61-25.37a20.94,20.94,0,0,1-8.34,2.16,34.88,34.88,0,0,0,12.92-7.55,16.55,16.55,0,0,1-5.63,1.25s6.28-2.33,9-6.12c0,0-2.47,2.22-7.62,2.55,0,0,9-3.27,14.11-16.2a15,15,0,0,1-5.9,4.69s8.32-18.83-6.2-33.65c-3.91-4-20.33,2.54-26.22,11.79-4,6.35-1.72,15.22-1.72,15.22a19.3,19.3,0,0,1-3.67-8s-1.11,3.1.75,7.86a13.27,13.27,0,0,1-3.3-5.47s-.71,5.93,2.82,18.74c0,0-4.31-4.43-5.22-14.91A73.71,73.71,0,0,1,388,140c-1.73.78.33,2,.62,5s-1.57-4.45-3.84-3.55-3.11,1.36-3.42,2.54-1.17,6,1.95,12A17.6,17.6,0,0,1,378,144.91s-1.5,6.08,1.63,10.32c0,0-4.1-4.1-5.52-8.95,0,0-.54,7,3.41,10.91a17,17,0,0,1-7.15-10s-.59,5.63,4.55,11.46A17.81,17.81,0,0,1,367,147.43s-1.14,3.91,1.91,9a14.24,14.24,0,0,1-4.19-8.76A11.77,11.77,0,0,0,367,158.13a14.42,14.42,0,0,1-4.64-9.15,2.63,2.63,0,0,0-.9,1.66,17.27,17.27,0,0,0-3.93-.82,10.54,10.54,0,0,0,.68,8.48,9.76,9.76,0,0,1-2.27-8.56,22.74,22.74,0,0,0-4.72.37c-3,.49-12.68-1-19.28-5.85a9.79,9.79,0,0,1-6.83,4.81s3.1-2.88,2.31-9.08c0,0-1.39,6.91-7.29,7.87,0,0,5-4,2.32-13,0,0,.21,7.6-4.84,9.75,0,0-1.71-1-2.68-5.4a14.6,14.6,0,0,0-4.44-8.25s2.17,5.72,1.56,9.85a13.77,13.77,0,0,0-2.08-5c-1.72-2.57-3.93-5.87-3.75-9.17,0,0-1.58,3.63,1.07,8.54a11.36,11.36,0,0,1-3.22-6c-.78-3.88-1.12-4.07-2.14-5.63,0,0,1.57,6.2-1.21,7.43Z"/>
            <path class="b09c91cf-0295-48fd-a738-d504df7f6100" d="M286.53,114.24s10,30.88,49.74,49.61c38.89,18.32,94.49,2.29,103.18-59.1-13.86,61-65.67,74.52-102.92,55.57-38.06-19.37-47.18-50-47.18-50C289,109.42,286.26,112.57,286.53,114.24Z"/>
          </g>
          <g>
            <path class="befccb4f-f185-430d-b86c-f75c40760eaf" d="M164.33,347.52c-.68.32-2.25,0-5.4-1.6a17.78,17.78,0,0,0,4.8,5.45s-4.57,1.72-10.33-4.5a12.1,12.1,0,0,0,9.5,8.66s-3.81,2-11.26.43c0,0,2.85,4.1,10,4.06,0,0-3.93.76-6.31,5.71a23.91,23.91,0,0,1,8.57-2.44,20.88,20.88,0,0,0-5,12.19s3-5.39,7.14-8.08a23.94,23.94,0,0,0-3.68,5.67s.61-1.47,4.33-2.37c0,0-3.08,1-7.11,13.32,0,0,1.78-2.51,10.08-4.2a17.29,17.29,0,0,0-5.78,10.81,19.25,19.25,0,0,1,3.89-4.58s-2.63,3.5,1,14.12,6.91,19.24,6.76,23.35a14.08,14.08,0,0,0,2.26-8.07s5.58,14.27,29.69,31.1c0,0-3.9-6.1-3.2-12.34a45.05,45.05,0,0,0,7.26,13.32s21.14,16.39,50.36,16.7a11.79,11.79,0,0,1-4.11-8.06s1.79,4.45,8.56,7c0,0,32.92.21,53.4-30,0,0-16.18,5-31.42,2.58,0,0-13.72,5.25-22.73,3.36a88.65,88.65,0,0,0,17.36-4.77s-13-1.41-20.33-4c0,0-9.32,2-16.6-2.44,0,0,4.75,1.29,12.46.07,0,0-6.27-1.59-16.6-11.89s-19.94-18.48-42.46-29.6c0,0,8.15-.91,23,7.81,0,0-5-6.53-17-12.41s-17-6.06-21.43-10.58c0,0,12,6.6,21.7-.94,0,0-15.92,4.82-26.14-8.11a19.74,19.74,0,0,0,15.08,3.95s-4.11-.59-7.37-5.62-7.73-5.6-7.73-5.6,4.33.7,8-3.88c0,0-5.32,2.19-8.53.61a10.26,10.26,0,0,0,6.26-5s-4.79,3.66-10.41,3a12.4,12.4,0,0,0,6.39-6.17s-5.25,3.74-11.08,3.19c0,0,5.13-2.35,3.8-7.51a11.48,11.48,0,0,1-7,6.78S165.11,347.15,164.33,347.52Z"/>
            <path class="b09c91cf-0295-48fd-a738-d504df7f6100" d="M150.94,305.59s10.23,45.93,30.5,82.84c23,41.84,77.93,75.73,131.5,49.2,0,0-35.07,18.69-81.22-4.09-44-21.74-63.85-74.54-76.15-129.69C155.35,303,150.69,304.43,150.94,305.59Z"/>
          </g>
          <g>
            <path class="e08828c3-9aca-4e1a-a0e0-3efc37be60d5" d="M324.73,252.21s0-5.92-.42-10.93a26.27,26.27,0,0,1,2.31-13s-6.79,5.06-7.36,16.3c0,0-3.57-10.55,1.92-19.59,0,0-6.76,3.58-7.62,15.5,0,0-3.91-12.57.89-23.93,0,0-6.75,3.52-7,16.41,0,0-1.87-3.32-1.5-10.68s-2-10.65-5-14-8.64-9.93-8-16.64a31.68,31.68,0,0,0,2,26.59s-7.17-5.44-7.46-21.69-7.6-28.16-14.81-36.53-30.9-29.25-30-44.85c0,0-3.82,3-4.26,14.14s-7.06,12-7.06,12,9.09-11.31,2.71-27.45c-3.36-8.51-8.29-11.34-7.59-16.77,0,0-2.07,3.85-.17,12.11S224.45,126,222.09,128c0,0,4.65-16.34-1.14-28.9-8.26-17.91-28.07-17.73-31.54-21.65,0,0-17.73,20.8-5.9,44.61a23.85,23.85,0,0,0-12.41-9.28s3.22,2.65,7.24,12.82,11.54,22.92,23.21,31.29c0,0-14.13-5.49-21.14-18.21,0,0,1.61,16.29,24.4,31.63,0,0-12.94-3.91-20.43-11.1,0,0,5.5,10,21.5,16.94,0,0-5.51,2.36-14.54-.75,0,0,2.43,1.15,7.64,8.51s38.25,54.3,78.14,59.77c0,0-5.44,1-8.93,9.21,0,0,6.25-7.68,18.94-6.3,0,0-8.27,3.23-9.77,14.31a29.17,29.17,0,0,1,16.14-10.74s-3.89,7.72,1,18.72a33.6,33.6,0,0,1,5.27-17.07s-.36,10.68,6.45,17.58c0,0-2.9-6.54.52-16.08a17.28,17.28,0,0,0,10,14.56s-4.86-6.5-4.38-11.08a13.9,13.9,0,0,0,11.58-.49Z"/>
            <path class="b09c91cf-0295-48fd-a738-d504df7f6100" d="M348.46,263.67s-47.65-5.32-100.67-61.44c-48.31-51.13-51.41-100.87-51.41-100.87S206.19,153,253.21,201c54,55.17,95.37,55.24,95.37,55.24C349.84,256.34,349.35,263.79,348.46,263.67Z"/>
          </g>
          <g>
            <path class="f316bccd-d077-4d5f-af45-6541f92ffccd" d="M342.55,350.6s.17,3.36-5.1,7.47a9.9,9.9,0,0,0,7.11-4.41,15.5,15.5,0,0,1,1.07,8.13s3.39-2.67,1.59-7.68c0,0,4.18,4.2,4.75,9.57a8.19,8.19,0,0,0-1.27-8.51s7.1,6.4,10.42,13.18a11.53,11.53,0,0,0-2.57-8.42s8.52,5.53,10.13,9c0,0,1.52-2.69-1.58-7.16a44,44,0,0,0,7.95,5.71c4.23,2.27,6.23,1.67,9.71.67s4.88.84,8.93,1.2,5.29,1.31,11.15-1.65,13.31.15,25.69-6.4c0,0-5.62.44-9.23-2.61s-5-5.74-10.14-6c0,0,2.39-2.35,7.4.22s8.6,5.09,13.85,5.18c5.93.1,8.73-4.11,16.74-2.62,0,0-1.87-1.71-6-2.23a8.48,8.48,0,0,1-5.93-3.32s4.72,3.6,13.54,2,11.82-7.74,23.77-15.37,15.24-12.23,19.54-19.33c6.4-11.66,13.12-14.21,13.36-20.8.63-17.1,3.94-17.36,1.91-23.42-.57-1.59-8-3.38-19.57-3.48-3.09.07-4.83.71-6.55,5.86s-2.62,8.87-7,13.69c0,0,4.76-7.67,2.64-16.74,0,0-2.55,3.51-12,9.44s-26.72,10.89-34.66,18.2c-12.16,10.38-8.12,22.36-17,28.31,0,0,3.89-4.08,2.84-11.54s3.07-13.25,7.33-16.73c0,0-6.7,1.32-12.57,11.07s-3.91,16.79-12.71,25c0,0,3.93-5.22,6.26-14.69S408.16,309.68,412,305a39.77,39.77,0,0,0-5.61,4.79c-2.52,2.66-3.6,2.93-7,4.8s-8.55,6.37-9.72,10.22c0,0,.24-5.29,6.17-10.75a23.54,23.54,0,0,0-11.13,6.27c-6.41,6.52-10,14.47-15.77,19.31,0,0,1.69-1.74,3.81-7.3,3.41-8.5,8.62-10.83,7.72-17.58a13.77,13.77,0,0,1-8.05,6.92c-5.71,1.7-7.6,1.45-13,6.9s-5.23,6.55-9.25,8c0,0,7.52-5.9,6.21-14.73a22.21,22.21,0,0,1-4.52,8.9c-3.78,4.76-4.88,6.12-5.5,7.95.4-4.47,3.62-6.84-2.12-13.74,0,0,3.29,7.45-.3,13.3,0,0-.95-4.85-7.14-6.58,0,0,6,7.11,6.09,13.43a13.41,13.41,0,0,0-10-6.73s6.65,3.16,8.66,9.71Z"/>
            <path class="b09c91cf-0295-48fd-a738-d504df7f6100" d="M497.56,285.2c-71.44,81.36-166.25,62.33-182.6,58-.34-.07-.61,4.06,0,4.25C314.93,347.43,423.07,377.26,497.56,285.2Z"/>
          </g>
        </g>
      </g>
    </g>
  </g>
  <g class="b1a73d19-4e9a-4606-a7c4-920fa1c95694">
    <path class="efc66948-822f-46a4-9872-340148cc2cb2" d="M782.63,788.16s432.45-335.84-209.75-312.49"/>
  </g>
</svg>
