<svg xmlns="http://www.w3.org/2000/svg" xmlns:xlink="http://www.w3.org/1999/xlink" width="610" height="611" viewBox="0 0 610 611">
  <defs>
    <style>
      .a1eedc93-31da-43e7-a928-f6c40856dfa4, .b6c53d8e-11f6-40a8-be0d-d9738570886f, .e9f98927-2d48-4b74-8941-02242b22e9fc, .eb6f47a1-6269-4d48-bdec-fc3dc3050a14, .f947af09-2065-408f-a5e3-d4b7b75dc47c {
        fill: none;
      }

      .b38cb836-ac50-49e7-a877-02e11a5897fd {
        isolation: isolate;
      }

      .ec4c19c6-132a-4dcc-bcd9-d72a05d019af {
        fill: url(#fcaf10a6-c47b-4fae-a5bb-8ecb8ef1380c);
      }

      .b6455d7a-826f-4e14-9521-ea28dbdc121a {
        fill: #31d0e5;
        stroke-width: 6px;
        stroke: url(#e5eaa6a0-2514-4dfd-bace-40ba517e2b66);
      }

      .a1eedc93-31da-43e7-a928-f6c40856dfa4, .a23f7cca-ecc8-4b1c-bc2e-acc7611770b9, .a2cc1619-a5cd-40e6-bf14-e0c435643702, .a4aebb11-8bc3-4538-b112-d4376b08e59b, .a55a5c45-d13d-408a-a095-889a492b063d, .a5d544ed-a03d-49bb-883c-a309b807ad5e, .a76a6769-6476-43e4-850f-d6c00b521f4a, .a7cf3a69-0248-479f-bc4f-06c0fa7fd4c8, .a8340071-4c37-4de0-abb1-591e96fead1a, .a87e270f-74b4-45de-90f8-89f2951a324d, .acd4179e-07c3-47de-8d17-552ce7d99dbf, .ae57755c-d3af-4599-8ab1-768e2338ec64, .afbafb94-9909-487b-bd1e-db59b9e78a29, .b022bbcc-837e-47d5-96f1-83de6fa286ec, .b3bee3dd-f8ab-4396-9923-66fe4edf959b, .b4566f96-79c6-416e-8949-ebec3f0cb36c, .b6455d7a-826f-4e14-9521-ea28dbdc121a, .b8912c6f-ae28-49cd-b501-275e20876888, .b8e1b0c1-07f2-4b3c-b896-dabc2a8976fc, .bf36e393-f6f5-4cc8-a327-14973271b658, .e01fd615-a913-451d-9264-e1554dff34ef, .e474f7c6-07f4-49df-b00e-74759a4f32d9, .e9f98927-2d48-4b74-8941-02242b22e9fc, .eb6f47a1-6269-4d48-bdec-fc3dc3050a14, .ec47cd58-e7c3-4fdb-af66-6fef6ed03119, .ec8b3e9b-b421-4cb7-babc-c2ca0bd636ab, .ed17a3de-815f-4b89-b81e-065f9da985be, .edebee57-2905-42cb-a61e-b59e59d674aa, .ef4e6710-d8d5-43f6-a5c3-e4b463377422, .f521da5c-6a94-4512-b0ab-3cc2637f9796, .f714d733-6606-4ce9-803a-473571710d74, .f947af09-2065-408f-a5e3-d4b7b75dc47c, .fd70bc11-bdf8-4ba3-b21e-c995ecd136c6 {
        stroke-miterlimit: 10;
      }

      .bf5ec829-d998-4a81-8d70-f2041b9a6bc0 {
        clip-path: url(#a9c94d1a-69c6-4261-8dfc-5bd42c9a81cb);
      }

      .bf04d13d-dc3c-4237-8156-ce8263ee0003 {
        fill: #a6ebf7;
      }

      .b3a1e9e8-f90c-48a1-a3ea-e7d27dcd7957 {
        fill: #d3fff3;
      }

      .f87aab06-fcd5-404f-8666-4edfe21023df {
        fill: #c5db7f;
      }

      .b28bd0a7-8b60-4e78-b527-62c3ac99923f {
        fill: #98bc5c;
      }

      .e21f5691-ea90-480d-9ba4-4eb202da267e {
        fill: #799640;
        opacity: 0.46;
      }

      .b486a2e6-6180-4e9f-bf4f-3709417977da {
        opacity: 0.14;
      }

      .e0bb29b4-ac31-42f1-a400-a201e5b06293, .e2322771-f934-4d96-85e9-cb348d206f18 {
        fill: #042f33;
      }

      .e0bb29b4-ac31-42f1-a400-a201e5b06293 {
        opacity: 0.69;
      }

      .ed221c03-2568-48b4-878a-79e81e74ae9a {
        fill: #fff;
      }

      .e0353eae-659c-40b6-95bf-0a968b71dd73 {
        fill: #00470c;
      }

      .fc09c98b-47a4-4ff8-92ea-238fc3943b63 {
        opacity: 0.38;
      }

      .b494631a-b8b5-44d2-9f3e-1ef7a975c8b3 {
        opacity: 0.45;
      }

      .a1b405ea-92d0-4160-8b16-c0a1be3806f0 {
        fill: #77c9b0;
      }

      .a23f7cca-ecc8-4b1c-bc2e-acc7611770b9 {
        fill: #fdd3ca;
      }

      .a23f7cca-ecc8-4b1c-bc2e-acc7611770b9, .f947af09-2065-408f-a5e3-d4b7b75dc47c {
        stroke: #af8680;
      }

      .a1eedc93-31da-43e7-a928-f6c40856dfa4, .a23f7cca-ecc8-4b1c-bc2e-acc7611770b9, .a2cc1619-a5cd-40e6-bf14-e0c435643702, .a4aebb11-8bc3-4538-b112-d4376b08e59b, .a55a5c45-d13d-408a-a095-889a492b063d, .a5d544ed-a03d-49bb-883c-a309b807ad5e, .a76a6769-6476-43e4-850f-d6c00b521f4a, .a7cf3a69-0248-479f-bc4f-06c0fa7fd4c8, .a8340071-4c37-4de0-abb1-591e96fead1a, .a87e270f-74b4-45de-90f8-89f2951a324d, .acd4179e-07c3-47de-8d17-552ce7d99dbf, .ae57755c-d3af-4599-8ab1-768e2338ec64, .afbafb94-9909-487b-bd1e-db59b9e78a29, .b022bbcc-837e-47d5-96f1-83de6fa286ec, .b3bee3dd-f8ab-4396-9923-66fe4edf959b, .b4566f96-79c6-416e-8949-ebec3f0cb36c, .b8912c6f-ae28-49cd-b501-275e20876888, .b8e1b0c1-07f2-4b3c-b896-dabc2a8976fc, .bf36e393-f6f5-4cc8-a327-14973271b658, .e01fd615-a913-451d-9264-e1554dff34ef, .e474f7c6-07f4-49df-b00e-74759a4f32d9, .e9f98927-2d48-4b74-8941-02242b22e9fc, .eb6f47a1-6269-4d48-bdec-fc3dc3050a14, .ec47cd58-e7c3-4fdb-af66-6fef6ed03119, .ec8b3e9b-b421-4cb7-babc-c2ca0bd636ab, .ed17a3de-815f-4b89-b81e-065f9da985be, .edebee57-2905-42cb-a61e-b59e59d674aa, .ef4e6710-d8d5-43f6-a5c3-e4b463377422, .f521da5c-6a94-4512-b0ab-3cc2637f9796, .f714d733-6606-4ce9-803a-473571710d74, .f947af09-2065-408f-a5e3-d4b7b75dc47c, .fd70bc11-bdf8-4ba3-b21e-c995ecd136c6 {
        stroke-width: 0.25px;
      }

      .a9462eae-a5d1-49a6-bccd-eb686a13d7d9 {
        fill: #e3ae9f;
      }

      .b8912c6f-ae28-49cd-b501-275e20876888 {
        fill: #defeff;
      }

      .a5d544ed-a03d-49bb-883c-a309b807ad5e, .a8340071-4c37-4de0-abb1-591e96fead1a, .a87e270f-74b4-45de-90f8-89f2951a324d, .b8912c6f-ae28-49cd-b501-275e20876888, .fd70bc11-bdf8-4ba3-b21e-c995ecd136c6 {
        stroke: #562d30;
      }

      .a5d544ed-a03d-49bb-883c-a309b807ad5e, .b8912c6f-ae28-49cd-b501-275e20876888 {
        opacity: 0.35;
      }

      .f714d733-6606-4ce9-803a-473571710d74 {
        fill: #6bb7ce;
      }

      .a2cc1619-a5cd-40e6-bf14-e0c435643702, .a76a6769-6476-43e4-850f-d6c00b521f4a, .b8e1b0c1-07f2-4b3c-b896-dabc2a8976fc, .bf36e393-f6f5-4cc8-a327-14973271b658, .e9f98927-2d48-4b74-8941-02242b22e9fc, .edebee57-2905-42cb-a61e-b59e59d674aa, .f521da5c-6a94-4512-b0ab-3cc2637f9796, .f714d733-6606-4ce9-803a-473571710d74 {
        stroke: #323232;
      }

      .a8340071-4c37-4de0-abb1-591e96fead1a {
        fill: #c7fcff;
      }

      .b2fafb68-36c3-4621-b33c-f7171ea20daa {
        fill: #b9908b;
      }

      .edebee57-2905-42cb-a61e-b59e59d674aa {
        fill: #587ab1;
      }

      .bf36e393-f6f5-4cc8-a327-14973271b658 {
        fill: #7199c6;
      }

      .f521da5c-6a94-4512-b0ab-3cc2637f9796 {
        fill: #759ac4;
      }

      .bf27b363-90c7-4393-8ff2-a2131e8a6773 {
        fill: #1b3f72;
        opacity: 0.76;
      }

      .a76a6769-6476-43e4-850f-d6c00b521f4a, .b022bbcc-837e-47d5-96f1-83de6fa286ec, .bd59afe7-6fb9-4861-bb62-eee00a541c69 {
        fill: #fbd3c7;
      }

      .b022bbcc-837e-47d5-96f1-83de6fa286ec, .eb6f47a1-6269-4d48-bdec-fc3dc3050a14 {
        stroke: #453323;
      }

      .f7c894da-9311-433a-9105-60e08506b1dd {
        fill: #dd9f8f;
      }

      .b8e1b0c1-07f2-4b3c-b896-dabc2a8976fc {
        fill: #facc35;
      }

      .be596cbd-cb35-4764-9a14-16c759ade898 {
        fill: #be9030;
      }

      .bf339bc6-6e8d-4fd7-be6d-12f66f4d5b46 {
        fill: #453323;
      }

      .ef4e6710-d8d5-43f6-a5c3-e4b463377422 {
        fill: #d95c78;
        stroke: #8d2338;
      }

      .bbaba184-e2a5-4621-ac96-a082486ec264 {
        fill: #e4a68d;
      }

      .bb69d9f6-563e-4c19-8393-31334580ccce {
        fill: #f3eae3;
      }

      .a1a6e187-2b9a-4917-bc43-d1988243a5a5 {
        fill: #4f3317;
      }

      .beb87dc5-6bd2-42f0-986c-ec84afe43ce9 {
        fill: #ba7e70;
      }

      .f8610905-343e-4815-a4b0-c2200722a625 {
        fill: #451e15;
      }

      .e624d1a3-9903-415d-8565-9e569f88f4ec {
        fill: #dee8ee;
      }

      .b3bee3dd-f8ab-4396-9923-66fe4edf959b {
        fill: #3f1d1d;
        stroke: #221f1f;
      }

      .b9eaa081-0c7e-452c-a326-e4a00d243c66 {
        fill: #431b15;
      }

      .fe616e41-d6b3-4756-b7c6-42d8f4c839a4 {
        fill: #c48a74;
      }

      .bb563317-7419-4d66-b457-13fd1b51d2c2 {
        fill: #561211;
      }

      .bbe93678-dce1-4178-86cf-e134465a2801 {
        fill: #e8194e;
      }

      .a5db1e46-2f83-4a41-8516-9cc9ec5de372 {
        fill: #bc7757;
      }

      .affcf535-763e-4e4a-ad8d-082c27cb4730 {
        fill: #f5dc90;
      }

      .f1e171eb-d028-4fb8-a564-7b2a4e4f0efb {
        fill: #3fc416;
      }

      .e8e8d0dc-f82d-433d-a164-e03129c35cf2 {
        fill: #00a6fd;
      }

      .a3dd7480-9b64-47e7-b64c-fe27c2cc3b8d {
        fill: #fb8000;
      }

      .aeacaec7-c781-486d-9956-56c0cdb7ef07 {
        fill: #00a3fd;
      }

      .fe4614fa-9256-4a79-bbce-14a4367d3ae2 {
        fill: red;
      }

      .b90d6026-7fb4-47e8-8da0-d3b7a3523d69 {
        fill: #e53963;
      }

      .e4207aa6-697e-4023-bf68-8de1799ddb4f {
        mix-blend-mode: screen;
        opacity: 0.2;
      }

      .b89fb6d4-93cc-4ac0-98ac-c4f460b294c7 {
        fill: url(#bae5ce07-15e4-4001-ba10-2536f9dd41d4);
      }

      .b381b228-c925-415f-b6bd-34aad088298b {
        mix-blend-mode: multiply;
        opacity: 0.5;
      }

      .a5586455-f3ad-4a9d-9977-10d76ec6edac {
        fill: url(#b896c598-5f33-4907-a6aa-4ee2ed555941);
      }

      .b86e164c-bcd8-495a-9132-b250fc3f873c {
        fill: url(#e39f695b-04cd-4b1b-95ec-9663d7d9ac88);
      }

      .a1eedc93-31da-43e7-a928-f6c40856dfa4 {
        stroke: #2f404f;
      }

      .e01fd615-a913-451d-9264-e1554dff34ef, .e9f28c09-4f73-46ef-8c60-48b2c901e297 {
        fill: #f9dad2;
      }

      .e01fd615-a913-451d-9264-e1554dff34ef {
        stroke: #4c2606;
      }

      .ec47cd58-e7c3-4fdb-af66-6fef6ed03119 {
        fill: #ee7bae;
      }

      .acd4179e-07c3-47de-8d17-552ce7d99dbf, .ec47cd58-e7c3-4fdb-af66-6fef6ed03119, .ec8b3e9b-b421-4cb7-babc-c2ca0bd636ab, .ed17a3de-815f-4b89-b81e-065f9da985be {
        stroke: #633954;
      }

      .ae57755c-d3af-4599-8ab1-768e2338ec64 {
        fill: #fe66ca;
      }

      .a4aebb11-8bc3-4538-b112-d4376b08e59b, .ae57755c-d3af-4599-8ab1-768e2338ec64 {
        stroke: #af1086;
      }

      .e29e7a51-bd49-42d6-b0eb-327b97b8ccdb {
        fill: #fffa71;
      }

      .ae853c47-1ca7-4a58-b498-3a964c25e8f9 {
        fill: #cc0098;
      }

      .a4aebb11-8bc3-4538-b112-d4376b08e59b {
        fill: #e852bb;
      }

      .a7cf3a69-0248-479f-bc4f-06c0fa7fd4c8 {
        fill: #191512;
        stroke: #301d10;
      }

      .bf709a31-8a0e-4e9a-9e6e-1fcc855e07fd {
        fill: #342516;
      }

      .e474f7c6-07f4-49df-b00e-74759a4f32d9 {
        fill: #e94e41;
        stroke: #874a46;
      }

      .b59c4227-cb9b-45a3-b32a-6528052e8e53 {
        fill: #b26b51;
      }

      .afbafb94-9909-487b-bd1e-db59b9e78a29 {
        fill: #e7d760;
        stroke: #baa73b;
      }

      .a2cc1619-a5cd-40e6-bf14-e0c435643702, .a7196bd3-aaff-40ac-ad4a-3fde5e214c27 {
        fill: #f9f6f2;
      }

      .b4566f96-79c6-416e-8949-ebec3f0cb36c, .e34d8f8d-2be1-48d3-8c96-633f7cd925cf {
        fill: #3d2d16;
      }

      .b4566f96-79c6-416e-8949-ebec3f0cb36c {
        stroke: #3d2d16;
      }

      .a52c4b92-1f2d-4441-b53e-d1190fb33283 {
        fill: #f58778;
      }

      .b29e6194-ebca-414c-9628-2351b23b4f55 {
        fill: #7a2f2b;
      }

      .acd4179e-07c3-47de-8d17-552ce7d99dbf {
        fill: #d880aa;
      }

      .ec8b3e9b-b421-4cb7-babc-c2ca0bd636ab {
        fill: #c66a96;
      }

      .be9c27e0-9761-4970-bca0-e5304ed3137a {
        fill: #bc6c96;
      }

      .ed17a3de-815f-4b89-b81e-065f9da985be {
        fill: #f4ec62;
      }

      .a5d544ed-a03d-49bb-883c-a309b807ad5e {
        fill: #b7767b;
      }

      .fd70bc11-bdf8-4ba3-b21e-c995ecd136c6 {
        fill: #904a4c;
      }

      .a87e270f-74b4-45de-90f8-89f2951a324d {
        fill: #ad7f82;
      }

      .a55a5c45-d13d-408a-a095-889a492b063d {
        fill: #faf079;
        stroke: #9a9435;
      }

      .fbb79265-8875-456b-a939-264c5924f78b {
        fill: #b8832c;
      }

      .ff69733c-cf24-4386-9fdb-30d34c8b06ea {
        fill: #f16a21;
      }

      .afac05f6-4d02-43fa-a4bb-6b6ae2b14169 {
        fill: #02b5fd;
      }

      .ea225325-e5c4-437b-9ecb-543015ea57d5 {
        fill: #fc9512;
      }

      .b0b4c085-21bd-4c16-87d0-10989b043fd2 {
        fill: #0833f1;
      }

      .f1e713be-042f-4bb7-acf5-b8ff40542144 {
        fill: #5fce3d;
      }

      .bac698ca-814e-4832-80bf-55372cd9380e {
        fill: #9e4ac6;
      }

      .b8283457-465b-4f28-837e-fccc988fb2ba {
        fill: url(#e25620f9-d90d-4ee0-a15f-3e500ec32594);
      }

      .b2cf9d9c-4593-4d29-a984-2a590f2378f6 {
        fill: url(#f8b7968c-403a-4645-a257-a28bfb0dc413);
      }

      .a25c9d18-75e5-41f1-bb23-8074eb63f56c {
        fill: url(#ac3b1d5e-9ae1-4289-af03-d32eb413ec4e);
      }

      .e181b68d-e033-473d-8f50-518fa77fd651 {
        fill: #4c2606;
      }
    </style>
    <linearGradient id="fcaf10a6-c47b-4fae-a5bb-8ecb8ef1380c" x1="50.06" y1="130.82" x2="548.27" y2="472.19" gradientUnits="userSpaceOnUse">
      <stop offset="0" stop-color="#9b81cf"/>
      <stop offset="1" stop-color="#3b139b"/>
    </linearGradient>
    <linearGradient id="e5eaa6a0-2514-4dfd-bace-40ba517e2b66" x1="12.74" y1="305.5" x2="597.26" y2="305.5" gradientUnits="userSpaceOnUse">
      <stop offset="0" stop-color="#4c1da9"/>
      <stop offset="1" stop-color="#997ece"/>
    </linearGradient>
    <clipPath id="a9c94d1a-69c6-4261-8dfc-5bd42c9a81cb">
      <circle class="b6c53d8e-11f6-40a8-be0d-d9738570886f" cx="305" cy="305.5" r="286.49"/>
    </clipPath>
    <linearGradient id="bae5ce07-15e4-4001-ba10-2536f9dd41d4" x1="-2206.1" y1="-8077.65" x2="-2174.61" y2="-8077.65" gradientTransform="translate(8815.04 13158.04) rotate(-17.78) scale(1.86)" gradientUnits="userSpaceOnUse">
      <stop offset="0" stop-color="#ff0a3b"/>
      <stop offset="0.67" stop-color="#ff576b"/>
      <stop offset="1" stop-color="#ff7880"/>
    </linearGradient>
    <linearGradient id="b896c598-5f33-4907-a6aa-4ee2ed555941" x1="-2182.99" y1="-8090.21" x2="-2182.64" y2="-8049.01" gradientTransform="translate(8815.04 13158.04) rotate(-17.78) scale(1.86)" gradientUnits="userSpaceOnUse">
      <stop offset="0" stop-color="#cc8122"/>
      <stop offset="0.32" stop-color="#9e5e16"/>
      <stop offset="0.78" stop-color="#612f06"/>
      <stop offset="1" stop-color="#491c00"/>
    </linearGradient>
    <linearGradient id="e39f695b-04cd-4b1b-95ec-9663d7d9ac88" x1="-2206.1" y1="-8072.89" x2="-2159.51" y2="-8072.89" xlink:href="#b896c598-5f33-4907-a6aa-4ee2ed555941"/>
    <linearGradient id="e25620f9-d90d-4ee0-a15f-3e500ec32594" x1="-4588.99" y1="-7256.25" x2="-4554.78" y2="-7256.25" gradientTransform="translate(9571.89 13902.95) rotate(-1.91) scale(1.92)" gradientUnits="userSpaceOnUse">
      <stop offset="0" stop-color="#fdbf05"/>
      <stop offset="0.31" stop-color="#fea712"/>
      <stop offset="0.96" stop-color="#ff6a34"/>
      <stop offset="1" stop-color="#ff6636"/>
    </linearGradient>
    <linearGradient id="f8b7968c-403a-4645-a257-a28bfb0dc413" x1="-7403.43" y1="-7259.5" x2="-7403.05" y2="-7214.75" gradientTransform="matrix(-1.92, 0.07, 0.07, 1.92, -13332.36, 14695.22)" gradientUnits="userSpaceOnUse">
      <stop offset="0" stop-color="#d59647"/>
      <stop offset="0.2" stop-color="#bd843e"/>
      <stop offset="0.74" stop-color="#805426"/>
      <stop offset="1" stop-color="#68421d"/>
    </linearGradient>
    <linearGradient id="ac3b1d5e-9ae1-4289-af03-d32eb413ec4e" x1="-7428.54" y1="-7240.69" x2="-7377.93" y2="-7240.69" xlink:href="#f8b7968c-403a-4645-a257-a28bfb0dc413"/>
  </defs>
  <g class="b38cb836-ac50-49e7-a877-02e11a5897fd">
    <g id="b4769c43-813d-48ca-84d0-09e97b9bb4e6" data-name="Layer 1">
      <g>
        <g>
          <circle class="ec4c19c6-132a-4dcc-bcd9-d72a05d019af" cx="305" cy="305.5" r="301.94"/>
          <circle class="b6455d7a-826f-4e14-9521-ea28dbdc121a" cx="305" cy="305.5" r="289.26"/>
        </g>
        <g class="bf5ec829-d998-4a81-8d70-f2041b9a6bc0">
          <ellipse class="bf04d13d-dc3c-4237-8156-ce8263ee0003" cx="299.76" cy="278.76" rx="291.63" ry="291.34"/>
          <g>
            <path class="b3a1e9e8-f90c-48a1-a3ea-e7d27dcd7957" d="M616.9,250.66C616.9,397.3,477,516.17,304.33,516.17s-327.81-106-327.81-252.66S131.7-14.86,304.33-14.86,616.9,104,616.9,250.66Z"/>
            <path class="f87aab06-fcd5-404f-8666-4edfe21023df" d="M82.55,672S499.27,351.76-119.57,374"/>
            <path class="b28bd0a7-8b60-4e78-b527-62c3ac99923f" d="M359.18,602.54c-153,0-359.49-24.14-359.49-69.9S183,360.85,579.25,339.62C732.06,331.43,512.22,602.54,359.18,602.54Z"/>
            <path class="e21f5691-ea90-480d-9ba4-4eb202da267e" d="M375.78,657.23c-143.08-29-332-88.1-324.3-126.21S251.9,422.64,625.92,479.9C770.17,502,518.86,686.18,375.78,657.23Z"/>
            <ellipse class="b486a2e6-6180-4e9f-bf4f-3709417977da" cx="195.24" cy="499.58" rx="55.33" ry="12.77" transform="translate(-42.02 18.53) rotate(-4.91)"/>
            <ellipse class="b486a2e6-6180-4e9f-bf4f-3709417977da" cx="430.81" cy="506.85" rx="55.33" ry="12.99" transform="translate(-74.39 74.11) rotate(-9.05)"/>
            <path class="e0bb29b4-ac31-42f1-a400-a201e5b06293" d="M526,345s-10.53-15.34,7-13.77c0,0-.78-25.51,16.7-16.06,0,0-5.39-21.56,24.43-14.59,0,0,35.93-7.31,17.73,18.3,0,0,28.78,4.05,11.31,22.12Z"/>
            <path class="ed221c03-2568-48b4-878a-79e81e74ae9a" d="M119.21,119.83s7.16-33,44.27-8.3S128.39,139,95.6,133,119.21,119.83,119.21,119.83Z"/>
            <path class="ed221c03-2568-48b4-878a-79e81e74ae9a" d="M190.22,91.29c31,15.5,3,22.24-22.91,20.77S159.19,75.8,190.22,91.29Z"/>
            <g>
              <path class="e0353eae-659c-40b6-95bf-0a968b71dd73" d="M346.16,585.41s-45.68,7.41-49.25-4.43,37.77-7.65,55.32-2.2c-55.87-30.3-26.19-12.14-42.84-23.42s-7.16-25,21.07-9.24c24,16.79,31.06,21.69,31.06,21.69S339,540.43,328.71,525.22s.79-33.51,22.3-8.59c-.61-10.64-.69-11.68-.69-11.68s1.32,15.85-.71-2.46,15.52-14.74,15.74,13.37c5.61-12.87-2.31,2.43,6.77-11.93s27.14-11,18.32,16.21-6,19.4-6,19.4l-6.7,17.52,24.61-25.57c17.47-15.58,28.94-10.34,11.43,14.06-11.94,13.87-22.3,25-22.3,25s12.2-5.76,31.74-16,25,7.08,2.18,17c-28.82,4.79-79.28,14-79.28,14"/>
              <g>
                <path class="e2322771-f934-4d96-85e9-cb348d206f18" d="M376.26,572.27l40.57-43.75s-33.89,40.24-40.57,43.75"/>
                <path class="e2322771-f934-4d96-85e9-cb348d206f18" d="M367.91,555.88l15.1-54s-9.43,45.8-15.1,54"/>
                <path class="e2322771-f934-4d96-85e9-cb348d206f18" d="M353.73,497.16s12.47,69.14,15.56,76.64c1.53-3.72-13.6-76.26-15.56-76.64"/>
                <path class="e2322771-f934-4d96-85e9-cb348d206f18" d="M369.15,569.46S331.94,514.31,331,512.41s32.84,39.09,32.63,47.11"/>
                <path class="e2322771-f934-4d96-85e9-cb348d206f18" d="M383.09,576.91s41.22-15.13,47.11-19a178.07,178.07,0,0,1-47.11,19"/>
                <path class="e2322771-f934-4d96-85e9-cb348d206f18" d="M309.83,546.77s45.5,29.72,51,31.79c0,0-46.92-32.62-51-31.79"/>
                <path class="e2322771-f934-4d96-85e9-cb348d206f18" d="M350.93,582.06s-47.45.66-48.61,0,43.29-1.5,48.61,0"/>
                <path class="e2322771-f934-4d96-85e9-cb348d206f18" d="M372.78,538.47,385.2,529s-11.34,5.67-12.42,9.52"/>
                <path class="e2322771-f934-4d96-85e9-cb348d206f18" d="M375.18,529.88s-5.23-12-5.88-13.32,5.94,7.8,5.88,13.32"/>
                <path class="e2322771-f934-4d96-85e9-cb348d206f18" d="M378.73,521.07s11.69-8.77,11.53-10.31-10,8.78-11.53,10.31"/>
                <path class="e2322771-f934-4d96-85e9-cb348d206f18" d="M378.06,516.85,373.68,507s5,5,4.38,9.85"/>
                <path class="e2322771-f934-4d96-85e9-cb348d206f18" d="M383.82,564.13s3.06-13.9,4.5-15.52-3.59,13.12-4.5,15.52"/>
                <path class="e2322771-f934-4d96-85e9-cb348d206f18" d="M391.79,557.16l15.69-7.62s-8.94,2-15.69,7.62"/>
                <path class="e2322771-f934-4d96-85e9-cb348d206f18" d="M403.31,543.1s-.8-8.93.43-10.51.86,9.12-.43,10.51"/>
                <path class="e2322771-f934-4d96-85e9-cb348d206f18" d="M408.68,538.07l10.15-5s-3,3.3-10.15,5"/>
                <path class="e2322771-f934-4d96-85e9-cb348d206f18" d="M406.5,568.06s9.77-8.43,13-9.65-6.43,5.84-13,9.65"/>
                <path class="e2322771-f934-4d96-85e9-cb348d206f18" d="M411.74,567.22s17.17-1.77,19.45-3.12-16.89,2-19.45,3.12"/>
                <path class="e2322771-f934-4d96-85e9-cb348d206f18" d="M397.74,572.65l16.93-.81s-11.47-1-16.93.81"/>
                <path class="e2322771-f934-4d96-85e9-cb348d206f18" d="M362.05,532c-.13-.7,3.83-8.86,3.83-8.86s-3,1.4-4,8.16"/>
                <path class="e2322771-f934-4d96-85e9-cb348d206f18" d="M358.27,525.4s-5.13-6.68-5.29-6.35,3.95.94,5.29,6.35"/>
                <path class="e2322771-f934-4d96-85e9-cb348d206f18" d="M358.71,515.64l1.62-10.92s-3,4.2-1.62,10.92"/>
                <path class="e2322771-f934-4d96-85e9-cb348d206f18" d="M352,538.92s-2.53-15-2.49-15.72-1.37,8.3,2.49,15.72"/>
                <path class="e2322771-f934-4d96-85e9-cb348d206f18" d="M341.08,524.51s-3.27-7.85-3.12-10.88,3.13,8.19,3.12,10.88"/>
                <path class="e2322771-f934-4d96-85e9-cb348d206f18" d="M344.45,532.05l-10.93-3.73a18.53,18.53,0,0,1,10.93,3.73"/>
                <path class="e2322771-f934-4d96-85e9-cb348d206f18" d="M355.54,548l-10.29-1.69s6.23-.67,10.29,1.69"/>
                <path class="e2322771-f934-4d96-85e9-cb348d206f18" d="M322,552.87s-6.81-7-7.53-8.85,5.81,3.44,7.53,8.85"/>
                <path class="e2322771-f934-4d96-85e9-cb348d206f18" d="M330.08,559.86l-13.34-1.33a29.5,29.5,0,0,1,13.34,1.33"/>
                <path class="e2322771-f934-4d96-85e9-cb348d206f18" d="M337,562.41s-4.24-5.92-4.13-9.24,2.55,6.42,4.16,9.26"/>
                <path class="e2322771-f934-4d96-85e9-cb348d206f18" d="M346.6,568.84s-3.57-7.28-3.76-9.83,4.62,6.72,3.76,9.83"/>
                <path class="e2322771-f934-4d96-85e9-cb348d206f18" d="M321.47,574.85,336,581.23s-5.54-.12-14.56-6.38"/>
                <path class="e2322771-f934-4d96-85e9-cb348d206f18" d="M316.34,581.34s-10-3-11.68-4.52,9.82,2.36,11.68,4.52"/>
                <path class="e2322771-f934-4d96-85e9-cb348d206f18" d="M328.3,582.3s-11.9,4.33-14.63,4.7,6.9-3.64,14.63-4.7"/>
              </g>
            </g>
            <g>
              <path class="e0353eae-659c-40b6-95bf-0a968b71dd73" d="M123.21,549.45s-21.87-8.05-20.51-14.13,18.46,6,24.81,12.71c-17-27.09-8.48-11.79-13-20.86s3-12.72,11.53,1.16c6.37,13.3,8.25,17.19,8.25,17.19s-3.09-17.57-3.84-26.79,8.65-14.5,11.91,1.75c2.37-4.82,2.59-5.3,2.59-5.3s-3.35,7.28.3-1.25,10.46-2.63,3.59,9.75c5.65-4.26-1.61.5,5.93-3.55s14.63,1.87,4,11.63-7.41,7-7.41,7l-7.29,6,17.13-5.13c11.53-2.52,15.26,2.61,1.53,9-8.67,3.13-16,5.43-16,5.43s6.78.49,17.9.81,9.23,9.29-3.26,8c-13.82-5-38.22-13.47-38.22-13.47"/>
              <g>
                <path class="e2322771-f934-4d96-85e9-cb348d206f18" d="M139.66,551.12,168.29,542s-24.83,9.27-28.63,9.15"/>
                <path class="e2322771-f934-4d96-85e9-cb348d206f18" d="M140.06,541.87l20-20s-15.48,17.76-20,20"/>
                <path class="e2322771-f934-4d96-85e9-cb348d206f18" d="M148.39,512.61S136.73,546,136.23,550.07c1.59-1.25,12.93-36.81,12.16-37.46"/>
                <path class="e2322771-f934-4d96-85e9-cb348d206f18" d="M137.24,548.13s-2.66-33.39-2.6-34.45,4.72,25.26,2.64,28.73"/>
                <path class="e2322771-f934-4d96-85e9-cb348d206f18" d="M141.51,554.84s21.82,3.56,25.37,3.31a90.2,90.2,0,0,1-25.37-3.31"/>
                <path class="e2322771-f934-4d96-85e9-cb348d206f18" d="M116.84,523.52s12.59,24.28,14.5,26.55c0,0-12.5-25.91-14.5-26.55"/>
                <path class="e2322771-f934-4d96-85e9-cb348d206f18" d="M126.13,549.16s-21-11.45-21.32-12,19.36,10,21.32,12"/>
                <path class="e2322771-f934-4d96-85e9-cb348d206f18" d="M146.51,535.44l7.8-1.11s-6.38-.31-7.8,1.11"/>
                <path class="e2322771-f934-4d96-85e9-cb348d206f18" d="M149.69,532.26s.69-6.57.72-7.29.67,4.89-.72,7.29"/>
                <path class="e2322771-f934-4d96-85e9-cb348d206f18" d="M153.43,529.27s7.3-.95,7.61-1.66-6.57,1.37-7.61,1.66"/>
                <path class="e2322771-f934-4d96-85e9-cb348d206f18" d="M154.18,527.26l.52-5.4s.93,3.43-.52,5.4"/>
                <path class="e2322771-f934-4d96-85e9-cb348d206f18" d="M145,549.42s4.79-5.34,5.82-5.69-4.82,4.86-5.82,5.69"/>
                <path class="e2322771-f934-4d96-85e9-cb348d206f18" d="M150.22,548.33l8.77.54a21,21,0,0,0-8.77-.54"/>
                <path class="e2322771-f934-4d96-85e9-cb348d206f18" d="M158.75,545s1.86-4.12,2.79-4.51-1.88,4.22-2.79,4.51"/>
                <path class="e2322771-f934-4d96-85e9-cb348d206f18" d="M162.35,544.14l5.68.34a10.23,10.23,0,0,1-5.68-.34"/>
                <path class="e2322771-f934-4d96-85e9-cb348d206f18" d="M154,556.75s6.37-1.28,8.07-1-4.26,1-8.07,1"/>
                <path class="e2322771-f934-4d96-85e9-cb348d206f18" d="M156.47,557.68s8,3.47,9.31,3.44-7.91-3.29-9.31-3.44"/>
                <path class="e2322771-f934-4d96-85e9-cb348d206f18" d="M149,556.6l7.62,3.83s-4.79-3.25-7.62-3.83"/>
                <path class="e2322771-f934-4d96-85e9-cb348d206f18" d="M143.41,529.94a38.58,38.58,0,0,1,3.88-2.94s-1.67-.13-3.77,2.6"/>
                <path class="e2322771-f934-4d96-85e9-cb348d206f18" d="M143.38,526.12a35,35,0,0,0-.74-4.1,4.69,4.69,0,0,1,.74,4.1"/>
                <path class="e2322771-f934-4d96-85e9-cb348d206f18" d="M146,521.94l3.41-4.39a7.29,7.29,0,0,0-3.41,4.39"/>
                <path class="e2322771-f934-4d96-85e9-cb348d206f18" d="M137.27,530.49s2.61-7.22,2.8-7.51a14.5,14.5,0,0,0-2.8,7.51"/>
                <path class="e2322771-f934-4d96-85e9-cb348d206f18" d="M136.07,521.48s.5-4.26,1.32-5.54-.66,4.36-1.32,5.54"/>
                <path class="e2322771-f934-4d96-85e9-cb348d206f18" d="M135.67,525.62l-3.87-4.34a9.28,9.28,0,0,1,3.87,4.34"/>
                <path class="e2322771-f934-4d96-85e9-cb348d206f18" d="M136.6,535.34l-4.1-3.28a10,10,0,0,1,4.1,3.28"/>
                <path class="e2322771-f934-4d96-85e9-cb348d206f18" d="M120.66,529.19s-1.25-4.74-1.1-5.74,1.69,2.95,1.1,5.74"/>
                <path class="e2322771-f934-4d96-85e9-cb348d206f18" d="M122.48,534.26,117,530.38a14.81,14.81,0,0,1,5.52,3.88"/>
                <path class="e2322771-f934-4d96-85e9-cb348d206f18" d="M124.86,537.08s-.39-3.65.48-5.08-.47,3.45-.47,5.1"/>
                <path class="e2322771-f934-4d96-85e9-cb348d206f18" d="M127.5,542.28s.24-4.07.79-5.24.36,4.09-.79,5.24"/>
                <path class="e2322771-f934-4d96-85e9-cb348d206f18" d="M115,538.71l4.81,6.4s-2.4-1.43-4.81-6.4"/>
                <path class="e2322771-f934-4d96-85e9-cb348d206f18" d="M111.13,540.28s-3.61-3.79-4-4.87,3.73,3.47,4,4.87"/>
                <path class="e2322771-f934-4d96-85e9-cb348d206f18" d="M116.14,543.66s-6.29-1-7.58-1.55,3.93.11,7.58,1.55"/>
              </g>
            </g>
            <g class="fc09c98b-47a4-4ff8-92ea-238fc3943b63">
              <path class="e0353eae-659c-40b6-95bf-0a968b71dd73" d="M294.21,461.49s-13.87,0-14.37-3.64,11.54-.48,16.48,2c-15.11-11.6-7.18-4.83-11.57-8.95s-.94-7.73,6.67-1.74c6.31,6.1,8.17,7.88,8.17,7.88s-5.37-9.16-7.7-14.15,1.81-9.88,7-1.49c.33-3.18.35-3.49.35-3.49s-.36,4.75-.09-.76,5.29-3.63,4,4.7c2.27-3.55-.79.61,2.57-3.21s8.56-2,4.66,5.66-2.68,5.46-2.68,5.46l-2.81,4.87,8.49-6.41c5.91-3.79,9.05-1.7,2.72,4.7-4.19,3.54-7.78,6.34-7.78,6.34s3.88-1.14,10.15-3.26,7.08,3.28-.16,5.13c-8.75.06-24.12.4-24.12.4"/>
              <g>
                <path class="e2322771-f934-4d96-85e9-cb348d206f18" d="M303.74,459l14.07-11s-11.93,10.32-14.07,11"/>
                <path class="e2322771-f934-4d96-85e9-cb348d206f18" d="M302,453.77l7-15.27s-4.95,13.11-7,15.27"/>
                <path class="e2322771-f934-4d96-85e9-cb348d206f18" d="M300.62,435.72s.42,21.06,1,23.42c.63-1-.42-23.21-1-23.42"/>
                <path class="e2322771-f934-4d96-85e9-cb348d206f18" d="M301.76,457.85s-8.4-18.08-8.59-18.68,7.87,13.11,7.43,15.48"/>
                <path class="e2322771-f934-4d96-85e9-cb348d206f18" d="M305.54,460.71s12.92-2.53,14.84-3.4a53.55,53.55,0,0,1-14.84,3.4"/>
                <path class="e2322771-f934-4d96-85e9-cb348d206f18" d="M285.28,448.34s12.06,10.94,13.6,11.81c0,0-12.35-11.86-13.6-11.81"/>
                <path class="e2322771-f934-4d96-85e9-cb348d206f18" d="M295.78,460.72s-14.08-2-14.39-2.3,12.89,1.6,14.39,2.3"/>
                <path class="e2322771-f934-4d96-85e9-cb348d206f18" d="M304.31,448.85l4.12-2.23s-3.62,1.14-4.12,2.23"/>
                <path class="e2322771-f934-4d96-85e9-cb348d206f18" d="M305.42,446.42s-1-3.81-1.11-4.22,1.39,2.59,1.11,4.22"/>
                <path class="e2322771-f934-4d96-85e9-cb348d206f18" d="M306.89,444s3.87-2,3.9-2.51-3.38,2.13-3.9,2.51"/>
                <path class="e2322771-f934-4d96-85e9-cb348d206f18" d="M306.89,442.7l-.83-3.12s1.23,1.72.83,3.12"/>
                <path class="e2322771-f934-4d96-85e9-cb348d206f18" d="M306.36,457s1.56-4,2.07-4.37-1.69,3.71-2.07,4.37"/>
                <path class="e2322771-f934-4d96-85e9-cb348d206f18" d="M309.05,455.28l5-1.52a12.43,12.43,0,0,0-5,1.52"/>
                <path class="e2322771-f934-4d96-85e9-cb348d206f18" d="M313.12,451.66s.19-2.68.63-3.09-.18,2.74-.63,3.09"/>
                <path class="e2322771-f934-4d96-85e9-cb348d206f18" d="M315,450.42l3.24-1a6.13,6.13,0,0,1-3.24,1"/>
                <path class="e2322771-f934-4d96-85e9-cb348d206f18" d="M312.89,459.2a28.38,28.38,0,0,1,4.29-2.25c1-.21-2.18,1.43-4.29,2.25"/>
                <path class="e2322771-f934-4d96-85e9-cb348d206f18" d="M314.48,459.2s5.16.28,5.9,0-5.09-.2-5.9,0"/>
                <path class="e2322771-f934-4d96-85e9-cb348d206f18" d="M310.08,460.14l5.05.56a18.24,18.24,0,0,0-5.05-.56"/>
                <path class="e2322771-f934-4d96-85e9-cb348d206f18" d="M301.44,446.43A22.2,22.2,0,0,1,303,444s-1,.28-1.56,2.23"/>
                <path class="e2322771-f934-4d96-85e9-cb348d206f18" d="M300.63,444.3a19.32,19.32,0,0,0-1.27-2.13,2.76,2.76,0,0,1,1.27,2.13"/>
                <path class="e2322771-f934-4d96-85e9-cb348d206f18" d="M301.22,441.43l1-3.16a4.33,4.33,0,0,0-1,3.16"/>
                <path class="e2322771-f934-4d96-85e9-cb348d206f18" d="M298.12,448s0-4.57,0-4.77a8.59,8.59,0,0,0,0,4.77"/>
                <path class="e2322771-f934-4d96-85e9-cb348d206f18" d="M295.58,443.22a12.54,12.54,0,0,1-.41-3.36c.19-.89.54,2.57.41,3.36"/>
                <path class="e2322771-f934-4d96-85e9-cb348d206f18" d="M296.22,445.61,293.16,444a5.58,5.58,0,0,1,3.06,1.62"/>
                <path class="e2322771-f934-4d96-85e9-cb348d206f18" d="M298.76,450.85l-3-1a6,6,0,0,1,3,1"/>
                <path class="e2322771-f934-4d96-85e9-cb348d206f18" d="M288.59,450.72a20.49,20.49,0,0,1-1.81-3c-.12-.59,1.56,1.29,1.81,3"/>
                <path class="e2322771-f934-4d96-85e9-cb348d206f18" d="M290.66,453.17l-3.89-1a8.85,8.85,0,0,1,3.89,1"/>
                <path class="e2322771-f934-4d96-85e9-cb348d206f18" d="M292.57,454.25s-1-2-.79-2.93.45,2,.8,2.93"/>
                <path class="e2322771-f934-4d96-85e9-cb348d206f18" d="M295.12,456.6a14.9,14.9,0,0,1-.65-3.08c.07-.77,1,2.2.65,3.08"/>
                <path class="e2322771-f934-4d96-85e9-cb348d206f18" d="M287.4,457.2l4,2.57s-1.64-.29-4-2.57"/>
                <path class="e2322771-f934-4d96-85e9-cb348d206f18" d="M285.57,458.88a20.32,20.32,0,0,1-3.24-1.89c-.44-.52,2.8,1.16,3.24,1.89"/>
                <path class="e2322771-f934-4d96-85e9-cb348d206f18" d="M289.07,459.73s-3.73.72-4.55.7,2.21-.75,4.55-.7"/>
              </g>
            </g>
            <g class="fc09c98b-47a4-4ff8-92ea-238fc3943b63">
              <path class="e0353eae-659c-40b6-95bf-0a968b71dd73" d="M514.13,466.4s-13.87,0-14.37-3.64,11.54-.48,16.48,2c-15.1-11.6-7.18-4.82-11.57-9s-.94-7.73,6.67-1.74c6.31,6.1,8.17,7.88,8.17,7.88s-5.37-9.16-7.7-14.15,1.82-9.88,7-1.49c.32-3.18.34-3.49.34-3.49s-.35,4.75-.09-.76,5.29-3.63,4,4.7c2.27-3.55-.8.61,2.57-3.21s8.55-2,4.65,5.66-2.68,5.46-2.68,5.46l-2.81,4.87,8.49-6.41c5.91-3.79,9.06-1.7,2.72,4.7-4.19,3.54-7.78,6.34-7.78,6.34s3.88-1.13,10.15-3.26,7.08,3.28-.16,5.13c-8.75.06-24.12.4-24.12.4"/>
              <g>
                <path class="e2322771-f934-4d96-85e9-cb348d206f18" d="M523.66,463.93l14.08-11s-11.94,10.32-14.08,11"/>
                <path class="e2322771-f934-4d96-85e9-cb348d206f18" d="M522,458.68l7-15.27s-5,13.11-7,15.27"/>
                <path class="e2322771-f934-4d96-85e9-cb348d206f18" d="M520.54,440.63s.43,21.06,1,23.42c.62-1-.42-23.21-1-23.42"/>
                <path class="e2322771-f934-4d96-85e9-cb348d206f18" d="M521.69,462.76s-8.41-18.08-8.6-18.68,7.87,13.11,7.43,15.48"/>
                <path class="e2322771-f934-4d96-85e9-cb348d206f18" d="M525.46,465.62s12.92-2.53,14.85-3.4a53.9,53.9,0,0,1-14.85,3.4"/>
                <path class="e2322771-f934-4d96-85e9-cb348d206f18" d="M505.2,453.25s12.07,10.94,13.6,11.82c0,0-12.35-11.87-13.6-11.82"/>
                <path class="e2322771-f934-4d96-85e9-cb348d206f18" d="M515.7,465.63s-14.07-2-14.39-2.3,12.89,1.6,14.39,2.3"/>
                <path class="e2322771-f934-4d96-85e9-cb348d206f18" d="M524.23,453.76l4.12-2.23s-3.62,1.14-4.12,2.23"/>
                <path class="e2322771-f934-4d96-85e9-cb348d206f18" d="M525.34,451.33s-1-3.81-1.11-4.22,1.39,2.59,1.11,4.22"/>
                <path class="e2322771-f934-4d96-85e9-cb348d206f18" d="M526.81,448.89s3.88-2,3.9-2.51-3.38,2.13-3.9,2.51"/>
                <path class="e2322771-f934-4d96-85e9-cb348d206f18" d="M526.81,447.61l-.83-3.12s1.23,1.72.83,3.12"/>
                <path class="e2322771-f934-4d96-85e9-cb348d206f18" d="M526.28,461.88s1.57-4,2.07-4.38-1.68,3.71-2.07,4.38"/>
                <path class="e2322771-f934-4d96-85e9-cb348d206f18" d="M529,460.19l5-1.52a12.46,12.46,0,0,0-5,1.52"/>
                <path class="e2322771-f934-4d96-85e9-cb348d206f18" d="M533.05,456.57s.18-2.68.62-3.09-.18,2.74-.62,3.09"/>
                <path class="e2322771-f934-4d96-85e9-cb348d206f18" d="M534.87,455.34l3.24-1a6.13,6.13,0,0,1-3.24,1"/>
                <path class="e2322771-f934-4d96-85e9-cb348d206f18" d="M532.81,464.11a28.38,28.38,0,0,1,4.29-2.25c1-.21-2.18,1.43-4.29,2.25"/>
                <path class="e2322771-f934-4d96-85e9-cb348d206f18" d="M534.4,464.11s5.17.28,5.9,0-5.09-.2-5.9,0"/>
                <path class="e2322771-f934-4d96-85e9-cb348d206f18" d="M530,465.05l5,.57a18.12,18.12,0,0,0-5-.57"/>
                <path class="e2322771-f934-4d96-85e9-cb348d206f18" d="M521.36,451.34a22.2,22.2,0,0,1,1.55-2.45s-1,.28-1.56,2.23"/>
                <path class="e2322771-f934-4d96-85e9-cb348d206f18" d="M520.55,449.21a19.32,19.32,0,0,0-1.27-2.13,2.76,2.76,0,0,1,1.27,2.13"/>
                <path class="e2322771-f934-4d96-85e9-cb348d206f18" d="M521.14,446.34l1-3.16a4.33,4.33,0,0,0-1,3.16"/>
                <path class="e2322771-f934-4d96-85e9-cb348d206f18" d="M518.05,452.91s0-4.56,0-4.77a8.64,8.64,0,0,0,0,4.77"/>
                <path class="e2322771-f934-4d96-85e9-cb348d206f18" d="M515.51,448.13a12.54,12.54,0,0,1-.41-3.36c.18-.89.53,2.57.41,3.36"/>
                <path class="e2322771-f934-4d96-85e9-cb348d206f18" d="M516.14,450.52l-3-1.62a5.57,5.57,0,0,1,3,1.62"/>
                <path class="e2322771-f934-4d96-85e9-cb348d206f18" d="M518.68,455.76l-3-1a6,6,0,0,1,3,1"/>
                <path class="e2322771-f934-4d96-85e9-cb348d206f18" d="M508.51,455.63a20.49,20.49,0,0,1-1.81-3c-.12-.58,1.56,1.3,1.81,3"/>
                <path class="e2322771-f934-4d96-85e9-cb348d206f18" d="M510.58,458.08l-3.89-1a8.85,8.85,0,0,1,3.89,1"/>
                <path class="e2322771-f934-4d96-85e9-cb348d206f18" d="M512.49,459.16s-1-2-.78-2.93.45,2,.79,2.93"/>
                <path class="e2322771-f934-4d96-85e9-cb348d206f18" d="M515,461.52a15,15,0,0,1-.65-3.09c.07-.77,1.06,2.21.65,3.09"/>
                <path class="e2322771-f934-4d96-85e9-cb348d206f18" d="M507.32,462.11l4,2.57s-1.63-.29-4-2.57"/>
                <path class="e2322771-f934-4d96-85e9-cb348d206f18" d="M505.49,463.79a20.32,20.32,0,0,1-3.24-1.89c-.43-.52,2.8,1.16,3.24,1.89"/>
                <path class="e2322771-f934-4d96-85e9-cb348d206f18" d="M509,464.64s-3.73.72-4.55.7,2.21-.75,4.55-.7"/>
              </g>
            </g>
            <g class="b494631a-b8b5-44d2-9f3e-1ef7a975c8b3">
              <path class="a1b405ea-92d0-4160-8b16-c0a1be3806f0" d="M27.35,358s13.83-8.3,21.08,1.71,2.68,6.9-11.48,5.77S22.23,360.25,27.35,358Z"/>
              <path class="a1b405ea-92d0-4160-8b16-c0a1be3806f0" d="M33.41,377.69S38,370.07,37,365.52c-1.33-5.59,1.17-2.08,1.17-2.08l.49,4.64,4.85-1.87s-5.39,2.13-4.43,5.94a13.65,13.65,0,0,0,2.58,5.57Z"/>
            </g>
          </g>
          <g>
            <g>
              <g>
                <g>
                  <path class="a23f7cca-ecc8-4b1c-bc2e-acc7611770b9" d="M217.63,441.14s-7.69,35.33-9.72,38.4-10.61,7.17-16.34,6.49c0,0,4.15-36.29,6.62-42S217.63,441.14,217.63,441.14Z"/>
                  <path class="a23f7cca-ecc8-4b1c-bc2e-acc7611770b9" d="M191.57,445.28s-7.42,31.66-8.6,36.2-14.66,6.91-19.72,5.39c0,0,8.22-38.39,10.62-42.59S191.57,445.28,191.57,445.28Z"/>
                  <path class="a9462eae-a5d1-49a6-bccd-eb686a13d7d9" d="M173.33,444.86c1.09-.79,18.8-2.52,18.8-2.52l-.85,3.54s-7,1.66-9.37,2.07"/>
                </g>
                <g>
                  <path class="b8912c6f-ae28-49cd-b501-275e20876888" d="M211.57,467.06a25,25,0,0,1-17.52-1.49l-2.88,20.61s13.32,1.36,16.12-2.79Z"/>
                  <path class="f714d733-6606-4ce9-803a-473571710d74" d="M216.71,485.81s-.56-6.17-6.4-5.84-10.12-1.46-12.25,1.69.2,4.93-6.88,3l.14-2.47s-3.6-1.13-4.38,1.23-1,7.07-2.14,9.43-1.46,3.82,0,4.38,22.92,11.9,41.91,4.94C226.71,502.2,238.06,488.05,216.71,485.81Z"/>
                  <path class="f714d733-6606-4ce9-803a-473571710d74" d="M221.37,486.6s-9.6-1.24-13.42,7.51a12.75,12.75,0,0,0-1.17,4.72"/>
                  <path class="a8340071-4c37-4de0-abb1-591e96fead1a" d="M184.46,493.55s15.17,6.63,21.58,7.86,21.86-.91,22.28-1.78a25.32,25.32,0,0,0-1.61,2.57A44.53,44.53,0,0,1,206.42,504a71.9,71.9,0,0,1-21.62-6.71S182.55,496.58,184.46,493.55Z"/>
                  <path class="a8340071-4c37-4de0-abb1-591e96fead1a" d="M216.71,485.81s-8-.9-9.93,3.81,3.36,1,3.36,1,2.86-4.62,10.05-4.12C220.19,486.54,219.74,485,216.71,485.81Z"/>
                  <path class="a8340071-4c37-4de0-abb1-591e96fead1a" d="M216.17,483.73s-7-1.06-8.9,2.3,0,2.69,0,2.69,2-3.36,9.44-2.91Z"/>
                  <path class="b8912c6f-ae28-49cd-b501-275e20876888" d="M212.8,462S200,464.5,194.94,461l-.73,3.22s12.63,2.45,17.9.87Z"/>
                </g>
                <g>
                  <path class="b8912c6f-ae28-49cd-b501-275e20876888" d="M185.83,469.62a27.21,27.21,0,0,1-18.31-1.49l-4.94,20.23s16.35,1.18,19.27-3Z"/>
                  <path class="f714d733-6606-4ce9-803a-473571710d74" d="M188.87,488s-.56-6.17-6.41-5.83-10.11-1.46-12.24,1.68.19,4.94-6.88,3l.14-2.47s-3.6-1.12-4.39,1.24-1,7.07-2.13,9.43-1.46,3.81,0,4.37,22.92,11.9,41.91,4.94C198.87,504.38,210.22,490.24,188.87,488Z"/>
                  <path class="f714d733-6606-4ce9-803a-473571710d74" d="M193.53,488.79s-9.6-1.24-13.43,7.51a13,13,0,0,0-1.17,4.72"/>
                  <path class="a8340071-4c37-4de0-abb1-591e96fead1a" d="M156.62,495.74s15.17,6.62,21.57,7.86,21.87-.91,22.28-1.78a27.32,27.32,0,0,0-1.6,2.56,44.44,44.44,0,0,1-20.29,1.78A71.63,71.63,0,0,1,157,499.44S154.71,498.77,156.62,495.74Z"/>
                  <path class="a8340071-4c37-4de0-abb1-591e96fead1a" d="M188.87,488s-8-.89-9.94,3.82,3.36,1,3.36,1,2.87-4.63,10.06-4.12C192.35,488.73,191.9,487.21,188.87,488Z"/>
                  <path class="a8340071-4c37-4de0-abb1-591e96fead1a" d="M188.33,485.92s-7-1.07-8.9,2.3,0,2.69,0,2.69,2-3.36,9.44-2.92Z"/>
                  <path class="b8912c6f-ae28-49cd-b501-275e20876888" d="M187.05,464.49s-13.23,2.49-18.51-1.06l-.76,3.22s13.09,2.45,18.55.87Z"/>
                </g>
              </g>
              <g>
                <path class="b2fafb68-36c3-4621-b33c-f7171ea20daa" d="M219.14,431.56c-.11,1.61-.29,3.43-.56,5.5-.47,3.5-1.76,6.48-2.35,9.77a49.93,49.93,0,0,1-8.46.43c-2.09-.16-5.8-.47-8.27-2.21l.91-11.06,4.41-3.9a18.58,18.58,0,0,1,6.37-.59A21.87,21.87,0,0,1,219.14,431.56Z"/>
                <path class="b2fafb68-36c3-4621-b33c-f7171ea20daa" d="M197.6,443.65c-.66,2.06-6-.49-7.37,7.33a44.22,44.22,0,0,1-13-2,21.41,21.41,0,0,1-4.46-2.08,65.59,65.59,0,0,0,.52-6.6S206.88,414.64,197.6,443.65Z"/>
                <polygon class="edebee57-2905-42cb-a61e-b59e59d674aa" points="224.69 402.1 222.35 412.15 222.32 412.25 222.28 419.64 222.21 431.87 222.19 436.28 218.69 436.16 201.49 435.57 200.28 435.53 199.22 435.49 196.3 435.39 196.4 432.52 196.42 432.06 196.49 430.15 196.67 425.04 196.72 423.46 197.04 414.09 197.21 409.12 197.27 407.56 197.85 390.83 224.69 402.1"/>
                <path class="bf36e393-f6f5-4cc8-a327-14973271b658" d="M195.69,432.39c3.6.68,20.38,3.54,26.66-.6a.67.67,0,0,1,1.05.59l-.57,8.06a.67.67,0,0,1-.46.6c-2.65.85-17.13,5-28-1.41A.68.68,0,0,1,194,439l.86-6A.67.67,0,0,1,195.69,432.39Z"/>
                <path class="edebee57-2905-42cb-a61e-b59e59d674aa" d="M218.41,413.1l-7.91,8.13-3.16,3-3.85,3.7-1.08,4.11-.06.21-.29,1.1-.57,2.2-.33,1.23-1.07,4.09-.26.08-.7.21c-.28.09-.57.16-.87.23l-.08,0c-6.72,1.49-17.74-.73-23.52-2.14-2.33-.56-3.82-1-3.82-1V413l.9-12.15,25.53,6.69,5.94,1.55,13.61,3.57Z"/>
                <path class="f521da5c-6a94-4512-b0ab-3cc2637f9796" d="M171.13,433.4c4.58,1.71,18.11,6.16,29.2,3.35a1.29,1.29,0,0,1,1.62,1.46L200.78,445a1.27,1.27,0,0,1-.92,1c-3.6,1-19,4.63-30.49-4.83a1.34,1.34,0,0,1-.46-1.11l.48-5.55A1.29,1.29,0,0,1,171.13,433.4Z"/>
                <path class="bf27b363-90c7-4393-8ff2-a2131e8a6773" d="M222.35,412.15l0,.1,0,7.39a54.54,54.54,0,0,1-14.94,4.61,63.62,63.62,0,0,1-10.67.79,76.33,76.33,0,0,1-25.83-4.83v-6.73c5.81,1.18,16.16,1.1,26.2.61,7.42-.36,14.67-.95,19.78-1.41C219.19,412.47,221.09,412.28,222.35,412.15Z"/>
              </g>
              <g>
                <g>
                  <g>
                    <path class="b022bbcc-837e-47d5-96f1-83de6fa286ec" d="M247.2,345.39s-.81,7.93-12.73,8a42.78,42.78,0,0,1-10.85-1.57c-9.85-2.57.85-18.18.85-18.18l8.6-.16,10.11.78S254.3,337.27,247.2,345.39Z"/>
                    <path class="f7c894da-9311-433a-9105-60e08506b1dd" d="M233.13,333.68c1.28,3.91,2.6,10.38,1.29,19.51a40.52,40.52,0,0,1-10.8-1.36c-9.85-2.57.85-18.18.85-18.18Z"/>
                  </g>
                  <path class="b022bbcc-837e-47d5-96f1-83de6fa286ec" d="M239,352.67c12.83-3.18,26-12,35.48-30l-4.8-5.23c-1,0-22.84,15-27.77,16.78"/>
                </g>
                <g>
                  <path class="b022bbcc-837e-47d5-96f1-83de6fa286ec" d="M274.7,309.85s6.26-8.38,12-5.37c3.76,2,2.7,2.63.51,5.37,0,0,4.28,2.73,1.47,5.78,0,0,3.92,3.19.63,4.78,0,0,1.85,1.61-1,3s-15.79,3.66-17.82,3.13"/>
                  <path class="b022bbcc-837e-47d5-96f1-83de6fa286ec" d="M266.5,320.35A15.21,15.21,0,0,1,270.09,309c4.21-4.71,6.35-2,8.44-1.5s6,1,1.46,3.18-4.18-.7-5.14,4.47S273,319.8,271.93,321"/>
                  <path class="b022bbcc-837e-47d5-96f1-83de6fa286ec" d="M287.2,309.85c-8.46,4.9-9.17,1.63-9.17,1.63"/>
                  <path class="b022bbcc-837e-47d5-96f1-83de6fa286ec" d="M279.35,307.85c2.73-1.91,4.16-1.56,4.16-1.56"/>
                  <path class="eb6f47a1-6269-4d48-bdec-fc3dc3050a14" d="M288.67,315.63s-5.48,2.23-7.8,1.08-3.72-4.21-1.14-4.26"/>
                  <path class="eb6f47a1-6269-4d48-bdec-fc3dc3050a14" d="M289.46,320.08s-5.48,2.23-7.79,1.08-3.73-4.21-1.15-4.26"/>
                  <path class="eb6f47a1-6269-4d48-bdec-fc3dc3050a14" d="M289.26,323.19s-5.48,2.23-7.8,1.08-3.73-4.21-1.14-4.26"/>
                </g>
              </g>
              <g>
                <path class="b8e1b0c1-07f2-4b3c-b896-dabc2a8976fc" d="M203,328.8c-5.11-.24,10.36,1.74,21.7,2.05.72,0,1.45,0,2.17,0,0,0,6.48,15.71,1.87,27.23,0,0-.66,0-1.9,0-4.65-.05-17.56-.71-35.26-6.12"/>
                <path class="be596cbd-cb35-4764-9a14-16c759ade898" d="M226.63,331.08s6.31,14.9,2,26.85a18.83,18.83,0,0,0-2-.1c2.31-14-1.08-23.75-2.22-26.77Z"/>
              </g>
              <path class="b8e1b0c1-07f2-4b3c-b896-dabc2a8976fc" d="M213.22,342.45c2.59,3.61,4.69,8.62,6.4,16.41.41,1.85,1.38,3.63,1.77,5.63,3.48,17.91,2.78,52.72,2.78,52.72s-23.6,15.14-56.61,0c0,0-.73-20-.65-39.46,0-2,0-4.08.06-6.1,0-2.35.08-4.65.14-6.88s.14-4.12.24-6c.11-2.29.25-4.44.41-6.39,1.4-16.22,8.64-23.49,13.69-26.49a16.15,16.15,0,0,1,3.66-1.65c4-1.16,14.53,5.38,14.53,5.38"/>
              <path class="be596cbd-cb35-4764-9a14-16c759ade898" d="M204.9,334.59c-3,1.21-7.15,1.32-11.75.07-6.15-1.68-10.7-5.07-11.64-8.58a18.69,18.69,0,0,1,3.75-1.84c4-1.16,14.38,5.34,14.38,5.34S202.85,328.32,204.9,334.59Z"/>
              <path class="be596cbd-cb35-4764-9a14-16c759ade898" d="M219.67,364.14c-7.81,3.28-24.66,13.09-52.15-.05.06-2.1.14-4.12.23-6,6.29,4.05,27.86,15,51.39,0,.49,1.39,1,2.82,1.38,4.32A1.48,1.48,0,0,1,219.67,364.14Z"/>
              <path class="be596cbd-cb35-4764-9a14-16c759ade898" d="M222.76,378c-9.51,2.89-23.54,11-55.46-.88,0-2,0-4.08.06-6.1,7.57,2.64,28.84,14.51,55,.84C222.73,373.83,222.48,376,222.76,378Z"/>
              <g>
                <g>
                  <path class="b022bbcc-837e-47d5-96f1-83de6fa286ec" d="M259.36,360.1v8.48l-23.55,12.34c-11.58,6-19.13,3.47-23.15.53l-12.4-9.06-8.65-6.33L205.37,353a35.75,35.75,0,0,1,5.23,3.68c5.36,4.14,12.84,10.29,12.84,10.29Z"/>
                  <path class="f7c894da-9311-433a-9105-60e08506b1dd" d="M210.6,357.09c-1.71,6.7-7,11.86-9.93,14.88l-9.06-5.91L205.37,353C205.8,353,207.94,355,210.6,357.09Z"/>
                </g>
                <g>
                  <path class="b8e1b0c1-07f2-4b3c-b896-dabc2a8976fc" d="M193.25,336.8c.23,1.08,7,8.91,14.61,16.17l1.58,1.48s-5.85,15.95-17,21.33c0,0-.51-.42-1.42-1.26-3.4-3.18-12.46-12.38-21.85-28.32"/>
                  <path class="be596cbd-cb35-4764-9a14-16c759ade898" d="M209.13,354.45s-5.43,15.24-16.68,21.15a15.25,15.25,0,0,0-1.38-1.4c11.16-8.75,15.27-18.23,16.48-21.23Z"/>
                </g>
                <path class="e9f98927-2d48-4b74-8941-02242b22e9fc" d="M224.34,366.74a6.25,6.25,0,0,0-4.08,2,5.39,5.39,0,0,0-1.32,4.11"/>
                <g>
                  <line class="b022bbcc-837e-47d5-96f1-83de6fa286ec" x1="273.99" y1="361.69" x2="273.17" y2="360.94"/>
                  <g>
                    <path class="bd59afe7-6fb9-4861-bb62-eee00a541c69" d="M280.65,365.41s-.77-1.24-3.35-.72"/>
                    <path class="bf339bc6-6e8d-4fd7-be6d-12f66f4d5b46" d="M280.65,365.41c-.91-.83-2.18-.75-3.35-.72,1.09-.39,2.69-.39,3.35.72Z"/>
                  </g>
                  <g>
                    <path class="bd59afe7-6fb9-4861-bb62-eee00a541c69" d="M278.52,365.13s-5.36-1.34-6.36-5.82"/>
                    <path class="bf339bc6-6e8d-4fd7-be6d-12f66f4d5b46" d="M278.52,365.14c-2.8-.75-6-2.75-6.34-5.83.89,2.94,3.55,4.9,6.34,5.83Z"/>
                  </g>
                  <path class="b022bbcc-837e-47d5-96f1-83de6fa286ec" d="M254.79,371c4.57-1.77,5.72-1.39,5.72-1.39.19,1.79,5.61,5.29,9.12,5.38,3.24.08,3.55-1.77,3.55-1.77,3.95-.67,3.1-2.75,3.1-2.75,3.81-.64,2.76-3.19,2.76-3.19,1.7-.36,2.85-2,2.15-3.47s-5.85-2.84-5.85-2.84l-.33-4.88a5.62,5.62,0,0,0-4.62-2.66c-3.28-.15-6,2.9-6,2.9s-7.46,4.75-12.61,5.25"/>
                  <path class="b022bbcc-837e-47d5-96f1-83de6fa286ec" d="M279.76,367.13a6.77,6.77,0,0,1-5.18-.9"/>
                  <path class="b022bbcc-837e-47d5-96f1-83de6fa286ec" d="M276.75,370.25s-1.49.77-4.79-1.05"/>
                  <path class="b022bbcc-837e-47d5-96f1-83de6fa286ec" d="M273.7,373.08s-1.54.47-4.38-1.27"/>
                  <path class="eb6f47a1-6269-4d48-bdec-fc3dc3050a14" d="M277.92,362.92s-4.49-1.5-5.22-5.05"/>
                </g>
              </g>
              <path class="b022bbcc-837e-47d5-96f1-83de6fa286ec" d="M204.92,316.83c-3.23,4-3.07,9.48-2.51,13,.07.46.16.88.23,1.26a2,2,0,0,1-1.92,2.37c-8.74.08-13.52-3.84-15.64-6.27a12.36,12.36,0,0,1-1.23-1.64.36.36,0,0,1,.05-.43c3.67-3.83,4-11.67,4-13.13C187.88,312,210.06,310.52,204.92,316.83Z"/>
              <path class="f7c894da-9311-433a-9105-60e08506b1dd" d="M204.35,316.83c-3.07,4-2.74,9.51-2.21,13.06a34.46,34.46,0,0,1-16.79-2.66,14,14,0,0,1-1.34-1.88c3.65-3.75,4.13-11.85,4.13-13.33C188.14,312,209.24,310.52,204.35,316.83Z"/>
              <g>
                <path class="ef4e6710-d8d5-43f6-a5c3-e4b463377422" d="M167.94,270.32s-11.28-32.78,1.49-32c5.11.32,8.41,4.78,9.66,7.35,2.67,5.5-5.56,9.54-8.29,4.07a13.94,13.94,0,0,1-1.09-3.15c-2.16-9.62-4.36,1.41-1.05,22Z"/>
                <g>
                  <path class="a76a6769-6476-43e4-850f-d6c00b521f4a" d="M226,273.39s-.51-6.82,3.94-4.47,7.05,14,2.36,19.94S226,273.39,226,273.39Z"/>
                  <path class="bbaba184-e2a5-4621-ac96-a082486ec264" d="M226.88,275.56s-.28-4.7,2.74-3.12,4.67,9.59,1.42,13.73S226.88,275.56,226.88,275.56Z"/>
                </g>
                <path class="b022bbcc-837e-47d5-96f1-83de6fa286ec" d="M216.6,248.83c11.27,19.73,11.24,19.91,16.83,37.82,4.09,13.14-4.47,27.7-14.52,32.41-14.8,6.92-39.32,5.24-47.81-10.73-6.33-11.9-11.57-17-14.59-21.17C147,274,150.4,239.72,169.18,231.84,186.74,224.46,204.19,227.09,216.6,248.83Z"/>
                <g>
                  <g>
                    <path class="bb69d9f6-563e-4c19-8393-31334580ccce" d="M186.58,280.31c-3.45,1.95-4.47,7.09-2.28,11.47a7,7,0,0,0,10,3.22c3.44-1.95,4.62-5.89,2.44-10.27S190,278.36,186.58,280.31Z"/>
                    <path class="a1a6e187-2b9a-4917-bc43-d1988243a5a5" d="M186.58,280.31c-5.42,3.3-4,12.81,1.62,15.15a7.41,7.41,0,0,0,8.16-2.31c2-2.42,1.67-5.91.27-8.56-1.7-3.57-6.24-6.41-10-4.28Zm0,0c3.81-2.18,8.41.65,10.15,4.23,1.46,2.66,1.82,6.26-.2,8.75a7.48,7.48,0,0,1-8.4,2.34c-5.66-2.41-7-12-1.55-15.32Z"/>
                  </g>
                  <path class="beb87dc5-6bd2-42f0-986c-ec84afe43ce9" d="M183,286.77a7.76,7.76,0,0,1,3.29-6.31c2.92-1.9,7.48-1,10,2.93a9.31,9.31,0,0,1,1.59,7.85c1.57-3.47-.17-7.17-2.34-9.76s-5.73-4.37-8.78-2.78C184.16,280.08,182.35,284.33,183,286.77Z"/>
                  <g>
                    <path class="f8610905-343e-4815-a4b0-c2200722a625" d="M194.07,290.08c2.38-.78,3.28-3.53,2-6.16s-4.23-4.13-6.61-3.36-3.28,3.53-2,6.16S191.69,290.85,194.07,290.08Z"/>
                    <path class="e624d1a3-9903-415d-8565-9e569f88f4ec" d="M187.81,283.92a1.07,1.07,0,0,0,1.09-1.16,1.24,1.24,0,0,0-1.16-1.22,1.08,1.08,0,0,0-1.09,1.16A1.25,1.25,0,0,0,187.81,283.92Z"/>
                  </g>
                </g>
                <g>
                  <g>
                    <path class="bb69d9f6-563e-4c19-8393-31334580ccce" d="M213.8,270c-3.23,1.71-4,6.57-1.7,10.86s6.55,5.33,9.77,3.62,4.17-5.55,1.89-9.83S217,268.3,213.8,270Z"/>
                    <path class="a1a6e187-2b9a-4917-bc43-d1988243a5a5" d="M213.8,270c-5.35,3.29-2.9,12.29,2.23,14.58,3.55,1.69,8.47-.53,8.84-4.62a9.29,9.29,0,0,0-1.34-5.59c-1.79-3.29-6-6.26-9.73-4.37Zm0,0c3.75-1.93,8,1,9.84,4.31a9.51,9.51,0,0,1,1.42,5.67c-.32,4.26-5.45,6.59-9.11,4.77-5.17-2.37-7.58-11.47-2.15-14.75Z"/>
                  </g>
                  <path class="beb87dc5-6bd2-42f0-986c-ec84afe43ce9" d="M210.81,276.18c-.18-2.48.55-5.18,2.23-6.28,2.92-1.89,7.64-.52,10.16,3.41,1.23,1.92,2.62,3.8,1.87,7.82,1.57-3.47-.44-7.14-2.61-9.73s-5.73-4.37-8.78-2.78C211,270,210.13,273.73,210.81,276.18Z"/>
                  <g>
                    <path class="f8610905-343e-4815-a4b0-c2200722a625" d="M220.11,279.84c2.46-.39,3.77-3,2.93-5.74s-3.51-4.73-6-4.34-3.78,3-2.94,5.75S217.64,280.23,220.11,279.84Z"/>
                    <path class="e624d1a3-9903-415d-8565-9e569f88f4ec" d="M214.92,273a1.22,1.22,0,0,0,1.21-1.18,1.16,1.16,0,0,0-1.2-1.15,1.2,1.2,0,0,0-1.21,1.17A1.16,1.16,0,0,0,214.92,273Z"/>
                  </g>
                </g>
                <g>
                  <path class="b022bbcc-837e-47d5-96f1-83de6fa286ec" d="M164.37,297.16c-12.44-3.09-8,7.3-3.44,12.46,4.81,5.49,10.27,4.93,12.29.88"/>
                  <path class="f7c894da-9311-433a-9105-60e08506b1dd" d="M162.15,307.46c2.7,2.72,6.08,3.64,6.75,2.4.76-1.4-3.83-1.85-4.27-5.41-.3-2.42-3.15-6.07-4.57-4.61S159,304.26,162.15,307.46Z"/>
                </g>
                <path class="f7c894da-9311-433a-9105-60e08506b1dd" d="M202.57,250.34a22,22,0,0,1-7.81,8.17c-6.45,3.6-11.52,3.92-18.9,2.6,4.33-2.33,9.93-6.85,11.15-9.87-4.38-1.22-8.24.19-12.72,1.08-.33.07-.28.63-.34,1-1.12,7-12.74,7.13-13.94,7.91,6.32.61,10,23.79,0,29.69-1.54.9-3.54-2.79-4.78-4.15a14.87,14.87,0,0,1-3.65-7.49,20.37,20.37,0,0,0-.68-3.66c-.45-1.22-1.27-2.29-1.67-3.52-.71-2.18,0-4.52.78-6.63a60.51,60.51,0,0,1,7.93-15.29A33,33,0,0,1,171,239.41a49.75,49.75,0,0,1,12.14-3.08c5.66-.91,11.46-1.67,17.13-.52a54.14,54.14,0,0,1,7,2.11,14.67,14.67,0,0,1,4.13,2,13.33,13.33,0,0,1,2.33,2.47c6,7.71,12,19,14.43,28.51-4-5.51-9.61-15.84-13.63-21.35-.82-1.11-9.12-5-9.9-4.27C204.2,245.64,203.1,249.44,202.57,250.34Z"/>
                <path class="b3bee3dd-f8ab-4396-9923-66fe4edf959b" d="M201,242.82s4.58,15.19-24.29,17.95c0,0,24.29-17.68-5.32-9.42,0,0,3.71,4.14-11.41,9.89a28.53,28.53,0,0,1,3,26.51s-1.83,1.88,1.38,8.67a31.21,31.21,0,0,1,2.26,3.69c1,2.22-3.74-.85-3.74-.85s-9.88,1.68-14-9.89c0,0-11.42-5.31-8.57-17.81,0,0-10.24-12.09,5.84-21.28,0,0-.72-15.57,9.9-18.69,0,0,11.09-16,26.91-7.9,0,0,10.45-7.87,22.8,2.57,0,0,12.62,1.62,13.13,11.58,0,0,10.36,1.78,4.88,11.61,0,0,8.81,3.3,2.38,11.85l2.07,9.88L216.2,248.83S215,245.24,201,242.82Z"/>
                <path class="b9eaa081-0c7e-452c-a326-e4a00d243c66" d="M207.33,259.07h0c.29-1.2,3.49-1.65,4.71-1.42,1.85.35,4,1,6,4.74.17.33.26.6,0,.38-1.82-1.3-5.6-3.1-9-2.51A1.44,1.44,0,0,1,207.33,259.07Z"/>
                <path class="b9eaa081-0c7e-452c-a326-e4a00d243c66" d="M187.58,265.1h0c-.83-.91-3.86.22-4.82,1-1.45,1.18-3,2.73-2.95,7,0,.37.06.65.22.31,1-2,3.4-5.39,6.63-6.47A1.43,1.43,0,0,0,187.58,265.1Z"/>
                <path class="fe616e41-d6b3-4756-b7c6-42d8f4c839a4" d="M213.18,287.52c3.26,4.24.07,6.76-4.34,7a1.79,1.79,0,0,1-1.43-.52,1.83,1.83,0,0,0,1.43.39c4.29-.49,7.22-2.46,4.34-6.83Z"/>
                <g>
                  <ellipse class="bbaba184-e2a5-4621-ac96-a082486ec264" cx="195.97" cy="302.23" rx="2.46" ry="1.4" transform="translate(-35.96 26.63) rotate(-7.12)"/>
                  <ellipse class="bbaba184-e2a5-4621-ac96-a082486ec264" cx="223.16" cy="295.39" rx="2.45" ry="1.4" transform="translate(-136.71 208.49) rotate(-39.35)"/>
                  <g>
                    <g>
                      <path class="bb563317-7419-4d66-b457-13fd1b51d2c2" d="M214.08,310.05c9.63-3.05,11-16.72,9.31-15.53-2.55,1.83.6.52-6.89,3.34-1.47.55-4.54,1.64-6.87,2.27a81.16,81.16,0,0,1-10.46,2.06c-1.48.17-2.86-.24-3.65.11C193.47,303.19,205.67,312.71,214.08,310.05Z"/>
                      <path class="bbe93678-dce1-4178-86cf-e134465a2801" d="M214.08,310.05a10.54,10.54,0,0,1-5.89.08,6.73,6.73,0,0,1,3.31-3.91c2.37-1.28,6.46-1.94,8.46-.43C219,307.7,215.85,309.44,214.08,310.05Z"/>
                      <path class="ed221c03-2568-48b4-878a-79e81e74ae9a" d="M197.18,302.26a49.29,49.29,0,0,0,26.21-7.74c-.81,2.72-4.48,7.44-10.46,9.49A19.54,19.54,0,0,1,197.18,302.26Z"/>
                    </g>
                    <path class="a5db1e46-2f83-4a41-8516-9cc9ec5de372" d="M195.56,302.24s-.05.06,0,.06c2.25.3,14.23,3.58,27.84-7.78C223.39,294.52,215.12,300.79,195.56,302.24Z"/>
                    <path class="a5db1e46-2f83-4a41-8516-9cc9ec5de372" d="M210.35,311.66a7,7,0,0,0,6.76-1.8A4.75,4.75,0,0,1,210.35,311.66Z"/>
                  </g>
                </g>
              </g>
              <path class="affcf535-763e-4e4a-ad8d-082c27cb4730" d="M212.24,344.48c-.47.22-1,.43-1.46.63-4,1.54-7.87,1.36-8.54-.4s2.94-2.43,7-4C214.61,342.12,215.68,344.49,212.24,344.48Z"/>
            </g>
            <g>
              <g>
                <path class="f1e171eb-d028-4fb8-a564-7b2a4e4f0efb" d="M322.76,115.46l0,.57a13.85,13.85,0,0,0,.12,1.46,8.34,8.34,0,0,0,.17.93,5.74,5.74,0,0,0,.33,1,3.66,3.66,0,0,0,.26.42l.36.44c.26.32.51.67.75,1a8.92,8.92,0,0,1,.62,1.14,4.78,4.78,0,0,1,.36,1.24,3.41,3.41,0,0,1,0,1.24,4.34,4.34,0,0,1-.38,1,7.55,7.55,0,0,1-.45.74c-.14.21-.28.39-.38.53s-.36.45-.36.45.06-.2.18-.54.31-.83.49-1.39a5.12,5.12,0,0,0,.17-.9,2.93,2.93,0,0,0-.09-1,4.5,4.5,0,0,0-.37-1c-.17-.33-.37-.67-.58-1s-.45-.64-.68-1-.24-.3-.38-.51a3.83,3.83,0,0,1-.3-.61,4.76,4.76,0,0,1-.26-1.17,7.5,7.5,0,0,1,.11-1.9,5.79,5.79,0,0,1,.15-.65A3.31,3.31,0,0,1,322.76,115.46Z"/>
                <path class="e8e8d0dc-f82d-433d-a164-e03129c35cf2" d="M322.83,115.52a6.27,6.27,0,0,0-.45.69,8.31,8.31,0,0,0-.41.84,5.08,5.08,0,0,0-.31,1.12,2.93,2.93,0,0,0,.78,2.54,5.5,5.5,0,0,0,1.27,1c.13.07.24.15.37.21l.41.2.81.42c.27.15.55.35.82.53s.5.4.74.6a8.69,8.69,0,0,1,.66.7l.28.38a3.22,3.22,0,0,1,.25.39,4.39,4.39,0,0,1,.39.82,3.31,3.31,0,0,1,.14.41c0,.14.07.28.1.42a3.2,3.2,0,0,1,.07.41c0,.14,0,.27,0,.4s0,.52,0,.76a6.45,6.45,0,0,1-.11.68,3.39,3.39,0,0,1-.18.59,3,3,0,0,1-.2.51,3.72,3.72,0,0,1-.2.4c-.07.12-.13.23-.19.32l-.16.22-.13.18a.11.11,0,0,1-.14,0,.11.11,0,0,1,0-.12h0l.09-.2c0-.06.06-.14.11-.23l.12-.32c.05-.12.08-.26.13-.41s.08-.31.11-.49a2.43,2.43,0,0,0,.08-.55,4.21,4.21,0,0,0,0-.62c0-.22,0-.44-.05-.67s0-.22-.07-.34a2.49,2.49,0,0,0-.08-.35l-.11-.34a2.63,2.63,0,0,0-.15-.35,2.7,2.7,0,0,0-.17-.34c-.06-.11-.13-.22-.2-.33a1.44,1.44,0,0,0-.23-.32l-.25-.32-.29-.29a4,4,0,0,0-.29-.29c-.23-.17-.44-.37-.67-.52s-.46-.31-.71-.46L324,123l-.4-.2c-.14-.07-.28-.16-.41-.24a5.93,5.93,0,0,1-1.46-1.22,3.63,3.63,0,0,1-.87-2.49A4.58,4.58,0,0,1,321,118a4.36,4.36,0,0,1,.51-1.21,5.75,5.75,0,0,1,.56-.82c.18-.21.33-.36.43-.47l.17-.15a.11.11,0,0,1,.14,0A.09.09,0,0,1,322.83,115.52Z"/>
                <path class="a3dd7480-9b64-47e7-b64c-fe27c2cc3b8d" d="M322.83,115.52l-.09.16a3.31,3.31,0,0,0-.18.5,3.13,3.13,0,0,0-.08.8,3.69,3.69,0,0,0,.22,1,4.49,4.49,0,0,0,.61,1.07,7.55,7.55,0,0,0,.94,1c.18.17.36.34.56.5l.62.5a6.79,6.79,0,0,1,1.23,1.28,4.7,4.7,0,0,1,.75,1.66,4.41,4.41,0,0,1,0,1.77,5.46,5.46,0,0,1-.53,1.52,6.61,6.61,0,0,1-.78,1.17,6.75,6.75,0,0,1-1.53,1.39,3.17,3.17,0,0,1-.7.37h0a.11.11,0,0,1-.12-.07.1.1,0,0,1,.05-.11L324,130a4.11,4.11,0,0,0,.41-.35,8.13,8.13,0,0,0,1.23-1.5,9,9,0,0,0,.59-1.12,5.66,5.66,0,0,0,.36-1.33,3.9,3.9,0,0,0-.09-1.4,4,4,0,0,0-.63-1.31,6,6,0,0,0-1-1.11,12.85,12.85,0,0,1-1.22-1.11,7.06,7.06,0,0,1-1-1.25,4.59,4.59,0,0,1-.57-1.32A3.46,3.46,0,0,1,322,117a2.84,2.84,0,0,1,.25-.9,3.17,3.17,0,0,1,.31-.51l.14-.16a.11.11,0,0,1,.14,0A.09.09,0,0,1,322.83,115.52Z"/>
                <g>
                  <path class="f1e171eb-d028-4fb8-a564-7b2a4e4f0efb" d="M404,89.45a3.48,3.48,0,0,1,.46.33,5.84,5.84,0,0,1,.5.44,6.29,6.29,0,0,1,.59.64,6,6,0,0,1,.6.85,4.31,4.31,0,0,1,.47,1.11,2.85,2.85,0,0,1,.11.66c0,.25,0,.43,0,.63,0,.39,0,.79,0,1.18a8.48,8.48,0,0,0,.1,1.15,4.57,4.57,0,0,0,.28,1,3,3,0,0,0,.49.84,4.4,4.4,0,0,0,.67.63c.47.36.9.65,1.2.86s.46.33.46.33l-.55-.16-.62-.21a7,7,0,0,1-.8-.34,4.35,4.35,0,0,1-.89-.6,3.23,3.23,0,0,1-.75-1,4.43,4.43,0,0,1-.43-1.22,8.14,8.14,0,0,1-.16-1.28c0-.43,0-.85,0-1.27l0-.56a2.11,2.11,0,0,0,0-.5,4.68,4.68,0,0,0-.28-1,8.57,8.57,0,0,0-.4-.86c-.29-.53-.56-1-.76-1.26Z"/>
                  <path class="e8e8d0dc-f82d-433d-a164-e03129c35cf2" d="M404,89.35l.22,0a5.38,5.38,0,0,1,.62.13,6.34,6.34,0,0,1,.94.33,4.86,4.86,0,0,1,1.12.7,3.36,3.36,0,0,1,1,1.28,3.61,3.61,0,0,1,.3,1.8,5.94,5.94,0,0,1-.47,1.84c-.07.14-.13.29-.2.43l-.21.4-.4.82c-.13.27-.21.52-.32.78s-.16.55-.24.82,0,.27-.07.4-.05.27-.07.41,0,.27,0,.4,0,.27,0,.4l0,.38c0,.13.05.26.07.38a2.45,2.45,0,0,0,.08.37l.11.34a1.62,1.62,0,0,0,.13.33l.15.32c.12.19.22.4.35.57a4.72,4.72,0,0,0,.38.48,5.16,5.16,0,0,0,.39.41l.38.33a3.25,3.25,0,0,0,.34.25l.29.2.22.12.19.11h0a.1.1,0,0,1-.08.18L409,105l-.26-.08-.33-.15a4,4,0,0,1-.41-.21,3.51,3.51,0,0,1-.45-.3,5,5,0,0,1-.49-.38,3.73,3.73,0,0,1-.48-.49,7.35,7.35,0,0,1-.47-.6l-.2-.35a2.53,2.53,0,0,1-.18-.37l-.17-.4a6.68,6.68,0,0,1-.28-1.31,2.36,2.36,0,0,1,0-.46v-.48c0-.31.07-.63.13-.94s.15-.62.25-.93.23-.62.36-.9l.41-.81.22-.41c.07-.12.12-.25.18-.38a5.68,5.68,0,0,0,.46-1.53,3,3,0,0,0-.13-1.42,3.07,3.07,0,0,0-.71-1.1,4.62,4.62,0,0,0-.91-.74,8.63,8.63,0,0,0-.82-.44,7.6,7.6,0,0,0-.76-.3.1.1,0,0,1-.07-.12A.12.12,0,0,1,404,89.35Z"/>
                  <path class="a3dd7480-9b64-47e7-b64c-fe27c2cc3b8d" d="M404,89.35l.21.05a2.61,2.61,0,0,1,.55.23,2.82,2.82,0,0,1,.73.59,3.45,3.45,0,0,1,.63,1,4.48,4.48,0,0,1,.31,1.4,6.93,6.93,0,0,1-.06,1.57,12.1,12.1,0,0,1-.34,1.61,5.89,5.89,0,0,0-.2,1.5,3.78,3.78,0,0,0,.26,1.43,3.89,3.89,0,0,0,.74,1.2,5.77,5.77,0,0,0,1.06.87,8.08,8.08,0,0,0,1.14.57,8.76,8.76,0,0,0,1.87.51,4.26,4.26,0,0,0,.54,0,.94.94,0,0,0,.19,0,.09.09,0,0,1,.1.09.1.1,0,0,1-.06.1h0a2.88,2.88,0,0,1-.78.12,6.84,6.84,0,0,1-2.06-.25,6.7,6.7,0,0,1-1.31-.5,5.39,5.39,0,0,1-1.32-.93,4.62,4.62,0,0,1-1-1.46,5,5,0,0,1-.35-1.78,6.8,6.8,0,0,1,.25-1.76c.08-.26.15-.51.22-.76s.12-.5.17-.74a8.91,8.91,0,0,0,.15-1.4,4.38,4.38,0,0,0-.14-1.23,3.1,3.1,0,0,0-.4-.94,3,3,0,0,0-.53-.61,3.48,3.48,0,0,0-.44-.3l-.17-.08a.09.09,0,0,1-.05-.12A.1.1,0,0,1,404,89.35Z"/>
                </g>
                <path class="aeacaec7-c781-486d-9956-56c0cdb7ef07" d="M388.38,195.33v-.16c0-.1,0-.26,0-.46,0-.42.06-1,.17-1.78a19.2,19.2,0,0,1,.63-2.71,30.71,30.71,0,0,1,1.23-3.36c.5-1.21,1.12-2.48,1.72-3.82a30.22,30.22,0,0,0,1.63-4.2,11.28,11.28,0,0,0,.4-2.21,8.22,8.22,0,0,0,0-1.11,6.76,6.76,0,0,0-.18-1.08,8.68,8.68,0,0,0-2.36-3.89,22.11,22.11,0,0,0-3.86-3l-.54-.35-.55-.36c-.36-.26-.71-.51-1.05-.78a20.89,20.89,0,0,1-1.9-1.72,19.51,19.51,0,0,1-2.93-3.83,21,21,0,0,1-1.79-3.91,22.18,22.18,0,0,1-.87-3.49,21.34,21.34,0,0,1-.29-2.75c0-.76,0-1.36,0-1.77,0-.21,0-.37,0-.47v-.17a.21.21,0,0,1,.22-.17.19.19,0,0,1,.17.19h0v.15c0,.1,0,.26,0,.46,0,.39.07,1,.18,1.71a24.34,24.34,0,0,0,.51,2.63,22.34,22.34,0,0,0,1.09,3.27,20.34,20.34,0,0,0,1.9,3.57,19.37,19.37,0,0,0,2.88,3.42,19,19,0,0,0,1.81,1.5c.32.23.65.47,1,.69l.5.32.54.32a22,22,0,0,1,4.31,3.19,11.68,11.68,0,0,1,1.76,2.17,8,8,0,0,1,.67,1.26,9.46,9.46,0,0,1,.46,1.36,8.56,8.56,0,0,1,.22,1.42,10.72,10.72,0,0,1,0,1.39,11.36,11.36,0,0,1-.2,1.34,10.29,10.29,0,0,1-.34,1.27,27,27,0,0,1-1.92,4.4l-2,3.67c-.6,1.13-1.09,2.19-1.49,3.13a24.4,24.4,0,0,0-.91,2.51c-.2.71-.33,1.28-.41,1.67l-.11.61a.2.2,0,0,1-.23.15A.19.19,0,0,1,388.38,195.33Z"/>
                <path class="fe4614fa-9256-4a79-bbce-14a4367d3ae2" d="M378.47,147.35s0,.22-.09.64-.13,1-.19,1.83-.12,1.74-.13,2.84,0,2.33.17,3.66a26.21,26.21,0,0,0,.74,4.22c.2.73.42,1.47.7,2.2a17,17,0,0,0,1,2.18A15.11,15.11,0,0,0,382,167c.24.34.51.67.77,1l.22.25.21.23.44.45a20.08,20.08,0,0,0,4.14,3.1c1.53.9,3.17,1.69,4.77,2.57a27,27,0,0,1,4.52,3,19,19,0,0,1,3.41,3.84,22.36,22.36,0,0,1,2.11,4,29.64,29.64,0,0,1,1.19,3.61c.3,1.09.48,2,.63,2.84.08.39.14.75.18,1.06s.09.57.12.78c.05.43.08.65.08.65a.19.19,0,0,1-.16.22.21.21,0,0,1-.22-.14h0s-.05-.22-.16-.63-.27-1-.5-1.78-.51-1.68-.88-2.71a31.56,31.56,0,0,0-1.41-3.38,22.43,22.43,0,0,0-2.22-3.67,17.61,17.61,0,0,0-3.27-3.37,25.48,25.48,0,0,0-4.32-2.7c-1.56-.82-3.23-1.6-4.86-2.53a24.23,24.23,0,0,1-2.38-1.55,18.35,18.35,0,0,1-2.17-1.86l-.5-.52-.24-.27-.22-.25c-.31-.37-.59-.73-.86-1.12a17.3,17.3,0,0,1-1.41-2.36,20.57,20.57,0,0,1-1.66-4.86,26.79,26.79,0,0,1-.5-4.52,29.65,29.65,0,0,1,.17-3.8,27.59,27.59,0,0,1,.46-2.89c.16-.79.33-1.4.45-1.82s.19-.64.19-.64a.19.19,0,0,1,.25-.11A.2.2,0,0,1,378.47,147.35Z"/>
                <path class="f1e171eb-d028-4fb8-a564-7b2a4e4f0efb" d="M378.1,147v0l0,.13c0,.11.05.28.1.5a10.76,10.76,0,0,0,.64,1.84,13.49,13.49,0,0,0,1.53,2.6,17,17,0,0,0,2.68,2.82,23.51,23.51,0,0,0,3.83,2.6c.71.39,1.51.76,2.33,1.27a13,13,0,0,1,2.3,1.76,10.6,10.6,0,0,1,1.9,2.42,9.08,9.08,0,0,1,1.06,3,12.06,12.06,0,0,1,.12,3.17,19.18,19.18,0,0,1-.53,3.06c-.5,2-1.18,3.86-1.77,5.69-.29.91-.57,1.8-.78,2.69a12.38,12.38,0,0,0-.25,1.3c0,.22,0,.43-.07.64v.08h0v1.25c0,.21,0,.42,0,.64l0,.63c0,.21,0,.42.07.63a10.36,10.36,0,0,0,.58,2.35,9.3,9.3,0,0,0,2.51,3.59,18.74,18.74,0,0,0,3.22,2.21c1,.58,2,1.05,2.75,1.45s1.36.73,1.77,1l.62.36a.2.2,0,0,1-.18.35h0l-.65-.28c-.42-.18-1.06-.43-1.86-.75s-1.78-.69-2.9-1.2a17.64,17.64,0,0,1-3.6-2.1,11,11,0,0,1-1.76-1.72,9.59,9.59,0,0,1-1.37-2.28,12.52,12.52,0,0,1-.81-2.67c0-.24-.07-.47-.11-.71s0-.47-.07-.71,0-.49,0-.73v-1.45c0-.25,0-.51,0-.76.06-.5.14-1,.24-1.49a27.54,27.54,0,0,1,.77-2.87c.59-1.87,1.24-3.72,1.69-5.57a13.75,13.75,0,0,0,.43-5.44,8.38,8.38,0,0,0-.81-2.43,8.84,8.84,0,0,0-1.51-2,13.13,13.13,0,0,0-2-1.6c-.68-.47-1.45-.88-2.2-1.34s-1.45-.93-2.11-1.43a20,20,0,0,1-1.8-1.57,15.79,15.79,0,0,1-1.49-1.61,16.84,16.84,0,0,1-1.15-1.62,13,13,0,0,1-1.36-2.91,10.34,10.34,0,0,1-.44-2,5.82,5.82,0,0,1,0-.74.21.21,0,0,1,.21-.19.2.2,0,0,1,.18.17Z"/>
                <rect class="b90d6026-7fb4-47e8-8da0-d3b7a3523d69" x="332.83" y="71.78" width="61.25" height="61.28" transform="translate(106.01 378.68) rotate(-62.76)"/>
                <g class="e4207aa6-697e-4023-bf68-8de1799ddb4f">
                  <path class="b89fb6d4-93cc-4ac0-98ac-c4f460b294c7" d="M371.44,77.38a33.94,33.94,0,0,1-5.62,31.34l-.49.61a34.09,34.09,0,0,1-32.39,11.85l-10.76-5.53,28-54.46,18.15,9.33A34.55,34.55,0,0,1,371.44,77.38Z"/>
                </g>
                <g class="b381b228-c925-415f-b6bd-34aad088298b">
                  <path class="a5586455-f3ad-4a9d-9977-10d76ec6edac" d="M363.82,102.45q1,3.15,2,6.27l2.85,8.94c1.53,4.86,3,9.39,4.19,13.28l2.93,9.4c.47,1.54.81,2.63,1,3.17l.12.4-.21.07-.14-.4-1.05-3.14c-.74-2.26-1.81-5.49-3.09-9.36s-2.74-8.39-4.32-13.23c-.89-2.76-1.82-5.62-2.75-8.52-.72-2.21-1.43-4.44-2.16-6.67-1.65-5.18-3.3-10.36-4.85-15.21s-3-9.4-4.19-13.28-2.22-7.14-2.93-9.41l-1.05-3.42.07-.15.14.08,1.14,3.4c.74,2.26,1.81,5.48,3.09,9.35s2.74,8.4,4.32,13.24Z"/>
                  <path class="b86e164c-bcd8-495a-9132-b250fc3f873c" d="M404.73,89.2l-.38.75a78,78,0,0,0-81.4,26.1l-.77-.4,1.55-3a80.13,80.13,0,0,1,77.87-25Z"/>
                </g>
                <polygon class="b90d6026-7fb4-47e8-8da0-d3b7a3523d69" points="370.87 151.42 376.42 142.72 386 146.57 370.87 151.42"/>
              </g>
              <path class="a1eedc93-31da-43e7-a928-f6c40856dfa4" d="M360.54,93.11s16.85,154.11-82,214.43"/>
              <path class="a1eedc93-31da-43e7-a928-f6c40856dfa4" d="M286.24,324.1s20.83,66.29,2.67,37.59c-6.29-9.94-13.57-.75-13.57-.75"/>
              <path class="a1eedc93-31da-43e7-a928-f6c40856dfa4" d="M266.6,374.27s-13.79,43,4.91,82.27c8.31,17.45-4.32,59-36.55,55s-82.31,2.32-82.31,2.32"/>
            </g>
          </g>
          <g>
            <path class="e01fd615-a913-451d-9264-e1554dff34ef" d="M399.31,344.12l-6.45.53a67.73,67.73,0,0,0-11.17-6.44c-7.42-3.54-18.57-8.26-21.36-13.73l-5.8,8a28.73,28.73,0,0,0,4.8,5.44c6.82,5.94,19.64,16.09,30.1,18.45,0,0,6.87,3.65,18.37-.86"/>
            <g>
              <path class="e01fd615-a913-451d-9264-e1554dff34ef" d="M355.39,333.67c-7.53-.22-12.38-3.3-17.32-6.84s-2.58-4.4-2.58-4.4l-1.83-1.5c-3.65-2.79-2.25-4.19-2.25-4.19-1.29-2.9.64-2.58.64-2.58-1.83-3.32.54-2.57.54-2.57,2.36,2.36,9.24,5.79,12.68,7.51s9,.86,9,.86,5.05,1,5.83,5.86"/>
              <path class="e01fd615-a913-451d-9264-e1554dff34ef" d="M331.73,313.3a31.42,31.42,0,0,0,12.47,8.16"/>
              <path class="e01fd615-a913-451d-9264-e1554dff34ef" d="M331.33,316.45s3.52,4.16,12.11,7.59"/>
              <path class="e01fd615-a913-451d-9264-e1554dff34ef" d="M335,322.08a29.07,29.07,0,0,0,7.66,3.87"/>
              <path class="e01fd615-a913-451d-9264-e1554dff34ef" d="M360.53,326.4a12.64,12.64,0,0,0-3.55-8.16c-3.65-4-8.49-5.9-10.31-9.12,0,0-3,1,2.68,7.62,0,0,2.37,1.61,2.37,3.76s-.43,4,2.15,6.87"/>
              <path class="e01fd615-a913-451d-9264-e1554dff34ef" d="M346.08,319.5s-4.19,2.9-2.91,9.59"/>
            </g>
            <path class="ec47cd58-e7c3-4fdb-af66-6fef6ed03119" d="M423.81,342.08l-27.18,1.61s3.11,1.5,4.19,7.3.11,8.31.11,8.31l19.88-3.59"/>
            <g>
              <g>
                <g>
                  <path class="ae57755c-d3af-4599-8ab1-768e2338ec64" d="M436.78,247.18c-.39-4.67-4-8.68,3.12-8.2s13.53,9.32,13.53,9.32-5,8.07-12.11,7.59S437.17,251.85,436.78,247.18Z"/>
                  <path class="ae57755c-d3af-4599-8ab1-768e2338ec64" d="M470.37,249.44c-.4-4.67,2.54-8.24-4.54-8.71s-12.11,7.59-12.11,7.59,6.45,8.84,13.53,9.32S470.76,254.11,470.37,249.44Z"/>
                </g>
                <ellipse class="e29e7a51-bd49-42d6-b0eb-327b97b8ccdb" cx="465.78" cy="254.13" rx="0.95" ry="1.12" transform="translate(-2.88 502.9) rotate(-56.58)"/>
                <ellipse class="e29e7a51-bd49-42d6-b0eb-327b97b8ccdb" cx="461.32" cy="252.24" rx="0.95" ry="1.12" transform="translate(-3.31 498.33) rotate(-56.58)"/>
                <ellipse class="e29e7a51-bd49-42d6-b0eb-327b97b8ccdb" cx="465.27" cy="248.1" rx="0.95" ry="1.12" transform="translate(1.92 499.76) rotate(-56.58)"/>
                <path class="e29e7a51-bd49-42d6-b0eb-327b97b8ccdb" d="M459.75,245.73a.87.87,0,0,1,1-.94,1.26,1.26,0,0,1,1.15,1.08.86.86,0,0,1-1,.93A1.25,1.25,0,0,1,459.75,245.73Z"/>
                <ellipse class="e29e7a51-bd49-42d6-b0eb-327b97b8ccdb" cx="464.93" cy="244.08" rx="0.95" ry="1.12" transform="translate(5.12 497.68) rotate(-56.58)"/>
                <path class="e29e7a51-bd49-42d6-b0eb-327b97b8ccdb" d="M458.11,251.61a1.24,1.24,0,0,0-1.15-1.07.94.94,0,0,0-.75.26c.46.49,1,1,1.56,1.57A.83.83,0,0,0,458.11,251.61Z"/>
                <path class="e29e7a51-bd49-42d6-b0eb-327b97b8ccdb" d="M461.58,254.85a1,1,0,0,0-.55.11,19.39,19.39,0,0,0,1.7,1s0,0,0,0A1.25,1.25,0,0,0,461.58,254.85Z"/>
                <path class="e29e7a51-bd49-42d6-b0eb-327b97b8ccdb" d="M461.55,241.85h0a13,13,0,0,0-1.54.76,1.23,1.23,0,0,0,.56.18A.86.86,0,0,0,461.55,241.85Z"/>
                <path class="e29e7a51-bd49-42d6-b0eb-327b97b8ccdb" d="M456.62,246.52a.88.88,0,0,0,1-.94,1.2,1.2,0,0,0-.46-.8,18.4,18.4,0,0,0-1.32,1.38A1.29,1.29,0,0,0,456.62,246.52Z"/>
                <path class="e29e7a51-bd49-42d6-b0eb-327b97b8ccdb" d="M468.82,252.33a1.26,1.26,0,0,0,1.16,1.08.91.91,0,0,0,.79-.32c-.12-.47-.27-1-.4-1.5a1.25,1.25,0,0,0-.56-.19A.88.88,0,0,0,468.82,252.33Z"/>
                <path class="e29e7a51-bd49-42d6-b0eb-327b97b8ccdb" d="M470.15,255.42a.87.87,0,0,0-1,.93,1.18,1.18,0,0,0,.43.78,1.77,1.77,0,0,0,1.5-1.17A1.29,1.29,0,0,0,470.15,255.42Z"/>
                <path class="e29e7a51-bd49-42d6-b0eb-327b97b8ccdb" d="M469.3,245.37a.86.86,0,0,0-1,.93,1.24,1.24,0,0,0,1.15,1.08,1.09,1.09,0,0,0,.55-.11c0-.51.1-1,.15-1.47A1.3,1.3,0,0,0,469.3,245.37Z"/>
                <path class="e29e7a51-bd49-42d6-b0eb-327b97b8ccdb" d="M468,242.28a1.25,1.25,0,0,0,1.15,1.08.93.93,0,0,0,.87-.4,2.77,2.77,0,0,0-1.74-1.39A.8.8,0,0,0,468,242.28Z"/>
                <ellipse class="e29e7a51-bd49-42d6-b0eb-327b97b8ccdb" cx="442.22" cy="252.54" rx="0.95" ry="1.12" transform="translate(-12.14 482.52) rotate(-56.58)"/>
                <ellipse class="e29e7a51-bd49-42d6-b0eb-327b97b8ccdb" cx="446.34" cy="250.82" rx="0.95" ry="1.12" transform="translate(-8.86 485.18) rotate(-56.58)"/>
                <ellipse class="e29e7a51-bd49-42d6-b0eb-327b97b8ccdb" cx="441.71" cy="246.51" rx="0.95" ry="1.12" transform="translate(-7.34 479.39) rotate(-56.58)"/>
                <path class="e29e7a51-bd49-42d6-b0eb-327b97b8ccdb" d="M446.9,244.86a1.26,1.26,0,0,0-1.16-1.08.87.87,0,0,0-1,.94,1.23,1.23,0,0,0,1.15,1.07A.87.87,0,0,0,446.9,244.86Z"/>
                <ellipse class="e29e7a51-bd49-42d6-b0eb-327b97b8ccdb" cx="441.38" cy="242.49" rx="0.95" ry="1.12" transform="translate(-4.13 477.3) rotate(-56.58)"/>
                <path class="e29e7a51-bd49-42d6-b0eb-327b97b8ccdb" d="M449.55,251a.87.87,0,0,1,1-.94,1.28,1.28,0,0,1,.81.38c-.38.43-.82.9-1.32,1.37A1.18,1.18,0,0,1,449.55,251Z"/>
                <path class="e29e7a51-bd49-42d6-b0eb-327b97b8ccdb" d="M446.59,253.84a1.21,1.21,0,0,1,.58.19,14.18,14.18,0,0,1-1.56.78s0,0,0,0A.87.87,0,0,1,446.59,253.84Z"/>
                <path class="e29e7a51-bd49-42d6-b0eb-327b97b8ccdb" d="M444.42,240.7v0a19.12,19.12,0,0,1,1.69,1,1,1,0,0,1-.53.1A1.25,1.25,0,0,1,444.42,240.7Z"/>
                <path class="e29e7a51-bd49-42d6-b0eb-327b97b8ccdb" d="M450.2,246.08A1.26,1.26,0,0,1,449,245a.85.85,0,0,1,.33-.75c.58.54,1.11,1.08,1.57,1.57A1,1,0,0,1,450.2,246.08Z"/>
                <path class="e29e7a51-bd49-42d6-b0eb-327b97b8ccdb" d="M438.84,250.32a.87.87,0,0,1-1,.93,1.3,1.3,0,0,1-.86-.43c.05-.47.11-1,.15-1.47a1.07,1.07,0,0,1,.54-.11A1.26,1.26,0,0,1,438.84,250.32Z"/>
                <path class="e29e7a51-bd49-42d6-b0eb-327b97b8ccdb" d="M438,253.26a1.26,1.26,0,0,1,1.16,1.08.85.85,0,0,1-.3.72,2.61,2.61,0,0,1-1.72-1.39A.89.89,0,0,1,438,253.26Z"/>
                <path class="e29e7a51-bd49-42d6-b0eb-327b97b8ccdb" d="M437.18,243.21a1.24,1.24,0,0,1,1.15,1.08.86.86,0,0,1-1,.93,1.25,1.25,0,0,1-.57-.19c-.13-.52-.27-1-.4-1.5A.92.92,0,0,1,437.18,243.21Z"/>
                <path class="e29e7a51-bd49-42d6-b0eb-327b97b8ccdb" d="M438,240.26a.87.87,0,0,1-1,.94,1.31,1.31,0,0,1-.94-.53,1.79,1.79,0,0,1,1.52-1.16A1.12,1.12,0,0,1,438,240.26Z"/>
              </g>
              <g>
                <g>
                  <g>
                    <path class="ae853c47-1ca7-4a58-b498-3a964c25e8f9" d="M465.07,251.07c.29-1.76-7.09-2-7.09-2S464.78,252.84,465.07,251.07Z"/>
                    <path class="ae853c47-1ca7-4a58-b498-3a964c25e8f9" d="M463.15,246.76c-.46-1.22-5.56,1.13-5.56,1.13S463.61,248,463.15,246.76Z"/>
                  </g>
                  <g>
                    <path class="ae853c47-1ca7-4a58-b498-3a964c25e8f9" d="M442.42,249.55c-.59-1.83,6.84-1,6.84-1S443,251.38,442.42,249.55Z"/>
                    <path class="ae853c47-1ca7-4a58-b498-3a964c25e8f9" d="M443.63,245.44c.26-1.17,5.82,1.9,5.82,1.9S443.37,246.61,443.63,245.44Z"/>
                  </g>
                </g>
                <path class="a4aebb11-8bc3-4538-b112-d4376b08e59b" d="M456.69,247.31a2.23,2.23,0,0,0-2.05-1.92l-2.63-.17a1.54,1.54,0,0,0-1.75,1.65l.21,2.47a2.22,2.22,0,0,0,2,1.91l2.62.18a1.54,1.54,0,0,0,1.75-1.66Z"/>
              </g>
            </g>
            <g>
              <path class="a7cf3a69-0248-479f-bc4f-06c0fa7fd4c8" d="M420.27,314.26s-8.95,14.36,0,20.64c3.53,2.47,12.6,1.27,13.48-1.06s5.16-7.25,5-9.27S420.27,314.26,420.27,314.26Z"/>
              <g id="ac59d5c8-5415-4e7e-91a2-8acb00060fce" data-name="face">
                <path class="a23f7cca-ecc8-4b1c-bc2e-acc7611770b9" d="M434.8,325l-3.44,8.8L430,339s12.56,3.72,17.48-3.93l2.87-12.25Z"/>
                <path class="a9462eae-a5d1-49a6-bccd-eb686a13d7d9" d="M432.74,331.07S446.1,332.2,448.1,330l1.08-3.75-14.52-.46Z"/>
                <path class="e01fd615-a913-451d-9264-e1554dff34ef" d="M443,260.34a24.77,24.77,0,0,0-17.24,15.42c-.49,1.29-.82,3.65-1.67,4.9-6.07,8.88-13.73,21.79-2.11,40.43,7.4,11.87,22.78,10.64,32.7,8.44a23.07,23.07,0,0,0,16.21-13.12s11.74,3,7-1.93-2.39.33-2.39.33l.3-2.31s-7.26-13-7.5-33.25c0,0-4.54-16.1-4-20.54a29.5,29.5,0,0,0-14.13,0C447.89,259.26,445.45,259.75,443,260.34Z"/>
              </g>
              <path class="a9462eae-a5d1-49a6-bccd-eb686a13d7d9" d="M452.15,260.13s-10.34,16.76,15.16,23.13c0,0-16.21-11.24-13.5-23.14"/>
              <path class="bf709a31-8a0e-4e9a-9e6e-1fcc855e07fd" d="M466.25,256.53s-5-1.48.72,17.76l1.32,5a88.56,88.56,0,0,0,.84,11c.77,4.48,3,16.33,6.66,22.21l-.3,2.31s4.08-5,8.43-1.82-3.66.72-7.86,4.47c-3.08,2.77-4.66,15.75-8.89,4.91,0,0-8.07,7.09-14.88,7.47l-4.13.51-.86,2.86s1.07,5.81,5.63,14.16c0,0,14.26,25.93,37.05,6.12,2.7-2.35,32.23-81.61.56-96.12,0,0-12-8.74-24.85-9.16s-16.9-7.24-31.63,3.54c0,0-14.95,13.9-10.75,28.45l7.12-12.26s7.06-7.3,22-9.74c0,0,9.15-.75,11.94.51C464.33,258.71,464.79,256.34,466.25,256.53Z"/>
              <path class="e474f7c6-07f4-49df-b00e-74759a4f32d9" d="M466,248.24s17.2,3.55,22.26,14.68c5.23,11.53,3.42,22.16-6.4,49.72l1.88,2.6s28.5-49.17-4-63.72A55.11,55.11,0,0,0,466,248.24Z"/>
              <path class="bf709a31-8a0e-4e9a-9e6e-1fcc855e07fd" d="M455.06,258.05s-12.9,21.2,17.27,25.87a25.46,25.46,0,0,1-8-25.21,43.4,43.4,0,0,0-5-.72"/>
            </g>
            <g>
              <g>
                <g>
                  <path class="e01fd615-a913-451d-9264-e1554dff34ef" d="M474.77,310c3.64-2.27,6.26-1.69,8.12-.3,2.42,1.8,2.42,4.95-.3,9s-4.79,5.77-9.34,6.66-6.92,1.28-9.14-2.81"/>
                  <path class="b59c4227-cb9b-45a3-b32a-6528052e8e53" d="M465.74,321.51a2.17,2.17,0,0,0,1.36.55,8.27,8.27,0,0,0,1.49.07,4.72,4.72,0,0,0,2.83-1.09,4.6,4.6,0,0,0,1.53-2.62,4.48,4.48,0,0,0,0-1.75c.34-.21.69-.4,1-.59a29,29,0,0,1,2.84-1.31,6.4,6.4,0,0,1,2.93-.7,1.82,1.82,0,0,1,1.24.69,1.38,1.38,0,0,1,.24,1.43,1.39,1.39,0,0,0-.05-1.56,2,2,0,0,0-1.37-.94,5.94,5.94,0,0,0-3.18.61,18.08,18.08,0,0,0-2.84,1.45c-.31.19-.61.4-.91.61l-.15.11c0,.1,0,.21,0,.31a5,5,0,0,1-.16,1.55,4.52,4.52,0,0,1-1.49,2.32,4.71,4.71,0,0,1-2.53,1.1,11.39,11.39,0,0,1-1.44.07A2.29,2.29,0,0,1,465.74,321.51Zm8.24.91a30.3,30.3,0,0,1-3.18.26,14.43,14.43,0,0,0,3.22.12,6.21,6.21,0,0,0,3.11-1.07,5.78,5.78,0,0,0,1.93-2.68,13.09,13.09,0,0,0,.69-3.19,24.73,24.73,0,0,1-1.05,3,5.89,5.89,0,0,1-1.86,2.42A6.53,6.53,0,0,1,474,322.42Z"/>
                </g>
                <path class="afbafb94-9909-487b-bd1e-db59b9e78a29" d="M469.79,323.46s-5.77,4.39-2.86,7.16,5.19-4.29,5.19-4.29-3.71,5-3,1.08Z"/>
              </g>
              <g>
                <ellipse class="a2cc1619-a5cd-40e6-bf14-e0c435643702" cx="432.61" cy="283.94" rx="6.88" ry="6.27" transform="translate(97.95 678.63) rotate(-82.98)"/>
                <ellipse class="b4566f96-79c6-416e-8949-ebec3f0cb36c" cx="431.95" cy="282.5" rx="3.95" ry="3.83" transform="translate(104.26 681.26) rotate(-83.77)"/>
                <ellipse class="a7196bd3-aaff-40ac-ad4a-3fde5e214c27" cx="433.43" cy="279.36" rx="0.81" ry="0.78" transform="translate(108.71 679.93) rotate(-83.77)"/>
              </g>
              <g>
                <ellipse class="a2cc1619-a5cd-40e6-bf14-e0c435643702" cx="453.61" cy="295.18" rx="6.88" ry="6.67" transform="translate(110.97 714.1) rotate(-83.77)"/>
                <ellipse class="b4566f96-79c6-416e-8949-ebec3f0cb36c" cx="452.41" cy="293.86" rx="4.35" ry="4.21" transform="translate(111.22 711.73) rotate(-83.77)"/>
                <ellipse class="a7196bd3-aaff-40ac-ad4a-3fde5e214c27" cx="454.04" cy="290.54" rx="0.81" ry="0.78" transform="translate(115.97 710.39) rotate(-83.77)"/>
              </g>
              <path class="e34d8f8d-2be1-48d3-8c96-633f7cd925cf" d="M440.59,273a8.06,8.06,0,0,0-9.75-.29s.38-2.91,5.82-3.35C436.66,269.34,440.48,269.43,440.59,273Z"/>
              <path class="e34d8f8d-2be1-48d3-8c96-633f7cd925cf" d="M457.92,282.31a7.51,7.51,0,0,1,6.52,7s2-2.35-1.17-6.69C463.27,282.65,460.74,279.88,457.92,282.31Z"/>
              <path class="a52c4b92-1f2d-4441-b53e-d1190fb33283" d="M444.69,309.06s-8.07,7-14.39,5.39c-8.56-2.24-5-13.71-5-13.71l7.63,5.62Z"/>
              <path class="b29e6194-ebca-414c-9628-2351b23b4f55" d="M444.69,309.06s-8.39,5.49-15,2.66c-4.73-2-4.25-11.46-4.25-11.46S431.51,308.33,444.69,309.06Z"/>
              <path class="e01fd615-a913-451d-9264-e1554dff34ef" d="M438.34,288.49s-.77,3.12-5.26,4.51-3.41,7.36,3.34,6.51"/>
              <path class="a7196bd3-aaff-40ac-ad4a-3fde5e214c27" d="M427,302.12h0c-.59,2.17-.07,4.8,3.63,6.61,3,1.47,8.87,2.77,12.27.67,1-.6-.52-.35-.52-.35s-11.89-2.51-14.93-6.63"/>
              <path class="a52c4b92-1f2d-4441-b53e-d1190fb33283" d="M444,309.18s-15-3.2-19.62-10.87C424.4,298.31,426.73,308.78,444,309.18Z"/>
              <path class="a9462eae-a5d1-49a6-bccd-eb686a13d7d9" d="M445.1,307.46s3,1.15.39,3.65C445.49,311.11,446.8,309.54,445.1,307.46Z"/>
              <path class="a9462eae-a5d1-49a6-bccd-eb686a13d7d9" d="M425.69,297.57s-1.69.36-1.32,3.21C424.37,300.78,422.72,297.68,425.69,297.57Z"/>
              <path class="a9462eae-a5d1-49a6-bccd-eb686a13d7d9" d="M435.23,312.45s-.58-1.81-3.8-2.23a4.74,4.74,0,0,0-4.47-1.58S427.85,313.13,435.23,312.45Z"/>
            </g>
            <g>
              <path class="a23f7cca-ecc8-4b1c-bc2e-acc7611770b9" d="M407.87,455.34s7.05,32.39,8.91,35.21,9.73,6.57,15,5.94c0,0-3.81-33.27-6.07-38.54S407.87,455.34,407.87,455.34Z"/>
              <path class="a23f7cca-ecc8-4b1c-bc2e-acc7611770b9" d="M431.76,459.14s6.8,29,7.88,33.19,13.44,6.32,18.08,4.93c0,0-7.54-35.18-9.74-39S431.76,459.14,431.76,459.14Z"/>
              <path class="a9462eae-a5d1-49a6-bccd-eb686a13d7d9" d="M432,459.69s6.42,1.52,8.6,1.9a29.52,29.52,0,0,0,9,.27s-.41-2.6-1.1-3.11c-1-.72-17.23-2.31-17.23-2.31Z"/>
              <path class="a9462eae-a5d1-49a6-bccd-eb686a13d7d9" d="M408.64,457.92s6.42,1.52,8.6,1.9a29.52,29.52,0,0,0,9,.27s-.41-2.6-1.1-3.11c-1-.72-17.23-2.31-17.23-2.31Z"/>
            </g>
            <path class="acd4179e-07c3-47de-8d17-552ce7d99dbf" d="M396.54,397.41l-26,39.76s-1.34,13.18,51.29,20.79,49.93-19.75,49.93-19.75-23.62-24.85-24.75-33.08c0,0-43.62-1.34-50.52-7.72"/>
            <path class="ec47cd58-e7c3-4fdb-af66-6fef6ed03119" d="M431.82,332.19l-3.11.45a27.19,27.19,0,0,0-16.57,9.88l-.1.13.71,1.57-5.4,9.36s-7.55,14.73-12.05,42.9c0,0,13.34,10.57,52.27,4.71,0,0,5.67-18.6,6.75-22.76s11-32.72-3.4-43.22l-3.09-1.87s0,6.52-11,6.52c-8.46,0-6.05-5.26-6.05-5.26Z"/>
            <line class="ec8b3e9b-b421-4cb7-babc-c2ca0bd636ab" x1="407.35" y1="353.58" x2="420.33" y2="349.6"/>
            <polygon class="be9c27e0-9761-4970-bca0-e5304ed3137a" points="402.26 402.98 390.36 427.61 403.81 403.67 402.26 402.98"/>
            <polygon class="be9c27e0-9761-4970-bca0-e5304ed3137a" points="416.88 405.49 410.13 433.16 418.35 405.82 416.88 405.49"/>
            <polygon class="be9c27e0-9761-4970-bca0-e5304ed3137a" points="426.72 406.43 425.48 435.84 427.95 406.54 426.72 406.43"/>
            <path class="be9c27e0-9761-4970-bca0-e5304ed3137a" d="M436.6,406.71,447,436.25s-8.35-27.8-8.14-29.54Z"/>
            <path class="f947af09-2065-408f-a5e3-d4b7b75dc47c" d="M421.05,347.46a4.26,4.26,0,0,1,.52,2.88"/>
            <path class="f947af09-2065-408f-a5e3-d4b7b75dc47c" d="M391.29,317.31a8.33,8.33,0,0,0,5.82-.67"/>
            <path class="ed17a3de-815f-4b89-b81e-065f9da985be" d="M395.15,392.63s13.16,11.72,53.48,6l-1.73,7.1s-32.9,8-51.91-5.86A8.12,8.12,0,0,1,395.15,392.63Z"/>
            <g>
              <path class="a5d544ed-a03d-49bb-883c-a309b807ad5e" d="M413.43,479.1a22.91,22.91,0,0,0,16.06-1.36l2.63,18.89s-12.21,1.25-14.77-2.56Z"/>
              <path class="fd70bc11-bdf8-4ba3-b21e-c995ecd136c6" d="M408.71,496.29s.52-5.66,5.87-5.35,9.27-1.34,11.23,1.54-.18,4.53,6.31,2.78L432,493s3.3-1,4,1.13.92,6.48,1.95,8.64,1.34,3.5,0,4-21,10.91-38.41,4.53C399.55,511.31,389.14,498.35,408.71,496.29Z"/>
              <path class="fd70bc11-bdf8-4ba3-b21e-c995ecd136c6" d="M404.44,497s8.81-1.13,12.31,6.89a11.8,11.8,0,0,1,1.07,4.32"/>
              <path class="a87e270f-74b4-45de-90f8-89f2951a324d" d="M438.27,503.39s-13.9,6.07-19.77,7.2-20.05-.83-20.42-1.63a23.69,23.69,0,0,1,1.47,2.35,40.75,40.75,0,0,0,18.6,1.63A65.68,65.68,0,0,0,438,506.78S440,506.17,438.27,503.39Z"/>
              <path class="a87e270f-74b4-45de-90f8-89f2951a324d" d="M408.71,496.29s7.3-.82,9.11,3.5-3.08.95-3.08.95-2.63-4.24-9.22-3.78C405.52,497,405.93,495.57,408.71,496.29Z"/>
              <path class="a87e270f-74b4-45de-90f8-89f2951a324d" d="M409.21,494.39s6.4-1,8.15,2.1,0,2.47,0,2.47-1.85-3.08-8.65-2.67Z"/>
              <path class="a5d544ed-a03d-49bb-883c-a309b807ad5e" d="M412.3,474.47s11.7,2.29,16.37-1l.67,2.95s-11.58,2.25-16.41.8Z"/>
            </g>
            <g>
              <path class="a5d544ed-a03d-49bb-883c-a309b807ad5e" d="M437,481.45a25,25,0,0,0,16.78-1.37l4.53,18.55s-15,1.08-17.66-2.73Z"/>
              <path class="fd70bc11-bdf8-4ba3-b21e-c995ecd136c6" d="M434.23,498.29s.52-5.66,5.88-5.35,9.26-1.33,11.22,1.55-.18,4.52,6.31,2.77l-.13-2.26s3.3-1,4,1.13.92,6.48,2,8.64,1.34,3.5,0,4-21,10.9-38.41,4.52C425.07,513.31,414.67,500.35,434.23,498.29Z"/>
              <path class="fd70bc11-bdf8-4ba3-b21e-c995ecd136c6" d="M430,499s8.81-1.14,12.31,6.89a11.8,11.8,0,0,1,1.07,4.32"/>
              <path class="a87e270f-74b4-45de-90f8-89f2951a324d" d="M463.79,505.39s-13.9,6.07-19.77,7.2-20-.83-20.42-1.63a25,25,0,0,1,1.47,2.35,40.78,40.78,0,0,0,18.6,1.63,65.83,65.83,0,0,0,19.81-6.15S465.54,508.17,463.79,505.39Z"/>
              <path class="a87e270f-74b4-45de-90f8-89f2951a324d" d="M434.23,498.29s7.3-.82,9.11,3.5-3.08.95-3.08.95S437.63,498.5,431,499C431,499,431.45,497.57,434.23,498.29Z"/>
              <path class="a87e270f-74b4-45de-90f8-89f2951a324d" d="M434.73,496.39s6.41-1,8.16,2.11,0,2.46,0,2.46-1.86-3.08-8.66-2.67Z"/>
              <path class="a5d544ed-a03d-49bb-883c-a309b807ad5e" d="M435.9,476.74s12.13,2.29,17-1l.7,3s-12,2.25-17,.8Z"/>
            </g>
            <g>
              <path class="a55a5c45-d13d-408a-a095-889a492b063d" d="M402.76,370.27a5.37,5.37,0,0,0-.14.88,4.45,4.45,0,0,0,.33,2.09c.4.9,2.41,2.07,3.3,1.1-1,1.12-1.85,1.46-2.22,3.34a6.85,6.85,0,0,0-.12,1.8,8,8,0,0,0,.11.87,5.78,5.78,0,0,0,.5,1.47,3.11,3.11,0,0,0,.53.76,2.32,2.32,0,0,0,.47.37c1.83,1.1,4.63-.92,5.65-4a5.2,5.2,0,0,0,.69,2.51,3.52,3.52,0,0,0,2.27,1.67,2.5,2.5,0,0,0,.86,0,2.89,2.89,0,0,0,.71-.22,4.23,4.23,0,0,0,1.81-1.9h0c.1-.18.2-.37.29-.56a1.89,1.89,0,0,0,.11-.25c1.18-2.72.66-5.8-1.44-6.26,1.77-.84,3.48-2.06,3.92-3.87a3.77,3.77,0,0,0,.1-.83,5,5,0,0,0-.4-2,3,3,0,0,0-.34-.65,2.24,2.24,0,0,0-.51-.58c-1.07-.85-2.61-.37-3.87,1.05a7.31,7.31,0,0,0,.58-5.72,2.75,2.75,0,0,0-1.19-1.26,3,3,0,0,0-.73-.3h0a3.54,3.54,0,0,0-2.06.09,3.16,3.16,0,0,0-.62.29,2.11,2.11,0,0,0-.31.21c-2.42,1.88-2.16,5.47-1.8,8-.91-2-3.47-2.38-5.2-.55a5.12,5.12,0,0,0-.55.71l-.09.14A5.47,5.47,0,0,0,402.76,370.27Z"/>
              <path class="fbb79265-8875-456b-a939-264c5924f78b" d="M408.24,374.4c-.39-2.42.61-5.53,3.14-6.52,2.28-.88,4.09,1,4,3.9-.09,2.7-1.8,5.5-3.9,5.71C409.64,377.68,408.54,376.24,408.24,374.4Z"/>
              <path class="ff69733c-cf24-4386-9fdb-30d34c8b06ea" d="M408.77,374.13c-.33-2.06.51-4.71,2.67-5.54,1.93-.75,3.47.81,3.39,3.31-.08,2.29-1.52,4.67-3.31,4.85C410,376.91,409,375.69,408.77,374.13Z"/>
            </g>
            <g>
              <g>
                <path class="afac05f6-4d02-43fa-a4bb-6b6ae2b14169" d="M309.58,311.82l0-.05s0-.08-.05-.15a4.08,4.08,0,0,0-.26-.53,5.49,5.49,0,0,0-.5-.78c-.21-.28-.47-.59-.76-.91s-.63-.64-1-1a9.58,9.58,0,0,1-1-1.12,3.56,3.56,0,0,1-.38-.65,2.3,2.3,0,0,1-.12-.34c0-.12-.05-.24-.07-.36a2.9,2.9,0,0,1,.3-1.48,7.45,7.45,0,0,1,.86-1.39l.13-.17.13-.17.24-.36a7.88,7.88,0,0,0,.4-.76,6.37,6.37,0,0,0,.48-1.52,7.16,7.16,0,0,0,.12-1.42,8.1,8.1,0,0,0-.12-1.19c-.07-.35-.15-.65-.22-.89a5.88,5.88,0,0,0-.21-.56c0-.06-.05-.11-.06-.14l0-.05a.08.08,0,0,0-.09,0,.07.07,0,0,0,0,.08h0v.05s0,.08.05.15a5.26,5.26,0,0,1,.14.55,7.62,7.62,0,0,1,.13.88,7,7,0,0,1,0,1.14,7.22,7.22,0,0,1-.19,1.33,6.55,6.55,0,0,1-.52,1.39,5.17,5.17,0,0,1-.39.68c-.08.11-.15.22-.23.32l-.12.16-.14.16a7.6,7.6,0,0,0-1,1.48,4.37,4.37,0,0,0-.31.88,3.55,3.55,0,0,0-.06.47,2.57,2.57,0,0,0,0,.48,3.73,3.73,0,0,0,.09.46,3.29,3.29,0,0,0,.16.44l.21.39c.08.13.17.25.25.36a9.45,9.45,0,0,0,1.1,1.16l1,.92c.31.29.59.56.82.81a6.82,6.82,0,0,1,.56.68,4.9,4.9,0,0,1,.32.48l.11.17a.06.06,0,0,0,.08,0A.07.07,0,0,0,309.58,311.82Z"/>
                <path class="ea225325-e5c4-437b-9ecb-543015ea57d5" d="M307.25,295.72l.1.19c.07.13.16.31.27.55s.23.53.36.87.25.73.36,1.16a9.45,9.45,0,0,1,.25,1.4c0,.25,0,.51,0,.77a7,7,0,0,1-.06.79,5.45,5.45,0,0,1-.18.8c0,.13-.08.27-.13.39l0,.1,0,.1-.09.19a6.54,6.54,0,0,1-.94,1.43c-.37.46-.8.89-1.2,1.34a9.43,9.43,0,0,0-1.07,1.46,6.51,6.51,0,0,0-.63,1.58,7.66,7.66,0,0,0-.2,1.5,8.42,8.42,0,0,0,0,1.26c0,.37.08.69.12,1s0,.25.06.35,0,.19.06.26l0,.21a.07.07,0,0,0,.13,0h0l0-.22c0-.14,0-.35-.05-.61s0-.58,0-.94,0-.78.06-1.22a7.45,7.45,0,0,1,.28-1.39,5.66,5.66,0,0,1,.64-1.43,8.42,8.42,0,0,1,1-1.33c.4-.43.83-.86,1.23-1.34a6.16,6.16,0,0,0,.57-.75,5.59,5.59,0,0,0,.47-.82l.09-.22.05-.11,0-.1a4.59,4.59,0,0,0,.14-.45,5.74,5.74,0,0,0,.18-.9,6.84,6.84,0,0,0,0-1.7,8.34,8.34,0,0,0-.35-1.47,11.27,11.27,0,0,0-.48-1.17c-.17-.33-.33-.62-.47-.85a4.67,4.67,0,0,0-.35-.51l-.13-.18a.06.06,0,0,0-.09,0A.07.07,0,0,0,307.25,295.72Z"/>
                <path class="b0b4c085-21bd-4c16-87d0-10989b043fd2" d="M307.32,295.56h0v.05s0,.09,0,.16a3.29,3.29,0,0,1,0,.65,4.56,4.56,0,0,1-.18,1,5.46,5.46,0,0,1-.52,1.19,8.07,8.07,0,0,1-.9,1.24c-.18.2-.39.41-.59.66a4.68,4.68,0,0,0-.52.81,3.81,3.81,0,0,0-.32,1,3.43,3.43,0,0,0,0,1.06,3.79,3.79,0,0,0,.33,1,5.65,5.65,0,0,0,.51.9c.38.56.8,1.07,1.19,1.57a8.94,8.94,0,0,1,.55.75l.23.38.09.19v0h0l0,.05,0,.11,0,.11,0,.1c0,.06,0,.13.07.2l0,.2.05.2a3.7,3.7,0,0,1,.09.8,3.11,3.11,0,0,1-.38,1.41,5.79,5.79,0,0,1-.76,1.05c-.25.3-.49.55-.69.76l-.44.5-.16.18a.08.08,0,0,0,0,.1.06.06,0,0,0,.09,0h0l.17-.16.5-.44c.21-.19.47-.42.76-.7a5.72,5.72,0,0,0,.89-1.06,3.91,3.91,0,0,0,.36-.74,3.44,3.44,0,0,0,.17-.87,4.09,4.09,0,0,0-.05-.92l-.05-.23-.06-.23a1.09,1.09,0,0,0-.07-.24l0-.11,0-.11,0-.11,0-.06,0,0v0c0-.08-.07-.15-.1-.23s-.16-.3-.25-.44a9,9,0,0,0-.56-.81c-.4-.52-.81-1-1.16-1.55a4.36,4.36,0,0,1-.74-1.65,2.7,2.7,0,0,1,0-.85,3.21,3.21,0,0,1,.24-.8,4.16,4.16,0,0,1,.44-.73c.16-.22.35-.43.53-.66s.35-.46.5-.69.28-.46.39-.69.2-.45.28-.67a5.53,5.53,0,0,0,.17-.64,3.89,3.89,0,0,0,0-1.74c0-.15-.07-.23-.07-.23a.08.08,0,0,0-.09,0,.09.09,0,0,0,0,.08Z"/>
              </g>
              <path class="f1e713be-042f-4bb7-acf5-b8ff40542144" d="M403.1,292.56l.19.6c.12.39.29.94.44,1.59.06.33.13.68.17,1.05a5.33,5.33,0,0,1,0,1.13,3.35,3.35,0,0,1-.11.55l-.21.6c-.15.44-.28.89-.4,1.36a9.47,9.47,0,0,0-.22,1.43,5.42,5.42,0,0,0,.09,1.45,4.11,4.11,0,0,0,.52,1.29,5.14,5.14,0,0,0,.78.91,8.2,8.2,0,0,0,.76.6c.23.17.44.31.61.42l.54.34s-.14-.19-.4-.5-.64-.75-1-1.29a5.37,5.37,0,0,1-.52-.88,3.61,3.61,0,0,1-.28-1,5.37,5.37,0,0,1,0-1.2,12.27,12.27,0,0,1,.24-1.27c.1-.43.22-.85.34-1.27a6.52,6.52,0,0,0,.2-.69,3.83,3.83,0,0,0,.09-.74,5,5,0,0,0-.18-1.34,5.88,5.88,0,0,0-.39-1.1,7,7,0,0,0-.44-.87c-.14-.24-.28-.45-.4-.62A5.64,5.64,0,0,0,403.1,292.56Z"/>
              <path class="afac05f6-4d02-43fa-a4bb-6b6ae2b14169" d="M403.05,292.65a7.88,7.88,0,0,1,.73.56,9.56,9.56,0,0,1,.75.72,5.22,5.22,0,0,1,.76,1.07,3.3,3.3,0,0,1,.14,3,6,6,0,0,1-1,1.52c-.11.12-.2.24-.31.35l-.36.37-.69.75c-.22.27-.44.58-.66.87s-.37.62-.55.93a9.25,9.25,0,0,0-.43,1c-.05.17-.1.34-.14.51a3.14,3.14,0,0,0-.12.51,5,5,0,0,0-.1,1,4,4,0,0,0,0,.49c0,.17,0,.32.05.48a2.34,2.34,0,0,0,.09.46c0,.15.07.29.11.43a7.22,7.22,0,0,0,.32.79,5.47,5.47,0,0,0,.38.68,6.18,6.18,0,0,0,.4.56,4.58,4.58,0,0,0,.41.45,3,3,0,0,0,.37.35c.12.1.22.19.32.26l.25.17.21.14a.11.11,0,0,0,.15,0,.12.12,0,0,0,0-.14h0l-.17-.18-.2-.2c-.07-.09-.16-.18-.25-.3a3.14,3.14,0,0,1-.29-.38,3.35,3.35,0,0,1-.31-.46,5.85,5.85,0,0,1-.3-.56c-.1-.19-.18-.42-.27-.64a6.82,6.82,0,0,1-.2-.72l-.06-.38a1.75,1.75,0,0,1-.05-.4c0-.13,0-.27,0-.41a3,3,0,0,1,0-.42,3,3,0,0,1,.05-.42c0-.14.05-.28.08-.43a3.31,3.31,0,0,1,.12-.42l.15-.43c.05-.14.13-.28.19-.42s.12-.28.2-.42.32-.55.5-.8.37-.5.58-.75l.69-.76.34-.37c.13-.13.23-.27.35-.41a6.26,6.26,0,0,0,1.06-1.84,4,4,0,0,0,.22-2,3.77,3.77,0,0,0-.25-.92,4,4,0,0,0-.43-.76,5.33,5.33,0,0,0-1-1.09,6.79,6.79,0,0,0-.91-.64c-.27-.16-.49-.26-.63-.33l-.24-.1a.12.12,0,0,0-.14.06A.1.1,0,0,0,403.05,292.65Z"/>
              <path class="ea225325-e5c4-437b-9ecb-543015ea57d5" d="M403,292.65a1.21,1.21,0,0,1,.16.14,3.46,3.46,0,0,1,.38.45,3.3,3.3,0,0,1,.54,2,5.38,5.38,0,0,1-.23,1.37,9.12,9.12,0,0,1-.59,1.46,7.58,7.58,0,0,1-.4.74l-.46.76a7.11,7.11,0,0,0-.81,1.82,5.4,5.4,0,0,0-.16,2,4.89,4.89,0,0,0,.64,1.87,6.08,6.08,0,0,0,1.13,1.4,8.45,8.45,0,0,0,1.27.94,7.92,7.92,0,0,0,2.14.88,3.8,3.8,0,0,0,.89.12h0a.1.1,0,0,0,.1-.11.11.11,0,0,0-.09-.1l-.2-.05c-.14,0-.33-.12-.57-.22a8.87,8.87,0,0,1-2.91-2.07,5.92,5.92,0,0,1-.88-1.26,4.19,4.19,0,0,1-.45-1.51,4.45,4.45,0,0,1,.16-1.62,6.5,6.5,0,0,1,.67-1.56,13.3,13.3,0,0,0,.85-1.63,8,8,0,0,0,.54-1.68,5.25,5.25,0,0,0,.1-1.61,3.86,3.86,0,0,0-.37-1.32,3.17,3.17,0,0,0-.61-.86,2.44,2.44,0,0,0-.52-.41l-.21-.12a.1.1,0,0,0-.14.06A.1.1,0,0,0,403,292.65Z"/>
              <g>
                <path class="afac05f6-4d02-43fa-a4bb-6b6ae2b14169" d="M364.43,401.69l-.06-.17c0-.11-.1-.27-.19-.48a15.55,15.55,0,0,0-.86-1.81,22,22,0,0,0-1.69-2.62,35.38,35.38,0,0,0-2.58-3.07c-1-1.09-2.13-2.18-3.27-3.37a34.88,34.88,0,0,1-3.32-3.8,12.85,12.85,0,0,1-1.26-2.18,9.53,9.53,0,0,1-.41-1.17,8.33,8.33,0,0,1-.23-1.21,9.75,9.75,0,0,1,1-5,25,25,0,0,1,2.91-4.66l.43-.58c.15-.18.3-.4.44-.59.29-.41.56-.81.81-1.22a23,23,0,0,0,1.35-2.54,21.61,21.61,0,0,0,1.63-5.15,23.23,23.23,0,0,0,.39-4.79,24.66,24.66,0,0,0-.41-4,27.42,27.42,0,0,0-.74-3c-.26-.82-.51-1.45-.69-1.87l-.21-.48-.08-.17a.22.22,0,0,0-.29-.1.22.22,0,0,0-.11.27h0l.06.16q0,.17.15.48c.13.43.3,1.06.47,1.88a24.5,24.5,0,0,1,.46,3,25.25,25.25,0,0,1,.1,3.86,23.76,23.76,0,0,1-.63,4.48,21.84,21.84,0,0,1-1.74,4.7,22.12,22.12,0,0,1-1.33,2.28c-.25.36-.51.73-.78,1.09-.14.18-.26.35-.41.53l-.44.55a24.15,24.15,0,0,0-3.32,5,13.41,13.41,0,0,0-1,2.95,10.49,10.49,0,0,0-.22,1.59,9.6,9.6,0,0,0,0,1.61,10.13,10.13,0,0,0,.3,1.57,11.71,11.71,0,0,0,.55,1.47,14.25,14.25,0,0,0,.72,1.34,12.85,12.85,0,0,0,.84,1.2,30.32,30.32,0,0,0,3.7,3.91l3.47,3.12c1.06,1,2,1.88,2.77,2.73a25.59,25.59,0,0,1,1.9,2.3c.49.67.85,1.22,1.08,1.6s.35.6.35.6a.22.22,0,0,0,.39-.19Z"/>
                <path class="ea225325-e5c4-437b-9ecb-543015ea57d5" d="M356.57,347.37l.34.64c.22.42.53,1.05.9,1.85s.78,1.8,1.21,2.95a40.59,40.59,0,0,1,1.23,3.91,31.22,31.22,0,0,1,.82,4.73c.07.84.12,1.71.11,2.59a22,22,0,0,1-.21,2.67,19.6,19.6,0,0,1-.59,2.69,13.64,13.64,0,0,1-.45,1.32l-.13.35-.14.32c-.08.21-.18.43-.28.64a22.38,22.38,0,0,1-3.19,4.84c-1.26,1.53-2.69,3-4,4.53a31.15,31.15,0,0,0-3.61,4.91,20.79,20.79,0,0,0-2.12,5.34,24.81,24.81,0,0,0-.69,5.05,31.83,31.83,0,0,0,.12,4.25c.1,1.26.27,2.35.42,3.24.07.44.14.84.21,1.18l.18.87c.1.47.16.72.16.72a.22.22,0,0,0,.26.17.23.23,0,0,0,.17-.24h0l-.07-.73c0-.48-.1-1.17-.16-2.06s-.1-2-.11-3.2a38.29,38.29,0,0,1,.21-4.1,24.85,24.85,0,0,1,.93-4.7,19.54,19.54,0,0,1,2.17-4.8,28.34,28.34,0,0,1,3.51-4.49c1.34-1.46,2.8-2.91,4.16-4.52a26.69,26.69,0,0,0,1.92-2.53,20.73,20.73,0,0,0,1.57-2.79c.11-.25.22-.48.33-.74l.15-.37.13-.35c.19-.51.35-1,.49-1.51a18.91,18.91,0,0,0,.58-3,22.41,22.41,0,0,0-.11-5.75,27.19,27.19,0,0,0-1.2-5,32.21,32.21,0,0,0-1.62-3.95c-.56-1.13-1.11-2.09-1.58-2.86s-.89-1.36-1.17-1.75-.45-.6-.45-.6a.22.22,0,0,0-.36.25Z"/>
                <path class="b0b4c085-21bd-4c16-87d0-10989b043fd2" d="M356.81,346.82v.05l0,.14a5.05,5.05,0,0,1,.09.56,11.52,11.52,0,0,1,0,2.19,15.32,15.32,0,0,1-.62,3.31,19.34,19.34,0,0,1-1.75,4,27,27,0,0,1-3,4.2c-.61.68-1.3,1.38-2,2.22a14.9,14.9,0,0,0-1.75,2.74,11.77,11.77,0,0,0-1.09,3.27,10.7,10.7,0,0,0,0,3.57,13.59,13.59,0,0,0,1.1,3.39,22.84,22.84,0,0,0,1.71,3c1.29,1.9,2.73,3.62,4,5.31.66.86,1.3,1.69,1.85,2.54a14.32,14.32,0,0,1,.76,1.28c.12.22.22.43.32.65l0,.08s0,0,0,0v0l0,.05.07.18.15.36.14.36.12.34c.07.22.16.44.22.68s.13.46.2.68.11.46.17.69a12.55,12.55,0,0,1,.28,2.69,10.33,10.33,0,0,1-1.28,4.75,20,20,0,0,1-2.55,3.55c-.87,1-1.68,1.86-2.33,2.57s-1.16,1.3-1.5,1.69l-.52.62a.21.21,0,0,0,0,.3.22.22,0,0,0,.29,0h0l.58-.54,1.67-1.5c.72-.64,1.62-1.41,2.59-2.37a18.88,18.88,0,0,0,3-3.58,12.68,12.68,0,0,0,1.2-2.48,11.13,11.13,0,0,0,.58-2.92,13.23,13.23,0,0,0-.18-3.13l-.15-.78c-.06-.26-.13-.52-.2-.78s-.15-.52-.23-.78l-.13-.4-.13-.37-.14-.36-.06-.19-.05-.11,0-.1c-.11-.26-.22-.52-.35-.78-.25-.51-.53-1-.82-1.48a32.41,32.41,0,0,0-1.9-2.73c-1.34-1.75-2.73-3.45-3.91-5.23a15.26,15.26,0,0,1-2.52-5.56,8.94,8.94,0,0,1-.08-2.87,9.61,9.61,0,0,1,.82-2.72,14.41,14.41,0,0,1,1.46-2.45c.54-.75,1.19-1.47,1.81-2.24s1.17-1.54,1.67-2.32a22.78,22.78,0,0,0,1.31-2.33,20.37,20.37,0,0,0,.95-2.27c.24-.74.44-1.46.59-2.14a15.51,15.51,0,0,0,.32-3.58,10.68,10.68,0,0,0-.31-2.29,4.8,4.8,0,0,0-.24-.79.2.2,0,0,0-.28-.12.22.22,0,0,0-.13.25Z"/>
              </g>
              <g>
                <polygon class="bac698ca-814e-4832-80bf-55372cd9380e" points="306.72 296.1 357.03 342.8 403.78 292.54 353.46 245.84 306.72 296.1"/>
                <g class="e4207aa6-697e-4023-bf68-8de1799ddb4f">
                  <path class="b8283457-465b-4f28-837e-fccc988fb2ba" d="M371.47,269.74a38,38,0,0,1-15.66,32.05l-.72.51a38.16,38.16,0,0,1-38.53,2.86l-9.9-9.25,46.91-50.1,16.7,15.61A37.37,37.37,0,0,1,371.47,269.74Z"/>
                </g>
                <path class="b2cf9d9c-4593-4d29-a984-2a590f2378f6" d="M354.87,294.49c.1,2.46.2,4.92.29,7.36.14,3.58.27,7.11.41,10.5.23,5.71.46,11,.65,15.59s.38,8.36.5,11c.09,1.8.15,3.08.18,3.72,0,.3,0,.46,0,.46h.25s0-.16,0-.47c0-.64-.05-1.91-.09-3.71-.08-2.66-.19-6.47-.32-11s-.31-9.89-.49-15.59c-.11-3.24-.23-6.61-.35-10-.09-2.6-.19-5.23-.27-7.85-.24-6.09-.48-12.17-.7-17.87s-.46-11-.65-15.59-.38-8.36-.5-11c-.1-2.15-.17-3.55-.19-4l-.14-.13-.12.13c0,.47.05,1.87.1,4,.08,2.66.19,6.47.31,11s.32,9.89.5,15.59S354.66,288.4,354.87,294.49Z"/>
                <path class="a25c9d18-75e5-41f1-bb23-8074eb63f56c" d="M306.72,296.1l.69.64a87.41,87.41,0,0,1,95.7-3.49l.67-.71L401,290a89.82,89.82,0,0,0-91.6,3.26Z"/>
                <polygon class="bac698ca-814e-4832-80bf-55372cd9380e" points="366.12 348.76 356.96 341.71 348.34 349.41 366.12 348.76"/>
              </g>
            </g>
            <g>
              <path class="e01fd615-a913-451d-9264-e1554dff34ef" d="M433.11,342.81l-12.36.22S405.81,320.59,403,317.16l-6.88,5.69s4.19,20.61,16.12,35.32c0,0,13.22,3.75,25,.21"/>
              <path class="ec47cd58-e7c3-4fdb-af66-6fef6ed03119" d="M450.41,342l-20.52.64s3.91,1,4.3,10.74c.21,5.47-3,7.3-3,7.3l20.75-.14"/>
              <g>
                <path class="e01fd615-a913-451d-9264-e1554dff34ef" d="M404.23,318.93s-5.91-10.56-11.83-14.16a16,16,0,0,0-2.68,2.88,16.65,16.65,0,0,1-8.78-.32c-5.24-1.45-9.76-4.35-11.53-7.16,0,0-1.37-.65-.73,2,0,0-.32,2.17,2.26,5.23s.42.51.42.51-.58,2.07,2.4,5l1.69,1.69-1.77-.48s-1.61,0,0,1.85a13,13,0,0,0,8.87,4.67c4.35.32,11.52.16,11.52.16s3.24,4.93,3.48,7.51"/>
                <g>
                  <path class="e9f28c09-4f73-46ef-8c60-48b2c901e297" d="M368.6,302a14.82,14.82,0,0,0,8.3,7.12c6.21,2.3,8.35,1.74,8.35,1.74"/>
                  <path class="e181b68d-e033-473d-8f50-518fa77fd651" d="M368.72,302c2.59,5.33,8.53,7.8,14.07,8.8a8.46,8.46,0,0,0,2.46.11,8.53,8.53,0,0,1-2.47-.08c-5.61-.94-11.6-3.37-14.29-8.73l.23-.1Z"/>
                </g>
                <g>
                  <path class="e9f28c09-4f73-46ef-8c60-48b2c901e297" d="M371.55,308.18s3.94,4.83,8.42,6.08l3.34.28"/>
                  <path class="e181b68d-e033-473d-8f50-518fa77fd651" d="M371.64,308.1c2.25,2.6,5,5.08,8.33,6.13l3.34.31-3.35-.25c-3.4-1-6.18-3.44-8.51-6l.19-.16Z"/>
                </g>
                <g>
                  <path class="e9f28c09-4f73-46ef-8c60-48b2c901e297" d="M375.25,314.46s2.74,3.1,6.17,3.42"/>
                  <path class="e181b68d-e033-473d-8f50-518fa77fd651" d="M375.35,314.38a10.4,10.4,0,0,0,6.07,3.5,10.54,10.54,0,0,1-6.26-3.34l.19-.16Z"/>
                </g>
              </g>
              <g>
                <path class="e9f28c09-4f73-46ef-8c60-48b2c901e297" d="M420.75,343s2.87,1.72,1.27,8.51"/>
                <path class="e181b68d-e033-473d-8f50-518fa77fd651" d="M420.82,342.92c2.4,2.14,1.82,5.82,1.2,8.62.53-2.73,1-6.39-1.33-8.4l.13-.22Z"/>
              </g>
            </g>
          </g>
          <ellipse class="b6c53d8e-11f6-40a8-be0d-d9738570886f" cx="299.76" cy="278.76" rx="291.66" ry="291.34"/>
        </g>
      </g>
    </g>
  </g>
</svg>
