<svg xmlns="http://www.w3.org/2000/svg" xmlns:xlink="http://www.w3.org/1999/xlink" width="250.26" height="250.26" viewBox="0 0 250.26 250.26">
  <defs>
    <style>
      .facfcca9-7408-4dba-ac7f-98545396a2c4 {
        isolation: isolate;
      }

      .e03f8ba9-d757-40e3-9312-28ceb0fd4e3c {
        fill: #fffdfe;
        stroke: #878787;
        stroke-width: 9px;
        mix-blend-mode: multiply;
        opacity: 0.6;
      }

      .a55be518-91c9-44ec-b4ba-bfd74cea1453, .abca17ad-4c79-4293-9b8c-0394c89882c5, .abe32cb6-1bc5-438d-9b55-3ba9ba8a014d, .b1cbb720-3fc5-4c02-8765-e9d414af73fa, .bebdb4c7-7063-48d7-a504-373b803600fb, .e03f8ba9-d757-40e3-9312-28ceb0fd4e3c, .ee20ceed-691c-4f71-b7fd-07eacd4991d6, .f82ff777-e46d-41cf-bf5a-a9994683491f {
        stroke-miterlimit: 10;
      }

      .ff148e6d-a316-43f6-8451-f5bb1bb5dbfe {
        fill: #cff6ff;
      }

      .ea9120e4-5763-465b-8cf2-18ada16facde {
        fill: #000102;
        opacity: 0.22;
      }

      .ee20ceed-691c-4f71-b7fd-07eacd4991d6 {
        stroke: #301f18;
        fill: url(#f5166eaa-b6e8-4101-ba18-b045653f8ab7);
      }

      .a0e75cb7-9c23-45c1-bf21-55471b03c3f2, .a49566b1-2ccb-49e5-9ceb-023014f05494, .a55be518-91c9-44ec-b4ba-bfd74cea1453, .a7639973-68c3-46e8-a3b5-45d41bc62b85, .abca17ad-4c79-4293-9b8c-0394c89882c5, .abe32cb6-1bc5-438d-9b55-3ba9ba8a014d, .b1cbb720-3fc5-4c02-8765-e9d414af73fa, .b206d3cf-d3c8-4b2d-9c7d-b21396baddc3, .b4877405-beb7-426f-b95a-d38e35f013f3, .b62c60bd-b135-4fab-ac6b-6e5829ad1097, .b8b60b21-d8ec-4d5e-a423-438e9c6e737f, .b8eab17e-c61c-4e44-a784-6b2b58c75aed, .b97a7488-4c70-4832-9b78-0f28c34f0579, .bbc171ec-b947-452b-85a3-6333b8ccb400, .bc2761a0-c9db-44cf-b138-cfddc221f359, .bebdb4c7-7063-48d7-a504-373b803600fb, .bf7630d0-2eda-42f8-b08f-949ac98cb3fd, .e4c71b89-fa64-48b4-b961-e81a7cd1abe1, .e90fe2b6-886f-4345-b370-4efbd135a279, .ec333ec9-fd7e-4b82-b145-35064034e505, .ee20ceed-691c-4f71-b7fd-07eacd4991d6, .f52345c7-65b1-4308-a7a0-9aae4333b886, .f82ff777-e46d-41cf-bf5a-a9994683491f, .faffd642-d28e-4907-b389-255e5b96e7b6, .ff0a6588-ba98-4b58-865d-20b6a71ef7fc {
        fill-rule: evenodd;
      }

      .b206d3cf-d3c8-4b2d-9c7d-b21396baddc3 {
        fill: #42251c;
      }

      .b1cbb720-3fc5-4c02-8765-e9d414af73fa {
        fill: #b2694a;
        stroke: #7c4633;
      }

      .a55be518-91c9-44ec-b4ba-bfd74cea1453, .abca17ad-4c79-4293-9b8c-0394c89882c5, .abe32cb6-1bc5-438d-9b55-3ba9ba8a014d, .b1cbb720-3fc5-4c02-8765-e9d414af73fa, .bebdb4c7-7063-48d7-a504-373b803600fb {
        stroke-width: 0.5px;
      }

      .abca17ad-4c79-4293-9b8c-0394c89882c5 {
        fill: #ec916c;
        stroke: #ba694d;
      }

      .a0e75cb7-9c23-45c1-bf21-55471b03c3f2 {
        opacity: 0.31;
      }

      .a55be518-91c9-44ec-b4ba-bfd74cea1453 {
        stroke: #5e5a58;
        fill: url(#ab53c2d9-d581-46be-a62a-7d0fbd36617e);
      }

      .bc2761a0-c9db-44cf-b138-cfddc221f359 {
        fill: #2d251e;
      }

      .b97a7488-4c70-4832-9b78-0f28c34f0579 {
        fill: #552d1d;
      }

      .f52345c7-65b1-4308-a7a0-9aae4333b886 {
        fill: url(#eb6fc456-2c3e-4d29-843f-ccf80ad9154e);
      }

      .b8eab17e-c61c-4e44-a784-6b2b58c75aed {
        fill: url(#fbf932ea-a490-4eef-a2cd-cff8b1092ef2);
      }

      .faffd642-d28e-4907-b389-255e5b96e7b6 {
        fill: url(#f61a7933-acc6-481e-acec-92db9d5a461c);
      }

      .e90fe2b6-886f-4345-b370-4efbd135a279 {
        fill: url(#e4d0cef1-b813-47b0-bc13-c06e458814b5);
      }

      .bf7630d0-2eda-42f8-b08f-949ac98cb3fd {
        fill: #23110a;
      }

      .f82ff777-e46d-41cf-bf5a-a9994683491f {
        fill: #302824;
        stroke: #351d13;
      }

      .bebdb4c7-7063-48d7-a504-373b803600fb {
        fill: #302d2d;
      }

      .abe32cb6-1bc5-438d-9b55-3ba9ba8a014d, .bebdb4c7-7063-48d7-a504-373b803600fb {
        stroke: #282423;
      }

      .ff0a6588-ba98-4b58-865d-20b6a71ef7fc {
        fill: url(#f44a6791-4790-4af0-9b46-8909e6d50509);
      }

      .ec333ec9-fd7e-4b82-b145-35064034e505 {
        fill: #776a66;
      }

      .a7639973-68c3-46e8-a3b5-45d41bc62b85 {
        fill: #323232;
      }

      .a49566b1-2ccb-49e5-9ceb-023014f05494 {
        fill: #fdfdfb;
      }

      .abe32cb6-1bc5-438d-9b55-3ba9ba8a014d {
        fill: #4c4b4b;
      }

      .bbc171ec-b947-452b-85a3-6333b8ccb400 {
        fill: #ecdbd2;
      }

      .b62c60bd-b135-4fab-ac6b-6e5829ad1097 {
        fill: #f7efeb;
      }

      .e4c71b89-fa64-48b4-b961-e81a7cd1abe1 {
        fill: #3f251d;
        opacity: 0.47;
      }

      .b8b60b21-d8ec-4d5e-a423-438e9c6e737f {
        fill: #9b6a59;
      }

      .b4877405-beb7-426f-b95a-d38e35f013f3 {
        fill: #bf9a8c;
        opacity: 0.42;
      }
    </style>
    <linearGradient id="f5166eaa-b6e8-4101-ba18-b045653f8ab7" x1="-169.89" y1="62.81" x2="-97.97" y2="62.81" gradientTransform="matrix(0.85, 0.07, -0.07, 0.84, 300.29, 127.06)" gradientUnits="userSpaceOnUse">
      <stop offset="0.59" stop-color="#86491a"/>
      <stop offset="0.73" stop-color="#9b642f"/>
      <stop offset="0.9" stop-color="#b28046"/>
      <stop offset="1" stop-color="#ba8a4e"/>
    </linearGradient>
    <linearGradient id="ab53c2d9-d581-46be-a62a-7d0fbd36617e" x1="-56.57" y1="124.09" x2="-1.74" y2="54.83" gradientTransform="translate(161.1 33.9) rotate(4.69)" gradientUnits="userSpaceOnUse">
      <stop offset="0.07" stop-color="#ded7cc"/>
      <stop offset="0.11" stop-color="#d8c7b0"/>
      <stop offset="0.18" stop-color="#ceaf86"/>
      <stop offset="0.24" stop-color="#c89d67"/>
      <stop offset="0.3" stop-color="#c39355"/>
      <stop offset="0.34" stop-color="#c28f4e"/>
      <stop offset="0.4" stop-color="#c28f4e"/>
    </linearGradient>
    <linearGradient id="eb6fc456-2c3e-4d29-843f-ccf80ad9154e" x1="-45.37" y1="108.06" x2="25.84" y2="108.06" gradientTransform="translate(161.1 33.9) rotate(4.69)" xlink:href="#f5166eaa-b6e8-4101-ba18-b045653f8ab7"/>
    <linearGradient id="fbf932ea-a490-4eef-a2cd-cff8b1092ef2" x1="-43.4" y1="104.85" x2="19.53" y2="104.85" gradientTransform="translate(161.1 33.9) rotate(4.69)" xlink:href="#f5166eaa-b6e8-4101-ba18-b045653f8ab7"/>
    <linearGradient id="f61a7933-acc6-481e-acec-92db9d5a461c" x1="-35.24" y1="100.48" x2="13.59" y2="100.48" gradientTransform="translate(161.1 33.9) rotate(4.69)" xlink:href="#f5166eaa-b6e8-4101-ba18-b045653f8ab7"/>
    <linearGradient id="e4d0cef1-b813-47b0-bc13-c06e458814b5" x1="-20.53" y1="97.56" x2="8.96" y2="97.56" gradientTransform="translate(161.1 33.9) rotate(4.69)" xlink:href="#f5166eaa-b6e8-4101-ba18-b045653f8ab7"/>
    <linearGradient id="f44a6791-4790-4af0-9b46-8909e6d50509" x1="-67.79" y1="77.02" x2="32.76" y2="117.63" gradientTransform="translate(161.1 33.9) rotate(4.69)" gradientUnits="userSpaceOnUse">
      <stop offset="0.07" stop-color="#86491a"/>
      <stop offset="0.33" stop-color="#9b642f"/>
      <stop offset="0.66" stop-color="#b28046"/>
      <stop offset="0.86" stop-color="#ba8a4e"/>
    </linearGradient>
  </defs>
  <g class="facfcca9-7408-4dba-ac7f-98545396a2c4">
    <g id="b9f983df-7432-4e29-9924-02caa034e3ef" data-name="Layer 1">
      <g>
        <g>
          <circle class="e03f8ba9-d757-40e3-9312-28ceb0fd4e3c" cx="125.13" cy="125.13" r="116.99"/>
          <circle class="ff148e6d-a316-43f6-8451-f5bb1bb5dbfe" cx="124.85" cy="125.71" r="114.82"/>
        </g>
        <ellipse class="ea9120e4-5763-465b-8cf2-18ada16facde" cx="127.34" cy="190.54" rx="85.06" ry="9.5"/>
        <g id="e343e3e3-1e93-4cbe-9c6d-5e8ee7466ff5" data-name="27">
          <g>
            <path class="ee20ceed-691c-4f71-b7fd-07eacd4991d6" d="M152.13,151.19c14.24,9.36,34.75,24,42.91,29.51s13.45,10.83,15.53,12.41c-.59-2.37,2.68-6.52-6.58-14.21-5.23-4.34-14.92-10.86-22.82-16.19s-13.95-9.52-20-13.71C161.24,151.06,152.05,149.12,152.13,151.19Z"/>
            <path class="b206d3cf-d3c8-4b2d-9c7d-b21396baddc3" d="M110.74,189a12.6,12.6,0,0,1,3.84.37,5.8,5.8,0,0,1,3.25,2.69,5.42,5.42,0,0,1,.22,3.32c-.8-1.3-1.59-2.61-3.06-3.22s-3.63-.52-5.78-.43a24.12,24.12,0,0,0,1-2.5C110.26,188.81,110,189,110.74,189Z"/>
            <path class="b206d3cf-d3c8-4b2d-9c7d-b21396baddc3" d="M124.83,181.7a8.3,8.3,0,0,1,3.22.39,5.49,5.49,0,0,1,2.58,2.16,9.41,9.41,0,0,1,1,3.16,5.53,5.53,0,0,0-2.2-2.46,11.36,11.36,0,0,0-4-.83c-1.17-.09-1.84-.07-1.87-.45S124.22,182.49,124.83,181.7Z"/>
            <path class="b206d3cf-d3c8-4b2d-9c7d-b21396baddc3" d="M80.15,187.5c-1.34-.49-2.68-1-3.92-.45a7.24,7.24,0,0,0-3,3.18,4.1,4.1,0,0,0-.5,2.4,8,8,0,0,1,2.62-2.1,10.19,10.19,0,0,1,3.62-.46Z"/>
            <path class="b206d3cf-d3c8-4b2d-9c7d-b21396baddc3" d="M99.76,184.43A12.89,12.89,0,0,1,95,185.62a36.12,36.12,0,0,1-5.73-.8,6.74,6.74,0,0,0-3.66.07A2.92,2.92,0,0,0,84,186.7a5.45,5.45,0,0,0-.11,2.2l8.13-.21,5.3-1.87Z"/>
            <path class="b1cbb720-3fc5-4c02-8765-e9d414af73fa" d="M117.35,168.48c-.64,1-.48,11.1-.27,11.62s-1.1.51.33.39,3.24-.35,4.59-.45a4.55,4.55,0,0,1,2.94.39,2.56,2.56,0,0,1,1.15,2.3,3.17,3.17,0,0,1-1.61,2.43,3.3,3.3,0,0,1-2.81-.2,10,10,0,0,0-3.23-1.29c-1.43-.2-3.42.07-5.4-.12a27.38,27.38,0,0,1-5.92-1.55l-5.42,1.13a4.59,4.59,0,0,1-2.13-.34c-.44-.29-.49-.85.41-1.42a15,15,0,0,1,4.09-1.45,9.61,9.61,0,0,1,3.44-.2c1.28.11,3,.37,4.72.62.64-.85,2.84-10.71,3.48-11.56Z"/>
            <path class="abca17ad-4c79-4293-9b8c-0394c89882c5" d="M125.21,167.77a51.15,51.15,0,0,1-1,5.25,9,9,0,0,1-1.65,3.58,5.65,5.65,0,0,1-2.94,1.61,36.71,36.71,0,0,0-5.72,1.82,65.54,65.54,0,0,0-8.26,4.34c-2.21,1.37-3.19,2.27-3.5,2.82s0,.74,1.49.73,4-.25,5.63-.2,2.33.37,2.62,1.28a2.62,2.62,0,0,1-1,3c-1.15.68-3.33.55-5.8,0s-5.22-1.39-7.33-1.87a14.9,14.9,0,0,0-5-.39,34.69,34.69,0,0,1-6.69-.74c-1.24-.25-4.06.38-5.08.61s-1.87.85-2.52,1-1.08-.18-1-1a3.6,3.6,0,0,1,2.09-2.82c1.46-.69,3.8-.74,6.11-.67a63.19,63.19,0,0,0,6.34.1c1.75-.14,3-.63,6.23-2.08s8.52-3.87,11.73-5.54,4.35-2.6,4.69-4.11-.12-3.59-.58-5.67Z"/>
            <path class="a0e75cb7-9c23-45c1-bf21-55471b03c3f2" d="M151,150.63c12.5,8.08,36.68,24.89,44.66,30.51a127.06,127.06,0,0,1,14.89,12,13.14,13.14,0,0,0-.21-5.05c-.49-1.61-1.62-3.1-10-8.76s-28.17-19.14-43.7-29C157.27,152.13,150.46,148.85,151,150.63Z"/>
            <path class="a55be518-91c9-44ec-b4ba-bfd74cea1453" d="M54.06,73.32a9.94,9.94,0,0,1,2.2-4.18c1.12-1.22,2.71-2.21,5.63-3.34A50.16,50.16,0,0,1,72.59,63a14.3,14.3,0,0,1,9.88,2A52,52,0,0,1,92.9,73.75a28.62,28.62,0,0,1,5.44,7.93c1.12,2.45,1.84,4.95,2.48,6.58S102,90.68,105.48,93s9.75,6.14,16.62,10.91a151.34,151.34,0,0,1,22.18,18.53c7.89,8,16.25,18.36,19.92,25.37s-11.11.06-12.13,3.74c7.59,5,28.93,20.62,36.53,25.62-2.63-.32-5.26-.63-10.06-1.08s-11.76-1-17.2-2.48-9.33-3.84-13.53-4.81-8.73-.57-13.28-.05-9.13,1.18-12.67,1.57-6,.53-9.45-.58a78.54,78.54,0,0,1-18.65-9.41c-7.51-5.28-12.14-10-18.19-16.12s-8.67-13-10.71-17.27A43.15,43.15,0,0,1,61,113.1c-.67-5.24-.8-11.39-1.49-15.71s-1.95-6.81-3.08-9.75a49.59,49.59,0,0,1-2.51-8.81A11.87,11.87,0,0,1,54.06,73.32Z"/>
            <path class="bc2761a0-c9db-44cf-b138-cfddc221f359" d="M86.59,84a13.77,13.77,0,0,1,.6,5.39,8.84,8.84,0,0,1-1.73,4.84,6.77,6.77,0,0,1-4,2.32,8.35,8.35,0,0,1-4.26-.28,6.57,6.57,0,0,1-2.88-2A32.41,32.41,0,0,1,71.88,91,26.39,26.39,0,0,0,78.13,88a20.83,20.83,0,0,0,4.26-4.43c1-1.32,1.55-2.18,2.22-2.13S86.07,82.49,86.59,84Z"/>
            <path class="b97a7488-4c70-4832-9b78-0f28c34f0579" d="M77.17,79a11.48,11.48,0,0,1,5-.52,9.59,9.59,0,0,1,5.58,2.46,10.24,10.24,0,0,1,2.47,5.58A10.79,10.79,0,0,1,90,90.75c-.27,1.06-.57,1.79-.39,2.16s.83.37,2,0a18.26,18.26,0,0,0,4.54-2,29.76,29.76,0,0,0,4.37-3.53,39.3,39.3,0,0,0-1.66-5.31A30.15,30.15,0,0,0,95,75.38a42.66,42.66,0,0,0-6.71-6.9,33.54,33.54,0,0,0-7.6-5,13.83,13.83,0,0,0-7.1-1.07,45.08,45.08,0,0,0-8.24,1.66,38.28,38.28,0,0,0-6.18,2.32,12,12,0,0,0-3.45,2.38,6,6,0,0,0-1.54,2.62A7.63,7.63,0,0,0,54.13,74a55.52,55.52,0,0,0,2.06,10.16c1.06,3.06,2.67,5.63,3.78,6.46s1.73-.06,2.4-1.67,1.41-3.92,3.19-5.4,4.6-2.13,6.68-2.79S75.69,79.43,77.17,79Z"/>
            <path class="a0e75cb7-9c23-45c1-bf21-55471b03c3f2" d="M99.72,134.24c19.38,8,38.76,16.09,50.08,22.12s14.59,10,17.86,14.06c2.13-.29,10.9-.13,11.17-.85s-16.7-10.29-18.29-11.43c6,3.37,20.72,14.31,26.69,17.68-5.52-6.88-9.27-13.08-14.79-20a185.73,185.73,0,0,0-32.35-13.69C128.26,138.61,114,136.43,99.72,134.24Z"/>
            <path class="f52345c7-65b1-4308-a7a0-9aae4333b886" d="M107.56,134.39c6.54,3.1,13.08,6.19,20.35,9.1a214.08,214.08,0,0,0,23.29,7.81c8,2.17,16.14,3.78,20.47,4.48s4.88.47,5.21,0,.43-1.08-1.57-2.35-6.09-3.16-15.13-5.64-23-5.56-32.53-9.43-14.53-8.51-19.56-13.16C107.91,128.28,107.74,131.34,107.56,134.39Z"/>
            <path class="b8eab17e-c61c-4e44-a784-6b2b58c75aed" d="M109.77,128.87c6.79,4.21,13.58,8.42,24.3,12.3a262,262,0,0,0,32.08,8.75c6.72,1.33,5.53.45,3-1.27A98.7,98.7,0,0,0,154,140.27c-8.77-4.11-22.46-9.76-36.15-15.41Z"/>
            <path class="faffd642-d28e-4907-b389-255e5b96e7b6" d="M118.22,125.55c8.49,4.27,17,8.55,24.29,11.9a179.76,179.76,0,0,0,17.19,7c3.78,1.23,5.24,1.28,5.73,1.06s0-.69-3.79-3.48-11-7.88-16.6-11.66-9.7-6.27-13.78-8.74Z"/>
            <path class="e90fe2b6-886f-4345-b370-4efbd135a279" d="M133.14,123.7c7.66,4.79,15.31,9.59,19.9,12.53s6.1,4,7,4.55,1.26.49,1.26,0-.35-1.34-3.15-4.5a116.88,116.88,0,0,0-11.86-11.6,19.26,19.26,0,0,0-8.38-4.21Z"/>
            <g>
              <path class="bf7630d0-2eda-42f8-b08f-949ac98cb3fd" d="M117,138.61l1.2-.67s34,15.85,54.08,16.47l3.95-.07s1.83,1.24-.14,1.71c0,0-4.8.11-23.5-4.58A194.2,194.2,0,0,1,117,138.61Z"/>
              <path class="bf7630d0-2eda-42f8-b08f-949ac98cb3fd" d="M115.25,128s11.55,13.31,51.25,20.57l3,.41s1.61,1.11,1.59,1.29c0,0,.68.78-8.22-1.17,0,0-24.29-4.66-44.62-15.2l-5.82-5.15Z"/>
              <path class="bf7630d0-2eda-42f8-b08f-949ac98cb3fd" d="M164.84,144.76s-20.58-5.3-31.71-13.78l.08,1.88s19.22,9.39,25.57,11.3C158.78,144.16,167.7,146.64,164.84,144.76Z"/>
              <path class="bf7630d0-2eda-42f8-b08f-949ac98cb3fd" d="M160.6,141.05l-22.82-14.56,1.72-1.31,21.77,15.34S161.83,141.54,160.6,141.05Z"/>
            </g>
            <path class="f82ff777-e46d-41cf-bf5a-a9994683491f" d="M57.12,73.07c.89-.67,1.45-1.92,3.18-2.33s4.63.05,6.9.07a15.88,15.88,0,0,1,6,1.28,9.73,9.73,0,0,1,3.54,2.39,6.23,6.23,0,0,1,1.77,3.17A4.27,4.27,0,0,1,77.3,80.9a8.7,8.7,0,0,1-4,2.77c-1.71.54-3.78.49-5.22,1a3.67,3.67,0,0,0-2.6,2.93A10.73,10.73,0,0,0,65.86,93c.63,1.91,1.78,3.63,2.22,5.93a18.61,18.61,0,0,1-.44,7.67,16.18,16.18,0,0,1-2.75,6,11.7,11.7,0,0,1-3.59,2.87,48.66,48.66,0,0,1-1.08-5.94c-.33-2.76-.62-6.68-.93-9.51a32.53,32.53,0,0,0-1.23-6.48c-.59-1.93-1.44-4-2.08-5.73s-1.08-3-1.41-4.14a10.54,10.54,0,0,1-.52-3.55,12.43,12.43,0,0,1,.94-4A7.22,7.22,0,0,1,57.12,73.07Z"/>
            <path class="bebdb4c7-7063-48d7-a504-373b803600fb" d="M45.56,78.85a33.51,33.51,0,0,0,3.34,1.92A26.45,26.45,0,0,0,54,82.86a18.94,18.94,0,0,0,5.53.7,7.91,7.91,0,0,0,3.78-.91,3.3,3.3,0,0,0,1.34-1.76,33.51,33.51,0,0,0-6.2-2.57,22.58,22.58,0,0,0-6.69-.65,48.17,48.17,0,0,0-6.34.78C45.23,78.45,45,78.46,45.56,78.85Z"/>
            <path class="ff0a6588-ba98-4b58-865d-20b6a71ef7fc" d="M101.33,89.35a6.58,6.58,0,0,1-2.47,3.73c-1.68,1.29-4.64,2.65-7.25,4.67a16.59,16.59,0,0,0-5.75,7.51,9.45,9.45,0,0,0,.66,7.63,8.16,8.16,0,0,0,3.21,2.63,15.84,15.84,0,0,1-3.23-.61c-.49.37-1,.74-.94,1.32a3.11,3.11,0,0,0,1.51,2,16.17,16.17,0,0,0,3.42,1.56,5.24,5.24,0,0,0-2.07,0c-.29.18,0,.63.63.93a9.38,9.38,0,0,0,2.26.64,4,4,0,0,0-2.48,1.24,2.75,2.75,0,0,0,.21,2.93,6.85,6.85,0,0,0,3.24,2.27,12.54,12.54,0,0,0,3.56.65c-.79.13-1.58.26-1.62.5s.66.59,1.38.8a12,12,0,0,0,2.23.32c-.6,1.08-1.2,2.15.37,3.3s5.32,2.39,8.37,3.4a37.1,37.1,0,0,0,7.29,2,5.9,5.9,0,0,0,4.17-.91c.82-.65,1-1.51.61-2.83a24.13,24.13,0,0,0-2.13-4.29c-.73-1.21-1.19-1.89-1.65-2.56a55.21,55.21,0,0,0,8.86,5.52,21.72,21.72,0,0,0,7.83,1.92c1.9,0,2.72-.46,2.91-1s-.24-1.21-.68-1.86a5,5,0,0,0,2.7.86,1.71,1.71,0,0,0,1.36-1.71,5.42,5.42,0,0,0-1.29-2.57,9.35,9.35,0,0,0,3.76,1.94c1.18.12,2.26-.55,2.29-1.28s-1-1.52-2-2.31a10.69,10.69,0,0,0,3.78,1.57,1.24,1.24,0,0,0,1.27-1.53,6.25,6.25,0,0,0-1.49-2.52,17,17,0,0,0,3.47,1c.74,0,.86-.39-2.76-3.84s-11-9.92-16.68-14.57a131,131,0,0,0-13.68-10c-4-2.48-7.84-4.62-10-6A11.18,11.18,0,0,1,101.33,89.35Z"/>
            <g>
              <path class="ec333ec9-fd7e-4b82-b145-35064034e505" d="M70.25,74a6.56,6.56,0,0,0,3.08,8.72,6.49,6.49,0,0,0,8.83-2.61,6.56,6.56,0,0,0-3.08-8.72A6.49,6.49,0,0,0,70.25,74Z"/>
              <path class="a7639973-68c3-46e8-a3b5-45d41bc62b85" d="M72,74.89A4.83,4.83,0,1,0,78.41,73,4.68,4.68,0,0,0,72,74.89Z"/>
              <path class="bc2761a0-c9db-44cf-b138-cfddc221f359" d="M72,74.89c3.77-.59,6.5,1.09,8.59,4.41A4.74,4.74,0,0,0,78.41,73,4.68,4.68,0,0,0,72,74.89Z"/>
              <path class="a49566b1-2ccb-49e5-9ceb-023014f05494" d="M77.75,73.73a1.25,1.25,0,0,0,.53,1.74,1.36,1.36,0,0,0,1.79-.6,1.26,1.26,0,0,0-.53-1.75A1.37,1.37,0,0,0,77.75,73.73Z"/>
            </g>
            <path class="abe32cb6-1bc5-438d-9b55-3ba9ba8a014d" d="M59,71.07a57.83,57.83,0,0,0-7,2.29,33.85,33.85,0,0,0-5.5,3c-1.33.9-2,1.5-2.11,1.8s.39.29,1.11.24A27.54,27.54,0,0,1,49,78.37a66.84,66.84,0,0,1,7.49.75c2.76.45,5.46,1.11,8.16,1.77a6,6,0,0,0-1.91-2.7c-1.26-1.09-3.46-2.47-4.25-3.7S58.35,72.16,59,71.07Z"/>
            <path class="bbc171ec-b947-452b-85a3-6333b8ccb400" d="M93.69,120.68a34.68,34.68,0,0,0,6,3.63,74.66,74.66,0,0,0,9.49,3.84c2.62.82,3.9.87,4,.08s-.92-2.41-.55-2.3,2.14,2,4.4,3.88a30.56,30.56,0,0,0,7.63,5,14.35,14.35,0,0,0,6.89,1.06c1.69-.2,2.51-.77,2.53-1.36s-.77-1.22-2.64-2.32-4.79-2.71-7.72-4.31l5.56,6.17-3.17-1.79a31.88,31.88,0,0,0-3.34-1.76c-.67-.23-.55.12-.42.44s.27.6-1.08-.42-4.2-3.35-7.15-5.35-6-3.66-9-5.32c.68,1.36,1.36,2.71,2.06,3.87s1.42,2.1,1,1.82-2-1.78-4-3.32-4.57-3.1-7.1-4.67c.27.75.55,1.51.86,2.33a16.07,16.07,0,0,1,.62,1.75s-.46-.73-1-1.18a1.38,1.38,0,0,0-1.35-.43c-.28.15-.27.58-.53.24a5.83,5.83,0,0,0-1.64-1.89,4.43,4.43,0,0,0-3,.06A28.85,28.85,0,0,0,93.69,120.68Z"/>
            <path class="bf7630d0-2eda-42f8-b08f-949ac98cb3fd" d="M95.43,97.54a25.77,25.77,0,0,1,6.35,1.5c2.47.91,5,2.27,6,3.87a2.85,2.85,0,0,1-.65,4c-1.11.57-2.79-.16-4.4-1.52s-3.16-3.35-4.81-4.72a18.81,18.81,0,0,0-5.1-2.81A4.64,4.64,0,0,1,95.43,97.54Z"/>
            <path class="bf7630d0-2eda-42f8-b08f-949ac98cb3fd" d="M109.92,106.06a19,19,0,0,1,5.87,2.08c2.39,1.3,4.92,3.28,6,5.14s.64,3.6-.35,4S118.89,117,117,115s-4.23-4.94-5.71-6.55-2.15-1.82-2.82-2C108.57,106.18,108.71,105.89,109.92,106.06Z"/>
            <path class="bf7630d0-2eda-42f8-b08f-949ac98cb3fd" d="M121.91,118.2a38.73,38.73,0,0,1,7.49,2.6c2.16,1.12,3.81,2.64,4.14,3.91s-.68,2.26-1.53,2-1.55-1.72-2.73-3.16a20.71,20.71,0,0,0-4.14-3.74A13.91,13.91,0,0,0,121.91,118.2Z"/>
            <path class="bf7630d0-2eda-42f8-b08f-949ac98cb3fd" d="M107,97.55a21.22,21.22,0,0,1,5.3,1.26c2.07.76,4.19,1.9,5,3.24a2.37,2.37,0,0,1-.54,3.35c-.93.47-2.33-.13-3.68-1.27s-2.64-2.81-4-3.95a15.56,15.56,0,0,0-4.27-2.35A4.06,4.06,0,0,1,107,97.55Z"/>
            <path class="bf7630d0-2eda-42f8-b08f-949ac98cb3fd" d="M119.43,105.56a18.87,18.87,0,0,1,5.87,2.07c2.4,1.3,4.92,3.28,6,5.14s.64,3.6-.34,4.06-2.54-.38-4.46-2.3-4.24-4.93-5.72-6.55-2.15-1.82-2.82-2C118.08,105.67,118.22,105.39,119.43,105.56Z"/>
            <path class="bf7630d0-2eda-42f8-b08f-949ac98cb3fd" d="M131.42,117.7a38.5,38.5,0,0,1,7.49,2.59c2.16,1.13,3.82,2.65,4.14,3.91s-.68,2.26-1.53,2-1.55-1.72-2.73-3.16a21,21,0,0,0-4.13-3.74A14.47,14.47,0,0,0,131.42,117.7Z"/>
            <path class="bf7630d0-2eda-42f8-b08f-949ac98cb3fd" d="M92.46,104.15a19.22,19.22,0,0,1,5.87,2.08c2.39,1.3,4.92,3.28,6,5.14s.64,3.6-.35,4.06-2.53-.38-4.46-2.3-4.23-4.94-5.71-6.55-2.15-1.82-2.82-2C91.11,104.27,91.25,104,92.46,104.15Z"/>
            <path class="bf7630d0-2eda-42f8-b08f-949ac98cb3fd" d="M106.59,114.36a39.28,39.28,0,0,1,7.5,2.6c2.16,1.13,3.81,2.65,4.13,3.91s-.67,2.26-1.52,2-1.56-1.72-2.73-3.16a21,21,0,0,0-4.14-3.74A14.8,14.8,0,0,0,106.59,114.36Z"/>
            <path class="b62c60bd-b135-4fab-ac6b-6e5829ad1097" d="M74.69,100.84A5.91,5.91,0,0,1,81,104.11c1.37,2.8,1.21,7.54,1.43,12.69s.82,10.68,3.94,15.17,8.76,7.91,14.73,10,12.24,3,17,6.81,8,10.75,7.1,14.61-6,4.66-12.3,2.77-13.66-6.51-20.74-12.09S78.37,142,74.05,135.75s-6.22-12.1-6.46-17.25a28.33,28.33,0,0,1,2.49-12.58C71.4,102.89,72.63,101.24,74.69,100.84Z"/>
            <path class="e4c71b89-fa64-48b4-b961-e81a7cd1abe1" d="M89.9,93.15s5,.06,10.62-5.69c0,0-2.66-9.69-5.52-11.89l-4.78,10.9a11.2,11.2,0,0,1-.43,4.91S89.13,93.14,89.9,93.15Z"/>
            <path class="b8b60b21-d8ec-4d5e-a423-438e9c6e737f" d="M54.07,72.55s-.74-3.88,6.35-6.68c0,0,7.9-2.84,11.1-3.16,0,0,7-2.52,15.68,4.86l6,5.53-6.63-5.24s-6.76-5.53-14.71-4.41C71.82,63.45,56.88,65.5,54.07,72.55Z"/>
            <path class="b4877405-beb7-426f-b95a-d38e35f013f3" d="M101.37,89.72a36.24,36.24,0,0,0,6.43,4.22s15.08,8.74,21,14.52l14,12a68,68,0,0,1,4.79,5s1.36,1.16-1.55.28c0,0-20.59-21.94-45.91-33.93C100.16,91.79,100.81,91.53,101.37,89.72Z"/>
          </g>
        </g>
      </g>
    </g>
  </g>
</svg>
