<svg xmlns="http://www.w3.org/2000/svg" xmlns:xlink="http://www.w3.org/1999/xlink" width="250.26" height="250.26" viewBox="0 0 250.26 250.26">
  <defs>
    <style>
      .b05a9be0-37dd-468a-9d27-3d133995f759 {
        fill: none;
      }

      .b88f2b0d-504f-4dee-a15a-92482de4bc68 {
        isolation: isolate;
      }

      .edcc3119-4d2f-47a9-a32a-ddf0af5e9abc {
        clip-path: url(#f1a48c67-d6cf-4d78-8439-fe9c787a2a09);
      }

      .ed6f0358-ebff-4c5a-b9e8-667b69d3b81c {
        fill: #fffdfe;
        stroke: #878787;
        stroke-miterlimit: 10;
        stroke-width: 9px;
        mix-blend-mode: multiply;
        opacity: 0.6;
      }

      .a8b55ecc-7fc8-4919-b6f5-df166fc2723f {
        fill: #31d0e5;
      }

      .b83a0e73-f1b2-416b-8e3e-611b6be58a5b {
        fill: #e6f6ff;
      }

      .b2e9e788-3513-4132-84d5-2e94aaa7d612 {
        fill: #fff;
      }

      .e49490a3-1ef0-40f4-9f7f-ab27a2532dc4 {
        fill: #ade0ff;
      }
    </style>
    <clipPath id="f1a48c67-d6cf-4d78-8439-fe9c787a2a09">
      <circle class="b05a9be0-37dd-468a-9d27-3d133995f759" cx="-295.53" cy="-355.5" r="286.49"/>
    </clipPath>
  </defs>
  <g class="b88f2b0d-504f-4dee-a15a-92482de4bc68">
    <g id="ecd7421d-c7ca-45e9-a6ba-f09aacc082a1" data-name="Layer 1">
      <g>
        <g>
          <circle class="ed6f0358-ebff-4c5a-b9e8-667b69d3b81c" cx="125.13" cy="125.13" r="116.99"/>
          <circle class="a8b55ecc-7fc8-4919-b6f5-df166fc2723f" cx="124.85" cy="125.71" r="114.82"/>
        </g>
        <g>
          <path class="b83a0e73-f1b2-416b-8e3e-611b6be58a5b" d="M110.64,115.76a22,22,0,0,1-29.19,11.13c-9.09,9.32-18.53,10.2-29.17,2.7-11.09,12.16-25.33,2.65-25.23-8.4h0A13.08,13.08,0,0,1,29,114.56,18,18,0,0,1,34.39,109C15.7,79.24,64.79,49.37,82.64,79.66c12.69-22.78,49.53-9.23,46.45,15.22h0c-.06.54-.16,1.08-.26,1.62s-.19.91-.31,1.37a9.41,9.41,0,0,1,3.52,3.26,0,0,0,0,0,0,0C138,111.09,118,128.84,110.64,115.76Z"/>
          <path class="b2e9e788-3513-4132-84d5-2e94aaa7d612" d="M129.09,94.88c-.76-1.78-2.89-5.4-8.07-12.58-11.77-16.32-37.39.19-39.29,4-15.37-12.14-42.12-4-42.31,14.85,16.88-1.85,25.8,4.13,29.41,10.2C42.07,102,29,114.56,29,114.56A18,18,0,0,1,34.39,109C15.7,79.24,64.79,49.37,82.64,79.66,95.33,56.88,132.17,70.43,129.09,94.88Z"/>
          <path class="b83a0e73-f1b2-416b-8e3e-611b6be58a5b" d="M129.37,96.51c-.17.2-.54,0-.54,0Z"/>
          <path class="e49490a3-1ef0-40f4-9f7f-ab27a2532dc4" d="M110.64,115.76a22,22,0,0,1-29.19,11.13c-9.09,9.32-18.53,10.2-29.17,2.7-11.09,12.16-25.33,2.65-25.23-8.4,2.4,9.56,19.43,3.3,23.23-.33,7.27,9.25,19.17-.67,24.78-4-4,5.62,9.26,8.43,17.84,2.81s2-18.67-4-24.45c10.74,5.62,18.17,6.11,29.58,4.3-10,1.66-12.72,13.55,2.3,11.73,14.65-1.77,11.41-9.71,11.23-10.12C138,111.09,118,128.84,110.64,115.76Z"/>
        </g>
        <g>
          <path class="b83a0e73-f1b2-416b-8e3e-611b6be58a5b" d="M230.4,152.9a21,21,0,0,1-4.51,5.61c-5.81,5.2-14.54,7.72-23.26,7.08l-4.74-.35-.87.91c-7.66,7.87-20.44,11.72-32.61,9.34a45.19,45.19,0,0,1-11-3.2c-3-1.45-6.15-4-6.35-6.94a16.91,16.91,0,0,1-3.12,3c-6.73,5.34-14.18,5.17-22.83,4.66-9.43-.56-19.9-4.64-20.15-13.13,0-.49-.06-.87-.14-1.71-4.22,2.13-7.25,4.45-12.49,5.23a29.14,29.14,0,0,1-13.24-1,19.06,19.06,0,0,1-8.4-5.54,13.44,13.44,0,0,1-2.56-4.3,10,10,0,0,1-.52-4.9c.9-6.15,7-12.48,14.69-11.56-3-5.76.56-11.82,6.26-16.09s14-7.05,21.09-4.37c.81-9.7,12.06-16.68,24.24-17.64s24.61,5.84,27.82,15.22c16.77-6.21,39.43,2.91,43,17.32,11.51-5.19,27.69,1.55,30.91,11.6a11.72,11.72,0,0,1,.46,2.05A14.08,14.08,0,0,1,230.4,152.9Z"/>
          <g>
            <path class="b2e9e788-3513-4132-84d5-2e94aaa7d612" d="M231.69,142.14c-3.65-6.37-12-10-18.95-10.38-10.16-.62-14.07,3.1-14.07,3.1-.78-8.06-5.47-15.5-20.31-19.22s-22.66,2.48-22.66,2.48c-.74-5.87-5-10.84-11.07-14.14-6.86-3.77-16.61-3.88-24-1.16-8.07,3-10.69,8.94-10.2,15.92-3.13-1.24-7.66-1.08-8.39-1.14-6.63-.57-13.37,2.49-17.51,6.45a12.79,12.79,0,0,0-3.93,6.49c-.18.92.14,5.56,1.7,7.42a23.86,23.86,0,0,0-9.38,1.86c-7.81,3.1-8.72,12.47-8.7,12.74a10,10,0,0,1-.52-4.9c.9-6.15,7-12.48,14.69-11.56-3-5.76.56-11.82,6.26-16.09s14-7.05,21.09-4.37c.81-9.7,12.06-16.68,24.24-17.64s24.61,5.84,27.82,15.22c16.77-6.21,39.43,2.91,43,17.32C212.29,125.35,228.47,132.09,231.69,142.14Z"/>
            <path class="b2e9e788-3513-4132-84d5-2e94aaa7d612" d="M133.78,121.68s20.14-15,40.63.31C174.41,122,156.68,114.52,133.78,121.68Z"/>
            <path class="b2e9e788-3513-4132-84d5-2e94aaa7d612" d="M103.3,137.75s23.65-19.28,47.68.36C151,138.11,130.18,128.56,103.3,137.75Z"/>
            <path class="b2e9e788-3513-4132-84d5-2e94aaa7d612" d="M183.05,137.8s16.23-12.12,32.75.25C215.8,138.05,201.5,132,183.05,137.8Z"/>
            <path class="b2e9e788-3513-4132-84d5-2e94aaa7d612" d="M83.81,121.22c14.85-8.06,32.75-.53,32.75-.53C100.05,108.32,83.81,121.22,83.81,121.22Z"/>
          </g>
          <g>
            <path class="e49490a3-1ef0-40f4-9f7f-ab27a2532dc4" d="M230.4,152.9a21,21,0,0,1-4.51,5.61c-5.81,5.2-14.54,7.72-23.26,7.08l-4.74-.35-.87.91c-7.66,7.87-20.44,11.72-32.61,9.34a45.19,45.19,0,0,1-11-3.2c-3-1.45-6.15-4-6.35-6.94a16.91,16.91,0,0,1-3.12,3c-6.73,5.34-14.18,5.17-22.83,4.66-9.43-.56-19.9-4.64-20.15-13.13,0-.49-.06-.87-.14-1.71-4.22,2.13-7.25,4.45-12.49,5.23a29.14,29.14,0,0,1-13.24-1,19.06,19.06,0,0,1-8.4-5.54c7.65,1.21,26.22,4.85,35.84-2.78-.64.51,4.81,5,5.24,5.36,5.66,4.16,13.48,5.54,21,5.22A59,59,0,0,0,140.26,163a24.61,24.61,0,0,0,7.63-3.33c3.9,5.58,16.61,9.25,32,5.58,0,0,10.94-2.48,14.85-9.3C194.77,155.94,215.74,160.47,230.4,152.9Z"/>
            <path class="e49490a3-1ef0-40f4-9f7f-ab27a2532dc4" d="M182.26,151a34.62,34.62,0,0,0,34.29,0S199.93,170.36,182.26,151Z"/>
            <path class="e49490a3-1ef0-40f4-9f7f-ab27a2532dc4" d="M85,151.08a40.51,40.51,0,0,0,29.69,0S100.28,163,85,151.08Z"/>
            <path class="e49490a3-1ef0-40f4-9f7f-ab27a2532dc4" d="M125.62,153.46s21.83,12.71,46.49,0C172.11,153.46,149.57,177.35,125.62,153.46Z"/>
          </g>
        </g>
      </g>
    </g>
  </g>
</svg>
