<svg id="ae68c659-b45f-44e3-93e5-bf7e555d4a82" data-name="Layer 1" xmlns="http://www.w3.org/2000/svg" xmlns:xlink="http://www.w3.org/1999/xlink" width="462.9" height="482.5" viewBox="0 0 462.9 482.5">
  <defs>
    <style>
      .a5093ffc-0f6a-40e2-b429-6ddbbd8da886, .a57c3fe2-330b-4e1c-b811-f50c2b6498b6, .e020e857-f253-48d6-bca6-5fe471525e4e {
        fill: none;
      }

      .ac8a191e-643d-4c59-bcef-47ce719b76d7, .adca2605-6d6d-4a91-b60a-f9d9aa4d3aca {
        opacity: 0.5;
      }

      .ab6e96d3-c46d-4b2b-8c25-d502eb9dd224 {
        fill: url(#b0784ed0-69ae-482e-902c-8f88156f19b4);
      }

      .a268cf47-d47d-49da-9199-39d3f06bb63d {
        fill: #31d0e5;
        stroke-width: 6px;
        stroke: url(#b6bb57ca-62b8-4a45-8343-b69fdfb47ec4);
      }

      .a268cf47-d47d-49da-9199-39d3f06bb63d, .a5093ffc-0f6a-40e2-b429-6ddbbd8da886, .b2333ab4-82ac-4092-a8ae-26cdd5eb3e39, .b60be5e0-5f9a-4173-b700-008df07cd1a9, .e020e857-f253-48d6-bca6-5fe471525e4e {
        stroke-miterlimit: 10;
      }

      .f860eda0-c0ac-45b0-98ca-60d9df3b7495 {
        clip-path: url(#e29fc773-7eac-4d46-9e50-0ec78ecaa191);
      }

      .adca2605-6d6d-4a91-b60a-f9d9aa4d3aca, .aece6f94-8f90-4116-9abe-7b073f0a65c6, .b60be5e0-5f9a-4173-b700-008df07cd1a9, .b870180f-b427-49e7-830d-ef52ffa645b4, .fcecca4a-43c3-4fdf-bb54-73635b6333a4 {
        fill: #fff;
      }

      .b60be5e0-5f9a-4173-b700-008df07cd1a9, .e020e857-f253-48d6-bca6-5fe471525e4e {
        stroke: #afafaf;
      }

      .a88ae58d-ec96-47fb-a6e6-57e4a4b82647 {
        fill: #d8d8d8;
      }

      .a5093ffc-0f6a-40e2-b429-6ddbbd8da886 {
        stroke: #d8d8d8;
      }

      .a1b1247f-038c-41cd-86bc-e939db0f25b3 {
        fill: #afafaf;
      }

      .ae7ac84c-46e0-4b86-852d-3f7bf1275158 {
        clip-path: url(#b62ee965-35de-46ac-bdcf-ae66ea514a49);
      }

      .a0138117-c747-4c00-81d8-49342b84631d {
        clip-path: url(#af986780-fbf8-43e4-b17e-5c555950503b);
      }

      .b2333ab4-82ac-4092-a8ae-26cdd5eb3e39 {
        fill: url(#b49184ba-faef-43ec-b36b-1188a854ce50);
        stroke: url(#b4680c08-94e7-484f-982d-733c6f75e34b);
      }

      .bce1026c-ecdc-45e8-8886-b0229658564a {
        fill: url(#fb3a416f-27e1-4cce-860d-9ab84a938bcd);
      }

      .e2ed0b62-3e68-4d24-a975-07fe3db46674 {
        fill: url(#a6477e1d-a262-4c83-85ed-a601a6db2cff);
      }

      .b185cb5f-73db-4105-9103-5b52aaf601f3 {
        fill: url(#b9055655-5cc4-4050-9b60-ae34df02825c);
      }

      .b5d042b2-5a14-4ef8-a3ed-4f620e429581 {
        fill: url(#ea8af26c-15a5-42ec-9847-42e6ac890fea);
      }

      .afe8000e-8891-4472-9814-4148315e86b8 {
        fill: url(#a66582ab-d149-4719-820e-b29b0bb44340);
      }

      .a59f1044-bd60-4209-a794-26fce2a1a69c {
        fill: url(#a556baf1-0f84-4c86-9039-cf429e81b859);
      }

      .fa4a45fd-b881-4719-9337-67571a838d0c {
        fill: url(#e1add969-3d25-4d5d-95f4-9ebc12350b88);
      }

      .a05c35cc-3d51-49f9-b92e-83c82c8aaca5 {
        fill: url(#b2f1ebe9-e3f5-43ec-8ac4-c9582eac5e57);
      }

      .b6af9874-78f2-4b87-a1d8-da79233ab177 {
        fill: url(#f6241f87-1004-4343-891a-5c291ab35a41);
      }

      .ad899109-be8c-47cd-8ec0-21f2d695cec4 {
        fill: url(#ff9bcc43-87c6-4260-af95-157aa02ab689);
      }

      .fcecca4a-43c3-4fdf-bb54-73635b6333a4 {
        opacity: 0.4;
      }

      .b870180f-b427-49e7-830d-ef52ffa645b4 {
        opacity: 0.7;
      }

      .f056a409-3333-44d1-835c-a5ea9e99c54e {
        fill: url(#b91cb42c-cc4c-4fa1-bcdc-1a8d55898884);
      }

      .e59eb34b-8f90-4cb5-944c-edc578f5065f {
        fill: url(#b1a1652f-4108-4c3f-aa67-8a3fd59956d0);
      }

      .a0fd1926-0bdf-4a8a-8ba9-9d287df802fa {
        fill: url(#b708f79f-2803-414a-b609-aa0d97887c87);
      }

      .a9dcc4a8-93df-4e83-98b4-4cc3ec059ff3 {
        fill: url(#be1002a4-59d7-4bf4-aaa0-0824b5417c98);
      }

      .bc9af445-d9d6-4aa7-8588-c3dcb9d9b13f {
        fill: url(#f82b510b-4c44-40cb-bcd4-9e65887c0f94);
      }

      .f06aab5a-aa2c-46c8-9a06-cde8b6e2442c {
        fill: url(#f518ca9a-6758-44c1-a6b0-eda7ecd28f67);
      }

      .aad10662-d778-451b-b739-0cae7a603e53 {
        fill: url(#bf2714ee-bdaf-477c-ae76-8dcdec2e07c5);
      }

      .b8110613-7fcd-4ed2-b1d5-5e29f2af73c1 {
        fill: url(#a2628a9d-d2d7-46f4-8eee-d221f181386d);
      }

      .b587e12e-ad40-4618-b56c-2849a46d6b7d {
        fill: url(#fc0a0b57-a8f2-4e0b-a1b9-8db0f07ae39e);
      }

      .fc817acf-d9be-4661-9970-ffa7067b42f8 {
        fill: url(#f56d5488-68db-4423-a5d2-4c8bc1497557);
      }

      .bfce16bd-0a0e-4193-9e00-6facf3112979 {
        fill: url(#e9d9b1bc-73b4-41b7-a00e-04d696f4098f);
      }

      .bb9787dc-43ac-4fdc-8a30-637960627b38 {
        fill: url(#f66feea3-8aab-4a4b-af4d-0f9c51b71cf4);
      }
    </style>
    <linearGradient id="b0784ed0-69ae-482e-902c-8f88156f19b4" x1="52.73" y1="118.79" x2="402" y2="358.11" gradientUnits="userSpaceOnUse">
      <stop offset="0" stop-color="#9b81cf"/>
      <stop offset="1" stop-color="#3b139b"/>
    </linearGradient>
    <linearGradient id="b6bb57ca-62b8-4a45-8343-b69fdfb47ec4" x1="25.67" y1="241.25" x2="437.24" y2="241.25" gradientUnits="userSpaceOnUse">
      <stop offset="0" stop-color="#4c1da9"/>
      <stop offset="1" stop-color="#997ece"/>
    </linearGradient>
    <clipPath id="e29fc773-7eac-4d46-9e50-0ec78ecaa191">
      <ellipse class="a57c3fe2-330b-4e1c-b811-f50c2b6498b6" cx="230.92" cy="244.41" rx="202.98" ry="202.7"/>
    </clipPath>
    <clipPath id="b62ee965-35de-46ac-bdcf-ae66ea514a49">
      <circle class="a57c3fe2-330b-4e1c-b811-f50c2b6498b6" cx="-317.95" cy="267.42" r="248.73"/>
    </clipPath>
    <clipPath id="af986780-fbf8-43e4-b17e-5c555950503b">
      <rect class="a57c3fe2-330b-4e1c-b811-f50c2b6498b6" x="-614.93" y="-38.43" width="835.66" height="582.35"/>
    </clipPath>
    <linearGradient id="b49184ba-faef-43ec-b36b-1188a854ce50" x1="-196.42" y1="533.98" x2="-196.42" y2="-26.29" gradientTransform="translate(-344.28 -48.56) rotate(-90)" gradientUnits="userSpaceOnUse">
      <stop offset="0.24" stop-color="#b5efff"/>
      <stop offset="0.68" stop-color="#b4edff"/>
      <stop offset="0.84" stop-color="#afe6ff"/>
      <stop offset="0.95" stop-color="#a7dbff"/>
      <stop offset="1" stop-color="#a2d3ff"/>
    </linearGradient>
    <linearGradient id="b4680c08-94e7-484f-982d-733c6f75e34b" x1="-643.1" y1="147.86" x2="250.26" y2="147.86" gradientTransform="translate(-344.28 -48.56) rotate(-90)" gradientUnits="userSpaceOnUse">
      <stop offset="0" stop-color="#abe0ff"/>
      <stop offset="1"/>
    </linearGradient>
    <linearGradient id="fb3a416f-27e1-4cce-860d-9ab84a938bcd" x1="-199.37" y1="193.74" x2="-199.37" y2="247.01" gradientUnits="userSpaceOnUse">
      <stop offset="0" stop-color="#c9d8d8"/>
      <stop offset="1" stop-color="#e1d6ba"/>
    </linearGradient>
    <linearGradient id="a6477e1d-a262-4c83-85ed-a601a6db2cff" x1="182.37" y1="132.13" x2="182.37" y2="218.61" xlink:href="#fb3a416f-27e1-4cce-860d-9ab84a938bcd"/>
    <linearGradient id="b9055655-5cc4-4050-9b60-ae34df02825c" x1="220.42" y1="191.92" x2="220.42" y2="262.89" xlink:href="#fb3a416f-27e1-4cce-860d-9ab84a938bcd"/>
    <linearGradient id="ea8af26c-15a5-42ec-9847-42e6ac890fea" x1="149.28" y1="201.72" x2="149.28" y2="257.56" xlink:href="#fb3a416f-27e1-4cce-860d-9ab84a938bcd"/>
    <linearGradient id="a66582ab-d149-4719-820e-b29b0bb44340" x1="-199.37" y1="244.42" x2="-199.37" y2="474.3" gradientUnits="userSpaceOnUse">
      <stop offset="0" stop-color="#e5ddc9"/>
      <stop offset="1" stop-color="#a8b582"/>
    </linearGradient>
    <linearGradient id="a556baf1-0f84-4c86-9039-cf429e81b859" x1="3.61" y1="351.82" x2="379.2" y2="351.82" gradientUnits="userSpaceOnUse">
      <stop offset="0" stop-color="#d8d0ba"/>
      <stop offset="1" stop-color="#a4af86"/>
    </linearGradient>
    <linearGradient id="e1add969-3d25-4d5d-95f4-9ebc12350b88" x1="-174.78" y1="260.91" x2="476.31" y2="260.91" gradientUnits="userSpaceOnUse">
      <stop offset="0" stop-color="#d8d0ba"/>
      <stop offset="1" stop-color="#bec3a6"/>
    </linearGradient>
    <linearGradient id="b2f1ebe9-e3f5-43ec-8ac4-c9582eac5e57" x1="-115.32" y1="291.21" x2="443.94" y2="291.21" gradientUnits="userSpaceOnUse">
      <stop offset="0" stop-color="#d8d0ba"/>
      <stop offset="1" stop-color="#acb58f"/>
    </linearGradient>
    <linearGradient id="f6241f87-1004-4343-891a-5c291ab35a41" x1="-55.85" y1="321.52" x2="411.57" y2="321.52" xlink:href="#a556baf1-0f84-4c86-9039-cf429e81b859"/>
    <linearGradient id="ff9bcc43-87c6-4260-af95-157aa02ab689" x1="-14.39" y1="243.77" x2="-14.39" y2="524.02" gradientUnits="userSpaceOnUse">
      <stop offset="0" stop-color="#d8d0ba"/>
      <stop offset="1" stop-color="#96a376"/>
    </linearGradient>
    <linearGradient id="b91cb42c-cc4c-4fa1-bcdc-1a8d55898884" x1="-199.37" y1="354.15" x2="-199.37" y2="419.98" gradientUnits="userSpaceOnUse">
      <stop offset="0" stop-color="#ffca05"/>
      <stop offset="0.1" stop-color="#fdc50c"/>
      <stop offset="0.69" stop-color="#f0ab2f"/>
      <stop offset="1" stop-color="#eba13c"/>
    </linearGradient>
    <linearGradient id="b1a1652f-4108-4c3f-aa67-8a3fd59956d0" x1="-199.37" y1="368.82" x2="-199.37" y2="465.47" gradientUnits="userSpaceOnUse">
      <stop offset="0" stop-color="#f9a51a"/>
      <stop offset="0.22" stop-color="#f4991e"/>
      <stop offset="0.62" stop-color="#e87b28"/>
      <stop offset="1" stop-color="#da5833"/>
    </linearGradient>
    <linearGradient id="b708f79f-2803-414a-b609-aa0d97887c87" x1="173.38" y1="339.55" x2="173.38" y2="565.42" gradientUnits="userSpaceOnUse">
      <stop offset="0" stop-color="#544d45"/>
      <stop offset="0.39" stop-color="#564f46"/>
      <stop offset="0.58" stop-color="#5e5449"/>
      <stop offset="0.72" stop-color="#6b5e4d"/>
      <stop offset="0.85" stop-color="#7e6b54"/>
      <stop offset="0.96" stop-color="#957d5d"/>
      <stop offset="1" stop-color="#a18561"/>
    </linearGradient>
    <linearGradient id="be1002a4-59d7-4bf4-aaa0-0824b5417c98" x1="23.33" y1="378.62" x2="23.33" y2="564.82" xlink:href="#b708f79f-2803-414a-b609-aa0d97887c87"/>
    <linearGradient id="f82b510b-4c44-40cb-bcd4-9e65887c0f94" x1="75.31" y1="375.76" x2="75.31" y2="564.86" xlink:href="#b708f79f-2803-414a-b609-aa0d97887c87"/>
    <linearGradient id="f518ca9a-6758-44c1-a6b0-eda7ecd28f67" x1="211.24" y1="460.97" x2="211.24" y2="553.2" gradientUnits="userSpaceOnUse">
      <stop offset="0" stop-color="#a48761"/>
      <stop offset="1" stop-color="#544d45"/>
    </linearGradient>
    <linearGradient id="bf2714ee-bdaf-477c-ae76-8dcdec2e07c5" x1="5849.88" y1="472.87" x2="5849.88" y2="553.86" gradientTransform="matrix(-1, 0, 0, 1, 5943.73, 0)" xlink:href="#f518ca9a-6758-44c1-a6b0-eda7ecd28f67"/>
    <linearGradient id="a2628a9d-d2d7-46f4-8eee-d221f181386d" x1="17.14" y1="489.7" x2="17.14" y2="552.55" xlink:href="#f518ca9a-6758-44c1-a6b0-eda7ecd28f67"/>
    <linearGradient id="fc0a0b57-a8f2-4e0b-a1b9-8db0f07ae39e" x1="153.26" y1="493.18" x2="153.26" y2="560.86" xlink:href="#f518ca9a-6758-44c1-a6b0-eda7ecd28f67"/>
    <linearGradient id="f56d5488-68db-4423-a5d2-4c8bc1497557" x1="173.38" y1="453.29" x2="173.38" y2="593.13" gradientUnits="userSpaceOnUse">
      <stop offset="0" stop-color="#cea87c"/>
      <stop offset="1" stop-color="#a9865c"/>
    </linearGradient>
    <linearGradient id="e9d9b1bc-73b4-41b7-a00e-04d696f4098f" x1="23.33" y1="480.05" x2="23.33" y2="592.72" xlink:href="#f56d5488-68db-4423-a5d2-4c8bc1497557"/>
    <linearGradient id="f66feea3-8aab-4a4b-af4d-0f9c51b71cf4" x1="75.31" y1="478.09" x2="75.31" y2="592.75" xlink:href="#f56d5488-68db-4423-a5d2-4c8bc1497557"/>
  </defs>
  <g>
    <g>
      <path class="ac8a191e-643d-4c59-bcef-47ce719b76d7" d="M444.68,252.5a208.28,208.28,0,0,0-25.42-100,211.66,211.66,0,0,0-187.81-114c-116.9,0-211.67,94.78-211.67,211.68s94.77,211.68,211.67,211.68c3,0,5.93-.08,8.87-.2C353.63,459.07,444.68,366.42,444.68,252.5Z"/>
      <g>
        <circle class="ab6e96d3-c46d-4b2b-8c25-d502eb9dd224" cx="231.45" cy="241.25" r="211.68"/>
        <circle class="a268cf47-d47d-49da-9199-39d3f06bb63d" cx="231.45" cy="241.25" r="202.78"/>
      </g>
    </g>
    <g class="f860eda0-c0ac-45b0-98ca-60d9df3b7495">
      <g>
        <g>
          <path class="aece6f94-8f90-4116-9abe-7b073f0a65c6" d="M72.66,191.09s5-22.84,30.63-5.74-24.28,19-47,14.85S72.66,191.09,72.66,191.09Z"/>
          <path class="aece6f94-8f90-4116-9abe-7b073f0a65c6" d="M121.79,171.35c21.46,10.72,2,15.38-15.86,14.36S100.32,160.64,121.79,171.35Z"/>
        </g>
        <g>
          <path class="aece6f94-8f90-4116-9abe-7b073f0a65c6" d="M352.2,285.55s4.95-22.83,30.62-5.74-24.27,19-46.95,14.86S352.2,285.55,352.2,285.55Z"/>
          <path class="aece6f94-8f90-4116-9abe-7b073f0a65c6" d="M401.33,265.82c21.46,10.71,2.05,15.37-15.86,14.36S379.86,255.1,401.33,265.82Z"/>
        </g>
        <g>
          <g>
            <path class="b60be5e0-5f9a-4173-b700-008df07cd1a9" d="M157.17,136.42,284,161s35.08.33,59.39-91.79L333.07-129,211.56-88.71,281.69-36.2C281.46-32.7,291.42-11.81,157.17,136.42Z"/>
            <path class="a88ae58d-ec96-47fb-a6e6-57e4a4b82647" d="M342.42,68.63l-10-196.83L213-88.23,282.13-36.8S310.29-15.49,342.42,68.63Z"/>
          </g>
          <g>
            <g>
              <line class="a5093ffc-0f6a-40e2-b429-6ddbbd8da886" x1="187.13" y1="125.25" x2="292.24" y2="144"/>
              <line class="a5093ffc-0f6a-40e2-b429-6ddbbd8da886" x1="195.71" y1="112.41" x2="303.4" y2="131.62"/>
              <line class="a5093ffc-0f6a-40e2-b429-6ddbbd8da886" x1="206.88" y1="100.7" x2="310.93" y2="119.26"/>
              <line class="a5093ffc-0f6a-40e2-b429-6ddbbd8da886" x1="224.8" y1="77.54" x2="320.65" y2="94.64"/>
              <line class="a5093ffc-0f6a-40e2-b429-6ddbbd8da886" x1="232.55" y1="64.8" x2="326.12" y2="83.02"/>
              <line class="a5093ffc-0f6a-40e2-b429-6ddbbd8da886" x1="214.94" y1="89.41" x2="317.03" y2="107.61"/>
              <line class="a5093ffc-0f6a-40e2-b429-6ddbbd8da886" x1="241.96" y1="53.19" x2="333.29" y2="69.48"/>
              <line class="a5093ffc-0f6a-40e2-b429-6ddbbd8da886" x1="250.55" y1="40.35" x2="337.99" y2="55.95"/>
              <line class="a5093ffc-0f6a-40e2-b429-6ddbbd8da886" x1="261.71" y1="28.64" x2="334.25" y2="41.58"/>
              <line class="a5093ffc-0f6a-40e2-b429-6ddbbd8da886" x1="279.64" y1="5.49" x2="332.49" y2="14.91"/>
              <line class="a5093ffc-0f6a-40e2-b429-6ddbbd8da886" x1="269.78" y1="17.35" x2="332.56" y2="28.54"/>
            </g>
            <path class="e020e857-f253-48d6-bca6-5fe471525e4e" d="M322.7.88s13.19-9.69,14.62-11"/>
          </g>
        </g>
        <path class="a1b1247f-038c-41cd-86bc-e939db0f25b3" d="M259,232c56.49-30.14,100.15-83.72,118.5-145a229.59,229.59,0,0,0,6.74-28c.5-2.71,1.31-6.75,1.57-9.48.39-3.25,1.55-11.11,1.68-14.31.25-3.43.65-8.55.9-12,.07-4.47.31-12.37.33-16.82C388.5.89,388.5-7.44,388-12.87c-.25-3.32-.92-11-1.18-14.38l.91,9.57c.87,7.3,1.1,16.66,1.42,24,.06,4.41-.17,12.38-.22,16.85-.23,3.43-.6,8.56-.84,12-.12,3.16-1.24,11.1-1.62,14.36-.25,2.72-1,6.79-1.53,9.5a229.68,229.68,0,0,1-6.64,28.12C360.26,148.59,315.92,202.55,259,232Z"/>
        <path class="a1b1247f-038c-41cd-86bc-e939db0f25b3" d="M110.44,142.05c38,30.68,88.62,48,137.39,40.1l7.25-1.3c2.48-.69,8.32-1.94,10.71-2.68,3.23-1.1,7.33-2.21,10.51-3.41a196.4,196.4,0,0,0,20.24-8.84c2-1.12,7.72-4.24,9.7-5.33,4.76-3,10.91-6.73,15.39-10.14l6-4.33-5.92,4.42c-4.42,3.5-10.52,7.32-15.24,10.42-2,1.11-7.6,4.31-9.66,5.46a197,197,0,0,1-20.24,9.06c-3.18,1.24-7.29,2.41-10.53,3.51-2.38.7-8.29,2.09-10.77,2.73L248,183.05c-49,8.18-100-9.48-137.54-41Z"/>
      </g>
    </g>
  </g>
  <g class="ae7ac84c-46e0-4b86-852d-3f7bf1275158">
    <g class="a0138117-c747-4c00-81d8-49342b84631d">
      <g>
        <rect class="b2333ab4-82ac-4092-a8ae-26cdd5eb3e39" x="-519.92" y="-298.32" width="647" height="892.36" transform="translate(-48.56 344.28) rotate(90)"/>
        <g>
          <path class="bce1026c-ecdc-45e8-8886-b0229658564a" d="M-312.55,202.54a1,1,0,0,1,.42.67,5,5,0,0,1,4.3-1.61,23.79,23.79,0,0,0,2.62.52,4,4,0,0,0,3.44-2.38c.29-.54.37-2,.71-2.33.64-.65,2.08-.15,2.87-.48,1.22-.5,2-1.92,3.26-2.36,1.66-.58,3,1.46,4.43.85,1-.43,1.1-2.19,1.78-3.23a4,4,0,0,1,1.94-1.37c1.91-.81,3.82.18,5.72-1.12a4.71,4.71,0,0,1,1.86-1c1.44-.16,2.68,1.89,4.08,1.46s1.83-3,3.25-3.38c1.06-.28,2,.88,2.57,2s1.12,2.48,2.14,2.92c2.35,1,4.79-3.56,7-2,.51.35.87,1,1.42,1.25.84.39,1.8-.39,2.18-1.41a8.46,8.46,0,0,0,.25-3.3l6.88,1a2.44,2.44,0,0,1,1.75.79c.51.67.5,1.75.95,2.49a1.92,1.92,0,0,0,2.58.59,9.21,9.21,0,0,0,2.26-2.08,2,2,0,0,1,1.36-.82c1.15,0,1.53,2,2.53,2.74,2.5,1.83,5.31-1.75,7.82,2a3.89,3.89,0,0,0,1,1.29,2,2,0,0,0,1.39.1,39.32,39.32,0,0,0,5.85-1.68,9.8,9.8,0,0,1,4.88-.8c-.54-.82,0-2.05.61-2.78s.75-1.19,1.48-1.61,1.73.2,2.49-.54c1-1,.49-3.37,1.6-4.14s2.52,1.23,3.83.85a9.15,9.15,0,0,0,.08-2.23c0-.75.54-1.61,1.11-1.37a1.18,1.18,0,0,1,.35-1.61c1.16-.64,1.87.7,2.95-.24s.91-3,2.67-3.56a9.52,9.52,0,0,1,2.83,6,2.85,2.85,0,0,0,.34,1.36c.77,1,2.17-.57,3.22-.08a8,8,0,0,0-.86,4.53c5.51-2.11,8.18,3.19,12.32,6a2.47,2.47,0,0,0,3.4-.3c.59-.74.93-2,1.76-2.09.62-.08,1.13.55,1.68.9a2.18,2.18,0,0,0,2.83-.52,3.7,3.7,0,0,0,.53-3.47,4.07,4.07,0,0,1,2.86-.51,2.19,2.19,0,0,1,1.26,2.73l4.8,2.53a3.18,3.18,0,0,1,1.17.9c.33.49.44,1.15.76,1.65,1,1.56,3.63,1.41,3.6,3.39,1.68-1.46,4.38-.35,5,2a18.32,18.32,0,0,1,6.11-3.79l1.56,3.56a11.76,11.76,0,0,0,5.42-3.24A8.17,8.17,0,0,1-138,202c1.47.72,3.16,1.75,3.39,3.69.48,4,4.42,5,7.25,6a4.25,4.25,0,0,0,2.82.25c2.63-1-.16-4.08,2.19-4.85,1.11-.36,4.75,2.77,5.28.07.14-.67-.23-1.39-.06-2.06.26-1,1.53-1,2.29-.4s1.54,1.43,2.42,1.22a4.27,4.27,0,0,1,.75-1.49,1,1,0,0,1,1.32-.21c.36.32.45.94.73,1.37.79,1.22,2.6.39,3.48,1.51.37.49-.5,2.47.68,2.86.53.17.86-.87,1.26-.91.68-.06.64-.3,1.53-.13,1.57.3,4.05,2.15,2.63,4.33,1.61.87,5.74,12.36,7.83,5.54.42-1.36,0-2.92.31-4.34s2.11-2.35,2.53-1a3,3,0,0,0,.69-2.55c.76,1.21,2.35.76,3.31-.2s1.7-2.32,2.84-2.9a1.84,1.84,0,0,1,2.6,1.88,5.18,5.18,0,0,0,5.35-1.39c.23.7.45,1.4.68,2.1a3.81,3.81,0,0,1,5.67.12c-.2-1.5,1.56-2,2.79-1.92,2.17.13,4.47-.09,6.25-1.62a4.93,4.93,0,0,1,4.36-3.57A5,5,0,0,1-50.5,207c1.56-.77,2.46-3.28,4.14-3.35.86,0,1.62.61,2.43.94a1.56,1.56,0,0,0,2.21-.82c-.19.66,10.17,2.79,11.27,3.07,1.49.38.1-.67,1.89.68,1,.73.8,1.94,2.11,2.22,1.09.24,1.73-.86,3-.12a31.84,31.84,0,0,1,2.35,2.4c.78.83,2.14,3.11,3.12,3.29.55.1,1.53-1.07,2.2-1.18,1.47-.23,1.44.26,2.58,1.07,2.1,1.49,2.56,1.81,4.74,1.5,1.74-.25,2.33-1.38,3.76,1.53,2.09-1.08,3.23-.9,5.08.39.7-1.38,2-1.23,3.27-.83,2.29.73,2,3.1,3.8,4,3.89,1.87,3.32-6.19,7.69-.76,1.25-.41,1.94-2.15,3.24-2.28,1.07-.11,1.72,1.1,2.67,1,1.35-.07,2.33-2.91,4.14-2.46,1.14.28,1.48,2.21,2.45,2.85,1.48,1,1.64.07,3.16-.18s2.74.42,4.21.67c2.43.42,2.67-1.54,4.65-1.64.94,0,1.59,1.76,2.44,2,.69.22,1.18-.15,1.83-.19,1.17-.08,2.17-.94,3.49-.83,1,.08,2.32,1.44,3.32,1,1.93-.94,2.62-7.55,5.58-5,.8-1.19,1-2.83,1.61-4.06,0,.05,2.3,2.58,2.92,2.21.88-.52.28-3.13,2-3.83a13.21,13.21,0,0,0-1.13-4l1.63-.28-1.46-1.63c-.18-1.66,1.07-3.32,2.42-3.21a2.71,2.71,0,0,1,.35-3.51,1.79,1.79,0,0,1,2.67,1.27c.58-.35.5-1.39.62-2.19a2.52,2.52,0,0,1,2-2.25,2.34,2.34,0,0,1,2.25,1.89,11.78,11.78,0,0,0,2,3l5.1,6.24,2.06-1.23a4.44,4.44,0,0,0,.64,1.53c-.9-1.34,3.37-2.94,4.65-1.47.49.57.83,2.23,1.28,3,1,1.58,2.42,2.21,3,4.28,1.78-2.06,1.67-4.28,4.22-3.43-.08,0,2.64,1.84,2.6,1.81.73.63,1.75,2.17,2.57,2.69,1.72,1.08,3.71.23,4.89,2.92.75-2.1,8-.22,9.9-.22.46,0,1-.84,1.44-.77,1.51.22,2.45,2.28,3.7,3.17,2.14,1.53,2.28.79,4.45.35,1.57-.32,4.22.11,5.77-.39,1.71-.56,2.85-2.38,4.68-3,2.67-.82,4.32-2,6.8-3.15,1.9-.88,5.7-2.51,7,.15,1-1.06,2.15-3.88,3.65-4,1.05-.05,1.21,1.77,1.9,2.07,2.24,1,.37,1.8,2.88,1.51.85-.1,1.45-1.28,2.43-1.37,1.39-.13,2.08,1.67,3.49,1.82.92.1,1.7-1.25,2.73-1.05s1.9,2.37,2.9,2.05c.63-.21,1.83-4.24,2.29-5.08a4.32,4.32,0,0,0,1.67,3c2-1.56,3.79-1.12,5.85-1.46s3.94-1.7,6.08-1.66c2.65.05,9.58,2.22,11.51-1.19a16.11,16.11,0,0,1,.81-1.73c.36-.5,1.1-.69,1.4-.14a9.87,9.87,0,0,0,.79-4.56,5.94,5.94,0,0,1,2.78,0l-.09-2.09c.82-.77,2-.18,2.82.59s1.61,1.78,2.63,1.85c1.73.12,2.73-2.34,3.27-4.38a8.41,8.41,0,0,1,4.7,6,3.14,3.14,0,0,1,3.65-.82,10.72,10.72,0,0,1,3.32,2.5,7.08,7.08,0,0,0,5.42,2,14.64,14.64,0,0,1,2.27-.34c1.61.07,3.24,1.1,4.87,1.36,2.12.35,4.33.48,6.48.71.28,0,5.36.48,5.36.57V334.93H-645.55V207.54c0,1.78,10.87.22,11.91-.26,1.75-.83,2.64-2.49,4.18-3.55s4.64-1,4.9.64a5.57,5.57,0,0,1,2.78-3.84c1.65-.75,4.32.21,4,1.72,1-1.25,2.4-2.57,4.25-2.61s3.31,2.24,1.72,3a10,10,0,0,1,3.64-1.6,4.52,4.52,0,0,1,2.33,3.39,3.39,3.39,0,0,1,1.84.1,2.44,2.44,0,0,1,.23,1.81,3.19,3.19,0,0,1,3.34-.39c1.49.75,1.32,3.09,3.39,2.81,1-.14,2-.79,3-.89,1.4-.13,2.72.75,4.09,1.13a2.76,2.76,0,0,0,3.59-1.69,2.32,2.32,0,0,1,.49-3c-.73-.18-.95-1.53-.46-2.23a1.59,1.59,0,0,1,2.07-.41,5.66,5.66,0,0,1,1.74,1.71l2-.59,4.41,4.93c2.23.94,3.78,3.89,3.59,6.8a4.61,4.61,0,0,1,.1,4.83,4.56,4.56,0,0,1,3,.14l-.31,2c1.47.51,2.47,2.55,2.16,4.4a3.3,3.3,0,0,1,2.83,1.58c.26-1,1.59-.59,2.08.3s.79,2.14,1.62,2.46,1.49-.32,2.11-.89l4.3-4a3.39,3.39,0,0,1,.09-4.08,1.61,1.61,0,0,1-.72-1.19,2,2,0,0,1,.6-1.9c-1.2-.08-2.08-1.87-1.6-3.22l2.45-1.24c0-2.3,0-4.74,1-6.7s3.25-3.12,4.75-1.75c.91.83,1.47,2.47,2.6,2.56.64,0,1.24-.47,1.88-.44,1.29.06,1.84,2.09,1.86,3.7s0,3.56,1.1,4.41a2.47,2.47,0,0,1,2.11,2.14,3.06,3.06,0,0,1-1.18,3,4.47,4.47,0,0,1,1.75,3.17c2.65.25,5.12-3.06,4.71-6.31l2.64,2.08c-1.36-1.07,5.41-3.63,5.56-3.68,1.91-.66,3.23-3.07,5.33-2.92a4.89,4.89,0,0,0,1.61.08c.53-.15.81-.62,1.2-1a3.06,3.06,0,0,1,4,.3l.6-1.27A11.67,11.67,0,0,1-507,212c1.1-1.73,4.58-1.93,6-.35l3-2.68a5.61,5.61,0,0,1,2.78,2c-.27-2.11,3.11-3.08,5.7-3.32l1.56,2.12a2.27,2.27,0,0,1,1.76-2.61,3.14,3.14,0,0,1,3.39,1.14,9.06,9.06,0,0,1,7.73-1.19l-.09,1.7c1-.93,3.26-.35,3.42.88a5.26,5.26,0,0,1,3.37.22c-.7-.3,1.26-2.45,1.39-2.56a6.38,6.38,0,0,1,3.73-1.23c2.14-.13,4.1.8,6.25.7a8.83,8.83,0,0,0,.51,2.47c.34.78,1.06,1.37,1.75,1.16s1-1,1.57-1.48,1.52-.52,1.65.29l.7-2.55a2.75,2.75,0,0,0,4.2-.72c.34-.53.59-1.21,1.09-1.47.82-.42,1.67.6,2,1.61s.54,2.22,1.27,2.86a6,6,0,0,0,1.53.75,1.67,1.67,0,0,1,1,1.48c0,.61-.5,1.26-.2,1.76.19.33.6.31.93.21,2-.61,3.56-2.93,3.69-5.47,0,.83,3.23.26,3.66.44a5,5,0,0,1,2.49,4l1.95-.21c-.11,1.09-.21,2.18-.32,3.27,1.42-1,3.28-.06,4.48,1.34s2.11,3.22,3.51,4.3c.71.55,3.31,2.32,4.11,1.83A6.72,6.72,0,0,0-414,221c.49-.63,1.26-1.13,1.87-.71.44.3.62.94.91,1.43.92,1.57,2.79,1.61,4.32,1.24,3.17-.75,7.86-.16,8-5.86l2.88.32a2.77,2.77,0,0,1-.08-2.46,1.78,1.78,0,0,1,1.8-1.08c.59.1,1.28.51,1.71,0s.09-1.43.05-2.19a2.84,2.84,0,0,1,1.24-2.41,5.63,5.63,0,0,1,2.34-.74,2.61,2.61,0,0,1,1.24-3.28c.6-.33,1.32.53,1.88.2.77-.44.82-1.49,1.41-2.16,2.49-2.85,4.83.78,7.18-1.09.65-.52.85-1.92.17-2.41,2.76.65,5.59-.16,8.32-1a26.28,26.28,0,0,1,3.87-.94,4,4,0,0,1,2.91.47c.86.6,1.47,1.77,2.43,2,1.82.49,3-2.39,4.69-3.33,2.6-1.42,8.47,2.75,9.22,6a2,2,0,0,1,2.25-1.46,1.63,1.63,0,0,0,.15,2,2.16,2.16,0,0,0,1.71.58c2.12-.07,4.07-1.36,5.93-2.63,2.61-1.76,4.28,3.75,5.14,5.55,1.48-.24,2.58-1.75,3.83-2.77s3.21-1.39,4,.18a1.43,1.43,0,0,0,.49-1.6c1.68-.86,3.59-1.73,5.25-.83a5.58,5.58,0,0,0,1.33.68,5,5,0,0,0,1.87-.4A1.42,1.42,0,0,1-312.55,202.54Z"/>
          <g>
            <path class="e2ed0b62-3e68-4d24-a975-07fe3db46674" d="M190.85,185.2a8.72,8.72,0,0,0,3.15,1.24c-.82-2.36-2.46-3.69-4-5.17,1.18-.11,2.38,0,3.53-.13-.62-2.13-3.21-1.53-3.77-3.67-.33-1.3,1.24-3.4,1.52-4.76a2.68,2.68,0,0,0-2.85,1.19c-.68-1.48-.43-3.59-.47-5.38-1.34.33-1.69,2.51-2.44,4.07-.83-1.47-1.3-3.94-2.33-5.54a7.73,7.73,0,0,0-.53,4,12.06,12.06,0,0,0-5.16-4.07,19,19,0,0,0,.2,5.54l.59.36c-1.71.14-3.5-.81-5.09,0a22.61,22.61,0,0,0,2,5.11c-1.74,1-3.5,1.91-4.51,4a2.22,2.22,0,0,0,2.92.55,38,38,0,0,1-1.6,4.65c.7-.05,1.42.48,2.07.48-.06,2.56-3.19,5.82-1.93,8.23,1-1,1.71-2.34,2.66-3.4-.13,2-.11,4-.05,6,.32-1,.9-2,1.17-3,.76,1.73.48,4.24,1.5,6.06.32-.59.66-1.16,1-1.71a4.07,4.07,0,0,1,1.36,1.32,16.42,16.42,0,0,0,1.4-2.4v39.17h2.2V200a6.27,6.27,0,0,0,1.76,2.11,31.23,31.23,0,0,0,.48-6,43,43,0,0,1,3.3,3.06c.29-2.13-.75-4.94,0-6.89.88.32,1.57,1.37,2.38,1.93.73-1.54.23-3.78-.37-5.24a8.82,8.82,0,0,1,2.67.88C192.74,188.23,191.78,186.73,190.85,185.2Z"/>
            <path class="b185cb5f-73db-4105-9103-5b52aaf601f3" d="M224.81,180.93c.52-.32,1.8.24,4.87,1.43-1.53-3-5-4.61-6.62-4.54.84-.84,1.61-1.77,2.42-2.64a5,5,0,0,0-4.68,1.08c-.43-1.75.48-4.16.76-5.91a9.44,9.44,0,0,0-3,4.87c-.81-1.64-3.92-2.48-5.49-2.36a5.76,5.76,0,0,0,3.45,3.18c-2-.31-.67.64.18,1.26a14.24,14.24,0,0,0-5.54,3.22c1.74-.09,2.43-.85,4.23-.78-1.46,2.5-3,3.1-4.06,6,1.41-.91,3-2.78,4.74-2.2-.41,3.32-3.21,6.09-4.43,9,1.51-.08,2.9-1.47,4.49-1.5-.41,1.82-1.23,5.67-2.65,6.7,1.22-.71,2.52-2,3.89-2.07-.26,2.58-1.54,4.85-1.85,7.37.66-1,1.57-3,2.58-3.31-.18,2.73.31,5.43.13,8.12.3-1.35.7-2.75,1.12-4.05.25-.77.49-1.82.77-2.87v37h2.2V199.18l0,.07c.65,2.22,1.75,4.52,2.21,6.79,0-2.37,0-4.75,0-7.11.47,1,1.07,1.93,1.45,2.94a20.91,20.91,0,0,0-1.8-9.58,19,19,0,0,0,2.48,2c0-3.42-1.47-5.23-1.66-8.5,1.3.55,3.09,2,4.35,2.54C228.91,186.28,226.06,182.33,224.81,180.93Z"/>
            <path class="b5d042b2-5a14-4ef8-a3ed-4f620e429581" d="M152.74,193.07c.4-.25,1.41.19,3.83,1.13a6.73,6.73,0,0,0-5.21-3.58c.66-.66,1.26-1.39,1.91-2.07a3.92,3.92,0,0,0-3.69.84c-.34-1.37.38-3.26.6-4.64a7.45,7.45,0,0,0-2.36,3.83c-.64-1.29-3.08-2-4.32-1.86a4.5,4.5,0,0,0,2.71,2.51c-1.56-.25-.53.5.14,1a11.19,11.19,0,0,0-4.36,2.53c1.38-.07,1.92-.67,3.34-.61-1.16,2-2.4,2.43-3.2,4.69,1.11-.71,2.34-2.18,3.73-1.73-.33,2.61-2.53,4.79-3.48,7.1,1.18-.06,2.27-1.16,3.53-1.19-.33,1.44-1,4.47-2.08,5.28.95-.56,2-1.55,3-1.63-.2,2-1.21,3.82-1.45,5.8.51-.76,1.23-2.34,2-2.61-.15,2.15.24,4.27.1,6.39.23-1.06.55-2.16.88-3.18.2-.61.38-1.44.6-2.26v29.07h1.74V207.49c.51,1.74,1.38,3.55,1.74,5.33,0-1.86,0-3.73,0-5.59.38.76.84,1.52,1.15,2.32a16.67,16.67,0,0,0-1.42-7.54,15.68,15.68,0,0,0,1.95,1.56c0-2.7-1.16-4.12-1.31-6.69,1,.44,2.43,1.55,3.43,2C156,197.28,153.72,194.17,152.74,193.07Z"/>
          </g>
        </g>
        <g>
          <polyline class="afe8000e-8891-4472-9814-4148315e86b8" points="246.81 551.5 246.81 236.65 -645.55 236.65 -645.55 551.5"/>
          <g>
            <path class="a59f1044-bd60-4209-a794-26fce2a1a69c" d="M246.81,353.32v-3H38.54Z"/>
            <polygon class="fa4a45fd-b881-4719-9337-67571a838d0c" points="-114.23 258.32 246.81 263.51 246.81 258.32 -114.23 258.32"/>
            <polygon class="a05c35cc-3d51-49f9-b92e-83c82c8aaca5" points="246.81 293.44 246.81 288.99 -63.31 288.99 246.81 293.44"/>
            <polygon class="b6af9874-78f2-4b87-a1d8-da79233ab177" points="246.81 323.38 246.81 319.65 -12.39 319.65 246.81 323.38"/>
          </g>
          <path class="ad899109-be8c-47cd-8ec0-21f2d695cec4" d="M140.9,576.31h-23l-5.09-5.9L63.41,513.12,25.57,469.24C12.71,454.33.44,437.93-14.25,425.07a28.41,28.41,0,0,1-5.48-6.35c-1.44-2.24-2-5.35-3.55-7.39-1.67-2.2-4.62-3.31-6.67-5.26a10,10,0,0,1-1.45,1.6c-2.07-1.07-2.08-3.55-4-4.38-.19,1.47-.38,3.61-.71,4.95-1.17-2.56-5.56-15.86-9.59-12.78-3.42-1.69-6.07-24.09-11.62-14.15-1.16-3.49-2.64-10-5.2-12.41-1.26-1.21-1.94-1.31-3.16-2.6-1.66-1.76-2-4.43-3.88-6-3.62,3.91-4.11-7.87-6-7.84a8.91,8.91,0,0,1-1,3.92c-2.52-2.67-4.71-6.32-6.7-9.47-1-1.53-2.66-8.18-5.12-7.28-1.47-3.7-3.22-4.42-5.17-7.86a6.44,6.44,0,0,1-.72,1.58c-.83-1.89-5.34-11.84-6.79-11.58a9.5,9.5,0,0,0-.71,4.63c-.46-1.5-1.63-2.35-2.31-3.58-.84-1.53-1.35-3.35-2.21-4.92-5-9.17-13.11-16.66-19.8-24.43-14.51-16.83-28.54-34.39-43.65-50.62q23.07,24.8,46.16,49.57c3.92,4.21,7.56,8.76,12.31,11.91,4.34,2.86,6.82,7.89,11.37,10.46,6.51,3.67,8.22,10.72,13.23,16,2.38,2.52,5.1,3.73,7.68,5.9,2,1.68,1.84,3.94,3.31,5.33,1.23,1.16,2.91,1.19,4.31,2a15.94,15.94,0,0,1,4,3.91c2.1,2.49,3.37,5.6,5.48,8.11a29.29,29.29,0,0,1,4.65,7.31c1.17,2.58,3.45,3.92,5.7,5.22,2.62,1.51,2.35,1.55,3.68,4.21a15.41,15.41,0,0,0,3.45,4.55,1,1,0,0,1,1,.16,3.17,3.17,0,0,1,2.37,2.2c.69.58,1,1.15,1.75,1.64,3.15,2.15,2.62,1.92,4.91,5.84,2,3.48,4,9.14,6.91,11.55,3.27-1.85,4.19.79,7.16,2.5,2.79,1.6,5.76,2.48,8.48,4.3,2.9,1.94,4.9,4.93,6.65,8s2.12,6.14,3.7,9.06c4.27,7.91,11.59,13.33,17.49,19.68l21.74,23.34,40.09,43.05q27.47,29.49,54.92,59C133.9,568.8,139.19,576.31,140.9,576.31Z"/>
        </g>
        <g>
          <path class="fcecca4a-43c3-4fdf-bb54-73635b6333a4" d="M-321.87-53.77c-1.84,3.34-3.72,9.35-1.61,13.16,3.28,5.9,9.85,2.87,14.81,3.31-.49,2.21-1,6.62-.34,8.81,2,6.43,7.34,2.73,12.56,2.42-.69,9.49,6,8.13,12.18,8.36-3.13,4.76-1.11,8.64,3.89,8.65-5.69,8.39,2.92,12,10.18,10.89-3.47,7.17,5.68,10.9,10.74,8.86a9.15,9.15,0,0,0,3,8c3.57,3,6.54.42,10.6-1.44.21,7.51,4.49,11.24,11,10.44-6,5.25-3.48,13.09,2.6,16.37-4.68,3.75.94,13.58,6.1,12.8-6.33,9.57,4,9.71,9.6,10.12-5.18,3-2.6,10.39.74,13.21-6.24,4.37-3.47,15.14-.51,20.92-10.28,1.62-9,20.29,0,23.3-4.56,7.17-8.17,9.79-7.59,20.33.39,7.11,2.58,11.29,8.3,14.73-8.76,14-1.37,28.85,13.37,28.48.15,9.22,7.3,17.39,15.8,10.37-1.34,11.67,10,15.7,17.55,9.35-.09,9.1,5,11.77,13.77,10.26-2.56,11.45,7.78,15.8,16.49,9.17-.77,9.82,11.94,10.7,17,5.87,2.09,8.82,11.82,5.62,16.56,3-.48,9.75,2.06,11.81,12.42,9.29-1,11.84,3.06,14.49,14.81,16.25-6.71,15.46,14.43,20.83,21.38,9.38.3,12.36,14.66,9.77,19.28,1.76,6.43,8.51,14.15-2.57,17.26-8.09,3.65,1.38,9.23.89,12.38-1.54.2,8.84,5.16,19.79,15.24,12.77-2,13.7,9,17.23,19.28,10.93-3.34,10.85,9.81,9.77,15.87,6.61-.9,2.93.39,4.79,2.6,7,9.41,9.22,22-2.69,24.26-13.25,4.77,6.4,24.71,4.23,23.48-7,5.37,6,19.74-4.33,19.66-11.84,2.29,10.15,23.14-5.94,25.32-9.74,2.51,11,19.29,5.56,24.4.69,9.42,9.4,19.41-3.2,18-14.3,4.91,7.89,17.94-9.08,19.79-12.89-1.18,8.3,11.21,8.12,15.9,6.62-1.56,7.53,10.86,11,15.6,9.24-1,7.31,7.57,10.54,15,9.75V-72.84H-342.06C-340.52-61.42-334.11-53-321.87-53.77Z"/>
          <path class="fcecca4a-43c3-4fdf-bb54-73635b6333a4" d="M146.44-64.9c-4,4.76,2,14.92,6.69,12.32-2.75,2.55-3.08,15.62,1,13.93-2.74,1.86-8.83,7.24-7.81,12.43-3.39,1.25-6.7,2.39-8.43,6.6-.81,2-2.38,8.18.53,8.78-2.66-.39-5.35,1.72-6.49,4.78-.3.81-.45,8.83,1.19,7.83A6.8,6.8,0,0,0,130,5.09c-.75,2.15-.2,8.39,1.69,9-1.61,1.88-5.92,7.62-5.65,10.75-3.08-2-6.91,2-7.54,5.65-4.5.62-9.93-.12-11.28,7.5-.32,1.85.27,4.22.37,6-3.27,1.07-7.66,6.35-4.73,10.75-2.48-.35-5.92,3.7-6.16,6.91-2-.35-4,1.38-4.21,4-3.66-4-10.15.41-11.12,5.27-3.8-2.59-9.11-1.26-9.46,5.32-3.81-1.45-9.4,3.54-8.84,8.89-1.93-.29-4.11-.67-5.89.65s-1.72,5.09-3,6.46-3.4.52-4.81,1.81C46.74,96.48,48,100,45,101.87c-.33.22-9.4,6.28-7.82,7.27-3.65-2.3-8.67.76-9.59,5.84-3.33.08-6.41,3.59-6.86,7.83-2.57-1.59-6.26,1-7.09,4.5a4.89,4.89,0,0,0-6.41,1.22,4.09,4.09,0,0,0-4.78-.61,5.05,5.05,0,0,0-2.22,2.71c-.15.38-.77,3.58-.38,3.57a4.17,4.17,0,0,0-3.3,2.1c-.09-2.49-1.83-4.71-3.78-4.79s-3.82,2-4,4.45A3.56,3.56,0,0,0-16,134.42c-1.6.88-2.62,3.25-2.36,5.47-1.53-1-2.65-2.44-4.41-2.1-.57.11-4.62,2.8-4,3.87a5.05,5.05,0,0,0-5-2.84,5.93,5.93,0,0,0-4.34,4.36,4.42,4.42,0,0,0-4.8-2,5.83,5.83,0,0,0-3.65,4.44,5.19,5.19,0,0,0-6.06-.73c-2.08,1.18-2.07,3.71-3.48,5.18s-2.23-1.24-3.89-2a5.3,5.3,0,0,0-3.82-.41c-2.62.73-4.78,3.64-5.21,7-2.41-1.1-5.37.62-6.31,3.65-1.54-4.75-8,.89-6.75,5.47-.57-2-3.33-3-4.74-1.92-1,.77-2.88,6.34-1.32,7.31a6.5,6.5,0,0,0-8.48.91,12.46,12.46,0,0,0-3.09,9.81c-3.34-.81-6.8,3.42-6.32,7.74a6.91,6.91,0,0,0-6.78,3.31,11.66,11.66,0,0,0-1.82,6.1,12,12,0,0,0,.3,3c-3.75-.22-7,5.22-5.77,9.78-3-.39-5.71,3.83-4.85,7.51-2.76-.56-5.48,3.15-4.87,6.64-3.82-1.21-6.47,2.46-7.74,6.5A7.18,7.18,0,0,0-142.4,232c-.55.47-4.9,6.37-3.59,7.25-4-2.69-9.66.3-11,5.83-4.56-1.81-10,2.52-10.72,8.56a4.71,4.71,0,0,0-6.48.24,8.62,8.62,0,0,0-1.87,8c-3.83.39-6.77,6-5.62,10.67-2-.36-4.13,1.27-4.83,3.71a6.92,6.92,0,0,0,1.82,6.84c-10.46,12.83-17.89,29.69-21.07,47.81.19-1,5.39-28.7,30.92-54.8,1.52,1.19,4.19-.46,5.64-1.79a7,7,0,0,0,1.81-6.05c3.69.54,7.23-4.27,6.58-8.95.7,5.09,8.22-2.83,9.42-4.18,1.74,3,6.78,3.19,7.15-1.6,4.5,3.74,11.13,2.37,14.48-3,3.24,1.22,7-1.63,7.81-5.84,3.6,3,9.29-.21,9.93-5.68,6,1.49,12.31-5.31,12.23-13.11,5.26,3.44,12.63-1.4,13.52-8.89,4.85,1.2,9.83-5.14,8.94-11.36a5.26,5.26,0,0,0,6.93.31c2.09-1.65,3.28-5,2.9-8.08,4.38,3.75,11.33.11,12.42-6.5,2.44,2.57,6.82.44,7.32-3.56a3.78,3.78,0,0,0,3.93,2.81c1.6-.29,3-2,3.19-4.08,1.57,2.6,4.33,3.9,6.83,3.21s4.61-3.34,5.2-6.53c1.26,3.92,4.85,6.36,8.09,5.48s5.76-4.95,5.68-9.19a5,5,0,0,0,5.31,3.08c2-.43,3.78-2.52,4.26-5.08C-5.69,179.67.3,181,1.21,181c2.47-.06,4.48-3.58,4.92-6.69,2.27,4.91,9.32,2.68,11.39-2.39,1.72,3.84,5.39,6.07,8.79,5.34,1.52,4.29,5.36,7,9,6.36-.25,6.74,6.33,12.14,11,9,.5,4.22,3.1,7.9,6.33,8.95s6.88-.6,8.88-4c4.17,6.15,13.13,4.85,16.13-2.33,1.53,4,4.91,6.66,8.37,6.67s6.84-2.67,8.38-6.64c2.31,3,6.13,4,9.16,2.31s4.71-10.07,4.84-14.24c3.65,2.6,10.08,2.4,11.52-3.72,3.23,5.48,12.18,0,11.08-5.59,2.18,2.72,4,2.69,6.73,1.85,2.26-.69,8.57-5.17,7.32-8.95,5.1,6.61,13-1.71,13.94-8.8,5.11,3.08,11.48.59,13.33-8.07,6.59,3,7.72,1.91,13.52-3,4.91,7.64,18.42,4.09,17.93-7,3.38,8.74,12.06,4.36,12.67-4.25,1.29,2.38,5,4.45,7.64,4.52,6.38.15,6.09-5.07,7.71-10.67,5.25,4.24,11.18,3,15-1.44v-201H142.22C142.21-70,143.87-67.35,146.44-64.9Z"/>
          <g>
            <path class="b870180f-b427-49e7-830d-ef52ffa645b4" d="M109.81,218.05c-11.82,4.44-26.23-4.18-29.39-17.58C75.36,208.39,66.34,213,57.63,212c.79,4.28-1.35,9-4.92,10.86a8.52,8.52,0,0,1-10.66-2.78c-3.53,6.34-10.47,10.14-17.16,9.4s-12.81-6-15.13-13c-13,9.05-32,5.08-41.13-8.58-5.77,7-16.44,8.26-23.38,2.66s-9.19-17.24-4.92-25.5c-8,2.58-15.84-9.67-11-17.19-7.61,5.74-19.64,1.47-22.84-8.11-3.52,8.49-14.44,11.83-21.39,6.55-1.39,9.77-13,15.63-20.58,10.35-2.6,5.17-8.14,8.31-13.44,7.63s-10.05-5.14-11.52-10.83c-8.2,6.84-22.2,3-24.31-8.17-.89,6.48-4.41,13-10.07,14.93s-12.87-3.11-12.23-9.63c-2.15,5.67-4.51,11.65-9.06,15.18s-12,3.21-14.59-2.22c1.4,5.2-1,11.33-5.43,13.7s-10.25.69-13.06-3.75c-1.9,5.28-7,8.92-12.14,8.63s-9.88-4.48-11.3-9.95c-1.51,7.4-11,10.95-16.23,6.07a14.07,14.07,0,0,1-2.35,14.37,10.86,10.86,0,0,1-13,2.33c-.24,5.79-3.89,11.22-8.81,13.13a12.65,12.65,0,0,1-14.27-4.17c-2.58,11.47-16.24,17.81-25.41,11.79A17.38,17.38,0,0,1-359,251c-7,5.29-14.17,0-21.46,3.9-6.47,3.46-11.49,9.59-15.51,16-8.21,13.16-13,28.83-16.89,44.13-6.74,26.82-7.11,55.73.26,82.45-16.64-38.32-16.14-85.27,1.31-123.15,4.53-9.83,10.29-19.8,9.78-30.83-.19-4.14-1.27-8.35-.31-12.36.86-3.61,4-6.25,7.34-5.84-1-4.3-1.5-8.74.47-12.92a13.17,13.17,0,0,1,10.8-7.68c-1.06-5-1.16-10.56,1.34-14.87s8.23-6.48,11.93-3.43a12.17,12.17,0,0,1,4.16-12.34,9.55,9.55,0,0,1,11.86.55,12.18,12.18,0,0,1,5.32-10.87,9.78,9.78,0,0,1,11.13.69c.66-4.28,5.23-6.73,9.07-6s7,3.88,9.48,7.21c.79-7.4,7.49-13.38,14.17-12.63a9.89,9.89,0,0,1-.22-11.16,7.66,7.66,0,0,1,9.82-2.44c-1.56-.87,7.9-10.79,9.36-11.57,5.44-2.91,12.59-.63,16.13,4.66,1.23-4.37,4.9-8.9,9-10.08s6.36,1.34,10.42,1.82c-2.14-5.29-1.92-11.65,1.6-16.19a12.33,12.33,0,0,1,14.37-4c-3-9.46,4.62-21,13.65-20.59a16,16,0,0,1,1.8-15.76A12.39,12.39,0,0,1-205,63.53a10.77,10.77,0,0,1-1.16-12.16,8.47,8.47,0,0,1,10.52-3.61c-2.52-7,.76-15.9,7-18.93-2.12,1-.58-10.64-.28-11.46a13.21,13.21,0,0,1,6.35-7.54c-7.48-7.89-4.94-25.21,6.16-27.52-3.67-8.43-1.61-19.47,4.78-25.58-12.75.33-23.56-15.48-19.83-29l.06-.56H246.81V223.8s-9.44,8.92-28.22,5.11c-22.92-4.66-20.38-21.16-20.38-21.16s-5.92,7.29-18.41,8.75-19.07-6.56-19.07-6.56a12.75,12.75,0,0,1-11.83,12.4c-6,.74-12.49-8-12.49-8s-2,13.13-15.12,13.13C113.37,227.45,109.81,218.05,109.81,218.05Z"/>
            <path class="adca2605-6d6d-4a91-b60a-f9d9aa4d3aca" d="M-230-68c1.13,6,5.17,10.84,9.92,13.89s10.17,4.49,15.54,5.68A13,13,0,0,0-200-35.8a10.2,10.2,0,0,0,12.26-.15c2.27,10.32,14,16.59,22.66,12.15a22.1,22.1,0,0,0-1.34,21.87,11,11,0,0,0-4.41,10.32,10.21,10.21,0,0,0,6.92,8.46C-170.55,22-177.36,30-179.65,38.6c-1.54-4.44-4.93-7.34-8.77-4.53-2,1.43-6.51,7.26-4.86,10.31a8.69,8.69,0,0,0-6.8-4.62,8.4,8.4,0,0,0-7.3,3.55,7.27,7.27,0,0,0-8-2.06,8.57,8.57,0,0,0-5,7.24,8.93,8.93,0,0,0-9.06.52,11.1,11.1,0,0,0-4.62,8.66A8.17,8.17,0,0,0-245.29,59a10.62,10.62,0,0,0-.33,12.45,9.5,9.5,0,0,0-8,6.8A11.09,11.09,0,0,0-251,89a12.93,12.93,0,0,0-7.11,10.19,13.78,13.78,0,0,0,4.46,11.9c-3.82,4.33-2.76,12.61,2,15.59-5.83,3.67-9.71,10.88-9.87,18.31A18.81,18.81,0,0,0-276,146.5c-1.52.87-9.64,10.24-9.95,10.18-6.85-1.46-14.29,4-15.81,11.51-7.48-2.74-16.49,3.77-17.27,12.47-6.65-3.86-16,.43-18.28,8.38-7.56-2.6-16.55,3.61-17.78,12.29a8.69,8.69,0,0,0-10.74.35,11.2,11.2,0,0,0-3.11,11.42c-6.35.55-11.23,8.57-9.31,15.31-3.33-.52-6.86,1.82-8,5.33a9,9,0,0,0,3,9.81c-17.37,18.44-29.69,42.65-35,68.67.23-1.09,8.71-41,51.28-78.7,2.54,1.71,7-.65,9.37-2.57a9.14,9.14,0,0,0,3-8.69c6.11.79,12-6.13,10.91-12.85,5.43,3.2,13.06.17,15.43-6.12-2,5.38,18.38-1.1,17.38-1.37,1.43.38,3.8,5.49,5.54,6.6a13,13,0,0,0,12.06.72c5.59-2.55,9.33-9.41,8.76-16.1,6.76,2,14.38-4.77,14.07-12.53,6.18,5.31,16.2,3.76,20.82-3.23,7.63,1.42,15.27-7.29,13.79-15.71a14.47,14.47,0,0,0,14.93,1,17.58,17.58,0,0,0,8.74-13.48,12,12,0,0,0,8.83,8.78,11,11,0,0,0,11-4.89c2.42,5.88,11,4.91,14.5-.25s3.37-12.21,3.1-18.67a13.32,13.32,0,0,0,13.52-5.56,17,17,0,0,0,1.57-15.91c4.95,2.19,12.5-.72,15.16-5.84.82,6.32,9.23,9.33,13.22,4.73a10.31,10.31,0,0,0,6.43,8.52,8.88,8.88,0,0,0,9.66-3c2.1,7,10.19,10.82,16.19,7.69.38,7.43,7.81,13.33,14.27,11.33,3.48,7.41,14.71,6.66,20,.71,2.07,5.7,8.89,8.54,13.83,5.76-3.13,7.64,2.13,17.85,9.65,18.72-3.82,4-3.62,11.66.39,15.38s10.87,2.55,13.7-2.33c6.49.12,12-7.72,10.42-14.7,6,3.49,14.38.71,17.69-5.89a44.07,44.07,0,0,0,22.12,2.3c-4.05,3.06-5.73,9.44-3.79,14.43s7.26,8,12,6.87C28.6,185,33,194.86,40.17,197s15.43-3.91,16.46-12.08c7.13,3.6,16.44-4.85,14.66-13.33,8.22-.55,15.33-9.11,15.16-18.25a21.87,21.87,0,0,0,17.84,9.41c-1.46,5.67,1.21,12.29,6,14.87s11.12.82,14.24-4c1.15,8.54,7.14,16,14.64,18.3s16.09-.79,21-7.49c7.28,3.7,16.94-.29,20.26-8.38,1.62,6,6.48,10.75,12,11.79a14.84,14.84,0,0,0,14.83-6.8c1.09,4.95,5.09,8.93,9.64,9.61s9.34-2,11.57-6.45c2.76,4.71,11.81,9.13,18.33,9.16V-72.84h-477.1A23.42,23.42,0,0,0-230-68Z"/>
          </g>
        </g>
        <g>
          <g>
            <path class="f056a409-3333-44d1-835c-a5ea9e99c54e" d="M-645.55,462.36H246.81V347.77a43,43,0,0,1-2.63-12.67c-.24-5.28.62-10.93-1.36-15.62-1.61-3.81-4.92-6.45-5.77-10.62-.66-3.25.34-6.6,1-9.85s.83-7.11-1.06-9.5c.47,2.78-.82,5.54-2.32,7.7s-3.27,4.12-4.11,6.76c-1.54,4.84.54,10.18.83,15.37.42,7.55-3,14.62-7,20.38-2,2.95-4.29,5.76-7.1,7.46s-6.26,2.15-9,.36c-3.3-2.12-3.74-6.24-4-10.37-.3-4.62-1.22-7.84-3.76-11.35-1.81-2.51-3.85-4.87-4.95-7.95s-1-7.16,1.14-9.26c-2.69,1.72-3.89,5.81-3.87,9.57s1,7.39,1.52,11.09.55,7.78-1.13,10.91c-1.93,3.59-5.55,5-8.41,7.46-5.92,5-5.28,13.55-10.16,20.08-2.41,3.22-5.1,6.29-8.39,7.94s-7.31,1.61-10.15-1-4.25-8-7.59-10.07c-4.6-2.87-11,1.52-15-2.49s-2-13.16-5.75-17.6c-1.72-2-4.2-2.5-6.47-3.28s-4.71-2.25-5.4-5c-1.09,2.26-.05,5.22,1.39,7.15s3.3,3.45,4.29,5.78c2.32,5.46-1,13.07,2,18,3.34,5.44,11.69,2.81,14.47,8.72,1.56,3.34.34,7.62-1.37,10.85-5.32,10.08-15.4,16-25.06,14.62A24.71,24.71,0,0,1,97,393.06c-3.8-4.18-5.19-10.84-9-14.61s-10.46-3.59-12.38-9.22c-1.2-3.49.18-7.41.93-11.08,1.7-8.33-.12-17.62-4.7-24.06,2.54,4.06,1.94,10,.11,14.61s-4.68,8.48-6.63,13a39.26,39.26,0,0,0-2.87,11.42c-.3,3-.5,6.59-2.54,8.32-1.7,1.43-4,1-6,.43-3.53-.93-7.39-2.11-9.5-5.74-1.65-2.85-1.83-6.56-2.57-9.94-1.82-8.33-7.55-15.14-14.34-17.06a42.61,42.61,0,0,1,5,11.26c1,4.12.94,8.83-.92,12.46s-5.76,5.77-9,4.17a39,39,0,0,0,.49-9.76c-.39-3.24-1.74-6.47-4.07-8-1.92-1.26-4.38-1.32-5.95-3.2-1.35-1.61-1.65-4.18-1.41-6.49s.93-4.5,1.29-6.79c1-6.64-1.13-13.9-5.41-18.12a13.32,13.32,0,0,1,0,13.19c-1.45,2.3-3.6,3.8-5.08,6.07-2.94,4.48-2.71,10.84-3.77,16.46A29.56,29.56,0,0,1-9,375.5c-4.23,4.31-7.49,5.49-12.65,3.82-4.37-1.42-9.46-3.67-10.6-9.09-.93-4.42,1.3-9,.84-13.56a18.32,18.32,0,0,0-3.36-8.09c-1.56-2.38-3.29-4.7-4.23-7.54s-.93-6.43.77-8.67c-2.52.14-3.76,4.06-3.4,7.16s1.67,6,1.68,9.11c0,4.81-3,8.84-3.7,13.58-1.46,10.46,8.72,19,8,29.6-.38,5.45-4.08,10.27-8.45,11s-9-2.66-10.54-7.78c-1.22-4-.65-8.5-1-12.78-.57-7.37-4-14.31-9.05-18.27a26.47,26.47,0,0,1-3.44,22,23.83,23.83,0,0,1-16.65,10.17c-4.7.61-10.19-.64-12.61-5.67-2.06-4.27-1.19-9.8-2.48-14.52-1-3.55-3.08-6.4-4.68-9.58s-2.7-7.24-1.4-10.63c-3.63,1.53-4.8,7.17-4.81,11.93,0,4.27.49,9.06-1.32,12.92a37.52,37.52,0,0,1-5.87,8.83,19.38,19.38,0,0,1-14.93,6.62c-4.07-.17-8.58-2.37-10-7.1-.86-2.94-.45-6.57-2.16-8.87-1.41-1.9-3.94-2.34-4.91-4.62-.85-2-.12-4.35.31-6.52a22.69,22.69,0,0,0-3.85-17.74c.78,2.95-.42,6.15-1.95,8.62s-3.42,4.67-4.35,7.55c-2.17,6.68,1.54,14.27.47,21.35A15.28,15.28,0,0,1-166,399.26a15.73,15.73,0,0,1-10.88,2.05c-3.92-.59-8.19-2.87-9.43-7.52-1.12-4.17.57-9-.83-13-1.82-5.24-8-6.85-9.19-12.38-.85-4,1.45-7.87,2.87-11.63a29.34,29.34,0,0,0-1.17-22.91c1.68,4.12.14,9.19-2.11,12.87s-5.19,6.79-6.8,11c-1.79,4.6-1.74,9.95-2.82,14.88-2.95,13.51-16.11,23.61-27.08,18.59a8.77,8.77,0,0,1-5.24-5.69c-1.05-4.31,1.94-8.47,2.39-12.94.36-3.47-.86-6.89-2.29-9.91s-3.11-5.94-3.86-9.32-.32-7.46,1.91-9.62c-3.93,2.38-6.61,7.65-6.63,13.08,0,2.54.52,5,.69,7.56s-.07,5.28-1.37,7.23c-2,2.93-5.56,3.07-8.54,2.17-6.3-1.89-11.8-7.47-14.54-14.75a33.12,33.12,0,0,1-1.66-16.11c.7-4.91,2.86-8.71,3.11-13.78a39.34,39.34,0,0,0-1.95-14.31c-1.56-4.7-4.22-7.49-6.48-11.46a25.46,25.46,0,0,1,1.31,21c-1.6,4-4.23,7.34-5.48,11.54-2.49,8.35,1.05,17.51,1,26.41A30,30,0,0,1-287,380.14c-1.68,2.16-3.72,4-6.08,4.62a6,6,0,0,1-6.6-2.44c-1.69-2.53-1.67-6.19-1.19-9.42s1.32-6.48,1-9.73c-.5-4.55-3.22-8.14-5.62-11.63s-4.73-7.74-4.2-12.28c-.82,4.58.81,9.2,1.77,13.74s1,10.19-2.07,13c-3.33,3.08-8.19.87-12.14,2.46-7,2.81-8.81,16.09-16,17.7-4.76,1.06-9-3.81-11.67-8.82s-4.82-10.86-9-13.78c-3.28-2.27-7.92-3-9.19-7.4-1.34-4.67,2.35-9,3.86-13.59A15.72,15.72,0,0,0-366,329.2c-.1,4.13-3.13,7.14-6,9.17s-6.19,4-7.58,7.73c-1.81,4.9.39,10.6.11,16a14.9,14.9,0,0,1-5.4,11c-4.37,3.25-10.81,2.54-13.53-3.31-1.68-3.62-.65-8.45-2.26-12.13-2.95-6.74-12.33-5.17-15.37-11.85s3.17-14.89,2.18-22.57c-.5-3.89-2.79-7-4.56-10.28s-3.08-7.63-1.52-11.07c-3.51,1.82-3.7,7.92-2.72,12.48s2.51,9.67.56,13.72c-1.51,3.12-4.77,4.69-5.79,8.11-1.28,4.33,1.67,8.6,3.79,12.39,5.77,10.34,6,25,.49,35.55-2.74,5.29-7,9.68-12,10.58s-10.65-2.43-12.28-8.38.82-12.13,3.57-17.24,6.06-10.26,6.48-16.39c.7-10.19-7.34-17.08-6.17-27.07.44-3.75,1.42-7.5.93-11.24-.59-4.56-3.53-8.5-7.14-9.6A19.31,19.31,0,0,1-448,318.4c-1.1,5.46-4.72,10-5.22,15.64s.77,10.73-1.38,16.21c-1.84,4.7-6.14,8.3-10.21,6.94-2.64-.87-4.66-3.63-5.77-6.73a37.31,37.31,0,0,1-1.66-9.9c-.86-12.45-1.09-26.05-7.57-35.63,5.37,10,4.28,24.62-2.48,33.27-2.58,3.29-5.85,5.78-8,9.54-4.64,8.19-4.19,30.77-17.14,24.86-4.22-1.93-7.05-7.32-7.48-12.87a26.32,26.32,0,0,1,4.05-15.54c-4.17.84-7.14,5.6-8.67,10.48s-2.11,10.19-3.86,15c-3.35,9.1-11.65,15.42-19.61,13.75s-14.31-12.14-12.47-21.89c1.36-7.17,6.51-13.74,4.83-20.81-.82-3.46-3.15-6-4.65-9.11-3.42-7-1.89-17.08,3.35-22.09-3.44,1.62-7,3.29-9.76,6.24a15.12,15.12,0,0,0-4.17,12c.42,3.1,2,5.77,2.64,8.82,1.34,6.37-2.33,13.66-7.53,15s-10.89-3.61-11.67-10.12c-.66-5.54,1.75-10.71,1.59-16.19-.15-5.19-2.43-9-3.85-13.72-1.36-4.52-.7-9.68.94-14.06s4.18-8.13,6.68-11.83c-7.42,7.19-14.82,14.71-20.16,24.32-6.12,11-9.16,26.77-6.17,39.82-8.57-2.57-14.72-15-14.92-25.4-.1-5.39,1-10.88,0-16.11s-4.32-9.58-6.3-14.52-2.24-12,1.5-15c-5.31,2.74-7,11-7.28,18.12s-.05,15-3.73,20.47c-1.94,2.89-4.77,4.75-6.54,7.8-4,6.92-1.49,18.4-3.3,26.56a56.18,56.18,0,0,1-1.59,5.79Z"/>
            <path class="e59eb34b-8f90-4cb5-944c-edc578f5065f" d="M246.81,331.36a28.91,28.91,0,0,0-4.53-3.64c-3.94-2.54-8.41-4.18-11.49-8.13-5.9-7.55-4.28-19.69-3.17-30.11s0-23.66-7.93-27.42c5.26,6.85,2.2,18.29-2.39,25.84s-10.74,14.74-11.25,24.17c-.56,10.46,6.12,19.56,7,30,.79,9.6-4.11,19.53-11.4,22.92s-16.33-.18-20.6-8.25c-4.95-9.35-2.23-19.82-3.89-29.93-.85-5.2-1.62-10.09-3.54-14.9s-5.21-8.58-7-13.2c4,10,2.65,20.71-1.48,30.17-3.85,8.8-11.66,14.83-11.38,26,.31,12.59,11.43,21.33,12.68,33.83,1.21,12.19-7.17,22.25-14.8,30.11-5,5.15-12.36,10.42-17.41,5.33-4.33-4.37-3.14-12.82-5-19.34-2.45-8.51-9.86-12.9-14.91-19.41s-6.35-19.95.64-22.54C107.68,356.7,97.54,365,94.27,375s-2.64,21.46-5.42,31.74-11.72,19.82-19.68,15.32c-7.79-4.4-8.1-17.54-9.83-27.93-2-12-7.39-23-8.75-35.18s3.65-27.19,13.52-28.4C53.94,329.86,45.58,340.69,41,352s-7.07,24-13.5,33.84-19.07,15.26-26.8,7c-6.55-7-5.6-18.68-10.36-26.88-2.26-3.88-5.27-6-6.59-10.9-.7-2.6-2-11.59.5-13.51-4.47,3.51-8.77,9.15-8.13,15.66.41,4.21,2.81,7.66,4.05,11.61,2.59,8.23-.74,16-.89,24.3a21.35,21.35,0,0,1-7.45,16.23,19,19,0,0,1-21,2.62c-7.76-3.87-13.1-12.32-17.39-20.88-2.13-4.24-4-8.52-6.42-12.47-2.72-4.44-2.18-10.14-1-15.34,1.61-6.94,4.53-12.19,3-19.51-1.38-6.47-4.51-9.95-8.16-14.4,3.22,3.93,3.45,10.51,1.74,15.7-2.87,8.75-12.35,15.29-10.93,26,.47,3.6,2.74,7,3.94,10.42,2.9,8.27,3.8,19-1.38,25.36-5,6.15-13.75,5.06-19.5,0s-9.22-13.14-12.5-20.89c-2.7-6.37-8.86-15.53-7.55-23.25a25.65,25.65,0,0,1,3.23-8,32.21,32.21,0,0,0,3.53-7.88c-2.74,2.68-5.91,4.58-8.92,6.77a25.21,25.21,0,0,0-7.85,8.41c-5,9.53,2.25,21.05,1.25,31.42-.89,9.16-7,16.54-14,19-3.13,1.11-7.12,1.68-9.85-1.09-2.37-2.41-1.94-6.8-2.77-10.13a57.5,57.5,0,0,0-7.16-16.78c-2.24-3.54-4-6.74-4.49-11.34-.32-2.93-.42-9.76,1.68-11.92-3.74,3.83-7.76,8.32-8.17,14.3-.25,3.57.86,7,1.72,10.45,1.76,6.95,1.66,15.09-1.86,21.16-3.08,5.31-8.57,9.33-13.92,7-6.79-2.9-9-13-11.74-21.27a23.54,23.54,0,0,0-7.1-11,10.2,10.2,0,0,1-3.91-9.5c.4-4.24,2.28-8,3.34-12.08a31.37,31.37,0,0,0-3.06-23.16c2,3.25,1.48,8.11-.36,11.53s-4.69,5.75-7.41,8.09-5.49,4.92-7,8.58c-1.79,4.35-1.52,9.55-.73,14.33s2.06,9.5,2.14,14.38-1.35,10.17-4.71,12.71a8.32,8.32,0,0,1-8.8.52c-2.83-1.4-5.17-4-7.09-7-3.46-5.29-1.86-8.54-1.88-14.26,0-5-1.49-10.41-3.12-14.9-3.42-9.39-9.38-17.45-16.94-21.86-7.13-4.17-15.87-5.8-20.6-13.62-3.49-5.78-3.84-13.5-6-20.19s-8.15-12.95-13.37-9.78c3.8.47,6.09,5.69,6.35,10.42s-.78,9.46-.39,14.17c1.36,16.39,17.88,23.3,24.82,37.36,6.58,13.37,2.28,32.95-8.68,40.76s-26.48,2.9-33.41-10.21c-2.08-3.94-3.63-8.8-5.24-13.06a30.14,30.14,0,0,1-1.63-14.8c.91-6.34,3.79-13,1.45-18.78a25.13,25.13,0,0,0-3.35-5.18,11.56,11.56,0,0,1-2.46-5.79c-.16-2.21,1-4.69,2.75-5-2-1-4.46.68-5.48,3.11s-1,5.31-.78,8a29.33,29.33,0,0,1-.05,8.16c-2,9.48-13.56,11.73-15.71,21.17-1.21,5.31,1.09,10.74,2.06,16.12,1.37,7.56,0,22.65-7.27,25-7,2.33-14.09-5.14-17.5-12.09-4.32-8.83-7.64-19.95-15.51-23.38-4.24-1.85-9.34-1.12-12.8-4.68-5.37-5.51-2.71-16.16.39-23.89s5.84-18.31.56-23.94c2.27,5.24-1.07,11.65-5,15.05-3.21,2.76-11.43,5.88-11,11.8.14,1.89.79,3.68,1,5.56s-.2,4.1-1.55,5-3.12,0-4-1.47a11.13,11.13,0,0,1-1.22-5.38,35.37,35.37,0,0,0-.35-5.65c-.66-3.23-2.84-5.92-5.46-6.72,2.44,2.23,2.62,6.66,2.13,10.36s-1.44,7.58-.43,11.13c1.13,4,4.34,6.33,6.41,9.65,3.59,5.76,4.41,16.54.89,22.52-5.11,8.69-16.56,7.12-23.16.14-2.62-2.77-9.83-12.21-8.22-17.05.88-2.64,3.65-3.16,5.57-4.76,2.72-2.27,3.6-7,2.57-10.9a15.27,15.27,0,0,0-6.51-8.74,27.72,27.72,0,0,1,.06,7.61c-.45,2.5-1.71,4.91-3.64,5.8-2.5,1.16-5.38-.59-7-3.22-3.13-5.14-3.63-11.48-2.23-17.42,1.2-5.06,3-9.93,3.56-15.16s-.58-11.18-4.1-14.15c1.45,3.64.36,8.17-1.69,11.34s-4.9,5.35-7.52,7.78-5.16,5.38-6.13,9.26c-1,4.1-.11,8.51-.23,12.8a24,24,0,0,1-6.35,15.94c-9.33,9.47-23.06,3.55-31.31-5.08-5.27-5.51-7.46-12.05-9-20.08-1.46-7.6,0-15-1.11-22.7-.83-5.54-3.83-11.14-8.32-12.07,2.16,4.15,4.4,9,3.32,13.74-.6,2.63-2.14,4.75-3.27,7.09-3,6.26-1.06,13.25-1.42,20-.28,5.22-.56,11.05-1.2,16.23-.49,4-1.92,8.06-4.52,10.56-5,4.82-12.81,2.3-17-3.54s-5.72-13.95-6.54-21.74c-1.24-11.68-1.07-32-14.14-32.7-4.28-.23-9.4,2.31-12.35-1.54-2.31-3-1.48-7.82-.87-11.91a52.58,52.58,0,0,0-2.12-25c-1.36-3.78-3.13-7.45-3.5-11.56-.34-3.73.51-7.44,1-11.14s.54-7.78-1.17-10.88a9.3,9.3,0,0,1-1,6.74c-1,2-2.45,3.64-3.57,5.57a21.93,21.93,0,0,0-2.54,13.73c.52,3.64,1.92,7.06,2.07,10.75.66,16.32-15.12,20.52-24.29,25.51a43.15,43.15,0,0,0-15.86,15.79V527.69H246.81Z"/>
          </g>
          <g>
            <g>
              <path class="a0fd1926-0bdf-4a8a-8ba9-9d287df802fa" d="M231.78,388.41q4.41-18.84,8.81-37.67-7.5,19.18-15,38.35a197.21,197.21,0,0,0,3-41.51q-4.63,20.9-9.26,41.8a242,242,0,0,0-2.66-50.2,249.1,249.1,0,0,1-4.77,47.15A168,168,0,0,0,201,342.93a343.81,343.81,0,0,1,8.08,57.69,162.53,162.53,0,0,0-21.15-48,273.91,273.91,0,0,1,12.42,54.19A274.92,274.92,0,0,0,179,350.62a560.22,560.22,0,0,1,15.34,62.84,217.58,217.58,0,0,0-20.78-43.75L183.53,421A224.24,224.24,0,0,0,170.9,379.2a229.54,229.54,0,0,1,4.48,60.28l-5.94-31.36a317.23,317.23,0,0,1-7.79,49.43q.21-26.16.41-52.31l-11.82,45.47A480.86,480.86,0,0,0,154,395.3a430.6,430.6,0,0,0-16.32,51.59,328.05,328.05,0,0,0,4.86-41q-5.08,22.88-10.19,45.75a411.38,411.38,0,0,0-.39-61.81l-3.39,58a249.87,249.87,0,0,0-3.25-56.09q-2,26.6-4.09,53.19a133.82,133.82,0,0,0-9.93-48.11q3.38,26.79,6.74,53.59l-11.46-30.8q3.24,19.29,6.49,38.58A101.08,101.08,0,0,0,100,427.41c6,22,8.9,111.34,8.51,134.6H246.81V354.76A131.84,131.84,0,0,0,231.78,388.41Z"/>
              <path class="a9dcc4a8-93df-4e83-98b4-4cc3ec059ff3" d="M64.56,419.24a468.56,468.56,0,0,0-19.39,48.37q7.13-25.37,14.26-50.73A238.69,238.69,0,0,0,38.8,465c3.32-17.82,7.5-35.4,12.5-52.61-6.81,11.78-13.82,24.21-16.59,38.07q3.12-23.16,6.23-46.33a273.1,273.1,0,0,0-14.37,54.48q.12-30.84.23-61.68a505.46,505.46,0,0,0-6.8,54.5q-1.37-34-2.74-68.07a525.12,525.12,0,0,0-2.94,60.17q-4.26-32.44-6.49-65.24c-1,27.32-.79,54.71.68,82Q3.88,425.43-.75,390.54.36,431.7,1.46,472.87A435.46,435.46,0,0,1-17.9,396.24c3.2,28.14,6.41,137.63,9.61,165.77h57.9C48.36,535.48,56.53,443.88,64.56,419.24Z"/>
              <path class="bc9af445-d9d6-4aa7-8588-c3dcb9d9b13f" d="M120.89,438.08a120.72,120.72,0,0,0-15.74,27l11.9-30.48a136.82,136.82,0,0,0-15.35,28.92l10.14-32.91a188.57,188.57,0,0,0-14.55,31.6l11.1-38a341.54,341.54,0,0,0-13.87,34.5l6.84-40.88a235,235,0,0,0-11.2,38l5.4-49.36a162.79,162.79,0,0,0-9.74,44.39,566.47,566.47,0,0,1,.8-59.86c-2.44,14-4.88,28.34-3.1,42.46q-3.72-29.22-9.37-58,1.25,23.83,2.5,47.68-4.19-22.45-8.36-44.91l5.46,50.28-7.89-21.45q-.56,12.22-1.1,24.43-1.56-18.51-3.13-37l-2.16,45.6a508.18,508.18,0,0,1,.15-57.89,318.27,318.27,0,0,0-1.84,81.47,653,653,0,0,1-12-82.07C47,413.21,48.25,445,52.71,476.14l-23-79.05C37.94,429.66,45,528.65,50.76,562h58.88c-2.21-9.81-1.32-86.42,1.09-96.15S117,447.07,120.89,438.08Z"/>
            </g>
            <g>
              <path class="f06aab5a-aa2c-46c8-9a06-cde8b6e2442c" d="M243.36,450.47a286.5,286.5,0,0,0-15.1,32.16q5.55-16.86,11.11-33.73a147.53,147.53,0,0,0-16.08,32,322.85,322.85,0,0,1,9.74-35c-5.3,7.83-10.76,16.09-12.92,25.3q2.43-15.39,4.85-30.8a160.33,160.33,0,0,0-11.19,36.23l.18-41a288.49,288.49,0,0,0-5.3,36.24l-2.13-45.27a298.86,298.86,0,0,0-2.3,40q-3.32-21.57-5.05-43.38a513.73,513.73,0,0,0,.53,54.52q-3.62-23.19-7.22-46.39.87,27.36,1.73,54.74a256.28,256.28,0,0,1-15.09-50.95c2.5,18.71,5,104.74,7.49,123.45h45.11C230.74,541,237.11,466.85,243.36,450.47Z"/>
              <path class="aad10662-d778-451b-b739-0cae7a603e53" d="M58.76,472.07a65.9,65.9,0,0,1,12.11,15q-4.58-8.46-9.16-16.9a72.53,72.53,0,0,1,11.82,16l-7.8-18.24a94.61,94.61,0,0,1,11.19,17.51q-4.28-10.53-8.54-21.05A164.65,164.65,0,0,1,79.06,483.5q-2.64-11.33-5.27-22.66a104.38,104.38,0,0,1,8.63,21.06q-2.08-13.68-4.16-27.36a69.57,69.57,0,0,1,7.5,24.6A225.53,225.53,0,0,0,85.14,446c1.88,7.75,3.76,15.71,2.39,23.54q2.86-16.2,7.21-32.15-1,13.22-1.93,26.42,3.22-12.43,6.44-24.89l-4.2,27.88,6.08-11.9.84,13.55q1.2-10.26,2.41-20.53.84,12.64,1.67,25.28a204.64,204.64,0,0,0-.12-32.09,127.69,127.69,0,0,1,1.41,45.16,269.25,269.25,0,0,0,9.25-45.49c-1,17.54-1.91,35.13-5.34,52.42l17.69-43.82c-6.32,18.06-11.73,90.8-16.19,109.29H67.41c1.71-5.43,1-65.77-.83-71.17S61.73,477.05,58.76,472.07Z"/>
              <path class="b8110613-7fcd-4ed2-b1d5-5e29f2af73c1" d="M-17.92,515.76l-13.3-65.49c5.44,14.25,10.88,51.24,16.32,65.49-4.17-15.13-7.37-53.29-9.58-68.87a291.39,291.39,0,0,0,8.74,36.29L-20,442.71q5.12,20.49,10.22,41L-11.49,445a308.38,308.38,0,0,0,6.42,41.5A190.48,190.48,0,0,1,2,449.29a138.39,138.39,0,0,0-3.56,41.13,112.41,112.41,0,0,1,11.86-33.16,164.78,164.78,0,0,0-7.1,32.25,142.56,142.56,0,0,1,10.33-25.25c-4.51,9-7.47,41.42-8.69,51.5,2.85-8.59,6.87-39.33,11.88-46.73-4,7.83-6.9,38.06-8.73,46.73,3.24-8.7,8.25-38.48,14.6-45a123.25,123.25,0,0,0-8.4,22,159,159,0,0,1,12.25-19c-2.65,6.4-5.29,35.61-7.94,42,4.2-6.41,8.4-35.64,12.6-42.05-2.36,6.94-4.73,35.1-7.09,42.05,3.89-6.65,8.27-34.18,13.09-40.1-3,7.36-6,32.74-9,40.1,3.78-6.69,7.56-31.41,11.34-38.1l-5.86,38.1c2.75-5.73,5.51-29.56,8.26-35.28L38,515.76l5.16-25.83s3.32-6.82.18-27.66c0,0,3.32,19.48,3.32,25.52l1.11-23.18,3.44,19.49a219.41,219.41,0,0,1-1.09-32.22A262.51,262.51,0,0,0,55,485.17q0-12.46,0-24.94Q56,476,56.93,491.7q2.18-9.68,4.33-19.35c.58,6.85.53,36.57-.15,43.41.61-5.51,2-33.72,4.25-38.74a45.24,45.24,0,0,1,.12,12.08,45.42,45.42,0,0,1,2.87-9.67c-.89,7.27-1.78,70.17-2.67,79.2H-16.4c-5.89-15.38-11.78-83.73-17.67-97.35C-28.69,472.86-23.3,504.17-17.92,515.76Z"/>
              <path class="b587e12e-ad40-4618-b56c-2849a46d6b7d" d="M193.88,505.43l1.7-25.31a160.9,160.9,0,0,0-5.12,27.21q-.83-11.29-.53-22.65-1.49,11-3,22l-1.23-26.27q-1.1,12-2.2,23.93-.4-19.26-.83-38.51-3.14,20-6.26,40Q178,487,179.52,468.17a130.83,130.83,0,0,0-8.83,33.34l2.7-27.18A95.51,95.51,0,0,0,167,498.51q1.44-18.17,3.86-36.18a163.3,163.3,0,0,0-6.91,37.46l-3.48-29.06q.78,12.9,1.54,25.79a138,138,0,0,1-6.47-25.18l1.8,25.38L153.85,482,151.3,498.4a79.7,79.7,0,0,0,.59-16.12q-2.49,8.89-5,17.79.71-9,1.43-18-2.9,6.38-5.78,12.77l3.75-20q-4.59,10.49-9.19,21a106.58,106.58,0,0,0,6-28.32,114.87,114.87,0,0,1-10.58,24.84q2-9.51,4.06-19a70.73,70.73,0,0,0-7,16.23q.48-10.47,1-20.93a130.49,130.49,0,0,0-5.08,24.81q-1.12-16.31-1-32.69A245.46,245.46,0,0,0,120.71,505a347.32,347.32,0,0,1-5.07-39.24,219.41,219.41,0,0,0,1.43,46.47,134,134,0,0,1-9.8-41.45c1,19.61,4.48,69.55,10.36,87.89h75.51c3.23-16.3,5.27-63.15,6.1-79.88A156.84,156.84,0,0,0,193.88,505.43Z"/>
            </g>
          </g>
          <g>
            <path class="fc817acf-d9be-4661-9970-ffa7067b42f8" d="M231.78,486.78l8.81-25.8-15,26.27a93.69,93.69,0,0,0,3-28.44q-4.63,14.32-9.26,28.63a114.32,114.32,0,0,0-2.66-34.37,119.07,119.07,0,0,1-4.77,32.28A87.24,87.24,0,0,0,201,455.63a166.87,166.87,0,0,1,8.08,39.51A98.6,98.6,0,0,0,188,462.27a140,140,0,0,1,12.42,37.11A157.82,157.82,0,0,0,179,460.9a288.49,288.49,0,0,1,15.34,43,135.88,135.88,0,0,0-20.78-30l9.93,35.1a120.75,120.75,0,0,0-12.63-28.6,109.16,109.16,0,0,1,4.48,41.28l-5.94-21.47a155,155,0,0,1-7.79,33.84q.21-17.91.41-35.82l-11.82,31.14a227.46,227.46,0,0,0,3.79-38,235.09,235.09,0,0,0-16.32,35.33,157.48,157.48,0,0,0,4.86-28.08q-5.08,15.66-10.19,31.33a193.26,193.26,0,0,0-.39-42.33l-3.39,39.7A118.24,118.24,0,0,0,125.35,489q-2,18.21-4.09,36.43a67.72,67.72,0,0,0-9.93-33q3.38,18.35,6.74,36.7l-11.46-21.09q3.24,13.2,6.49,26.41a60.54,60.54,0,0,0-13.14-21c6,15.09,8.9,61.6,8.51,77.53H246.81V463.73A80.36,80.36,0,0,0,231.78,486.78Z"/>
            <path class="bfce16bd-0a0e-4193-9e00-6facf3112979" d="M64.56,507.89A273.87,273.87,0,0,0,45.17,541q7.13-17.37,14.26-34.73a142.74,142.74,0,0,0-20.63,33,281.39,281.39,0,0,1,12.5-36c-6.81,8.07-13.82,16.58-16.59,26.07q3.12-15.87,6.23-31.72a142.71,142.71,0,0,0-14.37,37.3q.12-21.12.23-42.24A243.61,243.61,0,0,0,20,530q-1.37-23.31-2.74-46.62a247.4,247.4,0,0,0-2.94,41.2q-4.26-22.21-6.49-44.67A424.28,424.28,0,0,0,8.51,536Q3.88,512.13-.75,488.24q1.11,28.18,2.21,56.38A226,226,0,0,1-17.9,492.14c3.2,19.27,6.41,79.61,9.61,98.88h57.9C48.36,572.86,56.53,524.76,64.56,507.89Z"/>
            <path class="bb9787dc-43ac-4fdc-8a30-637960627b38" d="M120.89,520.79a82.83,82.83,0,0,0-15.74,18.49q6-10.44,11.9-20.87a89.59,89.59,0,0,0-15.35,19.8l10.14-22.54a116.18,116.18,0,0,0-14.55,21.64l11.1-26a199.31,199.31,0,0,0-13.87,23.63l6.84-28a125.55,125.55,0,0,0-11.2,26l5.4-33.8a82.75,82.75,0,0,0-9.74,30.4,265.9,265.9,0,0,1,.8-41c-2.44,9.57-4.88,19.4-3.1,29.07q-3.72-20-9.37-39.72,1.25,16.34,2.5,32.65-4.19-15.37-8.36-30.75l5.46,34.43-7.89-14.69q-.56,8.37-1.1,16.74-1.56-12.69-3.13-25.36l-2.16,31.23a238.61,238.61,0,0,1,.15-39.65,150.08,150.08,0,0,0-1.84,55.79,317.53,317.53,0,0,1-12-56.19c1.23,21.66,2.47,43.4,6.93,64.76l-23-54.14C37.94,515,45,568.18,50.76,591h58.88c-2.21-6.71-1.32-44.54,1.09-51.2S117,527,120.89,520.79Z"/>
          </g>
        </g>
        <rect class="a57c3fe2-330b-4e1c-b811-f50c2b6498b6" x="-614.93" y="-38.43" width="835.66" height="582.35"/>
      </g>
    </g>
  </g>
</svg>
