<?xml version="1.0" encoding="UTF-8"?><svg id="a" xmlns="http://www.w3.org/2000/svg" xmlns:xlink="http://www.w3.org/1999/xlink" viewBox="0 0 718 661"><defs><style>.i{fill:#fff;}.j,.k{fill:#31d0e5;}.l{fill:#ad9e9e;}.m{fill:#98bc5c;}.n{fill:#77c9b0;}.o{fill:#c5db7f;}.p{opacity:.45;}.q{fill:url(#e);}.q,.r,.s,.t{stroke:#a1a8a7;}.q,.r,.s,.t,.k{stroke-miterlimit:10;}.u{opacity:.3;}.v{fill:url(#b);}.r{fill:url(#f);}.w{clip-path:url(#d);}.x{fill:none;}.y{opacity:.14;}.s{fill:url(#g);}.t{fill:url(#h);}.k{stroke:url(#c);stroke-width:6px;}</style><linearGradient id="b" x1="104.06" y1="155.82" x2="602.27" y2="497.19" gradientTransform="matrix(1, 0, 0, 1, 0, 0)" gradientUnits="userSpaceOnUse"><stop offset="0" stop-color="#9b81cf"/><stop offset="1" stop-color="#3b139b"/></linearGradient><linearGradient id="c" x1="66.74" y1="330.5" x2="651.26" y2="330.5" gradientTransform="matrix(1, 0, 0, 1, 0, 0)" gradientUnits="userSpaceOnUse"><stop offset="0" stop-color="#4c1da9"/><stop offset="1" stop-color="#997ece"/></linearGradient><clipPath id="d"><ellipse class="x" cx="359" cy="330.5" rx="286.63" ry="286.33"/></clipPath><linearGradient id="e" x1="1715.69" y1="1985.03" x2="1715.69" y2="1844.37" gradientTransform="translate(-754.24 2431.26) rotate(-110.63)" gradientUnits="userSpaceOnUse"><stop offset="0" stop-color="#fff"/><stop offset=".44" stop-color="#fefefd"/><stop offset=".6" stop-color="#fbfaf6"/><stop offset=".71" stop-color="#f5f4ea"/><stop offset=".8" stop-color="#eeebd9"/><stop offset=".88" stop-color="#e4dfc3"/><stop offset=".95" stop-color="#d9d2a9"/><stop offset="1" stop-color="#cfc692"/></linearGradient><linearGradient id="f" x1="679.93" y1="409.11" x2="793.61" y2="409.11" gradientTransform="translate(-529.17 265.43) rotate(-19.01)" xlink:href="#e"/><linearGradient id="g" x1="1013.86" y1="350.58" x2="1183.6" y2="350.58" gradientTransform="translate(1459.7 212.99) rotate(-161.76) scale(1 -1)" xlink:href="#e"/><linearGradient id="h" x1="1245.74" y1="2720.48" x2="1348.44" y2="2720.48" gradientTransform="translate(392.44 3322.93) rotate(-152.78)" xlink:href="#e"/></defs><g><circle class="v" cx="359" cy="330.5" r="301.94"/><circle class="k" cx="359" cy="330.5" r="289.26"/></g><g class="w"><g><g><path class="j" d="M675.95,308.01c0,155.38-142.84,281.33-319.04,281.33S22.31,477,22.31,321.63,180.71,26.68,356.91,26.68s319.04,125.96,319.04,281.33Z"/><path class="o" d="M177.62,826.14S602.95,497.48-28.69,520.34"/><path class="m" d="M459.97,754.83c-156.2,0-366.93-24.77-366.93-71.73s187.14-176.28,591.55-198.07c155.98-8.4-68.41,269.8-224.62,269.8Z"/><ellipse class="y" cx="292.63" cy="649.17" rx="56.47" ry="13.1" transform="translate(-54.78 27.59) rotate(-4.94)"/><ellipse class="y" cx="533.08" cy="656.63" rx="56.48" ry="13.33" transform="translate(-97.21 92.65) rotate(-9.11)"/><ellipse class="y" cx="207.87" cy="620.03" rx="34.1" ry="9" transform="translate(-75.79 30.81) rotate(-7.17)"/><g class="u"><g><path class="i" d="M151.01,216.28s7.31-33.89,45.19-8.52c37.88,25.37-35.81,28.21-69.28,22.05-33.47-6.16,24.09-13.53,24.09-13.53Z"/><path class="i" d="M223.5,186.99c31.67,15.9,3.03,22.82-23.39,21.31-26.42-1.51-8.28-37.21,23.39-21.31Z"/></g><g><path class="i" d="M563.45,356.46s7.31-33.89,45.19-8.52c37.88,25.37-35.81,28.21-69.28,22.05-33.47-6.16,24.09-13.53,24.09-13.53Z"/><path class="i" d="M635.94,327.17c31.67,15.9,3.03,22.82-23.39,21.31-26.42-1.51-8.28-37.21,23.39-21.31Z"/></g></g><g class="p"><path class="n" d="M121.26,503.92s14.12-8.51,21.52,1.76c7.4,10.27,2.74,7.08-11.72,5.92-14.46-1.16-15.03-5.41-9.8-7.68Z"/><path class="n" d="M127.46,524.1s4.71-7.82,3.61-12.49c-1.35-5.73,1.2-2.13,1.2-2.13l.5,4.77,4.95-1.92s-5.51,2.18-4.52,6.1c.99,3.91,2.63,5.72,2.63,5.72l-8.37-.03Z"/></g></g><g><g><path class="q" d="M365.59,150.77s1.46,6.77-4.62,8.39c0,0,5.5,1,6.56-4.64,0,0-1.69,8.51,5.11,13.83,0,0-.79-3.71,1.67-6.7,0,0-.4,7.57,3.46,11.85,0,0-1.93-3.63,.15-8.31,0,0,.17,4.43,2.41,6.44,0,0-1.38-3.36,.12-6.02,0,0-.13,5.73,4.26,8.92,0,0-1.78-2.98-1.74-5.41,0,0,3.78,9.23,20.34,13.35,24.41,6.08,28.82-1.76,38.33,.63,.67,.31-2.98-3.4-3.11-6.01,0,0,2.3,3.53,6.18,4.4,0,0-2.03-1.96-3.45-5.75,0,0,3.14,3.24,7.55,3.59,0,0-2.6-1.36-4.19-5.6,0,0,3.27,3.06,7.71,3.18,0,0-3.45-2.1-5.6-5.07,0,0,3.76,2.43,9.08,2.69,0,0-4.15-1.7-6.94-4.56,0,0,5.2,3.65,10.21,2.49,0,0-4.83-1.57-7.88-4.62,0,0,6.07,3.61,9.67,3.4,0,0,17.09-7.15,27.97-27.84,0,0-2.83,2.36-6.6,3.23,0,0,5.23-2.62,9.52-8.53,0,0-1.65,1.24-4.49,2.01,0,0,4.85-3.03,6.47-6.66,0,0-1.68,2.27-5.94,3.44,0,0,6.95-4.27,9.03-15.97,0,0-1.41,3.17-4.14,4.94,0,0,3.75-17.19-10.94-27.11-3.95-2.67-16.58,5.61-19.93,14.35-2.3,6.01,1.16,13.03,1.16,13.03,0,0-3.14-2.57-4.44-6.05,0,0-.39,2.78,1.97,6.45,0,0-2.42-1.5-3.7-4.01,0,0,.42,5.08,5.57,15.21,0,0-4.36-2.97-6.92-11.59,0,0-4.71,8.51-12.85,15.44-1.31,.95,.61,1.59,1.37,4.06,.76,2.47-2.08-3.46-3.82-2.32-1.78,1.17-2.37,1.67-2.43,2.72-.05,1.05,.04,5.19,3.68,9.71,0,0-4.62-2.59-6.33-8.34,0,0-.22,5.35,3.13,8.36,0,0-4.13-2.74-6.15-6.55,0,0,.74,5.93,4.72,8.55,0,0-5.04-1.67-7.7-7.14,0,0,.47,4.81,5.77,8.81,0,0-5.74-1.81-8.52-8.05,0,0-.29,3.47,3.15,7.22,0,0-3.73-2.18-5.01-6.62,0,0-.58,4.86,3.65,8.37,0,0-3.83-1.95-5.45-6.86,0,0-.51,.55-.47,1.54,0,0-2.09-.25-3.43-.02,0,0-.72,3.75,2.01,6.99,0,0-3.42-2.27-3.36-6.78,0,0-1.45,.19-3.89,1.12-2.44,.92-10.78,1.32-17.13-1.6,0,0-1.01,3.72-4.9,5.19,0,0,2.11-2.94,.38-8,0,0,.02,6.03-4.75,7.84,0,0,3.5-4.19-.28-11.24,0,0,1.48,6.33-2.38,8.99,0,0-1.61-.59-3.17-4.06-1.56-3.48-3.26-4.97-5.13-6.15,0,0,2.8,4.42,2.99,7.99,0,0-.72-1.98-2.6-3.83-1.88-1.86-4.29-4.24-4.7-7.04,0,0-.71,3.31,2.35,6.96,0,0-2.41-1.36-3.72-4.48-1.32-3.12-1.63-3.22-2.75-4.35,0,0,2.37,4.92,.25,6.43l-2.44,1.79Z"/><path class="l" d="M353.31,137.35s13.66,24.14,50.12,33.02c35.69,8.69,79.49-14.24,76.26-67.11-1.18,53.43-42.23,73.6-76.65,64.11-35.17-9.7-48.03-33.78-48.03-33.78-.45-.7-2.2,2.4-1.7,3.75Z"/></g><g><path class="r" d="M240.74,370.45c-.57,.27-1.89-.04-4.53-1.34,0,0,1.3,2.54,4.03,4.58,0,0-3.84,1.44-8.67-3.78,0,0,1.31,5.94,7.97,7.27,0,0-3.2,1.68-9.45,.36,0,0,2.39,3.44,8.39,3.41,0,0-3.3,.63-5.3,4.79,0,0,3.27-1.76,7.2-2.05,0,0-3.83,4.02-4.21,10.23,0,0,2.48-4.53,5.99-6.78,0,0-2.18,2.48-3.09,4.76,0,0,.51-1.24,3.64-2,0,0-2.59,.81-5.97,11.19,0,0,1.5-2.11,8.46-3.53,0,0-4,3.06-4.85,9.08,0,0,1.14-2.02,3.27-3.85,0,0-2.21,2.94,.83,11.86,3.03,8.92,5.8,16.15,5.68,19.6,0,0,2.05-2.84,1.9-6.77,0,0,4.69,11.98,24.92,26.11,0,0-3.27-5.12-2.68-10.36,0,0,1.63,5.46,6.09,11.18,0,0,17.74,13.76,42.27,14.02,0,0-3.08-2.33-3.45-6.76,0,0,1.5,3.73,7.18,5.85,0,0,27.63,.18,44.83-25.16,0,0-13.58,4.2-26.38,2.17,0,0-11.51,4.4-19.08,2.82,0,0,8.12-1.29,14.58-4,0,0-10.94-1.18-17.07-3.33,0,0-7.82,1.7-13.94-2.05,0,0,3.98,1.08,10.46,.06,0,0-5.27-1.33-13.94-9.99-8.67-8.65-16.73-15.51-35.64-24.84,0,0,6.84-.76,19.34,6.56,0,0-4.23-5.48-14.24-10.42-10.01-4.94-14.26-5.08-17.99-8.88,0,0,10.06,5.54,18.22-.79,0,0-13.37,4.04-21.95-6.81,0,0,4.93,4.39,12.66,3.32,0,0-3.45-.5-6.19-4.72-2.74-4.23-6.49-4.7-6.49-4.7,0,0,3.64,.59,6.68-3.26,0,0-4.47,1.84-7.16,.51,0,0,3.65-.9,5.26-4.23,0,0-4.02,3.08-8.74,2.51,0,0,3.46-1.21,5.37-5.17,0,0-4.41,3.14-9.3,2.68,0,0,4.31-1.98,3.19-6.31,0,0-1.29,4.1-5.85,5.69,0,0-1.6,.97-2.25,1.28Z"/><path class="l" d="M229.5,335.26s8.59,38.56,25.6,69.55c19.28,35.12,65.42,63.57,110.4,41.3,0,0-29.44,15.69-68.18-3.44-36.96-18.25-53.61-62.57-63.93-108.87-.19-.72-4.1,.49-3.88,1.46Z"/></g><g><path class="s" d="M375.43,261.26s-.45-5.08-1.17-9.35c-.72-4.27-.13-7.77,1.01-11.31,0,0-5.45,4.84-5.11,14.53,0,0-3.84-8.79,.19-16.96,0,0-5.54,3.58-5.39,13.88,0,0-4.28-10.51-1-20.61,0,0-5.54,3.52-4.78,14.6,0,0-1.85-2.71-2.08-9.06-.23-6.35-2.54-8.99-5.37-11.65-2.83-2.66-8.14-7.88-8.1-13.69,0,0-3.92,11.38,3.71,22.67,0,0-6.56-4.14-8.01-18.06-1.46-13.93-8.61-23.6-15.42-30.25-6.81-6.65-28.68-22.82-29.07-36.28,0,0-3.05,2.9-2.6,12.46,.44,9.56-5.17,10.81-5.17,10.81,0,0,6.97-10.38,.3-23.76-3.52-7.06-7.96-9.12-7.76-13.83,0,0-1.49,3.46,.75,10.41,2.25,6.95-.36,14.52-2.23,16.43,0,0,2.78-14.37-3.12-24.72-8.42-14.76-25.41-13.13-28.68-16.24,0,0-13.68,19.17-1.76,38.72,0,0-4.08-5.51-11.33-7.04,0,0,2.96,2.03,7.16,10.46,4.2,8.43,11.6,18.82,22.25,25.14,0,0-12.54-3.67-19.49-14.07,0,0,2.59,13.86,23.29,25.34,0,0-11.4-2.4-18.36-8.01,0,0,5.46,8.18,19.71,12.94,0,0-4.55,2.43-12.54,.43,0,0,2.18,.8,7.19,6.74,5.01,5.93,36.86,43.77,71.5,45.51,0,0-4.6,1.22-6.99,8.56,0,0,4.8-7.06,15.79-6.81,0,0-6.85,3.38-7.32,13.01,0,0,3.76-7.03,13.05-10.42,0,0-2.76,6.92,2.26,15.99,0,0-.74-7.72,3.26-15.04,0,0,.48,9.2,6.84,14.61,0,0-2.97-5.4-.75-13.84,0,0,.86,8.5,9.69,11.76,0,0-4.65-5.22-4.58-9.19,0,0,5.19,1.85,9.9-1.28l.34-3.55Z"/><path class="l" d="M396.65,269.34s-41.3-1.03-90.97-45.27c-45.25-40.3-51.6-82.76-51.6-82.76,0,0,12.25,43.6,56.17,81.35,50.43,43.35,85.95,40.34,85.95,40.34,1.09-.05,1.22,6.39,.45,6.35Z"/></g><g><path class="t" d="M418.46,357.01s.79,2.95-3.1,7.59c0,0,3.77-1.02,5.46-5.26,0,0,2.26,2.97,2.5,7,0,0,2.5-3.01-.05-7.11,0,0,4.51,2.93,6.03,7.58,0,0,1.1-4.09-2.75-7.31,0,0,7.51,4.32,11.75,9.7,0,0-.33-4.31-3.88-6.98,0,0,8.61,3.29,10.69,6.04,0,0,.84-2.67-2.76-6.04,0,0,3.95,2.35,8.13,3.55,4.18,1.21,5.84,.29,8.74-1.25,2.89-1.54,4.49-.19,8.14-.64,3.65-.45,4.94,.16,9.57-3.58,4.63-3.74,11.83-2.4,21.56-10.56,0,0-4.9,1.46-8.67-.56-3.77-2.01-5.52-4.14-10.14-3.39,0,0,1.67-2.54,6.61-1.21,4.94,1.33,8.59,2.88,13.26,1.96,5.28-1.04,6.96-5.3,14.34-5.51,0,0-1.98-1.16-5.74-.84-3.76,.32-5.88-1.82-5.88-1.82,0,0,4.87,2.3,12.38-.8,7.51-3.1,9.01-9.11,18.15-18.15,9.15-9.04,11.18-13.73,13.65-20.85,3.46-11.55,8.93-15.09,7.89-20.98-2.7-15.28,.19-16.14-2.76-21.13-.81-1.3-7.69-1.48-18.01,.64-2.73,.65-4.15,1.55-4.69,6.44-.54,4.9-.64,8.36-3.63,13.47,0,0,2.76-7.71-.84-15.35,0,0-1.6,3.6-8.82,10.65-7.22,7.05-21.62,14.73-27.26,22.72-8.8,11.52-2.95,21.37-9.68,28.33,0,0,2.67-4.36,.32-10.77-2.35-6.41,.2-12.33,3.31-16.23,0,0-5.69,2.44-9.04,12.21-3.35,9.76-.27,15.63-6.52,24.57,0,0,2.49-5.37,2.75-14.22,.26-8.85-.63-10.69,1.86-15.61,0,0-2.33,2.47-4.06,5.31-1.73,2.84-2.64,3.29-5.28,5.59-2.65,2.3-6.36,7.27-6.67,10.91,0,0-.8-4.73,3.43-10.7,0,0-5.23,2.23-8.68,7.67-4.44,7-6.09,14.72-10.31,20.12,0,0,1.17-1.86,1.99-7.19,1.41-8.19,5.58-11.25,3.5-17.05,0,0-1.09,5.07-5.82,7.67-4.74,2.59-6.46,2.73-10.23,8.59-3.77,5.86-3.39,6.81-6.67,8.89,0,0,5.54-6.66,2.71-14.24,0,0,.12,3.81-2.32,8.75-2.45,4.94-3.16,6.35-3.36,8.09-.5-4.03,1.91-6.75-4.49-11.77,0,0,4.33,5.98,2.26,11.84,0,0-1.77-4.12-7.58-4.47,0,0,6.67,5.17,7.95,10.75,0,0-3.58-4.59-10.18-4.06,0,0,6.5,1.54,9.53,6.96l1.42,2.04Z"/><path class="l" d="M543.44,269.55c-47.85,85.71-135.52,86.87-150.84,86.13-.32,0,.23,3.71,.78,3.77,0,0,101.54,5.88,150.06-89.9Z"/></g></g></g></g></svg>