<?xml version="1.0" encoding="UTF-8"?><svg xmlns="http://www.w3.org/2000/svg" xmlns:xlink="http://www.w3.org/1999/xlink" viewBox="0 0 443.78 451.48"><defs><style>.e{fill:#204910;opacity:.32;}.f{opacity:.5;}.g{fill:#8fc12f;}.g,.h{opacity:.51;}.i{isolation:isolate;}.h{fill:#b6f261;}.j{fill:#48bc28;stroke:#45a525;}.j,.k,.l{stroke-miterlimit:10;}.m{mix-blend-mode:screen;opacity:.69;}.m,.n{fill:#b0e573;}.o{fill:url(#b);}.p{clip-path:url(#d);}.q{fill:none;}.r{fill:#353535;}.k{fill:#41a022;stroke:#38841c;stroke-width:.5px;}.l{fill:#31d0e5;stroke:url(#c);stroke-width:6px;}</style><linearGradient id="b" x1="43.17" y1="103.28" x2="392.43" y2="342.6" gradientTransform="matrix(1, 0, 0, 1, 0, 0)" gradientUnits="userSpaceOnUse"><stop offset="0" stop-color="#9b81cf"/><stop offset="1" stop-color="#3b139b"/></linearGradient><linearGradient id="c" x1="16.1" y1="225.74" x2="427.68" y2="225.74" gradientTransform="matrix(1, 0, 0, 1, 0, 0)" gradientUnits="userSpaceOnUse"><stop offset="0" stop-color="#4c1da9"/><stop offset="1" stop-color="#997ece"/></linearGradient><clipPath id="d"><circle class="q" cx="225.89" cy="228.06" r="209.22"/></clipPath></defs><g class="i"><g id="a"><g><path class="f" d="M435.12,236.99c0-36.23-9.21-70.32-25.42-100.03-35.31-67.72-106.15-113.96-187.81-113.96C104.98,23,10.21,117.77,10.21,234.67s94.77,211.68,211.68,211.68c2.97,0,5.93-.08,8.87-.2,113.3-2.59,204.36-95.24,204.36-209.16Z"/><g><g><circle class="o" cx="221.89" cy="225.74" r="211.68"/><circle class="l" cx="221.89" cy="225.74" r="202.78"/></g><g class="p"><g><g><g><path class="k" d="M97.79,264.13s-22.86-6.23-36.09,3.59l-1.32,6.78s11.58-11.26,35.75-9.33l1.66-1.04Z"/><path class="e" d="M60.38,274.5s11.22-11.6,35.75-9.33l.75-.47s-25.9-3.63-36.25,8.51l-.26,1.28Z"/><path class="g" d="M61.7,267.72s10.44-7.43,27.82-5.08c0,0-15.32-1.26-27.85,5.39l.03-.3Z"/></g><g><g><path class="q" d="M255.57,331.38c-.07,0-.13,.02-.2,.02-.12,0-.28,.01-.5,0,.23,0,.47-.02,.7-.03Z"/><path class="r" d="M256.92,331c.07,0,.14-.02,.2-.02,.14-.02,.46,.02,.3,.24-.16,.22-.47,.3-.72,.34-.06,.01-.13,.02-.2,.02-.13,.01-.46-.02-.3-.24,.15-.21,.48-.33,.72-.34,.07,0,.14-.01,.2-.02-.14,.19-.28,.39-.42,.58-.06,.01-.13,.02-.2,.02-.13,.02-.46-.02-.3-.24,.15-.21,.48-.32,.72-.34Z"/><path class="j" d="M136,306.65c-53.92-30.45-43.32-42.79-43.32-42.79-4.26-6.86,5.7-22.15,42.26-20.66,28.01,1.14,35.57,13.66,64.27,43.14,32.26,33.14,53.01,39.58,56.4,39.62-20.81,.85-79.36,3.42-119.61-19.31Z"/><path class="k" d="M69.4,293.39c-.46-13.26,11.63-27.29,23.29-29.53,0,0,6.88,29.32,59.46,47.95,43.46,15.4,82.16,15.13,102.97,14.27,.21,0,.38,0,.5,0-14.66,1.42-40.1,20.63-74.33,29.73-69.74,18.55-111.24-43.8-111.88-62.42Z"/></g><g><path class="m" d="M176.44,356.91s-.1-.12-.34-.28c-.24-.16-.6-.41-1.09-.74-.95-.68-2.36-1.77-3.99-3.42-1.63-1.65-3.46-3.85-5.37-6.61-1.92-2.75-3.92-6.06-6.07-9.92-1.54-2.75-3.17-5.79-4.83-8.82-1.67-3.03-3.37-6.05-5.11-8.72-1.73-2.67-3.52-4.99-5.14-6.54-.8-.78-1.54-1.35-2.07-1.7-.14-.09-.25-.17-.36-.24-.11-.06-.2-.12-.27-.16-.15-.09-.22-.13-.22-.13,0,0,.07,.05,.22,.14,.07,.04,.16,.1,.26,.16,.1,.07,.22,.15,.35,.24,.52,.36,1.24,.94,2.02,1.72,1.57,1.55,3.28,3.87,4.92,6.53,1.65,2.66,3.27,5.67,4.87,8.69,1.6,3.03,3.18,6.07,4.7,8.83,2.13,3.87,4.13,7.2,6.08,9.99,1.94,2.79,3.83,5.04,5.56,6.73,1.72,1.69,3.24,2.8,4.28,3.45,.53,.32,.92,.54,1.19,.67,.27,.13,.4,.18,.41,.15Z"/><path class="m" d="M111.03,291.38c-.06,.08,.53,.5,1.5,1.56,.47,.54,1.04,1.24,1.63,2.13,.59,.89,1.21,1.97,1.84,3.25,1.26,2.54,2.55,5.85,3.92,9.94,1.38,4.09,2.85,8.96,4.78,14.67,1.37,4.05,3.01,8.55,5.04,12.98,2.02,4.42,4.47,8.78,7.26,12.41,1.38,1.81,2.85,3.43,4.29,4.8,1.44,1.37,2.84,2.47,4.06,3.32,.6,.43,1.18,.78,1.67,1.09,.51,.29,.94,.54,1.3,.74,.72,.37,1.12,.58,1.12,.58,0,0-.39-.21-1.1-.6-.35-.21-.78-.47-1.28-.77-.48-.32-1.05-.68-1.64-1.12-1.2-.86-2.57-1.99-3.96-3.36-1.39-1.38-2.82-3-4.14-4.81-2.69-3.62-5.02-7.96-6.95-12.36-1.93-4.41-3.5-8.89-4.84-12.93-1.87-5.69-3.32-10.57-4.72-14.67-1.39-4.1-2.72-7.45-4.07-10.04-.68-1.3-1.35-2.4-2-3.31-.66-.91-1.29-1.63-1.83-2.16-1.12-1.06-1.82-1.39-1.85-1.34Z"/><path class="m" d="M92.58,266.31c-.09,.11,.47,.56,1.03,1.91,.58,1.34,1.16,3.52,1.72,6.56,.57,3.04,1.13,6.95,1.86,11.77,.73,4.82,1.61,10.55,3.04,17.22,1.02,4.73,2.39,9.95,4.16,15.02,.9,2.53,1.89,5.03,2.97,7.4,1.08,2.37,2.26,4.62,3.48,6.66,1.22,2.05,2.48,3.89,3.71,5.48,1.23,1.59,2.42,2.93,3.44,4,1.04,1.06,1.91,1.87,2.52,2.41,.62,.53,.95,.82,.95,.82,0,0-.33-.3-.93-.85-.6-.55-1.44-1.39-2.44-2.47-.99-1.1-2.13-2.46-3.3-4.08-1.18-1.61-2.38-3.47-3.54-5.53-1.16-2.06-2.27-4.31-3.29-6.68-1.02-2.37-1.95-4.86-2.78-7.39-1.66-5.06-2.93-10.26-3.91-14.97-1.37-6.63-2.22-12.35-2.96-17.16-.73-4.81-1.34-8.73-2-11.8-.65-3.06-1.36-5.29-2.13-6.66-.38-.68-.76-1.15-1.06-1.39-.3-.25-.49-.32-.53-.27Z"/><path class="m" d="M175.27,319.3s.29,.24,.86,.71c.57,.46,1.4,1.21,2.38,2.3,.99,1.08,2.13,2.48,3.47,4.23,1.34,1.74,2.86,3.82,4.68,6.26,1.3,1.73,2.77,3.65,4.37,5.55,1.59,1.9,3.31,3.77,5.06,5.35,.87,.79,1.74,1.51,2.58,2.11,.83,.6,1.62,1.09,2.3,1.46,.68,.37,1.23,.61,1.61,.76,.19,.08,.34,.13,.44,.17,.1,.04,.15,.06,.15,.06,0,0-.05-.02-.15-.06-.1-.04-.25-.1-.44-.18-.38-.16-.93-.42-1.59-.79-.66-.37-1.43-.87-2.23-1.48-.81-.61-1.65-1.32-2.48-2.11-1.68-1.58-3.32-3.44-4.86-5.33-1.53-1.89-2.96-3.8-4.24-5.53-1.8-2.43-3.3-4.52-4.66-6.27-1.35-1.75-2.53-3.18-3.58-4.28-.52-.55-1.01-1.02-1.45-1.41-.44-.39-.84-.7-1.16-.92-.66-.46-1.03-.61-1.04-.57Z"/><path class="m" d="M211.24,325.96c-.05,.08,.03,.23,.24,.45,.1,.11,.22,.27,.38,.44,.14,.19,.33,.39,.51,.66,.38,.53,.81,1.25,1.26,2.24,.45,.98,.91,2.22,1.46,3.68,.39,1.03,.84,2.18,1.4,3.23,.56,1.05,1.26,1.98,2.06,2.55,.79,.59,1.65,.76,2.27,.8,.16,0,.3,.01,.42,0,.13-.01,.23-.02,.32-.03,.17-.02,.27-.03,.27-.03,0,0-.09,0-.26,0-.09,0-.19,0-.31,0-.12,0-.25-.03-.41-.05-.59-.09-1.41-.34-2.11-.97-.72-.62-1.34-1.57-1.83-2.64-.5-1.07-.9-2.23-1.27-3.28-.51-1.48-.97-2.75-1.44-3.75-.47-1.01-.95-1.76-1.39-2.27-.21-.26-.43-.45-.61-.62-.19-.14-.35-.27-.49-.33-.29-.14-.44-.16-.48-.09Z"/><path class="m" d="M110.21,289.92c-.06,.16,.34,.47,1.45,.44,1.1-.05,2.88-.57,5.31-1.92,2.42-1.33,5.47-3.44,9.16-6.22,3.7-2.78,8.05-6.24,13.16-10.01,3.64-2.68,7.68-5.5,11.71-7.86,4.03-2.37,8.05-4.24,11.54-5.24,3.49-1.03,6.4-1.19,8.39-1.05,.99,.09,1.76,.22,2.29,.33,.52,.12,.8,.18,.8,.18,0,0-.28-.08-.78-.24-.51-.14-1.27-.32-2.24-.48-1.96-.27-4.85-.28-8.36,.59-3.5,.84-7.57,2.55-11.66,4.81-4.09,2.25-8.19,5.01-11.85,7.65-5.16,3.73-9.52,7.17-13.2,9.94-3.67,2.78-6.65,4.91-9,6.3-2.34,1.41-4.02,2.05-5.09,2.33-1.07,.26-1.56,.25-1.64,.45Z"/><path class="m" d="M133.11,304.02c.02,.06,.17,.07,.46,.02,.14-.02,.32-.06,.54-.1,.21-.05,.47-.11,.74-.21,1.12-.36,2.71-1.13,4.67-2.45,1.96-1.32,4.26-3.19,6.91-5.62,2.68-2.41,5.7-5.38,9.4-8.7,1.31-1.19,2.73-2.4,4.2-3.62,1.49-1.2,3.04-2.41,4.66-3.53,1.63-1.11,3.29-2.17,5-3.05,.84-.47,1.71-.85,2.56-1.24,.42-.2,.86-.35,1.28-.52,.43-.16,.84-.35,1.27-.47,.85-.27,1.66-.57,2.48-.74,.4-.1,.8-.19,1.19-.29,.39-.08,.78-.13,1.15-.2,.38-.06,.74-.13,1.09-.18,.36-.03,.71-.06,1.04-.1,.33-.03,.66-.06,.96-.09,.31-.01,.61,0,.89-.02,.57,0,1.08-.03,1.52,0,.45,.03,.83,.06,1.14,.08,.62,.04,.96,.07,.96,.07,0,0-.34-.04-.96-.11-.31-.03-.69-.08-1.14-.12-.45-.04-.96-.03-1.53-.05-.29,0-.59-.01-.9-.02-.31,.02-.64,.03-.98,.06-.34,.02-.69,.04-1.05,.06-.36,.03-.73,.09-1.11,.14-.38,.05-.77,.1-1.18,.16-.4,.08-.8,.17-1.22,.26-.84,.15-1.67,.42-2.55,.66-.45,.12-.86,.3-1.3,.44-.44,.16-.89,.3-1.33,.49-.87,.38-1.78,.74-2.65,1.19-1.78,.85-3.5,1.88-5.19,2.96-1.68,1.09-3.29,2.28-4.82,3.46-1.52,1.21-2.97,2.41-4.31,3.59-3.77,3.31-6.82,6.27-9.47,8.67-2.63,2.42-4.85,4.29-6.7,5.63-1.85,1.34-3.31,2.18-4.3,2.66-.24,.14-.46,.23-.65,.32-.19,.09-.34,.16-.47,.23-.24,.13-.35,.23-.33,.29Z"/><path class="m" d="M154.57,311.34c-.15,.31,.08,.62,.83,.8,.78,.1,2.12-.04,4.2-.83,2.08-.8,4.89-2.25,8.43-4.37,3.54-2.11,7.83-4.9,12.74-7.88,3.48-2.11,7.29-4.31,10.86-5.91,3.58-1.64,6.85-2.54,9.35-2.48,2.51,.05,4.19,1.12,5.15,2.26,.23,.31,.45,.55,.62,.81,.16,.27,.28,.53,.39,.73,.21,.41,.33,.63,.33,.63,0,0-.09-.27-.27-.72-.09-.23-.19-.51-.32-.85-.15-.3-.34-.59-.54-.95-.84-1.37-2.37-2.75-4.77-3.12-2.39-.37-5.6,.23-9.13,1.62-3.52,1.35-7.31,3.38-10.8,5.42-4.9,2.87-9.17,5.6-12.69,7.71-3.52,2.14-6.3,3.66-8.39,4.63-4.19,1.96-5.62,1.76-5.99,2.5Z"/><path class="m" d="M210.27,325.16c0,.12,.23,.19,.71,.22,.48,0,1.24-.06,2.2-.36,.49-.14,1.01-.35,1.59-.62,.57-.27,1.18-.59,1.83-.98,1.29-.76,2.73-1.74,4.47-2.77,1.23-.73,2.64-1.49,4.11-2.1,1.47-.62,3.02-1.08,4.41-1.4,1.4-.31,2.65-.47,3.54-.57,.45-.05,.81-.07,1.05-.09,.25-.02,.38-.03,.38-.03,0,0-.13,0-.38,0-.24,0-.6-.01-1.05,0-.9,.02-2.17,.07-3.62,.28-1.45,.2-3.08,.57-4.65,1.12-1.58,.54-3.09,1.26-4.38,1.99-1.82,1.02-3.27,1.99-4.52,2.74-1.24,.75-2.28,1.27-3.12,1.6-1.69,.66-2.57,.73-2.55,.99Z"/><path class="m" d="M94.21,267.92c-.02,.15,.44,.31,1.45,.42,1.01,.06,2.58,0,4.65-.5,2.07-.5,4.62-1.43,7.61-2.86,2.99-1.44,6.42-3.38,10.35-5.75,5.59-3.36,12.26-7.69,17.94-10.35,1.42-.68,2.77-1.23,4-1.7,.62-.22,1.2-.43,1.75-.6,.55-.15,1.07-.3,1.53-.44,.47-.11,.9-.2,1.27-.28,.37-.09,.69-.12,.96-.17,.53-.08,.81-.13,.81-.13,0,0-.29,.03-.82,.08-.26,.03-.59,.04-.96,.11-.38,.06-.81,.13-1.29,.22-.47,.11-1,.23-1.56,.35-.56,.15-1.16,.33-1.79,.51-1.26,.41-2.65,.89-4.1,1.52-5.85,2.41-12.72,6.49-18.34,9.76-3.95,2.31-7.36,4.2-10.29,5.63-2.93,1.41-5.38,2.36-7.34,2.93-3.93,1.13-5.81,.87-5.84,1.25Z"/><path class="m" d="M175.73,320.14c-.12,.25,.11,.52,.8,.72,.72,.13,1.93,.1,3.77-.44,1.85-.54,4.31-1.59,7.41-3.14,3.1-1.55,6.84-3.62,11.13-5.82,3.05-1.55,6.38-3.16,9.54-4.28,3.16-1.16,6.08-1.71,8.36-1.51,2.29,.2,3.88,1.19,4.82,2.21,.23,.27,.44,.49,.61,.72,.16,.24,.29,.46,.39,.63,.22,.35,.34,.55,.34,.55,0,0-.1-.23-.29-.62-.09-.2-.21-.44-.34-.73-.15-.26-.34-.52-.55-.83-.84-1.2-2.31-2.44-4.53-2.9-2.2-.45-5.08-.15-8.22,.8-3.12,.92-6.46,2.38-9.51,3.88-4.29,2.1-8.02,4.13-11.09,5.68-3.08,1.57-5.52,2.68-7.36,3.36-3.69,1.39-5.01,1.13-5.3,1.72Z"/></g><path class="n" d="M92.69,263.86c6.91,21.27,29.55,35.04,49.34,42.85,35.53,13.75,73.83,16.46,111.55,19.34-38.15,3-77.94,.67-113.71-14.1-14.25-6.16-27.98-14.78-37.65-27.11-4.61-6.17-8.64-13.24-9.53-20.98h0Z"/></g><path class="h" d="M92.02,261.74s37.48-33.71,78.61-1.29c9.06,7.14,17.63,23.47,26.62,30.69,44.21,35.5,38.97,26.12,53.21,33.48,0,0-19.44-7.76-44.12-32.04,0,0-22-22.72-25.9-26.27-12.57-11.45-17.89-22.19-46.09-23.62,0,0-40.64-1.84-42.33,19.05Z"/><path class="e" d="M84.94,267.64s-19.79,20.8,3.46,52.77c0,0,46.99,51.77,100.17,30.22,0,0,50.02-22.52,58.08-22.81,0,0-11.57,4.25-30.09,14.71,0,0-40.43,19.76-64.42,16.26,0,0-38.72,3.84-71.35-40.04,0,0-26.79-29.33,4.16-51.11Z"/></g><g><g><path class="k" d="M274.55,248.36s-14.53,6.8-17.06,17.68l2.29,4.08s1.04-10.89,14.37-20.49l.4-1.27Z"/><path class="e" d="M259.78,270.12s.7-10.91,14.37-20.49l.18-.57s-14.96,9.48-14.98,20.29l.43,.78Z"/><path class="g" d="M257.49,266.04s2.13-8.42,12.14-14.82c0,0-8.46,6.07-12.02,14.99l-.12-.17Z"/></g><g><g><path class="q" d="M385.5,213.9s-.06,.07-.09,.1c-.06,.05-.14,.13-.25,.22,.12-.11,.23-.21,.35-.32Z"/><path class="r" d="M386.03,213.11s.06-.07,.09-.1c.06-.07,.25-.19,.26-.01,.02,.18-.11,.36-.22,.49-.03,.03-.06,.07-.09,.1-.06,.06-.24,.19-.26,.01-.01-.17,.1-.38,.22-.49,.03-.03,.07-.07,.09-.1,.01,.16,.03,.32,.04,.48-.03,.03-.06,.07-.09,.1-.06,.07-.24,.19-.26,.01-.01-.18,.11-.37,.22-.49Z"/><path class="j" d="M312.92,253.56c-41.19,7.92-41.13-3.1-41.13-3.1-5.2-1.67-6.77-13.93,12.76-29.2,14.96-11.7,24.36-8.54,52.1-5.91,31.19,2.96,44.72-2.81,46.49-4.27-10.37,9.57-39.48,36.56-70.22,42.48Z"/><path class="k" d="M272.72,275.92c-6.05-6.65-5.96-19.19-.93-25.46,0,0,16.41,12.12,51.73-1.32,29.19-11.11,49.05-28.22,59.42-37.78,.11-.09,.19-.17,.25-.22-6.94,7.16-11.66,28.23-25.34,47.95-27.88,40.16-76.64,26.16-85.14,16.83Z"/></g><g><path class="m" d="M355.84,261.78s-.1-.02-.3,0c-.19,.03-.49,.06-.89,.09-.79,.07-2,.12-3.56-.02-1.57-.14-3.47-.47-5.67-1.06-2.2-.58-4.68-1.41-7.49-2.46-2-.74-4.18-1.6-6.36-2.44-2.19-.83-4.39-1.64-6.46-2.26-2.06-.62-4-1.04-5.52-1.12-.75-.05-1.38-.02-1.82,.03-.11,.01-.2,.02-.29,.03-.08,.01-.15,.03-.21,.04-.11,.02-.17,.03-.17,.03,0,0,.06,0,.17-.03,.05,0,.13-.02,.21-.03,.08-.01,.18-.02,.29-.03,.43-.04,1.05-.06,1.79,0,1.49,.11,3.39,.56,5.4,1.21,2.02,.65,4.17,1.49,6.32,2.35,2.15,.86,4.3,1.74,6.3,2.5,2.8,1.07,5.29,1.91,7.52,2.49,2.23,.59,4.19,.92,5.82,1.04,1.63,.12,2.9,.02,3.72-.09,.41-.07,.71-.12,.91-.18,.19-.05,.29-.08,.28-.1Z"/><path class="m" d="M293.33,256.62c0,.07,.5,.02,1.46,.15,.48,.07,1.08,.19,1.78,.39,.7,.2,1.49,.49,2.37,.87,1.77,.76,3.88,1.9,6.38,3.41,2.51,1.5,5.4,3.38,8.9,5.48,2.48,1.49,5.31,3.09,8.3,4.49,2.98,1.4,6.16,2.58,9.19,3.22,1.51,.33,2.98,.52,4.32,.6,1.34,.08,2.55,.03,3.55-.06,.5-.04,.95-.12,1.34-.17,.39-.07,.72-.13,1-.19,.54-.12,.83-.19,.83-.19,0,0-.29,.06-.83,.18-.27,.05-.61,.1-1,.16-.39,.04-.84,.11-1.34,.14-1,.08-2.2,.1-3.52,0-1.32-.1-2.77-.31-4.25-.67-2.97-.69-6.08-1.91-9.01-3.34-2.93-1.43-5.71-3.05-8.17-4.55-3.46-2.12-6.35-4-8.87-5.5-2.52-1.51-4.67-2.65-6.5-3.4-.92-.37-1.75-.65-2.48-.83-.74-.18-1.38-.27-1.89-.31-1.04-.06-1.55,.08-1.54,.12Z"/><path class="m" d="M272.81,251.77c0,.1,.49,.08,1.37,.53,.89,.44,2.14,1.31,3.76,2.63,1.63,1.32,3.63,3.09,6.12,5.26,2.49,2.16,5.46,4.74,9.12,7.56,2.6,1.99,5.6,4.09,8.74,5.93,1.57,.91,3.18,1.77,4.78,2.52,1.6,.75,3.19,1.39,4.72,1.91,1.53,.52,2.99,.92,4.32,1.2,1.33,.28,2.53,.45,3.53,.56,1,.09,1.8,.13,2.36,.14,.55,0,.85,0,.85,0,0,0-.3,0-.85-.03-.55-.02-1.35-.09-2.35-.2-.99-.14-2.18-.34-3.49-.66-1.31-.32-2.75-.75-4.25-1.31-1.5-.55-3.06-1.23-4.63-2.01-1.57-.78-3.14-1.66-4.68-2.59-3.08-1.88-6.01-4.01-8.58-6.01-3.62-2.82-6.56-5.4-9.06-7.56-2.49-2.16-4.52-3.92-6.21-5.22-1.68-1.3-3.02-2.13-4.02-2.5-.49-.18-.89-.26-1.16-.25-.27,0-.39,.05-.39,.09Z"/><path class="m" d="M338.74,242.87s.25,0,.76-.01c.5-.01,1.25,.02,2.23,.14,.98,.12,2.19,.35,3.64,.66,1.45,.31,3.15,.72,5.16,1.18,1.43,.32,3.03,.67,4.69,.95,1.65,.28,3.36,.49,4.96,.54,.8,.03,1.56,.01,2.26-.04,.69-.05,1.32-.15,1.82-.25,.51-.11,.9-.23,1.17-.31,.13-.04,.23-.08,.3-.11,.07-.02,.1-.04,.1-.04,0,0-.04,.01-.1,.04-.07,.02-.17,.06-.3,.1-.27,.08-.66,.19-1.17,.29-.5,.1-1.12,.18-1.8,.22-.68,.04-1.43,.04-2.21,0-1.56-.08-3.23-.32-4.84-.62-1.62-.3-3.2-.67-4.62-1-1.99-.47-3.69-.88-5.16-1.2-1.47-.31-2.7-.53-3.73-.64-.51-.05-.97-.08-1.37-.09-.4,0-.74,0-1.01,.03-.54,.05-.8,.14-.79,.16Z"/><path class="m" d="M360.23,230.54c0,.06,.12,.1,.32,.12,.1,.01,.23,.04,.39,.06,.16,.03,.34,.06,.56,.12,.43,.1,.97,.29,1.63,.6,.66,.31,1.44,.75,2.37,1.26,.65,.36,1.39,.76,2.14,1.05,.75,.29,1.52,.47,2.18,.41,.67-.04,1.19-.33,1.52-.59,.08-.07,.16-.12,.22-.18,.06-.06,.11-.11,.15-.16,.08-.08,.13-.13,.13-.13,0,0-.05,.04-.14,.11-.04,.04-.1,.08-.16,.14-.07,.05-.14,.1-.23,.15-.35,.21-.87,.44-1.52,.42-.64,0-1.38-.22-2.1-.56-.72-.33-1.44-.76-2.09-1.14-.91-.54-1.7-.99-2.39-1.31-.68-.32-1.26-.49-1.71-.56-.23-.04-.42-.05-.59-.05-.16,.01-.3,.02-.4,.04-.21,.05-.3,.11-.29,.17Z"/><path class="m" d="M292.27,256.23c.04,.11,.38,.09,.94-.41,.55-.51,1.24-1.56,1.9-3.32,.67-1.75,1.31-4.17,2-7.23,.69-3.05,1.42-6.75,2.41-10.94,.7-2.98,1.55-6.21,2.6-9.2,1.04-2.99,2.3-5.72,3.66-7.76,1.35-2.06,2.78-3.42,3.87-4.22,.55-.39,1.01-.66,1.33-.83,.32-.16,.49-.26,.49-.26,0,0-.18,.08-.51,.22-.33,.15-.8,.39-1.37,.73-1.13,.72-2.63,1.98-4.05,3.97-1.44,1.97-2.79,4.63-3.91,7.6-1.12,2.95-2.03,6.18-2.76,9.15-1.03,4.19-1.77,7.88-2.45,10.92-.68,3.04-1.28,5.45-1.88,7.2-.59,1.76-1.17,2.82-1.61,3.43-.44,.6-.7,.82-.65,.95Z"/><path class="m" d="M310.28,253.47s.12-.04,.25-.19c.06-.07,.14-.17,.23-.29,.09-.12,.19-.26,.29-.43,.42-.68,.9-1.77,1.34-3.32,.43-1.54,.8-3.51,1.11-5.93,.33-2.42,.58-5.28,1.04-8.62,.16-1.19,.35-2.44,.58-3.71,.24-1.27,.51-2.58,.86-3.86,.35-1.29,.75-2.56,1.24-3.77,.23-.61,.51-1.19,.78-1.76,.13-.29,.29-.56,.43-.83,.15-.27,.28-.55,.45-.8,.32-.51,.61-1.02,.96-1.47,.16-.23,.33-.45,.48-.67,.17-.21,.34-.41,.51-.61,.17-.2,.32-.39,.48-.57,.17-.18,.34-.34,.49-.51,.16-.16,.31-.32,.46-.47,.15-.14,.31-.27,.45-.4,.29-.25,.54-.49,.79-.67,.24-.18,.45-.33,.62-.46,.34-.25,.53-.39,.53-.39,0,0-.19,.13-.54,.37-.18,.12-.39,.27-.64,.44-.25,.18-.51,.4-.81,.64-.15,.12-.31,.25-.47,.39-.15,.15-.31,.3-.48,.46-.17,.16-.34,.32-.52,.49-.17,.18-.34,.37-.51,.56-.17,.19-.36,.39-.54,.6-.17,.22-.34,.44-.52,.67-.37,.45-.68,.95-1.03,1.46-.18,.26-.32,.53-.48,.8-.16,.28-.33,.55-.47,.83-.29,.58-.59,1.16-.85,1.78-.55,1.22-.99,2.5-1.38,3.8-.39,1.3-.7,2.62-.97,3.9-.26,1.29-.48,2.55-.65,3.74-.5,3.36-.77,6.23-1.09,8.63-.3,2.4-.62,4.34-.99,5.85-.37,1.5-.75,2.57-1.05,3.26-.06,.18-.13,.32-.19,.45-.06,.13-.11,.23-.14,.32-.06,.17-.08,.27-.04,.29Z"/><path class="m" d="M324.56,247.84c.06,.23,.31,.29,.78,.05,.45-.29,1.08-.95,1.8-2.27,.73-1.32,1.53-3.31,2.44-5.95,.9-2.64,1.89-5.96,3.12-9.65,.87-2.62,1.88-5.42,3.02-7.81,1.13-2.41,2.42-4.32,3.74-5.38,1.32-1.07,2.65-1.26,3.65-1.09,.25,.06,.48,.09,.68,.15,.2,.07,.38,.15,.52,.21,.29,.12,.45,.18,.45,.18,0,0-.16-.1-.45-.25-.15-.08-.32-.18-.53-.3-.2-.09-.44-.16-.7-.26-1.03-.34-2.43-.38-3.83,.48-1.4,.86-2.79,2.57-4,4.84-1.22,2.24-2.3,4.95-3.2,7.53-1.27,3.63-2.28,6.91-3.17,9.54-.88,2.65-1.65,4.65-2.3,6.07-1.3,2.85-2.13,3.37-2,3.92Z"/><path class="m" d="M359.38,230.55c.05,.06,.2,0,.46-.2,.25-.21,.61-.58,.98-1.15,.19-.29,.37-.63,.55-1.01,.18-.39,.35-.82,.52-1.3,.34-.96,.64-2.09,1.09-3.39,.31-.92,.71-1.93,1.2-2.89,.49-.96,1.08-1.88,1.67-2.66,.58-.77,1.16-1.41,1.58-1.85,.21-.22,.39-.39,.5-.51,.12-.12,.18-.18,.18-.18,0,0-.07,.06-.2,.16-.12,.11-.32,.26-.55,.46-.46,.4-1.09,.99-1.75,1.73-.66,.74-1.34,1.65-1.91,2.62-.58,.97-1.04,2.01-1.39,2.95-.49,1.33-.81,2.46-1.13,3.39-.31,.93-.62,1.65-.91,2.19-.59,1.08-1.01,1.5-.88,1.63Z"/><path class="m" d="M274.36,251.89c.06,.08,.36-.03,.93-.42,.55-.41,1.33-1.13,2.19-2.3,.85-1.16,1.76-2.76,2.68-4.81,.91-2.05,1.83-4.56,2.82-7.51,1.41-4.19,2.95-9.35,4.72-13.21,.43-.97,.89-1.85,1.32-2.63,.22-.38,.43-.75,.64-1.08,.22-.32,.42-.62,.6-.9,.2-.26,.38-.5,.53-.7,.15-.21,.31-.37,.42-.51,.24-.27,.36-.42,.36-.42,0,0-.14,.14-.39,.4-.12,.13-.28,.28-.45,.48-.17,.2-.36,.42-.57,.68-.2,.27-.41,.55-.65,.87-.22,.32-.45,.68-.7,1.05-.47,.76-.98,1.62-1.45,2.58-1.96,3.81-3.72,8.93-5.19,13.08-1.02,2.93-1.96,5.39-2.84,7.42-.89,2.01-1.74,3.58-2.51,4.73-1.53,2.3-2.62,3-2.47,3.2Z"/><path class="m" d="M339.35,243.1c.05,.18,.29,.22,.73,.02,.43-.25,1.04-.8,1.75-1.88,.72-1.09,1.53-2.71,2.45-4.87,.92-2.16,1.94-4.87,3.19-7.88,.89-2.14,1.91-4.43,3.05-6.39,1.12-1.98,2.39-3.55,3.66-4.45,1.27-.9,2.52-1.09,3.45-.97,.24,.04,.44,.06,.63,.1,.19,.05,.35,.11,.48,.15,.27,.09,.41,.13,.41,.13,0,0-.15-.07-.42-.19-.13-.06-.3-.14-.49-.23-.19-.07-.4-.12-.65-.19-.96-.25-2.27-.25-3.61,.49-1.33,.73-2.69,2.15-3.89,4.02-1.21,1.84-2.29,4.06-3.21,6.17-1.29,2.97-2.33,5.65-3.24,7.79-.9,2.16-1.68,3.8-2.33,4.97-1.3,2.34-2.09,2.78-1.98,3.22Z"/></g><path class="n" d="M271.79,250.46c17.86,9.64,40.77,1.82,57.96-6.18,18.52-8.82,35.29-20.76,52.38-32.26-7.03,7.69-14.78,14.71-23.07,21.08-16.7,12.61-35.93,23.43-57.23,25.47-10.38,.79-22.21-.67-30.04-8.11h0Z"/></g><path class="h" d="M270.52,249.66s4.57-33.84,40.02-35.14c7.81-.29,19.39,4.39,27.2,4.17,38.39-1.06,31.57-3.6,42.16-6.05,0,0-13.44,4.52-36.83,2.81,0,0-21.32-2.08-24.89-2.21-11.51-.4-18.97-3.61-34.15,8.01,0,0-21.79,16.87-13.51,28.4Z"/><path class="e" d="M269.45,255.81s-1.1,19.41,24.93,25.73c0,0,46.96,6.13,64.97-28.32,0,0,15.95-33.56,19.99-37.24,0,0-4.11,7.27-9.08,20.79,0,0-12.21,27.93-26.13,36.64,0,0-18.31,18.96-54.4,10.62,0,0-26.69-3.39-20.27-28.21Z"/></g><g><g><path class="k" d="M196.88,155.29s-10.09,7.56-10.29,16.32l2.41,2.77s-.94-8.54,7.77-18.06l.11-1.04Z"/><path class="e" d="M189.01,174.38s-1.2-8.5,7.77-18.06l.05-.47s-9.99,9.69-8.27,18l.45,.53Z"/><path class="g" d="M186.59,171.61s.29-6.81,6.96-13.34c0,0-5.54,6.02-6.84,13.45l-.12-.11Z"/></g><g><g><path class="q" d="M276.67,111.03l-.06,.09c-.04,.05-.09,.12-.16,.21,.07-.1,.15-.2,.22-.3Z"/><path class="r" d="M276.95,110.34s.04-.06,.06-.09c.04-.06,.16-.19,.2-.05,.04,.14-.03,.3-.09,.41-.01,.03-.04,.06-.06,.09-.04,.06-.16,.19-.2,.05-.04-.13,.02-.31,.09-.42,.02-.03,.04-.06,.06-.09,.04,.12,.07,.24,.11,.36-.02,.03-.04,.06-.06,.09-.04,.06-.16,.19-.2,.05-.04-.13,.02-.3,.09-.42Z"/><path class="j" d="M227.22,153.14c-30.41,12.69-32.12,4.2-32.12,4.2-4.27-.45-7.44-9.63,5.14-24.49,9.63-11.39,17.36-10.47,39.11-12.88,24.45-2.71,33.94-9.32,35.06-10.73-6.44,9.01-24.5,34.43-47.19,43.9Z"/><path class="k" d="M199.88,176.77c-5.72-4.14-7.66-13.8-4.79-19.43,0,0,14.56,6.7,39.56-9.29,20.67-13.21,33.2-29.55,39.64-38.56,.07-.09,.12-.16,.16-.21-4.19,6.62-4.44,23.58-11.81,40.92-15,35.34-54.74,32.39-62.77,26.57Z"/></g><g><path class="m" d="M261.53,152.59s-.08,0-.23,.05c-.15,.05-.37,.12-.67,.21-.6,.18-1.51,.41-2.74,.56-1.23,.15-2.75,.19-4.53,.1-1.78-.1-3.82-.33-6.15-.69-1.65-.25-3.47-.56-5.28-.85-1.82-.29-3.64-.56-5.33-.71-1.68-.15-3.25-.16-4.43,.02-.59,.08-1.07,.21-1.39,.31-.08,.03-.15,.05-.22,.07-.06,.02-.11,.04-.15,.06-.08,.03-.13,.05-.13,.05,0,0,.04-.02,.13-.05,.04-.02,.09-.03,.15-.06,.06-.02,.13-.04,.22-.07,.32-.1,.8-.21,1.38-.28,1.17-.15,2.7-.11,4.35,.07,1.66,.18,3.45,.48,5.24,.79,1.79,.32,3.59,.65,5.24,.91,2.32,.37,4.37,.62,6.18,.71,1.81,.1,3.37,.04,4.64-.13,1.27-.17,2.24-.45,2.85-.67,.31-.12,.53-.21,.67-.28,.14-.07,.21-.11,.2-.12Z"/><path class="m" d="M212.65,158.63c.01,.05,.38-.06,1.15-.12,.38-.02,.86-.03,1.43,.01,.57,.04,1.22,.14,1.96,.29,1.48,.3,3.29,.84,5.45,1.6,2.17,.76,4.69,1.73,7.72,2.79,2.15,.75,4.57,1.53,7.1,2.13,2.52,.6,5.15,.99,7.58,1.01,1.21,.01,2.37-.08,3.42-.23,1.04-.16,1.97-.38,2.72-.62,.38-.11,.71-.24,1-.34,.29-.12,.54-.22,.74-.3,.39-.18,.61-.28,.61-.28,0,0-.22,.09-.61,.27-.2,.08-.45,.18-.74,.29-.29,.1-.63,.22-1.01,.32-.75,.22-1.67,.43-2.71,.56-1.03,.13-2.18,.2-3.37,.17-2.4-.06-4.98-.49-7.46-1.12-2.48-.63-4.88-1.43-7.01-2.19-3-1.07-5.52-2.06-7.7-2.81-2.18-.76-4.02-1.29-5.54-1.57-.76-.14-1.45-.22-2.04-.24-.6-.02-1.1,0-1.51,.06-.81,.12-1.18,.31-1.17,.34Z"/><path class="m" d="M196.09,158.19c.02,.07,.39-.02,1.14,.19,.75,.2,1.85,.66,3.31,1.42,1.46,.76,3.29,1.8,5.55,3.07,2.26,1.27,4.96,2.77,8.22,4.35,2.32,1.12,4.96,2.25,7.67,3.16,1.36,.45,2.73,.85,4.08,1.17,1.35,.32,2.68,.56,3.93,.71,1.26,.16,2.45,.23,3.51,.23,1.07,0,2.02-.06,2.8-.14,.78-.09,1.41-.19,1.83-.27,.43-.08,.66-.13,.66-.13,0,0-.23,.04-.66,.11-.43,.07-1.05,.15-1.84,.22-.79,.06-1.73,.09-2.79,.06-1.06-.03-2.24-.14-3.48-.32-1.24-.19-2.55-.45-3.88-.8-1.33-.35-2.68-.77-4.01-1.25-2.67-.96-5.27-2.12-7.56-3.25-3.23-1.59-5.91-3.1-8.17-4.36-2.26-1.27-4.11-2.29-5.61-3.02-1.5-.73-2.67-1.16-3.49-1.28-.41-.06-.73-.06-.93,0-.2,.04-.29,.1-.29,.13Z"/><path class="m" d="M245.36,140.79s.2-.04,.58-.13c.38-.09,.97-.19,1.74-.25,.78-.06,1.74-.08,2.91-.07,1.17,0,2.54,.05,4.16,.08,1.15,.02,2.44,.03,3.76-.02,1.32-.05,2.67-.16,3.9-.38,.62-.11,1.2-.24,1.73-.39,.53-.15,.99-.32,1.36-.49,.37-.16,.66-.32,.85-.43,.1-.05,.16-.1,.21-.13,.05-.03,.07-.05,.07-.05l-.07,.04s-.12,.07-.22,.12c-.19,.1-.48,.25-.85,.41-.37,.16-.83,.31-1.35,.45-.52,.14-1.09,.26-1.7,.35-1.21,.19-2.53,.27-3.82,.3-1.29,.03-2.56,0-3.71-.03-1.61-.04-2.98-.09-4.16-.1-1.18,0-2.16,.02-2.97,.11-.4,.04-.76,.09-1.07,.15-.31,.06-.57,.12-.77,.19-.41,.13-.59,.23-.58,.25Z"/><path class="m" d="M259.91,127.87s.11,.06,.27,.04c.08,0,.19,0,.31-.02,.13,0,.27-.01,.45,0,.34,.01,.79,.07,1.35,.2,.56,.13,1.23,.34,2.02,.59,.56,.17,1.19,.36,1.82,.47,.62,.11,1.24,.12,1.74-.03,.51-.14,.86-.45,1.08-.69,.05-.07,.1-.12,.14-.17,.04-.06,.07-.1,.09-.14,.05-.08,.08-.12,.08-.12,0,0-.03,.04-.09,.11-.03,.04-.06,.08-.1,.13-.04,.05-.1,.1-.15,.16-.23,.22-.6,.48-1.1,.57-.49,.1-1.1,.05-1.7-.09-.61-.14-1.23-.35-1.79-.54-.79-.27-1.47-.49-2.05-.62-.58-.13-1.05-.18-1.41-.16-.18,0-.33,.03-.46,.06-.12,.04-.23,.06-.3,.1-.15,.08-.21,.13-.19,.17Z"/><path class="m" d="M211.76,158.5c.05,.08,.31,0,.66-.46,.34-.48,.7-1.4,.93-2.86,.23-1.45,.34-3.42,.38-5.88,.04-2.46,.01-5.42,.1-8.8,.06-2.4,.2-5.02,.53-7.49,.32-2.47,.85-4.77,1.57-6.56,.71-1.8,1.59-3.08,2.3-3.87,.36-.38,.67-.67,.89-.85,.22-.18,.34-.28,.34-.28,0,0-.13,.09-.36,.25-.23,.17-.55,.43-.94,.78-.75,.73-1.7,1.95-2.48,3.7-.79,1.74-1.4,4.01-1.79,6.47-.39,2.45-.57,5.07-.66,7.47-.12,3.38-.1,6.34-.14,8.79-.03,2.45-.11,4.4-.3,5.84-.17,1.44-.45,2.36-.69,2.9-.24,.53-.41,.74-.35,.83Z"/><path class="m" d="M225.17,153.5s.08-.05,.16-.19c.04-.07,.08-.15,.13-.26,.05-.1,.11-.23,.15-.38,.21-.59,.41-1.51,.5-2.76,.09-1.25,.05-2.83-.1-4.74-.14-1.91-.4-4.15-.58-6.79-.07-.94-.12-1.93-.15-2.95-.02-1.02-.02-2.06,.04-3.11,.07-1.04,.16-2.09,.35-3.1,.08-.51,.2-1,.31-1.48,.05-.24,.13-.48,.2-.71,.07-.23,.13-.47,.22-.69,.17-.45,.31-.88,.5-1.28,.09-.2,.18-.4,.26-.59,.1-.19,.2-.37,.29-.55,.1-.18,.18-.35,.28-.52,.1-.16,.2-.32,.3-.47,.1-.15,.19-.29,.28-.43,.09-.13,.2-.26,.28-.38,.19-.24,.34-.46,.5-.64,.16-.18,.29-.33,.4-.45,.22-.25,.34-.38,.34-.38,0,0-.13,.13-.36,.37-.12,.12-.26,.27-.42,.44-.16,.17-.33,.39-.52,.62-.1,.12-.2,.24-.3,.37-.1,.14-.19,.28-.3,.43-.1,.15-.21,.3-.32,.46-.1,.16-.2,.34-.3,.52-.1,.18-.21,.36-.32,.55-.09,.19-.19,.39-.29,.59-.21,.4-.37,.84-.56,1.29-.1,.23-.16,.46-.24,.69-.08,.24-.16,.47-.23,.72-.13,.49-.27,.99-.37,1.5-.23,1.02-.36,2.08-.45,3.15-.09,1.06-.12,2.12-.12,3.16,.01,1.03,.04,2.04,.1,2.98,.16,2.66,.4,4.91,.55,6.81,.16,1.89,.21,3.44,.17,4.65-.04,1.22-.17,2.1-.29,2.67-.02,.15-.05,.27-.08,.38-.03,.11-.04,.2-.05,.27-.02,.14-.02,.22,.01,.23Z"/><path class="m" d="M235.26,146.88c.08,.17,.29,.17,.61-.09,.3-.29,.68-.9,1.02-2.04,.35-1.13,.65-2.79,.92-4.97,.27-2.18,.5-4.89,.86-7.92,.25-2.15,.58-4.47,1.07-6.49,.48-2.04,1.17-3.71,2.01-4.74,.84-1.04,1.84-1.39,2.63-1.42,.2,0,.38,0,.54,0,.17,.02,.31,.05,.43,.08,.24,.04,.37,.07,.37,.07,0,0-.14-.05-.39-.12-.12-.04-.28-.09-.46-.14-.17-.04-.36-.05-.58-.08-.85-.1-1.93,.1-2.87,.99-.94,.88-1.73,2.43-2.3,4.37-.58,1.92-.97,4.17-1.25,6.3-.4,2.99-.65,5.68-.91,7.84-.25,2.18-.52,3.84-.8,5.04-.54,2.4-1.1,2.93-.91,3.33Z"/><path class="m" d="M259.25,128.01s.16-.03,.32-.23c.16-.2,.38-.54,.57-1.04,.1-.25,.18-.54,.26-.87,.07-.33,.14-.69,.19-1.09,.1-.79,.16-1.71,.3-2.78,.09-.76,.24-1.59,.46-2.41,.22-.82,.53-1.62,.86-2.31s.67-1.27,.92-1.67c.12-.2,.23-.36,.31-.47,.07-.11,.11-.17,.11-.17,0,0-.04,.05-.13,.16-.08,.1-.2,.25-.35,.44-.29,.38-.68,.93-1.07,1.61-.39,.68-.77,1.48-1.05,2.32-.29,.84-.48,1.71-.6,2.49-.17,1.1-.23,2.02-.33,2.79-.09,.77-.21,1.37-.35,1.83-.28,.93-.53,1.32-.42,1.4Z"/><path class="m" d="M197.3,158.03c.06,.05,.27-.08,.65-.47,.35-.4,.84-1.08,1.31-2.12,.47-1.03,.91-2.4,1.29-4.13,.37-1.72,.68-3.8,.97-6.22,.41-3.44,.78-7.66,1.52-10.91,.18-.82,.39-1.57,.59-2.23,.11-.33,.21-.64,.32-.93,.12-.28,.22-.55,.32-.79,.11-.23,.21-.44,.3-.63,.08-.19,.18-.33,.24-.46,.14-.25,.21-.38,.21-.38,0,0-.08,.13-.23,.37-.07,.12-.17,.26-.27,.44-.1,.18-.21,.38-.33,.61-.11,.24-.23,.49-.36,.77-.12,.28-.24,.59-.37,.92-.24,.66-.49,1.4-.7,2.22-.9,3.24-1.43,7.46-1.9,10.89-.32,2.41-.64,4.46-1,6.16-.36,1.69-.77,3.03-1.17,4.04-.81,2.02-1.53,2.72-1.38,2.86Z"/><path class="m" d="M245.86,140.87c.07,.13,.26,.13,.56-.1,.29-.26,.67-.78,1.05-1.73,.38-.95,.74-2.33,1.1-4.14,.36-1.81,.71-4.05,1.19-6.57,.34-1.79,.76-3.71,1.32-5.4,.55-1.7,1.27-3.11,2.1-4,.83-.9,1.77-1.24,2.5-1.3,.19,0,.35-.03,.5-.02,.15,.01,.29,.03,.39,.04,.22,.02,.34,.04,.34,.04,0,0-.13-.03-.35-.08-.11-.03-.25-.06-.42-.1-.16-.02-.33-.02-.53-.04-.78-.04-1.78,.17-2.69,.95-.91,.77-1.72,2.09-2.35,3.71-.63,1.61-1.11,3.49-1.48,5.26-.52,2.49-.89,4.71-1.24,6.51-.35,1.81-.68,3.19-.99,4.19-.63,2-1.16,2.47-1.01,2.79Z"/></g><path class="n" d="M195.1,157.34c15.48,3.99,31.13-5.62,43.18-14.54,12.81-9.72,23.84-21.45,35.5-32.67-3.96,7.2-8.7,13.94-13.99,20.25-10.74,12.56-23.91,24.03-40.13,28.88-7.94,2.2-17.42,2.83-24.56-1.91h0Z"/></g><path class="h" d="M193.99,156.93s-1.9-26.75,25.15-33.42c5.96-1.47,15.61,.27,21.58-1.15,29.35-6.96,23.7-7.82,31.45-11.4,0,0-9.61,5.62-27.87,8.05,0,0-16.73,1.81-19.49,2.29-8.92,1.53-15.16,.26-24.98,11.63,0,0-14.05,16.46-5.84,24Z"/><path class="e" d="M194.16,161.83s2.26,15.1,23.29,15.79c0,0,37.09-2.81,45.42-32.18,0,0,6.89-28.36,9.41-31.84,0,0-1.99,6.25-3.66,17.44,0,0-4.91,23.43-14.23,32.36,0,0-11.04,17.51-40.12,16.87,0,0-21.07,1.66-20.1-18.45Z"/></g></g></g></g></g></g></g></svg>