<?xml version="1.0" encoding="UTF-8"?><svg xmlns="http://www.w3.org/2000/svg" xmlns:xlink="http://www.w3.org/1999/xlink" viewBox="0 0 443.78 451.48"><defs><style>.k{fill:#fb8000;}.l{opacity:.2;}.l,.m{mix-blend-mode:screen;}.n,.o{opacity:.5;}.p{fill:#e53963;}.q{fill:url(#c);}.r{isolation:isolate;}.s{fill:#0028ff;}.t{fill:#c5db7f;}.u{fill:url(#f);}.v{fill:#020fe9;}.w{fill:url(#g);}.x{clip-path:url(#b);}.y{fill:url(#i);}.a`{clip-path:url(#e);}.o{mix-blend-mode:multiply;}.aa{fill:#ff9906;stroke:#d6380d;stroke-width:.75px;}.aa,.ab,.ac{stroke-miterlimit:10;}.ad{fill:url(#h);}.ae,.ac{fill:none;}.m{opacity:.3;}.af{fill:#00a3fd;}.ab{fill:#31d0e5;stroke:url(#d);stroke-width:6px;}.ag{fill:#00a6fd;}.ah{fill:url(#j);}.ai{fill:#3fc416;}.ac{stroke:#2f404f;stroke-width:.5px;}.aj{fill:#ff7880;}.ak{fill:red;}</style><clipPath id="b"><circle class="ae" cx="359" cy="-430.5" r="286.21"/></clipPath><linearGradient id="c" x1="43.17" y1="103.28" x2="392.43" y2="342.6" gradientTransform="matrix(1, 0, 0, 1, 0, 0)" gradientUnits="userSpaceOnUse"><stop offset="0" stop-color="#9b81cf"/><stop offset="1" stop-color="#3b139b"/></linearGradient><linearGradient id="d" x1="16.1" y1="225.74" x2="427.68" y2="225.74" gradientTransform="matrix(1, 0, 0, 1, 0, 0)" gradientUnits="userSpaceOnUse"><stop offset="0" stop-color="#4c1da9"/><stop offset="1" stop-color="#997ece"/></linearGradient><clipPath id="e"><circle class="ae" cx="225.89" cy="228.06" r="209.22"/></clipPath><linearGradient id="f" x1="1022.62" y1="-6299.32" x2="1023.54" y2="-6191.14" gradientTransform="translate(3086.8 4144.52) rotate(154.33) scale(.76 -.76)" gradientUnits="userSpaceOnUse"><stop offset="0" stop-color="#cc8122"/><stop offset=".32" stop-color="#9e5d16"/><stop offset=".78" stop-color="#612e06"/><stop offset="1" stop-color="#491c00"/></linearGradient><linearGradient id="g" x1="962.36" y1="-6253.76" x2="1083.82" y2="-6253.76" xlink:href="#f"/><linearGradient id="h" x1="-3609.09" y1="-9266.85" x2="-3549.53" y2="-9266.85" gradientTransform="translate(-10631.63 15078.03) rotate(-165.22) scale(1.86 -1.86)" gradientUnits="userSpaceOnUse"><stop offset="0" stop-color="#ff0a3b"/><stop offset=".67" stop-color="#ff576b"/><stop offset="1" stop-color="#ff7880"/></linearGradient><linearGradient id="i" x1="-3565.33" y1="-9290.43" x2="-3564.68" y2="-9213.01" gradientTransform="translate(-10631.63 15078.03) rotate(-165.22) scale(1.86 -1.86)" xlink:href="#f"/><linearGradient id="j" x1="-3609.09" y1="-9257.85" x2="-3520.91" y2="-9257.85" gradientTransform="translate(-10631.63 15078.03) rotate(-165.22) scale(1.86 -1.86)" xlink:href="#f"/></defs><g class="r"><g id="a"><g class="x"><path class="t" d="M186.96,67.98S598.71-259.7-12.75-236.92"/></g><g><path class="n" d="M435.12,236.99c0-36.23-9.21-70.32-25.42-100.03-35.31-67.72-106.15-113.96-187.81-113.96C104.98,23,10.21,117.77,10.21,234.67s94.77,211.68,211.68,211.68c2.97,0,5.93-.08,8.87-.2,113.3-2.59,204.36-95.24,204.36-209.16Z"/><g><g><circle class="q" cx="221.89" cy="225.74" r="211.68"/><circle class="ab" cx="221.89" cy="225.74" r="202.78"/></g><g class="a`"><g><g><g><path class="ai" d="M364.3,173.4s.15,.17,.4,.46c.25,.29,.6,.71,.98,1.23,.18,.26,.38,.55,.55,.86,.18,.31,.33,.64,.44,.99,.05,.17,.1,.35,.12,.52,.01,.2,.03,.4,.05,.61,.03,.45,.09,.9,.17,1.35,.08,.45,.19,.91,.35,1.35,.16,.44,.36,.87,.63,1.25,.26,.38,.6,.7,.94,.93,.35,.24,.7,.39,1.03,.5,.32,.12,.63,.19,.89,.25,.26,.06,.5,.1,.69,.13,.38,.07,.6,.09,.6,.09,0,0-.19-.11-.54-.29-.34-.18-.85-.42-1.39-.73-.27-.16-.54-.35-.79-.58-.25-.23-.47-.5-.65-.82-.18-.32-.33-.67-.44-1.06-.12-.39-.21-.79-.28-1.21-.08-.42-.13-.84-.18-1.26-.03-.22-.04-.41-.09-.68-.05-.25-.12-.48-.21-.69-.18-.43-.41-.8-.66-1.12-.25-.32-.51-.59-.76-.82-.25-.24-.49-.43-.71-.59-.22-.16-.42-.29-.59-.39-.34-.2-.54-.29-.54-.29Z"/><path class="s" d="M364.29,173.5s.32,.05,.85,.21c.27,.08,.58,.19,.93,.35,.35,.16,.72,.37,1.07,.65,.35,.28,.68,.64,.9,1.07,.23,.43,.34,.95,.35,1.49,.01,.55-.1,1.13-.26,1.71-.04,.14-.08,.29-.14,.44l-.17,.46c-.11,.31-.21,.62-.32,.93-.09,.32-.16,.68-.24,1.02-.07,.34-.09,.69-.13,1.03-.02,.34,0,.69,0,1.03l.07,.5c.02,.17,.04,.33,.09,.49,.08,.32,.16,.64,.3,.93,.07,.15,.12,.3,.19,.43,.08,.13,.15,.27,.23,.4,.07,.13,.16,.25,.25,.37l.26,.34c.2,.2,.38,.41,.58,.57,.2,.16,.38,.33,.59,.45,.2,.13,.38,.25,.57,.34,.18,.1,.35,.19,.52,.24,.17,.06,.31,.13,.46,.17,.14,.04,.27,.08,.38,.11,.11,.02,.21,.04,.28,.05,.15,.03,.23,.04,.23,.04,.06,.01,.11-.03,.12-.08,0-.05-.02-.1-.06-.12h0l-.21-.09c-.07-.03-.15-.06-.25-.1l-.33-.16c-.13-.05-.26-.14-.4-.22-.14-.08-.29-.18-.45-.29-.16-.1-.31-.24-.47-.38-.17-.13-.31-.3-.48-.46-.16-.16-.3-.36-.45-.55l-.2-.32c-.07-.11-.14-.21-.19-.33-.06-.12-.11-.23-.17-.35-.06-.12-.09-.25-.14-.38-.04-.13-.1-.25-.12-.39-.03-.14-.06-.27-.09-.41-.04-.14-.05-.28-.06-.42l-.04-.43c0-.15,0-.29,.01-.44,0-.15,0-.3,.02-.45,.05-.3,.07-.61,.13-.9,.08-.29,.13-.58,.22-.88,.1-.31,.2-.62,.31-.93l.16-.46c.06-.16,.1-.33,.15-.49,.18-.66,.27-1.35,.23-2.03-.03-.68-.24-1.35-.58-1.88-.16-.27-.37-.5-.57-.71-.22-.2-.43-.37-.66-.51-.44-.29-.89-.46-1.28-.57-.4-.12-.75-.18-1.04-.22-.29-.04-.52-.04-.67-.05-.15,0-.24,0-.24,0-.06,0-.1,.05-.1,.11,0,.05,.04,.09,.09,.1Z"/><path class="ak" d="M364.29,173.5s.06,.01,.19,.06c.12,.04,.3,.13,.5,.26,.2,.13,.43,.32,.65,.57,.21,.25,.41,.57,.57,.95,.15,.38,.26,.81,.32,1.29,.06,.47,.07,.99,.04,1.52-.02,.27-.04,.54-.07,.81-.04,.28-.07,.56-.11,.85-.08,.62-.1,1.26,0,1.91,.09,.65,.3,1.29,.63,1.86,.33,.57,.78,1.04,1.27,1.41,.49,.37,1.02,.62,1.52,.8,.51,.18,1,.28,1.46,.34,.92,.12,1.68,.05,2.21-.04,.53-.09,.81-.24,.81-.24h0c.05-.03,.07-.09,.05-.14-.02-.04-.07-.07-.12-.05,0,0-.07,.02-.2,.03-.13,.02-.33,.03-.58,.03-.5,0-1.22-.06-2.05-.27-.41-.1-.85-.25-1.28-.44-.43-.19-.86-.45-1.25-.77-.39-.32-.71-.71-.96-1.16-.25-.45-.41-.96-.48-1.49-.08-.53-.07-1.09-.01-1.63,.07-.57,.13-1.19,.12-1.77,0-.58-.05-1.15-.17-1.69-.11-.53-.29-1.03-.53-1.45-.23-.43-.52-.77-.82-1.03-.3-.26-.6-.42-.86-.52-.26-.1-.47-.14-.61-.16-.14-.02-.23-.02-.23-.02-.06,0-.1,.05-.1,.11,0,.05,.04,.09,.08,.1Z"/><g><path class="ai" d="M282.41,213.14s-.06,.22-.11,.61c-.03,.2-.05,.43-.06,.71-.01,.28-.02,.59,0,.93,.02,.34,.07,.72,.16,1.11,.09,.39,.23,.81,.45,1.22,.11,.2,.24,.41,.4,.6,.17,.2,.32,.33,.47,.49,.29,.3,.58,.61,.86,.93,.28,.32,.53,.65,.76,.98,.23,.33,.41,.67,.54,1.01,.13,.34,.2,.68,.23,1.02,.02,.34,0,.67-.05,.99-.1,.63-.23,1.17-.31,1.56-.08,.38-.11,.61-.11,.61,0,0,.12-.19,.3-.53,.09-.17,.21-.38,.33-.63,.12-.25,.25-.53,.37-.86,.11-.33,.22-.7,.25-1.12,.03-.42,0-.88-.13-1.33-.12-.45-.33-.88-.57-1.28-.24-.4-.52-.77-.82-1.12-.3-.34-.62-.67-.94-.98-.15-.14-.3-.28-.44-.41-.12-.12-.23-.27-.33-.42-.2-.3-.36-.63-.49-.97-.13-.33-.23-.66-.32-.97-.17-.62-.27-1.16-.34-1.54-.06-.38-.1-.6-.1-.6Z"/><path class="ag" d="M282.32,213.08s-.06,.07-.15,.19c-.09,.13-.23,.31-.38,.56-.15,.25-.33,.57-.48,.95-.16,.39-.3,.84-.36,1.37-.04,.26-.04,.54-.02,.84,.03,.29,.08,.6,.19,.9,.2,.61,.59,1.18,1.09,1.63,.5,.46,1.09,.82,1.71,1.09,.16,.06,.31,.14,.47,.19l.46,.16c.3,.11,.61,.23,.91,.34,.29,.12,.55,.25,.82,.38,.27,.13,.52,.31,.78,.46,.13,.08,.24,.18,.35,.27,.12,.09,.24,.17,.35,.27,.1,.1,.21,.2,.31,.3,.1,.1,.21,.19,.29,.31,.09,.11,.17,.22,.26,.33,.09,.1,.15,.23,.23,.34,.07,.12,.15,.22,.21,.34,.06,.12,.11,.24,.17,.36,.06,.11,.1,.24,.14,.36l.12,.36c.05,.24,.12,.47,.14,.7,.02,.23,.06,.45,.06,.66,0,.21,.02,.42,0,.61,0,.19-.02,.37-.05,.54-.02,.16-.04,.32-.08,.45-.03,.14-.06,.26-.08,.36-.03,.1-.06,.19-.08,.26l-.07,.22h0c-.02,.06,.01,.12,.07,.14,.05,.01,.1,0,.12-.05,0,0,.04-.07,.11-.21,.04-.07,.08-.16,.14-.26l.15-.36c.06-.14,.1-.29,.16-.46,.06-.17,.1-.36,.14-.57,.05-.2,.07-.42,.09-.66,.03-.23,.02-.48,.02-.74,0-.26-.05-.53-.08-.81l-.1-.42c-.03-.14-.07-.29-.13-.43-.05-.14-.11-.29-.16-.43-.05-.15-.14-.28-.21-.42-.14-.29-.34-.55-.53-.82-.09-.14-.21-.26-.32-.38l-.35-.37c-.25-.22-.51-.44-.79-.64-.29-.18-.57-.38-.88-.54-.31-.15-.63-.32-.94-.45-.31-.11-.61-.22-.92-.33l-.46-.16c-.15-.04-.28-.11-.42-.16-.55-.23-1.07-.51-1.48-.86-.42-.35-.75-.76-.93-1.21-.2-.45-.27-.93-.27-1.38,0-.45,.08-.88,.17-1.25,.1-.37,.21-.69,.31-.95,.21-.52,.37-.8,.37-.8,.03-.05,.01-.11-.04-.14-.04-.03-.1-.01-.13,.02Z"/><path class="k" d="M282.32,213.09s-.05,.07-.13,.19c-.07,.13-.18,.32-.26,.59-.08,.27-.15,.61-.13,1,0,.39,.09,.84,.28,1.29,.18,.45,.45,.91,.79,1.32,.34,.42,.75,.82,1.2,1.19,.44,.36,.96,.71,1.44,1.01,.46,.29,.89,.64,1.25,1.03,.37,.39,.66,.83,.85,1.31,.19,.48,.29,.98,.3,1.49,0,.5-.06,1-.18,1.46-.12,.46-.28,.9-.46,1.29-.36,.78-.76,1.39-1.07,1.78-.16,.2-.29,.35-.38,.44-.09,.09-.15,.14-.15,.14-.05,.04-.05,.1-.02,.15,.03,.04,.08,.05,.12,.03h0s.29-.14,.69-.49c.4-.35,.93-.92,1.41-1.71,.24-.4,.47-.85,.65-1.37,.18-.51,.32-1.08,.34-1.7,.02-.61-.06-1.27-.29-1.88-.23-.61-.6-1.18-1.04-1.66-.44-.48-.95-.86-1.48-1.19-.24-.15-.49-.3-.73-.44-.23-.14-.46-.3-.67-.45-.42-.31-.81-.64-1.15-.98-.33-.34-.6-.7-.79-1.06-.2-.36-.32-.71-.38-1.04-.06-.33-.06-.62-.03-.87,.03-.24,.07-.43,.12-.56,.04-.13,.07-.19,.07-.19,.03-.05,0-.11-.05-.14-.04-.02-.1,0-.13,.03Z"/></g><path class="ag" d="M372.11,284.45l-.12-.12c-.08-.08-.19-.2-.35-.36-.32-.31-.79-.76-1.44-1.26-.65-.51-1.47-1.09-2.47-1.66-.99-.59-2.15-1.15-3.43-1.72-1.27-.58-2.68-1.11-4.13-1.71-1.44-.61-2.96-1.23-4.34-2.08-.69-.42-1.35-.9-1.93-1.44-.29-.27-.56-.57-.8-.87-.24-.31-.46-.64-.66-.98-.77-1.38-1.06-3.06-1.03-4.79,.04-1.73,.33-3.51,.76-5.23l.16-.67c.05-.22,.1-.47,.16-.7,.1-.46,.18-.92,.24-1.39,.13-.92,.2-1.84,.21-2.75,.03-1.81-.16-3.56-.54-5.17-.37-1.61-.89-3.08-1.48-4.38-.6-1.3-1.25-2.42-1.89-3.38-.64-.95-1.26-1.74-1.79-2.36-.54-.62-.99-1.08-1.31-1.38-.16-.15-.28-.27-.37-.34l-.13-.12c-.09-.08-.22-.07-.29,.02-.07,.08-.07,.2,0,.28h0l.11,.13c.07,.08,.18,.21,.32,.37,.27,.33,.67,.82,1.13,1.47,.46,.65,.99,1.46,1.53,2.44,.54,.97,1.09,2.09,1.56,3.36,.48,1.27,.89,2.68,1.15,4.19,.25,1.52,.38,3.14,.28,4.81-.05,.83-.15,1.68-.3,2.52-.08,.42-.16,.85-.26,1.27-.05,.21-.09,.41-.16,.63l-.18,.65c-.51,1.8-.93,3.7-.99,5.68-.03,.99,.02,2,.22,3,.09,.5,.24,1,.41,1.49,.18,.49,.4,.96,.65,1.41,.26,.45,.55,.87,.86,1.27,.32,.39,.67,.75,1.04,1.08,.37,.33,.75,.63,1.14,.9,.39,.27,.79,.52,1.19,.74,1.61,.89,3.2,1.5,4.71,2.02,1.49,.5,2.91,.98,4.21,1.42,1.29,.44,2.45,.9,3.45,1.34,1.01,.44,1.85,.9,2.54,1.29,.68,.4,1.2,.75,1.54,1,.35,.26,.53,.39,.53,.39,.09,.07,.22,.05,.29-.05,.06-.08,.05-.2-.02-.27Z"/><path class="k" d="M344.59,239.58s.19,.15,.54,.43c.35,.29,.86,.72,1.49,1.29,.62,.57,1.37,1.28,2.18,2.13,.8,.86,1.69,1.84,2.56,2.98,.86,1.14,1.75,2.41,2.52,3.85,.38,.72,.75,1.46,1.08,2.24,.32,.78,.61,1.6,.83,2.44,.22,.84,.4,1.71,.51,2.6,.06,.44,.09,.9,.11,1.33l.02,.36v.33c.01,.22,0,.45,0,.67-.05,1.82-.4,3.66-.93,5.49-.52,1.83-1.21,3.66-1.8,5.54-.59,1.87-1.07,3.8-1.28,5.72-.2,1.92-.11,3.8,.18,5.53,.29,1.73,.78,3.31,1.32,4.71,.54,1.41,1.15,2.64,1.72,3.7,.57,1.07,1.13,1.96,1.6,2.69,.23,.37,.45,.68,.64,.96,.19,.28,.35,.51,.49,.7,.27,.37,.41,.57,.41,.57,.07,.09,.2,.11,.29,.05,.09-.06,.11-.18,.06-.27h0l-.34-.62c-.22-.4-.54-1-.92-1.76-.39-.76-.84-1.69-1.31-2.77-.48-1.08-.95-2.33-1.39-3.7-.43-1.37-.79-2.89-.97-4.5-.2-1.61-.19-3.32,.06-5.06,.24-1.74,.73-3.51,1.35-5.31,.62-1.8,1.33-3.64,1.91-5.58,.28-.97,.53-1.96,.71-2.97,.18-1.01,.28-2.04,.31-3.06,0-.26,0-.51,0-.77v-.39l-.03-.36c-.03-.52-.08-1.01-.15-1.51-.14-.99-.35-1.96-.64-2.89-.57-1.85-1.37-3.55-2.29-5.03-.92-1.48-1.92-2.79-2.93-3.9-1.01-1.11-2-2.07-2.92-2.85-.92-.79-1.76-1.43-2.47-1.92-.71-.5-1.29-.86-1.68-1.09-.4-.24-.62-.35-.62-.35-.1-.05-.23-.01-.28,.09-.05,.09-.02,.2,.06,.26Z"/><path class="v" d="M344.59,239.01l.03,.04,.08,.11c.07,.1,.17,.26,.29,.47,.24,.42,.56,1.06,.86,1.91,.3,.85,.57,1.92,.72,3.16,.14,1.25,.16,2.67,0,4.2-.17,1.53-.53,3.17-1.06,4.86-.27,.83-.61,1.72-.87,2.72-.26,.97-.43,2.01-.49,3.09-.05,1.07,.03,2.2,.3,3.3,.27,1.11,.75,2.18,1.38,3.14,.63,.96,1.41,1.82,2.24,2.56,.84,.75,1.73,1.41,2.65,2.01,1.84,1.18,3.75,2.14,5.54,3.13,.9,.5,1.77,.99,2.58,1.53,.4,.27,.79,.55,1.15,.84,.18,.15,.35,.3,.52,.45l.06,.06s-.02-.02,0,0l.02,.02,.03,.03,.13,.13,.26,.26,.26,.26,.23,.25c.15,.17,.31,.33,.45,.51,.15,.18,.29,.35,.44,.53,.14,.18,.27,.36,.41,.54,.52,.73,.95,1.49,1.27,2.27,.64,1.55,.82,3.17,.69,4.67-.13,1.5-.49,2.89-.87,4.11-.38,1.22-.76,2.28-1.06,3.16-.31,.88-.52,1.58-.67,2.06-.14,.48-.22,.74-.22,.74-.03,.11,.03,.23,.14,.26,.1,.03,.21-.02,.25-.12h0s.1-.25,.3-.7c.2-.46,.51-1.11,.89-1.96,.38-.85,.87-1.87,1.36-3.09,.49-1.22,1-2.64,1.25-4.31,.12-.83,.17-1.72,.1-2.65-.07-.92-.28-1.87-.61-2.8-.33-.93-.79-1.83-1.34-2.69-.14-.21-.29-.42-.43-.63-.15-.21-.31-.41-.47-.61-.15-.21-.33-.4-.5-.6l-.26-.3-.26-.27-.26-.27-.13-.14-.08-.08-.07-.07c-.2-.19-.4-.38-.6-.55-.41-.35-.84-.68-1.28-.99-.87-.62-1.78-1.16-2.7-1.68-1.83-1.03-3.69-1.99-5.39-3.11-1.7-1.1-3.28-2.37-4.32-3.93-.52-.78-.91-1.62-1.16-2.5-.24-.88-.34-1.8-.32-2.71,.02-.92,.15-1.83,.35-2.72,.18-.87,.47-1.75,.72-2.67,.24-.91,.44-1.81,.57-2.68,.13-.88,.23-1.73,.25-2.56,.03-.82,.03-1.62-.04-2.37-.07-.75-.16-1.46-.3-2.11-.27-1.31-.67-2.42-1.08-3.28-.4-.87-.83-1.49-1.14-1.9-.31-.41-.51-.61-.51-.61-.08-.08-.21-.08-.29,0-.07,.08-.08,.19-.02,.27h0Z"/><g><polygon class="aa" points="281.62 213.53 343.26 235.38 364.89 173.12 303.25 151.27 281.62 213.53"/><g class="m"><path class="aj" d="M298.71,179.64c5.4,11.36,15.86,18.62,27.33,20.36,.28,.04,.55,.08,.83,.11,6.68,.85,13.67-.17,20.19-3.33,5.57-2.7,10.15-6.66,13.55-11.37l4.27-12.29-61.63-21.85-7.2,20.73c.59,2.59,1.47,5.14,2.66,7.63Z"/></g><g class="o"><path class="u" d="M322.99,193.61c1.02,2.14,2.04,4.27,3.05,6.38,1.48,3.1,2.95,6.16,4.35,9.1,2.38,4.94,4.6,9.54,6.5,13.49,1.92,3.94,3.51,7.23,4.63,9.53,.76,1.55,1.3,2.65,1.57,3.2,.13,.26,.2,.4,.2,.4l.21-.1s-.06-.14-.19-.41c-.26-.56-.77-1.67-1.49-3.24-1.08-2.32-2.62-5.63-4.47-9.6-1.86-3.97-4.04-8.59-6.36-13.56-1.33-2.81-2.71-5.73-4.12-8.7-1.07-2.25-2.15-4.53-3.22-6.81-2.52-5.27-5.04-10.55-7.4-15.49-2.38-4.93-4.6-9.54-6.5-13.49-1.92-3.94-3.51-7.23-4.63-9.53-.91-1.85-1.5-3.06-1.7-3.46l-.16-.06-.06,.16c.19,.4,.75,1.63,1.61,3.5,1.08,2.32,2.62,5.63,4.47,9.6,1.86,3.97,4.04,8.6,6.37,13.55,2.34,4.95,4.84,10.23,7.34,15.52Z"/><path class="w" d="M281.62,213.53l.84,.3c16.82-28.47,49.6-44.37,82.11-39.83l.31-.88-3.4-1.21c-15.14-1.48-30.46,1.31-44.57,8.16-14.05,6.82-25.74,17.1-34.05,29.89l-1.24,3.57Z"/></g><polygon class="aa" points="353.45 237.14 342.78 234.44 338.2 244.55 353.45 237.14"/></g></g><path class="ac" d="M316.91,180.07c19.31,54.11,40.82,108.46,71.42,157.48"/></g><g><g><path class="ai" d="M249.43,147.35s0,.39,.02,1.07c0,.68,0,1.64-.08,2.76-.05,.56-.12,1.16-.24,1.77-.12,.61-.28,1.24-.54,1.82-.13,.29-.27,.57-.44,.83-.21,.28-.42,.57-.63,.86-.47,.63-.91,1.3-1.31,1.99-.4,.7-.77,1.42-1.06,2.19-.29,.76-.5,1.56-.57,2.37-.08,.81,.01,1.61,.21,2.32,.2,.71,.51,1.32,.82,1.84,.31,.52,.63,.96,.92,1.34,.29,.38,.56,.7,.78,.96,.44,.52,.71,.81,.71,.81,0,0-.13-.37-.39-1-.26-.63-.67-1.52-1.05-2.56-.18-.52-.33-1.09-.41-1.68-.07-.59-.06-1.2,.06-1.82,.12-.62,.33-1.27,.61-1.91,.28-.64,.63-1.29,1-1.92,.37-.64,.79-1.26,1.19-1.88,.22-.32,.42-.59,.65-1,.22-.38,.38-.77,.5-1.16,.25-.78,.35-1.53,.38-2.23,.03-.7-.02-1.36-.09-1.95-.07-.6-.18-1.13-.29-1.6-.11-.47-.24-.87-.35-1.19-.22-.65-.4-1.01-.4-1.01Z"/><path class="ag" d="M249.31,147.48s.37,.42,.91,1.25c.27,.41,.57,.92,.86,1.53,.29,.6,.55,1.31,.71,2.08,.16,.77,.19,1.62,0,2.45-.18,.84-.62,1.65-1.23,2.38-.61,.74-1.42,1.38-2.31,1.96-.23,.14-.44,.3-.68,.42l-.75,.42c-.5,.29-.99,.58-1.49,.86-.5,.32-1,.72-1.49,1.08-.49,.38-.91,.81-1.35,1.21-.42,.43-.8,.9-1.17,1.36-.16,.25-.32,.5-.48,.75-.16,.25-.32,.49-.44,.76-.25,.52-.52,1.03-.66,1.58-.08,.27-.18,.52-.23,.79-.05,.27-.1,.53-.14,.79-.06,.26-.07,.52-.08,.78-.01,.26-.03,.51-.04,.75,.05,.49,.05,.97,.13,1.42,.09,.45,.14,.88,.28,1.27,.12,.39,.23,.76,.38,1.1,.14,.34,.27,.65,.43,.92,.15,.27,.28,.53,.43,.74,.14,.21,.27,.4,.39,.57l.32,.39,.27,.32c.06,.08,.18,.09,.26,.03,.07-.06,.09-.15,.05-.23v-.02s-.08-.12-.2-.36c-.06-.12-.14-.26-.23-.43-.08-.17-.16-.37-.26-.6-.11-.22-.18-.48-.28-.75-.1-.27-.19-.57-.27-.9-.1-.32-.15-.67-.21-1.04-.08-.36-.09-.75-.12-1.16-.03-.4,.02-.82,.02-1.25,.03-.21,.06-.43,.09-.65,.03-.22,.05-.44,.12-.66,.06-.22,.11-.44,.17-.67,.06-.22,.17-.44,.25-.66,.1-.22,.15-.45,.28-.66,.11-.21,.23-.43,.35-.64,.1-.22,.26-.42,.4-.63,.15-.2,.29-.41,.44-.62,.16-.2,.35-.38,.52-.57,.18-.19,.33-.4,.53-.57,.4-.34,.78-.73,1.2-1.04,.44-.3,.84-.62,1.31-.92,.49-.3,.99-.59,1.48-.89l.74-.43c.26-.14,.51-.32,.76-.49,1-.67,1.9-1.49,2.62-2.43,.73-.94,1.22-2.06,1.36-3.16,.09-.55,.08-1.09,.04-1.6-.07-.51-.16-.99-.31-1.43-.28-.89-.68-1.62-1.08-2.23-.4-.61-.81-1.09-1.16-1.47-.35-.38-.65-.65-.86-.83-.21-.18-.33-.27-.33-.27-.08-.06-.2-.05-.26,.03-.06,.07-.05,.17,0,.23Z"/><path class="k" d="M249.3,147.48s.07,.09,.19,.3c.12,.2,.26,.51,.39,.92,.12,.41,.22,.92,.23,1.5,0,.58-.09,1.23-.32,1.91-.23,.68-.57,1.38-1.03,2.08-.46,.7-1.04,1.38-1.67,2.06-.33,.33-.66,.67-1.02,.99-.37,.33-.74,.66-1.12,1-.82,.73-1.58,1.56-2.19,2.53-.61,.96-1.06,2.06-1.26,3.19-.21,1.13-.13,2.28,.11,3.32,.24,1.04,.67,1.98,1.15,2.8,.48,.82,1.04,1.52,1.59,2.12,1.1,1.2,2.21,1.99,3.03,2.46,.82,.48,1.37,.61,1.37,.61h0c.1,.03,.2-.03,.22-.13,.02-.08-.02-.17-.09-.21,0,0-.11-.06-.31-.18-.2-.13-.47-.34-.82-.62-.67-.57-1.58-1.48-2.46-2.69-.44-.61-.86-1.3-1.23-2.05-.37-.75-.64-1.58-.81-2.44-.16-.86-.15-1.76,.03-2.64,.17-.88,.54-1.74,1.06-2.52,.5-.79,1.14-1.53,1.84-2.18,.75-.67,1.53-1.43,2.18-2.2,.67-.77,1.24-1.59,1.7-2.43,.46-.83,.78-1.7,.94-2.53,.18-.83,.17-1.62,.06-2.3-.1-.68-.34-1.24-.56-1.67-.23-.43-.47-.73-.64-.92-.17-.19-.29-.28-.29-.28-.08-.07-.19-.06-.26,.02-.06,.07-.06,.16,0,.23Z"/><g><path class="ai" d="M93.33,106.55s-.33,.22-.85,.68c-.26,.23-.57,.52-.9,.87-.33,.35-.7,.76-1.05,1.25-.36,.48-.73,1.03-1.05,1.66-.32,.63-.61,1.33-.78,2.13-.08,.4-.14,.82-.14,1.25,0,.47,.05,.8,.07,1.19,.04,.73,.09,1.47,.1,2.21,0,.74-.01,1.47-.09,2.16-.07,.7-.21,1.36-.42,1.96-.2,.6-.5,1.14-.85,1.61-.36,.47-.77,.89-1.19,1.26-.85,.72-1.65,1.29-2.19,1.72-.54,.42-.84,.68-.84,.68,0,0,.38-.12,1.02-.36,.32-.12,.71-.26,1.15-.46,.44-.19,.94-.41,1.47-.72,.53-.3,1.1-.68,1.63-1.2,.52-.52,1.01-1.17,1.34-1.91,.34-.74,.56-1.54,.69-2.34,.13-.81,.17-1.62,.17-2.42-.01-.8-.06-1.6-.15-2.37-.04-.35-.08-.71-.12-1.05-.03-.31,0-.62,.03-.94,.07-.63,.24-1.26,.44-1.84,.2-.59,.44-1.14,.67-1.66,.49-1.01,.96-1.85,1.3-2.44,.35-.58,.55-.92,.55-.92Z"/><path class="ag" d="M93.28,106.38s-.15,.02-.42,.08c-.27,.06-.67,.14-1.16,.31-.49,.16-1.09,.38-1.74,.72-.65,.33-1.37,.77-2.05,1.41-.35,.31-.67,.68-.98,1.09-.29,.42-.57,.89-.76,1.41-.42,1.03-.55,2.24-.39,3.41,.16,1.18,.54,2.33,1.07,3.4,.14,.26,.26,.54,.42,.79l.43,.74c.28,.5,.56,.99,.84,1.49,.26,.49,.45,.96,.68,1.44,.21,.48,.35,1,.53,1.5,.09,.25,.11,.51,.18,.76,.05,.25,.12,.5,.17,.75,.03,.25,.05,.5,.08,.75,.03,.25,.06,.5,.04,.74,0,.25-.01,.49-.02,.73,0,.24-.06,.47-.08,.71-.04,.23-.05,.47-.11,.69l-.18,.66c-.05,.22-.14,.43-.22,.63-.08,.21-.16,.41-.24,.61-.21,.37-.38,.76-.61,1.1-.23,.33-.43,.67-.68,.95-.23,.29-.45,.57-.7,.8-.23,.24-.46,.46-.68,.65-.22,.19-.42,.38-.62,.52-.2,.15-.37,.28-.53,.39-.16,.1-.3,.19-.41,.26l-.35,.22h-.01c-.09,.06-.11,.18-.06,.26,.05,.07,.14,.1,.22,.07,0,0,.14-.05,.4-.15,.13-.05,.29-.11,.48-.18,.18-.09,.39-.19,.62-.31,.24-.11,.47-.27,.74-.44,.28-.16,.54-.37,.83-.59,.3-.21,.58-.48,.88-.77,.31-.27,.57-.62,.87-.97,.3-.35,.53-.76,.82-1.17,.11-.22,.23-.45,.34-.67,.12-.23,.24-.46,.31-.71,.09-.25,.18-.5,.27-.76,.09-.26,.13-.53,.2-.8,.15-.54,.17-1.11,.21-1.69,.03-.29,.01-.58,0-.87-.02-.29-.03-.59-.05-.88-.09-.58-.19-1.18-.34-1.76-.19-.57-.34-1.15-.58-1.71-.25-.55-.49-1.15-.76-1.67-.29-.49-.58-.99-.87-1.48l-.44-.73c-.15-.23-.26-.47-.38-.7-.48-.94-.87-1.89-1.03-2.84-.16-.94-.15-1.86,.12-2.67,.25-.82,.69-1.54,1.22-2.14,.52-.59,1.1-1.08,1.65-1.46,.55-.38,1.07-.68,1.51-.91,.88-.45,1.41-.64,1.41-.64,.1-.03,.15-.14,.11-.23-.03-.08-.12-.13-.2-.12Z"/><path class="k" d="M93.27,106.38s-.15,.03-.39,.11c-.25,.08-.6,.22-1.02,.48-.41,.26-.89,.64-1.32,1.18-.44,.53-.84,1.22-1.09,2.03-.27,.8-.43,1.71-.44,2.66-.02,.95,.07,1.95,.26,2.94,.19,.99,.49,2.03,.8,2.98,.29,.91,.48,1.86,.52,2.79,.06,.93-.05,1.86-.34,2.71-.28,.85-.73,1.64-1.29,2.31-.57,.67-1.23,1.25-1.92,1.73-.69,.47-1.4,.87-2.09,1.18-1.37,.62-2.61,.97-3.48,1.14-.44,.08-.78,.13-1.02,.14-.24,.02-.36,.01-.36,.01-.1,0-.19,.07-.19,.17,0,.09,.05,.16,.13,.18h0s.54,.15,1.49,.14c.95-.01,2.3-.16,3.86-.66,.78-.25,1.61-.59,2.44-1.07,.82-.48,1.67-1.08,2.39-1.87,.72-.79,1.37-1.74,1.75-2.83,.39-1.08,.54-2.25,.49-3.39-.06-1.14-.31-2.23-.65-3.27-.16-.48-.32-.95-.48-1.41-.15-.46-.28-.91-.4-1.36-.21-.9-.37-1.78-.43-2.61-.05-.83,0-1.61,.13-2.31,.14-.7,.38-1.31,.67-1.81,.29-.5,.63-.89,.94-1.19,.32-.29,.6-.49,.8-.61,.2-.12,.31-.17,.31-.17,.09-.04,.14-.15,.1-.24-.03-.08-.12-.12-.2-.11Z"/></g><path class="af" d="M133.28,303.62l-.02-.3c-.01-.2-.02-.49-.06-.87-.07-.78-.2-1.9-.5-3.32-.29-1.42-.75-3.12-1.44-5.02-.66-1.91-1.6-3.98-2.67-6.19-1.06-2.22-2.36-4.53-3.62-6.99-1.26-2.45-2.6-5-3.5-7.71-.45-1.35-.8-2.73-.97-4.11-.08-.69-.11-1.39-.09-2.08,.03-.69,.1-1.37,.23-2.05,.53-2.71,2.06-5.28,4.08-7.53,2.03-2.26,4.45-4.27,6.99-6.07l.99-.7c.32-.22,.67-.5,1.01-.75,.66-.51,1.3-1.02,1.91-1.56,1.23-1.08,2.37-2.22,3.42-3.41,2.11-2.37,3.85-4.91,5.17-7.47,1.33-2.56,2.31-5.1,2.99-7.5,.67-2.4,1.08-4.64,1.31-6.64,.22-2,.28-3.75,.27-5.18-.02-1.44-.11-2.56-.19-3.33-.04-.38-.08-.68-.11-.87l-.05-.31c-.03-.2-.22-.33-.42-.3-.19,.03-.32,.19-.31,.37v.02s0,.1,.01,.29c0,.19,0,.48,0,.85,0,.75-.03,1.85-.16,3.24-.12,1.39-.33,3.08-.71,4.97-.37,1.9-.92,4.02-1.72,6.24-.8,2.23-1.84,4.57-3.23,6.88-1.39,2.3-3.07,4.6-5.11,6.69-1.02,1.05-2.11,2.06-3.28,3-.59,.47-1.18,.94-1.8,1.38-.31,.22-.59,.43-.93,.65l-.99,.66c-2.75,1.8-5.47,3.85-7.82,6.4-1.18,1.27-2.25,2.68-3.12,4.24-.45,.77-.82,1.6-1.14,2.43-.31,.85-.55,1.72-.73,2.6-.16,.89-.25,1.78-.28,2.67,0,.89,.05,1.76,.16,2.62,.12,.85,.3,1.69,.51,2.5,.22,.8,.48,1.59,.76,2.34,1.16,3.01,2.62,5.65,4.07,8.06,1.45,2.38,2.81,4.62,4.08,6.7,1.24,2.06,2.28,3.99,3.14,5.73,.85,1.74,1.48,3.31,1.95,4.61,.46,1.31,.76,2.37,.95,3.09,.18,.74,.27,1.13,.27,1.13,.05,.2,.25,.32,.44,.27,.18-.04,.29-.2,.28-.38Z"/><path class="ak" d="M147.26,212.65s.09,.41,.24,1.19c.15,.78,.34,1.94,.54,3.41,.19,1.47,.39,3.26,.51,5.32,.11,2.05,.18,4.37,.06,6.88-.14,2.5-.38,5.21-.98,7.99-.3,1.39-.65,2.8-1.1,4.21-.46,1.41-.99,2.82-1.65,4.19-.66,1.37-1.41,2.73-2.27,4.03-.43,.65-.9,1.29-1.37,1.89l-.39,.49-.37,.45c-.24,.29-.51,.59-.78,.89-2.15,2.36-4.72,4.4-7.53,6.22-2.8,1.83-5.82,3.47-8.75,5.29-2.94,1.81-5.79,3.82-8.26,6.12-2.45,2.32-4.49,4.91-6.06,7.54-1.59,2.63-2.71,5.29-3.59,7.76-.87,2.48-1.45,4.82-1.9,6.88-.45,2.07-.7,3.89-.91,5.39-.1,.75-.18,1.42-.23,2-.06,.58-.11,1.08-.14,1.48-.06,.81-.1,1.23-.1,1.23-.02,.2,.14,.38,.34,.39,.19,.01,.35-.11,.39-.29h0s.09-.42,.25-1.21c.16-.79,.41-1.93,.76-3.38,.34-1.45,.8-3.2,1.39-5.18,.59-1.98,1.37-4.17,2.35-6.49,.98-2.32,2.23-4.73,3.82-7.09,1.57-2.36,3.53-4.63,5.87-6.65,2.31-2.04,5-3.83,7.88-5.5,2.88-1.68,5.95-3.3,8.94-5.22,1.49-.96,2.96-1.99,4.36-3.13,1.4-1.13,2.71-2.38,3.91-3.71,.3-.34,.59-.66,.89-1.02l.43-.52,.39-.5c.56-.72,1.05-1.44,1.52-2.18,.95-1.48,1.76-3.01,2.43-4.56,1.34-3.11,2.2-6.27,2.65-9.28,.44-3.02,.59-5.89,.5-8.52-.09-2.63-.34-5.02-.7-7.12-.34-2.1-.75-3.9-1.15-5.37-.38-1.47-.76-2.6-1.03-3.37-.27-.77-.44-1.18-.44-1.18-.08-.19-.29-.27-.48-.2-.17,.07-.25,.25-.22,.41Z"/><path class="ai" d="M147.92,211.9v.08c0,.05-.02,.13-.02,.24-.02,.21-.06,.53-.14,.95-.15,.83-.46,2.04-1.02,3.52-.56,1.47-1.42,3.19-2.63,5.02-1.23,1.82-2.82,3.72-4.8,5.57-1.98,1.84-4.34,3.6-6.98,5.25-1.31,.8-2.79,1.58-4.28,2.61-1.46,.99-2.88,2.17-4.18,3.54-1.3,1.36-2.46,2.95-3.36,4.73-.9,1.78-1.47,3.75-1.71,5.74-.25,2-.17,4.01,.1,5.96,.28,1.95,.73,3.85,1.29,5.69,1.14,3.67,2.63,7.12,3.92,10.49,.64,1.68,1.26,3.34,1.75,4.97,.24,.82,.45,1.63,.6,2.42,.08,.4,.14,.8,.19,1.19l.02,.15s0-.05,0,0v.12l.04,.33,.06,.65,.05,.64,.02,.6c.01,.4,.05,.79,.03,1.2,0,.4,0,.8-.01,1.2-.02,.4-.04,.79-.07,1.18-.13,1.56-.42,3.06-.87,4.45-.9,2.8-2.5,5.15-4.4,6.99-1.9,1.85-3.97,3.27-5.87,4.46-1.91,1.18-3.63,2.16-5.04,2.99-1.42,.82-2.51,1.51-3.26,1.98-.74,.48-1.13,.73-1.13,.73-.17,.11-.22,.34-.11,.5,.1,.16,.31,.21,.47,.13h0s.42-.21,1.2-.59c.78-.38,1.95-.9,3.44-1.58,1.48-.68,3.31-1.48,5.36-2.54,2.05-1.06,4.37-2.36,6.6-4.29,1.11-.96,2.2-2.09,3.16-3.39,.96-1.3,1.76-2.8,2.37-4.41,.61-1.61,1.02-3.33,1.25-5.1,.05-.44,.09-.89,.14-1.33,.04-.45,.04-.89,.06-1.34,.03-.45,0-.91,0-1.37v-.7l-.05-.65-.04-.65-.02-.33v-.2l-.03-.18c-.04-.48-.11-.95-.18-1.42-.15-.94-.36-1.86-.6-2.77-.48-1.82-1.08-3.58-1.74-5.31-1.3-3.46-2.71-6.86-3.74-10.29-1.05-3.41-1.73-6.89-1.36-10.15,.19-1.63,.62-3.19,1.28-4.64,.68-1.45,1.59-2.78,2.66-3.97,1.07-1.2,2.29-2.25,3.57-3.21,1.24-.95,2.64-1.79,4.02-2.72,1.36-.94,2.65-1.9,3.84-2.9,1.17-1.02,2.28-2.04,3.26-3.11,.98-1.06,1.89-2.11,2.65-3.18,.77-1.07,1.44-2.12,2.01-3.15,1.14-2.05,1.85-3.97,2.28-5.59,.45-1.61,.58-2.93,.63-3.82,.05-.89,0-1.39,0-1.39-.02-.2-.2-.35-.4-.33-.18,.02-.32,.17-.33,.34h0Z"/><polygon class="p" points="91.83 106.17 150.25 205.55 250.54 147.66 192.12 48.28 91.83 106.17"/><g class="l"><path class="ad" d="M153.6,80.72c-5.65,21.24,.2,42.82,13.74,58.22,.33,.37,.66,.74,.99,1.1,8.07,8.76,18.68,15.4,31.11,18.65,10.62,2.78,21.32,2.76,31.3,.4l19.8-11.43-58.43-99.38-33.4,19.28c-2.15,4.11-3.88,8.51-5.12,13.16Z"/></g><g class="o"><path class="y" d="M170.5,126.99c-1.06,4-2.11,8-3.16,11.95-1.53,5.81-3.05,11.54-4.5,17.05-2.42,9.27-4.67,17.91-6.61,25.32-1.9,7.42-3.5,13.6-4.61,17.93-.74,2.93-1.27,5.01-1.53,6.05-.13,.5-.19,.76-.19,.76l.41,.11s.07-.26,.21-.76c.28-1.03,.86-3.1,1.67-6,1.19-4.31,2.88-10.46,4.91-17.85,2.01-7.39,4.35-16.01,6.86-25.25,1.41-5.25,2.87-10.71,4.36-16.25,1.13-4.21,2.27-8.47,3.41-12.72,2.61-9.88,5.22-19.75,7.66-29,2.41-9.26,4.67-17.91,6.6-25.32,1.91-7.42,3.5-13.6,4.61-17.93,.88-3.49,1.46-5.78,1.65-6.53l-.15-.26-.26,.15c-.21,.75-.84,3.02-1.81,6.49-1.19,4.31-2.88,10.46-4.91,17.85-2.01,7.39-4.35,16.02-6.86,25.25-2.48,9.25-5.13,19.11-7.77,28.97Z"/><path class="ah" d="M91.83,106.17l.8,1.36c55.24-18.57,117.71-2.22,156.5,40.95l1.42-.82-3.23-5.49c-18.78-19.25-42.69-33.05-69.58-40.08-26.79-7-54.33-6.71-80.16,.77l-5.75,3.32Z"/></g><polygon class="p" points="162.03 219.53 150.67 203.77 132.94 211.93 162.03 219.53"/></g><path class="ac" d="M175.78,109.15c-1.32,104.77,15.74,212.05,77.43,303.48,1.31,3.31,3.76,6.56,6.25,9.57"/></g></g></g></g></g></g></g></svg>