<?xml version="1.0" encoding="UTF-8"?><svg xmlns="http://www.w3.org/2000/svg" xmlns:xlink="http://www.w3.org/1999/xlink" viewBox="0 0 718 661"><defs><style>.l{fill:#4f3317;}.m,.n,.o,.p,.q,.r,.s,.t,.u,.v,.w,.x,.y,.a`,.aa,.ab,.ac,.ad,.ae,.af,.ag,.ah,.ai,.aj,.ak,.al,.am,.an,.ao,.ap,.aq,.ar,.as{stroke-miterlimit:10;}.m,.n,.o,.p,.q,.r,.s,.t,.u,.v,.w,.x,.y,.a`,.aa,.ab,.ac,.ad,.ae,.af,.ag,.ah,.ai,.aj,.ak,.al,.am,.an,.ao,.ap,.aq,.as{stroke-width:.25px;}.m,.u,.v,.a`,.ac,.af,.ah,.ao{stroke:#323232;}.m,.aa,.at,.al,.am{fill:none;}.au{fill:#e8194e;}.n{fill:#fdd3ca;}.n,.am{stroke:#af8680;}.o{fill:#d95c78;stroke:#8d2338;}.av{fill:#02b5fd;}.p{fill:#e94e41;stroke:#874a46;}.q{fill:#e852bb;}.q,.x{stroke:#af1086;}.aw{opacity:.69;}.aw,.ax{fill:#042f33;}.ay{fill:#fff;}.r{fill:#904a4c;}.r,.w,.ag,.aj,.as{stroke:#562d30;}.s{fill:#3f1d1d;stroke:#221f1f;}.b`{fill:#fb8000;}.ba{mix-blend-mode:screen;opacity:.2;}.bb{fill:#fffa71;}.bc{fill:#b9908b;}.bd{fill:#cc0098;}.t{stroke:#3d2d16;}.t,.be{fill:#3d2d16;}.bf{fill:#c48a74;}.bg{fill:#98bc5c;}.u{fill:#587ab1;}.bh{fill:#453323;}.bi{fill:#e53963;}.bj{fill:#77c9b0;}.bk{isolation:isolate;}.bl{fill:#a6ebf7;}.bm{fill:#f3eae3;}.v{fill:#facc35;}.bn,.af{fill:#f9f6f2;}.w{fill:#c7fcff;}.bo{fill:#431b15;}.x{fill:#fe66ca;}.bp{fill:#c5db7f;}.y{stroke:#4c2606;}.y,.bq{fill:#f9dad2;}.a`,.br,.ak{fill:#fbd3c7;}.bs{fill:#5fce3d;}.bt{fill:#f58778;}.bu{fill:#9e4ac6;}.aa{stroke:#2f404f;}.bv{fill:url(#f);}.bw{fill:#0833f1;}.ab{fill:#faf079;stroke:#9a9435;}.bx{fill:#1b3f72;opacity:.76;}.ac{fill:#7199c6;}.by{fill:#7a2f2b;}.c`{opacity:.45;}.ca{fill:#e3ae9f;}.cb{fill:url(#g);}.cc{fill:#d3fff3;}.ad{fill:#f4ec62;}.ad,.ae,.an,.ap{stroke:#633954;}.cd{fill:url(#b);}.ce{fill:#bc7757;}.cf{opacity:.38;}.cg{fill:#dee8ee;}.ch{fill:#4c2606;}.ci{fill:url(#i);}.cj{fill:#b26b51;}.ae{fill:#c66a96;}.ck{fill:#799640;opacity:.46;}.cl{fill:#b8832c;}.cm{mix-blend-mode:multiply;opacity:.5;}.cn{fill:#ba7e70;}.co{clip-path:url(#d);}.cp{fill:#fc9512;}.cq{fill:#e4a68d;}.ag{fill:#ad7f82;}.cr{fill:url(#e);}.ah{fill:#6bb7ce;}.ai{fill:#191512;stroke:#301d10;}.aj{fill:#b7767b;}.aj,.as{opacity:.35;}.cs{opacity:.14;}.ct{fill:#be9030;}.cu{fill:#00470c;}.ak,.al{stroke:#453323;}.cv{fill:#00a3fd;}.cw{fill:#bc6c96;}.cx{fill:#561211;}.cy{fill:#00a6fd;}.an{fill:#ee7bae;}.d`{fill:url(#j);}.ao{fill:#759ac4;}.da{fill:#dd9f8f;}.db{fill:#3fc416;}.dc{fill:#451e15;}.ap{fill:#d880aa;}.aq{fill:#e7d760;stroke:#baa73b;}.dd{fill:#f5dc90;}.de{fill:url(#k);}.df{fill:#f16a21;}.dg{fill:#342516;}.dh{fill:red;}.ar{fill:#31d0e5;stroke:url(#c);stroke-width:6px;}.as{fill:#defeff;}</style><linearGradient id="b" x1="104.06" y1="155.82" x2="602.27" y2="497.19" gradientTransform="matrix(1, 0, 0, 1, 0, 0)" gradientUnits="userSpaceOnUse"><stop offset="0" stop-color="#9b81cf"/><stop offset="1" stop-color="#3b139b"/></linearGradient><linearGradient id="c" x1="66.74" y1="330.5" x2="651.26" y2="330.5" gradientTransform="matrix(1, 0, 0, 1, 0, 0)" gradientUnits="userSpaceOnUse"><stop offset="0" stop-color="#4c1da9"/><stop offset="1" stop-color="#997ece"/></linearGradient><clipPath id="d"><circle class="at" cx="359" cy="330.5" r="286.49"/></clipPath><linearGradient id="e" x1="-2298.17" y1="-6285.97" x2="-2266.67" y2="-6285.97" gradientTransform="translate(8014.21 9956.59) rotate(-17.78) scale(1.86)" gradientUnits="userSpaceOnUse"><stop offset="0" stop-color="#ff0a3b"/><stop offset=".67" stop-color="#ff576b"/><stop offset="1" stop-color="#ff7880"/></linearGradient><linearGradient id="f" x1="-2275.05" y1="-6298.53" x2="-2274.7" y2="-6257.33" gradientTransform="translate(8014.21 9956.59) rotate(-17.78) scale(1.86)" gradientUnits="userSpaceOnUse"><stop offset="0" stop-color="#cc8122"/><stop offset=".32" stop-color="#9e5d16"/><stop offset=".78" stop-color="#612e06"/><stop offset="1" stop-color="#491c00"/></linearGradient><linearGradient id="g" x1="-2298.17" y1="-6281.21" x2="-2251.57" y2="-6281.21" xlink:href="#f"/><linearGradient id="i" x1="-5132.8" y1="-5692.82" x2="-5098.59" y2="-5692.82" gradientTransform="translate(10568.94 10894.48) rotate(-1.91) scale(1.92)" gradientUnits="userSpaceOnUse"><stop offset="0" stop-color="#fdbf05"/><stop offset=".31" stop-color="#fda712"/><stop offset=".96" stop-color="#fe6933"/><stop offset="1" stop-color="#ff6636"/></linearGradient><linearGradient id="j" x1="-9481.18" y1="-5693.44" x2="-9480.8" y2="-5648.7" gradientTransform="translate(-17373.49 11863.35) rotate(177.89) scale(1.92 -1.92)" gradientUnits="userSpaceOnUse"><stop offset="0" stop-color="#d59647"/><stop offset=".2" stop-color="#bd833d"/><stop offset=".74" stop-color="#805426"/><stop offset="1" stop-color="#68421d"/></linearGradient><linearGradient id="k" x1="-9506.29" y1="-5674.64" x2="-9455.69" y2="-5674.64" xlink:href="#j"/></defs><g class="bk"><g id="a"><g><g><circle class="cd" cx="359" cy="330.5" r="301.94"/><circle class="ar" cx="359" cy="330.5" r="289.26"/></g><g class="co"><ellipse class="bl" cx="353.76" cy="303.76" rx="291.63" ry="291.34"/><g><path class="cc" d="M670.9,275.66c0,146.64-139.94,265.52-312.57,265.52S30.52,435.15,30.52,288.51,185.7,10.14,358.33,10.14s312.57,118.88,312.57,265.52Z"/><path class="bp" d="M136.55,697.04S553.27,376.76-65.57,399.03"/><path class="bg" d="M413.18,627.54c-153.04,0-359.49-24.14-359.49-69.9s183.35-171.79,579.56-193.02c152.82-8.19-67.03,262.92-220.06,262.92Z"/><path class="ck" d="M429.78,682.23c-143.08-28.95-332.03-88.1-324.3-126.21,7.73-38.11,200.42-108.38,574.44-51.12,144.26,22.09-107.06,206.27-250.13,177.33Z"/><ellipse class="cs" cx="249.24" cy="524.58" rx="55.33" ry="12.77" transform="translate(-43.97 23.25) rotate(-4.91)"/><ellipse class="cs" cx="484.81" cy="531.85" rx="55.33" ry="12.99" transform="translate(-77.65 82.91) rotate(-9.05)"/><path class="aw" d="M580.03,369.96s-10.53-15.34,6.95-13.77c0,0-.78-25.51,16.7-16.06,0,0-5.39-21.55,24.43-14.58,0,0,35.93-7.32,17.73,18.29,0,0,28.79,4.05,11.31,22.12l-77.11,4Z"/><path class="ay" d="M173.21,144.83s7.16-33.02,44.27-8.3c37.11,24.72-35.08,27.49-67.88,21.48-32.79-6.01,23.61-13.18,23.61-13.18Z"/><path class="ay" d="M244.22,116.29c31.03,15.5,2.97,22.24-22.92,20.76-25.89-1.47-8.11-36.26,22.92-20.76Z"/><g><path class="cu" d="M400.16,610.41s-45.68,7.41-49.26-4.44c-3.58-11.84,37.78-7.65,55.32-2.2-55.86-30.29-26.19-12.13-42.83-23.42-16.64-11.29-7.16-24.97,21.07-9.24,24,16.8,31.06,21.69,31.06,21.69,0,0-22.51-27.38-32.81-42.59-10.29-15.21,.79-33.51,22.3-8.59-.61-10.64-.69-11.68-.69-11.68,0,0,1.32,15.85-.71-2.46-2.03-18.31,15.52-14.74,15.74,13.38,5.61-12.88-2.3,2.43,6.78-11.94,9.08-14.36,27.14-11.02,18.31,16.21-8.83,27.24-5.96,19.4-5.96,19.4l-6.7,17.53,24.61-25.57c17.48-15.59,28.94-10.35,11.43,14.06-11.94,13.87-22.29,24.95-22.29,24.95,0,0,12.2-5.77,31.74-16.05,19.54-10.28,25.04,7.08,2.18,16.99-28.81,4.79-79.27,13.97-79.27,13.97"/><g><path class="ax" d="M430.26,597.27l40.57-43.74s-33.89,40.24-40.57,43.74"/><path class="ax" d="M421.91,580.88l15.1-54.01s-9.43,45.8-15.1,54.01"/><path class="ax" d="M407.73,522.16s12.47,69.14,15.56,76.64c1.52-3.72-13.6-76.26-15.56-76.64"/><path class="ax" d="M423.15,594.46s-37.21-55.16-38.14-57.05c-.94-1.9,32.83,39.09,32.63,47.11"/><path class="ax" d="M437.09,601.91s41.23-15.13,47.12-19.02c5.89-3.9-16.18,11.61-47.12,19.02"/><path class="ax" d="M363.83,571.77s45.5,29.72,51.01,31.79c0,0-46.92-32.62-51.01-31.79"/><path class="ax" d="M404.93,607.06s-47.45,.66-48.61-.03c-1.16-.68,43.29-1.5,48.61,.03"/><path class="ax" d="M426.78,563.47l12.42-9.51s-11.34,5.67-12.42,9.51"/><path class="ax" d="M429.18,554.88s-5.23-12.04-5.88-13.32c-.65-1.29,5.93,7.8,5.88,13.32"/><path class="ax" d="M432.73,546.07s11.69-8.76,11.53-10.3c-.16-1.54-10.01,8.78-11.53,10.3"/><path class="ax" d="M432.06,541.85l-4.38-9.85s4.97,5.03,4.38,9.85"/><path class="ax" d="M437.82,589.13s3.07-13.89,4.5-15.51c1.43-1.62-3.58,13.12-4.5,15.51"/><path class="ax" d="M445.79,582.16l15.7-7.62s-8.94,1.96-15.7,7.62"/><path class="ax" d="M457.31,568.1s-.8-8.93,.42-10.52c1.23-1.59,.86,9.13-.42,10.52"/><path class="ax" d="M462.68,563.07l10.15-4.95s-2.97,3.3-10.15,4.95"/><path class="ax" d="M460.5,593.06s9.77-8.42,12.96-9.65c3.19-1.23-6.43,5.84-12.96,9.65"/><path class="ax" d="M465.74,592.22s17.17-1.77,19.45-3.12c2.28-1.35-16.89,2.02-19.45,3.12"/><path class="ax" d="M451.74,597.65l16.93-.8s-11.47-.96-16.93,.8"/><path class="ax" d="M416.05,556.99c-.13-.7,3.83-8.86,3.83-8.86,0,0-3.01,1.41-3.97,8.17"/><path class="ax" d="M412.27,550.4s-5.13-6.68-5.29-6.35c-.16,.33,3.96,.95,5.29,6.35"/><path class="ax" d="M412.71,540.64l1.62-10.92s-3.03,4.21-1.62,10.92"/><path class="ax" d="M405.96,563.92s-2.54-15.03-2.5-15.72c.04-.69-1.37,8.3,2.5,15.72"/><path class="ax" d="M395.08,549.51s-3.28-7.85-3.12-10.88c.15-3.02,3.13,8.19,3.12,10.88"/><path class="ax" d="M398.45,557.05l-10.93-3.74s5.49-.28,10.93,3.74"/><path class="ax" d="M409.54,572.97l-10.29-1.68s6.22-.68,10.29,1.68"/><path class="ax" d="M375.99,577.87s-6.81-6.98-7.52-8.85c-.72-1.87,5.81,3.44,7.52,8.85"/><path class="ax" d="M384.08,584.86l-13.34-1.33s6.65-1.1,13.34,1.33"/><path class="ax" d="M390.95,587.41s-4.23-5.92-4.13-9.24c.11-3.32,2.55,6.42,4.16,9.27"/><path class="ax" d="M400.6,593.84s-3.57-7.28-3.76-9.83c-.19-2.55,4.63,6.72,3.76,9.83"/><path class="ax" d="M375.47,599.85l14.56,6.38s-5.54-.12-14.56-6.38"/><path class="ax" d="M370.34,606.34s-9.96-3.04-11.68-4.52c-1.71-1.48,9.82,2.36,11.68,4.52"/><path class="ax" d="M382.3,607.3s-11.9,4.33-14.63,4.7c-2.73,.36,6.89-3.63,14.63-4.7"/></g></g><g><path class="cu" d="M177.21,574.45s-21.87-8.05-20.51-14.12c1.36-6.08,18.46,5.99,24.81,12.71-17-27.1-8.48-11.8-12.98-20.86-4.5-9.06,3.05-12.72,11.53,1.15,6.36,13.3,8.25,17.19,8.25,17.19,0,0-3.09-17.57-3.84-26.79s8.65-14.5,11.91,1.74c2.37-4.82,2.59-5.29,2.59-5.29,0,0-3.35,7.28,.3-1.25,3.65-8.53,10.46-2.63,3.59,9.76,5.65-4.26-1.61,.49,5.93-3.56,7.54-4.05,14.63,1.87,4.02,11.64-10.62,9.76-7.42,7.03-7.42,7.03l-7.28,6.03,17.13-5.13c11.53-2.52,15.26,2.62,1.53,8.99-8.67,3.13-15.96,5.43-15.96,5.43,0,0,6.78,.49,17.9,.81,11.12,.32,9.23,9.29-3.26,7.99-13.82-5.02-38.23-13.47-38.23-13.47"/><g><path class="ax" d="M193.66,576.12l28.63-9.16s-24.83,9.27-28.63,9.16"/><path class="ax" d="M194.06,566.87l20-19.96s-15.48,17.76-20,19.96"/><path class="ax" d="M202.39,537.61s-11.66,33.41-12.16,37.46c1.59-1.25,12.93-36.81,12.16-37.46"/><path class="ax" d="M191.24,573.13s-2.65-33.39-2.59-34.45c.06-1.06,4.72,25.26,2.64,28.73"/><path class="ax" d="M195.51,579.84s21.83,3.56,25.38,3.3c3.55-.25-9.97,1.09-25.38-3.3"/><path class="ax" d="M170.84,548.52s12.59,24.28,14.5,26.55c0,0-12.5-25.91-14.5-26.55"/><path class="ax" d="M180.13,574.16s-20.97-11.44-21.32-12.03c-.34-.59,19.36,10.05,21.32,12.03"/><path class="ax" d="M200.51,560.44l7.8-1.1s-6.38-.32-7.8,1.1"/><path class="ax" d="M203.69,557.26s.69-6.57,.72-7.3c.03-.72,.67,4.89-.72,7.3"/><path class="ax" d="M207.43,554.27s7.3-.95,7.61-1.67c.31-.71-6.57,1.37-7.61,1.67"/><path class="ax" d="M208.18,552.26l.52-5.4s.93,3.44-.52,5.4"/><path class="ax" d="M198.99,574.42s4.79-5.33,5.82-5.69c1.03-.36-4.82,4.87-5.82,5.69"/><path class="ax" d="M204.22,573.33l8.77,.54s-4.41-1.35-8.77-.54"/><path class="ax" d="M212.75,570.02s1.86-4.11,2.79-4.51c.93-.39-1.88,4.22-2.79,4.51"/><path class="ax" d="M216.35,569.14l5.68,.34s-2.12,.71-5.68-.34"/><path class="ax" d="M207.97,581.75s6.37-1.28,8.07-1.03c1.7,.25-4.27,.97-8.07,1.03"/><path class="ax" d="M210.47,582.68s7.97,3.47,9.3,3.44c1.33-.03-7.91-3.29-9.3-3.44"/><path class="ax" d="M202.99,581.6l7.62,3.83s-4.79-3.25-7.62-3.83"/><path class="ax" d="M197.41,554.94c.11-.34,3.88-2.94,3.88-2.94,0,0-1.67-.13-3.76,2.6"/><path class="ax" d="M197.38,551.12s-.6-4.2-.75-4.09c-.15,.1,1.5,1.39,.75,4.09"/><path class="ax" d="M200,546.94l3.41-4.39s-2.37,1.09-3.41,4.39"/><path class="ax" d="M191.27,555.49s2.61-7.22,2.8-7.51c.19-.29-2.66,3.3-2.8,7.51"/><path class="ax" d="M190.07,546.48s.51-4.26,1.32-5.54c.82-1.29-.66,4.37-1.32,5.54"/><path class="ax" d="M189.67,550.62l-3.87-4.34s2.48,1.24,3.87,4.34"/><path class="ax" d="M190.6,560.34l-4.1-3.28s2.9,1.24,4.1,3.28"/><path class="ax" d="M174.66,554.19s-1.26-4.74-1.11-5.74c.15-1,1.7,2.95,1.11,5.74"/><path class="ax" d="M176.48,559.26l-5.52-3.88s3.19,1.16,5.52,3.88"/><path class="ax" d="M178.86,562.08s-.39-3.65,.48-5.07c.87-1.43-.47,3.45-.47,5.09"/><path class="ax" d="M181.5,567.28s.24-4.08,.79-5.24c.55-1.17,.36,4.09-.79,5.24"/><path class="ax" d="M168.99,563.71l4.81,6.4s-2.4-1.42-4.81-6.4"/><path class="ax" d="M165.13,565.28s-3.62-3.79-4-4.87c-.38-1.07,3.72,3.46,4,4.87"/><path class="ax" d="M170.14,568.66s-6.29-1.04-7.58-1.56c-1.29-.51,3.92,.11,7.58,1.56"/></g></g><g class="cf"><path class="cu" d="M348.21,486.49s-13.87,.04-14.37-3.64c-.5-3.67,11.54-.48,16.48,1.96-15.1-11.6-7.18-4.83-11.57-8.95-4.39-4.13-.94-7.73,6.67-1.74,6.31,6.1,8.17,7.89,8.17,7.89,0,0-5.37-9.16-7.7-14.15-2.33-4.99,1.82-9.88,7.01-1.49,.32-3.18,.35-3.49,.35-3.49,0,0-.36,4.75-.09-.76s5.29-3.63,4.03,4.7c2.27-3.55-.8,.61,2.57-3.21,3.37-3.82,8.55-1.98,4.65,5.66-3.9,7.65-2.68,5.46-2.68,5.46l-2.81,4.87,8.49-6.41c5.91-3.79,9.06-1.7,2.72,4.7-4.19,3.54-7.78,6.33-7.78,6.33,0,0,3.88-1.13,10.15-3.25,6.27-2.12,7.08,3.28-.16,5.13-8.75,.06-24.12,.4-24.12,.4"/><g><path class="ax" d="M357.74,484.02l14.07-11.03s-11.93,10.31-14.07,11.03"/><path class="ax" d="M356.04,478.77l7.02-15.27s-4.96,13.11-7.02,15.27"/><path class="ax" d="M354.62,460.72s.42,21.05,.98,23.42c.63-1.03-.42-23.21-.98-23.42"/><path class="ax" d="M355.76,482.85s-8.41-18.08-8.59-18.69c-.19-.61,7.87,13.12,7.43,15.48"/><path class="ax" d="M359.54,485.71s12.92-2.53,14.84-3.41c1.93-.88-5.34,2.67-14.84,3.41"/><path class="ax" d="M339.28,473.34s12.06,10.94,13.6,11.82c0,0-12.34-11.87-13.6-11.82"/><path class="ax" d="M349.78,485.72s-14.08-2.04-14.39-2.3c-.31-.26,12.88,1.6,14.39,2.3"/><path class="ax" d="M358.31,473.85l4.12-2.23s-3.62,1.14-4.12,2.23"/><path class="ax" d="M359.42,471.42s-.98-3.81-1.11-4.22c-.13-.41,1.39,2.59,1.11,4.22"/><path class="ax" d="M360.89,468.98s3.87-2.04,3.9-2.51c.03-.46-3.38,2.13-3.9,2.51"/><path class="ax" d="M360.89,467.7l-.83-3.12s1.23,1.72,.83,3.12"/><path class="ax" d="M360.36,481.96s1.56-3.97,2.07-4.38c.5-.41-1.68,3.71-2.07,4.38"/><path class="ax" d="M363.05,480.28l5.01-1.52s-2.74,.16-5.01,1.52"/><path class="ax" d="M367.12,476.66s.18-2.68,.62-3.09c.44-.41-.18,2.74-.62,3.09"/><path class="ax" d="M368.95,475.42l3.24-.99s-1.03,.84-3.24,.99"/><path class="ax" d="M366.89,484.2s3.29-2.03,4.29-2.24c1-.21-2.18,1.42-4.29,2.24"/><path class="ax" d="M368.48,484.2s5.17,.29,5.9,0c.74-.29-5.09-.2-5.9,0"/><path class="ax" d="M364.08,485.14l5.05,.56s-3.35-.82-5.05-.56"/><path class="ax" d="M355.44,471.43c0-.21,1.55-2.44,1.55-2.44,0,0-.96,.27-1.56,2.23"/><path class="ax" d="M354.63,469.3s-1.2-2.22-1.27-2.13c-.06,.09,1.13,.47,1.27,2.13"/><path class="ax" d="M355.22,466.43l.99-3.16s-1.1,1.1-.99,3.16"/><path class="ax" d="M352.12,473s-.04-4.57,0-4.77c.05-.2-.8,2.39,0,4.77"/><path class="ax" d="M349.58,468.22s-.6-2.48-.41-3.37c.19-.89,.54,2.57,.41,3.37"/><path class="ax" d="M350.22,470.61l-3.06-1.62s1.64,.18,3.06,1.62"/><path class="ax" d="M352.76,475.85l-2.97-.98s1.87,.09,2.97,.98"/><path class="ax" d="M342.59,475.72s-1.68-2.39-1.81-2.97c-.12-.59,1.56,1.29,1.81,2.97"/><path class="ax" d="M344.66,478.17l-3.89-1.02s2.02-.01,3.89,1.02"/><path class="ax" d="M346.57,479.25s-.97-1.95-.78-2.93c.19-.98,.45,2.02,.79,2.94"/><path class="ax" d="M349.12,481.6s-.71-2.32-.65-3.09c.06-.76,1.05,2.21,.65,3.09"/><path class="ax" d="M341.4,482.2l4.01,2.58s-1.63-.3-4.01-2.58"/><path class="ax" d="M339.57,483.88s-2.8-1.37-3.24-1.89c-.44-.52,2.8,1.16,3.24,1.89"/><path class="ax" d="M343.07,484.73s-3.73,.72-4.55,.7c-.82-.02,2.21-.75,4.55-.7"/></g></g><g class="cf"><path class="cu" d="M568.13,491.4s-13.87,.04-14.37-3.64c-.5-3.67,11.54-.48,16.48,1.96-15.1-11.6-7.18-4.83-11.57-8.95-4.39-4.13-.94-7.73,6.67-1.74,6.31,6.1,8.17,7.89,8.17,7.89,0,0-5.37-9.16-7.7-14.15-2.33-4.99,1.82-9.88,7.01-1.49,.32-3.18,.35-3.49,.35-3.49,0,0-.36,4.75-.09-.76,.26-5.52,5.29-3.63,4.03,4.7,2.27-3.55-.8,.61,2.57-3.21,3.37-3.82,8.55-1.98,4.65,5.66-3.9,7.65-2.68,5.46-2.68,5.46l-2.81,4.87,8.49-6.41c5.91-3.79,9.06-1.7,2.72,4.7-4.19,3.54-7.78,6.33-7.78,6.33,0,0,3.88-1.13,10.15-3.25,6.27-2.12,7.08,3.28-.16,5.13-8.75,.06-24.12,.4-24.12,.4"/><g><path class="ax" d="M577.66,488.93l14.07-11.03s-11.93,10.31-14.07,11.03"/><path class="ax" d="M575.96,483.68l7.02-15.27s-4.96,13.11-7.02,15.27"/><path class="ax" d="M574.54,465.63s.42,21.05,.98,23.42c.63-1.03-.42-23.21-.98-23.42"/><path class="ax" d="M575.69,487.76s-8.41-18.08-8.59-18.69c-.19-.61,7.87,13.12,7.43,15.48"/><path class="ax" d="M579.46,490.62s12.92-2.53,14.84-3.41c1.93-.88-5.34,2.67-14.84,3.41"/><path class="ax" d="M559.2,478.25s12.06,10.94,13.6,11.82c0,0-12.34-11.87-13.6-11.82"/><path class="ax" d="M569.7,490.63s-14.08-2.04-14.39-2.3c-.31-.26,12.88,1.6,14.39,2.3"/><path class="ax" d="M578.23,478.76l4.12-2.23s-3.62,1.14-4.12,2.23"/><path class="ax" d="M579.34,476.33s-.98-3.81-1.11-4.22c-.13-.41,1.39,2.59,1.11,4.22"/><path class="ax" d="M580.81,473.89s3.87-2.04,3.9-2.51c.03-.46-3.38,2.13-3.9,2.51"/><path class="ax" d="M580.81,472.61l-.83-3.12s1.23,1.72,.83,3.12"/><path class="ax" d="M580.28,486.88s1.56-3.97,2.07-4.38c.5-.41-1.68,3.71-2.07,4.38"/><path class="ax" d="M582.97,485.19l5.01-1.52s-2.74,.16-5.01,1.52"/><path class="ax" d="M587.05,481.57s.18-2.68,.62-3.09c.44-.41-.18,2.74-.62,3.09"/><path class="ax" d="M588.87,480.34l3.24-.99s-1.03,.84-3.24,.99"/><path class="ax" d="M586.81,489.11s3.29-2.03,4.29-2.24c1-.21-2.18,1.42-4.29,2.24"/><path class="ax" d="M588.4,489.11s5.17,.29,5.9,0c.74-.29-5.09-.2-5.9,0"/><path class="ax" d="M584,490.05l5.05,.56s-3.35-.82-5.05-.56"/><path class="ax" d="M575.36,476.34c0-.21,1.55-2.44,1.55-2.44,0,0-.96,.27-1.56,2.23"/><path class="ax" d="M574.55,474.21s-1.2-2.22-1.27-2.13c-.06,.09,1.13,.47,1.27,2.13"/><path class="ax" d="M575.14,471.34l.99-3.16s-1.1,1.1-.99,3.16"/><path class="ax" d="M572.05,477.91s-.04-4.57,0-4.77c.05-.2-.8,2.39,0,4.77"/><path class="ax" d="M569.51,473.13s-.6-2.48-.41-3.37c.19-.89,.54,2.57,.41,3.37"/><path class="ax" d="M570.14,475.52l-3.06-1.62s1.64,.18,3.06,1.62"/><path class="ax" d="M572.68,480.76l-2.97-.98s1.87,.09,2.97,.98"/><path class="ax" d="M562.51,480.63s-1.68-2.39-1.81-2.97c-.12-.59,1.56,1.29,1.81,2.97"/><path class="ax" d="M564.58,483.08l-3.89-1.02s2.02-.01,3.89,1.02"/><path class="ax" d="M566.49,484.16s-.97-1.95-.78-2.93c.19-.98,.45,2.02,.79,2.94"/><path class="ax" d="M569.04,486.52s-.71-2.32-.65-3.09c.06-.76,1.05,2.21,.65,3.09"/><path class="ax" d="M561.32,487.11l4.01,2.58s-1.63-.3-4.01-2.58"/><path class="ax" d="M559.49,488.79s-2.8-1.37-3.24-1.89c-.44-.52,2.8,1.16,3.24,1.89"/><path class="ax" d="M562.99,489.64s-3.73,.72-4.55,.7c-.82-.02,2.21-.75,4.55-.7"/></g></g><g class="c`"><path class="bj" d="M81.35,383.04s13.83-8.3,21.09,1.71c7.25,10.01,2.68,6.9-11.48,5.77-14.16-1.13-14.72-5.27-9.6-7.48Z"/><path class="bj" d="M87.41,402.69s4.61-7.62,3.53-12.18c-1.32-5.59,1.17-2.08,1.17-2.08l.49,4.65,4.85-1.87s-5.4,2.13-4.43,5.94c.97,3.81,2.58,5.57,2.58,5.57l-8.2-.03Z"/></g></g><g><g><g><g><path class="n" d="M271.63,466.14s-7.7,35.33-9.72,38.4c-2.02,3.07-10.62,7.17-16.35,6.49,0,0,4.16-36.29,6.63-42.04,2.47-5.75,19.44-2.85,19.44-2.85Z"/><path class="n" d="M245.57,470.28s-7.42,31.66-8.6,36.21c-1.18,4.55-14.66,6.9-19.72,5.39,0,0,8.22-38.39,10.62-42.6,2.4-4.21,17.7,1,17.7,1Z"/><path class="ca" d="M227.33,469.86c1.09-.79,18.79-2.52,18.79-2.52l-.84,3.54s-7.01,1.66-9.38,2.08"/></g><g><path class="as" d="M265.57,492.06s-8.49,2.89-17.52-1.49l-2.88,20.61s13.32,1.37,16.11-2.79l4.28-16.33Z"/><path class="ah" d="M270.71,510.81s-.56-6.17-6.4-5.84c-5.84,.34-10.11-1.46-12.25,1.68-2.13,3.14,.2,4.94-6.88,3.03l.14-2.47s-3.6-1.12-4.38,1.23c-.79,2.36-1.01,7.07-2.13,9.43-1.12,2.36-1.46,3.82,0,4.38s22.92,11.9,41.91,4.94c0,0,11.35-14.14-10-16.39Z"/><path class="ah" d="M275.37,511.6s-9.61-1.24-13.43,7.51c0,0-.99,1.91-1.17,4.71"/><path class="w" d="M238.46,518.55s15.17,6.62,21.57,7.86c6.4,1.23,21.87-.91,22.28-1.78,.41-.87-1.6,2.57-1.6,2.57,0,0-8.45,3.33-20.29,1.78-11.84-1.55-21.62-6.71-21.62-6.71,0,0-2.25-.67-.34-3.7Z"/><path class="w" d="M270.71,510.81s-7.96-.9-9.93,3.82c-1.98,4.71,3.36,1.04,3.36,1.04,0,0,2.87-4.63,10.06-4.12,0,0-.45-1.52-3.48-.73Z"/><path class="w" d="M270.17,508.73s-6.99-1.07-8.9,2.3c-1.91,3.37,0,2.69,0,2.69,0,0,2.02-3.36,9.44-2.91l-.54-2.07Z"/><path class="as" d="M266.8,487s-12.76,2.5-17.86-1.06l-.73,3.22s12.63,2.45,17.9,.87l.69-3.03Z"/></g><g><path class="as" d="M239.83,494.62s-8.87,2.89-18.31-1.49l-4.94,20.24s16.35,1.18,19.27-2.98l3.98-15.77Z"/><path class="ah" d="M242.87,512.99s-.56-6.17-6.4-5.84c-5.84,.34-10.11-1.46-12.25,1.68-2.13,3.14,.2,4.94-6.88,3.03l.14-2.47s-3.6-1.12-4.38,1.23c-.79,2.36-1.01,7.07-2.13,9.43-1.12,2.36-1.46,3.82,0,4.38,1.46,.56,22.92,11.9,41.91,4.94,0,0,11.35-14.14-10-16.39Z"/><path class="ah" d="M247.53,513.79s-9.61-1.24-13.43,7.51c0,0-.99,1.91-1.17,4.71"/><path class="w" d="M210.62,520.74s15.17,6.62,21.57,7.86c6.4,1.23,21.87-.91,22.28-1.78s-1.6,2.57-1.6,2.57c0,0-8.45,3.33-20.29,1.78-11.84-1.55-21.62-6.71-21.62-6.71,0,0-2.25-.67-.34-3.7Z"/><path class="w" d="M242.87,512.99s-7.96-.9-9.93,3.82,3.36,1.04,3.36,1.04c0,0,2.87-4.63,10.06-4.12,0,0-.45-1.52-3.48-.73Z"/><path class="w" d="M242.33,510.92s-6.99-1.07-8.9,2.3c-1.91,3.37,0,2.69,0,2.69,0,0,2.02-3.36,9.44-2.91l-.54-2.07Z"/><path class="as" d="M241.05,489.49s-13.23,2.5-18.51-1.06l-.76,3.22s13.09,2.45,18.55,.87l.72-3.03Z"/></g></g><g><path class="bc" d="M273.14,456.56c-.1,1.61-.29,3.43-.56,5.5-.46,3.5-1.75,6.48-2.34,9.77-3.07,.24-5.39,.67-8.46,.44-2.1-.16-5.8-.47-8.27-2.22l.91-11.06,4.41-3.9c2.19-.63,4.49-.73,6.37-.59,2.67,.22,5.43,.81,7.94,2.06Z"/><path class="bc" d="M251.6,468.65c-.66,2.06-6.04-.49-7.37,7.33-4.19-.12-9.05-.59-13-1.99-1.47-.52-2.81-1.08-4.46-2.08,.49-3.96,.52-6.6,.52-6.6,0,0,33.59-25.65,24.31,3.35Z"/><polygon class="u" points="278.69 427.1 276.35 437.15 276.32 437.25 276.28 444.64 276.21 456.87 276.19 461.28 272.69 461.16 255.49 460.57 254.28 460.53 253.22 460.49 250.3 460.39 250.4 457.52 250.42 457.06 250.49 455.15 250.67 450.04 250.72 448.46 251.04 439.09 251.21 434.11 251.27 432.56 251.85 415.83 278.69 427.1"/><path class="ac" d="M249.69,457.39c3.61,.68,20.38,3.54,26.66-.6,.47-.31,1.09,.03,1.05,.6l-.56,8.06c-.02,.27-.2,.51-.46,.59-2.66,.85-17.13,5.04-28.01-1.41-.23-.14-.36-.41-.32-.68l.86-5.99c.05-.38,.41-.63,.79-.56Z"/><path class="u" d="M272.41,438.1l-7.91,8.14-3.15,3.02-3.86,3.7-1.08,4.11-.05,.21-.29,1.1-.58,2.2-.32,1.23-1.08,4.09-.25,.07-.71,.21c-.28,.08-.57,.16-.86,.23-.03,0-.05,.01-.08,.02-6.72,1.49-17.74-.73-23.52-2.14-2.34-.57-3.82-1-3.82-1v-25.27l.9-12.16,25.53,6.69,5.94,1.56,13.62,3.56,1.59,.42Z"/><path class="ao" d="M225.13,458.4c4.57,1.72,18.11,6.16,29.19,3.35,.92-.23,1.78,.53,1.62,1.47l-1.17,6.75c-.08,.49-.44,.89-.92,1.02-3.61,1.03-18.99,4.63-30.49-4.83-.33-.27-.5-.69-.46-1.11l.48-5.55c.07-.86,.94-1.41,1.74-1.1Z"/><path class="bx" d="M276.35,437.15l-.02,.1-.04,7.39c-4.96,2.38-10.02,3.82-14.94,4.61-3.66,.59-7.25,.81-10.68,.79-11.9-.09-21.8-3.25-25.82-4.83v-6.74c5.8,1.18,16.16,1.11,26.2,.62,7.42-.36,14.67-.95,19.78-1.41,2.36-.21,4.27-.4,5.52-.53Z"/></g><g><g><g><path class="ak" d="M301.2,370.39s-.81,7.92-12.73,8c-2.9,.02-6.47-.43-10.85-1.57-9.85-2.57,.86-18.18,.86-18.18l8.6-.16,10.11,.78s11.12,3,4.02,11.13Z"/><path class="da" d="M287.13,358.68c1.28,3.91,2.6,10.38,1.29,19.52-2.9,.02-6.43-.23-10.81-1.37-9.85-2.57,.86-18.18,.86-18.18l8.66,.03Z"/></g><path class="ak" d="M293.03,377.67c12.82-3.18,26.02-12.03,35.47-29.96l-4.79-5.24c-.99,.04-22.84,15.04-27.78,16.78"/></g><g><path class="ak" d="M328.7,334.85s6.26-8.37,11.99-5.37c3.76,1.97,2.7,2.63,.51,5.37,0,0,4.28,2.74,1.47,5.78,0,0,3.92,3.19,.63,4.78,0,0,1.85,1.61-1.03,2.99-2.88,1.38-15.79,3.66-17.82,3.13"/><path class="ak" d="M320.5,345.35s-.88-6.33,3.59-11.32c4.21-4.7,6.35-1.97,8.44-1.5s5.97,.96,1.46,3.18-4.17-.7-5.14,4.47c-.96,5.17-1.84,4.61-2.92,5.77"/><path class="ak" d="M341.2,334.85c-8.45,4.9-9.16,1.63-9.16,1.63"/><path class="ak" d="M333.35,332.85c2.73-1.91,4.15-1.56,4.15-1.56"/><path class="al" d="M342.67,340.63s-5.48,2.23-7.8,1.08c-2.32-1.15-3.73-4.21-1.14-4.26"/><path class="al" d="M343.46,345.08s-5.48,2.23-7.8,1.08c-2.32-1.15-3.73-4.21-1.14-4.26"/><path class="al" d="M343.26,348.19s-5.48,2.23-7.8,1.08c-2.32-1.15-3.73-4.21-1.14-4.26"/></g></g><g><path class="v" d="M256.99,353.8c-5.11-.24,10.36,1.74,21.7,2.05,.72,.02,1.45,.02,2.17,.02,0,0,6.48,15.7,1.87,27.23,0,0-.65,.03-1.9,.03-4.65-.04-17.56-.71-35.27-6.12"/><path class="ct" d="M280.63,356.08s6.31,14.9,2.02,26.85c0,0-.72-.09-1.96-.1,2.3-13.98-1.08-23.75-2.22-26.77,.72,.01,1.45,.02,2.17,.02Z"/></g><path class="v" d="M267.22,367.45c2.59,3.61,4.69,8.63,6.4,16.42,.41,1.85,1.38,3.63,1.77,5.63,3.48,17.9,2.78,52.72,2.78,52.72,0,0-23.59,15.14-56.61,0,0,0-.73-20.01-.65-39.46,.01-2.05,.03-4.09,.06-6.1,.03-2.35,.08-4.66,.14-6.89,.06-2.09,.14-4.11,.23-6.04,.11-2.29,.25-4.44,.42-6.39,1.4-16.22,8.64-23.49,13.68-26.49,1.48-.88,2.77-1.39,3.66-1.66,3.96-1.16,14.54,5.38,14.54,5.38"/><path class="ct" d="M258.9,359.59c-3.02,1.21-7.15,1.32-11.75,.07-6.15-1.67-10.7-5.06-11.64-8.58,1.48-.88,2.85-1.57,3.75-1.84,3.96-1.16,14.38,5.34,14.38,5.34,0,0,3.21-1.26,5.26,5.01Z"/><path class="ct" d="M273.67,389.14c-7.81,3.28-24.66,13.09-52.15-.05,.06-2.09,.14-4.11,.23-6.04,6.29,4.05,27.86,14.97,51.4,0,.48,1.39,.94,2.82,1.37,4.31,.21,.72-.16,1.48-.85,1.77Z"/><path class="ct" d="M276.76,402.95c-9.52,2.89-23.54,11.01-55.46-.88,.01-2.05,.03-4.09,.06-6.1,7.57,2.64,28.84,14.5,54.99,.84,.39,2.02,.13,4.22,.42,6.13Z"/><g><g><path class="ak" d="M313.36,385.1v8.48l-23.55,12.34c-11.58,5.97-19.13,3.46-23.14,.53l-12.4-9.07-8.65-6.33,13.75-13.1c.44,.07,2.58,1.62,5.24,3.68,5.36,4.14,12.84,10.29,12.84,10.29l35.92-6.82Z"/><path class="da" d="M264.6,382.09c-1.72,6.69-6.98,11.86-9.93,14.88l-9.06-5.91,13.75-13.1c.44,.07,2.58,2.08,5.24,4.14Z"/></g><g><path class="v" d="M247.25,361.8c.23,1.08,6.97,8.91,14.61,16.16,.52,.5,1.05,.99,1.58,1.48,0,0-5.84,15.95-17.04,21.33,0,0-.5-.42-1.42-1.26-3.4-3.17-12.47-12.38-21.85-28.32"/><path class="ct" d="M263.13,379.45s-5.43,15.24-16.67,21.15c0,0-.47-.55-1.38-1.4,11.16-8.75,15.27-18.23,16.47-21.23,.52,.5,1.05,.99,1.58,1.48Z"/></g><path class="m" d="M278.34,391.74c-1.57,.14-3.08,.88-4.08,2.02-1,1.14-1.49,2.65-1.32,4.11"/><g><line class="ak" x1="327.99" y1="386.69" x2="327.17" y2="385.94"/><g><path class="br" d="M334.65,390.41s-.77-1.23-3.35-.71"/><path class="bh" d="M334.65,390.41c-.91-.82-2.19-.75-3.35-.71,1.09-.4,2.68-.39,3.35,.71h0Z"/></g><g><path class="br" d="M332.52,390.13s-5.36-1.33-6.36-5.82"/><path class="bh" d="M332.52,390.14c-2.8-.75-5.99-2.75-6.34-5.83,.89,2.94,3.56,4.91,6.34,5.83h0Z"/></g><path class="ak" d="M308.79,395.97c4.57-1.77,5.72-1.4,5.72-1.4,.19,1.79,5.61,5.3,9.12,5.38,3.24,.08,3.55-1.77,3.55-1.77,3.96-.67,3.1-2.74,3.1-2.74,3.81-.65,2.76-3.2,2.76-3.2,1.71-.35,2.86-1.99,2.15-3.46s-5.85-2.84-5.85-2.84l-.33-4.89s-1.34-2.51-4.62-2.66c-3.28-.15-6.03,2.9-6.03,2.9,0,0-7.46,4.75-12.6,5.24"/><path class="ak" d="M333.76,392.13s-2.6,.76-5.18-.9"/><path class="ak" d="M330.75,395.25s-1.49,.77-4.79-1.05"/><path class="ak" d="M327.7,398.08s-1.54,.48-4.37-1.26"/><path class="al" d="M331.92,387.92s-4.49-1.5-5.21-5.06"/></g></g><path class="ak" d="M258.92,341.83c-3.23,3.97-3.07,9.48-2.51,13.02,.07,.46,.15,.88,.23,1.26,.25,1.22-.67,2.36-1.92,2.37-8.74,.08-13.53-3.85-15.64-6.28-.64-.73-1.04-1.33-1.23-1.64-.08-.14-.06-.31,.05-.43,3.66-3.83,3.97-11.67,3.97-13.13,0,0,22.19-1.5,17.05,4.81Z"/><path class="da" d="M258.35,341.83c-3.07,3.97-2.74,9.5-2.21,13.05-2.54,.28-5.5,.2-8.38-.25-3.03-.46-5.97-1.3-8.41-2.41-.9-1.09-1.35-1.88-1.35-1.88,3.65-3.75,4.13-11.85,4.13-13.33,0,0,21.1-1.5,16.21,4.81Z"/><g><path class="o" d="M221.94,295.32s-11.28-32.79,1.49-31.99c5.11,.32,8.41,4.78,9.66,7.35,2.68,5.5-5.55,9.54-8.29,4.07-.44-.88-.81-1.92-1.09-3.15-2.16-9.63-4.36,1.41-1.04,21.97l-.73,1.75Z"/><g><path class="a`" d="M280.04,298.39s-.51-6.82,3.94-4.47,7.05,14,2.37,19.94c-4.68,5.94-6.31-15.48-6.31-15.48Z"/><path class="cq" d="M280.88,300.56s-.28-4.7,2.73-3.12c3.01,1.58,4.68,9.59,1.42,13.73s-4.16-10.61-4.16-10.61Z"/></g><path class="ak" d="M270.6,273.83c11.27,19.73,11.24,19.91,16.82,37.82,4.1,13.14-4.46,27.7-14.52,32.41-14.8,6.93-39.31,5.25-47.81-10.73-6.33-11.9-11.57-17-14.59-21.17-9.55-13.15-6.1-47.44,12.67-55.33,17.56-7.38,35.01-4.74,47.42,16.99Z"/><g><g><path class="bm" d="M240.58,305.31c-3.44,1.95-4.47,7.09-2.28,11.47,2.18,4.39,6.59,5.17,10.03,3.22,3.44-1.95,4.63-5.89,2.44-10.28-2.18-4.39-6.75-6.36-10.19-4.42Z"/><path class="l" d="M240.58,305.31c-5.42,3.3-3.98,12.82,1.62,15.15,2.84,1.12,6.25,0,8.16-2.3,2-2.42,1.67-5.91,.27-8.56-1.7-3.57-6.24-6.42-10.05-4.29h0Zm0,0c3.81-2.18,8.41,.65,10.16,4.23,1.46,2.66,1.82,6.26-.21,8.75-1.94,2.43-5.48,3.52-8.4,2.34-5.66-2.41-7.05-12.02-1.55-15.32h0Z"/></g><path class="cn" d="M237.04,311.77c-.19-2.49,1.61-5.22,3.29-6.32,2.92-1.9,7.48-1,10,2.93,1.23,1.92,2.34,3.83,1.6,7.85,1.57-3.47-.17-7.17-2.34-9.76-2.15-2.57-5.72-4.37-8.78-2.78-2.65,1.38-4.46,5.63-3.77,8.07Z"/><g><path class="dc" d="M248.07,315.08c2.38-.77,3.28-3.53,2-6.16-1.27-2.63-4.23-4.13-6.61-3.36-2.38,.77-3.28,3.53-2.01,6.16,1.27,2.63,4.23,4.13,6.61,3.36Z"/><path class="cg" d="M241.81,308.92c.62,.02,1.11-.5,1.09-1.16-.02-.66-.54-1.21-1.17-1.23-.62-.02-1.11,.5-1.09,1.16,.02,.66,.54,1.21,1.17,1.23Z"/></g></g><g><g><path class="bm" d="M267.8,295.02c-3.22,1.71-3.98,6.58-1.7,10.86,2.28,4.28,6.55,5.34,9.77,3.62,3.22-1.71,4.17-5.55,1.89-9.83-2.28-4.28-6.75-6.37-9.97-4.65Z"/><path class="l" d="M267.8,295.02c-5.35,3.29-2.9,12.3,2.23,14.59,3.56,1.69,8.47-.53,8.85-4.62,.24-1.94-.4-3.89-1.34-5.59-1.79-3.29-5.98-6.25-9.74-4.37h0Zm0,0c3.75-1.93,8,1.02,9.84,4.31,.96,1.7,1.65,3.67,1.42,5.67-.32,4.26-5.45,6.59-9.11,4.77-5.17-2.36-7.58-11.47-2.16-14.75h0Z"/></g><path class="cn" d="M264.81,301.18c-.19-2.49,.55-5.19,2.23-6.28,2.92-1.9,7.63-.53,10.16,3.4,1.23,1.92,2.61,3.8,1.87,7.82,1.57-3.47-.44-7.13-2.62-9.73-2.15-2.57-5.72-4.37-8.78-2.78-2.65,1.38-3.55,5.12-2.86,7.57Z"/><g><path class="dc" d="M274.11,304.84c2.46-.39,3.78-2.96,2.94-5.74-.84-2.78-3.51-4.73-5.98-4.34-2.46,.39-3.78,2.96-2.94,5.74,.84,2.78,3.51,4.73,5.98,4.34Z"/><path class="cg" d="M268.92,298.03c.67,0,1.21-.53,1.22-1.18,0-.64-.53-1.16-1.2-1.15-.67,0-1.21,.53-1.22,1.18,0,.64,.53,1.16,1.2,1.15Z"/></g></g><g><path class="ak" d="M218.37,322.16c-12.44-3.09-7.97,7.3-3.44,12.46,4.81,5.49,10.27,4.93,12.29,.88"/><path class="da" d="M216.15,332.46c2.7,2.72,6.09,3.64,6.76,2.4,.75-1.4-3.83-1.85-4.28-5.41-.3-2.42-3.15-6.07-4.57-4.61-1.48,1.52-1.09,4.42,2.09,7.62Z"/></g><path class="da" d="M256.57,275.34c-1.94,3.28-4.51,6.32-7.81,8.17-6.45,3.61-11.52,3.92-18.9,2.6,4.33-2.33,9.92-6.85,11.15-9.86-4.38-1.22-8.24,.18-12.72,1.08-.33,.07-.28,.63-.34,1.01-1.13,6.98-12.74,7.14-13.94,7.91,6.32,.6,10.02,23.78-.03,29.69-1.53,.9-3.54-2.78-4.77-4.14-1.9-2.08-3.18-4.73-3.65-7.5-.21-1.23-.26-2.49-.68-3.66-.44-1.22-1.27-2.28-1.67-3.52-.71-2.18,0-4.52,.78-6.63,2.01-5.43,4.5-10.7,7.92-15.3,3.43-4.6,7.83-8.51,13.06-10.78,3.83-1.67,8-2.42,12.15-3.08,5.65-.91,11.46-1.67,17.13-.51,2.38,.48,4.69,1.3,6.99,2.11,1.44,.51,2.91,1.03,4.13,1.97,.9,.69,1.63,1.58,2.33,2.47,6.04,7.71,11.98,19.04,14.43,28.51-4.03-5.51-9.6-15.84-13.63-21.35-.81-1.11-9.12-5.01-9.89-4.27-.4,.39-1.5,4.18-2.04,5.09Z"/><path class="s" d="M255.03,267.82s4.57,15.2-24.29,17.95c0,0,24.29-17.68-5.32-9.42,0,0,3.71,4.14-11.41,9.9,0,0,8.74,11.2,3.01,26.5,0,0-1.83,1.89,1.38,8.67,.29,.61,1.35,1.71,2.25,3.69,1.02,2.23-3.74-.84-3.74-.84,0,0-9.88,1.68-13.97-9.9,0,0-11.42-5.31-8.57-17.81,0,0-10.24-12.09,5.84-21.27,0,0-.73-15.57,9.9-18.69,0,0,11.09-15.95,26.9-7.9,0,0,10.46-7.88,22.81,2.57,0,0,12.62,1.62,13.13,11.58,0,0,10.36,1.77,4.87,11.61,0,0,8.82,3.3,2.39,11.85l2.07,9.87-12.09-22.34s-1.23-3.59-15.17-6.02Z"/><path class="bo" d="M261.33,284.07h0c.29-1.2,3.49-1.65,4.71-1.42,1.85,.35,3.98,.96,6,4.74,.17,.32,.26,.6-.05,.38-1.82-1.3-5.6-3.11-8.96-2.52-.82,.14-1.68-.46-1.71-1.19Z"/><path class="bo" d="M241.58,290.1h0c-.83-.91-3.86,.22-4.82,1.01-1.45,1.19-3.02,2.73-2.96,7.01,0,.37,.07,.65,.23,.31,.96-2.01,3.4-5.39,6.63-6.47,.79-.27,1.25-1.2,.92-1.85Z"/><path class="bf" d="M267.18,312.52c3.26,4.24,.06,6.76-4.34,6.96-.51-.02-1.1-.1-1.43-.52,.36,.39,.94,.39,1.43,.38,4.29-.49,7.22-2.45,4.35-6.82h0Z"/><g><ellipse class="cq" cx="249.97" cy="327.23" rx="2.46" ry="1.4" transform="translate(-38.65 33.52) rotate(-7.12)"/><ellipse class="cq" cx="277.16" cy="320.39" rx="2.45" ry="1.4" transform="translate(-140.32 248.41) rotate(-39.35)"/><g><g><path class="cx" d="M268.08,335.05c9.63-3.05,10.96-16.72,9.3-15.53-2.55,1.83,.6,.52-6.89,3.33-1.47,.55-4.54,1.65-6.87,2.27-3.23,.87-7.31,1.68-10.46,2.06-1.48,.17-2.86-.23-3.66,.11-2.04,.89,10.15,10.42,18.57,7.75Z"/><path class="au" d="M268.08,335.05c-1.92,.66-4.02,.54-5.89,.08,.55-1.68,1.65-3.02,3.31-3.91,2.37-1.28,6.46-1.94,8.46-.43-.96,1.91-4.1,3.66-5.87,4.26Z"/><path class="ay" d="M251.18,327.26c11.83-.22,20.03-3.89,26.21-7.74-.81,2.72-4.48,7.44-10.46,9.49-6.48,2.22-12.38,.12-15.75-1.75Z"/></g><path class="ce" d="M249.56,327.24s-.04,.06,0,.06c2.25,.3,14.22,3.58,27.83-7.78,0,0-8.27,6.27-27.83,7.71Z"/><path class="ce" d="M264.35,336.66s3.91,1.2,6.76-1.8c0,0-2.19,4.22-6.76,1.8Z"/></g></g></g><path class="dd" d="M266.24,369.48c-.46,.23-.95,.44-1.45,.63-4.04,1.54-7.87,1.37-8.54-.39-.67-1.76,2.93-2.44,6.97-3.98,5.39,1.39,6.47,3.76,3.02,3.74Z"/></g><g><g><path class="db" d="M376.76,140.46l.02,.57c.02,.36,.05,.87,.12,1.46,.04,.3,.1,.61,.18,.93,.08,.32,.18,.65,.33,.95,.08,.15,.16,.3,.26,.43l.36,.44c.26,.32,.51,.67,.75,1.02,.23,.36,.45,.74,.62,1.13,.17,.4,.31,.82,.37,1.25,.07,.43,.04,.86-.05,1.24-.09,.38-.23,.71-.38,1-.15,.29-.31,.53-.45,.74-.14,.21-.28,.39-.38,.53-.22,.29-.35,.45-.35,.45,0,0,.06-.2,.18-.54,.12-.34,.31-.83,.48-1.39,.08-.28,.14-.59,.17-.9,.02-.31,0-.64-.08-.97-.08-.33-.21-.66-.38-1-.17-.33-.37-.67-.58-1-.22-.33-.45-.65-.68-.96-.12-.17-.24-.3-.37-.51-.12-.2-.22-.4-.3-.6-.15-.41-.23-.8-.26-1.18-.04-.37-.03-.72,0-1.04,.02-.32,.06-.61,.11-.86,.04-.25,.1-.47,.15-.64,.1-.35,.18-.55,.18-.55Z"/><path class="cy" d="M376.83,140.52s-.18,.24-.45,.69c-.13,.23-.27,.51-.41,.83-.14,.33-.25,.71-.32,1.13-.06,.42-.05,.87,.07,1.3,.12,.44,.37,.86,.71,1.23,.34,.38,.79,.69,1.27,.98,.12,.07,.24,.15,.37,.21l.41,.2c.27,.14,.54,.28,.81,.42,.27,.16,.55,.35,.82,.53,.27,.19,.5,.41,.75,.61,.23,.22,.45,.46,.65,.69,.09,.13,.18,.26,.28,.38,.09,.13,.18,.25,.25,.39,.15,.27,.3,.53,.39,.82,.05,.14,.11,.27,.14,.42,.03,.14,.07,.28,.1,.42,.04,.14,.05,.27,.07,.41,.01,.14,.03,.27,.04,.4-.01,.26,0,.52-.03,.76-.03,.24-.05,.47-.11,.68-.05,.21-.1,.41-.17,.59-.06,.18-.12,.35-.2,.5-.07,.15-.13,.29-.21,.41-.07,.12-.13,.22-.19,.31l-.16,.22-.13,.18s-.09,.05-.14,.02c-.04-.03-.05-.08-.03-.12h0l.09-.2c.03-.06,.07-.14,.11-.23l.12-.32c.05-.12,.08-.26,.13-.41,.05-.15,.08-.31,.12-.49,.04-.17,.06-.36,.08-.56,.03-.2,.02-.4,.03-.62,0-.21-.03-.44-.04-.66-.02-.11-.04-.23-.07-.34-.02-.12-.04-.23-.08-.35l-.11-.35c-.04-.12-.1-.23-.15-.34-.06-.11-.09-.23-.17-.34-.07-.11-.13-.22-.2-.33-.06-.12-.15-.22-.23-.32-.08-.1-.17-.21-.25-.32-.09-.1-.19-.19-.29-.29-.1-.1-.19-.2-.3-.29-.22-.17-.43-.37-.66-.52-.24-.15-.46-.31-.72-.45-.27-.14-.54-.29-.8-.43l-.4-.21c-.14-.07-.28-.16-.41-.24-.54-.33-1.04-.74-1.45-1.22-.41-.48-.7-1.06-.81-1.64-.06-.29-.07-.58-.06-.85,.02-.27,.06-.53,.12-.77,.12-.48,.31-.88,.51-1.22,.19-.34,.4-.6,.57-.81,.17-.21,.33-.36,.43-.47,.1-.1,.16-.15,.16-.15,.04-.04,.1-.03,.14,0,.03,.04,.03,.09,0,.12Z"/><path class="b`" d="M376.83,140.52s-.03,.05-.09,.16c-.06,.11-.12,.28-.18,.5-.05,.22-.09,.49-.08,.8,.02,.31,.08,.65,.22,1.01,.14,.35,.34,.72,.6,1.08,.26,.36,.58,.71,.94,1.05,.18,.17,.37,.34,.57,.5,.2,.16,.41,.33,.62,.5,.45,.37,.88,.79,1.23,1.28,.35,.5,.62,1.06,.75,1.66,.14,.6,.13,1.21,.03,1.77-.1,.56-.3,1.07-.53,1.52-.23,.45-.5,.84-.78,1.17-.55,.67-1.11,1.12-1.53,1.39-.42,.28-.71,.36-.71,.36h0c-.05,.02-.11-.01-.12-.06-.01-.04,0-.09,.04-.11,0,0,.06-.03,.16-.11,.1-.07,.24-.19,.41-.35,.34-.32,.79-.83,1.22-1.5,.21-.33,.42-.71,.59-1.12,.17-.41,.3-.86,.36-1.32,.06-.46,.03-.94-.09-1.4-.12-.46-.33-.91-.63-1.31-.29-.41-.64-.78-1.03-1.11-.41-.34-.85-.72-1.21-1.11-.37-.39-.7-.81-.96-1.25-.27-.43-.46-.88-.57-1.32-.12-.44-.14-.86-.1-1.22,.04-.37,.14-.67,.25-.9,.11-.23,.23-.4,.31-.51,.09-.11,.14-.16,.14-.16,.04-.04,.1-.03,.14,0,.03,.03,.03,.08,0,.12Z"/><g><path class="db" d="M457.95,114.45s.18,.11,.47,.34c.14,.11,.31,.26,.5,.44,.19,.18,.39,.39,.59,.63,.2,.25,.41,.53,.6,.85,.19,.32,.36,.69,.47,1.11,.05,.21,.09,.43,.11,.66,.01,.25,0,.43,0,.63,0,.39,0,.79,0,1.18,.02,.39,.05,.78,.11,1.15,.06,.37,.15,.72,.27,1.03,.12,.32,.3,.59,.5,.83,.2,.24,.43,.45,.66,.64,.47,.36,.91,.64,1.2,.85,.3,.21,.46,.34,.46,.34,0,0-.2-.05-.55-.16-.17-.06-.38-.12-.62-.21-.24-.09-.51-.19-.8-.34-.29-.15-.6-.33-.89-.59-.29-.26-.56-.6-.76-.98-.2-.38-.34-.8-.43-1.23-.09-.42-.13-.86-.16-1.28-.02-.43-.01-.85,.01-1.27,.01-.19,.02-.38,.03-.56,0-.16-.02-.33-.04-.5-.06-.33-.16-.66-.28-.97-.12-.31-.26-.6-.4-.86-.28-.53-.56-.96-.75-1.26-.2-.3-.32-.47-.32-.47Z"/><path class="cy" d="M457.97,114.35s.08,0,.22,.03c.14,.02,.36,.06,.62,.13,.26,.07,.58,.17,.94,.33,.35,.16,.74,.37,1.12,.69,.19,.15,.37,.34,.55,.55,.16,.22,.33,.46,.44,.73,.25,.54,.35,1.18,.3,1.8-.05,.63-.22,1.25-.47,1.84-.06,.14-.12,.29-.2,.43l-.21,.4c-.13,.27-.27,.54-.4,.82-.12,.27-.21,.52-.32,.78-.1,.26-.16,.54-.24,.81-.04,.14-.05,.27-.07,.41-.02,.14-.05,.27-.07,.41,0,.13-.01,.27-.02,.4,0,.13-.02,.27,0,.4,.01,.13,.02,.26,.03,.39,0,.13,.05,.25,.06,.38,.03,.12,.04,.25,.08,.37l.11,.35c.03,.12,.08,.22,.13,.33l.15,.32c.12,.19,.22,.4,.35,.57,.13,.17,.25,.34,.39,.48,.13,.15,.26,.29,.39,.41,.13,.12,.25,.23,.38,.33,.12,.1,.23,.19,.34,.26,.11,.07,.2,.14,.29,.19l.22,.13,.19,.11h0s.06,.09,.04,.14c-.02,.04-.07,.06-.11,.04,0,0-.07-.02-.21-.07l-.26-.09c-.1-.04-.21-.09-.34-.15-.13-.05-.26-.13-.4-.21-.15-.08-.3-.18-.45-.29-.16-.11-.32-.24-.49-.38-.17-.14-.32-.31-.49-.49-.17-.18-.3-.39-.46-.6-.07-.11-.13-.23-.2-.35-.07-.12-.14-.24-.19-.37l-.16-.4c-.06-.13-.08-.28-.13-.42-.09-.28-.12-.59-.16-.89-.03-.15-.02-.31-.02-.46v-.47c.04-.31,.07-.63,.13-.94,.08-.31,.15-.62,.26-.93,.12-.3,.23-.62,.36-.91,.14-.27,.28-.54,.42-.81l.21-.4c.07-.12,.12-.26,.18-.38,.22-.51,.4-1.03,.46-1.54,.06-.5,.02-.99-.14-1.42-.15-.43-.41-.8-.7-1.1-.29-.3-.61-.54-.91-.73-.3-.19-.58-.33-.82-.44-.48-.22-.76-.3-.76-.3-.05-.02-.08-.07-.07-.12,.01-.05,.06-.07,.1-.07Z"/><path class="b`" d="M457.97,114.35s.08,.01,.21,.05c.13,.04,.32,.1,.55,.23,.22,.13,.49,.31,.73,.59,.25,.27,.48,.63,.63,1.05,.17,.42,.27,.9,.31,1.4,.04,.51,.02,1.04-.06,1.57-.07,.53-.2,1.09-.34,1.61-.13,.49-.2,1-.2,1.5,0,.5,.08,.99,.25,1.43,.17,.44,.43,.85,.75,1.19,.32,.34,.68,.63,1.06,.87,.38,.23,.76,.42,1.13,.57,.74,.29,1.4,.44,1.87,.51,.23,.03,.42,.05,.54,.05,.12,0,.19,0,.19,0,.05,0,.1,.03,.11,.09,0,.05-.02,.09-.07,.1h0s-.28,.1-.78,.12c-.5,.02-1.22-.02-2.06-.25-.42-.11-.87-.27-1.31-.5-.45-.23-.91-.53-1.31-.93-.4-.4-.77-.89-1-1.46-.23-.56-.35-1.18-.35-1.79,0-.61,.1-1.2,.25-1.76,.07-.26,.14-.51,.21-.76,.07-.25,.12-.49,.17-.74,.09-.49,.15-.96,.15-1.4,0-.44-.04-.86-.14-1.23-.09-.37-.24-.69-.41-.95-.17-.26-.36-.46-.53-.61-.18-.14-.33-.24-.44-.3-.11-.06-.17-.08-.17-.08-.05-.02-.08-.07-.06-.13,.02-.04,.06-.07,.1-.06Z"/></g><path class="cv" d="M442.38,220.33v-.16c0-.11,0-.26,0-.46,.02-.42,.05-1.02,.17-1.78,.11-.76,.31-1.68,.62-2.71,.3-1.03,.73-2.16,1.24-3.37,.5-1.21,1.12-2.47,1.72-3.81,.6-1.34,1.23-2.73,1.63-4.2,.2-.73,.35-1.47,.4-2.21,.02-.37,.02-.74,0-1.11-.03-.37-.09-.73-.18-1.09-.36-1.43-1.23-2.75-2.36-3.89-1.13-1.14-2.47-2.15-3.86-3.04l-.54-.35c-.18-.11-.37-.25-.55-.37-.36-.25-.71-.51-1.05-.78-.68-.54-1.31-1.12-1.9-1.72-1.18-1.2-2.17-2.5-2.94-3.83-.77-1.32-1.36-2.65-1.78-3.91-.42-1.26-.7-2.44-.88-3.49-.17-1.06-.25-1.98-.29-2.75-.03-.76-.01-1.37,0-1.78,.01-.2,.02-.36,.03-.47l.02-.16c.01-.11,.11-.18,.21-.17,.1,.01,.17,.09,.17,.19h0v.16c0,.1,.01,.25,.02,.45,.02,.4,.07,.98,.17,1.72,.1,.74,.26,1.63,.52,2.62,.25,1,.6,2.11,1.08,3.27,.49,1.16,1.1,2.38,1.9,3.57,.8,1.18,1.75,2.36,2.88,3.42,.57,.53,1.17,1.03,1.81,1.51,.32,.23,.65,.47,.99,.69,.17,.11,.32,.21,.51,.32l.54,.32c1.5,.88,2.99,1.89,4.3,3.19,.66,.64,1.26,1.36,1.77,2.17,.26,.4,.48,.83,.67,1.26,.19,.44,.34,.9,.46,1.36,.11,.47,.18,.94,.22,1.41,.03,.47,.02,.94-.01,1.4-.04,.46-.11,.91-.2,1.34-.09,.43-.21,.86-.34,1.26-.53,1.63-1.23,3.08-1.92,4.4-.7,1.3-1.35,2.54-1.96,3.67-.6,1.13-1.09,2.18-1.5,3.13-.4,.95-.69,1.8-.9,2.51-.21,.71-.33,1.28-.41,1.67l-.11,.61c-.02,.11-.12,.18-.23,.16-.09-.02-.16-.1-.16-.19Z"/><path class="dh" d="M432.47,172.35s-.04,.22-.09,.64c-.06,.42-.12,1.04-.19,1.83-.06,.79-.12,1.75-.12,2.84,0,1.1,.02,2.33,.16,3.66,.14,1.33,.35,2.76,.74,4.22,.2,.73,.42,1.47,.7,2.21,.28,.73,.6,1.47,.99,2.18,.39,.71,.82,1.41,1.31,2.08,.24,.33,.51,.66,.78,.97l.22,.25,.21,.23c.13,.15,.29,.3,.43,.45,1.2,1.19,2.61,2.21,4.14,3.1,1.53,.9,3.17,1.68,4.76,2.57,1.6,.88,3.16,1.87,4.53,3.03,1.36,1.17,2.5,2.49,3.41,3.84,.91,1.35,1.58,2.74,2.11,4.03,.53,1.3,.9,2.52,1.19,3.61,.29,1.09,.48,2.05,.63,2.84,.08,.39,.13,.75,.18,1.06,.05,.31,.09,.57,.12,.78,.06,.43,.09,.65,.09,.65,.01,.11-.06,.2-.17,.22-.1,.01-.19-.05-.21-.14h0s-.06-.22-.17-.64c-.11-.41-.27-1.02-.49-1.78-.22-.76-.51-1.68-.88-2.71-.36-1.04-.84-2.18-1.42-3.38-.58-1.2-1.31-2.45-2.21-3.66-.9-1.21-1.99-2.36-3.28-3.37-1.28-1.02-2.74-1.9-4.31-2.71-1.57-.81-3.23-1.59-4.86-2.53-.81-.47-1.62-.98-2.39-1.55-.77-.56-1.49-1.19-2.17-1.86-.17-.17-.33-.34-.5-.52l-.24-.27-.22-.25c-.31-.37-.59-.73-.86-1.12-.54-.76-1.01-1.55-1.41-2.36-.79-1.62-1.33-3.27-1.66-4.86-.32-1.59-.48-3.12-.5-4.52-.02-1.4,.04-2.68,.17-3.8,.12-1.12,.29-2.09,.45-2.88,.16-.79,.33-1.41,.45-1.82,.12-.42,.2-.64,.2-.64,.04-.1,.15-.15,.25-.12,.09,.03,.14,.12,.13,.21Z"/><path class="db" d="M432.1,171.97v.04l.02,.13c.02,.11,.05,.28,.1,.5,.1,.44,.3,1.07,.64,1.84,.34,.77,.84,1.66,1.53,2.6,.7,.93,1.59,1.9,2.68,2.83,1.09,.92,2.39,1.8,3.83,2.6,.71,.39,1.51,.76,2.33,1.27,.8,.49,1.58,1.07,2.3,1.76,.72,.69,1.38,1.5,1.9,2.42,.52,.92,.88,1.95,1.06,3.01,.19,1.06,.2,2.13,.11,3.17-.09,1.05-.28,2.07-.52,3.06-.5,1.98-1.19,3.86-1.78,5.68-.29,.91-.57,1.81-.78,2.69-.1,.44-.19,.88-.25,1.31-.03,.21-.05,.43-.07,.64v.08s0-.03,0,0v.24l-.02,.35v.66c0,.21,0,.42,.01,.64l.04,.64c.02,.21,.05,.42,.07,.63,.11,.83,.3,1.61,.58,2.34,.56,1.46,1.46,2.67,2.51,3.6,1.05,.93,2.18,1.63,3.22,2.21,1.04,.57,1.97,1.05,2.74,1.45,.77,.4,1.37,.73,1.77,.96,.4,.23,.62,.36,.62,.36,.09,.05,.12,.17,.07,.27-.05,.09-.16,.12-.24,.08h0l-.65-.28c-.42-.18-1.06-.42-1.86-.75-.8-.32-1.79-.69-2.9-1.2-1.11-.51-2.37-1.13-3.6-2.1-.61-.48-1.22-1.05-1.76-1.72-.54-.67-1.01-1.44-1.38-2.28-.37-.84-.63-1.74-.8-2.68-.04-.23-.07-.47-.11-.7-.03-.24-.05-.47-.07-.71-.03-.24-.03-.49-.04-.73v-1.45c0-.26,.02-.51,.05-.76,.05-.5,.14-1,.24-1.49,.2-.98,.47-1.93,.77-2.87,.59-1.88,1.24-3.72,1.69-5.58,.46-1.84,.72-3.71,.43-5.44-.14-.86-.42-1.68-.81-2.43-.4-.75-.91-1.43-1.51-2.04-.6-.61-1.27-1.13-1.97-1.61-.68-.47-1.44-.88-2.2-1.33-.74-.46-1.45-.94-2.11-1.44-.65-.51-1.26-1.02-1.81-1.56-.55-.54-1.05-1.07-1.49-1.62-.43-.55-.82-1.09-1.15-1.62-.66-1.06-1.09-2.06-1.36-2.91-.28-.85-.39-1.54-.44-2.01-.05-.47-.04-.74-.04-.74,0-.11,.1-.19,.2-.19,.1,0,.17,.08,.18,.17h0Z"/><rect class="bi" x="386.83" y="96.78" width="61.25" height="61.28" transform="translate(113.07 440.24) rotate(-62.76)"/><g class="ba"><path class="cr" d="M425.44,102.38c3.58,11.14,1.09,22.77-5.62,31.34-.16,.21-.33,.41-.49,.61-4.01,4.88-9.42,8.7-15.89,10.77-5.52,1.77-11.17,2.06-16.5,1.08l-10.76-5.53,28.04-54.45,18.15,9.33c1.25,2.12,2.28,4.42,3.07,6.86Z"/></g><g class="cm"><path class="bv" d="M417.82,127.45c.67,2.1,1.34,4.19,2,6.27,.97,3.05,1.93,6.05,2.85,8.94,1.53,4.86,2.97,9.39,4.19,13.28,1.21,3.89,2.22,7.13,2.93,9.4,.47,1.54,.81,2.63,.98,3.17,.08,.26,.12,.4,.12,.4l-.21,.07-.13-.4c-.18-.54-.54-1.62-1.05-3.15-.75-2.26-1.81-5.48-3.09-9.35-1.26-3.87-2.74-8.39-4.32-13.24-.89-2.75-1.81-5.61-2.75-8.52-.71-2.21-1.43-4.44-2.16-6.67-1.65-5.18-3.3-10.36-4.85-15.21-1.53-4.86-2.96-9.39-4.19-13.28-1.21-3.89-2.22-7.13-2.93-9.4-.56-1.83-.93-3.03-1.05-3.43l.07-.14,.14,.07c.13,.39,.53,1.58,1.14,3.4,.75,2.26,1.81,5.48,3.09,9.35,1.27,3.87,2.74,8.4,4.32,13.24,1.57,4.85,3.24,10.02,4.91,15.19Z"/><path class="cb" d="M458.73,114.2l-.38,.74c-29.65-8.34-62.14,2.07-81.39,26.1l-.77-.4,1.55-3.01c9.37-10.76,21.59-18.75,35.58-23.23,13.93-4.46,28.47-5.07,42.3-1.81l3.12,1.61Z"/></g><polygon class="bi" points="424.87 176.42 430.42 167.72 440 171.57 424.87 176.42"/></g><path class="aa" d="M414.54,118.11s16.85,154.11-82.01,214.43"/><path class="aa" d="M340.24,349.1s20.83,66.28,2.67,37.59c-6.29-9.94-13.57-.75-13.57-.75"/><path class="aa" d="M320.6,399.27s-13.79,43.01,4.91,82.27c8.31,17.45-4.32,59.04-36.55,55.02-32.22-4.02-82.32,2.32-82.32,2.32"/></g></g><g><path class="y" d="M453.31,369.12l-6.45,.54s-3.76-2.9-11.18-6.44c-7.42-3.54-18.56-8.26-21.36-13.74l-5.8,7.99s1.83,2.85,4.81,5.44c6.82,5.94,19.64,16.09,30.09,18.45,0,0,6.88,3.65,18.38-.86"/><g><path class="y" d="M409.39,358.67c-7.52-.21-12.37-3.29-17.32-6.84-4.94-3.54-2.58-4.4-2.58-4.4l-1.83-1.5c-3.65-2.79-2.26-4.19-2.26-4.19-1.29-2.9,.64-2.58,.64-2.58-1.83-3.33,.54-2.58,.54-2.58,2.36,2.36,9.24,5.8,12.68,7.52,3.44,1.72,9.03,.86,9.03,.86,0,0,5.05,.98,5.83,5.86"/><path class="y" d="M385.73,338.3s4.84,5.58,12.47,8.16"/><path class="y" d="M385.33,341.45s3.52,4.16,12.12,7.6"/><path class="y" d="M388.95,347.08s3.68,2.68,7.66,3.86"/><path class="y" d="M414.53,351.4s.11-4.19-3.55-8.16c-3.65-3.97-8.49-5.9-10.32-9.13,0,0-3.01,.97,2.69,7.62,0,0,2.36,1.61,2.36,3.76,0,2.15-.43,3.97,2.15,6.87"/><path class="y" d="M400.08,344.5s-4.19,2.9-2.9,9.58"/></g><path class="an" d="M477.81,367.08l-27.19,1.61s3.12,1.5,4.19,7.3c1.07,5.8,.11,8.31,.11,8.31l19.88-3.59"/><g><g><g><path class="x" d="M490.78,272.18c-.39-4.67-3.97-8.67,3.12-8.2,7.08,.48,13.53,9.32,13.53,9.32,0,0-5.03,8.07-12.11,7.59-7.08-.48-4.15-4.04-4.54-8.71Z"/><path class="x" d="M524.37,274.44c-.39-4.67,2.54-8.24-4.54-8.71-7.08-.48-12.11,7.59-12.11,7.59,0,0,6.45,8.84,13.53,9.32,7.08,.48,3.51-3.53,3.12-8.2Z"/></g><ellipse class="bb" cx="519.78" cy="279.13" rx=".95" ry="1.12" transform="translate(.5 559.2) rotate(-56.58)"/><ellipse class="bb" cx="515.32" cy="277.24" rx=".95" ry="1.12" transform="translate(.08 554.63) rotate(-56.58)"/><ellipse class="bb" cx="519.27" cy="273.1" rx=".95" ry="1.12" transform="translate(5.31 556.06) rotate(-56.58)"/><path class="bb" d="M513.75,270.73c-.05-.56,.39-.97,.99-.93s1.11,.52,1.16,1.08c.05,.56-.4,.97-.99,.93s-1.11-.52-1.16-1.08Z"/><ellipse class="bb" cx="518.93" cy="269.08" rx=".95" ry="1.12" transform="translate(8.51 553.98) rotate(-56.58)"/><path class="bb" d="M512.11,276.61c-.05-.56-.56-1.04-1.16-1.08-.31-.02-.57,.08-.75,.27,.46,.49,.99,1.02,1.57,1.57,.23-.17,.37-.44,.34-.76Z"/><path class="bb" d="M515.58,279.85c-.21-.01-.4,.03-.55,.12,.55,.36,1.12,.7,1.71,1,0-.01,0-.02,0-.04-.05-.56-.56-1.04-1.16-1.08Z"/><path class="bb" d="M515.55,266.85h0c-.54,.2-1.05,.46-1.54,.75,.17,.1,.36,.17,.56,.18,.59,.04,1.03-.38,.99-.93Z"/><path class="bb" d="M510.62,271.52c.59,.04,1.03-.38,.99-.93-.03-.31-.2-.6-.46-.8-.5,.47-.94,.94-1.32,1.37,.21,.2,.49,.34,.79,.36Z"/><path class="bb" d="M522.82,277.33c.05,.56,.56,1.04,1.16,1.08,.34,.02,.62-.1,.8-.32-.13-.48-.27-.98-.4-1.51-.17-.1-.36-.17-.56-.18-.59-.04-1.03,.38-.99,.93Z"/><path class="bb" d="M524.15,280.42c-.59-.04-1.03,.38-.99,.93,.03,.3,.19,.57,.42,.77,.89-.2,1.33-.61,1.51-1.17-.21-.3-.56-.51-.95-.53Z"/><path class="bb" d="M523.3,270.37c-.59-.04-1.03,.38-.99,.93,.05,.56,.56,1.04,1.16,1.08,.2,.01,.39-.03,.54-.11,.04-.51,.1-1,.15-1.46-.22-.24-.53-.41-.86-.43Z"/><path class="bb" d="M521.98,267.28c.05,.56,.56,1.04,1.16,1.08,.38,.03,.69-.14,.86-.4-.27-.59-.8-1.06-1.74-1.38-.19,.17-.3,.42-.28,.71Z"/><ellipse class="bb" cx="496.22" cy="277.54" rx=".95" ry="1.12" transform="translate(-8.75 538.82) rotate(-56.58)"/><ellipse class="bb" cx="500.34" cy="275.82" rx=".95" ry="1.12" transform="translate(-5.47 541.48) rotate(-56.58)"/><ellipse class="bb" cx="495.71" cy="271.51" rx=".95" ry="1.12" transform="translate(-3.95 535.69) rotate(-56.58)"/><path class="bb" d="M500.9,269.86c-.05-.56-.56-1.04-1.16-1.08-.59-.04-1.03,.38-.99,.93s.56,1.04,1.16,1.08c.59,.04,1.03-.38,.99-.93Z"/><ellipse class="bb" cx="495.38" cy="267.49" rx=".95" ry="1.12" transform="translate(-.74 533.6) rotate(-56.58)"/><path class="bb" d="M503.55,276.04c-.05-.56,.4-.97,.99-.93,.31,.02,.59,.16,.81,.37-.38,.43-.82,.9-1.32,1.37-.26-.2-.45-.49-.47-.81Z"/><path class="bb" d="M500.59,278.84c.21,.01,.41,.09,.58,.19-.49,.29-1.01,.56-1.56,.78,0-.01,0-.02,0-.04-.05-.56,.4-.97,.99-.93Z"/><path class="bb" d="M498.42,265.7s0,0,0-.01c.58,.29,1.14,.63,1.69,.98-.15,.08-.33,.12-.53,.11-.59-.04-1.11-.52-1.16-1.08Z"/><path class="bb" d="M504.2,271.08c-.59-.04-1.11-.52-1.16-1.08-.03-.31,.11-.58,.33-.75,.58,.54,1.11,1.07,1.57,1.57-.18,.18-.44,.28-.74,.26Z"/><path class="bb" d="M492.84,275.32c.05,.56-.39,.97-.99,.93-.34-.02-.64-.19-.86-.43,.05-.47,.11-.96,.15-1.47,.15-.08,.34-.12,.54-.11,.59,.04,1.11,.52,1.16,1.08Z"/><path class="bb" d="M492.02,278.26c.59,.04,1.11,.52,1.16,1.08,.03,.3-.09,.55-.3,.72-.93-.32-1.45-.8-1.72-1.39,.17-.27,.48-.44,.87-.41Z"/><path class="bb" d="M491.18,268.21c.59,.04,1.11,.52,1.16,1.08s-.39,.97-.99,.93c-.2-.01-.4-.08-.57-.19-.13-.52-.27-1.03-.4-1.5,.18-.22,.46-.34,.8-.32Z"/><path class="bb" d="M491.99,265.26c.05,.56-.39,.97-.99,.93-.38-.03-.73-.23-.94-.52,.18-.56,.63-.96,1.52-1.16,.22,.2,.38,.46,.4,.75Z"/></g><g><g><g><path class="bd" d="M519.07,276.07c.29-1.77-7.09-1.97-7.09-1.97,0,0,6.8,3.74,7.09,1.97Z"/><path class="bd" d="M517.15,271.76c-.46-1.22-5.57,1.13-5.57,1.13,0,0,6.03,.09,5.57-1.13Z"/></g><g><path class="bd" d="M496.42,274.55c-.59-1.83,6.84-1.03,6.84-1.03,0,0-6.24,2.86-6.84,1.03Z"/><path class="bd" d="M497.63,270.44c.26-1.17,5.82,1.9,5.82,1.9,0,0-6.08-.73-5.82-1.9Z"/></g></g><path class="q" d="M510.69,272.31c-.08-.99-1-1.84-2.05-1.91l-2.62-.18c-1.05-.07-1.83,.67-1.75,1.66l.21,2.46c.08,.99,1,1.84,2.05,1.91l2.62,.18c1.05,.07,1.83-.67,1.75-1.66l-.21-2.46Z"/></g></g><g><path class="ai" d="M474.27,339.26s-8.95,14.36,.03,20.64c3.52,2.46,12.59,1.27,13.48-1.06s5.16-7.26,4.97-9.28c-.19-2.02-18.47-10.31-18.47-10.31Z"/><g id="h"><path class="n" d="M488.8,349.99l-3.44,8.8-1.41,5.17s12.56,3.73,17.48-3.93l2.86-12.24-15.49,2.2Z"/><path class="ca" d="M486.74,356.07s13.36,1.13,15.37-1.08l1.08-3.75-14.52-.46-1.92,5.29Z"/><path class="y" d="M496.98,285.34c-7.94,1.91-14.32,7.74-17.24,15.42-.49,1.3-.82,3.66-1.68,4.91-6.07,8.88-13.73,21.79-2.1,40.43,7.4,11.87,22.78,10.64,32.7,8.44,12.28-2.73,16.21-13.12,16.21-13.12,0,0,11.74,3.01,7.01-1.93-4.73-4.95-2.4,.33-2.4,.33l.3-2.3s-7.26-13.03-7.5-33.26c0,0-4.53-16.1-3.96-20.53,0,0-6.72-1.96-14.13-.05-2.31,.6-4.74,1.08-7.21,1.68Z"/></g><path class="ca" d="M506.15,285.13s-10.34,16.76,15.15,23.13c0,0-16.2-11.24-13.49-23.14"/><path class="dg" d="M520.25,281.53s-5-1.48,.72,17.76l1.31,4.96s.09,6.57,.85,11.05c.76,4.48,3.03,16.33,6.65,22.21l-.3,2.3s4.08-5.03,8.43-1.81c4.36,3.22-3.66,.71-7.86,4.47-3.08,2.76-4.66,15.74-8.89,4.91,0,0-8.07,7.09-14.88,7.47l-4.12,.51-.86,2.86s1.07,5.81,5.63,14.16c0,0,14.26,25.92,37.05,6.11,2.7-2.35,32.23-81.61,.56-96.12,0,0-12.01-8.74-24.84-9.16-12.83-.42-16.9-7.24-31.63,3.54,0,0-14.96,13.9-10.76,28.45l7.12-12.26s7.06-7.3,21.97-9.74c0,0,9.14-.76,11.93,.51,0,0,.46-2.37,1.92-2.18Z"/><path class="p" d="M519.95,273.24s17.2,3.55,22.25,14.68c5.23,11.53,3.42,22.16-6.39,49.72l1.88,2.6s28.5-49.17-4.04-63.72c0,0-6.4-2.6-13.7-3.28Z"/><path class="dg" d="M509.06,283.05s-12.9,21.21,17.27,25.88c0,0-11.55-8.9-8.01-25.21,0,0-3.55-.7-5-.72"/></g><g><g><g><path class="y" d="M528.77,334.97c3.65-2.27,6.26-1.69,8.13-.3,2.42,1.8,2.42,4.95-.3,8.98-2.71,4.02-4.79,5.76-9.35,6.65-4.55,.89-6.92,1.29-9.13-2.8"/><path class="cj" d="M519.74,346.51c.34,.37,.89,.49,1.37,.55,.5,.06,.99,.1,1.49,.07,1.01-.04,2.04-.42,2.82-1.09,.78-.66,1.35-1.61,1.53-2.62,.11-.59,.11-1.19-.01-1.75,.34-.21,.69-.4,1.03-.58,.93-.49,1.87-.93,2.84-1.31,.97-.38,1.94-.81,2.93-.7,.49,.05,.92,.3,1.23,.69,.31,.39,.48,.94,.25,1.43,.33-.45,.26-1.1-.05-1.57-.28-.48-.82-.84-1.38-.93-1.14-.21-2.2,.24-3.18,.61-.98,.4-1.94,.89-2.84,1.45-.31,.2-.61,.4-.91,.61-.05,.03-.1,.07-.15,.11,0,.1,.02,.2,.02,.31,.03,.53-.03,1.05-.17,1.55-.24,.92-.77,1.73-1.49,2.32-.71,.61-1.59,.99-2.53,1.1-.47,.06-.95,.07-1.43,.07-.48,0-.97-.02-1.39-.31Zm8.24,.9c-1.04,.17-2.11,.2-3.18,.26,1.06,.14,2.14,.22,3.23,.12,1.08-.1,2.19-.4,3.11-1.07,.92-.67,1.54-1.66,1.92-2.69,.39-1.03,.57-2.11,.69-3.18-.31,1.03-.6,2.07-1.04,3.03-.43,.96-1.04,1.83-1.87,2.42-.82,.61-1.83,.93-2.86,1.1Z"/></g><path class="aq" d="M523.79,348.46s-5.78,4.38-2.86,7.16c2.91,2.77,5.19-4.29,5.19-4.29,0,0-3.71,5.03-3.02,1.08l.69-3.95Z"/></g><g><ellipse class="af" cx="486.61" cy="308.94" rx="6.88" ry="6.27" transform="translate(120.54 754.17) rotate(-82.98)"/><ellipse class="t" cx="485.95" cy="307.5" rx="3.95" ry="3.83" transform="translate(127.55 757.23) rotate(-83.77)"/><ellipse class="bn" cx="487.43" cy="304.36" rx=".81" ry=".78" transform="translate(132 755.9) rotate(-83.77)"/></g><g><ellipse class="af" cx="507.61" cy="320.18" rx="6.88" ry="6.67" transform="translate(134.26 790.07) rotate(-83.77)"/><ellipse class="t" cx="506.41" cy="318.86" rx="4.35" ry="4.21" transform="translate(134.51 787.7) rotate(-83.77)"/><ellipse class="bn" cx="508.04" cy="315.54" rx=".81" ry=".78" transform="translate(139.26 786.36) rotate(-83.77)"/></g><path class="be" d="M494.59,297.98s-4.39-3.86-9.75-.29c0,0,.38-2.91,5.82-3.35,0,0,3.82,.09,3.93,3.64Z"/><path class="be" d="M511.92,307.31s5.82,.52,6.52,7.02c0,0,2-2.34-1.17-6.69,0,0-2.54-2.77-5.35-.34Z"/><path class="bt" d="M498.69,334.06s-8.07,7.04-14.39,5.39c-8.56-2.24-5.03-13.71-5.03-13.71l7.63,5.62,11.78,2.7Z"/><path class="by" d="M498.69,334.06s-8.39,5.49-15.02,2.66c-4.74-2.02-4.25-11.46-4.25-11.46,0,0,6.09,8.07,19.27,8.8Z"/><path class="y" d="M492.34,313.49s-.77,3.12-5.26,4.52c-4.48,1.4-3.41,7.36,3.34,6.51"/><path class="bn" d="M480.98,327.12h0c-.6,2.17-.07,4.8,3.63,6.61,3.02,1.47,8.86,2.77,12.27,.68,.99-.61-.53-.36-.53-.36,0,0-11.89-2.51-14.92-6.62"/><path class="bt" d="M498.02,334.18s-14.96-3.2-19.62-10.87c0,0,2.33,10.47,19.62,10.87Z"/><path class="ca" d="M499.1,332.46s3.05,1.14,.39,3.64c0,0,1.31-1.56-.39-3.64Z"/><path class="ca" d="M479.69,322.57s-1.69,.36-1.32,3.21c0,0-1.65-3.11,1.32-3.21Z"/><path class="ca" d="M489.23,337.45s-.59-1.81-3.81-2.23c0,0-1.31-1.91-4.47-1.58,0,0,.89,4.49,8.28,3.81Z"/></g><g><path class="n" d="M461.87,480.34s7.06,32.39,8.91,35.2c1.85,2.82,9.73,6.57,14.99,5.95,0,0-3.81-33.27-6.08-38.54-2.27-5.27-17.82-2.61-17.82-2.61Z"/><path class="n" d="M485.76,484.14s6.8,29.02,7.88,33.19c1.08,4.17,13.44,6.33,18.08,4.94,0,0-7.54-35.19-9.73-39.05s-16.22,.92-16.22,.92Z"/><path class="ca" d="M486.02,484.69s6.42,1.52,8.6,1.9c5.09,.9,8.96,.27,8.96,.27,0,0-.41-2.6-1.1-3.11-.99-.73-17.23-2.31-17.23-2.31l.77,3.24Z"/><path class="ca" d="M462.64,482.92s6.42,1.52,8.6,1.9c5.09,.9,8.96,.27,8.96,.27,0,0-.41-2.6-1.1-3.11-.99-.73-17.23-2.31-17.23-2.31l.77,3.24Z"/></g><path class="ap" d="M450.54,422.41l-25.95,39.76s-1.34,13.18,51.28,20.79c52.63,7.61,49.94-19.75,49.94-19.75,0,0-23.62-24.85-24.76-33.08,0,0-43.62-1.34-50.52-7.72"/><path class="an" d="M485.82,357.19l-3.11,.45c-5.73,.91-12.09,4.24-16.56,9.88l-.1,.13,.71,1.57-5.4,9.36s-7.56,14.73-12.05,42.9c0,0,13.33,10.57,52.27,4.7,0,0,5.67-18.59,6.75-22.76,1.08-4.17,10.97-32.72-3.4-43.21l-3.09-1.88s0,6.53-11.02,6.53c-8.46,0-6.04-5.26-6.04-5.26l1.06-2.42Z"/><line class="ae" x1="461.35" y1="378.58" x2="474.33" y2="374.6"/><polygon class="cw" points="456.26 427.98 444.36 452.61 457.81 428.67 456.26 427.98"/><polygon class="cw" points="470.88 430.49 464.13 458.16 472.35 430.82 470.88 430.49"/><polygon class="cw" points="480.72 431.43 479.48 460.84 481.95 431.54 480.72 431.43"/><path class="cw" d="M490.6,431.71l10.4,29.54s-8.34-27.8-8.14-29.54h-2.27Z"/><path class="am" d="M475.05,372.46s.82,1.29,.51,2.88"/><path class="am" d="M445.29,342.31s2.99,.87,5.82-.67"/><path class="ad" d="M449.15,417.63s13.16,11.73,53.48,6.02l-1.73,7.1s-32.91,7.95-51.91-5.86c0,0-1.85-3.4,.15-7.25Z"/><g><path class="aj" d="M467.43,504.1s7.78,2.64,16.06-1.37l2.64,18.89s-12.21,1.25-14.77-2.55l-3.92-14.97Z"/><path class="r" d="M462.71,521.29s.51-5.66,5.87-5.35,9.27-1.34,11.23,1.54c1.96,2.88-.18,4.53,6.31,2.78l-.13-2.26s3.3-1.03,4.02,1.13c.72,2.16,.93,6.48,1.96,8.64,1.03,2.16,1.34,3.5,0,4.01-1.34,.51-21.01,10.91-38.42,4.53,0,0-10.4-12.96,9.17-15.02Z"/><path class="r" d="M458.44,522.01s8.81-1.14,12.31,6.89c0,0,.91,1.75,1.07,4.32"/><path class="ag" d="M492.27,528.39s-13.9,6.07-19.77,7.2c-5.87,1.13-20.04-.83-20.42-1.63-.38-.8,1.47,2.35,1.47,2.35,0,0,7.75,3.05,18.6,1.63,10.85-1.42,19.81-6.15,19.81-6.15,0,0,2.06-.62,.31-3.4Z"/><path class="ag" d="M462.71,521.29s7.3-.82,9.11,3.5-3.08,.95-3.08,.95c0,0-2.63-4.24-9.22-3.78,0,0,.41-1.39,3.19-.67Z"/><path class="ag" d="M463.21,519.39s6.4-.98,8.16,2.11c1.75,3.09,0,2.47,0,2.47,0,0-1.85-3.08-8.65-2.67l.5-1.9Z"/><path class="aj" d="M466.3,499.47s11.7,2.29,16.37-.97l.67,2.95s-11.58,2.25-16.41,.8l-.63-2.78Z"/></g><g><path class="aj" d="M491.02,506.45s8.13,2.64,16.78-1.37l4.53,18.55s-14.99,1.08-17.67-2.73l-3.65-14.45Z"/><path class="r" d="M488.23,523.29s.51-5.66,5.87-5.35c5.36,.31,9.27-1.34,11.23,1.54,1.96,2.88-.18,4.53,6.31,2.78l-.13-2.26s3.3-1.03,4.02,1.13,.93,6.48,1.96,8.64c1.03,2.16,1.34,3.5,0,4.01-1.34,.51-21.01,10.91-38.42,4.53,0,0-10.4-12.96,9.17-15.02Z"/><path class="r" d="M483.96,524.02s8.81-1.14,12.31,6.89c0,0,.91,1.75,1.07,4.32"/><path class="ag" d="M517.79,530.39s-13.9,6.07-19.77,7.2c-5.87,1.13-20.04-.83-20.42-1.63-.38-.8,1.47,2.35,1.47,2.35,0,0,7.75,3.05,18.6,1.63,10.85-1.42,19.81-6.15,19.81-6.15,0,0,2.06-.62,.31-3.4Z"/><path class="ag" d="M488.23,523.29s7.3-.82,9.11,3.5c1.81,4.32-3.08,.95-3.08,.95,0,0-2.63-4.24-9.22-3.78,0,0,.41-1.39,3.19-.67Z"/><path class="ag" d="M488.73,521.39s6.4-.98,8.16,2.11c1.75,3.09,0,2.47,0,2.47,0,0-1.85-3.08-8.65-2.67l.5-1.9Z"/><path class="aj" d="M489.9,501.74s12.12,2.29,16.97-.97l.69,2.95s-12,2.25-17,.8l-.66-2.78Z"/></g><g><path class="ab" d="M456.76,395.27c-.07,.29-.12,.59-.14,.88-.05,.75,.06,1.48,.33,2.09,.4,.9,2.41,2.07,3.31,1.1-1.04,1.13-1.85,1.46-2.23,3.34-.12,.6-.16,1.21-.12,1.8,.02,.3,.06,.59,.11,.87,.11,.54,.27,1.04,.5,1.47,.16,.3,.34,.56,.54,.76,.15,.15,.3,.27,.46,.37,1.83,1.1,4.63-.91,5.65-4-.18,.54,.47,2.17,.69,2.51,.57,.88,1.36,1.52,2.27,1.66,.28,.04,.57,.04,.86-.01,.23-.04,.47-.12,.71-.23,.75-.34,1.34-1.05,1.81-1.9h0c.1-.18,.2-.37,.29-.56,.04-.08,.08-.16,.11-.25,1.18-2.72,.66-5.81-1.44-6.27,1.77-.83,3.48-2.06,3.92-3.87,.06-.26,.1-.54,.1-.83,.01-.6-.11-1.25-.4-1.97-.1-.25-.21-.47-.34-.65-.15-.23-.33-.42-.51-.57-1.07-.86-2.61-.38-3.87,1.05,1-1.59,1.18-4.38,.58-5.73-.25-.56-.67-.98-1.18-1.26-.23-.13-.48-.22-.73-.29h0c-.66-.17-1.39-.15-2.06,.08-.22,.07-.42,.17-.62,.29-.11,.06-.21,.13-.31,.21-2.42,1.88-2.17,5.47-1.8,8.03-.91-2.03-3.47-2.37-5.2-.55-.2,.21-.38,.44-.55,.71-.03,.05-.06,.1-.09,.14-.3,.49-.51,1.03-.64,1.57Z"/><path class="cl" d="M462.24,399.4c-.39-2.42,.61-5.54,3.14-6.52,2.28-.88,4.09,.96,4,3.89-.09,2.7-1.79,5.5-3.9,5.72-1.84,.19-2.94-1.25-3.24-3.09Z"/><path class="df" d="M462.77,399.13c-.33-2.06,.52-4.7,2.67-5.54,1.93-.75,3.48,.82,3.39,3.31-.08,2.3-1.52,4.68-3.31,4.86-1.56,.16-2.5-1.07-2.75-2.63Z"/></g><g><g><path class="av" d="M363.58,336.82l-.02-.05s-.03-.08-.05-.14c-.05-.13-.13-.31-.26-.54-.12-.22-.29-.49-.5-.77-.21-.29-.47-.59-.77-.91-.29-.32-.63-.65-.97-1-.34-.35-.69-.71-.98-1.13-.15-.21-.27-.42-.37-.65-.05-.11-.09-.23-.12-.35-.03-.12-.05-.24-.07-.36-.05-.49,.07-1,.3-1.48,.22-.48,.53-.95,.86-1.38l.13-.17c.04-.05,.09-.12,.13-.18,.08-.12,.17-.24,.24-.36,.15-.25,.28-.5,.4-.75,.23-.51,.39-1.03,.48-1.53,.09-.5,.13-.98,.12-1.42-.01-.44-.06-.84-.12-1.19-.07-.35-.15-.65-.22-.89-.08-.24-.15-.43-.2-.55-.03-.06-.05-.11-.06-.14l-.02-.05s-.05-.05-.09-.03c-.03,.01-.04,.05-.03,.08h0l.02,.05s.03,.08,.04,.14c.04,.13,.09,.31,.14,.56,.05,.24,.1,.54,.14,.88,.04,.34,.05,.73,.03,1.14-.02,.42-.07,.87-.19,1.33-.12,.46-.28,.93-.51,1.39-.12,.23-.25,.45-.4,.67-.07,.11-.15,.22-.23,.33-.04,.05-.08,.1-.12,.16l-.13,.16c-.37,.44-.72,.93-.98,1.48-.13,.28-.24,.57-.31,.88-.04,.15-.06,.31-.07,.47,0,.16,0,.32,.01,.48,.02,.16,.05,.31,.09,.47,.04,.15,.1,.3,.16,.44,.06,.14,.14,.27,.21,.4,.08,.12,.16,.24,.25,.36,.35,.45,.73,.82,1.1,1.16l1.03,.93c.31,.29,.59,.56,.82,.81,.23,.25,.42,.48,.56,.68,.14,.2,.25,.36,.32,.47l.1,.18s.06,.04,.09,.02c.03-.02,.04-.05,.03-.08Z"/><path class="cp" d="M361.25,320.72s.04,.06,.1,.19c.06,.13,.16,.31,.27,.55,.11,.24,.23,.53,.36,.87,.12,.34,.26,.73,.36,1.16,.11,.43,.2,.9,.25,1.4,.02,.25,.03,.51,.03,.77,0,.26-.02,.53-.06,.79-.04,.27-.1,.53-.17,.8-.04,.13-.08,.26-.13,.39l-.04,.1-.04,.09c-.03,.06-.06,.13-.08,.19-.24,.51-.57,.98-.94,1.44-.38,.45-.8,.88-1.2,1.34-.4,.46-.78,.94-1.07,1.46-.29,.52-.5,1.06-.63,1.58-.13,.52-.18,1.03-.2,1.5-.02,.46,0,.89,.04,1.26,.03,.37,.08,.69,.12,.96,.02,.13,.04,.25,.06,.35,.02,.1,.04,.19,.05,.26l.05,.21s.04,.06,.08,.05c.03,0,.05-.04,.05-.07h0l-.02-.22c-.01-.14-.03-.35-.05-.61-.02-.26-.03-.58-.03-.95,0-.36,.02-.77,.06-1.22,.05-.44,.13-.91,.28-1.39,.14-.48,.36-.96,.64-1.42,.28-.46,.64-.9,1.04-1.33,.4-.43,.83-.86,1.23-1.34,.2-.24,.39-.49,.57-.75,.18-.26,.33-.54,.47-.83,.03-.07,.07-.14,.1-.22l.05-.11,.04-.1c.06-.15,.1-.3,.14-.45,.08-.3,.14-.6,.17-.9,.06-.59,.05-1.17-.03-1.7-.08-.53-.2-1.03-.35-1.47-.15-.44-.31-.83-.48-1.17-.16-.34-.33-.62-.47-.85-.14-.23-.26-.4-.35-.52-.08-.12-.13-.18-.13-.18-.02-.03-.06-.03-.09,0-.02,.02-.03,.05-.02,.08Z"/><path class="bw" d="M361.32,320.56h0v.05s.03,.09,.03,.17c.02,.15,.03,.37,0,.65-.02,.28-.07,.61-.18,.98-.11,.37-.28,.77-.52,1.19-.24,.41-.54,.83-.9,1.24-.18,.2-.39,.41-.58,.66-.19,.24-.37,.51-.52,.81-.15,.3-.26,.62-.32,.97-.06,.35-.05,.71,0,1.06,.06,.35,.18,.69,.32,1,.15,.32,.32,.61,.51,.9,.38,.56,.81,1.07,1.2,1.57,.19,.25,.38,.5,.55,.75,.08,.13,.16,.25,.23,.38,.03,.06,.06,.13,.09,.19v.02s0,0,.01,0h0v.02l.03,.05,.04,.11,.04,.11,.03,.1c.02,.07,.05,.13,.07,.2l.06,.2,.05,.2c.06,.27,.09,.54,.08,.8,0,.52-.16,1-.38,1.41-.22,.41-.5,.76-.76,1.05-.26,.3-.5,.55-.69,.76-.2,.21-.34,.38-.45,.5l-.15,.18s-.02,.07,0,.09c.03,.02,.06,.02,.09,0h0l.17-.16c.11-.1,.28-.25,.5-.44,.21-.19,.48-.42,.77-.7,.29-.28,.61-.62,.89-1.06,.14-.22,.26-.46,.36-.73,.09-.27,.15-.56,.17-.87,.02-.3,0-.62-.05-.93l-.05-.23c-.02-.08-.04-.15-.06-.23-.02-.08-.05-.15-.07-.23l-.04-.12-.04-.11-.04-.11-.02-.05v-.03l-.02-.03c-.03-.08-.07-.16-.1-.23-.07-.15-.16-.3-.24-.44-.17-.28-.37-.55-.56-.81-.4-.52-.81-1.02-1.16-1.55-.35-.52-.64-1.08-.75-1.65-.05-.28-.06-.57-.02-.85,.04-.28,.12-.55,.24-.81,.12-.26,.27-.5,.43-.72,.16-.22,.35-.44,.54-.66,.18-.23,.35-.46,.49-.69,.14-.23,.28-.46,.39-.69,.11-.23,.21-.45,.28-.67,.07-.22,.13-.43,.17-.63,.09-.4,.11-.77,.1-1.06,0-.3-.05-.52-.09-.68-.04-.15-.07-.24-.07-.24-.01-.03-.05-.05-.08-.04-.03,.01-.05,.04-.04,.07h0Z"/></g><path class="bs" d="M457.1,317.56l.2,.61c.12,.38,.28,.93,.43,1.59,.07,.33,.13,.68,.17,1.05,.04,.37,.05,.75,.01,1.13-.02,.19-.05,.37-.11,.55-.07,.2-.14,.4-.21,.6-.15,.44-.29,.9-.4,1.36-.11,.47-.19,.95-.22,1.43-.03,.48-.01,.98,.09,1.45,.09,.47,.29,.92,.52,1.29,.24,.37,.52,.66,.78,.91,.26,.25,.53,.44,.76,.61,.23,.17,.44,.3,.61,.42,.34,.22,.54,.34,.54,.34,0,0-.14-.19-.4-.5-.25-.32-.64-.75-1.04-1.28-.2-.27-.38-.57-.52-.89-.14-.32-.24-.67-.28-1.05-.04-.38-.03-.78,.02-1.2,.05-.42,.13-.84,.23-1.27,.1-.43,.23-.85,.35-1.28,.07-.22,.13-.41,.2-.68,.06-.25,.08-.5,.08-.75,0-.49-.07-.93-.17-1.34-.1-.41-.25-.77-.39-1.1-.14-.33-.3-.61-.44-.86-.14-.25-.28-.46-.4-.62-.24-.33-.4-.51-.4-.51Z"/><path class="av" d="M457.05,317.65s.28,.18,.73,.56c.22,.19,.48,.43,.75,.72,.27,.29,.54,.65,.76,1.07,.22,.41,.39,.89,.42,1.4,.04,.51-.06,1.05-.28,1.57-.22,.53-.57,1.03-.96,1.52-.1,.12-.2,.24-.31,.36l-.35,.37c-.23,.25-.46,.5-.69,.75-.23,.27-.44,.58-.66,.87-.21,.3-.37,.62-.56,.92-.16,.32-.3,.65-.43,.98-.05,.17-.1,.34-.14,.51-.05,.17-.1,.33-.12,.51-.05,.34-.12,.68-.1,1.01,0,.17-.01,.33,0,.49,.02,.16,.04,.32,.06,.48,.01,.16,.05,.31,.09,.46,.04,.15,.07,.29,.11,.44,.11,.27,.19,.55,.32,.79,.13,.24,.23,.48,.38,.68,.13,.21,.26,.4,.41,.56,.14,.17,.26,.33,.4,.45,.13,.13,.25,.26,.37,.35,.12,.1,.23,.18,.32,.26l.25,.17c.14,.09,.21,.14,.21,.14,.05,.03,.12,.02,.15-.03,.03-.04,.02-.1-.01-.14h0s-.06-.07-.17-.18c-.05-.06-.12-.12-.2-.2-.07-.09-.16-.18-.25-.3-.1-.11-.19-.24-.29-.38-.11-.14-.21-.3-.31-.47-.11-.17-.2-.36-.3-.56-.11-.19-.18-.42-.27-.64-.09-.22-.13-.47-.21-.72l-.06-.39c-.02-.13-.05-.26-.05-.4,0-.13-.01-.27-.02-.41,0-.14,.02-.28,.03-.42,.02-.14,0-.28,.05-.42,.03-.14,.06-.28,.09-.43,.02-.15,.07-.29,.12-.43,.05-.14,.09-.28,.14-.43,.06-.14,.13-.28,.2-.42,.07-.14,.12-.28,.2-.42,.17-.26,.32-.55,.5-.8,.2-.25,.37-.5,.58-.75,.23-.25,.46-.51,.68-.76l.34-.37c.12-.13,.23-.27,.35-.41,.45-.55,.82-1.17,1.06-1.84,.25-.66,.33-1.38,.22-2.04-.04-.33-.14-.63-.26-.92-.13-.28-.26-.54-.42-.76-.31-.46-.67-.81-1-1.09-.33-.28-.65-.48-.91-.64-.26-.16-.48-.26-.63-.33-.15-.07-.23-.1-.23-.1-.06-.02-.12,0-.14,.06-.02,.05,0,.1,.04,.13Z"/><path class="cp" d="M457.04,317.65s.05,.04,.16,.14c.1,.09,.23,.25,.38,.46,.14,.21,.29,.48,.39,.81,.1,.33,.16,.72,.15,1.14-.01,.42-.09,.89-.23,1.36-.14,.48-.35,.97-.59,1.47-.13,.25-.26,.5-.41,.74-.15,.25-.31,.5-.46,.76-.33,.56-.62,1.16-.8,1.82-.18,.65-.24,1.36-.16,2.03,.08,.68,.32,1.32,.64,1.87,.32,.56,.72,1.01,1.14,1.4,.41,.39,.85,.69,1.27,.94,.83,.5,1.6,.76,2.14,.89,.55,.13,.88,.11,.88,.11h0c.06,0,.11-.05,.1-.11,0-.05-.04-.09-.09-.1,0,0-.07-.01-.21-.05-.13-.04-.33-.11-.57-.22-.48-.21-1.15-.57-1.86-1.11-.35-.27-.71-.59-1.05-.96-.34-.37-.64-.79-.88-1.26-.24-.47-.39-.98-.44-1.51-.05-.53,0-1.08,.16-1.62,.15-.54,.38-1.07,.67-1.56,.31-.51,.62-1.08,.85-1.63,.24-.56,.43-1.12,.54-1.68,.12-.55,.15-1.1,.09-1.61-.04-.5-.18-.96-.37-1.32-.18-.37-.41-.65-.61-.86-.2-.21-.39-.33-.52-.41-.13-.08-.21-.11-.21-.11-.06-.02-.12,0-.14,.06-.02,.05,0,.1,.04,.13Z"/><g><path class="av" d="M418.43,426.69l-.06-.17c-.04-.11-.1-.27-.19-.49-.18-.43-.45-1.05-.86-1.81-.41-.76-.97-1.65-1.69-2.62-.71-.97-1.59-2-2.59-3.08-.99-1.08-2.12-2.18-3.26-3.37-1.14-1.18-2.34-2.41-3.32-3.8-.49-.69-.93-1.42-1.26-2.18-.16-.38-.3-.77-.41-1.17-.11-.4-.18-.8-.23-1.21-.17-1.64,.25-3.37,1-5,.76-1.64,1.78-3.2,2.9-4.67l.44-.57c.14-.18,.29-.4,.44-.6,.29-.4,.56-.81,.81-1.22,.51-.83,.96-1.68,1.35-2.53,.78-1.71,1.33-3.46,1.63-5.15,.31-1.69,.42-3.31,.39-4.79-.04-1.49-.2-2.84-.41-4.01-.22-1.18-.49-2.19-.75-3-.26-.82-.51-1.44-.68-1.87-.09-.21-.16-.37-.21-.48l-.08-.17c-.05-.11-.18-.15-.29-.1-.1,.05-.15,.16-.11,.27h0l.06,.17c.04,.11,.09,.27,.15,.49,.13,.43,.3,1.06,.47,1.88,.18,.81,.35,1.81,.46,2.96,.12,1.15,.18,2.45,.11,3.86-.07,1.41-.25,2.93-.64,4.48-.39,1.55-.94,3.15-1.73,4.7-.39,.77-.84,1.54-1.34,2.28-.25,.37-.51,.74-.78,1.1-.14,.18-.26,.35-.41,.53l-.44,.55c-1.24,1.5-2.43,3.13-3.32,5-.44,.93-.81,1.92-1.03,2.96-.12,.52-.19,1.05-.23,1.59-.03,.54-.02,1.08,.04,1.61,.06,.53,.17,1.06,.31,1.57,.15,.51,.34,1,.55,1.47,.22,.47,.46,.91,.72,1.34,.26,.42,.54,.82,.84,1.2,1.18,1.52,2.47,2.77,3.7,3.9,1.23,1.11,2.39,2.16,3.47,3.12,1.06,.96,1.98,1.88,2.77,2.73,.79,.85,1.41,1.63,1.91,2.3,.49,.67,.84,1.22,1.07,1.6,.23,.39,.35,.6,.35,.6,.06,.1,.19,.14,.3,.08,.09-.05,.13-.17,.09-.26Z"/><path class="cp" d="M410.57,372.37s.12,.22,.34,.64c.22,.42,.53,1.05,.9,1.85,.36,.81,.79,1.8,1.21,2.95,.42,1.15,.86,2.46,1.23,3.92,.36,1.45,.69,3.04,.83,4.73,.07,.84,.11,1.71,.1,2.59-.02,.88-.07,1.78-.21,2.68-.13,.9-.32,1.8-.59,2.69-.13,.44-.29,.89-.45,1.32l-.13,.35-.13,.32c-.08,.21-.19,.43-.29,.64-.81,1.72-1.91,3.32-3.18,4.84-1.27,1.53-2.69,2.98-4.04,4.52-1.35,1.54-2.62,3.17-3.61,4.91-.99,1.75-1.69,3.57-2.13,5.34-.44,1.77-.62,3.48-.69,5.05-.06,1.57,.01,3,.12,4.25,.1,1.26,.28,2.34,.42,3.23,.07,.45,.15,.84,.22,1.18,.07,.34,.12,.63,.18,.87,.1,.47,.16,.72,.16,.72,.03,.12,.14,.19,.26,.17,.11-.02,.18-.12,.17-.23h0l-.07-.73c-.05-.48-.1-1.17-.16-2.06-.06-.89-.1-1.96-.11-3.19-.01-1.23,.05-2.61,.2-4.11,.15-1.49,.44-3.08,.93-4.7,.48-1.62,1.2-3.25,2.17-4.8,.95-1.56,2.16-3.04,3.51-4.49,1.34-1.45,2.8-2.91,4.16-4.51,.68-.81,1.33-1.65,1.92-2.54,.6-.89,1.12-1.83,1.57-2.79,.11-.24,.22-.48,.32-.74l.15-.37,.13-.35c.19-.51,.35-1,.49-1.51,.28-1.01,.48-2.02,.58-3.02,.22-2.01,.16-3.95-.11-5.75-.27-1.8-.69-3.47-1.2-4.95-.51-1.49-1.06-2.81-1.63-3.94-.56-1.14-1.1-2.1-1.58-2.87-.47-.77-.88-1.36-1.17-1.75-.28-.39-.45-.6-.45-.6-.08-.09-.21-.11-.31-.03-.08,.07-.1,.18-.05,.27Z"/><path class="bw" d="M410.81,371.82v.05l.04,.14c.03,.13,.06,.32,.09,.57,.06,.5,.1,1.24,.03,2.18-.06,.94-.25,2.07-.62,3.32-.38,1.25-.95,2.61-1.75,4-.8,1.39-1.83,2.8-3.04,4.19-.61,.68-1.3,1.38-1.97,2.22-.66,.82-1.25,1.73-1.75,2.74-.5,1-.88,2.11-1.08,3.27-.2,1.17-.18,2.39,.03,3.57,.21,1.18,.6,2.32,1.09,3.39,.49,1.07,1.08,2.07,1.72,3.02,1.28,1.9,2.72,3.61,4.04,5.31,.66,.85,1.29,1.69,1.85,2.54,.28,.42,.53,.85,.76,1.28,.11,.21,.22,.43,.31,.65l.04,.08s0-.03,0,0v.02l.03,.05,.07,.18,.14,.36,.14,.36,.12,.34c.08,.23,.16,.44,.22,.68,.07,.23,.13,.46,.2,.69,.06,.23,.11,.46,.17,.69,.2,.91,.3,1.82,.28,2.69-.03,1.75-.53,3.37-1.28,4.75-.75,1.38-1.68,2.55-2.55,3.55-.87,1-1.68,1.86-2.34,2.57-.66,.71-1.16,1.29-1.5,1.69-.34,.4-.51,.61-.51,.61-.08,.09-.06,.23,.03,.31,.09,.07,.21,.07,.29,0h0l.58-.54c.38-.35,.95-.85,1.67-1.49,.72-.65,1.62-1.41,2.6-2.37,.98-.96,2.06-2.1,2.99-3.58,.46-.74,.88-1.57,1.2-2.48,.32-.91,.51-1.9,.58-2.92,.07-1.02,0-2.08-.18-3.12l-.15-.78c-.06-.26-.13-.52-.2-.78-.06-.26-.16-.52-.24-.79l-.13-.4-.13-.37-.13-.37-.07-.18-.04-.11-.04-.1c-.11-.27-.23-.53-.35-.78-.25-.51-.53-1-.82-1.48-.59-.95-1.23-1.86-1.9-2.73-1.34-1.75-2.73-3.45-3.9-5.23-1.18-1.77-2.18-3.63-2.53-5.56-.18-.96-.2-1.92-.08-2.87,.13-.94,.42-1.86,.82-2.72,.4-.87,.91-1.68,1.46-2.44,.54-.75,1.18-1.47,1.81-2.24,.61-.77,1.17-1.54,1.67-2.32,.49-.78,.94-1.56,1.31-2.33,.37-.77,.7-1.53,.95-2.27,.25-.74,.45-1.46,.59-2.14,.29-1.37,.36-2.59,.32-3.58-.03-1-.18-1.77-.3-2.29-.13-.52-.24-.79-.24-.79-.05-.11-.17-.16-.28-.12-.1,.04-.15,.15-.13,.25h0Z"/></g><g><polygon class="bu" points="360.72 321.1 411.03 367.8 457.78 317.54 407.46 270.84 360.72 321.1"/><g class="ba"><path class="ci" d="M425.47,294.74c.44,13.1-5.81,24.87-15.67,32.05-.24,.17-.48,.34-.72,.51-5.82,4.03-12.82,6.49-20.43,6.75-6.49,.22-12.66-1.2-18.11-3.89l-9.9-9.25,46.92-50.1,16.7,15.61c.69,2.67,1.1,5.46,1.2,8.33Z"/></g><path class="d`" d="M408.87,319.49c.1,2.46,.19,4.93,.28,7.36,.14,3.58,.28,7.11,.41,10.5,.24,5.7,.46,11.03,.65,15.59,.21,4.56,.38,8.36,.5,11.02,.09,1.8,.15,3.07,.18,3.71,.01,.31,.02,.47,.02,.47h.25s0-.17,0-.48c-.02-.64-.05-1.92-.09-3.71-.07-2.66-.18-6.47-.31-11.03-.15-4.56-.32-9.89-.5-15.59-.11-3.24-.23-6.61-.35-10.02-.09-2.6-.18-5.22-.27-7.85-.24-6.08-.47-12.17-.69-17.87-.24-5.7-.46-11.03-.65-15.59-.21-4.56-.38-8.36-.5-11.02-.1-2.14-.17-3.55-.2-4.01l-.13-.12-.12,.13c.01,.46,.05,1.87,.1,4.02,.08,2.66,.18,6.47,.31,11.03,.15,4.56,.32,9.89,.5,15.59,.2,5.7,.41,11.79,.62,17.87Z"/><path class="de" d="M360.72,321.1l.69,.64c28.05-20.08,66.26-21.47,95.71-3.49l.66-.71-2.78-2.58c-13.97-7.77-29.9-11.54-46.34-10.93-16.38,.6-31.92,5.49-45.25,14.2l-2.68,2.88Z"/><polygon class="bu" points="420.12 373.76 410.96 366.71 402.34 374.41 420.12 373.76"/></g></g><g><path class="y" d="M487.11,367.81l-12.36,.21s-14.94-22.44-17.73-25.87l-6.88,5.69s4.19,20.61,16.12,35.32c0,0,13.22,3.76,25.04,.21"/><path class="an" d="M504.41,366.96l-20.53,.64s3.92,.97,4.3,10.74c.21,5.48-3.01,7.3-3.01,7.3l20.75-.14"/><g><path class="y" d="M458.23,343.93s-5.91-10.56-11.83-14.16c-.91,.51-2.68,2.89-2.68,2.89,0,0-3.55,1.13-8.79-.32-5.24-1.45-9.75-4.35-11.53-7.17,0,0-1.37-.64-.73,2.01,0,0-.32,2.17,2.26,5.23,2.58,3.06,.42,.5,.42,.5,0,0-.58,2.07,2.4,4.97l1.69,1.69-1.77-.48s-1.61,0,0,1.85c1.61,1.85,4.51,4.35,8.87,4.67,4.35,.32,11.53,.16,11.53,.16,0,0,3.24,4.93,3.48,7.51"/><g><path class="bq" d="M422.6,327.02s2.1,4.83,8.3,7.13c6.21,2.29,8.34,1.73,8.34,1.73"/><path class="ch" d="M422.72,326.97c2.59,5.33,8.53,7.8,14.07,8.8,.81,.12,1.64,.23,2.46,.1-.82,.13-1.65,.04-2.46-.07-5.61-.94-11.6-3.37-14.3-8.73l.23-.1h0Z"/></g><g><path class="bq" d="M425.55,333.18s3.95,4.83,8.42,6.08l3.34,.28"/><path class="ch" d="M425.64,333.1c2.25,2.61,5.01,5.08,8.33,6.13l3.34,.31s-3.35-.25-3.35-.25c-3.4-1.01-6.18-3.43-8.51-6.03l.19-.16h0Z"/></g><g><path class="bq" d="M429.25,339.46s2.74,3.1,6.17,3.42"/><path class="ch" d="M429.35,339.38c1.6,1.72,3.69,3.2,6.07,3.5-2.42-.23-4.57-1.64-6.26-3.34l.19-.17h0Z"/></g></g><g><path class="bq" d="M474.75,368.03s2.87,1.72,1.26,8.51"/><path class="ch" d="M474.82,367.92c2.4,2.14,1.82,5.81,1.2,8.62,.53-2.73,1.01-6.39-1.33-8.4l.13-.21h0Z"/></g></g></g><ellipse class="at" cx="353.76" cy="303.76" rx="291.66" ry="291.34"/></g></g></g></g></svg>