<?xml version="1.0" encoding="UTF-8"?><svg xmlns="http://www.w3.org/2000/svg" xmlns:xlink="http://www.w3.org/1999/xlink" viewBox="0 0 443.78 451.48"><defs><style>.e{fill:#204910;opacity:.32;}.f{opacity:.5;}.g{fill:#8fc12f;}.g,.h{opacity:.51;}.i{isolation:isolate;}.h{fill:#b6f261;}.j{fill:#48bc28;stroke:#45a525;}.j,.k,.l{stroke-miterlimit:10;}.m{mix-blend-mode:screen;opacity:.69;}.m,.n{fill:#b0e573;}.o{fill:url(#b);}.p{clip-path:url(#d);}.q{fill:none;}.r{fill:#353535;}.k{fill:#41a022;stroke:#38841c;stroke-width:.5px;}.l{fill:#31d0e5;stroke:url(#c);stroke-width:6px;}</style><linearGradient id="b" x1="43.17" y1="103.28" x2="392.43" y2="342.6" gradientTransform="matrix(1, 0, 0, 1, 0, 0)" gradientUnits="userSpaceOnUse"><stop offset="0" stop-color="#9b81cf"/><stop offset="1" stop-color="#3b139b"/></linearGradient><linearGradient id="c" x1="16.1" y1="225.74" x2="427.68" y2="225.74" gradientTransform="matrix(1, 0, 0, 1, 0, 0)" gradientUnits="userSpaceOnUse"><stop offset="0" stop-color="#4c1da9"/><stop offset="1" stop-color="#997ece"/></linearGradient><clipPath id="d"><circle class="q" cx="225.89" cy="228.06" r="209.22"/></clipPath></defs><g class="i"><g id="a"><g><path class="f" d="M435.12,236.99c0-36.23-9.21-70.32-25.42-100.03-35.31-67.72-106.15-113.96-187.81-113.96C104.98,23,10.21,117.77,10.21,234.67s94.77,211.68,211.68,211.68c2.97,0,5.93-.08,8.87-.2,113.3-2.59,204.36-95.24,204.36-209.16Z"/><g><g><circle class="o" cx="221.89" cy="225.74" r="211.68"/><circle class="l" cx="221.89" cy="225.74" r="202.78"/></g><g class="p"><g><g><g><path class="k" d="M97.16,264.12s-23.66-1.19-34.48,11.24l.16,6.91s8.9-13.48,32.92-16.77l1.4-1.37Z"/><path class="e" d="M62.84,282.27s8.47-13.74,32.92-16.77l.63-.62s-26.07,2.01-33.58,16.09l.02,1.31Z"/><path class="g" d="M62.68,275.36s8.61-9.5,26.09-10.93c0,0-15.23,2.05-26.05,11.23l-.04-.3Z"/></g><g><g><path class="q" d="M265.69,295.98c-.06,.02-.13,.04-.19,.07-.11,.03-.27,.07-.48,.11,.23-.06,.45-.12,.68-.18Z"/><path class="r" d="M266.92,295.32c.06-.02,.13-.05,.19-.06,.13-.05,.45-.08,.35,.17-.11,.25-.4,.4-.63,.49-.06,.03-.13,.05-.19,.07-.12,.04-.45,.08-.34-.17,.1-.23,.4-.42,.63-.49,.06-.02,.13-.04,.19-.06-.09,.22-.19,.44-.29,.65-.06,.02-.13,.04-.19,.07-.13,.04-.45,.08-.34-.17,.11-.24,.4-.41,.63-.49Z"/><path class="j" d="M143.6,297.46c-59.2-18.19-51.49-32.51-51.49-32.51-5.63-5.79,.82-22.86,36.85-29.24,27.61-4.89,37.67,5.72,72.03,28.36,38.62,25.45,60.26,27.3,63.58,26.61-20.14,5.3-76.79,20.35-120.97,6.78Z"/><path class="k" d="M75.7,298.79c-3.29-12.85,5.51-29.15,16.42-33.84,0,0,13,27.17,68.36,34.09,45.75,5.72,83.49-2.83,103.64-8.13,.21-.04,.37-.08,.48-.11-14.01,4.53-34.75,28.75-66.23,44.98-64.15,33.06-118.04-18.94-122.66-36.99Z"/></g><g><path class="m" d="M193.87,337.89s-.12-.09-.4-.2c-.27-.1-.68-.27-1.22-.49-1.08-.46-2.69-1.22-4.63-2.49-1.95-1.26-4.2-3.02-6.66-5.3-2.46-2.28-5.13-5.08-8.06-8.39-2.09-2.35-4.34-4.98-6.61-7.58-2.28-2.6-4.59-5.18-6.86-7.42-2.26-2.23-4.5-4.12-6.42-5.29-.95-.59-1.79-.98-2.39-1.22-.15-.06-.28-.11-.4-.15-.12-.04-.22-.07-.3-.1-.16-.05-.24-.08-.24-.08,0,0,.08,.03,.24,.09,.08,.03,.18,.06,.29,.1,.12,.04,.24,.1,.39,.16,.59,.24,1.42,.65,2.34,1.25,1.87,1.18,4.03,3.08,6.21,5.32,2.18,2.24,4.41,4.83,6.62,7.44,2.21,2.61,4.4,5.25,6.48,7.62,2.91,3.33,5.58,6.15,8.08,8.46,2.5,2.31,4.82,4.1,6.87,5.38,2.04,1.29,3.77,2.04,4.92,2.45,.58,.2,1.01,.33,1.31,.39,.29,.07,.43,.09,.44,.06Z"/><path class="m" d="M115.93,287.9c-.04,.09,.63,.38,1.8,1.21,.58,.43,1.28,.99,2.05,1.74,.77,.75,1.6,1.67,2.49,2.78,1.78,2.21,3.74,5.17,5.96,8.87,2.23,3.7,4.71,8.14,7.81,13.3,2.21,3.66,4.78,7.71,7.71,11.6,2.92,3.89,6.25,7.62,9.75,10.56,1.73,1.48,3.52,2.74,5.21,3.77,1.7,1.03,3.3,1.81,4.68,2.38,.68,.29,1.32,.51,1.86,.71,.56,.18,1.04,.33,1.43,.45,.79,.21,1.21,.32,1.21,.32,0,0-.43-.12-1.21-.35-.39-.13-.86-.29-1.41-.48-.54-.21-1.17-.44-1.84-.74-1.35-.59-2.93-1.39-4.59-2.44-1.65-1.05-3.39-2.33-5.08-3.81-3.4-2.96-6.61-6.7-9.44-10.58-2.83-3.89-5.33-7.93-7.5-11.59-3.05-5.16-5.51-9.61-7.76-13.32-2.24-3.71-4.25-6.69-6.13-8.93-.94-1.12-1.83-2.05-2.66-2.8-.84-.75-1.61-1.31-2.25-1.72-1.32-.8-2.07-.96-2.09-.91Z"/><path class="m" d="M92.54,267.36c-.06,.13,.58,.44,1.42,1.65,.85,1.18,1.88,3.19,3.08,6.03,1.2,2.85,2.59,6.55,4.34,11.1,1.75,4.55,3.83,9.96,6.66,16.16,2.01,4.4,4.46,9.21,7.29,13.78,1.42,2.28,2.92,4.51,4.49,6.59,1.57,2.08,3.2,4.02,4.83,5.76,1.63,1.74,3.26,3.27,4.8,4.56,1.54,1.29,2.99,2.34,4.22,3.17,1.24,.81,2.26,1.42,2.98,1.81,.72,.39,1.11,.6,1.11,.6,0,0-.38-.22-1.09-.63-.7-.41-1.7-1.05-2.92-1.89-1.2-.86-2.61-1.95-4.1-3.27-1.49-1.32-3.07-2.88-4.64-4.65-1.57-1.76-3.14-3.72-4.65-5.82-1.5-2.1-2.95-4.33-4.3-6.62-2.71-4.59-5.07-9.39-7.03-13.78-2.76-6.19-4.82-11.59-6.57-16.13-1.75-4.54-3.18-8.24-4.48-11.1-1.3-2.85-2.46-4.87-3.51-6.05-.52-.58-.99-.96-1.34-1.13-.35-.18-.55-.2-.57-.15Z"/><path class="m" d="M184.66,301.4s.33,.18,.99,.51c.66,.33,1.62,.89,2.82,1.73,1.19,.84,2.62,1.97,4.29,3.39,1.68,1.42,3.61,3.12,5.92,5.11,1.64,1.41,3.49,2.97,5.45,4.48,1.96,1.51,4.05,2.97,6.09,4.14,1.02,.58,2.02,1.1,2.97,1.51,.94,.41,1.82,.72,2.56,.93,.74,.21,1.33,.33,1.74,.4,.2,.04,.36,.05,.46,.07,.1,.01,.16,.02,.16,.02,0,0-.06,0-.16-.02-.1-.02-.26-.04-.46-.08-.4-.08-.99-.21-1.72-.43-.72-.22-1.58-.55-2.5-.97-.92-.42-1.89-.94-2.88-1.53-1.98-1.18-3.98-2.65-5.89-4.17-1.9-1.52-3.71-3.08-5.33-4.5-2.28-1.99-4.2-3.71-5.89-5.13-1.69-1.42-3.16-2.56-4.42-3.41-.63-.43-1.21-.78-1.72-1.06-.51-.29-.97-.5-1.33-.65-.75-.31-1.13-.37-1.14-.34Z"/><path class="m" d="M221.23,300.2c-.03,.08,.08,.21,.33,.39,.13,.09,.28,.21,.47,.34,.18,.15,.41,.31,.64,.54,.48,.43,1.06,1.05,1.71,1.91,.65,.86,1.36,1.97,2.21,3.28,.6,.93,1.29,1.95,2.06,2.85,.77,.9,1.66,1.66,2.56,2.04,.9,.41,1.78,.39,2.39,.29,.15-.03,.29-.05,.41-.08,.12-.04,.22-.07,.31-.1,.17-.05,.26-.08,.26-.08,0,0-.09,.02-.26,.05-.08,.02-.19,.04-.31,.07-.12,.02-.25,.02-.41,.04-.6,.04-1.45-.03-2.27-.5-.84-.45-1.64-1.25-2.35-2.18-.71-.94-1.35-1.99-1.94-2.93-.82-1.33-1.54-2.47-2.21-3.36-.67-.88-1.3-1.51-1.84-1.92-.26-.21-.52-.35-.73-.47-.22-.1-.4-.18-.55-.22-.31-.07-.46-.06-.49,.02Z"/><path class="m" d="M114.82,286.65c-.03,.17,.44,.38,1.51,.12,1.06-.28,2.69-1.17,4.77-3.02,2.08-1.82,4.6-4.53,7.61-8.04,3.02-3.5,6.52-7.82,10.71-12.6,2.98-3.39,6.32-7.02,9.76-10.19,3.43-3.18,6.96-5.87,10.15-7.59,3.19-1.76,6-2.54,7.97-2.83,.99-.12,1.77-.17,2.3-.17,.53,0,.82,0,.82,0,0,0-.29-.02-.81-.07-.53-.03-1.31-.04-2.29,0-1.97,.16-4.8,.77-8.03,2.37-3.24,1.57-6.84,4.11-10.35,7.2-3.51,3.07-6.93,6.65-9.94,10.01-4.24,4.75-7.76,9.05-10.76,12.54-2.99,3.5-5.45,6.22-7.44,8.08-1.99,1.88-3.48,2.86-4.47,3.36-.99,.48-1.47,.58-1.5,.79Z"/><path class="m" d="M140.21,295.51c.04,.05,.18,.03,.45-.08,.13-.05,.3-.12,.5-.22,.2-.09,.43-.2,.68-.37,1.01-.59,2.41-1.69,4.04-3.4,1.63-1.71,3.48-4.03,5.55-6.97,2.1-2.93,4.42-6.48,7.32-10.52,1.03-1.44,2.15-2.93,3.33-4.44,1.2-1.49,2.45-3,3.8-4.44,1.35-1.43,2.75-2.82,4.23-4.05,.72-.64,1.49-1.2,2.23-1.76,.37-.29,.76-.53,1.14-.79,.38-.24,.74-.52,1.14-.73,.77-.45,1.5-.91,2.26-1.26,.37-.18,.74-.36,1.09-.54,.37-.16,.73-.29,1.08-.44,.35-.14,.69-.29,1.03-.41,.35-.11,.68-.21,1-.32,.32-.1,.63-.2,.92-.29,.3-.08,.59-.14,.87-.21,.55-.12,1.04-.26,1.49-.33,.44-.07,.82-.12,1.13-.17,.62-.09,.95-.14,.95-.14,0,0-.34,.03-.96,.1-.31,.03-.69,.07-1.14,.13-.45,.06-.95,.17-1.5,.27-.28,.06-.58,.11-.88,.18-.3,.08-.61,.17-.94,.26-.33,.09-.67,.19-1.02,.28-.34,.11-.69,.25-1.06,.38-.36,.13-.74,.26-1.11,.41-.37,.17-.75,.34-1.13,.51-.79,.33-1.55,.77-2.35,1.19-.41,.21-.78,.47-1.18,.71-.39,.25-.81,.49-1.19,.76-.77,.55-1.58,1.1-2.33,1.73-1.55,1.21-3.02,2.58-4.43,4.01-1.41,1.43-2.72,2.93-3.97,4.42-1.23,1.51-2.39,2.99-3.44,4.43-2.97,4.04-5.31,7.58-7.39,10.5-2.05,2.93-3.82,5.23-5.34,6.94-1.52,1.71-2.76,2.84-3.63,3.52-.21,.19-.4,.32-.56,.45-.17,.13-.3,.23-.41,.33-.2,.18-.29,.3-.26,.35Z"/><path class="m" d="M162.74,298.07c-.08,.34,.21,.59,.98,.6,.79-.07,2.07-.49,3.92-1.72,1.86-1.22,4.29-3.25,7.3-6.07,3.01-2.82,6.6-6.46,10.75-10.43,2.95-2.81,6.2-5.77,9.34-8.1,3.14-2.37,6.15-3.95,8.6-4.43,2.46-.49,4.33,.19,5.51,1.11,.29,.25,.56,.44,.78,.66,.21,.23,.39,.46,.53,.63,.29,.35,.46,.54,.46,.54,0,0-.14-.24-.42-.65-.13-.21-.3-.46-.49-.76-.21-.26-.46-.51-.73-.82-1.11-1.16-2.9-2.18-5.33-2.02-2.41,.15-5.42,1.42-8.57,3.54-3.15,2.08-6.42,4.87-9.38,7.61-4.17,3.85-7.76,7.43-10.74,10.25-2.98,2.84-5.37,4.92-7.2,6.32-3.67,2.81-5.11,2.92-5.32,3.72Z"/><path class="m" d="M220.1,299.62c.03,.11,.26,.14,.74,.06,.47-.1,1.19-.33,2.07-.83,.45-.24,.91-.56,1.42-.94,.5-.39,1.03-.83,1.57-1.34,1.1-1.02,2.29-2.29,3.77-3.66,1.05-.98,2.26-2.02,3.57-2.94,1.31-.92,2.71-1.7,4.01-2.31,1.3-.6,2.48-1.03,3.34-1.31,.42-.14,.77-.24,1.01-.31,.24-.07,.36-.11,.36-.11,0,0-.13,.03-.37,.07-.24,.05-.59,.12-1.03,.22-.87,.21-2.1,.53-3.48,1.05-1.38,.51-2.89,1.22-4.31,2.09-1.43,.87-2.75,1.89-3.86,2.88-1.56,1.39-2.77,2.65-3.83,3.64-1.05,1-1.95,1.73-2.71,2.23-1.51,1-2.35,1.26-2.28,1.52Z"/><path class="m" d="M94.47,268.59c.01,.15,.5,.21,1.51,.09,1-.16,2.52-.55,4.44-1.48,1.91-.93,4.21-2.38,6.83-4.42,2.61-2.05,5.55-4.68,8.88-7.84,4.73-4.48,10.32-10.14,15.3-13.95,1.24-.97,2.44-1.8,3.54-2.52,.56-.34,1.08-.67,1.58-.96,.51-.27,.98-.53,1.4-.76,.44-.2,.83-.39,1.18-.55,.34-.17,.65-.26,.9-.37,.5-.19,.77-.3,.77-.3,0,0-.28,.09-.78,.25-.25,.09-.57,.17-.92,.32-.36,.14-.76,.31-1.21,.49-.44,.21-.92,.44-1.45,.68-.51,.27-1.06,.57-1.64,.88-1.14,.67-2.39,1.44-3.68,2.36-5.2,3.6-11.04,9.06-15.82,13.46-3.36,3.11-6.29,5.68-8.84,7.7-2.56,2.01-4.75,3.46-6.54,4.43-3.6,1.94-5.49,2.1-5.44,2.47Z"/><path class="m" d="M185.3,302.12c-.07,.27,.22,.49,.94,.53,.73-.02,1.91-.32,3.59-1.24,1.69-.92,3.87-2.48,6.57-4.66,2.69-2.18,5.9-5,9.62-8.07,2.64-2.17,5.56-4.46,8.4-6.23,2.84-1.81,5.58-2.97,7.84-3.27,2.28-.3,4.04,.33,5.18,1.12,.28,.22,.54,.38,.75,.57,.21,.2,.38,.39,.52,.54,.29,.3,.44,.46,.44,.46,0,0-.14-.2-.41-.54-.13-.17-.29-.38-.49-.64-.2-.22-.45-.43-.71-.69-1.08-.99-2.78-1.89-5.04-1.86-2.24,.03-5,.94-7.85,2.55-2.85,1.57-5.8,3.71-8.45,5.83-3.74,2.97-6.95,5.75-9.62,7.92-2.67,2.2-4.82,3.8-6.47,4.86-3.31,2.15-4.65,2.18-4.81,2.82Z"/></g><path class="n" d="M92.11,264.95c11.31,19.29,36.37,27.89,57.38,31.28,37.65,5.82,75.64,.25,113.1-5.02-36.62,11.11-75.99,17.36-114.08,10.6-15.24-2.96-30.5-8.43-42.59-18.41-5.83-5.04-11.28-11.08-13.8-18.45h0Z"/></g><path class="h" d="M91.01,263.03s29.39-40.96,76.5-18.11c10.38,5.03,22.25,19.15,32.58,24.27,50.79,25.19,43.66,17.16,59.16,21.3,0,0-20.65-3.41-49.96-21.84,0,0-26.36-17.47-30.93-20.11-14.73-8.49-22.23-17.84-50.08-13.19,0,0-40.09,6.91-37.27,27.68Z"/><path class="e" d="M85.36,270.31s-14.87,24.55,14.69,50.81c0,0,57,40.5,104.32,8.04,0,0,44.03-32.72,51.84-34.73,0,0-10.39,6.63-26.24,20.82,0,0-35.25,27.97-59.44,29.69,0,0-37,12.05-78.28-23.81,0,0-32.46-22.9-6.9-50.82Z"/></g><g><g><path class="k" d="M289.62,240.89s-8.95,13.32-5.51,23.94l4.07,2.32s-4.72-9.87,1.75-24.97l-.31-1.29Z"/><path class="e" d="M288.18,267.15s-5.02-9.71,1.75-24.97l-.14-.58s-7.93,15.84-2.38,25.11l.77,.44Z"/><path class="g" d="M284.11,264.83s-2.51-8.31,2.76-18.96c0,0-4.13,9.56-2.57,19.04l-.19-.08Z"/></g><g><g><path class="q" d="M366.92,154.16s-.02,.09-.03,.14c-.02,.08-.05,.18-.1,.32,.05-.15,.09-.3,.13-.46Z"/><path class="r" d="M366.96,153.22s.02-.09,.03-.13c.02-.09,.11-.29,.22-.14,.11,.15,.09,.37,.06,.54,0,.04-.02,.09-.03,.13-.02,.09-.11,.29-.22,.14-.1-.14-.11-.38-.06-.54,0-.04,.02-.09,.03-.13,.09,.13,.19,.26,.28,.39,0,.04-.02,.09-.03,.13-.02,.09-.11,.29-.22,.14-.1-.14-.1-.38-.06-.54Z"/><path class="j" d="M325.18,225.56c-31.21,28.02-36.84,18.55-36.84,18.55-5.32,1.25-12.98-8.45-4.12-31.6,6.79-17.74,16.47-19.88,41.6-31.92,28.25-13.54,36.87-25.46,37.63-27.63-3.95,13.54-14.98,51.68-38.27,72.6Z"/><path class="k" d="M302.25,265.45c-8.61-2.57-15-13.37-13.92-21.34,0,0,20.31,1.93,43.65-27.79,19.29-24.57,27.49-49.47,31.44-63.01,.05-.14,.08-.24,.1-.32-2.26,9.72,4.57,30.2,3,54.15-3.18,48.78-52.19,61.93-64.28,58.31Z"/></g><g><path class="m" d="M366.19,210.48s-.1,.04-.26,.16c-.15,.12-.39,.3-.71,.54-.64,.47-1.65,1.13-3.06,1.82-1.41,.69-3.22,1.39-5.4,2.02-2.18,.63-4.74,1.2-7.68,1.75-2.09,.39-4.4,.78-6.71,1.19-2.31,.41-4.61,.86-6.7,1.39-2.08,.53-3.97,1.18-5.31,1.88-.67,.35-1.2,.7-1.54,.96-.09,.07-.16,.13-.23,.18-.06,.05-.12,.1-.16,.14-.09,.07-.13,.11-.13,.11,0,0,.05-.04,.13-.11,.04-.04,.1-.08,.16-.13,.07-.05,.14-.11,.23-.17,.35-.26,.87-.59,1.54-.92,1.34-.67,3.2-1.27,5.25-1.75,2.06-.48,4.34-.88,6.63-1.25,2.29-.37,4.59-.72,6.68-1.1,2.95-.53,5.52-1.09,7.73-1.74,2.21-.64,4.06-1.37,5.52-2.11,1.46-.74,2.5-1.48,3.14-2,.32-.27,.55-.47,.69-.62,.14-.14,.2-.22,.19-.23Z"/><path class="m" d="M309.97,238.29c.04,.06,.44-.23,1.33-.63,.45-.19,1.02-.4,1.72-.58,.7-.19,1.53-.35,2.48-.48,1.91-.26,4.31-.37,7.23-.37,2.92,0,6.37,.11,10.45,.11,2.9,0,6.14-.08,9.42-.43,3.28-.34,6.61-.97,9.53-1.98,1.46-.49,2.82-1.09,4.01-1.71,1.19-.63,2.2-1.29,3.01-1.89,.41-.29,.75-.59,1.06-.83,.3-.26,.55-.49,.76-.67,.4-.38,.61-.59,.61-.59,0,0-.22,.2-.62,.58-.21,.18-.47,.4-.77,.65-.31,.24-.66,.53-1.07,.81-.81,.58-1.83,1.22-3.02,1.81-1.18,.59-2.54,1.16-3.99,1.62-2.9,.94-6.19,1.5-9.44,1.79-3.25,.29-6.46,.33-9.35,.31-4.06-.03-7.5-.15-10.44-.14-2.94,0-5.37,.13-7.32,.44-.98,.15-1.83,.35-2.56,.57-.73,.22-1.32,.48-1.78,.71-.92,.49-1.28,.87-1.26,.9Z"/><path class="m" d="M289.88,244.71c.05,.08,.46-.18,1.45-.25,.98-.08,2.51,.02,4.58,.31,2.07,.29,4.71,.78,7.96,1.36,3.25,.57,7.12,1.25,11.71,1.77,3.25,.37,6.9,.62,10.54,.58,1.82-.03,3.64-.12,5.39-.3,1.76-.18,3.45-.45,5.03-.79,1.58-.34,3.04-.75,4.32-1.19,1.29-.44,2.4-.92,3.31-1.34,.9-.44,1.61-.82,2.09-1.1,.48-.28,.73-.43,.73-.43,0,0-.26,.15-.75,.41-.48,.26-1.2,.62-2.11,1.03-.92,.4-2.04,.84-3.33,1.24-1.29,.41-2.74,.78-4.32,1.07-1.57,.3-3.26,.53-5,.67-1.74,.14-3.54,.2-5.35,.19-3.61-.03-7.22-.34-10.45-.73-4.56-.55-8.41-1.25-11.66-1.81-3.25-.57-5.9-1.03-8.01-1.27-2.11-.24-3.69-.27-4.74-.07-.52,.1-.9,.24-1.12,.38-.23,.14-.31,.25-.29,.28Z"/><path class="m" d="M341.79,203.09s.22-.13,.64-.4c.42-.27,1.08-.63,1.99-1.03,.91-.4,2.06-.83,3.46-1.31,1.41-.48,3.07-1.01,5.03-1.65,1.39-.46,2.94-.99,4.51-1.6,1.56-.61,3.14-1.31,4.53-2.09,.7-.39,1.34-.79,1.91-1.2,.57-.4,1.05-.81,1.43-1.16,.38-.36,.66-.66,.84-.87,.09-.11,.16-.19,.2-.25,.04-.05,.07-.08,.07-.08,0,0-.02,.03-.07,.08-.05,.05-.12,.14-.21,.24-.19,.21-.47,.51-.85,.85-.38,.34-.87,.73-1.43,1.11-.56,.39-1.21,.77-1.89,1.14-1.38,.74-2.93,1.39-4.47,1.96-1.54,.58-3.08,1.08-4.47,1.52-1.95,.63-3.62,1.14-5.03,1.63-1.42,.49-2.59,.94-3.52,1.37-.47,.22-.87,.43-1.22,.63-.35,.2-.63,.39-.84,.55-.44,.33-.61,.53-.59,.54Z"/><path class="m" d="M353.85,181.45s.15,.03,.34-.06c.09-.04,.22-.09,.36-.15,.15-.05,.32-.13,.54-.19,.42-.13,.98-.25,1.71-.33,.73-.08,1.62-.1,2.68-.14,.75-.03,1.58-.07,2.38-.2,.79-.13,1.54-.38,2.08-.77,.55-.38,.85-.9,1-1.29,.04-.1,.07-.19,.1-.27,.02-.08,.04-.15,.05-.21,.03-.12,.04-.18,.04-.18,0,0-.02,.06-.06,.17-.02,.06-.04,.12-.07,.2-.03,.07-.07,.16-.12,.25-.19,.36-.52,.83-1.08,1.15-.55,.33-1.3,.52-2.09,.61-.79,.09-1.63,.09-2.38,.1-1.06,0-1.97,.03-2.72,.11-.75,.08-1.33,.23-1.76,.4-.22,.08-.39,.18-.53,.26-.13,.09-.25,.17-.32,.24-.15,.15-.2,.25-.16,.29Z"/><path class="m" d="M308.85,238.5c.09,.08,.38-.12,.6-.83,.21-.71,.26-1.97-.09-3.82-.33-1.84-1.03-4.25-2.01-7.22-.98-2.97-2.26-6.52-3.58-10.61-.93-2.91-1.87-6.12-2.51-9.22-.65-3.1-.98-6.09-.87-8.54,.09-2.46,.62-4.37,1.14-5.62,.27-.61,.52-1.08,.71-1.4,.19-.31,.29-.47,.29-.47,0,0-.11,.16-.32,.45-.2,.3-.48,.74-.79,1.33-.6,1.2-1.23,3.05-1.43,5.49-.22,2.43,0,5.41,.57,8.52,.56,3.11,1.44,6.34,2.35,9.26,1.28,4.12,2.54,7.66,3.53,10.62,.99,2.96,1.71,5.33,2.1,7.14,.4,1.81,.45,3.02,.39,3.77-.07,.74-.18,1.06-.07,1.15Z"/><path class="m" d="M322.86,226.85s.08-.1,.11-.29c.02-.09,.03-.22,.05-.37,.02-.15,.03-.32,.02-.52,0-.79-.14-1.99-.56-3.53-.42-1.54-1.12-3.43-2.11-5.65-.97-2.24-2.22-4.82-3.55-7.92-.48-1.1-.95-2.27-1.42-3.48-.45-1.22-.89-2.47-1.25-3.76-.36-1.28-.68-2.58-.88-3.87-.12-.64-.17-1.28-.25-1.91-.04-.31-.04-.63-.06-.94,0-.31-.05-.61-.03-.92,.01-.61,0-1.19,.06-1.75,.02-.28,.05-.56,.07-.82,.04-.27,.08-.53,.12-.78,.04-.26,.07-.5,.12-.74,.06-.24,.11-.47,.16-.69,.05-.22,.11-.43,.15-.64,.06-.2,.13-.39,.18-.58,.12-.36,.22-.7,.33-.98,.12-.28,.21-.52,.29-.71,.16-.39,.25-.6,.25-.6,0,0-.1,.21-.27,.59-.09,.19-.2,.43-.32,.7-.12,.28-.23,.61-.37,.97-.06,.18-.14,.37-.2,.57-.06,.2-.12,.42-.18,.64-.06,.22-.12,.45-.19,.69-.06,.24-.1,.49-.15,.75-.05,.26-.1,.52-.15,.79-.03,.27-.07,.55-.1,.84-.09,.57-.09,1.17-.13,1.78-.02,.31,0,.62,0,.93,0,.32,0,.64,.03,.96,.05,.64,.09,1.3,.19,1.96,.16,1.32,.45,2.65,.78,3.97,.34,1.32,.75,2.6,1.18,3.85,.45,1.24,.9,2.43,1.37,3.54,1.31,3.14,2.55,5.73,3.52,7.95,.98,2.21,1.7,4.04,2.16,5.52,.46,1.48,.68,2.59,.78,3.34,.04,.19,.05,.34,.06,.48,.02,.14,.03,.26,.05,.35,.03,.18,.07,.27,.12,.27Z"/><path class="m" d="M332.2,214.66c.17,.17,.42,.08,.69-.36,.24-.48,.43-1.37,.37-2.88-.06-1.51-.39-3.62-.98-6.36-.59-2.73-1.45-6.09-2.3-9.88-.6-2.69-1.19-5.61-1.44-8.25-.28-2.65-.15-4.95,.43-6.54,.58-1.6,1.62-2.45,2.57-2.82,.25-.08,.45-.17,.66-.22,.21-.04,.4-.07,.55-.09,.31-.05,.47-.07,.47-.07,0,0-.19,0-.52,.02-.17,0-.37,.01-.61,.02-.22,.03-.45,.09-.73,.14-1.06,.24-2.28,.92-3.03,2.39-.75,1.45-1.07,3.64-.93,6.21,.11,2.55,.59,5.42,1.14,8.1,.78,3.77,1.61,7.1,2.2,9.81,.61,2.72,.98,4.84,1.16,6.39,.35,3.11-.09,3.99,.31,4.39Z"/><path class="m" d="M353.12,181.9c.08,.02,.17-.1,.29-.41,.11-.31,.23-.81,.24-1.49,.01-.34,0-.73-.05-1.15-.05-.42-.12-.89-.23-1.38-.21-1-.53-2.13-.81-3.47-.2-.95-.38-2.02-.46-3.1-.08-1.08-.04-2.17,.06-3.14,.1-.96,.27-1.8,.4-2.4,.06-.3,.13-.53,.17-.69,.04-.16,.06-.25,.06-.25,0,0-.03,.08-.09,.24-.05,.15-.14,.39-.23,.67-.18,.58-.42,1.41-.61,2.38-.18,.98-.3,2.1-.29,3.23,0,1.13,.14,2.26,.33,3.24,.26,1.39,.57,2.53,.78,3.49,.21,.96,.32,1.74,.35,2.35,.05,1.23-.09,1.81,.09,1.85Z"/><path class="m" d="M291.27,244.01c.09,.04,.29-.22,.58-.84,.26-.63,.56-1.66,.69-3.09,.13-1.44,.08-3.27-.19-5.51-.28-2.23-.78-4.85-1.45-7.89-.95-4.31-2.29-9.53-2.76-13.75-.13-1.06-.19-2.04-.23-2.93,0-.44-.01-.86,0-1.25,.02-.39,.04-.75,.05-1.08,.03-.33,.07-.62,.09-.88,.02-.26,.07-.47,.1-.65,.06-.36,.09-.55,.09-.55,0,0-.04,.19-.13,.54-.04,.17-.1,.39-.13,.64-.04,.26-.09,.55-.14,.87-.03,.33-.07,.69-.11,1.08-.02,.39-.04,.81-.06,1.26,0,.9,0,1.89,.09,2.96,.28,4.28,1.41,9.57,2.3,13.88,.63,3.04,1.1,5.63,1.39,7.82,.27,2.19,.35,3.96,.29,5.34-.13,2.77-.7,3.92-.46,4.02Z"/><path class="m" d="M342.43,202.98c.14,.13,.36,.04,.64-.36,.24-.43,.48-1.22,.53-2.52,.05-1.3-.09-3.11-.41-5.44-.32-2.32-.85-5.17-1.33-8.4-.34-2.29-.65-4.78-.69-7.05-.06-2.28,.22-4.28,.84-5.69,.62-1.43,1.6-2.23,2.46-2.61,.22-.09,.41-.18,.59-.24,.19-.05,.36-.09,.49-.12,.27-.06,.42-.1,.42-.1,0,0-.17,.01-.46,.05-.15,.02-.33,.04-.54,.06-.2,.04-.41,.11-.65,.17-.95,.28-2.07,.96-2.84,2.28-.77,1.31-1.2,3.23-1.26,5.45-.09,2.2,.13,4.66,.43,6.94,.42,3.21,.91,6.04,1.24,8.35,.34,2.32,.52,4.12,.57,5.45,.09,2.67-.36,3.46-.04,3.78Z"/></g><path class="n" d="M288.34,244.11c20.23-.93,35.91-19.49,46.48-35.18,11.32-17.11,19.54-35.98,28.25-54.64-2.05,10.22-5.08,20.22-8.9,29.96-7.81,19.41-18.71,38.6-35.91,51.33-8.48,6.03-19.38,10.87-29.92,8.54h0Z"/></g><path class="h" d="M286.83,244.08s-13.53-31.35,16.18-50.74c6.54-4.27,18.88-6.24,25.46-10.45,32.35-20.7,25.2-19.36,33.01-26.91,0,0-9.18,10.8-30.11,21.39,0,0-19.34,9.21-22.47,10.94-10.07,5.59-18.11,6.69-25.14,24.47,0,0-9.97,25.69,3.07,31.3Z"/><path class="e" d="M289.09,249.9s9.07,17.2,34.62,9.2c0,0,43.4-18.96,41.07-57.76,0,0-3.63-36.98-2.07-42.22,0,0,.23,8.34,2.93,22.5,0,0,3.94,30.23-3.5,44.87,0,0-5.91,25.69-41.14,37.14,0,0-24.62,10.85-31.91-13.73Z"/></g><g><g><path class="k" d="M208.84,140.87s-5.21,11.48-1.17,19.26l3.45,1.27s-4.93-7.04-1.87-19.57l-.41-.96Z"/><path class="e" d="M211.11,161.4s-5.14-6.88-1.87-19.57l-.18-.43s-4.1,13.29,1.4,19.76l.65,.24Z"/><path class="g" d="M207.66,160.13s-3.02-6.11-.31-15.04c0,0-1.96,7.94,.47,15.08l-.16-.04Z"/></g><g><g><path class="q" d="M257.53,63.7v.11c-.01,.06-.02,.15-.04,.26,.02-.12,.03-.25,.04-.37Z"/><path class="r" d="M257.44,62.96s0-.07,0-.11c0-.07,.05-.24,.15-.14,.1,.1,.12,.27,.12,.41,0,.03,0,.07,0,.11,0,.07-.05,.24-.15,.14-.1-.1-.13-.28-.12-.41,0-.04,0-.07,0-.11,.09,.09,.18,.18,.27,.27,0,.03,0,.07,0,.11,0,.07-.05,.24-.15,.14-.1-.1-.13-.28-.12-.41Z"/><path class="j" d="M234.41,124.4c-20.56,25.74-26.15,19.13-26.15,19.13-3.96,1.65-11.15-4.87-7.27-23.95,2.97-14.62,10.19-17.53,28.11-30.1,20.14-14.14,25.28-24.48,25.59-26.26-1.31,11-4.93,41.97-20.28,61.18Z"/><path class="k" d="M221.8,158.26c-7-.88-13.35-8.42-13.54-14.73,0,0,15.98-1.13,30.23-27.17,11.77-21.52,14.91-41.87,16.22-52.87,.02-.11,.03-.2,.04-.26-.49,7.82,7.44,22.81,9.32,41.56,3.83,38.2-32.43,54.71-42.27,53.47Z"/></g><g><path class="m" d="M264.23,107.42s-.07,.04-.18,.16c-.1,.11-.26,.28-.48,.51-.44,.44-1.13,1.09-2.14,1.81-1,.72-2.32,1.49-3.93,2.26-1.61,.77-3.51,1.54-5.72,2.35-1.57,.57-3.31,1.17-5.04,1.79-1.73,.62-3.46,1.26-5.01,1.94-1.55,.68-2.92,1.42-3.87,2.14-.48,.35-.84,.69-1.07,.94-.06,.06-.11,.12-.15,.17-.04,.05-.08,.09-.11,.13-.06,.07-.09,.1-.09,.1,0,0,.03-.03,.09-.1,.03-.03,.07-.08,.11-.12,.04-.05,.1-.1,.16-.16,.24-.24,.6-.57,1.07-.91,.95-.69,2.31-1.4,3.85-2.03,1.54-.64,3.25-1.24,4.98-1.82,1.73-.58,3.46-1.15,5.03-1.72,2.21-.79,4.13-1.56,5.76-2.34,1.63-.78,2.97-1.59,4-2.35,1.04-.76,1.75-1.47,2.17-1.95,.21-.25,.36-.44,.45-.57,.09-.13,.13-.2,.12-.2Z"/><path class="m" d="M224.27,136.22s.31-.24,.95-.66c.32-.2,.74-.44,1.26-.67,.52-.23,1.14-.47,1.86-.69,1.44-.45,3.29-.84,5.55-1.22,2.27-.38,4.95-.74,8.11-1.27,2.24-.38,4.75-.86,7.25-1.55,2.49-.68,4.99-1.6,7.13-2.76,1.07-.57,2.04-1.21,2.88-1.84,.84-.64,1.54-1.28,2.09-1.85,.28-.28,.51-.55,.72-.78,.2-.24,.37-.45,.5-.62,.26-.35,.4-.54,.4-.54,0,0-.14,.19-.41,.53-.14,.17-.31,.37-.51,.61-.21,.23-.44,.49-.73,.77-.56,.55-1.26,1.18-2.1,1.79-.84,.61-1.81,1.23-2.88,1.77-2.13,1.1-4.6,1.96-7.08,2.6-2.48,.64-4.97,1.09-7.2,1.45-3.15,.5-5.83,.85-8.11,1.24-2.27,.38-4.14,.8-5.62,1.29-.74,.24-1.37,.51-1.91,.77-.54,.27-.96,.54-1.29,.78-.65,.5-.88,.84-.86,.86Z"/><path class="m" d="M209.54,143.79c.05,.06,.33-.2,1.09-.38,.75-.19,1.94-.31,3.59-.35,1.64-.04,3.75,0,6.34,.02,2.59,.02,5.68,.05,9.3-.14,2.57-.14,5.43-.41,8.24-.91,1.41-.26,2.8-.56,4.14-.93,1.34-.37,2.62-.8,3.79-1.26,1.18-.47,2.26-.98,3.19-1.48,.94-.51,1.74-1.02,2.39-1.47,.64-.45,1.14-.84,1.48-1.12,.33-.28,.51-.43,.51-.43,0,0-.18,.15-.52,.41-.34,.27-.85,.64-1.5,1.07-.66,.43-1.48,.91-2.42,1.39-.95,.48-2.03,.96-3.21,1.39-1.18,.43-2.45,.83-3.79,1.16-1.33,.33-2.72,.61-4.12,.84-2.8,.44-5.64,.67-8.19,.79-3.6,.16-6.68,.12-9.26,.1-2.59-.02-4.7-.03-6.37,.05-1.66,.08-2.89,.27-3.68,.55-.39,.14-.67,.3-.82,.44-.16,.14-.21,.23-.19,.25Z"/><path class="m" d="M244.38,104.85s.15-.13,.44-.39c.29-.26,.76-.63,1.41-1.05,.65-.43,1.49-.91,2.51-1.46,1.03-.55,2.25-1.18,3.69-1.93,1.02-.54,2.15-1.15,3.28-1.82,1.13-.68,2.26-1.42,3.24-2.2,.49-.39,.94-.79,1.33-1.17,.39-.39,.71-.76,.96-1.08,.25-.32,.42-.6,.54-.78,.06-.09,.1-.17,.12-.22,.03-.05,.04-.07,.04-.07l-.04,.07s-.07,.12-.13,.21c-.12,.18-.3,.45-.55,.77-.25,.32-.58,.68-.97,1.05-.39,.37-.84,.75-1.32,1.12-.97,.75-2.09,1.45-3.21,2.1-1.12,.64-2.25,1.23-3.27,1.76-1.43,.74-2.65,1.35-3.69,1.91-1.04,.56-1.88,1.06-2.55,1.52-.33,.23-.62,.44-.86,.64-.24,.2-.44,.38-.58,.53-.3,.31-.41,.49-.39,.5Z"/><path class="m" d="M250.92,86.52s.12,0,.26-.09c.07-.05,.16-.1,.26-.17,.11-.06,.23-.14,.39-.21,.31-.15,.73-.32,1.28-.47,.55-.15,1.24-.29,2.06-.45,.58-.12,1.22-.26,1.82-.46,.6-.21,1.15-.5,1.51-.87,.38-.36,.54-.8,.61-1.13,.01-.08,.03-.15,.04-.22,0-.07,0-.12,.01-.17,0-.09,0-.14,0-.14,0,0,0,.05-.02,.14,0,.05-.02,.1-.03,.17-.01,.06-.04,.13-.06,.21-.1,.3-.3,.71-.69,1.03-.38,.33-.94,.57-1.54,.74-.6,.17-1.25,.28-1.83,.39-.82,.14-1.52,.28-2.09,.44-.57,.16-1,.35-1.31,.54-.16,.09-.28,.19-.38,.27-.09,.09-.17,.16-.22,.23-.1,.14-.12,.22-.09,.25Z"/><path class="m" d="M223.43,136.53c.08,.05,.28-.14,.35-.72,.07-.58-.05-1.56-.56-2.95-.49-1.38-1.34-3.16-2.49-5.34-1.14-2.18-2.59-4.76-4.14-7.76-1.1-2.14-2.24-4.5-3.14-6.82-.91-2.32-1.54-4.59-1.77-6.5-.25-1.92-.08-3.46,.16-4.5,.13-.51,.26-.91,.37-1.17,.11-.26,.16-.41,.16-.41,0,0-.07,.14-.19,.39-.12,.26-.28,.64-.44,1.14-.31,1.01-.56,2.52-.4,4.44,.14,1.91,.7,4.19,1.54,6.53,.84,2.34,1.94,4.73,3.01,6.87,1.52,3.03,2.96,5.61,4.1,7.77,1.15,2.16,2.01,3.91,2.55,5.26,.54,1.35,.74,2.28,.79,2.87,.04,.58,0,.84,.1,.9Z"/><path class="m" d="M232.78,125.7s.05-.08,.05-.24c0-.08,0-.17,0-.29,0-.12-.02-.25-.05-.41-.09-.62-.37-1.52-.89-2.66-.53-1.14-1.31-2.51-2.36-4.11-1.04-1.61-2.34-3.45-3.77-5.68-.51-.79-1.03-1.64-1.55-2.52-.5-.88-1.01-1.8-1.46-2.75-.44-.95-.86-1.91-1.18-2.88-.18-.48-.3-.97-.44-1.45-.07-.24-.11-.48-.17-.72-.05-.24-.11-.47-.14-.71-.07-.47-.16-.92-.18-1.37-.02-.22-.03-.44-.05-.65,0-.21,0-.42,0-.62,0-.2,0-.4,0-.59,.01-.19,.03-.38,.04-.56,.01-.18,.03-.35,.04-.51,.02-.16,.05-.32,.07-.47,.05-.3,.08-.57,.13-.8,.05-.23,.1-.43,.14-.59,.08-.32,.12-.5,.12-.5,0,0-.05,.17-.14,.49-.04,.16-.1,.36-.16,.59-.06,.23-.1,.5-.16,.8-.03,.15-.06,.31-.08,.47-.02,.17-.04,.34-.05,.52-.02,.18-.04,.37-.06,.56-.01,.19-.01,.39-.02,.6,0,.2-.01,.41-.02,.63,0,.22,.02,.44,.03,.66,0,.45,.08,.92,.13,1.4,.02,.24,.08,.48,.12,.72,.05,.24,.08,.5,.14,.74,.12,.49,.24,1,.4,1.49,.29,1,.69,2,1.12,2.98,.43,.98,.92,1.92,1.41,2.83,.51,.9,1.01,1.77,1.52,2.57,1.42,2.26,2.72,4.11,3.75,5.71,1.05,1.59,1.84,2.91,2.39,4,.55,1.09,.86,1.92,1.03,2.48,.05,.14,.08,.26,.11,.37,.03,.11,.06,.19,.08,.26,.05,.14,.09,.2,.12,.2Z"/><path class="m" d="M238.45,115.05c.15,.11,.33,.01,.49-.37,.12-.4,.16-1.12-.08-2.28-.24-1.16-.77-2.76-1.58-4.8-.81-2.04-1.91-4.53-3.06-7.36-.81-2.01-1.64-4.2-2.18-6.2-.56-2.02-.75-3.81-.51-5.12,.24-1.31,.94-2.1,1.62-2.51,.18-.09,.33-.19,.48-.26,.16-.06,.3-.1,.42-.14,.23-.08,.36-.12,.36-.12,0,0-.15,.02-.4,.08-.13,.03-.28,.06-.47,.09-.17,.05-.34,.13-.55,.2-.79,.32-1.64,1.01-2.04,2.24-.4,1.22-.36,2.96,.08,4.94,.41,1.96,1.15,4.13,1.93,6.13,1.09,2.82,2.16,5.29,2.97,7.32,.82,2.03,1.39,3.62,1.72,4.8,.68,2.37,.45,3.1,.8,3.36Z"/><path class="m" d="M250.42,86.97c.06,0,.12-.1,.18-.36,.04-.25,.07-.65,0-1.19-.03-.27-.1-.56-.19-.89-.09-.32-.21-.67-.36-1.04-.29-.74-.68-1.58-1.08-2.58-.28-.71-.56-1.51-.76-2.34-.2-.83-.31-1.68-.36-2.44s-.02-1.43,0-1.91c.01-.24,.03-.43,.04-.56,.01-.13,.02-.2,.02-.2,0,0-.01,.07-.04,.2-.02,.13-.06,.32-.09,.55-.07,.47-.15,1.15-.16,1.92-.02,.78,.04,1.67,.19,2.54,.15,.88,.4,1.73,.67,2.47,.38,1.04,.77,1.89,1.05,2.61,.29,.72,.47,1.3,.57,1.78,.2,.94,.16,1.41,.31,1.43Z"/><path class="m" d="M210.52,143.07c.08,.02,.2-.21,.34-.73,.12-.52,.22-1.35,.13-2.49-.08-1.13-.36-2.55-.86-4.24-.5-1.69-1.23-3.66-2.14-5.92-1.29-3.22-3-7.09-3.91-10.3-.24-.8-.41-1.56-.55-2.24-.06-.34-.12-.67-.17-.97-.03-.3-.07-.59-.1-.84-.02-.26-.03-.49-.04-.69-.02-.2,0-.37,0-.52,0-.28,0-.44,0-.44,0,0,0,.15-.03,.44,0,.14-.03,.31-.02,.52,0,.2,0,.44,0,.7,.02,.26,.04,.54,.05,.85,.03,.31,.07,.64,.12,.99,.11,.69,.24,1.47,.45,2.28,.77,3.28,2.33,7.23,3.57,10.46,.88,2.27,1.58,4.22,2.08,5.88,.49,1.66,.79,3.03,.92,4.1,.26,2.16-.04,3.12,.16,3.17Z"/><path class="m" d="M244.86,104.68c.12,.09,.28-.01,.45-.36,.13-.37,.21-1.01,.09-2.02-.13-1.02-.47-2.4-1.02-4.16-.55-1.76-1.32-3.9-2.11-6.34-.56-1.73-1.12-3.62-1.44-5.37-.34-1.76-.38-3.34-.08-4.52,.3-1.18,.95-1.93,1.57-2.34,.16-.1,.3-.19,.43-.26,.14-.06,.27-.11,.37-.15,.2-.08,.31-.13,.31-.13,0,0-.13,.03-.35,.1-.11,.03-.25,.07-.41,.12-.15,.06-.3,.14-.48,.22-.7,.34-1.48,1.01-1.9,2.13-.42,1.12-.51,2.66-.27,4.38,.22,1.72,.7,3.59,1.23,5.32,.74,2.43,1.49,4.56,2.04,6.31,.57,1.75,.94,3.13,1.14,4.15,.42,2.06,.17,2.73,.46,2.93Z"/></g><path class="n" d="M208.26,143.53c15.46-3.91,24.62-19.92,30.88-33.51,6.56-14.68,10.59-30.26,15.42-45.71,0,8.22-.93,16.4-2.54,24.48-3.38,16.17-9.41,32.57-21.31,44.61-5.9,5.74-13.92,10.86-22.45,10.13h0Z"/></g><path class="h" d="M207.09,143.7s-14.53-22.54,5.98-41.4c4.52-4.15,13.82-7.27,18.38-11.38,22.39-20.21,17.02-18.25,22.1-25.11,0,0-5.72,9.55-20.57,20.46,0,0-13.8,9.63-15.99,11.38-7.08,5.63-13.17,7.52-16.31,22.21,0,0-4.41,21.19,6.42,23.85Z"/><path class="e" d="M209.59,147.91s9.25,12.15,28.01,2.66c0,0,31.17-20.29,24.36-50.05,0,0-7.59-28.18-7.06-32.44,0,0,1.25,6.44,5.18,17.05,0,0,6.95,22.91,3.08,35.21,0,0-1.26,20.66-27.07,34.08,0,0-17.67,11.59-26.49-6.51Z"/></g></g></g></g></g></g></g></svg>