<?xml version="1.0" encoding="UTF-8"?><svg id="a" xmlns="http://www.w3.org/2000/svg" xmlns:xlink="http://www.w3.org/1999/xlink" viewBox="0 0 718 661"><defs><style>.i{fill:#fff;}.j,.k{fill:#31d0e5;}.l{fill:#ad9e9e;}.m{fill:#98bc5c;}.n{fill:#77c9b0;}.o{fill:#c5db7f;}.p{opacity:.45;}.q{fill:url(#e);}.q,.r,.s,.t{stroke:#a1a8a7;}.q,.r,.s,.t,.k{stroke-miterlimit:10;}.u{opacity:.3;}.v{fill:url(#b);}.r{fill:url(#f);}.w{clip-path:url(#d);}.x{fill:none;}.y{opacity:.14;}.s{fill:url(#g);}.t{fill:url(#h);}.k{stroke:url(#c);stroke-width:6px;}</style><linearGradient id="b" x1="104.06" y1="155.82" x2="602.27" y2="497.19" gradientTransform="matrix(1, 0, 0, 1, 0, 0)" gradientUnits="userSpaceOnUse"><stop offset="0" stop-color="#9b81cf"/><stop offset="1" stop-color="#3b139b"/></linearGradient><linearGradient id="c" x1="66.74" y1="330.5" x2="651.26" y2="330.5" gradientTransform="matrix(1, 0, 0, 1, 0, 0)" gradientUnits="userSpaceOnUse"><stop offset="0" stop-color="#4c1da9"/><stop offset="1" stop-color="#997ece"/></linearGradient><clipPath id="d"><ellipse class="x" cx="359" cy="330.5" rx="286.63" ry="286.33"/></clipPath><linearGradient id="e" x1="411.62" y1="3167.2" x2="411.62" y2="3026.54" gradientTransform="translate(-2014.78 2134.15) rotate(-122.81)" gradientUnits="userSpaceOnUse"><stop offset="0" stop-color="#fff"/><stop offset=".44" stop-color="#fefefd"/><stop offset=".6" stop-color="#fbfaf6"/><stop offset=".71" stop-color="#f5f4ea"/><stop offset=".8" stop-color="#eeebd9"/><stop offset=".88" stop-color="#e4dfc3"/><stop offset=".95" stop-color="#d9d2a9"/><stop offset="1" stop-color="#cfc692"/></linearGradient><linearGradient id="f" x1="1540.1" y1="1372.15" x2="1653.77" y2="1372.15" gradientTransform="translate(-1758.07 574.09) rotate(-45.41)" xlink:href="#e"/><linearGradient id="g" x1="-1303.04" y1="9.35" x2="-1133.3" y2="9.35" gradientTransform="translate(-952.52 156.31) rotate(-179.91) scale(1 -1)" xlink:href="#e"/><linearGradient id="h" x1="-1197.81" y1="3360.37" x2="-1095.11" y2="3360.37" gradientTransform="translate(-958.43 3461.24) rotate(-175.1)" xlink:href="#e"/></defs><g><circle class="v" cx="359" cy="330.5" r="301.94"/><circle class="k" cx="359" cy="330.5" r="289.26"/></g><g class="w"><g><g><path class="j" d="M675.95,308.01c0,155.38-142.84,281.33-319.04,281.33S22.31,477,22.31,321.63,180.71,26.68,356.91,26.68s319.04,125.96,319.04,281.33Z"/><path class="o" d="M177.62,826.14S602.95,497.48-28.69,520.34"/><path class="m" d="M459.97,754.83c-156.2,0-366.93-24.77-366.93-71.73s187.14-176.28,591.55-198.07c155.98-8.4-68.41,269.8-224.62,269.8Z"/><ellipse class="y" cx="292.63" cy="649.17" rx="56.47" ry="13.1" transform="translate(-54.78 27.59) rotate(-4.94)"/><ellipse class="y" cx="533.08" cy="656.63" rx="56.48" ry="13.33" transform="translate(-97.21 92.65) rotate(-9.11)"/><ellipse class="y" cx="207.87" cy="620.03" rx="34.1" ry="9" transform="translate(-75.79 30.81) rotate(-7.17)"/><g class="u"><g><path class="i" d="M151.01,216.28s7.31-33.89,45.19-8.52c37.88,25.37-35.81,28.21-69.28,22.05-33.47-6.16,24.09-13.53,24.09-13.53Z"/><path class="i" d="M223.5,186.99c31.67,15.9,3.03,22.82-23.39,21.31-26.42-1.51-8.28-37.21,23.39-21.31Z"/></g><g><path class="i" d="M563.45,356.46s7.31-33.89,45.19-8.52c37.88,25.37-35.81,28.21-69.28,22.05-33.47-6.16,24.09-13.53,24.09-13.53Z"/><path class="i" d="M635.94,327.17c31.67,15.9,3.03,22.82-23.39,21.31-26.42-1.51-8.28-37.21,23.39-21.31Z"/></g></g><g class="p"><path class="n" d="M121.26,503.92s14.12-8.51,21.52,1.76c7.4,10.27,2.74,7.08-11.72,5.92-14.46-1.16-15.03-5.41-9.8-7.68Z"/><path class="n" d="M127.46,524.1s4.71-7.82,3.61-12.49c-1.35-5.73,1.2-2.13,1.2-2.13l.5,4.77,4.95-1.92s-5.51,2.18-4.52,6.1c.99,3.91,2.63,5.72,2.63,5.72l-8.37-.03Z"/></g></g><g><g><path class="q" d="M298.95,124.08s2.85,6.31-2.74,9.18c0,0,5.59-.19,5.44-5.92,0,0,.14,8.67,7.91,12.44,0,0-1.55-3.46,.22-6.9,0,0,1.21,7.48,5.88,10.86,0,0-2.65-3.15-1.6-8.15,0,0,1.1,4.29,3.71,5.79,0,0-2.06-2.99-1.15-5.91,0,0,1.08,5.63,6.04,7.82,0,0-2.37-2.54-2.84-4.92,0,0,5.64,8.22,22.7,8.76,25.14,.79,27.8-7.8,37.6-7.47,.72,.16-3.63-2.69-4.31-5.22,0,0,2.99,2.96,6.97,3,0,0-2.4-1.49-4.59-4.9,0,0,3.76,2.5,8.14,1.92,0,0-2.83-.78-5.28-4.59,0,0,3.84,2.3,8.21,1.48,0,0-3.81-1.32-6.55-3.77,0,0,4.19,1.58,9.45,.71,0,0-4.42-.79-7.74-3,0,0,5.85,2.47,10.51,.28,0,0-5.06-.52-8.67-2.86,0,0,6.69,2.25,10.17,1.28,0,0,15.2-10.59,21.47-33.11,0,0-2.27,2.9-5.77,4.55,0,0,4.56-3.67,7.51-10.35,0,0-1.35,1.56-3.97,2.92,0,0,4.11-3.98,4.92-7.87,0,0-1.16,2.58-5.08,4.61,0,0,5.9-5.64,5.46-17.52,0,0-.71,3.39-3,5.7,0,0,.04-17.59-16.42-24.19-4.42-1.78-15.02,8.98-16.45,18.23-.98,6.36,3.89,12.49,3.89,12.49,0,0-3.61-1.85-5.62-4.98,0,0,.2,2.8,3.28,5.88,0,0-2.68-.96-4.46-3.14,0,0,1.49,4.88,8.65,13.69,0,0-4.89-1.98-9.21-9.87,0,0-2.81,9.31-9.3,17.8-1.08,1.2,.94,1.42,2.2,3.68,1.26,2.26-2.76-2.94-4.23-1.46-1.49,1.51-1.97,2.13-1.8,3.17,.17,1.03,1.13,5.06,5.65,8.72,0,0-5.07-1.56-7.95-6.82,0,0,.92,5.27,4.82,7.51,0,0-4.61-1.8-7.39-5.11,0,0,1.97,5.64,6.42,7.36,0,0-5.28-.57-9.03-5.36,0,0,1.47,4.6,7.5,7.4,0,0-6-.55-10.03-6.07,0,0,.45,3.45,4.6,6.39,0,0-4.11-1.35-6.3-5.41,0,0,.46,4.87,5.33,7.41,0,0-4.16-1.1-6.78-5.56,0,0-.38,.64-.13,1.61,0,0-2.1,.19-3.35,.71,0,0,.09,3.82,3.44,6.41,0,0-3.82-1.5-4.72-5.92,0,0-1.37,.5-3.57,1.91-2.19,1.42-10.26,3.57-17.09,2.05,0,0-.21,3.85-3.69,6.11,0,0,1.44-3.32-1.31-7.9,0,0,1.29,5.89-2.99,8.66,0,0,2.54-4.84-2.64-10.93,0,0,2.78,5.87-.43,9.29,0,0-1.7-.23-3.95-3.3-2.25-3.07-4.23-4.17-6.31-4.93,0,0,3.66,3.73,4.61,7.17,0,0-1.12-1.78-3.35-3.2-2.23-1.42-5.09-3.24-6.08-5.89,0,0,0,3.38,3.77,6.31,0,0-2.64-.82-4.58-3.59-1.94-2.77-2.27-2.8-3.6-3.67,0,0,3.36,4.31,1.6,6.23l-2.01,2.27Z"/><path class="l" d="M284.11,113.55s18.44,20.72,55.96,21.7c36.72,.96,74.69-30.69,60.39-81.69,10.12,52.48-25.75,80.86-61.4,78.84-36.42-2.06-54.08-22.88-54.08-22.88-.59-.59-1.65,2.82-.87,4.03Z"/></g><g><path class="r" d="M267.94,389.36c-.39,.5-1.71,.81-4.66,.81,0,0,2.29,1.7,5.64,2.31,0,0-2.8,3-9.45,.47,0,0,3.81,4.74,10.38,2.97,0,0-2.11,2.93-8.31,4.52,0,0,3.68,2.02,9.04-.67,0,0-2.67,2.03-2.62,6.64,0,0,2.15-3.03,5.54-5.03,0,0-1.64,5.3,.78,11.04,0,0,.21-5.16,2.35-8.74,0,0-.85,3.19-.65,5.64,0,0-.09-1.34,2.37-3.41,0,0-1.96,1.87-.37,12.68,0,0,.4-2.55,6.01-6.93,0,0-2.22,4.52-.31,10.29,0,0,.13-2.32,1.22-4.9,0,0-.67,3.61,6.01,10.25,6.68,6.64,12.38,11.89,13.8,15.03,0,0,.57-3.46-1.31-6.91,0,0,9.52,8.64,33.93,12.3,0,0-5.21-3.13-7.01-8.08,0,0,3.89,4.17,10.43,7.3,0,0,22.01,4.44,44.1-6.24,0,0-3.8-.71-6.09-4.53,0,0,3,2.68,9.03,2.04,0,0,24.83-12.13,28.97-42.46,0,0-10.3,9.8-22.66,13.67,0,0-8.35,9.06-15.84,11,0,0,6.7-4.76,11.28-10.07,0,0-10.33,3.81-16.77,4.61,0,0-6.25,5-13.39,4.36,0,0,4.05-.8,9.4-4.59,0,0-5.31,1.15-16.93-2.75-11.62-3.89-21.88-6.45-42.97-6.4,0,0,5.79-3.73,20.24-2.73,0,0-6.23-3.03-17.39-3-11.16,.02-15.03,1.79-20.07,.04,0,0,11.47,.49,15.97-8.8,0,0-10.17,9.57-22.68,3.66,0,0,6.37,1.74,12.82-2.66,0,0-3.31,1.09-7.65-1.48-4.33-2.57-7.9-1.32-7.9-1.32,0,0,3.52-1.09,4.54-5.89,0,0-3.18,3.64-6.18,3.64,0,0,2.87-2.43,2.83-6.13,0,0-2.23,4.54-6.72,6.14,0,0,2.56-2.62,2.51-7.02,0,0-2.55,4.77-7.14,6.53,0,0,2.98-3.69,.05-7.07,0,0,.67,4.24-2.71,7.7,0,0-1,1.58-1.45,2.15Z"/><path class="l" d="M242.22,362.83s24.84,30.72,53.85,50.91c32.89,22.89,86.87,27.86,117.25-12.09,0,0-19.39,27.14-62.6,27.24-41.22,.09-75.84-32.22-105.67-69.09-.49-.56-3.46,2.26-2.83,3.03Z"/></g><g><path class="s" d="M349.67,202.42s-2.01-4.69-4.03-8.52c-2.01-3.84-2.55-7.34-2.56-11.06,0,0-3.67,6.3-.32,15.4,0,0-6.39-7.16-5.1-16.18,0,0-4.14,5.13-.8,14.87,0,0-7.34-8.65-7.37-19.27,0,0-4.16,5.07,0,15.37,0,0-2.6-2-4.8-7.96-2.19-5.96-5.22-7.75-8.73-9.4-3.51-1.65-10.19-4.95-11.96-10.48,0,0-.18,12.04,10.59,20.39,0,0-7.52-1.89-13.24-14.67-5.72-12.78-15.54-19.75-24.08-23.94-8.54-4.19-34.36-12.74-38.93-25.41,0,0-1.99,3.71,1.41,12.65,3.4,8.94-1.54,11.89-1.54,11.89,0,0,3.39-12.03-7.12-22.67-5.54-5.61-10.41-6.19-11.68-10.73,0,0-.34,3.75,3.96,9.65,4.3,5.9,4.18,13.9,3,16.31,0,0-1.84-14.52-10.67-22.51-12.6-11.41-28.23-4.56-32.31-6.5,0,0-7.02,22.47,10.39,37.35,0,0-5.59-3.96-12.96-3.16,0,0,3.44,1.01,10.06,7.71,6.62,6.7,16.89,14.27,28.97,16.96,0,0-13.06,.42-22.91-7.29,0,0,6.78,12.36,30.02,16.82,0,0-11.58,1.28-19.94-1.89,0,0,7.74,6.07,22.76,6.16,0,0-3.57,3.73-11.78,4.32,0,0,2.32,.08,8.93,4.16,6.61,4.08,48.67,30.11,82.13,20.97,0,0-3.99,2.6-3.97,10.31,0,0,2.36-8.2,12.88-11.39,0,0-5.46,5.35-2.91,14.64,0,0,1.38-7.85,9.16-13.96,0,0-.47,7.43,7.13,14.49,0,0-3.11-7.1-1.59-15.3,0,0,3.32,8.59,11.06,11.75,0,0-4.51-4.21-5.02-12.92,0,0,3.46,7.81,12.87,8.15,0,0-6.05-3.51-7.22-7.3,0,0,5.51,.14,9.01-4.3l-.78-3.48Z"/><path class="l" d="M372.35,203.48s-39.56,11.88-100.55-14.68c-55.55-24.2-74.82-62.57-74.82-62.57,0,0,25.22,37.61,78.72,59.8,61.43,25.47,94.24,11.55,94.24,11.55,1.02-.38,3.15,5.69,2.4,5.89Z"/></g><g><path class="t" d="M428.23,278.71s1.85,2.42,.01,8.2c0,0,3.1-2.38,3.05-6.94,0,0,3.22,1.88,4.97,5.53,0,0,1.17-3.74-2.75-6.55,0,0,5.28,1,8.46,4.72,0,0-.53-4.2-5.32-5.71,0,0,8.59,1.15,14.55,4.51,0,0-1.94-3.87-6.24-4.98,0,0,9.21-.23,12.18,1.53,0,0-.24-2.79-4.85-4.54,0,0,4.54,.67,8.87,.2,4.33-.47,5.52-1.95,7.61-4.48,2.09-2.52,4.08-1.88,7.29-3.69,3.21-1.81,4.63-1.73,7.5-6.95,2.87-5.22,10.03-6.71,15.93-17.96,0,0-3.98,3.21-8.24,2.78-4.26-.43-6.68-1.73-10.66,.71,0,0,.58-2.98,5.65-3.63,5.07-.65,9.04-.6,13.01-3.22,4.49-2.97,4.43-7.55,11.18-10.54,0,0-2.27-.32-5.63,1.4-3.35,1.73-6.13,.55-6.13,.55,0,0,5.38,.28,11.14-5.45,5.77-5.72,4.87-11.85,9.9-23.69,5.03-11.84,5.13-16.95,4.7-24.47-1.19-12,2.53-17.35-.67-22.4-8.3-13.11-5.96-15-10.58-18.5-1.24-.9-7.68,1.55-16.42,7.43-2.27,1.64-3.25,3.01-1.89,7.74,1.36,4.74,2.58,7.97,1.76,13.84,0,0-.37-8.18-6.61-13.88,0,0-.11,3.94-4.11,13.2-4,9.27-14.4,21.84-16.59,31.37-3.77,14,5.39,20.89,1.81,29.89,0,0,.81-5.05-3.79-10.08-4.6-5.03-4.5-11.48-3.1-16.27,0,0-4.33,4.42-3.72,14.72,.61,10.3,5.69,14.56,3.31,25.21,0,0,.27-5.92-2.85-14.2-3.12-8.28-4.65-9.65-4.21-15.14,0,0-1.22,3.17-1.74,6.45-.52,3.28-1.19,4.04-2.77,7.18-1.58,3.13-3.13,9.14-2.02,12.62,0,0-2.54-4.08-.9-11.2,0,0-3.99,4.05-5.12,10.39-1.44,8.16-.04,15.93-1.89,22.53,0,0,.38-2.17-.89-7.41-1.81-8.11,.89-12.52-3.24-17.1,0,0,.92,5.11-2.47,9.3-3.4,4.2-4.94,4.98-6.2,11.83-1.26,6.85-.55,7.58-2.8,10.76,0,0,2.6-8.27-2.9-14.2,0,0,1.56,3.47,1.18,8.97-.39,5.5-.51,7.08-.03,8.76-1.99-3.54-.8-6.97-8.63-9.18,0,0,6.28,3.88,6.59,10.1,0,0-3.2-3.14-8.71-1.26,0,0,8.13,2.25,11.44,6.93,0,0-5.06-2.89-10.96,.11,0,0,6.59-1.05,11.46,2.82l2.09,1.34Z"/><path class="l" d="M510.62,150.33c-11.71,97.46-92.36,131.84-106.82,136.97-.29,.12,1.62,3.35,2.16,3.19,0,0,96.16-33.14,104.66-140.16Z"/></g></g></g></g></svg>