<?xml version="1.0" encoding="UTF-8"?><svg xmlns="http://www.w3.org/2000/svg" xmlns:xlink="http://www.w3.org/1999/xlink" viewBox="0 0 443.78 451.48"><defs><style>.e{fill:#204910;opacity:.32;}.f{opacity:.5;}.g{fill:#8fc12f;}.g,.h{opacity:.51;}.i{isolation:isolate;}.h{fill:#b6f261;}.j{fill:#48bc28;stroke:#45a525;}.j,.k,.l{stroke-miterlimit:10;}.m{mix-blend-mode:screen;opacity:.69;}.m,.n{fill:#b0e573;}.o{fill:url(#b);}.p{clip-path:url(#d);}.q{fill:none;}.r{fill:#353535;}.k{fill:#41a022;stroke:#38841c;stroke-width:.5px;}.l{fill:#31d0e5;stroke:url(#c);stroke-width:6px;}</style><linearGradient id="b" x1="43.17" y1="103.28" x2="392.43" y2="342.6" gradientTransform="matrix(1, 0, 0, 1, 0, 0)" gradientUnits="userSpaceOnUse"><stop offset="0" stop-color="#9b81cf"/><stop offset="1" stop-color="#3b139b"/></linearGradient><linearGradient id="c" x1="16.1" y1="225.74" x2="427.68" y2="225.74" gradientTransform="matrix(1, 0, 0, 1, 0, 0)" gradientUnits="userSpaceOnUse"><stop offset="0" stop-color="#4c1da9"/><stop offset="1" stop-color="#997ece"/></linearGradient><clipPath id="d"><circle class="q" cx="225.89" cy="228.06" r="209.22"/></clipPath></defs><g class="i"><g id="a"><g><path class="f" d="M435.12,236.99c0-36.23-9.21-70.32-25.42-100.03-35.31-67.72-106.15-113.96-187.81-113.96C104.98,23,10.21,117.77,10.21,234.67s94.77,211.68,211.68,211.68c2.97,0,5.93-.08,8.87-.2,113.3-2.59,204.36-95.24,204.36-209.16Z"/><g><g><circle class="o" cx="221.89" cy="225.74" r="211.68"/><circle class="l" cx="221.89" cy="225.74" r="202.78"/></g><g class="p"><g><g><g><path class="k" d="M130.16,261.12s-23.66-1.19-34.48,11.24l.16,6.91s8.9-13.48,32.92-16.77l1.4-1.37Z"/><path class="e" d="M95.84,279.27s8.47-13.74,32.92-16.77l.63-.62s-26.07,2.01-33.58,16.09l.02,1.31Z"/><path class="g" d="M95.68,272.36s8.61-9.5,26.09-10.93c0,0-15.23,2.05-26.05,11.23l-.04-.3Z"/></g><g><g><path class="q" d="M298.69,292.98c-.06,.02-.13,.04-.19,.07-.11,.03-.27,.07-.48,.11,.23-.06,.45-.12,.68-.18Z"/><path class="r" d="M299.92,292.32c.06-.02,.13-.05,.19-.06,.13-.05,.45-.08,.35,.17-.11,.25-.4,.4-.63,.49-.06,.03-.13,.05-.19,.07-.12,.04-.45,.08-.34-.17,.1-.23,.4-.42,.63-.49,.06-.02,.13-.04,.19-.06-.09,.22-.19,.44-.29,.65-.06,.02-.13,.04-.19,.07-.13,.04-.45,.08-.34-.17,.11-.24,.4-.41,.63-.49Z"/><path class="j" d="M176.6,294.46c-59.2-18.19-51.49-32.51-51.49-32.51-5.63-5.79,.82-22.86,36.85-29.24,27.61-4.89,37.67,5.72,72.03,28.36,38.62,25.45,60.26,27.3,63.58,26.61-20.14,5.3-76.79,20.35-120.97,6.78Z"/><path class="k" d="M108.7,295.79c-3.29-12.85,5.51-29.15,16.42-33.84,0,0,13,27.17,68.36,34.09,45.75,5.72,83.49-2.83,103.64-8.13,.21-.04,.37-.08,.48-.11-14.01,4.53-34.75,28.75-66.23,44.98-64.15,33.06-118.04-18.94-122.66-36.99Z"/></g><g><path class="m" d="M226.87,334.89s-.12-.09-.4-.2c-.27-.1-.68-.27-1.22-.49-1.08-.46-2.69-1.22-4.63-2.49-1.95-1.26-4.2-3.02-6.66-5.3-2.46-2.28-5.13-5.08-8.06-8.39-2.09-2.35-4.34-4.98-6.61-7.58-2.28-2.6-4.59-5.18-6.86-7.42-2.26-2.23-4.5-4.12-6.42-5.29-.95-.59-1.79-.98-2.39-1.22-.15-.06-.28-.11-.4-.15-.12-.04-.22-.07-.3-.1-.16-.05-.24-.08-.24-.08,0,0,.08,.03,.24,.09,.08,.03,.18,.06,.29,.1,.12,.04,.24,.1,.39,.16,.59,.24,1.42,.65,2.34,1.25,1.87,1.18,4.03,3.08,6.21,5.32,2.18,2.24,4.41,4.83,6.62,7.44,2.21,2.61,4.4,5.25,6.48,7.62,2.91,3.33,5.58,6.15,8.08,8.46,2.5,2.31,4.82,4.1,6.87,5.38,2.04,1.29,3.77,2.04,4.92,2.45,.58,.2,1.01,.33,1.31,.39,.29,.07,.43,.09,.44,.06Z"/><path class="m" d="M148.93,284.9c-.04,.09,.63,.38,1.8,1.21,.58,.43,1.28,.99,2.05,1.74,.77,.75,1.6,1.67,2.49,2.78,1.78,2.21,3.74,5.17,5.96,8.87,2.23,3.7,4.71,8.14,7.81,13.3,2.21,3.66,4.78,7.71,7.71,11.6,2.92,3.89,6.25,7.62,9.75,10.56,1.73,1.48,3.52,2.74,5.21,3.77,1.7,1.03,3.3,1.81,4.68,2.38,.68,.29,1.32,.51,1.86,.71,.56,.18,1.04,.33,1.43,.45,.79,.21,1.21,.32,1.21,.32,0,0-.43-.12-1.21-.35-.39-.13-.86-.29-1.41-.48-.54-.21-1.17-.44-1.84-.74-1.35-.59-2.93-1.39-4.59-2.44-1.65-1.05-3.39-2.33-5.08-3.81-3.4-2.96-6.61-6.7-9.44-10.58-2.83-3.89-5.33-7.93-7.5-11.59-3.05-5.16-5.51-9.61-7.76-13.32-2.24-3.71-4.25-6.69-6.13-8.93-.94-1.12-1.83-2.05-2.66-2.8-.84-.75-1.61-1.31-2.25-1.72-1.32-.8-2.07-.96-2.09-.91Z"/><path class="m" d="M125.54,264.36c-.06,.13,.58,.44,1.42,1.65,.85,1.18,1.88,3.19,3.08,6.03,1.2,2.85,2.59,6.55,4.34,11.1,1.75,4.55,3.83,9.96,6.66,16.16,2.01,4.4,4.46,9.21,7.29,13.78,1.42,2.28,2.92,4.51,4.49,6.59,1.57,2.08,3.2,4.02,4.83,5.76,1.63,1.74,3.26,3.27,4.8,4.56,1.54,1.29,2.99,2.34,4.22,3.17,1.24,.81,2.26,1.42,2.98,1.81,.72,.39,1.11,.6,1.11,.6,0,0-.38-.22-1.09-.63-.7-.41-1.7-1.05-2.92-1.89-1.2-.86-2.61-1.95-4.1-3.27-1.49-1.32-3.07-2.88-4.64-4.65-1.57-1.76-3.14-3.72-4.65-5.82-1.5-2.1-2.95-4.33-4.3-6.62-2.71-4.59-5.07-9.39-7.03-13.78-2.76-6.19-4.82-11.59-6.57-16.13-1.75-4.54-3.18-8.24-4.48-11.1-1.3-2.85-2.46-4.87-3.51-6.05-.52-.58-.99-.96-1.34-1.13-.35-.18-.55-.2-.57-.15Z"/><path class="m" d="M217.66,298.4s.33,.18,.99,.51c.66,.33,1.62,.89,2.82,1.73,1.19,.84,2.62,1.97,4.29,3.39,1.68,1.42,3.61,3.12,5.92,5.11,1.64,1.41,3.49,2.97,5.45,4.48,1.96,1.51,4.05,2.97,6.09,4.14,1.02,.58,2.02,1.1,2.97,1.51,.94,.41,1.82,.72,2.56,.93,.74,.21,1.33,.33,1.74,.4,.2,.04,.36,.05,.46,.07,.1,.01,.16,.02,.16,.02,0,0-.06,0-.16-.02-.1-.02-.26-.04-.46-.08-.4-.08-.99-.21-1.72-.43-.72-.22-1.58-.55-2.5-.97-.92-.42-1.89-.94-2.88-1.53-1.98-1.18-3.98-2.65-5.89-4.17-1.9-1.52-3.71-3.08-5.33-4.5-2.28-1.99-4.2-3.71-5.89-5.13-1.69-1.42-3.16-2.56-4.42-3.41-.63-.43-1.21-.78-1.72-1.06-.51-.29-.97-.5-1.33-.65-.75-.31-1.13-.37-1.14-.34Z"/><path class="m" d="M254.23,297.2c-.03,.08,.08,.21,.33,.39,.13,.09,.28,.21,.47,.34,.18,.15,.41,.31,.64,.54,.48,.43,1.06,1.05,1.71,1.91,.65,.86,1.36,1.97,2.21,3.28,.6,.93,1.29,1.95,2.06,2.85,.77,.9,1.66,1.66,2.56,2.04,.9,.41,1.78,.39,2.39,.29,.15-.03,.29-.05,.41-.08,.12-.04,.22-.07,.31-.1,.17-.05,.26-.08,.26-.08,0,0-.09,.02-.26,.05-.08,.02-.19,.04-.31,.07-.12,.02-.25,.02-.41,.04-.6,.04-1.45-.03-2.27-.5-.84-.45-1.64-1.25-2.35-2.18-.71-.94-1.35-1.99-1.94-2.93-.82-1.33-1.54-2.47-2.21-3.36-.67-.88-1.3-1.51-1.84-1.92-.26-.21-.52-.35-.73-.47-.22-.1-.4-.18-.55-.22-.31-.07-.46-.06-.49,.02Z"/><path class="m" d="M147.82,283.65c-.03,.17,.44,.38,1.51,.12,1.06-.28,2.69-1.17,4.77-3.02,2.08-1.82,4.6-4.53,7.61-8.04,3.02-3.5,6.52-7.82,10.71-12.6,2.98-3.39,6.32-7.02,9.76-10.19,3.43-3.18,6.96-5.87,10.15-7.59,3.19-1.76,6-2.54,7.97-2.83,.99-.12,1.77-.17,2.3-.17,.53,0,.82,0,.82,0,0,0-.29-.02-.81-.07-.53-.03-1.31-.04-2.29,0-1.97,.16-4.8,.77-8.03,2.37-3.24,1.57-6.84,4.11-10.35,7.2-3.51,3.07-6.93,6.65-9.94,10.01-4.24,4.75-7.76,9.05-10.76,12.54-2.99,3.5-5.45,6.22-7.44,8.08-1.99,1.88-3.48,2.86-4.47,3.36-.99,.48-1.47,.58-1.5,.79Z"/><path class="m" d="M173.21,292.51c.04,.05,.18,.03,.45-.08,.13-.05,.3-.12,.5-.22,.2-.09,.43-.2,.68-.37,1.01-.59,2.41-1.69,4.04-3.4,1.63-1.71,3.48-4.03,5.55-6.97,2.1-2.93,4.42-6.48,7.32-10.52,1.03-1.44,2.15-2.93,3.33-4.44,1.2-1.49,2.45-3,3.8-4.44,1.35-1.43,2.75-2.82,4.23-4.05,.72-.64,1.49-1.2,2.23-1.76,.37-.29,.76-.53,1.14-.79,.38-.24,.74-.52,1.14-.73,.77-.45,1.5-.91,2.26-1.26,.37-.18,.74-.36,1.09-.54,.37-.16,.73-.29,1.08-.44,.35-.14,.69-.29,1.03-.41,.35-.11,.68-.21,1-.32,.32-.1,.63-.2,.92-.29,.3-.08,.59-.14,.87-.21,.55-.12,1.04-.26,1.49-.33,.44-.07,.82-.12,1.13-.17,.62-.09,.95-.14,.95-.14,0,0-.34,.03-.96,.1-.31,.03-.69,.07-1.14,.13-.45,.06-.95,.17-1.5,.27-.28,.06-.58,.11-.88,.18-.3,.08-.61,.17-.94,.26-.33,.09-.67,.19-1.02,.28-.34,.11-.69,.25-1.06,.38-.36,.13-.74,.26-1.11,.41-.37,.17-.75,.34-1.13,.51-.79,.33-1.55,.77-2.35,1.19-.41,.21-.78,.47-1.18,.71-.39,.25-.81,.49-1.19,.76-.77,.55-1.58,1.1-2.33,1.73-1.55,1.21-3.02,2.58-4.43,4.01-1.41,1.43-2.72,2.93-3.97,4.42-1.23,1.51-2.39,2.99-3.44,4.43-2.97,4.04-5.31,7.58-7.39,10.5-2.05,2.93-3.82,5.23-5.34,6.94-1.52,1.71-2.76,2.84-3.63,3.52-.21,.19-.4,.32-.56,.45-.17,.13-.3,.23-.41,.33-.2,.18-.29,.3-.26,.35Z"/><path class="m" d="M195.74,295.07c-.08,.34,.21,.59,.98,.6,.79-.07,2.07-.49,3.92-1.72,1.86-1.22,4.29-3.25,7.3-6.07,3.01-2.82,6.6-6.46,10.75-10.43,2.95-2.81,6.2-5.77,9.34-8.1,3.14-2.37,6.15-3.95,8.6-4.43,2.46-.49,4.33,.19,5.51,1.11,.29,.25,.56,.44,.78,.66,.21,.23,.39,.46,.53,.63,.29,.35,.46,.54,.46,.54,0,0-.14-.24-.42-.65-.13-.21-.3-.46-.49-.76-.21-.26-.46-.51-.73-.82-1.11-1.16-2.9-2.18-5.33-2.02-2.41,.15-5.42,1.42-8.57,3.54-3.15,2.08-6.42,4.87-9.38,7.61-4.17,3.85-7.76,7.43-10.74,10.25-2.98,2.84-5.37,4.92-7.2,6.32-3.67,2.81-5.11,2.92-5.32,3.72Z"/><path class="m" d="M253.1,296.62c.03,.11,.26,.14,.74,.06,.47-.1,1.19-.33,2.07-.83,.45-.24,.91-.56,1.42-.94,.5-.39,1.03-.83,1.57-1.34,1.1-1.02,2.29-2.29,3.77-3.66,1.05-.98,2.26-2.02,3.57-2.94,1.31-.92,2.71-1.7,4.01-2.31,1.3-.6,2.48-1.03,3.34-1.31,.42-.14,.77-.24,1.01-.31,.24-.07,.36-.11,.36-.11,0,0-.13,.03-.37,.07-.24,.05-.59,.12-1.03,.22-.87,.21-2.1,.53-3.48,1.05-1.38,.51-2.89,1.22-4.31,2.09-1.43,.87-2.75,1.89-3.86,2.88-1.56,1.39-2.77,2.65-3.83,3.64-1.05,1-1.95,1.73-2.71,2.23-1.51,1-2.35,1.26-2.28,1.52Z"/><path class="m" d="M127.47,265.59c.01,.15,.5,.21,1.51,.09,1-.16,2.52-.55,4.44-1.48,1.91-.93,4.21-2.38,6.83-4.42,2.61-2.05,5.55-4.68,8.88-7.84,4.73-4.48,10.32-10.14,15.3-13.95,1.24-.97,2.44-1.8,3.54-2.52,.56-.34,1.08-.67,1.58-.96,.51-.27,.98-.53,1.4-.76,.44-.2,.83-.39,1.18-.55,.34-.17,.65-.26,.9-.37,.5-.19,.77-.3,.77-.3,0,0-.28,.09-.78,.25-.25,.09-.57,.17-.92,.32-.36,.14-.76,.31-1.21,.49-.44,.21-.92,.44-1.45,.68-.51,.27-1.06,.57-1.64,.88-1.14,.67-2.39,1.44-3.68,2.36-5.2,3.6-11.04,9.06-15.82,13.46-3.36,3.11-6.29,5.68-8.84,7.7-2.56,2.01-4.75,3.46-6.54,4.43-3.6,1.94-5.49,2.1-5.44,2.47Z"/><path class="m" d="M218.3,299.12c-.07,.27,.22,.49,.94,.53,.73-.02,1.91-.32,3.59-1.24,1.69-.92,3.87-2.48,6.57-4.66,2.69-2.18,5.9-5,9.62-8.07,2.64-2.17,5.56-4.46,8.4-6.23,2.84-1.81,5.58-2.97,7.84-3.27,2.28-.3,4.04,.33,5.18,1.12,.28,.22,.54,.38,.75,.57,.21,.2,.38,.39,.52,.54,.29,.3,.44,.46,.44,.46,0,0-.14-.2-.41-.54-.13-.17-.29-.38-.49-.64-.2-.22-.45-.43-.71-.69-1.08-.99-2.78-1.89-5.04-1.86-2.24,.03-5,.94-7.85,2.55-2.85,1.57-5.8,3.71-8.45,5.83-3.74,2.97-6.95,5.75-9.62,7.92-2.67,2.2-4.82,3.8-6.47,4.86-3.31,2.15-4.65,2.18-4.81,2.82Z"/></g><path class="n" d="M125.11,261.95c11.31,19.29,36.37,27.89,57.38,31.28,37.65,5.82,75.64,.25,113.1-5.02-36.62,11.11-75.99,17.36-114.08,10.6-15.24-2.96-30.5-8.43-42.59-18.41-5.83-5.04-11.28-11.08-13.8-18.45h0Z"/></g><path class="h" d="M124.01,260.03s29.39-40.96,76.5-18.11c10.38,5.03,22.25,19.15,32.58,24.27,50.79,25.19,43.66,17.16,59.16,21.3,0,0-20.65-3.41-49.96-21.84,0,0-26.36-17.47-30.93-20.11-14.73-8.49-22.23-17.84-50.08-13.19,0,0-40.09,6.91-37.27,27.68Z"/><path class="e" d="M118.36,267.31s-14.87,24.55,14.69,50.81c0,0,57,40.5,104.32,8.04,0,0,44.03-32.72,51.84-34.73,0,0-10.39,6.63-26.24,20.82,0,0-35.25,27.97-59.44,29.69,0,0-37,12.05-78.28-23.81,0,0-32.46-22.9-6.9-50.82Z"/></g><g><g><path class="k" d="M323.63,239.3s1.07,16.01,10.29,22.31l4.63-.65s-9.77-4.92-13.89-20.82l-1.03-.83Z"/><path class="e" d="M338.55,260.95s-9.91-4.61-13.89-20.82l-.47-.38s3.41,17.38,13.48,21.32l.88-.12Z"/><path class="g" d="M333.92,261.6s-7.07-5.04-9.42-16.68c0,0,2.59,10.09,9.62,16.63l-.2,.05Z"/></g><g><g><path class="q" d="M331.71,123.4s.04,.08,.06,.13c.03,.07,.07,.18,.11,.32-.06-.15-.11-.3-.18-.44Z"/><path class="r" d="M331.17,122.62s-.04-.08-.06-.12c-.04-.09-.09-.3,.08-.25,.18,.05,.3,.23,.38,.39,.02,.04,.04,.08,.06,.12,.04,.08,.09,.3-.08,.25-.17-.05-.32-.23-.38-.39-.02-.04-.04-.09-.06-.12,.15,.05,.31,.09,.46,.14,.02,.04,.04,.08,.06,.12,.04,.08,.09,.3-.08,.25-.17-.05-.31-.24-.38-.39Z"/><path class="j" d="M342.38,205.41c-7.55,41.26-17.79,37.21-17.79,37.21-3.45,4.24-15.44,1.26-22.59-22.48-5.48-18.19,.87-25.8,13.38-50.7,14.06-27.99,13.59-42.7,12.87-44.88,5.16,13.13,19.77,50.05,14.14,80.84Z"/><path class="k" d="M348.65,250.99c-8.39,3.23-20.05-1.4-24.06-8.36,0,0,17.25-10.9,17.52-48.69,.23-31.23-8.52-55.94-13.68-69.08-.04-.14-.09-.24-.11-.32,4.16,9.07,22.09,21.1,35.5,40.99,27.32,40.53-3.39,80.91-15.17,85.45Z"/></g><g><path class="m" d="M365.59,168.4s-.05,.09-.1,.28c-.05,.19-.13,.48-.23,.86-.22,.76-.61,1.9-1.31,3.31-.69,1.41-1.7,3.07-3.04,4.9-1.34,1.84-3.01,3.85-5,6.09-1.42,1.59-3.01,3.31-4.58,5.05-1.57,1.74-3.12,3.5-4.45,5.2-1.32,1.7-2.42,3.36-3.05,4.74-.32,.68-.52,1.28-.63,1.7-.03,.11-.05,.2-.07,.28-.02,.08-.03,.15-.04,.21-.02,.11-.04,.17-.04,.17,0,0,.01-.06,.04-.17,.01-.05,.03-.12,.05-.2,.02-.08,.05-.17,.08-.28,.12-.41,.33-1,.65-1.67,.65-1.35,1.75-2.96,3.09-4.6,1.34-1.65,2.9-3.35,4.48-5.04,1.58-1.69,3.18-3.38,4.61-4.96,2.01-2.22,3.69-4.24,5.05-6.1,1.36-1.86,2.38-3.57,3.08-5.05,.7-1.48,1.08-2.7,1.26-3.5,.09-.41,.14-.71,.16-.91,.02-.2,.02-.3,0-.3Z"/><path class="m" d="M338.13,224.78c.06,.02,.2-.45,.67-1.31,.24-.42,.56-.94,1.01-1.51,.44-.58,.99-1.21,1.67-1.9,1.35-1.37,3.18-2.93,5.49-4.71,2.31-1.79,5.1-3.81,8.33-6.31,2.29-1.77,4.81-3.82,7.19-6.1,2.38-2.27,4.63-4.81,6.33-7.4,.86-1.28,1.57-2.59,2.12-3.81,.56-1.22,.96-2.37,1.23-3.33,.14-.48,.24-.93,.33-1.31,.08-.39,.14-.72,.19-1,.08-.55,.12-.84,.12-.84,0,0-.05,.3-.14,.84-.05,.27-.12,.6-.21,.99-.1,.38-.2,.82-.35,1.3-.29,.96-.7,2.08-1.28,3.28-.57,1.19-1.3,2.47-2.16,3.72-1.72,2.52-3.98,4.98-6.37,7.19-2.4,2.22-4.91,4.21-7.21,5.96-3.23,2.46-6.03,4.47-8.35,6.28-2.32,1.8-4.17,3.39-5.52,4.83-.68,.72-1.24,1.4-1.67,2.01-.44,.62-.76,1.19-.98,1.65-.43,.95-.48,1.47-.45,1.48Z"/><path class="m" d="M326.17,242.15c.09,.03,.25-.43,.99-1.08,.73-.67,1.99-1.52,3.81-2.55,1.82-1.04,4.2-2.26,7.12-3.8,2.92-1.54,6.4-3.37,10.35-5.76,2.8-1.7,5.84-3.73,8.69-5.99,1.42-1.14,2.8-2.32,4.08-3.54,1.28-1.22,2.45-2.47,3.49-3.71,1.04-1.23,1.94-2.45,2.69-3.59,.75-1.14,1.34-2.19,1.8-3.09,.45-.9,.78-1.63,.98-2.15,.21-.51,.32-.79,.32-.79,0,0-.12,.28-.34,.78-.22,.51-.57,1.23-1.04,2.11-.49,.88-1.1,1.91-1.88,3.02-.77,1.11-1.7,2.29-2.76,3.49-1.06,1.2-2.25,2.41-3.55,3.59-1.29,1.18-2.68,2.33-4.11,3.42-2.87,2.19-5.92,4.15-8.71,5.82-3.94,2.35-7.41,4.16-10.33,5.7-2.92,1.54-5.29,2.8-7.11,3.9-1.82,1.1-3.08,2.04-3.79,2.84-.35,.39-.57,.74-.66,.99-.09,.25-.09,.38-.06,.4Z"/><path class="m" d="M341.77,177.48s.09-.24,.26-.71c.17-.47,.47-1.16,.94-2.03,.47-.87,1.12-1.92,1.94-3.16,.82-1.24,1.82-2.68,2.97-4.38,.82-1.22,1.72-2.59,2.58-4.02,.86-1.44,1.68-2.96,2.3-4.42,.31-.73,.58-1.45,.78-2.12,.2-.67,.34-1.28,.42-1.79,.08-.51,.12-.92,.13-1.2,0-.14,0-.24,0-.32,0-.07,0-.11,0-.11,0,0,0,.04,0,.11,0,.07,0,.18-.02,.32-.02,.28-.06,.69-.16,1.19-.09,.51-.24,1.11-.45,1.76-.21,.65-.48,1.35-.8,2.06-.64,1.42-1.47,2.89-2.34,4.29-.87,1.4-1.78,2.74-2.6,3.94-1.16,1.69-2.16,3.12-2.98,4.37-.82,1.25-1.47,2.33-1.95,3.24-.24,.46-.43,.87-.58,1.24-.15,.37-.26,.69-.33,.95-.15,.53-.16,.79-.14,.79Z"/><path class="m" d="M338.07,152.98c.06,.01,.14-.07,.23-.26,.05-.09,.12-.2,.19-.34,.09-.13,.18-.3,.31-.47,.25-.36,.62-.8,1.15-1.3,.53-.51,1.22-1.07,2.03-1.75,.58-.48,1.21-1.02,1.76-1.61,.55-.59,.99-1.25,1.17-1.89,.21-.64,.12-1.23,0-1.63-.03-.1-.06-.19-.09-.27-.04-.08-.06-.14-.09-.2-.05-.11-.08-.17-.08-.17,0,0,.02,.06,.06,.17,.02,.06,.04,.12,.07,.2,.02,.08,.04,.17,.06,.27,.07,.4,.1,.97-.15,1.57-.23,.6-.71,1.21-1.28,1.76-.57,.55-1.23,1.07-1.82,1.54-.83,.66-1.54,1.23-2.08,1.75-.54,.52-.91,1-1.14,1.39-.12,.19-.2,.38-.26,.53-.05,.16-.09,.28-.11,.39-.02,.21,0,.32,.05,.33Z"/><path class="m" d="M337.38,225.63c.12,0,.22-.32-.04-1.02-.27-.69-1-1.72-2.41-2.97-1.39-1.26-3.41-2.74-6.01-4.48-2.6-1.75-5.78-3.77-9.32-6.21-2.52-1.73-5.23-3.7-7.63-5.76-2.41-2.06-4.5-4.22-5.91-6.22-1.44-2-2.18-3.83-2.53-5.14-.16-.65-.25-1.18-.29-1.54-.04-.36-.06-.55-.06-.55,0,0,0,.2,.02,.55,.02,.36,.07,.88,.19,1.54,.26,1.31,.9,3.17,2.23,5.22,1.31,2.05,3.31,4.28,5.66,6.39,2.35,2.12,5.02,4.13,7.52,5.89,3.53,2.48,6.7,4.51,9.29,6.24,2.59,1.73,4.61,3.17,6.03,4.36,1.42,1.19,2.2,2.12,2.62,2.74,.4,.63,.51,.95,.65,.95Z"/><path class="m" d="M341.33,207.85s0-.12-.09-.3c-.04-.08-.11-.19-.18-.32-.08-.13-.17-.27-.3-.43-.48-.63-1.33-1.48-2.61-2.45-1.28-.96-2.98-2.02-5.13-3.18-2.14-1.18-4.71-2.46-7.65-4.09-1.05-.58-2.14-1.21-3.25-1.89-1.1-.69-2.22-1.41-3.29-2.2-1.07-.79-2.11-1.62-3.06-2.52-.49-.43-.92-.91-1.36-1.36-.22-.22-.42-.47-.62-.7-.19-.24-.41-.46-.58-.71-.36-.49-.73-.94-1.02-1.42-.15-.24-.3-.47-.45-.69-.14-.23-.26-.47-.38-.69-.12-.23-.25-.44-.36-.66-.1-.22-.2-.44-.3-.65-.09-.21-.18-.41-.27-.6-.08-.19-.14-.39-.21-.57-.13-.36-.26-.68-.34-.97-.08-.29-.15-.54-.2-.74-.11-.41-.17-.63-.17-.63,0,0,.05,.22,.14,.64,.05,.21,.11,.46,.17,.75,.07,.29,.19,.62,.3,.99,.06,.18,.12,.38,.19,.58,.08,.2,.16,.4,.25,.61,.09,.21,.18,.43,.27,.66,.1,.22,.22,.45,.34,.68,.12,.23,.23,.47,.36,.72,.14,.24,.29,.48,.43,.72,.28,.5,.64,.98,.99,1.49,.17,.26,.38,.49,.57,.74,.2,.24,.39,.51,.61,.74,.43,.48,.87,.98,1.35,1.43,.94,.95,1.98,1.83,3.05,2.66,1.07,.84,2.19,1.6,3.28,2.32,1.11,.71,2.2,1.37,3.25,1.96,2.95,1.68,5.52,2.97,7.65,4.14,2.13,1.15,3.82,2.16,5.09,3.04,1.27,.89,2.13,1.63,2.66,2.16,.14,.12,.25,.24,.35,.34,.1,.1,.18,.18,.25,.25,.14,.12,.22,.17,.26,.15Z"/><path class="m" d="M341.27,192.49c.23,.03,.38-.19,.33-.71-.11-.52-.5-1.35-1.47-2.5-.97-1.16-2.53-2.63-4.66-4.43-2.13-1.8-4.87-3.93-7.87-6.41-2.12-1.76-4.37-3.71-6.19-5.64-1.84-1.93-3.14-3.82-3.66-5.44-.52-1.62-.21-2.93,.31-3.8,.15-.21,.25-.41,.38-.58,.14-.16,.28-.3,.38-.41,.21-.23,.33-.35,.33-.35,0,0-.15,.12-.4,.33-.13,.11-.28,.24-.47,.39-.16,.16-.3,.35-.49,.56-.69,.84-1.23,2.12-.94,3.75,.29,1.61,1.39,3.54,3.06,5.49,1.65,1.95,3.78,3.93,5.86,5.71,2.92,2.5,5.62,4.63,7.74,6.41,2.15,1.78,3.74,3.22,4.82,4.35,2.18,2.25,2.37,3.21,2.92,3.28Z"/><path class="m" d="M337.77,153.78c.07-.03,.07-.19-.02-.5-.11-.31-.32-.78-.72-1.33-.2-.28-.45-.57-.75-.88-.3-.3-.64-.63-1.03-.95-.77-.66-1.72-1.36-2.76-2.24-.74-.63-1.54-1.36-2.26-2.17-.72-.81-1.36-1.69-1.87-2.52-.51-.83-.89-1.59-1.15-2.14-.13-.27-.22-.5-.29-.65-.07-.15-.1-.24-.1-.24,0,0,.03,.08,.08,.24,.05,.15,.13,.39,.23,.68,.21,.57,.52,1.37,.98,2.26,.45,.89,1.05,1.85,1.75,2.73,.7,.89,1.49,1.7,2.24,2.37,1.06,.94,2,1.65,2.75,2.29,.75,.63,1.32,1.18,1.71,1.65,.79,.94,1.03,1.48,1.2,1.41Z"/><path class="m" d="M326.85,240.75c.1-.02,.1-.35-.06-1.02-.18-.66-.57-1.65-1.35-2.87-.78-1.21-1.94-2.64-3.52-4.24-1.58-1.59-3.59-3.36-5.97-5.35-3.39-2.83-7.64-6.14-10.6-9.19-.75-.76-1.4-1.5-1.97-2.18-.28-.35-.54-.67-.77-.99-.22-.32-.43-.61-.62-.88-.17-.28-.33-.53-.46-.75-.14-.22-.23-.42-.32-.57-.17-.32-.26-.49-.26-.49,0,0,.08,.18,.23,.51,.08,.16,.16,.37,.29,.59,.13,.23,.27,.49,.42,.78,.18,.28,.37,.59,.57,.92,.22,.32,.47,.67,.73,1.03,.54,.71,1.16,1.5,1.88,2.29,2.84,3.21,6.97,6.71,10.31,9.58,2.36,2.02,4.32,3.78,5.88,5.34,1.55,1.56,2.71,2.92,3.5,4.05,1.59,2.26,1.84,3.53,2.09,3.46Z"/><path class="m" d="M342.21,176.99c.19,.02,.31-.19,.28-.67-.07-.49-.37-1.26-1.12-2.32-.75-1.06-1.97-2.41-3.66-4.05-1.68-1.64-3.83-3.57-6.19-5.83-1.67-1.61-3.44-3.39-4.85-5.16-1.44-1.77-2.44-3.52-2.82-5.02-.38-1.51-.1-2.74,.34-3.57,.12-.2,.22-.39,.32-.55,.12-.16,.23-.29,.32-.39,.18-.22,.27-.34,.27-.34,0,0-.12,.11-.33,.32-.11,.1-.23,.23-.39,.38-.13,.15-.25,.34-.41,.53-.58,.8-1.05,2.02-.85,3.54,.2,1.51,1.03,3.29,2.34,5.08,1.28,1.79,2.95,3.61,4.59,5.23,2.3,2.28,4.42,4.22,6.09,5.84,1.69,1.62,2.94,2.94,3.79,3.97,1.71,2.06,1.83,2.96,2.28,3.01Z"/></g><path class="n" d="M324.58,242.63c15.44-13.11,16.49-37.38,15.24-56.26-1.51-20.46-6.55-40.41-11.08-60.51,9.15,18.79,15.4,39.11,17.06,60.07,1.55,19.07-2.14,47.13-21.23,56.69h0Z"/></g><path class="h" d="M323.38,243.52s-29.88-16.53-18.24-50.03c2.56-7.38,11.12-16.48,13.75-23.84,12.93-36.17,8.09-30.73,9.64-41.48,0,0-.66,14.16-10.73,35.34,0,0-9.67,19.12-11.08,22.4-4.55,10.58-10.24,16.37-4.91,34.74,0,0,7.83,26.42,21.57,22.88Z"/><path class="e" d="M328.72,246.74s17.7,8.06,33.02-13.91c0,0,22.73-41.55-2.85-70.82,0,0-25.5-27.03-27.47-32.13,0,0,5.29,6.46,16.08,16,0,0,21.61,21.5,24.68,37.64,0,0,11.04,23.93-9.82,54.54,0,0-12.84,23.65-33.64,8.66Z"/></g><g><g><path class="k" d="M222.88,125.78s5.44,11.37,13.99,13.29l3.19-1.82s-8.56-.75-16.19-11.15l-1-.31Z"/><path class="e" d="M240.07,137.24s-8.57-.48-16.19-11.15l-.45-.14s7.54,11.69,16.03,11.64l.61-.34Z"/><path class="g" d="M236.88,139.07s-6.62-1.62-11.72-9.44c0,0,4.82,6.61,11.85,9.34l-.13,.1Z"/></g><g><g><path class="q" d="M195.1,38.87l.08,.07s.1,.11,.18,.2c-.08-.09-.17-.18-.26-.27Z"/><path class="r" d="M194.48,38.46s-.05-.05-.08-.07c-.05-.05-.15-.19-.01-.2,.14-.01,.29,.08,.39,.17,.03,.02,.05,.05,.08,.07,.05,.05,.15,.19,0,.2-.14,.01-.3-.08-.39-.17-.03-.02-.05-.05-.08-.07,.13-.01,.25-.02,.38-.03,.03,.02,.05,.05,.08,.07,.05,.05,.15,.19,0,.2-.14,.01-.29-.08-.39-.17Z"/><path class="j" d="M226.72,95.61c6.49,32.3-2.17,32.32-2.17,32.32-1.28,4.1-10.9,5.41-23.01-9.83-9.28-11.68-6.87-19.07-4.97-40.88,2.13-24.51-2.49-35.1-3.65-36.48,7.58,8.08,28.97,30.77,33.81,54.88Z"/><path class="k" d="M244.54,127.04c-5.18,4.79-15.04,4.8-19.99,.89,0,0,9.42-12.96-1.36-40.62-8.91-22.85-22.47-38.34-30.05-46.43-.07-.09-.13-.15-.18-.2,5.67,5.41,22.25,8.97,37.82,19.59,31.72,21.63,21.04,60.02,13.76,66.76Z"/></g><g><path class="m" d="M232.9,61.86s-.01,.08,0,.24c.02,.15,.05,.38,.08,.7,.06,.62,.11,1.57,0,2.8-.1,1.23-.35,2.73-.79,4.46-.44,1.73-1.08,3.68-1.88,5.89-.57,1.57-1.23,3.29-1.87,5.01-.64,1.73-1.26,3.46-1.74,5.09-.47,1.62-.79,3.15-.85,4.34-.03,.59,0,1.09,.03,1.43,.01,.09,.02,.16,.03,.23,.01,.07,.02,.12,.03,.16,.02,.09,.02,.13,.02,.13,0,0,0-.05-.02-.14,0-.04-.02-.1-.03-.16,0-.07-.02-.14-.02-.22-.03-.34-.05-.83,0-1.41,.08-1.17,.42-2.67,.92-4.25,.5-1.59,1.14-3.29,1.8-4.98,.66-1.7,1.34-3.39,1.92-4.96,.82-2.2,1.46-4.17,1.91-5.92,.45-1.75,.7-3.3,.78-4.58,.08-1.28,0-2.28-.1-2.92-.05-.32-.1-.56-.15-.71-.04-.15-.07-.22-.08-.22Z"/><path class="m" d="M229.25,110.98c.05,0,.02-.39,.11-1.15,.05-.38,.14-.85,.29-1.4,.15-.55,.37-1.17,.67-1.87,.59-1.39,1.47-3.06,2.64-5.03,1.17-1.98,2.62-4.26,4.25-7.02,1.16-1.96,2.4-4.19,3.48-6.54,1.08-2.35,1.98-4.85,2.47-7.24,.25-1.18,.39-2.34,.44-3.39,.05-1.05,0-2-.07-2.79-.04-.39-.1-.74-.14-1.05-.06-.31-.11-.57-.15-.78-.1-.42-.16-.65-.16-.65,0,0,.05,.23,.14,.65,.04,.21,.08,.48,.14,.78,.04,.31,.09,.66,.12,1.05,.07,.78,.09,1.72,.02,2.76-.07,1.04-.23,2.18-.5,3.34-.52,2.34-1.46,4.79-2.56,7.1-1.1,2.31-2.36,4.5-3.52,6.45-1.64,2.73-3.1,5.01-4.27,7-1.17,1.99-2.05,3.68-2.63,5.13-.29,.72-.5,1.38-.64,1.96-.14,.58-.21,1.09-.23,1.49-.04,.82,.07,1.21,.11,1.21Z"/><path class="m" d="M225.57,127.13c.08,0,.06-.38,.41-1.08,.34-.7,1.01-1.69,2.04-2.97,1.03-1.28,2.41-2.87,4.1-4.84,1.68-1.97,3.69-4.32,5.88-7.21,1.55-2.05,3.18-4.42,4.6-6.9,.71-1.24,1.37-2.51,1.95-3.77,.58-1.26,1.07-2.52,1.47-3.72,.4-1.2,.7-2.35,.92-3.4,.21-1.05,.34-1.99,.42-2.78,.07-.79,.09-1.42,.09-1.85,0-.43,0-.67,0-.67,0,0,0,.24-.02,.67-.01,.43-.06,1.06-.15,1.84-.1,.78-.25,1.72-.49,2.75-.24,1.03-.57,2.17-1,3.35-.43,1.18-.95,2.41-1.55,3.65-.6,1.24-1.28,2.48-2.01,3.69-1.46,2.43-3.11,4.75-4.67,6.78-2.19,2.86-4.2,5.19-5.88,7.16-1.68,1.97-3.05,3.58-4.06,4.91-1.01,1.33-1.66,2.39-1.94,3.17-.14,.39-.2,.7-.19,.91,0,.21,.04,.31,.07,.31Z"/><path class="m" d="M218.16,75.41s0-.2-.02-.59c-.01-.39,0-.98,.1-1.76,.09-.77,.26-1.72,.5-2.87,.24-1.14,.55-2.48,.89-4.06,.25-1.13,.51-2.39,.72-3.69,.21-1.3,.37-2.65,.4-3.9,.02-.63,0-1.22-.05-1.77-.05-.54-.12-1.03-.21-1.43-.09-.4-.18-.71-.25-.91-.03-.1-.07-.18-.09-.23-.02-.05-.03-.08-.03-.08l.03,.08c.02,.05,.05,.13,.08,.24,.07,.21,.15,.52,.23,.92,.08,.4,.15,.88,.18,1.41,.04,.54,.04,1.12,.01,1.73-.05,1.22-.23,2.54-.46,3.81-.23,1.27-.5,2.52-.75,3.63-.36,1.57-.67,2.9-.91,4.06-.24,1.15-.4,2.13-.48,2.93-.04,.4-.06,.76-.06,1.07,0,.31,.01,.58,.03,.79,.05,.43,.11,.62,.13,.62Z"/><path class="m" d="M208.33,58.6s.08-.09,.1-.25c0-.08,.03-.18,.04-.31,.03-.12,.04-.27,.09-.44,.08-.34,.22-.76,.46-1.29,.24-.52,.58-1.14,.98-1.87,.28-.52,.59-1.1,.81-1.69,.23-.59,.36-1.2,.31-1.72-.03-.52-.27-.93-.47-1.19-.05-.06-.1-.12-.14-.17-.05-.05-.09-.09-.12-.12-.07-.06-.1-.1-.1-.1,0,0,.03,.04,.09,.11,.03,.03,.07,.08,.11,.13,.04,.05,.08,.11,.12,.18,.17,.27,.35,.68,.34,1.19,0,.51-.17,1.09-.42,1.65-.26,.57-.59,1.14-.88,1.65-.42,.72-.77,1.35-1.01,1.88-.24,.54-.38,.99-.43,1.35-.03,.18-.03,.33-.04,.46,.01,.13,.02,.23,.04,.31,.04,.16,.09,.23,.13,.22Z"/><path class="m" d="M228.95,111.82c.09-.03,.07-.3-.33-.73-.4-.42-1.23-.96-2.62-1.47-1.38-.51-3.29-1-5.69-1.53-2.4-.52-5.31-1.07-8.61-1.82-2.34-.53-4.89-1.18-7.24-1.98-2.36-.8-4.51-1.77-6.12-2.82-1.63-1.05-2.71-2.16-3.34-3.01-.31-.43-.53-.79-.66-1.04-.13-.25-.21-.39-.21-.39,0,0,.06,.14,.17,.4,.12,.26,.31,.62,.59,1.07,.57,.88,1.58,2.05,3.14,3.16,1.55,1.12,3.66,2.16,5.99,3.02,2.33,.86,4.86,1.56,7.2,2.11,3.3,.78,6.2,1.34,8.59,1.86,2.39,.51,4.29,.97,5.66,1.43,1.38,.45,2.22,.9,2.71,1.24,.47,.34,.64,.54,.75,.5Z"/><path class="m" d="M226.66,97.69s-.03-.09-.15-.19c-.06-.05-.13-.11-.23-.18-.09-.07-.2-.15-.34-.22-.53-.32-1.4-.7-2.61-1.03-1.21-.33-2.77-.61-4.67-.83-1.9-.24-4.15-.42-6.77-.76-.93-.12-1.92-.26-2.92-.43-1-.18-2.03-.38-3.04-.65-1.01-.27-2.01-.57-2.97-.95-.48-.17-.94-.39-1.39-.6-.23-.1-.44-.22-.66-.33-.21-.12-.43-.21-.63-.35-.4-.25-.81-.47-1.16-.74-.18-.13-.36-.26-.53-.38-.17-.13-.32-.27-.48-.4-.16-.13-.31-.25-.45-.38-.14-.13-.27-.26-.4-.39-.13-.12-.25-.24-.37-.36-.11-.12-.21-.24-.32-.35-.2-.23-.38-.42-.53-.61-.14-.19-.26-.35-.36-.48-.2-.27-.31-.41-.31-.41,0,0,.1,.15,.29,.42,.09,.14,.21,.31,.35,.5,.14,.19,.32,.4,.51,.63,.1,.12,.2,.24,.31,.37,.12,.12,.24,.24,.36,.37,.13,.13,.26,.26,.39,.4,.14,.13,.29,.26,.45,.4,.15,.14,.31,.28,.47,.42,.17,.13,.35,.26,.53,.4,.35,.29,.75,.53,1.15,.8,.2,.14,.42,.24,.63,.37,.22,.12,.43,.25,.66,.36,.46,.22,.92,.46,1.4,.65,.96,.42,1.97,.76,3,1.06,1.02,.3,2.06,.53,3.07,.74,1.02,.19,2.01,.36,2.94,.49,2.64,.37,4.89,.57,6.78,.8,1.89,.22,3.41,.46,4.6,.74,1.18,.28,2.03,.57,2.57,.81,.14,.05,.25,.1,.35,.15,.1,.05,.18,.08,.26,.11,.14,.05,.21,.06,.23,.03Z"/><path class="m" d="M222.15,86.51c.18-.05,.22-.25,.03-.61-.23-.35-.75-.84-1.8-1.4-1.04-.56-2.61-1.18-4.69-1.87-2.08-.69-4.69-1.45-7.6-2.39-2.06-.67-4.27-1.44-6.15-2.32-1.9-.87-3.41-1.88-4.25-2.9-.85-1.03-1.01-2.07-.88-2.86,.04-.2,.07-.37,.11-.53,.06-.16,.11-.3,.16-.41,.09-.23,.14-.35,.14-.35,0,0-.08,.13-.2,.36-.06,.11-.14,.25-.23,.42-.07,.16-.12,.34-.2,.55-.26,.81-.28,1.91,.4,3.01,.68,1.09,2.04,2.18,3.83,3.11,1.77,.95,3.9,1.77,5.94,2.46,2.86,.98,5.44,1.75,7.51,2.43,2.08,.68,3.66,1.27,4.78,1.77,2.25,1,2.66,1.65,3.09,1.54Z"/><path class="m" d="M208.35,59.28s0-.16-.16-.36c-.17-.2-.46-.48-.91-.76-.23-.15-.49-.28-.8-.42-.31-.14-.65-.27-1.03-.4-.76-.26-1.65-.49-2.67-.83-.72-.24-1.52-.55-2.28-.93-.76-.38-1.48-.84-2.1-1.29s-1.11-.9-1.46-1.23c-.17-.16-.31-.3-.4-.39-.09-.09-.14-.14-.14-.14,0,0,.04,.05,.13,.16,.08,.1,.2,.25,.36,.43,.32,.36,.78,.85,1.37,1.36,.59,.51,1.3,1.04,2.07,1.48,.77,.45,1.58,.81,2.32,1.08,1.04,.38,1.94,.62,2.67,.87,.73,.24,1.3,.48,1.73,.7,.85,.45,1.19,.78,1.29,.68Z"/><path class="m" d="M225.65,125.91c.06-.04-.03-.28-.34-.73-.33-.43-.9-1.04-1.82-1.7-.92-.66-2.18-1.36-3.8-2.07-1.62-.7-3.59-1.41-5.91-2.17-3.3-1.08-7.36-2.26-10.4-3.63-.77-.33-1.46-.69-2.07-1.02-.3-.17-.59-.34-.85-.5-.26-.17-.49-.32-.71-.46-.21-.15-.39-.29-.56-.41-.17-.12-.29-.24-.4-.33-.22-.18-.33-.28-.33-.28,0,0,.11,.11,.32,.3,.1,.09,.22,.22,.38,.35,.16,.13,.34,.28,.54,.44,.21,.15,.44,.32,.69,.51,.25,.17,.53,.35,.83,.54,.6,.36,1.28,.76,2.04,1.12,3,1.52,7.04,2.87,10.3,3.99,2.3,.79,4.25,1.5,5.84,2.19,1.59,.69,2.82,1.34,3.73,1.94,1.82,1.19,2.37,2.04,2.53,1.92Z"/><path class="m" d="M218.34,74.93c.14-.04,.17-.23,.01-.57-.2-.34-.63-.81-1.49-1.37-.86-.56-2.14-1.18-3.84-1.89-1.7-.71-3.84-1.49-6.21-2.46-1.68-.69-3.49-1.47-5.04-2.35-1.56-.87-2.8-1.86-3.52-2.84-.72-.99-.87-1.97-.79-2.71,.03-.19,.04-.35,.08-.5,.04-.15,.08-.28,.12-.38,.07-.21,.1-.32,.1-.32,0,0-.06,.12-.15,.33-.05,.11-.1,.23-.18,.39-.05,.15-.09,.32-.14,.51-.19,.76-.18,1.78,.41,2.83,.58,1.04,1.71,2.1,3.18,3.03,1.46,.94,3.2,1.77,4.87,2.48,2.34,1,4.45,1.79,6.14,2.49,1.7,.69,3,1.29,3.91,1.79,1.84,1.01,2.2,1.63,2.54,1.54Z"/></g><path class="n" d="M224.55,127.93c6.94-14.4,.58-31.63-5.81-45.2-7.02-14.46-16.36-27.57-25.09-41.21,6.29,5.29,11.96,11.26,17.12,17.69,10.21,12.99,18.89,28.15,20.46,45.01,.6,8.21-.63,17.64-6.68,23.71h0Z"/></g><path class="h" d="M223.93,128.94s-26.61-3.37-27.85-31.2c-.27-6.13,3.32-15.26,3.1-21.39-1.08-30.14-3.03-24.77-5.02-33.07,0,0,3.63,10.52,2.44,28.91,0,0-1.5,16.76-1.57,19.56-.24,9.04-2.71,14.92,6.51,26.77,0,0,13.39,17,22.39,10.42Z"/><path class="e" d="M228.76,129.74s15.25,.74,20.05-19.74c0,0,4.51-36.92-22.66-50.84,0,0-26.46-12.31-29.38-15.46,0,0,5.73,3.18,16.38,7,0,0,22.01,9.41,28.95,20.29,0,0,15.01,14.26,8.69,42.65,0,0-2.49,20.98-22.03,16.1Z"/></g></g></g></g></g></g></g></svg>