<?xml version="1.0" encoding="UTF-8"?><svg id="a" xmlns="http://www.w3.org/2000/svg" xmlns:xlink="http://www.w3.org/1999/xlink" viewBox="0 0 443.78 451.48"><defs><style>.e{stroke:#262211;stroke-width:.75px;}.e,.f{fill:none;}.e,.g{stroke-miterlimit:10;}.h{fill:#fff;}.i{opacity:.5;}.j{fill:#e53963;}.k{fill:#9e4ac6;}.l{fill:url(#b);}.m{fill:#ffd23f;}.n{clip-path:url(#d);}.o{opacity:.1;}.g{fill:#31d0e5;stroke:url(#c);stroke-width:6px;}</style><linearGradient id="b" x1="43.17" y1="103.28" x2="392.43" y2="342.6" gradientTransform="matrix(1, 0, 0, 1, 0, 0)" gradientUnits="userSpaceOnUse"><stop offset="0" stop-color="#9b81cf"/><stop offset="1" stop-color="#3b139b"/></linearGradient><linearGradient id="c" x1="16.1" y1="225.74" x2="427.68" y2="225.74" gradientTransform="matrix(1, 0, 0, 1, 0, 0)" gradientUnits="userSpaceOnUse"><stop offset="0" stop-color="#4c1da9"/><stop offset="1" stop-color="#997ece"/></linearGradient><clipPath id="d"><circle class="f" cx="225.89" cy="228.06" r="209.22"/></clipPath></defs><path class="i" d="M435.12,236.99c0-36.23-9.21-70.32-25.42-100.03-35.31-67.72-106.15-113.96-187.81-113.96C104.98,23,10.21,117.77,10.21,234.67s94.77,211.68,211.68,211.68c2.97,0,5.93-.08,8.87-.2,113.3-2.59,204.36-95.24,204.36-209.16Z"/><g><g><circle class="l" cx="221.89" cy="225.74" r="211.68"/><circle class="g" cx="221.89" cy="225.74" r="202.78"/></g><g class="n"><g><path class="e" d="M216.52,228.82s8.26,25.7-14.86,59.09c-15.81,22.83-56.72,91.1,11.28,137.1"/><path class="e" d="M298.52,198.74s11.31,27.03-15.17,57.15c-26.47,30.12-83.41,94.13-39.41,168.13"/><path class="e" d="M112.94,393.02c-30-51-14.95-75.98-11.48-89.5"/><g><path class="m" d="M161.38,206.85c-2-11.88-6.88-22.28-14.92-31.09-8.97-9.83-19.74-16.53-33.31-18.41-11.56-1.61-22.35,.13-32.59,5.62-3.48,1.93-6.73,4.16-9.85,6.68-8.29,6.69-14.14,15.02-17.99,24.85-5.2,13.29-5.43,26.97-2.68,40.73,3.16,15.86,9.99,30.1,20.9,42.11,6.96,7.66,15.73,12.68,25.91,14.88,2.16,.47,2.23,.92,1.13,2.58-1.66,2.48-3.12,5.09-4.75,7.79,3.02,.35,5.62,.65,8.23,.95,.47,0,.95,0,1.42,0,1.25-.06,2.5-.34,3.72,.36,.71,.41,1.69,.51,2.26-.11,.63-.69-.04-1.43-.34-2.18-1.06-2.62-2-5.28-2.99-7.93,3.19-1.25,6.65-.71,9.93-1.69,13.34-3.96,23.82-11.75,31.22-23.44,11.93-18.85,18.52-38.98,14.7-61.69Zm-77.29,62.44"/><path class="o" d="M105.54,293.66c-1.09-1.64,.77-1.75,1.34-2.11,14.31-9.05,22.11-22.88,28.02-38.05,3.76-9.64,5.88-19.72,5.45-30.05-.68-16.16-5.88-30.55-17.58-42.38-8.73-8.83-18.81-14.73-31.04-17.01-2.55-.48-5.08-.13-7.61-.32-1.22-.09-2.59,.46-3.57-.76,10.24-5.49,21.03-7.23,32.59-5.62,13.57,1.89,24.34,8.59,33.31,18.41,8.04,8.81,12.91,19.21,14.92,31.09,3.83,22.71-2.77,42.84-14.7,61.69-7.4,11.69-17.87,19.47-31.22,23.44-3.28,.97-6.75,.44-9.93,1.69Z"/><g><path class="h" d="M84.09,269.29c-3.24-1.61-5.72-4.29-7.99-7.01-7.54-9.05-12.44-19.37-14.63-31.03-2.33-12.46-.44-24.37,3.86-36.08,.59-1.6,1.51-1.55,3-1.16,1.81,.48,1.61,1.29,1.21,2.68-1.87,6.53-2.78,13.34-2.66,20,.19,10.63,1.77,21.2,5.78,31.22,3,7.5,6.86,14.5,11.43,21.37Z"/><path class="h" d="M68.8,186.52c-.14-2.03,.9-2.62,2.71-2.66,2.2-.05,2.86,1.27,2.76,3-.1,1.7-1.27,2.7-3.02,2.52-1.65-.17-2.79-1-2.45-2.86Z"/></g></g><g><path class="j" d="M358.5,102.09c-2-11.88-6.88-22.28-14.92-31.09-8.97-9.83-19.74-16.53-33.31-18.41-11.56-1.61-22.35,.13-32.59,5.62-3.48,1.93-6.73,4.16-9.85,6.68-8.29,6.69-14.14,15.02-17.99,24.85-5.2,13.29-5.43,26.97-2.68,40.73,3.16,15.86,9.99,30.1,20.9,42.11,6.96,7.66,15.73,12.68,25.91,14.88,2.16,.47,2.23,.92,1.13,2.58-1.66,2.48-3.12,5.09-4.75,7.79,3.02,.35,5.62,.65,8.23,.95,.47,0,.95,0,1.42,0,1.25-.06,2.5-.34,3.72,.36,.71,.41,1.69,.51,2.26-.11,.63-.69-.04-1.43-.34-2.18-1.06-2.62-2-5.28-2.99-7.93,3.19-1.25,6.65-.71,9.93-1.69,13.34-3.96,23.82-11.75,31.22-23.44,11.93-18.85,18.52-38.98,14.7-61.69Z"/><path class="o" d="M302.66,188.9c-1.09-1.64,.77-1.75,1.34-2.11,14.31-9.05,22.11-22.88,28.02-38.05,3.76-9.64,5.88-19.72,5.45-30.05-.68-16.16-5.88-30.55-17.58-42.38-8.73-8.83-18.81-14.73-31.04-17.01-2.55-.48-5.08-.13-7.61-.32-1.22-.09-2.59,.46-3.57-.76,10.24-5.49,21.03-7.23,32.59-5.62,13.57,1.89,24.34,8.59,33.31,18.41,8.04,8.81,12.91,19.21,14.92,31.09,3.83,22.71-2.77,42.84-14.7,61.69-7.4,11.69-17.87,19.47-31.22,23.44-3.28,.97-6.75,.44-9.93,1.69Z"/><g><path class="h" d="M281.21,164.53c-3.24-1.61-5.72-4.29-7.99-7.01-7.54-9.05-12.44-19.37-14.63-31.03-2.33-12.46-.44-24.37,3.86-36.08,.59-1.6,1.51-1.55,3-1.16,1.81,.48,1.61,1.29,1.21,2.68-1.87,6.53-2.78,13.34-2.66,20,.19,10.63,1.77,21.2,5.78,31.22,3,7.5,6.86,14.5,11.43,21.37Z"/><path class="h" d="M265.92,81.77c-.14-2.03,.9-2.62,2.71-2.66,2.2-.05,2.86,1.27,2.76,3-.1,1.7-1.27,2.7-3.02,2.52-1.65-.17-2.79-1-2.45-2.86Z"/></g></g><g><path class="k" d="M276.69,156.97c-2-11.88-6.88-22.28-14.92-31.09-8.97-9.83-19.74-16.53-33.31-18.41-11.56-1.61-22.35,.13-32.59,5.62-3.48,1.93-6.73,4.16-9.85,6.68-8.29,6.69-14.14,15.02-17.99,24.85-5.2,13.29-5.43,26.97-2.68,40.73,3.16,15.86,9.99,30.1,20.9,42.11,6.96,7.66,15.73,12.68,25.91,14.88,2.16,.47,2.23,.92,1.13,2.58-1.66,2.48-3.12,5.09-4.75,7.79,3.02,.35,5.62,.65,8.23,.95,.47,0,.95,0,1.42,0,1.25-.06,2.5-.34,3.72,.36,.71,.41,1.69,.51,2.26-.11,.63-.69-.04-1.43-.34-2.18-1.06-2.62-2-5.28-2.99-7.93,3.19-1.25,6.65-.71,9.93-1.69,13.34-3.96,23.82-11.75,31.22-23.44,11.93-18.85,18.52-38.98,14.7-61.69Zm-77.29,62.44"/><path class="o" d="M220.84,243.78c-1.09-1.64,.77-1.75,1.34-2.11,14.31-9.05,22.11-22.88,28.02-38.05,3.76-9.64,5.88-19.72,5.45-30.05-.68-16.16-5.88-30.55-17.58-42.38-8.73-8.83-18.81-14.73-31.04-17.01-2.55-.48-5.08-.13-7.61-.32-1.22-.09-2.59,.46-3.57-.76,10.24-5.49,21.03-7.23,32.59-5.62,13.57,1.89,24.34,8.59,33.31,18.41,8.04,8.81,12.91,19.21,14.92,31.09,3.83,22.71-2.77,42.84-14.7,61.69-7.4,11.69-17.87,19.47-31.22,23.44-3.28,.97-6.75,.44-9.93,1.69Z"/><g><path class="h" d="M199.39,219.41c-3.24-1.61-5.72-4.29-7.99-7.01-7.54-9.05-12.44-19.37-14.63-31.03-2.33-12.46-.44-24.37,3.86-36.08,.59-1.6,1.51-1.55,3-1.16,1.81,.48,1.61,1.29,1.21,2.68-1.87,6.53-2.78,13.34-2.66,20,.19,10.63,1.77,21.2,5.78,31.22,3,7.5,6.86,14.5,11.43,21.37Z"/><path class="h" d="M184.1,136.65c-.14-2.03,.9-2.62,2.71-2.66,2.2-.05,2.86,1.27,2.76,3-.1,1.7-1.27,2.7-3.02,2.52-1.65-.17-2.79-1-2.45-2.86Z"/></g></g></g></g></g></svg>