<?xml version="1.0" encoding="UTF-8"?><svg id="a" xmlns="http://www.w3.org/2000/svg" xmlns:xlink="http://www.w3.org/1999/xlink" viewBox="0 0 443.78 451.48"><defs><style>.d,.e{fill:#fff;}.f{fill:#d8d8d8;}.g{opacity:.5;}.h,.i{fill:none;}.h,.i,.e,.j{stroke-miterlimit:10;}.h,.e{stroke:#afafaf;}.k{fill:url(#b);}.l{fill:#afafaf;}.i{stroke:#d8d8d8;}.m{opacity:.3;}.j{fill:#31d0e5;stroke:url(#c);stroke-width:6px;}</style><linearGradient id="b" x1="43.17" y1="103.28" x2="392.43" y2="342.6" gradientTransform="matrix(1, 0, 0, 1, 0, 0)" gradientUnits="userSpaceOnUse"><stop offset="0" stop-color="#9b81cf"/><stop offset="1" stop-color="#3b139b"/></linearGradient><linearGradient id="c" x1="16.1" y1="225.74" x2="427.68" y2="225.74" gradientTransform="matrix(1, 0, 0, 1, 0, 0)" gradientUnits="userSpaceOnUse"><stop offset="0" stop-color="#4c1da9"/><stop offset="1" stop-color="#997ece"/></linearGradient></defs><g><path class="g" d="M435.12,236.99c0-36.23-9.21-70.32-25.42-100.03-35.31-67.72-106.15-113.96-187.81-113.96C104.98,23,10.21,117.77,10.21,234.67s94.77,211.68,211.68,211.68c2.97,0,5.93-.08,8.87-.2,113.3-2.59,204.36-95.24,204.36-209.16Z"/><g><circle class="k" cx="221.89" cy="225.74" r="211.68"/><circle class="j" cx="221.89" cy="225.74" r="202.78"/></g></g><g><g class="m"><path class="d" d="M414.19,172.74c-.52-2.56-1.24-5.06-2.07-7.53-.99-.89-2.22-1.82-3.7-2.81-25.65-17.1-30.6,5.74-30.6,5.74,0,0-38.98,4.96-16.31,9.12,16.26,2.98,46.53,2.83,52.86-3.81-.07-.23-.13-.47-.18-.72Z"/><path class="d" d="M406.24,149.07c-5.77,4.82-5.52,13.1,4.82,13.69,.07,0,.14,0,.2,0-1.65-4.57-3.55-9.08-5.03-13.7Z"/></g><g class="m"><path class="d" d="M54.42,232.4c-25.65-17.1-30.6,5.74-30.6,5.74,0,0-.54,.07-1.45,.2,.04,.3,.07,.6,.07,.9,.01,.9,.05,1.8,.13,2.7,.02,.26,.05,.51,.08,.77v.08c.18,.88,.32,1.77,.45,2.65l.19,1.43c.01,.07,.05,.28,.11,.64,.09,.49,.13,.97,.15,1.45,23.55,1.09,51.38-2.87,30.86-16.55Z"/><path class="d" d="M72.91,218.4c21.44,10.72,2.05,15.38-15.84,14.37-17.89-1.02-5.61-25.09,15.84-14.37Z"/></g><g><g><path class="e" d="M69.51,230.77l102.5,78.35s31.24,15.88,93.98-55.85l79-182.11-126.63-17.93,39.38,78.22c-1.76,3.03-2.15,26.18-188.23,99.33Z"/><path class="f" d="M265.43,252.36l78.63-180.8-124.61-17.25,38.95,76.79s15.71,31.62,7.03,121.26Z"/></g><g><g><line class="i" x1="101.28" y1="234.08" x2="186.98" y2="297.58"/><line class="i" x1="114.68" y1="226.39" x2="202.48" y2="291.45"/><line class="i" x1="129.88" y1="220.86" x2="214.72" y2="283.73"/><line class="i" x1="156.22" y1="208.08" x2="234.37" y2="265.99"/><line class="i" x1="168.83" y1="200.1" x2="244.43" y2="258.01"/><line class="i" x1="142.12" y1="214.32" x2="225.35" y2="276"/><line class="i" x1="182.41" y1="193.88" x2="256.87" y2="249.06"/><line class="i" x1="195.8" y1="186.2" x2="267.11" y2="239.03"/><line class="i" x1="211.01" y1="180.66" x2="270.15" y2="224.49"/><line class="i" x1="237.35" y1="167.88" x2="280.45" y2="199.82"/><line class="i" x1="249.96" y1="159.91" x2="287.24" y2="185.67"/><line class="i" x1="256.34" y1="149.95" x2="293.62" y2="175.72"/><line class="i" x1="223.25" y1="174.13" x2="274.44" y2="212.06"/></g><path class="h" d="M244.42,75.07s80.17,7.8,94.49,8.05"/><path class="h" d="M250.22,85.51s70.37,7.3,84.69,7.55"/><path class="h" d="M255.94,97.67s58.93,4.15,73.25,4.4"/><path class="h" d="M265.15,113.3s11.38,21.77,9.91,46.22l32.87-4.89s16.98-41.71,16.45-39.17c-.16,.78-59.23-2.16-59.23-2.16Z"/><path class="h" d="M276.26,171.65s22.1-3.71,23.97-4.26"/><path class="h" d="M277.93,182.89s16.11-2.82,17.99-3.37"/></g></g><path class="l" d="M115.14,366.57c64.02,1.82,128.47-23.12,174.79-67.28,7-6.52,13.61-13.62,19.73-20.97,1.79-2.08,4.48-5.24,6.06-7.46l5.8-7.66c1.76-2.24,3.79-5.57,5.44-7.92,1.45-2.19,3.97-5.75,5.27-8.03,1.57-2.69,5.87-9.7,7.39-12.38,3.44-6.5,7.99-14.67,10.94-21.4l4.08-8.72c-1.37,3.1-4.64,10.21-5.95,13.15-2.19,4.97-6.26,12.3-8.7,17.17-2.13,3.86-6.3,10.67-8.54,14.52l-1.34,2c-2.56,3.71-5.44,8.36-8.1,11.96-1.12,1.52-6.24,8.29-7.23,9.63-2.1,2.77-5.48,6.56-7.69,9.26-9.38,11.01-19.9,20.99-31,30.25-29.96,24.33-65.85,41-103.58,48.96-18.81,3.92-38.18,6.01-57.39,4.91h0Z"/><path class="l" d="M38.71,218.25c16.89,45.74,51.5,86.57,97.45,104.66l6.89,2.58c2.49,.67,8.14,2.58,10.57,3.16,3.34,.71,7.42,1.84,10.76,2.43,7.25,1.31,14.55,2.25,21.91,2.74,2.29,.06,8.8,.3,11.05,.37,5.63-.16,12.81-.21,18.4-.86l7.35-.66-7.34,.78c-5.58,.74-12.77,.91-18.41,1.17-2.25-.05-8.72-.18-11.08-.24-7.39-.42-14.72-1.3-22.02-2.54-3.36-.56-7.49-1.65-10.84-2.36-2.4-.61-8.18-2.44-10.64-3.15l-6.94-2.58c-46.23-17.98-81.02-59.25-97.12-105.5h0Z"/></g></svg>