<?xml version="1.0" encoding="UTF-8"?><svg id="a" xmlns="http://www.w3.org/2000/svg" xmlns:xlink="http://www.w3.org/1999/xlink" viewBox="0 0 443.78 451.48"><defs><style>.e{fill:#fff;}.f{opacity:.5;}.g{fill:#fafef6;stroke:#848484;}.g,.h,.i,.j{stroke-miterlimit:10;}.k{fill:url(#b);}.h{fill:#cbcfc7;stroke:#939393;}.l{clip-path:url(#d);}.m{fill:none;}.n{opacity:.42;}.i{fill:#dfe2dc;stroke:#a0a0a0;}.j{fill:#31d0e5;stroke:url(#c);stroke-width:6px;}</style><linearGradient id="b" x1="43.17" y1="103.28" x2="392.43" y2="342.6" gradientTransform="matrix(1, 0, 0, 1, 0, 0)" gradientUnits="userSpaceOnUse"><stop offset="0" stop-color="#9b81cf"/><stop offset="1" stop-color="#3b139b"/></linearGradient><linearGradient id="c" x1="16.1" y1="225.74" x2="427.68" y2="225.74" gradientTransform="matrix(1, 0, 0, 1, 0, 0)" gradientUnits="userSpaceOnUse"><stop offset="0" stop-color="#4c1da9"/><stop offset="1" stop-color="#997ece"/></linearGradient><clipPath id="d"><circle class="m" cx="225.89" cy="228.06" r="209.22"/></clipPath></defs><path class="f" d="M435.12,236.99c0-36.23-9.21-70.32-25.42-100.03-35.31-67.72-106.15-113.96-187.81-113.96C104.98,23,10.21,117.77,10.21,234.67s94.77,211.68,211.68,211.68c2.97,0,5.93-.08,8.87-.2,113.3-2.59,204.36-95.24,204.36-209.16Z"/><g><g><circle class="k" cx="221.89" cy="225.74" r="211.68"/><circle class="j" cx="221.89" cy="225.74" r="202.78"/></g><g class="l"><g><g><line class="i" x1="166.46" y1="344.49" x2="261.62" y2="264.38"/><line class="i" x1="89.43" y1="305.19" x2="164.66" y2="255.42"/><line class="i" x1="131.93" y1="320.5" x2="206.89" y2="266.95"/></g><g><path class="g" d="M351.05,83.6L67.75,226.57l85.1,3.08L341.5,92.12,184.08,232.71l87.71,31.7,79.26-180.81Zm0,0"/><path class="i" d="M184.08,232.71l-2.89,43.84-28.34-46.9L341.5,92.12,184.08,232.71Zm0,0"/><path class="h" d="M181.19,276.55l38.54-30.65-35.65-13.19-2.89,43.84Zm0,0"/></g></g><g class="n"><g><path class="e" d="M31.04,173.75c-.59-.4-1.18-.78-1.75-1.14-1.25,6.25-2.18,12.63-4.12,18.59,13.49-2.39,20.21-7.78,5.87-17.45Z"/><path class="e" d="M51.78,157.87c-6.64-3.36-12.49-3.7-17.07-2.43-.15,.6-.37,1.21-.67,1.82-2.46,4.98-3.77,10.4-4.85,15.91,1.32,.53,2.92,.87,4.83,.98,20.07,1.15,41.82-4.13,17.77-16.29Z"/></g><g><path class="e" d="M287.36,288.74s5.55-25.91,34.32-6.51c28.77,19.4-27.2,21.57-52.62,16.86-25.42-4.71,18.3-10.34,18.3-10.34Z"/><path class="e" d="M342.41,266.34c24.05,12.16,2.3,17.45-17.77,16.29-20.07-1.15-6.29-28.45,17.77-16.29Z"/></g></g></g></g></svg>