<?xml version="1.0" encoding="UTF-8"?><svg id="a" xmlns="http://www.w3.org/2000/svg" xmlns:xlink="http://www.w3.org/1999/xlink" viewBox="0 0 718 661"><defs><style>.f{stroke:#262211;stroke-width:.75px;}.f,.g{fill:none;}.f,.h{stroke-miterlimit:10;}.i{fill:#fff;}.j,.h{fill:#31d0e5;}.k{fill:#98bc5c;}.l{fill:#e53963;}.m{fill:url(#c);}.n{fill:#77c9b0;}.o{fill:#c5db7f;}.p{fill:#9e4ac6;}.q{opacity:.45;}.r{clip-path:url(#b);}.s{opacity:.66;}.t{clip-path:url(#e);}.u{fill:#ffd23f;}.v{opacity:.1;}.w{opacity:.14;}.h{stroke:url(#d);stroke-width:6px;}</style><clipPath id="b"><ellipse class="g" cx="359" cy="-430.5" rx="286.63" ry="286.33"/></clipPath><linearGradient id="c" x1="104.06" y1="155.82" x2="602.27" y2="497.19" gradientTransform="matrix(1, 0, 0, 1, 0, 0)" gradientUnits="userSpaceOnUse"><stop offset="0" stop-color="#9b81cf"/><stop offset="1" stop-color="#3b139b"/></linearGradient><linearGradient id="d" x1="66.74" y1="330.5" x2="651.26" y2="330.5" gradientTransform="matrix(1, 0, 0, 1, 0, 0)" gradientUnits="userSpaceOnUse"><stop offset="0" stop-color="#4c1da9"/><stop offset="1" stop-color="#997ece"/></linearGradient><clipPath id="e"><ellipse class="g" cx="359" cy="330.5" rx="286.97" ry="286.68"/></clipPath></defs><g class="r"><path class="o" d="M177.62,65.14S602.95-263.52-28.69-240.66"/></g><g><g><circle class="m" cx="359" cy="330.5" r="301.94"/><circle class="h" cx="359" cy="330.5" r="289.26"/></g><ellipse class="g" cx="359" cy="330.5" rx="291.66" ry="291.34"/><g class="t"><g><g><path class="j" d="M683.3,292.77c0,153.76-145.23,278.41-324.37,278.41S18.73,460.01,18.73,306.25,179.78,14.36,358.92,14.36s324.37,124.65,324.37,278.41Z"/><path class="o" d="M176.63,813.16S609.08,477.32-33.12,500.67"/><path class="k" d="M463.71,740.28c-158.82,0-373.07-25.31-373.07-73.29s190.27-180.13,601.44-202.4c158.59-8.59-69.56,275.69-228.37,275.69Z"/><ellipse class="w" cx="293.57" cy="632.33" rx="57.42" ry="13.39" transform="translate(-53.62 27.78) rotate(-4.96)"/><ellipse class="w" cx="538.04" cy="639.94" rx="57.43" ry="13.62" transform="translate(-94.99 93.78) rotate(-9.16)"/><ellipse class="w" cx="207.4" cy="602.55" rx="34.68" ry="9.2" transform="translate(-74.02 30.81) rotate(-7.21)"/><g class="s"><g><path class="i" d="M149.58,189.97s7.43-34.63,45.94-8.7c38.51,25.92-36.41,28.83-70.44,22.53-34.03-6.3,24.5-13.82,24.5-13.82Z"/><path class="i" d="M223.28,160.04c32.2,16.25,3.08,23.32-23.78,21.77-26.86-1.54-8.42-38.02,23.78-21.77Z"/></g><g><path class="i" d="M568.92,333.22s7.43-34.63,45.94-8.7c38.51,25.92-36.41,28.83-70.44,22.53-34.03-6.3,24.5-13.82,24.5-13.82Z"/><path class="i" d="M642.62,303.29c32.2,16.25,3.08,23.32-23.78,21.77s-8.42-38.02,23.78-21.77Z"/></g></g><g class="q"><path class="n" d="M119.34,483.9s14.35-8.7,21.88,1.8c7.53,10.5,2.78,7.23-11.92,6.05-14.7-1.19-15.28-5.53-9.97-7.84Z"/><path class="n" d="M125.64,504.51s4.79-7.99,3.67-12.77c-1.37-5.86,1.22-2.18,1.22-2.18l.5,4.87,5.04-1.97s-5.6,2.23-4.59,6.23,2.67,5.84,2.67,5.84l-8.51-.03Z"/></g></g><g><path class="f" d="M396.46,267.27s3.33,44.37-32.57,110.63c-24.55,45.3-78.39,181.6,24.61,247.6"/><path class="f" d="M504.08,195.3s9.92,48.47-32.57,110.63c-42.49,62.15-170.01,179.58-80.01,324.58"/><path class="f" d="M388.5,625.5c-102-22-172.67-211.43-160.09-269.27"/><g><path class="u" d="M306.4,229.23c-2.61-15.61-8.95-29.27-19.41-40.84-11.67-12.91-25.7-21.71-43.35-24.19-15.05-2.11-29.09,.17-42.42,7.38-4.53,2.54-8.75,5.46-12.82,8.77-10.78,8.79-18.41,19.73-23.41,32.64-6.77,17.45-7.06,35.44-3.49,53.51,4.12,20.84,13,39.54,27.21,55.32,9.06,10.07,20.47,16.65,33.73,19.54,2.81,.61,2.9,1.21,1.47,3.38-2.15,3.26-4.06,6.69-6.18,10.23,3.92,.46,7.32,.85,10.71,1.25,.62,0,1.23,0,1.85,0,1.63-.08,3.25-.44,4.84,.48,.92,.54,2.2,.67,2.94-.15,.83-.91-.05-1.88-.44-2.86-1.38-3.44-2.6-6.94-3.89-10.42,4.15-1.64,8.66-.94,12.93-2.22,17.37-5.21,31-15.43,40.63-30.79,15.52-24.76,24.11-51.21,19.13-81.04Zm-100.6,82.03"/><path class="v" d="M233.72,343.27c-1.42-2.15,1-2.3,1.75-2.78,18.62-11.89,28.78-30.06,36.47-49.99,4.89-12.67,7.65-25.91,7.09-39.48-.89-21.24-7.65-40.13-22.87-55.67-11.37-11.61-24.48-19.35-40.39-22.35-3.32-.63-6.61-.17-9.9-.43-1.58-.12-3.37,.6-4.65-1,13.33-7.21,27.37-9.5,42.42-7.38,17.66,2.48,31.68,11.28,43.35,24.19,10.46,11.57,16.8,25.23,19.41,40.84,4.98,29.83-3.6,56.28-19.13,81.04-9.63,15.36-23.26,25.58-40.63,30.79-4.27,1.28-8.78,.57-12.93,2.22Z"/><g><path class="i" d="M205.8,311.26c-4.21-2.12-7.44-5.64-10.4-9.21-9.82-11.89-16.19-25.45-19.03-40.76-3.04-16.36-.57-32.02,5.02-47.4,.76-2.1,1.97-2.03,3.9-1.52,2.36,.63,2.1,1.69,1.58,3.52-2.43,8.58-3.61,17.52-3.46,26.27,.24,13.96,2.3,27.85,7.52,41.01,3.9,9.85,8.93,19.05,14.88,28.08Z"/><path class="i" d="M185.9,202.53c-.19-2.67,1.17-3.44,3.53-3.5,2.86-.07,3.72,1.66,3.59,3.95-.13,2.23-1.66,3.54-3.93,3.31-2.14-.22-3.63-1.31-3.19-3.76Z"/></g></g><g><path class="l" d="M582.46,68.45c-2.61-15.61-8.95-29.27-19.41-40.84-11.67-12.91-25.7-21.71-43.35-24.19-15.05-2.11-29.09,.17-42.42,7.38-4.53,2.54-8.75,5.46-12.82,8.77-10.78,8.79-18.41,19.73-23.41,32.64-6.77,17.45-7.06,35.44-3.49,53.51,4.12,20.84,13,39.54,27.21,55.32,9.06,10.07,20.47,16.65,33.73,19.54,2.81,.61,2.9,1.21,1.47,3.38-2.15,3.26-4.06,6.69-6.18,10.23,3.92,.46,7.32,.85,10.71,1.25,.62,0,1.23,0,1.85,0,1.63-.08,3.25-.44,4.84,.48,.92,.54,2.2,.67,2.94-.15,.83-.91-.05-1.88-.44-2.86-1.38-3.44-2.6-6.94-3.89-10.42,4.15-1.64,8.66-.94,12.93-2.22,17.37-5.21,31-15.43,40.63-30.79,15.52-24.76,24.11-51.21,19.13-81.04Z"/><path class="v" d="M509.78,182.5c-1.42-2.15,1-2.3,1.75-2.78,18.62-11.89,28.78-30.06,36.47-49.99,4.89-12.67,7.65-25.91,7.09-39.48-.89-21.24-7.65-40.13-22.87-55.67-11.37-11.61-24.48-19.35-40.39-22.35-3.32-.63-6.61-.17-9.9-.43-1.58-.12-3.37,.6-4.65-1,13.33-7.21,27.37-9.5,42.42-7.38,17.66,2.48,31.68,11.28,43.35,24.19,10.46,11.57,16.8,25.23,19.41,40.84,4.98,29.83-3.6,56.28-19.13,81.04-9.63,15.36-23.26,25.58-40.63,30.79-4.27,1.28-8.78,.57-12.93,2.22Z"/><g><path class="i" d="M481.87,150.48c-4.21-2.12-7.44-5.64-10.4-9.21-9.82-11.89-16.19-25.45-19.03-40.76-3.04-16.36-.57-32.02,5.02-47.4,.76-2.1,1.97-2.03,3.9-1.52,2.36,.63,2.1,1.69,1.58,3.52-2.43,8.58-3.61,17.52-3.46,26.27,.24,13.96,2.3,27.85,7.52,41.01,3.9,9.85,8.93,19.05,14.88,28.08Z"/><path class="i" d="M461.97,41.76c-.19-2.67,1.17-3.44,3.53-3.5,2.86-.07,3.72,1.66,3.59,3.95-.13,2.23-1.66,3.54-3.93,3.31-2.14-.22-3.63-1.31-3.19-3.76Z"/></g></g><g><path class="p" d="M475.98,140.55c-2.61-15.61-8.95-29.27-19.41-40.84-11.67-12.91-25.7-21.71-43.35-24.19-15.05-2.11-29.09,.17-42.42,7.38-4.53,2.54-8.75,5.46-12.82,8.77-10.78,8.79-18.41,19.73-23.41,32.64-6.77,17.45-7.06,35.44-3.49,53.51,4.12,20.84,13,39.54,27.21,55.32,9.06,10.07,20.47,16.65,33.73,19.54,2.81,.61,2.9,1.21,1.47,3.38-2.15,3.26-4.06,6.69-6.18,10.23,3.92,.46,7.32,.85,10.71,1.25,.62,0,1.23,0,1.85,0,1.63-.08,3.25-.44,4.84,.48,.92,.54,2.2,.67,2.94-.15,.83-.91-.05-1.88-.44-2.86-1.38-3.44-2.6-6.94-3.89-10.42,4.15-1.64,8.66-.94,12.93-2.22,17.37-5.21,31-15.43,40.63-30.79,15.52-24.76,24.11-51.21,19.13-81.04Zm-100.6,82.03"/><path class="v" d="M403.3,254.59c-1.42-2.15,1-2.3,1.75-2.78,18.62-11.89,28.78-30.06,36.47-49.99,4.89-12.67,7.65-25.91,7.09-39.48-.89-21.24-7.65-40.13-22.87-55.67-11.37-11.61-24.48-19.35-40.39-22.35-3.32-.63-6.61-.17-9.9-.43-1.58-.12-3.37,.6-4.65-1,13.33-7.21,27.37-9.5,42.42-7.38,17.66,2.48,31.68,11.28,43.35,24.19,10.46,11.57,16.8,25.23,19.41,40.84,4.98,29.83-3.6,56.28-19.13,81.04-9.63,15.36-23.26,25.58-40.63,30.79-4.27,1.28-8.78,.57-12.93,2.22Z"/><g><path class="i" d="M375.38,222.58c-4.21-2.12-7.44-5.64-10.4-9.21-9.82-11.89-16.19-25.45-19.03-40.76-3.04-16.36-.57-32.02,5.02-47.4,.76-2.1,1.97-2.03,3.9-1.52,2.36,.63,2.1,1.69,1.58,3.52-2.43,8.58-3.61,17.52-3.46,26.27,.24,13.96,2.3,27.85,7.52,41.01,3.9,9.85,8.93,19.05,14.88,28.08Z"/><path class="i" d="M355.48,113.85c-.19-2.67,1.17-3.44,3.53-3.5,2.86-.07,3.72,1.66,3.59,3.95-.13,2.23-1.66,3.54-3.93,3.31-2.14-.22-3.63-1.31-3.19-3.76Z"/></g></g></g></g></g></g></svg>