<?xml version="1.0" encoding="UTF-8"?><svg id="a" xmlns="http://www.w3.org/2000/svg" xmlns:xlink="http://www.w3.org/1999/xlink" viewBox="0 0 718 661"><defs><style>.f{fill:#b22651;}.g{fill:#fff;}.h,.i{fill:#31d0e5;}.j{fill:#98bc5c;}.k{fill:url(#c);}.l{fill:#77c9b0;}.m{fill:#fcf6b4;}.n{fill:#c5db7f;}.o{fill:#f93d77;}.p{opacity:.11;}.q{fill:#d2dae5;}.r{opacity:.45;}.s{clip-path:url(#b);}.t{fill:#fafef6;stroke:#848484;}.t,.u,.v,.i{stroke-miterlimit:10;}.w{clip-path:url(#e);}.u{fill:#cbcfc7;stroke:#939393;}.x{fill:none;}.y{opacity:.14;}.a`{opacity:.42;}.v{fill:#dfe2dc;stroke:#a0a0a0;}.i{stroke:url(#d);stroke-width:6px;}</style><clipPath id="b"><ellipse class="x" cx="358.4" cy="-430.5" rx="286.95" ry="286"/></clipPath><linearGradient id="c" x1="104.06" y1="155.82" x2="602.27" y2="497.19" gradientTransform="matrix(1, 0, 0, 1, 0, 0)" gradientUnits="userSpaceOnUse"><stop offset="0" stop-color="#9b81cf"/><stop offset="1" stop-color="#3b139b"/></linearGradient><linearGradient id="d" x1="66.74" y1="330.5" x2="651.26" y2="330.5" gradientTransform="matrix(1, 0, 0, 1, 0, 0)" gradientUnits="userSpaceOnUse"><stop offset="0" stop-color="#4c1da9"/><stop offset="1" stop-color="#997ece"/></linearGradient><clipPath id="e"><circle class="x" cx="359" cy="330.5" r="286.21"/></clipPath></defs><g class="s"><rect class="h" x="-4.91" y="-717.93" width="892.82" height="889.85"/><g><path class="p" d="M328.88,41.08c.47,7.56-66.61,17.9-149.84,23.09-83.23,5.19-151.08,3.26-151.55-4.3-.47-7.56,66.61-17.9,149.84-23.09,83.23-5.19,151.08-3.27,151.55,4.3Z"/><path class="m" d="M230.33,21.6c.12,1.31,39.19,.94,39.19-.66-.04-12.84,.25-30.6,.2-38.7l-41.63,1.19c1.27,14.58,1.47,29.78,2.24,38.17Z"/><g><path class="o" d="M279.71,3.57c-.75-2.84-2.19-6.42-3.33-9.7-.84-2.43-19.07-1.1-18.78,4.84,.07,1.52,.2,2.86,.36,4.07-3.12,.2-6.51,.33-10.09,.34-7.8,.02-14.81-.45-19.76-1.23,.21,9.4,1.75,25.62,2.05,36.07,0,0,82.54,16,94.49-.29,3.37-4.59-18.18-23.12-44.94-34.09Z"/><path class="f" d="M229.86,31.41c.13,2.32,.24,4.56,.3,6.55,0,0,82.54,16,94.49-.29,.47-.65,.45-1.58-.01-2.72-22.09,7.61-74.28-.06-94.77-3.54Z"/><path class="q" d="M285.58,6.32c.63,.13,1.2-.4,1.29-1.22,.09-.82-.34-1.61-.97-1.75-4.81-1.12-10.15,2.06-13,7.77-.34,.69-.19,1.63,.34,2.1,.2,.18,.43,.27,.66,.27,.36,0,.71-.23,.92-.65,2.38-4.78,6.8-7.48,10.75-6.52Zm6.47,3.49c.63,.12,1.16-.56,1.19-1.39,.03-.83-.47-1.56-1.1-1.62-5.03-.52-9.81,2.21-13.13,7.44-.4,.63-.32,1.58,.17,2.13,.22,.25,.5,.37,.76,.37,.32,0,.63-.18,.84-.52,3.92-6.17,8.73-6.67,11.26-6.42Zm6.94,.85c-4.55-.8-10.17,2.23-13.7,7.35-.42,.61-.37,1.56,.1,2.13,.23,.28,.52,.42,.8,.41,.3,0,.6-.16,.81-.47,3.07-4.46,7.92-7.17,11.77-6.43,.65,.12,1.19-.47,1.25-1.3,.06-.83-.4-1.58-1.03-1.69Z"/></g><g><path class="m" d="M157.59,30.74c-.03,1.2,49.14-3.69,49.35-5.17,1.71-11.88,4.51-28.36,5.56-35.85l-52.49,5.94c-.41,13.35-2.24,27.4-2.42,35.08Z"/><g><path class="o" d="M220.89,5.15c-.18-2.71-1-6.14-1.54-9.28-.4-2.33-23.46-2.01-24.7,3.58-.32,1.43-.52,2.69-.65,3.84-3.94,.03-8.19-.03-12.67-.2-9.72-.38-18.33-1.18-24.28-2.17-2.26,8.84-4.7,24.15-7.13,33.98,0,0,98.53,19.24,117.79,4.55,5.43-4.14-16.44-22.63-46.83-34.3Z"/><path class="f" d="M151.31,28.74c-.46,2.19-.92,4.29-1.39,6.16,0,0,98.53,19.24,117.79,4.55,.76-.58,.98-1.46,.71-2.55-29.57,6.01-92.52-3.85-117.11-8.16Z"/><path class="q" d="M227.47,8.03c.75,.16,1.61-.31,1.94-1.08,.33-.77,0-1.53-.74-1.7-5.69-1.3-13.2,1.42-18.28,6.64-.61,.63-.67,1.52-.14,1.99,.21,.18,.47,.28,.75,.29,.45,.02,.94-.18,1.32-.56,4.25-4.36,10.48-6.68,15.15-5.58Zm7.13,3.61c.75,.15,1.6-.47,1.85-1.24,.25-.78-.16-1.48-.93-1.58-6.12-.75-12.81,1.57-18.35,6.32-.66,.57-.83,1.47-.37,2.01,.21,.25,.52,.37,.85,.39,.39,.02,.83-.13,1.19-.44,6.54-5.6,12.67-5.82,15.76-5.45Zm8.42,1.15c-5.45-.99-13.27,1.58-19.04,6.2-.68,.55-.88,1.45-.45,2.01,.21,.27,.53,.41,.88,.43,.38,.01,.79-.12,1.14-.4,5.02-4.03,11.8-6.33,16.38-5.44,.77,.15,1.61-.38,1.9-1.16,.29-.77-.07-1.51-.83-1.64Z"/></g></g></g></g><g><g><g><circle class="k" cx="359" cy="330.5" r="301.94"/><circle class="i" cx="359" cy="330.5" r="289.26"/></g><ellipse class="x" cx="359" cy="330.5" rx="291.66" ry="291.34"/></g><g class="w"><g><g><path class="h" d="M669.37,309.7c0,156.4-138.28,283.18-308.85,283.18S36.62,479.8,36.62,323.41,189.95,26.52,360.52,26.52s308.85,126.78,308.85,283.18Z"/><path class="n" d="M186.96,828.98S598.71,501.3-12.75,524.08"/><path class="j" d="M460.29,757.87c-151.21,0-355.21-24.7-355.21-71.51s181.16-175.76,572.65-197.48c151-8.38-66.23,268.99-217.44,268.99Z"/><ellipse class="y" cx="298.3" cy="652.54" rx="54.68" ry="13.06" transform="translate(-56.84 29.11) rotate(-5.1)"/><ellipse class="y" cx="531.07" cy="659.97" rx="54.72" ry="13.28" transform="translate(-100.73 95.68) rotate(-9.41)"/><ellipse class="y" cx="216.25" cy="623.48" rx="33.03" ry="8.97" transform="translate(-78.69 33.14) rotate(-7.42)"/><g class="a`"><g><path class="g" d="M161.2,220.93s7.08-33.78,43.74-8.49c36.67,25.29-34.67,28.13-67.07,21.98-32.4-6.15,23.32-13.49,23.32-13.49Z"/><path class="g" d="M231.37,191.73c30.66,15.85,2.93,22.75-22.64,21.24-25.58-1.5-8.02-37.1,22.64-21.24Z"/></g><g><path class="g" d="M560.47,360.69s7.08-33.78,43.74-8.49c36.67,25.29-34.67,28.13-67.07,21.98-32.4-6.15,23.32-13.49,23.32-13.49Z"/><path class="g" d="M630.64,331.49c30.66,15.85,2.93,22.75-22.64,21.24-25.58-1.5-8.02-37.1,22.64-21.24Z"/></g></g><g class="r"><path class="l" d="M132.41,507.72s13.67-8.49,20.83,1.75c7.17,10.24,2.65,7.06-11.35,5.9-14-1.16-14.55-5.39-9.49-7.65Z"/><path class="l" d="M138.4,527.83s4.56-7.79,3.49-12.46c-1.31-5.72,1.16-2.13,1.16-2.13l.48,4.75,4.8-1.92s-5.33,2.18-4.37,6.08c.96,3.9,2.55,5.7,2.55,5.7l-8.1-.03Z"/></g></g><g><g><path class="t" d="M534.12,147.53l-274.03,132.53,82.32,2.85,182.48-127.49-152.27,130.32,84.84,29.38,76.67-167.6Zm0,0"/><path class="v" d="M372.62,285.75l-2.79,40.64-27.41-43.47,182.48-127.49-152.27,130.32Zm0,0"/><path class="u" d="M369.83,326.38l37.28-28.41-34.48-12.22-2.79,40.64Zm0,0"/></g><g><line class="v" x1="269.47" y1="459.73" x2="432.8" y2="319.39"/><line class="v" x1="129.03" y1="395.23" x2="285.5" y2="294.18"/><line class="v" x1="210.22" y1="417.69" x2="338.86" y2="323.87"/></g></g></g></g></g></svg>