<?xml version="1.0" encoding="UTF-8"?><svg id="a" xmlns="http://www.w3.org/2000/svg" xmlns:xlink="http://www.w3.org/1999/xlink" viewBox="0 0 443.78 451.48"><defs><style>.d,.e{fill:#fff;}.f{fill:#d8d8d8;}.g{opacity:.5;}.h,.i{fill:none;}.h,.i,.e,.j{stroke-miterlimit:10;}.h,.e{stroke:#afafaf;}.k{fill:url(#b);}.l{fill:#afafaf;}.i{stroke:#d8d8d8;}.m{opacity:.3;}.j{fill:#31d0e5;stroke:url(#c);stroke-width:6px;}</style><linearGradient id="b" x1="43.17" y1="103.28" x2="392.43" y2="342.6" gradientTransform="matrix(1, 0, 0, 1, 0, 0)" gradientUnits="userSpaceOnUse"><stop offset="0" stop-color="#9b81cf"/><stop offset="1" stop-color="#3b139b"/></linearGradient><linearGradient id="c" x1="16.1" y1="225.74" x2="427.68" y2="225.74" gradientTransform="matrix(1, 0, 0, 1, 0, 0)" gradientUnits="userSpaceOnUse"><stop offset="0" stop-color="#4c1da9"/><stop offset="1" stop-color="#997ece"/></linearGradient></defs><g><path class="g" d="M435.12,236.99c0-36.23-9.21-70.32-25.42-100.03-35.31-67.72-106.15-113.96-187.81-113.96C104.98,23,10.21,117.77,10.21,234.67s94.77,211.68,211.68,211.68c2.97,0,5.93-.08,8.87-.2,113.3-2.59,204.36-95.24,204.36-209.16Z"/><g><circle class="k" cx="221.89" cy="225.74" r="211.68"/><circle class="j" cx="221.89" cy="225.74" r="202.78"/></g></g><g><g class="m"><path class="d" d="M48.64,174.89c-8.71-4.35-15.9-2.97-20.18,.28-.49,3.89-1.56,7.73-2.57,11.56,1.38,1.38,3.64,2.34,6.91,2.53,17.89,1.02,37.28-3.65,15.84-14.37Z"/></g><g class="m"><path class="d" d="M327.83,302.15s4.95-22.85,30.6-5.74-24.25,19.02-46.91,14.86c-22.66-4.16,16.31-9.12,16.31-9.12Z"/><path class="d" d="M376.91,282.4c21.44,10.72,2.05,15.38-15.84,14.37-17.89-1.02-5.61-25.09,15.84-14.37Z"/></g><g><g><path class="e" d="M77.18,233.18l96.46,85.68s29.99,18.14,97.84-48.79l92.19-175.8-124.97-27.2,33.51,80.9c-1.98,2.89-4.07,25.95-195.03,85.21Z"/><path class="f" d="M270.98,269.12l91.73-174.53-123.01-26.38,33.2,79.45s13.35,32.69-1.92,121.45Z"/></g><g><g><line class="i" x1="108.63" y1="238.81" x2="189.42" y2="308.45"/><line class="i" x1="122.55" y1="232.13" x2="205.33" y2="303.48"/><line class="i" x1="138.12" y1="227.73" x2="218.1" y2="296.67"/><line class="i" x1="165.33" y1="216.92" x2="239.01" y2="280.43"/><line class="i" x1="178.49" y1="209.9" x2="249.62" y2="273.21"/><line class="i" x1="150.81" y1="222.12" x2="229.28" y2="289.75"/><line class="i" x1="192.5" y1="204.7" x2="262.69" y2="265.2"/><line class="i" x1="206.42" y1="198.02" x2="273.64" y2="255.96"/><line class="i" x1="221.98" y1="193.61" x2="277.75" y2="241.68"/><line class="i" x1="249.2" y1="182.81" x2="289.83" y2="217.83"/><line class="i" x1="262.36" y1="175.78" x2="297.64" y2="204.23"/><line class="i" x1="269.46" y1="166.33" x2="304.74" y2="194.77"/><line class="i" x1="234.68" y1="188" x2="282.94" y2="229.6"/></g><path class="h" d="M263.08,90.77s79.38,13.68,93.64,14.98"/><path class="h" d="M268.1,101.61s69.64,12.46,83.9,13.77"/><path class="h" d="M272.91,114.16s58.47,8.48,72.73,9.78"/><path class="h" d="M280.94,130.42s9.74,22.55,6.48,46.82l33.14-2.46s20-40.35,19.29-37.85c-.22,.77-58.91-6.51-58.91-6.51Z"/><path class="h" d="M287.72,189.43s22.31-2.08,24.22-2.49"/><path class="h" d="M288.56,200.76s16.28-1.63,18.18-2.04"/></g></g><path class="l" d="M115.14,366.57c64.02,1.82,128.47-23.12,174.79-67.28,7-6.52,13.61-13.62,19.73-20.97,1.79-2.08,4.48-5.24,6.06-7.46l5.8-7.66c1.76-2.24,3.79-5.57,5.44-7.92,1.45-2.19,3.97-5.75,5.27-8.03,1.57-2.69,5.87-9.7,7.39-12.38,3.44-6.5,7.99-14.67,10.94-21.4l4.08-8.72c-1.37,3.1-4.64,10.21-5.95,13.15-2.19,4.97-6.26,12.3-8.7,17.17-2.13,3.86-6.3,10.67-8.54,14.52l-1.34,2c-2.56,3.71-5.44,8.36-8.1,11.96-1.12,1.52-6.24,8.29-7.23,9.63-2.1,2.77-5.48,6.56-7.69,9.26-9.38,11.01-19.9,20.99-31,30.25-29.96,24.33-65.85,41-103.58,48.96-18.81,3.92-38.18,6.01-57.39,4.91h0Z"/><path class="l" d="M38.71,218.25c16.89,45.74,51.5,86.57,97.45,104.66l6.89,2.58c2.49,.67,8.14,2.58,10.57,3.16,3.34,.71,7.42,1.84,10.76,2.43,7.25,1.31,14.55,2.25,21.91,2.74,2.29,.06,8.8,.3,11.05,.37,5.63-.16,12.81-.21,18.4-.86l7.35-.66-7.34,.78c-5.58,.74-12.77,.91-18.41,1.17-2.25-.05-8.72-.18-11.08-.24-7.39-.42-14.72-1.3-22.02-2.54-3.36-.56-7.49-1.65-10.84-2.36-2.4-.61-8.18-2.44-10.64-3.15l-6.94-2.58c-46.23-17.98-81.02-59.25-97.12-105.5h0Z"/></g></svg>