<?xml version="1.0" encoding="UTF-8"?><svg xmlns="http://www.w3.org/2000/svg" xmlns:xlink="http://www.w3.org/1999/xlink" viewBox="0 0 443.78 451.48"><defs><style>.l{fill:#fb8000;}.m{opacity:.2;}.m,.n{mix-blend-mode:screen;}.o,.p{opacity:.5;}.q{fill:#31d0e5;stroke:url(#e);stroke-width:6px;}.q,.r,.s{stroke-miterlimit:10;}.t{fill:#e53963;}.u{isolation:isolate;}.v{fill:#0028ff;}.w{fill:#c5db7f;}.x{fill:#020fe9;}.y{fill:url(#g);}.a`{clip-path:url(#b);}.aa{clip-path:url(#c);}.ab{fill:url(#i);}.p{mix-blend-mode:multiply;}.r{fill:#ff9906;stroke:#d6380d;stroke-width:.75px;}.ac{fill:url(#h);}.ad{fill:url(#d);}.ae,.s{fill:none;}.n{opacity:.3;}.af{fill:#00a3fd;}.ag{clip-path:url(#f);}.ah{fill:#00a6fd;}.ai{fill:url(#j);}.aj{fill:#3fc416;}.s{stroke:#2f404f;stroke-width:.5px;}.ak{fill:url(#k);}.al{fill:#ff7880;}.am{fill:red;}</style><clipPath id="b"><circle class="ae" cx="-184.78" cy="-430.5" r="286.21"/></clipPath><clipPath id="c"><circle class="ae" cx="633.22" cy="-430.5" r="286.21"/></clipPath><linearGradient id="d" x1="43.17" y1="103.28" x2="392.43" y2="342.6" gradientTransform="matrix(1, 0, 0, 1, 0, 0)" gradientUnits="userSpaceOnUse"><stop offset="0" stop-color="#9b81cf"/><stop offset="1" stop-color="#3b139b"/></linearGradient><linearGradient id="e" x1="16.1" y1="225.74" x2="427.68" y2="225.74" gradientTransform="matrix(1, 0, 0, 1, 0, 0)" gradientUnits="userSpaceOnUse"><stop offset="0" stop-color="#4c1da9"/><stop offset="1" stop-color="#997ece"/></linearGradient><clipPath id="f"><circle class="ae" cx="225.89" cy="228.06" r="209.22"/></clipPath><linearGradient id="g" x1="-183.22" y1="-5987.01" x2="-182.31" y2="-5878.83" gradientTransform="translate(2169.55 4323.98) rotate(154.33) scale(.76 -.76)" gradientUnits="userSpaceOnUse"><stop offset="0" stop-color="#cc8122"/><stop offset=".32" stop-color="#9e5d16"/><stop offset=".78" stop-color="#612e06"/><stop offset="1" stop-color="#491c00"/></linearGradient><linearGradient id="h" x1="-243.49" y1="-5941.44" x2="-122.03" y2="-5941.44" xlink:href="#g"/><linearGradient id="i" x1="-4442.21" y1="-9345.39" x2="-4382.65" y2="-9345.39" gradientTransform="translate(-12153.64 14820.02) rotate(-165.22) scale(1.86 -1.86)" gradientUnits="userSpaceOnUse"><stop offset="0" stop-color="#ff0a3b"/><stop offset=".67" stop-color="#ff576b"/><stop offset="1" stop-color="#ff7880"/></linearGradient><linearGradient id="j" x1="-4398.45" y1="-9368.97" x2="-4397.8" y2="-9291.54" gradientTransform="translate(-12153.64 14820.02) rotate(-165.22) scale(1.86 -1.86)" xlink:href="#g"/><linearGradient id="k" x1="-4442.21" y1="-9336.39" x2="-4354.03" y2="-9336.39" gradientTransform="translate(-12153.64 14820.02) rotate(-165.22) scale(1.86 -1.86)" xlink:href="#g"/></defs><g class="u"><g id="a"><g class="a`"><g/></g><g class="aa"><path class="w" d="M461.18,67.98s411.75-327.68-199.71-304.9"/></g><g><path class="o" d="M435.12,236.99c0-36.23-9.21-70.32-25.42-100.03-35.31-67.72-106.15-113.96-187.81-113.96C104.98,23,10.21,117.77,10.21,234.67s94.77,211.68,211.68,211.68c2.97,0,5.93-.08,8.87-.2,113.3-2.59,204.36-95.24,204.36-209.16Z"/><g><g><circle class="ad" cx="221.89" cy="225.74" r="211.68"/><circle class="q" cx="221.89" cy="225.74" r="202.78"/></g><g class="ag"><g><g><g><path class="aj" d="M378.3,169.4s.15,.17,.4,.46c.25,.29,.6,.71,.98,1.23,.18,.26,.38,.55,.55,.86,.18,.31,.33,.64,.44,.99,.05,.17,.1,.35,.12,.52,.01,.2,.03,.4,.05,.61,.03,.45,.09,.9,.17,1.35,.08,.45,.19,.91,.35,1.35,.16,.44,.36,.87,.63,1.25,.26,.38,.6,.7,.94,.93,.35,.24,.7,.39,1.03,.5,.32,.12,.63,.19,.89,.25,.26,.06,.5,.1,.69,.13,.38,.07,.6,.09,.6,.09,0,0-.19-.11-.54-.29-.34-.18-.85-.42-1.39-.73-.27-.16-.54-.35-.79-.58-.25-.23-.47-.5-.65-.82-.18-.32-.33-.67-.44-1.06-.12-.39-.21-.79-.28-1.21-.08-.42-.13-.84-.18-1.26-.03-.22-.04-.41-.09-.68-.05-.25-.12-.48-.21-.69-.18-.43-.41-.8-.66-1.12-.25-.32-.51-.59-.76-.82-.25-.24-.49-.43-.71-.59-.22-.16-.42-.29-.59-.39-.34-.2-.54-.29-.54-.29Z"/><path class="v" d="M378.29,169.5s.32,.05,.85,.21c.27,.08,.58,.19,.93,.35,.35,.16,.72,.37,1.07,.65,.35,.28,.68,.64,.9,1.07,.23,.43,.34,.95,.35,1.49,.01,.55-.1,1.13-.26,1.71-.04,.14-.08,.29-.14,.44l-.17,.46c-.11,.31-.21,.62-.32,.93-.09,.32-.16,.68-.24,1.02-.07,.34-.09,.69-.13,1.03-.02,.34,0,.69,0,1.03l.07,.5c.02,.17,.04,.33,.09,.49,.08,.32,.16,.64,.3,.93,.07,.15,.12,.3,.19,.43,.08,.13,.15,.27,.23,.4,.07,.13,.16,.25,.25,.37l.26,.34c.2,.2,.38,.41,.58,.57,.2,.16,.38,.33,.59,.45,.2,.13,.38,.25,.57,.34,.18,.1,.35,.19,.52,.24,.17,.06,.31,.13,.46,.17,.14,.04,.27,.08,.38,.11,.11,.02,.21,.04,.28,.05,.15,.03,.23,.04,.23,.04,.06,.01,.11-.03,.12-.08,0-.05-.02-.1-.06-.12h0l-.21-.09c-.07-.03-.15-.06-.25-.1l-.33-.16c-.13-.05-.26-.14-.4-.22-.14-.08-.29-.18-.45-.29-.16-.1-.31-.24-.47-.38-.17-.13-.31-.3-.48-.46-.16-.16-.3-.36-.45-.55l-.2-.32c-.07-.11-.14-.21-.19-.33-.06-.12-.11-.23-.17-.35-.06-.12-.09-.25-.14-.38-.04-.13-.1-.25-.12-.39-.03-.14-.06-.27-.09-.41-.04-.14-.05-.28-.06-.42l-.04-.43c0-.15,0-.29,.01-.44,0-.15,0-.3,.02-.45,.05-.3,.07-.61,.13-.9,.08-.29,.13-.58,.22-.88,.1-.31,.2-.62,.31-.93l.16-.46c.06-.16,.1-.33,.15-.49,.18-.66,.27-1.35,.23-2.03-.03-.68-.24-1.35-.58-1.88-.16-.27-.37-.5-.57-.71-.22-.2-.43-.37-.66-.51-.44-.29-.89-.46-1.28-.57-.4-.12-.75-.18-1.04-.22-.29-.04-.52-.04-.67-.05-.15,0-.24,0-.24,0-.06,0-.1,.05-.1,.11,0,.05,.04,.09,.09,.1Z"/><path class="am" d="M378.29,169.5s.06,.01,.19,.06c.12,.04,.3,.13,.5,.26,.2,.13,.43,.32,.65,.57,.21,.25,.41,.57,.57,.95,.15,.38,.26,.81,.32,1.29,.06,.47,.07,.99,.04,1.52-.02,.27-.04,.54-.07,.81-.04,.28-.07,.56-.11,.85-.08,.62-.1,1.26,0,1.91,.09,.65,.3,1.29,.63,1.86,.33,.57,.78,1.04,1.27,1.41,.49,.37,1.02,.62,1.52,.8,.51,.18,1,.28,1.46,.34,.92,.12,1.68,.05,2.21-.04,.53-.09,.81-.24,.81-.24h0c.05-.03,.07-.09,.05-.14-.02-.04-.07-.07-.12-.05,0,0-.07,.02-.2,.03-.13,.02-.33,.03-.58,.03-.5,0-1.22-.06-2.05-.27-.41-.1-.85-.25-1.28-.44-.43-.19-.86-.45-1.25-.77-.39-.32-.71-.71-.96-1.16-.25-.45-.41-.96-.48-1.49-.08-.53-.07-1.09-.01-1.63,.07-.57,.13-1.19,.12-1.77,0-.58-.05-1.15-.17-1.69-.11-.53-.29-1.03-.53-1.45-.23-.43-.52-.77-.82-1.03-.3-.26-.6-.42-.86-.52-.26-.1-.47-.14-.61-.16-.14-.02-.23-.02-.23-.02-.06,0-.1,.05-.1,.11,0,.05,.04,.09,.08,.1Z"/><g><path class="aj" d="M296.41,209.14s-.06,.22-.11,.61c-.03,.2-.05,.43-.06,.71-.01,.28-.02,.59,0,.93,.02,.34,.07,.72,.16,1.11,.09,.39,.23,.81,.45,1.22,.11,.2,.24,.41,.4,.6,.17,.2,.32,.33,.47,.49,.29,.3,.58,.61,.86,.93,.28,.32,.53,.65,.76,.98,.23,.33,.41,.67,.54,1.01,.13,.34,.2,.68,.23,1.02,.02,.34,0,.67-.05,.99-.1,.63-.23,1.17-.31,1.56-.08,.38-.11,.61-.11,.61,0,0,.12-.19,.3-.53,.09-.17,.21-.38,.33-.63,.12-.25,.25-.53,.37-.86,.11-.33,.22-.7,.25-1.12,.03-.42,0-.88-.13-1.33-.12-.45-.33-.88-.57-1.28-.24-.4-.52-.77-.82-1.12-.3-.34-.62-.67-.94-.98-.15-.14-.3-.28-.44-.41-.12-.12-.23-.27-.33-.42-.2-.3-.36-.63-.49-.97-.13-.33-.23-.66-.32-.97-.17-.62-.27-1.16-.34-1.54-.06-.38-.1-.6-.1-.6Z"/><path class="ah" d="M296.32,209.08s-.06,.07-.15,.19c-.09,.13-.23,.31-.38,.56-.15,.25-.33,.57-.48,.95-.16,.39-.3,.84-.36,1.37-.04,.26-.04,.54-.02,.84,.03,.29,.08,.6,.19,.9,.2,.61,.59,1.18,1.09,1.63,.5,.46,1.09,.82,1.71,1.09,.16,.06,.31,.14,.47,.19l.46,.16c.3,.11,.61,.23,.91,.34,.29,.12,.55,.25,.82,.38,.27,.13,.52,.31,.78,.46,.13,.08,.24,.18,.35,.27,.12,.09,.24,.17,.35,.27,.1,.1,.21,.2,.31,.3,.1,.1,.21,.19,.29,.31,.09,.11,.17,.22,.26,.33,.09,.1,.15,.23,.23,.34,.07,.12,.15,.22,.21,.34,.06,.12,.11,.24,.17,.36,.06,.11,.1,.24,.14,.36l.12,.36c.05,.24,.12,.47,.14,.7,.02,.23,.06,.45,.06,.66,0,.21,.02,.42,0,.61,0,.19-.02,.37-.05,.54-.02,.16-.04,.32-.08,.45-.03,.14-.06,.26-.08,.36-.03,.1-.06,.19-.08,.26l-.07,.22h0c-.02,.06,.01,.12,.07,.14,.05,.01,.1,0,.12-.05,0,0,.04-.07,.11-.21,.04-.07,.08-.16,.14-.26l.15-.36c.06-.14,.1-.29,.16-.46,.06-.17,.1-.36,.14-.57,.05-.2,.07-.42,.09-.66,.03-.23,.02-.48,.02-.74,0-.26-.05-.53-.08-.81l-.1-.42c-.03-.14-.07-.29-.13-.43-.05-.14-.11-.29-.16-.43-.05-.15-.14-.28-.21-.42-.14-.29-.34-.55-.53-.82-.09-.14-.21-.26-.32-.38l-.35-.37c-.25-.22-.51-.44-.79-.64-.29-.18-.57-.38-.88-.54-.31-.15-.63-.32-.94-.45-.31-.11-.61-.22-.92-.33l-.46-.16c-.15-.04-.28-.11-.42-.16-.55-.23-1.07-.51-1.48-.86-.42-.35-.75-.76-.93-1.21-.2-.45-.27-.93-.27-1.38,0-.45,.08-.88,.17-1.25,.1-.37,.21-.69,.31-.95,.21-.52,.37-.8,.37-.8,.03-.05,.01-.11-.04-.14-.04-.03-.1-.01-.13,.02Z"/><path class="l" d="M296.32,209.09s-.05,.07-.13,.19c-.07,.13-.18,.32-.26,.59-.08,.27-.15,.61-.13,1,0,.39,.09,.84,.28,1.29,.18,.45,.45,.91,.79,1.32,.34,.42,.75,.82,1.2,1.19,.44,.36,.96,.71,1.44,1.01,.46,.29,.89,.64,1.25,1.03,.37,.39,.66,.83,.85,1.31,.19,.48,.29,.98,.3,1.49,0,.5-.06,1-.18,1.46-.12,.46-.28,.9-.46,1.29-.36,.78-.76,1.39-1.07,1.78-.16,.2-.29,.35-.38,.44-.09,.09-.15,.14-.15,.14-.05,.04-.05,.1-.02,.15,.03,.04,.08,.05,.12,.03h0s.29-.14,.69-.49c.4-.35,.93-.92,1.41-1.71,.24-.4,.47-.85,.65-1.37,.18-.51,.32-1.08,.34-1.7,.02-.61-.06-1.27-.29-1.88-.23-.61-.6-1.18-1.04-1.66-.44-.48-.95-.86-1.48-1.19-.24-.15-.49-.3-.73-.44-.23-.14-.46-.3-.67-.45-.42-.31-.81-.64-1.15-.98-.33-.34-.6-.7-.79-1.06-.2-.36-.32-.71-.38-1.04-.06-.33-.06-.62-.03-.87,.03-.24,.07-.43,.12-.56,.04-.13,.07-.19,.07-.19,.03-.05,0-.11-.05-.14-.04-.02-.1,0-.13,.03Z"/></g><g><path class="l" d="M358.28,234.05s.12,.16,.35,.48c.23,.31,.55,.78,.94,1.38,.38,.6,.83,1.34,1.3,2.2,.46,.86,.95,1.84,1.39,2.94,.43,1.09,.85,2.29,1.11,3.56,.13,.64,.24,1.29,.3,1.96,.06,.67,.08,1.35,.03,2.04-.04,.69-.14,1.38-.3,2.06-.08,.34-.18,.69-.28,1.01l-.09,.27-.09,.25c-.06,.16-.13,.33-.2,.49-.57,1.33-1.4,2.58-2.39,3.77-.98,1.2-2.11,2.34-3.16,3.55-1.05,1.21-2.03,2.48-2.76,3.83-.72,1.35-1.18,2.76-1.42,4.12-.24,1.36-.26,2.66-.19,3.85,.07,1.19,.26,2.28,.45,3.23,.19,.95,.43,1.77,.63,2.44,.1,.34,.2,.63,.28,.89,.09,.26,.16,.48,.23,.66,.13,.35,.2,.54,.2,.54,.03,.09,.14,.14,.24,.12,.09-.02,.15-.1,.13-.18h0s-.04-.19-.12-.56c-.08-.36-.19-.89-.31-1.56-.12-.67-.25-1.49-.36-2.42-.11-.93-.17-1.99-.16-3.12,.01-1.14,.14-2.35,.43-3.59,.29-1.24,.78-2.5,1.51-3.71,.71-1.21,1.64-2.37,2.7-3.51,1.06-1.14,2.21-2.29,3.27-3.55,.53-.63,1.03-1.29,1.48-1.98,.45-.69,.83-1.42,1.15-2.16,.08-.19,.15-.37,.22-.57l.1-.29,.09-.27c.12-.39,.22-.77,.3-1.16,.16-.77,.25-1.55,.26-2.31,.03-1.53-.18-3.01-.56-4.36-.38-1.36-.88-2.61-1.45-3.72-.57-1.11-1.16-2.1-1.74-2.95-.58-.85-1.13-1.56-1.61-2.13-.48-.57-.88-1-1.16-1.29-.28-.29-.44-.44-.44-.44-.07-.07-.2-.07-.27-.01-.07,.05-.07,.14-.02,.21Z"/><path class="x" d="M359.62,233.81v.14c0,.09,.02,.23,.04,.41,.04,.36,.14,.89,.34,1.54,.2,.65,.53,1.41,1,2.23,.48,.81,1.11,1.68,1.91,2.52,.8,.85,1.76,1.67,2.85,2.44,.54,.38,1.15,.75,1.76,1.24,.6,.47,1.17,1.01,1.7,1.63,.52,.62,.98,1.34,1.31,2.13,.34,.79,.53,1.65,.58,2.52,.05,.87-.03,1.73-.2,2.57-.17,.83-.41,1.64-.7,2.42-.59,1.55-1.31,3-1.95,4.42-.32,.71-.63,1.41-.88,2.1-.12,.35-.23,.69-.32,1.03-.04,.17-.08,.34-.11,.51v.06s0-.02-.01,0v.05l-.03,.14-.04,.28-.04,.28-.03,.26c-.02,.17-.04,.34-.04,.52l-.03,.52c0,.17,0,.34,0,.51,.02,.68,.1,1.33,.26,1.94,.31,1.23,.94,2.29,1.7,3.13,.76,.85,1.61,1.51,2.39,2.08,.78,.56,1.5,1.03,2.08,1.42,.59,.39,1.04,.72,1.34,.94,.3,.23,.47,.35,.47,.35,.07,.05,.08,.15,.03,.22-.05,.06-.14,.08-.2,.04h0l-.5-.29c-.33-.18-.81-.44-1.43-.77-.62-.33-1.38-.72-2.23-1.24-.85-.51-1.81-1.13-2.71-2.02-.45-.44-.89-.96-1.26-1.55-.38-.59-.68-1.25-.9-1.96-.22-.71-.35-1.46-.4-2.23,0-.19-.02-.38-.02-.58,0-.19,0-.39,0-.58,0-.19,.02-.39,.03-.59l.02-.3,.03-.28,.03-.28,.02-.14v-.09l.02-.08c.03-.21,.07-.41,.12-.61,.09-.4,.2-.79,.33-1.18,.25-.77,.56-1.52,.88-2.24,.65-1.46,1.34-2.89,1.87-4.34,.54-1.44,.92-2.92,.85-4.34-.04-.71-.18-1.39-.43-2.03-.25-.64-.61-1.24-1.03-1.78-.43-.54-.92-1.03-1.44-1.48-.5-.44-1.08-.84-1.65-1.28-.56-.44-1.08-.89-1.57-1.35-.48-.47-.92-.94-1.31-1.42-.39-.48-.75-.96-1.05-1.44-.3-.48-.56-.95-.78-1.41-.43-.91-.69-1.76-.83-2.47-.15-.71-.17-1.28-.17-1.66,0-.39,.04-.6,.04-.6,.01-.09,.09-.14,.18-.13,.08,.01,.13,.08,.13,.16h0Z"/><path class="af" d="M359.81,233.24v.03l-.02,.1c-.01,.09-.03,.23-.05,.41-.03,.36-.03,.9,.04,1.58,.07,.68,.24,1.49,.54,2.38,.31,.89,.76,1.86,1.38,2.85,.62,.98,1.4,1.98,2.32,2.95,.46,.48,.98,.96,1.49,1.55,.5,.57,.96,1.22,1.35,1.93,.39,.71,.7,1.5,.88,2.34,.18,.84,.2,1.73,.08,2.59-.12,.86-.37,1.7-.69,2.48-.33,.79-.72,1.53-1.16,2.24-.87,1.41-1.87,2.69-2.77,3.96-.45,.63-.89,1.26-1.27,1.89-.19,.31-.36,.63-.51,.95-.08,.16-.15,.32-.21,.48l-.02,.06s0-.02,0,0v.02l-.02,.03-.05,.13-.09,.27-.09,.26-.07,.25c-.05,.17-.11,.33-.14,.5l-.13,.5c-.03,.17-.07,.33-.1,.5-.12,.67-.16,1.32-.13,1.96,.07,1.27,.48,2.42,1.06,3.4,.58,.98,1.29,1.8,1.94,2.5,.66,.7,1.27,1.3,1.76,1.8,.5,.5,.88,.9,1.14,1.18,.25,.28,.39,.43,.39,.43,.06,.06,.05,.16-.01,.22-.06,.05-.15,.05-.21,0h0l-.43-.38c-.28-.24-.71-.59-1.25-1.03-.54-.45-1.21-.98-1.95-1.64-.73-.66-1.55-1.46-2.27-2.51-.36-.52-.68-1.11-.94-1.76-.26-.65-.43-1.36-.5-2.1-.08-.74-.06-1.5,.04-2.27,.03-.19,.06-.38,.09-.57,.03-.19,.08-.38,.12-.57,.04-.19,.1-.38,.15-.57l.08-.29,.09-.27,.09-.27,.04-.13,.03-.08,.03-.07c.07-.2,.15-.39,.23-.57,.17-.38,.35-.74,.55-1.09,.4-.71,.84-1.38,1.3-2.03,.92-1.31,1.87-2.57,2.68-3.9,.81-1.31,1.47-2.69,1.67-4.1,.1-.7,.09-1.4-.03-2.08-.12-.68-.35-1.33-.67-1.95-.31-.62-.7-1.19-1.13-1.73-.41-.53-.9-1.03-1.37-1.57-.46-.54-.89-1.08-1.27-1.63-.38-.55-.72-1.1-1.01-1.65-.29-.55-.55-1.09-.75-1.62-.2-.53-.37-1.04-.49-1.53-.25-.98-.33-1.86-.33-2.58,0-.72,.08-1.29,.16-1.67,.08-.38,.15-.58,.15-.58,.03-.08,.12-.12,.2-.09,.07,.03,.12,.1,.1,.18h0Z"/></g><g><polygon class="r" points="295.62 209.53 357.26 231.38 378.89 169.12 317.25 147.27 295.62 209.53"/><g class="n"><path class="al" d="M312.71,175.64c5.4,11.36,15.86,18.62,27.33,20.36,.28,.04,.55,.08,.83,.11,6.68,.85,13.67-.17,20.19-3.33,5.57-2.7,10.15-6.66,13.55-11.37l4.27-12.29-61.63-21.85-7.2,20.73c.59,2.59,1.47,5.14,2.66,7.63Z"/></g><g class="p"><path class="y" d="M336.99,189.61c1.02,2.14,2.04,4.27,3.05,6.38,1.48,3.1,2.95,6.16,4.35,9.1,2.38,4.94,4.6,9.54,6.5,13.49,1.92,3.94,3.51,7.23,4.63,9.53,.76,1.55,1.3,2.65,1.57,3.2,.13,.26,.2,.4,.2,.4l.21-.1s-.06-.14-.19-.41c-.26-.56-.77-1.67-1.49-3.24-1.08-2.32-2.62-5.63-4.47-9.6-1.86-3.97-4.04-8.59-6.36-13.56-1.33-2.81-2.71-5.73-4.12-8.7-1.07-2.25-2.15-4.53-3.22-6.81-2.52-5.27-5.04-10.55-7.4-15.49-2.38-4.93-4.6-9.54-6.5-13.49-1.92-3.94-3.51-7.23-4.63-9.53-.91-1.85-1.5-3.06-1.7-3.46l-.16-.06-.06,.16c.19,.4,.75,1.63,1.61,3.5,1.08,2.32,2.62,5.63,4.47,9.6,1.86,3.97,4.04,8.6,6.37,13.55,2.34,4.95,4.84,10.23,7.34,15.52Z"/><path class="ac" d="M295.62,209.53l.84,.3c16.82-28.47,49.6-44.37,82.11-39.83l.31-.88-3.4-1.21c-15.14-1.48-30.46,1.31-44.57,8.16-14.05,6.82-25.74,17.1-34.05,29.89l-1.24,3.57Z"/></g><polygon class="r" points="367.45 233.14 356.78 230.44 352.2 240.55 367.45 233.14"/></g></g><path class="s" d="M330.91,176.07c19.31,54.11,34.59,99.1,65.2,148.12"/></g><g><g><path class="aj" d="M263.43,143.35s0,.39,.02,1.07c0,.68,0,1.64-.08,2.76-.05,.56-.12,1.16-.24,1.77-.12,.61-.28,1.24-.54,1.82-.13,.29-.27,.57-.44,.83-.21,.28-.42,.57-.63,.86-.47,.63-.91,1.3-1.31,1.99-.4,.7-.77,1.42-1.06,2.19-.29,.76-.5,1.56-.57,2.37-.08,.81,.01,1.61,.21,2.32,.2,.71,.51,1.32,.82,1.84,.31,.52,.63,.96,.92,1.34,.29,.38,.56,.7,.78,.96,.44,.52,.71,.81,.71,.81,0,0-.13-.37-.39-1-.26-.63-.67-1.52-1.05-2.56-.18-.52-.33-1.09-.41-1.68-.07-.59-.06-1.2,.06-1.82,.12-.62,.33-1.27,.61-1.91,.28-.64,.63-1.29,1-1.92,.37-.64,.79-1.26,1.19-1.88,.22-.32,.42-.59,.65-1,.22-.38,.38-.77,.5-1.16,.25-.78,.35-1.53,.38-2.23,.03-.7-.02-1.36-.09-1.95-.07-.6-.18-1.13-.29-1.6-.11-.47-.24-.87-.35-1.19-.22-.65-.4-1.01-.4-1.01Z"/><path class="ah" d="M263.31,143.48s.37,.42,.91,1.25c.27,.41,.57,.92,.86,1.53,.29,.6,.55,1.31,.71,2.08,.16,.77,.19,1.62,0,2.45-.18,.84-.62,1.65-1.23,2.38-.61,.74-1.42,1.38-2.31,1.96-.23,.14-.44,.3-.68,.42l-.75,.42c-.5,.29-.99,.58-1.49,.86-.5,.32-1,.72-1.49,1.08-.49,.38-.91,.81-1.35,1.21-.42,.43-.8,.9-1.17,1.36-.16,.25-.32,.5-.48,.75-.16,.25-.32,.49-.44,.76-.25,.52-.52,1.03-.66,1.58-.08,.27-.18,.52-.23,.79-.05,.27-.1,.53-.14,.79-.06,.26-.07,.52-.08,.78-.01,.26-.03,.51-.04,.75,.05,.49,.05,.97,.13,1.42,.09,.45,.14,.88,.28,1.27,.12,.39,.23,.76,.38,1.1,.14,.34,.27,.65,.43,.92,.15,.27,.28,.53,.43,.74,.14,.21,.27,.4,.39,.57l.32,.39,.27,.32c.06,.08,.18,.09,.26,.03,.07-.06,.09-.15,.05-.23v-.02s-.08-.12-.2-.36c-.06-.12-.14-.26-.23-.43-.08-.17-.16-.37-.26-.6-.11-.22-.18-.48-.28-.75-.1-.27-.19-.57-.27-.9-.1-.32-.15-.67-.21-1.04-.08-.36-.09-.75-.12-1.16-.03-.4,.02-.82,.02-1.25,.03-.21,.06-.43,.09-.65,.03-.22,.05-.44,.12-.66,.06-.22,.11-.44,.17-.67,.06-.22,.17-.44,.25-.66,.1-.22,.15-.45,.28-.66,.11-.21,.23-.43,.35-.64,.1-.22,.26-.42,.4-.63,.15-.2,.29-.41,.44-.62,.16-.2,.35-.38,.52-.57,.18-.19,.33-.4,.53-.57,.4-.34,.78-.73,1.2-1.04,.44-.3,.84-.62,1.31-.92,.49-.3,.99-.59,1.48-.89l.74-.43c.26-.14,.51-.32,.76-.49,1-.67,1.9-1.49,2.62-2.43,.73-.94,1.22-2.06,1.36-3.16,.09-.55,.08-1.09,.04-1.6-.07-.51-.16-.99-.31-1.43-.28-.89-.68-1.62-1.08-2.23-.4-.61-.81-1.09-1.16-1.47-.35-.38-.65-.65-.86-.83-.21-.18-.33-.27-.33-.27-.08-.06-.2-.05-.26,.03-.06,.07-.05,.17,0,.23Z"/><path class="l" d="M263.3,143.48s.07,.09,.19,.3c.12,.2,.26,.51,.39,.92,.12,.41,.22,.92,.23,1.5,0,.58-.09,1.23-.32,1.91-.23,.68-.57,1.38-1.03,2.08-.46,.7-1.04,1.38-1.67,2.06-.33,.33-.66,.67-1.02,.99-.37,.33-.74,.66-1.12,1-.82,.73-1.58,1.56-2.19,2.53-.61,.96-1.06,2.06-1.26,3.19-.21,1.13-.13,2.28,.11,3.32,.24,1.04,.67,1.98,1.15,2.8,.48,.82,1.04,1.52,1.59,2.12,1.1,1.2,2.21,1.99,3.03,2.46,.82,.48,1.37,.61,1.37,.61h0c.1,.03,.2-.03,.22-.13,.02-.08-.02-.17-.09-.21,0,0-.11-.06-.31-.18-.2-.13-.47-.34-.82-.62-.67-.57-1.58-1.48-2.46-2.69-.44-.61-.86-1.3-1.23-2.05-.37-.75-.64-1.58-.81-2.44-.16-.86-.15-1.76,.03-2.64,.17-.88,.54-1.74,1.06-2.52,.5-.79,1.14-1.53,1.84-2.18,.75-.67,1.53-1.43,2.18-2.2,.67-.77,1.24-1.59,1.7-2.43,.46-.83,.78-1.7,.94-2.53,.18-.83,.17-1.62,.06-2.3-.1-.68-.34-1.24-.56-1.67-.23-.43-.47-.73-.64-.92-.17-.19-.29-.28-.29-.28-.08-.07-.19-.06-.26,.02-.06,.07-.06,.16,0,.23Z"/><g><path class="aj" d="M107.33,102.55s-.33,.22-.85,.68c-.26,.23-.57,.52-.9,.87-.33,.35-.7,.76-1.05,1.25-.36,.48-.73,1.03-1.05,1.66-.32,.63-.61,1.33-.78,2.13-.08,.4-.14,.82-.14,1.25,0,.47,.05,.8,.07,1.19,.04,.73,.09,1.47,.1,2.21,0,.74-.01,1.47-.09,2.16-.07,.7-.21,1.36-.42,1.96-.2,.6-.5,1.14-.85,1.61-.36,.47-.77,.89-1.19,1.26-.85,.72-1.65,1.29-2.19,1.72-.54,.42-.84,.68-.84,.68,0,0,.38-.12,1.02-.36,.32-.12,.71-.26,1.15-.46,.44-.19,.94-.41,1.47-.72,.53-.3,1.1-.68,1.63-1.2,.52-.52,1.01-1.17,1.34-1.91,.34-.74,.56-1.54,.69-2.34,.13-.81,.17-1.62,.17-2.42-.01-.8-.06-1.6-.15-2.37-.04-.35-.08-.71-.12-1.05-.03-.31,0-.62,.03-.94,.07-.63,.24-1.26,.44-1.84,.2-.59,.44-1.14,.67-1.66,.49-1.01,.96-1.85,1.3-2.44,.35-.58,.55-.92,.55-.92Z"/><path class="ah" d="M107.28,102.38s-.15,.02-.42,.08c-.27,.06-.67,.14-1.16,.31-.49,.16-1.09,.38-1.74,.72-.65,.33-1.37,.77-2.05,1.41-.35,.31-.67,.68-.98,1.09-.29,.42-.57,.89-.76,1.41-.42,1.03-.55,2.24-.39,3.41,.16,1.18,.54,2.33,1.07,3.4,.14,.26,.26,.54,.42,.79l.43,.74c.28,.5,.56,.99,.84,1.49,.26,.49,.45,.96,.68,1.44,.21,.48,.35,1,.53,1.5,.09,.25,.11,.51,.18,.76,.05,.25,.12,.5,.17,.75,.03,.25,.05,.5,.08,.75,.03,.25,.06,.5,.04,.74,0,.25-.01,.49-.02,.73,0,.24-.06,.47-.08,.71-.04,.23-.05,.47-.11,.69l-.18,.66c-.05,.22-.14,.43-.22,.63-.08,.21-.16,.41-.24,.61-.21,.37-.38,.76-.61,1.1-.23,.33-.43,.67-.68,.95-.23,.29-.45,.57-.7,.8-.23,.24-.46,.46-.68,.65-.22,.19-.42,.38-.62,.52-.2,.15-.37,.28-.53,.39-.16,.1-.3,.19-.41,.26l-.35,.22h-.01c-.09,.06-.11,.18-.06,.26,.05,.07,.14,.1,.22,.07,0,0,.14-.05,.4-.15,.13-.05,.29-.11,.48-.18,.18-.09,.39-.19,.62-.31,.24-.11,.47-.27,.74-.44,.28-.16,.54-.37,.83-.59,.3-.21,.58-.48,.88-.77,.31-.27,.57-.62,.87-.97,.3-.35,.53-.76,.82-1.17,.11-.22,.23-.45,.34-.67,.12-.23,.24-.46,.31-.71,.09-.25,.18-.5,.27-.76,.09-.26,.13-.53,.2-.8,.15-.54,.17-1.11,.21-1.69,.03-.29,.01-.58,0-.87-.02-.29-.03-.59-.05-.88-.09-.58-.19-1.18-.34-1.76-.19-.57-.34-1.15-.58-1.71-.25-.55-.49-1.15-.76-1.67-.29-.49-.58-.99-.87-1.48l-.44-.73c-.15-.23-.26-.47-.38-.7-.48-.94-.87-1.89-1.03-2.84-.16-.94-.15-1.86,.12-2.67,.25-.82,.69-1.54,1.22-2.14,.52-.59,1.1-1.08,1.65-1.46,.55-.38,1.07-.68,1.51-.91,.88-.45,1.41-.64,1.41-.64,.1-.03,.15-.14,.11-.23-.03-.08-.12-.13-.2-.12Z"/><path class="l" d="M107.27,102.38s-.15,.03-.39,.11c-.25,.08-.6,.22-1.02,.48-.41,.26-.89,.64-1.32,1.18-.44,.53-.84,1.22-1.09,2.03-.27,.8-.43,1.71-.44,2.66-.02,.95,.07,1.95,.26,2.94,.19,.99,.49,2.03,.8,2.98,.29,.91,.48,1.86,.52,2.79,.06,.93-.05,1.86-.34,2.71-.28,.85-.73,1.64-1.29,2.31-.57,.67-1.23,1.25-1.92,1.73-.69,.47-1.4,.87-2.09,1.18-1.37,.62-2.61,.97-3.48,1.14-.44,.08-.78,.13-1.02,.14-.24,.02-.36,.01-.36,.01-.1,0-.19,.07-.19,.17,0,.09,.05,.16,.13,.18h0s.54,.15,1.49,.14c.95-.01,2.3-.16,3.86-.66,.78-.25,1.61-.59,2.44-1.07,.82-.48,1.67-1.08,2.39-1.87,.72-.79,1.37-1.74,1.75-2.83,.39-1.08,.54-2.25,.49-3.39-.06-1.14-.31-2.23-.65-3.27-.16-.48-.32-.95-.48-1.41-.15-.46-.28-.91-.4-1.36-.21-.9-.37-1.78-.43-2.61-.05-.83,0-1.61,.13-2.31,.14-.7,.38-1.31,.67-1.81,.29-.5,.63-.89,.94-1.19,.32-.29,.6-.49,.8-.61,.2-.12,.31-.17,.31-.17,.09-.04,.14-.15,.1-.24-.03-.08-.12-.12-.2-.11Z"/></g><polygon class="t" points="105.83 102.17 164.25 201.55 264.54 143.66 206.12 44.28 105.83 102.17"/><g class="m"><path class="ab" d="M167.6,76.72c-5.65,21.24,.2,42.82,13.74,58.22,.33,.37,.66,.74,.99,1.1,8.07,8.76,18.68,15.4,31.11,18.65,10.62,2.78,21.32,2.76,31.3,.4l19.8-11.43-58.43-99.38-33.4,19.28c-2.15,4.11-3.88,8.51-5.12,13.16Z"/></g><g class="p"><path class="ai" d="M184.5,122.99c-1.06,4-2.11,8-3.16,11.95-1.53,5.81-3.05,11.54-4.5,17.05-2.42,9.27-4.67,17.91-6.61,25.32-1.9,7.42-3.5,13.6-4.61,17.93-.74,2.93-1.27,5.01-1.53,6.05-.13,.5-.19,.76-.19,.76l.41,.11s.07-.26,.21-.76c.28-1.03,.86-3.1,1.67-6,1.19-4.31,2.88-10.46,4.91-17.85,2.01-7.39,4.35-16.01,6.86-25.25,1.41-5.25,2.87-10.71,4.36-16.25,1.13-4.21,2.27-8.47,3.41-12.72,2.61-9.88,5.22-19.75,7.66-29,2.41-9.26,4.67-17.91,6.6-25.32,1.91-7.42,3.5-13.6,4.61-17.93,.88-3.49,1.46-5.78,1.65-6.53l-.15-.26-.26,.15c-.21,.75-.84,3.02-1.81,6.49-1.19,4.31-2.88,10.46-4.91,17.85-2.01,7.39-4.35,16.02-6.86,25.25-2.48,9.25-5.13,19.11-7.77,28.97Z"/><path class="ak" d="M105.83,102.17l.8,1.36c55.24-18.57,117.71-2.22,156.5,40.95l1.42-.82-3.23-5.49c-18.78-19.25-42.69-33.05-69.58-40.08-26.79-7-54.33-6.71-80.16,.77l-5.75,3.32Z"/></g><g><path class="am" d="M160.57,206.29s.05,.39,.13,1.12c.07,.74,.16,1.81,.23,3.18,.06,1.36,.11,3.02,.06,4.89-.06,1.87-.18,3.97-.5,6.19-.33,2.22-.78,4.6-1.56,6.96-.39,1.18-.84,2.37-1.37,3.54-.54,1.16-1.16,2.32-1.89,3.41-.73,1.09-1.54,2.15-2.45,3.13-.45,.49-.95,.97-1.44,1.41l-.4,.36-.39,.32c-.25,.21-.53,.42-.8,.63-2.21,1.66-4.78,2.94-7.55,3.97-2.77,1.04-5.73,1.86-8.63,2.87-2.9,.99-5.73,2.18-8.23,3.72-2.48,1.56-4.6,3.45-6.29,5.47-1.7,2.02-2.97,4.16-3.99,6.2-1.02,2.04-1.75,4.01-2.33,5.78-.59,1.76-.97,3.35-1.28,4.65-.16,.65-.28,1.24-.38,1.75-.11,.51-.19,.95-.25,1.3-.12,.71-.19,1.09-.19,1.09-.03,.18,.1,.37,.29,.42,.17,.05,.34-.02,.39-.18h0s.12-.36,.33-1.03c.21-.67,.54-1.65,.98-2.88,.43-1.23,1-2.7,1.72-4.35,.71-1.65,1.62-3.45,2.72-5.32,1.1-1.87,2.47-3.77,4.15-5.54,1.66-1.79,3.68-3.4,6.03-4.71,2.33-1.34,4.99-2.37,7.83-3.25,2.84-.89,5.84-1.69,8.8-2.76,1.47-.54,2.94-1.15,4.33-1.88,1.4-.72,2.73-1.56,3.96-2.49,.3-.24,.61-.47,.91-.73l.45-.38,.4-.36c.58-.53,1.1-1.06,1.6-1.63,1.01-1.12,1.89-2.32,2.64-3.58,1.5-2.51,2.56-5.16,3.23-7.77,.66-2.62,1.03-5.17,1.15-7.55,.12-2.38,.08-4.59-.08-6.55-.15-1.96-.39-3.66-.65-5.07-.24-1.4-.5-2.5-.69-3.25-.19-.75-.32-1.15-.32-1.15-.06-.18-.25-.31-.44-.28-.16,.03-.26,.17-.24,.33Z"/><path class="aj" d="M163.02,207.16l-.03,.06s-.05,.1-.09,.17c-.08,.16-.2,.4-.34,.72-.28,.64-.62,1.61-.9,2.88-.29,1.27-.48,2.85-.48,4.65,.01,1.81,.24,3.84,.75,6,.51,2.16,1.33,4.44,2.39,6.76,.54,1.14,1.19,2.35,1.74,3.73,.55,1.35,.98,2.79,1.25,4.32,.27,1.53,.34,3.15,.15,4.77-.19,1.63-.7,3.25-1.44,4.73-.74,1.49-1.71,2.84-2.78,4.06-1.08,1.22-2.25,2.32-3.47,3.34-2.45,2.01-5.03,3.73-7.45,5.46-1.2,.87-2.38,1.73-3.45,2.64-.54,.45-1.04,.92-1.51,1.4-.23,.24-.46,.49-.67,.73l-.08,.09s.02-.03,0,0l-.02,.03-.04,.05-.17,.21-.33,.42-.33,.42-.29,.4c-.19,.27-.39,.53-.57,.81-.18,.28-.36,.56-.54,.84-.16,.28-.33,.56-.49,.85-.62,1.14-1.11,2.3-1.43,3.46-.65,2.34-.63,4.68-.17,6.81,.46,2.13,1.23,4.05,1.99,5.72,.77,1.67,1.5,3.13,2.09,4.34,.6,1.2,1.03,2.17,1.33,2.83,.29,.66,.44,1.02,.44,1.02,.07,.15,0,.33-.16,.4-.14,.06-.3,0-.38-.12h0s-.19-.34-.55-.95c-.36-.62-.93-1.5-1.63-2.64-.7-1.14-1.59-2.51-2.51-4.17-.92-1.65-1.91-3.6-2.57-5.94-.32-1.17-.56-2.43-.62-3.76-.07-1.33,.07-2.73,.38-4.11,.31-1.39,.82-2.76,1.46-4.08,.17-.33,.34-.65,.51-.98,.18-.32,.38-.64,.57-.96,.18-.32,.41-.63,.62-.95l.32-.48,.32-.44,.32-.43,.16-.22,.1-.13,.09-.12c.25-.31,.51-.61,.77-.9,.53-.58,1.09-1.12,1.67-1.64,1.15-1.04,2.37-1.98,3.6-2.88,2.46-1.8,4.97-3.51,7.24-5.41,2.27-1.88,4.32-3.97,5.54-6.39,.61-1.21,1.02-2.48,1.23-3.78,.19-1.3,.18-2.63-.02-3.94-.19-1.31-.54-2.59-.98-3.82-.42-1.21-.99-2.42-1.52-3.69-.5-1.26-.95-2.5-1.31-3.73-.34-1.23-.63-2.44-.82-3.61-.19-1.17-.33-2.31-.37-3.39-.04-1.08-.02-2.11,.06-3.08,.15-1.93,.54-3.57,.98-4.88,.43-1.31,.94-2.28,1.3-2.92,.37-.64,.63-.96,.63-.96,.1-.13,.29-.15,.42-.05,.12,.09,.15,.26,.07,.39h0Z"/><path class="af" d="M163.88,206.42l-.04,.05s-.07,.08-.13,.15c-.11,.14-.27,.35-.47,.64-.39,.58-.92,1.46-1.44,2.65-.53,1.19-1.02,2.7-1.37,4.47-.34,1.77-.51,3.81-.43,6.03,.09,2.22,.44,4.61,1.03,7.1,.3,1.22,.71,2.53,.99,4,.28,1.43,.42,2.93,.39,4.48-.03,1.55-.27,3.15-.78,4.71-.51,1.56-1.31,3.05-2.33,4.36-1.01,1.32-2.23,2.46-3.52,3.45-1.29,.99-2.66,1.84-4.05,2.6-2.79,1.5-5.66,2.68-8.37,3.92-1.35,.62-2.67,1.24-3.9,1.92-.61,.34-1.2,.7-1.76,1.08-.28,.19-.54,.39-.8,.59l-.1,.08s.03-.03,0,0l-.03,.02-.05,.04-.21,.18-.41,.35-.4,.35-.36,.34c-.24,.23-.49,.44-.71,.69-.23,.24-.46,.48-.69,.72-.22,.25-.43,.49-.65,.73-.83,.99-1.53,2.04-2.07,3.12-1.09,2.17-1.52,4.47-1.49,6.64,.04,2.18,.42,4.21,.84,6,.43,1.79,.86,3.36,1.21,4.66,.35,1.3,.59,2.33,.76,3.04,.15,.71,.24,1.08,.24,1.08,.04,.16-.07,.32-.23,.36-.15,.03-.3-.05-.35-.2h0s-.13-.37-.36-1.04c-.24-.67-.62-1.65-1.09-2.91-.47-1.26-1.08-2.77-1.66-4.58-.58-1.8-1.18-3.9-1.37-6.32-.09-1.21-.08-2.49,.12-3.81,.19-1.32,.59-2.66,1.17-3.96,.58-1.3,1.34-2.55,2.22-3.72,.23-.29,.46-.57,.69-.86,.24-.28,.49-.55,.74-.83,.24-.28,.53-.54,.79-.81l.41-.4,.4-.36,.4-.36,.2-.18,.13-.11,.11-.09c.3-.26,.61-.5,.93-.73,.63-.47,1.29-.89,1.96-1.28,1.33-.79,2.71-1.48,4.09-2.13,2.77-1.29,5.56-2.48,8.15-3.9,2.59-1.4,5-3.06,6.68-5.19,.84-1.06,1.49-2.23,1.94-3.47,.44-1.24,.68-2.55,.75-3.87,.07-1.32-.03-2.64-.22-3.94-.17-1.27-.5-2.57-.77-3.91-.25-1.33-.45-2.64-.56-3.92-.09-1.28-.15-2.51-.1-3.7,.04-1.19,.12-2.33,.3-3.4,.17-1.07,.39-2.08,.65-3.01,.53-1.86,1.22-3.4,1.91-4.6,.68-1.21,1.36-2.06,1.85-2.61,.49-.55,.8-.82,.8-.82,.13-.11,.32-.09,.42,.04,.1,.12,.09,.28,0,.39h0Z"/></g><polygon class="t" points="176.03 215.53 164.67 199.77 146.94 207.93 176.03 215.53"/></g><path class="s" d="M189.78,105.15c-1.32,104.77,15.74,212.05,77.43,303.48,1.31,3.31,3.76,6.56,6.25,9.57"/></g></g></g></g></g></g></g></svg>