<?xml version="1.0" encoding="UTF-8"?><svg xmlns="http://www.w3.org/2000/svg" xmlns:xlink="http://www.w3.org/1999/xlink" viewBox="0 0 443.78 451.48"><defs><style>.k{fill:#fb8000;}.l{opacity:.2;}.l,.m{mix-blend-mode:screen;}.n,.o{opacity:.5;}.p{fill:#e53963;}.q{fill:url(#c);}.r{isolation:isolate;}.s{fill:#0028ff;}.t{fill:#c5db7f;}.u{fill:url(#f);}.v{fill:#020fe9;}.w{fill:url(#g);}.x{clip-path:url(#b);}.y{fill:url(#i);}.a`{clip-path:url(#e);}.o{mix-blend-mode:multiply;}.aa{fill:#ff9906;stroke:#d6380d;stroke-width:.75px;}.aa,.ab,.ac{stroke-miterlimit:10;}.ad{fill:url(#h);}.ae,.ac{fill:none;}.m{opacity:.3;}.af{fill:#00a3fd;}.ab{fill:#31d0e5;stroke:url(#d);stroke-width:6px;}.ag{fill:#00a6fd;}.ah{fill:url(#j);}.ai{fill:#3fc416;}.ac{stroke:#2f404f;stroke-width:.5px;}.aj{fill:#ff7880;}.ak{fill:red;}</style><clipPath id="b"><circle class="ae" cx="363.66" cy="-430.5" r="286.21"/></clipPath><linearGradient id="c" x1="43.17" y1="103.28" x2="392.43" y2="342.6" gradientTransform="matrix(1, 0, 0, 1, 0, 0)" gradientUnits="userSpaceOnUse"><stop offset="0" stop-color="#9b81cf"/><stop offset="1" stop-color="#3b139b"/></linearGradient><linearGradient id="d" x1="16.1" y1="225.74" x2="427.68" y2="225.74" gradientTransform="matrix(1, 0, 0, 1, 0, 0)" gradientUnits="userSpaceOnUse"><stop offset="0" stop-color="#4c1da9"/><stop offset="1" stop-color="#997ece"/></linearGradient><clipPath id="e"><circle class="ae" cx="225.89" cy="228.06" r="209.22"/></clipPath><linearGradient id="f" x1="-2569.32" y1="-5384.87" x2="-2568.4" y2="-5276.69" gradientTransform="translate(335.06 4682.9) rotate(154.33) scale(.76 -.76)" gradientUnits="userSpaceOnUse"><stop offset="0" stop-color="#cc8122"/><stop offset=".32" stop-color="#9e5d16"/><stop offset=".78" stop-color="#612e06"/><stop offset="1" stop-color="#491c00"/></linearGradient><linearGradient id="g" x1="-2629.58" y1="-5339.31" x2="-2508.12" y2="-5339.31" xlink:href="#f"/><linearGradient id="h" x1="-6094.5" y1="-9502.68" x2="-6034.94" y2="-9502.68" gradientTransform="translate(-15197.67 14303.99) rotate(-165.22) scale(1.86 -1.86)" gradientUnits="userSpaceOnUse"><stop offset="0" stop-color="#ff0a3b"/><stop offset=".67" stop-color="#ff576b"/><stop offset="1" stop-color="#ff7880"/></linearGradient><linearGradient id="i" x1="-6050.74" y1="-9526.25" x2="-6050.09" y2="-9448.83" gradientTransform="translate(-15197.67 14303.99) rotate(-165.22) scale(1.86 -1.86)" xlink:href="#f"/><linearGradient id="j" x1="-6094.5" y1="-9493.68" x2="-6006.32" y2="-9493.68" gradientTransform="translate(-15197.67 14303.99) rotate(-165.22) scale(1.86 -1.86)" xlink:href="#f"/></defs><g class="r"><g id="a"><g class="x"><path class="t" d="M191.62,67.98S603.37-259.7-8.09-236.92"/></g><g><path class="n" d="M435.12,236.99c0-36.23-9.21-70.32-25.42-100.03-35.31-67.72-106.15-113.96-187.81-113.96C104.98,23,10.21,117.77,10.21,234.67s94.77,211.68,211.68,211.68c2.97,0,5.93-.08,8.87-.2,113.3-2.59,204.36-95.24,204.36-209.16Z"/><g><g><circle class="q" cx="221.89" cy="225.74" r="211.68"/><circle class="ab" cx="221.89" cy="225.74" r="202.78"/></g><g class="a`"><g><g><g><path class="ai" d="M381.3,154.4s.15,.17,.4,.46c.25,.29,.6,.71,.98,1.23,.18,.26,.38,.55,.55,.86,.18,.31,.33,.64,.44,.99,.05,.17,.1,.35,.12,.52,.01,.2,.03,.4,.05,.61,.03,.45,.09,.9,.17,1.35,.08,.45,.19,.91,.35,1.35,.16,.44,.36,.87,.63,1.25,.26,.38,.6,.7,.94,.93,.35,.24,.7,.39,1.03,.5,.32,.12,.63,.19,.89,.25,.26,.06,.5,.1,.69,.13,.38,.07,.6,.09,.6,.09,0,0-.19-.11-.54-.29-.34-.18-.85-.42-1.39-.73-.27-.16-.54-.35-.79-.58-.25-.23-.47-.5-.65-.82-.18-.32-.33-.67-.44-1.06-.12-.39-.21-.79-.28-1.21-.08-.42-.13-.84-.18-1.26-.03-.22-.04-.41-.09-.68-.05-.25-.12-.48-.21-.69-.18-.43-.41-.8-.66-1.12-.25-.32-.51-.59-.76-.82-.25-.24-.49-.43-.71-.59-.22-.16-.42-.29-.59-.39-.34-.2-.54-.29-.54-.29Z"/><path class="s" d="M381.29,154.5s.32,.05,.85,.21c.27,.08,.58,.19,.93,.35,.35,.16,.72,.37,1.07,.65,.35,.28,.68,.64,.9,1.07,.23,.43,.34,.95,.35,1.49,.01,.55-.1,1.13-.26,1.71-.04,.14-.08,.29-.14,.44l-.17,.46c-.11,.31-.21,.62-.32,.93-.09,.32-.16,.68-.24,1.02-.07,.34-.09,.69-.13,1.03-.02,.34,0,.69,0,1.03l.07,.5c.02,.17,.04,.33,.09,.49,.08,.32,.16,.64,.3,.93,.07,.15,.12,.3,.19,.43,.08,.13,.15,.27,.23,.4,.07,.13,.16,.25,.25,.37l.26,.34c.2,.2,.38,.41,.58,.57,.2,.16,.38,.33,.59,.45,.2,.13,.38,.25,.57,.34,.18,.1,.35,.19,.52,.24,.17,.06,.31,.13,.46,.17,.14,.04,.27,.08,.38,.11,.11,.02,.21,.04,.28,.05,.15,.03,.23,.04,.23,.04,.06,.01,.11-.03,.12-.08,0-.05-.02-.1-.06-.12h0l-.21-.09c-.07-.03-.15-.06-.25-.1l-.33-.16c-.13-.05-.26-.14-.4-.22-.14-.08-.29-.18-.45-.29-.16-.1-.31-.24-.47-.38-.17-.13-.31-.3-.48-.46-.16-.16-.3-.36-.45-.55l-.2-.32c-.07-.11-.14-.21-.19-.33-.06-.12-.11-.23-.17-.35-.06-.12-.09-.25-.14-.38-.04-.13-.1-.25-.12-.39-.03-.14-.06-.27-.09-.41-.04-.14-.05-.28-.06-.42l-.04-.43c0-.15,0-.29,.01-.44,0-.15,0-.3,.02-.45,.05-.3,.07-.61,.13-.9,.08-.29,.13-.58,.22-.88,.1-.31,.2-.62,.31-.93l.16-.46c.06-.16,.1-.33,.15-.49,.18-.66,.27-1.35,.23-2.03-.03-.68-.24-1.35-.58-1.88-.16-.27-.37-.5-.57-.71-.22-.2-.43-.37-.66-.51-.44-.29-.89-.46-1.28-.57-.4-.12-.75-.18-1.04-.22-.29-.04-.52-.04-.67-.05-.15,0-.24,0-.24,0-.06,0-.1,.05-.1,.11,0,.05,.04,.09,.09,.1Z"/><path class="ak" d="M381.29,154.5s.06,.01,.19,.06c.12,.04,.3,.13,.5,.26,.2,.13,.43,.32,.65,.57,.21,.25,.41,.57,.57,.95,.15,.38,.26,.81,.32,1.29,.06,.47,.07,.99,.04,1.52-.02,.27-.04,.54-.07,.81-.04,.28-.07,.56-.11,.85-.08,.62-.1,1.26,0,1.91,.09,.65,.3,1.29,.63,1.86,.33,.57,.78,1.04,1.27,1.41,.49,.37,1.02,.62,1.52,.8,.51,.18,1,.28,1.46,.34,.92,.12,1.68,.05,2.21-.04,.53-.09,.81-.24,.81-.24h0c.05-.03,.07-.09,.05-.14-.02-.04-.07-.07-.12-.05,0,0-.07,.02-.2,.03-.13,.02-.33,.03-.58,.03-.5,0-1.22-.06-2.05-.27-.41-.1-.85-.25-1.28-.44-.43-.19-.86-.45-1.25-.77-.39-.32-.71-.71-.96-1.16-.25-.45-.41-.96-.48-1.49-.08-.53-.07-1.09-.01-1.63,.07-.57,.13-1.19,.12-1.77,0-.58-.05-1.15-.17-1.69-.11-.53-.29-1.03-.53-1.45-.23-.43-.52-.77-.82-1.03-.3-.26-.6-.42-.86-.52-.26-.1-.47-.14-.61-.16-.14-.02-.23-.02-.23-.02-.06,0-.1,.05-.1,.11,0,.05,.04,.09,.08,.1Z"/><g><path class="ai" d="M299.41,194.14s-.06,.22-.11,.61c-.03,.2-.05,.43-.06,.71-.01,.28-.02,.59,0,.93,.02,.34,.07,.72,.16,1.11,.09,.39,.23,.81,.45,1.22,.11,.2,.24,.41,.4,.6,.17,.2,.32,.33,.47,.49,.29,.3,.58,.61,.86,.93,.28,.32,.53,.65,.76,.98,.23,.33,.41,.67,.54,1.01,.13,.34,.2,.68,.23,1.02,.02,.34,0,.67-.05,.99-.1,.63-.23,1.17-.31,1.56-.08,.38-.11,.61-.11,.61,0,0,.12-.19,.3-.53,.09-.17,.21-.38,.33-.63,.12-.25,.25-.53,.37-.86,.11-.33,.22-.7,.25-1.12,.03-.42,0-.88-.13-1.33-.12-.45-.33-.88-.57-1.28-.24-.4-.52-.77-.82-1.12-.3-.34-.62-.67-.94-.98-.15-.14-.3-.28-.44-.41-.12-.12-.23-.27-.33-.42-.2-.3-.36-.63-.49-.97-.13-.33-.23-.66-.32-.97-.17-.62-.27-1.16-.34-1.54-.06-.38-.1-.6-.1-.6Z"/><path class="ag" d="M299.32,194.08s-.06,.07-.15,.19c-.09,.13-.23,.31-.38,.56-.15,.25-.33,.57-.48,.95-.16,.39-.3,.84-.36,1.37-.04,.26-.04,.54-.02,.84,.03,.29,.08,.6,.19,.9,.2,.61,.59,1.18,1.09,1.63,.5,.46,1.09,.82,1.71,1.09,.16,.06,.31,.14,.47,.19l.46,.16c.3,.11,.61,.23,.91,.34,.29,.12,.55,.25,.82,.38,.27,.13,.52,.31,.78,.46,.13,.08,.24,.18,.35,.27,.12,.09,.24,.17,.35,.27,.1,.1,.21,.2,.31,.3,.1,.1,.21,.19,.29,.31,.09,.11,.17,.22,.26,.33,.09,.1,.15,.23,.23,.34,.07,.12,.15,.22,.21,.34,.06,.12,.11,.24,.17,.36,.06,.11,.1,.24,.14,.36l.12,.36c.05,.24,.12,.47,.14,.7,.02,.23,.06,.45,.06,.66,0,.21,.02,.42,0,.61,0,.19-.02,.37-.05,.54-.02,.16-.04,.32-.08,.45-.03,.14-.06,.26-.08,.36-.03,.1-.06,.19-.08,.26l-.07,.22h0c-.02,.06,.01,.12,.07,.14,.05,.01,.1,0,.12-.05,0,0,.04-.07,.11-.21,.04-.07,.08-.16,.14-.26l.15-.36c.06-.14,.1-.29,.16-.46,.06-.17,.1-.36,.14-.57,.05-.2,.07-.42,.09-.66,.03-.23,.02-.48,.02-.74,0-.26-.05-.53-.08-.81l-.1-.42c-.03-.14-.07-.29-.13-.43-.05-.14-.11-.29-.16-.43-.05-.15-.14-.28-.21-.42-.14-.29-.34-.55-.53-.82-.09-.14-.21-.26-.32-.38l-.35-.37c-.25-.22-.51-.44-.79-.64-.29-.18-.57-.38-.88-.54-.31-.15-.63-.32-.94-.45-.31-.11-.61-.22-.92-.33l-.46-.16c-.15-.04-.28-.11-.42-.16-.55-.23-1.07-.51-1.48-.86-.42-.35-.75-.76-.93-1.21-.2-.45-.27-.93-.27-1.38,0-.45,.08-.88,.17-1.25,.1-.37,.21-.69,.31-.95,.21-.52,.37-.8,.37-.8,.03-.05,.01-.11-.04-.14-.04-.03-.1-.01-.13,.02Z"/><path class="k" d="M299.32,194.09s-.05,.07-.13,.19c-.07,.13-.18,.32-.26,.59-.08,.27-.15,.61-.13,1,0,.39,.09,.84,.28,1.29,.18,.45,.45,.91,.79,1.32,.34,.42,.75,.82,1.2,1.19,.44,.36,.96,.71,1.44,1.01,.46,.29,.89,.64,1.25,1.03,.37,.39,.66,.83,.85,1.31,.19,.48,.29,.98,.3,1.49,0,.5-.06,1-.18,1.46-.12,.46-.28,.9-.46,1.29-.36,.78-.76,1.39-1.07,1.78-.16,.2-.29,.35-.38,.44-.09,.09-.15,.14-.15,.14-.05,.04-.05,.1-.02,.15,.03,.04,.08,.05,.12,.03h0s.29-.14,.69-.49c.4-.35,.93-.92,1.41-1.71,.24-.4,.47-.85,.65-1.37,.18-.51,.32-1.08,.34-1.7,.02-.61-.06-1.27-.29-1.88-.23-.61-.6-1.18-1.04-1.66-.44-.48-.95-.86-1.48-1.19-.24-.15-.49-.3-.73-.44-.23-.14-.46-.3-.67-.45-.42-.31-.81-.64-1.15-.98-.33-.34-.6-.7-.79-1.06-.2-.36-.32-.71-.38-1.04-.06-.33-.06-.62-.03-.87,.03-.24,.07-.43,.12-.56,.04-.13,.07-.19,.07-.19,.03-.05,0-.11-.05-.14-.04-.02-.1,0-.13,.03Z"/></g><g><path class="k" d="M361.98,220.23s.09,.17,.26,.5c.16,.33,.4,.82,.67,1.45,.27,.63,.58,1.4,.89,2.29,.3,.89,.62,1.91,.88,3.02,.25,1.12,.46,2.33,.53,3.61,.03,.64,.04,1.29,0,1.96-.04,.66-.11,1.33-.25,2-.14,.67-.31,1.34-.56,1.99-.12,.33-.26,.66-.4,.96l-.12,.25-.12,.23c-.07,.15-.16,.31-.25,.47-.71,1.24-1.64,2.39-2.72,3.45-1.07,1.07-2.27,2.08-3.4,3.16-1.14,1.08-2.21,2.23-3.07,3.48-.85,1.25-1.47,2.59-1.88,3.89-.41,1.31-.6,2.58-.7,3.76-.1,1.18-.08,2.26-.03,3.21,.05,.95,.15,1.78,.24,2.46,.04,.34,.09,.64,.14,.9,.04,.26,.08,.49,.12,.67,.07,.36,.11,.55,.11,.55,.02,.09,.11,.15,.2,.14,.09-.01,.15-.08,.14-.16h0s-.01-.2-.03-.56c-.02-.36-.05-.89-.07-1.56-.02-.67-.03-1.49,0-2.41,.03-.93,.12-1.97,.29-3.08,.17-1.11,.45-2.29,.89-3.48,.44-1.19,1.07-2.37,1.9-3.48,.82-1.12,1.84-2.16,2.97-3.17,1.13-1.01,2.35-2.02,3.5-3.15,.57-.56,1.13-1.16,1.63-1.79,.51-.63,.96-1.31,1.35-2,.1-.18,.19-.35,.28-.53l.13-.27,.12-.26c.17-.37,.31-.73,.44-1.1,.26-.74,.45-1.49,.56-2.24,.24-1.5,.24-2.97,.08-4.34-.17-1.37-.45-2.65-.82-3.8-.37-1.15-.78-2.18-1.2-3.07-.42-.89-.83-1.65-1.19-2.25-.36-.61-.67-1.07-.89-1.39-.22-.31-.35-.48-.35-.48-.06-.07-.17-.09-.25-.04-.07,.05-.09,.13-.05,.2Z"/><path class="ai" d="M361.21,219.03s.13,.14,.37,.42c.24,.28,.58,.69,1,1.22,.41,.54,.91,1.19,1.42,1.97,.51,.78,1.07,1.66,1.58,2.67,.51,1,1.02,2.1,1.39,3.3,.19,.6,.35,1.22,.48,1.86,.12,.64,.21,1.29,.24,1.96,.03,.67,.02,1.34-.06,2.02-.04,.34-.09,.68-.16,1.01l-.05,.27-.06,.25c-.04,.16-.08,.33-.13,.5-.38,1.34-1.02,2.65-1.8,3.91-.78,1.27-1.7,2.5-2.53,3.79-.84,1.29-1.6,2.63-2.13,4.02-.52,1.39-.8,2.8-.88,4.14-.08,1.34,.04,2.59,.23,3.73,.19,1.14,.47,2.16,.75,3.05,.28,.89,.58,1.65,.83,2.28,.12,.31,.25,.59,.35,.83,.11,.24,.2,.44,.28,.6,.16,.33,.24,.5,.24,.5,.04,.08,.14,.12,.23,.09,.08-.03,.12-.11,.1-.19h0s-.06-.18-.16-.52c-.11-.34-.26-.83-.44-1.47-.18-.63-.38-1.4-.58-2.29-.2-.89-.36-1.89-.47-2.99-.11-1.1-.12-2.28,.02-3.51,.14-1.23,.46-2.5,1-3.75,.52-1.25,1.26-2.48,2.11-3.7,.85-1.22,1.79-2.46,2.63-3.8,.42-.67,.81-1.36,1.15-2.08,.34-.72,.61-1.46,.83-2.22,.05-.19,.1-.38,.15-.57l.07-.29,.05-.27c.07-.39,.12-.77,.16-1.15,.07-.76,.07-1.52,0-2.26-.13-1.48-.48-2.87-.97-4.14-.49-1.26-1.08-2.41-1.72-3.42-.64-1.01-1.28-1.89-1.91-2.63-.62-.75-1.2-1.37-1.7-1.86-.5-.5-.91-.86-1.2-1.11-.29-.25-.45-.37-.45-.37-.08-.06-.19-.05-.25,.02-.06,.06-.05,.15,0,.2Z"/><path class="v" d="M361.12,219.65s.16,.11,.44,.34c.29,.22,.7,.56,1.22,1.01,.51,.45,1.12,1,1.77,1.66,.65,.67,1.37,1.43,2.06,2.31,.69,.89,1.4,1.87,2,2.98,.3,.55,.58,1.13,.83,1.73,.24,.6,.46,1.23,.61,1.88,.16,.65,.28,1.31,.33,1.99,.03,.34,.04,.69,.04,1.02v.53c-.01,.17-.03,.34-.04,.52-.12,1.39-.49,2.79-1.02,4.19-.52,1.39-1.18,2.78-1.76,4.21-.58,1.42-1.07,2.89-1.32,4.35-.24,1.46-.25,2.9-.07,4.23,.18,1.33,.54,2.54,.94,3.62,.4,1.08,.88,2.03,1.32,2.85,.44,.82,.89,1.51,1.25,2.08,.18,.28,.35,.53,.51,.74,.15,.21,.28,.4,.39,.54,.21,.29,.33,.44,.33,.44,.05,.07,.16,.09,.24,.04,.08-.05,.1-.13,.06-.2h0s-.09-.17-.26-.48c-.17-.31-.42-.77-.72-1.35-.3-.58-.65-1.3-1.01-2.14-.36-.83-.72-1.79-1.03-2.84-.31-1.05-.55-2.22-.65-3.45-.1-1.23-.03-2.54,.26-3.87,.27-1.33,.76-2.68,1.37-4.04,.6-1.36,1.28-2.76,1.85-4.24,.28-.74,.54-1.49,.73-2.26,.2-.77,.32-1.55,.39-2.34,.01-.2,.03-.39,.03-.59v-.57c0-.4-.02-.78-.06-1.16-.08-.76-.22-1.5-.43-2.22-.41-1.42-1.02-2.73-1.75-3.88-.73-1.15-1.52-2.16-2.34-3.02-.82-.87-1.62-1.61-2.38-2.22-.75-.62-1.44-1.11-2.03-1.5-.58-.39-1.06-.67-1.39-.86-.33-.19-.52-.28-.52-.28-.09-.04-.19-.01-.24,.07-.04,.07-.02,.15,.04,.2Z"/></g><g><polygon class="aa" points="298.62 194.53 360.26 216.38 381.89 154.12 320.25 132.27 298.62 194.53"/><g class="m"><path class="aj" d="M315.71,160.64c5.4,11.36,15.86,18.62,27.33,20.36,.28,.04,.55,.08,.83,.11,6.68,.85,13.67-.17,20.19-3.33,5.57-2.7,10.15-6.66,13.55-11.37l4.27-12.29-61.63-21.85-7.2,20.73c.59,2.59,1.47,5.14,2.66,7.63Z"/></g><g class="o"><path class="u" d="M339.99,174.61c1.02,2.14,2.04,4.27,3.05,6.38,1.48,3.1,2.95,6.16,4.35,9.1,2.38,4.94,4.6,9.54,6.5,13.49,1.92,3.94,3.51,7.23,4.63,9.53,.76,1.55,1.3,2.65,1.57,3.2,.13,.26,.2,.4,.2,.4l.21-.1s-.06-.14-.19-.41c-.26-.56-.77-1.67-1.49-3.24-1.08-2.32-2.62-5.63-4.47-9.6-1.86-3.97-4.04-8.59-6.36-13.56-1.33-2.81-2.71-5.73-4.12-8.7-1.07-2.25-2.15-4.53-3.22-6.81-2.52-5.27-5.04-10.55-7.4-15.49-2.38-4.93-4.6-9.54-6.5-13.49-1.92-3.94-3.51-7.23-4.63-9.53-.91-1.85-1.5-3.06-1.7-3.46l-.16-.06-.06,.16c.19,.4,.75,1.63,1.61,3.5,1.08,2.32,2.62,5.63,4.47,9.6,1.86,3.97,4.04,8.6,6.37,13.55,2.34,4.95,4.84,10.23,7.34,15.52Z"/><path class="w" d="M298.62,194.53l.84,.3c16.82-28.47,49.6-44.37,82.11-39.83l.31-.88-3.4-1.21c-15.14-1.48-30.46,1.31-44.57,8.16-14.05,6.82-25.74,17.1-34.05,29.89l-1.24,3.57Z"/></g><polygon class="aa" points="370.45 218.14 359.78 215.44 355.2 225.55 370.45 218.14"/></g></g><path class="ac" d="M333.91,161.07c19.31,54.11,37.04,103.1,67.64,152.12"/></g><g><g><path class="ai" d="M266.43,128.35s0,.39,.02,1.07c0,.68,0,1.64-.08,2.76-.05,.56-.12,1.16-.24,1.77-.12,.61-.28,1.24-.54,1.82-.13,.29-.27,.57-.44,.83-.21,.28-.42,.57-.63,.86-.47,.63-.91,1.3-1.31,1.99-.4,.7-.77,1.42-1.06,2.19-.29,.76-.5,1.56-.57,2.37-.08,.81,.01,1.61,.21,2.32,.2,.71,.51,1.32,.82,1.84,.31,.52,.63,.96,.92,1.34,.29,.38,.56,.7,.78,.96,.44,.52,.71,.81,.71,.81,0,0-.13-.37-.39-1-.26-.63-.67-1.52-1.05-2.56-.18-.52-.33-1.09-.41-1.68-.07-.59-.06-1.2,.06-1.82,.12-.62,.33-1.27,.61-1.91,.28-.64,.63-1.29,1-1.92,.37-.64,.79-1.26,1.19-1.88,.22-.32,.42-.59,.65-1,.22-.38,.38-.77,.5-1.16,.25-.78,.35-1.53,.38-2.23,.03-.7-.02-1.36-.09-1.95-.07-.6-.18-1.13-.29-1.6-.11-.47-.24-.87-.35-1.19-.22-.65-.4-1.01-.4-1.01Z"/><path class="ag" d="M266.31,128.48s.37,.42,.91,1.25c.27,.41,.57,.92,.86,1.53,.29,.6,.55,1.31,.71,2.08,.16,.77,.19,1.62,0,2.45-.18,.84-.62,1.65-1.23,2.38-.61,.74-1.42,1.38-2.31,1.96-.23,.14-.44,.3-.68,.42l-.75,.42c-.5,.29-.99,.58-1.49,.86-.5,.32-1,.72-1.49,1.08-.49,.38-.91,.81-1.35,1.21-.42,.43-.8,.9-1.17,1.36-.16,.25-.32,.5-.48,.75-.16,.25-.32,.49-.44,.76-.25,.52-.52,1.03-.66,1.58-.08,.27-.18,.52-.23,.79-.05,.27-.1,.53-.14,.79-.06,.26-.07,.52-.08,.78-.01,.26-.03,.51-.04,.75,.05,.49,.05,.97,.13,1.42,.09,.45,.14,.88,.28,1.27,.12,.39,.23,.76,.38,1.1,.14,.34,.27,.65,.43,.92,.15,.27,.28,.53,.43,.74,.14,.21,.27,.4,.39,.57l.32,.39,.27,.32c.06,.08,.18,.09,.26,.03,.07-.06,.09-.15,.05-.23v-.02s-.08-.12-.2-.36c-.06-.12-.14-.26-.23-.43-.08-.17-.16-.37-.26-.6-.11-.22-.18-.48-.28-.75-.1-.27-.19-.57-.27-.9-.1-.32-.15-.67-.21-1.04-.08-.36-.09-.75-.12-1.16-.03-.4,.02-.82,.02-1.25,.03-.21,.06-.43,.09-.65,.03-.22,.05-.44,.12-.66,.06-.22,.11-.44,.17-.67,.06-.22,.17-.44,.25-.66,.1-.22,.15-.45,.28-.66,.11-.21,.23-.43,.35-.64,.1-.22,.26-.42,.4-.63,.15-.2,.29-.41,.44-.62,.16-.2,.35-.38,.52-.57,.18-.19,.33-.4,.53-.57,.4-.34,.78-.73,1.2-1.04,.44-.3,.84-.62,1.31-.92,.49-.3,.99-.59,1.48-.89l.74-.43c.26-.14,.51-.32,.76-.49,1-.67,1.9-1.49,2.62-2.43,.73-.94,1.22-2.06,1.36-3.16,.09-.55,.08-1.09,.04-1.6-.07-.51-.16-.99-.31-1.43-.28-.89-.68-1.62-1.08-2.23-.4-.61-.81-1.09-1.16-1.47-.35-.38-.65-.65-.86-.83-.21-.18-.33-.27-.33-.27-.08-.06-.2-.05-.26,.03-.06,.07-.05,.17,0,.23Z"/><path class="k" d="M266.3,128.48s.07,.09,.19,.3c.12,.2,.26,.51,.39,.92,.12,.41,.22,.92,.23,1.5,0,.58-.09,1.23-.32,1.91-.23,.68-.57,1.38-1.03,2.08-.46,.7-1.04,1.38-1.67,2.06-.33,.33-.66,.67-1.02,.99-.37,.33-.74,.66-1.12,1-.82,.73-1.58,1.56-2.19,2.53-.61,.96-1.06,2.06-1.26,3.19-.21,1.13-.13,2.28,.11,3.32,.24,1.04,.67,1.98,1.15,2.8,.48,.82,1.04,1.52,1.59,2.12,1.1,1.2,2.21,1.99,3.03,2.46,.82,.48,1.37,.61,1.37,.61h0c.1,.03,.2-.03,.22-.13,.02-.08-.02-.17-.09-.21,0,0-.11-.06-.31-.18-.2-.13-.47-.34-.82-.62-.67-.57-1.58-1.48-2.46-2.69-.44-.61-.86-1.3-1.23-2.05-.37-.75-.64-1.58-.81-2.44-.16-.86-.15-1.76,.03-2.64,.17-.88,.54-1.74,1.06-2.52,.5-.79,1.14-1.53,1.84-2.18,.75-.67,1.53-1.43,2.18-2.2,.67-.77,1.24-1.59,1.7-2.43,.46-.83,.78-1.7,.94-2.53,.18-.83,.17-1.62,.06-2.3-.1-.68-.34-1.24-.56-1.67-.23-.43-.47-.73-.64-.92-.17-.19-.29-.28-.29-.28-.08-.07-.19-.06-.26,.02-.06,.07-.06,.16,0,.23Z"/><g><path class="ai" d="M110.33,87.55s-.33,.22-.85,.68c-.26,.23-.57,.52-.9,.87-.33,.35-.7,.76-1.05,1.25-.36,.48-.73,1.03-1.05,1.66-.32,.63-.61,1.33-.78,2.13-.08,.4-.14,.82-.14,1.25,0,.47,.05,.8,.07,1.19,.04,.73,.09,1.47,.1,2.21,0,.74-.01,1.47-.09,2.16-.07,.7-.21,1.36-.42,1.96-.2,.6-.5,1.14-.85,1.61-.36,.47-.77,.89-1.19,1.26-.85,.72-1.65,1.29-2.19,1.72-.54,.42-.84,.68-.84,.68,0,0,.38-.12,1.02-.36,.32-.12,.71-.26,1.15-.46,.44-.19,.94-.41,1.47-.72,.53-.3,1.1-.68,1.63-1.2,.52-.52,1.01-1.17,1.34-1.91,.34-.74,.56-1.54,.69-2.34,.13-.81,.17-1.62,.17-2.42-.01-.8-.06-1.6-.15-2.37-.04-.35-.08-.71-.12-1.05-.03-.31,0-.62,.03-.94,.07-.63,.24-1.26,.44-1.84,.2-.59,.44-1.14,.67-1.66,.49-1.01,.96-1.85,1.3-2.44,.35-.58,.55-.92,.55-.92Z"/><path class="ag" d="M110.28,87.38s-.15,.02-.42,.08c-.27,.06-.67,.14-1.16,.31-.49,.16-1.09,.38-1.74,.72-.65,.33-1.37,.77-2.05,1.41-.35,.31-.67,.68-.98,1.09-.29,.42-.57,.89-.76,1.41-.42,1.03-.55,2.24-.39,3.41,.16,1.18,.54,2.33,1.07,3.4,.14,.26,.26,.54,.42,.79l.43,.74c.28,.5,.56,.99,.84,1.49,.26,.49,.45,.96,.68,1.44,.21,.48,.35,1,.53,1.5,.09,.25,.11,.51,.18,.76,.05,.25,.12,.5,.17,.75,.03,.25,.05,.5,.08,.75,.03,.25,.06,.5,.04,.74,0,.25-.01,.49-.02,.73,0,.24-.06,.47-.08,.71-.04,.23-.05,.47-.11,.69l-.18,.66c-.05,.22-.14,.43-.22,.63-.08,.21-.16,.41-.24,.61-.21,.37-.38,.76-.61,1.1-.23,.33-.43,.67-.68,.95-.23,.29-.45,.57-.7,.8-.23,.24-.46,.46-.68,.65-.22,.19-.42,.38-.62,.52-.2,.15-.37,.28-.53,.39-.16,.1-.3,.19-.41,.26l-.35,.22h-.01c-.09,.06-.11,.18-.06,.26,.05,.07,.14,.1,.22,.07,0,0,.14-.05,.4-.15,.13-.05,.29-.11,.48-.18,.18-.09,.39-.19,.62-.31,.24-.11,.47-.27,.74-.44,.28-.16,.54-.37,.83-.59,.3-.21,.58-.48,.88-.77,.31-.27,.57-.62,.87-.97,.3-.35,.53-.76,.82-1.17,.11-.22,.23-.45,.34-.67,.12-.23,.24-.46,.31-.71,.09-.25,.18-.5,.27-.76,.09-.26,.13-.53,.2-.8,.15-.54,.17-1.11,.21-1.69,.03-.29,.01-.58,0-.87-.02-.29-.03-.59-.05-.88-.09-.58-.19-1.18-.34-1.76-.19-.57-.34-1.15-.58-1.71-.25-.55-.49-1.15-.76-1.67-.29-.49-.58-.99-.87-1.48l-.44-.73c-.15-.23-.26-.47-.38-.7-.48-.94-.87-1.89-1.03-2.84-.16-.94-.15-1.86,.12-2.67,.25-.82,.69-1.54,1.22-2.14,.52-.59,1.1-1.08,1.65-1.46,.55-.38,1.07-.68,1.51-.91,.88-.45,1.41-.64,1.41-.64,.1-.03,.15-.14,.11-.23-.03-.08-.12-.13-.2-.12Z"/><path class="k" d="M110.27,87.38s-.15,.03-.39,.11c-.25,.08-.6,.22-1.02,.48-.41,.26-.89,.64-1.32,1.18-.44,.53-.84,1.22-1.09,2.03-.27,.8-.43,1.71-.44,2.66-.02,.95,.07,1.95,.26,2.94,.19,.99,.49,2.03,.8,2.98,.29,.91,.48,1.86,.52,2.79,.06,.93-.05,1.86-.34,2.71-.28,.85-.73,1.64-1.29,2.31-.57,.67-1.23,1.25-1.92,1.73-.69,.47-1.4,.87-2.09,1.18-1.37,.62-2.61,.97-3.48,1.14-.44,.08-.78,.13-1.02,.14-.24,.02-.36,.01-.36,.01-.1,0-.19,.07-.19,.17,0,.09,.05,.16,.13,.18h0s.54,.15,1.49,.14c.95-.01,2.3-.16,3.86-.66,.78-.25,1.61-.59,2.44-1.07,.82-.48,1.67-1.08,2.39-1.87,.72-.79,1.37-1.74,1.75-2.83,.39-1.08,.54-2.25,.49-3.39-.06-1.14-.31-2.23-.65-3.27-.16-.48-.32-.95-.48-1.41-.15-.46-.28-.91-.4-1.36-.21-.9-.37-1.78-.43-2.61-.05-.83,0-1.61,.13-2.31,.14-.7,.38-1.31,.67-1.81,.29-.5,.63-.89,.94-1.19,.32-.29,.6-.49,.8-.61,.2-.12,.31-.17,.31-.17,.09-.04,.14-.15,.1-.24-.03-.08-.12-.12-.2-.11Z"/></g><polygon class="p" points="108.83 87.17 167.25 186.55 267.54 128.66 209.12 29.28 108.83 87.17"/><g class="l"><path class="ad" d="M170.6,61.72c-5.65,21.24,.2,42.82,13.74,58.22,.33,.37,.66,.74,.99,1.1,8.07,8.76,18.68,15.4,31.11,18.65,10.62,2.78,21.32,2.76,31.3,.4l19.8-11.43L209.12,29.28l-33.4,19.28c-2.15,4.11-3.88,8.51-5.12,13.16Z"/></g><g class="o"><path class="y" d="M187.5,107.99c-1.06,4-2.11,8-3.16,11.95-1.53,5.81-3.05,11.54-4.5,17.05-2.42,9.27-4.67,17.91-6.61,25.32-1.9,7.42-3.5,13.6-4.61,17.93-.74,2.93-1.27,5.01-1.53,6.05-.13,.5-.19,.76-.19,.76l.41,.11s.07-.26,.21-.76c.28-1.03,.86-3.1,1.67-6,1.19-4.31,2.88-10.46,4.91-17.85,2.01-7.39,4.35-16.01,6.86-25.25,1.41-5.25,2.87-10.71,4.36-16.25,1.13-4.21,2.27-8.47,3.41-12.72,2.61-9.88,5.22-19.75,7.66-29,2.41-9.26,4.67-17.91,6.6-25.32,1.91-7.42,3.5-13.6,4.61-17.93,.88-3.49,1.46-5.78,1.65-6.53l-.15-.26-.26,.15c-.21,.75-.84,3.02-1.81,6.49-1.19,4.31-2.88,10.46-4.91,17.85-2.01,7.39-4.35,16.02-6.86,25.25-2.48,9.25-5.13,19.11-7.77,28.97Z"/><path class="ah" d="M108.83,87.17l.8,1.36c55.24-18.57,117.71-2.22,156.5,40.95l1.42-.82-3.23-5.49c-18.78-19.25-42.69-33.05-69.58-40.08-26.79-7-54.33-6.71-80.16,.77l-5.75,3.32Z"/></g><g><path class="ak" d="M164.35,195.48s-.16,.37-.47,1.07c-.32,.7-.8,1.71-1.45,2.97-.66,1.26-1.48,2.77-2.51,4.43-1.04,1.66-2.24,3.49-3.71,5.36-1.47,1.85-3.13,3.79-5.1,5.57-.99,.89-2.02,1.76-3.13,2.57-1.11,.8-2.29,1.56-3.54,2.21-1.25,.66-2.55,1.24-3.92,1.71-.68,.24-1.39,.44-2.07,.62l-.57,.14-.53,.11c-.34,.08-.71,.14-1.07,.21-2.92,.49-5.98,.48-9.1,.15-3.12-.32-6.3-.92-9.52-1.34-3.21-.42-6.47-.64-9.6-.38-3.12,.27-6.08,1.02-8.71,2.07-2.64,1.05-4.94,2.41-6.96,3.78-2.02,1.38-3.73,2.82-5.19,4.15-1.47,1.32-2.66,2.57-3.63,3.6-.49,.51-.91,.99-1.27,1.4-.37,.41-.67,.77-.92,1.06-.49,.58-.75,.89-.75,.89-.12,.15-.1,.37,.04,.51,.13,.13,.33,.13,.45,.02h0s.29-.27,.85-.78c.55-.51,1.37-1.24,2.42-2.15,1.05-.91,2.35-1.98,3.88-3.14,1.52-1.17,3.31-2.38,5.32-3.56,2.01-1.18,4.27-2.27,6.76-3.11,2.48-.85,5.2-1.39,8.07-1.5,2.87-.15,5.87,.13,8.97,.63,3.1,.49,6.31,1.13,9.62,1.51,1.65,.18,3.33,.29,5.01,.28,1.68,0,3.35-.17,4.99-.44,.41-.08,.81-.15,1.23-.24l.61-.14,.56-.14c.82-.22,1.58-.46,2.34-.74,1.52-.55,2.98-1.23,4.33-2.03,2.71-1.58,5.08-3.48,7.07-5.54,1.99-2.06,3.67-4.19,5.03-6.28,1.37-2.09,2.49-4.1,3.36-5.94,.89-1.83,1.56-3.48,2.06-4.86,.51-1.38,.84-2.49,1.06-3.25,.22-.76,.31-1.18,.31-1.18,.04-.19-.07-.39-.26-.45-.16-.05-.33,.03-.39,.19Z"/><path class="ai" d="M165.25,192.69s-.06,.4-.18,1.14c-.13,.75-.34,1.83-.65,3.2-.32,1.36-.73,3.01-1.3,4.86-.58,1.84-1.28,3.89-2.21,6.02-.94,2.13-2.05,4.38-3.49,6.55-.72,1.08-1.49,2.16-2.35,3.2-.86,1.03-1.8,2.03-2.83,2.95-1.03,.92-2.13,1.78-3.31,2.55-.59,.38-1.21,.75-1.82,1.07l-.5,.27-.48,.23c-.31,.15-.64,.3-.97,.44-2.66,1.14-5.58,1.83-8.64,2.22-3.05,.41-6.23,.55-9.4,.89-3.17,.33-6.32,.86-9.24,1.83-2.91,.98-5.54,2.37-7.79,3.99-2.25,1.61-4.11,3.46-5.7,5.24-1.58,1.79-2.86,3.58-3.92,5.2-1.07,1.61-1.9,3.1-2.57,4.31-.34,.61-.62,1.16-.86,1.65-.25,.48-.45,.89-.61,1.23-.32,.68-.49,1.04-.49,1.04-.08,.17,0,.39,.17,.49,.16,.09,.34,.05,.43-.09h0s.21-.33,.62-.95c.4-.62,1-1.51,1.77-2.63,.77-1.12,1.75-2.45,2.92-3.92,1.16-1.48,2.57-3.05,4.19-4.66,1.62-1.6,3.51-3.17,5.67-4.55,2.15-1.39,4.62-2.53,7.32-3.3,2.7-.8,5.63-1.21,8.71-1.44,3.08-.23,6.3-.35,9.55-.74,1.62-.2,3.25-.48,4.84-.88,1.6-.39,3.15-.93,4.64-1.57,.37-.17,.74-.33,1.11-.52l.55-.27,.5-.27c.72-.39,1.39-.81,2.05-1.25,1.32-.88,2.53-1.87,3.63-2.95,2.2-2.14,3.98-4.53,5.37-6.97,1.38-2.45,2.46-4.89,3.24-7.22,.78-2.33,1.36-4.53,1.73-6.51,.39-1.97,.63-3.72,.76-5.17,.15-1.45,.19-2.59,.21-3.38,.02-.78,0-1.21,0-1.21,0-.2-.17-.36-.36-.38-.17-.01-.3,.11-.33,.27Z"/><path class="af" d="M164.15,193.34s.02,.4,.04,1.16c.02,.76,.02,1.87-.02,3.27-.05,1.4-.14,3.1-.35,5.01-.22,1.92-.51,4.06-1.02,6.34-.52,2.27-1.17,4.69-2.17,7.09-.5,1.2-1.05,2.41-1.69,3.59-.65,1.18-1.37,2.34-2.21,3.44-.83,1.1-1.75,2.16-2.76,3.13-.5,.49-1.05,.96-1.59,1.4l-.44,.36-.42,.32c-.27,.21-.58,.42-.87,.62-2.39,1.63-5.13,2.86-8.05,3.83-2.92,.99-6.01,1.73-9.06,2.67-3.04,.93-6.04,2.06-8.72,3.56-2.67,1.52-4.98,3.39-6.88,5.41-1.9,2.02-3.38,4.18-4.59,6.24-1.21,2.06-2.12,4.06-2.86,5.85-.74,1.79-1.27,3.4-1.7,4.73-.22,.66-.39,1.26-.53,1.78-.15,.52-.27,.96-.36,1.33-.18,.72-.28,1.11-.28,1.11-.05,.18,.07,.38,.26,.44,.17,.06,.35-.02,.41-.17h0s.15-.37,.43-1.05c.27-.68,.69-1.67,1.24-2.92,.54-1.25,1.25-2.74,2.12-4.41,.86-1.67,1.94-3.49,3.22-5.37,1.28-1.88,2.84-3.79,4.7-5.56,1.85-1.78,4.05-3.37,6.55-4.64,2.49-1.3,5.3-2.27,8.27-3.08,2.97-.82,6.11-1.55,9.23-2.56,1.55-.51,3.1-1.09,4.59-1.79,1.49-.69,2.92-1.51,4.26-2.43,.33-.24,.66-.46,.99-.72l.49-.37,.44-.36c.64-.53,1.21-1.06,1.77-1.62,1.12-1.12,2.13-2.32,2.99-3.59,1.74-2.52,3.04-5.21,3.94-7.87,.89-2.66,1.48-5.27,1.8-7.71,.32-2.44,.47-4.7,.46-6.72,0-2.01-.1-3.77-.24-5.22-.13-1.45-.31-2.58-.44-3.36-.13-.77-.23-1.19-.23-1.19-.05-.19-.23-.32-.42-.3-.17,.02-.28,.16-.27,.33Z"/></g><polygon class="p" points="179.03 200.53 167.67 184.77 149.94 192.93 179.03 200.53"/></g><path class="ac" d="M192.78,90.15c-1.32,104.77,16.62,211.46,77.43,303.48,2.35,3.56,17.86,16.55,20.35,19.56"/></g></g></g></g></g></g></g></svg>