<?xml version="1.0" encoding="UTF-8"?><svg id="a" xmlns="http://www.w3.org/2000/svg" xmlns:xlink="http://www.w3.org/1999/xlink" viewBox="0 0 718 661"><defs><style>.d{fill:#fff;}.e{opacity:.5;}.f{fill:#f77c0c;}.g{fill:#f17c29;}.h{fill:#6d6e71;}.i{fill:#3c2415;}.j{fill:url(#b);}.k{fill:#fbb040;}.l{fill:#474747;}.m{fill:#d1d3d4;}.n{fill:#e6e7e8;}.o{fill:#bcbec0;}.p{fill:#f7941e;}.q{fill:#31d0e5;stroke:url(#c);stroke-miterlimit:10;stroke-width:6px;}.r{fill:#58595b;}.s{fill:#414042;}</style><linearGradient id="b" x1="104.06" y1="155.82" x2="602.27" y2="497.19" gradientTransform="matrix(1, 0, 0, 1, 0, 0)" gradientUnits="userSpaceOnUse"><stop offset="0" stop-color="#9b81cf"/><stop offset="1" stop-color="#3b139b"/></linearGradient><linearGradient id="c" x1="66.74" y1="330.5" x2="651.26" y2="330.5" gradientTransform="matrix(1, 0, 0, 1, 0, 0)" gradientUnits="userSpaceOnUse"><stop offset="0" stop-color="#4c1da9"/><stop offset="1" stop-color="#997ece"/></linearGradient></defs><g><circle class="j" cx="359" cy="330.5" r="301.94"/><circle class="q" cx="359" cy="330.5" r="289.26"/></g><g><g class="e"><path class="d" d="M112.81,365.18c27.91,20.14-.55,22.56-25.62,17.14-25.07-5.42-2.29-37.28,25.62-17.14Z"/></g><g class="e"><g><path class="d" d="M404.98,251.7s12.13-31.73,44.55-1.49c32.42,30.24-38.55,21.97-69.66,10.99-31.11-10.98,25.11-9.5,25.11-9.5Z"/><path class="d" d="M478.81,234.18c27.91,20.14-.55,22.56-25.62,17.14-25.07-5.42-2.29-37.28,25.62-17.14Z"/></g></g><g><path class="o" d="M453.61,408.34c-.21-.09-.43-.19-.64-.28-19.09-8.3-39.4-14.66-55.97-27.26-1.27-3.32-2.52-6.68-3.77-10.05,.85-.09,1.72-.17,2.59-.29,76.93-10.3,157.03,4.6,225.12,41.87,.05,3.09-4.91,3.22-7.96,3.68-13.1,1.98-26.79-.22-38.61-6.19,1.72,1.31,1.2,4.18-.57,5.42-1.77,1.24-4.12,1.19-6.26,.92-7.2-.91-14.14-3.86-19.8-8.4,.13,1.88,.25,3.76,.38,5.65-13.34-.26-26.62-3.73-38.37-10.05-18.41,4.57-37.45,7.12-56.13,4.98Z"/><path class="r" d="M453.61,408.34c-.21-.09-.43-.19-.64-.28-9.97-4.33-20.26-8.16-30.19-12.6,20.56,3.15,41.7,3.08,62.49,1.44,26.19-2.05,52.12-6.49,78.17-9.8,19.84,6.75,39.11,15.16,57.49,25.23,.05,3.09-4.91,3.22-7.96,3.68-13.09,1.98-26.79-.22-38.61-6.19,1.72,1.31,1.2,4.18-.57,5.42-1.77,1.24-4.12,1.19-6.26,.92-7.2-.91-14.14-3.86-19.8-8.4,.13,1.88,.25,3.76,.38,5.65-13.34-.26-26.62-3.73-38.37-10.05-18.41,4.57-37.45,7.12-56.13,4.98Z"/><g><path class="p" d="M258.24,396.11l-35.8-8.26c-1.72-.4-.99-3.03,.73-2.63,11.93,2.75,23.87,5.5,35.8,8.26,1.72,.4,.99,3.03-.73,2.63Z"/><path class="p" d="M245.43,388.46c-1.73-.4-3.45,.68-3.85,2.41-.4,1.73,.68,3.45,2.41,3.85,1.73,.4,3.45-.68,3.85-2.41,.4-1.73-.68-3.45-2.41-3.85Z"/><path class="p" d="M225.02,387.17c.09-.39-10.35-9.43-13.1-11.8-.21-.18-.56-.07-.51,.16l.55,2.71c.32,1.6-.63,3.07-2.39,3.7l-2.51,.9c-.16,.06-.2,.23-.08,.35l1.86,1.9c1.31,1.33,1.51,3.08,.52,4.37l-1.68,2.19c-.14,.19,.12,.44,.39,.37,3.51-.93,16.86-4.48,16.95-4.87Z"/><g><path class="g" d="M218.35,383.93l-8.24-2.22c.88-.44,1.48-1.13,1.75-1.92l6.49,4.14Z"/><path class="g" d="M209.22,385.55l8.38,1.61-7.65,.88c.11-.83-.14-1.71-.73-2.49Z"/></g></g><path class="n" d="M222.15,176.46c-4.87-8.7-6.97-19.52-3.48-28.76,.29-.77,1.35-.85,1.76-.14,1.24,2.17,1.47,2.98,4.27,4.98-9.35-15.24-11.88-34.49-6.86-51.64,.25-.87,1.33-1.21,2.04-.64,21.9,17.39,33.19,44.79,49.66,67.53,12.8,17.67,33.96,45.64,51.15,59.43,35.57,28.54,54.23,95.72,76.32,153.58,16.57,12.6,36.88,18.96,55.97,27.26,19.09,8.3,38.24,19.7,47.84,38.17-2.16,1.93-16.6,7.85-21.34,7.23,5.72,5.95,5.83,4.14,10.63,10.85-24.08,5.33-44.64,7.55-69.26,9.01-24.62,1.46-57.44-2.21-80.02-12.14-32.24-14.18-55-37.72-77.84-64.53-15.96-3.65-37.81-11.71-53.95-17.26-.05,.03-.09,.07-.14,.1,0,0-5.67-2.01-7.47-2.68-4.36-1.63-6.82-2.52-8.6-3.74-.61-.41-1.19-.9-1.56-1.53s-.46-1.49-.02-2.08c.53-.71,1.58-.76,2.46-.64,2.47,.33,2.89,.47,5.06,.9-2.02-1.42-2.19-1.18-4.21-2.61-1.19-.84-2.42-1.72-3.17-2.97l-.02-.04c-1.03-1.75,.74-3.84,2.69-3.26,.93,.28,1.8,.54,3.13,.95-.01-.05-.03-.1-.04-.15-3.76-2.51-7.11-5.63-9.84-9.24-.79-1.04-1.54-2.16-1.79-3.43v-.04c-.35-1.84,1.43-3.38,3.25-2.98,2.16,.48,3.67,.81,5.54,1.85-.01-.1-.03-.19-.04-.29-3.25-2.65-6.09-5.8-8.36-9.32-.6-.93-1.18-1.93-1.23-3.03-.24-4.98,6.77-1.63,8.79-.99,0,0-2.51-1.92-3.88-3.63-1.27-1.58-2.28-3.35-2.88-5.29-.66-2.15,1.53-4.08,3.62-3.27,1.03,.4,2.39,1.11,3.83,1.92v-.05c.22,.14,.44,.28,.65,.42,3.18,1.85,6.6,4.12,7.88,4.97,.61,.41,1.16,.84,1.67,1.28,21.43,13.95,44.26,28.28,64.69,42.04,17.72,.31,35.07,1.68,52.6,4.3-19.47-18.5-33.25-42.77-39.72-68.81-4.79-19.29-12.75-37.77-24.7-53.65-3.12-4.14-5.51-8.81-6.98-13.77-.35-1.17,.85-2.22,1.98-1.73l10.02,4.38c-17.09-9.99-29.13-28.12-31.88-47.71-.22-1.54,1.36-2.7,2.78-2.06,3.04,1.39,6.97,3.95,9.97,6.75-7.81-7.2-15.75-14.56-20.94-23.83Z"/><g><path class="n" d="M238.24,206.55c-2.02-1.88-4.45-3.62-6.75-5-.14-.58-.28-1.16-.4-1.75,2.34,2.3,4.75,4.53,7.15,6.75Z"/><path class="n" d="M252.39,246.3c1.61,1.16,3.26,2.27,4.98,3.27l-4.36-1.91c-.22-.45-.41-.91-.62-1.36Z"/><path class="n" d="M189.41,353.78c.01,.1,.03,.19,.04,.29-.46-.25-.89-.46-1.32-.64-.28-.34-.57-.66-.84-1.01-.37-.49-.73-1-1.04-1.53,1.01,1.02,2.05,2,3.15,2.9Z"/><path class="n" d="M217.02,156.22c.03-.76,.09-1.51,.18-2.26,.82,1.65,1.69,3.27,2.66,4.84-1.5-1.07-2.26-1.8-2.83-2.59Z"/><path class="n" d="M185.68,337.86c1.34,1.36,2.93,2.58,2.93,2.58-.37-.12-.91-.33-1.53-.56-.4-.56-.81-1.11-1.18-1.68-.07-.11-.14-.23-.21-.34Z"/><path class="l" d="M450.39,413.17c-19.09-8.3-43.58-13.52-60.15-26.12-22.1-57.86-46.09-121.21-76.32-153.58-15.04-16.1-38.35-41.77-51.15-59.43-16.15-22.29-25.71-48.58-46.79-66.01,.4-2.25-.71-4.94-.07-7.13,.25-.87,1.33-1.21,2.04-.64,21.9,17.39,33.19,44.79,49.66,67.53,12.8,17.67,33.96,45.64,51.15,59.43,35.57,28.54,54.23,95.72,76.32,153.58,16.57,12.6,36.88,18.96,55.97,27.26,19.09,8.3,38.24,19.7,47.84,38.17-.81,.73-.25,.73-3.38,2.02-10.03-16.75-27.07-27.23-45.12-35.08Z"/></g><path class="d" d="M452.49,432.04c-1.04,5.41,2.5,10.65,7.92,11.69,5.41,1.04,10.65-2.5,11.69-7.92,1.04-5.41-2.5-10.65-7.92-11.69-5.41-1.04-10.65,2.5-11.69,7.92Z"/><path class="s" d="M454.79,432.48c-.8,4.15,1.92,8.16,6.06,8.95,4.15,.8,8.16-1.92,8.95-6.06,.8-4.15-1.92-8.16-6.06-8.95-4.15-.8-8.16,1.92-8.95,6.06Z"/><path class="d" d="M466.26,429.07c-.2,1.04,.48,2.04,1.52,2.24s2.04-.48,2.24-1.52c.2-1.04-.48-2.04-1.52-2.24-1.04-.2-2.04,.48-2.24,1.52Z"/><path class="h" d="M219.12,152.71c1.24,2.17,1.47,2.98,4.27,4.98-9.35-15.24-11.88-34.49-6.86-51.64,.25-.87,1.33-1.21,2.04-.64,21.9,17.39,31.86,47.78,48.33,70.52,6.61,9.13,72.38,83.35,77,94.85,31.58,52.56,27.97,64.99,50.08,119.97-5.52-1-68.47-8.36-74.03-9.07-19.27-18.46-32.92-42.57-39.35-68.45-4.79-19.29-12.75-37.77-24.7-53.65-3.12-4.14-5.51-8.81-6.98-13.77-.35-1.17,.86-2.22,1.98-1.73l10.02,4.38c-17.09-9.99-29.13-28.12-31.88-47.71-.22-1.54,1.36-2.7,2.78-2.06,3.04,1.39,6.97,3.95,9.97,6.75-7.81-7.2-15.75-14.56-20.94-23.83-4.87-8.7-6.97-19.52-3.48-28.76,.29-.77,1.35-.85,1.76-.14Z"/><g><path class="n" d="M231.49,201.54c-.14-.58-.28-1.16-.4-1.75,.12,.58,.26,1.16,.4,1.75Z"/><path class="n" d="M189.45,354.07c-.46-.25-.89-.46-1.32-.64-.28-.34-.57-.66-.84-1.01-.37-.49-.73-1-1.04-1.53,1.01,1.02,2.05,2,3.15,2.9,.01,.1,.03,.19,.04,.29Z"/><path class="n" d="M188.61,340.44c-.37-.12-.91-.33-1.53-.56-.4-.56-.81-1.11-1.18-1.68-.07-.11-.14-.23-.21-.34,1.34,1.36,2.93,2.58,2.93,2.58Z"/><path class="d" d="M278.33,179.69c-.19-.25-.39-.51-.57-.76,.19,.25,.39,.51,.57,.76Z"/><path class="d" d="M275.34,175.7c-.17-.22-.34-.45-.5-.68,.16,.22,.34,.45,.5,.68Z"/><path class="d" d="M272.68,172.09c-.2-.27-.41-.55-.6-.82,.19,.27,.4,.55,.6,.82Z"/><path class="d" d="M284.75,188.08c-.25-.33-.51-.65-.77-.98,.25,.33,.51,.65,.77,.98Z"/><path class="d" d="M291.57,196.63c-.31-.38-.61-.75-.92-1.13,.3,.38,.61,.75,.92,1.13Z"/><path class="d" d="M288.1,192.33c-.27-.34-.55-.69-.82-1.03,.27,.34,.55,.69,.82,1.03Z"/><path class="d" d="M281.5,183.88c-.23-.3-.47-.61-.7-.91,.23,.3,.47,.61,.7,.91Z"/><path class="d" d="M246.74,132.02c-3.81-5.93-7.79-11.7-12.18-17.07,4.4,5.37,8.38,11.14,12.18,17.07Z"/><path class="d" d="M234.56,114.95c-1.66-2.03-3.41-3.99-5.21-5.9,1.8,1.91,3.55,3.86,5.21,5.9Z"/></g><g><path class="p" d="M259.56,387.43c-10.97-5.45-21.94-10.89-32.9-16.34-1.58-.78-.19-3.14,1.38-2.36,10.97,5.45,21.94,10.89,32.9,16.34,1.58,.78,.19,3.14-1.38,2.36Z"/><path class="p" d="M248.9,377.03c-1.59-.79-3.52-.14-4.3,1.45-.79,1.59-.14,3.52,1.45,4.3,1.59,.79,3.52,.14,4.3-1.45,.79-1.59,.14-3.52-1.45-4.3Z"/><path class="p" d="M229.35,371.04c.18-.36-7.88-11.57-10-14.52-.16-.22-.53-.19-.53,.04l-.1,2.76c-.06,1.63-1.32,2.85-3.18,3.05l-2.65,.29c-.17,.02-.25,.17-.16,.33l1.37,2.28c.96,1.6,.76,3.35-.51,4.38l-2.14,1.75c-.18,.15,.01,.46,.29,.45,3.63-.09,17.44-.45,17.61-.8Z"/><g><path class="g" d="M223.61,366.34l-7.5-4.08c.96-.23,1.7-.75,2.15-1.46l5.35,5.54Z"/><path class="g" d="M214.36,365.79l7.78,3.51-7.65-.92c.3-.78,.26-1.69-.13-2.59Z"/></g></g><g><path class="m" d="M259.45,390.39c-5.44-3.38,5.66,2.99,0,0h0Z"/><path class="m" d="M216.28,376.7c10.04,5.31,33.13,8.39,43.17,13.7,9.78,6.08,27.12,26.45,36.58,33.03,54.19,37.68,124.81,50.74,188.9,35,1.43,1.18,2.66,2.36,5.18,5.88-24.08,5.33-44.64,7.55-69.26,9.01-24.62,1.46-57.44-2.21-80.02-12.14-32.24-14.18-55-37.72-77.84-64.53-12.67-2.9-29-8.56-43.29-13.55,.28-1.65-3.97-4.79-3.42-6.4Z"/></g><path class="r" d="M191.26,371.53c-.37-.63-.46-1.49-.02-2.08,.53-.71,1.58-.76,2.46-.64,2.47,.33,2.89,.47,5.06,.9-2.02-1.42-2.19-1.18-4.21-2.61-1.19-.84-2.42-1.72-3.17-2.97l-.02-.04c-1.03-1.75,.74-3.84,2.69-3.26,.93,.28,1.8,.54,3.13,.95-.01-.05-.03-.1-.04-.15-3.76-2.51-7.11-5.63-9.84-9.24-.79-1.04-1.54-2.16-1.79-3.43v-.04c-.35-1.84,1.43-3.38,3.25-2.98,2.16,.48,3.67,.81,5.54,1.85-.01-.1-.03-.19-.04-.29-3.25-2.65-6.09-5.8-8.36-9.32-.6-.93-1.18-1.93-1.23-3.03-.24-4.98,6.77-1.63,8.79-.99,0,0-2.51-1.92-3.88-3.63-1.27-1.58-2.28-3.35-2.88-5.29-.66-2.15,1.53-4.08,3.62-3.27,1.03,.4,2.39,1.11,3.83,1.92v-.05c.22,.14,.44,.28,.65,.42,3.18,1.85,6.6,4.12,7.88,4.97,.61,.41,1.16,.84,1.67,1.28,10.11,6.58,20.53,13.25,30.86,19.9-2.01-.71-4-1.5-5.96-2.2-6.49-2.31-14.67-3.35-19.46,1.6-3.78,3.9-3.87,10.28-1.68,15.24,2.19,4.97,6.21,8.84,10.14,12.59,2.71,2.58,5.42,5.16,8.13,7.75-6.11-2.12-12.03-4.21-17.32-6.03-.05,.03-.09,.07-.14,.1,0,0-5.67-2.01-7.47-2.68-4.36-1.63-6.82-2.52-8.6-3.74-.61-.41-1.19-.9-1.56-1.53Z"/><path class="p" d="M479.4,453.88c3.1,3.49,5.57,6.35,8.67,9.85,10.23,2.86,20.46,5.71,30.69,8.57,3.61,1.01,7.28,2.04,10.5,4,3.22,1.96,5.18,3.95,6.07,7.73,2.24-9.75-1.74-20.27-8.74-27.05-7.01-6.77-16.62-10.12-26.21-10.95,0,0-13.82,5.46-20.96,7.85Z"/><path class="f" d="M480.93,454.18c7.15,2.99,14.89,4.41,22.45,6.18,8.62,2.02,17.38,4.65,24.29,10.31,3.41,2.79,6.28,6.47,8.11,10.56-.1,.93-.24,1.87-.46,2.79-.89-3.77-2.85-5.77-6.07-7.73-3.22-1.96-6.89-2.99-10.5-4-10.23-2.86-20.46-5.71-30.69-8.57-2.97-3.34-4.32-6.25-7.14-9.55Z"/><path class="i" d="M502.86,449.85c1.59,.7,3.49,.64,5.04-.15-1.19-.84-2.57-1.39-4.01-1.59-.41-.06-.85-.09-1.23,.09-.38,.17-.67,.61-.54,1,.1,.32,.43,.52,.74,.65Z"/><path class="k" d="M525.03,457.6c-6.84-6.17-16.77-9.59-25.85-11.1,.75-.29,1.19-.47,1.19-.47,9.59,.83,19.21,4.18,26.21,10.95,4.83,4.67,8.16,11.12,9.07,17.87-2.75-6.27-5.53-12.66-10.62-17.25Z"/></g></g></svg>