<?xml version="1.0" encoding="UTF-8"?><svg id="a" xmlns="http://www.w3.org/2000/svg" xmlns:xlink="http://www.w3.org/1999/xlink" viewBox="0 0 718 661"><defs><style>.h{fill:#f4f4f4;}.i{fill:#fff;}.j{fill:#428eea;}.k{fill:url(#f);}.l{fill:url(#g);}.m{opacity:.3;}.n{fill:url(#b);}.o{fill:#616161;}.p{fill:#858585;}.q{fill:url(#d);}.r{fill:url(#e);}.s{fill:#474747;}.t{fill:#b5c2cc;}.u{fill:#0f7d99;}.v{fill:#f2f2f2;}.w{fill:#31d0e5;stroke:url(#c);stroke-miterlimit:10;stroke-width:6px;}</style><linearGradient id="b" x1="104.06" y1="155.82" x2="602.27" y2="497.19" gradientTransform="matrix(1, 0, 0, 1, 0, 0)" gradientUnits="userSpaceOnUse"><stop offset="0" stop-color="#9b81cf"/><stop offset="1" stop-color="#3b139b"/></linearGradient><linearGradient id="c" x1="66.74" y1="330.5" x2="651.26" y2="330.5" gradientTransform="matrix(1, 0, 0, 1, 0, 0)" gradientUnits="userSpaceOnUse"><stop offset="0" stop-color="#4c1da9"/><stop offset="1" stop-color="#997ece"/></linearGradient><linearGradient id="d" x1="341.57" y1="236.04" x2="341.57" y2="208.6" gradientTransform="translate(12.02 167.65) rotate(2.28)" gradientUnits="userSpaceOnUse"><stop offset="0" stop-color="#949494"/><stop offset="1" stop-color="#e6e6e6"/></linearGradient><linearGradient id="e" x1="482.63" y1="113.4" x2="482.63" y2="85.95" xlink:href="#d"/><linearGradient id="f" x1="551.14" y1="96.66" x2="581.07" y2="96.66" gradientTransform="translate(829.08 102.6) rotate(174.49) scale(1 -1)" gradientUnits="userSpaceOnUse"><stop offset="0" stop-color="#005c9c"/><stop offset="1" stop-color="#0099c9"/></linearGradient><linearGradient id="g" x1="606.66" y1="138.92" x2="694.01" y2="138.92" xlink:href="#f"/></defs><g><g><circle class="n" cx="359" cy="330.5" r="301.94"/><circle class="w" cx="359" cy="330.5" r="289.26"/></g><g><g><path class="v" d="M298.27,389.77c-2.95,16.55,30.14,27.27,44.72,27.25,6.46,0,12.88-18.92,6.03-24.76-8.41-7.16-37.59-14.54-37.59-14.54,0,0-15.98,4.29-13.15,12.05Z"/><path class="o" d="M337.69,403.02c-2.1,14.05,11.69,15.98,13.52,1.89,2.1-14.05-11.68-15.97-13.52-1.89Z"/><path class="s" d="M345.96,393.13c.32,.05,.63,.14,.94,.25,2.43,6.18,.11,17.41-4.84,21.18-7.79-2.29-4.45-22.84,3.91-21.44Z"/><path class="p" d="M337.74,402.7c-.59,4.03,2.76,4.49,3.28,.46,.6-4.04-2.75-4.5-3.28-.46Z"/><path class="q" d="M336.2,402.81c-2.55,17.13,14.25,19.48,16.49,2.3,2.55-17.13-14.25-19.48-16.49-2.3Zm1.48,.21c1.84-14.08,15.62-12.16,13.52,1.89-1.83,14.09-15.62,12.16-13.52-1.89Z"/><g><path class="o" d="M338.61,405.93c-.3,1.09-1.03,3.36-.27,4.4l.6-4.29c-.12-.02-.23-.05-.33-.11Z"/><path class="o" d="M340.26,405.25c-.04,.07-.09,.13-.14,.19l2.53,8.59c.23-.23,.45-.46,.67-.71l-3.06-8.07Z"/><path class="o" d="M340.86,403.9l5.66,3.7c.13-.36,.24-.72,.36-1.09l-5.96-2.84c-.02,.08-.04,.16-.06,.23Z"/><path class="o" d="M347.87,399.94l-6.8,2.39c0,.13,0,.26-.01,.4l6.7-.77c.06-.68,.1-1.35,.11-2.01Z"/><path class="o" d="M345.96,393.13c-.2-.03-.4-.04-.6-.04l-4.61,7.58c.05,.09,.09,.19,.12,.31l5.88-7.64c-.26-.1-.52-.16-.8-.2Z"/></g></g><path class="t" d="M311.42,377.72s-15.98,4.29-13.15,12.05c-.93,5.24,1.74,9.89,6.3,13.81,10.53-5.51,33.69-13.47,38.38-15.06-11.68-5.77-31.53-10.79-31.53-10.79Z"/><g><path class="v" d="M444.11,272.83c-2.19,17.07,33.26,29.4,44.72,27.26,6.35-1.19,12.88-18.93,6.03-24.77-8.41-7.16-37.6-14.54-37.6-14.54,0,0-15.98,4.29-13.15,12.05Z"/><path class="o" d="M483.52,286.08c-2.08,14.05,11.69,15.97,13.53,1.89,2.09-14.05-11.68-15.97-13.53-1.89Z"/><path class="s" d="M491.8,276.19c.32,.04,.63,.14,.93,.25,2.45,6.18,.11,17.41-4.84,21.18-7.79-2.29-4.45-22.83,3.9-21.44Z"/><path class="p" d="M483.57,285.76c-.6,4.03,2.75,4.5,3.28,.46,.6-4.03-2.76-4.5-3.28-.46Z"/><path class="r" d="M482.04,285.87c-2.54,17.12,14.25,19.48,16.5,2.3,2.55-17.13-14.25-19.48-16.5-2.3Zm1.48,.21c1.84-14.08,15.62-12.16,13.53,1.89-1.84,14.08-15.61,12.16-13.53-1.89Z"/><g><path class="o" d="M484.45,288.99c-.31,1.1-1.04,3.36-.27,4.4l.6-4.29c-.11-.02-.23-.05-.33-.11Z"/><path class="o" d="M486.09,288.31c-.05,.07-.09,.13-.14,.19l2.53,8.59c.23-.22,.45-.46,.67-.71l-3.06-8.07Z"/><path class="o" d="M486.7,286.97l5.66,3.7c.13-.36,.25-.72,.35-1.09l-5.95-2.84c-.02,.08-.04,.16-.06,.23Z"/><path class="o" d="M493.7,283.01l-6.79,2.39c0,.13,0,.26-.02,.4l6.7-.77c.06-.69,.1-1.36,.11-2.02Z"/><path class="o" d="M491.8,276.19c-.2-.03-.4-.04-.6-.04l-4.61,7.58c.04,.1,.09,.2,.12,.31l5.88-7.64c-.26-.1-.52-.17-.79-.21Z"/></g></g><path class="h" d="M419.69,363.89L124.15,443.81l-12.77-5.03,222.06-78.96c8.7-2.77,4.36-10.76,3.13-16.35l83.11,20.42Z"/><polygon class="j" points="111.39 438.78 124.15 443.81 419.69 363.89 419.27 366.91 124.31 445.17 111.17 440.37 111.39 438.78"/><polygon class="v" points="405.17 302.41 433.92 281.56 509.42 186.53 524.51 186.25 458.47 309.85 405.17 302.41"/><polygon class="j" points="458.47 309.85 524.51 186.25 524.06 189.44 460.82 311.34 458.47 309.85"/><polygon class="h" points="261.81 273.84 287.58 231.98 283.42 231.4 247.46 263.13 261.81 273.84"/><polygon class="k" points="287.58 231.98 287.92 232.81 262.52 274.37 261.81 273.84 287.58 231.98"/><path class="v" d="M604.79,374.08c-44.63-55.09-89.36-54.03-183.97-73.43,.64,3-219.13-45.63-195.41-18.13,28.86,46.88,81.95,56.74,109.05,64.71,27.1,7.97,168.56,43.84,228.88,52.19,16.46,2.28,31.6-5.92,37.38-9.06,5.78-3.14,9.77-7.17,4.07-16.27Z"/><path class="u" d="M577.47,350.1c-.17,.54-4.48,4.66-2.93,5.69l4.5,4.42s.77,.87,1.5-.36c.98-2.14,3.78-5.06,2.74-6.13-1.01-.39-4.56-5.17-5.82-3.62Z"/><path class="u" d="M571.1,356.79l-11.73,4.78s-.89,.37-.29,1.17c1.2,.94,3.34,6.32,5.45,5.54l12.32-5.32s1.07-.49,.4-1.33c-.88-.51-4.93-6.12-6.16-4.84Z"/><path class="u" d="M554.91,362.85l-2.9,.2c-1.66,1,1.68,5.42,2.17,7.57,.52,1.19,1.67,.85,1.67,.85,.75-.54,4.82-.73,4.21-2.31-1.27-1.89-3.4-6.78-5.15-6.32Z"/><path class="j" d="M283.76,284.48c-34.4,3.04-55.25-6.33-55.25-6.33l-53.44-91.24,10.1,1.01s60.15,71.33,69.88,78.96c9.73,7.63,31.08,16.48,28.72,17.6Z"/><path class="u" d="M547.36,363.04c-1.57,.34-7.6-1.72-7.83,1.04-.38,1.79-.46,5.39,1.54,5.31,1.07-.24,12.33,4.28,10.85,.76-.64-1.77-2.19-7.76-4.56-7.11Z"/><path class="v" d="M175.06,186.92l26.03,44.44c12.36,.84,22.19,8.84,29.72,10.91-20.44-23.11-46.36-53.83-46.36-53.83l-9.38-1.53Z"/><path class="v" d="M237.87,292.27c-4.91-3.91-10.43-11.76-10.43-11.76l-75.34,30.9,5.31,1.9,80.47-21.03Z"/><polygon class="l" points="152.1 311.4 157.4 313.3 237.87 292.27 237.71 293.46 158.16 313.87 152.02 311.97 152.1 311.4"/><g><path class="u" d="M496.85,367.93c.09,1.04,.93,1.83,1.87,1.75,2.49-.05,1.93-6.81-.53-6.45-2.19,.15-1.41,3.27-1.34,4.7Z"/><path class="u" d="M490.87,364.01c.16,1.42-.09,4.62,2.1,4.42,2.49-.06,1.93-6.81-.54-6.45-.94,.08-1.65,.99-1.56,2.03Z"/><path class="u" d="M485.12,362.76c.16,1.42-.1,4.63,2.1,4.41,2.49-.04,1.93-6.81-.54-6.44-.95,.08-1.65,.98-1.56,2.03Z"/><path class="u" d="M479.37,361.51c.16,1.42-.1,4.62,2.1,4.41,2.48-.06,1.93-6.81-.54-6.45-.95,.08-1.64,.99-1.55,2.03Z"/><path class="u" d="M473.61,360.26c.16,1.42-.09,4.62,2.09,4.41,2.5-.05,1.93-6.81-.54-6.45-.94,.08-1.64,.99-1.56,2.03Z"/><path class="u" d="M467.86,359c.16,1.42-.1,4.62,2.09,4.42,2.49-.05,1.93-6.81-.54-6.45-.94,.08-1.64,.99-1.55,2.03Z"/><path class="u" d="M462.11,357.74c.16,1.42-.1,4.62,2.09,4.42,2.49-.05,1.94-6.81-.54-6.44-.94,.08-1.64,.99-1.55,2.03Z"/><path class="u" d="M456.35,356.49c.16,1.42-.1,4.62,2.09,4.41,2.49-.05,1.93-6.8-.54-6.44-.94,.08-1.64,.99-1.55,2.03Z"/><path class="u" d="M450.6,355.24c.16,1.42-.1,4.62,2.09,4.41,2.5-.05,1.93-6.8-.54-6.44-.95,.08-1.64,.99-1.55,2.03Z"/><path class="u" d="M444.84,353.98c.16,1.42-.09,4.62,2.09,4.41,2.5-.05,1.94-6.81-.54-6.44-.94,.08-1.64,.99-1.56,2.03Z"/><path class="u" d="M439.08,352.73c.16,1.42-.09,4.62,2.1,4.41,2.49-.05,1.94-6.81-.54-6.44-.94,.08-1.64,.98-1.56,2.03Z"/><path class="u" d="M433.33,351.48c.16,1.42-.1,4.62,2.09,4.41,2.5-.04,1.94-6.81-.54-6.44-.94,.08-1.64,.99-1.55,2.03Z"/><path class="u" d="M427.58,350.22c.16,1.42-.09,4.62,2.09,4.42,2.49-.06,1.93-6.81-.54-6.44-.95,.08-1.64,.99-1.56,2.03Z"/><path class="u" d="M421.83,348.97c.16,1.42-.09,4.63,2.09,4.41,2.49-.05,1.93-6.81-.53-6.44-.95,.08-1.65,.98-1.56,2.03Z"/><path class="u" d="M416.07,347.71c.16,1.42-.09,4.63,2.1,4.41,2.49-.04,1.94-6.81-.54-6.44-.94,.08-1.64,.99-1.56,2.03Z"/><path class="u" d="M410.32,346.46c.16,1.42-.09,4.62,2.09,4.41,2.49-.05,1.93-6.8-.53-6.45-.95,.08-1.64,.99-1.56,2.03Z"/><path class="u" d="M404.79,347.87c.09,1.04,.92,1.83,1.87,1.75,2.49-.05,1.93-6.81-.54-6.45-2.19,.15-1.41,3.28-1.34,4.7Z"/><path class="u" d="M385.16,343.7c.09,1.05,.93,1.83,1.87,1.75,2.49-.05,1.93-6.81-.54-6.44-2.19,.15-1.41,3.27-1.34,4.69Z"/><path class="u" d="M379.58,339.8c.16,1.41-.09,4.59,2.08,4.39,2.47-.05,1.91-6.77-.53-6.41-.94,.08-1.63,.98-1.54,2.02Z"/><path class="u" d="M374.21,338.56c.16,1.39-.09,4.57,2.05,4.36,2.44-.05,1.9-6.73-.53-6.37-.92,.07-1.61,.97-1.52,2.01Z"/><path class="u" d="M368.85,337.31c.16,1.38-.09,4.54,2.03,4.34,2.42-.05,1.87-6.68-.53-6.34-.92,.08-1.59,.97-1.51,2Z"/><path class="u" d="M363.48,336.07c.16,1.37-.09,4.51,2.01,4.32,2.39-.06,1.85-6.65-.53-6.3-.9,.07-1.57,.97-1.49,1.99Z"/><path class="u" d="M358.12,334.83c.16,1.36-.09,4.49,2,4.29,2.36-.05,1.83-6.61-.52-6.27-.89,.07-1.56,.96-1.47,1.97Z"/><path class="u" d="M352.75,333.59c.16,1.34-.09,4.46,1.98,4.27,2.34-.06,1.81-6.57-.52-6.24-.88,.07-1.54,.95-1.46,1.96Z"/><path class="u" d="M347.38,332.34c.16,1.33-.09,4.44,1.96,4.25,2.32-.05,1.79-6.52-.52-6.2-.88,.07-1.52,.94-1.44,1.95Z"/><path class="u" d="M342.02,331.1c.16,1.32-.09,4.41,1.94,4.22,2.3-.05,1.76-6.48-.51-6.16-.87,.07-1.51,.94-1.42,1.94Z"/><path class="u" d="M336.65,329.86c.16,1.31-.09,4.39,1.92,4.2,2.28-.05,1.74-6.44-.51-6.13-.86,.07-1.49,.93-1.41,1.93Z"/><path class="u" d="M331.29,328.62c.15,1.3-.09,4.35,1.9,4.18,2.25-.06,1.72-6.4-.51-6.09-.85,.07-1.47,.93-1.39,1.92Z"/><path class="u" d="M325.93,327.37c.15,1.29-.09,4.33,1.88,4.16,2.22-.07,1.7-6.36-.5-6.06-.84,.07-1.46,.92-1.38,1.9Z"/><path class="u" d="M320.56,326.13c.15,1.27-.09,4.31,1.86,4.13,2.2-.06,1.68-6.32-.5-6.02-.83,.07-1.44,.91-1.36,1.89Z"/><path class="u" d="M315.19,324.89c.15,1.26-.08,4.28,1.84,4.11,2.17-.06,1.66-6.28-.5-5.99-.82,.07-1.42,.91-1.34,1.88Z"/><path class="u" d="M309.83,323.64c.15,1.25-.08,4.25,1.82,4.08,2.14-.07,1.64-6.24-.5-5.95-.81,.07-1.4,.91-1.33,1.87Z"/><path class="u" d="M304.47,322.4c.15,1.24-.09,4.23,1.8,4.06,2.12-.07,1.61-6.2-.49-5.92-.8,.07-1.39,.9-1.31,1.86Z"/><path class="u" d="M299.1,321.16c.15,1.22-.08,4.2,1.78,4.03,2.1-.06,1.59-6.17-.49-5.88-.79,.07-1.37,.89-1.29,1.85Z"/><path class="u" d="M293.73,319.92c.15,1.21-.08,4.18,1.77,4.01,2.07-.07,1.57-6.12-.49-5.85-.78,.07-1.36,.89-1.28,1.83Z"/><path class="u" d="M288.37,318.67c.15,1.2-.08,4.15,1.74,3.99,2.05-.07,1.55-6.08-.48-5.81-.77,.06-1.34,.88-1.26,1.82Z"/><path class="u" d="M283.01,317.43c.15,1.19-.08,4.12,1.72,3.97,2.02-.08,1.53-6.03-.48-5.78-.76,.06-1.32,.88-1.24,1.81Z"/><path class="u" d="M277.64,316.19c.15,1.17-.08,4.1,1.7,3.94,1.99-.08,1.51-6-.48-5.74-.76,.06-1.3,.87-1.22,1.8Z"/><path class="u" d="M272.28,314.95c.14,1.16-.08,4.07,1.68,3.92,1.97-.08,1.48-5.96-.48-5.71-.74,.06-1.29,.86-1.21,1.79Z"/><path class="u" d="M267.1,316.05c.07,.92,.73,1.62,1.47,1.55,1.94-.08,1.46-5.92-.48-5.67-1.74,.14-1.04,2.96-1,4.11Z"/></g><path class="j" d="M414.57,358.12c-68.57-16.33-117.79-28.44-156.57-42.37l-.43,.6c86.05,45.06,189.36,58.36,305.78,83.06,19.7,1.35,36.52-5.82,43.73-14.97-32.88,11.06-122.34-9.6-192.5-26.32Z"/></g></g><g class="m"><g><path class="i" d="M201.66,112.95c-5.88-5.49-11.09-8.92-15.68-10.88-.01,0-.02,.01-.03,.02-4.03,2.36-8.39,6.34-11.85,9.49-3.47,3.16-7.09,6.18-10.48,9.42-3.02,2.89-5.24,6.27-8.67,8.72-.12,.09-.25,.16-.37,.25,33.01,6.72,72.94,7.11,47.08-17.02Z"/><path class="i" d="M230.94,96.91c27.91,20.14-.55,22.56-25.62,17.14-25.07-5.42-2.29-37.28,25.62-17.14Z"/></g><g><path class="i" d="M298.15,534.08s12.13-31.73,44.55-1.49c32.42,30.24-38.55,21.97-69.66,10.99-31.11-10.98,25.11-9.5,25.11-9.5Z"/><path class="i" d="M371.98,516.56c27.91,20.14-.55,22.56-25.62,17.14-25.07-5.42-2.29-37.28,25.62-17.14Z"/></g></g></svg>