<?xml version="1.0" encoding="UTF-8"?><svg id="a" xmlns="http://www.w3.org/2000/svg" xmlns:xlink="http://www.w3.org/1999/xlink" viewBox="0 0 443.78 451.48"><defs><style>.d,.e{fill:#fff;}.f{fill:#d8d8d8;}.g{opacity:.5;}.h,.i{fill:none;}.h,.i,.e,.j{stroke-miterlimit:10;}.h,.e{stroke:#afafaf;}.k{fill:url(#b);}.l{fill:#afafaf;}.i{stroke:#d8d8d8;}.m{opacity:.3;}.j{fill:#31d0e5;stroke:url(#c);stroke-width:6px;}</style><linearGradient id="b" x1="43.17" y1="103.28" x2="392.43" y2="342.6" gradientTransform="matrix(1, 0, 0, 1, 0, 0)" gradientUnits="userSpaceOnUse"><stop offset="0" stop-color="#9b81cf"/><stop offset="1" stop-color="#3b139b"/></linearGradient><linearGradient id="c" x1="16.1" y1="225.74" x2="427.68" y2="225.74" gradientTransform="matrix(1, 0, 0, 1, 0, 0)" gradientUnits="userSpaceOnUse"><stop offset="0" stop-color="#4c1da9"/><stop offset="1" stop-color="#997ece"/></linearGradient></defs><g><path class="g" d="M435.12,236.99c0-36.23-9.21-70.32-25.42-100.03-35.31-67.72-106.15-113.96-187.81-113.96C104.98,23,10.21,117.77,10.21,234.67s94.77,211.68,211.68,211.68c2.97,0,5.93-.08,8.87-.2,113.3-2.59,204.36-95.24,204.36-209.16Z"/><g><circle class="k" cx="221.89" cy="225.74" r="211.68"/><circle class="j" cx="221.89" cy="225.74" r="202.78"/></g></g><g><g class="m"><path class="d" d="M67.56,152.01s4.95-22.85,30.6-5.74c25.65,17.1-24.25,19.02-46.91,14.86-22.66-4.16,16.31-9.12,16.31-9.12Z"/><path class="d" d="M116.64,132.26c21.44,10.72,2.05,15.38-15.84,14.37-17.89-1.02-5.61-25.09,15.84-14.37Z"/></g><g class="m"><path class="d" d="M346.83,246.52s4.95-22.85,30.6-5.74-24.25,19.02-46.91,14.86c-22.66-4.16,16.31-9.12,16.31-9.12Z"/><path class="d" d="M395.91,226.77c21.44,10.72,2.05,15.38-15.84,14.37-17.89-1.02-5.61-25.09,15.84-14.37Z"/></g><g><g><path class="e" d="M81.64,229.31l89.86,92.58s28.57,20.3,101.18-41.42l104.94-168.51-122.62-36.37,27.44,83.16c-2.19,2.73-5.98,25.58-200.8,70.55Z"/><path class="f" d="M272.25,279.49l104.38-167.26-120.72-35.4,27.23,81.69s10.89,33.58-10.89,120.97Z"/></g><g><g><line class="i" x1="112.58" y1="237.26" x2="188" y2="312.68"/><line class="i" x1="126.96" y1="231.63" x2="204.23" y2="308.9"/><line class="i" x1="142.81" y1="228.39" x2="217.47" y2="303.06"/><line class="i" x1="170.74" y1="219.62" x2="239.52" y2="288.4"/><line class="i" x1="184.39" y1="213.59" x2="250.64" y2="281.99"/><line class="i" x1="155.88" y1="223.73" x2="229.13" y2="296.98"/><line class="i" x1="198.74" y1="209.44" x2="264.27" y2="274.97"/><line class="i" x1="213.12" y1="203.8" x2="275.87" y2="266.56"/><line class="i" x1="228.97" y1="200.57" x2="281.02" y2="252.62"/><line class="i" x1="256.9" y1="191.8" x2="294.83" y2="229.73"/><line class="i" x1="270.55" y1="185.77" x2="303.63" y2="216.74"/><line class="i" x1="278.33" y1="176.86" x2="311.41" y2="207.84"/><line class="i" x1="242.04" y1="195.9" x2="287.09" y2="240.96"/></g><path class="h" d="M277.55,101.04s78.15,19.51,92.28,21.86"/><path class="h" d="M281.76,112.22s68.53,17.58,82.65,19.93"/><path class="h" d="M285.62,125.09s57.68,12.78,71.81,15.14"/><path class="h" d="M292.43,141.91s8.05,23.21,3,47.17h33.23s22.93-38.76,22.04-36.32c-.27,.75-58.27-10.85-58.27-10.85Z"/><path class="h" d="M294.83,201.26s22.41-.42,24.34-.69"/><path class="h" d="M294.83,212.62s16.35-.42,18.29-.69"/></g></g><path class="l" d="M110.45,365.89c63.6,7.54,130.03-11.53,180.11-51.36,7.56-5.86,14.77-12.35,21.53-19.12,1.96-1.91,4.93-4.82,6.7-6.88l6.47-7.11c1.95-2.07,4.28-5.21,6.13-7.4,1.64-2.05,4.47-5.37,5.97-7.53,1.8-2.54,6.72-9.14,8.47-11.67,4.01-6.16,9.27-13.9,12.81-20.34l4.84-8.32c-1.64,2.96-5.53,9.75-7.1,12.57-2.63,4.76-7.33,11.69-10.2,16.33-2.47,3.65-7.23,10.07-9.81,13.7l-1.51,1.87c-2.88,3.47-6.17,7.84-9.13,11.19-1.25,1.42-6.96,7.7-8.06,8.94-2.34,2.57-6.05,6.04-8.49,8.54-10.33,10.12-21.7,19.13-33.58,27.35-32.01,21.55-69.26,34.94-107.55,39.49-19.09,2.22-38.56,2.57-57.6-.25h0Z"/><path class="l" d="M40.11,207.24c13.55,46.84,45.14,90.05,89.67,111.4l6.68,3.07c2.44,.85,7.94,3.16,10.32,3.92,3.28,.95,7.27,2.37,10.56,3.2,7.13,1.82,14.35,3.29,21.65,4.31,2.28,.22,8.75,.93,10.99,1.17,5.63,.24,12.79,.71,18.42,.46l7.38-.13-7.37,.25c-5.62,.34-12.81,0-18.45-.16-2.25-.21-8.68-.8-11.03-1.04-7.34-.95-14.59-2.36-21.78-4.12-3.31-.8-7.35-2.19-10.64-3.14-2.35-.78-7.98-3.02-10.39-3.91l-6.73-3.07c-44.82-21.26-76.55-64.92-89.28-112.22h0Z"/></g></svg>