<?xml version="1.0" encoding="UTF-8"?><svg id="a" xmlns="http://www.w3.org/2000/svg" xmlns:xlink="http://www.w3.org/1999/xlink" viewBox="0 0 718 661"><defs><style>.d{fill:#fff;}.e{fill:#0f1480;}.f{fill:#e0501b;}.g,.h{opacity:.3;}.g,.i{fill:#630f0f;}.j{fill:#171a47;}.k{opacity:.5;}.l{fill:#565656;}.m{fill:#f4c9ab;stroke:#965e38;stroke-width:.25px;}.m,.n{stroke-miterlimit:10;}.o{fill:#660f0f;}.p{fill:#1f2163;}.q{fill:#3d3b3b;}.r{fill:#ffb76e;}.s{fill:#c74900;}.t{fill:#2e3192;}.u{fill:#f7931e;}.v{fill:#ece3ff;}.w{fill:#f28314;}.x{fill:#ff9c0d;}.y,.i{opacity:.4;}.y,.a`{fill:#766599;}.aa{fill:url(#b);}.ab{fill:#ffb850;}.ac{fill:#111466;}.ad{fill:#3840a0;}.ae{fill:#26297a;}.af{fill:#ffb680;}.ag{fill:#ff2727;}.n{fill:#31d0e5;stroke:url(#c);stroke-width:6px;}</style><linearGradient id="b" x1="104.06" y1="155.82" x2="602.27" y2="497.19" gradientTransform="matrix(1, 0, 0, 1, 0, 0)" gradientUnits="userSpaceOnUse"><stop offset="0" stop-color="#9b81cf"/><stop offset="1" stop-color="#3b139b"/></linearGradient><linearGradient id="c" x1="66.74" y1="330.5" x2="651.26" y2="330.5" gradientTransform="matrix(1, 0, 0, 1, 0, 0)" gradientUnits="userSpaceOnUse"><stop offset="0" stop-color="#4c1da9"/><stop offset="1" stop-color="#997ece"/></linearGradient></defs><g><circle class="aa" cx="359" cy="330.5" r="301.94"/><circle class="n" cx="359" cy="330.5" r="289.26"/></g><g class="h"><g><path class="d" d="M468.02,233.26s15.74-36.64,44.77,4.3c29.02,40.94-41.09,21.24-70.98,3.73-29.9-17.51,26.22-8.03,26.22-8.03Z"/><path class="d" d="M543.92,222.21c25.66,28.13-3.11,27.15-27.59,17.18-24.48-9.97,1.94-45.31,27.59-17.18Z"/></g></g><g><g><g><path class="ab" d="M232.53,503.18l126.44-145.21,179.5-221.98S159.2,353.13,154.72,363.14c-4.48,10.01,77.81,140.05,77.81,140.05Z"/><path class="x" d="M172.65,378.2c2.72-6.07,160.38-75.02,269.34-122.08l96.62-119.49S159.33,353.78,154.85,363.79c-4.48,10,77.81,140.05,77.81,140.05l5.51-6.33c-18.52-29.71-68.92-111.71-65.52-119.3Z"/><path class="f" d="M325.51,392.13c-.14,.09-.32,.13-.5,.11l-168.42-22.87c-.38-.05-.65-.38-.59-.74,.06-.36,.41-.6,.79-.55l168.42,22.87c.38,.05,.65,.38,.59,.74-.03,.19-.14,.34-.3,.44Z"/><path class="f" d="M282.94,440.38c-.21,.14-.5,.16-.74,.03l-124.82-64.38c-.34-.17-.46-.57-.27-.88,.19-.31,.62-.43,.95-.25l124.82,64.38c.34,.17,.46,.57,.27,.88-.05,.09-.13,.16-.21,.22Z"/><path class="f" d="M252.2,476.28c-.28,.18-.67,.15-.91-.09l-84.67-82.9c-.27-.26-.25-.67,.03-.92,.28-.25,.72-.24,.99,.03l84.67,82.9c.27,.26,.25,.67-.03,.92-.03,.02-.06,.04-.08,.06Z"/><path class="f" d="M385.43,321.42c-.08,.05-.18,.09-.28,.11l-215.51,33.2c-.38,.06-.74-.18-.81-.53-.06-.35,.19-.69,.58-.75l215.51-33.2c.38-.06,.74,.18,.81,.53,.05,.26-.08,.5-.29,.64Z"/><path class="f" d="M425.01,271.92c-.06,.04-.13,.07-.21,.09l-214.68,56.86c-.37,.1-.76-.1-.87-.45-.11-.34,.11-.71,.48-.8l214.68-56.86c.37-.1,.76,.1,.87,.45,.09,.28-.04,.56-.28,.71Z"/><path class="f" d="M465.81,219.34s-.09,.05-.13,.07l-207.16,78.55c-.36,.14-.77-.02-.91-.36-.15-.33,.02-.71,.38-.85l207.16-78.55c.36-.14,.77,.02,.91,.36,.13,.29,.02,.61-.25,.78Z"/></g><g><path class="f" d="M206.36,440.63c-.51,.33-1.19,.39-1.78,.11-.86-.4-1.21-1.38-.78-2.18,1.61-2.96,39.37-72.53,42.37-76.91,3.03-4.41,116.83-124.23,121.67-129.33,.63-.67,1.75-.74,2.47-.15,.73,.59,.8,1.62,.16,2.29-32.92,34.66-118.91,125.39-121.34,128.93-2.33,3.39-28.62,51.6-42.2,76.62-.14,.25-.33,.46-.57,.61Z"/><path class="f" d="M359.88,359.22c-.27,.17-.59,.28-.95,.29l-202.41,5.21c-.97,.02-1.77-.68-1.8-1.58-.03-.9,.74-1.65,1.7-1.67l202.41-5.21c.97-.02,1.77,.68,1.8,1.58,.02,.57-.29,1.08-.76,1.38Z"/></g><g><path class="w" d="M234.49,505.48c-.07,.04-.14,.08-.21,.12-1.51,.81-3.44,.34-4.31-1.06-.2-.32-20.28-32.34-39.84-65.31-40.06-67.56-38.95-73.18-38.47-75.58,.42-2.14,1-5.08,62.28-42.27,31.95-19.39,76.32-45.6,131.89-77.9,94.6-54.99,190.16-109.3,191.11-109.85,1.48-.84,3.43-.41,4.34,.97,.91,1.38,.48,3.16-1.04,4.02-.93,.53-94.28,53.59-187.73,107.88-160.13,93.03-191.06,114.32-194.64,118.5,.17,2.4,3.93,14.35,38.2,72.08,19.39,32.67,39.16,64.2,39.36,64.51,.83,1.33,.41,3.02-.93,3.88Zm-76.84-140.2h0Z"/><path class="d" d="M203.89,329.18c-16.84,10.73-34.25,20.74-49.87,33.01-.65,.51,.11,1.53,.76,1.02,15.62-12.27,33.03-22.28,49.87-33.01,.71-.45-.05-1.47-.76-1.02Z"/><path class="d" d="M262.34,295.13c-8.76,5.96-17.98,11.26-27.63,15.9-8.72,4.19-16.05,10.21-24.64,14.57-.75,.38,.02,1.39,.76,1.02,4.38-2.22,8.35-4.99,12.4-7.68,4.21-2.8,8.58-5.11,13.17-7.33,9.32-4.51,18.22-9.68,26.69-15.45,.69-.47-.07-1.49-.76-1.02Z"/><path class="d" d="M537.09,135.83c-7.12,4.37-15.04,7.39-22.38,11.42-7.3,4.01-13.77,9.18-21.2,13-.75,.39,.02,1.4,.76,1.02,7.43-3.82,13.91-8.98,21.2-13,7.33-4.04,15.25-7.05,22.38-11.42,.72-.44-.05-1.46-.76-1.02Z"/><path class="d" d="M199.43,449.95c-6.76-13.66-14.98-26.62-22.58-39.89-3.74-6.54-7.33-13.16-10.49-19.97-1.6-3.45-2.97-7.01-4.7-10.41-1.73-3.4-4.53-6.49-5.34-10.22-.17-.77-1.5-.66-1.33,.12,.63,2.89,2.3,5.16,3.84,7.69,2.17,3.55,3.65,7.4,5.33,11.15,3.22,7.19,6.95,14.17,10.87,21.06,7.75,13.62,16.22,26.89,23.15,40.9,.36,.72,1.61,.29,1.25-.44Z"/></g></g><g><path class="s" d="M277.95,410.57s-.04,0-.06,0c-.18-.02-.32-.17-.3-.34l5.81-50.1c.02-.13,.12-.24,.26-.27,.14-.03,.29,.03,.36,.15l17.37,28.43c.09,.15,.03,.34-.13,.42-.16,.09-.36,.03-.45-.12l-16.86-27.6-5.7,49.14c-.02,.15-.15,.26-.3,.28Z"/><path class="s" d="M338.96,386.9c-.06,0-.12,0-.18-.03l-55.2-26.43c-.16-.08-.23-.27-.14-.42,.08-.15,.29-.21,.45-.13l55.2,26.43c.16,.08,.23,.27,.14,.42-.05,.1-.16,.16-.27,.17Z"/></g><g><path class="p" d="M290.32,412.81c3.31,5.83,5.96,22.62,4.44,27.49-2.19,7.03-24.15,14.4-29.55,13.86-1.89-.19-2.13-3.43-.72-4.17,2.01-1.06,18.51-10.39,19.16-11.22,1.71-2.19-3.87-15.05-5.42-23.47-2.08-11.36,8.04-9.61,12.08-2.49Z"/><path class="r" d="M262.61,449.84c-1.77,.06-4.46,1.53-4.86,3.7-.4,2.17,.2,4.92,1.59,5.14,1.69,.27,1.4-2.68,3.02-2.99,3.22-.62,3.55-2.12,3.27-3.52-.25-1.23-1.32-2.39-3.01-2.33Z"/></g><g><g><path class="r" d="M374.37,370.8c.74-1.63,2.83-5.41,3.11-6.1,.46-1.15,4.11-.7,3.42,1.06-.65,1.67-1.51,4.28-2.1,5.65-.73,1.7-4.86,.32-4.43-.61Z"/><path class="j" d="M377.3,364.88c-.47,.07-1.47-2.66-.82-3.4,.65-.74,4.68-1.58,7.27-2.03,1.99-.35,5.49-1.05,5.22,.04-.53,2.13-2.14,1.83-4.88,4.09-1.42,1.16-2.58,2.42-3.92,2.43-1.65,0-1.11-1.36-2.87-1.12Z"/></g><path class="e" d="M326.75,415.33c8.54-.86,31.62-10.81,39.41-15.4,7.79-4.58,15.52-26.73,16.56-29.24,.76-1.83-5.16-5.14-9.3-2.64-4.14,2.5-8.67,16.77-16.12,20.2-7.44,3.44-17.71,1.45-30.75,7.99-8.81,4.42-5.15,19.61,.19,19.08Z"/></g><g><g><path class="r" d="M392.92,363.11c1.32-1.28,4.72-4.12,5.25-4.67,.88-.92,4.11,.7,2.79,2.12-1.25,1.35-3.06,3.5-4.13,4.59-1.33,1.35-4.67-1.3-3.91-2.04Z"/><path class="j" d="M397.93,358.54c-.47-.1-.35-2.97,.56-3.45,.9-.48,5.02,.07,7.63,.5,2,.33,5.57,.83,4.89,1.76-1.33,1.82-2.72,1.01-6.19,2.2-1.79,.62-3.37,1.41-4.63,.98-1.55-.54-.52-1.64-2.26-1.99Z"/></g><path class="ad" d="M336.32,407.66c8.54-.86,31.62-10.81,39.41-15.4,7.79-4.58,24.22-25.16,25.18-26.91,.96-1.75-4.19-6.89-8.33-4.39-4.14,2.5-18.26,16.18-25.7,19.62-7.44,3.44-17.71,1.45-30.75,7.99-8.81,4.42-5.15,19.61,.19,19.08Z"/><path class="ac" d="M393.81,364.73c-3.16,3.42-6.37,6.8-9.74,10.05-3.26,3.14-6.65,6.65-10.63,9-8.3,4.89-18.96,5.33-27.85,8.96-.59,.24-.25,1.11,.34,.87,8.97-3.66,19.7-4.12,28.08-9.07,3.72-2.2,6.92-5.44,9.98-8.35,3.67-3.5,7.16-7.16,10.58-10.86,.42-.45-.34-1.06-.76-.6Z"/></g><g><path class="ae" d="M278.38,410.01c1.63-4.57,10.05-14.69,19.08-19.01,6.49-3.1,33.02-2.76,38.05-3.92,8.15-1.88,6.14,25.3-6.76,28.22-21.64,4.91-36.65,9.78-43.34,5.87-5.49-3.2-7.68-9.35-7.03-11.17Z"/><path class="r" d="M273.77,402.02s7.51,3.97,9.15,5.29c3.92,3.16,6.37-5.04,3.79-6.45-7.93-4.34-13.68-5.8-13.68-5.8l.74,6.95Z"/><path class="t" d="M280.83,405.95c2.84-.44-.26-5.09,.29-7.87,.41-2.07,3.78,.73,6.27-.02,2.5-.74,3.78,8.63,.05,11.74-3.72,3.11-8.06-3.63-6.61-3.86Z"/><path class="ac" d="M289.19,402.45c.12,1.73-1.47,9.25-4.84,7.39-.56-.31-.99,.53-.43,.84,4.32,2.38,6.45-5.87,6.27-8.3-.04-.6-1.04-.52-1,.07Z"/><path class="ac" d="M289.46,399.08c-.33-.51-1.15,.02-.82,.53,.12,.19,.18,.38,.21,.59,.07,.59,1.07,.52,1-.07-.05-.38-.17-.72-.38-1.05Z"/><path class="ac" d="M306.5,411.42c-5.81,.84-11.94,2.03-17.25-.81-.56-.3-.99,.54-.44,.84,5.55,2.97,11.66,1.78,17.76,.9,.63-.09,.56-1.02-.08-.93Z"/></g><path class="u" d="M340.95,386.35c-.39-.31-2.95-.8-3.47-.19-3.78-.77-7.58-.58-11.46-.19-5.01,.51-9.98,.82-15,1.1-5.01,.29-18.2,.48-18.08,7.39,.12,7.28,10.8,9.4,16.8,9.83,8.99,.65,18.46,.64,27.3-1.25-1.61,3.73-3.99,7.09-5.53,9.03-9.28,3.21-19.13,4.91-28.87,6.4-4.38,.67-9,1.22-13.42,.5-3.91-.64-11.93-5.07-10.55-9.63,.15-.5-.21-.75-.8,.18-1.91,2.99,2.19,6.2,4.81,8.12,3.71,2.72,8.5,3.04,13.06,2.83,5.91-.28,11.81-1.52,17.61-2.58,5.72-1.05,11.37-2.29,16.87-4.06-2.73,3.73,6.54-1.72,9.84-9.56,3.82-9.06,1.4-17.54,.91-17.93Zm-2.22,9.68c-.02,1.85-.46,3.77-1.14,5.64-7.52,1.73-15.25,1.76-22.96,1.6-3.65-.07-7.36-.2-10.91-1.08-3.65-.9-10.17-3.63-9.4-8.08,.72-4.13,7.8-4.91,11.43-5.35,3.76-.46,7.55-.52,11.33-.73,6.87-.38,13.96-2.07,20.76-.51,.44,1.08,.94,3.21,.89,8.51Z"/><g><path class="ad" d="M304.8,389.19c7.09,.48,24.94,6.29,29.84,12.02,4.91,5.73-19.35,18.08-24.04,19.15-1.85,.42-2.89-2.85-2.1-4.16,.79-1.31,13.52-9.56,13.43-10.59-.1-1.03-12.19-1.14-20.59-4.65-11.3-4.72-5.2-12.36,3.46-11.78Z"/><path class="ad" d="M322.18,405.16c-.92-1.15-5.5-1.34-6.92-1.62-3.59-.69-7.13-1.41-10.5-2.77-.59-.24-1.03,.6-.43,.84,3.8,1.53,7.8,2.26,11.84,3.05,1.09,.21,2.18,.41,3.26,.68,.36,.09,.72,.17,1.08,.26,1.15,.09,1.16,.45,.05,1.06-1.05,1.88-4.3,3.65-6.09,4.88-.52,.36,.05,1.12,.57,.76,1.26-.87,8.59-5.34,7.16-7.14Z"/></g><g><path class="f" d="M254.65,463.69c-.5,.32-1.14,.38-1.71,.15-.61-.25-1.02-.81-1.04-1.43l-3.87-100.85c-.02-.6,.31-1.16,.87-1.46,.56-.3,1.25-.29,1.8,.03l76.6,44.14c.48,.28,.78,.74,.82,1.26,.04,.52-.19,1.02-.62,1.36l-72.73,56.71s-.09,.06-.13,.09Zm-2.99-99.2l3.62,94.47,68.13-53.12-71.75-41.35Z"/><path class="d" d="M253.45,461.65h-.03c-.37,.01-.68-.25-.69-.6l-3.67-98.36c-.01-.34,.29-.64,.64-.64,.37-.01,.68,.26,.69,.6l3.67,98.36c.01,.33-.26,.61-.61,.64Z"/><path class="d" d="M261.83,455.91c-.21,.02-.42-.06-.56-.22-.24-.26-.2-.65,.08-.87l42.23-32.97c.28-.22,.7-.19,.94,.07,.24,.26,.2,.65-.08,.87l-42.23,32.97c-.11,.09-.24,.13-.38,.14Z"/></g><g><path class="i" d="M281.85,399.58c-1.24-.84-1.74,5.28-1.74,5.28,.83,.52,2.82,1.44,3.1,1.81,.58-1.23,.73-2.27,.85-3.53,.09-1-.24-2.01-.89-3.13-.47-.07-.93-.18-1.32-.44Z"/><path class="m" d="M280.85,408.25c-1.1,1.46-4.86,1.63-9.58-.14-4.73-1.77-8.74-2.56-9.9-4.33-1.16-1.77,1.65-11.8,6.28-12.82,4.63-1.03,10,2.51,11.89,4.69,2.38,2.75,3.8,4.77,3.62,6.74-.17,1.97-.44,3.4-2.31,5.87Z"/><path class="g" d="M271.68,405.09s2.58,1.96,3.38,2.3c.8,.34,1.35-2.18,1.35-2.18,0,0-.71,1.59-1.62,1.29-.91-.3-2.93-2-2.93-2,0,0-.91-.28-.18,.59Z"/><path class="g" d="M274.79,391.52s-.02,0-.02,.01c-.46,.46-2.41,3.93-3.06,5.07-.75-.28-1.52-.32-2.24,.01-2.6,1.2-5.21,6.28-5.22,9.06l.03-.02c1.84,.74,4.29,1.43,6.99,2.45,.93,.35,1.8,.6,2.64,.8,.88-1.4,1.31-3.73,1.78-5.72,.35-1.49-.46-3.49-1.72-4.94,.65-1.16,2.78-4.97,3-5.44-.65-.44-1.36-.87-2.17-1.3Z"/><path class="g" d="M281.68,398.39c-.58-.84-1.27-1.73-2.14-2.74-1.88-2.18-7.25-5.72-11.89-4.69-4.63,1.03-7.44,11.05-6.28,12.82,.62,.94,2.05,1.61,3.95,2.29,.72-.44,1.88-1.16,3.74-2.34,3.84-2.45,2.3-9.34,7.02-6.68,3.97,2.24,5.27,1.99,5.6,1.34Z"/><path class="q" d="M263.77,405.96c-2.73,1.91-7.34,.4-4.31-6.38,3.03-6.78,6.22-11.91,12.57-9.36,6.35,2.55,9.27,6.2,9.23,7.07-.04,.87-1,1.7-5.71-.96-4.71-2.66-3.17,4.23-7.02,6.68-3.84,2.45-4.76,2.94-4.76,2.94Z"/><g class="h"><path class="ag" d="M277.58,395.82c-1.6-.9-2.48-.69-3.09,.07,.32,.1,.66,.23,1.05,.46,4.43,2.5,5.53,1.91,5.68,1.11-.85-.23-2.01-.71-3.64-1.63Z"/><path class="l" d="M261.49,399.06c1.98-4.42,4.03-8.13,6.97-9.47-4.1,.3-6.61,4.62-9.01,9.99-2.89,6.47,1.17,8.13,3.92,6.61-2.23-.05-4.1-2.18-1.89-7.13Z"/></g><path class="a`" d="M271.54,409.76c-1.49,.14-6.73-1.15-7.77-3.32-1.05-2.17,2.01-8.81,5.03-10.21,3.02-1.4,6.9,3.6,6.21,6.57-.69,2.97-1.27,6.74-3.47,6.96Z"/><path class="v" d="M268.82,397.61c-1.76,.81-4.02,5.11-5.11,8.53,.03,.09,.02,.22,.07,.3,1.05,2.17,6.28,3.46,7.77,3.32,.41-.04,.73-.19,1.01-.38,.62-1.9,1.09-4.07,1.39-5.37,.62-2.64-2.44-7.64-5.12-6.4Z"/><path class="y" d="M268.99,398.19c1.93-.89,4.02,1.43,4.84,3.79-.64-2.53-2.92-5.32-5.01-4.36-1.76,.81-4.02,5.11-5.11,8.53,.03,.09,.02,.22,.07,.3,.03,.07,.1,.12,.14,.19,1.1-3.4,3.34-7.64,5.08-8.44Z"/><g class="k"><path class="d" d="M273.05,407.71c-2.2-2.29-4.64-4.81-6.85-7.11-.53,.88-1.04,1.87-1.48,2.89l6.23,6.26c.23,.02,.45,.03,.6,.01,.41-.04,.73-.19,1.01-.38,.18-.54,.34-1.11,.49-1.67Z"/><path class="d" d="M268.05,398.17c-.35,.33-.72,.76-1.08,1.26l6.39,7.07c.15-.62,.28-1.19,.4-1.71-1.87-2.18-3.87-4.49-5.72-6.63Z"/></g><path class="a`" d="M270.82,396.62s2.73-4.92,3.28-5.47c.55-.55,2.36,.87,2.22,1.23-.14,.36-3.22,5.85-3.22,5.85l-2.27-1.61Z"/><path class="af" d="M275.04,397.36c-1.56-1.08,.69-3.17,1.96-2.33,1.27,.84,2.74,2.76,3.14,3,.4,.24-.76,1.45-2.26,1.03-1.5-.42-2.84-1.7-2.84-1.7Z"/><path class="o" d="M276.7,408.15c-.79-.17,.16-1.86,.59-2.22,.42-.36,1.35,.18,1.09,.84-.26,.66-.82,1.56-1.67,1.38Z"/></g><g><path class="m" d="M305.51,422.93s.92,1.49,.03,3.06c-.89,1.57-2.68,2.01-2.68,2.01l-1.21-3.47,3.85-1.6Z"/><path class="m" d="M301.5,427.28s-.49,1.75-.3,2.71c0,0,.48,1.14,1.69,.07,1.22-1.07,1.53-2.61,1.41-4.25"/><g><path class="m" d="M306.36,419.66s-.54-.95-1.79-.78c-1.25,.17-2.51,1.13-2.51,1.13,0,0-2.34,1.26-2.86,1.44-.38,.13-.76,.13-1.51,.52-.82,.43-1.09,1.44-.57,2.18l.02,.03s-.12,2.08,1.71,3.57c0,0,.98,1.15,2.11,.54,0,0,.65-.26,.68-1.08,0,0,.47,.34,1.58-.78l.02-.29,.33,.15s1.07-.37,1.57-1.21l.06-.28s.72-.06,1.84-.94c1.12-.88,.22-2.03,.22-2.03l-1.74,1.08s-1.01-.15-1.44-1.84"/><path class="m" d="M301.87,427.28s-.53-.02-2.18-2.16c-1.23-1.59-.56-2.75-.56-2.75"/><path class="m" d="M303.24,426.15s-1.93-1.12-2.41-4.18"/><path class="m" d="M305.21,424.8l-.23-.18c-1.11-.85-1.93-1.99-2.37-3.27h0l.07-.65"/></g></g><g><path class="m" d="M267.92,452.31s.83,1.65,2.88,1.86c2.05,.21,3.59-1,3.59-1l-2.52-3.06-3.94,2.21Z"/><path class="m" d="M274.58,451.61s1.97,.64,2.75,1.37c0,0,.77,1.07-1,1.43-1.77,.37-3.43-.3-4.91-1.38"/><g><path class="m" d="M264.31,451.06s-.56-1,.39-1.94c.95-.93,2.65-1.38,2.65-1.38,0,0,2.67-1.16,3.16-1.49,.36-.23,.6-.55,1.45-.93,.93-.41,2.05-.03,2.42,.84v.03s2.06,1.14,2.31,3.53c0,0,.47,1.49-.82,2.05,0,0-.66,.38-1.44-.09,0,0,.02,.59-1.73,.83l-.29-.16-.07,.36s-1.02,.66-2.14,.57l-.31-.12s-.51,.55-2.05,.95c-1.54,.39-2.05-1.03-2.05-1.03l2.12-.79s.5-.91-.83-2.28"/><path class="m" d="M274.34,451.91s.31-.45-.67-3.08c-.73-1.96-2.25-2.1-2.25-2.1"/><path class="m" d="M272.41,452.37s.16-2.25-2.44-4.47"/><path class="m" d="M269.89,453.18l-.02-.3c-.11-1.42-.66-2.77-1.6-3.9h0l-.65-.33"/></g></g></g></svg>