<?xml version="1.0" encoding="UTF-8"?><svg id="a" xmlns="http://www.w3.org/2000/svg" xmlns:xlink="http://www.w3.org/1999/xlink" viewBox="0 0 718 661"><defs><style>.i{fill:#fff;}.j,.k{fill:#31d0e5;}.l{fill:#ad9e9e;}.m{fill:#98bc5c;}.n{fill:#77c9b0;}.o{fill:#c5db7f;}.p{opacity:.45;}.q{fill:url(#e);}.q,.r,.s,.t{stroke:#a1a8a7;}.q,.r,.s,.t,.k{stroke-miterlimit:10;}.u{opacity:.3;}.v{fill:url(#b);}.r{fill:url(#f);}.w{clip-path:url(#d);}.x{fill:none;}.y{opacity:.14;}.s{fill:url(#g);}.t{fill:url(#h);}.k{stroke:url(#c);stroke-width:6px;}</style><linearGradient id="b" x1="104.06" y1="155.82" x2="602.27" y2="497.19" gradientTransform="matrix(1, 0, 0, 1, 0, 0)" gradientUnits="userSpaceOnUse"><stop offset="0" stop-color="#9b81cf"/><stop offset="1" stop-color="#3b139b"/></linearGradient><linearGradient id="c" x1="66.74" y1="330.5" x2="651.26" y2="330.5" gradientTransform="matrix(1, 0, 0, 1, 0, 0)" gradientUnits="userSpaceOnUse"><stop offset="0" stop-color="#4c1da9"/><stop offset="1" stop-color="#997ece"/></linearGradient><clipPath id="d"><ellipse class="x" cx="359" cy="330.5" rx="286.63" ry="286.33"/></clipPath><linearGradient id="e" x1="2814.12" y1="721.17" x2="2814.12" y2="556.53" gradientTransform="translate(242.48 3053.12) rotate(-99.09)" gradientUnits="userSpaceOnUse"><stop offset="0" stop-color="#fff"/><stop offset=".44" stop-color="#fefefd"/><stop offset=".6" stop-color="#fbfaf6"/><stop offset=".71" stop-color="#f5f4ea"/><stop offset=".8" stop-color="#eeebd9"/><stop offset=".88" stop-color="#e4dfc3"/><stop offset=".95" stop-color="#d9d2a9"/><stop offset="1" stop-color="#cfc692"/></linearGradient><linearGradient id="f" x1="700.06" y1="148.56" x2="835.48" y2="148.56" gradientTransform="translate(-484.54 531.91) rotate(-19.01)" xlink:href="#e"/><linearGradient id="g" x1="2772.92" y1="728.15" x2="2969.95" y2="728.15" gradientTransform="translate(3231.11 662.7) rotate(-156.82) scale(1 -1)" xlink:href="#e"/><linearGradient id="h" x1="3136.46" y1="1936.21" x2="3249.74" y2="1936.21" gradientTransform="translate(1720.11 3861.8) rotate(-140.67)" xlink:href="#e"/></defs><g><circle class="v" cx="359" cy="330.5" r="301.94"/><circle class="k" cx="359" cy="330.5" r="289.26"/></g><g class="w"><g><g><path class="j" d="M675.95,308.01c0,155.38-142.84,281.33-319.04,281.33S22.31,477,22.31,321.63,180.71,26.68,356.91,26.68s319.04,125.96,319.04,281.33Z"/><path class="o" d="M177.62,826.14S602.95,497.48-28.69,520.34"/><path class="m" d="M459.97,754.83c-156.2,0-366.93-24.77-366.93-71.73s187.14-176.28,591.55-198.07c155.98-8.4-68.41,269.8-224.62,269.8Z"/><ellipse class="y" cx="292.63" cy="649.17" rx="56.47" ry="13.1" transform="translate(-54.78 27.59) rotate(-4.94)"/><ellipse class="y" cx="533.08" cy="656.63" rx="56.48" ry="13.33" transform="translate(-97.21 92.65) rotate(-9.11)"/><ellipse class="y" cx="207.87" cy="620.03" rx="34.1" ry="9" transform="translate(-75.79 30.81) rotate(-7.17)"/><g class="u"><g><path class="i" d="M151.01,216.28s7.31-33.89,45.19-8.52c37.88,25.37-35.81,28.21-69.28,22.05-33.47-6.16,24.09-13.53,24.09-13.53Z"/><path class="i" d="M223.5,186.99c31.67,15.9,3.03,22.82-23.39,21.31-26.42-1.51-8.28-37.21,23.39-21.31Z"/></g><g><path class="i" d="M563.45,356.46s7.31-33.89,45.19-8.52c37.88,25.37-35.81,28.21-69.28,22.05-33.47-6.16,24.09-13.53,24.09-13.53Z"/><path class="i" d="M635.94,327.17c31.67,15.9,3.03,22.82-23.39,21.31-26.42-1.51-8.28-37.21,23.39-21.31Z"/></g></g><g class="p"><path class="n" d="M121.26,503.92s14.12-8.51,21.52,1.76c7.4,10.27,2.74,7.08-11.72,5.92-14.46-1.16-15.03-5.41-9.8-7.68Z"/><path class="n" d="M127.46,524.1s4.71-7.82,3.61-12.49c-1.35-5.73,1.2-2.13,1.2-2.13l.5,4.77,4.95-1.92s-5.51,2.18-4.52,6.1c.99,3.91,2.63,5.72,2.63,5.72l-8.37-.03Z"/></g></g><g><g><path class="q" d="M351.46,157.51s.08,8.1-7.26,8.55c0,0,6.08,2.43,8.61-3.78,0,0-3.94,9.36,2.62,17.05,0,0-.03-4.44,3.49-7.29,0,0-2.23,8.58,1.19,14.4,0,0-1.36-4.62,2.12-9.49,0,0-.84,5.12,1.26,7.95,0,0-.8-4.18,1.55-6.87,0,0-1.5,6.54,2.79,11.22,0,0-1.35-3.84-.73-6.61,0,0,2.17,11.47,20.2,20.08,26.57,12.69,33.47,4.74,43.81,9.7,.7,.51-2.62-4.59-2.15-7.63,0,0,1.81,4.58,6.05,6.5,0,0-1.87-2.72-2.61-7.41,0,0,2.85,4.45,7.82,5.89,0,0-2.66-2.17-3.49-7.41,0,0,3.03,4.28,8.1,5.45,0,0-3.46-3.21-5.24-7.13,0,0,3.74,3.67,9.79,5.21,0,0-4.36-2.92-6.88-6.86,0,0,5.11,5.4,11.13,5.25,0,0-5.17-2.94-7.95-7.15,0,0,6.12,5.56,10.29,6.16,0,0,21.27-4.19,38.6-25.37,0,0-3.8,2.04-8.33,2.16,0,0,6.61-1.78,12.92-7.55,0,0-2.18,1.04-5.63,1.26,0,0,6.28-2.33,8.98-6.12,0,0-2.46,2.21-7.61,2.55,0,0,8.98-3.27,14.1-16.2,0,0-2.36,3.3-5.9,4.69,0,0,8.32-18.84-6.2-33.66-3.91-3.99-20.33,2.55-26.21,11.79-4.04,6.35-1.72,15.22-1.72,15.22,0,0-3-3.68-3.68-7.98,0,0-1.1,3.1,.75,7.85,0,0-2.42-2.29-3.3-5.47,0,0-.7,5.93,2.82,18.74,0,0-4.31-4.43-5.22-14.91,0,0-7.4,8.65-18.35,14.7-1.73,.78,.33,1.96,.62,4.98,.29,3.01-1.57-4.46-3.84-3.55-2.32,.92-3.11,1.36-3.42,2.55-.3,1.19-1.17,5.96,1.94,12,0,0-4.7-4.06-5.31-11.05,0,0-1.5,6.08,1.63,10.32,0,0-4.09-4.11-5.52-8.96,0,0-.54,6.97,3.41,10.91,0,0-5.39-3.09-7.16-9.99,0,0-.59,5.62,4.55,11.46,0,0-6.16-3.42-7.89-11.23,0,0-1.14,3.91,1.92,9.02,0,0-3.77-3.38-4.2-8.77,0,0-1.8,5.44,2.23,10.45,0,0-3.94-3.14-4.64-9.14,0,0-.71,.51-.9,1.66,0,0-2.34-.78-3.93-.82,0,0-1.7,4.14,.67,8.49,0,0-3.39-3.4-2.27-8.57,0,0-1.71-.12-4.72,.37-3.02,.49-12.67-1.01-19.28-5.85,0,0-2.03,4.03-6.83,4.81,0,0,3.11-2.88,2.31-9.08,0,0-1.39,6.92-7.29,7.87,0,0,4.99-3.99,2.31-12.95,0,0,.22,7.61-4.83,9.75,0,0-1.71-1.05-2.68-5.4-.97-4.35-2.57-6.47-4.44-8.25,0,0,2.17,5.72,1.56,9.86,0,0-.36-2.43-2.08-5-1.72-2.57-3.93-5.87-3.75-9.17,0,0-1.58,3.63,1.07,8.54,0,0-2.44-2.12-3.22-6-.78-3.88-1.11-4.07-2.13-5.64,0,0,1.57,6.2-1.22,7.44l-3.22,1.48Z"/><path class="l" d="M340.53,139.24s10.01,30.89,49.74,49.61c38.89,18.33,94.49,2.29,103.18-59.1-13.87,61-65.68,74.52-102.92,55.57-38.06-19.37-47.18-49.99-47.18-49.99-.35-.91-3.09,2.24-2.83,3.91Z"/></g><g><path class="r" d="M218.33,372.52c-.68,.32-2.25-.04-5.4-1.6,0,0,1.55,3.02,4.8,5.45,0,0-4.57,1.72-10.33-4.5,0,0,1.56,7.07,9.5,8.66,0,0-3.81,2-11.26,.43,0,0,2.85,4.1,10,4.07,0,0-3.93,.76-6.31,5.7,0,0,3.9-2.1,8.57-2.44,0,0-4.56,4.78-5.01,12.19,0,0,2.96-5.39,7.14-8.08,0,0-2.6,2.95-3.68,5.68,0,0,.61-1.47,4.33-2.38,0,0-3.08,.96-7.11,13.33,0,0,1.78-2.51,10.08-4.21,0,0-4.77,3.64-5.78,10.82,0,0,1.36-2.41,3.9-4.59,0,0-2.63,3.5,.98,14.12,3.61,10.62,6.91,19.24,6.76,23.35,0,0,2.44-3.39,2.26-8.07,0,0,5.58,14.27,29.69,31.1,0,0-3.9-6.1-3.2-12.34,0,0,1.94,6.51,7.26,13.31,0,0,21.14,16.4,50.36,16.7,0,0-3.67-2.77-4.11-8.06,0,0,1.79,4.44,8.56,6.96,0,0,32.92,.21,53.4-29.96,0,0-16.18,5-31.42,2.58,0,0-13.71,5.24-22.73,3.35,0,0,9.67-1.53,17.36-4.77,0,0-13.04-1.41-20.33-3.96,0,0-9.32,2.02-16.6-2.44,0,0,4.75,1.29,12.46,.07,0,0-6.27-1.59-16.6-11.9-10.33-10.31-19.93-18.47-42.46-29.59,0,0,8.15-.91,23.04,7.81,0,0-5.04-6.53-16.96-12.42-11.92-5.88-16.98-6.05-21.43-10.58,0,0,11.98,6.6,21.7-.94,0,0-15.92,4.82-26.14-8.11,0,0,5.87,5.23,15.08,3.95,0,0-4.11-.59-7.37-5.63-3.26-5.04-7.73-5.6-7.73-5.6,0,0,4.33,.7,7.96-3.88,0,0-5.32,2.19-8.53,.61,0,0,4.35-1.07,6.26-5.04,0,0-4.79,3.67-10.42,2.99,0,0,4.12-1.44,6.4-6.16,0,0-5.25,3.74-11.08,3.19,0,0,5.13-2.36,3.8-7.51,0,0-1.54,4.88-6.97,6.78,0,0-1.9,1.16-2.68,1.53Z"/><path class="l" d="M204.94,330.59s10.23,45.93,30.49,82.84c22.97,41.84,77.93,75.73,131.5,49.2,0,0-35.07,18.69-81.22-4.09-44.03-21.74-63.85-74.54-76.15-129.68-.22-.86-4.88,.58-4.63,1.74Z"/></g><g><path class="s" d="M378.73,277.21s-.02-5.92-.42-10.93c-.4-5.01,.62-9,2.3-12.98,0,0-6.78,5.05-7.36,16.3,0,0-3.57-10.55,1.92-19.6,0,0-6.76,3.59-7.62,15.51,0,0-3.9-12.58,.9-23.93,0,0-6.75,3.52-6.98,16.41,0,0-1.87-3.32-1.5-10.68,.37-7.36-2.04-10.65-5.05-14.01-3-3.36-8.63-9.92-8-16.64,0,0-5.67,12.77,2.03,26.59,0,0-7.17-5.44-7.46-21.69-.29-16.25-7.6-28.16-14.81-36.52-7.21-8.37-30.89-29.25-30-44.86,0,0-3.81,3.05-4.26,14.15-.45,11.1-7.06,11.99-7.06,11.99,0,0,9.1-11.31,2.72-27.45-3.37-8.52-8.3-11.35-7.59-16.77,0,0-2.07,3.85-.17,12.11,1.9,8.26-1.86,16.75-4.22,18.77,0,0,4.65-16.34-1.14-28.89-8.26-17.92-28.07-17.73-31.54-21.65,0,0-17.73,20.8-5.9,44.61,0,0-4.17-6.78-12.4-9.27,0,0,3.21,2.65,7.23,12.81,4.02,10.16,11.54,22.92,23.21,31.3,0,0-14.13-5.5-21.14-18.21,0,0,1.61,16.28,24.4,31.63,0,0-12.94-3.91-20.43-11.1,0,0,5.5,10,21.5,16.94,0,0-5.51,2.36-14.55-.75,0,0,2.44,1.15,7.64,8.51,5.2,7.36,38.26,54.31,78.15,59.78,0,0-5.45,.95-8.94,9.21,0,0,6.26-7.68,18.94-6.3,0,0-8.26,3.23-9.77,14.31,0,0,5.05-7.75,16.13-10.74,0,0-3.88,7.72,1.02,18.72,0,0-.09-9,5.27-17.07,0,0-.36,10.68,6.45,17.58,0,0-2.9-6.54,.52-16.08,0,0,.14,9.92,10.03,14.56,0,0-4.86-6.5-4.38-11.08,0,0,5.82,2.66,11.58-.49l.75-4.07Z"/><path class="l" d="M402.46,288.67s-47.65-5.32-100.68-61.44c-48.3-51.13-51.4-100.87-51.4-100.87,0,0,9.81,51.64,56.83,99.69,54,55.17,95.37,55.24,95.37,55.24,1.26,.05,.78,7.51-.11,7.39Z"/></g><g><path class="t" d="M396.55,375.6s.17,3.36-5.1,7.47c0,0,4.3-.23,7.11-4.41,0,0,1.75,3.72,1.07,8.13,0,0,3.39-2.67,1.59-7.68,0,0,4.18,4.2,4.75,9.57,0,0,2.13-4.15-1.27-8.51,0,0,7.1,6.4,10.42,13.18,0,0,.65-4.73-2.57-8.42,0,0,8.52,5.53,10.13,8.99,0,0,1.52-2.69-1.58-7.16,0,0,3.71,3.45,7.94,5.71,4.23,2.27,6.24,1.66,9.71,.67,3.48-.99,4.89,.84,8.93,1.19,4.04,.36,5.29,1.32,11.15-1.64,5.86-2.96,13.31,.15,25.69-6.4,0,0-5.62,.44-9.23-2.61-3.6-3.04-5-5.74-10.14-6,0,0,2.39-2.35,7.4,.22,5.02,2.57,8.6,5.09,13.85,5.18,5.93,.1,8.74-4.1,16.74-2.62,0,0-1.86-1.71-5.99-2.23-4.13-.52-5.92-3.32-5.92-3.32,0,0,4.72,3.61,13.53,2,8.81-1.61,11.82-7.74,23.78-15.37,11.95-7.63,15.23-12.22,19.54-19.33,6.4-11.66,13.12-14.21,13.36-20.8,.63-17.11,3.93-17.36,1.91-23.42-.57-1.59-7.95-3.38-19.57-3.48-3.09,.07-4.83,.71-6.55,5.86-1.72,5.16-2.62,8.87-7.03,13.69,0,0,4.77-7.67,2.64-16.75,0,0-2.55,3.51-11.97,9.44-9.42,5.93-26.72,10.89-34.65,18.2-12.16,10.39-8.13,22.36-16.99,28.32,0,0,3.89-4.09,2.84-11.54-1.05-7.45,3.07-13.25,7.33-16.73,0,0-6.7,1.32-12.57,11.07-5.87,9.75-3.91,16.79-12.71,24.99,0,0,3.93-5.22,6.26-14.7,2.33-9.48,1.79-11.68,5.62-16.4,0,0-3.09,2.12-5.6,4.78-2.52,2.66-3.6,2.93-6.99,4.8-3.39,1.87-8.55,6.37-9.72,10.22,0,0,.24-5.29,6.17-10.75,0,0-6.15,1.19-11.14,6.26-6.4,6.53-9.97,14.47-15.77,19.31,0,0,1.7-1.74,3.81-7.3,3.41-8.5,8.62-10.84,7.72-17.58,0,0-2.35,5.22-8.05,6.92-5.71,1.7-7.6,1.45-13.02,6.9-5.42,5.45-5.23,6.56-9.25,8.04,0,0,7.52-5.9,6.22-14.73,0,0-.75,4.13-4.53,8.9-3.78,4.76-4.88,6.12-5.49,7.95,.4-4.46,3.62-6.83-2.12-13.73,0,0,3.29,7.45-.3,13.29,0,0-.95-4.85-7.13-6.58,0,0,6,7.11,6.08,13.44,0,0-2.8-5.78-10.04-6.74,0,0,6.65,3.16,8.66,9.71l1.06,2.53Z"/><path class="l" d="M551.56,310.2c-71.43,81.36-166.24,62.33-182.6,57.98-.34-.07-.62,4.06-.03,4.25,0,0,108.14,29.83,182.63-62.23Z"/></g></g></g></g></svg>