<?xml version="1.0" encoding="UTF-8"?><svg id="a" xmlns="http://www.w3.org/2000/svg" xmlns:xlink="http://www.w3.org/1999/xlink" viewBox="0 0 443.78 451.48"><defs><style>.e{fill:#fff;}.f{opacity:.5;}.g{fill:#f77c0c;}.h{fill:#f17c29;}.i{fill:#6d6e71;}.j{fill:#3c2415;}.k{fill:url(#b);}.l{fill:#fbb040;}.m{clip-path:url(#d);}.n{fill:none;}.o{fill:#474747;}.p{fill:#d1d3d4;}.q{fill:#e6e7e8;}.r{fill:#bcbec0;}.s{fill:#f7941e;}.t{fill:#31d0e5;stroke:url(#c);stroke-miterlimit:10;stroke-width:6px;}.u{fill:#58595b;}.v{fill:#414042;}</style><linearGradient id="b" x1="43.17" y1="103.28" x2="392.43" y2="342.6" gradientTransform="matrix(1, 0, 0, 1, 0, 0)" gradientUnits="userSpaceOnUse"><stop offset="0" stop-color="#9b81cf"/><stop offset="1" stop-color="#3b139b"/></linearGradient><linearGradient id="c" x1="16.1" y1="225.74" x2="427.68" y2="225.74" gradientTransform="matrix(1, 0, 0, 1, 0, 0)" gradientUnits="userSpaceOnUse"><stop offset="0" stop-color="#4c1da9"/><stop offset="1" stop-color="#997ece"/></linearGradient><clipPath id="d"><circle class="n" cx="225.89" cy="228.06" r="209.22"/></clipPath></defs><path class="f" d="M435.12,236.99c0-36.23-9.21-70.32-25.42-100.03-35.31-67.72-106.15-113.96-187.81-113.96C104.98,23,10.21,117.77,10.21,234.67s94.77,211.68,211.68,211.68c2.97,0,5.93-.08,8.87-.2,113.3-2.59,204.36-95.24,204.36-209.16Z"/><g><g><circle class="k" cx="221.89" cy="225.74" r="211.68"/><circle class="t" cx="221.89" cy="225.74" r="202.78"/></g><g class="m"><g><g class="f"><path class="e" d="M51.97,255.28c22.63,11.5,2.17,16.5-16.72,15.41-18.88-1.09-5.92-26.9,16.72-15.41Z"/></g><g class="f"><g><path class="e" d="M263.17,170.45s5.22-24.5,32.29-6.16c27.07,18.34-25.59,20.4-49.51,15.94-23.92-4.46,17.22-9.78,17.22-9.78Z"/><path class="e" d="M314.97,149.28c22.63,11.5,2.17,16.5-16.72,15.41-18.88-1.09-5.92-26.9,16.72-15.41Z"/></g></g><g><path class="r" d="M282.96,299.7c-.15-.07-.3-.14-.44-.2-13.28-5.87-27.41-10.36-38.93-19.27-.88-2.35-1.76-4.72-2.62-7.1,.59-.06,1.19-.12,1.8-.2,53.52-7.28,109.23,3.25,156.59,29.6,.04,2.18-3.41,2.28-5.54,2.6-9.11,1.4-18.63-.16-26.86-4.37,1.2,.92,.83,2.96-.4,3.83-1.23,.87-2.86,.84-4.35,.65-5.01-.65-9.83-2.73-13.77-5.94,.09,1.33,.17,2.66,.26,3.99-9.28-.18-18.51-2.64-26.69-7.1-12.81,3.23-26.05,5.03-39.05,3.52Z"/><path class="u" d="M282.96,299.7c-.15-.07-.3-.14-.44-.2-6.93-3.06-14.09-5.77-21-8.91,14.3,2.23,29,2.17,43.47,1.02,18.21-1.45,36.25-4.59,54.38-6.93,13.8,4.77,27.2,10.72,39.99,17.83,.04,2.18-3.41,2.28-5.54,2.6-9.11,1.4-18.63-.16-26.86-4.37,1.2,.92,.83,2.96-.4,3.83-1.23,.87-2.86,.84-4.35,.65-5.01-.65-9.83-2.73-13.77-5.94,.09,1.33,.17,2.66,.26,3.99-9.28-.18-18.51-2.64-26.69-7.1-12.81,3.23-26.05,5.03-39.05,3.52Z"/><g><path class="s" d="M147.05,291.06l-24.9-5.84c-1.19-.28-.69-2.14,.5-1.86,8.3,1.95,16.6,3.89,24.9,5.84,1.19,.28,.69,2.14-.5,1.86Z"/><path class="s" d="M138.14,285.65c-1.2-.28-2.4,.48-2.68,1.7-.28,1.22,.47,2.44,1.67,2.72,1.2,.28,2.4-.48,2.68-1.7,.28-1.22-.47-2.44-1.67-2.72Z"/><path class="s" d="M123.95,284.74c.06-.28-7.2-6.66-9.11-8.34-.15-.13-.39-.05-.35,.12l.38,1.91c.22,1.13-.44,2.17-1.66,2.62l-1.74,.63c-.11,.04-.14,.16-.06,.25l1.3,1.35c.91,.94,1.05,2.18,.36,3.09l-1.17,1.55c-.1,.13,.08,.31,.27,.26,2.44-.66,11.72-3.17,11.79-3.44Z"/><g><path class="h" d="M119.3,282.45l-5.73-1.57c.61-.31,1.03-.8,1.22-1.36l4.52,2.93Z"/><path class="h" d="M112.96,283.59l5.83,1.14-5.32,.62c.07-.59-.1-1.21-.51-1.76Z"/></g></g><path class="q" d="M121.95,135.8c-3.38-6.15-4.85-13.79-2.42-20.33,.2-.54,.94-.6,1.22-.1,.86,1.54,1.02,2.11,2.97,3.52-6.51-10.77-8.27-24.38-4.78-36.51,.18-.61,.93-.85,1.42-.45,15.24,12.29,23.09,31.66,34.54,47.73,8.9,12.49,23.63,32.26,35.58,42.01,24.74,20.17,37.72,67.66,53.09,108.56,11.52,8.9,25.65,13.4,38.93,19.27,13.28,5.87,26.6,13.93,33.28,26.98-1.5,1.36-11.55,5.55-14.84,5.11,3.98,4.2,4.05,2.92,7.39,7.67-16.75,3.77-31.05,5.34-48.18,6.37-17.13,1.03-39.96-1.56-55.66-8.58-22.43-10.02-38.26-26.67-54.15-45.61-11.1-2.58-26.3-8.28-37.53-12.2-.03,.02-.06,.05-.1,.07,0,0-3.95-1.42-5.2-1.9-3.03-1.15-4.74-1.78-5.98-2.64-.42-.29-.82-.64-1.08-1.09s-.32-1.05-.02-1.47c.37-.5,1.1-.54,1.71-.45,1.72,.23,2.01,.33,3.52,.64-1.41-1.01-1.52-.84-2.93-1.84-.83-.59-1.68-1.21-2.21-2.1l-.02-.03c-.72-1.24,.52-2.72,1.87-2.3,.65,.2,1.25,.38,2.18,.67,0-.04-.02-.07-.03-.11-2.62-1.77-4.95-3.98-6.84-6.53-.55-.73-1.07-1.52-1.24-2.43v-.03c-.24-1.3,.99-2.39,2.26-2.11,1.5,.34,2.55,.57,3.85,1.31,0-.07-.02-.14-.03-.2-2.26-1.87-4.23-4.1-5.82-6.59-.42-.66-.82-1.36-.86-2.14-.17-3.52,4.71-1.15,6.12-.7,0,0-1.75-1.36-2.7-2.57-.88-1.11-1.59-2.37-2-3.74-.46-1.52,1.06-2.89,2.52-2.31,.72,.28,1.66,.78,2.66,1.36v-.04c.15,.1,.3,.2,.45,.3,2.21,1.3,4.59,2.91,5.48,3.52,.43,.29,.81,.59,1.16,.91,14.91,9.86,30.79,19.99,45,29.72,12.33,.22,24.4,1.19,36.59,3.04-13.54-13.08-23.13-30.23-27.63-48.64-3.33-13.63-8.87-26.7-17.18-37.92-2.17-2.92-3.84-6.23-4.86-9.74-.24-.83,.59-1.57,1.38-1.22l6.97,3.1c-11.89-7.06-20.27-19.88-22.17-33.72-.15-1.09,.95-1.91,1.93-1.45,2.12,.98,4.85,2.79,6.94,4.77-5.43-5.09-10.96-10.29-14.56-16.84Z"/><g><path class="q" d="M133.14,157.06c-1.41-1.33-3.09-2.56-4.7-3.54-.1-.41-.2-.82-.28-1.23,1.63,1.62,3.3,3.21,4.98,4.77Z"/><path class="q" d="M142.98,185.16c1.12,.82,2.27,1.6,3.46,2.31l-3.03-1.35c-.16-.32-.28-.64-.43-.96Z"/><path class="q" d="M99.18,261.14c0,.07,.02,.14,.03,.2-.32-.18-.62-.33-.92-.46-.19-.24-.4-.47-.58-.71-.26-.35-.51-.71-.72-1.08,.7,.72,1.42,1.41,2.19,2.05Z"/><path class="q" d="M118.38,121.49c.02-.53,.06-1.07,.12-1.6,.57,1.17,1.18,2.31,1.85,3.42-1.05-.76-1.57-1.28-1.97-1.83Z"/><path class="q" d="M96.58,249.88c.93,.96,2.04,1.82,2.04,1.82-.26-.08-.63-.23-1.06-.39-.28-.39-.56-.78-.82-1.19-.05-.08-.1-.16-.15-.24Z"/><path class="o" d="M280.71,303.12c-13.28-5.87-30.31-9.56-41.84-18.46-15.37-40.9-32.06-85.68-53.09-108.56-10.46-11.38-26.68-29.52-35.58-42.01-11.23-15.75-17.89-34.34-32.54-46.66,.28-1.59-.5-3.49-.05-5.04,.18-.61,.93-.85,1.42-.45,15.24,12.29,23.09,31.66,34.54,47.73,8.9,12.49,23.63,32.26,35.58,42.01,24.74,20.17,37.72,67.66,53.09,108.56,11.52,8.9,25.65,13.4,38.93,19.27,13.28,5.87,26.6,13.93,33.28,26.98-.57,.51-.17,.51-2.35,1.43-6.98-11.84-18.83-19.25-31.39-24.79Z"/></g><path class="e" d="M282.18,316.46c-.72,3.83,1.74,7.53,5.51,8.26,3.77,.74,7.41-1.77,8.13-5.6,.72-3.83-1.74-7.53-5.51-8.26-3.77-.74-7.41,1.77-8.13,5.6Z"/><path class="v" d="M283.77,316.77c-.56,2.93,1.33,5.77,4.22,6.33,2.88,.56,5.67-1.36,6.23-4.29,.55-2.93-1.33-5.77-4.22-6.33-2.88-.56-5.67,1.36-6.23,4.29Z"/><path class="e" d="M291.75,314.36c-.14,.73,.33,1.44,1.05,1.58,.72,.14,1.42-.34,1.56-1.07,.14-.73-.33-1.44-1.05-1.58-.72-.14-1.42,.34-1.56,1.07Z"/><path class="i" d="M119.84,119.01c.86,1.54,1.02,2.11,2.97,3.52-6.51-10.77-8.27-24.38-4.78-36.51,.18-.61,.93-.85,1.42-.45,15.24,12.29,22.16,33.78,33.62,49.85,4.6,6.45,50.35,58.92,53.56,67.05,21.97,37.15,19.46,45.94,34.84,84.8-3.84-.71-47.63-5.91-51.49-6.41-13.4-13.05-22.9-30.09-27.37-48.39-3.33-13.63-8.87-26.7-17.18-37.92-2.17-2.92-3.84-6.23-4.86-9.74-.24-.83,.59-1.57,1.38-1.22l6.97,3.1c-11.89-7.06-20.27-19.88-22.17-33.72-.15-1.09,.95-1.91,1.93-1.45,2.12,.98,4.85,2.79,6.94,4.77-5.43-5.09-10.96-10.29-14.56-16.84-3.38-6.15-4.85-13.79-2.42-20.33,.2-.54,.94-.6,1.22-.1Z"/><g><path class="q" d="M128.45,153.53c-.1-.41-.2-.82-.28-1.23,.09,.41,.18,.82,.28,1.23Z"/><path class="q" d="M99.2,261.35c-.32-.18-.62-.33-.92-.46-.19-.24-.4-.47-.58-.71-.26-.35-.51-.71-.72-1.08,.7,.72,1.42,1.41,2.19,2.05,0,.07,.02,.14,.03,.2Z"/><path class="q" d="M98.62,251.71c-.26-.08-.63-.23-1.06-.39-.28-.39-.56-.78-.82-1.19-.05-.08-.1-.16-.15-.24,.93,.96,2.04,1.82,2.04,1.82Z"/><path class="e" d="M161.03,138.08c-.13-.18-.27-.36-.4-.54,.13,.18,.27,.36,.4,.54Z"/><path class="e" d="M158.95,135.26c-.12-.16-.24-.32-.35-.48,.11,.16,.24,.32,.35,.48Z"/><path class="e" d="M157.1,132.71c-.14-.19-.28-.39-.42-.58,.14,.19,.28,.39,.42,.58Z"/><path class="e" d="M165.5,144.01c-.18-.23-.36-.46-.53-.69,.18,.23,.36,.46,.53,.69Z"/><path class="e" d="M170.24,150.05c-.21-.27-.43-.53-.64-.8,.21,.27,.43,.53,.64,.8Z"/><path class="e" d="M167.83,147.01c-.19-.24-.38-.49-.57-.73,.19,.24,.38,.49,.57,.73Z"/><path class="e" d="M163.24,141.04c-.16-.22-.33-.43-.49-.65,.16,.21,.33,.43,.49,.65Z"/><path class="e" d="M139.06,104.38c-2.65-4.19-5.42-8.27-8.48-12.07,3.06,3.8,5.83,7.87,8.48,12.07Z"/><path class="e" d="M130.58,92.32c-1.16-1.44-2.37-2.82-3.63-4.17,1.25,1.35,2.47,2.73,3.63,4.17Z"/></g><g><path class="s" d="M147.97,284.92c-7.63-3.85-15.26-7.7-22.89-11.55-1.1-.55-.13-2.22,.96-1.67,7.63,3.85,15.26,7.7,22.89,11.55,1.1,.55,.13,2.22-.96,1.67Z"/><path class="s" d="M140.56,277.58c-1.11-.56-2.45-.1-2.99,1.02-.55,1.12-.1,2.49,1.01,3.04,1.1,.56,2.45,.1,2.99-1.02,.55-1.12,.1-2.49-1.01-3.04Z"/><path class="s" d="M126.96,273.34c.12-.25-5.48-8.18-6.96-10.26-.11-.16-.37-.14-.37,.03l-.07,1.95c-.04,1.15-.92,2.01-2.21,2.15l-1.84,.21c-.12,.01-.18,.12-.11,.23l.95,1.61c.67,1.13,.53,2.36-.35,3.09l-1.49,1.23c-.13,.11,0,.32,.2,.32,2.53-.06,12.13-.31,12.25-.57Z"/><g><path class="h" d="M122.97,270.02l-5.22-2.88c.66-.16,1.18-.53,1.49-1.03l3.72,3.92Z"/><path class="h" d="M116.53,269.63l5.41,2.48-5.32-.65c.21-.55,.18-1.2-.09-1.83Z"/></g></g><g><path class="p" d="M147.9,287.02c-3.78-2.39,3.94,2.12,0,0h0Z"/><path class="p" d="M117.87,277.34c6.98,3.75,23.05,5.93,30.03,9.68,6.81,4.3,18.87,18.7,25.44,23.34,37.69,26.63,86.81,35.87,131.4,24.74,.99,.84,1.85,1.67,3.6,4.16-16.75,3.77-31.05,5.34-48.18,6.37-17.13,1.03-39.96-1.56-55.66-8.58-22.43-10.02-38.26-26.67-54.15-45.61-8.81-2.05-20.17-6.05-30.11-9.58,.2-1.16-2.76-3.38-2.38-4.52Z"/></g><path class="u" d="M100.46,273.69c-.26-.45-.32-1.05-.02-1.47,.37-.5,1.1-.54,1.71-.45,1.72,.23,2.01,.33,3.52,.64-1.41-1.01-1.52-.84-2.93-1.84-.83-.59-1.68-1.21-2.21-2.1l-.02-.03c-.72-1.24,.52-2.72,1.87-2.3,.65,.2,1.25,.38,2.18,.67,0-.04-.02-.07-.03-.11-2.62-1.77-4.95-3.98-6.84-6.53-.55-.73-1.07-1.52-1.24-2.43v-.03c-.24-1.3,.99-2.39,2.26-2.11,1.5,.34,2.55,.57,3.85,1.31,0-.07-.02-.14-.03-.2-2.26-1.87-4.23-4.1-5.82-6.59-.42-.66-.82-1.36-.86-2.14-.17-3.52,4.71-1.15,6.12-.7,0,0-1.75-1.36-2.7-2.57-.88-1.11-1.59-2.37-2-3.74-.46-1.52,1.06-2.89,2.52-2.31,.72,.28,1.66,.78,2.66,1.36v-.04c.15,.1,.3,.2,.45,.3,2.21,1.3,4.59,2.91,5.48,3.52,.43,.29,.81,.59,1.16,.91,7.03,4.65,14.28,9.36,21.47,14.06-1.4-.51-2.78-1.06-4.15-1.56-4.52-1.64-10.2-2.36-13.54,1.13-2.63,2.75-2.69,7.26-1.17,10.77,1.52,3.51,4.32,6.25,7.05,8.9l5.66,5.48c-4.25-1.5-8.37-2.97-12.05-4.26-.03,.02-.06,.05-.1,.07,0,0-3.95-1.42-5.2-1.9-3.03-1.15-4.74-1.78-5.98-2.64-.42-.29-.82-.64-1.08-1.09Z"/><path class="s" d="M300.9,331.9c2.16,2.47,3.87,4.49,6.03,6.96,7.11,2.02,14.23,4.04,21.34,6.06,2.51,.71,5.06,1.44,7.3,2.82,2.24,1.38,3.6,2.8,4.22,5.46,1.56-6.89-1.21-14.33-6.08-19.12-4.87-4.79-11.56-7.16-18.23-7.74,0,0-9.61,3.86-14.58,5.55Z"/><path class="g" d="M301.96,332.11c4.98,2.11,10.36,3.12,15.62,4.37,6,1.43,12.09,3.29,16.9,7.29,2.37,1.97,4.37,4.57,5.64,7.47-.07,.66-.17,1.32-.32,1.97-.62-2.67-1.98-4.08-4.22-5.46-2.24-1.38-4.79-2.11-7.3-2.82-7.11-2.02-14.23-4.04-21.34-6.06-2.06-2.36-3-4.42-4.97-6.75Z"/><path class="j" d="M317.22,329.05c1.11,.49,2.43,.45,3.5-.11-.82-.59-1.79-.98-2.79-1.13-.29-.04-.59-.06-.85,.06-.26,.12-.46,.43-.38,.71,.07,.23,.3,.37,.51,.46Z"/><path class="l" d="M332.63,334.53c-4.76-4.36-11.66-6.78-17.98-7.85,.52-.21,.83-.33,.83-.33,6.67,.59,13.36,2.95,18.23,7.74,3.36,3.3,5.67,7.86,6.31,12.63-1.91-4.43-3.85-8.95-7.39-12.19Z"/></g></g></g></g></svg>